<?xml version="1.0" encoding="UTF-8" standalone="no"?>
<!DOCTYPE svg PUBLIC "-//W3C//DTD SVG 1.1//EN"
 "http://www.w3.org/Graphics/SVG/1.1/DTD/svg11.dtd">
<!-- Generated by graphviz version 2.38.0 (20140413.2041)
 -->
<!-- Title: E:/Dev/ObEngine/Git/src/Animation/Animation.cpp Pages: 1 -->
<!--zoomable 655 -->
<svg id="main" version="1.1" xmlns="http://www.w3.org/2000/svg" xmlns:xlink="http://www.w3.org/1999/xlink" xml:space="preserve" onload="init(evt)">
<style type="text/css"><![CDATA[
.edge:hover path { stroke: red; }
.edge:hover polygon { stroke: red; fill: red; }
.edge path { stroke: white; }
.edge polygon { stroke: white; fill: white; }
.node polygon { fill: white; }
]]></style>
<script type="text/javascript"><![CDATA[
var edges = document.getElementsByTagName('g');
if (edges && edges.length) {
  for (var i=0;i<edges.length;i++) {
    if (edges[i].id.substr(0,4)=='edge') {
      edges[i].setAttribute('class','edge');
    }
  }
}
]]></script>
        <defs>
                <circle id="rim" cx="0" cy="0" r="7"/>
                <circle id="rim2" cx="0" cy="0" r="3.5"/>
                <g id="zoomPlus">
                        <use xlink:href="#rim" fill="#404040">
                                <set attributeName="fill" to="#808080" begin="zoomplus.mouseover" end="zoomplus.mouseout"/>
                        </use>
                        <path d="M-4,0h8M0,-4v8" fill="none" stroke="white" stroke-width="1.5" pointer-events="none"/>
                </g>
                <g id="zoomMin">
                        <use xlink:href="#rim" fill="#404040">
                                <set attributeName="fill" to="#808080" begin="zoomminus.mouseover" end="zoomminus.mouseout"/>
                        </use>
                        <path d="M-4,0h8" fill="none" stroke="white" stroke-width="1.5" pointer-events="none"/>
                </g>
                <g id="dirArrow">
                        <path fill="none" stroke="white" stroke-width="1.5" d="M0,-3.0v7 M-2.5,-0.5L0,-3.0L2.5,-0.5"/>
                </g>
               <g id="resetDef">
                       <use xlink:href="#rim2" fill="#404040">
                               <set attributeName="fill" to="#808080" begin="reset.mouseover" end="reset.mouseout"/>
                       </use>
               </g>
        </defs>

<script type="text/javascript">
var viewWidth = 1473;
var viewHeight = 655;
var sectionId = 'dynsection-0';
</script>
<script xlink:href="svgpan.js"/>
<svg id="graph" class="graph">
<g id="viewport">
<title>E:/Dev/ObEngine/Git/src/Animation/Animation.cpp</title>
<!-- Node0 -->
<g id="node1" class="node"><title>Node0</title>
<polygon fill="#bfbfbf" stroke="black" points="925.5,-616.5 925.5,-646.5 1070.5,-646.5 1070.5,-616.5 925.5,-616.5"/>
<text text-anchor="start" x="933.5" y="-634.5" font-family="Helvetica,sans-Serif" font-size="10.00">E:/Dev/ObEngine/Git</text>
<text text-anchor="middle" x="998" y="-623.5" font-family="Helvetica,sans-Serif" font-size="10.00">/src/Animation/Animation.cpp</text>
</g>
<!-- Node1 -->
<g id="node2" class="node"><title>Node1</title>
<g id="a_node2"><a xlink:href="_animation_8hpp.html" target="_top" xlink:title="Animation/Animation.hpp">
<polygon fill="none" stroke="black" points="481.5,-560.5 481.5,-579.5 606.5,-579.5 606.5,-560.5 481.5,-560.5"/>
<text text-anchor="middle" x="544" y="-567.5" font-family="Helvetica,sans-Serif" font-size="10.00">Animation/Animation.hpp</text>
</a>
</g>
</g>
<!-- Node0&#45;&gt;Node1 -->
<g id="edge1" class="edge"><title>Node0&#45;&gt;Node1</title>
<path fill="none" stroke="midnightblue" d="M925.309,-620.973C840.577,-609.869 701.378,-591.626 616.66,-580.523"/>
<polygon fill="midnightblue" stroke="midnightblue" points="616.976,-577.034 606.605,-579.205 616.066,-583.975 616.976,-577.034"/>
</g>
<!-- Node38 -->
<g id="node39" class="node"><title>Node38</title>
<g id="a_node39"><a xlink:href="_resource_manager_8hpp.html" target="_top" xlink:title="Graphics/ResourceManager.hpp">
<polygon fill="none" stroke="black" points="503,-504.5 503,-523.5 659,-523.5 659,-504.5 503,-504.5"/>
<text text-anchor="middle" x="581" y="-511.5" font-family="Helvetica,sans-Serif" font-size="10.00">Graphics/ResourceManager.hpp</text>
</a>
</g>
</g>
<!-- Node0&#45;&gt;Node38 -->
<g id="edge64" class="edge"><title>Node0&#45;&gt;Node38</title>
<path fill="none" stroke="midnightblue" d="M947.285,-616.453C863.571,-593.266 698.132,-547.443 621.597,-526.244"/>
<polygon fill="midnightblue" stroke="midnightblue" points="622.412,-522.839 611.841,-523.542 620.544,-529.585 622.412,-522.839"/>
</g>
<!-- Node39 -->
<g id="node40" class="node"><title>Node39</title>
<g id="a_node40"><a xlink:href="_loaders_8hpp.html" target="_top" xlink:title="System/Loaders.hpp">
<polygon fill="none" stroke="black" points="1050.5,-560.5 1050.5,-579.5 1157.5,-579.5 1157.5,-560.5 1050.5,-560.5"/>
<text text-anchor="middle" x="1104" y="-567.5" font-family="Helvetica,sans-Serif" font-size="10.00">System/Loaders.hpp</text>
</a>
</g>
</g>
<!-- Node0&#45;&gt;Node39 -->
<g id="edge69" class="edge"><title>Node0&#45;&gt;Node39</title>
<path fill="none" stroke="midnightblue" d="M1023.12,-616.399C1040.27,-606.773 1062.86,-594.09 1079.81,-584.577"/>
<polygon fill="midnightblue" stroke="midnightblue" points="1081.57,-587.605 1088.58,-579.658 1078.14,-581.501 1081.57,-587.605"/>
</g>
<!-- Node42 -->
<g id="node43" class="node"><title>Node42</title>
<g id="a_node43"><a xlink:href="_string_utils_8hpp.html" target="_top" xlink:title="Utils/StringUtils.hpp">
<polygon fill="none" stroke="black" points="1361.5,-112.5 1361.5,-131.5 1464.5,-131.5 1464.5,-112.5 1361.5,-112.5"/>
<text text-anchor="middle" x="1413" y="-119.5" font-family="Helvetica,sans-Serif" font-size="10.00">Utils/StringUtils.hpp</text>
</a>
</g>
</g>
<!-- Node0&#45;&gt;Node42 -->
<g id="edge75" class="edge"><title>Node0&#45;&gt;Node42</title>
<path fill="none" stroke="midnightblue" d="M1070.76,-625.219C1189.78,-614.559 1413,-585.206 1413,-515 1413,-515 1413,-515 1413,-233 1413,-200.948 1413,-163.643 1413,-141.749"/>
<polygon fill="midnightblue" stroke="midnightblue" points="1416.5,-141.558 1413,-131.558 1409.5,-141.558 1416.5,-141.558"/>
</g>
<!-- Node2 -->
<g id="node3" class="node"><title>Node2</title>
<g id="a_node3"><a xlink:href="_vili_8hpp.html" target="_top" xlink:title="vili/Vili.hpp">
<polygon fill="none" stroke="black" points="1029,-504.5 1029,-523.5 1091,-523.5 1091,-504.5 1029,-504.5"/>
<text text-anchor="middle" x="1060" y="-511.5" font-family="Helvetica,sans-Serif" font-size="10.00">vili/Vili.hpp</text>
</a>
</g>
</g>
<!-- Node1&#45;&gt;Node2 -->
<g id="edge2" class="edge"><title>Node1&#45;&gt;Node2</title>
<path fill="none" stroke="midnightblue" d="M606.756,-562.433C713.715,-551.239 928.488,-528.763 1018.65,-519.327"/>
<polygon fill="midnightblue" stroke="midnightblue" points="1019.18,-522.791 1028.76,-518.269 1018.45,-515.829 1019.18,-522.791"/>
</g>
<!-- Node26 -->
<g id="node27" class="node"><title>Node26</title>
<g id="a_node27"><a xlink:href="_animation_group_8hpp.html" target="_top" xlink:title="Animation/AnimationGroup.hpp">
<polygon fill="none" stroke="black" points="295,-504.5 295,-523.5 447,-523.5 447,-504.5 295,-504.5"/>
<text text-anchor="middle" x="371" y="-511.5" font-family="Helvetica,sans-Serif" font-size="10.00">Animation/AnimationGroup.hpp</text>
</a>
</g>
</g>
<!-- Node1&#45;&gt;Node26 -->
<g id="edge48" class="edge"><title>Node1&#45;&gt;Node26</title>
<path fill="none" stroke="midnightblue" d="M516.588,-560.444C487.231,-551.28 440.481,-536.688 407.904,-526.519"/>
<polygon fill="midnightblue" stroke="midnightblue" points="408.873,-523.155 398.284,-523.516 406.787,-529.837 408.873,-523.155"/>
</g>
<!-- Node29 -->
<g id="node30" class="node"><title>Node29</title>
<g id="a_node30"><a xlink:href="_path_8hpp.html" target="_top" xlink:title="System/Path.hpp">
<polygon fill="none" stroke="black" points="240,-168.5 240,-187.5 332,-187.5 332,-168.5 240,-168.5"/>
<text text-anchor="middle" x="286" y="-175.5" font-family="Helvetica,sans-Serif" font-size="10.00">System/Path.hpp</text>
</a>
</g>
</g>
<!-- Node1&#45;&gt;Node29 -->
<g id="edge51" class="edge"><title>Node1&#45;&gt;Node29</title>
<path fill="none" stroke="midnightblue" d="M481.371,-569.278C426.671,-567.007 346.743,-557.438 286,-524 251.821,-505.185 227,-498.015 227,-459 227,-459 227,-459 227,-289 227,-252.024 253.209,-215.472 270.691,-195.205"/>
<polygon fill="midnightblue" stroke="midnightblue" points="273.475,-197.343 277.547,-187.562 268.264,-192.669 273.475,-197.343"/>
</g>
<!-- Node3 -->
<g id="node4" class="node"><title>Node3</title>
<g id="a_node4"><a xlink:href="_data_parser_8hpp.html" target="_top" xlink:title="vili/DataParser.hpp">
<polygon fill="none" stroke="black" points="981,-448.5 981,-467.5 1079,-467.5 1079,-448.5 981,-448.5"/>
<text text-anchor="middle" x="1030" y="-455.5" font-family="Helvetica,sans-Serif" font-size="10.00">vili/DataParser.hpp</text>
</a>
</g>
</g>
<!-- Node2&#45;&gt;Node3 -->
<g id="edge3" class="edge"><title>Node2&#45;&gt;Node3</title>
<path fill="none" stroke="midnightblue" d="M1055.05,-504.083C1050.9,-496.613 1044.85,-485.724 1039.73,-476.52"/>
<polygon fill="midnightblue" stroke="midnightblue" points="1042.78,-474.793 1034.86,-467.751 1036.66,-478.192 1042.78,-474.793"/>
</g>
<!-- Node10 -->
<g id="node11" class="node"><title>Node10</title>
<g id="a_node11"><a xlink:href="_error_handler_8hpp.html" target="_top" xlink:title="../ErrorHandler.hpp">
<polygon fill="none" stroke="black" points="533,-112.5 533,-131.5 631,-131.5 631,-112.5 533,-112.5"/>
<text text-anchor="middle" x="582" y="-119.5" font-family="Helvetica,sans-Serif" font-size="10.00">../ErrorHandler.hpp</text>
</a>
</g>
</g>
<!-- Node2&#45;&gt;Node10 -->
<g id="edge39" class="edge"><title>Node2&#45;&gt;Node10</title>
<path fill="none" stroke="midnightblue" d="M1034.17,-504.437C958.993,-478.192 738.352,-391.578 623,-244 598.836,-213.085 588.49,-167.115 584.403,-141.66"/>
<polygon fill="midnightblue" stroke="midnightblue" points="587.834,-140.932 582.939,-131.536 580.906,-141.935 587.834,-140.932"/>
</g>
<!-- Node21 -->
<g id="node22" class="node"><title>Node21</title>
<g id="a_node22"><a xlink:href="_link_attribute_8hpp.html" target="_top" xlink:title="LinkAttribute.hpp">
<polygon fill="none" stroke="black" points="1062,-336.5 1062,-355.5 1152,-355.5 1152,-336.5 1062,-336.5"/>
<text text-anchor="middle" x="1107" y="-343.5" font-family="Helvetica,sans-Serif" font-size="10.00">LinkAttribute.hpp</text>
</a>
</g>
</g>
<!-- Node2&#45;&gt;Node21 -->
<g id="edge38" class="edge"><title>Node2&#45;&gt;Node21</title>
<path fill="none" stroke="midnightblue" d="M1066.94,-504.256C1073.45,-495.574 1082.93,-481.626 1088,-468 1100.87,-433.403 1105.02,-390.088 1106.36,-365.787"/>
<polygon fill="midnightblue" stroke="midnightblue" points="1109.87,-365.652 1106.82,-355.506 1102.88,-365.341 1109.87,-365.652"/>
</g>
<!-- Node22 -->
<g id="node23" class="node"><title>Node22</title>
<g id="a_node23"><a xlink:href="_functions_8hpp.html" target="_top" xlink:title="Functions.hpp">
<polygon fill="none" stroke="black" points="1129,-112.5 1129,-131.5 1207,-131.5 1207,-112.5 1129,-112.5"/>
<text text-anchor="middle" x="1168" y="-119.5" font-family="Helvetica,sans-Serif" font-size="10.00">Functions.hpp</text>
</a>
</g>
</g>
<!-- Node2&#45;&gt;Node22 -->
<g id="edge40" class="edge"><title>Node2&#45;&gt;Node22</title>
<path fill="none" stroke="midnightblue" d="M1091.21,-505.362C1155.13,-488.801 1295,-447.484 1295,-403 1295,-403 1295,-403 1295,-233 1295,-183.865 1240.01,-151.766 1202.4,-135.557"/>
<polygon fill="midnightblue" stroke="midnightblue" points="1203.37,-132.169 1192.79,-131.591 1200.7,-138.64 1203.37,-132.169"/>
</g>
<!-- Node4 -->
<g id="node5" class="node"><title>Node4</title>
<g id="a_node5"><a xlink:href="_complex_attribute_8hpp.html" target="_top" xlink:title="ComplexAttribute.hpp">
<polygon fill="none" stroke="black" points="899,-280.5 899,-299.5 1009,-299.5 1009,-280.5 899,-280.5"/>
<text text-anchor="middle" x="954" y="-287.5" font-family="Helvetica,sans-Serif" font-size="10.00">ComplexAttribute.hpp</text>
</a>
</g>
</g>
<!-- Node3&#45;&gt;Node4 -->
<g id="edge4" class="edge"><title>Node3&#45;&gt;Node4</title>
<path fill="none" stroke="midnightblue" d="M1013.74,-448.396C1000.81,-440.657 983.376,-428.045 974,-412 955.174,-379.784 952.751,-334.973 953.095,-309.907"/>
<polygon fill="midnightblue" stroke="midnightblue" points="956.602,-309.716 953.413,-299.613 949.606,-309.5 956.602,-309.716"/>
</g>
<!-- Node20 -->
<g id="node21" class="node"><title>Node20</title>
<g id="a_node21"><a xlink:href="_data_template_8hpp.html" target="_top" xlink:title="DataTemplate.hpp">
<polygon fill="none" stroke="black" points="983.5,-392.5 983.5,-411.5 1078.5,-411.5 1078.5,-392.5 983.5,-392.5"/>
<text text-anchor="middle" x="1031" y="-399.5" font-family="Helvetica,sans-Serif" font-size="10.00">DataTemplate.hpp</text>
</a>
</g>
</g>
<!-- Node3&#45;&gt;Node20 -->
<g id="edge31" class="edge"><title>Node3&#45;&gt;Node20</title>
<path fill="none" stroke="midnightblue" d="M1030.17,-448.083C1030.3,-441.006 1030.48,-430.861 1030.65,-421.986"/>
<polygon fill="midnightblue" stroke="midnightblue" points="1034.15,-421.814 1030.84,-411.751 1027.15,-421.685 1034.15,-421.814"/>
</g>
<!-- Node5 -->
<g id="node6" class="node"><title>Node5</title>
<polygon fill="none" stroke="#bfbfbf" points="647,-224.5 647,-243.5 705,-243.5 705,-224.5 647,-224.5"/>
<text text-anchor="middle" x="676" y="-231.5" font-family="Helvetica,sans-Serif" font-size="10.00">functional</text>
</g>
<!-- Node4&#45;&gt;Node5 -->
<g id="edge5" class="edge"><title>Node4&#45;&gt;Node5</title>
<path fill="none" stroke="midnightblue" d="M908.024,-280.437C860.617,-271.551 784.576,-257.14 719,-244 717.738,-243.747 716.456,-243.488 715.161,-243.226"/>
<polygon fill="midnightblue" stroke="midnightblue" points="715.63,-239.749 705.13,-241.167 714.223,-246.606 715.63,-239.749"/>
</g>
<!-- Node6 -->
<g id="node7" class="node"><title>Node6</title>
<polygon fill="none" stroke="#bfbfbf" points="745.5,-56.5 745.5,-75.5 780.5,-75.5 780.5,-56.5 745.5,-56.5"/>
<text text-anchor="middle" x="763" y="-63.5" font-family="Helvetica,sans-Serif" font-size="10.00">map</text>
</g>
<!-- Node4&#45;&gt;Node6 -->
<g id="edge6" class="edge"><title>Node4&#45;&gt;Node6</title>
<path fill="none" stroke="midnightblue" d="M898.917,-282.282C871.943,-276.336 840.866,-265.127 820,-244 776.194,-199.646 766.043,-121.496 763.699,-85.7718"/>
<polygon fill="midnightblue" stroke="midnightblue" points="767.193,-85.5654 763.179,-75.7602 760.202,-85.9282 767.193,-85.5654"/>
</g>
<!-- Node7 -->
<g id="node8" class="node"><title>Node7</title>
<polygon fill="none" stroke="#bfbfbf" points="691,-168.5 691,-187.5 743,-187.5 743,-168.5 691,-168.5"/>
<text text-anchor="middle" x="717" y="-175.5" font-family="Helvetica,sans-Serif" font-size="10.00">memory</text>
</g>
<!-- Node4&#45;&gt;Node7 -->
<g id="edge7" class="edge"><title>Node4&#45;&gt;Node7</title>
<path fill="none" stroke="midnightblue" d="M898.764,-287.706C856.454,-284.207 798.489,-273.736 757,-244 740.881,-232.447 729.937,-212.185 723.627,-197.346"/>
<polygon fill="midnightblue" stroke="midnightblue" points="726.754,-195.733 719.843,-187.702 720.237,-198.289 726.754,-195.733"/>
</g>
<!-- Node8 -->
<g id="node9" class="node"><title>Node8</title>
<polygon fill="none" stroke="#bfbfbf" points="867,-56.5 867,-75.5 909,-75.5 909,-56.5 867,-56.5"/>
<text text-anchor="middle" x="888" y="-63.5" font-family="Helvetica,sans-Serif" font-size="10.00">vector</text>
</g>
<!-- Node4&#45;&gt;Node8 -->
<g id="edge8" class="edge"><title>Node4&#45;&gt;Node8</title>
<path fill="none" stroke="midnightblue" d="M952.843,-280.497C951.049,-267.997 947.249,-243.978 942,-224 928.556,-172.83 906.63,-114.326 895.297,-85.311"/>
<polygon fill="midnightblue" stroke="midnightblue" points="898.436,-83.7302 891.511,-75.7112 891.924,-86.298 898.436,-83.7302"/>
</g>
<!-- Node9 -->
<g id="node10" class="node"><title>Node9</title>
<g id="a_node10"><a xlink:href="_base_attribute_8hpp.html" target="_top" xlink:title="BaseAttribute.hpp">
<polygon fill="none" stroke="black" points="963.5,-168.5 963.5,-187.5 1058.5,-187.5 1058.5,-168.5 963.5,-168.5"/>
<text text-anchor="middle" x="1011" y="-175.5" font-family="Helvetica,sans-Serif" font-size="10.00">BaseAttribute.hpp</text>
</a>
</g>
</g>
<!-- Node4&#45;&gt;Node9 -->
<g id="edge9" class="edge"><title>Node4&#45;&gt;Node9</title>
<path fill="none" stroke="midnightblue" d="M958.473,-280.368C967.796,-262.376 989.469,-220.55 1001.87,-196.627"/>
<polygon fill="midnightblue" stroke="midnightblue" points="1005.05,-198.081 1006.55,-187.591 998.84,-194.86 1005.05,-198.081"/>
</g>
<!-- Node16 -->
<g id="node17" class="node"><title>Node16</title>
<g id="a_node17"><a xlink:href="_container_attribute_8hpp.html" target="_top" xlink:title="ContainerAttribute.hpp">
<polygon fill="none" stroke="black" points="1115.5,-168.5 1115.5,-187.5 1228.5,-187.5 1228.5,-168.5 1115.5,-168.5"/>
<text text-anchor="middle" x="1172" y="-175.5" font-family="Helvetica,sans-Serif" font-size="10.00">ContainerAttribute.hpp</text>
</a>
</g>
</g>
<!-- Node4&#45;&gt;Node16 -->
<g id="edge20" class="edge"><title>Node4&#45;&gt;Node16</title>
<path fill="none" stroke="midnightblue" d="M1009.24,-284.068C1063.64,-278.023 1141.49,-265.791 1162,-244 1173.36,-231.93 1175.05,-212.644 1174.39,-198.209"/>
<polygon fill="midnightblue" stroke="midnightblue" points="1177.84,-197.561 1173.49,-187.903 1170.87,-198.169 1177.84,-197.561"/>
</g>
<!-- Node17 -->
<g id="node18" class="node"><title>Node17</title>
<g id="a_node18"><a xlink:href="_list_attribute_8hpp.html" target="_top" xlink:title="ListAttribute.hpp">
<polygon fill="none" stroke="black" points="1065,-224.5 1065,-243.5 1153,-243.5 1153,-224.5 1065,-224.5"/>
<text text-anchor="middle" x="1109" y="-231.5" font-family="Helvetica,sans-Serif" font-size="10.00">ListAttribute.hpp</text>
</a>
</g>
</g>
<!-- Node4&#45;&gt;Node17 -->
<g id="edge22" class="edge"><title>Node4&#45;&gt;Node17</title>
<path fill="none" stroke="midnightblue" d="M978.56,-280.444C1004.52,-271.399 1045.67,-257.064 1074.8,-246.916"/>
<polygon fill="midnightblue" stroke="midnightblue" points="1076.26,-250.112 1084.55,-243.516 1073.96,-243.501 1076.26,-250.112"/>
</g>
<!-- Node18 -->
<g id="node19" class="node"><title>Node18</title>
<g id="a_node19"><a xlink:href="_node_iterator_8hpp.html" target="_top" xlink:title="NodeIterator.hpp">
<polygon fill="none" stroke="black" points="819,-168.5 819,-187.5 907,-187.5 907,-168.5 819,-168.5"/>
<text text-anchor="middle" x="863" y="-175.5" font-family="Helvetica,sans-Serif" font-size="10.00">NodeIterator.hpp</text>
</a>
</g>
</g>
<!-- Node4&#45;&gt;Node18 -->
<g id="edge27" class="edge"><title>Node4&#45;&gt;Node18</title>
<path fill="none" stroke="midnightblue" d="M898.696,-283.685C872.746,-278.096 844.057,-266.785 828,-244 816.891,-228.236 830.932,-208.548 844.397,-194.994"/>
<polygon fill="midnightblue" stroke="midnightblue" points="847.167,-197.194 852.064,-187.799 842.377,-192.09 847.167,-197.194"/>
</g>
<!-- Node19 -->
<g id="node20" class="node"><title>Node19</title>
<g id="a_node20"><a xlink:href="_node_validator_8hpp.html" target="_top" xlink:title="NodeValidator.hpp">
<polygon fill="none" stroke="black" points="837,-224.5 837,-243.5 933,-243.5 933,-224.5 837,-224.5"/>
<text text-anchor="middle" x="885" y="-231.5" font-family="Helvetica,sans-Serif" font-size="10.00">NodeValidator.hpp</text>
</a>
</g>
</g>
<!-- Node4&#45;&gt;Node19 -->
<g id="edge29" class="edge"><title>Node4&#45;&gt;Node19</title>
<path fill="none" stroke="midnightblue" d="M942.914,-280.324C932.514,-272.185 916.739,-259.839 904.278,-250.087"/>
<polygon fill="midnightblue" stroke="midnightblue" points="906.32,-247.241 896.288,-243.834 902.006,-252.753 906.32,-247.241"/>
</g>
<!-- Node9&#45;&gt;Node10 -->
<g id="edge10" class="edge"><title>Node9&#45;&gt;Node10</title>
<path fill="none" stroke="midnightblue" d="M963.45,-171.015C884.628,-161.093 727.093,-141.263 641.192,-130.451"/>
<polygon fill="midnightblue" stroke="midnightblue" points="641.44,-126.954 631.081,-129.178 640.566,-133.9 641.44,-126.954"/>
</g>
<!-- Node14 -->
<g id="node15" class="node"><title>Node14</title>
<g id="a_node15"><a xlink:href="_attribute_8hpp.html" target="_top" xlink:title="Attribute.hpp">
<polygon fill="none" stroke="black" points="1001,-112.5 1001,-131.5 1073,-131.5 1073,-112.5 1001,-112.5"/>
<text text-anchor="middle" x="1037" y="-119.5" font-family="Helvetica,sans-Serif" font-size="10.00">Attribute.hpp</text>
</a>
</g>
</g>
<!-- Node9&#45;&gt;Node14 -->
<g id="edge16" class="edge"><title>Node9&#45;&gt;Node14</title>
<path fill="none" stroke="midnightblue" d="M1015.29,-168.083C1018.85,-160.691 1024.02,-149.953 1028.42,-140.811"/>
<polygon fill="midnightblue" stroke="midnightblue" points="1031.6,-142.279 1032.79,-131.751 1025.29,-139.243 1031.6,-142.279"/>
</g>
<!-- Node10&#45;&gt;Node6 -->
<g id="edge13" class="edge"><title>Node10&#45;&gt;Node6</title>
<path fill="none" stroke="midnightblue" d="M610.68,-112.444C645.008,-102.202 702.067,-85.1789 735.749,-75.1301"/>
<polygon fill="midnightblue" stroke="midnightblue" points="736.819,-78.4635 745.401,-72.2506 734.817,-71.7557 736.819,-78.4635"/>
</g>
<!-- Node10&#45;&gt;Node8 -->
<g id="edge12" class="edge"><title>Node10&#45;&gt;Node8</title>
<path fill="none" stroke="midnightblue" d="M630.487,-112.444C693.999,-101.236 803.536,-81.9054 856.93,-72.483"/>
<polygon fill="midnightblue" stroke="midnightblue" points="857.59,-75.9206 866.83,-70.7359 856.374,-69.0271 857.59,-75.9206"/>
</g>
<!-- Node11 -->
<g id="node12" class="node"><title>Node11</title>
<polygon fill="none" stroke="#bfbfbf" points="996.5,-0.5 996.5,-19.5 1037.5,-19.5 1037.5,-0.5 996.5,-0.5"/>
<text text-anchor="middle" x="1017" y="-7.5" font-family="Helvetica,sans-Serif" font-size="10.00">string</text>
</g>
<!-- Node10&#45;&gt;Node11 -->
<g id="edge11" class="edge"><title>Node10&#45;&gt;Node11</title>
<path fill="none" stroke="midnightblue" d="M602.744,-112.467C624.517,-103.486 659.723,-88.8888 690,-76 710.512,-67.2681 714.603,-62.2564 736,-56 824.729,-30.0566 933.867,-17.9976 986.181,-13.3862"/>
<polygon fill="midnightblue" stroke="midnightblue" points="986.492,-16.8725 996.159,-12.537 985.898,-9.89768 986.492,-16.8725"/>
</g>
<!-- Node12 -->
<g id="node13" class="node"><title>Node12</title>
<polygon fill="none" stroke="#bfbfbf" points="550,-56.5 550,-75.5 604,-75.5 604,-56.5 550,-56.5"/>
<text text-anchor="middle" x="577" y="-63.5" font-family="Helvetica,sans-Serif" font-size="10.00">iostream</text>
</g>
<!-- Node10&#45;&gt;Node12 -->
<g id="edge14" class="edge"><title>Node10&#45;&gt;Node12</title>
<path fill="none" stroke="midnightblue" d="M581.174,-112.083C580.519,-105.006 579.58,-94.8611 578.758,-85.9865"/>
<polygon fill="midnightblue" stroke="midnightblue" points="582.217,-85.3858 577.81,-75.7511 575.247,-86.0312 582.217,-85.3858"/>
</g>
<!-- Node13 -->
<g id="node14" class="node"><title>Node13</title>
<polygon fill="none" stroke="#bfbfbf" points="622.5,-56.5 622.5,-75.5 681.5,-75.5 681.5,-56.5 622.5,-56.5"/>
<text text-anchor="middle" x="652" y="-63.5" font-family="Helvetica,sans-Serif" font-size="10.00">exception</text>
</g>
<!-- Node10&#45;&gt;Node13 -->
<g id="edge15" class="edge"><title>Node10&#45;&gt;Node13</title>
<path fill="none" stroke="midnightblue" d="M593.247,-112.324C603.797,-104.185 619.801,-91.8395 632.442,-82.0874"/>
<polygon fill="midnightblue" stroke="midnightblue" points="634.769,-84.7132 640.549,-75.8339 630.493,-79.1707 634.769,-84.7132"/>
</g>
<!-- Node14&#45;&gt;Node11 -->
<g id="edge17" class="edge"><title>Node14&#45;&gt;Node11</title>
<path fill="none" stroke="midnightblue" d="M1035.43,-112.368C1032.2,-94.617 1024.76,-53.6664 1020.38,-29.5974"/>
<polygon fill="midnightblue" stroke="midnightblue" points="1023.79,-28.804 1018.56,-19.5914 1016.91,-30.0562 1023.79,-28.804"/>
</g>
<!-- Node15 -->
<g id="node16" class="node"><title>Node15</title>
<g id="a_node16"><a xlink:href="_types_8hpp.html" target="_top" xlink:title="Types.hpp">
<polygon fill="none" stroke="black" points="927,-56.5 927,-75.5 989,-75.5 989,-56.5 927,-56.5"/>
<text text-anchor="middle" x="958" y="-63.5" font-family="Helvetica,sans-Serif" font-size="10.00">Types.hpp</text>
</a>
</g>
</g>
<!-- Node14&#45;&gt;Node15 -->
<g id="edge18" class="edge"><title>Node14&#45;&gt;Node15</title>
<path fill="none" stroke="midnightblue" d="M1024.31,-112.324C1012.1,-103.979 993.422,-91.2122 978.997,-81.3524"/>
<polygon fill="midnightblue" stroke="midnightblue" points="980.892,-78.4082 970.661,-75.6545 976.942,-84.1871 980.892,-78.4082"/>
</g>
<!-- Node15&#45;&gt;Node11 -->
<g id="edge19" class="edge"><title>Node15&#45;&gt;Node11</title>
<path fill="none" stroke="midnightblue" d="M967.479,-56.324C976.201,-48.3414 989.343,-36.3128 999.898,-26.6529"/>
<polygon fill="midnightblue" stroke="midnightblue" points="1002.33,-29.1674 1007.35,-19.8339 997.608,-24.0036 1002.33,-29.1674"/>
</g>
<!-- Node16&#45;&gt;Node14 -->
<g id="edge21" class="edge"><title>Node16&#45;&gt;Node14</title>
<path fill="none" stroke="midnightblue" d="M1150.61,-168.444C1128.29,-159.517 1093.1,-145.439 1067.79,-135.317"/>
<polygon fill="midnightblue" stroke="midnightblue" points="1068.88,-131.981 1058.29,-131.516 1066.28,-138.48 1068.88,-131.981"/>
</g>
<!-- Node17&#45;&gt;Node7 -->
<g id="edge24" class="edge"><title>Node17&#45;&gt;Node7</title>
<path fill="none" stroke="midnightblue" d="M1064.79,-226.91C986.548,-216.132 825.139,-193.897 753.096,-183.972"/>
<polygon fill="midnightblue" stroke="midnightblue" points="753.52,-180.498 743.136,-182.6 752.564,-187.432 753.52,-180.498"/>
</g>
<!-- Node17&#45;&gt;Node8 -->
<g id="edge23" class="edge"><title>Node17&#45;&gt;Node8</title>
<path fill="none" stroke="midnightblue" d="M1105.3,-224.346C1099.13,-210.773 1085.55,-184.344 1067,-168 1039.26,-143.555 1024.39,-149.826 992,-132 962.588,-115.815 929.956,-94.9108 909.227,-81.2394"/>
<polygon fill="midnightblue" stroke="midnightblue" points="911.122,-78.2969 900.855,-75.6839 907.252,-84.1295 911.122,-78.2969"/>
</g>
<!-- Node17&#45;&gt;Node9 -->
<g id="edge25" class="edge"><title>Node17&#45;&gt;Node9</title>
<path fill="none" stroke="midnightblue" d="M1093.25,-224.324C1077.68,-215.743 1053.62,-202.486 1035.54,-192.522"/>
<polygon fill="midnightblue" stroke="midnightblue" points="1037.15,-189.415 1026.71,-187.655 1033.78,-195.546 1037.15,-189.415"/>
</g>
<!-- Node17&#45;&gt;Node16 -->
<g id="edge26" class="edge"><title>Node17&#45;&gt;Node16</title>
<path fill="none" stroke="midnightblue" d="M1119.12,-224.324C1128.53,-216.263 1142.74,-204.077 1154.07,-194.369"/>
<polygon fill="midnightblue" stroke="midnightblue" points="1156.38,-196.999 1161.69,-187.834 1151.82,-191.684 1156.38,-196.999"/>
</g>
<!-- Node18&#45;&gt;Node8 -->
<g id="edge28" class="edge"><title>Node18&#45;&gt;Node8</title>
<path fill="none" stroke="midnightblue" d="M864.962,-168.368C868.996,-150.617 878.303,-109.666 883.773,-85.5974"/>
<polygon fill="midnightblue" stroke="midnightblue" points="887.244,-86.1185 886.047,-75.5914 880.418,-84.567 887.244,-86.1185"/>
</g>
<!-- Node19&#45;&gt;Node18 -->
<g id="edge30" class="edge"><title>Node19&#45;&gt;Node18</title>
<path fill="none" stroke="midnightblue" d="M881.367,-224.083C878.388,-216.77 874.074,-206.181 870.375,-197.103"/>
<polygon fill="midnightblue" stroke="midnightblue" points="873.58,-195.691 866.565,-187.751 867.097,-198.333 873.58,-195.691"/>
</g>
<!-- Node20&#45;&gt;Node21 -->
<g id="edge32" class="edge"><title>Node20&#45;&gt;Node21</title>
<path fill="none" stroke="midnightblue" d="M1043.21,-392.324C1054.78,-384.107 1072.38,-371.602 1086.16,-361.807"/>
<polygon fill="midnightblue" stroke="midnightblue" points="1088.44,-364.479 1094.57,-355.834 1084.39,-358.773 1088.44,-364.479"/>
</g>
<!-- Node21&#45;&gt;Node4 -->
<g id="edge35" class="edge"><title>Node21&#45;&gt;Node4</title>
<path fill="none" stroke="midnightblue" d="M1082.76,-336.444C1057.13,-327.399 1016.51,-313.064 987.762,-302.916"/>
<polygon fill="midnightblue" stroke="midnightblue" points="988.725,-299.544 978.13,-299.516 986.395,-306.145 988.725,-299.544"/>
</g>
<!-- Node21&#45;&gt;Node9 -->
<g id="edge34" class="edge"><title>Node21&#45;&gt;Node9</title>
<path fill="none" stroke="midnightblue" d="M1101.84,-336.075C1086.6,-309.719 1041.58,-231.878 1021.21,-196.661"/>
<polygon fill="midnightblue" stroke="midnightblue" points="1023.99,-194.473 1015.96,-187.568 1017.93,-197.977 1023.99,-194.473"/>
</g>
<!-- Node21&#45;&gt;Node11 -->
<g id="edge33" class="edge"><title>Node21&#45;&gt;Node11</title>
<path fill="none" stroke="midnightblue" d="M1122.38,-336.332C1166.05,-310.622 1284.68,-232.558 1237,-168 1204.68,-124.236 1165.45,-161.909 1120,-132 1078.11,-104.432 1043.78,-55.0068 1027.39,-28.664"/>
<polygon fill="midnightblue" stroke="midnightblue" points="1030.19,-26.5276 1022.01,-19.7918 1024.2,-30.1573 1030.19,-26.5276"/>
</g>
<!-- Node21&#45;&gt;Node16 -->
<g id="edge36" class="edge"><title>Node21&#45;&gt;Node16</title>
<path fill="none" stroke="midnightblue" d="M1116.52,-336.433C1133.6,-320.335 1168.9,-283.606 1182,-244 1187.04,-228.756 1183.53,-210.646 1179.33,-197.418"/>
<polygon fill="midnightblue" stroke="midnightblue" points="1182.49,-195.86 1175.83,-187.626 1175.9,-198.22 1182.49,-195.86"/>
</g>
<!-- Node21&#45;&gt;Node17 -->
<g id="edge37" class="edge"><title>Node21&#45;&gt;Node17</title>
<path fill="none" stroke="midnightblue" d="M1107.16,-336.368C1107.48,-318.617 1108.22,-277.666 1108.66,-253.597"/>
<polygon fill="midnightblue" stroke="midnightblue" points="1112.16,-253.653 1108.84,-243.591 1105.16,-253.526 1112.16,-253.653"/>
</g>
<!-- Node22&#45;&gt;Node6 -->
<g id="edge45" class="edge"><title>Node22&#45;&gt;Node6</title>
<path fill="none" stroke="midnightblue" d="M1128.8,-115.773C1047.4,-104.919 861.744,-80.1659 791.046,-70.7395"/>
<polygon fill="midnightblue" stroke="midnightblue" points="791.095,-67.2151 780.72,-69.3627 790.17,-74.1537 791.095,-67.2151"/>
</g>
<!-- Node22&#45;&gt;Node8 -->
<g id="edge42" class="edge"><title>Node22&#45;&gt;Node8</title>
<path fill="none" stroke="midnightblue" d="M1128.74,-115.344C1081.3,-108.199 998.885,-94.8025 919.404,-76.1181"/>
<polygon fill="midnightblue" stroke="midnightblue" points="919.763,-72.6058 909.224,-73.6917 918.14,-79.4151 919.763,-72.6058"/>
</g>
<!-- Node22&#45;&gt;Node11 -->
<g id="edge43" class="edge"><title>Node22&#45;&gt;Node11</title>
<path fill="none" stroke="midnightblue" d="M1156.15,-112.368C1130.35,-93.5728 1068.85,-48.7684 1036.95,-25.5334"/>
<polygon fill="midnightblue" stroke="midnightblue" points="1038.94,-22.6506 1028.79,-19.5914 1034.82,-28.3085 1038.94,-22.6506"/>
</g>
<!-- Node22&#45;&gt;Node12 -->
<g id="edge41" class="edge"><title>Node22&#45;&gt;Node12</title>
<path fill="none" stroke="midnightblue" d="M1128.63,-116.649C1114,-115.093 1097.25,-113.383 1082,-112 877.05,-93.4136 821.1,-108.968 614.003,-75.8872"/>
<polygon fill="midnightblue" stroke="midnightblue" points="614.456,-72.4151 604.025,-74.2749 613.339,-79.3255 614.456,-72.4151"/>
</g>
<!-- Node23 -->
<g id="node24" class="node"><title>Node23</title>
<polygon fill="none" stroke="#bfbfbf" points="1121,-56.5 1121,-75.5 1173,-75.5 1173,-56.5 1121,-56.5"/>
<text text-anchor="middle" x="1147" y="-63.5" font-family="Helvetica,sans-Serif" font-size="10.00">sstream</text>
</g>
<!-- Node22&#45;&gt;Node23 -->
<g id="edge44" class="edge"><title>Node22&#45;&gt;Node23</title>
<path fill="none" stroke="midnightblue" d="M1164.53,-112.083C1161.69,-104.77 1157.57,-94.1814 1154.04,-85.1034"/>
<polygon fill="midnightblue" stroke="midnightblue" points="1157.29,-83.8025 1150.4,-75.7511 1150.77,-86.3397 1157.29,-83.8025"/>
</g>
<!-- Node24 -->
<g id="node25" class="node"><title>Node24</title>
<polygon fill="none" stroke="#bfbfbf" points="1191,-56.5 1191,-75.5 1247,-75.5 1247,-56.5 1191,-56.5"/>
<text text-anchor="middle" x="1219" y="-63.5" font-family="Helvetica,sans-Serif" font-size="10.00">algorithm</text>
</g>
<!-- Node22&#45;&gt;Node24 -->
<g id="edge46" class="edge"><title>Node22&#45;&gt;Node24</title>
<path fill="none" stroke="midnightblue" d="M1176.42,-112.083C1183.85,-104.22 1194.85,-92.5688 1203.81,-83.0813"/>
<polygon fill="midnightblue" stroke="midnightblue" points="1206.41,-85.4244 1210.74,-75.7511 1201.32,-80.618 1206.41,-85.4244"/>
</g>
<!-- Node25 -->
<g id="node26" class="node"><title>Node25</title>
<polygon fill="none" stroke="#bfbfbf" points="1265.5,-56.5 1265.5,-75.5 1312.5,-75.5 1312.5,-56.5 1265.5,-56.5"/>
<text text-anchor="middle" x="1289" y="-63.5" font-family="Helvetica,sans-Serif" font-size="10.00">iterator</text>
</g>
<!-- Node22&#45;&gt;Node25 -->
<g id="edge47" class="edge"><title>Node22&#45;&gt;Node25</title>
<path fill="none" stroke="midnightblue" d="M1187.17,-112.444C1206.91,-103.636 1237.89,-89.8116 1260.49,-79.722"/>
<polygon fill="midnightblue" stroke="midnightblue" points="1262.21,-82.788 1269.92,-75.5164 1259.36,-76.3957 1262.21,-82.788"/>
</g>
<!-- Node27 -->
<g id="node28" class="node"><title>Node27</title>
<polygon fill="none" stroke="#bfbfbf" points="373,-448.5 373,-467.5 477,-467.5 477,-448.5 373,-448.5"/>
<text text-anchor="middle" x="425" y="-455.5" font-family="Helvetica,sans-Serif" font-size="10.00">SFML/Graphics.hpp</text>
</g>
<!-- Node26&#45;&gt;Node27 -->
<g id="edge49" class="edge"><title>Node26&#45;&gt;Node27</title>
<path fill="none" stroke="midnightblue" d="M379.917,-504.083C387.78,-496.22 399.431,-484.569 408.919,-475.081"/>
<polygon fill="midnightblue" stroke="midnightblue" points="411.653,-477.297 416.249,-467.751 406.703,-472.347 411.653,-477.297"/>
</g>
<!-- Node28 -->
<g id="node29" class="node"><title>Node28</title>
<g id="a_node29"><a xlink:href="_time_utils_8hpp.html" target="_top" xlink:title="Time/TimeUtils.hpp">
<polygon fill="none" stroke="black" points="255,-448.5 255,-467.5 355,-467.5 355,-448.5 255,-448.5"/>
<text text-anchor="middle" x="305" y="-455.5" font-family="Helvetica,sans-Serif" font-size="10.00">Time/TimeUtils.hpp</text>
</a>
</g>
</g>
<!-- Node26&#45;&gt;Node28 -->
<g id="edge50" class="edge"><title>Node26&#45;&gt;Node28</title>
<path fill="none" stroke="midnightblue" d="M360.396,-504.324C350.544,-496.263 335.649,-484.077 323.785,-474.369"/>
<polygon fill="midnightblue" stroke="midnightblue" points="325.753,-471.457 315.797,-467.834 321.32,-476.875 325.753,-471.457"/>
</g>
<!-- Node29&#45;&gt;Node10 -->
<g id="edge52" class="edge"><title>Node29&#45;&gt;Node10</title>
<path fill="none" stroke="midnightblue" d="M332.25,-168.563C384.294,-159.068 468.873,-143.638 524.969,-133.404"/>
<polygon fill="midnightblue" stroke="midnightblue" points="525.888,-136.794 535.098,-131.556 524.632,-129.908 525.888,-136.794"/>
</g>
<!-- Node30 -->
<g id="node31" class="node"><title>Node30</title>
<g id="a_node31"><a xlink:href="_mountable_path_8hpp.html" target="_top" xlink:title="System/MountablePath.hpp">
<polygon fill="none" stroke="black" points="150.5,-112.5 150.5,-131.5 287.5,-131.5 287.5,-112.5 150.5,-112.5"/>
<text text-anchor="middle" x="219" y="-119.5" font-family="Helvetica,sans-Serif" font-size="10.00">System/MountablePath.hpp</text>
</a>
</g>
</g>
<!-- Node29&#45;&gt;Node30 -->
<g id="edge53" class="edge"><title>Node29&#45;&gt;Node30</title>
<path fill="none" stroke="midnightblue" d="M275.235,-168.324C265.234,-160.263 250.113,-148.077 238.07,-138.369"/>
<polygon fill="midnightblue" stroke="midnightblue" points="239.943,-135.384 229.961,-131.834 235.55,-140.834 239.943,-135.384"/>
</g>
<!-- Node31 -->
<g id="node32" class="node"><title>Node31</title>
<g id="a_node32"><a xlink:href="_file_utils_8hpp.html" target="_top" xlink:title="Utils/FileUtils.hpp">
<polygon fill="none" stroke="black" points="305.5,-112.5 305.5,-131.5 398.5,-131.5 398.5,-112.5 305.5,-112.5"/>
<text text-anchor="middle" x="352" y="-119.5" font-family="Helvetica,sans-Serif" font-size="10.00">Utils/FileUtils.hpp</text>
</a>
</g>
</g>
<!-- Node29&#45;&gt;Node31 -->
<g id="edge54" class="edge"><title>Node29&#45;&gt;Node31</title>
<path fill="none" stroke="midnightblue" d="M296.604,-168.324C306.456,-160.263 321.351,-148.077 333.215,-138.369"/>
<polygon fill="midnightblue" stroke="midnightblue" points="335.68,-140.875 341.203,-131.834 331.247,-135.457 335.68,-140.875"/>
</g>
<!-- Node31&#45;&gt;Node8 -->
<g id="edge56" class="edge"><title>Node31&#45;&gt;Node8</title>
<path fill="none" stroke="midnightblue" d="M398.629,-116.302C505.584,-105.527 766.289,-79.2619 856.593,-70.1642"/>
<polygon fill="midnightblue" stroke="midnightblue" points="857.14,-73.6268 866.739,-69.142 856.439,-66.6621 857.14,-73.6268"/>
</g>
<!-- Node31&#45;&gt;Node11 -->
<g id="edge55" class="edge"><title>Node31&#45;&gt;Node11</title>
<path fill="none" stroke="midnightblue" d="M371.382,-112.416C391.728,-103.393 424.641,-88.7625 453,-76 472.589,-67.1844 476.222,-61.4491 497,-56 590.461,-31.4899 889.058,-16.5878 986.167,-12.2948"/>
<polygon fill="midnightblue" stroke="midnightblue" points="986.379,-15.7889 996.217,-11.8567 986.074,-8.79559 986.379,-15.7889"/>
</g>
<!-- Node31&#45;&gt;Node12 -->
<g id="edge58" class="edge"><title>Node31&#45;&gt;Node12</title>
<path fill="none" stroke="midnightblue" d="M387.652,-112.444C429.321,-102.443 497.933,-85.9761 540.122,-75.8507"/>
<polygon fill="midnightblue" stroke="midnightblue" points="541.082,-79.2198 549.989,-73.4826 539.448,-72.4131 541.082,-79.2198"/>
</g>
<!-- Node32 -->
<g id="node33" class="node"><title>Node32</title>
<polygon fill="none" stroke="#bfbfbf" points="395.5,-56.5 395.5,-75.5 444.5,-75.5 444.5,-56.5 395.5,-56.5"/>
<text text-anchor="middle" x="420" y="-63.5" font-family="Helvetica,sans-Serif" font-size="10.00">fstream</text>
</g>
<!-- Node31&#45;&gt;Node32 -->
<g id="edge57" class="edge"><title>Node31&#45;&gt;Node32</title>
<path fill="none" stroke="midnightblue" d="M362.925,-112.324C373.175,-104.185 388.721,-91.8395 401.001,-82.0874"/>
<polygon fill="midnightblue" stroke="midnightblue" points="403.221,-84.7937 408.876,-75.8339 398.868,-79.3119 403.221,-84.7937"/>
</g>
<!-- Node33 -->
<g id="node34" class="node"><title>Node33</title>
<polygon fill="none" stroke="#bfbfbf" points="0,-56.5 0,-75.5 68,-75.5 68,-56.5 0,-56.5"/>
<text text-anchor="middle" x="34" y="-63.5" font-family="Helvetica,sans-Serif" font-size="10.00">sys/types.h</text>
</g>
<!-- Node31&#45;&gt;Node33 -->
<g id="edge59" class="edge"><title>Node31&#45;&gt;Node33</title>
<path fill="none" stroke="midnightblue" d="M305.35,-113.482C239.048,-102.781 121.544,-83.7513 78.3488,-76.1372"/>
<polygon fill="midnightblue" stroke="midnightblue" points="78.7039,-72.6447 68.2405,-74.3087 77.4578,-79.5329 78.7039,-72.6447"/>
</g>
<!-- Node34 -->
<g id="node35" class="node"><title>Node34</title>
<polygon fill="none" stroke="#bfbfbf" points="86,-56.5 86,-75.5 146,-75.5 146,-56.5 86,-56.5"/>
<text text-anchor="middle" x="116" y="-63.5" font-family="Helvetica,sans-Serif" font-size="10.00">sys/stat.h</text>
</g>
<!-- Node31&#45;&gt;Node34 -->
<g id="edge60" class="edge"><title>Node31&#45;&gt;Node34</title>
<path fill="none" stroke="midnightblue" d="M314.595,-112.482C276.976,-103.909 217.04,-90.2348 156.03,-76.2329"/>
<polygon fill="midnightblue" stroke="midnightblue" points="156.762,-72.81 146.232,-73.9836 155.195,-79.6325 156.762,-72.81"/>
</g>
<!-- Node35 -->
<g id="node36" class="node"><title>Node35</title>
<polygon fill="none" stroke="#bfbfbf" points="164,-56.5 164,-75.5 210,-75.5 210,-56.5 164,-56.5"/>
<text text-anchor="middle" x="187" y="-63.5" font-family="Helvetica,sans-Serif" font-size="10.00">stdio.h</text>
</g>
<!-- Node31&#45;&gt;Node35 -->
<g id="edge61" class="edge"><title>Node31&#45;&gt;Node35</title>
<path fill="none" stroke="midnightblue" d="M325.855,-112.444C297.075,-103.024 250.766,-87.869 219.629,-77.6785"/>
<polygon fill="midnightblue" stroke="midnightblue" points="220.686,-74.3421 210.094,-74.558 218.509,-80.9948 220.686,-74.3421"/>
</g>
<!-- Node36 -->
<g id="node37" class="node"><title>Node36</title>
<polygon fill="none" stroke="#bfbfbf" points="228,-56.5 228,-75.5 308,-75.5 308,-56.5 228,-56.5"/>
<text text-anchor="middle" x="268" y="-63.5" font-family="Helvetica,sans-Serif" font-size="10.00">tinydir/tinydir.h</text>
</g>
<!-- Node31&#45;&gt;Node36 -->
<g id="edge62" class="edge"><title>Node31&#45;&gt;Node36</title>
<path fill="none" stroke="midnightblue" d="M338.504,-112.324C325.4,-103.9 305.288,-90.9709 289.893,-81.0741"/>
<polygon fill="midnightblue" stroke="midnightblue" points="291.767,-78.118 281.463,-75.6545 287.982,-84.0063 291.767,-78.118"/>
</g>
<!-- Node37 -->
<g id="node38" class="node"><title>Node37</title>
<polygon fill="none" stroke="#bfbfbf" points="326.5,-56.5 326.5,-75.5 377.5,-75.5 377.5,-56.5 326.5,-56.5"/>
<text text-anchor="middle" x="352" y="-63.5" font-family="Helvetica,sans-Serif" font-size="10.00">unistd.h</text>
</g>
<!-- Node31&#45;&gt;Node37 -->
<g id="edge63" class="edge"><title>Node31&#45;&gt;Node37</title>
<path fill="none" stroke="midnightblue" d="M352,-112.083C352,-105.006 352,-94.8611 352,-85.9865"/>
<polygon fill="midnightblue" stroke="midnightblue" points="355.5,-85.751 352,-75.7511 348.5,-85.7511 355.5,-85.751"/>
</g>
<!-- Node38&#45;&gt;Node6 -->
<g id="edge65" class="edge"><title>Node38&#45;&gt;Node6</title>
<path fill="none" stroke="midnightblue" d="M579.509,-504.407C578.024,-495.376 575.846,-480.74 575,-468 574.411,-459.131 574.841,-456.887 575,-448 576.817,-346.201 567.71,-309.495 623,-224 660.002,-166.783 717.436,-109.571 745.863,-82.7503"/>
<polygon fill="midnightblue" stroke="midnightblue" points="748.465,-85.1086 753.385,-75.7254 743.688,-79.9924 748.465,-85.1086"/>
</g>
<!-- Node38&#45;&gt;Node7 -->
<g id="edge66" class="edge"><title>Node38&#45;&gt;Node7</title>
<path fill="none" stroke="midnightblue" d="M580.276,-504.445C577.572,-467.157 571.378,-316.559 638,-224 648.691,-209.147 665.901,-198.518 681.533,-191.333"/>
<polygon fill="midnightblue" stroke="midnightblue" points="683.166,-194.442 690.99,-187.298 680.419,-188.003 683.166,-194.442"/>
</g>
<!-- Node38&#45;&gt;Node11 -->
<g id="edge67" class="edge"><title>Node38&#45;&gt;Node11</title>
<path fill="none" stroke="midnightblue" d="M569.457,-504.433C548.196,-487.571 505,-447.799 505,-403 505,-403 505,-403 505,-177 505,-120.893 497.555,-91.5047 541,-56 575.457,-27.8408 886.172,-15.2823 986.157,-11.9466"/>
<polygon fill="midnightblue" stroke="midnightblue" points="986.343,-15.4425 996.224,-11.6184 986.115,-8.4462 986.343,-15.4425"/>
</g>
<!-- Node38&#45;&gt;Node27 -->
<g id="edge68" class="edge"><title>Node38&#45;&gt;Node27</title>
<path fill="none" stroke="midnightblue" d="M556.281,-504.444C530.152,-495.399 488.741,-481.064 459.424,-470.916"/>
<polygon fill="midnightblue" stroke="midnightblue" points="460.198,-467.48 449.603,-467.516 457.908,-474.095 460.198,-467.48"/>
</g>
<!-- Node39&#45;&gt;Node2 -->
<g id="edge74" class="edge"><title>Node39&#45;&gt;Node2</title>
<path fill="none" stroke="midnightblue" d="M1096.73,-560.083C1090.46,-552.377 1081.21,-541.033 1073.57,-531.653"/>
<polygon fill="midnightblue" stroke="midnightblue" points="1076.16,-529.293 1067.13,-523.751 1070.73,-533.714 1076.16,-529.293"/>
</g>
<!-- Node39&#45;&gt;Node11 -->
<g id="edge70" class="edge"><title>Node39&#45;&gt;Node11</title>
<path fill="none" stroke="midnightblue" d="M1110.54,-560.423C1121.16,-546.954 1143.37,-520.667 1167,-504 1237.57,-454.223 1333,-489.361 1333,-403 1333,-403 1333,-403 1333,-177 1333,-122.958 1358.28,-95.1212 1321,-56 1284.05,-17.2306 1118.1,-11.5936 1048.19,-10.9661"/>
<polygon fill="midnightblue" stroke="midnightblue" points="1047.86,-7.46408 1037.84,-10.9041 1047.81,-14.464 1047.86,-7.46408"/>
</g>
<!-- Node39&#45;&gt;Node27 -->
<g id="edge73" class="edge"><title>Node39&#45;&gt;Node27</title>
<path fill="none" stroke="midnightblue" d="M1050.04,-569.59C920.022,-570.287 592.895,-567.524 494,-524 470.327,-513.582 449.716,-491.459 437.329,-475.928"/>
<polygon fill="midnightblue" stroke="midnightblue" points="439.879,-473.502 431.025,-467.684 434.319,-477.754 439.879,-473.502"/>
</g>
<!-- Node40 -->
<g id="node41" class="node"><title>Node40</title>
<polygon fill="none" stroke="#bfbfbf" points="1176.5,-504.5 1176.5,-523.5 1277.5,-523.5 1277.5,-504.5 1176.5,-504.5"/>
<text text-anchor="middle" x="1227" y="-511.5" font-family="Helvetica,sans-Serif" font-size="10.00">kaguya/kaguya.hpp</text>
</g>
<!-- Node39&#45;&gt;Node40 -->
<g id="edge71" class="edge"><title>Node39&#45;&gt;Node40</title>
<path fill="none" stroke="midnightblue" d="M1123.49,-560.444C1143.64,-551.596 1175.32,-537.687 1198.33,-527.586"/>
<polygon fill="midnightblue" stroke="midnightblue" points="1199.85,-530.741 1207.6,-523.516 1197.04,-524.332 1199.85,-530.741"/>
</g>
<!-- Node41 -->
<g id="node42" class="node"><title>Node41</title>
<polygon fill="none" stroke="#bfbfbf" points="1295.5,-504.5 1295.5,-523.5 1384.5,-523.5 1384.5,-504.5 1295.5,-504.5"/>
<text text-anchor="middle" x="1340" y="-511.5" font-family="Helvetica,sans-Serif" font-size="10.00">SFML/Audio.hpp</text>
</g>
<!-- Node39&#45;&gt;Node41 -->
<g id="edge72" class="edge"><title>Node39&#45;&gt;Node41</title>
<path fill="none" stroke="midnightblue" d="M1141.39,-560.444C1182.39,-551.063 1248.25,-535.993 1292.78,-525.804"/>
<polygon fill="midnightblue" stroke="midnightblue" points="1293.81,-529.159 1302.78,-523.516 1292.25,-522.335 1293.81,-529.159"/>
</g>
<!-- Node42&#45;&gt;Node8 -->
<g id="edge78" class="edge"><title>Node42&#45;&gt;Node8</title>
<path fill="none" stroke="midnightblue" d="M1361.2,-117.615C1255.85,-110.521 1018.82,-93.444 919.219,-75.8009"/>
<polygon fill="midnightblue" stroke="midnightblue" points="919.646,-72.3202 909.174,-73.9261 918.362,-79.2014 919.646,-72.3202"/>
</g>
<!-- Node42&#45;&gt;Node11 -->
<g id="edge77" class="edge"><title>Node42&#45;&gt;Node11</title>
<path fill="none" stroke="midnightblue" d="M1408.22,-112.496C1399.63,-98.1279 1380.12,-69.3137 1355,-56 1302.01,-27.9204 1121.2,-16.101 1048.07,-12.3918"/>
<polygon fill="midnightblue" stroke="midnightblue" points="1047.85,-8.87699 1037.69,-11.8836 1047.51,-15.8686 1047.85,-8.87699"/>
</g>
<!-- Node43 -->
<g id="node44" class="node"><title>Node43</title>
<polygon fill="none" stroke="#bfbfbf" points="1407,-56.5 1407,-75.5 1445,-75.5 1445,-56.5 1407,-56.5"/>
<text text-anchor="middle" x="1426" y="-63.5" font-family="Helvetica,sans-Serif" font-size="10.00">tuple</text>
</g>
<!-- Node42&#45;&gt;Node43 -->
<g id="edge76" class="edge"><title>Node42&#45;&gt;Node43</title>
<path fill="none" stroke="midnightblue" d="M1415.15,-112.083C1416.87,-104.927 1419.35,-94.6353 1421.5,-85.6911"/>
<polygon fill="midnightblue" stroke="midnightblue" points="1424.96,-86.2925 1423.89,-75.7511 1418.15,-84.6541 1424.96,-86.2925"/>
</g>
</g>
</svg>
        <g id="navigator" transform="translate(0 0)" fill="#404254">
                <rect fill="#f2f5e9" fill-opacity="0.5" stroke="#606060" stroke-width=".5" x="0" y="0" width="60" height="60"/>
                <use id="zoomplus" xlink:href="#zoomPlus" x="17" y="9" onmousedown="handleZoom(evt,'in')"/>
                <use id="zoomminus" xlink:href="#zoomMin" x="42" y="9" onmousedown="handleZoom(evt,'out')"/>
                <use id="reset" xlink:href="#resetDef" x="30" y="36" onmousedown="handleReset()"/>
                <g id="arrowUp" xlink:href="#dirArrow" transform="translate(30 24)" onmousedown="handlePan(0,-1)">
                  <use xlink:href="#rim" fill="#404040">
                        <set attributeName="fill" to="#808080" begin="arrowUp.mouseover" end="arrowUp.mouseout"/>
                  </use>
                  <path fill="none" stroke="white" stroke-width="1.5" d="M0,-3.0v7 M-2.5,-0.5L0,-3.0L2.5,-0.5"/>
                </g>
                <g id="arrowRight" xlink:href="#dirArrow" transform="rotate(90) translate(36 -43)" onmousedown="handlePan(1,0)">
                  <use xlink:href="#rim" fill="#404040">
                        <set attributeName="fill" to="#808080" begin="arrowRight.mouseover" end="arrowRight.mouseout"/>
                  </use>
                  <path fill="none" stroke="white" stroke-width="1.5" d="M0,-3.0v7 M-2.5,-0.5L0,-3.0L2.5,-0.5"/>
                </g>
                <g id="arrowDown" xlink:href="#dirArrow" transform="rotate(180) translate(-30 -48)" onmousedown="handlePan(0,1)">
                  <use xlink:href="#rim" fill="#404040">
                        <set attributeName="fill" to="#808080" begin="arrowDown.mouseover" end="arrowDown.mouseout"/>
                  </use>
                  <path fill="none" stroke="white" stroke-width="1.5" d="M0,-3.0v7 M-2.5,-0.5L0,-3.0L2.5,-0.5"/>
                </g>
                <g id="arrowLeft" xlink:href="#dirArrow" transform="rotate(270) translate(-36 17)" onmousedown="handlePan(-1,0)">
                  <use xlink:href="#rim" fill="#404040">
                        <set attributeName="fill" to="#808080" begin="arrowLeft.mouseover" end="arrowLeft.mouseout"/>
                  </use>
                  <path fill="none" stroke="white" stroke-width="1.5" d="M0,-3.0v7 M-2.5,-0.5L0,-3.0L2.5,-0.5"/>
                </g>
        </g>
        <svg viewBox="0 0 15 15" width="100%" height="30px" preserveAspectRatio="xMaxYMin meet">
         <g id="arrow_out" transform="scale(0.3 0.3)">
          <a xlink:href="_animation_8cpp__incl_org.svg" target="_base">
           <rect id="button" ry="5" rx="5" y="6" x="6" height="38" width="38"
                fill="#f2f5e9" fill-opacity="0.5" stroke="#606060" stroke-width="1.0"/>
           <path id="arrow"
             d="M 11.500037,31.436501 C 11.940474,20.09759 22.043105,11.32322 32.158766,21.979434 L 37.068811,17.246167 C 37.068811,17.246167 37.088388,32 37.088388,32 L 22.160133,31.978069 C 22.160133,31.978069 26.997745,27.140456 26.997745,27.140456 C 18.528582,18.264221 13.291696,25.230495 11.500037,31.436501 z"
             style="fill:#404040;"/>
          </a>
         </g>
        </svg>
</svg>
