<?xml version="1.0" encoding="UTF-8" standalone="no"?>
<!DOCTYPE svg PUBLIC "-//W3C//DTD SVG 1.1//EN"
 "http://www.w3.org/Graphics/SVG/1.1/DTD/svg11.dtd">
<!-- Generated by graphviz version 2.38.0 (20140413.2041)
 -->
<!-- Title: E:/Dev/ObEngine/Git/include/Animation/Animation.hpp Pages: 1 -->
<svg width="1494pt" height="599pt"
 viewBox="0.00 0.00 1494.00 599.00" xmlns="http://www.w3.org/2000/svg" xmlns:xlink="http://www.w3.org/1999/xlink">
<g id="graph0" class="graph" transform="scale(1 1) rotate(0) translate(4 595)">
<title>E:/Dev/ObEngine/Git/include/Animation/Animation.hpp</title>
<!-- Node0 -->
<g id="node1" class="node"><title>Node0</title>
<polygon fill="#bfbfbf" stroke="black" points="829,-560.5 829,-590.5 991,-590.5 991,-560.5 829,-560.5"/>
<text text-anchor="start" x="837" y="-578.5" font-family="Helvetica,sans-Serif" font-size="10.00">E:/Dev/ObEngine/Git</text>
<text text-anchor="middle" x="910" y="-567.5" font-family="Helvetica,sans-Serif" font-size="10.00">/include/Animation/Animation.hpp</text>
</g>
<!-- Node1 -->
<g id="node2" class="node"><title>Node1</title>
<g id="a_node2"><a xlink:href="_vili_8hpp.html" target="_top" xlink:title="vili/Vili.hpp">
<polygon fill="none" stroke="black" points="643,-504.5 643,-523.5 705,-523.5 705,-504.5 643,-504.5"/>
<text text-anchor="middle" x="674" y="-511.5" font-family="Helvetica,sans-Serif" font-size="10.00">vili/Vili.hpp</text>
</a>
</g>
</g>
<!-- Node0&#45;&gt;Node1 -->
<g id="edge1" class="edge"><title>Node0&#45;&gt;Node1</title>
<path fill="none" stroke="midnightblue" d="M854.37,-560.475C811.588,-549.688 753.455,-535.032 714.883,-525.307"/>
<polygon fill="midnightblue" stroke="midnightblue" points="715.588,-521.876 705.036,-522.825 713.877,-528.663 715.588,-521.876"/>
</g>
<!-- Node25 -->
<g id="node26" class="node"><title>Node25</title>
<g id="a_node26"><a xlink:href="_animation_group_8hpp.html" target="_top" xlink:title="Animation/AnimationGroup.hpp">
<polygon fill="none" stroke="black" points="834,-504.5 834,-523.5 986,-523.5 986,-504.5 834,-504.5"/>
<text text-anchor="middle" x="910" y="-511.5" font-family="Helvetica,sans-Serif" font-size="10.00">Animation/AnimationGroup.hpp</text>
</a>
</g>
</g>
<!-- Node0&#45;&gt;Node25 -->
<g id="edge47" class="edge"><title>Node0&#45;&gt;Node25</title>
<path fill="none" stroke="midnightblue" d="M910,-560.399C910,-552.466 910,-542.458 910,-533.858"/>
<polygon fill="midnightblue" stroke="midnightblue" points="913.5,-533.658 910,-523.658 906.5,-533.658 913.5,-533.658"/>
</g>
<!-- Node28 -->
<g id="node29" class="node"><title>Node28</title>
<g id="a_node29"><a xlink:href="_path_8hpp.html" target="_top" xlink:title="System/Path.hpp">
<polygon fill="none" stroke="black" points="1020,-168.5 1020,-187.5 1112,-187.5 1112,-168.5 1020,-168.5"/>
<text text-anchor="middle" x="1066" y="-175.5" font-family="Helvetica,sans-Serif" font-size="10.00">System/Path.hpp</text>
</a>
</g>
</g>
<!-- Node0&#45;&gt;Node28 -->
<g id="edge51" class="edge"><title>Node0&#45;&gt;Node28</title>
<path fill="none" stroke="midnightblue" d="M949.337,-560.468C989.503,-543.318 1046,-510.112 1046,-459 1046,-459 1046,-459 1046,-289 1046,-256.438 1054.59,-219.315 1060.51,-197.592"/>
<polygon fill="midnightblue" stroke="midnightblue" points="1063.94,-198.317 1063.3,-187.742 1057.21,-196.408 1063.94,-198.317"/>
</g>
<!-- Node2 -->
<g id="node3" class="node"><title>Node2</title>
<g id="a_node3"><a xlink:href="_data_parser_8hpp.html" target="_top" xlink:title="vili/DataParser.hpp">
<polygon fill="none" stroke="black" points="548,-448.5 548,-467.5 646,-467.5 646,-448.5 548,-448.5"/>
<text text-anchor="middle" x="597" y="-455.5" font-family="Helvetica,sans-Serif" font-size="10.00">vili/DataParser.hpp</text>
</a>
</g>
</g>
<!-- Node1&#45;&gt;Node2 -->
<g id="edge2" class="edge"><title>Node1&#45;&gt;Node2</title>
<path fill="none" stroke="midnightblue" d="M661.629,-504.324C649.842,-496.058 631.868,-483.453 617.864,-473.632"/>
<polygon fill="midnightblue" stroke="midnightblue" points="619.538,-470.531 609.341,-467.655 615.518,-476.262 619.538,-470.531"/>
</g>
<!-- Node9 -->
<g id="node10" class="node"><title>Node9</title>
<g id="a_node10"><a xlink:href="_error_handler_8hpp.html" target="_top" xlink:title="../ErrorHandler.hpp">
<polygon fill="none" stroke="black" points="777,-112.5 777,-131.5 875,-131.5 875,-112.5 777,-112.5"/>
<text text-anchor="middle" x="826" y="-119.5" font-family="Helvetica,sans-Serif" font-size="10.00">../ErrorHandler.hpp</text>
</a>
</g>
</g>
<!-- Node1&#45;&gt;Node9 -->
<g id="edge38" class="edge"><title>Node1&#45;&gt;Node9</title>
<path fill="none" stroke="midnightblue" d="M677.316,-504.492C696.355,-455.641 791.858,-210.6 818.872,-141.29"/>
<polygon fill="midnightblue" stroke="midnightblue" points="822.227,-142.32 822.597,-131.732 815.704,-139.778 822.227,-142.32"/>
</g>
<!-- Node20 -->
<g id="node21" class="node"><title>Node20</title>
<g id="a_node21"><a xlink:href="_link_attribute_8hpp.html" target="_top" xlink:title="LinkAttribute.hpp">
<polygon fill="none" stroke="black" points="629,-336.5 629,-355.5 719,-355.5 719,-336.5 629,-336.5"/>
<text text-anchor="middle" x="674" y="-343.5" font-family="Helvetica,sans-Serif" font-size="10.00">LinkAttribute.hpp</text>
</a>
</g>
</g>
<!-- Node1&#45;&gt;Node20 -->
<g id="edge37" class="edge"><title>Node1&#45;&gt;Node20</title>
<path fill="none" stroke="midnightblue" d="M674,-504.075C674,-477.945 674,-401.211 674,-365.577"/>
<polygon fill="midnightblue" stroke="midnightblue" points="677.5,-365.568 674,-355.568 670.5,-365.568 677.5,-365.568"/>
</g>
<!-- Node21 -->
<g id="node22" class="node"><title>Node21</title>
<g id="a_node22"><a xlink:href="_functions_8hpp.html" target="_top" xlink:title="Functions.hpp">
<polygon fill="none" stroke="black" points="94,-112.5 94,-131.5 172,-131.5 172,-112.5 94,-112.5"/>
<text text-anchor="middle" x="133" y="-119.5" font-family="Helvetica,sans-Serif" font-size="10.00">Functions.hpp</text>
</a>
</g>
</g>
<!-- Node1&#45;&gt;Node21 -->
<g id="edge39" class="edge"><title>Node1&#45;&gt;Node21</title>
<path fill="none" stroke="midnightblue" d="M642.97,-513.349C528.015,-513.825 133,-507.831 133,-403 133,-403 133,-403 133,-233 133,-200.948 133,-163.643 133,-141.749"/>
<polygon fill="midnightblue" stroke="midnightblue" points="136.5,-141.558 133,-131.558 129.5,-141.558 136.5,-141.558"/>
</g>
<!-- Node3 -->
<g id="node4" class="node"><title>Node3</title>
<g id="a_node4"><a xlink:href="_complex_attribute_8hpp.html" target="_top" xlink:title="ComplexAttribute.hpp">
<polygon fill="none" stroke="black" points="420,-280.5 420,-299.5 530,-299.5 530,-280.5 420,-280.5"/>
<text text-anchor="middle" x="475" y="-287.5" font-family="Helvetica,sans-Serif" font-size="10.00">ComplexAttribute.hpp</text>
</a>
</g>
</g>
<!-- Node2&#45;&gt;Node3 -->
<g id="edge3" class="edge"><title>Node2&#45;&gt;Node3</title>
<path fill="none" stroke="midnightblue" d="M583.283,-448.278C571.086,-440.024 553.324,-426.732 541,-412 513.729,-379.399 492.528,-333.786 482.102,-308.912"/>
<polygon fill="midnightblue" stroke="midnightblue" points="485.329,-307.555 478.308,-299.621 478.848,-310.202 485.329,-307.555"/>
</g>
<!-- Node19 -->
<g id="node20" class="node"><title>Node19</title>
<g id="a_node20"><a xlink:href="_data_template_8hpp.html" target="_top" xlink:title="DataTemplate.hpp">
<polygon fill="none" stroke="black" points="550.5,-392.5 550.5,-411.5 645.5,-411.5 645.5,-392.5 550.5,-392.5"/>
<text text-anchor="middle" x="598" y="-399.5" font-family="Helvetica,sans-Serif" font-size="10.00">DataTemplate.hpp</text>
</a>
</g>
</g>
<!-- Node2&#45;&gt;Node19 -->
<g id="edge30" class="edge"><title>Node2&#45;&gt;Node19</title>
<path fill="none" stroke="midnightblue" d="M597.165,-448.083C597.296,-441.006 597.484,-430.861 597.648,-421.986"/>
<polygon fill="midnightblue" stroke="midnightblue" points="601.152,-421.814 597.838,-411.751 594.153,-421.685 601.152,-421.814"/>
</g>
<!-- Node4 -->
<g id="node5" class="node"><title>Node4</title>
<polygon fill="none" stroke="#bfbfbf" points="389,-224.5 389,-243.5 447,-243.5 447,-224.5 389,-224.5"/>
<text text-anchor="middle" x="418" y="-231.5" font-family="Helvetica,sans-Serif" font-size="10.00">functional</text>
</g>
<!-- Node3&#45;&gt;Node4 -->
<g id="edge4" class="edge"><title>Node3&#45;&gt;Node4</title>
<path fill="none" stroke="midnightblue" d="M465.842,-280.324C457.499,-272.42 444.968,-260.548 434.823,-250.938"/>
<polygon fill="midnightblue" stroke="midnightblue" points="436.991,-248.171 427.325,-243.834 432.177,-253.252 436.991,-248.171"/>
</g>
<!-- Node5 -->
<g id="node6" class="node"><title>Node5</title>
<polygon fill="none" stroke="#bfbfbf" points="248.5,-56.5 248.5,-75.5 283.5,-75.5 283.5,-56.5 248.5,-56.5"/>
<text text-anchor="middle" x="266" y="-63.5" font-family="Helvetica,sans-Serif" font-size="10.00">map</text>
</g>
<!-- Node3&#45;&gt;Node5 -->
<g id="edge5" class="edge"><title>Node3&#45;&gt;Node5</title>
<path fill="none" stroke="midnightblue" d="M419.848,-287.271C352.66,-283.868 244.993,-273.79 220,-244 180.082,-196.421 228.024,-118.211 252.864,-83.9594"/>
<polygon fill="midnightblue" stroke="midnightblue" points="255.983,-85.632 259.165,-75.5262 250.376,-81.4419 255.983,-85.632"/>
</g>
<!-- Node6 -->
<g id="node7" class="node"><title>Node6</title>
<polygon fill="none" stroke="#bfbfbf" points="408,-168.5 408,-187.5 460,-187.5 460,-168.5 408,-168.5"/>
<text text-anchor="middle" x="434" y="-175.5" font-family="Helvetica,sans-Serif" font-size="10.00">memory</text>
</g>
<!-- Node3&#45;&gt;Node6 -->
<g id="edge6" class="edge"><title>Node3&#45;&gt;Node6</title>
<path fill="none" stroke="midnightblue" d="M433.949,-280.383C414.04,-273.916 391.906,-262.814 380,-244 368.026,-225.079 389.524,-205.615 408.838,-192.981"/>
<polygon fill="midnightblue" stroke="midnightblue" points="410.755,-195.911 417.43,-187.683 407.081,-189.952 410.755,-195.911"/>
</g>
<!-- Node7 -->
<g id="node8" class="node"><title>Node7</title>
<polygon fill="none" stroke="#bfbfbf" points="413,-56.5 413,-75.5 455,-75.5 455,-56.5 413,-56.5"/>
<text text-anchor="middle" x="434" y="-63.5" font-family="Helvetica,sans-Serif" font-size="10.00">vector</text>
</g>
<!-- Node3&#45;&gt;Node7 -->
<g id="edge7" class="edge"><title>Node3&#45;&gt;Node7</title>
<path fill="none" stroke="midnightblue" d="M474.384,-280.129C473.05,-266.731 468.88,-241.087 456,-224 437.964,-200.073 413.463,-214.241 399,-188 380.093,-153.696 404.778,-108.16 421.31,-83.9033"/>
<polygon fill="midnightblue" stroke="midnightblue" points="424.19,-85.8924 427.139,-75.7162 418.488,-81.8324 424.19,-85.8924"/>
</g>
<!-- Node8 -->
<g id="node9" class="node"><title>Node8</title>
<g id="a_node9"><a xlink:href="_base_attribute_8hpp.html" target="_top" xlink:title="BaseAttribute.hpp">
<polygon fill="none" stroke="black" points="647.5,-168.5 647.5,-187.5 742.5,-187.5 742.5,-168.5 647.5,-168.5"/>
<text text-anchor="middle" x="695" y="-175.5" font-family="Helvetica,sans-Serif" font-size="10.00">BaseAttribute.hpp</text>
</a>
</g>
</g>
<!-- Node3&#45;&gt;Node8 -->
<g id="edge8" class="edge"><title>Node3&#45;&gt;Node8</title>
<path fill="none" stroke="midnightblue" d="M530.331,-281.905C563.5,-275.737 605.419,-264.432 638,-244 657.401,-231.833 673.924,-211.08 684.107,-196.297"/>
<polygon fill="midnightblue" stroke="midnightblue" points="687.263,-197.869 689.85,-187.595 681.421,-194.013 687.263,-197.869"/>
</g>
<!-- Node15 -->
<g id="node16" class="node"><title>Node15</title>
<g id="a_node16"><a xlink:href="_container_attribute_8hpp.html" target="_top" xlink:title="ContainerAttribute.hpp">
<polygon fill="none" stroke="black" points="516.5,-168.5 516.5,-187.5 629.5,-187.5 629.5,-168.5 516.5,-168.5"/>
<text text-anchor="middle" x="573" y="-175.5" font-family="Helvetica,sans-Serif" font-size="10.00">ContainerAttribute.hpp</text>
</a>
</g>
</g>
<!-- Node3&#45;&gt;Node15 -->
<g id="edge19" class="edge"><title>Node3&#45;&gt;Node15</title>
<path fill="none" stroke="midnightblue" d="M482.691,-280.122C493.593,-267.563 514.195,-243.919 532,-224 540.647,-214.326 550.429,-203.582 558.27,-195.019"/>
<polygon fill="midnightblue" stroke="midnightblue" points="560.91,-197.318 565.091,-187.583 555.752,-192.586 560.91,-197.318"/>
</g>
<!-- Node16 -->
<g id="node17" class="node"><title>Node16</title>
<g id="a_node17"><a xlink:href="_list_attribute_8hpp.html" target="_top" xlink:title="ListAttribute.hpp">
<polygon fill="none" stroke="black" points="541,-224.5 541,-243.5 629,-243.5 629,-224.5 541,-224.5"/>
<text text-anchor="middle" x="585" y="-231.5" font-family="Helvetica,sans-Serif" font-size="10.00">ListAttribute.hpp</text>
</a>
</g>
</g>
<!-- Node3&#45;&gt;Node16 -->
<g id="edge21" class="edge"><title>Node3&#45;&gt;Node16</title>
<path fill="none" stroke="midnightblue" d="M492.673,-280.324C510.394,-271.625 537.903,-258.12 558.288,-248.113"/>
<polygon fill="midnightblue" stroke="midnightblue" points="559.936,-251.203 567.37,-243.655 556.851,-244.919 559.936,-251.203"/>
</g>
<!-- Node17 -->
<g id="node18" class="node"><title>Node17</title>
<g id="a_node18"><a xlink:href="_node_iterator_8hpp.html" target="_top" xlink:title="NodeIterator.hpp">
<polygon fill="none" stroke="black" points="241,-168.5 241,-187.5 329,-187.5 329,-168.5 241,-168.5"/>
<text text-anchor="middle" x="285" y="-175.5" font-family="Helvetica,sans-Serif" font-size="10.00">NodeIterator.hpp</text>
</a>
</g>
</g>
<!-- Node3&#45;&gt;Node17 -->
<g id="edge26" class="edge"><title>Node3&#45;&gt;Node17</title>
<path fill="none" stroke="midnightblue" d="M419.859,-286.909C354.659,-283.142 251.944,-272.7 228,-244 212.941,-225.949 237.645,-205.655 259.093,-192.62"/>
<polygon fill="midnightblue" stroke="midnightblue" points="261.047,-195.533 267.961,-187.505 257.55,-189.469 261.047,-195.533"/>
</g>
<!-- Node18 -->
<g id="node19" class="node"><title>Node18</title>
<g id="a_node19"><a xlink:href="_node_validator_8hpp.html" target="_top" xlink:title="NodeValidator.hpp">
<polygon fill="none" stroke="black" points="237,-224.5 237,-243.5 333,-243.5 333,-224.5 237,-224.5"/>
<text text-anchor="middle" x="285" y="-231.5" font-family="Helvetica,sans-Serif" font-size="10.00">NodeValidator.hpp</text>
</a>
</g>
</g>
<!-- Node3&#45;&gt;Node18 -->
<g id="edge28" class="edge"><title>Node3&#45;&gt;Node18</title>
<path fill="none" stroke="midnightblue" d="M444.894,-280.444C412.374,-271.201 360.421,-256.436 324.609,-246.257"/>
<polygon fill="midnightblue" stroke="midnightblue" points="325.541,-242.884 314.965,-243.516 323.627,-249.617 325.541,-242.884"/>
</g>
<!-- Node8&#45;&gt;Node9 -->
<g id="edge9" class="edge"><title>Node8&#45;&gt;Node9</title>
<path fill="none" stroke="midnightblue" d="M715.757,-168.444C737.316,-159.557 771.263,-145.563 795.794,-135.451"/>
<polygon fill="midnightblue" stroke="midnightblue" points="797.428,-138.563 805.34,-131.516 794.761,-132.092 797.428,-138.563"/>
</g>
<!-- Node13 -->
<g id="node14" class="node"><title>Node13</title>
<g id="a_node14"><a xlink:href="_attribute_8hpp.html" target="_top" xlink:title="Attribute.hpp">
<polygon fill="none" stroke="black" points="632,-112.5 632,-131.5 704,-131.5 704,-112.5 632,-112.5"/>
<text text-anchor="middle" x="668" y="-119.5" font-family="Helvetica,sans-Serif" font-size="10.00">Attribute.hpp</text>
</a>
</g>
</g>
<!-- Node8&#45;&gt;Node13 -->
<g id="edge15" class="edge"><title>Node8&#45;&gt;Node13</title>
<path fill="none" stroke="midnightblue" d="M690.541,-168.083C686.846,-160.691 681.477,-149.953 676.906,-140.811"/>
<polygon fill="midnightblue" stroke="midnightblue" points="679.978,-139.13 672.376,-131.751 673.717,-142.261 679.978,-139.13"/>
</g>
<!-- Node9&#45;&gt;Node5 -->
<g id="edge12" class="edge"><title>Node9&#45;&gt;Node5</title>
<path fill="none" stroke="midnightblue" d="M776.795,-116.255C662.653,-105.249 382.815,-78.2643 293.721,-69.6731"/>
<polygon fill="midnightblue" stroke="midnightblue" points="293.885,-66.1727 283.595,-68.6966 293.213,-73.1404 293.885,-66.1727"/>
</g>
<!-- Node9&#45;&gt;Node7 -->
<g id="edge11" class="edge"><title>Node9&#45;&gt;Node7</title>
<path fill="none" stroke="midnightblue" d="M776.75,-114.216C694.966,-102.949 533.419,-80.6955 465.38,-71.3227"/>
<polygon fill="midnightblue" stroke="midnightblue" points="465.673,-67.8302 455.289,-69.9327 464.718,-74.7647 465.673,-67.8302"/>
</g>
<!-- Node10 -->
<g id="node11" class="node"><title>Node10</title>
<polygon fill="none" stroke="#bfbfbf" points="728.5,-0.5 728.5,-19.5 769.5,-19.5 769.5,-0.5 728.5,-0.5"/>
<text text-anchor="middle" x="749" y="-7.5" font-family="Helvetica,sans-Serif" font-size="10.00">string</text>
</g>
<!-- Node9&#45;&gt;Node10 -->
<g id="edge10" class="edge"><title>Node9&#45;&gt;Node10</title>
<path fill="none" stroke="midnightblue" d="M857.905,-112.411C891.461,-101.783 936.857,-81.8761 917,-56 900.4,-34.3682 823.604,-20.861 779.81,-14.7814"/>
<polygon fill="midnightblue" stroke="midnightblue" points="780.079,-11.2862 769.703,-13.4286 779.151,-18.2243 780.079,-11.2862"/>
</g>
<!-- Node11 -->
<g id="node12" class="node"><title>Node11</title>
<polygon fill="none" stroke="#bfbfbf" points="777,-56.5 777,-75.5 831,-75.5 831,-56.5 777,-56.5"/>
<text text-anchor="middle" x="804" y="-63.5" font-family="Helvetica,sans-Serif" font-size="10.00">iostream</text>
</g>
<!-- Node9&#45;&gt;Node11 -->
<g id="edge13" class="edge"><title>Node9&#45;&gt;Node11</title>
<path fill="none" stroke="midnightblue" d="M822.367,-112.083C819.388,-104.77 815.074,-94.1814 811.375,-85.1034"/>
<polygon fill="midnightblue" stroke="midnightblue" points="814.58,-83.6914 807.565,-75.7511 808.097,-86.3326 814.58,-83.6914"/>
</g>
<!-- Node12 -->
<g id="node13" class="node"><title>Node12</title>
<polygon fill="none" stroke="#bfbfbf" points="849.5,-56.5 849.5,-75.5 908.5,-75.5 908.5,-56.5 849.5,-56.5"/>
<text text-anchor="middle" x="879" y="-63.5" font-family="Helvetica,sans-Serif" font-size="10.00">exception</text>
</g>
<!-- Node9&#45;&gt;Node12 -->
<g id="edge14" class="edge"><title>Node9&#45;&gt;Node12</title>
<path fill="none" stroke="midnightblue" d="M834.752,-112.083C842.47,-104.22 853.905,-92.5688 863.217,-83.0813"/>
<polygon fill="midnightblue" stroke="midnightblue" points="865.904,-85.3396 870.411,-75.7511 860.908,-80.4363 865.904,-85.3396"/>
</g>
<!-- Node13&#45;&gt;Node10 -->
<g id="edge16" class="edge"><title>Node13&#45;&gt;Node10</title>
<path fill="none" stroke="midnightblue" d="M674.356,-112.368C687.782,-94.135 719.232,-51.4257 736.721,-27.6752"/>
<polygon fill="midnightblue" stroke="midnightblue" points="739.562,-29.7192 742.674,-19.5914 733.926,-25.5685 739.562,-29.7192"/>
</g>
<!-- Node14 -->
<g id="node15" class="node"><title>Node14</title>
<g id="a_node15"><a xlink:href="_types_8hpp.html" target="_top" xlink:title="Types.hpp">
<polygon fill="none" stroke="black" points="621,-56.5 621,-75.5 683,-75.5 683,-56.5 621,-56.5"/>
<text text-anchor="middle" x="652" y="-63.5" font-family="Helvetica,sans-Serif" font-size="10.00">Types.hpp</text>
</a>
</g>
</g>
<!-- Node13&#45;&gt;Node14 -->
<g id="edge17" class="edge"><title>Node13&#45;&gt;Node14</title>
<path fill="none" stroke="midnightblue" d="M665.358,-112.083C663.214,-104.849 660.121,-94.4087 657.451,-85.3968"/>
<polygon fill="midnightblue" stroke="midnightblue" points="660.79,-84.3447 654.593,-75.7511 654.078,-86.3334 660.79,-84.3447"/>
</g>
<!-- Node14&#45;&gt;Node10 -->
<g id="edge18" class="edge"><title>Node14&#45;&gt;Node10</title>
<path fill="none" stroke="midnightblue" d="M667.585,-56.324C682.999,-47.7428 706.812,-34.486 724.71,-24.5224"/>
<polygon fill="midnightblue" stroke="midnightblue" points="726.419,-27.5767 733.454,-19.6545 723.014,-21.4606 726.419,-27.5767"/>
</g>
<!-- Node15&#45;&gt;Node13 -->
<g id="edge20" class="edge"><title>Node15&#45;&gt;Node13</title>
<path fill="none" stroke="midnightblue" d="M588.263,-168.324C603.221,-159.822 626.255,-146.729 643.727,-136.797"/>
<polygon fill="midnightblue" stroke="midnightblue" points="645.81,-139.639 652.774,-131.655 642.351,-133.553 645.81,-139.639"/>
</g>
<!-- Node16&#45;&gt;Node6 -->
<g id="edge23" class="edge"><title>Node16&#45;&gt;Node6</title>
<path fill="none" stroke="midnightblue" d="M561.074,-224.444C535.781,-215.399 495.698,-201.064 467.32,-190.916"/>
<polygon fill="midnightblue" stroke="midnightblue" points="468.409,-187.588 457.814,-187.516 466.052,-194.179 468.409,-187.588"/>
</g>
<!-- Node16&#45;&gt;Node7 -->
<g id="edge22" class="edge"><title>Node16&#45;&gt;Node7</title>
<path fill="none" stroke="midnightblue" d="M563.887,-224.38C547.009,-216.709 523.52,-204.2 507,-188 475.732,-157.338 452.577,-110.607 441.423,-85.1237"/>
<polygon fill="midnightblue" stroke="midnightblue" points="444.516,-83.4513 437.389,-75.6116 438.071,-86.1845 444.516,-83.4513"/>
</g>
<!-- Node16&#45;&gt;Node8 -->
<g id="edge24" class="edge"><title>Node16&#45;&gt;Node8</title>
<path fill="none" stroke="midnightblue" d="M602.673,-224.324C620.394,-215.625 647.903,-202.12 668.288,-192.113"/>
<polygon fill="midnightblue" stroke="midnightblue" points="669.936,-195.203 677.37,-187.655 666.851,-188.919 669.936,-195.203"/>
</g>
<!-- Node16&#45;&gt;Node15 -->
<g id="edge25" class="edge"><title>Node16&#45;&gt;Node15</title>
<path fill="none" stroke="midnightblue" d="M583.018,-224.083C581.428,-216.927 579.141,-206.635 577.154,-197.691"/>
<polygon fill="midnightblue" stroke="midnightblue" points="580.531,-196.754 574.945,-187.751 573.697,-198.272 580.531,-196.754"/>
</g>
<!-- Node17&#45;&gt;Node7 -->
<g id="edge27" class="edge"><title>Node17&#45;&gt;Node7</title>
<path fill="none" stroke="midnightblue" d="M295.246,-168.274C310.389,-155.494 339.784,-131.132 366,-112 380.866,-101.151 398.169,-89.7166 411.601,-81.0885"/>
<polygon fill="midnightblue" stroke="midnightblue" points="413.652,-83.9317 420.203,-75.6054 409.889,-78.0288 413.652,-83.9317"/>
</g>
<!-- Node18&#45;&gt;Node17 -->
<g id="edge29" class="edge"><title>Node18&#45;&gt;Node17</title>
<path fill="none" stroke="midnightblue" d="M285,-224.083C285,-217.006 285,-206.861 285,-197.986"/>
<polygon fill="midnightblue" stroke="midnightblue" points="288.5,-197.751 285,-187.751 281.5,-197.751 288.5,-197.751"/>
</g>
<!-- Node19&#45;&gt;Node20 -->
<g id="edge31" class="edge"><title>Node19&#45;&gt;Node20</title>
<path fill="none" stroke="midnightblue" d="M610.211,-392.324C621.776,-384.107 639.375,-371.602 653.161,-361.807"/>
<polygon fill="midnightblue" stroke="midnightblue" points="655.443,-364.479 661.567,-355.834 651.388,-358.773 655.443,-364.479"/>
</g>
<!-- Node20&#45;&gt;Node3 -->
<g id="edge34" class="edge"><title>Node20&#45;&gt;Node3</title>
<path fill="none" stroke="midnightblue" d="M642.468,-336.444C608.408,-327.201 553.994,-312.436 516.485,-302.257"/>
<polygon fill="midnightblue" stroke="midnightblue" points="516.952,-298.758 506.385,-299.516 515.119,-305.513 516.952,-298.758"/>
</g>
<!-- Node20&#45;&gt;Node8 -->
<g id="edge33" class="edge"><title>Node20&#45;&gt;Node8</title>
<path fill="none" stroke="midnightblue" d="M683.556,-336.45C692.088,-328.12 703.989,-314.604 709,-300 720.963,-265.135 710.145,-221.653 702.022,-197.451"/>
<polygon fill="midnightblue" stroke="midnightblue" points="705.231,-196.028 698.571,-187.788 698.638,-198.383 705.231,-196.028"/>
</g>
<!-- Node20&#45;&gt;Node10 -->
<g id="edge32" class="edge"><title>Node20&#45;&gt;Node10</title>
<path fill="none" stroke="midnightblue" d="M688.165,-336.467C700.106,-328.522 716.693,-315.579 726,-300 779.054,-211.196 761.746,-78.7114 752.858,-29.9187"/>
<polygon fill="midnightblue" stroke="midnightblue" points="756.25,-29.0217 750.923,-19.8631 749.376,-30.3443 756.25,-29.0217"/>
</g>
<!-- Node20&#45;&gt;Node15 -->
<g id="edge35" class="edge"><title>Node20&#45;&gt;Node15</title>
<path fill="none" stroke="midnightblue" d="M673.367,-336.221C671.449,-315.001 664.112,-260.023 638,-224 628.472,-210.855 613.871,-200.25 600.92,-192.644"/>
<polygon fill="midnightblue" stroke="midnightblue" points="602.322,-189.42 591.877,-187.643 598.934,-195.545 602.322,-189.42"/>
</g>
<!-- Node20&#45;&gt;Node16 -->
<g id="edge36" class="edge"><title>Node20&#45;&gt;Node16</title>
<path fill="none" stroke="midnightblue" d="M667.016,-336.368C652.264,-318.135 617.708,-275.426 598.492,-251.675"/>
<polygon fill="midnightblue" stroke="midnightblue" points="600.962,-249.164 591.951,-243.591 595.52,-253.567 600.962,-249.164"/>
</g>
<!-- Node21&#45;&gt;Node5 -->
<g id="edge44" class="edge"><title>Node21&#45;&gt;Node5</title>
<path fill="none" stroke="midnightblue" d="M154.074,-112.444C177.094,-103.097 214.026,-88.1023 239.117,-77.9151"/>
<polygon fill="midnightblue" stroke="midnightblue" points="240.474,-81.1417 248.422,-74.1368 237.84,-74.6559 240.474,-81.1417"/>
</g>
<!-- Node21&#45;&gt;Node7 -->
<g id="edge41" class="edge"><title>Node21&#45;&gt;Node7</title>
<path fill="none" stroke="midnightblue" d="M172.042,-113.996C232.564,-103.138 347.797,-82.465 403.005,-72.5606"/>
<polygon fill="midnightblue" stroke="midnightblue" points="403.675,-75.9963 412.9,-70.7853 402.439,-69.1063 403.675,-75.9963"/>
</g>
<!-- Node21&#45;&gt;Node10 -->
<g id="edge42" class="edge"><title>Node21&#45;&gt;Node10</title>
<path fill="none" stroke="midnightblue" d="M145.505,-112.315C169.017,-96.1603 219.22,-62.534 239,-56 328.801,-26.3364 621.703,-14.8946 718.003,-11.8777"/>
<polygon fill="midnightblue" stroke="midnightblue" points="718.349,-15.3689 728.238,-11.5659 718.136,-8.37214 718.349,-15.3689"/>
</g>
<!-- Node21&#45;&gt;Node11 -->
<g id="edge40" class="edge"><title>Node21&#45;&gt;Node11</title>
<path fill="none" stroke="midnightblue" d="M172.469,-117.824C292.061,-108.199 649.379,-79.4435 766.423,-70.0241"/>
<polygon fill="midnightblue" stroke="midnightblue" points="766.981,-73.4906 776.668,-69.1996 766.419,-66.5132 766.981,-73.4906"/>
</g>
<!-- Node22 -->
<g id="node23" class="node"><title>Node22</title>
<polygon fill="none" stroke="#bfbfbf" points="0,-56.5 0,-75.5 52,-75.5 52,-56.5 0,-56.5"/>
<text text-anchor="middle" x="26" y="-63.5" font-family="Helvetica,sans-Serif" font-size="10.00">sstream</text>
</g>
<!-- Node21&#45;&gt;Node22 -->
<g id="edge43" class="edge"><title>Node21&#45;&gt;Node22</title>
<path fill="none" stroke="midnightblue" d="M115.809,-112.324C98.6491,-103.664 72.0543,-90.2424 52.2527,-80.249"/>
<polygon fill="midnightblue" stroke="midnightblue" points="53.6532,-77.0354 43.1487,-75.6545 50.4993,-83.2847 53.6532,-77.0354"/>
</g>
<!-- Node23 -->
<g id="node24" class="node"><title>Node23</title>
<polygon fill="none" stroke="#bfbfbf" points="70,-56.5 70,-75.5 126,-75.5 126,-56.5 70,-56.5"/>
<text text-anchor="middle" x="98" y="-63.5" font-family="Helvetica,sans-Serif" font-size="10.00">algorithm</text>
</g>
<!-- Node21&#45;&gt;Node23 -->
<g id="edge45" class="edge"><title>Node21&#45;&gt;Node23</title>
<path fill="none" stroke="midnightblue" d="M127.22,-112.083C122.328,-104.534 115.173,-93.4948 109.167,-84.2298"/>
<polygon fill="midnightblue" stroke="midnightblue" points="112.048,-82.239 103.672,-75.7511 106.174,-86.0463 112.048,-82.239"/>
</g>
<!-- Node24 -->
<g id="node25" class="node"><title>Node24</title>
<polygon fill="none" stroke="#bfbfbf" points="144.5,-56.5 144.5,-75.5 191.5,-75.5 191.5,-56.5 144.5,-56.5"/>
<text text-anchor="middle" x="168" y="-63.5" font-family="Helvetica,sans-Serif" font-size="10.00">iterator</text>
</g>
<!-- Node21&#45;&gt;Node24 -->
<g id="edge46" class="edge"><title>Node21&#45;&gt;Node24</title>
<path fill="none" stroke="midnightblue" d="M138.78,-112.083C143.672,-104.534 150.827,-93.4948 156.833,-84.2298"/>
<polygon fill="midnightblue" stroke="midnightblue" points="159.826,-86.0463 162.328,-75.7511 153.952,-82.239 159.826,-86.0463"/>
</g>
<!-- Node25&#45;&gt;Node10 -->
<g id="edge48" class="edge"><title>Node25&#45;&gt;Node10</title>
<path fill="none" stroke="midnightblue" d="M927.176,-504.412C940.948,-496.681 959.77,-484.074 971,-468 988.237,-443.327 990,-433.098 990,-403 990,-403 990,-403 990,-289 990,-182.495 1009.21,-131.413 934,-56 912.562,-34.5034 826.639,-20.6872 779.81,-14.5973"/>
<polygon fill="midnightblue" stroke="midnightblue" points="779.986,-11.0919 769.627,-13.3148 779.111,-18.0371 779.986,-11.0919"/>
</g>
<!-- Node26 -->
<g id="node27" class="node"><title>Node26</title>
<polygon fill="none" stroke="#bfbfbf" points="858,-448.5 858,-467.5 962,-467.5 962,-448.5 858,-448.5"/>
<text text-anchor="middle" x="910" y="-455.5" font-family="Helvetica,sans-Serif" font-size="10.00">SFML/Graphics.hpp</text>
</g>
<!-- Node25&#45;&gt;Node26 -->
<g id="edge49" class="edge"><title>Node25&#45;&gt;Node26</title>
<path fill="none" stroke="midnightblue" d="M910,-504.083C910,-497.006 910,-486.861 910,-477.986"/>
<polygon fill="midnightblue" stroke="midnightblue" points="913.5,-477.751 910,-467.751 906.5,-477.751 913.5,-477.751"/>
</g>
<!-- Node27 -->
<g id="node28" class="node"><title>Node27</title>
<g id="a_node28"><a xlink:href="_time_utils_8hpp.html" target="_top" xlink:title="Time/TimeUtils.hpp">
<polygon fill="none" stroke="black" points="740,-448.5 740,-467.5 840,-467.5 840,-448.5 740,-448.5"/>
<text text-anchor="middle" x="790" y="-455.5" font-family="Helvetica,sans-Serif" font-size="10.00">Time/TimeUtils.hpp</text>
</a>
</g>
</g>
<!-- Node25&#45;&gt;Node27 -->
<g id="edge50" class="edge"><title>Node25&#45;&gt;Node27</title>
<path fill="none" stroke="midnightblue" d="M890.986,-504.444C871.412,-495.636 840.692,-481.812 818.271,-471.722"/>
<polygon fill="midnightblue" stroke="midnightblue" points="819.481,-468.428 808.925,-467.516 816.608,-474.812 819.481,-468.428"/>
</g>
<!-- Node28&#45;&gt;Node9 -->
<g id="edge52" class="edge"><title>Node28&#45;&gt;Node9</title>
<path fill="none" stroke="midnightblue" d="M1027.97,-168.444C986.192,-159.043 919.018,-143.929 873.73,-133.739"/>
<polygon fill="midnightblue" stroke="midnightblue" points="874.375,-130.297 863.851,-131.516 872.839,-137.126 874.375,-130.297"/>
</g>
<!-- Node29 -->
<g id="node30" class="node"><title>Node29</title>
<g id="a_node30"><a xlink:href="_mountable_path_8hpp.html" target="_top" xlink:title="System/MountablePath.hpp">
<polygon fill="none" stroke="black" points="1003.5,-112.5 1003.5,-131.5 1140.5,-131.5 1140.5,-112.5 1003.5,-112.5"/>
<text text-anchor="middle" x="1072" y="-119.5" font-family="Helvetica,sans-Serif" font-size="10.00">System/MountablePath.hpp</text>
</a>
</g>
</g>
<!-- Node28&#45;&gt;Node29 -->
<g id="edge53" class="edge"><title>Node28&#45;&gt;Node29</title>
<path fill="none" stroke="midnightblue" d="M1066.99,-168.083C1067.79,-160.927 1068.93,-150.635 1069.92,-141.691"/>
<polygon fill="midnightblue" stroke="midnightblue" points="1073.4,-142.076 1071.03,-131.751 1066.44,-141.303 1073.4,-142.076"/>
</g>
<!-- Node30 -->
<g id="node31" class="node"><title>Node30</title>
<g id="a_node31"><a xlink:href="_file_utils_8hpp.html" target="_top" xlink:title="Utils/FileUtils.hpp">
<polygon fill="none" stroke="black" points="1158.5,-112.5 1158.5,-131.5 1251.5,-131.5 1251.5,-112.5 1158.5,-112.5"/>
<text text-anchor="middle" x="1205" y="-119.5" font-family="Helvetica,sans-Serif" font-size="10.00">Utils/FileUtils.hpp</text>
</a>
</g>
</g>
<!-- Node28&#45;&gt;Node30 -->
<g id="edge54" class="edge"><title>Node28&#45;&gt;Node30</title>
<path fill="none" stroke="midnightblue" d="M1088.02,-168.444C1111.1,-159.478 1147.56,-145.314 1173.64,-135.183"/>
<polygon fill="midnightblue" stroke="midnightblue" points="1175.02,-138.4 1183.08,-131.516 1172.49,-131.875 1175.02,-138.4"/>
</g>
<!-- Node30&#45;&gt;Node7 -->
<g id="edge56" class="edge"><title>Node30&#45;&gt;Node7</title>
<path fill="none" stroke="midnightblue" d="M1158.3,-113.148C1155.15,-112.727 1152.03,-112.338 1149,-112 1013.4,-96.872 585.055,-74.6216 465.349,-68.5687"/>
<polygon fill="midnightblue" stroke="midnightblue" points="465.222,-65.058 455.059,-68.0499 464.87,-72.0491 465.222,-65.058"/>
</g>
<!-- Node30&#45;&gt;Node10 -->
<g id="edge55" class="edge"><title>Node30&#45;&gt;Node10</title>
<path fill="none" stroke="midnightblue" d="M1163.82,-112.496C1128.37,-104.654 1076.1,-91.8447 1032,-76 1012.16,-68.8735 1009.07,-62.4368 989,-56 915.785,-32.5188 825.845,-19.722 779.629,-14.2565"/>
<polygon fill="midnightblue" stroke="midnightblue" points="779.988,-10.7747 769.654,-13.1111 779.19,-17.7291 779.988,-10.7747"/>
</g>
<!-- Node30&#45;&gt;Node11 -->
<g id="edge58" class="edge"><title>Node30&#45;&gt;Node11</title>
<path fill="none" stroke="midnightblue" d="M1158.27,-113.335C1155.14,-112.868 1152.02,-112.419 1149,-112 1015.26,-93.4706 977.761,-100.468 841.062,-75.9773"/>
<polygon fill="midnightblue" stroke="midnightblue" points="841.51,-72.5015 831.045,-74.1588 840.259,-79.3889 841.51,-72.5015"/>
</g>
<!-- Node31 -->
<g id="node32" class="node"><title>Node31</title>
<polygon fill="none" stroke="#bfbfbf" points="1272.5,-56.5 1272.5,-75.5 1321.5,-75.5 1321.5,-56.5 1272.5,-56.5"/>
<text text-anchor="middle" x="1297" y="-63.5" font-family="Helvetica,sans-Serif" font-size="10.00">fstream</text>
</g>
<!-- Node30&#45;&gt;Node31 -->
<g id="edge57" class="edge"><title>Node30&#45;&gt;Node31</title>
<path fill="none" stroke="midnightblue" d="M1219.78,-112.324C1234.27,-103.822 1256.57,-90.7288 1273.49,-80.7975"/>
<polygon fill="midnightblue" stroke="midnightblue" points="1275.4,-83.735 1282.26,-75.6545 1271.86,-77.6981 1275.4,-83.735"/>
</g>
<!-- Node32 -->
<g id="node33" class="node"><title>Node32</title>
<polygon fill="none" stroke="#bfbfbf" points="1340,-56.5 1340,-75.5 1408,-75.5 1408,-56.5 1340,-56.5"/>
<text text-anchor="middle" x="1374" y="-63.5" font-family="Helvetica,sans-Serif" font-size="10.00">sys/types.h</text>
</g>
<!-- Node30&#45;&gt;Node32 -->
<g id="edge59" class="edge"><title>Node30&#45;&gt;Node32</title>
<path fill="none" stroke="midnightblue" d="M1231.78,-112.444C1260.33,-103.32 1305.73,-88.8133 1337.54,-78.6509"/>
<polygon fill="midnightblue" stroke="midnightblue" points="1338.89,-81.8941 1347.35,-75.5164 1336.76,-75.2262 1338.89,-81.8941"/>
</g>
<!-- Node33 -->
<g id="node34" class="node"><title>Node33</title>
<polygon fill="none" stroke="#bfbfbf" points="1426,-56.5 1426,-75.5 1486,-75.5 1486,-56.5 1426,-56.5"/>
<text text-anchor="middle" x="1456" y="-63.5" font-family="Helvetica,sans-Serif" font-size="10.00">sys/stat.h</text>
</g>
<!-- Node30&#45;&gt;Node33 -->
<g id="edge60" class="edge"><title>Node30&#45;&gt;Node33</title>
<path fill="none" stroke="midnightblue" d="M1246.48,-112.421C1287.16,-103.956 1351.22,-90.4954 1415.83,-76.232"/>
<polygon fill="midnightblue" stroke="midnightblue" points="1416.77,-79.6079 1425.78,-74.0296 1415.26,-72.7733 1416.77,-79.6079"/>
</g>
<!-- Node34 -->
<g id="node35" class="node"><title>Node34</title>
<polygon fill="none" stroke="#bfbfbf" points="1041,-56.5 1041,-75.5 1087,-75.5 1087,-56.5 1041,-56.5"/>
<text text-anchor="middle" x="1064" y="-63.5" font-family="Helvetica,sans-Serif" font-size="10.00">stdio.h</text>
</g>
<!-- Node30&#45;&gt;Node34 -->
<g id="edge61" class="edge"><title>Node30&#45;&gt;Node34</title>
<path fill="none" stroke="midnightblue" d="M1182.66,-112.444C1159.25,-103.478 1122.26,-89.314 1095.81,-79.1827"/>
<polygon fill="midnightblue" stroke="midnightblue" points="1096.83,-75.8245 1086.24,-75.5164 1094.32,-82.3615 1096.83,-75.8245"/>
</g>
<!-- Node35 -->
<g id="node36" class="node"><title>Node35</title>
<polygon fill="none" stroke="#bfbfbf" points="1105,-56.5 1105,-75.5 1185,-75.5 1185,-56.5 1105,-56.5"/>
<text text-anchor="middle" x="1145" y="-63.5" font-family="Helvetica,sans-Serif" font-size="10.00">tinydir/tinydir.h</text>
</g>
<!-- Node30&#45;&gt;Node35 -->
<g id="edge62" class="edge"><title>Node30&#45;&gt;Node35</title>
<path fill="none" stroke="midnightblue" d="M1195.36,-112.324C1186.49,-104.341 1173.13,-92.3128 1162.39,-82.6529"/>
<polygon fill="midnightblue" stroke="midnightblue" points="1164.59,-79.922 1154.82,-75.8339 1159.91,-85.1251 1164.59,-79.922"/>
</g>
<!-- Node36 -->
<g id="node37" class="node"><title>Node36</title>
<polygon fill="none" stroke="#bfbfbf" points="1203.5,-56.5 1203.5,-75.5 1254.5,-75.5 1254.5,-56.5 1203.5,-56.5"/>
<text text-anchor="middle" x="1229" y="-63.5" font-family="Helvetica,sans-Serif" font-size="10.00">unistd.h</text>
</g>
<!-- Node30&#45;&gt;Node36 -->
<g id="edge63" class="edge"><title>Node30&#45;&gt;Node36</title>
<path fill="none" stroke="midnightblue" d="M1208.96,-112.083C1212.21,-104.77 1216.92,-94.1814 1220.95,-85.1034"/>
<polygon fill="midnightblue" stroke="midnightblue" points="1224.25,-86.3107 1225.11,-75.7511 1217.85,-83.4677 1224.25,-86.3107"/>
</g>
</g>
</svg>
