<?xml version="1.0" encoding="UTF-8" standalone="no"?>
<!DOCTYPE svg PUBLIC "-//W3C//DTD SVG 1.1//EN"
 "http://www.w3.org/Graphics/SVG/1.1/DTD/svg11.dtd">
<!-- Generated by graphviz version 2.38.0 (20140413.2041)
 -->
<!-- Title: E:/Dev/ObEngine/Git/include/Animation/Animator.hpp Pages: 1 -->
<svg width="1649pt" height="318pt"
 viewBox="0.00 0.00 1649.04 318.00" xmlns="http://www.w3.org/2000/svg" xmlns:xlink="http://www.w3.org/1999/xlink">
<g id="graph0" class="graph" transform="scale(1 1) rotate(0) translate(4 314)">
<title>E:/Dev/ObEngine/Git/include/Animation/Animator.hpp</title>
<!-- Node38 -->
<g id="node1" class="node"><title>Node38</title>
<polygon fill="#bfbfbf" stroke="black" points="988.039,-279.5 988.039,-309.5 1146.04,-309.5 1146.04,-279.5 988.039,-279.5"/>
<text text-anchor="start" x="996.039" y="-297.5" font-family="Helvetica,sans-Serif" font-size="10.00">E:/Dev/ObEngine/Git</text>
<text text-anchor="middle" x="1067.04" y="-286.5" font-family="Helvetica,sans-Serif" font-size="10.00">/include/Animation/Animator.hpp</text>
</g>
<!-- Node39 -->
<g id="node2" class="node"><title>Node39</title>
<g id="a_node2"><a xlink:href="_game_object_8hpp.html" target="_top" xlink:title="E:/Dev/ObEngine/Git\l/include/Script/GameObject.hpp">
<polygon fill="white" stroke="black" points="178.539,-212.5 178.539,-242.5 333.539,-242.5 333.539,-212.5 178.539,-212.5"/>
<text text-anchor="start" x="186.539" y="-230.5" font-family="Helvetica,sans-Serif" font-size="10.00">E:/Dev/ObEngine/Git</text>
<text text-anchor="middle" x="256.039" y="-219.5" font-family="Helvetica,sans-Serif" font-size="10.00">/include/Script/GameObject.hpp</text>
</a>
</g>
</g>
<!-- Node38&#45;&gt;Node39 -->
<g id="edge1" class="edge"><title>Node38&#45;&gt;Node39</title>
<path fill="none" stroke="midnightblue" d="M977.512,-286.325C817.469,-273.497 484.944,-246.846 333.811,-234.733"/>
<polygon fill="midnightblue" stroke="midnightblue" points="977.553,-289.839 987.8,-287.149 978.112,-282.861 977.553,-289.839"/>
</g>
<!-- Node54 -->
<g id="node17" class="node"><title>Node54</title>
<g id="a_node17"><a xlink:href="_cursor_8hpp.html" target="_top" xlink:title="E:/Dev/ObEngine/Git\l/include/System/Cursor.hpp">
<polygon fill="white" stroke="black" points="920.539,-212.5 920.539,-242.5 1057.54,-242.5 1057.54,-212.5 920.539,-212.5"/>
<text text-anchor="start" x="928.539" y="-230.5" font-family="Helvetica,sans-Serif" font-size="10.00">E:/Dev/ObEngine/Git</text>
<text text-anchor="middle" x="989.039" y="-219.5" font-family="Helvetica,sans-Serif" font-size="10.00">/include/System/Cursor.hpp</text>
</a>
</g>
</g>
<!-- Node38&#45;&gt;Node54 -->
<g id="edge23" class="edge"><title>Node38&#45;&gt;Node54</title>
<path fill="none" stroke="midnightblue" d="M1042.3,-272.883C1030.45,-263.005 1016.55,-251.429 1005.93,-242.577"/>
<polygon fill="midnightblue" stroke="midnightblue" points="1040.19,-275.683 1050.11,-279.396 1044.67,-270.305 1040.19,-275.683"/>
</g>
<!-- Node61 -->
<g id="node24" class="node"><title>Node61</title>
<g id="a_node24"><a xlink:href="_animator_8cpp.html" target="_top" xlink:title="E:/Dev/ObEngine/Git\l/src/Animation/Animator.cpp">
<polygon fill="white" stroke="black" points="1076.04,-212.5 1076.04,-242.5 1216.04,-242.5 1216.04,-212.5 1076.04,-212.5"/>
<text text-anchor="start" x="1084.04" y="-230.5" font-family="Helvetica,sans-Serif" font-size="10.00">E:/Dev/ObEngine/Git</text>
<text text-anchor="middle" x="1146.04" y="-219.5" font-family="Helvetica,sans-Serif" font-size="10.00">/src/Animation/Animator.cpp</text>
</a>
</g>
</g>
<!-- Node38&#45;&gt;Node61 -->
<g id="edge39" class="edge"><title>Node38&#45;&gt;Node61</title>
<path fill="none" stroke="midnightblue" d="M1092.1,-272.883C1104.1,-263.005 1118.17,-251.429 1128.93,-242.577"/>
<polygon fill="midnightblue" stroke="midnightblue" points="1089.68,-270.34 1084.18,-279.396 1094.13,-275.745 1089.68,-270.34"/>
</g>
<!-- Node62 -->
<g id="node25" class="node"><title>Node62</title>
<g id="a_node25"><a xlink:href="_animation_bindings_8cpp.html" target="_top" xlink:title="E:/Dev/ObEngine/Git\l/src/Bindings/AnimationBindings.cpp">
<polygon fill="white" stroke="black" points="1234.04,-212.5 1234.04,-242.5 1410.04,-242.5 1410.04,-212.5 1234.04,-212.5"/>
<text text-anchor="start" x="1242.04" y="-230.5" font-family="Helvetica,sans-Serif" font-size="10.00">E:/Dev/ObEngine/Git</text>
<text text-anchor="middle" x="1322.04" y="-219.5" font-family="Helvetica,sans-Serif" font-size="10.00">/src/Bindings/AnimationBindings.cpp</text>
</a>
</g>
</g>
<!-- Node38&#45;&gt;Node62 -->
<g id="edge40" class="edge"><title>Node38&#45;&gt;Node62</title>
<path fill="none" stroke="midnightblue" d="M1131.83,-276.984C1173.48,-266.367 1227.02,-252.72 1266.68,-242.611"/>
<polygon fill="midnightblue" stroke="midnightblue" points="1130.88,-273.614 1122.06,-279.476 1132.61,-280.397 1130.88,-273.614"/>
</g>
<!-- Node40 -->
<g id="node3" class="node"><title>Node40</title>
<g id="a_node3"><a xlink:href="_scene_8hpp.html" target="_top" xlink:title="E:/Dev/ObEngine/Git\l/include/Scene/Scene.hpp">
<polygon fill="white" stroke="black" points="534.539,-145.5 534.539,-175.5 665.539,-175.5 665.539,-145.5 534.539,-145.5"/>
<text text-anchor="start" x="542.539" y="-163.5" font-family="Helvetica,sans-Serif" font-size="10.00">E:/Dev/ObEngine/Git</text>
<text text-anchor="middle" x="600.039" y="-152.5" font-family="Helvetica,sans-Serif" font-size="10.00">/include/Scene/Scene.hpp</text>
</a>
</g>
</g>
<!-- Node39&#45;&gt;Node40 -->
<g id="edge2" class="edge"><title>Node39&#45;&gt;Node40</title>
<path fill="none" stroke="midnightblue" d="M340.433,-210.553C400.22,-199.256 479.274,-184.319 534.371,-173.908"/>
<polygon fill="midnightblue" stroke="midnightblue" points="339.435,-207.18 330.258,-212.476 340.734,-214.058 339.435,-207.18"/>
</g>
<!-- Node43 -->
<g id="node6" class="node"><title>Node43</title>
<g id="a_node6"><a xlink:href="_map_editor_8cpp.html" target="_top" xlink:title="E:/Dev/ObEngine/Git\l/src/Editor/MapEditor.cpp">
<polygon fill="white" stroke="black" points="662.039,-0.5 662.039,-30.5 790.039,-30.5 790.039,-0.5 662.039,-0.5"/>
<text text-anchor="start" x="670.039" y="-18.5" font-family="Helvetica,sans-Serif" font-size="10.00">E:/Dev/ObEngine/Git</text>
<text text-anchor="middle" x="726.039" y="-7.5" font-family="Helvetica,sans-Serif" font-size="10.00">/src/Editor/MapEditor.cpp</text>
</a>
</g>
</g>
<!-- Node39&#45;&gt;Node43 -->
<g id="edge20" class="edge"><title>Node39&#45;&gt;Node43</title>
<path fill="none" stroke="midnightblue" d="M187.467,-209.82C96.3905,-184.641 -46.251,-132.798 15.0391,-67 16.413,-65.525 487.179,-32.9543 661.83,-20.9183"/>
<polygon fill="midnightblue" stroke="midnightblue" points="186.637,-213.221 197.205,-212.465 188.472,-206.466 186.637,-213.221"/>
</g>
<!-- Node50 -->
<g id="node13" class="node"><title>Node50</title>
<g id="a_node13"><a xlink:href="_map_editor_tools_8cpp.html" target="_top" xlink:title="E:/Dev/ObEngine/Git\l/src/Editor/MapEditorTools.cpp">
<polygon fill="white" stroke="black" points="180.539,-73 180.539,-103 331.539,-103 331.539,-73 180.539,-73"/>
<text text-anchor="start" x="188.539" y="-91" font-family="Helvetica,sans-Serif" font-size="10.00">E:/Dev/ObEngine/Git</text>
<text text-anchor="middle" x="256.039" y="-80" font-family="Helvetica,sans-Serif" font-size="10.00">/src/Editor/MapEditorTools.cpp</text>
</a>
</g>
</g>
<!-- Node39&#45;&gt;Node50 -->
<g id="edge21" class="edge"><title>Node39&#45;&gt;Node50</title>
<path fill="none" stroke="midnightblue" d="M256.039,-202.287C256.039,-173.607 256.039,-126.775 256.039,-103.326"/>
<polygon fill="midnightblue" stroke="midnightblue" points="252.539,-202.303 256.039,-212.303 259.539,-202.303 252.539,-202.303"/>
</g>
<!-- Node53 -->
<g id="node16" class="node"><title>Node53</title>
<g id="a_node16"><a xlink:href="_game_object_8cpp.html" target="_top" xlink:title="E:/Dev/ObEngine/Git\l/src/Script/GameObject.cpp">
<polygon fill="white" stroke="black" points="24.0391,-73 24.0391,-103 162.039,-103 162.039,-73 24.0391,-73"/>
<text text-anchor="start" x="32.0391" y="-91" font-family="Helvetica,sans-Serif" font-size="10.00">E:/Dev/ObEngine/Git</text>
<text text-anchor="middle" x="93.0391" y="-80" font-family="Helvetica,sans-Serif" font-size="10.00">/src/Script/GameObject.cpp</text>
</a>
</g>
</g>
<!-- Node39&#45;&gt;Node53 -->
<g id="edge22" class="edge"><title>Node39&#45;&gt;Node53</title>
<path fill="none" stroke="midnightblue" d="M231.275,-205.61C197.783,-177.358 138.922,-127.705 110.022,-103.326"/>
<polygon fill="midnightblue" stroke="midnightblue" points="229.309,-208.53 239.209,-212.303 233.822,-203.18 229.309,-208.53"/>
</g>
<!-- Node41 -->
<g id="node4" class="node"><title>Node41</title>
<g id="a_node4"><a xlink:href="_colliders_edit_actions_8hpp.html" target="_top" xlink:title="E:/Dev/ObEngine/Git\l/include/Editor/CollidersEdit\lActions.hpp">
<polygon fill="white" stroke="black" points="349.539,-67.5 349.539,-108.5 486.539,-108.5 486.539,-67.5 349.539,-67.5"/>
<text text-anchor="start" x="357.539" y="-96.5" font-family="Helvetica,sans-Serif" font-size="10.00">E:/Dev/ObEngine/Git</text>
<text text-anchor="start" x="357.539" y="-85.5" font-family="Helvetica,sans-Serif" font-size="10.00">/include/Editor/CollidersEdit</text>
<text text-anchor="middle" x="418.039" y="-74.5" font-family="Helvetica,sans-Serif" font-size="10.00">Actions.hpp</text>
</a>
</g>
</g>
<!-- Node40&#45;&gt;Node41 -->
<g id="edge3" class="edge"><title>Node40&#45;&gt;Node41</title>
<path fill="none" stroke="midnightblue" d="M554,-141.666C527.924,-131.565 495.27,-118.916 468.499,-108.546"/>
<polygon fill="midnightblue" stroke="midnightblue" points="553.057,-145.054 563.646,-145.403 555.585,-138.527 553.057,-145.054"/>
</g>
<!-- Node40&#45;&gt;Node43 -->
<g id="edge15" class="edge"><title>Node40&#45;&gt;Node43</title>
<path fill="none" stroke="midnightblue" d="M629.904,-139.503C641.589,-130.891 654.652,-120.225 665.039,-109 688.034,-84.1503 708.243,-49.7482 718.628,-30.6737"/>
<polygon fill="midnightblue" stroke="midnightblue" points="627.782,-136.717 621.696,-145.39 631.862,-142.406 627.782,-136.717"/>
</g>
<!-- Node44 -->
<g id="node7" class="node"><title>Node44</title>
<g id="a_node7"><a xlink:href="_editor_global_actions_8hpp.html" target="_top" xlink:title="E:/Dev/ObEngine/Git\l/include/Editor/EditorGlobal\lActions.hpp">
<polygon fill="white" stroke="black" points="1488.54,-67.5 1488.54,-108.5 1623.54,-108.5 1623.54,-67.5 1488.54,-67.5"/>
<text text-anchor="start" x="1496.54" y="-96.5" font-family="Helvetica,sans-Serif" font-size="10.00">E:/Dev/ObEngine/Git</text>
<text text-anchor="start" x="1496.54" y="-85.5" font-family="Helvetica,sans-Serif" font-size="10.00">/include/Editor/EditorGlobal</text>
<text text-anchor="middle" x="1556.04" y="-74.5" font-family="Helvetica,sans-Serif" font-size="10.00">Actions.hpp</text>
</a>
</g>
</g>
<!-- Node40&#45;&gt;Node44 -->
<g id="edge6" class="edge"><title>Node40&#45;&gt;Node44</title>
<path fill="none" stroke="midnightblue" d="M675.798,-144.913C1031.87,-103.52 1128.83,-162.432 1480.04,-109 1482.74,-108.59 1485.48,-108.121 1488.24,-107.606"/>
<polygon fill="midnightblue" stroke="midnightblue" points="675.247,-141.454 665.726,-146.102 676.068,-148.405 675.247,-141.454"/>
</g>
<!-- Node46 -->
<g id="node9" class="node"><title>Node46</title>
<g id="a_node9"><a xlink:href="_editor_g_u_i_8hpp.html" target="_top" xlink:title="E:/Dev/ObEngine/Git\l/include/Editor/EditorGUI.hpp">
<polygon fill="white" stroke="black" points="844.539,-73 844.539,-103 987.539,-103 987.539,-73 844.539,-73"/>
<text text-anchor="start" x="852.539" y="-91" font-family="Helvetica,sans-Serif" font-size="10.00">E:/Dev/ObEngine/Git</text>
<text text-anchor="middle" x="916.039" y="-80" font-family="Helvetica,sans-Serif" font-size="10.00">/include/Editor/EditorGUI.hpp</text>
</a>
</g>
</g>
<!-- Node40&#45;&gt;Node46 -->
<g id="edge9" class="edge"><title>Node40&#45;&gt;Node46</title>
<path fill="none" stroke="midnightblue" d="M675.668,-143.857C721.796,-134.165 781.911,-121.265 835.039,-109 843.084,-107.143 851.562,-105.121 859.881,-103.1"/>
<polygon fill="midnightblue" stroke="midnightblue" points="674.816,-140.46 665.748,-145.938 676.253,-147.311 674.816,-140.46"/>
</g>
<!-- Node48 -->
<g id="node11" class="node"><title>Node48</title>
<g id="a_node11"><a xlink:href="_sprite_edit_actions_8hpp.html" target="_top" xlink:title="E:/Dev/ObEngine/Git\l/include/Editor/SpriteEdit\lActions.hpp">
<polygon fill="white" stroke="black" points="1005.54,-67.5 1005.54,-108.5 1130.54,-108.5 1130.54,-67.5 1005.54,-67.5"/>
<text text-anchor="start" x="1013.54" y="-96.5" font-family="Helvetica,sans-Serif" font-size="10.00">E:/Dev/ObEngine/Git</text>
<text text-anchor="start" x="1013.54" y="-85.5" font-family="Helvetica,sans-Serif" font-size="10.00">/include/Editor/SpriteEdit</text>
<text text-anchor="middle" x="1068.04" y="-74.5" font-family="Helvetica,sans-Serif" font-size="10.00">Actions.hpp</text>
</a>
</g>
</g>
<!-- Node40&#45;&gt;Node48 -->
<g id="edge12" class="edge"><title>Node40&#45;&gt;Node48</title>
<path fill="none" stroke="midnightblue" d="M675.739,-144.823C818.144,-123.71 857.834,-135.743 996.039,-109 999.096,-108.408 1002.21,-107.752 1005.35,-107.048"/>
<polygon fill="midnightblue" stroke="midnightblue" points="675.122,-141.377 665.757,-146.332 676.168,-148.298 675.122,-141.377"/>
</g>
<!-- Node40&#45;&gt;Node50 -->
<g id="edge16" class="edge"><title>Node40&#45;&gt;Node50</title>
<path fill="none" stroke="midnightblue" d="M524.299,-145.656C472.339,-135.946 401.874,-122.36 340.039,-109 331.54,-107.164 322.581,-105.133 313.806,-103.09"/>
<polygon fill="midnightblue" stroke="midnightblue" points="523.964,-149.153 534.436,-147.545 525.247,-142.272 523.964,-149.153"/>
</g>
<!-- Node51 -->
<g id="node14" class="node"><title>Node51</title>
<g id="a_node14"><a xlink:href="_game_8cpp.html" target="_top" xlink:title="E:/Dev/ObEngine/Git\l/src/Modes/Game.cpp">
<polygon fill="white" stroke="black" points="713.539,-73 713.539,-103 826.539,-103 826.539,-73 713.539,-73"/>
<text text-anchor="start" x="721.539" y="-91" font-family="Helvetica,sans-Serif" font-size="10.00">E:/Dev/ObEngine/Git</text>
<text text-anchor="middle" x="770.039" y="-80" font-family="Helvetica,sans-Serif" font-size="10.00">/src/Modes/Game.cpp</text>
</a>
</g>
</g>
<!-- Node40&#45;&gt;Node51 -->
<g id="edge17" class="edge"><title>Node40&#45;&gt;Node51</title>
<path fill="none" stroke="midnightblue" d="M643.446,-141.499C672.238,-129.559 709.482,-114.114 736.105,-103.073"/>
<polygon fill="midnightblue" stroke="midnightblue" points="641.929,-138.339 634.033,-145.403 644.61,-144.805 641.929,-138.339"/>
</g>
<!-- Node52 -->
<g id="node15" class="node"><title>Node52</title>
<g id="a_node15"><a xlink:href="_scene_8cpp.html" target="_top" xlink:title="E:/Dev/ObEngine/Git\l/src/Scene/Scene.cpp">
<polygon fill="white" stroke="black" points="543.539,-73 543.539,-103 656.539,-103 656.539,-73 543.539,-73"/>
<text text-anchor="start" x="551.539" y="-91" font-family="Helvetica,sans-Serif" font-size="10.00">E:/Dev/ObEngine/Git</text>
<text text-anchor="middle" x="600.039" y="-80" font-family="Helvetica,sans-Serif" font-size="10.00">/src/Scene/Scene.cpp</text>
</a>
</g>
</g>
<!-- Node40&#45;&gt;Node52 -->
<g id="edge18" class="edge"><title>Node40&#45;&gt;Node52</title>
<path fill="none" stroke="midnightblue" d="M600.039,-135.232C600.039,-124.568 600.039,-112.414 600.039,-103.246"/>
<polygon fill="midnightblue" stroke="midnightblue" points="596.539,-135.233 600.039,-145.233 603.539,-135.233 596.539,-135.233"/>
</g>
<!-- Node40&#45;&gt;Node53 -->
<g id="edge19" class="edge"><title>Node40&#45;&gt;Node53</title>
<path fill="none" stroke="midnightblue" d="M524.008,-153.645C437.894,-146.299 293.603,-131.821 171.039,-109 162.106,-107.337 152.68,-105.229 143.589,-103.009"/>
<polygon fill="midnightblue" stroke="midnightblue" points="523.958,-157.154 534.216,-154.506 524.546,-150.178 523.958,-157.154"/>
</g>
<!-- Node42 -->
<g id="node5" class="node"><title>Node42</title>
<g id="a_node5"><a xlink:href="_colliders_edit_actions_8cpp.html" target="_top" xlink:title="E:/Dev/ObEngine/Git\l/src/Editor/CollidersEditActions.cpp">
<polygon fill="white" stroke="black" points="332.539,-0.5 332.539,-30.5 503.539,-30.5 503.539,-0.5 332.539,-0.5"/>
<text text-anchor="start" x="340.539" y="-18.5" font-family="Helvetica,sans-Serif" font-size="10.00">E:/Dev/ObEngine/Git</text>
<text text-anchor="middle" x="418.039" y="-7.5" font-family="Helvetica,sans-Serif" font-size="10.00">/src/Editor/CollidersEditActions.cpp</text>
</a>
</g>
</g>
<!-- Node41&#45;&gt;Node42 -->
<g id="edge4" class="edge"><title>Node41&#45;&gt;Node42</title>
<path fill="none" stroke="midnightblue" d="M418.039,-57.08C418.039,-48.0061 418.039,-38.4498 418.039,-30.8916"/>
<polygon fill="midnightblue" stroke="midnightblue" points="414.539,-57.3618 418.039,-67.3618 421.539,-57.3619 414.539,-57.3618"/>
</g>
<!-- Node41&#45;&gt;Node43 -->
<g id="edge5" class="edge"><title>Node41&#45;&gt;Node43</title>
<path fill="none" stroke="midnightblue" d="M496.67,-68.0197C498.138,-67.6761 499.595,-67.3359 501.039,-67 555.239,-54.3883 616.914,-40.584 661.969,-30.6002"/>
<polygon fill="midnightblue" stroke="midnightblue" points="495.794,-64.6302 486.862,-70.3284 497.398,-71.444 495.794,-64.6302"/>
</g>
<!-- Node44&#45;&gt;Node43 -->
<g id="edge8" class="edge"><title>Node44&#45;&gt;Node43</title>
<path fill="none" stroke="midnightblue" d="M1478.14,-66.8521C1196.85,-23.323 1120.42,-56.685 840.039,-31 823.847,-29.5167 806.41,-27.5082 790.163,-25.4593"/>
<polygon fill="midnightblue" stroke="midnightblue" points="1477.81,-70.3433 1488.23,-68.4332 1478.89,-63.4277 1477.81,-70.3433"/>
</g>
<!-- Node45 -->
<g id="node8" class="node"><title>Node45</title>
<g id="a_node8"><a xlink:href="_editor_global_actions_8cpp.html" target="_top" xlink:title="E:/Dev/ObEngine/Git\l/src/Editor/EditorGlobalActions.cpp">
<polygon fill="white" stroke="black" points="1471.04,-0.5 1471.04,-30.5 1641.04,-30.5 1641.04,-0.5 1471.04,-0.5"/>
<text text-anchor="start" x="1479.04" y="-18.5" font-family="Helvetica,sans-Serif" font-size="10.00">E:/Dev/ObEngine/Git</text>
<text text-anchor="middle" x="1556.04" y="-7.5" font-family="Helvetica,sans-Serif" font-size="10.00">/src/Editor/EditorGlobalActions.cpp</text>
</a>
</g>
</g>
<!-- Node44&#45;&gt;Node45 -->
<g id="edge7" class="edge"><title>Node44&#45;&gt;Node45</title>
<path fill="none" stroke="midnightblue" d="M1556.04,-57.08C1556.04,-48.0061 1556.04,-38.4498 1556.04,-30.8916"/>
<polygon fill="midnightblue" stroke="midnightblue" points="1552.54,-57.3618 1556.04,-67.3618 1559.54,-57.3619 1552.54,-57.3618"/>
</g>
<!-- Node46&#45;&gt;Node43 -->
<g id="edge11" class="edge"><title>Node46&#45;&gt;Node43</title>
<path fill="none" stroke="midnightblue" d="M868.363,-69.3098C836.071,-57.3275 793.98,-41.7096 763.966,-30.5729"/>
<polygon fill="midnightblue" stroke="midnightblue" points="867.453,-72.7053 878.046,-72.9027 869.889,-66.1425 867.453,-72.7053"/>
</g>
<!-- Node47 -->
<g id="node10" class="node"><title>Node47</title>
<g id="a_node10"><a xlink:href="_editor_g_u_i_8cpp.html" target="_top" xlink:title="E:/Dev/ObEngine/Git\l/src/Editor/EditorGUI.cpp">
<polygon fill="white" stroke="black" points="849.539,-0.5 849.539,-30.5 974.539,-30.5 974.539,-0.5 849.539,-0.5"/>
<text text-anchor="start" x="857.539" y="-18.5" font-family="Helvetica,sans-Serif" font-size="10.00">E:/Dev/ObEngine/Git</text>
<text text-anchor="middle" x="912.039" y="-7.5" font-family="Helvetica,sans-Serif" font-size="10.00">/src/Editor/EditorGUI.cpp</text>
</a>
</g>
</g>
<!-- Node46&#45;&gt;Node47 -->
<g id="edge10" class="edge"><title>Node46&#45;&gt;Node47</title>
<path fill="none" stroke="midnightblue" d="M914.662,-62.7317C914.057,-52.0679 913.368,-39.9145 912.847,-30.7455"/>
<polygon fill="midnightblue" stroke="midnightblue" points="911.169,-62.9476 915.23,-72.7333 918.157,-62.551 911.169,-62.9476"/>
</g>
<!-- Node48&#45;&gt;Node43 -->
<g id="edge13" class="edge"><title>Node48&#45;&gt;Node43</title>
<path fill="none" stroke="midnightblue" d="M995.543,-66.9777C919.522,-49.5942 842.846,-35.7995 790.189,-26.8983"/>
<polygon fill="midnightblue" stroke="midnightblue" points="994.761,-70.3891 1005.29,-69.2278 996.335,-63.5684 994.761,-70.3891"/>
</g>
<!-- Node49 -->
<g id="node12" class="node"><title>Node49</title>
<g id="a_node12"><a xlink:href="_sprite_edit_actions_8cpp.html" target="_top" xlink:title="E:/Dev/ObEngine/Git\l/src/Editor/SpriteEditActions.cpp">
<polygon fill="white" stroke="black" points="992.539,-0.5 992.539,-30.5 1151.54,-30.5 1151.54,-0.5 992.539,-0.5"/>
<text text-anchor="start" x="1000.54" y="-18.5" font-family="Helvetica,sans-Serif" font-size="10.00">E:/Dev/ObEngine/Git</text>
<text text-anchor="middle" x="1072.04" y="-7.5" font-family="Helvetica,sans-Serif" font-size="10.00">/src/Editor/SpriteEditActions.cpp</text>
</a>
</g>
</g>
<!-- Node48&#45;&gt;Node49 -->
<g id="edge14" class="edge"><title>Node48&#45;&gt;Node49</title>
<path fill="none" stroke="midnightblue" d="M1069.72,-57.3757C1070.24,-48.214 1070.79,-38.5319 1071.22,-30.8916"/>
<polygon fill="midnightblue" stroke="midnightblue" points="1066.23,-57.1796 1069.15,-67.3618 1073.21,-57.5762 1066.23,-57.1796"/>
</g>
<!-- Node54&#45;&gt;Node41 -->
<g id="edge24" class="edge"><title>Node54&#45;&gt;Node41</title>
<path fill="none" stroke="midnightblue" d="M909.759,-225.563C788.256,-222.946 562.637,-213.079 492.039,-176 463.249,-160.879 440.977,-129.427 428.687,-108.774"/>
<polygon fill="midnightblue" stroke="midnightblue" points="910.041,-229.069 920.111,-225.774 910.184,-222.071 910.041,-229.069"/>
</g>
<!-- Node54&#45;&gt;Node43 -->
<g id="edge35" class="edge"><title>Node54&#45;&gt;Node43</title>
<path fill="none" stroke="midnightblue" d="M910.112,-223.552C784.404,-218.037 550.236,-204.088 525.039,-176 509.19,-158.332 507.475,-97.6412 534.039,-67 550.803,-47.663 612.724,-33.7672 661.772,-25.5066"/>
<polygon fill="midnightblue" stroke="midnightblue" points="910.309,-227.064 920.45,-223.998 910.61,-220.07 910.309,-227.064"/>
</g>
<!-- Node54&#45;&gt;Node44 -->
<g id="edge25" class="edge"><title>Node54&#45;&gt;Node44</title>
<path fill="none" stroke="midnightblue" d="M1067.96,-211.933C1189.3,-193.561 1224.19,-206.114 1339.04,-176 1402.84,-159.271 1473.08,-128.725 1515.87,-108.644"/>
<polygon fill="midnightblue" stroke="midnightblue" points="1067.25,-208.501 1057.91,-213.496 1068.33,-215.418 1067.25,-208.501"/>
</g>
<!-- Node54&#45;&gt;Node48 -->
<g id="edge33" class="edge"><title>Node54&#45;&gt;Node48</title>
<path fill="none" stroke="midnightblue" d="M1058.26,-209.954C1102.08,-198.781 1151.66,-184.562 1158.04,-176 1177.25,-150.206 1144.17,-125.159 1112.84,-108.615"/>
<polygon fill="midnightblue" stroke="midnightblue" points="1057.28,-206.592 1048.44,-212.432 1058.99,-213.379 1057.28,-206.592"/>
</g>
<!-- Node54&#45;&gt;Node51 -->
<g id="edge36" class="edge"><title>Node54&#45;&gt;Node51</title>
<path fill="none" stroke="midnightblue" d="M1062.14,-209.587C1106.78,-195.9 1150.76,-174.115 1125.04,-145 1082.04,-96.3348 898.538,-122.601 835.039,-109 827.419,-107.368 819.408,-105.248 811.714,-103"/>
<polygon fill="midnightblue" stroke="midnightblue" points="1060.93,-206.292 1052.33,-212.468 1062.91,-213.008 1060.93,-206.292"/>
</g>
<!-- Node55 -->
<g id="node18" class="node"><title>Node55</title>
<g id="a_node18"><a xlink:href="_grid_8hpp.html" target="_top" xlink:title="E:/Dev/ObEngine/Git\l/include/Editor/Grid.hpp">
<polygon fill="white" stroke="black" points="1210.54,-145.5 1210.54,-175.5 1329.54,-175.5 1329.54,-145.5 1210.54,-145.5"/>
<text text-anchor="start" x="1218.54" y="-163.5" font-family="Helvetica,sans-Serif" font-size="10.00">E:/Dev/ObEngine/Git</text>
<text text-anchor="middle" x="1270.04" y="-152.5" font-family="Helvetica,sans-Serif" font-size="10.00">/include/Editor/Grid.hpp</text>
</a>
</g>
</g>
<!-- Node54&#45;&gt;Node55 -->
<g id="edge26" class="edge"><title>Node54&#45;&gt;Node55</title>
<path fill="none" stroke="midnightblue" d="M1059.67,-210.162C1106.19,-199.402 1166.4,-185.473 1210.49,-175.276"/>
<polygon fill="midnightblue" stroke="midnightblue" points="1058.62,-206.812 1049.67,-212.476 1060.2,-213.632 1058.62,-206.812"/>
</g>
<!-- Node58 -->
<g id="node21" class="node"><title>Node58</title>
<g id="a_node21"><a xlink:href="_system_bindings_8cpp.html" target="_top" xlink:title="E:/Dev/ObEngine/Git\l/src/Bindings/SystemBindings.cpp">
<polygon fill="white" stroke="black" points="683.539,-145.5 683.539,-175.5 850.539,-175.5 850.539,-145.5 683.539,-145.5"/>
<text text-anchor="start" x="691.539" y="-163.5" font-family="Helvetica,sans-Serif" font-size="10.00">E:/Dev/ObEngine/Git</text>
<text text-anchor="middle" x="767.039" y="-152.5" font-family="Helvetica,sans-Serif" font-size="10.00">/src/Bindings/SystemBindings.cpp</text>
</a>
</g>
</g>
<!-- Node54&#45;&gt;Node58 -->
<g id="edge34" class="edge"><title>Node54&#45;&gt;Node58</title>
<path fill="none" stroke="midnightblue" d="M931.25,-209.58C895.193,-199.022 849.323,-185.592 815.233,-175.611"/>
<polygon fill="midnightblue" stroke="midnightblue" points="930.561,-213.025 941.142,-212.476 932.528,-206.307 930.561,-213.025"/>
</g>
<!-- Node59 -->
<g id="node22" class="node"><title>Node59</title>
<g id="a_node22"><a xlink:href="_script_8cpp.html" target="_top" xlink:title="E:/Dev/ObEngine/Git\l/src/Script/Script.cpp">
<polygon fill="white" stroke="black" points="868.539,-145.5 868.539,-175.5 977.539,-175.5 977.539,-145.5 868.539,-145.5"/>
<text text-anchor="start" x="876.539" y="-163.5" font-family="Helvetica,sans-Serif" font-size="10.00">E:/Dev/ObEngine/Git</text>
<text text-anchor="middle" x="923.039" y="-152.5" font-family="Helvetica,sans-Serif" font-size="10.00">/src/Script/Script.cpp</text>
</a>
</g>
</g>
<!-- Node54&#45;&gt;Node59 -->
<g id="edge37" class="edge"><title>Node54&#45;&gt;Node59</title>
<path fill="none" stroke="midnightblue" d="M967.525,-205.311C957.624,-195.561 946.148,-184.259 937.332,-175.577"/>
<polygon fill="midnightblue" stroke="midnightblue" points="965.137,-207.873 974.718,-212.396 970.049,-202.885 965.137,-207.873"/>
</g>
<!-- Node60 -->
<g id="node23" class="node"><title>Node60</title>
<g id="a_node23"><a xlink:href="_cursor_8cpp.html" target="_top" xlink:title="E:/Dev/ObEngine/Git\l/src/System/Cursor.cpp">
<polygon fill="white" stroke="black" points="996.039,-145.5 996.039,-175.5 1116.04,-175.5 1116.04,-145.5 996.039,-145.5"/>
<text text-anchor="start" x="1004.04" y="-163.5" font-family="Helvetica,sans-Serif" font-size="10.00">E:/Dev/ObEngine/Git</text>
<text text-anchor="middle" x="1056.04" y="-152.5" font-family="Helvetica,sans-Serif" font-size="10.00">/src/System/Cursor.cpp</text>
</a>
</g>
</g>
<!-- Node54&#45;&gt;Node60 -->
<g id="edge38" class="edge"><title>Node54&#45;&gt;Node60</title>
<path fill="none" stroke="midnightblue" d="M1010.88,-205.311C1020.93,-195.561 1032.58,-184.259 1041.53,-175.577"/>
<polygon fill="midnightblue" stroke="midnightblue" points="1008.32,-202.921 1003.58,-212.396 1013.19,-207.945 1008.32,-202.921"/>
</g>
<!-- Node55&#45;&gt;Node43 -->
<g id="edge32" class="edge"><title>Node55&#45;&gt;Node43</title>
<path fill="none" stroke="midnightblue" d="M1229.21,-140.812C1212.56,-132.264 1193.6,-121.295 1178.04,-109 1158.29,-93.3939 1162.4,-78.5661 1140.04,-67 1020.76,-5.29849 973.315,-47.4722 840.039,-31 823.902,-29.0055 806.485,-26.8113 790.239,-24.7468"/>
<polygon fill="midnightblue" stroke="midnightblue" points="1227.69,-143.96 1238.19,-145.304 1230.82,-137.7 1227.69,-143.96"/>
</g>
<!-- Node55&#45;&gt;Node44 -->
<g id="edge27" class="edge"><title>Node55&#45;&gt;Node44</title>
<path fill="none" stroke="midnightblue" d="M1339.74,-143.133C1380.66,-133.426 1433.34,-120.757 1480.04,-109 1482.82,-108.3 1485.65,-107.581 1488.51,-106.85"/>
<polygon fill="midnightblue" stroke="midnightblue" points="1338.79,-139.761 1329.86,-145.472 1340.4,-146.572 1338.79,-139.761"/>
</g>
<!-- Node55&#45;&gt;Node46 -->
<g id="edge28" class="edge"><title>Node55&#45;&gt;Node46</title>
<path fill="none" stroke="midnightblue" d="M1200.42,-147.91C1144.89,-138.368 1065.24,-124.011 996.039,-109 987.645,-107.179 978.79,-105.113 970.153,-103.017"/>
<polygon fill="midnightblue" stroke="midnightblue" points="1200.05,-151.398 1210.5,-149.635 1201.23,-144.498 1200.05,-151.398"/>
</g>
<!-- Node55&#45;&gt;Node48 -->
<g id="edge29" class="edge"><title>Node55&#45;&gt;Node48</title>
<path fill="none" stroke="midnightblue" d="M1220.08,-142.065C1190.96,-131.9 1154.15,-119.053 1124.04,-108.546"/>
<polygon fill="midnightblue" stroke="midnightblue" points="1219.05,-145.412 1229.65,-145.403 1221.36,-138.803 1219.05,-145.412"/>
</g>
<!-- Node56 -->
<g id="node19" class="node"><title>Node56</title>
<g id="a_node19"><a xlink:href="_editor_bindings_8cpp.html" target="_top" xlink:title="E:/Dev/ObEngine/Git\l/src/Bindings/EditorBindings.cpp">
<polygon fill="white" stroke="black" points="1187.04,-73 1187.04,-103 1345.04,-103 1345.04,-73 1187.04,-73"/>
<text text-anchor="start" x="1195.04" y="-91" font-family="Helvetica,sans-Serif" font-size="10.00">E:/Dev/ObEngine/Git</text>
<text text-anchor="middle" x="1266.04" y="-80" font-family="Helvetica,sans-Serif" font-size="10.00">/src/Bindings/EditorBindings.cpp</text>
</a>
</g>
</g>
<!-- Node55&#45;&gt;Node56 -->
<g id="edge30" class="edge"><title>Node55&#45;&gt;Node56</title>
<path fill="none" stroke="midnightblue" d="M1268.66,-135.232C1268.06,-124.568 1267.37,-112.414 1266.85,-103.246"/>
<polygon fill="midnightblue" stroke="midnightblue" points="1265.17,-135.448 1269.23,-145.233 1272.16,-135.051 1265.17,-135.448"/>
</g>
<!-- Node57 -->
<g id="node20" class="node"><title>Node57</title>
<g id="a_node20"><a xlink:href="_grid_8cpp.html" target="_top" xlink:title="E:/Dev/ObEngine/Git\l/src/Editor/Grid.cpp">
<polygon fill="white" stroke="black" points="1363.54,-73 1363.54,-103 1470.54,-103 1470.54,-73 1363.54,-73"/>
<text text-anchor="start" x="1371.54" y="-91" font-family="Helvetica,sans-Serif" font-size="10.00">E:/Dev/ObEngine/Git</text>
<text text-anchor="middle" x="1417.04" y="-80" font-family="Helvetica,sans-Serif" font-size="10.00">/src/Editor/Grid.cpp</text>
</a>
</g>
</g>
<!-- Node55&#45;&gt;Node57 -->
<g id="edge31" class="edge"><title>Node55&#45;&gt;Node57</title>
<path fill="none" stroke="midnightblue" d="M1308.55,-141.03C1333.31,-129.156 1364.97,-113.97 1387.7,-103.073"/>
<polygon fill="midnightblue" stroke="midnightblue" points="1306.94,-137.923 1299.43,-145.403 1309.96,-144.234 1306.94,-137.923"/>
</g>
</g>
</svg>
