<?xml version="1.0" encoding="UTF-8" standalone="no"?>
<!DOCTYPE svg PUBLIC "-//W3C//DTD SVG 1.1//EN"
 "http://www.w3.org/Graphics/SVG/1.1/DTD/svg11.dtd">
<!-- Generated by graphviz version 2.38.0 (20140413.2041)
 -->
<!-- Title: E:/Dev/ObEngine/Git/include/Animation.hpp Pages: 1 -->
<!--zoomable 642 -->
<svg id="main" version="1.1" xmlns="http://www.w3.org/2000/svg" xmlns:xlink="http://www.w3.org/1999/xlink" xml:space="preserve" onload="init(evt)">
<style type="text/css"><![CDATA[
.edge:hover path { stroke: red; }
.edge:hover polygon { stroke: red; fill: red; }
.edge path { stroke: white; }
.edge polygon { stroke: white; fill: white; }
]]></style>
<script type="text/javascript"><![CDATA[
var edges = document.getElementsByTagName('g');
if (edges && edges.length) {
  for (var i=0;i<edges.length;i++) {
    if (edges[i].id.substr(0,4)=='edge') {
      edges[i].setAttribute('class','edge');
    }
  }
}
]]></script>
        <defs>
                <circle id="rim" cx="0" cy="0" r="7"/>
                <circle id="rim2" cx="0" cy="0" r="3.5"/>
                <g id="zoomPlus">
                        <use xlink:href="#rim" fill="#404040">
                                <set attributeName="fill" to="#808080" begin="zoomplus.mouseover" end="zoomplus.mouseout"/>
                        </use>
                        <path d="M-4,0h8M0,-4v8" fill="none" stroke="white" stroke-width="1.5" pointer-events="none"/>
                </g>
                <g id="zoomMin">
                        <use xlink:href="#rim" fill="#404040">
                                <set attributeName="fill" to="#808080" begin="zoomminus.mouseover" end="zoomminus.mouseout"/>
                        </use>
                        <path d="M-4,0h8" fill="none" stroke="white" stroke-width="1.5" pointer-events="none"/>
                </g>
                <g id="dirArrow">
                        <path fill="none" stroke="white" stroke-width="1.5" d="M0,-3.0v7 M-2.5,-0.5L0,-3.0L2.5,-0.5"/>
                </g>
               <g id="resetDef">
                       <use xlink:href="#rim2" fill="#404040">
                               <set attributeName="fill" to="#808080" begin="reset.mouseover" end="reset.mouseout"/>
                       </use>
               </g>
        </defs>

<script type="text/javascript">
var viewWidth = 958;
var viewHeight = 642;
var sectionId = 'dynsection-1';
</script>
<script xlink:href="svgpan.js"/>
<svg id="graph" class="graph">
<g id="viewport">
<title>E:/Dev/ObEngine/Git/include/Animation.hpp</title>
<!-- Node55 -->
<g id="node1" class="node"><title>Node55</title>
<polygon fill="#bfbfbf" stroke="black" points="271.332,-603.5 271.332,-633.5 387.332,-633.5 387.332,-603.5 271.332,-603.5"/>
<text text-anchor="start" x="279.332" y="-621.5" font-family="Helvetica,sans-Serif" font-size="10.00">E:/Dev/ObEngine/Git</text>
<text text-anchor="middle" x="329.332" y="-610.5" font-family="Helvetica,sans-Serif" font-size="10.00">/include/Animation.hpp</text>
</g>
<!-- Node56 -->
<g id="node2" class="node"><title>Node56</title>
<g id="a_node2"><a xlink:href="_level_sprite_8hpp.html" target="_top" xlink:title="E:/Dev/ObEngine/Git\l/include/LevelSprite.hpp">
<polygon fill="none" stroke="black" points="181.832,-536.5 181.832,-566.5 300.832,-566.5 300.832,-536.5 181.832,-536.5"/>
<text text-anchor="start" x="189.832" y="-554.5" font-family="Helvetica,sans-Serif" font-size="10.00">E:/Dev/ObEngine/Git</text>
<text text-anchor="middle" x="241.332" y="-543.5" font-family="Helvetica,sans-Serif" font-size="10.00">/include/LevelSprite.hpp</text>
</a>
</g>
</g>
<!-- Node55&#45;&gt;Node56 -->
<g id="edge1" class="edge"><title>Node55&#45;&gt;Node56</title>
<path fill="none" stroke="midnightblue" d="M302.189,-597.451C288.651,-587.452 272.605,-575.6 260.389,-566.577"/>
<polygon fill="midnightblue" stroke="midnightblue" points="300.114,-600.27 310.237,-603.396 304.273,-594.639 300.114,-600.27"/>
</g>
<!-- Node76 -->
<g id="node22" class="node"><title>Node76</title>
<g id="a_node22"><a xlink:href="_game_object_8hpp.html" target="_top" xlink:title="E:/Dev/ObEngine/Git\l/include/GameObject.hpp">
<polygon fill="none" stroke="black" points="12.8318,-402.5 12.8318,-432.5 139.832,-432.5 139.832,-402.5 12.8318,-402.5"/>
<text text-anchor="start" x="20.8318" y="-420.5" font-family="Helvetica,sans-Serif" font-size="10.00">E:/Dev/ObEngine/Git</text>
<text text-anchor="middle" x="76.3318" y="-409.5" font-family="Helvetica,sans-Serif" font-size="10.00">/include/GameObject.hpp</text>
</a>
</g>
</g>
<!-- Node55&#45;&gt;Node76 -->
<g id="edge44" class="edge"><title>Node55&#45;&gt;Node76</title>
<path fill="none" stroke="midnightblue" d="M260.985,-608.41C199.158,-595.982 112.574,-566.971 77.3318,-500 66.1295,-478.712 69.3643,-449.757 72.8019,-432.706"/>
<polygon fill="midnightblue" stroke="midnightblue" points="260.588,-611.898 271.067,-610.336 261.901,-605.022 260.588,-611.898"/>
</g>
<!-- Node78 -->
<g id="node24" class="node"><title>Node78</title>
<g id="a_node24"><a xlink:href="_cursor_8hpp.html" target="_top" xlink:title="E:/Dev/ObEngine/Git\l/include/Cursor.hpp">
<polygon fill="none" stroke="black" points="601.832,-469.5 601.832,-499.5 708.832,-499.5 708.832,-469.5 601.832,-469.5"/>
<text text-anchor="start" x="609.832" y="-487.5" font-family="Helvetica,sans-Serif" font-size="10.00">E:/Dev/ObEngine/Git</text>
<text text-anchor="middle" x="655.332" y="-476.5" font-family="Helvetica,sans-Serif" font-size="10.00">/include/Cursor.hpp</text>
</a>
</g>
</g>
<!-- Node55&#45;&gt;Node78 -->
<g id="edge36" class="edge"><title>Node55&#45;&gt;Node78</title>
<path fill="none" stroke="midnightblue" d="M328.268,-593.169C328.866,-574.834 332.888,-550.457 348.332,-536 384.118,-502.501 523.477,-491.118 601.557,-487.33"/>
<polygon fill="midnightblue" stroke="midnightblue" points="324.768,-593.401 328.26,-603.404 331.768,-593.407 324.768,-593.401"/>
</g>
<!-- Node82 -->
<g id="node28" class="node"><title>Node82</title>
<g id="a_node28"><a xlink:href="_animation_8cpp.html" target="_top" xlink:title="E:/Dev/ObEngine/Git\l/src/Animation.cpp">
<polygon fill="none" stroke="black" points="357.832,-536.5 357.832,-566.5 464.832,-566.5 464.832,-536.5 357.832,-536.5"/>
<text text-anchor="start" x="365.832" y="-554.5" font-family="Helvetica,sans-Serif" font-size="10.00">E:/Dev/ObEngine/Git</text>
<text text-anchor="middle" x="411.332" y="-543.5" font-family="Helvetica,sans-Serif" font-size="10.00">/src/Animation.cpp</text>
</a>
</g>
</g>
<!-- Node55&#45;&gt;Node82 -->
<g id="edge45" class="edge"><title>Node55&#45;&gt;Node82</title>
<path fill="none" stroke="midnightblue" d="M354.982,-597.168C367.521,-587.228 382.298,-575.514 393.574,-566.577"/>
<polygon fill="midnightblue" stroke="midnightblue" points="352.787,-594.441 347.125,-603.396 357.135,-599.927 352.787,-594.441"/>
</g>
<!-- Node83 -->
<g id="node29" class="node"><title>Node83</title>
<g id="a_node29"><a xlink:href="_dialog_8cpp.html" target="_top" xlink:title="E:/Dev/ObEngine/Git\l/src/Dialog.cpp">
<polygon fill="none" stroke="black" points="482.832,-536.5 482.832,-566.5 589.832,-566.5 589.832,-536.5 482.832,-536.5"/>
<text text-anchor="start" x="490.832" y="-554.5" font-family="Helvetica,sans-Serif" font-size="10.00">E:/Dev/ObEngine/Git</text>
<text text-anchor="middle" x="536.332" y="-543.5" font-family="Helvetica,sans-Serif" font-size="10.00">/src/Dialog.cpp</text>
</a>
</g>
</g>
<!-- Node55&#45;&gt;Node83 -->
<g id="edge46" class="edge"><title>Node55&#45;&gt;Node83</title>
<path fill="none" stroke="midnightblue" d="M383.648,-600.444C417.203,-589.908 459.743,-576.549 491.394,-566.611"/>
<polygon fill="midnightblue" stroke="midnightblue" points="382.485,-597.141 373.993,-603.476 384.582,-603.819 382.485,-597.141"/>
</g>
<!-- Node57 -->
<g id="node3" class="node"><title>Node57</title>
<g id="a_node3"><a xlink:href="_canvas_8hpp.html" target="_top" xlink:title="E:/Dev/ObEngine/Git\l/include/Canvas.hpp">
<polygon fill="none" stroke="black" points="269.832,-469.5 269.832,-499.5 376.832,-499.5 376.832,-469.5 269.832,-469.5"/>
<text text-anchor="start" x="277.832" y="-487.5" font-family="Helvetica,sans-Serif" font-size="10.00">E:/Dev/ObEngine/Git</text>
<text text-anchor="middle" x="323.332" y="-476.5" font-family="Helvetica,sans-Serif" font-size="10.00">/include/Canvas.hpp</text>
</a>
</g>
</g>
<!-- Node56&#45;&gt;Node57 -->
<g id="edge2" class="edge"><title>Node56&#45;&gt;Node57</title>
<path fill="none" stroke="midnightblue" d="M266.982,-530.168C279.521,-520.228 294.298,-508.514 305.574,-499.577"/>
<polygon fill="midnightblue" stroke="midnightblue" points="264.787,-527.441 259.125,-536.396 269.135,-532.927 264.787,-527.441"/>
</g>
<!-- Node58 -->
<g id="node4" class="node"><title>Node58</title>
<g id="a_node4"><a xlink:href="_script_8hpp.html" target="_top" xlink:title="E:/Dev/ObEngine/Git\l/include/Script.hpp">
<polygon fill="none" stroke="black" points="394.832,-402.5 394.832,-432.5 501.832,-432.5 501.832,-402.5 394.832,-402.5"/>
<text text-anchor="start" x="402.832" y="-420.5" font-family="Helvetica,sans-Serif" font-size="10.00">E:/Dev/ObEngine/Git</text>
<text text-anchor="middle" x="448.332" y="-409.5" font-family="Helvetica,sans-Serif" font-size="10.00">/include/Script.hpp</text>
</a>
</g>
</g>
<!-- Node56&#45;&gt;Node58 -->
<g id="edge34" class="edge"><title>Node56&#45;&gt;Node58</title>
<path fill="none" stroke="midnightblue" d="M310.879,-534.92C335.888,-527.129 363.33,-515.874 385.332,-500 410.567,-481.793 430.603,-450.685 440.849,-432.625"/>
<polygon fill="midnightblue" stroke="midnightblue" points="309.652,-531.634 301.067,-537.843 311.65,-538.343 309.652,-531.634"/>
</g>
<!-- Node59 -->
<g id="node5" class="node"><title>Node59</title>
<g id="a_node5"><a xlink:href="_world_8hpp.html" target="_top" xlink:title="E:/Dev/ObEngine/Git\l/include/World.hpp">
<polygon fill="none" stroke="black" points="187.832,-335.5 187.832,-365.5 294.832,-365.5 294.832,-335.5 187.832,-335.5"/>
<text text-anchor="start" x="195.832" y="-353.5" font-family="Helvetica,sans-Serif" font-size="10.00">E:/Dev/ObEngine/Git</text>
<text text-anchor="middle" x="241.332" y="-342.5" font-family="Helvetica,sans-Serif" font-size="10.00">/include/World.hpp</text>
</a>
</g>
</g>
<!-- Node56&#45;&gt;Node59 -->
<g id="edge33" class="edge"><title>Node56&#45;&gt;Node59</title>
<path fill="none" stroke="midnightblue" d="M241.332,-525.998C241.332,-483.93 241.332,-399.256 241.332,-365.682"/>
<polygon fill="midnightblue" stroke="midnightblue" points="237.832,-526.188 241.332,-536.188 244.832,-526.188 237.832,-526.188"/>
</g>
<!-- Node56&#45;&gt;Node76 -->
<g id="edge29" class="edge"><title>Node56&#45;&gt;Node76</title>
<path fill="none" stroke="midnightblue" d="M171.892,-540.862C144.889,-533.76 115.822,-521.425 96.3318,-500 79.3712,-481.356 76.2003,-450.691 75.9271,-432.767"/>
<polygon fill="midnightblue" stroke="midnightblue" points="171.182,-544.292 181.726,-543.249 172.834,-537.489 171.182,-544.292"/>
</g>
<!-- Node77 -->
<g id="node23" class="node"><title>Node77</title>
<g id="a_node23"><a xlink:href="_level_sprite_8cpp.html" target="_top" xlink:title="E:/Dev/ObEngine/Git\l/src/LevelSprite.cpp">
<polygon fill="none" stroke="black" points="105.832,-469.5 105.832,-499.5 212.832,-499.5 212.832,-469.5 105.832,-469.5"/>
<text text-anchor="start" x="113.832" y="-487.5" font-family="Helvetica,sans-Serif" font-size="10.00">E:/Dev/ObEngine/Git</text>
<text text-anchor="middle" x="159.332" y="-476.5" font-family="Helvetica,sans-Serif" font-size="10.00">/src/LevelSprite.cpp</text>
</a>
</g>
</g>
<!-- Node56&#45;&gt;Node77 -->
<g id="edge35" class="edge"><title>Node56&#45;&gt;Node77</title>
<path fill="none" stroke="midnightblue" d="M215.682,-530.168C203.143,-520.228 188.365,-508.514 177.09,-499.577"/>
<polygon fill="midnightblue" stroke="midnightblue" points="213.528,-532.927 223.539,-536.396 217.877,-527.441 213.528,-532.927"/>
</g>
<!-- Node57&#45;&gt;Node58 -->
<g id="edge3" class="edge"><title>Node57&#45;&gt;Node58</title>
<path fill="none" stroke="midnightblue" d="M359.458,-464.714C379.172,-454.463 403.173,-441.983 421.262,-432.577"/>
<polygon fill="midnightblue" stroke="midnightblue" points="357.712,-461.677 350.455,-469.396 360.942,-467.888 357.712,-461.677"/>
</g>
<!-- Node75 -->
<g id="node21" class="node"><title>Node75</title>
<g id="a_node21"><a xlink:href="_canvas_8cpp.html" target="_top" xlink:title="E:/Dev/ObEngine/Git\l/src/Canvas.cpp">
<polygon fill="none" stroke="black" points="269.832,-402.5 269.832,-432.5 376.832,-432.5 376.832,-402.5 269.832,-402.5"/>
<text text-anchor="start" x="277.832" y="-420.5" font-family="Helvetica,sans-Serif" font-size="10.00">E:/Dev/ObEngine/Git</text>
<text text-anchor="middle" x="323.332" y="-409.5" font-family="Helvetica,sans-Serif" font-size="10.00">/src/Canvas.cpp</text>
</a>
</g>
</g>
<!-- Node57&#45;&gt;Node75 -->
<g id="edge28" class="edge"><title>Node57&#45;&gt;Node75</title>
<path fill="none" stroke="midnightblue" d="M323.332,-459.108C323.332,-450.154 323.332,-440.323 323.332,-432.577"/>
<polygon fill="midnightblue" stroke="midnightblue" points="319.832,-459.396 323.332,-469.396 326.832,-459.396 319.832,-459.396"/>
</g>
<!-- Node58&#45;&gt;Node59 -->
<g id="edge4" class="edge"><title>Node58&#45;&gt;Node59</title>
<path fill="none" stroke="midnightblue" d="M394.016,-399.444C360.461,-388.908 317.92,-375.549 286.27,-365.611"/>
<polygon fill="midnightblue" stroke="midnightblue" points="393.082,-402.819 403.671,-402.476 395.179,-396.141 393.082,-402.819"/>
</g>
<!-- Node66 -->
<g id="node12" class="node"><title>Node66</title>
<g id="a_node12"><a xlink:href="_map_editor_8hpp.html" target="_top" xlink:title="E:/Dev/ObEngine/Git\l/include/MapEditor.hpp">
<polygon fill="none" stroke="black" points="518.332,-201.5 518.332,-231.5 634.332,-231.5 634.332,-201.5 518.332,-201.5"/>
<text text-anchor="start" x="526.332" y="-219.5" font-family="Helvetica,sans-Serif" font-size="10.00">E:/Dev/ObEngine/Git</text>
<text text-anchor="middle" x="576.332" y="-208.5" font-family="Helvetica,sans-Serif" font-size="10.00">/include/MapEditor.hpp</text>
</a>
</g>
</g>
<!-- Node58&#45;&gt;Node66 -->
<g id="edge21" class="edge"><title>Node58&#45;&gt;Node66</title>
<path fill="none" stroke="midnightblue" d="M448.69,-392.227C450.116,-374.675 454.558,-351.281 467.332,-335 489.171,-307.165 513.73,-324.427 538.332,-299 557.112,-279.59 567.864,-249.194 572.861,-231.525"/>
<polygon fill="midnightblue" stroke="midnightblue" points="445.191,-392.109 448.144,-402.284 452.181,-392.489 445.191,-392.109"/>
</g>
<!-- Node68 -->
<g id="node14" class="node"><title>Node68</title>
<g id="a_node14"><a xlink:href="_map_editor_tools_8hpp.html" target="_top" xlink:title="E:/Dev/ObEngine/Git\l/include/MapEditorTools.hpp">
<polygon fill="none" stroke="black" points="389.332,-268.5 389.332,-298.5 529.332,-298.5 529.332,-268.5 389.332,-268.5"/>
<text text-anchor="start" x="397.332" y="-286.5" font-family="Helvetica,sans-Serif" font-size="10.00">E:/Dev/ObEngine/Git</text>
<text text-anchor="middle" x="459.332" y="-275.5" font-family="Helvetica,sans-Serif" font-size="10.00">/include/MapEditorTools.hpp</text>
</a>
</g>
</g>
<!-- Node58&#45;&gt;Node68 -->
<g id="edge22" class="edge"><title>Node58&#45;&gt;Node68</title>
<path fill="none" stroke="midnightblue" d="M439.163,-392.453C434.175,-376.143 429.851,-354.15 434.332,-335 437.363,-322.045 444.229,-308.602 450,-298.846"/>
<polygon fill="midnightblue" stroke="midnightblue" points="435.955,-393.893 442.452,-402.262 442.592,-391.669 435.955,-393.893"/>
</g>
<!-- Node72 -->
<g id="node18" class="node"><title>Node72</title>
<g id="a_node18"><a xlink:href="_toolkit_8hpp.html" target="_top" xlink:title="E:/Dev/ObEngine/Git\l/include/Toolkit.hpp">
<polygon fill="none" stroke="black" points="252.832,-201.5 252.832,-231.5 359.832,-231.5 359.832,-201.5 252.832,-201.5"/>
<text text-anchor="start" x="260.832" y="-219.5" font-family="Helvetica,sans-Serif" font-size="10.00">E:/Dev/ObEngine/Git</text>
<text text-anchor="middle" x="306.332" y="-208.5" font-family="Helvetica,sans-Serif" font-size="10.00">/include/Toolkit.hpp</text>
</a>
</g>
</g>
<!-- Node58&#45;&gt;Node72 -->
<g id="edge23" class="edge"><title>Node58&#45;&gt;Node72</title>
<path fill="none" stroke="midnightblue" d="M432.169,-393.849C402.638,-352.464 340.766,-265.756 316.452,-231.682"/>
<polygon fill="midnightblue" stroke="midnightblue" points="429.462,-396.081 438.12,-402.188 435.16,-392.015 429.462,-396.081"/>
</g>
<!-- Node74 -->
<g id="node20" class="node"><title>Node74</title>
<g id="a_node20"><a xlink:href="_script_8cpp.html" target="_top" xlink:title="E:/Dev/ObEngine/Git\l/src/Script.cpp">
<polygon fill="none" stroke="black" points="476.832,-335.5 476.832,-365.5 583.832,-365.5 583.832,-335.5 476.832,-335.5"/>
<text text-anchor="start" x="484.832" y="-353.5" font-family="Helvetica,sans-Serif" font-size="10.00">E:/Dev/ObEngine/Git</text>
<text text-anchor="middle" x="530.332" y="-342.5" font-family="Helvetica,sans-Serif" font-size="10.00">/src/Script.cpp</text>
</a>
</g>
</g>
<!-- Node58&#45;&gt;Node74 -->
<g id="edge27" class="edge"><title>Node58&#45;&gt;Node74</title>
<path fill="none" stroke="midnightblue" d="M473.982,-396.168C486.521,-386.228 501.298,-374.514 512.574,-365.577"/>
<polygon fill="midnightblue" stroke="midnightblue" points="471.787,-393.441 466.125,-402.396 476.135,-398.927 471.787,-393.441"/>
</g>
<!-- Node60 -->
<g id="node6" class="node"><title>Node60</title>
<g id="a_node6"><a xlink:href="_game_8hpp.html" target="_top" xlink:title="E:/Dev/ObEngine/Git\l/include/Game.hpp">
<polygon fill="none" stroke="black" points="106.832,-201.5 106.832,-231.5 213.832,-231.5 213.832,-201.5 106.832,-201.5"/>
<text text-anchor="start" x="114.832" y="-219.5" font-family="Helvetica,sans-Serif" font-size="10.00">E:/Dev/ObEngine/Git</text>
<text text-anchor="middle" x="160.332" y="-208.5" font-family="Helvetica,sans-Serif" font-size="10.00">/include/Game.hpp</text>
</a>
</g>
</g>
<!-- Node59&#45;&gt;Node60 -->
<g id="edge5" class="edge"><title>Node59&#45;&gt;Node60</title>
<path fill="none" stroke="midnightblue" d="M208.301,-329.652C197.236,-321.462 185.822,-311.048 178.332,-299 165.249,-277.957 161.613,-248.662 160.64,-231.529"/>
<polygon fill="midnightblue" stroke="midnightblue" points="206.422,-332.609 216.623,-335.471 210.433,-326.872 206.422,-332.609"/>
</g>
<!-- Node59&#45;&gt;Node66 -->
<g id="edge12" class="edge"><title>Node59&#45;&gt;Node66</title>
<path fill="none" stroke="midnightblue" d="M269.752,-329.641C297.019,-311.377 339.905,-284.676 380.332,-268 405.101,-257.783 469.913,-241.818 518.271,-230.579"/>
<polygon fill="midnightblue" stroke="midnightblue" points="267.444,-326.977 261.13,-335.484 271.371,-332.771 267.444,-326.977"/>
</g>
<!-- Node59&#45;&gt;Node68 -->
<g id="edge16" class="edge"><title>Node59&#45;&gt;Node68</title>
<path fill="none" stroke="midnightblue" d="M298.08,-332.58C333.487,-322.022 378.53,-308.592 412.006,-298.611"/>
<polygon fill="midnightblue" stroke="midnightblue" points="296.949,-329.264 288.366,-335.476 298.949,-335.973 296.949,-329.264"/>
</g>
<!-- Node70 -->
<g id="node16" class="node"><title>Node70</title>
<g id="a_node16"><a xlink:href="_game_object_8cpp.html" target="_top" xlink:title="E:/Dev/ObEngine/Git\l/src/GameObject.cpp">
<polygon fill="none" stroke="black" points="21.3318,-268.5 21.3318,-298.5 131.332,-298.5 131.332,-268.5 21.3318,-268.5"/>
<text text-anchor="start" x="29.3318" y="-286.5" font-family="Helvetica,sans-Serif" font-size="10.00">E:/Dev/ObEngine/Git</text>
<text text-anchor="middle" x="76.3318" y="-275.5" font-family="Helvetica,sans-Serif" font-size="10.00">/src/GameObject.cpp</text>
</a>
</g>
</g>
<!-- Node59&#45;&gt;Node70 -->
<g id="edge19" class="edge"><title>Node59&#45;&gt;Node70</title>
<path fill="none" stroke="midnightblue" d="M196.1,-331.682C169.638,-321.257 136.698,-308.281 112.065,-298.577"/>
<polygon fill="midnightblue" stroke="midnightblue" points="194.942,-334.987 205.529,-335.396 197.508,-328.474 194.942,-334.987"/>
</g>
<!-- Node71 -->
<g id="node17" class="node"><title>Node71</title>
<g id="a_node17"><a xlink:href="_world_8cpp.html" target="_top" xlink:title="E:/Dev/ObEngine/Git\l/src/World.cpp">
<polygon fill="none" stroke="black" points="187.832,-268.5 187.832,-298.5 294.832,-298.5 294.832,-268.5 187.832,-268.5"/>
<text text-anchor="start" x="195.832" y="-286.5" font-family="Helvetica,sans-Serif" font-size="10.00">E:/Dev/ObEngine/Git</text>
<text text-anchor="middle" x="241.332" y="-275.5" font-family="Helvetica,sans-Serif" font-size="10.00">/src/World.cpp</text>
</a>
</g>
</g>
<!-- Node59&#45;&gt;Node71 -->
<g id="edge20" class="edge"><title>Node59&#45;&gt;Node71</title>
<path fill="none" stroke="midnightblue" d="M241.332,-325.108C241.332,-316.154 241.332,-306.323 241.332,-298.577"/>
<polygon fill="midnightblue" stroke="midnightblue" points="237.832,-325.396 241.332,-335.396 244.832,-325.396 237.832,-325.396"/>
</g>
<!-- Node61 -->
<g id="node7" class="node"><title>Node61</title>
<g id="a_node7"><a xlink:href="_menu_8hpp.html" target="_top" xlink:title="E:/Dev/ObEngine/Git\l/include/Menu.hpp">
<polygon fill="none" stroke="black" points="435.832,-134.5 435.832,-164.5 542.832,-164.5 542.832,-134.5 435.832,-134.5"/>
<text text-anchor="start" x="443.832" y="-152.5" font-family="Helvetica,sans-Serif" font-size="10.00">E:/Dev/ObEngine/Git</text>
<text text-anchor="middle" x="489.332" y="-141.5" font-family="Helvetica,sans-Serif" font-size="10.00">/include/Menu.hpp</text>
</a>
</g>
</g>
<!-- Node60&#45;&gt;Node61 -->
<g id="edge6" class="edge"><title>Node60&#45;&gt;Node61</title>
<path fill="none" stroke="midnightblue" d="M223.911,-202.939C285.49,-190.773 377.819,-172.531 435.763,-161.084"/>
<polygon fill="midnightblue" stroke="midnightblue" points="223.056,-199.54 213.924,-204.912 224.412,-206.407 223.056,-199.54"/>
</g>
<!-- Node62 -->
<g id="node8" class="node"><title>Node62</title>
<g id="a_node8"><a xlink:href="_ob_engine_8hpp.html" target="_top" xlink:title="E:/Dev/ObEngine/Git\l/include/ObEngine.hpp">
<polygon fill="none" stroke="black" points="243.832,-67.5 243.832,-97.5 358.832,-97.5 358.832,-67.5 243.832,-67.5"/>
<text text-anchor="start" x="251.832" y="-85.5" font-family="Helvetica,sans-Serif" font-size="10.00">E:/Dev/ObEngine/Git</text>
<text text-anchor="middle" x="301.332" y="-74.5" font-family="Helvetica,sans-Serif" font-size="10.00">/include/ObEngine.hpp</text>
</a>
</g>
</g>
<!-- Node60&#45;&gt;Node62 -->
<g id="edge10" class="edge"><title>Node60&#45;&gt;Node62</title>
<path fill="none" stroke="midnightblue" d="M183.036,-194.245C212.091,-167.044 261.617,-120.68 286.351,-97.5247"/>
<polygon fill="midnightblue" stroke="midnightblue" points="180.33,-191.984 175.421,-201.374 185.114,-197.094 180.33,-191.984"/>
</g>
<!-- Node65 -->
<g id="node11" class="node"><title>Node65</title>
<g id="a_node11"><a xlink:href="_game_8cpp.html" target="_top" xlink:title="E:/Dev/ObEngine/Git\l/src/Game.cpp">
<polygon fill="none" stroke="black" points="69.8318,-134.5 69.8318,-164.5 176.832,-164.5 176.832,-134.5 69.8318,-134.5"/>
<text text-anchor="start" x="77.8318" y="-152.5" font-family="Helvetica,sans-Serif" font-size="10.00">E:/Dev/ObEngine/Git</text>
<text text-anchor="middle" x="123.332" y="-141.5" font-family="Helvetica,sans-Serif" font-size="10.00">/src/Game.cpp</text>
</a>
</g>
</g>
<!-- Node60&#45;&gt;Node65 -->
<g id="edge11" class="edge"><title>Node60&#45;&gt;Node65</title>
<path fill="none" stroke="midnightblue" d="M147.283,-192.576C141.969,-183.241 135.996,-172.748 131.345,-164.577"/>
<polygon fill="midnightblue" stroke="midnightblue" points="144.315,-194.437 152.303,-201.396 150.398,-190.974 144.315,-194.437"/>
</g>
<!-- Node61&#45;&gt;Node62 -->
<g id="edge7" class="edge"><title>Node61&#45;&gt;Node62</title>
<path fill="none" stroke="midnightblue" d="M438.982,-131.092C408.633,-120.599 370.482,-107.408 342.045,-97.5765"/>
<polygon fill="midnightblue" stroke="midnightblue" points="437.944,-134.436 448.539,-134.396 440.231,-127.82 437.944,-134.436"/>
</g>
<!-- Node64 -->
<g id="node10" class="node"><title>Node64</title>
<g id="a_node10"><a xlink:href="_menu_8cpp.html" target="_top" xlink:title="E:/Dev/ObEngine/Git\l/src/Menu.cpp">
<polygon fill="none" stroke="black" points="435.832,-67.5 435.832,-97.5 542.832,-97.5 542.832,-67.5 435.832,-67.5"/>
<text text-anchor="start" x="443.832" y="-85.5" font-family="Helvetica,sans-Serif" font-size="10.00">E:/Dev/ObEngine/Git</text>
<text text-anchor="middle" x="489.332" y="-74.5" font-family="Helvetica,sans-Serif" font-size="10.00">/src/Menu.cpp</text>
</a>
</g>
</g>
<!-- Node61&#45;&gt;Node64 -->
<g id="edge9" class="edge"><title>Node61&#45;&gt;Node64</title>
<path fill="none" stroke="midnightblue" d="M489.332,-124.108C489.332,-115.154 489.332,-105.323 489.332,-97.5765"/>
<polygon fill="midnightblue" stroke="midnightblue" points="485.832,-124.396 489.332,-134.396 492.832,-124.396 485.832,-124.396"/>
</g>
<!-- Node63 -->
<g id="node9" class="node"><title>Node63</title>
<g id="a_node9"><a xlink:href="_ob_engine_8cpp.html" target="_top" xlink:title="E:/Dev/ObEngine/Git\l/src/ObEngine.cpp">
<polygon fill="none" stroke="black" points="247.832,-0.5 247.832,-30.5 354.832,-30.5 354.832,-0.5 247.832,-0.5"/>
<text text-anchor="start" x="255.832" y="-18.5" font-family="Helvetica,sans-Serif" font-size="10.00">E:/Dev/ObEngine/Git</text>
<text text-anchor="middle" x="301.332" y="-7.5" font-family="Helvetica,sans-Serif" font-size="10.00">/src/ObEngine.cpp</text>
</a>
</g>
</g>
<!-- Node62&#45;&gt;Node63 -->
<g id="edge8" class="edge"><title>Node62&#45;&gt;Node63</title>
<path fill="none" stroke="midnightblue" d="M301.332,-57.1081C301.332,-48.1539 301.332,-38.3227 301.332,-30.5765"/>
<polygon fill="midnightblue" stroke="midnightblue" points="297.832,-57.3959 301.332,-67.396 304.832,-57.396 297.832,-57.3959"/>
</g>
<!-- Node66&#45;&gt;Node61 -->
<g id="edge13" class="edge"><title>Node66&#45;&gt;Node61</title>
<path fill="none" stroke="midnightblue" d="M549.118,-195.168C535.814,-185.228 520.136,-173.514 508.173,-164.577"/>
<polygon fill="midnightblue" stroke="midnightblue" points="547.348,-198.215 557.454,-201.396 551.538,-192.607 547.348,-198.215"/>
</g>
<!-- Node66&#45;&gt;Node62 -->
<g id="edge14" class="edge"><title>Node66&#45;&gt;Node62</title>
<path fill="none" stroke="midnightblue" d="M509.861,-198.545C483.038,-190.335 452.344,-179.149 426.332,-165 406.881,-154.42 405.59,-146.526 387.332,-134 367.914,-120.679 344.856,-107.259 327.506,-97.605"/>
<polygon fill="midnightblue" stroke="midnightblue" points="508.969,-201.931 519.552,-201.435 510.97,-195.223 508.969,-201.931"/>
</g>
<!-- Node67 -->
<g id="node13" class="node"><title>Node67</title>
<g id="a_node13"><a xlink:href="_map_editor_8cpp.html" target="_top" xlink:title="E:/Dev/ObEngine/Git\l/src/MapEditor.cpp">
<polygon fill="none" stroke="black" points="560.832,-134.5 560.832,-164.5 667.832,-164.5 667.832,-134.5 560.832,-134.5"/>
<text text-anchor="start" x="568.832" y="-152.5" font-family="Helvetica,sans-Serif" font-size="10.00">E:/Dev/ObEngine/Git</text>
<text text-anchor="middle" x="614.332" y="-141.5" font-family="Helvetica,sans-Serif" font-size="10.00">/src/MapEditor.cpp</text>
</a>
</g>
</g>
<!-- Node66&#45;&gt;Node67 -->
<g id="edge15" class="edge"><title>Node66&#45;&gt;Node67</title>
<path fill="none" stroke="midnightblue" d="M589.734,-192.576C595.191,-183.241 601.325,-172.748 606.103,-164.577"/>
<polygon fill="midnightblue" stroke="midnightblue" points="586.603,-190.997 584.577,-201.396 592.646,-194.529 586.603,-190.997"/>
</g>
<!-- Node68&#45;&gt;Node66 -->
<g id="edge17" class="edge"><title>Node68&#45;&gt;Node66</title>
<path fill="none" stroke="midnightblue" d="M493.648,-263.435C512.004,-253.237 534.216,-240.897 550.994,-231.577"/>
<polygon fill="midnightblue" stroke="midnightblue" points="491.761,-260.48 484.719,-268.396 495.16,-266.599 491.761,-260.48"/>
</g>
<!-- Node69 -->
<g id="node15" class="node"><title>Node69</title>
<g id="a_node15"><a xlink:href="_map_editor_tools_8cpp.html" target="_top" xlink:title="E:/Dev/ObEngine/Git\l/src/MapEditorTools.cpp">
<polygon fill="none" stroke="black" points="378.332,-201.5 378.332,-231.5 500.332,-231.5 500.332,-201.5 378.332,-201.5"/>
<text text-anchor="start" x="386.332" y="-219.5" font-family="Helvetica,sans-Serif" font-size="10.00">E:/Dev/ObEngine/Git</text>
<text text-anchor="middle" x="439.332" y="-208.5" font-family="Helvetica,sans-Serif" font-size="10.00">/src/MapEditorTools.cpp</text>
</a>
</g>
</g>
<!-- Node68&#45;&gt;Node69 -->
<g id="edge18" class="edge"><title>Node68&#45;&gt;Node69</title>
<path fill="none" stroke="midnightblue" d="M452.008,-258.697C449.205,-249.587 446.099,-239.493 443.663,-231.577"/>
<polygon fill="midnightblue" stroke="midnightblue" points="448.706,-259.867 454.992,-268.396 455.396,-257.809 448.706,-259.867"/>
</g>
<!-- Node72&#45;&gt;Node61 -->
<g id="edge24" class="edge"><title>Node72&#45;&gt;Node61</title>
<path fill="none" stroke="midnightblue" d="M355.727,-197.955C385.206,-187.485 422.141,-174.366 449.701,-164.577"/>
<polygon fill="midnightblue" stroke="midnightblue" points="354.292,-194.751 346.04,-201.396 356.635,-201.347 354.292,-194.751"/>
</g>
<!-- Node72&#45;&gt;Node62 -->
<g id="edge25" class="edge"><title>Node72&#45;&gt;Node62</title>
<path fill="none" stroke="midnightblue" d="M281.427,-193.86C273.791,-185.678 266.35,-175.728 262.332,-165 257.499,-152.097 257.883,-147.04 262.332,-134 267.054,-120.161 277.275,-107.167 286.069,-97.8261"/>
<polygon fill="midnightblue" stroke="midnightblue" points="279.154,-196.536 288.701,-201.13 284.102,-191.585 279.154,-196.536"/>
</g>
<!-- Node73 -->
<g id="node19" class="node"><title>Node73</title>
<g id="a_node19"><a xlink:href="_toolkit_8cpp.html" target="_top" xlink:title="E:/Dev/ObEngine/Git\l/src/Toolkit.cpp">
<polygon fill="none" stroke="black" points="271.832,-134.5 271.832,-164.5 378.832,-164.5 378.832,-134.5 271.832,-134.5"/>
<text text-anchor="start" x="279.832" y="-152.5" font-family="Helvetica,sans-Serif" font-size="10.00">E:/Dev/ObEngine/Git</text>
<text text-anchor="middle" x="325.332" y="-141.5" font-family="Helvetica,sans-Serif" font-size="10.00">/src/Toolkit.cpp</text>
</a>
</g>
</g>
<!-- Node72&#45;&gt;Node73 -->
<g id="edge26" class="edge"><title>Node72&#45;&gt;Node73</title>
<path fill="none" stroke="midnightblue" d="M313.29,-191.697C315.953,-182.587 318.903,-172.493 321.217,-164.577"/>
<polygon fill="midnightblue" stroke="midnightblue" points="309.901,-190.816 310.455,-201.396 316.62,-192.78 309.901,-190.816"/>
</g>
<!-- Node76&#45;&gt;Node59 -->
<g id="edge30" class="edge"><title>Node76&#45;&gt;Node59</title>
<path fill="none" stroke="midnightblue" d="M121.563,-398.682C148.026,-388.257 180.966,-375.281 205.599,-365.577"/>
<polygon fill="midnightblue" stroke="midnightblue" points="120.156,-395.474 112.134,-402.396 122.721,-401.987 120.156,-395.474"/>
</g>
<!-- Node76&#45;&gt;Node66 -->
<g id="edge31" class="edge"><title>Node76&#45;&gt;Node66</title>
<path fill="none" stroke="midnightblue" d="M54.0036,-395.149C23.8871,-363.831 -22.2166,-305.141 12.3318,-268 50.0414,-227.46 454.528,-239.875 509.332,-232 512.277,-231.577 515.286,-231.098 518.318,-230.578"/>
<polygon fill="midnightblue" stroke="midnightblue" points="51.7393,-397.837 61.257,-402.491 56.7191,-392.917 51.7393,-397.837"/>
</g>
<!-- Node76&#45;&gt;Node70 -->
<g id="edge32" class="edge"><title>Node76&#45;&gt;Node70</title>
<path fill="none" stroke="midnightblue" d="M76.3318,-392.024C76.3318,-364.512 76.3318,-320.789 76.3318,-298.525"/>
<polygon fill="midnightblue" stroke="midnightblue" points="72.8319,-392.374 76.3318,-402.374 79.8319,-392.374 72.8319,-392.374"/>
</g>
<!-- Node78&#45;&gt;Node58 -->
<g id="edge40" class="edge"><title>Node78&#45;&gt;Node58</title>
<path fill="none" stroke="midnightblue" d="M601.016,-466.444C567.461,-455.908 524.92,-442.549 493.27,-432.611"/>
<polygon fill="midnightblue" stroke="midnightblue" points="600.082,-469.819 610.671,-469.476 602.179,-463.141 600.082,-469.819"/>
</g>
<!-- Node78&#45;&gt;Node61 -->
<g id="edge42" class="edge"><title>Node78&#45;&gt;Node61</title>
<path fill="none" stroke="midnightblue" d="M710.836,-465.626C729.598,-457.71 749.725,-446.965 765.332,-433 796.828,-404.817 814.332,-393.765 814.332,-351.5 814.332,-351.5 814.332,-351.5 814.332,-282.5 814.332,-252.887 626.728,-192.076 536.59,-164.567"/>
<polygon fill="midnightblue" stroke="midnightblue" points="709.44,-462.415 701.472,-469.398 712.056,-468.909 709.44,-462.415"/>
</g>
<!-- Node78&#45;&gt;Node66 -->
<g id="edge41" class="edge"><title>Node78&#45;&gt;Node66</title>
<path fill="none" stroke="midnightblue" d="M643.032,-460.061C638.944,-451.674 634.604,-442.055 631.332,-433 604.627,-359.101 585.624,-266.515 578.953,-231.649"/>
<polygon fill="midnightblue" stroke="midnightblue" points="640.022,-461.867 647.637,-469.233 646.278,-458.726 640.022,-461.867"/>
</g>
<!-- Node79 -->
<g id="node25" class="node"><title>Node79</title>
<g id="a_node25"><a xlink:href="_editor_grid_8hpp.html" target="_top" xlink:title="E:/Dev/ObEngine/Git\l/include/EditorGrid.hpp">
<polygon fill="none" stroke="black" points="640.332,-402.5 640.332,-432.5 756.332,-432.5 756.332,-402.5 640.332,-402.5"/>
<text text-anchor="start" x="648.332" y="-420.5" font-family="Helvetica,sans-Serif" font-size="10.00">E:/Dev/ObEngine/Git</text>
<text text-anchor="middle" x="698.332" y="-409.5" font-family="Helvetica,sans-Serif" font-size="10.00">/include/EditorGrid.hpp</text>
</a>
</g>
</g>
<!-- Node78&#45;&gt;Node79 -->
<g id="edge37" class="edge"><title>Node78&#45;&gt;Node79</title>
<path fill="none" stroke="midnightblue" d="M670.305,-460.867C676.528,-451.459 683.557,-440.833 689.02,-432.577"/>
<polygon fill="midnightblue" stroke="midnightblue" points="667.261,-459.125 664.662,-469.396 673.099,-462.987 667.261,-459.125"/>
</g>
<!-- Node81 -->
<g id="node27" class="node"><title>Node81</title>
<g id="a_node27"><a xlink:href="_cursor_8cpp.html" target="_top" xlink:title="E:/Dev/ObEngine/Git\l/src/Cursor.cpp">
<polygon fill="none" stroke="black" points="842.832,-402.5 842.832,-432.5 949.832,-432.5 949.832,-402.5 842.832,-402.5"/>
<text text-anchor="start" x="850.832" y="-420.5" font-family="Helvetica,sans-Serif" font-size="10.00">E:/Dev/ObEngine/Git</text>
<text text-anchor="middle" x="896.332" y="-409.5" font-family="Helvetica,sans-Serif" font-size="10.00">/src/Cursor.cpp</text>
</a>
</g>
</g>
<!-- Node78&#45;&gt;Node81 -->
<g id="edge43" class="edge"><title>Node78&#45;&gt;Node81</title>
<path fill="none" stroke="midnightblue" d="M717.066,-466.85C756.358,-456.252 806.689,-442.677 844.013,-432.611"/>
<polygon fill="midnightblue" stroke="midnightblue" points="716.072,-463.493 707.329,-469.476 717.895,-470.251 716.072,-463.493"/>
</g>
<!-- Node79&#45;&gt;Node66 -->
<g id="edge38" class="edge"><title>Node79&#45;&gt;Node66</title>
<path fill="none" stroke="midnightblue" d="M684.422,-393.492C679.454,-384.966 673.948,-375.147 669.332,-366 647.902,-323.537 653.069,-307.338 626.332,-268 617.039,-254.327 603.775,-241.131 593.243,-231.66"/>
<polygon fill="midnightblue" stroke="midnightblue" points="681.433,-395.314 689.534,-402.142 687.46,-391.752 681.433,-395.314"/>
</g>
<!-- Node80 -->
<g id="node26" class="node"><title>Node80</title>
<g id="a_node26"><a xlink:href="_editor_grid_8cpp.html" target="_top" xlink:title="E:/Dev/ObEngine/Git\l/src/EditorGrid.cpp">
<polygon fill="none" stroke="black" points="678.832,-335.5 678.832,-365.5 785.832,-365.5 785.832,-335.5 678.832,-335.5"/>
<text text-anchor="start" x="686.832" y="-353.5" font-family="Helvetica,sans-Serif" font-size="10.00">E:/Dev/ObEngine/Git</text>
<text text-anchor="middle" x="732.332" y="-342.5" font-family="Helvetica,sans-Serif" font-size="10.00">/src/EditorGrid.cpp</text>
</a>
</g>
</g>
<!-- Node79&#45;&gt;Node80 -->
<g id="edge39" class="edge"><title>Node79&#45;&gt;Node80</title>
<path fill="none" stroke="midnightblue" d="M710.476,-393.283C715.32,-384.022 720.739,-373.663 724.969,-365.577"/>
<polygon fill="midnightblue" stroke="midnightblue" points="707.243,-391.913 705.709,-402.396 713.446,-395.157 707.243,-391.913"/>
</g>
</g>
</svg>
        <g id="navigator" transform="translate(0 0)" fill="#404254">
                <rect fill="#f2f5e9" fill-opacity="0.5" stroke="#606060" stroke-width=".5" x="0" y="0" width="60" height="60"/>
                <use id="zoomplus" xlink:href="#zoomPlus" x="17" y="9" onmousedown="handleZoom(evt,'in')"/>
                <use id="zoomminus" xlink:href="#zoomMin" x="42" y="9" onmousedown="handleZoom(evt,'out')"/>
                <use id="reset" xlink:href="#resetDef" x="30" y="36" onmousedown="handleReset()"/>
                <g id="arrowUp" xlink:href="#dirArrow" transform="translate(30 24)" onmousedown="handlePan(0,-1)">
                  <use xlink:href="#rim" fill="#404040">
                        <set attributeName="fill" to="#808080" begin="arrowUp.mouseover" end="arrowUp.mouseout"/>
                  </use>
                  <path fill="none" stroke="white" stroke-width="1.5" d="M0,-3.0v7 M-2.5,-0.5L0,-3.0L2.5,-0.5"/>
                </g>
                <g id="arrowRight" xlink:href="#dirArrow" transform="rotate(90) translate(36 -43)" onmousedown="handlePan(1,0)">
                  <use xlink:href="#rim" fill="#404040">
                        <set attributeName="fill" to="#808080" begin="arrowRight.mouseover" end="arrowRight.mouseout"/>
                  </use>
                  <path fill="none" stroke="white" stroke-width="1.5" d="M0,-3.0v7 M-2.5,-0.5L0,-3.0L2.5,-0.5"/>
                </g>
                <g id="arrowDown" xlink:href="#dirArrow" transform="rotate(180) translate(-30 -48)" onmousedown="handlePan(0,1)">
                  <use xlink:href="#rim" fill="#404040">
                        <set attributeName="fill" to="#808080" begin="arrowDown.mouseover" end="arrowDown.mouseout"/>
                  </use>
                  <path fill="none" stroke="white" stroke-width="1.5" d="M0,-3.0v7 M-2.5,-0.5L0,-3.0L2.5,-0.5"/>
                </g>
                <g id="arrowLeft" xlink:href="#dirArrow" transform="rotate(270) translate(-36 17)" onmousedown="handlePan(-1,0)">
                  <use xlink:href="#rim" fill="#404040">
                        <set attributeName="fill" to="#808080" begin="arrowLeft.mouseover" end="arrowLeft.mouseout"/>
                  </use>
                  <path fill="none" stroke="white" stroke-width="1.5" d="M0,-3.0v7 M-2.5,-0.5L0,-3.0L2.5,-0.5"/>
                </g>
        </g>
        <svg viewBox="0 0 15 15" width="100%" height="30px" preserveAspectRatio="xMaxYMin meet">
         <g id="arrow_out" transform="scale(0.3 0.3)">
          <a xlink:href="_animation_8hpp__dep__incl_org.svg" target="_base">
           <rect id="button" ry="5" rx="5" y="6" x="6" height="38" width="38"
                fill="#f2f5e9" fill-opacity="0.5" stroke="#606060" stroke-width="1.0"/>
           <path id="arrow"
             d="M 11.500037,31.436501 C 11.940474,20.09759 22.043105,11.32322 32.158766,21.979434 L 37.068811,17.246167 C 37.068811,17.246167 37.088388,32 37.088388,32 L 22.160133,31.978069 C 22.160133,31.978069 26.997745,27.140456 26.997745,27.140456 C 18.528582,18.264221 13.291696,25.230495 11.500037,31.436501 z"
             style="fill:#404040;"/>
          </a>
         </g>
        </svg>
</svg>
