<?xml version="1.0" encoding="UTF-8" standalone="no"?>
<!DOCTYPE svg PUBLIC "-//W3C//DTD SVG 1.1//EN"
 "http://www.w3.org/Graphics/SVG/1.1/DTD/svg11.dtd">
<!-- Generated by graphviz version 2.38.0 (20140413.2041)
 -->
<!-- Title: E:/Dev/ObEngine/Git/include/Animation/AnimationGroup.hpp Pages: 1 -->
<!--zoomable 463 -->
<svg id="main" version="1.1" xmlns="http://www.w3.org/2000/svg" xmlns:xlink="http://www.w3.org/1999/xlink" xml:space="preserve" onload="init(evt)">
<style type="text/css"><![CDATA[
.edge:hover path { stroke: red; }
.edge:hover polygon { stroke: red; fill: red; }
.edge path { stroke: white; }
.edge polygon { stroke: white; fill: white; }
.node polygon { fill: white; }
]]></style>
<script type="text/javascript"><![CDATA[
var edges = document.getElementsByTagName('g');
if (edges && edges.length) {
  for (var i=0;i<edges.length;i++) {
    if (edges[i].id.substr(0,4)=='edge') {
      edges[i].setAttribute('class','edge');
    }
  }
}
]]></script>
        <defs>
                <circle id="rim" cx="0" cy="0" r="7"/>
                <circle id="rim2" cx="0" cy="0" r="3.5"/>
                <g id="zoomPlus">
                        <use xlink:href="#rim" fill="#404040">
                                <set attributeName="fill" to="#808080" begin="zoomplus.mouseover" end="zoomplus.mouseout"/>
                        </use>
                        <path d="M-4,0h8M0,-4v8" fill="none" stroke="white" stroke-width="1.5" pointer-events="none"/>
                </g>
                <g id="zoomMin">
                        <use xlink:href="#rim" fill="#404040">
                                <set attributeName="fill" to="#808080" begin="zoomminus.mouseover" end="zoomminus.mouseout"/>
                        </use>
                        <path d="M-4,0h8" fill="none" stroke="white" stroke-width="1.5" pointer-events="none"/>
                </g>
                <g id="dirArrow">
                        <path fill="none" stroke="white" stroke-width="1.5" d="M0,-3.0v7 M-2.5,-0.5L0,-3.0L2.5,-0.5"/>
                </g>
               <g id="resetDef">
                       <use xlink:href="#rim2" fill="#404040">
                               <set attributeName="fill" to="#808080" begin="reset.mouseover" end="reset.mouseout"/>
                       </use>
               </g>
        </defs>

<script type="text/javascript">
var viewWidth = 1649;
var viewHeight = 463;
var sectionId = 'dynsection-1';
</script>
<script xlink:href="svgpan.js"/>
<svg id="graph" class="graph">
<g id="viewport">
<title>E:/Dev/ObEngine/Git/include/Animation/AnimationGroup.hpp</title>
<!-- Node3 -->
<g id="node1" class="node"><title>Node3</title>
<polygon fill="#bfbfbf" stroke="black" points="1269.54,-413.5 1269.54,-454.5 1412.54,-454.5 1412.54,-413.5 1269.54,-413.5"/>
<text text-anchor="start" x="1277.54" y="-442.5" font-family="Helvetica,sans-Serif" font-size="10.00">E:/Dev/ObEngine/Git</text>
<text text-anchor="start" x="1277.54" y="-431.5" font-family="Helvetica,sans-Serif" font-size="10.00">/include/Animation/Animation</text>
<text text-anchor="middle" x="1341.04" y="-420.5" font-family="Helvetica,sans-Serif" font-size="10.00">Group.hpp</text>
</g>
<!-- Node4 -->
<g id="node2" class="node"><title>Node4</title>
<g id="a_node2"><a xlink:href="_animation_8hpp.html" target="_top" xlink:title="E:/Dev/ObEngine/Git\l/include/Animation/Animation.hpp">
<polygon fill="none" stroke="black" points="1136.04,-346.5 1136.04,-376.5 1298.04,-376.5 1298.04,-346.5 1136.04,-346.5"/>
<text text-anchor="start" x="1144.04" y="-364.5" font-family="Helvetica,sans-Serif" font-size="10.00">E:/Dev/ObEngine/Git</text>
<text text-anchor="middle" x="1217.04" y="-353.5" font-family="Helvetica,sans-Serif" font-size="10.00">/include/Animation/Animation.hpp</text>
</a>
</g>
</g>
<!-- Node3&#45;&gt;Node4 -->
<g id="edge1" class="edge"><title>Node3&#45;&gt;Node4</title>
<path fill="none" stroke="midnightblue" d="M1297.59,-408.296C1278.97,-397.708 1257.89,-385.723 1241.96,-376.67"/>
<polygon fill="midnightblue" stroke="midnightblue" points="1296.08,-411.462 1306.5,-413.362 1299.53,-405.377 1296.08,-411.462"/>
</g>
<!-- Node29 -->
<g id="node27" class="node"><title>Node29</title>
<g id="a_node27"><a xlink:href="_animation_bindings_8cpp.html" target="_top" xlink:title="E:/Dev/ObEngine/Git\l/src/Bindings/AnimationBindings.cpp">
<polygon fill="none" stroke="black" points="1234.04,-212.5 1234.04,-242.5 1410.04,-242.5 1410.04,-212.5 1234.04,-212.5"/>
<text text-anchor="start" x="1242.04" y="-230.5" font-family="Helvetica,sans-Serif" font-size="10.00">E:/Dev/ObEngine/Git</text>
<text text-anchor="middle" x="1322.04" y="-219.5" font-family="Helvetica,sans-Serif" font-size="10.00">/src/Bindings/AnimationBindings.cpp</text>
</a>
</g>
</g>
<!-- Node3&#45;&gt;Node29 -->
<g id="edge46" class="edge"><title>Node3&#45;&gt;Node29</title>
<path fill="none" stroke="midnightblue" d="M1338.27,-403.153C1334.11,-358.435 1326.43,-275.773 1323.36,-242.71"/>
<polygon fill="midnightblue" stroke="midnightblue" points="1334.81,-403.758 1339.22,-413.392 1341.78,-403.111 1334.81,-403.758"/>
</g>
<!-- Node31 -->
<g id="node29" class="node"><title>Node31</title>
<g id="a_node29"><a xlink:href="_animation_group_8cpp.html" target="_top" xlink:title="E:/Dev/ObEngine/Git\l/src/Animation/AnimationGroup.cpp">
<polygon fill="none" stroke="black" points="1369.54,-346.5 1369.54,-376.5 1540.54,-376.5 1540.54,-346.5 1369.54,-346.5"/>
<text text-anchor="start" x="1377.54" y="-364.5" font-family="Helvetica,sans-Serif" font-size="10.00">E:/Dev/ObEngine/Git</text>
<text text-anchor="middle" x="1455.04" y="-353.5" font-family="Helvetica,sans-Serif" font-size="10.00">/src/Animation/AnimationGroup.cpp</text>
</a>
</g>
</g>
<!-- Node3&#45;&gt;Node31 -->
<g id="edge45" class="edge"><title>Node3&#45;&gt;Node31</title>
<path fill="none" stroke="midnightblue" d="M1381.45,-408.007C1398.46,-397.491 1417.62,-385.641 1432.13,-376.67"/>
<polygon fill="midnightblue" stroke="midnightblue" points="1379.46,-405.125 1372.79,-413.362 1383.14,-411.079 1379.46,-405.125"/>
</g>
<!-- Node5 -->
<g id="node3" class="node"><title>Node5</title>
<g id="a_node3"><a xlink:href="_animator_8hpp.html" target="_top" xlink:title="E:/Dev/ObEngine/Git\l/include/Animation/Animator.hpp">
<polygon fill="none" stroke="black" points="953.039,-279.5 953.039,-309.5 1111.04,-309.5 1111.04,-279.5 953.039,-279.5"/>
<text text-anchor="start" x="961.039" y="-297.5" font-family="Helvetica,sans-Serif" font-size="10.00">E:/Dev/ObEngine/Git</text>
<text text-anchor="middle" x="1032.04" y="-286.5" font-family="Helvetica,sans-Serif" font-size="10.00">/include/Animation/Animator.hpp</text>
</a>
</g>
</g>
<!-- Node4&#45;&gt;Node5 -->
<g id="edge2" class="edge"><title>Node4&#45;&gt;Node5</title>
<path fill="none" stroke="midnightblue" d="M1167.1,-342.955C1137.3,-332.485 1099.96,-319.366 1072.1,-309.577"/>
<polygon fill="midnightblue" stroke="midnightblue" points="1166.3,-346.383 1176.9,-346.396 1168.62,-339.779 1166.3,-346.383"/>
</g>
<!-- Node4&#45;&gt;Node29 -->
<g id="edge44" class="edge"><title>Node4&#45;&gt;Node29</title>
<path fill="none" stroke="midnightblue" d="M1249,-340.698C1260.77,-332.29 1273.53,-321.717 1283.04,-310 1299.95,-289.177 1311.67,-259.808 1317.59,-242.601"/>
<polygon fill="midnightblue" stroke="midnightblue" points="1246.93,-337.875 1240.67,-346.424 1250.9,-343.643 1246.93,-337.875"/>
</g>
<!-- Node30 -->
<g id="node28" class="node"><title>Node30</title>
<g id="a_node28"><a xlink:href="_animation_8cpp.html" target="_top" xlink:title="E:/Dev/ObEngine/Git\l/src/Animation/Animation.cpp">
<polygon fill="none" stroke="black" points="1129.54,-279.5 1129.54,-309.5 1274.54,-309.5 1274.54,-279.5 1129.54,-279.5"/>
<text text-anchor="start" x="1137.54" y="-297.5" font-family="Helvetica,sans-Serif" font-size="10.00">E:/Dev/ObEngine/Git</text>
<text text-anchor="middle" x="1202.04" y="-286.5" font-family="Helvetica,sans-Serif" font-size="10.00">/src/Animation/Animation.cpp</text>
</a>
</g>
</g>
<!-- Node4&#45;&gt;Node30 -->
<g id="edge43" class="edge"><title>Node4&#45;&gt;Node30</title>
<path fill="none" stroke="midnightblue" d="M1211.48,-336.403C1209.39,-327.37 1207.09,-317.408 1205.29,-309.577"/>
<polygon fill="midnightblue" stroke="midnightblue" points="1208.13,-337.439 1213.78,-346.396 1214.95,-335.865 1208.13,-337.439"/>
</g>
<!-- Node6 -->
<g id="node4" class="node"><title>Node6</title>
<g id="a_node4"><a xlink:href="_game_object_8hpp.html" target="_top" xlink:title="E:/Dev/ObEngine/Git\l/include/Script/GameObject.hpp">
<polygon fill="none" stroke="black" points="178.539,-212.5 178.539,-242.5 333.539,-242.5 333.539,-212.5 178.539,-212.5"/>
<text text-anchor="start" x="186.539" y="-230.5" font-family="Helvetica,sans-Serif" font-size="10.00">E:/Dev/ObEngine/Git</text>
<text text-anchor="middle" x="256.039" y="-219.5" font-family="Helvetica,sans-Serif" font-size="10.00">/include/Script/GameObject.hpp</text>
</a>
</g>
</g>
<!-- Node5&#45;&gt;Node6 -->
<g id="edge3" class="edge"><title>Node5&#45;&gt;Node6</title>
<path fill="none" stroke="midnightblue" d="M942.684,-286.015C789.329,-273.17 478.579,-247.141 333.684,-235.004"/>
<polygon fill="midnightblue" stroke="midnightblue" points="942.744,-289.533 953.001,-286.88 943.328,-282.557 942.744,-289.533"/>
</g>
<!-- Node21 -->
<g id="node19" class="node"><title>Node21</title>
<g id="a_node19"><a xlink:href="_cursor_8hpp.html" target="_top" xlink:title="E:/Dev/ObEngine/Git\l/include/System/Cursor.hpp">
<polygon fill="none" stroke="black" points="920.539,-212.5 920.539,-242.5 1057.54,-242.5 1057.54,-212.5 920.539,-212.5"/>
<text text-anchor="start" x="928.539" y="-230.5" font-family="Helvetica,sans-Serif" font-size="10.00">E:/Dev/ObEngine/Git</text>
<text text-anchor="middle" x="989.039" y="-219.5" font-family="Helvetica,sans-Serif" font-size="10.00">/include/System/Cursor.hpp</text>
</a>
</g>
</g>
<!-- Node5&#45;&gt;Node21 -->
<g id="edge25" class="edge"><title>Node5&#45;&gt;Node21</title>
<path fill="none" stroke="midnightblue" d="M1017.07,-270.867C1010.84,-261.459 1003.81,-250.833 998.351,-242.577"/>
<polygon fill="midnightblue" stroke="midnightblue" points="1014.27,-272.987 1022.71,-279.396 1020.11,-269.125 1014.27,-272.987"/>
</g>
<!-- Node28 -->
<g id="node26" class="node"><title>Node28</title>
<g id="a_node26"><a xlink:href="_animator_8cpp.html" target="_top" xlink:title="E:/Dev/ObEngine/Git\l/src/Animation/Animator.cpp">
<polygon fill="none" stroke="black" points="1076.04,-212.5 1076.04,-242.5 1216.04,-242.5 1216.04,-212.5 1076.04,-212.5"/>
<text text-anchor="start" x="1084.04" y="-230.5" font-family="Helvetica,sans-Serif" font-size="10.00">E:/Dev/ObEngine/Git</text>
<text text-anchor="middle" x="1146.04" y="-219.5" font-family="Helvetica,sans-Serif" font-size="10.00">/src/Animation/Animator.cpp</text>
</a>
</g>
</g>
<!-- Node5&#45;&gt;Node28 -->
<g id="edge41" class="edge"><title>Node5&#45;&gt;Node28</title>
<path fill="none" stroke="midnightblue" d="M1065.72,-274.296C1083.56,-264.125 1105.08,-251.855 1121.35,-242.577"/>
<polygon fill="midnightblue" stroke="midnightblue" points="1063.73,-271.402 1056.78,-279.396 1067.2,-277.483 1063.73,-271.402"/>
</g>
<!-- Node5&#45;&gt;Node29 -->
<g id="edge42" class="edge"><title>Node5&#45;&gt;Node29</title>
<path fill="none" stroke="midnightblue" d="M1104.53,-277.252C1152.06,-266.598 1213.6,-252.805 1259.08,-242.611"/>
<polygon fill="midnightblue" stroke="midnightblue" points="1103.6,-273.874 1094.61,-279.476 1105.13,-280.704 1103.6,-273.874"/>
</g>
<!-- Node7 -->
<g id="node5" class="node"><title>Node7</title>
<g id="a_node5"><a xlink:href="_scene_8hpp.html" target="_top" xlink:title="E:/Dev/ObEngine/Git\l/include/Scene/Scene.hpp">
<polygon fill="none" stroke="black" points="534.539,-145.5 534.539,-175.5 665.539,-175.5 665.539,-145.5 534.539,-145.5"/>
<text text-anchor="start" x="542.539" y="-163.5" font-family="Helvetica,sans-Serif" font-size="10.00">E:/Dev/ObEngine/Git</text>
<text text-anchor="middle" x="600.039" y="-152.5" font-family="Helvetica,sans-Serif" font-size="10.00">/include/Scene/Scene.hpp</text>
</a>
</g>
</g>
<!-- Node6&#45;&gt;Node7 -->
<g id="edge4" class="edge"><title>Node6&#45;&gt;Node7</title>
<path fill="none" stroke="midnightblue" d="M340.433,-210.553C400.22,-199.256 479.274,-184.319 534.371,-173.908"/>
<polygon fill="midnightblue" stroke="midnightblue" points="339.435,-207.18 330.258,-212.476 340.734,-214.058 339.435,-207.18"/>
</g>
<!-- Node10 -->
<g id="node8" class="node"><title>Node10</title>
<g id="a_node8"><a xlink:href="_map_editor_8cpp.html" target="_top" xlink:title="E:/Dev/ObEngine/Git\l/src/Editor/MapEditor.cpp">
<polygon fill="none" stroke="black" points="662.039,-0.5 662.039,-30.5 790.039,-30.5 790.039,-0.5 662.039,-0.5"/>
<text text-anchor="start" x="670.039" y="-18.5" font-family="Helvetica,sans-Serif" font-size="10.00">E:/Dev/ObEngine/Git</text>
<text text-anchor="middle" x="726.039" y="-7.5" font-family="Helvetica,sans-Serif" font-size="10.00">/src/Editor/MapEditor.cpp</text>
</a>
</g>
</g>
<!-- Node6&#45;&gt;Node10 -->
<g id="edge22" class="edge"><title>Node6&#45;&gt;Node10</title>
<path fill="none" stroke="midnightblue" d="M187.467,-209.82C96.3905,-184.641 -46.251,-132.798 15.0391,-67 16.413,-65.525 487.179,-32.9543 661.83,-20.9183"/>
<polygon fill="midnightblue" stroke="midnightblue" points="186.637,-213.221 197.205,-212.465 188.472,-206.466 186.637,-213.221"/>
</g>
<!-- Node17 -->
<g id="node15" class="node"><title>Node17</title>
<g id="a_node15"><a xlink:href="_map_editor_tools_8cpp.html" target="_top" xlink:title="E:/Dev/ObEngine/Git\l/src/Editor/MapEditorTools.cpp">
<polygon fill="none" stroke="black" points="180.539,-73 180.539,-103 331.539,-103 331.539,-73 180.539,-73"/>
<text text-anchor="start" x="188.539" y="-91" font-family="Helvetica,sans-Serif" font-size="10.00">E:/Dev/ObEngine/Git</text>
<text text-anchor="middle" x="256.039" y="-80" font-family="Helvetica,sans-Serif" font-size="10.00">/src/Editor/MapEditorTools.cpp</text>
</a>
</g>
</g>
<!-- Node6&#45;&gt;Node17 -->
<g id="edge23" class="edge"><title>Node6&#45;&gt;Node17</title>
<path fill="none" stroke="midnightblue" d="M256.039,-202.287C256.039,-173.607 256.039,-126.775 256.039,-103.326"/>
<polygon fill="midnightblue" stroke="midnightblue" points="252.539,-202.303 256.039,-212.303 259.539,-202.303 252.539,-202.303"/>
</g>
<!-- Node20 -->
<g id="node18" class="node"><title>Node20</title>
<g id="a_node18"><a xlink:href="_game_object_8cpp.html" target="_top" xlink:title="E:/Dev/ObEngine/Git\l/src/Script/GameObject.cpp">
<polygon fill="none" stroke="black" points="24.0391,-73 24.0391,-103 162.039,-103 162.039,-73 24.0391,-73"/>
<text text-anchor="start" x="32.0391" y="-91" font-family="Helvetica,sans-Serif" font-size="10.00">E:/Dev/ObEngine/Git</text>
<text text-anchor="middle" x="93.0391" y="-80" font-family="Helvetica,sans-Serif" font-size="10.00">/src/Script/GameObject.cpp</text>
</a>
</g>
</g>
<!-- Node6&#45;&gt;Node20 -->
<g id="edge24" class="edge"><title>Node6&#45;&gt;Node20</title>
<path fill="none" stroke="midnightblue" d="M231.275,-205.61C197.783,-177.358 138.922,-127.705 110.022,-103.326"/>
<polygon fill="midnightblue" stroke="midnightblue" points="229.309,-208.53 239.209,-212.303 233.822,-203.18 229.309,-208.53"/>
</g>
<!-- Node8 -->
<g id="node6" class="node"><title>Node8</title>
<g id="a_node6"><a xlink:href="_colliders_edit_actions_8hpp.html" target="_top" xlink:title="E:/Dev/ObEngine/Git\l/include/Editor/CollidersEdit\lActions.hpp">
<polygon fill="none" stroke="black" points="349.539,-67.5 349.539,-108.5 486.539,-108.5 486.539,-67.5 349.539,-67.5"/>
<text text-anchor="start" x="357.539" y="-96.5" font-family="Helvetica,sans-Serif" font-size="10.00">E:/Dev/ObEngine/Git</text>
<text text-anchor="start" x="357.539" y="-85.5" font-family="Helvetica,sans-Serif" font-size="10.00">/include/Editor/CollidersEdit</text>
<text text-anchor="middle" x="418.039" y="-74.5" font-family="Helvetica,sans-Serif" font-size="10.00">Actions.hpp</text>
</a>
</g>
</g>
<!-- Node7&#45;&gt;Node8 -->
<g id="edge5" class="edge"><title>Node7&#45;&gt;Node8</title>
<path fill="none" stroke="midnightblue" d="M554,-141.666C527.924,-131.565 495.27,-118.916 468.499,-108.546"/>
<polygon fill="midnightblue" stroke="midnightblue" points="553.057,-145.054 563.646,-145.403 555.585,-138.527 553.057,-145.054"/>
</g>
<!-- Node7&#45;&gt;Node10 -->
<g id="edge17" class="edge"><title>Node7&#45;&gt;Node10</title>
<path fill="none" stroke="midnightblue" d="M629.904,-139.503C641.589,-130.891 654.652,-120.225 665.039,-109 688.034,-84.1503 708.243,-49.7482 718.628,-30.6737"/>
<polygon fill="midnightblue" stroke="midnightblue" points="627.782,-136.717 621.696,-145.39 631.862,-142.406 627.782,-136.717"/>
</g>
<!-- Node11 -->
<g id="node9" class="node"><title>Node11</title>
<g id="a_node9"><a xlink:href="_editor_global_actions_8hpp.html" target="_top" xlink:title="E:/Dev/ObEngine/Git\l/include/Editor/EditorGlobal\lActions.hpp">
<polygon fill="none" stroke="black" points="1488.54,-67.5 1488.54,-108.5 1623.54,-108.5 1623.54,-67.5 1488.54,-67.5"/>
<text text-anchor="start" x="1496.54" y="-96.5" font-family="Helvetica,sans-Serif" font-size="10.00">E:/Dev/ObEngine/Git</text>
<text text-anchor="start" x="1496.54" y="-85.5" font-family="Helvetica,sans-Serif" font-size="10.00">/include/Editor/EditorGlobal</text>
<text text-anchor="middle" x="1556.04" y="-74.5" font-family="Helvetica,sans-Serif" font-size="10.00">Actions.hpp</text>
</a>
</g>
</g>
<!-- Node7&#45;&gt;Node11 -->
<g id="edge8" class="edge"><title>Node7&#45;&gt;Node11</title>
<path fill="none" stroke="midnightblue" d="M675.786,-144.914C1031.43,-103.55 1128.18,-161.815 1479.04,-109 1482.04,-108.548 1485.1,-108.025 1488.18,-107.449"/>
<polygon fill="midnightblue" stroke="midnightblue" points="675.246,-141.453 665.726,-146.102 676.068,-148.405 675.246,-141.453"/>
</g>
<!-- Node13 -->
<g id="node11" class="node"><title>Node13</title>
<g id="a_node11"><a xlink:href="_editor_g_u_i_8hpp.html" target="_top" xlink:title="E:/Dev/ObEngine/Git\l/include/Editor/EditorGUI.hpp">
<polygon fill="none" stroke="black" points="844.539,-73 844.539,-103 987.539,-103 987.539,-73 844.539,-73"/>
<text text-anchor="start" x="852.539" y="-91" font-family="Helvetica,sans-Serif" font-size="10.00">E:/Dev/ObEngine/Git</text>
<text text-anchor="middle" x="916.039" y="-80" font-family="Helvetica,sans-Serif" font-size="10.00">/include/Editor/EditorGUI.hpp</text>
</a>
</g>
</g>
<!-- Node7&#45;&gt;Node13 -->
<g id="edge11" class="edge"><title>Node7&#45;&gt;Node13</title>
<path fill="none" stroke="midnightblue" d="M675.668,-143.857C721.796,-134.165 781.911,-121.265 835.039,-109 843.084,-107.143 851.562,-105.121 859.881,-103.1"/>
<polygon fill="midnightblue" stroke="midnightblue" points="674.816,-140.46 665.748,-145.938 676.253,-147.311 674.816,-140.46"/>
</g>
<!-- Node15 -->
<g id="node13" class="node"><title>Node15</title>
<g id="a_node13"><a xlink:href="_sprite_edit_actions_8hpp.html" target="_top" xlink:title="E:/Dev/ObEngine/Git\l/include/Editor/SpriteEdit\lActions.hpp">
<polygon fill="none" stroke="black" points="1005.54,-67.5 1005.54,-108.5 1130.54,-108.5 1130.54,-67.5 1005.54,-67.5"/>
<text text-anchor="start" x="1013.54" y="-96.5" font-family="Helvetica,sans-Serif" font-size="10.00">E:/Dev/ObEngine/Git</text>
<text text-anchor="start" x="1013.54" y="-85.5" font-family="Helvetica,sans-Serif" font-size="10.00">/include/Editor/SpriteEdit</text>
<text text-anchor="middle" x="1068.04" y="-74.5" font-family="Helvetica,sans-Serif" font-size="10.00">Actions.hpp</text>
</a>
</g>
</g>
<!-- Node7&#45;&gt;Node15 -->
<g id="edge14" class="edge"><title>Node7&#45;&gt;Node15</title>
<path fill="none" stroke="midnightblue" d="M675.739,-144.823C818.144,-123.71 857.834,-135.743 996.039,-109 999.096,-108.408 1002.21,-107.752 1005.35,-107.048"/>
<polygon fill="midnightblue" stroke="midnightblue" points="675.122,-141.377 665.757,-146.332 676.168,-148.298 675.122,-141.377"/>
</g>
<!-- Node7&#45;&gt;Node17 -->
<g id="edge18" class="edge"><title>Node7&#45;&gt;Node17</title>
<path fill="none" stroke="midnightblue" d="M524.299,-145.656C472.339,-135.946 401.874,-122.36 340.039,-109 331.54,-107.164 322.581,-105.133 313.806,-103.09"/>
<polygon fill="midnightblue" stroke="midnightblue" points="523.964,-149.153 534.436,-147.545 525.247,-142.272 523.964,-149.153"/>
</g>
<!-- Node18 -->
<g id="node16" class="node"><title>Node18</title>
<g id="a_node16"><a xlink:href="_game_8cpp.html" target="_top" xlink:title="E:/Dev/ObEngine/Git\l/src/Modes/Game.cpp">
<polygon fill="none" stroke="black" points="713.539,-73 713.539,-103 826.539,-103 826.539,-73 713.539,-73"/>
<text text-anchor="start" x="721.539" y="-91" font-family="Helvetica,sans-Serif" font-size="10.00">E:/Dev/ObEngine/Git</text>
<text text-anchor="middle" x="770.039" y="-80" font-family="Helvetica,sans-Serif" font-size="10.00">/src/Modes/Game.cpp</text>
</a>
</g>
</g>
<!-- Node7&#45;&gt;Node18 -->
<g id="edge19" class="edge"><title>Node7&#45;&gt;Node18</title>
<path fill="none" stroke="midnightblue" d="M643.446,-141.499C672.238,-129.559 709.482,-114.114 736.105,-103.073"/>
<polygon fill="midnightblue" stroke="midnightblue" points="641.929,-138.339 634.033,-145.403 644.61,-144.805 641.929,-138.339"/>
</g>
<!-- Node19 -->
<g id="node17" class="node"><title>Node19</title>
<g id="a_node17"><a xlink:href="_scene_8cpp.html" target="_top" xlink:title="E:/Dev/ObEngine/Git\l/src/Scene/Scene.cpp">
<polygon fill="none" stroke="black" points="543.539,-73 543.539,-103 656.539,-103 656.539,-73 543.539,-73"/>
<text text-anchor="start" x="551.539" y="-91" font-family="Helvetica,sans-Serif" font-size="10.00">E:/Dev/ObEngine/Git</text>
<text text-anchor="middle" x="600.039" y="-80" font-family="Helvetica,sans-Serif" font-size="10.00">/src/Scene/Scene.cpp</text>
</a>
</g>
</g>
<!-- Node7&#45;&gt;Node19 -->
<g id="edge20" class="edge"><title>Node7&#45;&gt;Node19</title>
<path fill="none" stroke="midnightblue" d="M600.039,-135.232C600.039,-124.568 600.039,-112.414 600.039,-103.246"/>
<polygon fill="midnightblue" stroke="midnightblue" points="596.539,-135.233 600.039,-145.233 603.539,-135.233 596.539,-135.233"/>
</g>
<!-- Node7&#45;&gt;Node20 -->
<g id="edge21" class="edge"><title>Node7&#45;&gt;Node20</title>
<path fill="none" stroke="midnightblue" d="M524.008,-153.645C437.894,-146.299 293.603,-131.821 171.039,-109 162.106,-107.337 152.68,-105.229 143.589,-103.009"/>
<polygon fill="midnightblue" stroke="midnightblue" points="523.958,-157.154 534.216,-154.506 524.546,-150.178 523.958,-157.154"/>
</g>
<!-- Node9 -->
<g id="node7" class="node"><title>Node9</title>
<g id="a_node7"><a xlink:href="_colliders_edit_actions_8cpp.html" target="_top" xlink:title="E:/Dev/ObEngine/Git\l/src/Editor/CollidersEditActions.cpp">
<polygon fill="none" stroke="black" points="332.539,-0.5 332.539,-30.5 503.539,-30.5 503.539,-0.5 332.539,-0.5"/>
<text text-anchor="start" x="340.539" y="-18.5" font-family="Helvetica,sans-Serif" font-size="10.00">E:/Dev/ObEngine/Git</text>
<text text-anchor="middle" x="418.039" y="-7.5" font-family="Helvetica,sans-Serif" font-size="10.00">/src/Editor/CollidersEditActions.cpp</text>
</a>
</g>
</g>
<!-- Node8&#45;&gt;Node9 -->
<g id="edge6" class="edge"><title>Node8&#45;&gt;Node9</title>
<path fill="none" stroke="midnightblue" d="M418.039,-57.08C418.039,-48.0061 418.039,-38.4498 418.039,-30.8916"/>
<polygon fill="midnightblue" stroke="midnightblue" points="414.539,-57.3618 418.039,-67.3618 421.539,-57.3619 414.539,-57.3618"/>
</g>
<!-- Node8&#45;&gt;Node10 -->
<g id="edge7" class="edge"><title>Node8&#45;&gt;Node10</title>
<path fill="none" stroke="midnightblue" d="M496.67,-68.0197C498.138,-67.6761 499.595,-67.3359 501.039,-67 555.239,-54.3883 616.914,-40.584 661.969,-30.6002"/>
<polygon fill="midnightblue" stroke="midnightblue" points="495.794,-64.6302 486.862,-70.3284 497.398,-71.444 495.794,-64.6302"/>
</g>
<!-- Node11&#45;&gt;Node10 -->
<g id="edge10" class="edge"><title>Node11&#45;&gt;Node10</title>
<path fill="none" stroke="midnightblue" d="M1478.06,-67.0257C1196.23,-23.8169 1119.98,-56.6572 840.039,-31 823.847,-29.516 806.41,-27.5072 790.163,-25.4583"/>
<polygon fill="midnightblue" stroke="midnightblue" points="1477.75,-70.5201 1488.17,-68.595 1478.83,-63.6029 1477.75,-70.5201"/>
</g>
<!-- Node12 -->
<g id="node10" class="node"><title>Node12</title>
<g id="a_node10"><a xlink:href="_editor_global_actions_8cpp.html" target="_top" xlink:title="E:/Dev/ObEngine/Git\l/src/Editor/EditorGlobalActions.cpp">
<polygon fill="none" stroke="black" points="1471.04,-0.5 1471.04,-30.5 1641.04,-30.5 1641.04,-0.5 1471.04,-0.5"/>
<text text-anchor="start" x="1479.04" y="-18.5" font-family="Helvetica,sans-Serif" font-size="10.00">E:/Dev/ObEngine/Git</text>
<text text-anchor="middle" x="1556.04" y="-7.5" font-family="Helvetica,sans-Serif" font-size="10.00">/src/Editor/EditorGlobalActions.cpp</text>
</a>
</g>
</g>
<!-- Node11&#45;&gt;Node12 -->
<g id="edge9" class="edge"><title>Node11&#45;&gt;Node12</title>
<path fill="none" stroke="midnightblue" d="M1556.04,-57.08C1556.04,-48.0061 1556.04,-38.4498 1556.04,-30.8916"/>
<polygon fill="midnightblue" stroke="midnightblue" points="1552.54,-57.3618 1556.04,-67.3618 1559.54,-57.3619 1552.54,-57.3618"/>
</g>
<!-- Node13&#45;&gt;Node10 -->
<g id="edge13" class="edge"><title>Node13&#45;&gt;Node10</title>
<path fill="none" stroke="midnightblue" d="M868.363,-69.3098C836.071,-57.3275 793.98,-41.7096 763.966,-30.5729"/>
<polygon fill="midnightblue" stroke="midnightblue" points="867.453,-72.7053 878.046,-72.9027 869.889,-66.1425 867.453,-72.7053"/>
</g>
<!-- Node14 -->
<g id="node12" class="node"><title>Node14</title>
<g id="a_node12"><a xlink:href="_editor_g_u_i_8cpp.html" target="_top" xlink:title="E:/Dev/ObEngine/Git\l/src/Editor/EditorGUI.cpp">
<polygon fill="none" stroke="black" points="849.539,-0.5 849.539,-30.5 974.539,-30.5 974.539,-0.5 849.539,-0.5"/>
<text text-anchor="start" x="857.539" y="-18.5" font-family="Helvetica,sans-Serif" font-size="10.00">E:/Dev/ObEngine/Git</text>
<text text-anchor="middle" x="912.039" y="-7.5" font-family="Helvetica,sans-Serif" font-size="10.00">/src/Editor/EditorGUI.cpp</text>
</a>
</g>
</g>
<!-- Node13&#45;&gt;Node14 -->
<g id="edge12" class="edge"><title>Node13&#45;&gt;Node14</title>
<path fill="none" stroke="midnightblue" d="M914.662,-62.7317C914.057,-52.0679 913.368,-39.9145 912.847,-30.7455"/>
<polygon fill="midnightblue" stroke="midnightblue" points="911.169,-62.9476 915.23,-72.7333 918.157,-62.551 911.169,-62.9476"/>
</g>
<!-- Node15&#45;&gt;Node10 -->
<g id="edge15" class="edge"><title>Node15&#45;&gt;Node10</title>
<path fill="none" stroke="midnightblue" d="M995.543,-66.9777C919.522,-49.5942 842.846,-35.7995 790.189,-26.8983"/>
<polygon fill="midnightblue" stroke="midnightblue" points="994.761,-70.3891 1005.29,-69.2278 996.335,-63.5684 994.761,-70.3891"/>
</g>
<!-- Node16 -->
<g id="node14" class="node"><title>Node16</title>
<g id="a_node14"><a xlink:href="_sprite_edit_actions_8cpp.html" target="_top" xlink:title="E:/Dev/ObEngine/Git\l/src/Editor/SpriteEditActions.cpp">
<polygon fill="none" stroke="black" points="992.539,-0.5 992.539,-30.5 1151.54,-30.5 1151.54,-0.5 992.539,-0.5"/>
<text text-anchor="start" x="1000.54" y="-18.5" font-family="Helvetica,sans-Serif" font-size="10.00">E:/Dev/ObEngine/Git</text>
<text text-anchor="middle" x="1072.04" y="-7.5" font-family="Helvetica,sans-Serif" font-size="10.00">/src/Editor/SpriteEditActions.cpp</text>
</a>
</g>
</g>
<!-- Node15&#45;&gt;Node16 -->
<g id="edge16" class="edge"><title>Node15&#45;&gt;Node16</title>
<path fill="none" stroke="midnightblue" d="M1069.72,-57.3757C1070.24,-48.214 1070.79,-38.5319 1071.22,-30.8916"/>
<polygon fill="midnightblue" stroke="midnightblue" points="1066.23,-57.1796 1069.15,-67.3618 1073.21,-57.5762 1066.23,-57.1796"/>
</g>
<!-- Node21&#45;&gt;Node8 -->
<g id="edge26" class="edge"><title>Node21&#45;&gt;Node8</title>
<path fill="none" stroke="midnightblue" d="M909.759,-225.563C788.256,-222.946 562.637,-213.079 492.039,-176 463.249,-160.879 440.977,-129.427 428.687,-108.774"/>
<polygon fill="midnightblue" stroke="midnightblue" points="910.041,-229.069 920.111,-225.774 910.184,-222.071 910.041,-229.069"/>
</g>
<!-- Node21&#45;&gt;Node10 -->
<g id="edge37" class="edge"><title>Node21&#45;&gt;Node10</title>
<path fill="none" stroke="midnightblue" d="M910.112,-223.552C784.404,-218.037 550.236,-204.088 525.039,-176 509.19,-158.332 507.475,-97.6412 534.039,-67 550.803,-47.663 612.724,-33.7672 661.772,-25.5066"/>
<polygon fill="midnightblue" stroke="midnightblue" points="910.309,-227.064 920.45,-223.998 910.61,-220.07 910.309,-227.064"/>
</g>
<!-- Node21&#45;&gt;Node11 -->
<g id="edge27" class="edge"><title>Node21&#45;&gt;Node11</title>
<path fill="none" stroke="midnightblue" d="M1067.93,-211.938C1188.85,-193.59 1223.59,-205.942 1338.04,-176 1402.1,-159.24 1472.67,-128.702 1515.68,-108.632"/>
<polygon fill="midnightblue" stroke="midnightblue" points="1067.25,-208.501 1057.91,-213.497 1068.33,-215.417 1067.25,-208.501"/>
</g>
<!-- Node21&#45;&gt;Node15 -->
<g id="edge35" class="edge"><title>Node21&#45;&gt;Node15</title>
<path fill="none" stroke="midnightblue" d="M1058.26,-209.954C1102.08,-198.781 1151.66,-184.562 1158.04,-176 1177.25,-150.206 1144.17,-125.159 1112.84,-108.615"/>
<polygon fill="midnightblue" stroke="midnightblue" points="1057.28,-206.592 1048.44,-212.432 1058.99,-213.379 1057.28,-206.592"/>
</g>
<!-- Node21&#45;&gt;Node18 -->
<g id="edge38" class="edge"><title>Node21&#45;&gt;Node18</title>
<path fill="none" stroke="midnightblue" d="M1062.14,-209.587C1106.78,-195.9 1150.76,-174.115 1125.04,-145 1082.04,-96.3348 898.538,-122.601 835.039,-109 827.419,-107.368 819.408,-105.248 811.714,-103"/>
<polygon fill="midnightblue" stroke="midnightblue" points="1060.93,-206.292 1052.33,-212.468 1062.91,-213.008 1060.93,-206.292"/>
</g>
<!-- Node22 -->
<g id="node20" class="node"><title>Node22</title>
<g id="a_node20"><a xlink:href="_grid_8hpp.html" target="_top" xlink:title="E:/Dev/ObEngine/Git\l/include/Editor/Grid.hpp">
<polygon fill="none" stroke="black" points="1210.54,-145.5 1210.54,-175.5 1329.54,-175.5 1329.54,-145.5 1210.54,-145.5"/>
<text text-anchor="start" x="1218.54" y="-163.5" font-family="Helvetica,sans-Serif" font-size="10.00">E:/Dev/ObEngine/Git</text>
<text text-anchor="middle" x="1270.04" y="-152.5" font-family="Helvetica,sans-Serif" font-size="10.00">/include/Editor/Grid.hpp</text>
</a>
</g>
</g>
<!-- Node21&#45;&gt;Node22 -->
<g id="edge28" class="edge"><title>Node21&#45;&gt;Node22</title>
<path fill="none" stroke="midnightblue" d="M1059.67,-210.162C1106.19,-199.402 1166.4,-185.473 1210.49,-175.276"/>
<polygon fill="midnightblue" stroke="midnightblue" points="1058.62,-206.812 1049.67,-212.476 1060.2,-213.632 1058.62,-206.812"/>
</g>
<!-- Node25 -->
<g id="node23" class="node"><title>Node25</title>
<g id="a_node23"><a xlink:href="_system_bindings_8cpp.html" target="_top" xlink:title="E:/Dev/ObEngine/Git\l/src/Bindings/SystemBindings.cpp">
<polygon fill="none" stroke="black" points="683.539,-145.5 683.539,-175.5 850.539,-175.5 850.539,-145.5 683.539,-145.5"/>
<text text-anchor="start" x="691.539" y="-163.5" font-family="Helvetica,sans-Serif" font-size="10.00">E:/Dev/ObEngine/Git</text>
<text text-anchor="middle" x="767.039" y="-152.5" font-family="Helvetica,sans-Serif" font-size="10.00">/src/Bindings/SystemBindings.cpp</text>
</a>
</g>
</g>
<!-- Node21&#45;&gt;Node25 -->
<g id="edge36" class="edge"><title>Node21&#45;&gt;Node25</title>
<path fill="none" stroke="midnightblue" d="M931.25,-209.58C895.193,-199.022 849.323,-185.592 815.233,-175.611"/>
<polygon fill="midnightblue" stroke="midnightblue" points="930.561,-213.025 941.142,-212.476 932.528,-206.307 930.561,-213.025"/>
</g>
<!-- Node26 -->
<g id="node24" class="node"><title>Node26</title>
<g id="a_node24"><a xlink:href="_script_8cpp.html" target="_top" xlink:title="E:/Dev/ObEngine/Git\l/src/Script/Script.cpp">
<polygon fill="none" stroke="black" points="868.539,-145.5 868.539,-175.5 977.539,-175.5 977.539,-145.5 868.539,-145.5"/>
<text text-anchor="start" x="876.539" y="-163.5" font-family="Helvetica,sans-Serif" font-size="10.00">E:/Dev/ObEngine/Git</text>
<text text-anchor="middle" x="923.039" y="-152.5" font-family="Helvetica,sans-Serif" font-size="10.00">/src/Script/Script.cpp</text>
</a>
</g>
</g>
<!-- Node21&#45;&gt;Node26 -->
<g id="edge39" class="edge"><title>Node21&#45;&gt;Node26</title>
<path fill="none" stroke="midnightblue" d="M967.525,-205.311C957.624,-195.561 946.148,-184.259 937.332,-175.577"/>
<polygon fill="midnightblue" stroke="midnightblue" points="965.137,-207.873 974.718,-212.396 970.049,-202.885 965.137,-207.873"/>
</g>
<!-- Node27 -->
<g id="node25" class="node"><title>Node27</title>
<g id="a_node25"><a xlink:href="_cursor_8cpp.html" target="_top" xlink:title="E:/Dev/ObEngine/Git\l/src/System/Cursor.cpp">
<polygon fill="none" stroke="black" points="996.039,-145.5 996.039,-175.5 1116.04,-175.5 1116.04,-145.5 996.039,-145.5"/>
<text text-anchor="start" x="1004.04" y="-163.5" font-family="Helvetica,sans-Serif" font-size="10.00">E:/Dev/ObEngine/Git</text>
<text text-anchor="middle" x="1056.04" y="-152.5" font-family="Helvetica,sans-Serif" font-size="10.00">/src/System/Cursor.cpp</text>
</a>
</g>
</g>
<!-- Node21&#45;&gt;Node27 -->
<g id="edge40" class="edge"><title>Node21&#45;&gt;Node27</title>
<path fill="none" stroke="midnightblue" d="M1010.88,-205.311C1020.93,-195.561 1032.58,-184.259 1041.53,-175.577"/>
<polygon fill="midnightblue" stroke="midnightblue" points="1008.32,-202.921 1003.58,-212.396 1013.19,-207.945 1008.32,-202.921"/>
</g>
<!-- Node22&#45;&gt;Node10 -->
<g id="edge34" class="edge"><title>Node22&#45;&gt;Node10</title>
<path fill="none" stroke="midnightblue" d="M1229.68,-140.91C1212.94,-132.317 1193.8,-121.288 1178.04,-109 1157.95,-93.3374 1161.74,-78.562 1139.04,-67 1019.77,-6.248 972.874,-47.4444 840.039,-31 823.902,-29.0023 806.486,-26.807 790.24,-24.7423"/>
<polygon fill="midnightblue" stroke="midnightblue" points="1228.18,-144.076 1238.69,-145.426 1231.32,-137.817 1228.18,-144.076"/>
</g>
<!-- Node22&#45;&gt;Node11 -->
<g id="edge29" class="edge"><title>Node22&#45;&gt;Node11</title>
<path fill="none" stroke="midnightblue" d="M1339.39,-143.057C1380.11,-133.324 1432.54,-120.655 1479.04,-109 1482.12,-108.228 1485.27,-107.433 1488.45,-106.625"/>
<polygon fill="midnightblue" stroke="midnightblue" points="1338.48,-139.676 1329.56,-145.402 1340.1,-146.484 1338.48,-139.676"/>
</g>
<!-- Node22&#45;&gt;Node13 -->
<g id="edge30" class="edge"><title>Node22&#45;&gt;Node13</title>
<path fill="none" stroke="midnightblue" d="M1200.42,-147.91C1144.89,-138.368 1065.24,-124.011 996.039,-109 987.645,-107.179 978.79,-105.113 970.153,-103.017"/>
<polygon fill="midnightblue" stroke="midnightblue" points="1200.05,-151.398 1210.5,-149.635 1201.23,-144.498 1200.05,-151.398"/>
</g>
<!-- Node22&#45;&gt;Node15 -->
<g id="edge31" class="edge"><title>Node22&#45;&gt;Node15</title>
<path fill="none" stroke="midnightblue" d="M1220.08,-142.065C1190.96,-131.9 1154.15,-119.053 1124.04,-108.546"/>
<polygon fill="midnightblue" stroke="midnightblue" points="1219.05,-145.412 1229.65,-145.403 1221.36,-138.803 1219.05,-145.412"/>
</g>
<!-- Node23 -->
<g id="node21" class="node"><title>Node23</title>
<g id="a_node21"><a xlink:href="_editor_bindings_8cpp.html" target="_top" xlink:title="E:/Dev/ObEngine/Git\l/src/Bindings/EditorBindings.cpp">
<polygon fill="none" stroke="black" points="1187.04,-73 1187.04,-103 1345.04,-103 1345.04,-73 1187.04,-73"/>
<text text-anchor="start" x="1195.04" y="-91" font-family="Helvetica,sans-Serif" font-size="10.00">E:/Dev/ObEngine/Git</text>
<text text-anchor="middle" x="1266.04" y="-80" font-family="Helvetica,sans-Serif" font-size="10.00">/src/Bindings/EditorBindings.cpp</text>
</a>
</g>
</g>
<!-- Node22&#45;&gt;Node23 -->
<g id="edge32" class="edge"><title>Node22&#45;&gt;Node23</title>
<path fill="none" stroke="midnightblue" d="M1268.66,-135.232C1268.06,-124.568 1267.37,-112.414 1266.85,-103.246"/>
<polygon fill="midnightblue" stroke="midnightblue" points="1265.17,-135.448 1269.23,-145.233 1272.16,-135.051 1265.17,-135.448"/>
</g>
<!-- Node24 -->
<g id="node22" class="node"><title>Node24</title>
<g id="a_node22"><a xlink:href="_grid_8cpp.html" target="_top" xlink:title="E:/Dev/ObEngine/Git\l/src/Editor/Grid.cpp">
<polygon fill="none" stroke="black" points="1363.54,-73 1363.54,-103 1470.54,-103 1470.54,-73 1363.54,-73"/>
<text text-anchor="start" x="1371.54" y="-91" font-family="Helvetica,sans-Serif" font-size="10.00">E:/Dev/ObEngine/Git</text>
<text text-anchor="middle" x="1417.04" y="-80" font-family="Helvetica,sans-Serif" font-size="10.00">/src/Editor/Grid.cpp</text>
</a>
</g>
</g>
<!-- Node22&#45;&gt;Node24 -->
<g id="edge33" class="edge"><title>Node22&#45;&gt;Node24</title>
<path fill="none" stroke="midnightblue" d="M1308.55,-141.03C1333.31,-129.156 1364.97,-113.97 1387.7,-103.073"/>
<polygon fill="midnightblue" stroke="midnightblue" points="1306.94,-137.923 1299.43,-145.403 1309.96,-144.234 1306.94,-137.923"/>
</g>
</g>
</svg>
        <g id="navigator" transform="translate(0 0)" fill="#404254">
                <rect fill="#f2f5e9" fill-opacity="0.5" stroke="#606060" stroke-width=".5" x="0" y="0" width="60" height="60"/>
                <use id="zoomplus" xlink:href="#zoomPlus" x="17" y="9" onmousedown="handleZoom(evt,'in')"/>
                <use id="zoomminus" xlink:href="#zoomMin" x="42" y="9" onmousedown="handleZoom(evt,'out')"/>
                <use id="reset" xlink:href="#resetDef" x="30" y="36" onmousedown="handleReset()"/>
                <g id="arrowUp" xlink:href="#dirArrow" transform="translate(30 24)" onmousedown="handlePan(0,-1)">
                  <use xlink:href="#rim" fill="#404040">
                        <set attributeName="fill" to="#808080" begin="arrowUp.mouseover" end="arrowUp.mouseout"/>
                  </use>
                  <path fill="none" stroke="white" stroke-width="1.5" d="M0,-3.0v7 M-2.5,-0.5L0,-3.0L2.5,-0.5"/>
                </g>
                <g id="arrowRight" xlink:href="#dirArrow" transform="rotate(90) translate(36 -43)" onmousedown="handlePan(1,0)">
                  <use xlink:href="#rim" fill="#404040">
                        <set attributeName="fill" to="#808080" begin="arrowRight.mouseover" end="arrowRight.mouseout"/>
                  </use>
                  <path fill="none" stroke="white" stroke-width="1.5" d="M0,-3.0v7 M-2.5,-0.5L0,-3.0L2.5,-0.5"/>
                </g>
                <g id="arrowDown" xlink:href="#dirArrow" transform="rotate(180) translate(-30 -48)" onmousedown="handlePan(0,1)">
                  <use xlink:href="#rim" fill="#404040">
                        <set attributeName="fill" to="#808080" begin="arrowDown.mouseover" end="arrowDown.mouseout"/>
                  </use>
                  <path fill="none" stroke="white" stroke-width="1.5" d="M0,-3.0v7 M-2.5,-0.5L0,-3.0L2.5,-0.5"/>
                </g>
                <g id="arrowLeft" xlink:href="#dirArrow" transform="rotate(270) translate(-36 17)" onmousedown="handlePan(-1,0)">
                  <use xlink:href="#rim" fill="#404040">
                        <set attributeName="fill" to="#808080" begin="arrowLeft.mouseover" end="arrowLeft.mouseout"/>
                  </use>
                  <path fill="none" stroke="white" stroke-width="1.5" d="M0,-3.0v7 M-2.5,-0.5L0,-3.0L2.5,-0.5"/>
                </g>
        </g>
        <svg viewBox="0 0 15 15" width="100%" height="30px" preserveAspectRatio="xMaxYMin meet">
         <g id="arrow_out" transform="scale(0.3 0.3)">
          <a xlink:href="_animation_group_8hpp__dep__incl_org.svg" target="_base">
           <rect id="button" ry="5" rx="5" y="6" x="6" height="38" width="38"
                fill="#f2f5e9" fill-opacity="0.5" stroke="#606060" stroke-width="1.0"/>
           <path id="arrow"
             d="M 11.500037,31.436501 C 11.940474,20.09759 22.043105,11.32322 32.158766,21.979434 L 37.068811,17.246167 C 37.068811,17.246167 37.088388,32 37.088388,32 L 22.160133,31.978069 C 22.160133,31.978069 26.997745,27.140456 26.997745,27.140456 C 18.528582,18.264221 13.291696,25.230495 11.500037,31.436501 z"
             style="fill:#404040;"/>
          </a>
         </g>
        </svg>
</svg>
