<?xml version="1.0" encoding="UTF-8" standalone="no"?>
<!DOCTYPE svg PUBLIC "-//W3C//DTD SVG 1.1//EN"
 "http://www.w3.org/Graphics/SVG/1.1/DTD/svg11.dtd">
<!-- Generated by graphviz version 2.38.0 (20140413.2041)
 -->
<!-- Title: E:/Dev/ObEngine/Git/include/Debug/Console.hpp Pages: 1 -->
<!--zoomable 431 -->
<svg id="main" version="1.1" xmlns="http://www.w3.org/2000/svg" xmlns:xlink="http://www.w3.org/1999/xlink" xml:space="preserve" onload="init(evt)">
<style type="text/css"><![CDATA[
.edge:hover path { stroke: red; }
.edge:hover polygon { stroke: red; fill: red; }
.edge path { stroke: white; }
.edge polygon { stroke: white; fill: white; }
.node polygon { fill: white; }
]]></style>
<script type="text/javascript"><![CDATA[
var edges = document.getElementsByTagName('g');
if (edges && edges.length) {
  for (var i=0;i<edges.length;i++) {
    if (edges[i].id.substr(0,4)=='edge') {
      edges[i].setAttribute('class','edge');
    }
  }
}
]]></script>
        <defs>
                <circle id="rim" cx="0" cy="0" r="7"/>
                <circle id="rim2" cx="0" cy="0" r="3.5"/>
                <g id="zoomPlus">
                        <use xlink:href="#rim" fill="#404040">
                                <set attributeName="fill" to="#808080" begin="zoomplus.mouseover" end="zoomplus.mouseout"/>
                        </use>
                        <path d="M-4,0h8M0,-4v8" fill="none" stroke="white" stroke-width="1.5" pointer-events="none"/>
                </g>
                <g id="zoomMin">
                        <use xlink:href="#rim" fill="#404040">
                                <set attributeName="fill" to="#808080" begin="zoomminus.mouseover" end="zoomminus.mouseout"/>
                        </use>
                        <path d="M-4,0h8" fill="none" stroke="white" stroke-width="1.5" pointer-events="none"/>
                </g>
                <g id="dirArrow">
                        <path fill="none" stroke="white" stroke-width="1.5" d="M0,-3.0v7 M-2.5,-0.5L0,-3.0L2.5,-0.5"/>
                </g>
               <g id="resetDef">
                       <use xlink:href="#rim2" fill="#404040">
                               <set attributeName="fill" to="#808080" begin="reset.mouseover" end="reset.mouseout"/>
                       </use>
               </g>
        </defs>

<script type="text/javascript">
var viewWidth = 1217;
var viewHeight = 431;
var sectionId = 'dynsection-0';
</script>
<script xlink:href="svgpan.js"/>
<svg id="graph" class="graph">
<g id="viewport">
<title>E:/Dev/ObEngine/Git/include/Debug/Console.hpp</title>
<!-- Node0 -->
<g id="node1" class="node"><title>Node0</title>
<polygon fill="#bfbfbf" stroke="black" points="629,-392.5 629,-422.5 767,-422.5 767,-392.5 629,-392.5"/>
<text text-anchor="start" x="637" y="-410.5" font-family="Helvetica,sans-Serif" font-size="10.00">E:/Dev/ObEngine/Git</text>
<text text-anchor="middle" x="698" y="-399.5" font-family="Helvetica,sans-Serif" font-size="10.00">/include/Debug/Console.hpp</text>
</g>
<!-- Node1 -->
<g id="node2" class="node"><title>Node1</title>
<polygon fill="none" stroke="#bfbfbf" points="38.5,-0.5 38.5,-19.5 73.5,-19.5 73.5,-0.5 38.5,-0.5"/>
<text text-anchor="middle" x="56" y="-7.5" font-family="Helvetica,sans-Serif" font-size="10.00">map</text>
</g>
<!-- Node0&#45;&gt;Node1 -->
<g id="edge1" class="edge"><title>Node0&#45;&gt;Node1</title>
<path fill="none" stroke="midnightblue" d="M628.939,-403.586C498.792,-397.564 222.034,-382.083 130,-356 67.8501,-338.387 0,-355.598 0,-291 0,-291 0,-291 0,-121 0,-84.4358 24.8767,-47.747 41.4693,-27.3424"/>
<polygon fill="midnightblue" stroke="midnightblue" points="44.195,-29.5395 47.9766,-19.6425 38.8486,-25.0212 44.195,-29.5395"/>
</g>
<!-- Node2 -->
<g id="node3" class="node"><title>Node2</title>
<polygon fill="none" stroke="#bfbfbf" points="581.5,-0.5 581.5,-19.5 622.5,-19.5 622.5,-0.5 581.5,-0.5"/>
<text text-anchor="middle" x="602" y="-7.5" font-family="Helvetica,sans-Serif" font-size="10.00">string</text>
</g>
<!-- Node0&#45;&gt;Node2 -->
<g id="edge2" class="edge"><title>Node0&#45;&gt;Node2</title>
<path fill="none" stroke="midnightblue" d="M755.005,-392.419C803.383,-376.654 865,-345.816 865,-291 865,-291 865,-291 865,-121 865,-21.4039 702.49,-10.4172 632.959,-10.2745"/>
<polygon fill="midnightblue" stroke="midnightblue" points="632.617,-6.77629 622.637,-10.3328 632.657,-13.7762 632.617,-6.77629"/>
</g>
<!-- Node3 -->
<g id="node4" class="node"><title>Node3</title>
<polygon fill="none" stroke="#bfbfbf" points="148,-0.5 148,-19.5 190,-19.5 190,-0.5 148,-0.5"/>
<text text-anchor="middle" x="169" y="-7.5" font-family="Helvetica,sans-Serif" font-size="10.00">vector</text>
</g>
<!-- Node0&#45;&gt;Node3 -->
<g id="edge3" class="edge"><title>Node0&#45;&gt;Node3</title>
<path fill="none" stroke="midnightblue" d="M628.926,-401.602C459.678,-388.678 38,-350.507 38,-291 38,-291 38,-291 38,-121 38,-68.9305 99.4489,-36.5866 138.175,-21.373"/>
<polygon fill="midnightblue" stroke="midnightblue" points="139.82,-24.4939 147.953,-17.703 137.36,-17.9404 139.82,-24.4939"/>
</g>
<!-- Node4 -->
<g id="node5" class="node"><title>Node4</title>
<polygon fill="none" stroke="#bfbfbf" points="668.5,-224.5 668.5,-243.5 797.5,-243.5 797.5,-224.5 668.5,-224.5"/>
<text text-anchor="middle" x="733" y="-231.5" font-family="Helvetica,sans-Serif" font-size="10.00">SFML/Graphics/Color.hpp</text>
</g>
<!-- Node0&#45;&gt;Node4 -->
<g id="edge4" class="edge"><title>Node0&#45;&gt;Node4</title>
<path fill="none" stroke="midnightblue" d="M721.406,-392.291C748.149,-374.527 790.474,-341.363 808,-300 811.468,-291.815 812.38,-287.735 808,-280 799.653,-265.258 784.338,-254.819 769.713,-247.732"/>
<polygon fill="midnightblue" stroke="midnightblue" points="770.842,-244.404 760.282,-243.547 768.003,-250.803 770.842,-244.404"/>
</g>
<!-- Node5 -->
<g id="node6" class="node"><title>Node5</title>
<polygon fill="none" stroke="#bfbfbf" points="893,-336.5 893,-355.5 1019,-355.5 1019,-336.5 893,-336.5"/>
<text text-anchor="middle" x="956" y="-343.5" font-family="Helvetica,sans-Serif" font-size="10.00">SFML/Graphics/Font.hpp</text>
</g>
<!-- Node0&#45;&gt;Node5 -->
<g id="edge5" class="edge"><title>Node0&#45;&gt;Node5</title>
<path fill="none" stroke="midnightblue" d="M758.816,-392.475C804.784,-381.874 866.962,-367.534 909.117,-357.812"/>
<polygon fill="midnightblue" stroke="midnightblue" points="910.158,-361.164 919.115,-355.506 908.584,-354.343 910.158,-361.164"/>
</g>
<!-- Node6 -->
<g id="node7" class="node"><title>Node6</title>
<polygon fill="none" stroke="#bfbfbf" points="1037,-336.5 1037,-355.5 1209,-355.5 1209,-336.5 1037,-336.5"/>
<text text-anchor="middle" x="1123" y="-343.5" font-family="Helvetica,sans-Serif" font-size="10.00">SFML/Graphics/RenderWindow.hpp</text>
</g>
<!-- Node0&#45;&gt;Node6 -->
<g id="edge6" class="edge"><title>Node0&#45;&gt;Node6</title>
<path fill="none" stroke="midnightblue" d="M767.229,-396.808C845.566,-385.841 972.526,-368.066 1051.71,-356.981"/>
<polygon fill="midnightblue" stroke="midnightblue" points="1052.65,-360.383 1062.07,-355.53 1051.68,-353.45 1052.65,-360.383"/>
</g>
<!-- Node7 -->
<g id="node8" class="node"><title>Node7</title>
<g id="a_node8"><a xlink:href="_console_stream_8hpp.html" target="_top" xlink:title="Debug/ConsoleStream.hpp">
<polygon fill="none" stroke="black" points="584.5,-336.5 584.5,-355.5 717.5,-355.5 717.5,-336.5 584.5,-336.5"/>
<text text-anchor="middle" x="651" y="-343.5" font-family="Helvetica,sans-Serif" font-size="10.00">Debug/ConsoleStream.hpp</text>
</a>
</g>
</g>
<!-- Node0&#45;&gt;Node7 -->
<g id="edge7" class="edge"><title>Node0&#45;&gt;Node7</title>
<path fill="none" stroke="midnightblue" d="M686.862,-392.399C680.032,-383.753 671.255,-372.642 664.094,-363.576"/>
<polygon fill="midnightblue" stroke="midnightblue" points="666.784,-361.335 657.839,-355.658 661.291,-365.674 666.784,-361.335"/>
</g>
<!-- Node9 -->
<g id="node10" class="node"><title>Node9</title>
<g id="a_node10"><a xlink:href="_identifiable_8hpp.html" target="_top" xlink:title="Types/Identifiable.hpp">
<polygon fill="none" stroke="black" points="367,-280.5 367,-299.5 477,-299.5 477,-280.5 367,-280.5"/>
<text text-anchor="middle" x="422" y="-287.5" font-family="Helvetica,sans-Serif" font-size="10.00">Types/Identifiable.hpp</text>
</a>
</g>
</g>
<!-- Node0&#45;&gt;Node9 -->
<g id="edge40" class="edge"><title>Node0&#45;&gt;Node9</title>
<path fill="none" stroke="midnightblue" d="M663.492,-392.463C638.811,-382.391 604.821,-368.456 575,-356 531.986,-338.034 482.344,-316.864 451.561,-303.684"/>
<polygon fill="midnightblue" stroke="midnightblue" points="452.831,-300.421 442.261,-299.7 450.075,-306.855 452.831,-300.421"/>
</g>
<!-- Node10 -->
<g id="node11" class="node"><title>Node10</title>
<g id="a_node11"><a xlink:href="_togglable_8hpp.html" target="_top" xlink:title="Types/Togglable.hpp">
<polygon fill="none" stroke="black" points="693,-280.5 693,-299.5 799,-299.5 799,-280.5 693,-280.5"/>
<text text-anchor="middle" x="746" y="-287.5" font-family="Helvetica,sans-Serif" font-size="10.00">Types/Togglable.hpp</text>
</a>
</g>
</g>
<!-- Node0&#45;&gt;Node10 -->
<g id="edge41" class="edge"><title>Node0&#45;&gt;Node10</title>
<path fill="none" stroke="midnightblue" d="M706.91,-392.317C712.869,-382.41 720.582,-368.729 726,-356 732.502,-340.723 737.896,-322.616 741.437,-309.398"/>
<polygon fill="midnightblue" stroke="midnightblue" points="744.852,-310.172 743.959,-299.614 738.073,-308.424 744.852,-310.172"/>
</g>
<!-- Node11 -->
<g id="node12" class="node"><title>Node11</title>
<g id="a_node12"><a xlink:href="_trigger_group_8hpp.html" target="_top" xlink:title="Triggers/TriggerGroup.hpp">
<polygon fill="none" stroke="black" points="277,-336.5 277,-355.5 405,-355.5 405,-336.5 277,-336.5"/>
<text text-anchor="middle" x="341" y="-343.5" font-family="Helvetica,sans-Serif" font-size="10.00">Triggers/TriggerGroup.hpp</text>
</a>
</g>
</g>
<!-- Node0&#45;&gt;Node11 -->
<g id="edge15" class="edge"><title>Node0&#45;&gt;Node11</title>
<path fill="none" stroke="midnightblue" d="M628.744,-394.957C563.054,-384.009 465.291,-367.715 402.343,-357.224"/>
<polygon fill="midnightblue" stroke="midnightblue" points="402.605,-353.719 392.166,-355.528 401.454,-360.624 402.605,-353.719"/>
</g>
<!-- Node7&#45;&gt;Node4 -->
<g id="edge8" class="edge"><title>Node7&#45;&gt;Node4</title>
<path fill="none" stroke="midnightblue" d="M654.189,-336.447C659.274,-323.463 670.081,-298.353 684,-280 692.421,-268.896 703.789,-258.263 713.455,-250.123"/>
<polygon fill="midnightblue" stroke="midnightblue" points="715.847,-252.689 721.395,-243.663 711.429,-247.26 715.847,-252.689"/>
</g>
<!-- Node8 -->
<g id="node9" class="node"><title>Node8</title>
<g id="a_node9"><a xlink:href="_console_message_8hpp.html" target="_top" xlink:title="Debug/ConsoleMessage.hpp">
<polygon fill="none" stroke="black" points="495.5,-280.5 495.5,-299.5 636.5,-299.5 636.5,-280.5 495.5,-280.5"/>
<text text-anchor="middle" x="566" y="-287.5" font-family="Helvetica,sans-Serif" font-size="10.00">Debug/ConsoleMessage.hpp</text>
</a>
</g>
</g>
<!-- Node7&#45;&gt;Node8 -->
<g id="edge9" class="edge"><title>Node7&#45;&gt;Node8</title>
<path fill="none" stroke="midnightblue" d="M637.343,-336.324C624.084,-327.9 603.732,-314.971 588.154,-305.074"/>
<polygon fill="midnightblue" stroke="midnightblue" points="589.94,-302.063 579.623,-299.655 586.187,-307.971 589.94,-302.063"/>
</g>
<!-- Node7&#45;&gt;Node9 -->
<g id="edge12" class="edge"><title>Node7&#45;&gt;Node9</title>
<path fill="none" stroke="midnightblue" d="M614.714,-336.444C575.017,-327.083 511.293,-312.056 468.088,-301.868"/>
<polygon fill="midnightblue" stroke="midnightblue" points="468.652,-298.405 458.116,-299.516 467.046,-305.218 468.652,-298.405"/>
</g>
<!-- Node7&#45;&gt;Node10 -->
<g id="edge14" class="edge"><title>Node7&#45;&gt;Node10</title>
<path fill="none" stroke="midnightblue" d="M666.263,-336.324C681.221,-327.822 704.255,-314.729 721.727,-304.797"/>
<polygon fill="midnightblue" stroke="midnightblue" points="723.81,-307.639 730.774,-299.655 720.351,-301.553 723.81,-307.639"/>
</g>
<!-- Node8&#45;&gt;Node2 -->
<g id="edge10" class="edge"><title>Node8&#45;&gt;Node2</title>
<path fill="none" stroke="midnightblue" d="M578.681,-280.351C589.863,-272.146 605.907,-258.886 616,-244 633.282,-218.512 640,-209.795 640,-179 640,-179 640,-179 640,-121 640,-86.8131 623.4,-49.7639 612.143,-28.5707"/>
<polygon fill="midnightblue" stroke="midnightblue" points="615.181,-26.832 607.284,-19.769 609.053,-30.2151 615.181,-26.832"/>
</g>
<!-- Node8&#45;&gt;Node4 -->
<g id="edge11" class="edge"><title>Node8&#45;&gt;Node4</title>
<path fill="none" stroke="midnightblue" d="M592.462,-280.444C620.678,-271.32 665.54,-256.813 696.968,-246.651"/>
<polygon fill="midnightblue" stroke="midnightblue" points="698.224,-249.923 706.662,-243.516 696.07,-243.263 698.224,-249.923"/>
</g>
<!-- Node9&#45;&gt;Node2 -->
<g id="edge13" class="edge"><title>Node9&#45;&gt;Node2</title>
<path fill="none" stroke="midnightblue" d="M472.619,-280.425C525.859,-268.168 602,-239.978 602,-179 602,-179 602,-179 602,-121 602,-88.948 602,-51.6426 602,-29.7489"/>
<polygon fill="midnightblue" stroke="midnightblue" points="605.5,-29.5577 602,-19.5578 598.5,-29.5578 605.5,-29.5577"/>
</g>
<!-- Node12 -->
<g id="node13" class="node"><title>Node12</title>
<g id="a_node13"><a xlink:href="_trigger_delay_8hpp.html" target="_top" xlink:title="Triggers/TriggerDelay.hpp">
<polygon fill="none" stroke="black" points="221.5,-280.5 221.5,-299.5 348.5,-299.5 348.5,-280.5 221.5,-280.5"/>
<text text-anchor="middle" x="285" y="-287.5" font-family="Helvetica,sans-Serif" font-size="10.00">Triggers/TriggerDelay.hpp</text>
</a>
</g>
</g>
<!-- Node11&#45;&gt;Node12 -->
<g id="edge16" class="edge"><title>Node11&#45;&gt;Node12</title>
<path fill="none" stroke="midnightblue" d="M332.003,-336.324C323.806,-328.42 311.494,-316.548 301.528,-306.938"/>
<polygon fill="midnightblue" stroke="midnightblue" points="303.789,-304.256 294.161,-299.834 298.93,-309.295 303.789,-304.256"/>
</g>
<!-- Node13 -->
<g id="node14" class="node"><title>Node13</title>
<g id="a_node14"><a xlink:href="_trigger_8hpp.html" target="_top" xlink:title="Triggers/Trigger.hpp">
<polygon fill="none" stroke="black" points="274,-224.5 274,-243.5 376,-243.5 376,-224.5 274,-224.5"/>
<text text-anchor="middle" x="325" y="-231.5" font-family="Helvetica,sans-Serif" font-size="10.00">Triggers/Trigger.hpp</text>
</a>
</g>
</g>
<!-- Node12&#45;&gt;Node13 -->
<g id="edge17" class="edge"><title>Node12&#45;&gt;Node13</title>
<path fill="none" stroke="midnightblue" d="M291.605,-280.083C297.255,-272.455 305.545,-261.264 312.451,-251.941"/>
<polygon fill="midnightblue" stroke="midnightblue" points="315.378,-253.87 318.518,-243.751 309.753,-249.703 315.378,-253.87"/>
</g>
<!-- Node27 -->
<g id="node28" class="node"><title>Node27</title>
<g id="a_node28"><a xlink:href="_time_utils_8hpp.html" target="_top" xlink:title="Time/TimeUtils.hpp">
<polygon fill="none" stroke="black" points="156,-224.5 156,-243.5 256,-243.5 256,-224.5 156,-224.5"/>
<text text-anchor="middle" x="206" y="-231.5" font-family="Helvetica,sans-Serif" font-size="10.00">Time/TimeUtils.hpp</text>
</a>
</g>
</g>
<!-- Node12&#45;&gt;Node27 -->
<g id="edge39" class="edge"><title>Node12&#45;&gt;Node27</title>
<path fill="none" stroke="midnightblue" d="M272.307,-280.324C260.099,-271.979 241.422,-259.212 226.997,-249.352"/>
<polygon fill="midnightblue" stroke="midnightblue" points="228.892,-246.408 218.661,-243.655 224.942,-252.187 228.892,-246.408"/>
</g>
<!-- Node14 -->
<g id="node15" class="node"><title>Node14</title>
<polygon fill="none" stroke="#bfbfbf" points="530.5,-168.5 530.5,-187.5 573.5,-187.5 573.5,-168.5 530.5,-168.5"/>
<text text-anchor="middle" x="552" y="-175.5" font-family="Helvetica,sans-Serif" font-size="10.00">queue</text>
</g>
<!-- Node13&#45;&gt;Node14 -->
<g id="edge18" class="edge"><title>Node13&#45;&gt;Node14</title>
<path fill="none" stroke="midnightblue" d="M365.328,-224.443C402.973,-216.3 460.925,-203.366 520.416,-188.034"/>
<polygon fill="midnightblue" stroke="midnightblue" points="521.564,-191.353 530.363,-185.452 519.804,-184.577 521.564,-191.353"/>
</g>
<!-- Node15 -->
<g id="node16" class="node"><title>Node15</title>
<polygon fill="none" stroke="#bfbfbf" points="70.5,-112.5 70.5,-131.5 171.5,-131.5 171.5,-112.5 70.5,-112.5"/>
<text text-anchor="middle" x="121" y="-119.5" font-family="Helvetica,sans-Serif" font-size="10.00">kaguya/kaguya.hpp</text>
</g>
<!-- Node13&#45;&gt;Node15 -->
<g id="edge19" class="edge"><title>Node13&#45;&gt;Node15</title>
<path fill="none" stroke="midnightblue" d="M273.884,-224.681C207.873,-213.695 100.706,-194.93 95,-188 83.3567,-173.858 94.4354,-153.838 105.517,-139.763"/>
<polygon fill="midnightblue" stroke="midnightblue" points="108.411,-141.762 112.214,-131.873 103.074,-137.232 108.411,-141.762"/>
</g>
<!-- Node16 -->
<g id="node17" class="node"><title>Node16</title>
<g id="a_node17"><a xlink:href="_global_state_8hpp.html" target="_top" xlink:title="Script/GlobalState.hpp">
<polygon fill="none" stroke="black" points="104.5,-168.5 104.5,-187.5 219.5,-187.5 219.5,-168.5 104.5,-168.5"/>
<text text-anchor="middle" x="162" y="-175.5" font-family="Helvetica,sans-Serif" font-size="10.00">Script/GlobalState.hpp</text>
</a>
</g>
</g>
<!-- Node13&#45;&gt;Node16 -->
<g id="edge20" class="edge"><title>Node13&#45;&gt;Node16</title>
<path fill="none" stroke="midnightblue" d="M299.172,-224.444C271.751,-215.359 228.223,-200.939 197.568,-190.783"/>
<polygon fill="midnightblue" stroke="midnightblue" points="198.3,-187.339 187.707,-187.516 196.099,-193.984 198.3,-187.339"/>
</g>
<!-- Node17 -->
<g id="node18" class="node"><title>Node17</title>
<g id="a_node18"><a xlink:href="_any_8hpp.html" target="_top" xlink:title="Types/Any.hpp">
<polygon fill="none" stroke="black" points="430,-168.5 430,-187.5 512,-187.5 512,-168.5 430,-168.5"/>
<text text-anchor="middle" x="471" y="-175.5" font-family="Helvetica,sans-Serif" font-size="10.00">Types/Any.hpp</text>
</a>
</g>
</g>
<!-- Node13&#45;&gt;Node17 -->
<g id="edge22" class="edge"><title>Node13&#45;&gt;Node17</title>
<path fill="none" stroke="midnightblue" d="M348.134,-224.444C372.482,-215.438 411.007,-201.189 438.423,-191.049"/>
<polygon fill="midnightblue" stroke="midnightblue" points="439.809,-194.268 447.974,-187.516 437.381,-187.703 439.809,-194.268"/>
</g>
<!-- Node20 -->
<g id="node21" class="node"><title>Node20</title>
<g id="a_node21"><a xlink:href="_string_utils_8hpp.html" target="_top" xlink:title="Utils/StringUtils.hpp">
<polygon fill="none" stroke="black" points="321.5,-112.5 321.5,-131.5 424.5,-131.5 424.5,-112.5 321.5,-112.5"/>
<text text-anchor="middle" x="373" y="-119.5" font-family="Helvetica,sans-Serif" font-size="10.00">Utils/StringUtils.hpp</text>
</a>
</g>
</g>
<!-- Node13&#45;&gt;Node20 -->
<g id="edge25" class="edge"><title>Node13&#45;&gt;Node20</title>
<path fill="none" stroke="midnightblue" d="M343.389,-224.471C357.101,-216.997 374.815,-204.71 383,-188 390.133,-173.437 386.273,-155.025 381.423,-141.518"/>
<polygon fill="midnightblue" stroke="midnightblue" points="384.522,-139.848 377.511,-131.905 378.038,-142.487 384.522,-139.848"/>
</g>
<!-- Node22 -->
<g id="node23" class="node"><title>Node22</title>
<g id="a_node23"><a xlink:href="_type_utils_8hpp.html" target="_top" xlink:title="Utils/TypeUtils.hpp">
<polygon fill="none" stroke="black" points="276,-168.5 276,-187.5 374,-187.5 374,-168.5 276,-168.5"/>
<text text-anchor="middle" x="325" y="-175.5" font-family="Helvetica,sans-Serif" font-size="10.00">Utils/TypeUtils.hpp</text>
</a>
</g>
</g>
<!-- Node13&#45;&gt;Node22 -->
<g id="edge29" class="edge"><title>Node13&#45;&gt;Node22</title>
<path fill="none" stroke="midnightblue" d="M325,-224.083C325,-217.006 325,-206.861 325,-197.986"/>
<polygon fill="midnightblue" stroke="midnightblue" points="328.5,-197.751 325,-187.751 321.5,-197.751 328.5,-197.751"/>
</g>
<!-- Node23 -->
<g id="node24" class="node"><title>Node23</title>
<g id="a_node24"><a xlink:href="_vector_utils_8hpp.html" target="_top" xlink:title="Utils/VectorUtils.hpp">
<polygon fill="none" stroke="black" points="196,-112.5 196,-131.5 302,-131.5 302,-112.5 196,-112.5"/>
<text text-anchor="middle" x="249" y="-119.5" font-family="Helvetica,sans-Serif" font-size="10.00">Utils/VectorUtils.hpp</text>
</a>
</g>
</g>
<!-- Node13&#45;&gt;Node23 -->
<g id="edge38" class="edge"><title>Node13&#45;&gt;Node23</title>
<path fill="none" stroke="midnightblue" d="M308.878,-224.411C295.728,-216.6 277.645,-203.879 267,-188 257.729,-174.17 253.204,-155.651 251.013,-141.918"/>
<polygon fill="midnightblue" stroke="midnightblue" points="254.445,-141.173 249.668,-131.716 247.505,-142.088 254.445,-141.173"/>
</g>
<!-- Node16&#45;&gt;Node15 -->
<g id="edge21" class="edge"><title>Node16&#45;&gt;Node15</title>
<path fill="none" stroke="midnightblue" d="M155.23,-168.083C149.438,-160.455 140.942,-149.264 133.862,-139.941"/>
<polygon fill="midnightblue" stroke="midnightblue" points="136.479,-137.599 127.644,-131.751 130.904,-141.832 136.479,-137.599"/>
</g>
<!-- Node18 -->
<g id="node19" class="node"><title>Node18</title>
<polygon fill="none" stroke="#bfbfbf" points="512,-112.5 512,-131.5 574,-131.5 574,-112.5 512,-112.5"/>
<text text-anchor="middle" x="543" y="-119.5" font-family="Helvetica,sans-Serif" font-size="10.00">type_traits</text>
</g>
<!-- Node17&#45;&gt;Node18 -->
<g id="edge23" class="edge"><title>Node17&#45;&gt;Node18</title>
<path fill="none" stroke="midnightblue" d="M482.568,-168.324C493.42,-160.185 509.881,-147.839 522.883,-138.087"/>
<polygon fill="midnightblue" stroke="midnightblue" points="525.321,-140.634 531.221,-131.834 521.121,-135.034 525.321,-140.634"/>
</g>
<!-- Node19 -->
<g id="node20" class="node"><title>Node19</title>
<polygon fill="none" stroke="#bfbfbf" points="444,-112.5 444,-131.5 494,-131.5 494,-112.5 444,-112.5"/>
<text text-anchor="middle" x="469" y="-119.5" font-family="Helvetica,sans-Serif" font-size="10.00">typeinfo</text>
</g>
<!-- Node17&#45;&gt;Node19 -->
<g id="edge24" class="edge"><title>Node17&#45;&gt;Node19</title>
<path fill="none" stroke="midnightblue" d="M470.67,-168.083C470.408,-161.006 470.032,-150.861 469.703,-141.986"/>
<polygon fill="midnightblue" stroke="midnightblue" points="473.192,-141.615 469.324,-131.751 466.197,-141.874 473.192,-141.615"/>
</g>
<!-- Node20&#45;&gt;Node2 -->
<g id="edge27" class="edge"><title>Node20&#45;&gt;Node2</title>
<path fill="none" stroke="midnightblue" d="M390.969,-112.368C431.018,-93.131 527.788,-46.6478 575.079,-23.9314"/>
<polygon fill="midnightblue" stroke="midnightblue" points="576.616,-27.0762 584.114,-19.5914 573.585,-20.7664 576.616,-27.0762"/>
</g>
<!-- Node20&#45;&gt;Node3 -->
<g id="edge28" class="edge"><title>Node20&#45;&gt;Node3</title>
<path fill="none" stroke="midnightblue" d="M327.833,-112.462C276.406,-102.364 198.158,-85.7036 188,-76 175.523,-64.0812 171.107,-44.4646 169.611,-29.894"/>
<polygon fill="midnightblue" stroke="midnightblue" points="173.079,-29.2861 168.938,-19.5339 166.093,-29.7397 173.079,-29.2861"/>
</g>
<!-- Node21 -->
<g id="node22" class="node"><title>Node21</title>
<polygon fill="none" stroke="#bfbfbf" points="354,-56.5 354,-75.5 392,-75.5 392,-56.5 354,-56.5"/>
<text text-anchor="middle" x="373" y="-63.5" font-family="Helvetica,sans-Serif" font-size="10.00">tuple</text>
</g>
<!-- Node20&#45;&gt;Node21 -->
<g id="edge26" class="edge"><title>Node20&#45;&gt;Node21</title>
<path fill="none" stroke="midnightblue" d="M373,-112.083C373,-105.006 373,-94.8611 373,-85.9865"/>
<polygon fill="midnightblue" stroke="midnightblue" points="376.5,-85.751 373,-75.7511 369.5,-85.7511 376.5,-85.751"/>
</g>
<!-- Node22&#45;&gt;Node20 -->
<g id="edge30" class="edge"><title>Node22&#45;&gt;Node20</title>
<path fill="none" stroke="midnightblue" d="M332.926,-168.083C339.846,-160.298 350.065,-148.801 358.452,-139.367"/>
<polygon fill="midnightblue" stroke="midnightblue" points="361.194,-141.55 365.221,-131.751 355.962,-136.9 361.194,-141.55"/>
</g>
<!-- Node22&#45;&gt;Node23 -->
<g id="edge31" class="edge"><title>Node22&#45;&gt;Node23</title>
<path fill="none" stroke="midnightblue" d="M312.789,-168.324C301.224,-160.107 283.625,-147.602 269.839,-137.807"/>
<polygon fill="midnightblue" stroke="midnightblue" points="271.612,-134.773 261.433,-131.834 267.557,-140.479 271.612,-134.773"/>
</g>
<!-- Node24 -->
<g id="node25" class="node"><title>Node24</title>
<g id="a_node25"><a xlink:href="_error_handler_8hpp.html" target="_top" xlink:title="vili/ErrorHandler.hpp">
<polygon fill="none" stroke="black" points="197.5,-56.5 197.5,-75.5 300.5,-75.5 300.5,-56.5 197.5,-56.5"/>
<text text-anchor="middle" x="249" y="-63.5" font-family="Helvetica,sans-Serif" font-size="10.00">vili/ErrorHandler.hpp</text>
</a>
</g>
</g>
<!-- Node23&#45;&gt;Node24 -->
<g id="edge32" class="edge"><title>Node23&#45;&gt;Node24</title>
<path fill="none" stroke="midnightblue" d="M249,-112.083C249,-105.006 249,-94.8611 249,-85.9865"/>
<polygon fill="midnightblue" stroke="midnightblue" points="252.5,-85.751 249,-75.7511 245.5,-85.7511 252.5,-85.751"/>
</g>
<!-- Node24&#45;&gt;Node1 -->
<g id="edge35" class="edge"><title>Node24&#45;&gt;Node1</title>
<path fill="none" stroke="midnightblue" d="M218.419,-56.4435C181.27,-46.0496 119.156,-28.6707 83.4708,-18.6861"/>
<polygon fill="midnightblue" stroke="midnightblue" points="84.2982,-15.2833 73.725,-15.9593 82.4121,-22.0244 84.2982,-15.2833"/>
</g>
<!-- Node24&#45;&gt;Node2 -->
<g id="edge33" class="edge"><title>Node24&#45;&gt;Node2</title>
<path fill="none" stroke="midnightblue" d="M300.707,-57.0901C375.318,-45.6766 510.841,-24.945 571.371,-15.6855"/>
<polygon fill="midnightblue" stroke="midnightblue" points="572.078,-19.1182 581.433,-14.1462 571.019,-12.1987 572.078,-19.1182"/>
</g>
<!-- Node24&#45;&gt;Node3 -->
<g id="edge34" class="edge"><title>Node24&#45;&gt;Node3</title>
<path fill="none" stroke="midnightblue" d="M236.147,-56.324C223.784,-47.979 204.87,-35.2122 190.263,-25.3524"/>
<polygon fill="midnightblue" stroke="midnightblue" points="192.068,-22.3483 181.821,-19.6545 188.152,-28.1503 192.068,-22.3483"/>
</g>
<!-- Node25 -->
<g id="node26" class="node"><title>Node25</title>
<polygon fill="none" stroke="#bfbfbf" points="215,-0.5 215,-19.5 269,-19.5 269,-0.5 215,-0.5"/>
<text text-anchor="middle" x="242" y="-7.5" font-family="Helvetica,sans-Serif" font-size="10.00">iostream</text>
</g>
<!-- Node24&#45;&gt;Node25 -->
<g id="edge36" class="edge"><title>Node24&#45;&gt;Node25</title>
<path fill="none" stroke="midnightblue" d="M247.844,-56.083C246.916,-48.9272 245.582,-38.6353 244.423,-29.6911"/>
<polygon fill="midnightblue" stroke="midnightblue" points="247.891,-29.2181 243.134,-19.7511 240.949,-30.1181 247.891,-29.2181"/>
</g>
<!-- Node26 -->
<g id="node27" class="node"><title>Node26</title>
<polygon fill="none" stroke="#bfbfbf" points="287.5,-0.5 287.5,-19.5 346.5,-19.5 346.5,-0.5 287.5,-0.5"/>
<text text-anchor="middle" x="317" y="-7.5" font-family="Helvetica,sans-Serif" font-size="10.00">exception</text>
</g>
<!-- Node24&#45;&gt;Node26 -->
<g id="edge37" class="edge"><title>Node24&#45;&gt;Node26</title>
<path fill="none" stroke="midnightblue" d="M259.925,-56.324C270.175,-48.1849 285.721,-35.8395 298.001,-26.0874"/>
<polygon fill="midnightblue" stroke="midnightblue" points="300.221,-28.7937 305.876,-19.8339 295.868,-23.3119 300.221,-28.7937"/>
</g>
</g>
</svg>
        <g id="navigator" transform="translate(0 0)" fill="#404254">
                <rect fill="#f2f5e9" fill-opacity="0.5" stroke="#606060" stroke-width=".5" x="0" y="0" width="60" height="60"/>
                <use id="zoomplus" xlink:href="#zoomPlus" x="17" y="9" onmousedown="handleZoom(evt,'in')"/>
                <use id="zoomminus" xlink:href="#zoomMin" x="42" y="9" onmousedown="handleZoom(evt,'out')"/>
                <use id="reset" xlink:href="#resetDef" x="30" y="36" onmousedown="handleReset()"/>
                <g id="arrowUp" xlink:href="#dirArrow" transform="translate(30 24)" onmousedown="handlePan(0,-1)">
                  <use xlink:href="#rim" fill="#404040">
                        <set attributeName="fill" to="#808080" begin="arrowUp.mouseover" end="arrowUp.mouseout"/>
                  </use>
                  <path fill="none" stroke="white" stroke-width="1.5" d="M0,-3.0v7 M-2.5,-0.5L0,-3.0L2.5,-0.5"/>
                </g>
                <g id="arrowRight" xlink:href="#dirArrow" transform="rotate(90) translate(36 -43)" onmousedown="handlePan(1,0)">
                  <use xlink:href="#rim" fill="#404040">
                        <set attributeName="fill" to="#808080" begin="arrowRight.mouseover" end="arrowRight.mouseout"/>
                  </use>
                  <path fill="none" stroke="white" stroke-width="1.5" d="M0,-3.0v7 M-2.5,-0.5L0,-3.0L2.5,-0.5"/>
                </g>
                <g id="arrowDown" xlink:href="#dirArrow" transform="rotate(180) translate(-30 -48)" onmousedown="handlePan(0,1)">
                  <use xlink:href="#rim" fill="#404040">
                        <set attributeName="fill" to="#808080" begin="arrowDown.mouseover" end="arrowDown.mouseout"/>
                  </use>
                  <path fill="none" stroke="white" stroke-width="1.5" d="M0,-3.0v7 M-2.5,-0.5L0,-3.0L2.5,-0.5"/>
                </g>
                <g id="arrowLeft" xlink:href="#dirArrow" transform="rotate(270) translate(-36 17)" onmousedown="handlePan(-1,0)">
                  <use xlink:href="#rim" fill="#404040">
                        <set attributeName="fill" to="#808080" begin="arrowLeft.mouseover" end="arrowLeft.mouseout"/>
                  </use>
                  <path fill="none" stroke="white" stroke-width="1.5" d="M0,-3.0v7 M-2.5,-0.5L0,-3.0L2.5,-0.5"/>
                </g>
        </g>
        <svg viewBox="0 0 15 15" width="100%" height="30px" preserveAspectRatio="xMaxYMin meet">
         <g id="arrow_out" transform="scale(0.3 0.3)">
          <a xlink:href="_console_8hpp__incl_org.svg" target="_base">
           <rect id="button" ry="5" rx="5" y="6" x="6" height="38" width="38"
                fill="#f2f5e9" fill-opacity="0.5" stroke="#606060" stroke-width="1.0"/>
           <path id="arrow"
             d="M 11.500037,31.436501 C 11.940474,20.09759 22.043105,11.32322 32.158766,21.979434 L 37.068811,17.246167 C 37.068811,17.246167 37.088388,32 37.088388,32 L 22.160133,31.978069 C 22.160133,31.978069 26.997745,27.140456 26.997745,27.140456 C 18.528582,18.264221 13.291696,25.230495 11.500037,31.436501 z"
             style="fill:#404040;"/>
          </a>
         </g>
        </svg>
</svg>
