<?xml version="1.0" encoding="UTF-8" standalone="no"?>
<!DOCTYPE svg PUBLIC "-//W3C//DTD SVG 1.1//EN"
 "http://www.w3.org/Graphics/SVG/1.1/DTD/svg11.dtd">
<!-- Generated by graphviz version 2.38.0 (20140413.2041)
 -->
<!-- Title: E:/Dev/ObEngine/Git/include/Debug/Console.hpp Pages: 1 -->
<svg width="1066pt" height="184pt"
 viewBox="0.00 0.00 1065.50 184.00" xmlns="http://www.w3.org/2000/svg" xmlns:xlink="http://www.w3.org/1999/xlink">
<g id="graph0" class="graph" transform="scale(1 1) rotate(0) translate(4 180)">
<title>E:/Dev/ObEngine/Git/include/Debug/Console.hpp</title>
<!-- Node28 -->
<g id="node1" class="node"><title>Node28</title>
<polygon fill="#bfbfbf" stroke="black" points="451,-145.5 451,-175.5 589,-175.5 589,-145.5 451,-145.5"/>
<text text-anchor="start" x="459" y="-163.5" font-family="Helvetica,sans-Serif" font-size="10.00">E:/Dev/ObEngine/Git</text>
<text text-anchor="middle" x="520" y="-152.5" font-family="Helvetica,sans-Serif" font-size="10.00">/include/Debug/Console.hpp</text>
</g>
<!-- Node29 -->
<g id="node2" class="node"><title>Node29</title>
<g id="a_node2"><a xlink:href="_editor_global_actions_8hpp.html" target="_top" xlink:title="E:/Dev/ObEngine/Git\l/include/Editor/EditorGlobal\lActions.hpp">
<polygon fill="white" stroke="black" points="88.5,-67.5 88.5,-108.5 223.5,-108.5 223.5,-67.5 88.5,-67.5"/>
<text text-anchor="start" x="96.5" y="-96.5" font-family="Helvetica,sans-Serif" font-size="10.00">E:/Dev/ObEngine/Git</text>
<text text-anchor="start" x="96.5" y="-85.5" font-family="Helvetica,sans-Serif" font-size="10.00">/include/Editor/EditorGlobal</text>
<text text-anchor="middle" x="156" y="-74.5" font-family="Helvetica,sans-Serif" font-size="10.00">Actions.hpp</text>
</a>
</g>
</g>
<!-- Node28&#45;&gt;Node29 -->
<g id="edge1" class="edge"><title>Node28&#45;&gt;Node29</title>
<path fill="none" stroke="midnightblue" d="M440.843,-146.675C384.178,-137.165 306.171,-123.403 238,-109 233.412,-108.031 228.69,-106.991 223.939,-105.914"/>
<polygon fill="midnightblue" stroke="midnightblue" points="440.371,-150.144 450.812,-148.341 441.525,-143.24 440.371,-150.144"/>
</g>
<!-- Node31 -->
<g id="node4" class="node"><title>Node31</title>
<g id="a_node4"><a xlink:href="_map_editor_8cpp.html" target="_top" xlink:title="E:/Dev/ObEngine/Git\l/src/Editor/MapEditor.cpp">
<polygon fill="white" stroke="black" points="188,-0.5 188,-30.5 316,-30.5 316,-0.5 188,-0.5"/>
<text text-anchor="start" x="196" y="-18.5" font-family="Helvetica,sans-Serif" font-size="10.00">E:/Dev/ObEngine/Git</text>
<text text-anchor="middle" x="252" y="-7.5" font-family="Helvetica,sans-Serif" font-size="10.00">/src/Editor/MapEditor.cpp</text>
</a>
</g>
</g>
<!-- Node28&#45;&gt;Node31 -->
<g id="edge8" class="edge"><title>Node28&#45;&gt;Node31</title>
<path fill="none" stroke="midnightblue" d="M440.879,-152.739C377.561,-145.683 295.587,-132.304 272,-109 250.962,-88.2143 249.621,-50.9279 250.679,-30.621"/>
<polygon fill="midnightblue" stroke="midnightblue" points="440.551,-156.224 450.869,-153.818 441.302,-149.264 440.551,-156.224"/>
</g>
<!-- Node32 -->
<g id="node5" class="node"><title>Node32</title>
<g id="a_node5"><a xlink:href="_debug_bindings_8cpp.html" target="_top" xlink:title="E:/Dev/ObEngine/Git\l/src/Bindings/DebugBindings.cpp">
<polygon fill="white" stroke="black" points="280.5,-73 280.5,-103 441.5,-103 441.5,-73 280.5,-73"/>
<text text-anchor="start" x="288.5" y="-91" font-family="Helvetica,sans-Serif" font-size="10.00">E:/Dev/ObEngine/Git</text>
<text text-anchor="middle" x="361" y="-80" font-family="Helvetica,sans-Serif" font-size="10.00">/src/Bindings/DebugBindings.cpp</text>
</a>
</g>
</g>
<!-- Node28&#45;&gt;Node32 -->
<g id="edge4" class="edge"><title>Node28&#45;&gt;Node32</title>
<path fill="none" stroke="midnightblue" d="M479.05,-141.343C452.17,-129.424 417.531,-114.066 392.739,-103.073"/>
<polygon fill="midnightblue" stroke="midnightblue" points="477.646,-144.549 488.206,-145.403 480.483,-138.15 477.646,-144.549"/>
</g>
<!-- Node33 -->
<g id="node6" class="node"><title>Node33</title>
<g id="a_node6"><a xlink:href="_console_8cpp.html" target="_top" xlink:title="E:/Dev/ObEngine/Git\l/src/Debug/Console.cpp">
<polygon fill="white" stroke="black" points="459.5,-73 459.5,-103 580.5,-103 580.5,-73 459.5,-73"/>
<text text-anchor="start" x="467.5" y="-91" font-family="Helvetica,sans-Serif" font-size="10.00">E:/Dev/ObEngine/Git</text>
<text text-anchor="middle" x="520" y="-80" font-family="Helvetica,sans-Serif" font-size="10.00">/src/Debug/Console.cpp</text>
</a>
</g>
</g>
<!-- Node28&#45;&gt;Node33 -->
<g id="edge5" class="edge"><title>Node28&#45;&gt;Node33</title>
<path fill="none" stroke="midnightblue" d="M520,-135.232C520,-124.568 520,-112.414 520,-103.246"/>
<polygon fill="midnightblue" stroke="midnightblue" points="516.5,-135.233 520,-145.233 523.5,-135.233 516.5,-135.233"/>
</g>
<!-- Node34 -->
<g id="node7" class="node"><title>Node34</title>
<g id="a_node7"><a xlink:href="_console_message_8cpp.html" target="_top" xlink:title="E:/Dev/ObEngine/Git\l/src/Debug/ConsoleMessage.cpp">
<polygon fill="white" stroke="black" points="598.5,-73 598.5,-103 759.5,-103 759.5,-73 598.5,-73"/>
<text text-anchor="start" x="606.5" y="-91" font-family="Helvetica,sans-Serif" font-size="10.00">E:/Dev/ObEngine/Git</text>
<text text-anchor="middle" x="679" y="-80" font-family="Helvetica,sans-Serif" font-size="10.00">/src/Debug/ConsoleMessage.cpp</text>
</a>
</g>
</g>
<!-- Node28&#45;&gt;Node34 -->
<g id="edge6" class="edge"><title>Node28&#45;&gt;Node34</title>
<path fill="none" stroke="midnightblue" d="M560.95,-141.343C587.83,-129.424 622.469,-114.066 647.261,-103.073"/>
<polygon fill="midnightblue" stroke="midnightblue" points="559.517,-138.15 551.794,-145.403 562.354,-144.549 559.517,-138.15"/>
</g>
<!-- Node35 -->
<g id="node8" class="node"><title>Node35</title>
<g id="a_node8"><a xlink:href="_console_stream_8cpp.html" target="_top" xlink:title="E:/Dev/ObEngine/Git\l/src/Debug/ConsoleStream.cpp">
<polygon fill="white" stroke="black" points="778,-73 778,-103 930,-103 930,-73 778,-73"/>
<text text-anchor="start" x="786" y="-91" font-family="Helvetica,sans-Serif" font-size="10.00">E:/Dev/ObEngine/Git</text>
<text text-anchor="middle" x="854" y="-80" font-family="Helvetica,sans-Serif" font-size="10.00">/src/Debug/ConsoleStream.cpp</text>
</a>
</g>
</g>
<!-- Node28&#45;&gt;Node35 -->
<g id="edge7" class="edge"><title>Node28&#45;&gt;Node35</title>
<path fill="none" stroke="midnightblue" d="M598.992,-144.129C648.014,-134.429 712.262,-121.425 769,-109 777.589,-107.119 786.65,-105.064 795.527,-103.01"/>
<polygon fill="midnightblue" stroke="midnightblue" points="598.217,-140.715 589.085,-146.086 599.573,-147.582 598.217,-140.715"/>
</g>
<!-- Node36 -->
<g id="node9" class="node"><title>Node36</title>
<g id="a_node9"><a xlink:href="_script_8cpp.html" target="_top" xlink:title="E:/Dev/ObEngine/Git\l/src/Script/Script.cpp">
<polygon fill="white" stroke="black" points="948.5,-73 948.5,-103 1057.5,-103 1057.5,-73 948.5,-73"/>
<text text-anchor="start" x="956.5" y="-91" font-family="Helvetica,sans-Serif" font-size="10.00">E:/Dev/ObEngine/Git</text>
<text text-anchor="middle" x="1003" y="-80" font-family="Helvetica,sans-Serif" font-size="10.00">/src/Script/Script.cpp</text>
</a>
</g>
</g>
<!-- Node28&#45;&gt;Node36 -->
<g id="edge9" class="edge"><title>Node28&#45;&gt;Node36</title>
<path fill="none" stroke="midnightblue" d="M599.296,-154.285C684.09,-147.702 822.144,-134.08 939,-109 946.512,-107.388 954.405,-105.277 961.982,-103.033"/>
<polygon fill="midnightblue" stroke="midnightblue" points="598.929,-150.803 589.225,-155.053 599.462,-157.783 598.929,-150.803"/>
</g>
<!-- Node30 -->
<g id="node3" class="node"><title>Node30</title>
<g id="a_node3"><a xlink:href="_editor_global_actions_8cpp.html" target="_top" xlink:title="E:/Dev/ObEngine/Git\l/src/Editor/EditorGlobalActions.cpp">
<polygon fill="white" stroke="black" points="0,-0.5 0,-30.5 170,-30.5 170,-0.5 0,-0.5"/>
<text text-anchor="start" x="8" y="-18.5" font-family="Helvetica,sans-Serif" font-size="10.00">E:/Dev/ObEngine/Git</text>
<text text-anchor="middle" x="85" y="-7.5" font-family="Helvetica,sans-Serif" font-size="10.00">/src/Editor/EditorGlobalActions.cpp</text>
</a>
</g>
</g>
<!-- Node29&#45;&gt;Node30 -->
<g id="edge2" class="edge"><title>Node29&#45;&gt;Node30</title>
<path fill="none" stroke="midnightblue" d="M129.121,-60.3098C119.06,-50.3198 108.016,-39.3535 99.4937,-30.8916"/>
<polygon fill="midnightblue" stroke="midnightblue" points="126.66,-62.7994 136.223,-67.3618 131.593,-57.8321 126.66,-62.7994"/>
</g>
<!-- Node29&#45;&gt;Node31 -->
<g id="edge3" class="edge"><title>Node29&#45;&gt;Node31</title>
<path fill="none" stroke="midnightblue" d="M190.824,-61.4264C204.944,-51.0568 220.713,-39.4763 232.705,-30.67"/>
<polygon fill="midnightblue" stroke="midnightblue" points="188.73,-58.6217 182.741,-67.3618 192.873,-64.2637 188.73,-58.6217"/>
</g>
</g>
</svg>
