<?xml version="1.0" encoding="UTF-8" standalone="no"?>
<!DOCTYPE svg PUBLIC "-//W3C//DTD SVG 1.1//EN"
 "http://www.w3.org/Graphics/SVG/1.1/DTD/svg11.dtd">
<!-- Generated by graphviz version 2.38.0 (20140413.2041)
 -->
<!-- Title: E:/Dev/ObEngine/Git/include/Debug/ConsoleMessage.hpp Pages: 1 -->
<svg width="214pt" height="95pt"
 viewBox="0.00 0.00 213.50 95.00" xmlns="http://www.w3.org/2000/svg" xmlns:xlink="http://www.w3.org/1999/xlink">
<g id="graph0" class="graph" transform="scale(1 1) rotate(0) translate(4 91)">
<title>E:/Dev/ObEngine/Git/include/Debug/ConsoleMessage.hpp</title>
<!-- Node0 -->
<g id="node1" class="node"><title>Node0</title>
<polygon fill="#bfbfbf" stroke="black" points="0,-56.5 0,-86.5 178,-86.5 178,-56.5 0,-56.5"/>
<text text-anchor="start" x="8" y="-74.5" font-family="Helvetica,sans-Serif" font-size="10.00">E:/Dev/ObEngine/Git</text>
<text text-anchor="middle" x="89" y="-63.5" font-family="Helvetica,sans-Serif" font-size="10.00">/include/Debug/ConsoleMessage.hpp</text>
</g>
<!-- Node1 -->
<g id="node2" class="node"><title>Node1</title>
<polygon fill="white" stroke="#bfbfbf" points="17.5,-0.5 17.5,-19.5 58.5,-19.5 58.5,-0.5 17.5,-0.5"/>
<text text-anchor="middle" x="38" y="-7.5" font-family="Helvetica,sans-Serif" font-size="10.00">string</text>
</g>
<!-- Node0&#45;&gt;Node1 -->
<g id="edge1" class="edge"><title>Node0&#45;&gt;Node1</title>
<path fill="none" stroke="midnightblue" d="M76.9137,-56.3993C69.4264,-47.6641 59.7822,-36.4126 51.9682,-27.2962"/>
<polygon fill="midnightblue" stroke="midnightblue" points="54.5863,-24.9726 45.421,-19.6578 49.2715,-29.5281 54.5863,-24.9726"/>
</g>
<!-- Node2 -->
<g id="node3" class="node"><title>Node2</title>
<polygon fill="white" stroke="#bfbfbf" points="76.5,-0.5 76.5,-19.5 205.5,-19.5 205.5,-0.5 76.5,-0.5"/>
<text text-anchor="middle" x="141" y="-7.5" font-family="Helvetica,sans-Serif" font-size="10.00">SFML/Graphics/Color.hpp</text>
</g>
<!-- Node0&#45;&gt;Node2 -->
<g id="edge2" class="edge"><title>Node0&#45;&gt;Node2</title>
<path fill="none" stroke="midnightblue" d="M101.323,-56.3993C108.957,-47.6641 118.791,-36.4126 126.758,-27.2962"/>
<polygon fill="midnightblue" stroke="midnightblue" points="129.488,-29.4907 133.434,-19.6578 124.218,-24.8843 129.488,-29.4907"/>
</g>
</g>
</svg>
