<?xml version="1.0" encoding="UTF-8" standalone="no"?>
<!DOCTYPE svg PUBLIC "-//W3C//DTD SVG 1.1//EN"
 "http://www.w3.org/Graphics/SVG/1.1/DTD/svg11.dtd">
<!-- Generated by graphviz version 2.38.0 (20140413.2041)
 -->
<!-- Title: E:/Dev/ObEngine/Git/include/DataParserLuaBridge.hpp Pages: 1 -->
<!--zoomable 599 -->
<svg id="main" version="1.1" xmlns="http://www.w3.org/2000/svg" xmlns:xlink="http://www.w3.org/1999/xlink" xml:space="preserve" onload="init(evt)">
<style type="text/css"><![CDATA[
.edge:hover path { stroke: red; }
.edge:hover polygon { stroke: red; fill: red; }
.edge path { stroke: white; }
.edge polygon { stroke: white; fill: white; }
.node polygon { fill: white; }
]]></style>
<script type="text/javascript"><![CDATA[
var edges = document.getElementsByTagName('g');
if (edges && edges.length) {
  for (var i=0;i<edges.length;i++) {
    if (edges[i].id.substr(0,4)=='edge') {
      edges[i].setAttribute('class','edge');
    }
  }
}
]]></script>
        <defs>
                <circle id="rim" cx="0" cy="0" r="7"/>
                <circle id="rim2" cx="0" cy="0" r="3.5"/>
                <g id="zoomPlus">
                        <use xlink:href="#rim" fill="#404040">
                                <set attributeName="fill" to="#808080" begin="zoomplus.mouseover" end="zoomplus.mouseout"/>
                        </use>
                        <path d="M-4,0h8M0,-4v8" fill="none" stroke="white" stroke-width="1.5" pointer-events="none"/>
                </g>
                <g id="zoomMin">
                        <use xlink:href="#rim" fill="#404040">
                                <set attributeName="fill" to="#808080" begin="zoomminus.mouseover" end="zoomminus.mouseout"/>
                        </use>
                        <path d="M-4,0h8" fill="none" stroke="white" stroke-width="1.5" pointer-events="none"/>
                </g>
                <g id="dirArrow">
                        <path fill="none" stroke="white" stroke-width="1.5" d="M0,-3.0v7 M-2.5,-0.5L0,-3.0L2.5,-0.5"/>
                </g>
               <g id="resetDef">
                       <use xlink:href="#rim2" fill="#404040">
                               <set attributeName="fill" to="#808080" begin="reset.mouseover" end="reset.mouseout"/>
                       </use>
               </g>
        </defs>

<script type="text/javascript">
var viewWidth = 1553;
var viewHeight = 599;
var sectionId = 'dynsection-0';
</script>
<script xlink:href="svgpan.js"/>
<svg id="graph" class="graph">
<g id="viewport">
<title>E:/Dev/ObEngine/Git/include/DataParserLuaBridge.hpp</title>
<!-- Node0 -->
<g id="node1" class="node"><title>Node0</title>
<polygon fill="#bfbfbf" stroke="black" points="530,-560.5 530,-590.5 694,-590.5 694,-560.5 530,-560.5"/>
<text text-anchor="start" x="538" y="-578.5" font-family="Helvetica,sans-Serif" font-size="10.00">E:/Dev/ObEngine/Git</text>
<text text-anchor="middle" x="612" y="-567.5" font-family="Helvetica,sans-Serif" font-size="10.00">/include/DataParserLuaBridge.hpp</text>
</g>
<!-- Node1 -->
<g id="node2" class="node"><title>Node1</title>
<polygon fill="none" stroke="#bfbfbf" points="461.5,-504.5 461.5,-523.5 562.5,-523.5 562.5,-504.5 461.5,-504.5"/>
<text text-anchor="middle" x="512" y="-511.5" font-family="Helvetica,sans-Serif" font-size="10.00">kaguya/kaguya.hpp</text>
</g>
<!-- Node0&#45;&gt;Node1 -->
<g id="edge1" class="edge"><title>Node0&#45;&gt;Node1</title>
<path fill="none" stroke="midnightblue" d="M588.301,-560.399C572.272,-550.862 551.201,-538.325 535.264,-528.842"/>
<polygon fill="midnightblue" stroke="midnightblue" points="536.934,-525.763 526.551,-523.658 533.355,-531.779 536.934,-525.763"/>
</g>
<!-- Node2 -->
<g id="node3" class="node"><title>Node2</title>
<g id="a_node3"><a xlink:href="_vili_8hpp.html" target="_top" xlink:title="vili/Vili.hpp">
<polygon fill="none" stroke="black" points="581,-504.5 581,-523.5 643,-523.5 643,-504.5 581,-504.5"/>
<text text-anchor="middle" x="612" y="-511.5" font-family="Helvetica,sans-Serif" font-size="10.00">vili/Vili.hpp</text>
</a>
</g>
</g>
<!-- Node0&#45;&gt;Node2 -->
<g id="edge2" class="edge"><title>Node0&#45;&gt;Node2</title>
<path fill="none" stroke="midnightblue" d="M612,-560.399C612,-552.466 612,-542.458 612,-533.858"/>
<polygon fill="midnightblue" stroke="midnightblue" points="615.5,-533.658 612,-523.658 608.5,-533.658 615.5,-533.658"/>
</g>
<!-- Node26 -->
<g id="node27" class="node"><title>Node26</title>
<g id="a_node27"><a xlink:href="include_2_functions_8hpp.html" target="_top" xlink:title="Functions.hpp">
<polygon fill="none" stroke="black" points="1011,-168.5 1011,-187.5 1089,-187.5 1089,-168.5 1011,-168.5"/>
<text text-anchor="middle" x="1050" y="-175.5" font-family="Helvetica,sans-Serif" font-size="10.00">Functions.hpp</text>
</a>
</g>
</g>
<!-- Node0&#45;&gt;Node26 -->
<g id="edge48" class="edge"><title>Node0&#45;&gt;Node26</title>
<path fill="none" stroke="midnightblue" d="M694.09,-560.948C787.125,-543.207 926,-508.445 926,-459 926,-459 926,-459 926,-289 926,-240.261 980.274,-207.866 1017.01,-191.521"/>
<polygon fill="midnightblue" stroke="midnightblue" points="1018.56,-194.665 1026.38,-187.524 1015.81,-188.226 1018.56,-194.665"/>
</g>
<!-- Node3 -->
<g id="node4" class="node"><title>Node3</title>
<g id="a_node4"><a xlink:href="_data_parser_8hpp.html" target="_top" xlink:title="vili/DataParser.hpp">
<polygon fill="none" stroke="black" points="335,-448.5 335,-467.5 433,-467.5 433,-448.5 335,-448.5"/>
<text text-anchor="middle" x="384" y="-455.5" font-family="Helvetica,sans-Serif" font-size="10.00">vili/DataParser.hpp</text>
</a>
</g>
</g>
<!-- Node2&#45;&gt;Node3 -->
<g id="edge3" class="edge"><title>Node2&#45;&gt;Node3</title>
<path fill="none" stroke="midnightblue" d="M580.776,-505.605C541.771,-496.367 474.718,-480.486 429.875,-469.865"/>
<polygon fill="midnightblue" stroke="midnightblue" points="430.641,-466.45 420.104,-467.551 429.028,-473.261 430.641,-466.45"/>
</g>
<!-- Node10 -->
<g id="node11" class="node"><title>Node10</title>
<g id="a_node11"><a xlink:href="_error_handler_8hpp.html" target="_top" xlink:title="../ErrorHandler.hpp">
<polygon fill="none" stroke="black" points="524,-112.5 524,-131.5 622,-131.5 622,-112.5 524,-112.5"/>
<text text-anchor="middle" x="573" y="-119.5" font-family="Helvetica,sans-Serif" font-size="10.00">../ErrorHandler.hpp</text>
</a>
</g>
</g>
<!-- Node2&#45;&gt;Node10 -->
<g id="edge39" class="edge"><title>Node2&#45;&gt;Node10</title>
<path fill="none" stroke="midnightblue" d="M612,-504.442C612,-485.936 612,-440.813 612,-403 612,-403 612,-403 612,-233 612,-198.716 594.963,-161.698 583.41,-140.537"/>
<polygon fill="midnightblue" stroke="midnightblue" points="586.403,-138.72 578.423,-131.75 580.315,-142.175 586.403,-138.72"/>
</g>
<!-- Node21 -->
<g id="node22" class="node"><title>Node21</title>
<g id="a_node22"><a xlink:href="_link_attribute_8hpp.html" target="_top" xlink:title="LinkAttribute.hpp">
<polygon fill="none" stroke="black" points="187,-336.5 187,-355.5 277,-355.5 277,-336.5 187,-336.5"/>
<text text-anchor="middle" x="232" y="-343.5" font-family="Helvetica,sans-Serif" font-size="10.00">LinkAttribute.hpp</text>
</a>
</g>
</g>
<!-- Node2&#45;&gt;Node21 -->
<g id="edge38" class="edge"><title>Node2&#45;&gt;Node21</title>
<path fill="none" stroke="midnightblue" d="M580.604,-505.699C577.701,-505.096 574.8,-504.519 572,-504 463.353,-483.858 428.06,-510.351 326,-468 287.577,-452.056 274.726,-446.171 251,-412 241.466,-398.268 236.661,-379.739 234.274,-365.977"/>
<polygon fill="midnightblue" stroke="midnightblue" points="237.689,-365.14 232.786,-355.748 230.762,-366.148 237.689,-365.14"/>
</g>
<!-- Node22 -->
<g id="node23" class="node"><title>Node22</title>
<g id="a_node23"><a xlink:href="extlibs_2include_2vili_2_functions_8hpp.html" target="_top" xlink:title="Functions.hpp">
<polygon fill="none" stroke="black" points="706,-168.5 706,-187.5 784,-187.5 784,-168.5 706,-168.5"/>
<text text-anchor="middle" x="745" y="-175.5" font-family="Helvetica,sans-Serif" font-size="10.00">Functions.hpp</text>
</a>
</g>
</g>
<!-- Node2&#45;&gt;Node22 -->
<g id="edge40" class="edge"><title>Node2&#45;&gt;Node22</title>
<path fill="none" stroke="midnightblue" d="M632.645,-504.421C665.496,-489.231 726,-454.293 726,-403 726,-403 726,-403 726,-289 726,-256.489 734.159,-219.35 739.784,-197.61"/>
<polygon fill="midnightblue" stroke="midnightblue" points="743.218,-198.317 742.438,-187.751 736.459,-196.498 743.218,-198.317"/>
</g>
<!-- Node4 -->
<g id="node5" class="node"><title>Node4</title>
<g id="a_node5"><a xlink:href="_complex_attribute_8hpp.html" target="_top" xlink:title="ComplexAttribute.hpp">
<polygon fill="none" stroke="black" points="329,-280.5 329,-299.5 439,-299.5 439,-280.5 329,-280.5"/>
<text text-anchor="middle" x="384" y="-287.5" font-family="Helvetica,sans-Serif" font-size="10.00">ComplexAttribute.hpp</text>
</a>
</g>
</g>
<!-- Node3&#45;&gt;Node4 -->
<g id="edge4" class="edge"><title>Node3&#45;&gt;Node4</title>
<path fill="none" stroke="midnightblue" d="M384,-448.075C384,-421.945 384,-345.211 384,-309.577"/>
<polygon fill="midnightblue" stroke="midnightblue" points="387.5,-309.568 384,-299.568 380.5,-309.568 387.5,-309.568"/>
</g>
<!-- Node20 -->
<g id="node21" class="node"><title>Node20</title>
<g id="a_node21"><a xlink:href="_data_template_8hpp.html" target="_top" xlink:title="DataTemplate.hpp">
<polygon fill="none" stroke="black" points="260.5,-392.5 260.5,-411.5 355.5,-411.5 355.5,-392.5 260.5,-392.5"/>
<text text-anchor="middle" x="308" y="-399.5" font-family="Helvetica,sans-Serif" font-size="10.00">DataTemplate.hpp</text>
</a>
</g>
</g>
<!-- Node3&#45;&gt;Node20 -->
<g id="edge31" class="edge"><title>Node3&#45;&gt;Node20</title>
<path fill="none" stroke="midnightblue" d="M371.789,-448.324C360.224,-440.107 342.625,-427.602 328.839,-417.807"/>
<polygon fill="midnightblue" stroke="midnightblue" points="330.612,-414.773 320.433,-411.834 326.557,-420.479 330.612,-414.773"/>
</g>
<!-- Node5 -->
<g id="node6" class="node"><title>Node5</title>
<polygon fill="none" stroke="#bfbfbf" points="526,-224.5 526,-243.5 584,-243.5 584,-224.5 526,-224.5"/>
<text text-anchor="middle" x="555" y="-231.5" font-family="Helvetica,sans-Serif" font-size="10.00">functional</text>
</g>
<!-- Node4&#45;&gt;Node5 -->
<g id="edge5" class="edge"><title>Node4&#45;&gt;Node5</title>
<path fill="none" stroke="midnightblue" d="M411.095,-280.444C439.988,-271.32 485.925,-256.813 518.105,-246.651"/>
<polygon fill="midnightblue" stroke="midnightblue" points="519.549,-249.865 528.031,-243.516 517.441,-243.19 519.549,-249.865"/>
</g>
<!-- Node6 -->
<g id="node7" class="node"><title>Node6</title>
<polygon fill="none" stroke="#bfbfbf" points="647.5,-56.5 647.5,-75.5 682.5,-75.5 682.5,-56.5 647.5,-56.5"/>
<text text-anchor="middle" x="665" y="-63.5" font-family="Helvetica,sans-Serif" font-size="10.00">map</text>
</g>
<!-- Node4&#45;&gt;Node6 -->
<g id="edge6" class="edge"><title>Node4&#45;&gt;Node6</title>
<path fill="none" stroke="midnightblue" d="M439.028,-283.008C492.873,-276.135 570.043,-263.268 593,-244 642.297,-202.624 658.226,-122.308 663.051,-85.8342"/>
<polygon fill="midnightblue" stroke="midnightblue" points="666.558,-85.979 664.255,-75.6375 659.606,-85.1579 666.558,-85.979"/>
</g>
<!-- Node7 -->
<g id="node8" class="node"><title>Node7</title>
<polygon fill="none" stroke="#bfbfbf" points="198,-168.5 198,-187.5 250,-187.5 250,-168.5 198,-168.5"/>
<text text-anchor="middle" x="224" y="-175.5" font-family="Helvetica,sans-Serif" font-size="10.00">memory</text>
</g>
<!-- Node4&#45;&gt;Node7 -->
<g id="edge7" class="edge"><title>Node4&#45;&gt;Node7</title>
<path fill="none" stroke="midnightblue" d="M370.885,-280.491C357.132,-271.528 334.93,-256.946 316,-244 291.03,-226.923 262.645,-206.751 244.09,-193.459"/>
<polygon fill="midnightblue" stroke="midnightblue" points="245.993,-190.517 235.828,-187.531 241.912,-196.204 245.993,-190.517"/>
</g>
<!-- Node8 -->
<g id="node9" class="node"><title>Node8</title>
<polygon fill="none" stroke="#bfbfbf" points="412,-56.5 412,-75.5 454,-75.5 454,-56.5 412,-56.5"/>
<text text-anchor="middle" x="433" y="-63.5" font-family="Helvetica,sans-Serif" font-size="10.00">vector</text>
</g>
<!-- Node4&#45;&gt;Node8 -->
<g id="edge8" class="edge"><title>Node4&#45;&gt;Node8</title>
<path fill="none" stroke="midnightblue" d="M405.129,-280.452C421.275,-272.967 443.058,-260.676 457,-244 474.152,-223.485 474.024,-214.274 479,-188 480.654,-179.266 481.408,-176.557 479,-168 473.921,-149.95 465.175,-148.875 457,-132 449.625,-116.776 443.11,-98.664 438.736,-85.4306"/>
<polygon fill="midnightblue" stroke="midnightblue" points="441.981,-84.0857 435.594,-75.6325 435.315,-86.2236 441.981,-84.0857"/>
</g>
<!-- Node9 -->
<g id="node10" class="node"><title>Node9</title>
<g id="a_node10"><a xlink:href="_base_attribute_8hpp.html" target="_top" xlink:title="BaseAttribute.hpp">
<polygon fill="none" stroke="black" points="268.5,-168.5 268.5,-187.5 363.5,-187.5 363.5,-168.5 268.5,-168.5"/>
<text text-anchor="middle" x="316" y="-175.5" font-family="Helvetica,sans-Serif" font-size="10.00">BaseAttribute.hpp</text>
</a>
</g>
</g>
<!-- Node4&#45;&gt;Node9 -->
<g id="edge9" class="edge"><title>Node4&#45;&gt;Node9</title>
<path fill="none" stroke="midnightblue" d="M367.471,-280.457C354.317,-272.753 336.579,-260.16 327,-244 318.702,-230.001 316.228,-211.501 315.669,-197.818"/>
<polygon fill="midnightblue" stroke="midnightblue" points="319.167,-197.625 315.564,-187.662 312.168,-197.698 319.167,-197.625"/>
</g>
<!-- Node16 -->
<g id="node17" class="node"><title>Node16</title>
<g id="a_node17"><a xlink:href="_container_attribute_8hpp.html" target="_top" xlink:title="ContainerAttribute.hpp">
<polygon fill="none" stroke="black" points="28.5,-168.5 28.5,-187.5 141.5,-187.5 141.5,-168.5 28.5,-168.5"/>
<text text-anchor="middle" x="85" y="-175.5" font-family="Helvetica,sans-Serif" font-size="10.00">ContainerAttribute.hpp</text>
</a>
</g>
</g>
<!-- Node4&#45;&gt;Node16 -->
<g id="edge20" class="edge"><title>Node4&#45;&gt;Node16</title>
<path fill="none" stroke="midnightblue" d="M328.733,-286.646C257.7,-282.526 139.623,-271.631 107,-244 93.5256,-232.587 88.2792,-212.601 86.25,-197.795"/>
<polygon fill="midnightblue" stroke="midnightblue" points="89.7193,-197.312 85.2424,-187.71 82.754,-198.008 89.7193,-197.312"/>
</g>
<!-- Node17 -->
<g id="node18" class="node"><title>Node17</title>
<g id="a_node18"><a xlink:href="_list_attribute_8hpp.html" target="_top" xlink:title="ListAttribute.hpp">
<polygon fill="none" stroke="black" points="116,-224.5 116,-243.5 204,-243.5 204,-224.5 116,-224.5"/>
<text text-anchor="middle" x="160" y="-231.5" font-family="Helvetica,sans-Serif" font-size="10.00">ListAttribute.hpp</text>
</a>
</g>
</g>
<!-- Node4&#45;&gt;Node17 -->
<g id="edge22" class="edge"><title>Node4&#45;&gt;Node17</title>
<path fill="none" stroke="midnightblue" d="M348.507,-280.444C309.676,-271.083 247.344,-256.056 205.082,-245.868"/>
<polygon fill="midnightblue" stroke="midnightblue" points="205.869,-242.458 195.327,-243.516 204.229,-249.263 205.869,-242.458"/>
</g>
<!-- Node18 -->
<g id="node19" class="node"><title>Node18</title>
<g id="a_node19"><a xlink:href="_node_iterator_8hpp.html" target="_top" xlink:title="NodeIterator.hpp">
<polygon fill="none" stroke="black" points="382,-168.5 382,-187.5 470,-187.5 470,-168.5 382,-168.5"/>
<text text-anchor="middle" x="426" y="-175.5" font-family="Helvetica,sans-Serif" font-size="10.00">NodeIterator.hpp</text>
</a>
</g>
</g>
<!-- Node4&#45;&gt;Node18 -->
<g id="edge27" class="edge"><title>Node4&#45;&gt;Node18</title>
<path fill="none" stroke="midnightblue" d="M402.082,-280.39C415.562,-272.872 432.972,-260.565 441,-244 448.244,-229.051 442.662,-210.448 436.352,-196.978"/>
<polygon fill="midnightblue" stroke="midnightblue" points="439.308,-195.078 431.585,-187.825 433.099,-198.311 439.308,-195.078"/>
</g>
<!-- Node19 -->
<g id="node20" class="node"><title>Node19</title>
<g id="a_node20"><a xlink:href="_node_validator_8hpp.html" target="_top" xlink:title="NodeValidator.hpp">
<polygon fill="none" stroke="black" points="336,-224.5 336,-243.5 432,-243.5 432,-224.5 336,-224.5"/>
<text text-anchor="middle" x="384" y="-231.5" font-family="Helvetica,sans-Serif" font-size="10.00">NodeValidator.hpp</text>
</a>
</g>
</g>
<!-- Node4&#45;&gt;Node19 -->
<g id="edge29" class="edge"><title>Node4&#45;&gt;Node19</title>
<path fill="none" stroke="midnightblue" d="M384,-280.083C384,-273.006 384,-262.861 384,-253.986"/>
<polygon fill="midnightblue" stroke="midnightblue" points="387.5,-253.751 384,-243.751 380.5,-253.751 387.5,-253.751"/>
</g>
<!-- Node9&#45;&gt;Node10 -->
<g id="edge10" class="edge"><title>Node9&#45;&gt;Node10</title>
<path fill="none" stroke="midnightblue" d="M356.722,-168.444C401.649,-159.004 473.998,-143.802 522.499,-133.611"/>
<polygon fill="midnightblue" stroke="midnightblue" points="523.402,-136.998 532.468,-131.516 521.962,-130.148 523.402,-136.998"/>
</g>
<!-- Node14 -->
<g id="node15" class="node"><title>Node14</title>
<g id="a_node15"><a xlink:href="_attribute_8hpp.html" target="_top" xlink:title="Attribute.hpp">
<polygon fill="none" stroke="black" points="70,-112.5 70,-131.5 142,-131.5 142,-112.5 70,-112.5"/>
<text text-anchor="middle" x="106" y="-119.5" font-family="Helvetica,sans-Serif" font-size="10.00">Attribute.hpp</text>
</a>
</g>
</g>
<!-- Node9&#45;&gt;Node14 -->
<g id="edge16" class="edge"><title>Node9&#45;&gt;Node14</title>
<path fill="none" stroke="midnightblue" d="M282.725,-168.444C246.552,-159.142 188.623,-144.246 149.019,-134.062"/>
<polygon fill="midnightblue" stroke="midnightblue" points="149.676,-130.617 139.119,-131.516 147.933,-137.397 149.676,-130.617"/>
</g>
<!-- Node10&#45;&gt;Node6 -->
<g id="edge13" class="edge"><title>Node10&#45;&gt;Node6</title>
<path fill="none" stroke="midnightblue" d="M587.781,-112.324C602.267,-103.822 624.573,-90.7288 641.493,-80.7975"/>
<polygon fill="midnightblue" stroke="midnightblue" points="643.403,-83.735 650.255,-75.6545 639.859,-77.6981 643.403,-83.735"/>
</g>
<!-- Node10&#45;&gt;Node8 -->
<g id="edge12" class="edge"><title>Node10&#45;&gt;Node8</title>
<path fill="none" stroke="midnightblue" d="M550.817,-112.444C527.298,-103.372 489.985,-88.98 463.662,-78.8268"/>
<polygon fill="midnightblue" stroke="midnightblue" points="464.753,-75.4962 454.163,-75.1629 462.234,-82.0272 464.753,-75.4962"/>
</g>
<!-- Node11 -->
<g id="node12" class="node"><title>Node11</title>
<polygon fill="none" stroke="#bfbfbf" points="420.5,-0.5 420.5,-19.5 461.5,-19.5 461.5,-0.5 420.5,-0.5"/>
<text text-anchor="middle" x="441" y="-7.5" font-family="Helvetica,sans-Serif" font-size="10.00">string</text>
</g>
<!-- Node10&#45;&gt;Node11 -->
<g id="edge11" class="edge"><title>Node10&#45;&gt;Node11</title>
<path fill="none" stroke="midnightblue" d="M572.791,-112.265C572.003,-98.5807 568.556,-72.0028 554,-56 532.52,-32.3857 497.005,-20.9687 471.52,-15.5782"/>
<polygon fill="midnightblue" stroke="midnightblue" points="472.101,-12.1259 461.621,-13.6771 470.781,-19.0003 472.101,-12.1259"/>
</g>
<!-- Node12 -->
<g id="node13" class="node"><title>Node12</title>
<polygon fill="none" stroke="#bfbfbf" points="1269,-56.5 1269,-75.5 1323,-75.5 1323,-56.5 1269,-56.5"/>
<text text-anchor="middle" x="1296" y="-63.5" font-family="Helvetica,sans-Serif" font-size="10.00">iostream</text>
</g>
<!-- Node10&#45;&gt;Node12 -->
<g id="edge14" class="edge"><title>Node10&#45;&gt;Node12</title>
<path fill="none" stroke="midnightblue" d="M622.126,-117.331C758.182,-107.169 1137.8,-78.8157 1258.59,-69.7942"/>
<polygon fill="midnightblue" stroke="midnightblue" points="1259.09,-73.2664 1268.8,-69.0312 1258.57,-66.2858 1259.09,-73.2664"/>
</g>
<!-- Node13 -->
<g id="node14" class="node"><title>Node13</title>
<polygon fill="none" stroke="#bfbfbf" points="485.5,-56.5 485.5,-75.5 544.5,-75.5 544.5,-56.5 485.5,-56.5"/>
<text text-anchor="middle" x="515" y="-63.5" font-family="Helvetica,sans-Serif" font-size="10.00">exception</text>
</g>
<!-- Node10&#45;&gt;Node13 -->
<g id="edge15" class="edge"><title>Node10&#45;&gt;Node13</title>
<path fill="none" stroke="midnightblue" d="M563.681,-112.324C555.107,-104.341 542.188,-92.3128 531.812,-82.6529"/>
<polygon fill="midnightblue" stroke="midnightblue" points="534.192,-80.0865 524.488,-75.8339 529.422,-85.2098 534.192,-80.0865"/>
</g>
<!-- Node14&#45;&gt;Node11 -->
<g id="edge17" class="edge"><title>Node14&#45;&gt;Node11</title>
<path fill="none" stroke="midnightblue" d="M125.411,-112.424C155.827,-99.1892 216.751,-73.4888 270,-56 318.369,-40.1139 375.834,-25.9251 410.31,-17.9015"/>
<polygon fill="midnightblue" stroke="midnightblue" points="411.277,-21.2705 420.236,-15.6144 409.705,-14.4492 411.277,-21.2705"/>
</g>
<!-- Node15 -->
<g id="node16" class="node"><title>Node15</title>
<g id="a_node16"><a xlink:href="_types_8hpp.html" target="_top" xlink:title="Types.hpp">
<polygon fill="none" stroke="black" points="279,-56.5 279,-75.5 341,-75.5 341,-56.5 279,-56.5"/>
<text text-anchor="middle" x="310" y="-63.5" font-family="Helvetica,sans-Serif" font-size="10.00">Types.hpp</text>
</a>
</g>
</g>
<!-- Node14&#45;&gt;Node15 -->
<g id="edge18" class="edge"><title>Node14&#45;&gt;Node15</title>
<path fill="none" stroke="midnightblue" d="M138.324,-112.444C173.699,-103.08 230.49,-88.0467 268.979,-77.8585"/>
<polygon fill="midnightblue" stroke="midnightblue" points="270.059,-81.1933 278.83,-75.2508 268.268,-74.4263 270.059,-81.1933"/>
</g>
<!-- Node15&#45;&gt;Node11 -->
<g id="edge19" class="edge"><title>Node15&#45;&gt;Node11</title>
<path fill="none" stroke="midnightblue" d="M330.757,-56.4435C352.316,-47.5566 386.263,-33.5632 410.794,-23.4514"/>
<polygon fill="midnightblue" stroke="midnightblue" points="412.428,-26.5634 420.34,-19.5164 409.761,-20.0917 412.428,-26.5634"/>
</g>
<!-- Node16&#45;&gt;Node14 -->
<g id="edge21" class="edge"><title>Node16&#45;&gt;Node14</title>
<path fill="none" stroke="midnightblue" d="M88.4677,-168.083C91.3117,-160.77 95.4295,-150.181 98.9598,-141.103"/>
<polygon fill="midnightblue" stroke="midnightblue" points="102.234,-142.34 102.597,-131.751 95.7103,-139.803 102.234,-142.34"/>
</g>
<!-- Node17&#45;&gt;Node7 -->
<g id="edge24" class="edge"><title>Node17&#45;&gt;Node7</title>
<path fill="none" stroke="midnightblue" d="M170.283,-224.324C179.836,-216.263 194.28,-204.077 205.784,-194.369"/>
<polygon fill="midnightblue" stroke="midnightblue" points="208.144,-196.958 213.53,-187.834 203.63,-191.608 208.144,-196.958"/>
</g>
<!-- Node17&#45;&gt;Node8 -->
<g id="edge23" class="edge"><title>Node17&#45;&gt;Node8</title>
<path fill="none" stroke="midnightblue" d="M161.725,-224.23C164.853,-210.499 172.706,-183.857 189,-168 250.042,-108.595 350.993,-82.2193 401.779,-72.2195"/>
<polygon fill="midnightblue" stroke="midnightblue" points="402.642,-75.6184 411.822,-70.3282 401.347,-68.7394 402.642,-75.6184"/>
</g>
<!-- Node17&#45;&gt;Node9 -->
<g id="edge25" class="edge"><title>Node17&#45;&gt;Node9</title>
<path fill="none" stroke="midnightblue" d="M184.719,-224.444C210.848,-215.399 252.259,-201.064 281.576,-190.916"/>
<polygon fill="midnightblue" stroke="midnightblue" points="283.092,-194.095 291.397,-187.516 280.802,-187.48 283.092,-194.095"/>
</g>
<!-- Node17&#45;&gt;Node16 -->
<g id="edge26" class="edge"><title>Node17&#45;&gt;Node16</title>
<path fill="none" stroke="midnightblue" d="M147.95,-224.324C136.537,-216.107 119.169,-203.602 105.565,-193.807"/>
<polygon fill="midnightblue" stroke="midnightblue" points="107.43,-190.837 97.2693,-187.834 103.34,-196.517 107.43,-190.837"/>
</g>
<!-- Node18&#45;&gt;Node8 -->
<g id="edge28" class="edge"><title>Node18&#45;&gt;Node8</title>
<path fill="none" stroke="midnightblue" d="M419.999,-168.215C412.251,-155.767 400.39,-132.254 406,-112 408.792,-101.921 414.509,-91.832 419.967,-83.7694"/>
<polygon fill="midnightblue" stroke="midnightblue" points="422.825,-85.7899 425.849,-75.6357 417.153,-81.6881 422.825,-85.7899"/>
</g>
<!-- Node19&#45;&gt;Node18 -->
<g id="edge30" class="edge"><title>Node19&#45;&gt;Node18</title>
<path fill="none" stroke="midnightblue" d="M390.935,-224.083C396.929,-216.377 405.752,-205.033 413.048,-195.653"/>
<polygon fill="midnightblue" stroke="midnightblue" points="415.817,-197.793 419.194,-187.751 410.291,-193.496 415.817,-197.793"/>
</g>
<!-- Node20&#45;&gt;Node21 -->
<g id="edge32" class="edge"><title>Node20&#45;&gt;Node21</title>
<path fill="none" stroke="midnightblue" d="M295.789,-392.324C284.224,-384.107 266.625,-371.602 252.839,-361.807"/>
<polygon fill="midnightblue" stroke="midnightblue" points="254.612,-358.773 244.433,-355.834 250.557,-364.479 254.612,-358.773"/>
</g>
<!-- Node21&#45;&gt;Node4 -->
<g id="edge35" class="edge"><title>Node21&#45;&gt;Node4</title>
<path fill="none" stroke="midnightblue" d="M256.085,-336.444C281.545,-327.399 321.894,-313.064 350.459,-302.916"/>
<polygon fill="midnightblue" stroke="midnightblue" points="351.777,-306.162 360.028,-299.516 349.433,-299.566 351.777,-306.162"/>
</g>
<!-- Node21&#45;&gt;Node9 -->
<g id="edge34" class="edge"><title>Node21&#45;&gt;Node9</title>
<path fill="none" stroke="midnightblue" d="M236.516,-336.075C249.853,-309.719 289.242,-231.878 307.063,-196.661"/>
<polygon fill="midnightblue" stroke="midnightblue" points="310.272,-198.071 311.664,-187.568 304.026,-194.91 310.272,-198.071"/>
</g>
<!-- Node21&#45;&gt;Node11 -->
<g id="edge33" class="edge"><title>Node21&#45;&gt;Node11</title>
<path fill="none" stroke="midnightblue" d="M186.993,-343.233C119.526,-337.905 0,-316.908 0,-235 0,-235 0,-235 0,-121 0,-36.3007 310.122,-16.3018 410.239,-12.0524"/>
<polygon fill="midnightblue" stroke="midnightblue" points="410.469,-15.546 420.321,-11.6482 410.189,-8.55166 410.469,-15.546"/>
</g>
<!-- Node21&#45;&gt;Node16 -->
<g id="edge36" class="edge"><title>Node21&#45;&gt;Node16</title>
<path fill="none" stroke="midnightblue" d="M209.789,-336.461C177.109,-322.587 117.028,-291.796 90,-244 82.0785,-229.992 81.414,-211.493 82.3889,-197.812"/>
<polygon fill="midnightblue" stroke="midnightblue" points="85.8915,-197.973 83.4701,-187.659 78.9309,-197.232 85.8915,-197.973"/>
</g>
<!-- Node21&#45;&gt;Node17 -->
<g id="edge37" class="edge"><title>Node21&#45;&gt;Node17</title>
<path fill="none" stroke="midnightblue" d="M226.35,-336.368C214.468,-318.215 186.706,-275.802 171.121,-251.99"/>
<polygon fill="midnightblue" stroke="midnightblue" points="174.029,-250.042 165.623,-243.591 168.172,-253.875 174.029,-250.042"/>
</g>
<!-- Node22&#45;&gt;Node6 -->
<g id="edge45" class="edge"><title>Node22&#45;&gt;Node6</title>
<path fill="none" stroke="midnightblue" d="M738.657,-168.386C732,-159.338 721.239,-144.687 712,-132 700.144,-115.719 686.684,-97.0884 677.215,-83.9591"/>
<polygon fill="midnightblue" stroke="midnightblue" points="680.054,-81.9108 671.367,-75.8449 674.375,-86.0039 680.054,-81.9108"/>
</g>
<!-- Node22&#45;&gt;Node8 -->
<g id="edge42" class="edge"><title>Node22&#45;&gt;Node8</title>
<path fill="none" stroke="midnightblue" d="M705.786,-173.843C641.943,-168.122 518.94,-154.503 482,-132 463.586,-120.782 449.715,-99.8464 441.514,-84.7616"/>
<polygon fill="midnightblue" stroke="midnightblue" points="444.626,-83.1597 436.952,-75.8546 438.395,-86.3507 444.626,-83.1597"/>
</g>
<!-- Node22&#45;&gt;Node11 -->
<g id="edge43" class="edge"><title>Node22&#45;&gt;Node11</title>
<path fill="none" stroke="midnightblue" d="M743.97,-168.303C740.81,-145.776 729.099,-85.2514 692,-56 658.291,-29.4209 531.614,-17.2873 472.167,-12.9659"/>
<polygon fill="midnightblue" stroke="midnightblue" points="472.106,-9.45328 461.887,-12.2482 471.619,-16.4363 472.106,-9.45328"/>
</g>
<!-- Node22&#45;&gt;Node12 -->
<g id="edge41" class="edge"><title>Node22&#45;&gt;Node12</title>
<path fill="none" stroke="midnightblue" d="M747.225,-168.461C751.477,-154.041 762.24,-125.15 783,-112 822.968,-86.6837 1147.56,-72.4675 1258.78,-68.3033"/>
<polygon fill="midnightblue" stroke="midnightblue" points="1258.99,-71.7978 1268.86,-67.9316 1258.74,-64.8026 1258.99,-71.7978"/>
</g>
<!-- Node23 -->
<g id="node24" class="node"><title>Node23</title>
<polygon fill="none" stroke="#bfbfbf" points="792,-112.5 792,-131.5 844,-131.5 844,-112.5 792,-112.5"/>
<text text-anchor="middle" x="818" y="-119.5" font-family="Helvetica,sans-Serif" font-size="10.00">sstream</text>
</g>
<!-- Node22&#45;&gt;Node23 -->
<g id="edge44" class="edge"><title>Node22&#45;&gt;Node23</title>
<path fill="none" stroke="midnightblue" d="M756.729,-168.324C767.837,-160.107 784.742,-147.602 797.983,-137.807"/>
<polygon fill="midnightblue" stroke="midnightblue" points="800.1,-140.595 806.058,-131.834 795.937,-134.967 800.1,-140.595"/>
</g>
<!-- Node24 -->
<g id="node25" class="node"><title>Node24</title>
<polygon fill="none" stroke="#bfbfbf" points="862,-112.5 862,-131.5 918,-131.5 918,-112.5 862,-112.5"/>
<text text-anchor="middle" x="890" y="-119.5" font-family="Helvetica,sans-Serif" font-size="10.00">algorithm</text>
</g>
<!-- Node22&#45;&gt;Node24 -->
<g id="edge46" class="edge"><title>Node22&#45;&gt;Node24</title>
<path fill="none" stroke="midnightblue" d="M767.976,-168.444C792.157,-159.438 830.418,-145.189 857.646,-135.049"/>
<polygon fill="midnightblue" stroke="midnightblue" points="858.982,-138.286 867.132,-131.516 856.539,-131.727 858.982,-138.286"/>
</g>
<!-- Node25 -->
<g id="node26" class="node"><title>Node25</title>
<polygon fill="none" stroke="#bfbfbf" points="936.5,-112.5 936.5,-131.5 983.5,-131.5 983.5,-112.5 936.5,-112.5"/>
<text text-anchor="middle" x="960" y="-119.5" font-family="Helvetica,sans-Serif" font-size="10.00">iterator</text>
</g>
<!-- Node22&#45;&gt;Node25 -->
<g id="edge47" class="edge"><title>Node22&#45;&gt;Node25</title>
<path fill="none" stroke="midnightblue" d="M780.635,-168.455C815.364,-160.069 869.905,-146.743 926.403,-132.109"/>
<polygon fill="midnightblue" stroke="midnightblue" points="927.427,-135.459 936.225,-129.557 925.666,-128.684 927.427,-135.459"/>
</g>
<!-- Node26&#45;&gt;Node6 -->
<g id="edge53" class="edge"><title>Node26&#45;&gt;Node6</title>
<path fill="none" stroke="midnightblue" d="M1045.06,-168.045C1036.53,-153.547 1017.58,-125.227 993,-112 941.11,-84.0814 761.943,-72.0179 692.657,-68.321"/>
<polygon fill="midnightblue" stroke="midnightblue" points="692.684,-64.8178 682.517,-67.7984 692.324,-71.8085 692.684,-64.8178"/>
</g>
<!-- Node26&#45;&gt;Node8 -->
<g id="edge50" class="edge"><title>Node26&#45;&gt;Node8</title>
<path fill="none" stroke="midnightblue" d="M1010.87,-175.017C895.308,-168.98 560.768,-150.126 515,-132 500.739,-126.352 469.61,-99.87 450.073,-82.499"/>
<polygon fill="midnightblue" stroke="midnightblue" points="452.274,-79.7714 442.493,-75.6993 447.6,-84.9822 452.274,-79.7714"/>
</g>
<!-- Node26&#45;&gt;Node10 -->
<g id="edge61" class="edge"><title>Node26&#45;&gt;Node10</title>
<path fill="none" stroke="midnightblue" d="M1010.97,-172.581C927.477,-163.129 731.138,-140.902 632.194,-129.701"/>
<polygon fill="midnightblue" stroke="midnightblue" points="632.395,-126.202 622.065,-128.554 631.607,-133.157 632.395,-126.202"/>
</g>
<!-- Node26&#45;&gt;Node11 -->
<g id="edge51" class="edge"><title>Node26&#45;&gt;Node11</title>
<path fill="none" stroke="midnightblue" d="M1048.45,-168.25C1045.46,-154.047 1037.46,-126.141 1019,-112 931.435,-44.9229 578.389,-19.0549 471.691,-12.6767"/>
<polygon fill="midnightblue" stroke="midnightblue" points="471.777,-9.17585 461.59,-12.0876 471.37,-16.164 471.777,-9.17585"/>
</g>
<!-- Node26&#45;&gt;Node12 -->
<g id="edge49" class="edge"><title>Node26&#45;&gt;Node12</title>
<path fill="none" stroke="midnightblue" d="M1089.32,-176.371C1200.45,-174.189 1510.74,-165.156 1541,-132 1546.99,-125.434 1546.69,-118.83 1541,-112 1515.03,-80.8255 1395.5,-71.1748 1333.52,-68.2438"/>
<polygon fill="midnightblue" stroke="midnightblue" points="1333.51,-64.7402 1323.37,-67.7997 1333.21,-71.7335 1333.51,-64.7402"/>
</g>
<!-- Node26&#45;&gt;Node23 -->
<g id="edge52" class="edge"><title>Node26&#45;&gt;Node23</title>
<path fill="none" stroke="midnightblue" d="M1011.05,-168.43C973.358,-160.064 914.354,-146.777 854.376,-132.289"/>
<polygon fill="midnightblue" stroke="midnightblue" points="854.897,-128.813 844.354,-129.858 853.248,-135.616 854.897,-128.813"/>
</g>
<!-- Node26&#45;&gt;Node24 -->
<g id="edge56" class="edge"><title>Node26&#45;&gt;Node24</title>
<path fill="none" stroke="midnightblue" d="M1024.65,-168.444C997.731,-159.359 955.004,-144.939 924.913,-134.783"/>
<polygon fill="midnightblue" stroke="midnightblue" points="925.828,-131.398 915.234,-131.516 923.59,-138.031 925.828,-131.398"/>
</g>
<!-- Node26&#45;&gt;Node25 -->
<g id="edge57" class="edge"><title>Node26&#45;&gt;Node25</title>
<path fill="none" stroke="midnightblue" d="M1035.54,-168.324C1021.5,-159.9 999.952,-146.971 983.457,-137.074"/>
<polygon fill="midnightblue" stroke="midnightblue" points="984.8,-133.798 974.424,-131.655 981.198,-139.801 984.8,-133.798"/>
</g>
<!-- Node27 -->
<g id="node28" class="node"><title>Node27</title>
<polygon fill="none" stroke="#bfbfbf" points="1078,-112.5 1078,-131.5 1124,-131.5 1124,-112.5 1078,-112.5"/>
<text text-anchor="middle" x="1101" y="-119.5" font-family="Helvetica,sans-Serif" font-size="10.00">chrono</text>
</g>
<!-- Node26&#45;&gt;Node27 -->
<g id="edge54" class="edge"><title>Node26&#45;&gt;Node27</title>
<path fill="none" stroke="midnightblue" d="M1058.42,-168.083C1065.85,-160.22 1076.85,-148.569 1085.81,-139.081"/>
<polygon fill="midnightblue" stroke="midnightblue" points="1088.41,-141.424 1092.74,-131.751 1083.32,-136.618 1088.41,-141.424"/>
</g>
<!-- Node28 -->
<g id="node29" class="node"><title>Node28</title>
<polygon fill="none" stroke="#bfbfbf" points="1142.5,-112.5 1142.5,-131.5 1191.5,-131.5 1191.5,-112.5 1142.5,-112.5"/>
<text text-anchor="middle" x="1167" y="-119.5" font-family="Helvetica,sans-Serif" font-size="10.00">random</text>
</g>
<!-- Node26&#45;&gt;Node28 -->
<g id="edge55" class="edge"><title>Node26&#45;&gt;Node28</title>
<path fill="none" stroke="midnightblue" d="M1068.54,-168.444C1087.62,-159.636 1117.57,-145.812 1139.44,-135.722"/>
<polygon fill="midnightblue" stroke="midnightblue" points="1140.93,-138.885 1148.55,-131.516 1138,-132.529 1140.93,-138.885"/>
</g>
<!-- Node29 -->
<g id="node30" class="node"><title>Node29</title>
<polygon fill="none" stroke="#bfbfbf" points="1210,-112.5 1210,-131.5 1260,-131.5 1260,-112.5 1210,-112.5"/>
<text text-anchor="middle" x="1235" y="-119.5" font-family="Helvetica,sans-Serif" font-size="10.00">typeinfo</text>
</g>
<!-- Node26&#45;&gt;Node29 -->
<g id="edge58" class="edge"><title>Node26&#45;&gt;Node29</title>
<path fill="none" stroke="midnightblue" d="M1079.31,-168.444C1112.14,-158.862 1165.3,-143.344 1200.21,-133.155"/>
<polygon fill="midnightblue" stroke="midnightblue" points="1201.36,-136.466 1209.98,-130.304 1199.4,-129.746 1201.36,-136.466"/>
</g>
<!-- Node30 -->
<g id="node31" class="node"><title>Node30</title>
<polygon fill="none" stroke="#bfbfbf" points="1278.5,-112.5 1278.5,-131.5 1327.5,-131.5 1327.5,-112.5 1278.5,-112.5"/>
<text text-anchor="middle" x="1303" y="-119.5" font-family="Helvetica,sans-Serif" font-size="10.00">fstream</text>
</g>
<!-- Node26&#45;&gt;Node30 -->
<g id="edge59" class="edge"><title>Node26&#45;&gt;Node30</title>
<path fill="none" stroke="midnightblue" d="M1089.31,-169.612C1131.2,-161.588 1199.66,-148.036 1268.07,-132.114"/>
<polygon fill="midnightblue" stroke="midnightblue" points="1269.22,-135.439 1278.16,-129.748 1267.62,-128.624 1269.22,-135.439"/>
</g>
<!-- Node31 -->
<g id="node32" class="node"><title>Node31</title>
<polygon fill="none" stroke="#bfbfbf" points="1346,-112.5 1346,-131.5 1426,-131.5 1426,-112.5 1346,-112.5"/>
<text text-anchor="middle" x="1386" y="-119.5" font-family="Helvetica,sans-Serif" font-size="10.00">tinydir/tinydir.h</text>
</g>
<!-- Node26&#45;&gt;Node31 -->
<g id="edge60" class="edge"><title>Node26&#45;&gt;Node31</title>
<path fill="none" stroke="midnightblue" d="M1089.05,-171.208C1142.43,-163.218 1241.43,-148.139 1335.89,-132.153"/>
<polygon fill="midnightblue" stroke="midnightblue" points="1336.63,-135.578 1345.9,-130.453 1335.46,-128.677 1336.63,-135.578"/>
</g>
<!-- Node32 -->
<g id="node33" class="node"><title>Node32</title>
<g id="a_node33"><a xlink:href="_coordinates_8hpp.html" target="_top" xlink:title="Coordinates.hpp">
<polygon fill="none" stroke="black" points="1444.5,-112.5 1444.5,-131.5 1531.5,-131.5 1531.5,-112.5 1444.5,-112.5"/>
<text text-anchor="middle" x="1488" y="-119.5" font-family="Helvetica,sans-Serif" font-size="10.00">Coordinates.hpp</text>
</a>
</g>
</g>
<!-- Node26&#45;&gt;Node32 -->
<g id="edge62" class="edge"><title>Node26&#45;&gt;Node32</title>
<path fill="none" stroke="midnightblue" d="M1089.16,-173.101C1157.15,-166.183 1301.65,-150.833 1434.41,-132.015"/>
<polygon fill="midnightblue" stroke="midnightblue" points="1434.95,-135.474 1444.36,-130.596 1433.96,-128.544 1434.95,-135.474"/>
</g>
<!-- Node32&#45;&gt;Node12 -->
<g id="edge63" class="edge"><title>Node32&#45;&gt;Node12</title>
<path fill="none" stroke="midnightblue" d="M1457.58,-112.444C1423.75,-102.929 1369.11,-87.5622 1332.88,-77.3713"/>
<polygon fill="midnightblue" stroke="midnightblue" points="1333.75,-73.9816 1323.18,-74.6433 1331.86,-80.7201 1333.75,-73.9816"/>
</g>
</g>
</svg>
        <g id="navigator" transform="translate(0 0)" fill="#404254">
                <rect fill="#f2f5e9" fill-opacity="0.5" stroke="#606060" stroke-width=".5" x="0" y="0" width="60" height="60"/>
                <use id="zoomplus" xlink:href="#zoomPlus" x="17" y="9" onmousedown="handleZoom(evt,'in')"/>
                <use id="zoomminus" xlink:href="#zoomMin" x="42" y="9" onmousedown="handleZoom(evt,'out')"/>
                <use id="reset" xlink:href="#resetDef" x="30" y="36" onmousedown="handleReset()"/>
                <g id="arrowUp" xlink:href="#dirArrow" transform="translate(30 24)" onmousedown="handlePan(0,-1)">
                  <use xlink:href="#rim" fill="#404040">
                        <set attributeName="fill" to="#808080" begin="arrowUp.mouseover" end="arrowUp.mouseout"/>
                  </use>
                  <path fill="none" stroke="white" stroke-width="1.5" d="M0,-3.0v7 M-2.5,-0.5L0,-3.0L2.5,-0.5"/>
                </g>
                <g id="arrowRight" xlink:href="#dirArrow" transform="rotate(90) translate(36 -43)" onmousedown="handlePan(1,0)">
                  <use xlink:href="#rim" fill="#404040">
                        <set attributeName="fill" to="#808080" begin="arrowRight.mouseover" end="arrowRight.mouseout"/>
                  </use>
                  <path fill="none" stroke="white" stroke-width="1.5" d="M0,-3.0v7 M-2.5,-0.5L0,-3.0L2.5,-0.5"/>
                </g>
                <g id="arrowDown" xlink:href="#dirArrow" transform="rotate(180) translate(-30 -48)" onmousedown="handlePan(0,1)">
                  <use xlink:href="#rim" fill="#404040">
                        <set attributeName="fill" to="#808080" begin="arrowDown.mouseover" end="arrowDown.mouseout"/>
                  </use>
                  <path fill="none" stroke="white" stroke-width="1.5" d="M0,-3.0v7 M-2.5,-0.5L0,-3.0L2.5,-0.5"/>
                </g>
                <g id="arrowLeft" xlink:href="#dirArrow" transform="rotate(270) translate(-36 17)" onmousedown="handlePan(-1,0)">
                  <use xlink:href="#rim" fill="#404040">
                        <set attributeName="fill" to="#808080" begin="arrowLeft.mouseover" end="arrowLeft.mouseout"/>
                  </use>
                  <path fill="none" stroke="white" stroke-width="1.5" d="M0,-3.0v7 M-2.5,-0.5L0,-3.0L2.5,-0.5"/>
                </g>
        </g>
        <svg viewBox="0 0 15 15" width="100%" height="30px" preserveAspectRatio="xMaxYMin meet">
         <g id="arrow_out" transform="scale(0.3 0.3)">
          <a xlink:href="_data_parser_lua_bridge_8hpp__incl_org.svg" target="_base">
           <rect id="button" ry="5" rx="5" y="6" x="6" height="38" width="38"
                fill="#f2f5e9" fill-opacity="0.5" stroke="#606060" stroke-width="1.0"/>
           <path id="arrow"
             d="M 11.500037,31.436501 C 11.940474,20.09759 22.043105,11.32322 32.158766,21.979434 L 37.068811,17.246167 C 37.068811,17.246167 37.088388,32 37.088388,32 L 22.160133,31.978069 C 22.160133,31.978069 26.997745,27.140456 26.997745,27.140456 C 18.528582,18.264221 13.291696,25.230495 11.500037,31.436501 z"
             style="fill:#404040;"/>
          </a>
         </g>
        </svg>
</svg>
