<?xml version="1.0" encoding="UTF-8" standalone="no"?>
<!DOCTYPE svg PUBLIC "-//W3C//DTD SVG 1.1//EN"
 "http://www.w3.org/Graphics/SVG/1.1/DTD/svg11.dtd">
<!-- Generated by graphviz version 2.38.0 (20140413.2041)
 -->
<!-- Title: E:/Dev/ObEngine/Git/extlibs/include/vili/ErrorHandler.hpp Pages: 1 -->
<svg width="313pt" height="106pt"
 viewBox="0.00 0.00 313.00 106.00" xmlns="http://www.w3.org/2000/svg" xmlns:xlink="http://www.w3.org/1999/xlink">
<g id="graph0" class="graph" transform="scale(1 1) rotate(0) translate(4 102)">
<title>E:/Dev/ObEngine/Git/extlibs/include/vili/ErrorHandler.hpp</title>
<!-- Node0 -->
<g id="node1" class="node"><title>Node0</title>
<polygon fill="#bfbfbf" stroke="black" points="84,-56.5 84,-97.5 191,-97.5 191,-56.5 84,-56.5"/>
<text text-anchor="start" x="92" y="-85.5" font-family="Helvetica,sans-Serif" font-size="10.00">E:/Dev/ObEngine/Git</text>
<text text-anchor="start" x="92" y="-74.5" font-family="Helvetica,sans-Serif" font-size="10.00">/extlibs/include/vili</text>
<text text-anchor="middle" x="137.5" y="-63.5" font-family="Helvetica,sans-Serif" font-size="10.00">/ErrorHandler.hpp</text>
</g>
<!-- Node1 -->
<g id="node2" class="node"><title>Node1</title>
<polygon fill="none" stroke="#bfbfbf" points="0,-0.5 0,-19.5 41,-19.5 41,-0.5 0,-0.5"/>
<text text-anchor="middle" x="20.5" y="-7.5" font-family="Helvetica,sans-Serif" font-size="10.00">string</text>
</g>
<!-- Node0&#45;&gt;Node1 -->
<g id="edge1" class="edge"><title>Node0&#45;&gt;Node1</title>
<path fill="none" stroke="midnightblue" d="M102.396,-56.4979C83.9404,-46.2447 61.765,-33.925 45.1468,-24.6927"/>
<polygon fill="midnightblue" stroke="midnightblue" points="46.5158,-21.4494 36.0745,-19.6525 43.1163,-27.5685 46.5158,-21.4494"/>
</g>
<!-- Node2 -->
<g id="node3" class="node"><title>Node2</title>
<polygon fill="none" stroke="#bfbfbf" points="59.5,-0.5 59.5,-19.5 101.5,-19.5 101.5,-0.5 59.5,-0.5"/>
<text text-anchor="middle" x="80.5" y="-7.5" font-family="Helvetica,sans-Serif" font-size="10.00">vector</text>
</g>
<!-- Node0&#45;&gt;Node2 -->
<g id="edge2" class="edge"><title>Node0&#45;&gt;Node2</title>
<path fill="none" stroke="midnightblue" d="M120.398,-56.4979C112.247,-47.2029 102.607,-36.2097 94.8446,-27.3579"/>
<polygon fill="midnightblue" stroke="midnightblue" points="97.3124,-24.8635 88.0876,-19.6525 92.0493,-29.4788 97.3124,-24.8635"/>
</g>
<!-- Node3 -->
<g id="node4" class="node"><title>Node3</title>
<polygon fill="none" stroke="#bfbfbf" points="120,-0.5 120,-19.5 155,-19.5 155,-0.5 120,-0.5"/>
<text text-anchor="middle" x="137.5" y="-7.5" font-family="Helvetica,sans-Serif" font-size="10.00">map</text>
</g>
<!-- Node0&#45;&gt;Node3 -->
<g id="edge3" class="edge"><title>Node0&#45;&gt;Node3</title>
<path fill="none" stroke="midnightblue" d="M137.5,-56.4979C137.5,-48.0653 137.5,-38.2351 137.5,-29.874"/>
<polygon fill="midnightblue" stroke="midnightblue" points="141,-29.6525 137.5,-19.6525 134,-29.6525 141,-29.6525"/>
</g>
<!-- Node4 -->
<g id="node5" class="node"><title>Node4</title>
<polygon fill="none" stroke="#bfbfbf" points="173.5,-0.5 173.5,-19.5 227.5,-19.5 227.5,-0.5 173.5,-0.5"/>
<text text-anchor="middle" x="200.5" y="-7.5" font-family="Helvetica,sans-Serif" font-size="10.00">iostream</text>
</g>
<!-- Node0&#45;&gt;Node4 -->
<g id="edge4" class="edge"><title>Node0&#45;&gt;Node4</title>
<path fill="none" stroke="midnightblue" d="M156.402,-56.4979C165.504,-47.1071 176.286,-35.9829 184.91,-27.0848"/>
<polygon fill="midnightblue" stroke="midnightblue" points="187.667,-29.2691 192.114,-19.6525 182.641,-24.3973 187.667,-29.2691"/>
</g>
<!-- Node5 -->
<g id="node6" class="node"><title>Node5</title>
<polygon fill="none" stroke="#bfbfbf" points="246,-0.5 246,-19.5 305,-19.5 305,-0.5 246,-0.5"/>
<text text-anchor="middle" x="275.5" y="-7.5" font-family="Helvetica,sans-Serif" font-size="10.00">exception</text>
</g>
<!-- Node0&#45;&gt;Node5 -->
<g id="edge5" class="edge"><title>Node0&#45;&gt;Node5</title>
<path fill="none" stroke="midnightblue" d="M178.905,-56.4979C201.283,-45.9572 228.299,-33.2326 248.062,-23.9235"/>
<polygon fill="midnightblue" stroke="midnightblue" points="249.575,-27.08 257.13,-19.6525 246.592,-20.7473 249.575,-27.08"/>
</g>
</g>
</svg>
