<?xml version="1.0" encoding="UTF-8" standalone="no"?>
<!DOCTYPE svg PUBLIC "-//W3C//DTD SVG 1.1//EN"
 "http://www.w3.org/Graphics/SVG/1.1/DTD/svg11.dtd">
<!-- Generated by graphviz version 2.38.0 (20140413.2041)
 -->
<!-- Title: E:/Dev/ObEngine/Git/include/Time/FramerateCounter.hpp Pages: 1 -->
<svg width="615pt" height="106pt"
 viewBox="0.00 0.00 614.50 106.00" xmlns="http://www.w3.org/2000/svg" xmlns:xlink="http://www.w3.org/1999/xlink">
<g id="graph0" class="graph" transform="scale(1 1) rotate(0) translate(4 102)">
<title>E:/Dev/ObEngine/Git/include/Time/FramerateCounter.hpp</title>
<!-- Node5 -->
<g id="node1" class="node"><title>Node5</title>
<polygon fill="#bfbfbf" stroke="black" points="218,-67.5 218,-97.5 392,-97.5 392,-67.5 218,-67.5"/>
<text text-anchor="start" x="226" y="-85.5" font-family="Helvetica,sans-Serif" font-size="10.00">E:/Dev/ObEngine/Git</text>
<text text-anchor="middle" x="305" y="-74.5" font-family="Helvetica,sans-Serif" font-size="10.00">/include/Time/FramerateCounter.hpp</text>
</g>
<!-- Node6 -->
<g id="node2" class="node"><title>Node6</title>
<g id="a_node2"><a xlink:href="_time_bindings_8cpp.html" target="_top" xlink:title="E:/Dev/ObEngine/Git\l/src/Bindings/TimeBindings.cpp">
<polygon fill="white" stroke="black" points="0,-0.5 0,-30.5 154,-30.5 154,-0.5 0,-0.5"/>
<text text-anchor="start" x="8" y="-18.5" font-family="Helvetica,sans-Serif" font-size="10.00">E:/Dev/ObEngine/Git</text>
<text text-anchor="middle" x="77" y="-7.5" font-family="Helvetica,sans-Serif" font-size="10.00">/src/Bindings/TimeBindings.cpp</text>
</a>
</g>
</g>
<!-- Node5&#45;&gt;Node6 -->
<g id="edge1" class="edge"><title>Node5&#45;&gt;Node6</title>
<path fill="none" stroke="midnightblue" d="M246.123,-64.7149C209.02,-54.1373 161.657,-40.6348 126.497,-30.6109"/>
<polygon fill="midnightblue" stroke="midnightblue" points="245.232,-68.1002 255.808,-67.476 247.151,-61.3684 245.232,-68.1002"/>
</g>
<!-- Node7 -->
<g id="node3" class="node"><title>Node7</title>
<g id="a_node3"><a xlink:href="_map_editor_8cpp.html" target="_top" xlink:title="E:/Dev/ObEngine/Git\l/src/Editor/MapEditor.cpp">
<polygon fill="white" stroke="black" points="172,-0.5 172,-30.5 300,-30.5 300,-0.5 172,-0.5"/>
<text text-anchor="start" x="180" y="-18.5" font-family="Helvetica,sans-Serif" font-size="10.00">E:/Dev/ObEngine/Git</text>
<text text-anchor="middle" x="236" y="-7.5" font-family="Helvetica,sans-Serif" font-size="10.00">/src/Editor/MapEditor.cpp</text>
</a>
</g>
</g>
<!-- Node5&#45;&gt;Node7 -->
<g id="edge2" class="edge"><title>Node5&#45;&gt;Node7</title>
<path fill="none" stroke="midnightblue" d="M282.508,-60.3115C272.157,-50.5612 260.16,-39.259 250.943,-30.5765"/>
<polygon fill="midnightblue" stroke="midnightblue" points="280.349,-63.0866 290.028,-67.396 285.149,-57.9914 280.349,-63.0866"/>
</g>
<!-- Node8 -->
<g id="node4" class="node"><title>Node8</title>
<g id="a_node4"><a xlink:href="_game_8cpp.html" target="_top" xlink:title="E:/Dev/ObEngine/Git\l/src/Modes/Game.cpp">
<polygon fill="white" stroke="black" points="318.5,-0.5 318.5,-30.5 431.5,-30.5 431.5,-0.5 318.5,-0.5"/>
<text text-anchor="start" x="326.5" y="-18.5" font-family="Helvetica,sans-Serif" font-size="10.00">E:/Dev/ObEngine/Git</text>
<text text-anchor="middle" x="375" y="-7.5" font-family="Helvetica,sans-Serif" font-size="10.00">/src/Modes/Game.cpp</text>
</a>
</g>
</g>
<!-- Node5&#45;&gt;Node8 -->
<g id="edge3" class="edge"><title>Node5&#45;&gt;Node8</title>
<path fill="none" stroke="midnightblue" d="M327.818,-60.3115C338.319,-50.5612 350.49,-39.259 359.841,-30.5765"/>
<polygon fill="midnightblue" stroke="midnightblue" points="325.135,-58.0266 320.189,-67.396 329.899,-63.1562 325.135,-58.0266"/>
</g>
<!-- Node9 -->
<g id="node5" class="node"><title>Node9</title>
<g id="a_node5"><a xlink:href="_framerate_counter_8cpp.html" target="_top" xlink:title="E:/Dev/ObEngine/Git\l/src/Time/FramerateCounter.cpp">
<polygon fill="white" stroke="black" points="449.5,-0.5 449.5,-30.5 606.5,-30.5 606.5,-0.5 449.5,-0.5"/>
<text text-anchor="start" x="457.5" y="-18.5" font-family="Helvetica,sans-Serif" font-size="10.00">E:/Dev/ObEngine/Git</text>
<text text-anchor="middle" x="528" y="-7.5" font-family="Helvetica,sans-Serif" font-size="10.00">/src/Time/FramerateCounter.cpp</text>
</a>
</g>
</g>
<!-- Node5&#45;&gt;Node9 -->
<g id="edge4" class="edge"><title>Node5&#45;&gt;Node9</title>
<path fill="none" stroke="midnightblue" d="M363.049,-64.5797C399.269,-54.0225 445.345,-40.5921 479.589,-30.6109"/>
<polygon fill="midnightblue" stroke="midnightblue" points="361.734,-61.3174 353.113,-67.476 363.693,-68.0377 361.734,-61.3174"/>
</g>
</g>
</svg>
