<?xml version="1.0" encoding="UTF-8" standalone="no"?>
<!DOCTYPE svg PUBLIC "-//W3C//DTD SVG 1.1//EN"
 "http://www.w3.org/Graphics/SVG/1.1/DTD/svg11.dtd">
<!-- Generated by graphviz version 2.38.0 (20140413.2041)
 -->
<!-- Title: E:/Dev/ObEngine/Git/include/Game.hpp Pages: 1 -->
<!--zoomable 767 -->
<svg id="main" version="1.1" xmlns="http://www.w3.org/2000/svg" xmlns:xlink="http://www.w3.org/1999/xlink" xml:space="preserve" onload="init(evt)">
<style type="text/css"><![CDATA[
.edge:hover path { stroke: red; }
.edge:hover polygon { stroke: red; fill: red; }
.edge path { stroke: white; }
.edge polygon { stroke: white; fill: white; }
]]></style>
<script type="text/javascript"><![CDATA[
var edges = document.getElementsByTagName('g');
if (edges && edges.length) {
  for (var i=0;i<edges.length;i++) {
    if (edges[i].id.substr(0,4)=='edge') {
      edges[i].setAttribute('class','edge');
    }
  }
}
]]></script>
        <defs>
                <circle id="rim" cx="0" cy="0" r="7"/>
                <circle id="rim2" cx="0" cy="0" r="3.5"/>
                <g id="zoomPlus">
                        <use xlink:href="#rim" fill="#404040">
                                <set attributeName="fill" to="#808080" begin="zoomplus.mouseover" end="zoomplus.mouseout"/>
                        </use>
                        <path d="M-4,0h8M0,-4v8" fill="none" stroke="white" stroke-width="1.5" pointer-events="none"/>
                </g>
                <g id="zoomMin">
                        <use xlink:href="#rim" fill="#404040">
                                <set attributeName="fill" to="#808080" begin="zoomminus.mouseover" end="zoomminus.mouseout"/>
                        </use>
                        <path d="M-4,0h8" fill="none" stroke="white" stroke-width="1.5" pointer-events="none"/>
                </g>
                <g id="dirArrow">
                        <path fill="none" stroke="white" stroke-width="1.5" d="M0,-3.0v7 M-2.5,-0.5L0,-3.0L2.5,-0.5"/>
                </g>
               <g id="resetDef">
                       <use xlink:href="#rim2" fill="#404040">
                               <set attributeName="fill" to="#808080" begin="reset.mouseover" end="reset.mouseout"/>
                       </use>
               </g>
        </defs>

<script type="text/javascript">
var viewWidth = 2750;
var viewHeight = 767;
var sectionId = 'dynsection-0';
</script>
<script xlink:href="svgpan.js"/>
<svg id="graph" class="graph">
<g id="viewport">
<title>E:/Dev/ObEngine/Git/include/Game.hpp</title>
<!-- Node0 -->
<g id="node1" class="node"><title>Node0</title>
<polygon fill="#bfbfbf" stroke="black" points="743.547,-728.5 743.547,-758.5 850.547,-758.5 850.547,-728.5 743.547,-728.5"/>
<text text-anchor="start" x="751.547" y="-746.5" font-family="Helvetica,sans-Serif" font-size="10.00">E:/Dev/ObEngine/Git</text>
<text text-anchor="middle" x="797.047" y="-735.5" font-family="Helvetica,sans-Serif" font-size="10.00">/include/Game.hpp</text>
</g>
<!-- Node1 -->
<g id="node2" class="node"><title>Node1</title>
<g id="a_node2"><a xlink:href="_world_8hpp.html" target="_top" xlink:title="World.hpp">
<polygon fill="none" stroke="black" points="766.547,-672.5 766.547,-691.5 827.547,-691.5 827.547,-672.5 766.547,-672.5"/>
<text text-anchor="middle" x="797.047" y="-679.5" font-family="Helvetica,sans-Serif" font-size="10.00">World.hpp</text>
</a>
</g>
</g>
<!-- Node0&#45;&gt;Node1 -->
<g id="edge1" class="edge"><title>Node0&#45;&gt;Node1</title>
<path fill="none" stroke="midnightblue" d="M797.047,-728.399C797.047,-720.466 797.047,-710.458 797.047,-701.858"/>
<polygon fill="midnightblue" stroke="midnightblue" points="800.547,-701.658 797.047,-691.658 793.547,-701.658 800.547,-701.658"/>
</g>
<!-- Node2 -->
<g id="node3" class="node"><title>Node2</title>
<polygon fill="none" stroke="#bfbfbf" points="592.047,-336.5 592.047,-355.5 696.047,-355.5 696.047,-336.5 592.047,-336.5"/>
<text text-anchor="middle" x="644.047" y="-343.5" font-family="Helvetica,sans-Serif" font-size="10.00">SFML/Graphics.hpp</text>
</g>
<!-- Node1&#45;&gt;Node2 -->
<g id="edge2" class="edge"><title>Node1&#45;&gt;Node2</title>
<path fill="none" stroke="midnightblue" d="M766.536,-679.677C673.173,-675.376 395.758,-660.628 364.047,-636 339.725,-617.111 340.047,-601.795 340.047,-571 340.047,-571 340.047,-571 340.047,-513 340.047,-403.855 492.863,-366.032 581.801,-353.262"/>
<polygon fill="midnightblue" stroke="midnightblue" points="582.354,-356.719 591.787,-351.895 581.405,-349.784 582.354,-356.719"/>
</g>
<!-- Node3 -->
<g id="node4" class="node"><title>Node3</title>
<polygon fill="none" stroke="#bfbfbf" points="671.047,-0.5 671.047,-19.5 725.047,-19.5 725.047,-0.5 671.047,-0.5"/>
<text text-anchor="middle" x="698.047" y="-7.5" font-family="Helvetica,sans-Serif" font-size="10.00">iostream</text>
</g>
<!-- Node1&#45;&gt;Node3 -->
<g id="edge3" class="edge"><title>Node1&#45;&gt;Node3</title>
<path fill="none" stroke="midnightblue" d="M766.211,-681.169C629.778,-681.654 84.4676,-680.763 24.0465,-636 -0.697871,-617.668 0.0465247,-601.795 0.0465247,-571 0.0465247,-571 0.0465247,-571 0.0465247,-121 0.0465247,-80.458 27.2292,-72.9746 64.0465,-56 118.202,-31.0314 532.973,-16.1436 660.718,-12.1156"/>
<polygon fill="midnightblue" stroke="midnightblue" points="660.911,-15.6114 670.797,-11.8017 660.693,-8.61479 660.911,-15.6114"/>
</g>
<!-- Node4 -->
<g id="node5" class="node"><title>Node4</title>
<polygon fill="none" stroke="#bfbfbf" points="2569.55,-0.5 2569.55,-19.5 2610.55,-19.5 2610.55,-0.5 2569.55,-0.5"/>
<text text-anchor="middle" x="2590.05" y="-7.5" font-family="Helvetica,sans-Serif" font-size="10.00">string</text>
</g>
<!-- Node1&#45;&gt;Node4 -->
<g id="edge4" class="edge"><title>Node1&#45;&gt;Node4</title>
<path fill="none" stroke="midnightblue" d="M827.79,-680.947C1024.94,-680.489 2113.95,-676.15 2444.05,-636 2578.61,-619.633 2742.05,-706.558 2742.05,-571 2742.05,-571 2742.05,-571 2742.05,-121 2742.05,-61.6173 2664.97,-31.0276 2620.59,-18.3363"/>
<polygon fill="midnightblue" stroke="midnightblue" points="2621.43,-14.9388 2610.86,-15.6912 2619.59,-21.6934 2621.43,-14.9388"/>
</g>
<!-- Node5 -->
<g id="node6" class="node"><title>Node5</title>
<polygon fill="none" stroke="#bfbfbf" points="1746.05,-0.5 1746.05,-19.5 1788.05,-19.5 1788.05,-0.5 1746.05,-0.5"/>
<text text-anchor="middle" x="1767.05" y="-7.5" font-family="Helvetica,sans-Serif" font-size="10.00">vector</text>
</g>
<!-- Node1&#45;&gt;Node5 -->
<g id="edge5" class="edge"><title>Node1&#45;&gt;Node5</title>
<path fill="none" stroke="midnightblue" d="M827.927,-680.855C1070.93,-679.519 2666.05,-667.09 2666.05,-571 2666.05,-571 2666.05,-571 2666.05,-401 2666.05,-164.206 2490.8,-109.148 2260.05,-56 2089.27,-16.6649 1877.76,-11.4422 1798.76,-10.9454"/>
<polygon fill="midnightblue" stroke="midnightblue" points="1798.53,-7.44452 1788.51,-10.9036 1798.5,-14.4445 1798.53,-7.44452"/>
</g>
<!-- Node6 -->
<g id="node7" class="node"><title>Node6</title>
<polygon fill="none" stroke="#bfbfbf" points="1082.55,-0.5 1082.55,-19.5 1117.55,-19.5 1117.55,-0.5 1082.55,-0.5"/>
<text text-anchor="middle" x="1100.05" y="-7.5" font-family="Helvetica,sans-Serif" font-size="10.00">map</text>
</g>
<!-- Node1&#45;&gt;Node6 -->
<g id="edge6" class="edge"><title>Node1&#45;&gt;Node6</title>
<path fill="none" stroke="midnightblue" d="M766.353,-679.846C624.356,-674.111 38.0465,-645.895 38.0465,-571 38.0465,-571 38.0465,-571 38.0465,-513 38.0465,-41.2898 905.026,-12.1722 1072.3,-10.9443"/>
<polygon fill="midnightblue" stroke="midnightblue" points="1072.52,-14.4435 1082.5,-10.899 1072.48,-7.44354 1072.52,-14.4435"/>
</g>
<!-- Node7 -->
<g id="node8" class="node"><title>Node7</title>
<polygon fill="none" stroke="#bfbfbf" points="1318.55,-336.5 1318.55,-355.5 1367.55,-355.5 1367.55,-336.5 1318.55,-336.5"/>
<text text-anchor="middle" x="1343.05" y="-343.5" font-family="Helvetica,sans-Serif" font-size="10.00">fstream</text>
</g>
<!-- Node1&#45;&gt;Node7 -->
<g id="edge7" class="edge"><title>Node1&#45;&gt;Node7</title>
<path fill="none" stroke="midnightblue" d="M766.236,-679.55C669.474,-674.165 378.047,-651.285 378.047,-571 378.047,-571 378.047,-571 378.047,-513 378.047,-416.633 1135.14,-360.744 1308.14,-349.232"/>
<polygon fill="midnightblue" stroke="midnightblue" points="1308.47,-352.717 1318.22,-348.567 1308.01,-345.732 1308.47,-352.717"/>
</g>
<!-- Node8 -->
<g id="node9" class="node"><title>Node8</title>
<g id="a_node9"><a xlink:href="_vili_8hpp.html" target="_top" xlink:title="vili/Vili.hpp">
<polygon fill="none" stroke="black" points="2081.05,-392.5 2081.05,-411.5 2143.05,-411.5 2143.05,-392.5 2081.05,-392.5"/>
<text text-anchor="middle" x="2112.05" y="-399.5" font-family="Helvetica,sans-Serif" font-size="10.00">vili/Vili.hpp</text>
</a>
</g>
</g>
<!-- Node1&#45;&gt;Node8 -->
<g id="edge8" class="edge"><title>Node1&#45;&gt;Node8</title>
<path fill="none" stroke="midnightblue" d="M827.807,-680.746C1010.86,-679.123 1950.58,-669.19 2001.05,-636 2077.32,-585.836 2102.49,-467.945 2109.59,-421.897"/>
<polygon fill="midnightblue" stroke="midnightblue" points="2113.08,-422.217 2111.03,-411.823 2106.15,-421.229 2113.08,-422.217"/>
</g>
<!-- Node28 -->
<g id="node21" class="node"><title>Node28</title>
<g id="a_node21"><a xlink:href="_camera_8hpp.html" target="_top" xlink:title="Camera.hpp">
<polygon fill="none" stroke="black" points="242.547,-448.5 242.547,-467.5 311.547,-467.5 311.547,-448.5 242.547,-448.5"/>
<text text-anchor="middle" x="277.047" y="-455.5" font-family="Helvetica,sans-Serif" font-size="10.00">Camera.hpp</text>
</a>
</g>
</g>
<!-- Node1&#45;&gt;Node28 -->
<g id="edge36" class="edge"><title>Node1&#45;&gt;Node28</title>
<path fill="none" stroke="midnightblue" d="M766.241,-680.056C666.942,-676.742 359.755,-664.276 326.047,-636 278.655,-596.245 274.952,-515.093 275.938,-478.119"/>
<polygon fill="midnightblue" stroke="midnightblue" points="279.449,-477.914 276.373,-467.776 272.455,-477.62 279.449,-477.914"/>
</g>
<!-- Node31 -->
<g id="node24" class="node"><title>Node31</title>
<g id="a_node24"><a xlink:href="_data_parser_lua_bridge_8hpp.html" target="_top" xlink:title="DataParserLuaBridge.hpp">
<polygon fill="none" stroke="black" points="1921.05,-448.5 1921.05,-467.5 2049.05,-467.5 2049.05,-448.5 1921.05,-448.5"/>
<text text-anchor="middle" x="1985.05" y="-455.5" font-family="Helvetica,sans-Serif" font-size="10.00">DataParserLuaBridge.hpp</text>
</a>
</g>
</g>
<!-- Node1&#45;&gt;Node31 -->
<g id="edge42" class="edge"><title>Node1&#45;&gt;Node31</title>
<path fill="none" stroke="midnightblue" d="M827.789,-681.003C1009.67,-680.873 1938.31,-678.146 1980.05,-636 2022.19,-593.439 2003.08,-513.132 1991.54,-477.191"/>
<polygon fill="midnightblue" stroke="midnightblue" points="1994.8,-475.903 1988.28,-467.552 1988.17,-478.146 1994.8,-475.903"/>
</g>
<!-- Node33 -->
<g id="node26" class="node"><title>Node33</title>
<g id="a_node26"><a xlink:href="include_2_functions_8hpp.html" target="_top" xlink:title="Functions.hpp">
<polygon fill="none" stroke="black" points="1827.05,-392.5 1827.05,-411.5 1905.05,-411.5 1905.05,-392.5 1827.05,-392.5"/>
<text text-anchor="middle" x="1866.05" y="-399.5" font-family="Helvetica,sans-Serif" font-size="10.00">Functions.hpp</text>
</a>
</g>
</g>
<!-- Node1&#45;&gt;Node33 -->
<g id="edge60" class="edge"><title>Node1&#45;&gt;Node33</title>
<path fill="none" stroke="midnightblue" d="M827.779,-679.536C959.443,-672.917 1475.92,-643.326 1624.05,-580 1719.71,-539.101 1813.52,-454.164 1850.05,-418.891"/>
<polygon fill="midnightblue" stroke="midnightblue" points="1852.62,-421.271 1857.33,-411.781 1847.73,-416.263 1852.62,-421.271"/>
</g>
<!-- Node38 -->
<g id="node31" class="node"><title>Node38</title>
<g id="a_node31"><a xlink:href="_game_object_8hpp.html" target="_top" xlink:title="GameObject.hpp">
<polygon fill="none" stroke="black" points="1503.05,-560.5 1503.05,-579.5 1593.05,-579.5 1593.05,-560.5 1503.05,-560.5"/>
<text text-anchor="middle" x="1548.05" y="-567.5" font-family="Helvetica,sans-Serif" font-size="10.00">GameObject.hpp</text>
</a>
</g>
</g>
<!-- Node1&#45;&gt;Node38 -->
<g id="edge61" class="edge"><title>Node1&#45;&gt;Node38</title>
<path fill="none" stroke="midnightblue" d="M827.616,-679.107C900.304,-674.349 1089.06,-660.488 1245.05,-636 1338.06,-621.399 1445.49,-596.387 1504.17,-582.02"/>
<polygon fill="midnightblue" stroke="midnightblue" points="1505.32,-585.341 1514.2,-579.552 1503.65,-578.544 1505.32,-585.341"/>
</g>
<!-- Node40 -->
<g id="node33" class="node"><title>Node40</title>
<g id="a_node33"><a xlink:href="_time_manager_8hpp.html" target="_top" xlink:title="TimeManager.hpp">
<polygon fill="none" stroke="black" points="1014.05,-392.5 1014.05,-411.5 1108.05,-411.5 1108.05,-392.5 1014.05,-392.5"/>
<text text-anchor="middle" x="1061.05" y="-399.5" font-family="Helvetica,sans-Serif" font-size="10.00">TimeManager.hpp</text>
</a>
</g>
</g>
<!-- Node1&#45;&gt;Node40 -->
<g id="edge161" class="edge"><title>Node1&#45;&gt;Node40</title>
<path fill="none" stroke="midnightblue" d="M768.157,-672.49C701.019,-651.068 543.393,-590.39 587.047,-504 605.969,-466.552 623.987,-463.321 663.047,-448 723.71,-424.205 908.872,-411.132 1003.72,-405.835"/>
<polygon fill="midnightblue" stroke="midnightblue" points="1003.93,-409.329 1013.72,-405.287 1003.55,-402.34 1003.93,-409.329"/>
</g>
<!-- Node67 -->
<g id="node38" class="node"><title>Node67</title>
<g id="a_node38"><a xlink:href="_level_sprite_8hpp.html" target="_top" xlink:title="LevelSprite.hpp">
<polygon fill="none" stroke="black" points="859.547,-504.5 859.547,-523.5 942.547,-523.5 942.547,-504.5 859.547,-504.5"/>
<text text-anchor="middle" x="901.047" y="-511.5" font-family="Helvetica,sans-Serif" font-size="10.00">LevelSprite.hpp</text>
</a>
</g>
</g>
<!-- Node1&#45;&gt;Node67 -->
<g id="edge103" class="edge"><title>Node1&#45;&gt;Node67</title>
<path fill="none" stroke="midnightblue" d="M789.563,-672.219C772.42,-650.994 733.741,-596.008 760.047,-560 780.27,-532.318 817.711,-521.267 848.931,-517.031"/>
<polygon fill="midnightblue" stroke="midnightblue" points="849.713,-520.464 859.246,-515.841 848.911,-513.51 849.713,-520.464"/>
</g>
<!-- Node76 -->
<g id="node41" class="node"><title>Node76</title>
<g id="a_node41"><a xlink:href="_light_8hpp.html" target="_top" xlink:title="Light.hpp">
<polygon fill="none" stroke="black" points="769.047,-560.5 769.047,-579.5 825.047,-579.5 825.047,-560.5 769.047,-560.5"/>
<text text-anchor="middle" x="797.047" y="-567.5" font-family="Helvetica,sans-Serif" font-size="10.00">Light.hpp</text>
</a>
</g>
</g>
<!-- Node1&#45;&gt;Node76 -->
<g id="edge104" class="edge"><title>Node1&#45;&gt;Node76</title>
<path fill="none" stroke="midnightblue" d="M797.047,-672.368C797.047,-654.617 797.047,-613.666 797.047,-589.597"/>
<polygon fill="midnightblue" stroke="midnightblue" points="800.547,-589.591 797.047,-579.591 793.547,-589.591 800.547,-589.591"/>
</g>
<!-- Node78 -->
<g id="node43" class="node"><title>Node78</title>
<g id="a_node43"><a xlink:href="_script_8hpp.html" target="_top" xlink:title="Script.hpp">
<polygon fill="none" stroke="black" points="1175.55,-616.5 1175.55,-635.5 1236.55,-635.5 1236.55,-616.5 1175.55,-616.5"/>
<text text-anchor="middle" x="1206.05" y="-623.5" font-family="Helvetica,sans-Serif" font-size="10.00">Script.hpp</text>
</a>
</g>
</g>
<!-- Node1&#45;&gt;Node78 -->
<g id="edge114" class="edge"><title>Node1&#45;&gt;Node78</title>
<path fill="none" stroke="midnightblue" d="M827.788,-676.941C900.58,-667.331 1083.49,-643.181 1165.34,-632.374"/>
<polygon fill="midnightblue" stroke="midnightblue" points="1166.05,-635.811 1175.51,-631.032 1165.13,-628.871 1166.05,-635.811"/>
</g>
<!-- Node9 -->
<g id="node10" class="node"><title>Node9</title>
<g id="a_node10"><a xlink:href="_data_parser_8hpp.html" target="_top" xlink:title="vili/DataParser.hpp">
<polygon fill="none" stroke="black" points="2312.05,-336.5 2312.05,-355.5 2410.05,-355.5 2410.05,-336.5 2312.05,-336.5"/>
<text text-anchor="middle" x="2361.05" y="-343.5" font-family="Helvetica,sans-Serif" font-size="10.00">vili/DataParser.hpp</text>
</a>
</g>
</g>
<!-- Node8&#45;&gt;Node9 -->
<g id="edge9" class="edge"><title>Node8&#45;&gt;Node9</title>
<path fill="none" stroke="midnightblue" d="M2143.05,-393.995C2146.09,-393.317 2149.13,-392.643 2152.05,-392 2206.41,-380.032 2268.81,-366.642 2311.17,-357.604"/>
<polygon fill="midnightblue" stroke="midnightblue" points="2311.91,-361.025 2320.96,-355.517 2310.45,-354.179 2311.91,-361.025"/>
</g>
<!-- Node14 -->
<g id="node13" class="node"><title>Node14</title>
<g id="a_node13"><a xlink:href="_error_handler_8hpp.html" target="_top" xlink:title="../ErrorHandler.hpp">
<polygon fill="none" stroke="red" points="1508.05,-56.5 1508.05,-75.5 1606.05,-75.5 1606.05,-56.5 1508.05,-56.5"/>
<text text-anchor="middle" x="1557.05" y="-63.5" font-family="Helvetica,sans-Serif" font-size="10.00">../ErrorHandler.hpp</text>
</a>
</g>
</g>
<!-- Node8&#45;&gt;Node14 -->
<g id="edge27" class="edge"><title>Node8&#45;&gt;Node14</title>
<path fill="none" stroke="midnightblue" d="M2111.86,-392.248C2111.09,-378.541 2107.68,-351.932 2093.05,-336 2063.07,-303.357 2040.39,-318.346 2000.05,-300 1835.68,-225.261 1646.29,-118.352 1580.78,-80.7301"/>
<polygon fill="midnightblue" stroke="midnightblue" points="1582.45,-77.6493 1572.03,-75.6941 1578.95,-83.7162 1582.45,-77.6493"/>
</g>
<!-- Node23 -->
<g id="node16" class="node"><title>Node23</title>
<g id="a_node16"><a xlink:href="_link_attribute_8hpp.html" target="_top" xlink:title="LinkAttribute.hpp">
<polygon fill="none" stroke="red" points="2315.05,-224.5 2315.05,-243.5 2405.05,-243.5 2405.05,-224.5 2315.05,-224.5"/>
<text text-anchor="middle" x="2360.05" y="-231.5" font-family="Helvetica,sans-Serif" font-size="10.00">LinkAttribute.hpp</text>
</a>
</g>
</g>
<!-- Node8&#45;&gt;Node23 -->
<g id="edge26" class="edge"><title>Node8&#45;&gt;Node23</title>
<path fill="none" stroke="midnightblue" d="M2143.44,-393.665C2146.34,-393.069 2149.24,-392.503 2152.05,-392 2210.97,-381.419 2379.64,-401.074 2419.05,-356 2426.3,-347.699 2436.88,-317.589 2418.05,-280 2411.41,-266.743 2398.82,-256.241 2387.07,-248.729"/>
<polygon fill="midnightblue" stroke="midnightblue" points="2388.74,-245.652 2378.35,-243.57 2385.18,-251.676 2388.74,-245.652"/>
</g>
<!-- Node24 -->
<g id="node17" class="node"><title>Node24</title>
<g id="a_node17"><a xlink:href="extlibs_2include_2vili_2_functions_8hpp.html" target="_top" xlink:title="Functions.hpp">
<polygon fill="none" stroke="black" points="2140.05,-336.5 2140.05,-355.5 2218.05,-355.5 2218.05,-336.5 2140.05,-336.5"/>
<text text-anchor="middle" x="2179.05" y="-343.5" font-family="Helvetica,sans-Serif" font-size="10.00">Functions.hpp</text>
</a>
</g>
</g>
<!-- Node8&#45;&gt;Node24 -->
<g id="edge28" class="edge"><title>Node8&#45;&gt;Node24</title>
<path fill="none" stroke="midnightblue" d="M2122.81,-392.324C2132.81,-384.263 2147.93,-372.077 2159.98,-362.369"/>
<polygon fill="midnightblue" stroke="midnightblue" points="2162.5,-364.834 2168.09,-355.834 2158.1,-359.384 2162.5,-364.834"/>
</g>
<!-- Node10 -->
<g id="node11" class="node"><title>Node10</title>
<g id="a_node11"><a xlink:href="_complex_attribute_8hpp.html" target="_top" xlink:title="ComplexAttribute.hpp">
<polygon fill="none" stroke="red" points="2187.05,-168.5 2187.05,-187.5 2297.05,-187.5 2297.05,-168.5 2187.05,-168.5"/>
<text text-anchor="middle" x="2242.05" y="-175.5" font-family="Helvetica,sans-Serif" font-size="10.00">ComplexAttribute.hpp</text>
</a>
</g>
</g>
<!-- Node9&#45;&gt;Node10 -->
<g id="edge10" class="edge"><title>Node9&#45;&gt;Node10</title>
<path fill="none" stroke="midnightblue" d="M2347.26,-336.334C2335.02,-328.119 2317.23,-314.851 2305.05,-300 2278.49,-267.619 2258.56,-222.239 2248.77,-197.268"/>
<polygon fill="midnightblue" stroke="midnightblue" points="2251.94,-195.733 2245.11,-187.632 2245.39,-198.223 2251.94,-195.733"/>
</g>
<!-- Node22 -->
<g id="node15" class="node"><title>Node22</title>
<g id="a_node15"><a xlink:href="_data_template_8hpp.html" target="_top" xlink:title="DataTemplate.hpp">
<polygon fill="none" stroke="black" points="2314.55,-280.5 2314.55,-299.5 2409.55,-299.5 2409.55,-280.5 2314.55,-280.5"/>
<text text-anchor="middle" x="2362.05" y="-287.5" font-family="Helvetica,sans-Serif" font-size="10.00">DataTemplate.hpp</text>
</a>
</g>
</g>
<!-- Node9&#45;&gt;Node22 -->
<g id="edge20" class="edge"><title>Node9&#45;&gt;Node22</title>
<path fill="none" stroke="midnightblue" d="M2361.21,-336.083C2361.34,-329.006 2361.53,-318.861 2361.69,-309.986"/>
<polygon fill="midnightblue" stroke="midnightblue" points="2365.2,-309.814 2361.88,-299.751 2358.2,-309.685 2365.2,-309.814"/>
</g>
<!-- Node10&#45;&gt;Node5 -->
<g id="edge12" class="edge"><title>Node10&#45;&gt;Node5</title>
<path fill="none" stroke="midnightblue" d="M2239.18,-168.351C2234.31,-154.785 2223.24,-128.366 2206.05,-112 2165.16,-73.0777 2146.02,-72.5254 2092.05,-56 1987.45,-23.9756 1856.88,-14.6747 1798.18,-12.0262"/>
<polygon fill="midnightblue" stroke="midnightblue" points="1798.21,-8.52468 1788.07,-11.6051 1797.92,-15.5186 1798.21,-8.52468"/>
</g>
<!-- Node10&#45;&gt;Node6 -->
<g id="edge11" class="edge"><title>Node10&#45;&gt;Node6</title>
<path fill="none" stroke="midnightblue" d="M2235.83,-168.467C2224.81,-154.055 2200.3,-125.177 2172.05,-112 1978.46,-21.721 1276.21,-12.1379 1127.74,-11.1208"/>
<polygon fill="midnightblue" stroke="midnightblue" points="1127.67,-7.62037 1117.65,-11.0594 1127.63,-14.6202 1127.67,-7.62037"/>
</g>
<!-- Node13 -->
<g id="node12" class="node"><title>Node13</title>
<g id="a_node12"><a xlink:href="_base_attribute_8hpp.html" target="_top" xlink:title="BaseAttribute.hpp">
<polygon fill="none" stroke="red" points="2068.55,-112.5 2068.55,-131.5 2163.55,-131.5 2163.55,-112.5 2068.55,-112.5"/>
<text text-anchor="middle" x="2116.05" y="-119.5" font-family="Helvetica,sans-Serif" font-size="10.00">BaseAttribute.hpp</text>
</a>
</g>
</g>
<!-- Node10&#45;&gt;Node13 -->
<g id="edge13" class="edge"><title>Node10&#45;&gt;Node13</title>
<path fill="none" stroke="midnightblue" d="M2222.08,-168.444C2201.44,-159.596 2168.98,-145.687 2145.41,-135.586"/>
<polygon fill="midnightblue" stroke="midnightblue" points="2146.49,-132.239 2135.92,-131.516 2143.73,-138.673 2146.49,-132.239"/>
</g>
<!-- Node18 -->
<g id="node14" class="node"><title>Node18</title>
<g id="a_node14"><a xlink:href="_container_attribute_8hpp.html" target="_top" xlink:title="ContainerAttribute.hpp">
<polygon fill="none" stroke="red" points="2258.55,-112.5 2258.55,-131.5 2371.55,-131.5 2371.55,-112.5 2258.55,-112.5"/>
<text text-anchor="middle" x="2315.05" y="-119.5" font-family="Helvetica,sans-Serif" font-size="10.00">ContainerAttribute.hpp</text>
</a>
</g>
</g>
<!-- Node10&#45;&gt;Node18 -->
<g id="edge19" class="edge"><title>Node10&#45;&gt;Node18</title>
<path fill="none" stroke="midnightblue" d="M2253.78,-168.324C2264.88,-160.107 2281.79,-147.602 2295.03,-137.807"/>
<polygon fill="midnightblue" stroke="midnightblue" points="2297.15,-140.595 2303.1,-131.834 2292.98,-134.967 2297.15,-140.595"/>
</g>
<!-- Node13&#45;&gt;Node14 -->
<g id="edge14" class="edge"><title>Node13&#45;&gt;Node14</title>
<path fill="none" stroke="midnightblue" d="M2068.39,-116.396C1966.48,-106.552 1727.65,-83.4808 1616.23,-72.7176"/>
<polygon fill="midnightblue" stroke="midnightblue" points="1616.47,-69.2241 1606.18,-71.7463 1615.8,-76.1917 1616.47,-69.2241"/>
</g>
<!-- Node14&#45;&gt;Node3 -->
<g id="edge18" class="edge"><title>Node14&#45;&gt;Node3</title>
<path fill="none" stroke="midnightblue" d="M1507.78,-61.9028C1352.12,-52.1177 873.079,-22.0032 735.406,-13.3486"/>
<polygon fill="midnightblue" stroke="midnightblue" points="735.553,-9.85099 725.353,-12.7166 735.114,-16.8372 735.553,-9.85099"/>
</g>
<!-- Node14&#45;&gt;Node4 -->
<g id="edge15" class="edge"><title>Node14&#45;&gt;Node4</title>
<path fill="none" stroke="midnightblue" d="M1606.18,-62.4318C1787.09,-52.9745 2413.24,-20.2425 2559.38,-12.603"/>
<polygon fill="midnightblue" stroke="midnightblue" points="2559.63,-16.0948 2569.44,-12.0774 2559.27,-9.10431 2559.63,-16.0948"/>
</g>
<!-- Node14&#45;&gt;Node5 -->
<g id="edge16" class="edge"><title>Node14&#45;&gt;Node5</title>
<path fill="none" stroke="midnightblue" d="M1590.32,-56.4435C1630.35,-46.1515 1697,-29.0107 1736.01,-18.9819"/>
<polygon fill="midnightblue" stroke="midnightblue" points="1736.95,-22.3538 1745.76,-16.4736 1735.2,-15.5744 1736.95,-22.3538"/>
</g>
<!-- Node14&#45;&gt;Node6 -->
<g id="edge17" class="edge"><title>Node14&#45;&gt;Node6</title>
<path fill="none" stroke="midnightblue" d="M1507.88,-57.8404C1503.21,-57.2007 1498.54,-56.5774 1494.05,-56 1356.87,-38.3721 1192.38,-20.7011 1127.9,-13.9086"/>
<polygon fill="midnightblue" stroke="midnightblue" points="1128.05,-10.4051 1117.74,-12.8411 1127.32,-17.3668 1128.05,-10.4051"/>
</g>
<!-- Node22&#45;&gt;Node23 -->
<g id="edge21" class="edge"><title>Node22&#45;&gt;Node23</title>
<path fill="none" stroke="midnightblue" d="M2361.72,-280.083C2361.45,-273.006 2361.08,-262.861 2360.75,-253.986"/>
<polygon fill="midnightblue" stroke="midnightblue" points="2364.24,-253.615 2360.37,-243.751 2357.24,-253.874 2364.24,-253.615"/>
</g>
<!-- Node23&#45;&gt;Node4 -->
<g id="edge22" class="edge"><title>Node23&#45;&gt;Node4</title>
<path fill="none" stroke="midnightblue" d="M2365.09,-224.152C2381.38,-196.218 2435.29,-108.644 2500.05,-56 2517.97,-41.4276 2541.39,-29.9031 2559.85,-22.1658"/>
<polygon fill="midnightblue" stroke="midnightblue" points="2561.29,-25.3558 2569.26,-18.3654 2558.67,-18.8652 2561.29,-25.3558"/>
</g>
<!-- Node23&#45;&gt;Node10 -->
<g id="edge24" class="edge"><title>Node23&#45;&gt;Node10</title>
<path fill="none" stroke="midnightblue" d="M2341.35,-224.444C2322.1,-215.636 2291.89,-201.812 2269.85,-191.722"/>
<polygon fill="midnightblue" stroke="midnightblue" points="2271.21,-188.495 2260.66,-187.516 2268.29,-194.86 2271.21,-188.495"/>
</g>
<!-- Node23&#45;&gt;Node13 -->
<g id="edge23" class="edge"><title>Node23&#45;&gt;Node13</title>
<path fill="none" stroke="midnightblue" d="M2314.77,-228.947C2276.24,-223.888 2220.56,-212.664 2178.05,-188 2157.27,-175.946 2139.05,-154.866 2127.83,-139.985"/>
<polygon fill="midnightblue" stroke="midnightblue" points="2130.5,-137.697 2121.79,-131.657 2124.83,-141.807 2130.5,-137.697"/>
</g>
<!-- Node23&#45;&gt;Node18 -->
<g id="edge25" class="edge"><title>Node23&#45;&gt;Node18</title>
<path fill="none" stroke="midnightblue" d="M2356.52,-224.368C2349.19,-206.456 2332.2,-164.923 2322.39,-140.948"/>
<polygon fill="midnightblue" stroke="midnightblue" points="2325.59,-139.522 2318.56,-131.591 2319.11,-142.172 2325.59,-139.522"/>
</g>
<!-- Node24&#45;&gt;Node3 -->
<g id="edge29" class="edge"><title>Node24&#45;&gt;Node3</title>
<path fill="none" stroke="midnightblue" d="M2150.23,-336.376C2021.61,-298.16 1486.55,-142.177 1038.05,-56 928.878,-35.0241 798.106,-20.7093 735.304,-14.4962"/>
<polygon fill="midnightblue" stroke="midnightblue" points="735.397,-10.9887 725.104,-13.4995 734.717,-17.9555 735.397,-10.9887"/>
</g>
<!-- Node24&#45;&gt;Node4 -->
<g id="edge31" class="edge"><title>Node24&#45;&gt;Node4</title>
<path fill="none" stroke="midnightblue" d="M2172.64,-336.302C2163.43,-322.668 2149.04,-296.158 2163.05,-280 2236.86,-194.842 2318.87,-304.348 2414.05,-244 2498.58,-190.401 2472.03,-131.234 2538.05,-56 2547.77,-44.9231 2560.2,-34.066 2570.48,-25.792"/>
<polygon fill="midnightblue" stroke="midnightblue" points="2572.78,-28.4292 2578.49,-19.5014 2568.46,-22.9231 2572.78,-28.4292"/>
</g>
<!-- Node24&#45;&gt;Node5 -->
<g id="edge30" class="edge"><title>Node24&#45;&gt;Node5</title>
<path fill="none" stroke="midnightblue" d="M2168.45,-336.408C2113.13,-291.561 1857.33,-84.1922 1785.72,-26.1399"/>
<polygon fill="midnightblue" stroke="midnightblue" points="1787.55,-23.1137 1777.57,-19.5351 1783.14,-28.5513 1787.55,-23.1137"/>
</g>
<!-- Node24&#45;&gt;Node6 -->
<g id="edge33" class="edge"><title>Node24&#45;&gt;Node6</title>
<path fill="none" stroke="midnightblue" d="M2163.29,-336.465C2078.24,-290.455 1675.51,-73.4088 1615.05,-56 1522.13,-29.2468 1220.79,-15.6498 1127.7,-12.015"/>
<polygon fill="midnightblue" stroke="midnightblue" points="1127.77,-8.51537 1117.65,-11.6299 1127.51,-15.5102 1127.77,-8.51537"/>
</g>
<!-- Node25 -->
<g id="node18" class="node"><title>Node25</title>
<polygon fill="none" stroke="#bfbfbf" points="1858.05,-280.5 1858.05,-299.5 1910.05,-299.5 1910.05,-280.5 1858.05,-280.5"/>
<text text-anchor="middle" x="1884.05" y="-287.5" font-family="Helvetica,sans-Serif" font-size="10.00">sstream</text>
</g>
<!-- Node24&#45;&gt;Node25 -->
<g id="edge32" class="edge"><title>Node24&#45;&gt;Node25</title>
<path fill="none" stroke="midnightblue" d="M2139.87,-337.829C2082.45,-327.318 1976.21,-307.87 1920.42,-297.658"/>
<polygon fill="midnightblue" stroke="midnightblue" points="1920.76,-294.162 1910.29,-295.804 1919.49,-301.047 1920.76,-294.162"/>
</g>
<!-- Node26 -->
<g id="node19" class="node"><title>Node26</title>
<polygon fill="none" stroke="#bfbfbf" points="1784.05,-280.5 1784.05,-299.5 1840.05,-299.5 1840.05,-280.5 1784.05,-280.5"/>
<text text-anchor="middle" x="1812.05" y="-287.5" font-family="Helvetica,sans-Serif" font-size="10.00">algorithm</text>
</g>
<!-- Node24&#45;&gt;Node26 -->
<g id="edge34" class="edge"><title>Node24&#45;&gt;Node26</title>
<path fill="none" stroke="midnightblue" d="M2139.97,-340.992C2079.8,-334.532 1960.68,-320.607 1850.24,-300.059"/>
<polygon fill="midnightblue" stroke="midnightblue" points="1850.74,-296.592 1840.26,-298.181 1849.44,-303.471 1850.74,-296.592"/>
</g>
<!-- Node27 -->
<g id="node20" class="node"><title>Node27</title>
<polygon fill="none" stroke="#bfbfbf" points="2172.55,-280.5 2172.55,-299.5 2219.55,-299.5 2219.55,-280.5 2172.55,-280.5"/>
<text text-anchor="middle" x="2196.05" y="-287.5" font-family="Helvetica,sans-Serif" font-size="10.00">iterator</text>
</g>
<!-- Node24&#45;&gt;Node27 -->
<g id="edge35" class="edge"><title>Node24&#45;&gt;Node27</title>
<path fill="none" stroke="midnightblue" d="M2181.85,-336.083C2184.13,-328.849 2187.42,-318.409 2190.25,-309.397"/>
<polygon fill="midnightblue" stroke="midnightblue" points="2193.63,-310.341 2193.29,-299.751 2186.95,-308.239 2193.63,-310.341"/>
</g>
<!-- Node28&#45;&gt;Node2 -->
<g id="edge37" class="edge"><title>Node28&#45;&gt;Node2</title>
<path fill="none" stroke="midnightblue" d="M285.76,-448.145C300.459,-433.79 331.753,-405.673 364.047,-392 402.29,-375.808 511.727,-361.414 581.916,-353.481"/>
<polygon fill="midnightblue" stroke="midnightblue" points="582.424,-356.946 591.973,-352.358 581.647,-349.989 582.424,-356.946"/>
</g>
<!-- Node29 -->
<g id="node22" class="node"><title>Node29</title>
<g id="a_node22"><a xlink:href="_coordinates_8hpp.html" target="_top" xlink:title="Coordinates.hpp">
<polygon fill="none" stroke="black" points="419.547,-336.5 419.547,-355.5 506.547,-355.5 506.547,-336.5 419.547,-336.5"/>
<text text-anchor="middle" x="463.047" y="-343.5" font-family="Helvetica,sans-Serif" font-size="10.00">Coordinates.hpp</text>
</a>
</g>
</g>
<!-- Node28&#45;&gt;Node29 -->
<g id="edge38" class="edge"><title>Node28&#45;&gt;Node29</title>
<path fill="none" stroke="midnightblue" d="M267.398,-448.246C253.959,-434.999 232.776,-409.55 247.047,-392 267.108,-367.328 352.004,-355.73 409.197,-350.626"/>
<polygon fill="midnightblue" stroke="midnightblue" points="409.513,-354.111 419.179,-349.775 408.918,-347.137 409.513,-354.111"/>
</g>
<!-- Node30 -->
<g id="node23" class="node"><title>Node30</title>
<g id="a_node23"><a xlink:href="_rect_8hpp.html" target="_top" xlink:title="Rect.hpp">
<polygon fill="none" stroke="black" points="256.047,-392.5 256.047,-411.5 312.047,-411.5 312.047,-392.5 256.047,-392.5"/>
<text text-anchor="middle" x="284.047" y="-399.5" font-family="Helvetica,sans-Serif" font-size="10.00">Rect.hpp</text>
</a>
</g>
</g>
<!-- Node28&#45;&gt;Node30 -->
<g id="edge40" class="edge"><title>Node28&#45;&gt;Node30</title>
<path fill="none" stroke="midnightblue" d="M278.202,-448.083C279.13,-440.927 280.464,-430.635 281.624,-421.691"/>
<polygon fill="midnightblue" stroke="midnightblue" points="285.097,-422.118 282.912,-411.751 278.156,-421.218 285.097,-422.118"/>
</g>
<!-- Node29&#45;&gt;Node3 -->
<g id="edge39" class="edge"><title>Node29&#45;&gt;Node3</title>
<path fill="none" stroke="midnightblue" d="M475.234,-336.241C497.172,-319.35 541.047,-279.949 541.047,-235 541.047,-235 541.047,-235 541.047,-121 541.047,-62.7083 614.537,-32.6896 660.958,-19.5426"/>
<polygon fill="midnightblue" stroke="midnightblue" points="661.955,-22.8988 670.699,-16.9166 660.133,-16.1401 661.955,-22.8988"/>
</g>
<!-- Node30&#45;&gt;Node29 -->
<g id="edge41" class="edge"><title>Node30&#45;&gt;Node29</title>
<path fill="none" stroke="midnightblue" d="M312.41,-392.444C342.785,-383.28 391.156,-368.688 424.863,-358.519"/>
<polygon fill="midnightblue" stroke="midnightblue" points="426.253,-361.756 434.816,-355.516 424.231,-355.054 426.253,-361.756"/>
</g>
<!-- Node31&#45;&gt;Node8 -->
<g id="edge44" class="edge"><title>Node31&#45;&gt;Node8</title>
<path fill="none" stroke="midnightblue" d="M2005.17,-448.444C2026.07,-439.557 2058.98,-425.563 2082.76,-415.451"/>
<polygon fill="midnightblue" stroke="midnightblue" points="2084.18,-418.65 2092.02,-411.516 2081.44,-412.208 2084.18,-418.65"/>
</g>
<!-- Node32 -->
<g id="node25" class="node"><title>Node32</title>
<polygon fill="none" stroke="#bfbfbf" points="2161.55,-392.5 2161.55,-411.5 2262.55,-411.5 2262.55,-392.5 2161.55,-392.5"/>
<text text-anchor="middle" x="2212.05" y="-399.5" font-family="Helvetica,sans-Serif" font-size="10.00">kaguya/kaguya.hpp</text>
</g>
<!-- Node31&#45;&gt;Node32 -->
<g id="edge43" class="edge"><title>Node31&#45;&gt;Node32</title>
<path fill="none" stroke="midnightblue" d="M2021.02,-448.444C2060.37,-439.083 2123.53,-424.056 2166.36,-413.868"/>
<polygon fill="midnightblue" stroke="midnightblue" points="2167.33,-417.236 2176.25,-411.516 2165.71,-410.426 2167.33,-417.236"/>
</g>
<!-- Node31&#45;&gt;Node33 -->
<g id="edge45" class="edge"><title>Node31&#45;&gt;Node33</title>
<path fill="none" stroke="midnightblue" d="M1966.19,-448.444C1946.78,-439.636 1916.32,-425.812 1894.08,-415.722"/>
<polygon fill="midnightblue" stroke="midnightblue" points="1895.37,-412.462 1884.81,-411.516 1892.47,-418.836 1895.37,-412.462"/>
</g>
<!-- Node33&#45;&gt;Node3 -->
<g id="edge46" class="edge"><title>Node33&#45;&gt;Node3</title>
<path fill="none" stroke="midnightblue" d="M1844.57,-392.429C1751.66,-355.381 1383.69,-209.036 1266.05,-168 1107.43,-112.672 1067.5,-98.772 905.047,-56 846.195,-40.505 776.936,-26.2397 735.314,-18.0885"/>
<polygon fill="midnightblue" stroke="midnightblue" points="735.835,-14.6243 725.351,-16.1508 734.499,-21.4955 735.835,-14.6243"/>
</g>
<!-- Node33&#45;&gt;Node4 -->
<g id="edge48" class="edge"><title>Node33&#45;&gt;Node4</title>
<path fill="none" stroke="midnightblue" d="M1905.39,-398.318C2030,-389.756 2408.4,-363.223 2419.05,-356 2449.38,-335.432 2553.2,-96.9959 2582.37,-28.9983"/>
<polygon fill="midnightblue" stroke="midnightblue" points="2585.67,-30.1786 2586.39,-19.608 2579.24,-27.425 2585.67,-30.1786"/>
</g>
<!-- Node33&#45;&gt;Node5 -->
<g id="edge47" class="edge"><title>Node33&#45;&gt;Node5</title>
<path fill="none" stroke="midnightblue" d="M1905.11,-397.744C1999.47,-389.695 2232.86,-368.601 2244.05,-356 2249.95,-349.353 2245.28,-344.803 2244.05,-336 2240.46,-310.365 2243.88,-300.477 2228.05,-280 2108.12,-124.911 2018.19,-153.39 1848.05,-56 1829.14,-45.1778 1807.57,-33.2129 1791.44,-24.3426"/>
<polygon fill="midnightblue" stroke="midnightblue" points="1793.09,-21.2539 1782.64,-19.5095 1789.72,-27.39 1793.09,-21.2539"/>
</g>
<!-- Node33&#45;&gt;Node6 -->
<g id="edge50" class="edge"><title>Node33&#45;&gt;Node6</title>
<path fill="none" stroke="midnightblue" d="M1852.09,-392.372C1784.94,-351.087 1487.68,-170.978 1228.05,-56 1194.2,-41.0118 1153.68,-27.4686 1127.43,-19.2437"/>
<polygon fill="midnightblue" stroke="midnightblue" points="1128.36,-15.8701 1117.78,-16.2586 1126.3,-22.5575 1128.36,-15.8701"/>
</g>
<!-- Node33&#45;&gt;Node7 -->
<g id="edge56" class="edge"><title>Node33&#45;&gt;Node7</title>
<path fill="none" stroke="midnightblue" d="M1826.8,-397.416C1748.46,-390.187 1567.14,-373.091 1415.05,-356 1402.85,-354.629 1389.5,-352.998 1377.65,-351.503"/>
<polygon fill="midnightblue" stroke="midnightblue" points="1378.05,-348.025 1367.69,-350.234 1377.17,-354.969 1378.05,-348.025"/>
</g>
<!-- Node33&#45;&gt;Node14 -->
<g id="edge58" class="edge"><title>Node33&#45;&gt;Node14</title>
<path fill="none" stroke="midnightblue" d="M1858.1,-392.408C1816.86,-347.835 1627.1,-142.72 1572.05,-83.2206"/>
<polygon fill="midnightblue" stroke="midnightblue" points="1574.3,-80.4987 1564.94,-75.5351 1569.16,-85.2524 1574.3,-80.4987"/>
</g>
<!-- Node33&#45;&gt;Node25 -->
<g id="edge49" class="edge"><title>Node33&#45;&gt;Node25</title>
<path fill="none" stroke="midnightblue" d="M1870.67,-392.339C1875.11,-383.493 1881.5,-369.22 1884.05,-356 1887.02,-340.573 1886.76,-322.702 1885.9,-309.607"/>
<polygon fill="midnightblue" stroke="midnightblue" points="1889.38,-309.187 1885.06,-299.511 1882.4,-309.767 1889.38,-309.187"/>
</g>
<!-- Node33&#45;&gt;Node26 -->
<g id="edge53" class="edge"><title>Node33&#45;&gt;Node26</title>
<path fill="none" stroke="midnightblue" d="M1864.36,-392.218C1861.68,-379.369 1855.72,-354.921 1846.05,-336 1840.82,-325.777 1833.25,-315.478 1826.57,-307.317"/>
<polygon fill="midnightblue" stroke="midnightblue" points="1829.23,-305.032 1820.08,-299.679 1823.89,-309.566 1829.23,-305.032"/>
</g>
<!-- Node33&#45;&gt;Node27 -->
<g id="edge54" class="edge"><title>Node33&#45;&gt;Node27</title>
<path fill="none" stroke="midnightblue" d="M1905.37,-397.495C1996.74,-389.165 2216.46,-367.983 2227.05,-356 2239.64,-341.742 2226.31,-321.474 2213.43,-307.375"/>
<polygon fill="midnightblue" stroke="midnightblue" points="2215.59,-304.578 2206.1,-299.878 2210.59,-309.474 2215.59,-304.578"/>
</g>
<!-- Node33&#45;&gt;Node29 -->
<g id="edge59" class="edge"><title>Node33&#45;&gt;Node29</title>
<path fill="none" stroke="midnightblue" d="M1826.92,-400.196C1670.3,-396.856 1073.48,-382.981 583.047,-356 561.364,-354.807 537.507,-353.099 516.815,-351.491"/>
<polygon fill="midnightblue" stroke="midnightblue" points="516.869,-347.985 506.624,-350.688 516.318,-354.963 516.869,-347.985"/>
</g>
<!-- Node34 -->
<g id="node27" class="node"><title>Node34</title>
<polygon fill="none" stroke="#bfbfbf" points="1424.05,-336.5 1424.05,-355.5 1470.05,-355.5 1470.05,-336.5 1424.05,-336.5"/>
<text text-anchor="middle" x="1447.05" y="-343.5" font-family="Helvetica,sans-Serif" font-size="10.00">chrono</text>
</g>
<!-- Node33&#45;&gt;Node34 -->
<g id="edge51" class="edge"><title>Node33&#45;&gt;Node34</title>
<path fill="none" stroke="midnightblue" d="M1827,-395.968C1745.12,-385.416 1556.7,-361.133 1480.22,-351.275"/>
<polygon fill="midnightblue" stroke="midnightblue" points="1480.56,-347.79 1470.19,-349.983 1479.66,-354.733 1480.56,-347.79"/>
</g>
<!-- Node35 -->
<g id="node28" class="node"><title>Node35</title>
<polygon fill="none" stroke="#bfbfbf" points="1936.55,-336.5 1936.55,-355.5 1985.55,-355.5 1985.55,-336.5 1936.55,-336.5"/>
<text text-anchor="middle" x="1961.05" y="-343.5" font-family="Helvetica,sans-Serif" font-size="10.00">random</text>
</g>
<!-- Node33&#45;&gt;Node35 -->
<g id="edge52" class="edge"><title>Node33&#45;&gt;Node35</title>
<path fill="none" stroke="midnightblue" d="M1881.31,-392.324C1896.27,-383.822 1919.3,-370.729 1936.77,-360.797"/>
<polygon fill="midnightblue" stroke="midnightblue" points="1938.86,-363.639 1945.82,-355.655 1935.4,-357.553 1938.86,-363.639"/>
</g>
<!-- Node36 -->
<g id="node29" class="node"><title>Node36</title>
<polygon fill="none" stroke="#bfbfbf" points="1526.05,-336.5 1526.05,-355.5 1576.05,-355.5 1576.05,-336.5 1526.05,-336.5"/>
<text text-anchor="middle" x="1551.05" y="-343.5" font-family="Helvetica,sans-Serif" font-size="10.00">typeinfo</text>
</g>
<!-- Node33&#45;&gt;Node36 -->
<g id="edge55" class="edge"><title>Node33&#45;&gt;Node36</title>
<path fill="none" stroke="midnightblue" d="M1826.79,-394.27C1764.87,-383.655 1645.48,-363.189 1586.21,-353.028"/>
<polygon fill="midnightblue" stroke="midnightblue" points="1586.65,-349.553 1576.21,-351.313 1585.47,-356.453 1586.65,-349.553"/>
</g>
<!-- Node37 -->
<g id="node30" class="node"><title>Node37</title>
<polygon fill="none" stroke="#bfbfbf" points="2004.05,-336.5 2004.05,-355.5 2084.05,-355.5 2084.05,-336.5 2004.05,-336.5"/>
<text text-anchor="middle" x="2044.05" y="-343.5" font-family="Helvetica,sans-Serif" font-size="10.00">tinydir/tinydir.h</text>
</g>
<!-- Node33&#45;&gt;Node37 -->
<g id="edge57" class="edge"><title>Node33&#45;&gt;Node37</title>
<path fill="none" stroke="midnightblue" d="M1894.25,-392.444C1924.46,-383.28 1972.56,-368.688 2006.08,-358.519"/>
<polygon fill="midnightblue" stroke="midnightblue" points="2007.42,-361.769 2015.97,-355.516 2005.39,-355.07 2007.42,-361.769"/>
</g>
<!-- Node38&#45;&gt;Node8 -->
<g id="edge63" class="edge"><title>Node38&#45;&gt;Node8</title>
<path fill="none" stroke="midnightblue" d="M1567.83,-560.488C1618.63,-538.913 1758.16,-481.436 1879.05,-448 1961.04,-425.322 1983.56,-428.342 2067.05,-412 2068.14,-411.786 2069.25,-411.568 2070.37,-411.348"/>
<polygon fill="midnightblue" stroke="midnightblue" points="2071.45,-414.702 2080.58,-409.327 2070.09,-407.835 2071.45,-414.702"/>
</g>
<!-- Node38&#45;&gt;Node32 -->
<g id="edge62" class="edge"><title>Node38&#45;&gt;Node32</title>
<path fill="none" stroke="midnightblue" d="M1593.25,-565.339C1687.93,-556.652 1913.09,-530.636 2091.05,-468 2127.98,-455 2167.32,-431.935 2190.78,-417.065"/>
<polygon fill="midnightblue" stroke="midnightblue" points="2192.72,-419.974 2199.24,-411.619 2188.93,-414.088 2192.72,-419.974"/>
</g>
<!-- Node39 -->
<g id="node32" class="node"><title>Node39</title>
<g id="a_node32"><a xlink:href="_animation_8hpp.html" target="_top" xlink:title="Various Animation Classes. ">
<polygon fill="none" stroke="red" points="1408.55,-448.5 1408.55,-467.5 1487.55,-467.5 1487.55,-448.5 1408.55,-448.5"/>
<text text-anchor="middle" x="1448.05" y="-455.5" font-family="Helvetica,sans-Serif" font-size="10.00">Animation.hpp</text>
</a>
</g>
</g>
<!-- Node38&#45;&gt;Node39 -->
<g id="edge64" class="edge"><title>Node38&#45;&gt;Node39</title>
<path fill="none" stroke="midnightblue" d="M1540.2,-560.368C1523.48,-541.974 1484.11,-498.671 1462.64,-475.052"/>
<polygon fill="midnightblue" stroke="midnightblue" points="1465.17,-472.636 1455.86,-467.591 1459.99,-477.345 1465.17,-472.636"/>
</g>
<!-- Node61 -->
<g id="node34" class="node"><title>Node61</title>
<g id="a_node34"><a xlink:href="_collisions_8hpp.html" target="_top" xlink:title="Collisions.hpp">
<polygon fill="none" stroke="red" points="1059.55,-504.5 1059.55,-523.5 1136.55,-523.5 1136.55,-504.5 1059.55,-504.5"/>
<text text-anchor="middle" x="1098.05" y="-511.5" font-family="Helvetica,sans-Serif" font-size="10.00">Collisions.hpp</text>
</a>
</g>
</g>
<!-- Node38&#45;&gt;Node61 -->
<g id="edge76" class="edge"><title>Node38&#45;&gt;Node61</title>
<path fill="none" stroke="midnightblue" d="M1502.84,-563.575C1417.73,-553.361 1234.39,-531.361 1146.7,-520.838"/>
<polygon fill="midnightblue" stroke="midnightblue" points="1147.09,-517.36 1136.75,-519.644 1146.26,-524.31 1147.09,-517.36"/>
</g>
<!-- Node38&#45;&gt;Node67 -->
<g id="edge84" class="edge"><title>Node38&#45;&gt;Node67</title>
<path fill="none" stroke="midnightblue" d="M1502.81,-565.224C1386.34,-555.503 1076.65,-529.656 953.052,-519.34"/>
<polygon fill="midnightblue" stroke="midnightblue" points="952.985,-515.823 942.728,-518.479 952.402,-522.799 952.985,-515.823"/>
</g>
<!-- Node75 -->
<g id="node40" class="node"><title>Node75</title>
<g id="a_node40"><a xlink:href="_triggers_8hpp.html" target="_top" xlink:title="Triggers.hpp">
<polygon fill="none" stroke="black" points="1506.05,-448.5 1506.05,-467.5 1576.05,-467.5 1576.05,-448.5 1506.05,-448.5"/>
<text text-anchor="middle" x="1541.05" y="-455.5" font-family="Helvetica,sans-Serif" font-size="10.00">Triggers.hpp</text>
</a>
</g>
</g>
<!-- Node38&#45;&gt;Node75 -->
<g id="edge93" class="edge"><title>Node38&#45;&gt;Node75</title>
<path fill="none" stroke="midnightblue" d="M1547.5,-560.368C1546.37,-542.617 1543.76,-501.666 1542.23,-477.597"/>
<polygon fill="midnightblue" stroke="midnightblue" points="1545.72,-477.349 1541.59,-467.591 1538.74,-477.794 1545.72,-477.349"/>
</g>
<!-- Node39&#45;&gt;Node2 -->
<g id="edge67" class="edge"><title>Node39&#45;&gt;Node2</title>
<path fill="none" stroke="midnightblue" d="M1408.48,-454.264C1330.83,-448.612 1153.16,-434.281 1005.05,-412 960.226,-405.258 949.606,-400.296 905.047,-392 837.099,-379.35 758.962,-366.041 706.027,-357.208"/>
<polygon fill="midnightblue" stroke="midnightblue" points="706.555,-353.748 696.116,-355.558 705.405,-360.653 706.555,-353.748"/>
</g>
<!-- Node39&#45;&gt;Node5 -->
<g id="edge66" class="edge"><title>Node39&#45;&gt;Node5</title>
<path fill="none" stroke="midnightblue" d="M1435.59,-448.408C1402.13,-425.267 1312.57,-362.911 1309.05,-356 1305.01,-348.08 1304.97,-343.897 1309.05,-336 1357.73,-241.765 1654.48,-72.9566 1742.48,-24.4007"/>
<polygon fill="midnightblue" stroke="midnightblue" points="1744.16,-27.4664 1751.24,-19.5813 1740.79,-21.3324 1744.16,-27.4664"/>
</g>
<!-- Node39&#45;&gt;Node7 -->
<g id="edge65" class="edge"><title>Node39&#45;&gt;Node7</title>
<path fill="none" stroke="midnightblue" d="M1440.75,-448.393C1429.95,-435.764 1408.96,-411.585 1390.05,-392 1380.34,-381.943 1369.03,-371.094 1359.94,-362.568"/>
<polygon fill="midnightblue" stroke="midnightblue" points="1362.33,-360.005 1352.62,-355.753 1357.56,-365.128 1362.33,-360.005"/>
</g>
<!-- Node39&#45;&gt;Node8 -->
<g id="edge68" class="edge"><title>Node39&#45;&gt;Node8</title>
<path fill="none" stroke="midnightblue" d="M1487.57,-449.36C1490.77,-448.858 1493.96,-448.395 1497.05,-448 1711.95,-420.484 1971.41,-408.35 2070.69,-404.474"/>
<polygon fill="midnightblue" stroke="midnightblue" points="2071.03,-407.964 2080.89,-404.083 2070.76,-400.969 2071.03,-407.964"/>
</g>
<!-- Node39&#45;&gt;Node14 -->
<g id="edge69" class="edge"><title>Node39&#45;&gt;Node14</title>
<path fill="none" stroke="midnightblue" d="M1431.62,-448.276C1402.15,-432.697 1341.29,-400.889 1319.05,-392 1264.77,-370.305 1173.96,-388.311 1200.05,-336 1269.81,-196.089 1450.85,-109.797 1524.83,-79.377"/>
<polygon fill="midnightblue" stroke="midnightblue" points="1526.17,-82.611 1534.13,-75.6176 1523.55,-76.1214 1526.17,-82.611"/>
</g>
<!-- Node39&#45;&gt;Node33 -->
<g id="edge70" class="edge"><title>Node39&#45;&gt;Node33</title>
<path fill="none" stroke="midnightblue" d="M1487.59,-449.525C1490.79,-448.986 1493.97,-448.47 1497.05,-448 1611.21,-430.57 1746.07,-415.52 1816.91,-408.039"/>
<polygon fill="midnightblue" stroke="midnightblue" points="1817.31,-411.516 1826.89,-406.991 1816.58,-404.555 1817.31,-411.516"/>
</g>
<!-- Node39&#45;&gt;Node40 -->
<g id="edge71" class="edge"><title>Node39&#45;&gt;Node40</title>
<path fill="none" stroke="midnightblue" d="M1408.45,-451.475C1339.68,-441.879 1197.93,-422.1 1118.39,-411.002"/>
<polygon fill="midnightblue" stroke="midnightblue" points="1118.46,-407.477 1108.07,-409.561 1117.49,-414.41 1118.46,-407.477"/>
</g>
<!-- Node40&#45;&gt;Node2 -->
<g id="edge75" class="edge"><title>Node40&#45;&gt;Node2</title>
<path fill="none" stroke="midnightblue" d="M1013.77,-393.926C1009.14,-393.262 1004.5,-392.61 1000.05,-392 897.245,-377.92 777.516,-363.113 706.403,-354.485"/>
<polygon fill="midnightblue" stroke="midnightblue" points="706.619,-350.986 696.271,-353.257 705.777,-357.935 706.619,-350.986"/>
</g>
<!-- Node40&#45;&gt;Node3 -->
<g id="edge74" class="edge"><title>Node40&#45;&gt;Node3</title>
<path fill="none" stroke="midnightblue" d="M1053.13,-392.492C1007.19,-343.138 774.87,-93.5374 713.131,-27.2067"/>
<polygon fill="midnightblue" stroke="midnightblue" points="715.549,-24.6669 706.174,-19.7316 710.425,-29.4361 715.549,-24.6669"/>
</g>
<!-- Node40&#45;&gt;Node6 -->
<g id="edge72" class="edge"><title>Node40&#45;&gt;Node6</title>
<path fill="none" stroke="midnightblue" d="M1056.06,-392.49C1045.96,-374.436 1024.05,-330.693 1024.05,-291 1024.05,-291 1024.05,-291 1024.05,-233 1024.05,-152.941 1068.83,-64.9714 1089.65,-28.4168"/>
<polygon fill="midnightblue" stroke="midnightblue" points="1092.82,-29.9228 1094.82,-19.5192 1086.77,-26.4025 1092.82,-29.9228"/>
</g>
<!-- Node40&#45;&gt;Node34 -->
<g id="edge73" class="edge"><title>Node40&#45;&gt;Node34</title>
<path fill="none" stroke="midnightblue" d="M1108.38,-394.379C1187.49,-383.311 1344.67,-361.322 1413.48,-351.696"/>
<polygon fill="midnightblue" stroke="midnightblue" points="1414.32,-355.113 1423.73,-350.261 1413.35,-348.181 1414.32,-355.113"/>
</g>
<!-- Node61&#45;&gt;Node2 -->
<g id="edge77" class="edge"><title>Node61&#45;&gt;Node2</title>
<path fill="none" stroke="midnightblue" d="M1094.55,-504.062C1088.36,-489.588 1074.05,-461.303 1052.05,-448 948.444,-385.37 898.178,-446.197 782.047,-412 739.736,-399.541 694.07,-375.782 667.322,-360.699"/>
<polygon fill="midnightblue" stroke="midnightblue" points="668.782,-357.502 658.365,-355.572 665.305,-363.577 668.782,-357.502"/>
</g>
<!-- Node61&#45;&gt;Node33 -->
<g id="edge82" class="edge"><title>Node61&#45;&gt;Node33</title>
<path fill="none" stroke="midnightblue" d="M1136.84,-510.16C1265.48,-500.724 1670.62,-470.859 1684.05,-468 1740.2,-456.042 1802.6,-431.03 1837.8,-415.757"/>
<polygon fill="midnightblue" stroke="midnightblue" points="1839.66,-418.767 1847.4,-411.541 1836.84,-412.358 1839.66,-418.767"/>
</g>
<!-- Node63 -->
<g id="node35" class="node"><title>Node63</title>
<g id="a_node35"><a xlink:href="_draw_utils_8hpp.html" target="_top" xlink:title="DrawUtils.hpp">
<polygon fill="none" stroke="black" points="828.547,-448.5 828.547,-467.5 905.547,-467.5 905.547,-448.5 828.547,-448.5"/>
<text text-anchor="middle" x="867.047" y="-455.5" font-family="Helvetica,sans-Serif" font-size="10.00">DrawUtils.hpp</text>
</a>
</g>
</g>
<!-- Node61&#45;&gt;Node63 -->
<g id="edge78" class="edge"><title>Node61&#45;&gt;Node63</title>
<path fill="none" stroke="midnightblue" d="M1061.44,-504.444C1021.32,-495.063 956.848,-479.993 913.262,-469.804"/>
<polygon fill="midnightblue" stroke="midnightblue" points="914.012,-466.385 903.478,-467.516 912.419,-473.201 914.012,-466.385"/>
</g>
<!-- Node66 -->
<g id="node37" class="node"><title>Node66</title>
<g id="a_node37"><a xlink:href="_selectable_8hpp.html" target="_top" xlink:title="Selectable.hpp">
<polygon fill="none" stroke="black" points="962.547,-448.5 962.547,-467.5 1043.55,-467.5 1043.55,-448.5 962.547,-448.5"/>
<text text-anchor="middle" x="1003.05" y="-455.5" font-family="Helvetica,sans-Serif" font-size="10.00">Selectable.hpp</text>
</a>
</g>
</g>
<!-- Node61&#45;&gt;Node66 -->
<g id="edge83" class="edge"><title>Node61&#45;&gt;Node66</title>
<path fill="none" stroke="midnightblue" d="M1082.78,-504.324C1067.83,-495.822 1044.79,-482.729 1027.32,-472.797"/>
<polygon fill="midnightblue" stroke="midnightblue" points="1028.7,-469.553 1018.27,-467.655 1025.24,-475.639 1028.7,-469.553"/>
</g>
<!-- Node63&#45;&gt;Node2 -->
<g id="edge79" class="edge"><title>Node63&#45;&gt;Node2</title>
<path fill="none" stroke="midnightblue" d="M828.318,-452.11C794.188,-446.469 744.115,-434.86 706.047,-412 685.453,-399.634 667.196,-378.617 655.918,-363.836"/>
<polygon fill="midnightblue" stroke="midnightblue" points="658.585,-361.555 649.84,-355.572 652.946,-365.702 658.585,-361.555"/>
</g>
<!-- Node64 -->
<g id="node36" class="node"><title>Node64</title>
<g id="a_node36"><a xlink:href="any_8hpp.html" target="_top" xlink:title="any/any.hpp">
<polygon fill="none" stroke="red" points="1240.05,-392.5 1240.05,-411.5 1310.05,-411.5 1310.05,-392.5 1240.05,-392.5"/>
<text text-anchor="middle" x="1275.05" y="-399.5" font-family="Helvetica,sans-Serif" font-size="10.00">any/any.hpp</text>
</a>
</g>
</g>
<!-- Node63&#45;&gt;Node64 -->
<g id="edge80" class="edge"><title>Node63&#45;&gt;Node64</title>
<path fill="none" stroke="midnightblue" d="M905.804,-450.225C910.596,-449.444 915.43,-448.684 920.047,-448 1030.88,-431.572 1161.74,-415.957 1229.4,-408.163"/>
<polygon fill="midnightblue" stroke="midnightblue" points="1230.17,-411.598 1239.71,-406.98 1229.37,-404.643 1230.17,-411.598"/>
</g>
<!-- Node64&#45;&gt;Node36 -->
<g id="edge81" class="edge"><title>Node64&#45;&gt;Node36</title>
<path fill="none" stroke="midnightblue" d="M1310.28,-394.106C1363.28,-383.737 1462.93,-364.24 1515.88,-353.88"/>
<polygon fill="midnightblue" stroke="midnightblue" points="1516.68,-357.29 1525.83,-351.935 1515.34,-350.42 1516.68,-357.29"/>
</g>
<!-- Node67&#45;&gt;Node2 -->
<g id="edge86" class="edge"><title>Node67&#45;&gt;Node2</title>
<path fill="none" stroke="midnightblue" d="M859.309,-510.764C798.438,-506.599 689.644,-495.439 663.047,-468 636.498,-440.613 637.826,-392.199 640.999,-365.671"/>
<polygon fill="midnightblue" stroke="midnightblue" points="644.465,-366.158 642.396,-355.767 637.533,-365.18 644.465,-366.158"/>
</g>
<!-- Node67&#45;&gt;Node5 -->
<g id="edge85" class="edge"><title>Node67&#45;&gt;Node5</title>
<path fill="none" stroke="midnightblue" d="M874.473,-504.448C843.235,-493.058 798.139,-471.586 819.047,-448 863.294,-398.085 1061.21,-448.49 1117.05,-412 1198.27,-358.918 1171.19,-302.628 1228.05,-224 1292.36,-135.062 1308.58,-100.185 1409.05,-56 1467.39,-30.3416 1659.18,-17.0411 1735.41,-12.6645"/>
<polygon fill="midnightblue" stroke="midnightblue" points="1735.99,-16.1371 1745.78,-12.0831 1735.6,-9.14802 1735.99,-16.1371"/>
</g>
<!-- Node67&#45;&gt;Node29 -->
<g id="edge90" class="edge"><title>Node67&#45;&gt;Node29</title>
<path fill="none" stroke="midnightblue" d="M859.17,-510.771C807.631,-506.871 718.206,-496.3 647.047,-468 580.152,-441.396 512.118,-388.466 480.811,-362.33"/>
<polygon fill="midnightblue" stroke="midnightblue" points="482.882,-359.498 472.987,-355.713 478.362,-364.843 482.882,-359.498"/>
</g>
<!-- Node67&#45;&gt;Node39 -->
<g id="edge88" class="edge"><title>Node67&#45;&gt;Node39</title>
<path fill="none" stroke="midnightblue" d="M942.609,-508.897C1041.66,-499.119 1291.3,-474.474 1398.2,-463.921"/>
<polygon fill="midnightblue" stroke="midnightblue" points="1398.79,-467.38 1408.4,-462.914 1398.1,-460.414 1398.79,-467.38"/>
</g>
<!-- Node67&#45;&gt;Node63 -->
<g id="edge91" class="edge"><title>Node67&#45;&gt;Node63</title>
<path fill="none" stroke="midnightblue" d="M895.432,-504.083C890.679,-496.534 883.728,-485.495 877.895,-476.23"/>
<polygon fill="midnightblue" stroke="midnightblue" points="880.846,-474.349 872.556,-467.751 874.923,-478.078 880.846,-474.349"/>
</g>
<!-- Node67&#45;&gt;Node64 -->
<g id="edge87" class="edge"><title>Node67&#45;&gt;Node64</title>
<path fill="none" stroke="midnightblue" d="M905.344,-504.06C912.821,-489.585 929.686,-461.297 953.047,-448 976.657,-434.561 1146.86,-415.886 1229.82,-407.45"/>
<polygon fill="midnightblue" stroke="midnightblue" points="1230.37,-410.913 1239.97,-406.425 1229.66,-403.948 1230.37,-410.913"/>
</g>
<!-- Node67&#45;&gt;Node66 -->
<g id="edge92" class="edge"><title>Node67&#45;&gt;Node66</title>
<path fill="none" stroke="midnightblue" d="M917.435,-504.324C933.718,-495.703 958.914,-482.364 977.763,-472.386"/>
<polygon fill="midnightblue" stroke="midnightblue" points="979.499,-475.427 986.699,-467.655 976.224,-469.24 979.499,-475.427"/>
</g>
<!-- Node68 -->
<g id="node39" class="node"><title>Node68</title>
<g id="a_node39"><a xlink:href="_complex_sprite_8hpp.html" target="_top" xlink:title="ComplexSprite.hpp">
<polygon fill="none" stroke="red" points="672.547,-448.5 672.547,-467.5 771.547,-467.5 771.547,-448.5 672.547,-448.5"/>
<text text-anchor="middle" x="722.047" y="-455.5" font-family="Helvetica,sans-Serif" font-size="10.00">ComplexSprite.hpp</text>
</a>
</g>
</g>
<!-- Node67&#45;&gt;Node68 -->
<g id="edge89" class="edge"><title>Node67&#45;&gt;Node68</title>
<path fill="none" stroke="midnightblue" d="M872.683,-504.444C842.308,-495.28 793.937,-480.688 760.23,-470.519"/>
<polygon fill="midnightblue" stroke="midnightblue" points="760.862,-467.054 750.277,-467.516 758.84,-473.756 760.862,-467.054"/>
</g>
<!-- Node75&#45;&gt;Node3 -->
<g id="edge97" class="edge"><title>Node75&#45;&gt;Node3</title>
<path fill="none" stroke="midnightblue" d="M1516.39,-448.41C1470.94,-432.276 1371.26,-395.491 1291.05,-356 1060.47,-242.487 797.309,-75.2336 720.294,-25.4714"/>
<polygon fill="midnightblue" stroke="midnightblue" points="721.747,-22.2425 711.45,-19.7446 717.941,-28.1181 721.747,-22.2425"/>
</g>
<!-- Node75&#45;&gt;Node4 -->
<g id="edge95" class="edge"><title>Node75&#45;&gt;Node4</title>
<path fill="none" stroke="midnightblue" d="M1576.12,-450.51C1581.44,-449.612 1586.88,-448.743 1592.05,-448 1734.58,-427.477 1771.49,-432.346 1914.05,-412 1965.4,-404.67 1977.6,-398.708 2029.05,-392 2120.18,-380.116 2362.68,-404.012 2441.05,-356 2560.21,-282.994 2584.27,-90.633 2588.96,-29.7549"/>
<polygon fill="midnightblue" stroke="midnightblue" points="2592.46,-29.9042 2589.64,-19.6898 2585.47,-29.4295 2592.46,-29.9042"/>
</g>
<!-- Node75&#45;&gt;Node5 -->
<g id="edge96" class="edge"><title>Node75&#45;&gt;Node5</title>
<path fill="none" stroke="midnightblue" d="M1545.36,-448.489C1572.52,-394.89 1719.97,-103.895 1758.06,-28.7275"/>
<polygon fill="midnightblue" stroke="midnightblue" points="1761.29,-30.1028 1762.69,-19.6006 1755.05,-26.9387 1761.29,-30.1028"/>
</g>
<!-- Node75&#45;&gt;Node6 -->
<g id="edge94" class="edge"><title>Node75&#45;&gt;Node6</title>
<path fill="none" stroke="midnightblue" d="M1528.33,-448.387C1507.93,-434.871 1466.27,-408.518 1428.05,-392 1377.32,-370.082 1347.93,-395.255 1309.05,-356 1287.86,-334.618 1290.05,-321.098 1290.05,-291 1290.05,-291 1290.05,-291 1290.05,-233 1290.05,-172.875 1239.2,-177.625 1200.05,-132 1168.41,-95.1414 1132.36,-50.9555 1113.37,-27.5108"/>
<polygon fill="midnightblue" stroke="midnightblue" points="1115.98,-25.175 1106.97,-19.5995 1110.54,-29.5762 1115.98,-25.175"/>
</g>
<!-- Node75&#45;&gt;Node14 -->
<g id="edge100" class="edge"><title>Node75&#45;&gt;Node14</title>
<path fill="none" stroke="midnightblue" d="M1538.18,-448.201C1533.27,-434.429 1522.03,-407.733 1504.05,-392 1468.88,-361.225 1395.77,-378.574 1415.05,-336 1425.05,-313.909 1441.77,-319.6 1456.05,-300 1507.89,-228.842 1540.31,-126.923 1552.06,-85.531"/>
<polygon fill="midnightblue" stroke="midnightblue" points="1555.48,-86.314 1554.77,-75.7426 1548.73,-84.4457 1555.48,-86.314"/>
</g>
<!-- Node75&#45;&gt;Node32 -->
<g id="edge98" class="edge"><title>Node75&#45;&gt;Node32</title>
<path fill="none" stroke="midnightblue" d="M1576.09,-450.292C1581.42,-449.423 1586.87,-448.621 1592.05,-448 1836.41,-418.675 1902.33,-437.997 2151.27,-411.981"/>
<polygon fill="midnightblue" stroke="midnightblue" points="2151.77,-415.447 2161.35,-410.913 2151.03,-408.486 2151.77,-415.447"/>
</g>
<!-- Node75&#45;&gt;Node33 -->
<g id="edge102" class="edge"><title>Node75&#45;&gt;Node33</title>
<path fill="none" stroke="midnightblue" d="M1576.15,-450.748C1581.48,-449.817 1586.91,-448.876 1592.05,-448 1670.62,-434.615 1762,-419.748 1816.86,-410.897"/>
<polygon fill="midnightblue" stroke="midnightblue" points="1817.68,-414.31 1827,-409.263 1816.57,-407.399 1817.68,-414.31"/>
</g>
<!-- Node75&#45;&gt;Node40 -->
<g id="edge101" class="edge"><title>Node75&#45;&gt;Node40</title>
<path fill="none" stroke="midnightblue" d="M1505.73,-449.609C1502.46,-449.025 1499.2,-448.477 1496.05,-448 1361.29,-427.6 1201.63,-413.683 1118.25,-407.188"/>
<polygon fill="midnightblue" stroke="midnightblue" points="1118.46,-403.694 1108.22,-406.414 1117.92,-410.673 1118.46,-403.694"/>
</g>
<!-- Node75&#45;&gt;Node64 -->
<g id="edge99" class="edge"><title>Node75&#45;&gt;Node64</title>
<path fill="none" stroke="midnightblue" d="M1506,-449.885C1458.25,-440.192 1372.72,-422.828 1320.21,-412.169"/>
<polygon fill="midnightblue" stroke="midnightblue" points="1320.67,-408.69 1310.17,-410.131 1319.28,-415.55 1320.67,-408.69"/>
</g>
<!-- Node76&#45;&gt;Node2 -->
<g id="edge105" class="edge"><title>Node76&#45;&gt;Node2</title>
<path fill="none" stroke="midnightblue" d="M768.819,-564.449C719.401,-556.234 619.39,-538.442 587.047,-524 548.408,-506.747 529.248,-505.708 510.047,-468 498.211,-444.757 524.512,-397.72 530.047,-392 545.821,-375.697 568.229,-365.168 589.009,-358.432"/>
<polygon fill="midnightblue" stroke="midnightblue" points="590.159,-361.741 598.727,-355.509 588.143,-355.038 590.159,-361.741"/>
</g>
<!-- Node77 -->
<g id="node42" class="node"><title>Node77</title>
<g id="a_node42"><a xlink:href="_math_exp_8hpp.html" target="_top" xlink:title="MathExp.hpp">
<polygon fill="none" stroke="black" points="1601.05,-448.5 1601.05,-467.5 1675.05,-467.5 1675.05,-448.5 1601.05,-448.5"/>
<text text-anchor="middle" x="1638.05" y="-455.5" font-family="Helvetica,sans-Serif" font-size="10.00">MathExp.hpp</text>
</a>
</g>
</g>
<!-- Node76&#45;&gt;Node77 -->
<g id="edge106" class="edge"><title>Node76&#45;&gt;Node77</title>
<path fill="none" stroke="midnightblue" d="M825.142,-565.238C839.206,-563.454 856.504,-561.41 872.047,-560 1131.03,-536.498 1201.3,-576.248 1456.05,-524 1512.44,-512.435 1574.99,-487.177 1610.11,-471.774"/>
<polygon fill="midnightblue" stroke="midnightblue" points="1611.96,-474.782 1619.68,-467.524 1609.12,-468.385 1611.96,-474.782"/>
</g>
<!-- Node77&#45;&gt;Node3 -->
<g id="edge111" class="edge"><title>Node77&#45;&gt;Node3</title>
<path fill="none" stroke="midnightblue" d="M1628.62,-448.422C1604.93,-427.181 1540.37,-371.31 1479.05,-336 1208.79,-180.394 849.539,-59.325 734.863,-22.5561"/>
<polygon fill="midnightblue" stroke="midnightblue" points="735.749,-19.1648 725.158,-19.4587 733.62,-25.8334 735.749,-19.1648"/>
</g>
<!-- Node77&#45;&gt;Node4 -->
<g id="edge107" class="edge"><title>Node77&#45;&gt;Node4</title>
<path fill="none" stroke="midnightblue" d="M1675.11,-448.831C1676.77,-448.535 1678.43,-448.256 1680.05,-448 1834.06,-423.628 1878.72,-453.453 2029.05,-412 2049.37,-406.397 2051.66,-397.359 2072.05,-392 2170.35,-366.156 2437.86,-402.891 2528.05,-356 2589.95,-323.817 2628.05,-304.766 2628.05,-235 2628.05,-235 2628.05,-235 2628.05,-121 2628.05,-86.8131 2611.45,-49.7639 2600.19,-28.5707"/>
<polygon fill="midnightblue" stroke="midnightblue" points="2603.23,-26.832 2595.33,-19.769 2597.1,-30.2151 2603.23,-26.832"/>
</g>
<!-- Node77&#45;&gt;Node5 -->
<g id="edge109" class="edge"><title>Node77&#45;&gt;Node5</title>
<path fill="none" stroke="midnightblue" d="M1653.74,-448.365C1666.51,-440.526 1684.01,-427.79 1694.05,-412 1762.73,-303.913 1744.21,-258.813 1762.05,-132 1767.11,-96.037 1767.61,-53.5168 1767.41,-29.6615"/>
<polygon fill="midnightblue" stroke="midnightblue" points="1770.91,-29.5108 1767.27,-19.5606 1763.91,-29.6085 1770.91,-29.5108"/>
</g>
<!-- Node77&#45;&gt;Node6 -->
<g id="edge108" class="edge"><title>Node77&#45;&gt;Node6</title>
<path fill="none" stroke="midnightblue" d="M1644.3,-448.23C1652.61,-435.396 1665.24,-410.965 1656.05,-392 1638.51,-355.837 1617.54,-359.648 1585.05,-336 1411.28,-209.544 1192.66,-69.6182 1122.68,-25.2796"/>
<polygon fill="midnightblue" stroke="midnightblue" points="1124.13,-22.058 1113.81,-19.6689 1120.39,-27.9735 1124.13,-22.058"/>
</g>
<!-- Node77&#45;&gt;Node7 -->
<g id="edge110" class="edge"><title>Node77&#45;&gt;Node7</title>
<path fill="none" stroke="midnightblue" d="M1622.77,-448.467C1598.3,-435.059 1548.54,-408.853 1504.05,-392 1461.56,-375.905 1410.82,-362.666 1377.82,-354.809"/>
<polygon fill="midnightblue" stroke="midnightblue" points="1378.3,-351.326 1367.76,-352.451 1376.7,-358.141 1378.3,-351.326"/>
</g>
<!-- Node77&#45;&gt;Node26 -->
<g id="edge112" class="edge"><title>Node77&#45;&gt;Node26</title>
<path fill="none" stroke="midnightblue" d="M1674.34,-448.442C1708.48,-439.733 1756.36,-425.616 1770.05,-412 1798.2,-384 1807.51,-336.186 1810.57,-309.826"/>
<polygon fill="midnightblue" stroke="midnightblue" points="1814.07,-309.958 1811.56,-299.666 1807.11,-309.281 1814.07,-309.958"/>
</g>
<!-- Node77&#45;&gt;Node33 -->
<g id="edge113" class="edge"><title>Node77&#45;&gt;Node33</title>
<path fill="none" stroke="midnightblue" d="M1674.17,-448.444C1713.7,-439.083 1777.14,-424.056 1820.16,-413.868"/>
<polygon fill="midnightblue" stroke="midnightblue" points="1821.16,-417.227 1830.09,-411.516 1819.55,-410.415 1821.16,-417.227"/>
</g>
<!-- Node78&#45;&gt;Node3 -->
<g id="edge116" class="edge"><title>Node78&#45;&gt;Node3</title>
<path fill="none" stroke="midnightblue" d="M1175.38,-624.631C1046.25,-622.871 546.42,-613.959 393.047,-580 327.616,-565.513 314.131,-551.563 253.047,-524 140.229,-473.093 38.0465,-470.771 38.0465,-347 38.0465,-347 38.0465,-347 38.0465,-121 38.0465,-69.8406 84.8117,-73.0496 133.047,-56 230.801,-21.4466 550.471,-13.2874 660.466,-11.4823"/>
<polygon fill="midnightblue" stroke="midnightblue" points="660.796,-14.9777 670.741,-11.3224 660.687,-7.97854 660.796,-14.9777"/>
</g>
<!-- Node78&#45;&gt;Node4 -->
<g id="edge115" class="edge"><title>Node78&#45;&gt;Node4</title>
<path fill="none" stroke="midnightblue" d="M1236.65,-624.927C1449.78,-624.029 2704.05,-612.235 2704.05,-459 2704.05,-459 2704.05,-459 2704.05,-121 2704.05,-74.1149 2653.49,-40.8944 2619.72,-23.9302"/>
<polygon fill="midnightblue" stroke="midnightblue" points="2621.22,-20.7687 2610.69,-19.5787 2618.18,-27.0742 2621.22,-20.7687"/>
</g>
<!-- Node78&#45;&gt;Node8 -->
<g id="edge119" class="edge"><title>Node78&#45;&gt;Node8</title>
<path fill="none" stroke="midnightblue" d="M1236.57,-625.046C1306.46,-624.437 1482.95,-618.823 1624.05,-580 1691.93,-561.323 1845.34,-470.516 1912.05,-448 1926.98,-442.961 2016.95,-423.36 2071.01,-411.755"/>
<polygon fill="midnightblue" stroke="midnightblue" points="2071.94,-415.135 2080.98,-409.617 2070.47,-408.291 2071.94,-415.135"/>
</g>
<!-- Node78&#45;&gt;Node28 -->
<g id="edge120" class="edge"><title>Node78&#45;&gt;Node28</title>
<path fill="none" stroke="midnightblue" d="M1175.54,-623.545C1103.01,-619.734 914.778,-607.771 760.047,-580 628.054,-556.31 598.208,-536.267 468.047,-504 417.962,-491.584 360.282,-478.107 321.527,-469.171"/>
<polygon fill="midnightblue" stroke="midnightblue" points="322.14,-465.721 311.609,-466.889 320.569,-472.543 322.14,-465.721"/>
</g>
<!-- Node78&#45;&gt;Node32 -->
<g id="edge117" class="edge"><title>Node78&#45;&gt;Node32</title>
<path fill="none" stroke="midnightblue" d="M1236.66,-623.069C1310.37,-618.185 1503.4,-603.992 1663.05,-580 1786.82,-561.399 1817.59,-554.253 1939.05,-524 2024.06,-502.825 2050.07,-507.936 2128.05,-468 2153.76,-454.83 2179.47,-433.431 2195.54,-418.811"/>
<polygon fill="midnightblue" stroke="midnightblue" points="2198.07,-421.234 2203.02,-411.863 2193.31,-416.106 2198.07,-421.234"/>
</g>
<!-- Node78&#45;&gt;Node61 -->
<g id="edge126" class="edge"><title>Node78&#45;&gt;Node61</title>
<path fill="none" stroke="midnightblue" d="M1197.57,-616.368C1179.43,-597.894 1136.62,-554.293 1113.5,-530.744"/>
<polygon fill="midnightblue" stroke="midnightblue" points="1115.99,-528.275 1106.48,-523.591 1110.99,-533.179 1115.99,-528.275"/>
</g>
<!-- Node78&#45;&gt;Node64 -->
<g id="edge118" class="edge"><title>Node78&#45;&gt;Node64</title>
<path fill="none" stroke="midnightblue" d="M1220.52,-616.328C1253.28,-595.673 1332.09,-539.884 1356.05,-468 1358.86,-459.567 1360.55,-455.661 1356.05,-448 1347.13,-432.844 1331.06,-422.426 1315.57,-415.464"/>
<polygon fill="midnightblue" stroke="midnightblue" points="1316.65,-412.124 1306.07,-411.564 1313.99,-418.6 1316.65,-412.124"/>
</g>
<!-- Node78&#45;&gt;Node67 -->
<g id="edge149" class="edge"><title>Node78&#45;&gt;Node67</title>
<path fill="none" stroke="midnightblue" d="M1182.37,-616.46C1128.54,-597.047 996.848,-549.551 934.639,-527.115"/>
<polygon fill="midnightblue" stroke="midnightblue" points="935.515,-523.711 924.921,-523.61 933.14,-530.296 935.515,-523.711"/>
</g>
<!-- Node78&#45;&gt;Node75 -->
<g id="edge160" class="edge"><title>Node78&#45;&gt;Node75</title>
<path fill="none" stroke="midnightblue" d="M1236.58,-617.109C1238.09,-616.732 1239.58,-616.36 1241.05,-616 1308.88,-599.3 1331.45,-611.006 1394.05,-580 1449.11,-552.729 1501.71,-501.266 1526.4,-475.122"/>
<polygon fill="midnightblue" stroke="midnightblue" points="1529.15,-477.294 1533.4,-467.586 1524.03,-472.53 1529.15,-477.294"/>
</g>
<!-- Node78&#45;&gt;Node76 -->
<g id="edge150" class="edge"><title>Node78&#45;&gt;Node76</title>
<path fill="none" stroke="midnightblue" d="M1175.46,-622.18C1112.34,-616.155 963.123,-600.858 839.047,-580 837.806,-579.791 836.546,-579.571 835.275,-579.342"/>
<polygon fill="midnightblue" stroke="midnightblue" points="835.929,-575.904 825.447,-577.444 834.602,-582.777 835.929,-575.904"/>
</g>
<!-- Node78&#45;&gt;Node77 -->
<g id="edge151" class="edge"><title>Node78&#45;&gt;Node77</title>
<path fill="none" stroke="midnightblue" d="M1236.8,-623.44C1324.97,-618.701 1574.17,-603.357 1602.05,-580 1632.33,-554.629 1637.81,-504.999 1638.41,-477.849"/>
<polygon fill="midnightblue" stroke="midnightblue" points="1641.91,-477.731 1638.42,-467.726 1634.91,-477.721 1641.91,-477.731"/>
</g>
<!-- Node79 -->
<g id="node44" class="node"><title>Node79</title>
<g id="a_node44"><a xlink:href="_canvas_8hpp.html" target="_top" xlink:title="Canvas.hpp">
<polygon fill="none" stroke="red" points="881.547,-560.5 881.547,-579.5 948.547,-579.5 948.547,-560.5 881.547,-560.5"/>
<text text-anchor="middle" x="915.047" y="-567.5" font-family="Helvetica,sans-Serif" font-size="10.00">Canvas.hpp</text>
</a>
</g>
</g>
<!-- Node78&#45;&gt;Node79 -->
<g id="edge121" class="edge"><title>Node78&#45;&gt;Node79</title>
<path fill="none" stroke="midnightblue" d="M1175.45,-619.323C1123.59,-609.698 1018.23,-590.148 958.654,-579.092"/>
<polygon fill="midnightblue" stroke="midnightblue" points="959.263,-575.645 948.792,-577.262 957.986,-582.528 959.263,-575.645"/>
</g>
<!-- Node80 -->
<g id="node45" class="node"><title>Node80</title>
<g id="a_node45"><a xlink:href="_console_8hpp.html" target="_top" xlink:title="Console.hpp">
<polygon fill="none" stroke="red" points="1234.55,-504.5 1234.55,-523.5 1305.55,-523.5 1305.55,-504.5 1234.55,-504.5"/>
<text text-anchor="middle" x="1270.05" y="-511.5" font-family="Helvetica,sans-Serif" font-size="10.00">Console.hpp</text>
</a>
</g>
</g>
<!-- Node78&#45;&gt;Node80 -->
<g id="edge127" class="edge"><title>Node78&#45;&gt;Node80</title>
<path fill="none" stroke="midnightblue" d="M1211.07,-616.368C1221.58,-598.296 1246.09,-556.176 1259.98,-532.307"/>
<polygon fill="midnightblue" stroke="midnightblue" points="1263.04,-533.995 1265.05,-523.591 1256.99,-530.475 1263.04,-533.995"/>
</g>
<!-- Node82 -->
<g id="node46" class="node"><title>Node82</title>
<g id="a_node46"><a xlink:href="_cursor_8hpp.html" target="_top" xlink:title="Cursor.hpp">
<polygon fill="none" stroke="black" points="1383.05,-504.5 1383.05,-523.5 1447.05,-523.5 1447.05,-504.5 1383.05,-504.5"/>
<text text-anchor="middle" x="1415.05" y="-511.5" font-family="Helvetica,sans-Serif" font-size="10.00">Cursor.hpp</text>
</a>
</g>
</g>
<!-- Node78&#45;&gt;Node82 -->
<g id="edge134" class="edge"><title>Node78&#45;&gt;Node82</title>
<path fill="none" stroke="midnightblue" d="M1236.59,-622.715C1271.44,-618.801 1328.8,-608.256 1369.05,-580 1386.15,-567.995 1399.09,-547.512 1406.82,-532.744"/>
<polygon fill="midnightblue" stroke="midnightblue" points="1410.04,-534.124 1411.33,-523.608 1403.77,-531.026 1410.04,-534.124"/>
</g>
<!-- Node83 -->
<g id="node47" class="node"><title>Node83</title>
<g id="a_node47"><a xlink:href="_dialog_8hpp.html" target="_top" xlink:title="Dialog.hpp">
<polygon fill="none" stroke="red" points="1252.05,-448.5 1252.05,-467.5 1314.05,-467.5 1314.05,-448.5 1252.05,-448.5"/>
<text text-anchor="middle" x="1283.05" y="-455.5" font-family="Helvetica,sans-Serif" font-size="10.00">Dialog.hpp</text>
</a>
</g>
</g>
<!-- Node78&#45;&gt;Node83 -->
<g id="edge138" class="edge"><title>Node78&#45;&gt;Node83</title>
<path fill="none" stroke="midnightblue" d="M1205.33,-616.368C1204.01,-595.476 1203.1,-541.171 1225.05,-504 1232.69,-491.057 1245.6,-480.489 1257.3,-472.854"/>
<polygon fill="midnightblue" stroke="midnightblue" points="1259.2,-475.797 1265.91,-467.597 1255.55,-469.823 1259.2,-475.797"/>
</g>
<!-- Node84 -->
<g id="node48" class="node"><title>Node84</title>
<g id="a_node48"><a xlink:href="_key_bind_8hpp.html" target="_top" xlink:title="KeyBind.hpp">
<polygon fill="none" stroke="black" points="596.047,-504.5 596.047,-523.5 668.047,-523.5 668.047,-504.5 596.047,-504.5"/>
<text text-anchor="middle" x="632.047" y="-511.5" font-family="Helvetica,sans-Serif" font-size="10.00">KeyBind.hpp</text>
</a>
</g>
</g>
<!-- Node78&#45;&gt;Node84 -->
<g id="edge143" class="edge"><title>Node78&#45;&gt;Node84</title>
<path fill="none" stroke="midnightblue" d="M1175.33,-624.423C1115.53,-622.532 979.894,-614.452 872.047,-580 853.866,-574.192 851.963,-566.577 834.047,-560 805.884,-549.661 728.507,-533.662 678.107,-523.787"/>
<polygon fill="midnightblue" stroke="midnightblue" points="678.585,-520.314 668.1,-521.837 677.246,-527.185 678.585,-520.314"/>
</g>
<!-- Node48 -->
<g id="node49" class="node"><title>Node48</title>
<g id="a_node49"><a xlink:href="_package_8hpp.html" target="_top" xlink:title="Package.hpp">
<polygon fill="none" stroke="red" points="2219.05,-448.5 2219.05,-467.5 2293.05,-467.5 2293.05,-448.5 2219.05,-448.5"/>
<text text-anchor="middle" x="2256.05" y="-455.5" font-family="Helvetica,sans-Serif" font-size="10.00">Package.hpp</text>
</a>
</g>
</g>
<!-- Node78&#45;&gt;Node48 -->
<g id="edge152" class="edge"><title>Node78&#45;&gt;Node48</title>
<path fill="none" stroke="midnightblue" d="M1236.61,-624.318C1357.71,-621.431 1803.92,-609.011 1942.05,-580 2053.77,-556.534 2177.88,-498.393 2230.38,-472.184"/>
<polygon fill="midnightblue" stroke="midnightblue" points="2232.26,-475.157 2239.61,-467.532 2229.11,-468.905 2232.26,-475.157"/>
</g>
<!-- Node85 -->
<g id="node50" class="node"><title>Node85</title>
<g id="a_node50"><a xlink:href="_sound_manager_8hpp.html" target="_top" xlink:title="SoundManager.hpp">
<polygon fill="none" stroke="red" points="199.547,-56.5 199.547,-75.5 300.547,-75.5 300.547,-56.5 199.547,-56.5"/>
<text text-anchor="middle" x="250.047" y="-63.5" font-family="Helvetica,sans-Serif" font-size="10.00">SoundManager.hpp</text>
</a>
</g>
</g>
<!-- Node78&#45;&gt;Node85 -->
<g id="edge157" class="edge"><title>Node78&#45;&gt;Node85</title>
<path fill="none" stroke="midnightblue" d="M1175.33,-625.424C1021.01,-626.822 332.898,-624.15 210.047,-468 146.015,-386.613 209.047,-338.557 209.047,-235 209.047,-235 209.047,-235 209.047,-177 209.047,-142.515 226.958,-105.562 239.103,-84.468"/>
<polygon fill="midnightblue" stroke="midnightblue" points="242.211,-86.0898 244.346,-75.7121 236.206,-82.4938 242.211,-86.0898"/>
</g>
<!-- Node79&#45;&gt;Node2 -->
<g id="edge122" class="edge"><title>Node79&#45;&gt;Node2</title>
<path fill="none" stroke="midnightblue" d="M881.484,-560.705C816.754,-544.039 678.278,-504.916 647.047,-468 622.702,-439.224 631,-391.368 638.149,-365.298"/>
<polygon fill="midnightblue" stroke="midnightblue" points="641.544,-366.161 641.044,-355.578 634.835,-364.163 641.544,-366.161"/>
</g>
<!-- Node79&#45;&gt;Node3 -->
<g id="edge123" class="edge"><title>Node79&#45;&gt;Node3</title>
<path fill="none" stroke="midnightblue" d="M881.352,-565.086C749.61,-549.66 273.489,-492.703 210.047,-468 162.031,-449.304 114.047,-454.527 114.047,-403 114.047,-403 114.047,-403 114.047,-121 114.047,-82.5768 136.755,-73.3338 171.047,-56 256.912,-12.5959 555.322,-10.0978 660.778,-10.6201"/>
<polygon fill="midnightblue" stroke="midnightblue" points="660.922,-14.1209 670.944,-10.6831 660.966,-7.12108 660.922,-14.1209"/>
</g>
<!-- Node79&#45;&gt;Node32 -->
<g id="edge124" class="edge"><title>Node79&#45;&gt;Node32</title>
<path fill="none" stroke="midnightblue" d="M948.626,-566.969C1126.04,-556.112 1950.25,-504.08 2058.05,-468 2074.31,-462.557 2075.61,-455.467 2091.05,-448 2118.36,-434.792 2150.61,-422.972 2174.95,-414.763"/>
<polygon fill="midnightblue" stroke="midnightblue" points="2176.14,-418.057 2184.53,-411.582 2173.93,-411.414 2176.14,-418.057"/>
</g>
<!-- Node79&#45;&gt;Node67 -->
<g id="edge125" class="edge"><title>Node79&#45;&gt;Node67</title>
<path fill="none" stroke="midnightblue" d="M912.735,-560.083C910.88,-552.927 908.211,-542.635 905.892,-533.691"/>
<polygon fill="midnightblue" stroke="midnightblue" points="909.213,-532.553 903.315,-523.751 902.437,-534.309 909.213,-532.553"/>
</g>
<!-- Node80&#45;&gt;Node2 -->
<g id="edge128" class="edge"><title>Node80&#45;&gt;Node2</title>
<path fill="none" stroke="midnightblue" d="M1251.63,-504.427C1215.37,-487.607 1137.12,-451.596 1124.05,-448 992.861,-411.924 951.781,-446.016 820.047,-412 797.272,-406.119 793.027,-400.375 771.047,-392 740.171,-380.236 704.703,-367.754 679.111,-358.928"/>
<polygon fill="midnightblue" stroke="midnightblue" points="680.07,-355.557 669.475,-355.617 677.795,-362.177 680.07,-355.557"/>
</g>
<!-- Node80&#45;&gt;Node5 -->
<g id="edge129" class="edge"><title>Node80&#45;&gt;Node5</title>
<path fill="none" stroke="midnightblue" d="M1286.22,-504.332C1306.68,-492.211 1337.58,-469.287 1323.05,-448 1298.29,-411.734 1265.52,-439.188 1231.05,-412 1201.23,-388.492 1181.23,-372.393 1192.05,-336 1228.26,-214.106 1273.72,-195.01 1370.05,-112 1403.2,-83.4296 1410.29,-71.956 1451.05,-56 1549.9,-17.2961 1677.77,-11.319 1735.86,-10.7618"/>
<polygon fill="midnightblue" stroke="midnightblue" points="1735.89,-14.2618 1745.88,-10.7142 1735.86,-7.26191 1735.89,-14.2618"/>
</g>
<!-- Node80&#45;&gt;Node6 -->
<g id="edge130" class="edge"><title>Node80&#45;&gt;Node6</title>
<path fill="none" stroke="midnightblue" d="M1258.78,-504.313C1239.88,-490.2 1200.11,-462.422 1162.05,-448 1079.63,-416.775 1035.47,-467.541 967.047,-412 946.156,-395.043 951.565,-381.834 944.047,-356 913.706,-251.75 903.145,-206.816 956.047,-112 971.205,-84.8315 973.688,-75.3535 998.047,-56 1020.42,-38.2259 1050.91,-25.9871 1072.71,-18.81"/>
<polygon fill="midnightblue" stroke="midnightblue" points="1073.86,-22.1175 1082.35,-15.7791 1071.76,-15.4398 1073.86,-22.1175"/>
</g>
<!-- Node80&#45;&gt;Node8 -->
<g id="edge131" class="edge"><title>Node80&#45;&gt;Node8</title>
<path fill="none" stroke="midnightblue" d="M1305.6,-509.929C1398.97,-501.801 1649.55,-479.566 1732.05,-468 1780.82,-461.162 1792.5,-456.319 1841.05,-448 1941.3,-430.821 1966.94,-429.977 2067.05,-412 2068.14,-411.803 2069.26,-411.6 2070.38,-411.394"/>
<polygon fill="midnightblue" stroke="midnightblue" points="2071.43,-414.756 2080.61,-409.452 2070.13,-407.879 2071.43,-414.756"/>
</g>
<!-- Node80&#45;&gt;Node29 -->
<g id="edge132" class="edge"><title>Node80&#45;&gt;Node29</title>
<path fill="none" stroke="midnightblue" d="M1242.44,-504.492C1188.11,-487.789 1070.93,-451.981 1052.05,-448 927.118,-421.671 892.919,-433.367 767.047,-412 674.495,-396.289 567.371,-371.921 508.203,-357.912"/>
<polygon fill="midnightblue" stroke="midnightblue" points="508.966,-354.496 498.427,-355.589 507.347,-361.307 508.966,-354.496"/>
</g>
<!-- Node80&#45;&gt;Node75 -->
<g id="edge133" class="edge"><title>Node80&#45;&gt;Node75</title>
<path fill="none" stroke="midnightblue" d="M1305.67,-505.917C1348.29,-497.44 1422.07,-482.758 1495.75,-468.057"/>
<polygon fill="midnightblue" stroke="midnightblue" points="1496.55,-471.467 1505.67,-466.077 1495.18,-464.602 1496.55,-471.467"/>
</g>
<!-- Node82&#45;&gt;Node2 -->
<g id="edge135" class="edge"><title>Node82&#45;&gt;Node2</title>
<path fill="none" stroke="midnightblue" d="M1382.68,-504.557C1316.93,-487.427 1173.03,-450.03 1162.05,-448 1023.92,-422.463 982.271,-453.42 848.047,-412 829.81,-406.372 827.808,-398.983 810.047,-392 772.649,-377.296 728.695,-365.616 695.414,-357.844"/>
<polygon fill="midnightblue" stroke="midnightblue" points="695.977,-354.382 685.447,-355.558 694.412,-361.205 695.977,-354.382"/>
</g>
<!-- Node82&#45;&gt;Node39 -->
<g id="edge136" class="edge"><title>Node82&#45;&gt;Node39</title>
<path fill="none" stroke="midnightblue" d="M1420.5,-504.083C1425.06,-496.613 1431.71,-485.724 1437.34,-476.52"/>
<polygon fill="midnightblue" stroke="midnightblue" points="1440.47,-478.109 1442.7,-467.751 1434.5,-474.459 1440.47,-478.109"/>
</g>
<!-- Node82&#45;&gt;Node75 -->
<g id="edge137" class="edge"><title>Node82&#45;&gt;Node75</title>
<path fill="none" stroke="midnightblue" d="M1435.01,-504.444C1455.66,-495.596 1488.11,-481.687 1511.68,-471.586"/>
<polygon fill="midnightblue" stroke="midnightblue" points="1513.36,-474.673 1521.17,-467.516 1510.6,-468.239 1513.36,-474.673"/>
</g>
<!-- Node83&#45;&gt;Node2 -->
<g id="edge141" class="edge"><title>Node83&#45;&gt;Node2</title>
<path fill="none" stroke="midnightblue" d="M1251.63,-450.386C1247.08,-449.525 1242.45,-448.7 1238.05,-448 1103.68,-426.642 1068.07,-435.445 934.047,-412 895.391,-405.238 886.319,-400.671 848.047,-392 795.273,-380.043 734.722,-366.739 693.384,-357.718"/>
<polygon fill="midnightblue" stroke="midnightblue" points="694.081,-354.288 683.565,-355.578 692.59,-361.128 694.081,-354.288"/>
</g>
<!-- Node83&#45;&gt;Node5 -->
<g id="edge139" class="edge"><title>Node83&#45;&gt;Node5</title>
<path fill="none" stroke="midnightblue" d="M1251.66,-448.552C1232.96,-441.815 1210.5,-430.387 1198.05,-412 1179.05,-383.946 1182.4,-368.48 1192.05,-336 1219.41,-243.913 1251.76,-226.386 1328.05,-168 1400.19,-112.784 1414.45,-89.1162 1499.05,-56 1580.46,-24.13 1684.44,-14.82 1735.66,-12.1085"/>
<polygon fill="midnightblue" stroke="midnightblue" points="1735.94,-15.5992 1745.76,-11.6243 1735.6,-8.60724 1735.94,-15.5992"/>
</g>
<!-- Node83&#45;&gt;Node6 -->
<g id="edge140" class="edge"><title>Node83&#45;&gt;Node6</title>
<path fill="none" stroke="midnightblue" d="M1251.82,-452.523C1181.45,-442.359 1015.81,-417.958 1005.05,-412 971.432,-393.388 948.047,-385.423 948.047,-347 948.047,-347 948.047,-347 948.047,-177 948.047,-103.462 1030.19,-48.3358 1073.7,-24.2916"/>
<polygon fill="midnightblue" stroke="midnightblue" points="1075.46,-27.3221 1082.61,-19.506 1072.14,-21.1558 1075.46,-27.3221"/>
</g>
<!-- Node83&#45;&gt;Node64 -->
<g id="edge142" class="edge"><title>Node83&#45;&gt;Node64</title>
<path fill="none" stroke="midnightblue" d="M1281.73,-448.083C1280.67,-440.927 1279.14,-430.635 1277.82,-421.691"/>
<polygon fill="midnightblue" stroke="midnightblue" points="1281.27,-421.13 1276.34,-411.751 1274.35,-422.156 1281.27,-421.13"/>
</g>
<!-- Node84&#45;&gt;Node2 -->
<g id="edge146" class="edge"><title>Node84&#45;&gt;Node2</title>
<path fill="none" stroke="midnightblue" d="M598.302,-504.456C567.615,-495.922 525.687,-482.081 516.047,-468 511.025,-460.666 513.436,-456.497 516.047,-448 524.881,-419.248 531.416,-411.813 554.047,-392 570.127,-377.921 591.393,-367.022 609.215,-359.478"/>
<polygon fill="midnightblue" stroke="midnightblue" points="610.753,-362.631 618.708,-355.633 608.125,-356.143 610.753,-362.631"/>
</g>
<!-- Node84&#45;&gt;Node3 -->
<g id="edge144" class="edge"><title>Node84&#45;&gt;Node3</title>
<path fill="none" stroke="midnightblue" d="M595.939,-509.196C498.364,-498.884 236.482,-470.962 233.047,-468 151.887,-398.027 171.047,-342.159 171.047,-235 171.047,-235 171.047,-235 171.047,-121 171.047,-90.9022 166.784,-75.0975 190.047,-56 226.26,-26.2707 549.892,-14.9392 660.884,-11.9063"/>
<polygon fill="midnightblue" stroke="midnightblue" points="661.042,-15.4035 670.945,-11.6384 660.855,-8.40597 661.042,-15.4035"/>
</g>
<!-- Node84&#45;&gt;Node6 -->
<g id="edge145" class="edge"><title>Node84&#45;&gt;Node6</title>
<path fill="none" stroke="midnightblue" d="M596.004,-510.45C567.454,-506.312 529.281,-495.596 510.047,-468 496.529,-448.606 519.512,-409.164 530.047,-392 619.603,-246.078 724.671,-186.539 974.047,-56 1006.38,-39.0721 1046.5,-25.9705 1072.66,-18.376"/>
<polygon fill="midnightblue" stroke="midnightblue" points="1073.62,-21.7412 1082.28,-15.6467 1071.71,-15.0065 1073.62,-21.7412"/>
</g>
<!-- Node84&#45;&gt;Node8 -->
<g id="edge147" class="edge"><title>Node84&#45;&gt;Node8</title>
<path fill="none" stroke="midnightblue" d="M668.327,-511.495C852.743,-503.837 1677.73,-469.51 1684.05,-468 1704.94,-463.005 1707.32,-453.651 1728.05,-448 1874.22,-408.14 1917.27,-434.881 2067.05,-412 2068.15,-411.832 2069.27,-411.655 2070.39,-411.471"/>
<polygon fill="midnightblue" stroke="midnightblue" points="2071.4,-414.847 2080.64,-409.663 2070.18,-407.953 2071.4,-414.847"/>
</g>
<!-- Node84&#45;&gt;Node75 -->
<g id="edge148" class="edge"><title>Node84&#45;&gt;Node75</title>
<path fill="none" stroke="midnightblue" d="M668.301,-511.424C816.886,-504.923 1376.61,-480.019 1495.64,-467.713"/>
<polygon fill="midnightblue" stroke="midnightblue" points="1496.21,-471.171 1505.75,-466.563 1495.42,-464.215 1496.21,-471.171"/>
</g>
<!-- Node48&#45;&gt;Node4 -->
<g id="edge153" class="edge"><title>Node48&#45;&gt;Node4</title>
<path fill="none" stroke="midnightblue" d="M2293.12,-456.978C2372.8,-456.191 2556.96,-450.172 2604.05,-412 2668.79,-359.508 2666.05,-318.353 2666.05,-235 2666.05,-235 2666.05,-235 2666.05,-121 2666.05,-90.2048 2659.58,-81.3191 2642.05,-56 2633.87,-44.1903 2621.89,-33.5418 2611.49,-25.5714"/>
<polygon fill="midnightblue" stroke="midnightblue" points="2613.39,-22.6188 2603.25,-19.5395 2609.25,-28.2685 2613.39,-22.6188"/>
</g>
<!-- Node48&#45;&gt;Node5 -->
<g id="edge154" class="edge"><title>Node48&#45;&gt;Node5</title>
<path fill="none" stroke="midnightblue" d="M2293.44,-455.764C2354.56,-451.483 2474.41,-433.129 2528.05,-356 2543.72,-333.465 2539.85,-222.909 2380.05,-112 2283.79,-45.1936 1909.39,-19.0352 1798.29,-12.6488"/>
<polygon fill="midnightblue" stroke="midnightblue" points="1798.27,-9.1421 1788.09,-12.0758 1797.88,-16.1311 1798.27,-9.1421"/>
</g>
<!-- Node48&#45;&gt;Node8 -->
<g id="edge155" class="edge"><title>Node48&#45;&gt;Node8</title>
<path fill="none" stroke="midnightblue" d="M2233.23,-448.444C2209.21,-439.438 2171.22,-425.189 2144.18,-415.049"/>
<polygon fill="midnightblue" stroke="midnightblue" points="2145.35,-411.751 2134.76,-411.516 2142.89,-418.305 2145.35,-411.751"/>
</g>
<!-- Node48&#45;&gt;Node33 -->
<g id="edge156" class="edge"><title>Node48&#45;&gt;Node33</title>
<path fill="none" stroke="midnightblue" d="M2219,-451.871C2148.4,-442.095 1994.56,-420.794 1915.35,-409.826"/>
<polygon fill="midnightblue" stroke="midnightblue" points="1915.53,-406.318 1905.15,-408.414 1914.57,-413.252 1915.53,-406.318"/>
</g>
<!-- Node85&#45;&gt;Node3 -->
<g id="edge159" class="edge"><title>Node85&#45;&gt;Node3</title>
<path fill="none" stroke="midnightblue" d="M300.775,-57.8731C305.597,-57.2267 310.413,-56.5929 315.047,-56 441.435,-39.8269 591.581,-22.8299 660.307,-15.1728"/>
<polygon fill="midnightblue" stroke="midnightblue" points="661.07,-18.6096 670.622,-14.0256 660.297,-11.6525 661.07,-18.6096"/>
</g>
<!-- Node85&#45;&gt;Node6 -->
<g id="edge158" class="edge"><title>Node85&#45;&gt;Node6</title>
<path fill="none" stroke="midnightblue" d="M300.742,-57.58C305.571,-56.994 310.398,-56.4543 315.047,-56 610.643,-27.1102 970.807,-14.8226 1072.27,-11.7846"/>
<polygon fill="midnightblue" stroke="midnightblue" points="1072.43,-15.2817 1082.32,-11.489 1072.22,-8.28475 1072.43,-15.2817"/>
</g>
</g>
</svg>
        <g id="navigator" transform="translate(0 0)" fill="#404254">
                <rect fill="#f2f5e9" fill-opacity="0.5" stroke="#606060" stroke-width=".5" x="0" y="0" width="60" height="60"/>
                <use id="zoomplus" xlink:href="#zoomPlus" x="17" y="9" onmousedown="handleZoom(evt,'in')"/>
                <use id="zoomminus" xlink:href="#zoomMin" x="42" y="9" onmousedown="handleZoom(evt,'out')"/>
                <use id="reset" xlink:href="#resetDef" x="30" y="36" onmousedown="handleReset()"/>
                <g id="arrowUp" xlink:href="#dirArrow" transform="translate(30 24)" onmousedown="handlePan(0,-1)">
                  <use xlink:href="#rim" fill="#404040">
                        <set attributeName="fill" to="#808080" begin="arrowUp.mouseover" end="arrowUp.mouseout"/>
                  </use>
                  <path fill="none" stroke="white" stroke-width="1.5" d="M0,-3.0v7 M-2.5,-0.5L0,-3.0L2.5,-0.5"/>
                </g>
                <g id="arrowRight" xlink:href="#dirArrow" transform="rotate(90) translate(36 -43)" onmousedown="handlePan(1,0)">
                  <use xlink:href="#rim" fill="#404040">
                        <set attributeName="fill" to="#808080" begin="arrowRight.mouseover" end="arrowRight.mouseout"/>
                  </use>
                  <path fill="none" stroke="white" stroke-width="1.5" d="M0,-3.0v7 M-2.5,-0.5L0,-3.0L2.5,-0.5"/>
                </g>
                <g id="arrowDown" xlink:href="#dirArrow" transform="rotate(180) translate(-30 -48)" onmousedown="handlePan(0,1)">
                  <use xlink:href="#rim" fill="#404040">
                        <set attributeName="fill" to="#808080" begin="arrowDown.mouseover" end="arrowDown.mouseout"/>
                  </use>
                  <path fill="none" stroke="white" stroke-width="1.5" d="M0,-3.0v7 M-2.5,-0.5L0,-3.0L2.5,-0.5"/>
                </g>
                <g id="arrowLeft" xlink:href="#dirArrow" transform="rotate(270) translate(-36 17)" onmousedown="handlePan(-1,0)">
                  <use xlink:href="#rim" fill="#404040">
                        <set attributeName="fill" to="#808080" begin="arrowLeft.mouseover" end="arrowLeft.mouseout"/>
                  </use>
                  <path fill="none" stroke="white" stroke-width="1.5" d="M0,-3.0v7 M-2.5,-0.5L0,-3.0L2.5,-0.5"/>
                </g>
        </g>
        <svg viewBox="0 0 15 15" width="100%" height="30px" preserveAspectRatio="xMaxYMin meet">
         <g id="arrow_out" transform="scale(0.3 0.3)">
          <a xlink:href="_game_8hpp__incl_org.svg" target="_base">
           <rect id="button" ry="5" rx="5" y="6" x="6" height="38" width="38"
                fill="#f2f5e9" fill-opacity="0.5" stroke="#606060" stroke-width="1.0"/>
           <path id="arrow"
             d="M 11.500037,31.436501 C 11.940474,20.09759 22.043105,11.32322 32.158766,21.979434 L 37.068811,17.246167 C 37.068811,17.246167 37.088388,32 37.088388,32 L 22.160133,31.978069 C 22.160133,31.978069 26.997745,27.140456 26.997745,27.140456 C 18.528582,18.264221 13.291696,25.230495 11.500037,31.436501 z"
             style="fill:#404040;"/>
          </a>
         </g>
        </svg>
</svg>
