<?xml version="1.0" encoding="UTF-8" standalone="no"?>
<!DOCTYPE svg PUBLIC "-//W3C//DTD SVG 1.1//EN"
 "http://www.w3.org/Graphics/SVG/1.1/DTD/svg11.dtd">
<!-- Generated by graphviz version 2.38.0 (20140413.2041)
 -->
<!-- Title: E:/Dev/ObEngine/Git/src/Input/KeyBind.cpp Pages: 1 -->
<svg width="1357pt" height="655pt"
 viewBox="0.00 0.00 1357.00 655.00" xmlns="http://www.w3.org/2000/svg" xmlns:xlink="http://www.w3.org/1999/xlink">
<g id="graph0" class="graph" transform="scale(1 1) rotate(0) translate(4 651)">
<title>E:/Dev/ObEngine/Git/src/Input/KeyBind.cpp</title>
<!-- Node0 -->
<g id="node1" class="node"><title>Node0</title>
<polygon fill="#bfbfbf" stroke="black" points="1114,-616.5 1114,-646.5 1230,-646.5 1230,-616.5 1114,-616.5"/>
<text text-anchor="start" x="1122" y="-634.5" font-family="Helvetica,sans-Serif" font-size="10.00">E:/Dev/ObEngine/Git</text>
<text text-anchor="middle" x="1172" y="-623.5" font-family="Helvetica,sans-Serif" font-size="10.00">/src/Input/KeyBind.cpp</text>
</g>
<!-- Node1 -->
<g id="node2" class="node"><title>Node1</title>
<g id="a_node2"><a xlink:href="_key_bind_8hpp.html" target="_top" xlink:title="Input/KeyBind.hpp">
<polygon fill="none" stroke="black" points="742,-560.5 742,-579.5 838,-579.5 838,-560.5 742,-560.5"/>
<text text-anchor="middle" x="790" y="-567.5" font-family="Helvetica,sans-Serif" font-size="10.00">Input/KeyBind.hpp</text>
</a>
</g>
</g>
<!-- Node0&#45;&gt;Node1 -->
<g id="edge1" class="edge"><title>Node0&#45;&gt;Node1</title>
<path fill="none" stroke="midnightblue" d="M1113.98,-621.463C1042.17,-610.277 920.558,-591.336 848.514,-580.114"/>
<polygon fill="midnightblue" stroke="midnightblue" points="848.676,-576.597 838.257,-578.516 847.599,-583.514 848.676,-576.597"/>
</g>
<!-- Node37 -->
<g id="node38" class="node"><title>Node37</title>
<g id="a_node38"><a xlink:href="_trigger_database_8hpp.html" target="_top" xlink:title="Triggers/TriggerDatabase.hpp">
<polygon fill="none" stroke="black" points="981.5,-392.5 981.5,-411.5 1124.5,-411.5 1124.5,-392.5 981.5,-392.5"/>
<text text-anchor="middle" x="1053" y="-399.5" font-family="Helvetica,sans-Serif" font-size="10.00">Triggers/TriggerDatabase.hpp</text>
</a>
</g>
</g>
<!-- Node0&#45;&gt;Node37 -->
<g id="edge63" class="edge"><title>Node0&#45;&gt;Node37</title>
<path fill="none" stroke="midnightblue" d="M1164.56,-616.269C1143.79,-576.56 1085.22,-464.606 1062.33,-420.845"/>
<polygon fill="midnightblue" stroke="midnightblue" points="1065.41,-419.166 1057.67,-411.927 1059.2,-422.41 1065.41,-419.166"/>
</g>
<!-- Node40 -->
<g id="node41" class="node"><title>Node40</title>
<g id="a_node41"><a xlink:href="_time_utils_8hpp.html" target="_top" xlink:title="Time/TimeUtils.hpp">
<polygon fill="none" stroke="black" points="1175,-280.5 1175,-299.5 1275,-299.5 1275,-280.5 1175,-280.5"/>
<text text-anchor="middle" x="1225" y="-287.5" font-family="Helvetica,sans-Serif" font-size="10.00">Time/TimeUtils.hpp</text>
</a>
</g>
</g>
<!-- Node0&#45;&gt;Node40 -->
<g id="edge71" class="edge"><title>Node0&#45;&gt;Node40</title>
<path fill="none" stroke="midnightblue" d="M1183.5,-616.157C1199.09,-595.226 1225,-554.492 1225,-515 1225,-515 1225,-515 1225,-401 1225,-368.948 1225,-331.643 1225,-309.749"/>
<polygon fill="midnightblue" stroke="midnightblue" points="1228.5,-309.558 1225,-299.558 1221.5,-309.558 1228.5,-309.558"/>
</g>
<!-- Node41 -->
<g id="node42" class="node"><title>Node41</title>
<g id="a_node42"><a xlink:href="_map_utils_8hpp.html" target="_top" xlink:title="Utils/MapUtils.hpp">
<polygon fill="none" stroke="black" points="1253,-560.5 1253,-579.5 1349,-579.5 1349,-560.5 1253,-560.5"/>
<text text-anchor="middle" x="1301" y="-567.5" font-family="Helvetica,sans-Serif" font-size="10.00">Utils/MapUtils.hpp</text>
</a>
</g>
</g>
<!-- Node0&#45;&gt;Node41 -->
<g id="edge70" class="edge"><title>Node0&#45;&gt;Node41</title>
<path fill="none" stroke="midnightblue" d="M1202.57,-616.399C1223.93,-606.55 1252.22,-593.501 1272.98,-583.922"/>
<polygon fill="midnightblue" stroke="midnightblue" points="1274.61,-587.024 1282.23,-579.658 1271.68,-580.668 1274.61,-587.024"/>
</g>
<!-- Node2 -->
<g id="node3" class="node"><title>Node2</title>
<polygon fill="none" stroke="#bfbfbf" points="553.5,-504.5 553.5,-523.5 652.5,-523.5 652.5,-504.5 553.5,-504.5"/>
<text text-anchor="middle" x="603" y="-511.5" font-family="Helvetica,sans-Serif" font-size="10.00">SFML/Window.hpp</text>
</g>
<!-- Node1&#45;&gt;Node2 -->
<g id="edge2" class="edge"><title>Node1&#45;&gt;Node2</title>
<path fill="none" stroke="midnightblue" d="M760.369,-560.444C728.5,-551.241 677.667,-536.562 642.436,-526.388"/>
<polygon fill="midnightblue" stroke="midnightblue" points="643.071,-522.928 632.492,-523.516 641.128,-529.653 643.071,-522.928"/>
</g>
<!-- Node3 -->
<g id="node4" class="node"><title>Node3</title>
<g id="a_node4"><a xlink:href="_vili_8hpp.html" target="_top" xlink:title="vili/Vili.hpp">
<polygon fill="none" stroke="black" points="671,-504.5 671,-523.5 733,-523.5 733,-504.5 671,-504.5"/>
<text text-anchor="middle" x="702" y="-511.5" font-family="Helvetica,sans-Serif" font-size="10.00">vili/Vili.hpp</text>
</a>
</g>
</g>
<!-- Node1&#45;&gt;Node3 -->
<g id="edge3" class="edge"><title>Node1&#45;&gt;Node3</title>
<path fill="none" stroke="midnightblue" d="M775.861,-560.324C762.134,-551.9 741.064,-538.971 724.936,-529.074"/>
<polygon fill="midnightblue" stroke="midnightblue" points="726.457,-525.902 716.104,-523.655 722.796,-531.868 726.457,-525.902"/>
</g>
<!-- Node27 -->
<g id="node28" class="node"><title>Node27</title>
<g id="a_node28"><a xlink:href="_trigger_group_8hpp.html" target="_top" xlink:title="Triggers/TriggerGroup.hpp">
<polygon fill="none" stroke="black" points="841,-336.5 841,-355.5 969,-355.5 969,-336.5 841,-336.5"/>
<text text-anchor="middle" x="905" y="-343.5" font-family="Helvetica,sans-Serif" font-size="10.00">Triggers/TriggerGroup.hpp</text>
</a>
</g>
</g>
<!-- Node1&#45;&gt;Node27 -->
<g id="edge49" class="edge"><title>Node1&#45;&gt;Node27</title>
<path fill="none" stroke="midnightblue" d="M794.508,-560.297C811.573,-527.356 872.418,-409.898 895.777,-364.805"/>
<polygon fill="midnightblue" stroke="midnightblue" points="898.906,-366.373 900.398,-355.884 892.691,-363.153 898.906,-366.373"/>
</g>
<!-- Node4 -->
<g id="node5" class="node"><title>Node4</title>
<g id="a_node5"><a xlink:href="_data_parser_8hpp.html" target="_top" xlink:title="vili/DataParser.hpp">
<polygon fill="none" stroke="black" points="541,-448.5 541,-467.5 639,-467.5 639,-448.5 541,-448.5"/>
<text text-anchor="middle" x="590" y="-455.5" font-family="Helvetica,sans-Serif" font-size="10.00">vili/DataParser.hpp</text>
</a>
</g>
</g>
<!-- Node3&#45;&gt;Node4 -->
<g id="edge4" class="edge"><title>Node3&#45;&gt;Node4</title>
<path fill="none" stroke="midnightblue" d="M684.005,-504.324C665.962,-495.625 637.953,-482.12 617.197,-472.113"/>
<polygon fill="midnightblue" stroke="midnightblue" points="618.478,-468.845 607.95,-467.655 615.438,-475.15 618.478,-468.845"/>
</g>
<!-- Node11 -->
<g id="node12" class="node"><title>Node11</title>
<g id="a_node12"><a xlink:href="_error_handler_8hpp.html" target="_top" xlink:title="../ErrorHandler.hpp">
<polygon fill="none" stroke="black" points="814,-112.5 814,-131.5 912,-131.5 912,-112.5 814,-112.5"/>
<text text-anchor="middle" x="863" y="-119.5" font-family="Helvetica,sans-Serif" font-size="10.00">../ErrorHandler.hpp</text>
</a>
</g>
</g>
<!-- Node3&#45;&gt;Node11 -->
<g id="edge40" class="edge"><title>Node3&#45;&gt;Node11</title>
<path fill="none" stroke="midnightblue" d="M705.705,-504.189C719.87,-470.485 771.916,-346.482 814,-244 829.006,-207.457 846.294,-164.581 855.799,-140.938"/>
<polygon fill="midnightblue" stroke="midnightblue" points="859.103,-142.104 859.583,-131.52 852.607,-139.495 859.103,-142.104"/>
</g>
<!-- Node22 -->
<g id="node23" class="node"><title>Node22</title>
<g id="a_node23"><a xlink:href="_link_attribute_8hpp.html" target="_top" xlink:title="LinkAttribute.hpp">
<polygon fill="none" stroke="black" points="393,-336.5 393,-355.5 483,-355.5 483,-336.5 393,-336.5"/>
<text text-anchor="middle" x="438" y="-343.5" font-family="Helvetica,sans-Serif" font-size="10.00">LinkAttribute.hpp</text>
</a>
</g>
</g>
<!-- Node3&#45;&gt;Node22 -->
<g id="edge39" class="edge"><title>Node3&#45;&gt;Node22</title>
<path fill="none" stroke="midnightblue" d="M670.733,-505.408C625.155,-494.238 544.508,-474.043 532,-468 494.543,-449.903 480.726,-446.171 457,-412 447.466,-398.268 442.661,-379.739 440.274,-365.977"/>
<polygon fill="midnightblue" stroke="midnightblue" points="443.689,-365.14 438.786,-355.748 436.762,-366.148 443.689,-365.14"/>
</g>
<!-- Node23 -->
<g id="node24" class="node"><title>Node23</title>
<g id="a_node24"><a xlink:href="_functions_8hpp.html" target="_top" xlink:title="Functions.hpp">
<polygon fill="none" stroke="black" points="138,-112.5 138,-131.5 216,-131.5 216,-112.5 138,-112.5"/>
<text text-anchor="middle" x="177" y="-119.5" font-family="Helvetica,sans-Serif" font-size="10.00">Functions.hpp</text>
</a>
</g>
</g>
<!-- Node3&#45;&gt;Node23 -->
<g id="edge41" class="edge"><title>Node3&#45;&gt;Node23</title>
<path fill="none" stroke="midnightblue" d="M670.67,-506.079C667.406,-505.371 664.136,-504.667 661,-504 552.257,-480.859 171,-514.178 171,-403 171,-403 171,-403 171,-233 171,-200.9 173.579,-163.61 175.355,-141.732"/>
<polygon fill="midnightblue" stroke="midnightblue" points="178.861,-141.808 176.216,-131.549 171.886,-141.219 178.861,-141.808"/>
</g>
<!-- Node5 -->
<g id="node6" class="node"><title>Node5</title>
<g id="a_node6"><a xlink:href="_complex_attribute_8hpp.html" target="_top" xlink:title="ComplexAttribute.hpp">
<polygon fill="none" stroke="black" points="501,-280.5 501,-299.5 611,-299.5 611,-280.5 501,-280.5"/>
<text text-anchor="middle" x="556" y="-287.5" font-family="Helvetica,sans-Serif" font-size="10.00">ComplexAttribute.hpp</text>
</a>
</g>
</g>
<!-- Node4&#45;&gt;Node5 -->
<g id="edge5" class="edge"><title>Node4&#45;&gt;Node5</title>
<path fill="none" stroke="midnightblue" d="M588.172,-448.075C582.82,-421.945 567.103,-345.211 559.805,-309.577"/>
<polygon fill="midnightblue" stroke="midnightblue" points="563.19,-308.662 557.755,-299.568 556.333,-310.067 563.19,-308.662"/>
</g>
<!-- Node21 -->
<g id="node22" class="node"><title>Node21</title>
<g id="a_node22"><a xlink:href="_data_template_8hpp.html" target="_top" xlink:title="DataTemplate.hpp">
<polygon fill="none" stroke="black" points="466.5,-392.5 466.5,-411.5 561.5,-411.5 561.5,-392.5 466.5,-392.5"/>
<text text-anchor="middle" x="514" y="-399.5" font-family="Helvetica,sans-Serif" font-size="10.00">DataTemplate.hpp</text>
</a>
</g>
</g>
<!-- Node4&#45;&gt;Node21 -->
<g id="edge32" class="edge"><title>Node4&#45;&gt;Node21</title>
<path fill="none" stroke="midnightblue" d="M577.789,-448.324C566.224,-440.107 548.625,-427.602 534.839,-417.807"/>
<polygon fill="midnightblue" stroke="midnightblue" points="536.612,-414.773 526.433,-411.834 532.557,-420.479 536.612,-414.773"/>
</g>
<!-- Node6 -->
<g id="node7" class="node"><title>Node6</title>
<polygon fill="none" stroke="#bfbfbf" points="729,-224.5 729,-243.5 787,-243.5 787,-224.5 729,-224.5"/>
<text text-anchor="middle" x="758" y="-231.5" font-family="Helvetica,sans-Serif" font-size="10.00">functional</text>
</g>
<!-- Node5&#45;&gt;Node6 -->
<g id="edge6" class="edge"><title>Node5&#45;&gt;Node6</title>
<path fill="none" stroke="midnightblue" d="M588.008,-280.444C623.546,-270.943 680.914,-255.607 719.036,-245.416"/>
<polygon fill="midnightblue" stroke="midnightblue" points="720.009,-248.779 728.766,-242.815 718.201,-242.016 720.009,-248.779"/>
</g>
<!-- Node7 -->
<g id="node8" class="node"><title>Node7</title>
<polygon fill="none" stroke="#bfbfbf" points="768.5,-56.5 768.5,-75.5 803.5,-75.5 803.5,-56.5 768.5,-56.5"/>
<text text-anchor="middle" x="786" y="-63.5" font-family="Helvetica,sans-Serif" font-size="10.00">map</text>
</g>
<!-- Node5&#45;&gt;Node7 -->
<g id="edge7" class="edge"><title>Node5&#45;&gt;Node7</title>
<path fill="none" stroke="midnightblue" d="M611.266,-286.565C674.704,-282.474 772.987,-271.728 796,-244 815.584,-220.403 798.622,-126.301 790.141,-85.7499"/>
<polygon fill="midnightblue" stroke="midnightblue" points="793.534,-84.8776 788.012,-75.8356 786.69,-86.3477 793.534,-84.8776"/>
</g>
<!-- Node8 -->
<g id="node9" class="node"><title>Node8</title>
<polygon fill="none" stroke="#bfbfbf" points="407,-168.5 407,-187.5 459,-187.5 459,-168.5 407,-168.5"/>
<text text-anchor="middle" x="433" y="-175.5" font-family="Helvetica,sans-Serif" font-size="10.00">memory</text>
</g>
<!-- Node5&#45;&gt;Node8 -->
<g id="edge8" class="edge"><title>Node5&#45;&gt;Node8</title>
<path fill="none" stroke="midnightblue" d="M546.348,-280.368C525.601,-261.814 476.512,-217.913 450.262,-194.438"/>
<polygon fill="midnightblue" stroke="midnightblue" points="452.394,-191.649 442.607,-187.591 447.728,-196.867 452.394,-191.649"/>
</g>
<!-- Node9 -->
<g id="node10" class="node"><title>Node9</title>
<polygon fill="none" stroke="#bfbfbf" points="608,-56.5 608,-75.5 650,-75.5 650,-56.5 608,-56.5"/>
<text text-anchor="middle" x="629" y="-63.5" font-family="Helvetica,sans-Serif" font-size="10.00">vector</text>
</g>
<!-- Node5&#45;&gt;Node9 -->
<g id="edge9" class="edge"><title>Node5&#45;&gt;Node9</title>
<path fill="none" stroke="midnightblue" d="M557.054,-280.469C558.718,-267.933 562.36,-243.871 568,-224 571.959,-210.051 606.404,-123.465 621.716,-85.1767"/>
<polygon fill="midnightblue" stroke="midnightblue" points="625.019,-86.343 625.486,-75.7585 618.52,-83.7415 625.019,-86.343"/>
</g>
<!-- Node10 -->
<g id="node11" class="node"><title>Node10</title>
<g id="a_node11"><a xlink:href="_base_attribute_8hpp.html" target="_top" xlink:title="BaseAttribute.hpp">
<polygon fill="none" stroke="black" points="477.5,-168.5 477.5,-187.5 572.5,-187.5 572.5,-168.5 477.5,-168.5"/>
<text text-anchor="middle" x="525" y="-175.5" font-family="Helvetica,sans-Serif" font-size="10.00">BaseAttribute.hpp</text>
</a>
</g>
</g>
<!-- Node5&#45;&gt;Node10 -->
<g id="edge10" class="edge"><title>Node5&#45;&gt;Node10</title>
<path fill="none" stroke="midnightblue" d="M551.045,-280.33C546.207,-271.478 539.006,-257.2 535,-244 530.384,-228.79 527.831,-210.899 526.463,-197.743"/>
<polygon fill="midnightblue" stroke="midnightblue" points="529.931,-197.229 525.543,-187.585 522.959,-197.86 529.931,-197.229"/>
</g>
<!-- Node17 -->
<g id="node18" class="node"><title>Node17</title>
<g id="a_node18"><a xlink:href="_container_attribute_8hpp.html" target="_top" xlink:title="ContainerAttribute.hpp">
<polygon fill="none" stroke="black" points="237.5,-168.5 237.5,-187.5 350.5,-187.5 350.5,-168.5 237.5,-168.5"/>
<text text-anchor="middle" x="294" y="-175.5" font-family="Helvetica,sans-Serif" font-size="10.00">ContainerAttribute.hpp</text>
</a>
</g>
</g>
<!-- Node5&#45;&gt;Node17 -->
<g id="edge21" class="edge"><title>Node5&#45;&gt;Node17</title>
<path fill="none" stroke="midnightblue" d="M500.746,-285.762C436.829,-280.873 336.911,-269.332 310,-244 297.58,-232.309 294.142,-212.659 293.47,-198.018"/>
<polygon fill="midnightblue" stroke="midnightblue" points="296.967,-197.576 293.404,-187.599 289.967,-197.62 296.967,-197.576"/>
</g>
<!-- Node18 -->
<g id="node19" class="node"><title>Node18</title>
<g id="a_node19"><a xlink:href="_list_attribute_8hpp.html" target="_top" xlink:title="ListAttribute.hpp">
<polygon fill="none" stroke="black" points="319,-224.5 319,-243.5 407,-243.5 407,-224.5 319,-224.5"/>
<text text-anchor="middle" x="363" y="-231.5" font-family="Helvetica,sans-Serif" font-size="10.00">ListAttribute.hpp</text>
</a>
</g>
</g>
<!-- Node5&#45;&gt;Node18 -->
<g id="edge23" class="edge"><title>Node5&#45;&gt;Node18</title>
<path fill="none" stroke="midnightblue" d="M525.419,-280.444C492.385,-271.201 439.612,-256.436 403.234,-246.257"/>
<polygon fill="midnightblue" stroke="midnightblue" points="404.012,-242.84 393.438,-243.516 402.125,-249.582 404.012,-242.84"/>
</g>
<!-- Node19 -->
<g id="node20" class="node"><title>Node19</title>
<g id="a_node20"><a xlink:href="_node_iterator_8hpp.html" target="_top" xlink:title="NodeIterator.hpp">
<polygon fill="none" stroke="black" points="629,-168.5 629,-187.5 717,-187.5 717,-168.5 629,-168.5"/>
<text text-anchor="middle" x="673" y="-175.5" font-family="Helvetica,sans-Serif" font-size="10.00">NodeIterator.hpp</text>
</a>
</g>
</g>
<!-- Node5&#45;&gt;Node19 -->
<g id="edge28" class="edge"><title>Node5&#45;&gt;Node19</title>
<path fill="none" stroke="midnightblue" d="M611.304,-283.685C637.254,-278.096 665.943,-266.785 682,-244 691.518,-230.494 687.363,-211.429 681.972,-197.439"/>
<polygon fill="midnightblue" stroke="midnightblue" points="685.021,-195.673 677.815,-187.905 678.604,-198.471 685.021,-195.673"/>
</g>
<!-- Node20 -->
<g id="node21" class="node"><title>Node20</title>
<g id="a_node21"><a xlink:href="_node_validator_8hpp.html" target="_top" xlink:title="NodeValidator.hpp">
<polygon fill="none" stroke="black" points="577,-224.5 577,-243.5 673,-243.5 673,-224.5 577,-224.5"/>
<text text-anchor="middle" x="625" y="-231.5" font-family="Helvetica,sans-Serif" font-size="10.00">NodeValidator.hpp</text>
</a>
</g>
</g>
<!-- Node5&#45;&gt;Node20 -->
<g id="edge30" class="edge"><title>Node5&#45;&gt;Node20</title>
<path fill="none" stroke="midnightblue" d="M567.086,-280.324C577.486,-272.185 593.261,-259.839 605.722,-250.087"/>
<polygon fill="midnightblue" stroke="midnightblue" points="607.994,-252.753 613.712,-243.834 603.68,-247.241 607.994,-252.753"/>
</g>
<!-- Node10&#45;&gt;Node11 -->
<g id="edge11" class="edge"><title>Node10&#45;&gt;Node11</title>
<path fill="none" stroke="midnightblue" d="M572.71,-169.378C633.339,-159.691 737.986,-142.973 803.689,-132.476"/>
<polygon fill="midnightblue" stroke="midnightblue" points="804.565,-135.88 813.887,-130.846 803.46,-128.968 804.565,-135.88"/>
</g>
<!-- Node15 -->
<g id="node16" class="node"><title>Node15</title>
<g id="a_node16"><a xlink:href="_attribute_8hpp.html" target="_top" xlink:title="Attribute.hpp">
<polygon fill="none" stroke="black" points="277,-112.5 277,-131.5 349,-131.5 349,-112.5 277,-112.5"/>
<text text-anchor="middle" x="313" y="-119.5" font-family="Helvetica,sans-Serif" font-size="10.00">Attribute.hpp</text>
</a>
</g>
</g>
<!-- Node10&#45;&gt;Node15 -->
<g id="edge17" class="edge"><title>Node10&#45;&gt;Node15</title>
<path fill="none" stroke="midnightblue" d="M491.408,-168.444C454.813,-159.122 396.162,-144.183 356.174,-133.997"/>
<polygon fill="midnightblue" stroke="midnightblue" points="356.989,-130.593 346.435,-131.516 355.261,-137.377 356.989,-130.593"/>
</g>
<!-- Node11&#45;&gt;Node7 -->
<g id="edge14" class="edge"><title>Node11&#45;&gt;Node7</title>
<path fill="none" stroke="midnightblue" d="M850.629,-112.324C838.842,-104.058 820.868,-91.4527 806.864,-81.6322"/>
<polygon fill="midnightblue" stroke="midnightblue" points="808.538,-78.5307 798.341,-75.6545 804.518,-84.2619 808.538,-78.5307"/>
</g>
<!-- Node11&#45;&gt;Node9 -->
<g id="edge13" class="edge"><title>Node11&#45;&gt;Node9</title>
<path fill="none" stroke="midnightblue" d="M825.922,-112.444C780.086,-101.866 702.903,-84.0545 660.044,-74.164"/>
<polygon fill="midnightblue" stroke="midnightblue" points="660.71,-70.7259 650.179,-71.8876 659.136,-77.5466 660.71,-70.7259"/>
</g>
<!-- Node12 -->
<g id="node13" class="node"><title>Node12</title>
<polygon fill="none" stroke="#bfbfbf" points="348.5,-0.5 348.5,-19.5 389.5,-19.5 389.5,-0.5 348.5,-0.5"/>
<text text-anchor="middle" x="369" y="-7.5" font-family="Helvetica,sans-Serif" font-size="10.00">string</text>
</g>
<!-- Node11&#45;&gt;Node12 -->
<g id="edge12" class="edge"><title>Node11&#45;&gt;Node12</title>
<path fill="none" stroke="midnightblue" d="M859.116,-112.431C852.053,-97.9654 835.621,-69.0079 812,-56 740.9,-16.8464 488.368,-11.648 399.894,-11.0441"/>
<polygon fill="midnightblue" stroke="midnightblue" points="399.723,-7.54322 389.704,-10.9904 399.686,-14.5431 399.723,-7.54322"/>
</g>
<!-- Node13 -->
<g id="node14" class="node"><title>Node13</title>
<polygon fill="none" stroke="#bfbfbf" points="332,-56.5 332,-75.5 386,-75.5 386,-56.5 332,-56.5"/>
<text text-anchor="middle" x="359" y="-63.5" font-family="Helvetica,sans-Serif" font-size="10.00">iostream</text>
</g>
<!-- Node11&#45;&gt;Node13 -->
<g id="edge15" class="edge"><title>Node11&#45;&gt;Node13</title>
<path fill="none" stroke="midnightblue" d="M813.833,-118.689C729.976,-114.22 553.848,-102.552 395.929,-75.9111"/>
<polygon fill="midnightblue" stroke="midnightblue" points="396.482,-72.455 386.035,-74.2181 395.301,-79.3547 396.482,-72.455"/>
</g>
<!-- Node14 -->
<g id="node15" class="node"><title>Node14</title>
<polygon fill="none" stroke="#bfbfbf" points="860.5,-56.5 860.5,-75.5 919.5,-75.5 919.5,-56.5 860.5,-56.5"/>
<text text-anchor="middle" x="890" y="-63.5" font-family="Helvetica,sans-Serif" font-size="10.00">exception</text>
</g>
<!-- Node11&#45;&gt;Node14 -->
<g id="edge16" class="edge"><title>Node11&#45;&gt;Node14</title>
<path fill="none" stroke="midnightblue" d="M867.459,-112.083C871.154,-104.691 876.523,-93.9533 881.094,-84.8111"/>
<polygon fill="midnightblue" stroke="midnightblue" points="884.283,-86.2606 885.624,-75.7511 878.022,-83.1301 884.283,-86.2606"/>
</g>
<!-- Node15&#45;&gt;Node12 -->
<g id="edge18" class="edge"><title>Node15&#45;&gt;Node12</title>
<path fill="none" stroke="midnightblue" d="M312.644,-112.48C312.457,-99.5391 313.505,-74.4839 323,-56 328.94,-44.4351 338.986,-34.0854 348.177,-26.236"/>
<polygon fill="midnightblue" stroke="midnightblue" points="350.628,-28.7568 356.235,-19.7672 346.245,-23.2982 350.628,-28.7568"/>
</g>
<!-- Node16 -->
<g id="node17" class="node"><title>Node16</title>
<g id="a_node17"><a xlink:href="_types_8hpp.html" target="_top" xlink:title="Types.hpp">
<polygon fill="none" stroke="black" points="404,-56.5 404,-75.5 466,-75.5 466,-56.5 404,-56.5"/>
<text text-anchor="middle" x="435" y="-63.5" font-family="Helvetica,sans-Serif" font-size="10.00">Types.hpp</text>
</a>
</g>
</g>
<!-- Node15&#45;&gt;Node16 -->
<g id="edge19" class="edge"><title>Node15&#45;&gt;Node16</title>
<path fill="none" stroke="midnightblue" d="M332.331,-112.444C352.32,-103.596 383.743,-89.6875 406.564,-79.5865"/>
<polygon fill="midnightblue" stroke="midnightblue" points="408.032,-82.7645 415.759,-75.5164 405.198,-76.3635 408.032,-82.7645"/>
</g>
<!-- Node16&#45;&gt;Node12 -->
<g id="edge20" class="edge"><title>Node16&#45;&gt;Node12</title>
<path fill="none" stroke="midnightblue" d="M424.396,-56.324C414.544,-48.2631 399.649,-36.0765 387.785,-26.3695"/>
<polygon fill="midnightblue" stroke="midnightblue" points="389.753,-23.4575 379.797,-19.8339 385.32,-28.8752 389.753,-23.4575"/>
</g>
<!-- Node17&#45;&gt;Node15 -->
<g id="edge22" class="edge"><title>Node17&#45;&gt;Node15</title>
<path fill="none" stroke="midnightblue" d="M297.137,-168.083C299.683,-160.849 303.356,-150.409 306.527,-141.397"/>
<polygon fill="midnightblue" stroke="midnightblue" points="309.903,-142.346 309.921,-131.751 303.3,-140.023 309.903,-142.346"/>
</g>
<!-- Node18&#45;&gt;Node8 -->
<g id="edge25" class="edge"><title>Node18&#45;&gt;Node8</title>
<path fill="none" stroke="midnightblue" d="M374.247,-224.324C384.797,-216.185 400.801,-203.839 413.442,-194.087"/>
<polygon fill="midnightblue" stroke="midnightblue" points="415.769,-196.713 421.549,-187.834 411.493,-191.171 415.769,-196.713"/>
</g>
<!-- Node18&#45;&gt;Node9 -->
<g id="edge24" class="edge"><title>Node18&#45;&gt;Node9</title>
<path fill="none" stroke="midnightblue" d="M365.633,-224.259C370.163,-210.568 380.657,-183.98 398,-168 457.078,-113.565 550.177,-85.2696 598.151,-73.612"/>
<polygon fill="midnightblue" stroke="midnightblue" points="599.016,-77.0041 607.951,-71.3108 597.416,-70.1895 599.016,-77.0041"/>
</g>
<!-- Node18&#45;&gt;Node10 -->
<g id="edge26" class="edge"><title>Node18&#45;&gt;Node10</title>
<path fill="none" stroke="midnightblue" d="M388.669,-224.444C415.923,-215.359 459.184,-200.939 489.651,-190.783"/>
<polygon fill="midnightblue" stroke="midnightblue" points="491.071,-193.999 499.451,-187.516 488.857,-187.358 491.071,-193.999"/>
</g>
<!-- Node18&#45;&gt;Node17 -->
<g id="edge27" class="edge"><title>Node18&#45;&gt;Node17</title>
<path fill="none" stroke="midnightblue" d="M351.914,-224.324C341.514,-216.185 325.739,-203.839 313.278,-194.087"/>
<polygon fill="midnightblue" stroke="midnightblue" points="315.32,-191.241 305.288,-187.834 311.006,-196.753 315.32,-191.241"/>
</g>
<!-- Node19&#45;&gt;Node9 -->
<g id="edge29" class="edge"><title>Node19&#45;&gt;Node9</title>
<path fill="none" stroke="midnightblue" d="M669.547,-168.368C662.383,-150.456 645.769,-108.923 636.179,-84.9482"/>
<polygon fill="midnightblue" stroke="midnightblue" points="639.4,-83.5763 632.437,-75.5914 632.901,-86.1761 639.4,-83.5763"/>
</g>
<!-- Node20&#45;&gt;Node19 -->
<g id="edge31" class="edge"><title>Node20&#45;&gt;Node19</title>
<path fill="none" stroke="midnightblue" d="M632.926,-224.083C639.846,-216.298 650.065,-204.801 658.452,-195.367"/>
<polygon fill="midnightblue" stroke="midnightblue" points="661.194,-197.55 665.221,-187.751 655.962,-192.9 661.194,-197.55"/>
</g>
<!-- Node21&#45;&gt;Node22 -->
<g id="edge33" class="edge"><title>Node21&#45;&gt;Node22</title>
<path fill="none" stroke="midnightblue" d="M501.789,-392.324C490.224,-384.107 472.625,-371.602 458.839,-361.807"/>
<polygon fill="midnightblue" stroke="midnightblue" points="460.612,-358.773 450.433,-355.834 456.557,-364.479 460.612,-358.773"/>
</g>
<!-- Node22&#45;&gt;Node5 -->
<g id="edge36" class="edge"><title>Node22&#45;&gt;Node5</title>
<path fill="none" stroke="midnightblue" d="M456.697,-336.444C475.944,-327.636 506.152,-313.812 528.2,-303.722"/>
<polygon fill="midnightblue" stroke="midnightblue" points="529.753,-306.86 537.39,-299.516 526.84,-300.495 529.753,-306.86"/>
</g>
<!-- Node22&#45;&gt;Node10 -->
<g id="edge35" class="edge"><title>Node22&#45;&gt;Node10</title>
<path fill="none" stroke="midnightblue" d="M442.677,-336.075C456.491,-309.719 497.287,-231.878 515.744,-196.661"/>
<polygon fill="midnightblue" stroke="midnightblue" points="518.967,-198.05 520.509,-187.568 512.767,-194.801 518.967,-198.05"/>
</g>
<!-- Node22&#45;&gt;Node12 -->
<g id="edge34" class="edge"><title>Node22&#45;&gt;Node12</title>
<path fill="none" stroke="midnightblue" d="M401.821,-336.471C377.165,-329.452 344.649,-317.736 320,-300 267.711,-262.375 249.715,-248.648 228,-188 202.299,-116.22 296.589,-51.5537 343.719,-24.4642"/>
<polygon fill="midnightblue" stroke="midnightblue" points="345.459,-27.5017 352.467,-19.5563 342.033,-21.3969 345.459,-27.5017"/>
</g>
<!-- Node22&#45;&gt;Node17 -->
<g id="edge37" class="edge"><title>Node22&#45;&gt;Node17</title>
<path fill="none" stroke="midnightblue" d="M414.704,-336.487C381.195,-322.829 320.607,-292.519 295,-244 287.51,-229.808 288.031,-211.329 289.976,-197.703"/>
<polygon fill="midnightblue" stroke="midnightblue" points="293.467,-198.063 291.799,-187.6 286.579,-196.82 293.467,-198.063"/>
</g>
<!-- Node22&#45;&gt;Node18 -->
<g id="edge38" class="edge"><title>Node22&#45;&gt;Node18</title>
<path fill="none" stroke="midnightblue" d="M432.115,-336.368C419.738,-318.215 390.819,-275.802 374.584,-251.99"/>
<polygon fill="midnightblue" stroke="midnightblue" points="377.383,-249.882 368.858,-243.591 371.599,-253.825 377.383,-249.882"/>
</g>
<!-- Node23&#45;&gt;Node7 -->
<g id="edge46" class="edge"><title>Node23&#45;&gt;Node7</title>
<path fill="none" stroke="midnightblue" d="M216.407,-116.999C232.413,-115.401 251.086,-113.571 268,-112 454.759,-94.6532 679.596,-75.8207 757.668,-69.3418"/>
<polygon fill="midnightblue" stroke="midnightblue" points="758.423,-72.7913 768.1,-68.4772 757.845,-65.8152 758.423,-72.7913"/>
</g>
<!-- Node23&#45;&gt;Node9 -->
<g id="edge43" class="edge"><title>Node23&#45;&gt;Node9</title>
<path fill="none" stroke="midnightblue" d="M216.321,-116.302C304.71,-105.743 517.613,-80.3073 597.771,-70.7309"/>
<polygon fill="midnightblue" stroke="midnightblue" points="598.228,-74.2013 607.742,-69.5397 597.397,-67.2508 598.228,-74.2013"/>
</g>
<!-- Node23&#45;&gt;Node12 -->
<g id="edge44" class="edge"><title>Node23&#45;&gt;Node12</title>
<path fill="none" stroke="midnightblue" d="M183.915,-112.214C195.158,-98.4592 218.702,-71.7868 244,-56 273.712,-37.4589 312.154,-25.081 338.517,-18.0781"/>
<polygon fill="midnightblue" stroke="midnightblue" points="339.506,-21.438 348.328,-15.5717 337.773,-14.6559 339.506,-21.438"/>
</g>
<!-- Node23&#45;&gt;Node13 -->
<g id="edge42" class="edge"><title>Node23&#45;&gt;Node13</title>
<path fill="none" stroke="midnightblue" d="M205.838,-112.444C237.312,-103.105 287.788,-88.1287 322.121,-77.9421"/>
<polygon fill="midnightblue" stroke="midnightblue" points="323.191,-81.2754 331.783,-75.0755 321.2,-74.5646 323.191,-81.2754"/>
</g>
<!-- Node24 -->
<g id="node25" class="node"><title>Node24</title>
<polygon fill="none" stroke="#bfbfbf" points="140,-56.5 140,-75.5 192,-75.5 192,-56.5 140,-56.5"/>
<text text-anchor="middle" x="166" y="-63.5" font-family="Helvetica,sans-Serif" font-size="10.00">sstream</text>
</g>
<!-- Node23&#45;&gt;Node24 -->
<g id="edge45" class="edge"><title>Node23&#45;&gt;Node24</title>
<path fill="none" stroke="midnightblue" d="M175.184,-112.083C173.726,-104.927 171.629,-94.6353 169.807,-85.6911"/>
<polygon fill="midnightblue" stroke="midnightblue" points="173.208,-84.8512 167.783,-75.7511 166.349,-86.2485 173.208,-84.8512"/>
</g>
<!-- Node25 -->
<g id="node26" class="node"><title>Node25</title>
<polygon fill="none" stroke="#bfbfbf" points="0,-56.5 0,-75.5 56,-75.5 56,-56.5 0,-56.5"/>
<text text-anchor="middle" x="28" y="-63.5" font-family="Helvetica,sans-Serif" font-size="10.00">algorithm</text>
</g>
<!-- Node23&#45;&gt;Node25 -->
<g id="edge47" class="edge"><title>Node23&#45;&gt;Node25</title>
<path fill="none" stroke="midnightblue" d="M153.391,-112.444C128.542,-103.438 89.2256,-89.1891 61.2464,-79.049"/>
<polygon fill="midnightblue" stroke="midnightblue" points="62.0932,-75.6332 51.499,-75.5164 59.7081,-82.2144 62.0932,-75.6332"/>
</g>
<!-- Node26 -->
<g id="node27" class="node"><title>Node26</title>
<polygon fill="none" stroke="#bfbfbf" points="74.5,-56.5 74.5,-75.5 121.5,-75.5 121.5,-56.5 74.5,-56.5"/>
<text text-anchor="middle" x="98" y="-63.5" font-family="Helvetica,sans-Serif" font-size="10.00">iterator</text>
</g>
<!-- Node23&#45;&gt;Node26 -->
<g id="edge48" class="edge"><title>Node23&#45;&gt;Node26</title>
<path fill="none" stroke="midnightblue" d="M164.307,-112.324C152.099,-103.979 133.422,-91.2122 118.997,-81.3524"/>
<polygon fill="midnightblue" stroke="midnightblue" points="120.892,-78.4082 110.661,-75.6545 116.942,-84.1871 120.892,-78.4082"/>
</g>
<!-- Node27&#45;&gt;Node27 -->
<g id="edge62" class="edge"><title>Node27&#45;&gt;Node27</title>
<path fill="none" stroke="midnightblue" d="M939.973,-355.525C963.736,-358.308 987,-355.133 987,-346 987,-338.187 969.975,-334.734 950.177,-335.642"/>
<polygon fill="midnightblue" stroke="midnightblue" points="949.655,-332.172 939.973,-336.475 950.225,-339.149 949.655,-332.172"/>
</g>
<!-- Node28 -->
<g id="node29" class="node"><title>Node28</title>
<g id="a_node29"><a xlink:href="_trigger_delay_8hpp.html" target="_top" xlink:title="Triggers/TriggerDelay.hpp">
<polygon fill="none" stroke="black" points="855.5,-280.5 855.5,-299.5 982.5,-299.5 982.5,-280.5 855.5,-280.5"/>
<text text-anchor="middle" x="919" y="-287.5" font-family="Helvetica,sans-Serif" font-size="10.00">Triggers/TriggerDelay.hpp</text>
</a>
</g>
</g>
<!-- Node27&#45;&gt;Node28 -->
<g id="edge50" class="edge"><title>Node27&#45;&gt;Node28</title>
<path fill="none" stroke="midnightblue" d="M907.312,-336.083C909.167,-328.927 911.835,-318.635 914.154,-309.691"/>
<polygon fill="midnightblue" stroke="midnightblue" points="917.609,-310.309 916.731,-299.751 910.834,-308.553 917.609,-310.309"/>
</g>
<!-- Node29 -->
<g id="node30" class="node"><title>Node29</title>
<g id="a_node30"><a xlink:href="_trigger_8hpp.html" target="_top" xlink:title="Triggers/Trigger.hpp">
<polygon fill="none" stroke="black" points="1043,-224.5 1043,-243.5 1145,-243.5 1145,-224.5 1043,-224.5"/>
<text text-anchor="middle" x="1094" y="-231.5" font-family="Helvetica,sans-Serif" font-size="10.00">Triggers/Trigger.hpp</text>
</a>
</g>
</g>
<!-- Node28&#45;&gt;Node29 -->
<g id="edge51" class="edge"><title>Node28&#45;&gt;Node29</title>
<path fill="none" stroke="midnightblue" d="M946.729,-280.444C976.426,-271.28 1023.72,-256.688 1056.67,-246.519"/>
<polygon fill="midnightblue" stroke="midnightblue" points="1057.88,-249.809 1066.4,-243.516 1055.81,-243.121 1057.88,-249.809"/>
</g>
<!-- Node30 -->
<g id="node31" class="node"><title>Node30</title>
<polygon fill="none" stroke="#bfbfbf" points="1101.5,-168.5 1101.5,-187.5 1202.5,-187.5 1202.5,-168.5 1101.5,-168.5"/>
<text text-anchor="middle" x="1152" y="-175.5" font-family="Helvetica,sans-Serif" font-size="10.00">kaguya/kaguya.hpp</text>
</g>
<!-- Node29&#45;&gt;Node30 -->
<g id="edge52" class="edge"><title>Node29&#45;&gt;Node30</title>
<path fill="none" stroke="midnightblue" d="M1103.32,-224.324C1111.89,-216.341 1124.81,-204.313 1135.19,-194.653"/>
<polygon fill="midnightblue" stroke="midnightblue" points="1137.58,-197.21 1142.51,-187.834 1132.81,-192.086 1137.58,-197.21"/>
</g>
<!-- Node31 -->
<g id="node32" class="node"><title>Node31</title>
<g id="a_node32"><a xlink:href="_any_8hpp.html" target="_top" xlink:title="Types/Any.hpp">
<polygon fill="none" stroke="black" points="1221,-168.5 1221,-187.5 1303,-187.5 1303,-168.5 1221,-168.5"/>
<text text-anchor="middle" x="1262" y="-175.5" font-family="Helvetica,sans-Serif" font-size="10.00">Types/Any.hpp</text>
</a>
</g>
</g>
<!-- Node29&#45;&gt;Node31 -->
<g id="edge53" class="edge"><title>Node29&#45;&gt;Node31</title>
<path fill="none" stroke="midnightblue" d="M1120.62,-224.444C1149.01,-215.32 1194.14,-200.813 1225.75,-190.651"/>
<polygon fill="midnightblue" stroke="midnightblue" points="1227.06,-193.909 1235.5,-187.516 1224.91,-187.244 1227.06,-193.909"/>
</g>
<!-- Node34 -->
<g id="node35" class="node"><title>Node34</title>
<g id="a_node35"><a xlink:href="_string_utils_8hpp.html" target="_top" xlink:title="Utils/StringUtils.hpp">
<polygon fill="none" stroke="black" points="1032.5,-112.5 1032.5,-131.5 1135.5,-131.5 1135.5,-112.5 1032.5,-112.5"/>
<text text-anchor="middle" x="1084" y="-119.5" font-family="Helvetica,sans-Serif" font-size="10.00">Utils/StringUtils.hpp</text>
</a>
</g>
</g>
<!-- Node29&#45;&gt;Node34 -->
<g id="edge56" class="edge"><title>Node29&#45;&gt;Node34</title>
<path fill="none" stroke="midnightblue" d="M1093.22,-224.368C1091.6,-206.617 1087.88,-165.666 1085.69,-141.597"/>
<polygon fill="midnightblue" stroke="midnightblue" points="1089.17,-141.233 1084.78,-131.591 1082.2,-141.867 1089.17,-141.233"/>
</g>
<!-- Node36 -->
<g id="node37" class="node"><title>Node36</title>
<g id="a_node37"><a xlink:href="_vector_utils_8hpp.html" target="_top" xlink:title="Utils/VectorUtils.hpp">
<polygon fill="none" stroke="black" points="881,-168.5 881,-187.5 987,-187.5 987,-168.5 881,-168.5"/>
<text text-anchor="middle" x="934" y="-175.5" font-family="Helvetica,sans-Serif" font-size="10.00">Utils/VectorUtils.hpp</text>
</a>
</g>
</g>
<!-- Node29&#45;&gt;Node36 -->
<g id="edge60" class="edge"><title>Node29&#45;&gt;Node36</title>
<path fill="none" stroke="midnightblue" d="M1068.65,-224.444C1041.73,-215.359 999.004,-200.939 968.913,-190.783"/>
<polygon fill="midnightblue" stroke="midnightblue" points="969.828,-187.398 959.234,-187.516 967.59,-194.031 969.828,-187.398"/>
</g>
<!-- Node32 -->
<g id="node33" class="node"><title>Node32</title>
<polygon fill="none" stroke="#bfbfbf" points="1268,-112.5 1268,-131.5 1330,-131.5 1330,-112.5 1268,-112.5"/>
<text text-anchor="middle" x="1299" y="-119.5" font-family="Helvetica,sans-Serif" font-size="10.00">type_traits</text>
</g>
<!-- Node31&#45;&gt;Node32 -->
<g id="edge54" class="edge"><title>Node31&#45;&gt;Node32</title>
<path fill="none" stroke="midnightblue" d="M1268.11,-168.083C1273.28,-160.534 1280.85,-149.495 1287.19,-140.23"/>
<polygon fill="midnightblue" stroke="midnightblue" points="1290.24,-141.979 1293,-131.751 1284.46,-138.022 1290.24,-141.979"/>
</g>
<!-- Node33 -->
<g id="node34" class="node"><title>Node33</title>
<polygon fill="none" stroke="#bfbfbf" points="1200,-112.5 1200,-131.5 1250,-131.5 1250,-112.5 1200,-112.5"/>
<text text-anchor="middle" x="1225" y="-119.5" font-family="Helvetica,sans-Serif" font-size="10.00">typeinfo</text>
</g>
<!-- Node31&#45;&gt;Node33 -->
<g id="edge55" class="edge"><title>Node31&#45;&gt;Node33</title>
<path fill="none" stroke="midnightblue" d="M1255.89,-168.083C1250.72,-160.534 1243.15,-149.495 1236.81,-140.23"/>
<polygon fill="midnightblue" stroke="midnightblue" points="1239.54,-138.022 1231,-131.751 1233.76,-141.979 1239.54,-138.022"/>
</g>
<!-- Node34&#45;&gt;Node9 -->
<g id="edge59" class="edge"><title>Node34&#45;&gt;Node9</title>
<path fill="none" stroke="midnightblue" d="M1032.25,-114.858C937.26,-103.585 737.753,-79.907 660.495,-70.7379"/>
<polygon fill="midnightblue" stroke="midnightblue" points="660.771,-67.2462 650.428,-69.5431 659.946,-74.1974 660.771,-67.2462"/>
</g>
<!-- Node34&#45;&gt;Node12 -->
<g id="edge58" class="edge"><title>Node34&#45;&gt;Node12</title>
<path fill="none" stroke="midnightblue" d="M1068.28,-112.423C1040.91,-97.9437 982.304,-68.9671 929,-56 827.159,-31.2254 501.623,-16.3324 399.767,-12.1906"/>
<polygon fill="midnightblue" stroke="midnightblue" points="399.677,-8.68428 389.545,-11.7807 399.397,-15.6787 399.677,-8.68428"/>
</g>
<!-- Node35 -->
<g id="node36" class="node"><title>Node35</title>
<polygon fill="none" stroke="#bfbfbf" points="1065,-56.5 1065,-75.5 1103,-75.5 1103,-56.5 1065,-56.5"/>
<text text-anchor="middle" x="1084" y="-63.5" font-family="Helvetica,sans-Serif" font-size="10.00">tuple</text>
</g>
<!-- Node34&#45;&gt;Node35 -->
<g id="edge57" class="edge"><title>Node34&#45;&gt;Node35</title>
<path fill="none" stroke="midnightblue" d="M1084,-112.083C1084,-105.006 1084,-94.8611 1084,-85.9865"/>
<polygon fill="midnightblue" stroke="midnightblue" points="1087.5,-85.751 1084,-75.7511 1080.5,-85.7511 1087.5,-85.751"/>
</g>
<!-- Node36&#45;&gt;Node11 -->
<g id="edge61" class="edge"><title>Node36&#45;&gt;Node11</title>
<path fill="none" stroke="midnightblue" d="M922.593,-168.324C911.891,-160.185 895.659,-147.839 882.837,-138.087"/>
<polygon fill="midnightblue" stroke="midnightblue" points="884.693,-135.102 874.615,-131.834 880.456,-140.673 884.693,-135.102"/>
</g>
<!-- Node37&#45;&gt;Node7 -->
<g id="edge64" class="edge"><title>Node37&#45;&gt;Node7</title>
<path fill="none" stroke="midnightblue" d="M1047.72,-392.231C1037.27,-374.043 1015,-330.601 1015,-291 1015,-291 1015,-291 1015,-233 1015,-164.901 981.354,-143.541 921,-112 885.858,-93.6352 841.718,-80.6103 813.675,-73.448"/>
<polygon fill="midnightblue" stroke="midnightblue" points="814.316,-70.001 803.767,-70.9911 812.631,-76.7952 814.316,-70.001"/>
</g>
<!-- Node37&#45;&gt;Node27 -->
<g id="edge69" class="edge"><title>Node37&#45;&gt;Node27</title>
<path fill="none" stroke="midnightblue" d="M1029.55,-392.444C1004.87,-383.438 965.815,-369.189 938.023,-359.049"/>
<polygon fill="midnightblue" stroke="midnightblue" points="938.935,-355.656 928.341,-355.516 936.536,-362.232 938.935,-355.656"/>
</g>
<!-- Node37&#45;&gt;Node29 -->
<g id="edge68" class="edge"><title>Node37&#45;&gt;Node29</title>
<path fill="none" stroke="midnightblue" d="M1055.2,-392.075C1061.66,-365.945 1080.61,-289.211 1089.41,-253.577"/>
<polygon fill="midnightblue" stroke="midnightblue" points="1092.88,-254.116 1091.88,-243.568 1086.09,-252.437 1092.88,-254.116"/>
</g>
<!-- Node38 -->
<g id="node39" class="node"><title>Node38</title>
<g id="a_node39"><a xlink:href="_chronometer_8hpp.html" target="_top" xlink:title="Time/Chronometer.hpp">
<polygon fill="none" stroke="black" points="1081.5,-336.5 1081.5,-355.5 1196.5,-355.5 1196.5,-336.5 1081.5,-336.5"/>
<text text-anchor="middle" x="1139" y="-343.5" font-family="Helvetica,sans-Serif" font-size="10.00">Time/Chronometer.hpp</text>
</a>
</g>
</g>
<!-- Node37&#45;&gt;Node38 -->
<g id="edge65" class="edge"><title>Node37&#45;&gt;Node38</title>
<path fill="none" stroke="midnightblue" d="M1066.82,-392.324C1080.23,-383.9 1100.82,-370.971 1116.59,-361.074"/>
<polygon fill="midnightblue" stroke="midnightblue" points="1118.61,-363.936 1125.22,-355.655 1114.89,-358.008 1118.61,-363.936"/>
</g>
<!-- Node39 -->
<g id="node40" class="node"><title>Node39</title>
<polygon fill="none" stroke="#bfbfbf" points="1111,-280.5 1111,-299.5 1157,-299.5 1157,-280.5 1111,-280.5"/>
<text text-anchor="middle" x="1134" y="-287.5" font-family="Helvetica,sans-Serif" font-size="10.00">chrono</text>
</g>
<!-- Node38&#45;&gt;Node39 -->
<g id="edge66" class="edge"><title>Node38&#45;&gt;Node39</title>
<path fill="none" stroke="midnightblue" d="M1138.17,-336.083C1137.52,-329.006 1136.58,-318.861 1135.76,-309.986"/>
<polygon fill="midnightblue" stroke="midnightblue" points="1139.22,-309.386 1134.81,-299.751 1132.25,-310.031 1139.22,-309.386"/>
</g>
<!-- Node38&#45;&gt;Node40 -->
<g id="edge67" class="edge"><title>Node38&#45;&gt;Node40</title>
<path fill="none" stroke="midnightblue" d="M1152.82,-336.324C1166.23,-327.9 1186.82,-314.971 1202.59,-305.074"/>
<polygon fill="midnightblue" stroke="midnightblue" points="1204.61,-307.936 1211.22,-299.655 1200.89,-302.008 1204.61,-307.936"/>
</g>
</g>
</svg>
