<?xml version="1.0" encoding="UTF-8" standalone="no"?>
<!DOCTYPE svg PUBLIC "-//W3C//DTD SVG 1.1//EN"
 "http://www.w3.org/Graphics/SVG/1.1/DTD/svg11.dtd">
<!-- Generated by graphviz version 2.38.0 (20140413.2041)
 -->
<!-- Title: E:/Dev/ObEngine/Git/include/Graphics/LevelSprite.hpp Pages: 1 -->
<svg width="975pt" height="307pt"
 viewBox="0.00 0.00 974.50 307.00" xmlns="http://www.w3.org/2000/svg" xmlns:xlink="http://www.w3.org/1999/xlink">
<g id="graph0" class="graph" transform="scale(1 1) rotate(0) translate(4 303)">
<title>E:/Dev/ObEngine/Git/include/Graphics/LevelSprite.hpp</title>
<!-- Node12 -->
<g id="node1" class="node"><title>Node12</title>
<polygon fill="#bfbfbf" stroke="black" points="403,-268.5 403,-298.5 564,-298.5 564,-268.5 403,-268.5"/>
<text text-anchor="start" x="411" y="-286.5" font-family="Helvetica,sans-Serif" font-size="10.00">E:/Dev/ObEngine/Git</text>
<text text-anchor="middle" x="483.5" y="-275.5" font-family="Helvetica,sans-Serif" font-size="10.00">/include/Graphics/LevelSprite.hpp</text>
</g>
<!-- Node13 -->
<g id="node2" class="node"><title>Node13</title>
<g id="a_node2"><a xlink:href="_canvas_8hpp.html" target="_top" xlink:title="E:/Dev/ObEngine/Git\l/include/Graphics/Canvas.hpp">
<polygon fill="white" stroke="black" points="218.5,-201.5 218.5,-231.5 364.5,-231.5 364.5,-201.5 218.5,-201.5"/>
<text text-anchor="start" x="226.5" y="-219.5" font-family="Helvetica,sans-Serif" font-size="10.00">E:/Dev/ObEngine/Git</text>
<text text-anchor="middle" x="291.5" y="-208.5" font-family="Helvetica,sans-Serif" font-size="10.00">/include/Graphics/Canvas.hpp</text>
</a>
</g>
</g>
<!-- Node12&#45;&gt;Node13 -->
<g id="edge1" class="edge"><title>Node12&#45;&gt;Node13</title>
<path fill="none" stroke="midnightblue" d="M432.078,-265.092C401.084,-254.599 362.121,-241.408 333.08,-231.577"/>
<polygon fill="midnightblue" stroke="midnightblue" points="431.245,-268.504 441.839,-268.396 433.489,-261.874 431.245,-268.504"/>
</g>
<!-- Node15 -->
<g id="node4" class="node"><title>Node15</title>
<g id="a_node4"><a xlink:href="_script_8cpp.html" target="_top" xlink:title="E:/Dev/ObEngine/Git\l/src/Script/Script.cpp">
<polygon fill="white" stroke="black" points="240,-134.5 240,-164.5 349,-164.5 349,-134.5 240,-134.5"/>
<text text-anchor="start" x="248" y="-152.5" font-family="Helvetica,sans-Serif" font-size="10.00">E:/Dev/ObEngine/Git</text>
<text text-anchor="middle" x="294.5" y="-141.5" font-family="Helvetica,sans-Serif" font-size="10.00">/src/Script/Script.cpp</text>
</a>
</g>
</g>
<!-- Node12&#45;&gt;Node15 -->
<g id="edge20" class="edge"><title>Node12&#45;&gt;Node15</title>
<path fill="none" stroke="midnightblue" d="M456.892,-261.984C434.843,-245.179 402.529,-220.997 373.5,-201 355.001,-188.256 333.49,-174.577 317.589,-164.674"/>
<polygon fill="midnightblue" stroke="midnightblue" points="455.029,-264.965 465.099,-268.26 459.281,-259.405 455.029,-264.965"/>
</g>
<!-- Node16 -->
<g id="node5" class="node"><title>Node16</title>
<g id="a_node5"><a xlink:href="_world_8hpp.html" target="_top" xlink:title="E:/Dev/ObEngine/Git\l/include/Scene/World.hpp">
<polygon fill="white" stroke="black" points="367.5,-134.5 367.5,-164.5 495.5,-164.5 495.5,-134.5 367.5,-134.5"/>
<text text-anchor="start" x="375.5" y="-152.5" font-family="Helvetica,sans-Serif" font-size="10.00">E:/Dev/ObEngine/Git</text>
<text text-anchor="middle" x="431.5" y="-141.5" font-family="Helvetica,sans-Serif" font-size="10.00">/include/Scene/World.hpp</text>
</a>
</g>
</g>
<!-- Node12&#45;&gt;Node16 -->
<g id="edge4" class="edge"><title>Node12&#45;&gt;Node16</title>
<path fill="none" stroke="midnightblue" d="M465.815,-260.154C459.878,-251.729 453.703,-241.805 449.5,-232 439.852,-209.492 435.098,-181.183 432.981,-164.542"/>
<polygon fill="midnightblue" stroke="midnightblue" points="463.08,-262.342 471.825,-268.323 468.718,-258.194 463.08,-262.342"/>
</g>
<!-- Node24 -->
<g id="node13" class="node"><title>Node24</title>
<g id="a_node13"><a xlink:href="_game_object_8hpp.html" target="_top" xlink:title="E:/Dev/ObEngine/Git\l/include/Script/GameObject.hpp">
<polygon fill="white" stroke="black" points="459,-201.5 459,-231.5 614,-231.5 614,-201.5 459,-201.5"/>
<text text-anchor="start" x="467" y="-219.5" font-family="Helvetica,sans-Serif" font-size="10.00">E:/Dev/ObEngine/Git</text>
<text text-anchor="middle" x="536.5" y="-208.5" font-family="Helvetica,sans-Serif" font-size="10.00">/include/Script/GameObject.hpp</text>
</a>
</g>
</g>
<!-- Node12&#45;&gt;Node24 -->
<g id="edge13" class="edge"><title>Node12&#45;&gt;Node24</title>
<path fill="none" stroke="midnightblue" d="M501.481,-260.447C509.267,-250.899 518.151,-240.004 525.022,-231.577"/>
<polygon fill="midnightblue" stroke="midnightblue" points="498.607,-258.434 495,-268.396 504.032,-262.858 498.607,-258.434"/>
</g>
<!-- Node25 -->
<g id="node14" class="node"><title>Node25</title>
<g id="a_node14"><a xlink:href="_graphics_bindings_8cpp.html" target="_top" xlink:title="E:/Dev/ObEngine/Git\l/src/Bindings/GraphicsBindings.cpp">
<polygon fill="white" stroke="black" points="632.5,-201.5 632.5,-231.5 804.5,-231.5 804.5,-201.5 632.5,-201.5"/>
<text text-anchor="start" x="640.5" y="-219.5" font-family="Helvetica,sans-Serif" font-size="10.00">E:/Dev/ObEngine/Git</text>
<text text-anchor="middle" x="718.5" y="-208.5" font-family="Helvetica,sans-Serif" font-size="10.00">/src/Bindings/GraphicsBindings.cpp</text>
</a>
</g>
</g>
<!-- Node12&#45;&gt;Node25 -->
<g id="edge18" class="edge"><title>Node12&#45;&gt;Node25</title>
<path fill="none" stroke="midnightblue" d="M544.184,-265.715C582.427,-255.137 631.243,-241.635 667.484,-231.611"/>
<polygon fill="midnightblue" stroke="midnightblue" points="542.907,-262.437 534.202,-268.476 544.773,-269.183 542.907,-262.437"/>
</g>
<!-- Node26 -->
<g id="node15" class="node"><title>Node26</title>
<g id="a_node15"><a xlink:href="_level_sprite_8cpp.html" target="_top" xlink:title="E:/Dev/ObEngine/Git\l/src/Graphics/LevelSprite.cpp">
<polygon fill="white" stroke="black" points="822.5,-201.5 822.5,-231.5 966.5,-231.5 966.5,-201.5 822.5,-201.5"/>
<text text-anchor="start" x="830.5" y="-219.5" font-family="Helvetica,sans-Serif" font-size="10.00">E:/Dev/ObEngine/Git</text>
<text text-anchor="middle" x="894.5" y="-208.5" font-family="Helvetica,sans-Serif" font-size="10.00">/src/Graphics/LevelSprite.cpp</text>
</a>
</g>
</g>
<!-- Node12&#45;&gt;Node26 -->
<g id="edge19" class="edge"><title>Node12&#45;&gt;Node26</title>
<path fill="none" stroke="midnightblue" d="M574.293,-269.237C640.636,-259.392 732.739,-245.406 813.5,-232 816.319,-231.532 819.191,-231.049 822.092,-230.555"/>
<polygon fill="midnightblue" stroke="midnightblue" points="573.663,-265.792 564.284,-270.72 574.689,-272.716 573.663,-265.792"/>
</g>
<!-- Node14 -->
<g id="node3" class="node"><title>Node14</title>
<g id="a_node3"><a xlink:href="_canvas_8cpp.html" target="_top" xlink:title="E:/Dev/ObEngine/Git\l/src/Graphics/Canvas.cpp">
<polygon fill="white" stroke="black" points="93.5,-134.5 93.5,-164.5 221.5,-164.5 221.5,-134.5 93.5,-134.5"/>
<text text-anchor="start" x="101.5" y="-152.5" font-family="Helvetica,sans-Serif" font-size="10.00">E:/Dev/ObEngine/Git</text>
<text text-anchor="middle" x="157.5" y="-141.5" font-family="Helvetica,sans-Serif" font-size="10.00">/src/Graphics/Canvas.cpp</text>
</a>
</g>
</g>
<!-- Node13&#45;&gt;Node14 -->
<g id="edge2" class="edge"><title>Node13&#45;&gt;Node14</title>
<path fill="none" stroke="midnightblue" d="M253.345,-196.992C232.105,-186.689 206.086,-174.068 186.519,-164.577"/>
<polygon fill="midnightblue" stroke="midnightblue" points="251.899,-200.181 262.424,-201.396 254.954,-193.882 251.899,-200.181"/>
</g>
<!-- Node13&#45;&gt;Node15 -->
<g id="edge3" class="edge"><title>Node13&#45;&gt;Node15</title>
<path fill="none" stroke="midnightblue" d="M292.612,-191.403C293.029,-182.37 293.489,-172.408 293.85,-164.577"/>
<polygon fill="midnightblue" stroke="midnightblue" points="289.116,-191.245 292.151,-201.396 296.108,-191.568 289.116,-191.245"/>
</g>
<!-- Node17 -->
<g id="node6" class="node"><title>Node17</title>
<g id="a_node6"><a xlink:href="_editor_g_u_i_8hpp.html" target="_top" xlink:title="E:/Dev/ObEngine/Git\l/include/Editor/EditorGUI.hpp">
<polygon fill="white" stroke="black" points="0,-67.5 0,-97.5 143,-97.5 143,-67.5 0,-67.5"/>
<text text-anchor="start" x="8" y="-85.5" font-family="Helvetica,sans-Serif" font-size="10.00">E:/Dev/ObEngine/Git</text>
<text text-anchor="middle" x="71.5" y="-74.5" font-family="Helvetica,sans-Serif" font-size="10.00">/include/Editor/EditorGUI.hpp</text>
</a>
</g>
</g>
<!-- Node16&#45;&gt;Node17 -->
<g id="edge5" class="edge"><title>Node16&#45;&gt;Node17</title>
<path fill="none" stroke="midnightblue" d="M357.802,-134.056C357.701,-134.037 357.601,-134.019 357.5,-134 266.113,-117.063 243.005,-114.288 151.5,-98 148.721,-97.5053 145.887,-96.9993 143.025,-96.487"/>
<polygon fill="midnightblue" stroke="midnightblue" points="356.866,-137.441 367.34,-135.845 358.157,-130.561 356.866,-137.441"/>
</g>
<!-- Node19 -->
<g id="node8" class="node"><title>Node19</title>
<g id="a_node8"><a xlink:href="_map_editor_8cpp.html" target="_top" xlink:title="E:/Dev/ObEngine/Git\l/src/Editor/MapEditor.cpp">
<polygon fill="white" stroke="black" points="367.5,-0.5 367.5,-30.5 495.5,-30.5 495.5,-0.5 367.5,-0.5"/>
<text text-anchor="start" x="375.5" y="-18.5" font-family="Helvetica,sans-Serif" font-size="10.00">E:/Dev/ObEngine/Git</text>
<text text-anchor="middle" x="431.5" y="-7.5" font-family="Helvetica,sans-Serif" font-size="10.00">/src/Editor/MapEditor.cpp</text>
</a>
</g>
</g>
<!-- Node16&#45;&gt;Node19 -->
<g id="edge8" class="edge"><title>Node16&#45;&gt;Node19</title>
<path fill="none" stroke="midnightblue" d="M431.5,-124.024C431.5,-96.5121 431.5,-52.7894 431.5,-30.5247"/>
<polygon fill="midnightblue" stroke="midnightblue" points="428,-124.374 431.5,-134.374 435,-124.374 428,-124.374"/>
</g>
<!-- Node20 -->
<g id="node9" class="node"><title>Node20</title>
<g id="a_node9"><a xlink:href="_map_editor_tools_8cpp.html" target="_top" xlink:title="E:/Dev/ObEngine/Git\l/src/Editor/MapEditorTools.cpp">
<polygon fill="white" stroke="black" points="460,-67.5 460,-97.5 611,-97.5 611,-67.5 460,-67.5"/>
<text text-anchor="start" x="468" y="-85.5" font-family="Helvetica,sans-Serif" font-size="10.00">E:/Dev/ObEngine/Git</text>
<text text-anchor="middle" x="535.5" y="-74.5" font-family="Helvetica,sans-Serif" font-size="10.00">/src/Editor/MapEditorTools.cpp</text>
</a>
</g>
</g>
<!-- Node16&#45;&gt;Node20 -->
<g id="edge9" class="edge"><title>Node16&#45;&gt;Node20</title>
<path fill="none" stroke="midnightblue" d="M462.676,-129.015C478.86,-118.9 498.268,-106.77 512.978,-97.5765"/>
<polygon fill="midnightblue" stroke="midnightblue" points="460.691,-126.128 454.066,-134.396 464.401,-132.064 460.691,-126.128"/>
</g>
<!-- Node21 -->
<g id="node10" class="node"><title>Node21</title>
<g id="a_node10"><a xlink:href="_game_8cpp.html" target="_top" xlink:title="E:/Dev/ObEngine/Git\l/src/Modes/Game.cpp">
<polygon fill="white" stroke="black" points="161,-67.5 161,-97.5 274,-97.5 274,-67.5 161,-67.5"/>
<text text-anchor="start" x="169" y="-85.5" font-family="Helvetica,sans-Serif" font-size="10.00">E:/Dev/ObEngine/Git</text>
<text text-anchor="middle" x="217.5" y="-74.5" font-family="Helvetica,sans-Serif" font-size="10.00">/src/Modes/Game.cpp</text>
</a>
</g>
</g>
<!-- Node16&#45;&gt;Node21 -->
<g id="edge10" class="edge"><title>Node16&#45;&gt;Node21</title>
<path fill="none" stroke="midnightblue" d="M375.347,-131.444C340.658,-120.908 296.678,-107.549 263.957,-97.6109"/>
<polygon fill="midnightblue" stroke="midnightblue" points="374.743,-134.919 385.329,-134.476 376.778,-128.221 374.743,-134.919"/>
</g>
<!-- Node22 -->
<g id="node11" class="node"><title>Node22</title>
<g id="a_node11"><a xlink:href="_world_8cpp.html" target="_top" xlink:title="E:/Dev/ObEngine/Git\l/src/Scene/World.cpp">
<polygon fill="white" stroke="black" points="292,-67.5 292,-97.5 403,-97.5 403,-67.5 292,-67.5"/>
<text text-anchor="start" x="300" y="-85.5" font-family="Helvetica,sans-Serif" font-size="10.00">E:/Dev/ObEngine/Git</text>
<text text-anchor="middle" x="347.5" y="-74.5" font-family="Helvetica,sans-Serif" font-size="10.00">/src/Scene/World.cpp</text>
</a>
</g>
</g>
<!-- Node16&#45;&gt;Node22 -->
<g id="edge11" class="edge"><title>Node16&#45;&gt;Node22</title>
<path fill="none" stroke="midnightblue" d="M405.224,-128.168C392.38,-118.228 377.242,-106.514 365.691,-97.5765"/>
<polygon fill="midnightblue" stroke="midnightblue" points="403.223,-131.044 413.273,-134.396 407.506,-125.508 403.223,-131.044"/>
</g>
<!-- Node23 -->
<g id="node12" class="node"><title>Node23</title>
<g id="a_node12"><a xlink:href="_game_object_8cpp.html" target="_top" xlink:title="E:/Dev/ObEngine/Git\l/src/Script/GameObject.cpp">
<polygon fill="white" stroke="black" points="629.5,-67.5 629.5,-97.5 767.5,-97.5 767.5,-67.5 629.5,-67.5"/>
<text text-anchor="start" x="637.5" y="-85.5" font-family="Helvetica,sans-Serif" font-size="10.00">E:/Dev/ObEngine/Git</text>
<text text-anchor="middle" x="698.5" y="-74.5" font-family="Helvetica,sans-Serif" font-size="10.00">/src/Script/GameObject.cpp</text>
</a>
</g>
</g>
<!-- Node16&#45;&gt;Node23 -->
<g id="edge12" class="edge"><title>Node16&#45;&gt;Node23</title>
<path fill="none" stroke="midnightblue" d="M499.065,-132.052C542.716,-121.425 598.924,-107.741 640.537,-97.6109"/>
<polygon fill="midnightblue" stroke="midnightblue" points="497.995,-128.71 489.106,-134.476 499.65,-135.511 497.995,-128.71"/>
</g>
<!-- Node18 -->
<g id="node7" class="node"><title>Node18</title>
<g id="a_node7"><a xlink:href="_editor_g_u_i_8cpp.html" target="_top" xlink:title="E:/Dev/ObEngine/Git\l/src/Editor/EditorGUI.cpp">
<polygon fill="white" stroke="black" points="9,-0.5 9,-30.5 134,-30.5 134,-0.5 9,-0.5"/>
<text text-anchor="start" x="17" y="-18.5" font-family="Helvetica,sans-Serif" font-size="10.00">E:/Dev/ObEngine/Git</text>
<text text-anchor="middle" x="71.5" y="-7.5" font-family="Helvetica,sans-Serif" font-size="10.00">/src/Editor/EditorGUI.cpp</text>
</a>
</g>
</g>
<!-- Node17&#45;&gt;Node18 -->
<g id="edge6" class="edge"><title>Node17&#45;&gt;Node18</title>
<path fill="none" stroke="midnightblue" d="M71.5,-57.1081C71.5,-48.1539 71.5,-38.3227 71.5,-30.5765"/>
<polygon fill="midnightblue" stroke="midnightblue" points="68.0001,-57.3959 71.5,-67.396 75.0001,-57.396 68.0001,-57.3959"/>
</g>
<!-- Node17&#45;&gt;Node19 -->
<g id="edge7" class="edge"><title>Node17&#45;&gt;Node19</title>
<path fill="none" stroke="midnightblue" d="M153.188,-66.6956C232.431,-52.371 312.848,-37.8734 367.274,-28.0673"/>
<polygon fill="midnightblue" stroke="midnightblue" points="152.247,-63.3089 143.029,-68.5322 153.492,-70.1973 152.247,-63.3089"/>
</g>
<!-- Node24&#45;&gt;Node16 -->
<g id="edge14" class="edge"><title>Node24&#45;&gt;Node16</title>
<path fill="none" stroke="midnightblue" d="M505.024,-196.015C488.685,-185.9 469.09,-173.77 454.239,-164.577"/>
<polygon fill="midnightblue" stroke="midnightblue" points="503.372,-199.108 513.717,-201.396 507.056,-193.156 503.372,-199.108"/>
</g>
<!-- Node24&#45;&gt;Node19 -->
<g id="edge15" class="edge"><title>Node24&#45;&gt;Node19</title>
<path fill="none" stroke="midnightblue" d="M613.283,-199.022C702.818,-176.41 831.933,-131.138 776.5,-67 740.925,-25.8381 585.218,-17.5826 495.62,-16.3165"/>
<polygon fill="midnightblue" stroke="midnightblue" points="612.26,-195.67 603.393,-201.469 613.941,-202.465 612.26,-195.67"/>
</g>
<!-- Node24&#45;&gt;Node20 -->
<g id="edge16" class="edge"><title>Node24&#45;&gt;Node20</title>
<path fill="none" stroke="midnightblue" d="M536.315,-191.024C536.106,-163.512 535.775,-119.789 535.606,-97.5247"/>
<polygon fill="midnightblue" stroke="midnightblue" points="532.817,-191.401 536.393,-201.374 539.817,-191.347 532.817,-191.401"/>
</g>
<!-- Node24&#45;&gt;Node23 -->
<g id="edge17" class="edge"><title>Node24&#45;&gt;Node23</title>
<path fill="none" stroke="midnightblue" d="M561.735,-194.938C594.994,-167.838 652.627,-120.878 681.288,-97.5247"/>
<polygon fill="midnightblue" stroke="midnightblue" points="559.378,-192.344 553.837,-201.374 563.8,-197.77 559.378,-192.344"/>
</g>
</g>
</svg>
