<?xml version="1.0" encoding="UTF-8" standalone="no"?>
<!DOCTYPE svg PUBLIC "-//W3C//DTD SVG 1.1//EN"
 "http://www.w3.org/Graphics/SVG/1.1/DTD/svg11.dtd">
<!-- Generated by graphviz version 2.38.0 (20140413.2041)
 -->
<!-- Title: E:/Dev/ObEngine/Git/src/Utils/MathUtils.cpp Pages: 1 -->
<svg width="237pt" height="95pt"
 viewBox="0.00 0.00 236.50 95.00" xmlns="http://www.w3.org/2000/svg" xmlns:xlink="http://www.w3.org/1999/xlink">
<g id="graph0" class="graph" transform="scale(1 1) rotate(0) translate(4 91)">
<title>E:/Dev/ObEngine/Git/src/Utils/MathUtils.cpp</title>
<!-- Node0 -->
<g id="node1" class="node"><title>Node0</title>
<polygon fill="#bfbfbf" stroke="black" points="27.5,-56.5 27.5,-86.5 146.5,-86.5 146.5,-56.5 27.5,-56.5"/>
<text text-anchor="start" x="35.5" y="-74.5" font-family="Helvetica,sans-Serif" font-size="10.00">E:/Dev/ObEngine/Git</text>
<text text-anchor="middle" x="87" y="-63.5" font-family="Helvetica,sans-Serif" font-size="10.00">/src/Utils/MathUtils.cpp</text>
</g>
<!-- Node1 -->
<g id="node2" class="node"><title>Node1</title>
<polygon fill="none" stroke="#bfbfbf" points="0,-0.5 0,-19.5 44,-19.5 44,-0.5 0,-0.5"/>
<text text-anchor="middle" x="22" y="-7.5" font-family="Helvetica,sans-Serif" font-size="10.00">cmath</text>
</g>
<!-- Node0&#45;&gt;Node1 -->
<g id="edge1" class="edge"><title>Node0&#45;&gt;Node1</title>
<path fill="none" stroke="midnightblue" d="M71.5959,-56.3993C61.7611,-47.3967 49.0065,-35.7214 38.8947,-26.4652"/>
<polygon fill="midnightblue" stroke="midnightblue" points="41.1976,-23.8282 31.4581,-19.6578 36.4711,-28.9916 41.1976,-23.8282"/>
</g>
<!-- Node2 -->
<g id="node3" class="node"><title>Node2</title>
<polygon fill="none" stroke="#bfbfbf" points="62.5,-0.5 62.5,-19.5 111.5,-19.5 111.5,-0.5 62.5,-0.5"/>
<text text-anchor="middle" x="87" y="-7.5" font-family="Helvetica,sans-Serif" font-size="10.00">random</text>
</g>
<!-- Node0&#45;&gt;Node2 -->
<g id="edge2" class="edge"><title>Node0&#45;&gt;Node2</title>
<path fill="none" stroke="midnightblue" d="M87,-56.3993C87,-48.4664 87,-38.458 87,-29.8583"/>
<polygon fill="midnightblue" stroke="midnightblue" points="90.5001,-29.6577 87,-19.6578 83.5001,-29.6578 90.5001,-29.6577"/>
</g>
<!-- Node3 -->
<g id="node4" class="node"><title>Node3</title>
<g id="a_node4"><a xlink:href="_math_utils_8hpp.html" target="_top" xlink:title="Utils/MathUtils.hpp">
<polygon fill="none" stroke="black" points="129.5,-0.5 129.5,-19.5 228.5,-19.5 228.5,-0.5 129.5,-0.5"/>
<text text-anchor="middle" x="179" y="-7.5" font-family="Helvetica,sans-Serif" font-size="10.00">Utils/MathUtils.hpp</text>
</a>
</g>
</g>
<!-- Node0&#45;&gt;Node3 -->
<g id="edge3" class="edge"><title>Node0&#45;&gt;Node3</title>
<path fill="none" stroke="midnightblue" d="M108.803,-56.3993C123.412,-46.9511 142.573,-34.5589 157.185,-25.1089"/>
<polygon fill="midnightblue" stroke="midnightblue" points="159.117,-28.0274 165.613,-19.6578 155.316,-22.1495 159.117,-28.0274"/>
</g>
</g>
</svg>
