<?xml version="1.0" encoding="UTF-8" standalone="no"?>
<!DOCTYPE svg PUBLIC "-//W3C//DTD SVG 1.1//EN"
 "http://www.w3.org/Graphics/SVG/1.1/DTD/svg11.dtd">
<!-- Generated by graphviz version 2.38.0 (20140413.2041)
 -->
<!-- Title: E:/Dev/ObEngine/Git/src/Network/Network.cpp Pages: 1 -->
<svg width="553pt" height="487pt"
 viewBox="0.00 0.00 553.42 487.00" xmlns="http://www.w3.org/2000/svg" xmlns:xlink="http://www.w3.org/1999/xlink">
<g id="graph0" class="graph" transform="scale(1 1) rotate(0) translate(4 483)">
<title>E:/Dev/ObEngine/Git/src/Network/Network.cpp</title>
<!-- Node0 -->
<g id="node1" class="node"><title>Node0</title>
<polygon fill="#bfbfbf" stroke="black" points="263,-448.5 263,-478.5 391,-478.5 391,-448.5 263,-448.5"/>
<text text-anchor="start" x="271" y="-466.5" font-family="Helvetica,sans-Serif" font-size="10.00">E:/Dev/ObEngine/Git</text>
<text text-anchor="middle" x="327" y="-455.5" font-family="Helvetica,sans-Serif" font-size="10.00">/src/Network/Network.cpp</text>
</g>
<!-- Node1 -->
<g id="node2" class="node"><title>Node1</title>
<g id="a_node2"><a xlink:href="_network_8hpp.html" target="_top" xlink:title="Network/Network.hpp">
<polygon fill="white" stroke="black" points="200.5,-392.5 200.5,-411.5 309.5,-411.5 309.5,-392.5 200.5,-392.5"/>
<text text-anchor="middle" x="255" y="-399.5" font-family="Helvetica,sans-Serif" font-size="10.00">Network/Network.hpp</text>
</a>
</g>
</g>
<!-- Node0&#45;&gt;Node1 -->
<g id="edge1" class="edge"><title>Node0&#45;&gt;Node1</title>
<path fill="none" stroke="midnightblue" d="M309.937,-448.399C298.935,-439.308 284.635,-427.49 273.382,-418.191"/>
<polygon fill="midnightblue" stroke="midnightblue" points="275.415,-415.33 265.477,-411.658 270.956,-420.726 275.415,-415.33"/>
</g>
<!-- Node22 -->
<g id="node23" class="node"><title>Node22</title>
<g id="a_node23"><a xlink:href="_trigger_database_8hpp.html" target="_top" xlink:title="Triggers/TriggerDatabase.hpp">
<polygon fill="white" stroke="black" points="327.5,-392.5 327.5,-411.5 470.5,-411.5 470.5,-392.5 327.5,-392.5"/>
<text text-anchor="middle" x="399" y="-399.5" font-family="Helvetica,sans-Serif" font-size="10.00">Triggers/TriggerDatabase.hpp</text>
</a>
</g>
</g>
<!-- Node0&#45;&gt;Node22 -->
<g id="edge26" class="edge"><title>Node0&#45;&gt;Node22</title>
<path fill="none" stroke="midnightblue" d="M344.063,-448.399C355.065,-439.308 369.365,-427.49 380.618,-418.191"/>
<polygon fill="midnightblue" stroke="midnightblue" points="383.044,-420.726 388.523,-411.658 378.585,-415.33 383.044,-420.726"/>
</g>
<!-- Node2 -->
<g id="node3" class="node"><title>Node2</title>
<polygon fill="white" stroke="#bfbfbf" points="99,-336.5 99,-355.5 199,-355.5 199,-336.5 99,-336.5"/>
<text text-anchor="middle" x="149" y="-343.5" font-family="Helvetica,sans-Serif" font-size="10.00">SFML/Network.hpp</text>
</g>
<!-- Node1&#45;&gt;Node2 -->
<g id="edge2" class="edge"><title>Node1&#45;&gt;Node2</title>
<path fill="none" stroke="midnightblue" d="M237.969,-392.324C220.97,-383.664 194.624,-370.242 175.007,-360.249"/>
<polygon fill="midnightblue" stroke="midnightblue" points="176.488,-357.075 165.988,-355.655 173.31,-363.312 176.488,-357.075"/>
</g>
<!-- Node3 -->
<g id="node4" class="node"><title>Node3</title>
<g id="a_node4"><a xlink:href="_trigger_group_8hpp.html" target="_top" xlink:title="Triggers/TriggerGroup.hpp">
<polygon fill="white" stroke="black" points="217,-336.5 217,-355.5 345,-355.5 345,-336.5 217,-336.5"/>
<text text-anchor="middle" x="281" y="-343.5" font-family="Helvetica,sans-Serif" font-size="10.00">Triggers/TriggerGroup.hpp</text>
</a>
</g>
</g>
<!-- Node1&#45;&gt;Node3 -->
<g id="edge3" class="edge"><title>Node1&#45;&gt;Node3</title>
<path fill="none" stroke="midnightblue" d="M259.293,-392.083C262.852,-384.691 268.022,-373.953 272.424,-364.811"/>
<polygon fill="midnightblue" stroke="midnightblue" points="275.602,-366.279 276.787,-355.751 269.295,-363.243 275.602,-366.279"/>
</g>
<!-- Node4 -->
<g id="node5" class="node"><title>Node4</title>
<g id="a_node5"><a xlink:href="_trigger_delay_8hpp.html" target="_top" xlink:title="Triggers/TriggerDelay.hpp">
<polygon fill="white" stroke="black" points="217.5,-280.5 217.5,-299.5 344.5,-299.5 344.5,-280.5 217.5,-280.5"/>
<text text-anchor="middle" x="281" y="-287.5" font-family="Helvetica,sans-Serif" font-size="10.00">Triggers/TriggerDelay.hpp</text>
</a>
</g>
</g>
<!-- Node3&#45;&gt;Node4 -->
<g id="edge4" class="edge"><title>Node3&#45;&gt;Node4</title>
<path fill="none" stroke="midnightblue" d="M281,-336.083C281,-329.006 281,-318.861 281,-309.986"/>
<polygon fill="midnightblue" stroke="midnightblue" points="284.5,-309.751 281,-299.751 277.5,-309.751 284.5,-309.751"/>
</g>
<!-- Node5 -->
<g id="node6" class="node"><title>Node5</title>
<g id="a_node6"><a xlink:href="_trigger_8hpp.html" target="_top" xlink:title="Triggers/Trigger.hpp">
<polygon fill="white" stroke="black" points="233,-224.5 233,-243.5 335,-243.5 335,-224.5 233,-224.5"/>
<text text-anchor="middle" x="284" y="-231.5" font-family="Helvetica,sans-Serif" font-size="10.00">Triggers/Trigger.hpp</text>
</a>
</g>
</g>
<!-- Node4&#45;&gt;Node5 -->
<g id="edge5" class="edge"><title>Node4&#45;&gt;Node5</title>
<path fill="none" stroke="midnightblue" d="M281.495,-280.083C281.889,-273.006 282.452,-262.861 282.945,-253.986"/>
<polygon fill="midnightblue" stroke="midnightblue" points="286.454,-253.93 283.514,-243.751 279.464,-253.542 286.454,-253.93"/>
</g>
<!-- Node21 -->
<g id="node22" class="node"><title>Node21</title>
<g id="a_node22"><a xlink:href="_time_utils_8hpp.html" target="_top" xlink:title="Time/TimeUtils.hpp">
<polygon fill="white" stroke="black" points="356,-224.5 356,-243.5 456,-243.5 456,-224.5 356,-224.5"/>
<text text-anchor="middle" x="406" y="-231.5" font-family="Helvetica,sans-Serif" font-size="10.00">Time/TimeUtils.hpp</text>
</a>
</g>
</g>
<!-- Node4&#45;&gt;Node21 -->
<g id="edge25" class="edge"><title>Node4&#45;&gt;Node21</title>
<path fill="none" stroke="midnightblue" d="M300.807,-280.444C321.287,-271.596 353.483,-257.687 376.865,-247.586"/>
<polygon fill="midnightblue" stroke="midnightblue" points="378.494,-250.695 386.286,-243.516 375.718,-244.269 378.494,-250.695"/>
</g>
<!-- Node6 -->
<g id="node7" class="node"><title>Node6</title>
<polygon fill="white" stroke="#bfbfbf" points="354.5,-168.5 354.5,-187.5 397.5,-187.5 397.5,-168.5 354.5,-168.5"/>
<text text-anchor="middle" x="376" y="-175.5" font-family="Helvetica,sans-Serif" font-size="10.00">queue</text>
</g>
<!-- Node5&#45;&gt;Node6 -->
<g id="edge6" class="edge"><title>Node5&#45;&gt;Node6</title>
<path fill="none" stroke="midnightblue" d="M298.781,-224.324C313.267,-215.822 335.573,-202.729 352.493,-192.797"/>
<polygon fill="midnightblue" stroke="midnightblue" points="354.403,-195.735 361.255,-187.655 350.859,-189.698 354.403,-195.735"/>
</g>
<!-- Node7 -->
<g id="node8" class="node"><title>Node7</title>
<polygon fill="white" stroke="#bfbfbf" points="415.5,-168.5 415.5,-187.5 516.5,-187.5 516.5,-168.5 415.5,-168.5"/>
<text text-anchor="middle" x="466" y="-175.5" font-family="Helvetica,sans-Serif" font-size="10.00">kaguya/kaguya.hpp</text>
</g>
<!-- Node5&#45;&gt;Node7 -->
<g id="edge7" class="edge"><title>Node5&#45;&gt;Node7</title>
<path fill="none" stroke="midnightblue" d="M312.838,-224.444C343.856,-215.241 393.329,-200.562 427.618,-190.388"/>
<polygon fill="midnightblue" stroke="midnightblue" points="428.705,-193.716 437.296,-187.516 426.714,-187.006 428.705,-193.716"/>
</g>
<!-- Node8 -->
<g id="node9" class="node"><title>Node8</title>
<g id="a_node9"><a xlink:href="_any_8hpp.html" target="_top" xlink:title="Types/Any.hpp">
<polygon fill="white" stroke="black" points="62,-168.5 62,-187.5 144,-187.5 144,-168.5 62,-168.5"/>
<text text-anchor="middle" x="103" y="-175.5" font-family="Helvetica,sans-Serif" font-size="10.00">Types/Any.hpp</text>
</a>
</g>
</g>
<!-- Node5&#45;&gt;Node8 -->
<g id="edge8" class="edge"><title>Node5&#45;&gt;Node8</title>
<path fill="none" stroke="midnightblue" d="M255.32,-224.444C224.473,-215.241 175.272,-200.562 141.171,-190.388"/>
<polygon fill="midnightblue" stroke="midnightblue" points="142.129,-187.021 131.546,-187.516 140.128,-193.729 142.129,-187.021"/>
</g>
<!-- Node11 -->
<g id="node12" class="node"><title>Node11</title>
<g id="a_node12"><a xlink:href="_string_utils_8hpp.html" target="_top" xlink:title="Utils/StringUtils.hpp">
<polygon fill="white" stroke="black" points="150.5,-112.5 150.5,-131.5 253.5,-131.5 253.5,-112.5 150.5,-112.5"/>
<text text-anchor="middle" x="202" y="-119.5" font-family="Helvetica,sans-Serif" font-size="10.00">Utils/StringUtils.hpp</text>
</a>
</g>
</g>
<!-- Node5&#45;&gt;Node11 -->
<g id="edge11" class="edge"><title>Node5&#45;&gt;Node11</title>
<path fill="none" stroke="midnightblue" d="M244.745,-224.475C225.004,-217.99 202.816,-206.843 191,-188 182.182,-173.937 186.886,-154.946 192.621,-141.125"/>
<polygon fill="midnightblue" stroke="midnightblue" points="195.947,-142.272 197,-131.73 189.603,-139.315 195.947,-142.272"/>
</g>
<!-- Node15 -->
<g id="node16" class="node"><title>Node15</title>
<g id="a_node16"><a xlink:href="_type_utils_8hpp.html" target="_top" xlink:title="Utils/TypeUtils.hpp">
<polygon fill="white" stroke="black" points="200,-168.5 200,-187.5 298,-187.5 298,-168.5 200,-168.5"/>
<text text-anchor="middle" x="249" y="-175.5" font-family="Helvetica,sans-Serif" font-size="10.00">Utils/TypeUtils.hpp</text>
</a>
</g>
</g>
<!-- Node5&#45;&gt;Node15 -->
<g id="edge15" class="edge"><title>Node5&#45;&gt;Node15</title>
<path fill="none" stroke="midnightblue" d="M278.22,-224.083C273.328,-216.534 266.173,-205.495 260.167,-196.23"/>
<polygon fill="midnightblue" stroke="midnightblue" points="263.048,-194.239 254.672,-187.751 257.174,-198.046 263.048,-194.239"/>
</g>
<!-- Node16 -->
<g id="node17" class="node"><title>Node16</title>
<g id="a_node17"><a xlink:href="_vector_utils_8hpp.html" target="_top" xlink:title="Utils/VectorUtils.hpp">
<polygon fill="white" stroke="black" points="273,-112.5 273,-131.5 379,-131.5 379,-112.5 273,-112.5"/>
<text text-anchor="middle" x="326" y="-119.5" font-family="Helvetica,sans-Serif" font-size="10.00">Utils/VectorUtils.hpp</text>
</a>
</g>
</g>
<!-- Node5&#45;&gt;Node16 -->
<g id="edge24" class="edge"><title>Node5&#45;&gt;Node16</title>
<path fill="none" stroke="midnightblue" d="M289.089,-224.265C294.126,-215.362 301.813,-201.045 307,-188 313.109,-172.637 318.239,-154.538 321.623,-141.346"/>
<polygon fill="midnightblue" stroke="midnightblue" points="325.034,-142.133 324.038,-131.585 318.239,-140.452 325.034,-142.133"/>
</g>
<!-- Node9 -->
<g id="node10" class="node"><title>Node9</title>
<polygon fill="white" stroke="#bfbfbf" points="0,-112.5 0,-131.5 62,-131.5 62,-112.5 0,-112.5"/>
<text text-anchor="middle" x="31" y="-119.5" font-family="Helvetica,sans-Serif" font-size="10.00">type_traits</text>
</g>
<!-- Node8&#45;&gt;Node9 -->
<g id="edge9" class="edge"><title>Node8&#45;&gt;Node9</title>
<path fill="none" stroke="midnightblue" d="M91.432,-168.324C80.5798,-160.185 64.1193,-147.839 51.1166,-138.087"/>
<polygon fill="midnightblue" stroke="midnightblue" points="52.8786,-135.034 42.7785,-131.834 48.6785,-140.634 52.8786,-135.034"/>
</g>
<!-- Node10 -->
<g id="node11" class="node"><title>Node10</title>
<polygon fill="white" stroke="#bfbfbf" points="80,-112.5 80,-131.5 130,-131.5 130,-112.5 80,-112.5"/>
<text text-anchor="middle" x="105" y="-119.5" font-family="Helvetica,sans-Serif" font-size="10.00">typeinfo</text>
</g>
<!-- Node8&#45;&gt;Node10 -->
<g id="edge10" class="edge"><title>Node8&#45;&gt;Node10</title>
<path fill="none" stroke="midnightblue" d="M103.33,-168.083C103.592,-161.006 103.968,-150.861 104.297,-141.986"/>
<polygon fill="midnightblue" stroke="midnightblue" points="107.803,-141.874 104.676,-131.751 100.808,-141.615 107.803,-141.874"/>
</g>
<!-- Node12 -->
<g id="node13" class="node"><title>Node12</title>
<polygon fill="white" stroke="#bfbfbf" points="183,-56.5 183,-75.5 221,-75.5 221,-56.5 183,-56.5"/>
<text text-anchor="middle" x="202" y="-63.5" font-family="Helvetica,sans-Serif" font-size="10.00">tuple</text>
</g>
<!-- Node11&#45;&gt;Node12 -->
<g id="edge12" class="edge"><title>Node11&#45;&gt;Node12</title>
<path fill="none" stroke="midnightblue" d="M202,-112.083C202,-105.006 202,-94.8611 202,-85.9865"/>
<polygon fill="midnightblue" stroke="midnightblue" points="205.5,-85.751 202,-75.7511 198.5,-85.7511 205.5,-85.751"/>
</g>
<!-- Node13 -->
<g id="node14" class="node"><title>Node13</title>
<polygon fill="white" stroke="#bfbfbf" points="231.5,-0.5 231.5,-19.5 272.5,-19.5 272.5,-0.5 231.5,-0.5"/>
<text text-anchor="middle" x="252" y="-7.5" font-family="Helvetica,sans-Serif" font-size="10.00">string</text>
</g>
<!-- Node11&#45;&gt;Node13 -->
<g id="edge13" class="edge"><title>Node11&#45;&gt;Node13</title>
<path fill="none" stroke="midnightblue" d="M208.206,-112.377C214.345,-103.561 223.71,-89.3107 230,-76 237.158,-60.8529 243.091,-42.7332 246.984,-29.4774"/>
<polygon fill="midnightblue" stroke="midnightblue" points="250.407,-30.2333 249.757,-19.6585 243.671,-28.3308 250.407,-30.2333"/>
</g>
<!-- Node14 -->
<g id="node15" class="node"><title>Node14</title>
<polygon fill="white" stroke="#bfbfbf" points="154,-0.5 154,-19.5 196,-19.5 196,-0.5 154,-0.5"/>
<text text-anchor="middle" x="175" y="-7.5" font-family="Helvetica,sans-Serif" font-size="10.00">vector</text>
</g>
<!-- Node11&#45;&gt;Node14 -->
<g id="edge14" class="edge"><title>Node11&#45;&gt;Node14</title>
<path fill="none" stroke="midnightblue" d="M194.588,-112.411C187.724,-103.844 177.994,-89.9788 174,-76 169.683,-60.8922 170.358,-42.993 171.871,-29.8065"/>
<polygon fill="midnightblue" stroke="midnightblue" points="175.377,-30.0119 173.312,-19.6201 168.446,-29.0311 175.377,-30.0119"/>
</g>
<!-- Node15&#45;&gt;Node11 -->
<g id="edge16" class="edge"><title>Node15&#45;&gt;Node11</title>
<path fill="none" stroke="midnightblue" d="M241.239,-168.083C234.463,-160.298 224.457,-148.801 216.245,-139.367"/>
<polygon fill="midnightblue" stroke="midnightblue" points="218.822,-136.996 209.617,-131.751 213.542,-141.592 218.822,-136.996"/>
</g>
<!-- Node15&#45;&gt;Node16 -->
<g id="edge17" class="edge"><title>Node15&#45;&gt;Node16</title>
<path fill="none" stroke="midnightblue" d="M261.371,-168.324C273.158,-160.058 291.132,-147.453 305.136,-137.632"/>
<polygon fill="midnightblue" stroke="midnightblue" points="307.482,-140.262 313.659,-131.655 303.462,-134.531 307.482,-140.262"/>
</g>
<!-- Node17 -->
<g id="node18" class="node"><title>Node17</title>
<g id="a_node18"><a xlink:href="_error_handler_8hpp.html" target="_top" xlink:title="vili/ErrorHandler.hpp">
<polygon fill="white" stroke="black" points="277.5,-56.5 277.5,-75.5 380.5,-75.5 380.5,-56.5 277.5,-56.5"/>
<text text-anchor="middle" x="329" y="-63.5" font-family="Helvetica,sans-Serif" font-size="10.00">vili/ErrorHandler.hpp</text>
</a>
</g>
</g>
<!-- Node16&#45;&gt;Node17 -->
<g id="edge18" class="edge"><title>Node16&#45;&gt;Node17</title>
<path fill="none" stroke="midnightblue" d="M326.495,-112.083C326.889,-105.006 327.452,-94.8611 327.945,-85.9865"/>
<polygon fill="midnightblue" stroke="midnightblue" points="331.454,-85.9299 328.514,-75.7511 324.464,-85.5415 331.454,-85.9299"/>
</g>
<!-- Node17&#45;&gt;Node13 -->
<g id="edge19" class="edge"><title>Node17&#45;&gt;Node13</title>
<path fill="none" stroke="midnightblue" d="M316.629,-56.324C304.842,-48.0577 286.868,-35.4527 272.864,-25.6322"/>
<polygon fill="midnightblue" stroke="midnightblue" points="274.538,-22.5307 264.341,-19.6545 270.518,-28.2619 274.538,-22.5307"/>
</g>
<!-- Node17&#45;&gt;Node14 -->
<g id="edge20" class="edge"><title>Node17&#45;&gt;Node14</title>
<path fill="none" stroke="midnightblue" d="M304.598,-56.4435C277.893,-47.0794 235.019,-32.0456 205.964,-21.8574"/>
<polygon fill="midnightblue" stroke="midnightblue" points="206.907,-18.4792 196.312,-18.473 204.59,-25.0849 206.907,-18.4792"/>
</g>
<!-- Node18 -->
<g id="node19" class="node"><title>Node18</title>
<polygon fill="white" stroke="#bfbfbf" points="488.5,-0.5 488.5,-19.5 523.5,-19.5 523.5,-0.5 488.5,-0.5"/>
<text text-anchor="middle" x="506" y="-7.5" font-family="Helvetica,sans-Serif" font-size="10.00">map</text>
</g>
<!-- Node17&#45;&gt;Node18 -->
<g id="edge21" class="edge"><title>Node17&#45;&gt;Node18</title>
<path fill="none" stroke="midnightblue" d="M357.046,-56.4435C390.295,-46.2999 445.35,-29.5034 478.401,-19.4199"/>
<polygon fill="midnightblue" stroke="midnightblue" points="479.76,-22.6647 488.304,-16.3989 477.718,-15.9693 479.76,-22.6647"/>
</g>
<!-- Node19 -->
<g id="node20" class="node"><title>Node19</title>
<polygon fill="white" stroke="#bfbfbf" points="298,-0.5 298,-19.5 352,-19.5 352,-0.5 298,-0.5"/>
<text text-anchor="middle" x="325" y="-7.5" font-family="Helvetica,sans-Serif" font-size="10.00">iostream</text>
</g>
<!-- Node17&#45;&gt;Node19 -->
<g id="edge22" class="edge"><title>Node17&#45;&gt;Node19</title>
<path fill="none" stroke="midnightblue" d="M328.339,-56.083C327.815,-49.0059 327.064,-38.8611 326.406,-29.9865"/>
<polygon fill="midnightblue" stroke="midnightblue" points="329.877,-29.4652 325.648,-19.7511 322.897,-29.9823 329.877,-29.4652"/>
</g>
<!-- Node20 -->
<g id="node21" class="node"><title>Node20</title>
<polygon fill="white" stroke="#bfbfbf" points="370.5,-0.5 370.5,-19.5 429.5,-19.5 429.5,-0.5 370.5,-0.5"/>
<text text-anchor="middle" x="400" y="-7.5" font-family="Helvetica,sans-Serif" font-size="10.00">exception</text>
</g>
<!-- Node17&#45;&gt;Node20 -->
<g id="edge23" class="edge"><title>Node17&#45;&gt;Node20</title>
<path fill="none" stroke="midnightblue" d="M340.407,-56.324C351.109,-48.1849 367.341,-35.8395 380.163,-26.0874"/>
<polygon fill="midnightblue" stroke="midnightblue" points="382.544,-28.6734 388.385,-19.8339 378.307,-23.1018 382.544,-28.6734"/>
</g>
<!-- Node22&#45;&gt;Node3 -->
<g id="edge32" class="edge"><title>Node22&#45;&gt;Node3</title>
<path fill="none" stroke="midnightblue" d="M380.303,-392.444C361.056,-383.636 330.848,-369.812 308.8,-359.722"/>
<polygon fill="midnightblue" stroke="midnightblue" points="310.16,-356.495 299.61,-355.516 307.247,-362.86 310.16,-356.495"/>
</g>
<!-- Node22&#45;&gt;Node5 -->
<g id="edge31" class="edge"><title>Node22&#45;&gt;Node5</title>
<path fill="none" stroke="midnightblue" d="M397.733,-392.459C394.222,-371.305 382.67,-315.616 354,-280 343.18,-266.558 327.219,-255.864 313.27,-248.279"/>
<polygon fill="midnightblue" stroke="midnightblue" points="314.516,-244.985 304.022,-243.529 311.318,-251.211 314.516,-244.985"/>
</g>
<!-- Node22&#45;&gt;Node18 -->
<g id="edge27" class="edge"><title>Node22&#45;&gt;Node18</title>
<path fill="none" stroke="midnightblue" d="M456.936,-392.459C481.206,-386.129 507.922,-375.123 526,-356 546.677,-334.129 545,-321.098 545,-291 545,-291 545,-291 545,-121 545,-86.7161 527.963,-49.6981 516.41,-28.5372"/>
<polygon fill="midnightblue" stroke="midnightblue" points="519.403,-26.7198 511.423,-19.7504 513.315,-30.175 519.403,-26.7198"/>
</g>
<!-- Node23 -->
<g id="node24" class="node"><title>Node23</title>
<g id="a_node24"><a xlink:href="_chronometer_8hpp.html" target="_top" xlink:title="Time/Chronometer.hpp">
<polygon fill="white" stroke="black" points="401.5,-336.5 401.5,-355.5 516.5,-355.5 516.5,-336.5 401.5,-336.5"/>
<text text-anchor="middle" x="459" y="-343.5" font-family="Helvetica,sans-Serif" font-size="10.00">Time/Chronometer.hpp</text>
</a>
</g>
</g>
<!-- Node22&#45;&gt;Node23 -->
<g id="edge28" class="edge"><title>Node22&#45;&gt;Node23</title>
<path fill="none" stroke="midnightblue" d="M408.64,-392.324C417.51,-384.341 430.875,-372.313 441.608,-362.653"/>
<polygon fill="midnightblue" stroke="midnightblue" points="444.093,-365.125 449.185,-355.834 439.41,-359.922 444.093,-365.125"/>
</g>
<!-- Node23&#45;&gt;Node21 -->
<g id="edge30" class="edge"><title>Node23&#45;&gt;Node21</title>
<path fill="none" stroke="midnightblue" d="M452.627,-336.375C446.31,-327.557 436.643,-313.305 430,-300 422.443,-284.865 415.947,-266.744 411.626,-253.485"/>
<polygon fill="midnightblue" stroke="midnightblue" points="414.875,-252.149 408.532,-243.663 408.198,-254.252 414.875,-252.149"/>
</g>
<!-- Node24 -->
<g id="node25" class="node"><title>Node24</title>
<polygon fill="white" stroke="#bfbfbf" points="439,-280.5 439,-299.5 485,-299.5 485,-280.5 439,-280.5"/>
<text text-anchor="middle" x="462" y="-287.5" font-family="Helvetica,sans-Serif" font-size="10.00">chrono</text>
</g>
<!-- Node23&#45;&gt;Node24 -->
<g id="edge29" class="edge"><title>Node23&#45;&gt;Node24</title>
<path fill="none" stroke="midnightblue" d="M459.495,-336.083C459.889,-329.006 460.452,-318.861 460.945,-309.986"/>
<polygon fill="midnightblue" stroke="midnightblue" points="464.454,-309.93 461.514,-299.751 457.464,-309.542 464.454,-309.93"/>
</g>
</g>
</svg>
