<?xml version="1.0" encoding="UTF-8" standalone="no"?>
<!DOCTYPE svg PUBLIC "-//W3C//DTD SVG 1.1//EN"
 "http://www.w3.org/Graphics/SVG/1.1/DTD/svg11.dtd">
<!-- Generated by graphviz version 2.38.0 (20140413.2041)
 -->
<!-- Title: E:/Dev/ObEngine/Git/src/System/Package.cpp Pages: 1 -->
<svg width="1928pt" height="655pt"
 viewBox="0.00 0.00 1927.57 655.00" xmlns="http://www.w3.org/2000/svg" xmlns:xlink="http://www.w3.org/1999/xlink">
<g id="graph0" class="graph" transform="scale(1 1) rotate(0) translate(4 651)">
<title>E:/Dev/ObEngine/Git/src/System/Package.cpp</title>
<!-- Node0 -->
<g id="node1" class="node"><title>Node0</title>
<polygon fill="#bfbfbf" stroke="black" points="1145.07,-616.5 1145.07,-646.5 1275.07,-646.5 1275.07,-616.5 1145.07,-616.5"/>
<text text-anchor="start" x="1153.07" y="-634.5" font-family="Helvetica,sans-Serif" font-size="10.00">E:/Dev/ObEngine/Git</text>
<text text-anchor="middle" x="1210.07" y="-623.5" font-family="Helvetica,sans-Serif" font-size="10.00">/src/System/Package.cpp</text>
</g>
<!-- Node1 -->
<g id="node2" class="node"><title>Node1</title>
<g id="a_node2"><a xlink:href="_package_8hpp.html" target="_top" xlink:title="System/Package.hpp">
<polygon fill="white" stroke="black" points="587.071,-560.5 587.071,-579.5 697.071,-579.5 697.071,-560.5 587.071,-560.5"/>
<text text-anchor="middle" x="642.071" y="-567.5" font-family="Helvetica,sans-Serif" font-size="10.00">System/Package.hpp</text>
</a>
</g>
</g>
<!-- Node0&#45;&gt;Node1 -->
<g id="edge1" class="edge"><title>Node0&#45;&gt;Node1</title>
<path fill="none" stroke="midnightblue" d="M1144.91,-623.675C1035.67,-612.231 816.799,-589.303 707.423,-577.846"/>
<polygon fill="midnightblue" stroke="midnightblue" points="707.497,-574.335 697.187,-576.774 706.768,-581.296 707.497,-574.335"/>
</g>
<!-- Node39 -->
<g id="node40" class="node"><title>Node39</title>
<g id="a_node40"><a xlink:href="_path_8hpp.html" target="_top" xlink:title="System/Path.hpp">
<polygon fill="white" stroke="black" points="1275.07,-168.5 1275.07,-187.5 1367.07,-187.5 1367.07,-168.5 1275.07,-168.5"/>
<text text-anchor="middle" x="1321.07" y="-175.5" font-family="Helvetica,sans-Serif" font-size="10.00">System/Path.hpp</text>
</a>
</g>
</g>
<!-- Node0&#45;&gt;Node39 -->
<g id="edge68" class="edge"><title>Node0&#45;&gt;Node39</title>
<path fill="none" stroke="midnightblue" d="M1222.44,-616.302C1239.2,-595.547 1267.07,-555.026 1267.07,-515 1267.07,-515 1267.07,-515 1267.07,-289 1267.07,-252.863 1290.85,-216.252 1306.84,-195.706"/>
<polygon fill="midnightblue" stroke="midnightblue" points="1309.76,-197.668 1313.33,-187.694 1304.32,-193.262 1309.76,-197.668"/>
</g>
<!-- Node41 -->
<g id="node42" class="node"><title>Node41</title>
<g id="a_node42"><a xlink:href="_file_utils_8hpp.html" target="_top" xlink:title="Utils/FileUtils.hpp">
<polygon fill="white" stroke="black" points="1492.57,-112.5 1492.57,-131.5 1585.57,-131.5 1585.57,-112.5 1492.57,-112.5"/>
<text text-anchor="middle" x="1539.07" y="-119.5" font-family="Helvetica,sans-Serif" font-size="10.00">Utils/FileUtils.hpp</text>
</a>
</g>
</g>
<!-- Node0&#45;&gt;Node41 -->
<g id="edge81" class="edge"><title>Node0&#45;&gt;Node41</title>
<path fill="none" stroke="midnightblue" d="M1275.09,-628.733C1351.81,-622.778 1469.07,-599.805 1469.07,-515 1469.07,-515 1469.07,-515 1469.07,-233 1469.07,-194.232 1500.4,-158.104 1521.14,-138.434"/>
<polygon fill="midnightblue" stroke="midnightblue" points="1523.71,-140.827 1528.74,-131.504 1518.99,-135.655 1523.71,-140.827"/>
</g>
<!-- Node46 -->
<g id="node47" class="node"><title>Node46</title>
<g id="a_node47"><a xlink:href="_vector_utils_8hpp.html" target="_top" xlink:title="Utils/VectorUtils.hpp">
<polygon fill="white" stroke="black" points="1024.07,-504.5 1024.07,-523.5 1130.07,-523.5 1130.07,-504.5 1024.07,-504.5"/>
<text text-anchor="middle" x="1077.07" y="-511.5" font-family="Helvetica,sans-Serif" font-size="10.00">Utils/VectorUtils.hpp</text>
</a>
</g>
</g>
<!-- Node0&#45;&gt;Node46 -->
<g id="edge82" class="edge"><title>Node0&#45;&gt;Node46</title>
<path fill="none" stroke="midnightblue" d="M1193.76,-616.337C1168.6,-594.487 1120.52,-552.732 1094.63,-530.244"/>
<polygon fill="midnightblue" stroke="midnightblue" points="1096.9,-527.584 1087.05,-523.669 1092.31,-532.869 1096.9,-527.584"/>
</g>
<!-- Node2 -->
<g id="node3" class="node"><title>Node2</title>
<polygon fill="white" stroke="#bfbfbf" points="521.571,-0.5 521.571,-19.5 562.571,-19.5 562.571,-0.5 521.571,-0.5"/>
<text text-anchor="middle" x="542.071" y="-7.5" font-family="Helvetica,sans-Serif" font-size="10.00">string</text>
</g>
<!-- Node1&#45;&gt;Node2 -->
<g id="edge2" class="edge"><title>Node1&#45;&gt;Node2</title>
<path fill="none" stroke="midnightblue" d="M586.777,-568.571C497.814,-566.806 317.906,-558.788 170.071,-524 91.7359,-505.566 1.07134,-539.475 1.07134,-459 1.07134,-459 1.07134,-459 1.07134,-121 1.07134,-90.9022 -3.21403,-75.0701 20.0713,-56 58.1716,-24.7969 405.367,-14.183 511.436,-11.6533"/>
<polygon fill="midnightblue" stroke="midnightblue" points="511.573,-15.1511 521.489,-11.4207 511.411,-8.15301 511.573,-15.1511"/>
</g>
<!-- Node3 -->
<g id="node4" class="node"><title>Node3</title>
<polygon fill="white" stroke="#bfbfbf" points="351.071,-56.5 351.071,-75.5 393.071,-75.5 393.071,-56.5 351.071,-56.5"/>
<text text-anchor="middle" x="372.071" y="-63.5" font-family="Helvetica,sans-Serif" font-size="10.00">vector</text>
</g>
<!-- Node1&#45;&gt;Node3 -->
<g id="edge3" class="edge"><title>Node1&#45;&gt;Node3</title>
<path fill="none" stroke="midnightblue" d="M586.803,-568.485C456.137,-565.776 139.071,-549.843 139.071,-459 139.071,-459 139.071,-459 139.071,-233 139.071,-134.904 277.757,-89.3647 341.135,-73.6752"/>
<polygon fill="midnightblue" stroke="midnightblue" points="342.067,-77.0513 350.983,-71.3285 340.444,-70.242 342.067,-77.0513"/>
</g>
<!-- Node4 -->
<g id="node5" class="node"><title>Node4</title>
<g id="a_node5"><a xlink:href="include_2elzip_2elzip__fallback_8hpp.html" target="_top" xlink:title="elzip/elzip_fallback.hpp">
<polygon fill="white" stroke="black" points="785.571,-168.5 785.571,-187.5 902.571,-187.5 902.571,-168.5 785.571,-168.5"/>
<text text-anchor="middle" x="844.071" y="-175.5" font-family="Helvetica,sans-Serif" font-size="10.00">elzip/elzip_fallback.hpp</text>
</a>
</g>
</g>
<!-- Node1&#45;&gt;Node4 -->
<g id="edge4" class="edge"><title>Node1&#45;&gt;Node4</title>
<path fill="none" stroke="midnightblue" d="M697.173,-562.024C790.365,-548.672 969.071,-515.677 969.071,-459 969.071,-459 969.071,-459 969.071,-289 969.071,-240.173 914.656,-207.892 877.631,-191.578"/>
<polygon fill="midnightblue" stroke="midnightblue" points="878.747,-188.25 868.173,-187.587 876.025,-194.7 878.747,-188.25"/>
</g>
<!-- Node18 -->
<g id="node19" class="node"><title>Node18</title>
<g id="a_node19"><a xlink:href="_vili_8hpp.html" target="_top" xlink:title="vili/Vili.hpp">
<polygon fill="white" stroke="black" points="611.071,-504.5 611.071,-523.5 673.071,-523.5 673.071,-504.5 611.071,-504.5"/>
<text text-anchor="middle" x="642.071" y="-511.5" font-family="Helvetica,sans-Serif" font-size="10.00">vili/Vili.hpp</text>
</a>
</g>
</g>
<!-- Node1&#45;&gt;Node18 -->
<g id="edge22" class="edge"><title>Node1&#45;&gt;Node18</title>
<path fill="none" stroke="midnightblue" d="M642.071,-560.083C642.071,-553.006 642.071,-542.861 642.071,-533.986"/>
<polygon fill="midnightblue" stroke="midnightblue" points="645.571,-533.751 642.071,-523.751 638.571,-533.751 645.571,-533.751"/>
</g>
<!-- Node4&#45;&gt;Node2 -->
<g id="edge7" class="edge"><title>Node4&#45;&gt;Node2</title>
<path fill="none" stroke="midnightblue" d="M806.515,-168.434C755.635,-155.363 663.952,-126.481 601.071,-76 583.328,-61.7559 566.214,-42.0186 555.029,-28.0399"/>
<polygon fill="midnightblue" stroke="midnightblue" points="557.505,-25.5239 548.589,-19.801 551.99,-29.835 557.505,-25.5239"/>
</g>
<!-- Node5 -->
<g id="node6" class="node"><title>Node5</title>
<polygon fill="white" stroke="#bfbfbf" points="844.071,-56.5 844.071,-75.5 898.071,-75.5 898.071,-56.5 844.071,-56.5"/>
<text text-anchor="middle" x="871.071" y="-63.5" font-family="Helvetica,sans-Serif" font-size="10.00">iostream</text>
</g>
<!-- Node4&#45;&gt;Node5 -->
<g id="edge5" class="edge"><title>Node4&#45;&gt;Node5</title>
<path fill="none" stroke="midnightblue" d="M846.19,-168.368C850.547,-150.617 860.599,-109.666 866.507,-85.5974"/>
<polygon fill="midnightblue" stroke="midnightblue" points="869.978,-86.1375 868.963,-75.5914 863.18,-84.4688 869.978,-86.1375"/>
</g>
<!-- Node6 -->
<g id="node7" class="node"><title>Node6</title>
<polygon fill="white" stroke="#bfbfbf" points="1514.57,-56.5 1514.57,-75.5 1563.57,-75.5 1563.57,-56.5 1514.57,-56.5"/>
<text text-anchor="middle" x="1539.07" y="-63.5" font-family="Helvetica,sans-Serif" font-size="10.00">fstream</text>
</g>
<!-- Node4&#45;&gt;Node6 -->
<g id="edge6" class="edge"><title>Node4&#45;&gt;Node6</title>
<path fill="none" stroke="midnightblue" d="M902.81,-176.537C979.132,-174.491 1115.78,-165.866 1227.07,-132 1245.71,-126.329 1247.53,-117.974 1266.07,-112 1365.32,-80.024 1397.97,-96.7241 1504.42,-75.8929"/>
<polygon fill="midnightblue" stroke="midnightblue" points="1505.16,-79.315 1514.26,-73.9019 1503.77,-72.4539 1505.16,-79.315"/>
</g>
<!-- Node7 -->
<g id="node8" class="node"><title>Node7</title>
<g id="a_node8"><a xlink:href="include_2elzip_2unzipper_8hpp.html" target="_top" xlink:title="unzipper.hpp">
<polygon fill="white" stroke="black" points="708.071,-112.5 708.071,-131.5 780.071,-131.5 780.071,-112.5 708.071,-112.5"/>
<text text-anchor="middle" x="744.071" y="-119.5" font-family="Helvetica,sans-Serif" font-size="10.00">unzipper.hpp</text>
</a>
</g>
</g>
<!-- Node4&#45;&gt;Node7 -->
<g id="edge8" class="edge"><title>Node4&#45;&gt;Node7</title>
<path fill="none" stroke="midnightblue" d="M828.005,-168.324C812.114,-159.743 787.564,-146.486 769.113,-136.522"/>
<polygon fill="midnightblue" stroke="midnightblue" points="770.56,-133.326 760.098,-131.655 767.234,-139.486 770.56,-133.326"/>
</g>
<!-- Node10 -->
<g id="node11" class="node"><title>Node10</title>
<g id="a_node11"><a xlink:href="include_2elzip_2tinydir_8h.html" target="_top" xlink:title="tinydir.h">
<polygon fill="white" stroke="black" points="1167.57,-112.5 1167.57,-131.5 1218.57,-131.5 1218.57,-112.5 1167.57,-112.5"/>
<text text-anchor="middle" x="1193.07" y="-119.5" font-family="Helvetica,sans-Serif" font-size="10.00">tinydir.h</text>
</a>
</g>
</g>
<!-- Node4&#45;&gt;Node10 -->
<g id="edge14" class="edge"><title>Node4&#45;&gt;Node10</title>
<path fill="none" stroke="midnightblue" d="M899.371,-168.444C971.685,-157.255 1096.31,-137.971 1157.32,-128.531"/>
<polygon fill="midnightblue" stroke="midnightblue" points="1157.9,-131.983 1167.25,-126.995 1156.83,-125.065 1157.9,-131.983"/>
</g>
<!-- Node7&#45;&gt;Node2 -->
<g id="edge9" class="edge"><title>Node7&#45;&gt;Node2</title>
<path fill="none" stroke="midnightblue" d="M720.055,-112.495C697.938,-104.293 664.497,-90.9501 637.071,-76 609.351,-60.8896 579.665,-39.6751 560.997,-25.6447"/>
<polygon fill="midnightblue" stroke="midnightblue" points="563.086,-22.837 553.007,-19.5721 558.851,-28.4099 563.086,-22.837"/>
</g>
<!-- Node7&#45;&gt;Node3 -->
<g id="edge10" class="edge"><title>Node7&#45;&gt;Node3</title>
<path fill="none" stroke="midnightblue" d="M708.064,-115.773C635.371,-105.221 472.17,-81.5304 403.484,-71.5599"/>
<polygon fill="midnightblue" stroke="midnightblue" points="403.699,-68.0545 393.3,-70.0816 402.693,-74.9819 403.699,-68.0545"/>
</g>
<!-- Node7&#45;&gt;Node5 -->
<g id="edge11" class="edge"><title>Node7&#45;&gt;Node5</title>
<path fill="none" stroke="midnightblue" d="M764.195,-112.444C785.096,-103.557 818.006,-89.5632 841.787,-79.4514"/>
<polygon fill="midnightblue" stroke="midnightblue" points="843.209,-82.6504 851.042,-75.5164 840.47,-76.2085 843.209,-82.6504"/>
</g>
<!-- Node8 -->
<g id="node9" class="node"><title>Node8</title>
<polygon fill="white" stroke="#bfbfbf" points="646.571,-56.5 646.571,-75.5 725.571,-75.5 725.571,-56.5 646.571,-56.5"/>
<text text-anchor="middle" x="686.071" y="-63.5" font-family="Helvetica,sans-Serif" font-size="10.00">minizip/ioapi.h</text>
</g>
<!-- Node7&#45;&gt;Node8 -->
<g id="edge12" class="edge"><title>Node7&#45;&gt;Node8</title>
<path fill="none" stroke="midnightblue" d="M734.753,-112.324C726.179,-104.341 713.259,-92.3128 702.884,-82.6529"/>
<polygon fill="midnightblue" stroke="midnightblue" points="705.264,-80.0865 695.56,-75.8339 700.494,-85.2098 705.264,-80.0865"/>
</g>
<!-- Node9 -->
<g id="node10" class="node"><title>Node9</title>
<polygon fill="white" stroke="#bfbfbf" points="744.071,-56.5 744.071,-75.5 826.071,-75.5 826.071,-56.5 744.071,-56.5"/>
<text text-anchor="middle" x="785.071" y="-63.5" font-family="Helvetica,sans-Serif" font-size="10.00">minizip/unzip.h</text>
</g>
<!-- Node7&#45;&gt;Node9 -->
<g id="edge13" class="edge"><title>Node7&#45;&gt;Node9</title>
<path fill="none" stroke="midnightblue" d="M750.842,-112.083C756.633,-104.455 765.13,-93.2645 772.209,-83.9408"/>
<polygon fill="midnightblue" stroke="midnightblue" points="775.167,-85.8321 778.427,-75.7511 769.592,-81.5991 775.167,-85.8321"/>
</g>
<!-- Node11 -->
<g id="node12" class="node"><title>Node11</title>
<polygon fill="white" stroke="#bfbfbf" points="1169.57,-56.5 1169.57,-75.5 1216.57,-75.5 1216.57,-56.5 1169.57,-56.5"/>
<text text-anchor="middle" x="1193.07" y="-63.5" font-family="Helvetica,sans-Serif" font-size="10.00">errno.h</text>
</g>
<!-- Node10&#45;&gt;Node11 -->
<g id="edge15" class="edge"><title>Node10&#45;&gt;Node11</title>
<path fill="none" stroke="midnightblue" d="M1193.07,-112.083C1193.07,-105.006 1193.07,-94.8611 1193.07,-85.9865"/>
<polygon fill="midnightblue" stroke="midnightblue" points="1196.57,-85.751 1193.07,-75.7511 1189.57,-85.7511 1196.57,-85.751"/>
</g>
<!-- Node12 -->
<g id="node13" class="node"><title>Node12</title>
<polygon fill="white" stroke="#bfbfbf" points="1235.07,-56.5 1235.07,-75.5 1283.07,-75.5 1283.07,-56.5 1235.07,-56.5"/>
<text text-anchor="middle" x="1259.07" y="-63.5" font-family="Helvetica,sans-Serif" font-size="10.00">stdlib.h</text>
</g>
<!-- Node10&#45;&gt;Node12 -->
<g id="edge16" class="edge"><title>Node10&#45;&gt;Node12</title>
<path fill="none" stroke="midnightblue" d="M1203.68,-112.324C1213.53,-104.263 1228.42,-92.0765 1240.29,-82.3695"/>
<polygon fill="midnightblue" stroke="midnightblue" points="1242.75,-84.8752 1248.27,-75.8339 1238.32,-79.4575 1242.75,-84.8752"/>
</g>
<!-- Node13 -->
<g id="node14" class="node"><title>Node13</title>
<polygon fill="white" stroke="#bfbfbf" points="1301.57,-56.5 1301.57,-75.5 1350.57,-75.5 1350.57,-56.5 1301.57,-56.5"/>
<text text-anchor="middle" x="1326.07" y="-63.5" font-family="Helvetica,sans-Serif" font-size="10.00">string.h</text>
</g>
<!-- Node10&#45;&gt;Node13 -->
<g id="edge17" class="edge"><title>Node10&#45;&gt;Node13</title>
<path fill="none" stroke="midnightblue" d="M1214.15,-112.444C1236.13,-103.517 1270.81,-89.4387 1295.74,-79.3168"/>
<polygon fill="midnightblue" stroke="midnightblue" points="1297.15,-82.5213 1305.1,-75.5164 1294.51,-76.0355 1297.15,-82.5213"/>
</g>
<!-- Node14 -->
<g id="node15" class="node"><title>Node14</title>
<polygon fill="white" stroke="#bfbfbf" points="1368.57,-56.5 1368.57,-75.5 1417.57,-75.5 1417.57,-56.5 1368.57,-56.5"/>
<text text-anchor="middle" x="1393.07" y="-63.5" font-family="Helvetica,sans-Serif" font-size="10.00">dirent.h</text>
</g>
<!-- Node10&#45;&gt;Node14 -->
<g id="edge18" class="edge"><title>Node10&#45;&gt;Node14</title>
<path fill="none" stroke="midnightblue" d="M1218.81,-114.051C1254.43,-104.434 1318.84,-87.0418 1358.59,-76.3099"/>
<polygon fill="midnightblue" stroke="midnightblue" points="1359.63,-79.6539 1368.37,-73.6682 1357.81,-72.8959 1359.63,-79.6539"/>
</g>
<!-- Node15 -->
<g id="node16" class="node"><title>Node15</title>
<polygon fill="white" stroke="#bfbfbf" points="1032.07,-56.5 1032.07,-75.5 1082.07,-75.5 1082.07,-56.5 1032.07,-56.5"/>
<text text-anchor="middle" x="1057.07" y="-63.5" font-family="Helvetica,sans-Serif" font-size="10.00">libgen.h</text>
</g>
<!-- Node10&#45;&gt;Node15 -->
<g id="edge19" class="edge"><title>Node10&#45;&gt;Node15</title>
<path fill="none" stroke="midnightblue" d="M1171.52,-112.444C1149.04,-103.517 1113.58,-89.4387 1088.09,-79.3168"/>
<polygon fill="midnightblue" stroke="midnightblue" points="1089.11,-75.9539 1078.52,-75.5164 1086.52,-82.4598 1089.11,-75.9539"/>
</g>
<!-- Node16 -->
<g id="node17" class="node"><title>Node16</title>
<polygon fill="white" stroke="#bfbfbf" points="1436.07,-56.5 1436.07,-75.5 1496.07,-75.5 1496.07,-56.5 1436.07,-56.5"/>
<text text-anchor="middle" x="1466.07" y="-63.5" font-family="Helvetica,sans-Serif" font-size="10.00">sys/stat.h</text>
</g>
<!-- Node10&#45;&gt;Node16 -->
<g id="edge20" class="edge"><title>Node10&#45;&gt;Node16</title>
<path fill="none" stroke="midnightblue" d="M1218.86,-115.05C1223.58,-114.003 1228.47,-112.947 1233.07,-112 1318.54,-94.42 1340.6,-93.58 1426.07,-76 1426.17,-75.9794 1426.27,-75.9587 1426.37,-75.938"/>
<polygon fill="midnightblue" stroke="midnightblue" points="1426.9,-79.4036 1435.96,-73.9009 1425.45,-72.5566 1426.9,-79.4036"/>
</g>
<!-- Node17 -->
<g id="node18" class="node"><title>Node17</title>
<polygon fill="white" stroke="#bfbfbf" points="1100.57,-56.5 1100.57,-75.5 1151.57,-75.5 1151.57,-56.5 1100.57,-56.5"/>
<text text-anchor="middle" x="1126.07" y="-63.5" font-family="Helvetica,sans-Serif" font-size="10.00">stddef.h</text>
</g>
<!-- Node10&#45;&gt;Node17 -->
<g id="edge21" class="edge"><title>Node10&#45;&gt;Node17</title>
<path fill="none" stroke="midnightblue" d="M1182.31,-112.324C1172.31,-104.263 1157.18,-92.0765 1145.14,-82.3695"/>
<polygon fill="midnightblue" stroke="midnightblue" points="1147.01,-79.3841 1137.03,-75.8339 1142.62,-84.8343 1147.01,-79.3841"/>
</g>
<!-- Node19 -->
<g id="node20" class="node"><title>Node19</title>
<g id="a_node20"><a xlink:href="_vili_parser_8hpp.html" target="_top" xlink:title="vili/ViliParser.hpp">
<polygon fill="white" stroke="black" points="557.571,-448.5 557.571,-467.5 648.571,-467.5 648.571,-448.5 557.571,-448.5"/>
<text text-anchor="middle" x="603.071" y="-455.5" font-family="Helvetica,sans-Serif" font-size="10.00">vili/ViliParser.hpp</text>
</a>
</g>
</g>
<!-- Node18&#45;&gt;Node19 -->
<g id="edge23" class="edge"><title>Node18&#45;&gt;Node19</title>
<path fill="none" stroke="midnightblue" d="M635.631,-504.083C630.122,-496.455 622.04,-485.264 615.306,-475.941"/>
<polygon fill="midnightblue" stroke="midnightblue" points="618.084,-473.809 609.392,-467.751 612.409,-477.907 618.084,-473.809"/>
</g>
<!-- Node25 -->
<g id="node26" class="node"><title>Node25</title>
<g id="a_node26"><a xlink:href="_error_handler_8hpp.html" target="_top" xlink:title="../ErrorHandler.hpp">
<polygon fill="white" stroke="black" points="877.071,-112.5 877.071,-131.5 975.071,-131.5 975.071,-112.5 877.071,-112.5"/>
<text text-anchor="middle" x="926.071" y="-119.5" font-family="Helvetica,sans-Serif" font-size="10.00">../ErrorHandler.hpp</text>
</a>
</g>
</g>
<!-- Node18&#45;&gt;Node25 -->
<g id="edge59" class="edge"><title>Node18&#45;&gt;Node25</title>
<path fill="none" stroke="midnightblue" d="M673.274,-507.959C748.003,-495.005 931.071,-457.692 931.071,-403 931.071,-403 931.071,-403 931.071,-233 931.071,-200.915 928.922,-163.62 927.442,-141.737"/>
<polygon fill="midnightblue" stroke="midnightblue" points="930.919,-141.281 926.725,-131.552 923.936,-141.773 930.919,-141.281"/>
</g>
<!-- Node34 -->
<g id="node35" class="node"><title>Node34</title>
<g id="a_node35"><a xlink:href="_link_node_8hpp.html" target="_top" xlink:title="LinkNode.hpp">
<polygon fill="white" stroke="black" points="642.071,-336.5 642.071,-355.5 718.071,-355.5 718.071,-336.5 642.071,-336.5"/>
<text text-anchor="middle" x="680.071" y="-343.5" font-family="Helvetica,sans-Serif" font-size="10.00">LinkNode.hpp</text>
</a>
</g>
</g>
<!-- Node18&#45;&gt;Node34 -->
<g id="edge58" class="edge"><title>Node18&#45;&gt;Node34</title>
<path fill="none" stroke="midnightblue" d="M645.293,-504.476C648.595,-495.501 653.709,-480.91 657.071,-468 666.381,-432.257 673.599,-389.66 677.309,-365.731"/>
<polygon fill="midnightblue" stroke="midnightblue" points="680.807,-366.007 678.843,-355.596 673.886,-364.96 680.807,-366.007"/>
</g>
<!-- Node35 -->
<g id="node36" class="node"><title>Node35</title>
<g id="a_node36"><a xlink:href="_functions_8hpp.html" target="_top" xlink:title="Functions.hpp">
<polygon fill="white" stroke="black" points="71.0713,-112.5 71.0713,-131.5 149.071,-131.5 149.071,-112.5 71.0713,-112.5"/>
<text text-anchor="middle" x="110.071" y="-119.5" font-family="Helvetica,sans-Serif" font-size="10.00">Functions.hpp</text>
</a>
</g>
</g>
<!-- Node18&#45;&gt;Node35 -->
<g id="edge60" class="edge"><title>Node18&#45;&gt;Node35</title>
<path fill="none" stroke="midnightblue" d="M622.698,-504.431C603.487,-495.77 573.347,-481.738 548.071,-468 380.508,-376.927 332.396,-361.363 182.071,-244 154.079,-222.145 142.425,-218.985 125.071,-188 117.025,-173.633 113.289,-155.173 111.558,-141.599"/>
<polygon fill="midnightblue" stroke="midnightblue" points="115.029,-141.134 110.525,-131.544 108.066,-141.849 115.029,-141.134"/>
</g>
<!-- Node20 -->
<g id="node21" class="node"><title>Node20</title>
<g id="a_node21"><a xlink:href="_complex_node_8hpp.html" target="_top" xlink:title="ComplexNode.hpp">
<polygon fill="white" stroke="black" points="433.071,-280.5 433.071,-299.5 529.071,-299.5 529.071,-280.5 433.071,-280.5"/>
<text text-anchor="middle" x="481.071" y="-287.5" font-family="Helvetica,sans-Serif" font-size="10.00">ComplexNode.hpp</text>
</a>
</g>
</g>
<!-- Node19&#45;&gt;Node20 -->
<g id="edge24" class="edge"><title>Node19&#45;&gt;Node20</title>
<path fill="none" stroke="midnightblue" d="M588.799,-448.418C576.121,-440.26 557.696,-427.028 545.071,-412 518.04,-379.825 497.816,-334.366 487.892,-309.327"/>
<polygon fill="midnightblue" stroke="midnightblue" points="491.031,-307.739 484.175,-299.662 484.498,-310.252 491.031,-307.739"/>
</g>
<!-- Node33 -->
<g id="node34" class="node"><title>Node33</title>
<g id="a_node34"><a xlink:href="_node_template_8hpp.html" target="_top" xlink:title="NodeTemplate.hpp">
<polygon fill="white" stroke="black" points="554.071,-392.5 554.071,-411.5 652.071,-411.5 652.071,-392.5 554.071,-392.5"/>
<text text-anchor="middle" x="603.071" y="-399.5" font-family="Helvetica,sans-Serif" font-size="10.00">NodeTemplate.hpp</text>
</a>
</g>
</g>
<!-- Node19&#45;&gt;Node33 -->
<g id="edge51" class="edge"><title>Node19&#45;&gt;Node33</title>
<path fill="none" stroke="midnightblue" d="M603.071,-448.083C603.071,-441.006 603.071,-430.861 603.071,-421.986"/>
<polygon fill="midnightblue" stroke="midnightblue" points="606.571,-421.751 603.071,-411.751 599.571,-421.751 606.571,-421.751"/>
</g>
<!-- Node20&#45;&gt;Node3 -->
<g id="edge28" class="edge"><title>Node20&#45;&gt;Node3</title>
<path fill="none" stroke="midnightblue" d="M432.785,-283.226C402.96,-277.521 365.479,-266.239 339.071,-244 317.633,-225.945 316.704,-215.232 310.071,-188 300.171,-147.354 333.696,-104.992 355.264,-82.7716"/>
<polygon fill="midnightblue" stroke="midnightblue" points="357.925,-85.0616 362.566,-75.5371 352.998,-80.0889 357.925,-85.0616"/>
</g>
<!-- Node21 -->
<g id="node22" class="node"><title>Node21</title>
<polygon fill="white" stroke="#bfbfbf" points="205.071,-224.5 205.071,-243.5 263.071,-243.5 263.071,-224.5 205.071,-224.5"/>
<text text-anchor="middle" x="234.071" y="-231.5" font-family="Helvetica,sans-Serif" font-size="10.00">functional</text>
</g>
<!-- Node20&#45;&gt;Node21 -->
<g id="edge25" class="edge"><title>Node20&#45;&gt;Node21</title>
<path fill="none" stroke="midnightblue" d="M441.933,-280.444C395.774,-270.352 319.495,-253.676 273.297,-243.576"/>
<polygon fill="midnightblue" stroke="midnightblue" points="273.874,-240.119 263.357,-241.403 272.379,-246.958 273.874,-240.119"/>
</g>
<!-- Node22 -->
<g id="node23" class="node"><title>Node22</title>
<polygon fill="white" stroke="#bfbfbf" points="277.571,-56.5 277.571,-75.5 312.571,-75.5 312.571,-56.5 277.571,-56.5"/>
<text text-anchor="middle" x="295.071" y="-63.5" font-family="Helvetica,sans-Serif" font-size="10.00">map</text>
</g>
<!-- Node20&#45;&gt;Node22 -->
<g id="edge26" class="edge"><title>Node20&#45;&gt;Node22</title>
<path fill="none" stroke="midnightblue" d="M432.927,-288.631C359.779,-286.933 225.969,-278.988 196.071,-244 150.801,-191.021 234.706,-114.162 275.107,-82.0161"/>
<polygon fill="midnightblue" stroke="midnightblue" points="277.27,-84.7678 283.006,-75.8597 272.967,-79.2467 277.27,-84.7678"/>
</g>
<!-- Node23 -->
<g id="node24" class="node"><title>Node23</title>
<polygon fill="white" stroke="#bfbfbf" points="425.071,-168.5 425.071,-187.5 477.071,-187.5 477.071,-168.5 425.071,-168.5"/>
<text text-anchor="middle" x="451.071" y="-175.5" font-family="Helvetica,sans-Serif" font-size="10.00">memory</text>
</g>
<!-- Node20&#45;&gt;Node23 -->
<g id="edge27" class="edge"><title>Node20&#45;&gt;Node23</title>
<path fill="none" stroke="midnightblue" d="M478.717,-280.368C473.854,-262.537 462.606,-221.295 456.055,-197.272"/>
<polygon fill="midnightblue" stroke="midnightblue" points="459.422,-196.318 453.414,-187.591 452.669,-198.16 459.422,-196.318"/>
</g>
<!-- Node24 -->
<g id="node25" class="node"><title>Node24</title>
<g id="a_node25"><a xlink:href="_data_node_8hpp.html" target="_top" xlink:title="DataNode.hpp">
<polygon fill="white" stroke="black" points="689.071,-168.5 689.071,-187.5 767.071,-187.5 767.071,-168.5 689.071,-168.5"/>
<text text-anchor="middle" x="728.071" y="-175.5" font-family="Helvetica,sans-Serif" font-size="10.00">DataNode.hpp</text>
</a>
</g>
</g>
<!-- Node20&#45;&gt;Node24 -->
<g id="edge29" class="edge"><title>Node20&#45;&gt;Node24</title>
<path fill="none" stroke="midnightblue" d="M525.229,-280.47C557.293,-273.285 601.166,-261.368 637.071,-244 664.858,-230.559 693.229,-208.743 710.741,-194.139"/>
<polygon fill="midnightblue" stroke="midnightblue" points="713.062,-196.759 718.416,-187.617 708.53,-191.425 713.062,-196.759"/>
</g>
<!-- Node29 -->
<g id="node30" class="node"><title>Node29</title>
<g id="a_node30"><a xlink:href="_container_node_8hpp.html" target="_top" xlink:title="ContainerNode.hpp">
<polygon fill="white" stroke="black" points="533.571,-168.5 533.571,-187.5 632.571,-187.5 632.571,-168.5 533.571,-168.5"/>
<text text-anchor="middle" x="583.071" y="-175.5" font-family="Helvetica,sans-Serif" font-size="10.00">ContainerNode.hpp</text>
</a>
</g>
</g>
<!-- Node20&#45;&gt;Node29 -->
<g id="edge40" class="edge"><title>Node20&#45;&gt;Node29</title>
<path fill="none" stroke="midnightblue" d="M488.277,-280.429C498.926,-267.843 519.603,-243.719 538.071,-224 547.323,-214.122 558.025,-203.393 566.67,-194.89"/>
<polygon fill="midnightblue" stroke="midnightblue" points="569.225,-197.287 573.931,-187.795 564.333,-192.281 569.225,-197.287"/>
</g>
<!-- Node30 -->
<g id="node31" class="node"><title>Node30</title>
<g id="a_node31"><a xlink:href="_array_node_8hpp.html" target="_top" xlink:title="ArrayNode.hpp">
<polygon fill="white" stroke="black" points="547.571,-224.5 547.571,-243.5 628.571,-243.5 628.571,-224.5 547.571,-224.5"/>
<text text-anchor="middle" x="588.071" y="-231.5" font-family="Helvetica,sans-Serif" font-size="10.00">ArrayNode.hpp</text>
</a>
</g>
</g>
<!-- Node20&#45;&gt;Node30 -->
<g id="edge42" class="edge"><title>Node20&#45;&gt;Node30</title>
<path fill="none" stroke="midnightblue" d="M498.263,-280.324C515.422,-271.664 542.017,-258.242 561.819,-248.249"/>
<polygon fill="midnightblue" stroke="midnightblue" points="563.572,-251.285 570.923,-243.655 560.418,-245.035 563.572,-251.285"/>
</g>
<!-- Node31 -->
<g id="node32" class="node"><title>Node31</title>
<g id="a_node32"><a xlink:href="_node_iterator_8hpp.html" target="_top" xlink:title="NodeIterator.hpp">
<polygon fill="white" stroke="black" points="319.071,-168.5 319.071,-187.5 407.071,-187.5 407.071,-168.5 319.071,-168.5"/>
<text text-anchor="middle" x="363.071" y="-175.5" font-family="Helvetica,sans-Serif" font-size="10.00">NodeIterator.hpp</text>
</a>
</g>
</g>
<!-- Node20&#45;&gt;Node31 -->
<g id="edge47" class="edge"><title>Node20&#45;&gt;Node31</title>
<path fill="none" stroke="midnightblue" d="M432.877,-286.265C403.19,-281.791 367.253,-270.739 348.071,-244 338.089,-230.084 344.644,-210.557 351.962,-196.544"/>
<polygon fill="midnightblue" stroke="midnightblue" points="355.004,-198.274 356.956,-187.86 348.936,-194.784 355.004,-198.274"/>
</g>
<!-- Node32 -->
<g id="node33" class="node"><title>Node32</title>
<g id="a_node33"><a xlink:href="_node_validator_8hpp.html" target="_top" xlink:title="NodeValidator.hpp">
<polygon fill="white" stroke="black" points="357.071,-224.5 357.071,-243.5 453.071,-243.5 453.071,-224.5 357.071,-224.5"/>
<text text-anchor="middle" x="405.071" y="-231.5" font-family="Helvetica,sans-Serif" font-size="10.00">NodeValidator.hpp</text>
</a>
</g>
</g>
<!-- Node20&#45;&gt;Node32 -->
<g id="edge49" class="edge"><title>Node20&#45;&gt;Node32</title>
<path fill="none" stroke="midnightblue" d="M468.861,-280.324C457.295,-272.107 439.696,-259.602 425.911,-249.807"/>
<polygon fill="midnightblue" stroke="midnightblue" points="427.683,-246.773 417.504,-243.834 423.629,-252.479 427.683,-246.773"/>
</g>
<!-- Node24&#45;&gt;Node25 -->
<g id="edge30" class="edge"><title>Node24&#45;&gt;Node25</title>
<path fill="none" stroke="midnightblue" d="M759.445,-168.444C793.334,-159.201 847.474,-144.436 884.795,-134.257"/>
<polygon fill="midnightblue" stroke="midnightblue" points="886.118,-137.524 894.844,-131.516 884.276,-130.771 886.118,-137.524"/>
</g>
<!-- Node27 -->
<g id="node28" class="node"><title>Node27</title>
<g id="a_node28"><a xlink:href="_node_8hpp.html" target="_top" xlink:title="Node.hpp">
<polygon fill="white" stroke="black" points="534.071,-112.5 534.071,-131.5 592.071,-131.5 592.071,-112.5 534.071,-112.5"/>
<text text-anchor="middle" x="563.071" y="-119.5" font-family="Helvetica,sans-Serif" font-size="10.00">Node.hpp</text>
</a>
</g>
</g>
<!-- Node24&#45;&gt;Node27 -->
<g id="edge36" class="edge"><title>Node24&#45;&gt;Node27</title>
<path fill="none" stroke="midnightblue" d="M701.927,-168.444C674.048,-159.32 629.723,-144.813 598.671,-134.651"/>
<polygon fill="midnightblue" stroke="midnightblue" points="599.686,-131.3 589.094,-131.516 597.509,-137.953 599.686,-131.3"/>
</g>
<!-- Node25&#45;&gt;Node2 -->
<g id="edge31" class="edge"><title>Node25&#45;&gt;Node2</title>
<path fill="none" stroke="midnightblue" d="M926.324,-112.255C926.213,-98.0587 923.733,-70.1635 907.071,-56 857.01,-13.4436 651.514,-10.2289 572.876,-10.6038"/>
<polygon fill="midnightblue" stroke="midnightblue" points="572.626,-7.10542 562.651,-10.6768 572.676,-14.1052 572.626,-7.10542"/>
</g>
<!-- Node25&#45;&gt;Node3 -->
<g id="edge32" class="edge"><title>Node25&#45;&gt;Node3</title>
<path fill="none" stroke="midnightblue" d="M876.996,-116.969C789.649,-109.675 601.498,-93.4164 443.071,-76 430.08,-74.5718 415.778,-72.7978 403.435,-71.2033"/>
<polygon fill="midnightblue" stroke="midnightblue" points="403.545,-67.6879 393.175,-69.8615 402.637,-74.6288 403.545,-67.6879"/>
</g>
<!-- Node25&#45;&gt;Node5 -->
<g id="edge34" class="edge"><title>Node25&#45;&gt;Node5</title>
<path fill="none" stroke="midnightblue" d="M916.989,-112.083C908.9,-104.141 896.876,-92.3354 887.161,-82.7973"/>
<polygon fill="midnightblue" stroke="midnightblue" points="889.572,-80.2595 879.984,-75.7511 884.668,-85.2545 889.572,-80.2595"/>
</g>
<!-- Node25&#45;&gt;Node22 -->
<g id="edge33" class="edge"><title>Node25&#45;&gt;Node22</title>
<path fill="none" stroke="midnightblue" d="M876.76,-117.52C745.562,-108.216 394.357,-82.9979 342.071,-76 335.847,-75.1669 329.2,-74.041 322.923,-72.8679"/>
<polygon fill="midnightblue" stroke="midnightblue" points="323.336,-69.3822 312.849,-70.8925 321.989,-76.2514 323.336,-69.3822"/>
</g>
<!-- Node26 -->
<g id="node27" class="node"><title>Node26</title>
<polygon fill="white" stroke="#bfbfbf" points="954.571,-56.5 954.571,-75.5 1013.57,-75.5 1013.57,-56.5 954.571,-56.5"/>
<text text-anchor="middle" x="984.071" y="-63.5" font-family="Helvetica,sans-Serif" font-size="10.00">exception</text>
</g>
<!-- Node25&#45;&gt;Node26 -->
<g id="edge35" class="edge"><title>Node25&#45;&gt;Node26</title>
<path fill="none" stroke="midnightblue" d="M935.39,-112.324C943.964,-104.341 956.884,-92.3128 967.259,-82.6529"/>
<polygon fill="midnightblue" stroke="midnightblue" points="969.649,-85.2098 974.583,-75.8339 964.879,-80.0865 969.649,-85.2098"/>
</g>
<!-- Node27&#45;&gt;Node2 -->
<g id="edge37" class="edge"><title>Node27&#45;&gt;Node2</title>
<path fill="none" stroke="midnightblue" d="M561.424,-112.368C558.035,-94.617 550.217,-53.6664 545.622,-29.5974"/>
<polygon fill="midnightblue" stroke="midnightblue" points="549.025,-28.7577 543.712,-19.5914 542.149,-30.0704 549.025,-28.7577"/>
</g>
<!-- Node28 -->
<g id="node29" class="node"><title>Node28</title>
<g id="a_node29"><a xlink:href="_types_8hpp.html" target="_top" xlink:title="Types.hpp">
<polygon fill="white" stroke="black" points="452.071,-56.5 452.071,-75.5 514.071,-75.5 514.071,-56.5 452.071,-56.5"/>
<text text-anchor="middle" x="483.071" y="-63.5" font-family="Helvetica,sans-Serif" font-size="10.00">Types.hpp</text>
</a>
</g>
</g>
<!-- Node27&#45;&gt;Node28 -->
<g id="edge38" class="edge"><title>Node27&#45;&gt;Node28</title>
<path fill="none" stroke="midnightblue" d="M550.218,-112.324C537.855,-103.979 518.941,-91.2122 504.334,-81.3524"/>
<polygon fill="midnightblue" stroke="midnightblue" points="506.14,-78.3483 495.893,-75.6545 502.223,-84.1503 506.14,-78.3483"/>
</g>
<!-- Node28&#45;&gt;Node2 -->
<g id="edge39" class="edge"><title>Node28&#45;&gt;Node2</title>
<path fill="none" stroke="midnightblue" d="M492.551,-56.324C501.272,-48.3414 514.415,-36.3128 524.969,-26.6529"/>
<polygon fill="midnightblue" stroke="midnightblue" points="527.406,-29.1674 532.419,-19.8339 522.68,-24.0036 527.406,-29.1674"/>
</g>
<!-- Node29&#45;&gt;Node27 -->
<g id="edge41" class="edge"><title>Node29&#45;&gt;Node27</title>
<path fill="none" stroke="midnightblue" d="M579.769,-168.083C577.089,-160.849 573.223,-150.409 569.885,-141.397"/>
<polygon fill="midnightblue" stroke="midnightblue" points="573.068,-139.913 566.312,-131.751 566.504,-142.344 573.068,-139.913"/>
</g>
<!-- Node30&#45;&gt;Node3 -->
<g id="edge43" class="edge"><title>Node30&#45;&gt;Node3</title>
<path fill="none" stroke="midnightblue" d="M575.161,-224.256C562.12,-215.346 541.469,-201.023 524.071,-188 474.885,-151.182 418.738,-105.497 390.439,-82.2047"/>
<polygon fill="midnightblue" stroke="midnightblue" points="392.53,-79.3929 382.589,-75.7296 388.076,-84.7929 392.53,-79.3929"/>
</g>
<!-- Node30&#45;&gt;Node23 -->
<g id="edge44" class="edge"><title>Node30&#45;&gt;Node23</title>
<path fill="none" stroke="midnightblue" d="M566.363,-224.444C543.717,-215.517 507.999,-201.439 482.32,-191.317"/>
<polygon fill="midnightblue" stroke="midnightblue" points="483.265,-187.927 472.678,-187.516 480.698,-194.44 483.265,-187.927"/>
</g>
<!-- Node30&#45;&gt;Node24 -->
<g id="edge45" class="edge"><title>Node30&#45;&gt;Node24</title>
<path fill="none" stroke="midnightblue" d="M610.255,-224.444C633.5,-215.478 670.22,-201.314 696.487,-191.183"/>
<polygon fill="midnightblue" stroke="midnightblue" points="697.921,-194.381 705.992,-187.516 695.402,-187.85 697.921,-194.381"/>
</g>
<!-- Node30&#45;&gt;Node29 -->
<g id="edge46" class="edge"><title>Node30&#45;&gt;Node29</title>
<path fill="none" stroke="midnightblue" d="M587.246,-224.083C586.59,-217.006 585.651,-206.861 584.829,-197.986"/>
<polygon fill="midnightblue" stroke="midnightblue" points="588.289,-197.386 583.882,-187.751 581.319,-198.031 588.289,-197.386"/>
</g>
<!-- Node31&#45;&gt;Node3 -->
<g id="edge48" class="edge"><title>Node31&#45;&gt;Node3</title>
<path fill="none" stroke="midnightblue" d="M363.778,-168.368C365.23,-150.617 368.58,-109.666 370.55,-85.5974"/>
<polygon fill="midnightblue" stroke="midnightblue" points="374.041,-85.8436 371.368,-75.5914 367.065,-85.2727 374.041,-85.8436"/>
</g>
<!-- Node32&#45;&gt;Node31 -->
<g id="edge50" class="edge"><title>Node32&#45;&gt;Node31</title>
<path fill="none" stroke="midnightblue" d="M398.136,-224.083C392.142,-216.377 383.319,-205.033 376.024,-195.653"/>
<polygon fill="midnightblue" stroke="midnightblue" points="378.78,-193.496 369.878,-187.751 373.254,-197.793 378.78,-193.496"/>
</g>
<!-- Node33&#45;&gt;Node34 -->
<g id="edge52" class="edge"><title>Node33&#45;&gt;Node34</title>
<path fill="none" stroke="midnightblue" d="M615.443,-392.324C627.23,-384.058 645.204,-371.453 659.207,-361.632"/>
<polygon fill="midnightblue" stroke="midnightblue" points="661.553,-364.262 667.731,-355.655 657.534,-358.531 661.553,-364.262"/>
</g>
<!-- Node34&#45;&gt;Node2 -->
<g id="edge53" class="edge"><title>Node34&#45;&gt;Node2</title>
<path fill="none" stroke="midnightblue" d="M681.163,-336.422C684.281,-307.78 690.09,-214.627 641.071,-168 601.959,-130.796 573.677,-155.482 525.071,-132 485.334,-112.802 463.678,-115.026 443.071,-76 426.557,-44.7233 476.936,-26.1308 511.768,-17.2981"/>
<polygon fill="midnightblue" stroke="midnightblue" points="512.634,-20.6898 521.549,-14.9649 511.01,-13.8808 512.634,-20.6898"/>
</g>
<!-- Node34&#45;&gt;Node20 -->
<g id="edge55" class="edge"><title>Node34&#45;&gt;Node20</title>
<path fill="none" stroke="midnightblue" d="M648.539,-336.444C614.479,-327.201 560.065,-312.436 522.556,-302.257"/>
<polygon fill="midnightblue" stroke="midnightblue" points="523.024,-298.758 512.456,-299.516 521.19,-305.513 523.024,-298.758"/>
</g>
<!-- Node34&#45;&gt;Node24 -->
<g id="edge54" class="edge"><title>Node34&#45;&gt;Node24</title>
<path fill="none" stroke="midnightblue" d="M702.86,-336.471C718.397,-329.316 737.779,-317.435 747.071,-300 764.837,-266.668 748.802,-221.338 737.319,-196.707"/>
<polygon fill="midnightblue" stroke="midnightblue" points="740.348,-194.936 732.788,-187.513 734.069,-198.03 740.348,-194.936"/>
</g>
<!-- Node34&#45;&gt;Node29 -->
<g id="edge56" class="edge"><title>Node34&#45;&gt;Node29</title>
<path fill="none" stroke="midnightblue" d="M678.633,-336.363C674.826,-315.458 662.951,-261.127 637.071,-224 628.701,-211.993 616.321,-201.359 605.526,-193.447"/>
<polygon fill="midnightblue" stroke="midnightblue" points="607.517,-190.569 597.315,-187.712 603.508,-196.308 607.517,-190.569"/>
</g>
<!-- Node34&#45;&gt;Node30 -->
<g id="edge57" class="edge"><title>Node34&#45;&gt;Node30</title>
<path fill="none" stroke="midnightblue" d="M672.852,-336.368C657.535,-318.055 621.567,-275.049 601.756,-251.362"/>
<polygon fill="midnightblue" stroke="midnightblue" points="604.357,-249.017 595.257,-243.591 598.988,-253.508 604.357,-249.017"/>
</g>
<!-- Node35&#45;&gt;Node2 -->
<g id="edge63" class="edge"><title>Node35&#45;&gt;Node2</title>
<path fill="none" stroke="midnightblue" d="M135.013,-112.489C159.32,-103.98 197.173,-90.1565 229.071,-76 246.876,-68.0981 249.57,-62.0965 268.071,-56 353.347,-27.8999 459.573,-16.8685 511.127,-12.9433"/>
<polygon fill="midnightblue" stroke="midnightblue" points="511.549,-16.422 521.271,-12.21 511.044,-9.4402 511.549,-16.422"/>
</g>
<!-- Node35&#45;&gt;Node3 -->
<g id="edge62" class="edge"><title>Node35&#45;&gt;Node3</title>
<path fill="none" stroke="midnightblue" d="M149.295,-112.916C201.585,-102.138 293.08,-83.2807 340.92,-73.4206"/>
<polygon fill="midnightblue" stroke="midnightblue" points="341.902,-76.7918 350.989,-71.3452 340.489,-69.9359 341.902,-76.7918"/>
</g>
<!-- Node35&#45;&gt;Node5 -->
<g id="edge61" class="edge"><title>Node35&#45;&gt;Node5</title>
<path fill="none" stroke="midnightblue" d="M149.244,-121.078C257.1,-120.761 567.517,-116.267 833.803,-75.8933"/>
<polygon fill="midnightblue" stroke="midnightblue" points="834.701,-79.2966 844.053,-74.318 833.637,-72.3778 834.701,-79.2966"/>
</g>
<!-- Node35&#45;&gt;Node22 -->
<g id="edge65" class="edge"><title>Node35&#45;&gt;Node22</title>
<path fill="none" stroke="midnightblue" d="M139.385,-112.444C174.564,-102.175 233.099,-85.0892 267.49,-75.0509"/>
<polygon fill="midnightblue" stroke="midnightblue" points="268.716,-78.339 277.335,-72.1772 266.755,-71.6194 268.716,-78.339"/>
</g>
<!-- Node36 -->
<g id="node37" class="node"><title>Node36</title>
<polygon fill="white" stroke="#bfbfbf" points="29.0713,-56.5 29.0713,-75.5 81.0713,-75.5 81.0713,-56.5 29.0713,-56.5"/>
<text text-anchor="middle" x="55.0713" y="-63.5" font-family="Helvetica,sans-Serif" font-size="10.00">sstream</text>
</g>
<!-- Node35&#45;&gt;Node36 -->
<g id="edge64" class="edge"><title>Node35&#45;&gt;Node36</title>
<path fill="none" stroke="midnightblue" d="M100.989,-112.083C92.9,-104.141 80.876,-92.3354 71.1612,-82.7973"/>
<polygon fill="midnightblue" stroke="midnightblue" points="73.5722,-80.2595 63.9845,-75.7511 68.6681,-85.2545 73.5722,-80.2595"/>
</g>
<!-- Node37 -->
<g id="node38" class="node"><title>Node37</title>
<polygon fill="white" stroke="#bfbfbf" points="99.0713,-56.5 99.0713,-75.5 155.071,-75.5 155.071,-56.5 99.0713,-56.5"/>
<text text-anchor="middle" x="127.071" y="-63.5" font-family="Helvetica,sans-Serif" font-size="10.00">algorithm</text>
</g>
<!-- Node35&#45;&gt;Node37 -->
<g id="edge66" class="edge"><title>Node35&#45;&gt;Node37</title>
<path fill="none" stroke="midnightblue" d="M112.879,-112.083C115.156,-104.849 118.443,-94.4087 121.28,-85.3968"/>
<polygon fill="midnightblue" stroke="midnightblue" points="124.652,-86.3406 124.316,-75.7511 117.975,-84.2385 124.652,-86.3406"/>
</g>
<!-- Node38 -->
<g id="node39" class="node"><title>Node38</title>
<polygon fill="white" stroke="#bfbfbf" points="173.571,-56.5 173.571,-75.5 220.571,-75.5 220.571,-56.5 173.571,-56.5"/>
<text text-anchor="middle" x="197.071" y="-63.5" font-family="Helvetica,sans-Serif" font-size="10.00">iterator</text>
</g>
<!-- Node35&#45;&gt;Node38 -->
<g id="edge67" class="edge"><title>Node35&#45;&gt;Node38</title>
<path fill="none" stroke="midnightblue" d="M124.049,-112.324C137.621,-103.9 158.452,-90.9709 174.396,-81.0741"/>
<polygon fill="midnightblue" stroke="midnightblue" points="176.477,-83.9019 183.128,-75.6545 172.786,-77.9544 176.477,-83.9019"/>
</g>
<!-- Node39&#45;&gt;Node25 -->
<g id="edge69" class="edge"><title>Node39&#45;&gt;Node25</title>
<path fill="none" stroke="midnightblue" d="M1274.99,-170.7C1203.22,-160.888 1064.78,-141.962 985.56,-131.133"/>
<polygon fill="midnightblue" stroke="midnightblue" points="985.642,-127.611 975.26,-129.725 984.694,-134.547 985.642,-127.611"/>
</g>
<!-- Node40 -->
<g id="node41" class="node"><title>Node40</title>
<g id="a_node41"><a xlink:href="_mountable_path_8hpp.html" target="_top" xlink:title="System/MountablePath.hpp">
<polygon fill="white" stroke="black" points="1275.57,-112.5 1275.57,-131.5 1412.57,-131.5 1412.57,-112.5 1275.57,-112.5"/>
<text text-anchor="middle" x="1344.07" y="-119.5" font-family="Helvetica,sans-Serif" font-size="10.00">System/MountablePath.hpp</text>
</a>
</g>
</g>
<!-- Node39&#45;&gt;Node40 -->
<g id="edge70" class="edge"><title>Node39&#45;&gt;Node40</title>
<path fill="none" stroke="midnightblue" d="M1324.87,-168.083C1327.98,-160.77 1332.49,-150.181 1336.36,-141.103"/>
<polygon fill="midnightblue" stroke="midnightblue" points="1339.65,-142.323 1340.34,-131.751 1333.21,-139.58 1339.65,-142.323"/>
</g>
<!-- Node39&#45;&gt;Node41 -->
<g id="edge71" class="edge"><title>Node39&#45;&gt;Node41</title>
<path fill="none" stroke="midnightblue" d="M1355.61,-168.444C1393.32,-159.102 1453.81,-144.119 1494.94,-133.933"/>
<polygon fill="midnightblue" stroke="midnightblue" points="1495.83,-137.318 1504.69,-131.516 1494.14,-130.524 1495.83,-137.318"/>
</g>
<!-- Node41&#45;&gt;Node2 -->
<g id="edge72" class="edge"><title>Node41&#45;&gt;Node2</title>
<path fill="none" stroke="midnightblue" d="M1549.26,-112.459C1564.08,-99.0413 1588.17,-72.8216 1572.07,-56 1536.65,-18.993 740.596,-12.1861 572.904,-11.1614"/>
<polygon fill="midnightblue" stroke="midnightblue" points="572.803,-7.6608 562.782,-11.102 572.762,-14.6607 572.803,-7.6608"/>
</g>
<!-- Node41&#45;&gt;Node3 -->
<g id="edge73" class="edge"><title>Node41&#45;&gt;Node3</title>
<path fill="none" stroke="midnightblue" d="M1492.3,-117.007C1470.64,-115.268 1444.56,-113.327 1421.07,-112 986.803,-87.4558 876.591,-111.384 443.071,-76 430.045,-74.9368 415.737,-73.2278 403.399,-71.5833"/>
<polygon fill="midnightblue" stroke="midnightblue" points="403.529,-68.0684 393.146,-70.1725 402.575,-75.003 403.529,-68.0684"/>
</g>
<!-- Node41&#45;&gt;Node5 -->
<g id="edge75" class="edge"><title>Node41&#45;&gt;Node5</title>
<path fill="none" stroke="midnightblue" d="M1492.56,-117.445C1470.84,-115.787 1444.63,-113.789 1421.07,-112 1209.52,-95.9326 1156.21,-96.8126 945.071,-76 933.018,-74.8118 919.888,-73.2896 908.079,-71.8364"/>
<polygon fill="midnightblue" stroke="midnightblue" points="908.459,-68.3568 898.102,-70.5872 907.59,-75.3025 908.459,-68.3568"/>
</g>
<!-- Node41&#45;&gt;Node6 -->
<g id="edge74" class="edge"><title>Node41&#45;&gt;Node6</title>
<path fill="none" stroke="midnightblue" d="M1539.07,-112.083C1539.07,-105.006 1539.07,-94.8611 1539.07,-85.9865"/>
<polygon fill="midnightblue" stroke="midnightblue" points="1542.57,-85.751 1539.07,-75.7511 1535.57,-85.7511 1542.57,-85.751"/>
</g>
<!-- Node41&#45;&gt;Node16 -->
<g id="edge77" class="edge"><title>Node41&#45;&gt;Node16</title>
<path fill="none" stroke="midnightblue" d="M1527.34,-112.324C1516.23,-104.107 1499.33,-91.6017 1486.09,-81.8069"/>
<polygon fill="midnightblue" stroke="midnightblue" points="1488.13,-78.9671 1478.01,-75.8339 1483.97,-84.5948 1488.13,-78.9671"/>
</g>
<!-- Node42 -->
<g id="node43" class="node"><title>Node42</title>
<polygon fill="white" stroke="#bfbfbf" points="1620.07,-56.5 1620.07,-75.5 1688.07,-75.5 1688.07,-56.5 1620.07,-56.5"/>
<text text-anchor="middle" x="1654.07" y="-63.5" font-family="Helvetica,sans-Serif" font-size="10.00">sys/types.h</text>
</g>
<!-- Node41&#45;&gt;Node42 -->
<g id="edge76" class="edge"><title>Node41&#45;&gt;Node42</title>
<path fill="none" stroke="midnightblue" d="M1557.29,-112.444C1575.97,-103.675 1605.23,-89.9355 1626.69,-79.8579"/>
<polygon fill="midnightblue" stroke="midnightblue" points="1628.37,-82.935 1635.93,-75.5164 1625.4,-76.5988 1628.37,-82.935"/>
</g>
<!-- Node43 -->
<g id="node44" class="node"><title>Node43</title>
<polygon fill="white" stroke="#bfbfbf" points="1706.07,-56.5 1706.07,-75.5 1752.07,-75.5 1752.07,-56.5 1706.07,-56.5"/>
<text text-anchor="middle" x="1729.07" y="-63.5" font-family="Helvetica,sans-Serif" font-size="10.00">stdio.h</text>
</g>
<!-- Node41&#45;&gt;Node43 -->
<g id="edge78" class="edge"><title>Node41&#45;&gt;Node43</title>
<path fill="none" stroke="midnightblue" d="M1569.18,-112.444C1603.75,-102.618 1660.28,-86.5506 1696.04,-76.3882"/>
<polygon fill="midnightblue" stroke="midnightblue" points="1697.32,-79.6636 1705.98,-73.5631 1695.4,-72.9303 1697.32,-79.6636"/>
</g>
<!-- Node44 -->
<g id="node45" class="node"><title>Node44</title>
<polygon fill="white" stroke="#bfbfbf" points="1770.07,-56.5 1770.07,-75.5 1850.07,-75.5 1850.07,-56.5 1770.07,-56.5"/>
<text text-anchor="middle" x="1810.07" y="-63.5" font-family="Helvetica,sans-Serif" font-size="10.00">tinydir/tinydir.h</text>
</g>
<!-- Node41&#45;&gt;Node44 -->
<g id="edge79" class="edge"><title>Node41&#45;&gt;Node44</title>
<path fill="none" stroke="midnightblue" d="M1582.01,-112.444C1630.42,-102.797 1709.03,-87.1333 1760.14,-76.9488"/>
<polygon fill="midnightblue" stroke="midnightblue" points="1760.86,-80.3751 1769.98,-74.9883 1759.49,-73.5101 1760.86,-80.3751"/>
</g>
<!-- Node45 -->
<g id="node46" class="node"><title>Node45</title>
<polygon fill="white" stroke="#bfbfbf" points="1868.57,-56.5 1868.57,-75.5 1919.57,-75.5 1919.57,-56.5 1868.57,-56.5"/>
<text text-anchor="middle" x="1894.07" y="-63.5" font-family="Helvetica,sans-Serif" font-size="10.00">unistd.h</text>
</g>
<!-- Node41&#45;&gt;Node45 -->
<g id="edge80" class="edge"><title>Node41&#45;&gt;Node45</title>
<path fill="none" stroke="midnightblue" d="M1585.71,-116.099C1646.31,-109.367 1755.53,-95.9884 1858.58,-75.8856"/>
<polygon fill="midnightblue" stroke="midnightblue" points="1859.4,-79.2914 1868.53,-73.9192 1858.04,-72.4242 1859.4,-79.2914"/>
</g>
<!-- Node46&#45;&gt;Node25 -->
<g id="edge83" class="edge"><title>Node46&#45;&gt;Node25</title>
<path fill="none" stroke="midnightblue" d="M1070.26,-504.458C1056.79,-486.688 1028.07,-443.976 1028.07,-403 1028.07,-403 1028.07,-403 1028.07,-233 1028.07,-188.392 982.411,-154.234 952.19,-136.511"/>
<polygon fill="midnightblue" stroke="midnightblue" points="953.805,-133.404 943.374,-131.545 950.369,-139.503 953.805,-133.404"/>
</g>
</g>
</svg>
