<?xml version="1.0" encoding="UTF-8" standalone="no"?>
<!DOCTYPE svg PUBLIC "-//W3C//DTD SVG 1.1//EN"
 "http://www.w3.org/Graphics/SVG/1.1/DTD/svg11.dtd">
<!-- Generated by graphviz version 2.38.0 (20140413.2041)
 -->
<!-- Title: E:/Dev/ObEngine/Git/src/System/Path.cpp Pages: 1 -->
<svg width="883pt" height="207pt"
 viewBox="0.00 0.00 883.00 207.00" xmlns="http://www.w3.org/2000/svg" xmlns:xlink="http://www.w3.org/1999/xlink">
<g id="graph0" class="graph" transform="scale(1 1) rotate(0) translate(4 203)">
<title>E:/Dev/ObEngine/Git/src/System/Path.cpp</title>
<!-- Node0 -->
<g id="node1" class="node"><title>Node0</title>
<polygon fill="#bfbfbf" stroke="black" points="149.5,-168.5 149.5,-198.5 261.5,-198.5 261.5,-168.5 149.5,-168.5"/>
<text text-anchor="start" x="157.5" y="-186.5" font-family="Helvetica,sans-Serif" font-size="10.00">E:/Dev/ObEngine/Git</text>
<text text-anchor="middle" x="205.5" y="-175.5" font-family="Helvetica,sans-Serif" font-size="10.00">/src/System/Path.cpp</text>
</g>
<!-- Node1 -->
<g id="node2" class="node"><title>Node1</title>
<g id="a_node2"><a xlink:href="_path_8hpp.html" target="_top" xlink:title="System/Path.hpp">
<polygon fill="none" stroke="black" points="212.5,-112.5 212.5,-131.5 304.5,-131.5 304.5,-112.5 212.5,-112.5"/>
<text text-anchor="middle" x="258.5" y="-119.5" font-family="Helvetica,sans-Serif" font-size="10.00">System/Path.hpp</text>
</a>
</g>
</g>
<!-- Node0&#45;&gt;Node1 -->
<g id="edge1" class="edge"><title>Node0&#45;&gt;Node1</title>
<path fill="none" stroke="midnightblue" d="M218.06,-168.399C225.841,-159.664 235.864,-148.413 243.984,-139.296"/>
<polygon fill="midnightblue" stroke="midnightblue" points="246.75,-141.453 250.788,-131.658 241.523,-136.797 246.75,-141.453"/>
</g>
<!-- Node16 -->
<g id="node17" class="node"><title>Node16</title>
<g id="a_node17"><a xlink:href="_string_utils_8hpp.html" target="_top" xlink:title="Utils/StringUtils.hpp">
<polygon fill="none" stroke="black" points="0,-56.5 0,-75.5 103,-75.5 103,-56.5 0,-56.5"/>
<text text-anchor="middle" x="51.5" y="-63.5" font-family="Helvetica,sans-Serif" font-size="10.00">Utils/StringUtils.hpp</text>
</a>
</g>
</g>
<!-- Node0&#45;&gt;Node16 -->
<g id="edge19" class="edge"><title>Node0&#45;&gt;Node16</title>
<path fill="none" stroke="midnightblue" d="M186.617,-168.337C157.356,-146.392 101.326,-104.37 71.4374,-81.953"/>
<polygon fill="midnightblue" stroke="midnightblue" points="73.1593,-78.8695 63.0593,-75.6695 68.9593,-84.4695 73.1593,-78.8695"/>
</g>
<!-- Node2 -->
<g id="node3" class="node"><title>Node2</title>
<g id="a_node3"><a xlink:href="_error_handler_8hpp.html" target="_top" xlink:title="vili/ErrorHandler.hpp">
<polygon fill="none" stroke="black" points="276,-56.5 276,-75.5 379,-75.5 379,-56.5 276,-56.5"/>
<text text-anchor="middle" x="327.5" y="-63.5" font-family="Helvetica,sans-Serif" font-size="10.00">vili/ErrorHandler.hpp</text>
</a>
</g>
</g>
<!-- Node1&#45;&gt;Node2 -->
<g id="edge2" class="edge"><title>Node1&#45;&gt;Node2</title>
<path fill="none" stroke="midnightblue" d="M269.586,-112.324C279.986,-104.185 295.761,-91.8395 308.222,-82.0874"/>
<polygon fill="midnightblue" stroke="midnightblue" points="310.494,-84.7533 316.212,-75.8339 306.18,-79.2407 310.494,-84.7533"/>
</g>
<!-- Node8 -->
<g id="node9" class="node"><title>Node8</title>
<g id="a_node9"><a xlink:href="_mountable_path_8hpp.html" target="_top" xlink:title="System/MountablePath.hpp">
<polygon fill="none" stroke="black" points="121,-56.5 121,-75.5 258,-75.5 258,-56.5 121,-56.5"/>
<text text-anchor="middle" x="189.5" y="-63.5" font-family="Helvetica,sans-Serif" font-size="10.00">System/MountablePath.hpp</text>
</a>
</g>
</g>
<!-- Node1&#45;&gt;Node8 -->
<g id="edge8" class="edge"><title>Node1&#45;&gt;Node8</title>
<path fill="none" stroke="midnightblue" d="M247.414,-112.324C237.014,-104.185 221.239,-91.8395 208.778,-82.0874"/>
<polygon fill="midnightblue" stroke="midnightblue" points="210.82,-79.2407 200.788,-75.8339 206.506,-84.7533 210.82,-79.2407"/>
</g>
<!-- Node9 -->
<g id="node10" class="node"><title>Node9</title>
<g id="a_node10"><a xlink:href="_file_utils_8hpp.html" target="_top" xlink:title="Utils/FileUtils.hpp">
<polygon fill="none" stroke="black" points="432,-56.5 432,-75.5 525,-75.5 525,-56.5 432,-56.5"/>
<text text-anchor="middle" x="478.5" y="-63.5" font-family="Helvetica,sans-Serif" font-size="10.00">Utils/FileUtils.hpp</text>
</a>
</g>
</g>
<!-- Node1&#45;&gt;Node9 -->
<g id="edge9" class="edge"><title>Node1&#45;&gt;Node9</title>
<path fill="none" stroke="midnightblue" d="M293.36,-112.444C331.416,-103.102 392.458,-88.1194 433.96,-77.9326"/>
<polygon fill="midnightblue" stroke="midnightblue" points="434.926,-81.2994 443.803,-75.5164 433.257,-74.5012 434.926,-81.2994"/>
</g>
<!-- Node3 -->
<g id="node4" class="node"><title>Node3</title>
<polygon fill="none" stroke="#bfbfbf" points="221,-0.5 221,-19.5 262,-19.5 262,-0.5 221,-0.5"/>
<text text-anchor="middle" x="241.5" y="-7.5" font-family="Helvetica,sans-Serif" font-size="10.00">string</text>
</g>
<!-- Node2&#45;&gt;Node3 -->
<g id="edge3" class="edge"><title>Node2&#45;&gt;Node3</title>
<path fill="none" stroke="midnightblue" d="M313.683,-56.324C300.267,-47.9002 279.676,-34.9709 263.914,-25.0741"/>
<polygon fill="midnightblue" stroke="midnightblue" points="265.613,-22.0081 255.283,-19.6545 261.891,-27.9364 265.613,-22.0081"/>
</g>
<!-- Node4 -->
<g id="node5" class="node"><title>Node4</title>
<polygon fill="none" stroke="#bfbfbf" points="160.5,-0.5 160.5,-19.5 202.5,-19.5 202.5,-0.5 160.5,-0.5"/>
<text text-anchor="middle" x="181.5" y="-7.5" font-family="Helvetica,sans-Serif" font-size="10.00">vector</text>
</g>
<!-- Node2&#45;&gt;Node4 -->
<g id="edge4" class="edge"><title>Node2&#45;&gt;Node4</title>
<path fill="none" stroke="midnightblue" d="M304.366,-56.4435C279.445,-47.2262 239.672,-32.5157 212.161,-22.3402"/>
<polygon fill="midnightblue" stroke="midnightblue" points="213.223,-19.0015 202.63,-18.8151 210.795,-25.5668 213.223,-19.0015"/>
</g>
<!-- Node5 -->
<g id="node6" class="node"><title>Node5</title>
<polygon fill="none" stroke="#bfbfbf" points="107,-0.5 107,-19.5 142,-19.5 142,-0.5 107,-0.5"/>
<text text-anchor="middle" x="124.5" y="-7.5" font-family="Helvetica,sans-Serif" font-size="10.00">map</text>
</g>
<!-- Node2&#45;&gt;Node5 -->
<g id="edge5" class="edge"><title>Node2&#45;&gt;Node5</title>
<path fill="none" stroke="midnightblue" d="M290.888,-56.4465C257.168,-48.3897 205.567,-35.6113 151.856,-19.9415"/>
<polygon fill="midnightblue" stroke="midnightblue" points="152.743,-16.5542 142.162,-17.0881 150.766,-23.2694 152.743,-16.5542"/>
</g>
<!-- Node6 -->
<g id="node7" class="node"><title>Node6</title>
<polygon fill="none" stroke="#bfbfbf" points="357.5,-0.5 357.5,-19.5 411.5,-19.5 411.5,-0.5 357.5,-0.5"/>
<text text-anchor="middle" x="384.5" y="-7.5" font-family="Helvetica,sans-Serif" font-size="10.00">iostream</text>
</g>
<!-- Node2&#45;&gt;Node6 -->
<g id="edge6" class="edge"><title>Node2&#45;&gt;Node6</title>
<path fill="none" stroke="midnightblue" d="M336.658,-56.324C345.001,-48.4196 357.532,-36.5482 367.677,-26.9377"/>
<polygon fill="midnightblue" stroke="midnightblue" points="370.323,-29.2522 375.175,-19.8339 365.509,-24.1705 370.323,-29.2522"/>
</g>
<!-- Node7 -->
<g id="node8" class="node"><title>Node7</title>
<polygon fill="none" stroke="#bfbfbf" points="280,-0.5 280,-19.5 339,-19.5 339,-0.5 280,-0.5"/>
<text text-anchor="middle" x="309.5" y="-7.5" font-family="Helvetica,sans-Serif" font-size="10.00">exception</text>
</g>
<!-- Node2&#45;&gt;Node7 -->
<g id="edge7" class="edge"><title>Node2&#45;&gt;Node7</title>
<path fill="none" stroke="midnightblue" d="M324.528,-56.083C322.116,-48.8486 318.636,-38.4087 315.632,-29.3968"/>
<polygon fill="midnightblue" stroke="midnightblue" points="318.9,-28.1311 312.417,-19.7511 312.259,-30.3447 318.9,-28.1311"/>
</g>
<!-- Node9&#45;&gt;Node3 -->
<g id="edge10" class="edge"><title>Node9&#45;&gt;Node3</title>
<path fill="none" stroke="midnightblue" d="M433.598,-56.4711C393.437,-48.5775 332.791,-36.0079 271.817,-20.1835"/>
<polygon fill="midnightblue" stroke="midnightblue" points="272.592,-16.7685 262.031,-17.6161 270.815,-23.5394 272.592,-16.7685"/>
</g>
<!-- Node9&#45;&gt;Node4 -->
<g id="edge11" class="edge"><title>Node9&#45;&gt;Node4</title>
<path fill="none" stroke="midnightblue" d="M431.846,-58.9325C380.319,-51.8331 294.777,-38.8724 212.476,-19.9919"/>
<polygon fill="midnightblue" stroke="midnightblue" points="213.25,-16.5787 202.717,-17.7214 211.664,-23.3966 213.25,-16.5787"/>
</g>
<!-- Node9&#45;&gt;Node6 -->
<g id="edge13" class="edge"><title>Node9&#45;&gt;Node6</title>
<path fill="none" stroke="midnightblue" d="M463.397,-56.324C448.597,-47.8215 425.806,-34.7288 408.518,-24.7975"/>
<polygon fill="midnightblue" stroke="midnightblue" points="409.98,-21.6009 399.565,-19.6545 406.493,-27.6707 409.98,-21.6009"/>
</g>
<!-- Node10 -->
<g id="node11" class="node"><title>Node10</title>
<polygon fill="none" stroke="#bfbfbf" points="430,-0.5 430,-19.5 479,-19.5 479,-0.5 430,-0.5"/>
<text text-anchor="middle" x="454.5" y="-7.5" font-family="Helvetica,sans-Serif" font-size="10.00">fstream</text>
</g>
<!-- Node9&#45;&gt;Node10 -->
<g id="edge12" class="edge"><title>Node9&#45;&gt;Node10</title>
<path fill="none" stroke="midnightblue" d="M474.537,-56.083C471.287,-48.77 466.581,-38.1814 462.546,-29.1034"/>
<polygon fill="midnightblue" stroke="midnightblue" points="465.649,-27.4677 458.389,-19.7511 459.252,-30.3107 465.649,-27.4677"/>
</g>
<!-- Node11 -->
<g id="node12" class="node"><title>Node11</title>
<polygon fill="none" stroke="#bfbfbf" points="497.5,-0.5 497.5,-19.5 565.5,-19.5 565.5,-0.5 497.5,-0.5"/>
<text text-anchor="middle" x="531.5" y="-7.5" font-family="Helvetica,sans-Serif" font-size="10.00">sys/types.h</text>
</g>
<!-- Node9&#45;&gt;Node11 -->
<g id="edge14" class="edge"><title>Node9&#45;&gt;Node11</title>
<path fill="none" stroke="midnightblue" d="M487.252,-56.083C494.97,-48.2195 506.405,-36.5688 515.717,-27.0813"/>
<polygon fill="midnightblue" stroke="midnightblue" points="518.404,-29.3396 522.911,-19.7511 513.408,-24.4363 518.404,-29.3396"/>
</g>
<!-- Node12 -->
<g id="node13" class="node"><title>Node12</title>
<polygon fill="none" stroke="#bfbfbf" points="583.5,-0.5 583.5,-19.5 643.5,-19.5 643.5,-0.5 583.5,-0.5"/>
<text text-anchor="middle" x="613.5" y="-7.5" font-family="Helvetica,sans-Serif" font-size="10.00">sys/stat.h</text>
</g>
<!-- Node9&#45;&gt;Node12 -->
<g id="edge15" class="edge"><title>Node9&#45;&gt;Node12</title>
<path fill="none" stroke="midnightblue" d="M499.891,-56.4435C522.207,-47.5171 557.403,-33.4387 582.708,-23.3168"/>
<polygon fill="midnightblue" stroke="midnightblue" points="584.224,-26.4801 592.209,-19.5164 581.624,-19.9807 584.224,-26.4801"/>
</g>
<!-- Node13 -->
<g id="node14" class="node"><title>Node13</title>
<polygon fill="none" stroke="#bfbfbf" points="661.5,-0.5 661.5,-19.5 707.5,-19.5 707.5,-0.5 661.5,-0.5"/>
<text text-anchor="middle" x="684.5" y="-7.5" font-family="Helvetica,sans-Serif" font-size="10.00">stdio.h</text>
</g>
<!-- Node9&#45;&gt;Node13 -->
<g id="edge16" class="edge"><title>Node9&#45;&gt;Node13</title>
<path fill="none" stroke="midnightblue" d="M512.237,-56.4992C545.345,-48.1075 597.516,-34.7526 651.671,-20.1837"/>
<polygon fill="midnightblue" stroke="midnightblue" points="652.701,-23.5312 661.444,-17.5471 650.877,-16.7728 652.701,-23.5312"/>
</g>
<!-- Node14 -->
<g id="node15" class="node"><title>Node14</title>
<polygon fill="none" stroke="#bfbfbf" points="725.5,-0.5 725.5,-19.5 805.5,-19.5 805.5,-0.5 725.5,-0.5"/>
<text text-anchor="middle" x="765.5" y="-7.5" font-family="Helvetica,sans-Serif" font-size="10.00">tinydir/tinydir.h</text>
</g>
<!-- Node9&#45;&gt;Node14 -->
<g id="edge17" class="edge"><title>Node9&#45;&gt;Node14</title>
<path fill="none" stroke="midnightblue" d="M523.976,-56.4435C576.096,-46.6371 661.262,-30.6127 715.29,-20.4472"/>
<polygon fill="midnightblue" stroke="midnightblue" points="716.15,-23.8468 725.331,-18.558 714.856,-16.9675 716.15,-23.8468"/>
</g>
<!-- Node15 -->
<g id="node16" class="node"><title>Node15</title>
<polygon fill="none" stroke="#bfbfbf" points="824,-0.5 824,-19.5 875,-19.5 875,-0.5 824,-0.5"/>
<text text-anchor="middle" x="849.5" y="-7.5" font-family="Helvetica,sans-Serif" font-size="10.00">unistd.h</text>
</g>
<!-- Node9&#45;&gt;Node15 -->
<g id="edge18" class="edge"><title>Node9&#45;&gt;Node15</title>
<path fill="none" stroke="midnightblue" d="M525.256,-60.5082C588.518,-54.0411 705.025,-40.7568 814.11,-19.8524"/>
<polygon fill="midnightblue" stroke="midnightblue" points="814.816,-23.2809 823.965,-17.9388 813.481,-16.4092 814.816,-23.2809"/>
</g>
<!-- Node16&#45;&gt;Node3 -->
<g id="edge21" class="edge"><title>Node16&#45;&gt;Node3</title>
<path fill="none" stroke="midnightblue" d="M82.5171,-56.4475C112.831,-48.0514 160.529,-34.7407 211.056,-20.092"/>
<polygon fill="midnightblue" stroke="midnightblue" points="212.231,-23.3955 220.857,-17.244 210.278,-16.6736 212.231,-23.3955"/>
</g>
<!-- Node16&#45;&gt;Node4 -->
<g id="edge22" class="edge"><title>Node16&#45;&gt;Node4</title>
<path fill="none" stroke="midnightblue" d="M72.0989,-56.4435C93.4934,-47.5566 127.181,-33.5632 151.524,-23.4514"/>
<polygon fill="midnightblue" stroke="midnightblue" points="153.105,-26.5848 160.997,-19.5164 150.42,-20.1203 153.105,-26.5848"/>
</g>
<!-- Node17 -->
<g id="node18" class="node"><title>Node17</title>
<polygon fill="none" stroke="#bfbfbf" points="32.5,-0.5 32.5,-19.5 70.5,-19.5 70.5,-0.5 32.5,-0.5"/>
<text text-anchor="middle" x="51.5" y="-7.5" font-family="Helvetica,sans-Serif" font-size="10.00">tuple</text>
</g>
<!-- Node16&#45;&gt;Node17 -->
<g id="edge20" class="edge"><title>Node16&#45;&gt;Node17</title>
<path fill="none" stroke="midnightblue" d="M51.5,-56.083C51.5,-49.0059 51.5,-38.8611 51.5,-29.9865"/>
<polygon fill="midnightblue" stroke="midnightblue" points="55.0001,-29.751 51.5,-19.7511 48.0001,-29.7511 55.0001,-29.751"/>
</g>
</g>
</svg>
