<?xml version="1.0" encoding="UTF-8" standalone="no"?>
<!DOCTYPE svg PUBLIC "-//W3C//DTD SVG 1.1//EN"
 "http://www.w3.org/Graphics/SVG/1.1/DTD/svg11.dtd">
<!-- Generated by graphviz version 2.38.0 (20140413.2041)
 -->
<!-- Title: E:/Dev/ObEngine/Git/src/Sound/Sound.cpp Pages: 1 -->
<!--zoomable 655 -->
<svg id="main" version="1.1" xmlns="http://www.w3.org/2000/svg" xmlns:xlink="http://www.w3.org/1999/xlink" xml:space="preserve" onload="init(evt)">
<style type="text/css"><![CDATA[
.edge:hover path { stroke: red; }
.edge:hover polygon { stroke: red; fill: red; }
.edge path { stroke: white; }
.edge polygon { stroke: white; fill: white; }
.node polygon { fill: white; }
]]></style>
<script type="text/javascript"><![CDATA[
var edges = document.getElementsByTagName('g');
if (edges && edges.length) {
  for (var i=0;i<edges.length;i++) {
    if (edges[i].id.substr(0,4)=='edge') {
      edges[i].setAttribute('class','edge');
    }
  }
}
]]></script>
        <defs>
                <circle id="rim" cx="0" cy="0" r="7"/>
                <circle id="rim2" cx="0" cy="0" r="3.5"/>
                <g id="zoomPlus">
                        <use xlink:href="#rim" fill="#404040">
                                <set attributeName="fill" to="#808080" begin="zoomplus.mouseover" end="zoomplus.mouseout"/>
                        </use>
                        <path d="M-4,0h8M0,-4v8" fill="none" stroke="white" stroke-width="1.5" pointer-events="none"/>
                </g>
                <g id="zoomMin">
                        <use xlink:href="#rim" fill="#404040">
                                <set attributeName="fill" to="#808080" begin="zoomminus.mouseover" end="zoomminus.mouseout"/>
                        </use>
                        <path d="M-4,0h8" fill="none" stroke="white" stroke-width="1.5" pointer-events="none"/>
                </g>
                <g id="dirArrow">
                        <path fill="none" stroke="white" stroke-width="1.5" d="M0,-3.0v7 M-2.5,-0.5L0,-3.0L2.5,-0.5"/>
                </g>
               <g id="resetDef">
                       <use xlink:href="#rim2" fill="#404040">
                               <set attributeName="fill" to="#808080" begin="reset.mouseover" end="reset.mouseout"/>
                       </use>
               </g>
        </defs>

<script type="text/javascript">
var viewWidth = 1262;
var viewHeight = 655;
var sectionId = 'dynsection-0';
</script>
<script xlink:href="svgpan.js"/>
<svg id="graph" class="graph">
<g id="viewport">
<title>E:/Dev/ObEngine/Git/src/Sound/Sound.cpp</title>
<!-- Node0 -->
<g id="node1" class="node"><title>Node0</title>
<polygon fill="#bfbfbf" stroke="black" points="168.5,-616.5 168.5,-646.5 281.5,-646.5 281.5,-616.5 168.5,-616.5"/>
<text text-anchor="start" x="176.5" y="-634.5" font-family="Helvetica,sans-Serif" font-size="10.00">E:/Dev/ObEngine/Git</text>
<text text-anchor="middle" x="225" y="-623.5" font-family="Helvetica,sans-Serif" font-size="10.00">/src/Sound/Sound.cpp</text>
</g>
<!-- Node1 -->
<g id="node2" class="node"><title>Node1</title>
<g id="a_node2"><a xlink:href="_sound_8hpp.html" target="_top" xlink:title="Sound/Sound.hpp">
<polygon fill="none" stroke="black" points="26,-560.5 26,-579.5 120,-579.5 120,-560.5 26,-560.5"/>
<text text-anchor="middle" x="73" y="-567.5" font-family="Helvetica,sans-Serif" font-size="10.00">Sound/Sound.hpp</text>
</a>
</g>
</g>
<!-- Node0&#45;&gt;Node1 -->
<g id="edge1" class="edge"><title>Node0&#45;&gt;Node1</title>
<path fill="none" stroke="midnightblue" d="M188.978,-616.399C163.361,-606.372 129.273,-593.028 104.69,-583.405"/>
<polygon fill="midnightblue" stroke="midnightblue" points="105.705,-580.044 95.1173,-579.658 103.154,-586.562 105.705,-580.044"/>
</g>
<!-- Node4 -->
<g id="node5" class="node"><title>Node4</title>
<g id="a_node5"><a xlink:href="_loaders_8hpp.html" target="_top" xlink:title="System/Loaders.hpp">
<polygon fill="none" stroke="black" points="171.5,-560.5 171.5,-579.5 278.5,-579.5 278.5,-560.5 171.5,-560.5"/>
<text text-anchor="middle" x="225" y="-567.5" font-family="Helvetica,sans-Serif" font-size="10.00">System/Loaders.hpp</text>
</a>
</g>
</g>
<!-- Node0&#45;&gt;Node4 -->
<g id="edge4" class="edge"><title>Node0&#45;&gt;Node4</title>
<path fill="none" stroke="midnightblue" d="M225,-616.399C225,-608.466 225,-598.458 225,-589.858"/>
<polygon fill="midnightblue" stroke="midnightblue" points="228.5,-589.658 225,-579.658 221.5,-589.658 228.5,-589.658"/>
</g>
<!-- Node30 -->
<g id="node31" class="node"><title>Node30</title>
<g id="a_node31"><a xlink:href="_path_8hpp.html" target="_top" xlink:title="System/Path.hpp">
<polygon fill="none" stroke="black" points="780,-168.5 780,-187.5 872,-187.5 872,-168.5 780,-168.5"/>
<text text-anchor="middle" x="826" y="-175.5" font-family="Helvetica,sans-Serif" font-size="10.00">System/Path.hpp</text>
</a>
</g>
</g>
<!-- Node0&#45;&gt;Node30 -->
<g id="edge55" class="edge"><title>Node0&#45;&gt;Node30</title>
<path fill="none" stroke="midnightblue" d="M281.696,-631.164C428.201,-631.364 808,-621.6 808,-515 808,-515 808,-515 808,-289 808,-256.537 815.73,-219.384 821.058,-197.628"/>
<polygon fill="midnightblue" stroke="midnightblue" points="824.495,-198.315 823.572,-187.76 817.712,-196.587 824.495,-198.315"/>
</g>
<!-- Node2 -->
<g id="node3" class="node"><title>Node2</title>
<polygon fill="none" stroke="#bfbfbf" points="310.5,-56.5 310.5,-75.5 345.5,-75.5 345.5,-56.5 310.5,-56.5"/>
<text text-anchor="middle" x="328" y="-63.5" font-family="Helvetica,sans-Serif" font-size="10.00">map</text>
</g>
<!-- Node1&#45;&gt;Node2 -->
<g id="edge2" class="edge"><title>Node1&#45;&gt;Node2</title>
<path fill="none" stroke="midnightblue" d="M58.5396,-560.435C46.2994,-552.469 29.1689,-539.514 19,-524 2.50012,-498.828 0,-489.098 0,-459 0,-459 0,-459 0,-289 0,-162.115 115.075,-177.078 224,-112 248.785,-97.1918 279.332,-84.573 300.889,-76.5"/>
<polygon fill="midnightblue" stroke="midnightblue" points="302.211,-79.7432 310.396,-73.0158 299.802,-73.1707 302.211,-79.7432"/>
</g>
<!-- Node3 -->
<g id="node4" class="node"><title>Node3</title>
<polygon fill="none" stroke="#bfbfbf" points="28.5,-504.5 28.5,-523.5 117.5,-523.5 117.5,-504.5 28.5,-504.5"/>
<text text-anchor="middle" x="73" y="-511.5" font-family="Helvetica,sans-Serif" font-size="10.00">SFML/Audio.hpp</text>
</g>
<!-- Node1&#45;&gt;Node3 -->
<g id="edge3" class="edge"><title>Node1&#45;&gt;Node3</title>
<path fill="none" stroke="midnightblue" d="M73,-560.083C73,-553.006 73,-542.861 73,-533.986"/>
<polygon fill="midnightblue" stroke="midnightblue" points="76.5001,-533.751 73,-523.751 69.5001,-533.751 76.5001,-533.751"/>
</g>
<!-- Node4&#45;&gt;Node3 -->
<g id="edge7" class="edge"><title>Node4&#45;&gt;Node3</title>
<path fill="none" stroke="midnightblue" d="M200.915,-560.444C175.455,-551.399 135.106,-537.064 106.541,-526.916"/>
<polygon fill="midnightblue" stroke="midnightblue" points="107.567,-523.566 96.9722,-523.516 105.223,-530.162 107.567,-523.566"/>
</g>
<!-- Node5 -->
<g id="node6" class="node"><title>Node5</title>
<polygon fill="none" stroke="#bfbfbf" points="496.5,-0.5 496.5,-19.5 537.5,-19.5 537.5,-0.5 496.5,-0.5"/>
<text text-anchor="middle" x="517" y="-7.5" font-family="Helvetica,sans-Serif" font-size="10.00">string</text>
</g>
<!-- Node4&#45;&gt;Node5 -->
<g id="edge5" class="edge"><title>Node4&#45;&gt;Node5</title>
<path fill="none" stroke="midnightblue" d="M210.945,-560.436C167.456,-533.449 38,-449.233 38,-403 38,-403 38,-403 38,-289 38,-185.23 -19.1785,-130.555 53,-56 83.1144,-24.894 387.061,-14.3488 486.032,-11.725"/>
<polygon fill="midnightblue" stroke="midnightblue" points="486.367,-15.2177 496.274,-11.4627 486.187,-8.22001 486.367,-15.2177"/>
</g>
<!-- Node6 -->
<g id="node7" class="node"><title>Node6</title>
<polygon fill="none" stroke="#bfbfbf" points="174.5,-504.5 174.5,-523.5 275.5,-523.5 275.5,-504.5 174.5,-504.5"/>
<text text-anchor="middle" x="225" y="-511.5" font-family="Helvetica,sans-Serif" font-size="10.00">kaguya/kaguya.hpp</text>
</g>
<!-- Node4&#45;&gt;Node6 -->
<g id="edge6" class="edge"><title>Node4&#45;&gt;Node6</title>
<path fill="none" stroke="midnightblue" d="M225,-560.083C225,-553.006 225,-542.861 225,-533.986"/>
<polygon fill="midnightblue" stroke="midnightblue" points="228.5,-533.751 225,-523.751 221.5,-533.751 228.5,-533.751"/>
</g>
<!-- Node7 -->
<g id="node8" class="node"><title>Node7</title>
<polygon fill="none" stroke="#bfbfbf" points="294,-504.5 294,-523.5 398,-523.5 398,-504.5 294,-504.5"/>
<text text-anchor="middle" x="346" y="-511.5" font-family="Helvetica,sans-Serif" font-size="10.00">SFML/Graphics.hpp</text>
</g>
<!-- Node4&#45;&gt;Node7 -->
<g id="edge8" class="edge"><title>Node4&#45;&gt;Node7</title>
<path fill="none" stroke="midnightblue" d="M244.173,-560.444C263.909,-551.636 294.885,-537.812 317.493,-527.722"/>
<polygon fill="midnightblue" stroke="midnightblue" points="319.211,-530.788 326.917,-523.516 316.359,-524.396 319.211,-530.788"/>
</g>
<!-- Node8 -->
<g id="node9" class="node"><title>Node8</title>
<g id="a_node9"><a xlink:href="_vili_8hpp.html" target="_top" xlink:title="vili/Vili.hpp">
<polygon fill="none" stroke="black" points="427,-504.5 427,-523.5 489,-523.5 489,-504.5 427,-504.5"/>
<text text-anchor="middle" x="458" y="-511.5" font-family="Helvetica,sans-Serif" font-size="10.00">vili/Vili.hpp</text>
</a>
</g>
</g>
<!-- Node4&#45;&gt;Node8 -->
<g id="edge9" class="edge"><title>Node4&#45;&gt;Node8</title>
<path fill="none" stroke="midnightblue" d="M261.92,-560.444C304.181,-550.649 373.206,-534.652 417.076,-524.484"/>
<polygon fill="midnightblue" stroke="midnightblue" points="417.894,-527.888 426.846,-522.22 416.314,-521.069 417.894,-527.888"/>
</g>
<!-- Node9 -->
<g id="node10" class="node"><title>Node9</title>
<g id="a_node10"><a xlink:href="_data_parser_8hpp.html" target="_top" xlink:title="vili/DataParser.hpp">
<polygon fill="none" stroke="black" points="409,-448.5 409,-467.5 507,-467.5 507,-448.5 409,-448.5"/>
<text text-anchor="middle" x="458" y="-455.5" font-family="Helvetica,sans-Serif" font-size="10.00">vili/DataParser.hpp</text>
</a>
</g>
</g>
<!-- Node8&#45;&gt;Node9 -->
<g id="edge10" class="edge"><title>Node8&#45;&gt;Node9</title>
<path fill="none" stroke="midnightblue" d="M458,-504.083C458,-497.006 458,-486.861 458,-477.986"/>
<polygon fill="midnightblue" stroke="midnightblue" points="461.5,-477.751 458,-467.751 454.5,-477.751 461.5,-477.751"/>
</g>
<!-- Node15 -->
<g id="node16" class="node"><title>Node15</title>
<g id="a_node16"><a xlink:href="_error_handler_8hpp.html" target="_top" xlink:title="../ErrorHandler.hpp">
<polygon fill="none" stroke="black" points="596,-112.5 596,-131.5 694,-131.5 694,-112.5 596,-112.5"/>
<text text-anchor="middle" x="645" y="-119.5" font-family="Helvetica,sans-Serif" font-size="10.00">../ErrorHandler.hpp</text>
</a>
</g>
</g>
<!-- Node8&#45;&gt;Node15 -->
<g id="edge46" class="edge"><title>Node8&#45;&gt;Node15</title>
<path fill="none" stroke="midnightblue" d="M489.185,-508.155C564.849,-495.524 752,-458.655 752,-403 752,-403 752,-403 752,-233 752,-187.413 704.197,-153.624 672.494,-136.227"/>
<polygon fill="midnightblue" stroke="midnightblue" points="674.116,-133.125 663.638,-131.559 670.852,-139.318 674.116,-133.125"/>
</g>
<!-- Node25 -->
<g id="node26" class="node"><title>Node25</title>
<g id="a_node26"><a xlink:href="_link_attribute_8hpp.html" target="_top" xlink:title="LinkAttribute.hpp">
<polygon fill="none" stroke="black" points="500,-336.5 500,-355.5 590,-355.5 590,-336.5 500,-336.5"/>
<text text-anchor="middle" x="545" y="-343.5" font-family="Helvetica,sans-Serif" font-size="10.00">LinkAttribute.hpp</text>
</a>
</g>
</g>
<!-- Node8&#45;&gt;Node25 -->
<g id="edge45" class="edge"><title>Node8&#45;&gt;Node25</title>
<path fill="none" stroke="midnightblue" d="M474.531,-504.35C487.744,-496.582 505.703,-483.956 516,-468 536.62,-436.048 542.594,-390.823 544.315,-365.688"/>
<polygon fill="midnightblue" stroke="midnightblue" points="547.811,-365.844 544.843,-355.674 540.821,-365.475 547.811,-365.844"/>
</g>
<!-- Node26 -->
<g id="node27" class="node"><title>Node26</title>
<g id="a_node27"><a xlink:href="_functions_8hpp.html" target="_top" xlink:title="Functions.hpp">
<polygon fill="none" stroke="black" points="62,-112.5 62,-131.5 140,-131.5 140,-112.5 62,-112.5"/>
<text text-anchor="middle" x="101" y="-119.5" font-family="Helvetica,sans-Serif" font-size="10.00">Functions.hpp</text>
</a>
</g>
</g>
<!-- Node8&#45;&gt;Node26 -->
<g id="edge47" class="edge"><title>Node8&#45;&gt;Node26</title>
<path fill="none" stroke="midnightblue" d="M426.739,-507.373C335.507,-490.526 76,-439.405 76,-403 76,-403 76,-403 76,-233 76,-199.995 86.8343,-162.774 94.2382,-141.192"/>
<polygon fill="midnightblue" stroke="midnightblue" points="97.5653,-142.282 97.6284,-131.687 90.9721,-139.93 97.5653,-142.282"/>
</g>
<!-- Node10 -->
<g id="node11" class="node"><title>Node10</title>
<g id="a_node11"><a xlink:href="_complex_attribute_8hpp.html" target="_top" xlink:title="ComplexAttribute.hpp">
<polygon fill="none" stroke="black" points="338,-280.5 338,-299.5 448,-299.5 448,-280.5 338,-280.5"/>
<text text-anchor="middle" x="393" y="-287.5" font-family="Helvetica,sans-Serif" font-size="10.00">ComplexAttribute.hpp</text>
</a>
</g>
</g>
<!-- Node9&#45;&gt;Node10 -->
<g id="edge11" class="edge"><title>Node9&#45;&gt;Node10</title>
<path fill="none" stroke="midnightblue" d="M445.246,-448.227C434.54,-440.127 419.782,-427.093 412,-412 395.006,-379.042 392.348,-334.84 392.38,-310.005"/>
<polygon fill="midnightblue" stroke="midnightblue" points="395.883,-309.842 392.552,-299.784 388.884,-309.724 395.883,-309.842"/>
</g>
<!-- Node24 -->
<g id="node25" class="node"><title>Node24</title>
<g id="a_node25"><a xlink:href="_data_template_8hpp.html" target="_top" xlink:title="DataTemplate.hpp">
<polygon fill="none" stroke="black" points="421.5,-392.5 421.5,-411.5 516.5,-411.5 516.5,-392.5 421.5,-392.5"/>
<text text-anchor="middle" x="469" y="-399.5" font-family="Helvetica,sans-Serif" font-size="10.00">DataTemplate.hpp</text>
</a>
</g>
</g>
<!-- Node9&#45;&gt;Node24 -->
<g id="edge38" class="edge"><title>Node9&#45;&gt;Node24</title>
<path fill="none" stroke="midnightblue" d="M459.816,-448.083C461.274,-440.927 463.371,-430.635 465.193,-421.691"/>
<polygon fill="midnightblue" stroke="midnightblue" points="468.651,-422.248 467.217,-411.751 461.792,-420.851 468.651,-422.248"/>
</g>
<!-- Node10&#45;&gt;Node2 -->
<g id="edge13" class="edge"><title>Node10&#45;&gt;Node2</title>
<path fill="none" stroke="midnightblue" d="M337.961,-287.492C269.556,-284.322 158.666,-274.49 133,-244 102.808,-208.133 246.135,-116.139 304.343,-80.964"/>
<polygon fill="midnightblue" stroke="midnightblue" points="306.452,-83.7809 313.229,-75.6371 302.852,-77.7771 306.452,-83.7809"/>
</g>
<!-- Node11 -->
<g id="node12" class="node"><title>Node11</title>
<polygon fill="none" stroke="#bfbfbf" points="370,-224.5 370,-243.5 428,-243.5 428,-224.5 370,-224.5"/>
<text text-anchor="middle" x="399" y="-231.5" font-family="Helvetica,sans-Serif" font-size="10.00">functional</text>
</g>
<!-- Node10&#45;&gt;Node11 -->
<g id="edge12" class="edge"><title>Node10&#45;&gt;Node11</title>
<path fill="none" stroke="midnightblue" d="M393.991,-280.083C394.786,-272.927 395.929,-262.635 396.923,-253.691"/>
<polygon fill="midnightblue" stroke="midnightblue" points="400.402,-254.076 398.028,-243.751 393.445,-253.303 400.402,-254.076"/>
</g>
<!-- Node12 -->
<g id="node13" class="node"><title>Node12</title>
<polygon fill="none" stroke="#bfbfbf" points="336,-168.5 336,-187.5 388,-187.5 388,-168.5 336,-168.5"/>
<text text-anchor="middle" x="362" y="-175.5" font-family="Helvetica,sans-Serif" font-size="10.00">memory</text>
</g>
<!-- Node10&#45;&gt;Node12 -->
<g id="edge14" class="edge"><title>Node10&#45;&gt;Node12</title>
<path fill="none" stroke="midnightblue" d="M384.249,-280.286C376.437,-271.84 365.549,-258.246 361,-244 356.221,-229.032 356.935,-211.121 358.582,-197.894"/>
<polygon fill="midnightblue" stroke="midnightblue" points="362.094,-198.084 360.154,-187.668 355.175,-197.02 362.094,-198.084"/>
</g>
<!-- Node13 -->
<g id="node14" class="node"><title>Node13</title>
<polygon fill="none" stroke="#bfbfbf" points="366,-56.5 366,-75.5 408,-75.5 408,-56.5 366,-56.5"/>
<text text-anchor="middle" x="387" y="-63.5" font-family="Helvetica,sans-Serif" font-size="10.00">vector</text>
</g>
<!-- Node10&#45;&gt;Node13 -->
<g id="edge15" class="edge"><title>Node10&#45;&gt;Node13</title>
<path fill="none" stroke="midnightblue" d="M384.12,-280.316C368.265,-264.028 335.912,-227.003 327,-188 317.743,-147.487 350.062,-105.073 370.826,-82.8093"/>
<polygon fill="midnightblue" stroke="midnightblue" points="373.407,-85.1754 377.855,-75.5593 368.382,-80.3029 373.407,-85.1754"/>
</g>
<!-- Node14 -->
<g id="node15" class="node"><title>Node14</title>
<g id="a_node15"><a xlink:href="_base_attribute_8hpp.html" target="_top" xlink:title="BaseAttribute.hpp">
<polygon fill="none" stroke="black" points="578.5,-168.5 578.5,-187.5 673.5,-187.5 673.5,-168.5 578.5,-168.5"/>
<text text-anchor="middle" x="626" y="-175.5" font-family="Helvetica,sans-Serif" font-size="10.00">BaseAttribute.hpp</text>
</a>
</g>
</g>
<!-- Node10&#45;&gt;Node14 -->
<g id="edge16" class="edge"><title>Node10&#45;&gt;Node14</title>
<path fill="none" stroke="midnightblue" d="M448.242,-286.187C488.128,-281.815 541.67,-270.913 581,-244 598.118,-232.286 610.708,-211.751 618.15,-196.891"/>
<polygon fill="midnightblue" stroke="midnightblue" points="621.389,-198.228 622.472,-187.688 615.053,-195.252 621.389,-198.228"/>
</g>
<!-- Node20 -->
<g id="node21" class="node"><title>Node20</title>
<g id="a_node21"><a xlink:href="_container_attribute_8hpp.html" target="_top" xlink:title="ContainerAttribute.hpp">
<polygon fill="none" stroke="black" points="447.5,-168.5 447.5,-187.5 560.5,-187.5 560.5,-168.5 447.5,-168.5"/>
<text text-anchor="middle" x="504" y="-175.5" font-family="Helvetica,sans-Serif" font-size="10.00">ContainerAttribute.hpp</text>
</a>
</g>
</g>
<!-- Node10&#45;&gt;Node20 -->
<g id="edge27" class="edge"><title>Node10&#45;&gt;Node20</title>
<path fill="none" stroke="midnightblue" d="M401.71,-280.368C420.352,-261.894 464.35,-218.293 488.113,-194.744"/>
<polygon fill="midnightblue" stroke="midnightblue" points="490.691,-197.117 495.33,-187.591 485.764,-192.144 490.691,-197.117"/>
</g>
<!-- Node21 -->
<g id="node22" class="node"><title>Node21</title>
<g id="a_node22"><a xlink:href="_list_attribute_8hpp.html" target="_top" xlink:title="ListAttribute.hpp">
<polygon fill="none" stroke="black" points="484,-224.5 484,-243.5 572,-243.5 572,-224.5 484,-224.5"/>
<text text-anchor="middle" x="528" y="-231.5" font-family="Helvetica,sans-Serif" font-size="10.00">ListAttribute.hpp</text>
</a>
</g>
</g>
<!-- Node10&#45;&gt;Node21 -->
<g id="edge29" class="edge"><title>Node10&#45;&gt;Node21</title>
<path fill="none" stroke="midnightblue" d="M414.391,-280.444C436.707,-271.517 471.903,-257.439 497.208,-247.317"/>
<polygon fill="midnightblue" stroke="midnightblue" points="498.724,-250.48 506.709,-243.516 496.124,-243.981 498.724,-250.48"/>
</g>
<!-- Node22 -->
<g id="node23" class="node"><title>Node22</title>
<g id="a_node23"><a xlink:href="_node_iterator_8hpp.html" target="_top" xlink:title="NodeIterator.hpp">
<polygon fill="none" stroke="black" points="188,-168.5 188,-187.5 276,-187.5 276,-168.5 188,-168.5"/>
<text text-anchor="middle" x="232" y="-175.5" font-family="Helvetica,sans-Serif" font-size="10.00">NodeIterator.hpp</text>
</a>
</g>
</g>
<!-- Node10&#45;&gt;Node22 -->
<g id="edge34" class="edge"><title>Node10&#45;&gt;Node22</title>
<path fill="none" stroke="midnightblue" d="M365.07,-280.475C343.327,-273.003 313.07,-260.718 290,-244 271.515,-230.605 254.665,-210.41 243.948,-196.089"/>
<polygon fill="midnightblue" stroke="midnightblue" points="246.539,-193.7 237.836,-187.658 240.871,-197.808 246.539,-193.7"/>
</g>
<!-- Node23 -->
<g id="node24" class="node"><title>Node23</title>
<g id="a_node24"><a xlink:href="_node_validator_8hpp.html" target="_top" xlink:title="NodeValidator.hpp">
<polygon fill="none" stroke="black" points="142,-224.5 142,-243.5 238,-243.5 238,-224.5 142,-224.5"/>
<text text-anchor="middle" x="190" y="-231.5" font-family="Helvetica,sans-Serif" font-size="10.00">NodeValidator.hpp</text>
</a>
</g>
</g>
<!-- Node10&#45;&gt;Node23 -->
<g id="edge36" class="edge"><title>Node10&#45;&gt;Node23</title>
<path fill="none" stroke="midnightblue" d="M360.834,-280.444C325.941,-271.162 270.107,-256.309 231.829,-246.127"/>
<polygon fill="midnightblue" stroke="midnightblue" points="232.579,-242.705 222.015,-243.516 230.78,-249.47 232.579,-242.705"/>
</g>
<!-- Node14&#45;&gt;Node15 -->
<g id="edge17" class="edge"><title>Node14&#45;&gt;Node15</title>
<path fill="none" stroke="midnightblue" d="M629.137,-168.083C631.683,-160.849 635.356,-150.409 638.527,-141.397"/>
<polygon fill="midnightblue" stroke="midnightblue" points="641.903,-142.346 641.921,-131.751 635.3,-140.023 641.903,-142.346"/>
</g>
<!-- Node18 -->
<g id="node19" class="node"><title>Node18</title>
<g id="a_node19"><a xlink:href="_attribute_8hpp.html" target="_top" xlink:title="Attribute.hpp">
<polygon fill="none" stroke="black" points="468,-112.5 468,-131.5 540,-131.5 540,-112.5 468,-112.5"/>
<text text-anchor="middle" x="504" y="-119.5" font-family="Helvetica,sans-Serif" font-size="10.00">Attribute.hpp</text>
</a>
</g>
</g>
<!-- Node14&#45;&gt;Node18 -->
<g id="edge23" class="edge"><title>Node14&#45;&gt;Node18</title>
<path fill="none" stroke="midnightblue" d="M606.669,-168.444C586.68,-159.596 555.257,-145.687 532.436,-135.586"/>
<polygon fill="midnightblue" stroke="midnightblue" points="533.802,-132.363 523.241,-131.516 530.968,-138.764 533.802,-132.363"/>
</g>
<!-- Node15&#45;&gt;Node2 -->
<g id="edge20" class="edge"><title>Node15&#45;&gt;Node2</title>
<path fill="none" stroke="midnightblue" d="M595.919,-115.545C538.262,-108.629 439.943,-95.242 357,-76 356.538,-75.8928 356.072,-75.782 355.604,-75.668"/>
<polygon fill="midnightblue" stroke="midnightblue" points="356.249,-72.2152 345.678,-72.9354 354.391,-78.9641 356.249,-72.2152"/>
</g>
<!-- Node15&#45;&gt;Node5 -->
<g id="edge18" class="edge"><title>Node15&#45;&gt;Node5</title>
<path fill="none" stroke="midnightblue" d="M649.046,-112.485C654.748,-99.1021 663.174,-72.9298 651,-56 627.573,-23.4204 579.404,-14.101 547.658,-11.6196"/>
<polygon fill="midnightblue" stroke="midnightblue" points="547.772,-8.12024 537.581,-11.0164 547.354,-15.1077 547.772,-8.12024"/>
</g>
<!-- Node15&#45;&gt;Node13 -->
<g id="edge19" class="edge"><title>Node15&#45;&gt;Node13</title>
<path fill="none" stroke="midnightblue" d="M595.578,-112.481C549.411,-104.222 478.697,-90.7975 418,-76 417.901,-75.9759 417.802,-75.9518 417.703,-75.9275"/>
<polygon fill="midnightblue" stroke="midnightblue" points="418.842,-72.6082 408.28,-73.4418 417.057,-79.3767 418.842,-72.6082"/>
</g>
<!-- Node16 -->
<g id="node17" class="node"><title>Node16</title>
<polygon fill="none" stroke="#bfbfbf" points="699,-56.5 699,-75.5 753,-75.5 753,-56.5 699,-56.5"/>
<text text-anchor="middle" x="726" y="-63.5" font-family="Helvetica,sans-Serif" font-size="10.00">iostream</text>
</g>
<!-- Node15&#45;&gt;Node16 -->
<g id="edge21" class="edge"><title>Node15&#45;&gt;Node16</title>
<path fill="none" stroke="midnightblue" d="M658.014,-112.324C670.532,-103.979 689.682,-91.2122 704.471,-81.3524"/>
<polygon fill="midnightblue" stroke="midnightblue" points="706.639,-84.1137 713.018,-75.6545 702.756,-78.2894 706.639,-84.1137"/>
</g>
<!-- Node17 -->
<g id="node18" class="node"><title>Node17</title>
<polygon fill="none" stroke="#bfbfbf" points="583.5,-56.5 583.5,-75.5 642.5,-75.5 642.5,-56.5 583.5,-56.5"/>
<text text-anchor="middle" x="613" y="-63.5" font-family="Helvetica,sans-Serif" font-size="10.00">exception</text>
</g>
<!-- Node15&#45;&gt;Node17 -->
<g id="edge22" class="edge"><title>Node15&#45;&gt;Node17</title>
<path fill="none" stroke="midnightblue" d="M639.716,-112.083C635.289,-104.613 628.837,-93.7244 623.382,-84.5199"/>
<polygon fill="midnightblue" stroke="midnightblue" points="626.295,-82.5697 618.186,-75.7511 620.273,-86.1383 626.295,-82.5697"/>
</g>
<!-- Node18&#45;&gt;Node5 -->
<g id="edge24" class="edge"><title>Node18&#45;&gt;Node5</title>
<path fill="none" stroke="midnightblue" d="M505.02,-112.368C507.118,-94.617 511.958,-53.6664 514.802,-29.5974"/>
<polygon fill="midnightblue" stroke="midnightblue" points="518.287,-29.9331 515.985,-19.5914 511.335,-29.1115 518.287,-29.9331"/>
</g>
<!-- Node19 -->
<g id="node20" class="node"><title>Node19</title>
<g id="a_node20"><a xlink:href="_types_8hpp.html" target="_top" xlink:title="Types.hpp">
<polygon fill="none" stroke="black" points="427,-56.5 427,-75.5 489,-75.5 489,-56.5 427,-56.5"/>
<text text-anchor="middle" x="458" y="-63.5" font-family="Helvetica,sans-Serif" font-size="10.00">Types.hpp</text>
</a>
</g>
</g>
<!-- Node18&#45;&gt;Node19 -->
<g id="edge25" class="edge"><title>Node18&#45;&gt;Node19</title>
<path fill="none" stroke="midnightblue" d="M496.404,-112.083C489.773,-104.298 479.979,-92.8015 471.942,-83.3665"/>
<polygon fill="midnightblue" stroke="midnightblue" points="474.604,-81.0939 465.455,-75.7511 469.275,-85.6332 474.604,-81.0939"/>
</g>
<!-- Node19&#45;&gt;Node5 -->
<g id="edge26" class="edge"><title>Node19&#45;&gt;Node5</title>
<path fill="none" stroke="midnightblue" d="M467.479,-56.324C476.201,-48.3414 489.343,-36.3128 499.898,-26.6529"/>
<polygon fill="midnightblue" stroke="midnightblue" points="502.334,-29.1674 507.348,-19.8339 497.608,-24.0036 502.334,-29.1674"/>
</g>
<!-- Node20&#45;&gt;Node18 -->
<g id="edge28" class="edge"><title>Node20&#45;&gt;Node18</title>
<path fill="none" stroke="midnightblue" d="M504,-168.083C504,-161.006 504,-150.861 504,-141.986"/>
<polygon fill="midnightblue" stroke="midnightblue" points="507.5,-141.751 504,-131.751 500.5,-141.751 507.5,-141.751"/>
</g>
<!-- Node21&#45;&gt;Node12 -->
<g id="edge31" class="edge"><title>Node21&#45;&gt;Node12</title>
<path fill="none" stroke="midnightblue" d="M501.697,-224.444C473.649,-215.32 429.056,-200.813 397.816,-190.651"/>
<polygon fill="midnightblue" stroke="midnightblue" points="398.772,-187.282 388.18,-187.516 396.607,-193.938 398.772,-187.282"/>
</g>
<!-- Node21&#45;&gt;Node13 -->
<g id="edge30" class="edge"><title>Node21&#45;&gt;Node13</title>
<path fill="none" stroke="midnightblue" d="M499.192,-224.495C479.712,-217.461 454.605,-205.717 438,-188 410.297,-158.443 396.48,-111.616 390.62,-85.7377"/>
<polygon fill="midnightblue" stroke="midnightblue" points="394.002,-84.816 388.521,-75.7491 387.152,-86.2551 394.002,-84.816"/>
</g>
<!-- Node21&#45;&gt;Node14 -->
<g id="edge32" class="edge"><title>Node21&#45;&gt;Node14</title>
<path fill="none" stroke="midnightblue" d="M543.745,-224.324C559.319,-215.743 583.377,-202.486 601.459,-192.522"/>
<polygon fill="midnightblue" stroke="midnightblue" points="603.224,-195.546 610.294,-187.655 599.846,-189.415 603.224,-195.546"/>
</g>
<!-- Node21&#45;&gt;Node20 -->
<g id="edge33" class="edge"><title>Node21&#45;&gt;Node20</title>
<path fill="none" stroke="midnightblue" d="M524.037,-224.083C520.787,-216.77 516.081,-206.181 512.046,-197.103"/>
<polygon fill="midnightblue" stroke="midnightblue" points="515.149,-195.468 507.889,-187.751 508.752,-198.311 515.149,-195.468"/>
</g>
<!-- Node22&#45;&gt;Node13 -->
<g id="edge35" class="edge"><title>Node22&#45;&gt;Node13</title>
<path fill="none" stroke="midnightblue" d="M237.879,-168.402C247.466,-154.906 267.651,-128.581 290,-112 310.279,-96.9545 336.392,-85.1933 356.415,-77.4738"/>
<polygon fill="midnightblue" stroke="midnightblue" points="357.834,-80.6802 365.985,-73.9109 355.392,-74.1201 357.834,-80.6802"/>
</g>
<!-- Node23&#45;&gt;Node22 -->
<g id="edge37" class="edge"><title>Node23&#45;&gt;Node22</title>
<path fill="none" stroke="midnightblue" d="M196.935,-224.083C202.929,-216.377 211.752,-205.033 219.048,-195.653"/>
<polygon fill="midnightblue" stroke="midnightblue" points="221.817,-197.793 225.194,-187.751 216.291,-193.496 221.817,-197.793"/>
</g>
<!-- Node24&#45;&gt;Node25 -->
<g id="edge39" class="edge"><title>Node24&#45;&gt;Node25</title>
<path fill="none" stroke="midnightblue" d="M481.211,-392.324C492.776,-384.107 510.375,-371.602 524.161,-361.807"/>
<polygon fill="midnightblue" stroke="midnightblue" points="526.443,-364.479 532.567,-355.834 522.388,-358.773 526.443,-364.479"/>
</g>
<!-- Node25&#45;&gt;Node5 -->
<g id="edge40" class="edge"><title>Node25&#45;&gt;Node5</title>
<path fill="none" stroke="midnightblue" d="M561.172,-336.414C606.473,-311.238 728.365,-235.152 682,-168 656.346,-130.844 621.41,-161.235 587,-132 553.677,-103.688 532.585,-55.291 523.015,-29.1057"/>
<polygon fill="midnightblue" stroke="midnightblue" points="526.316,-27.9435 519.713,-19.6579 519.708,-30.2528 526.316,-27.9435"/>
</g>
<!-- Node25&#45;&gt;Node10 -->
<g id="edge42" class="edge"><title>Node25&#45;&gt;Node10</title>
<path fill="none" stroke="midnightblue" d="M520.915,-336.444C495.455,-327.399 455.106,-313.064 426.541,-302.916"/>
<polygon fill="midnightblue" stroke="midnightblue" points="427.567,-299.566 416.972,-299.516 425.223,-306.162 427.567,-299.566"/>
</g>
<!-- Node25&#45;&gt;Node14 -->
<g id="edge41" class="edge"><title>Node25&#45;&gt;Node14</title>
<path fill="none" stroke="midnightblue" d="M558.197,-336.195C569.352,-328.075 584.925,-315.029 594,-300 613.684,-267.402 621.414,-222.732 624.332,-197.794"/>
<polygon fill="midnightblue" stroke="midnightblue" points="627.844,-197.862 625.385,-187.556 620.88,-197.145 627.844,-197.862"/>
</g>
<!-- Node25&#45;&gt;Node20 -->
<g id="edge43" class="edge"><title>Node25&#45;&gt;Node20</title>
<path fill="none" stroke="midnightblue" d="M552.071,-336.245C567.882,-315.537 603.035,-262.399 581,-224 572.385,-208.986 556.609,-198.504 541.57,-191.458"/>
<polygon fill="midnightblue" stroke="midnightblue" points="542.942,-188.238 532.372,-187.505 540.178,-194.669 542.942,-188.238"/>
</g>
<!-- Node25&#45;&gt;Node21 -->
<g id="edge44" class="edge"><title>Node25&#45;&gt;Node21</title>
<path fill="none" stroke="midnightblue" d="M543.666,-336.368C540.923,-318.617 534.594,-277.666 530.874,-253.597"/>
<polygon fill="midnightblue" stroke="midnightblue" points="534.314,-252.94 529.328,-243.591 527.396,-254.009 534.314,-252.94"/>
</g>
<!-- Node26&#45;&gt;Node2 -->
<g id="edge52" class="edge"><title>Node26&#45;&gt;Node2</title>
<path fill="none" stroke="midnightblue" d="M140.35,-112.493C179.828,-103.824 242.313,-89.7362 296,-76 297.468,-75.6245 298.971,-75.2314 300.487,-74.8282"/>
<polygon fill="midnightblue" stroke="midnightblue" points="301.716,-78.1204 310.435,-72.1016 299.866,-71.3694 301.716,-78.1204"/>
</g>
<!-- Node26&#45;&gt;Node5 -->
<g id="edge50" class="edge"><title>Node26&#45;&gt;Node5</title>
<path fill="none" stroke="midnightblue" d="M140.057,-112.626C173.354,-104.906 222.166,-92.2015 263,-76 280.74,-68.9615 283.039,-62.4534 301,-56 364.806,-33.0743 443.638,-20.3386 486.215,-14.6615"/>
<polygon fill="midnightblue" stroke="midnightblue" points="486.758,-18.1205 496.228,-13.3684 485.862,-11.1782 486.758,-18.1205"/>
</g>
<!-- Node26&#45;&gt;Node13 -->
<g id="edge49" class="edge"><title>Node26&#45;&gt;Node13</title>
<path fill="none" stroke="midnightblue" d="M140.226,-115.148C190.147,-107.443 278.917,-92.8799 354,-76 354.597,-75.8657 355.2,-75.7276 355.807,-75.5862"/>
<polygon fill="midnightblue" stroke="midnightblue" points="356.917,-78.9164 365.768,-73.0932 355.218,-72.1258 356.917,-78.9164"/>
</g>
<!-- Node26&#45;&gt;Node16 -->
<g id="edge48" class="edge"><title>Node26&#45;&gt;Node16</title>
<path fill="none" stroke="midnightblue" d="M140.057,-118.314C230.186,-112.004 459.642,-95.3028 651,-76 663.312,-74.7581 676.737,-73.2089 688.782,-71.7478"/>
<polygon fill="midnightblue" stroke="midnightblue" points="689.452,-75.1918 698.95,-70.4963 688.597,-68.2443 689.452,-75.1918"/>
</g>
<!-- Node27 -->
<g id="node28" class="node"><title>Node27</title>
<polygon fill="none" stroke="#bfbfbf" points="202,-56.5 202,-75.5 254,-75.5 254,-56.5 202,-56.5"/>
<text text-anchor="middle" x="228" y="-63.5" font-family="Helvetica,sans-Serif" font-size="10.00">sstream</text>
</g>
<!-- Node26&#45;&gt;Node27 -->
<g id="edge51" class="edge"><title>Node26&#45;&gt;Node27</title>
<path fill="none" stroke="midnightblue" d="M121.124,-112.444C142.024,-103.557 174.935,-89.5632 198.716,-79.4514"/>
<polygon fill="midnightblue" stroke="midnightblue" points="200.138,-82.6504 207.971,-75.5164 197.398,-76.2085 200.138,-82.6504"/>
</g>
<!-- Node28 -->
<g id="node29" class="node"><title>Node28</title>
<polygon fill="none" stroke="#bfbfbf" points="62,-56.5 62,-75.5 118,-75.5 118,-56.5 62,-56.5"/>
<text text-anchor="middle" x="90" y="-63.5" font-family="Helvetica,sans-Serif" font-size="10.00">algorithm</text>
</g>
<!-- Node26&#45;&gt;Node28 -->
<g id="edge53" class="edge"><title>Node26&#45;&gt;Node28</title>
<path fill="none" stroke="midnightblue" d="M99.1836,-112.083C97.7259,-104.927 95.6294,-94.6353 93.8075,-85.6911"/>
<polygon fill="midnightblue" stroke="midnightblue" points="97.2083,-84.8512 91.7826,-75.7511 90.3492,-86.2485 97.2083,-84.8512"/>
</g>
<!-- Node29 -->
<g id="node30" class="node"><title>Node29</title>
<polygon fill="none" stroke="#bfbfbf" points="136.5,-56.5 136.5,-75.5 183.5,-75.5 183.5,-56.5 136.5,-56.5"/>
<text text-anchor="middle" x="160" y="-63.5" font-family="Helvetica,sans-Serif" font-size="10.00">iterator</text>
</g>
<!-- Node26&#45;&gt;Node29 -->
<g id="edge54" class="edge"><title>Node26&#45;&gt;Node29</title>
<path fill="none" stroke="midnightblue" d="M110.479,-112.324C119.201,-104.341 132.343,-92.3128 142.898,-82.6529"/>
<polygon fill="midnightblue" stroke="midnightblue" points="145.334,-85.1674 150.348,-75.8339 140.608,-80.0036 145.334,-85.1674"/>
</g>
<!-- Node30&#45;&gt;Node15 -->
<g id="edge56" class="edge"><title>Node30&#45;&gt;Node15</title>
<path fill="none" stroke="midnightblue" d="M797.32,-168.444C766.473,-159.241 717.272,-144.562 683.171,-134.388"/>
<polygon fill="midnightblue" stroke="midnightblue" points="684.129,-131.021 673.546,-131.516 682.128,-137.729 684.129,-131.021"/>
</g>
<!-- Node31 -->
<g id="node32" class="node"><title>Node31</title>
<g id="a_node32"><a xlink:href="_mountable_path_8hpp.html" target="_top" xlink:title="System/MountablePath.hpp">
<polygon fill="none" stroke="black" points="712.5,-112.5 712.5,-131.5 849.5,-131.5 849.5,-112.5 712.5,-112.5"/>
<text text-anchor="middle" x="781" y="-119.5" font-family="Helvetica,sans-Serif" font-size="10.00">System/MountablePath.hpp</text>
</a>
</g>
</g>
<!-- Node30&#45;&gt;Node31 -->
<g id="edge57" class="edge"><title>Node30&#45;&gt;Node31</title>
<path fill="none" stroke="midnightblue" d="M818.569,-168.083C812.147,-160.377 802.694,-149.033 794.878,-139.653"/>
<polygon fill="midnightblue" stroke="midnightblue" points="797.383,-137.193 788.293,-131.751 792.006,-141.674 797.383,-137.193"/>
</g>
<!-- Node32 -->
<g id="node33" class="node"><title>Node32</title>
<g id="a_node33"><a xlink:href="_file_utils_8hpp.html" target="_top" xlink:title="Utils/FileUtils.hpp">
<polygon fill="none" stroke="black" points="867.5,-112.5 867.5,-131.5 960.5,-131.5 960.5,-112.5 867.5,-112.5"/>
<text text-anchor="middle" x="914" y="-119.5" font-family="Helvetica,sans-Serif" font-size="10.00">Utils/FileUtils.hpp</text>
</a>
</g>
</g>
<!-- Node30&#45;&gt;Node32 -->
<g id="edge58" class="edge"><title>Node30&#45;&gt;Node32</title>
<path fill="none" stroke="midnightblue" d="M840.139,-168.324C853.866,-159.9 874.936,-146.971 891.064,-137.074"/>
<polygon fill="midnightblue" stroke="midnightblue" points="893.204,-139.868 899.896,-131.655 889.543,-133.902 893.204,-139.868"/>
</g>
<!-- Node32&#45;&gt;Node5 -->
<g id="edge59" class="edge"><title>Node32&#45;&gt;Node5</title>
<path fill="none" stroke="midnightblue" d="M890.105,-112.43C866.819,-103.877 830.555,-90.0215 800,-76 782.654,-68.0401 780.036,-62.2397 762,-56 687.495,-30.2248 594.862,-18.3396 547.701,-13.6327"/>
<polygon fill="midnightblue" stroke="midnightblue" points="547.826,-10.1287 537.538,-12.6602 547.159,-17.0969 547.826,-10.1287"/>
</g>
<!-- Node32&#45;&gt;Node13 -->
<g id="edge60" class="edge"><title>Node32&#45;&gt;Node13</title>
<path fill="none" stroke="midnightblue" d="M867.229,-113.083C864.448,-112.694 861.689,-112.329 859,-112 663.806,-88.102 611.404,-111.594 418,-76 417.9,-75.9816 417.8,-75.963 417.7,-75.9443"/>
<polygon fill="midnightblue" stroke="midnightblue" points="418.74,-72.592 408.21,-73.7676 417.175,-79.4148 418.74,-72.592"/>
</g>
<!-- Node32&#45;&gt;Node16 -->
<g id="edge62" class="edge"><title>Node32&#45;&gt;Node16</title>
<path fill="none" stroke="midnightblue" d="M884.211,-112.444C851.417,-103.024 798.651,-87.8679 763.173,-77.6774"/>
<polygon fill="midnightblue" stroke="midnightblue" points="763.786,-74.2119 753.208,-74.8151 761.853,-80.9399 763.786,-74.2119"/>
</g>
<!-- Node33 -->
<g id="node34" class="node"><title>Node33</title>
<polygon fill="none" stroke="#bfbfbf" points="1118.5,-56.5 1118.5,-75.5 1167.5,-75.5 1167.5,-56.5 1118.5,-56.5"/>
<text text-anchor="middle" x="1143" y="-63.5" font-family="Helvetica,sans-Serif" font-size="10.00">fstream</text>
</g>
<!-- Node32&#45;&gt;Node33 -->
<g id="edge61" class="edge"><title>Node32&#45;&gt;Node33</title>
<path fill="none" stroke="midnightblue" d="M953.159,-112.5C990.712,-104.239 1049.24,-91.0819 1108.3,-76.3622"/>
<polygon fill="midnightblue" stroke="midnightblue" points="1109.31,-79.716 1118.16,-73.8899 1107.61,-72.926 1109.31,-79.716"/>
</g>
<!-- Node34 -->
<g id="node35" class="node"><title>Node34</title>
<polygon fill="none" stroke="#bfbfbf" points="1186,-56.5 1186,-75.5 1254,-75.5 1254,-56.5 1186,-56.5"/>
<text text-anchor="middle" x="1220" y="-63.5" font-family="Helvetica,sans-Serif" font-size="10.00">sys/types.h</text>
</g>
<!-- Node32&#45;&gt;Node34 -->
<g id="edge63" class="edge"><title>Node32&#45;&gt;Node34</title>
<path fill="none" stroke="midnightblue" d="M960.651,-113.551C1011.24,-105.354 1094.62,-91.4992 1175.86,-76.1635"/>
<polygon fill="midnightblue" stroke="midnightblue" points="1176.58,-79.5891 1185.76,-74.2862 1175.28,-72.7118 1176.58,-79.5891"/>
</g>
<!-- Node35 -->
<g id="node36" class="node"><title>Node35</title>
<polygon fill="none" stroke="#bfbfbf" points="809,-56.5 809,-75.5 869,-75.5 869,-56.5 809,-56.5"/>
<text text-anchor="middle" x="839" y="-63.5" font-family="Helvetica,sans-Serif" font-size="10.00">sys/stat.h</text>
</g>
<!-- Node32&#45;&gt;Node35 -->
<g id="edge64" class="edge"><title>Node32&#45;&gt;Node35</title>
<path fill="none" stroke="midnightblue" d="M901.95,-112.324C890.537,-104.107 873.169,-91.6017 859.565,-81.8069"/>
<polygon fill="midnightblue" stroke="midnightblue" points="861.43,-78.8366 851.269,-75.8339 857.34,-84.5174 861.43,-78.8366"/>
</g>
<!-- Node36 -->
<g id="node37" class="node"><title>Node36</title>
<polygon fill="none" stroke="#bfbfbf" points="887,-56.5 887,-75.5 933,-75.5 933,-56.5 887,-56.5"/>
<text text-anchor="middle" x="910" y="-63.5" font-family="Helvetica,sans-Serif" font-size="10.00">stdio.h</text>
</g>
<!-- Node32&#45;&gt;Node36 -->
<g id="edge65" class="edge"><title>Node32&#45;&gt;Node36</title>
<path fill="none" stroke="midnightblue" d="M913.339,-112.083C912.815,-105.006 912.064,-94.8611 911.406,-85.9865"/>
<polygon fill="midnightblue" stroke="midnightblue" points="914.877,-85.4652 910.648,-75.7511 907.897,-85.9823 914.877,-85.4652"/>
</g>
<!-- Node37 -->
<g id="node38" class="node"><title>Node37</title>
<polygon fill="none" stroke="#bfbfbf" points="951,-56.5 951,-75.5 1031,-75.5 1031,-56.5 951,-56.5"/>
<text text-anchor="middle" x="991" y="-63.5" font-family="Helvetica,sans-Serif" font-size="10.00">tinydir/tinydir.h</text>
</g>
<!-- Node32&#45;&gt;Node37 -->
<g id="edge66" class="edge"><title>Node32&#45;&gt;Node37</title>
<path fill="none" stroke="midnightblue" d="M926.371,-112.324C938.158,-104.058 956.132,-91.4527 970.136,-81.6322"/>
<polygon fill="midnightblue" stroke="midnightblue" points="972.482,-84.2619 978.659,-75.6545 968.462,-78.5307 972.482,-84.2619"/>
</g>
<!-- Node38 -->
<g id="node39" class="node"><title>Node38</title>
<polygon fill="none" stroke="#bfbfbf" points="1049.5,-56.5 1049.5,-75.5 1100.5,-75.5 1100.5,-56.5 1049.5,-56.5"/>
<text text-anchor="middle" x="1075" y="-63.5" font-family="Helvetica,sans-Serif" font-size="10.00">unistd.h</text>
</g>
<!-- Node32&#45;&gt;Node38 -->
<g id="edge67" class="edge"><title>Node32&#45;&gt;Node38</title>
<path fill="none" stroke="midnightblue" d="M939.511,-112.444C966.596,-103.359 1009.59,-88.9388 1039.87,-78.7831"/>
<polygon fill="midnightblue" stroke="midnightblue" points="1041.24,-82.0148 1049.61,-75.5164 1039.01,-75.3781 1041.24,-82.0148"/>
</g>
</g>
</svg>
        <g id="navigator" transform="translate(0 0)" fill="#404254">
                <rect fill="#f2f5e9" fill-opacity="0.5" stroke="#606060" stroke-width=".5" x="0" y="0" width="60" height="60"/>
                <use id="zoomplus" xlink:href="#zoomPlus" x="17" y="9" onmousedown="handleZoom(evt,'in')"/>
                <use id="zoomminus" xlink:href="#zoomMin" x="42" y="9" onmousedown="handleZoom(evt,'out')"/>
                <use id="reset" xlink:href="#resetDef" x="30" y="36" onmousedown="handleReset()"/>
                <g id="arrowUp" xlink:href="#dirArrow" transform="translate(30 24)" onmousedown="handlePan(0,-1)">
                  <use xlink:href="#rim" fill="#404040">
                        <set attributeName="fill" to="#808080" begin="arrowUp.mouseover" end="arrowUp.mouseout"/>
                  </use>
                  <path fill="none" stroke="white" stroke-width="1.5" d="M0,-3.0v7 M-2.5,-0.5L0,-3.0L2.5,-0.5"/>
                </g>
                <g id="arrowRight" xlink:href="#dirArrow" transform="rotate(90) translate(36 -43)" onmousedown="handlePan(1,0)">
                  <use xlink:href="#rim" fill="#404040">
                        <set attributeName="fill" to="#808080" begin="arrowRight.mouseover" end="arrowRight.mouseout"/>
                  </use>
                  <path fill="none" stroke="white" stroke-width="1.5" d="M0,-3.0v7 M-2.5,-0.5L0,-3.0L2.5,-0.5"/>
                </g>
                <g id="arrowDown" xlink:href="#dirArrow" transform="rotate(180) translate(-30 -48)" onmousedown="handlePan(0,1)">
                  <use xlink:href="#rim" fill="#404040">
                        <set attributeName="fill" to="#808080" begin="arrowDown.mouseover" end="arrowDown.mouseout"/>
                  </use>
                  <path fill="none" stroke="white" stroke-width="1.5" d="M0,-3.0v7 M-2.5,-0.5L0,-3.0L2.5,-0.5"/>
                </g>
                <g id="arrowLeft" xlink:href="#dirArrow" transform="rotate(270) translate(-36 17)" onmousedown="handlePan(-1,0)">
                  <use xlink:href="#rim" fill="#404040">
                        <set attributeName="fill" to="#808080" begin="arrowLeft.mouseover" end="arrowLeft.mouseout"/>
                  </use>
                  <path fill="none" stroke="white" stroke-width="1.5" d="M0,-3.0v7 M-2.5,-0.5L0,-3.0L2.5,-0.5"/>
                </g>
        </g>
        <svg viewBox="0 0 15 15" width="100%" height="30px" preserveAspectRatio="xMaxYMin meet">
         <g id="arrow_out" transform="scale(0.3 0.3)">
          <a xlink:href="_sound_8cpp__incl_org.svg" target="_base">
           <rect id="button" ry="5" rx="5" y="6" x="6" height="38" width="38"
                fill="#f2f5e9" fill-opacity="0.5" stroke="#606060" stroke-width="1.0"/>
           <path id="arrow"
             d="M 11.500037,31.436501 C 11.940474,20.09759 22.043105,11.32322 32.158766,21.979434 L 37.068811,17.246167 C 37.068811,17.246167 37.088388,32 37.088388,32 L 22.160133,31.978069 C 22.160133,31.978069 26.997745,27.140456 26.997745,27.140456 C 18.528582,18.264221 13.291696,25.230495 11.500037,31.436501 z"
             style="fill:#404040;"/>
          </a>
         </g>
        </svg>
</svg>
