<?xml version="1.0" encoding="UTF-8" standalone="no"?>
<!DOCTYPE svg PUBLIC "-//W3C//DTD SVG 1.1//EN"
 "http://www.w3.org/Graphics/SVG/1.1/DTD/svg11.dtd">
<!-- Generated by graphviz version 2.38.0 (20140413.2041)
 -->
<!-- Title: E:/Dev/ObEngine/Git/include/Modes/Toolkit.hpp Pages: 1 -->
<svg width="379pt" height="106pt"
 viewBox="0.00 0.00 379.00 106.00" xmlns="http://www.w3.org/2000/svg" xmlns:xlink="http://www.w3.org/1999/xlink">
<g id="graph0" class="graph" transform="scale(1 1) rotate(0) translate(4 102)">
<title>E:/Dev/ObEngine/Git/include/Modes/Toolkit.hpp</title>
<!-- Node1 -->
<g id="node1" class="node"><title>Node1</title>
<polygon fill="#bfbfbf" stroke="black" points="121,-67.5 121,-97.5 254,-97.5 254,-67.5 121,-67.5"/>
<text text-anchor="start" x="129" y="-85.5" font-family="Helvetica,sans-Serif" font-size="10.00">E:/Dev/ObEngine/Git</text>
<text text-anchor="middle" x="187.5" y="-74.5" font-family="Helvetica,sans-Serif" font-size="10.00">/include/Modes/Toolkit.hpp</text>
</g>
<!-- Node2 -->
<g id="node2" class="node"><title>Node2</title>
<g id="a_node2"><a xlink:href="_menu_8cpp.html" target="_top" xlink:title="E:/Dev/ObEngine/Git\l/src/Modes/Menu.cpp">
<polygon fill="white" stroke="black" points="0,-0.5 0,-30.5 111,-30.5 111,-0.5 0,-0.5"/>
<text text-anchor="start" x="8" y="-18.5" font-family="Helvetica,sans-Serif" font-size="10.00">E:/Dev/ObEngine/Git</text>
<text text-anchor="middle" x="55.5" y="-7.5" font-family="Helvetica,sans-Serif" font-size="10.00">/src/Modes/Menu.cpp</text>
</a>
</g>
</g>
<!-- Node1&#45;&gt;Node2 -->
<g id="edge1" class="edge"><title>Node1&#45;&gt;Node2</title>
<path fill="none" stroke="midnightblue" d="M149.633,-62.8533C128.762,-52.5761 103.274,-40.0252 84.0861,-30.5765"/>
<polygon fill="midnightblue" stroke="midnightblue" points="148.34,-66.1182 158.858,-67.396 151.433,-59.8383 148.34,-66.1182"/>
</g>
<!-- Node3 -->
<g id="node3" class="node"><title>Node3</title>
<g id="a_node3"><a xlink:href="_toolkit_8cpp.html" target="_top" xlink:title="E:/Dev/ObEngine/Git\l/src/Modes/Toolkit.cpp">
<polygon fill="white" stroke="black" points="129.5,-0.5 129.5,-30.5 245.5,-30.5 245.5,-0.5 129.5,-0.5"/>
<text text-anchor="start" x="137.5" y="-18.5" font-family="Helvetica,sans-Serif" font-size="10.00">E:/Dev/ObEngine/Git</text>
<text text-anchor="middle" x="187.5" y="-7.5" font-family="Helvetica,sans-Serif" font-size="10.00">/src/Modes/Toolkit.cpp</text>
</a>
</g>
</g>
<!-- Node1&#45;&gt;Node3 -->
<g id="edge2" class="edge"><title>Node1&#45;&gt;Node3</title>
<path fill="none" stroke="midnightblue" d="M187.5,-57.1081C187.5,-48.1539 187.5,-38.3227 187.5,-30.5765"/>
<polygon fill="midnightblue" stroke="midnightblue" points="184,-57.3959 187.5,-67.396 191,-57.396 184,-57.3959"/>
</g>
<!-- Node4 -->
<g id="node4" class="node"><title>Node4</title>
<g id="a_node4"><a xlink:href="_ob_engine_8cpp.html" target="_top" xlink:title="E:/Dev/ObEngine/Git\l/src/ObEngine.cpp">
<polygon fill="white" stroke="black" points="264,-0.5 264,-30.5 371,-30.5 371,-0.5 264,-0.5"/>
<text text-anchor="start" x="272" y="-18.5" font-family="Helvetica,sans-Serif" font-size="10.00">E:/Dev/ObEngine/Git</text>
<text text-anchor="middle" x="317.5" y="-7.5" font-family="Helvetica,sans-Serif" font-size="10.00">/src/ObEngine.cpp</text>
</a>
</g>
</g>
<!-- Node1&#45;&gt;Node4 -->
<g id="edge3" class="edge"><title>Node1&#45;&gt;Node4</title>
<path fill="none" stroke="midnightblue" d="M224.793,-62.8533C245.348,-52.5761 270.45,-40.0252 289.347,-30.5765"/>
<polygon fill="midnightblue" stroke="midnightblue" points="223.087,-59.7933 215.708,-67.396 226.218,-66.0543 223.087,-59.7933"/>
</g>
</g>
</svg>
