<?xml version="1.0" encoding="UTF-8" standalone="no"?>
<!DOCTYPE svg PUBLIC "-//W3C//DTD SVG 1.1//EN"
 "http://www.w3.org/Graphics/SVG/1.1/DTD/svg11.dtd">
<!-- Generated by graphviz version 2.38.0 (20140413.2041)
 -->
<!-- Title: E:/Dev/ObEngine/Git/src/Bindings/TransformBindings.cpp Pages: 1 -->
<svg width="921pt" height="319pt"
 viewBox="0.00 0.00 920.50 319.00" xmlns="http://www.w3.org/2000/svg" xmlns:xlink="http://www.w3.org/1999/xlink">
<g id="graph0" class="graph" transform="scale(1 1) rotate(0) translate(4 315)">
<title>E:/Dev/ObEngine/Git/src/Bindings/TransformBindings.cpp</title>
<!-- Node0 -->
<g id="node1" class="node"><title>Node0</title>
<polygon fill="#bfbfbf" stroke="black" points="386,-280.5 386,-310.5 562,-310.5 562,-280.5 386,-280.5"/>
<text text-anchor="start" x="394" y="-298.5" font-family="Helvetica,sans-Serif" font-size="10.00">E:/Dev/ObEngine/Git</text>
<text text-anchor="middle" x="474" y="-287.5" font-family="Helvetica,sans-Serif" font-size="10.00">/src/Bindings/TransformBindings.cpp</text>
</g>
<!-- Node1 -->
<g id="node2" class="node"><title>Node1</title>
<g id="a_node2"><a xlink:href="_bindings_8hpp.html" target="_top" xlink:title="Bindings/Bindings.hpp">
<polygon fill="white" stroke="black" points="37.5,-224.5 37.5,-243.5 150.5,-243.5 150.5,-224.5 37.5,-224.5"/>
<text text-anchor="middle" x="94" y="-231.5" font-family="Helvetica,sans-Serif" font-size="10.00">Bindings/Bindings.hpp</text>
</a>
</g>
</g>
<!-- Node0&#45;&gt;Node1 -->
<g id="edge1" class="edge"><title>Node0&#45;&gt;Node1</title>
<path fill="none" stroke="midnightblue" d="M385.865,-280.7C316.394,-269.822 221.126,-254.905 158.598,-245.115"/>
<polygon fill="midnightblue" stroke="midnightblue" points="158.891,-241.618 148.47,-243.529 157.808,-248.534 158.891,-241.618"/>
</g>
<!-- Node8 -->
<g id="node9" class="node"><title>Node8</title>
<g id="a_node9"><a xlink:href="_transform_bindings_8hpp.html" target="_top" xlink:title="Bindings/TransformBindings.hpp">
<polygon fill="white" stroke="black" points="169,-224.5 169,-243.5 325,-243.5 325,-224.5 169,-224.5"/>
<text text-anchor="middle" x="247" y="-231.5" font-family="Helvetica,sans-Serif" font-size="10.00">Bindings/TransformBindings.hpp</text>
</a>
</g>
</g>
<!-- Node0&#45;&gt;Node8 -->
<g id="edge9" class="edge"><title>Node0&#45;&gt;Node8</title>
<path fill="none" stroke="midnightblue" d="M420.492,-280.475C380.474,-269.986 326.495,-255.837 289.432,-246.122"/>
<polygon fill="midnightblue" stroke="midnightblue" points="290.014,-242.656 279.453,-243.506 288.239,-249.428 290.014,-242.656"/>
</g>
<!-- Node9 -->
<g id="node10" class="node"><title>Node9</title>
<g id="a_node10"><a xlink:href="_protected_unit_vector_8hpp.html" target="_top" xlink:title="Transform/ProtectedUnitVector.hpp">
<polygon fill="white" stroke="black" points="367.5,-168.5 367.5,-187.5 536.5,-187.5 536.5,-168.5 367.5,-168.5"/>
<text text-anchor="middle" x="452" y="-175.5" font-family="Helvetica,sans-Serif" font-size="10.00">Transform/ProtectedUnitVector.hpp</text>
</a>
</g>
</g>
<!-- Node0&#45;&gt;Node9 -->
<g id="edge11" class="edge"><title>Node0&#45;&gt;Node9</title>
<path fill="none" stroke="midnightblue" d="M488.348,-280.437C501.054,-266.194 516.259,-243.54 507,-224 500.872,-211.068 489.006,-200.617 477.859,-193.053"/>
<polygon fill="midnightblue" stroke="midnightblue" points="479.528,-189.968 469.198,-187.614 475.805,-195.896 479.528,-189.968"/>
</g>
<!-- Node10 -->
<g id="node11" class="node"><title>Node10</title>
<g id="a_node11"><a xlink:href="_unit_vector_8hpp.html" target="_top" xlink:title="Transform/UnitVector.hpp">
<polygon fill="white" stroke="black" points="480.5,-112.5 480.5,-131.5 607.5,-131.5 607.5,-112.5 480.5,-112.5"/>
<text text-anchor="middle" x="544" y="-119.5" font-family="Helvetica,sans-Serif" font-size="10.00">Transform/UnitVector.hpp</text>
</a>
</g>
</g>
<!-- Node0&#45;&gt;Node10 -->
<g id="edge23" class="edge"><title>Node0&#45;&gt;Node10</title>
<path fill="none" stroke="midnightblue" d="M490.738,-280.4C501.125,-270.952 514.134,-257.761 523,-244 537.482,-221.521 540.024,-214.274 545,-188 546.654,-179.266 545.099,-176.888 545,-168 544.904,-159.396 544.706,-149.869 544.511,-141.804"/>
<polygon fill="midnightblue" stroke="midnightblue" points="548.005,-141.532 544.249,-131.626 541.008,-141.713 548.005,-141.532"/>
</g>
<!-- Node13 -->
<g id="node14" class="node"><title>Node13</title>
<g id="a_node14"><a xlink:href="_rect_8hpp.html" target="_top" xlink:title="Transform/Rect.hpp">
<polygon fill="white" stroke="black" points="628.5,-224.5 628.5,-243.5 729.5,-243.5 729.5,-224.5 628.5,-224.5"/>
<text text-anchor="middle" x="679" y="-231.5" font-family="Helvetica,sans-Serif" font-size="10.00">Transform/Rect.hpp</text>
</a>
</g>
</g>
<!-- Node0&#45;&gt;Node13 -->
<g id="edge16" class="edge"><title>Node0&#45;&gt;Node13</title>
<path fill="none" stroke="midnightblue" d="M522.323,-280.475C558.153,-270.075 606.377,-256.078 639.819,-246.372"/>
<polygon fill="midnightblue" stroke="midnightblue" points="641.064,-249.655 649.692,-243.506 639.113,-242.933 641.064,-249.655"/>
</g>
<!-- Node16 -->
<g id="node17" class="node"><title>Node16</title>
<g id="a_node17"><a xlink:href="_unit_based_object_8hpp.html" target="_top" xlink:title="Transform/UnitBasedObject.hpp">
<polygon fill="white" stroke="black" points="343.5,-224.5 343.5,-243.5 498.5,-243.5 498.5,-224.5 343.5,-224.5"/>
<text text-anchor="middle" x="421" y="-231.5" font-family="Helvetica,sans-Serif" font-size="10.00">Transform/UnitBasedObject.hpp</text>
</a>
</g>
</g>
<!-- Node0&#45;&gt;Node16 -->
<g id="edge21" class="edge"><title>Node0&#45;&gt;Node16</title>
<path fill="none" stroke="midnightblue" d="M461.44,-280.399C453.659,-271.664 443.636,-260.413 435.516,-251.296"/>
<polygon fill="midnightblue" stroke="midnightblue" points="437.977,-248.797 428.712,-243.658 432.75,-253.453 437.977,-248.797"/>
</g>
<!-- Node2 -->
<g id="node3" class="node"><title>Node2</title>
<polygon fill="white" stroke="#bfbfbf" points="174.5,-112.5 174.5,-131.5 275.5,-131.5 275.5,-112.5 174.5,-112.5"/>
<text text-anchor="middle" x="225" y="-119.5" font-family="Helvetica,sans-Serif" font-size="10.00">kaguya/kaguya.hpp</text>
</g>
<!-- Node1&#45;&gt;Node2 -->
<g id="edge2" class="edge"><title>Node1&#45;&gt;Node2</title>
<path fill="none" stroke="midnightblue" d="M111.713,-224.436C127.607,-216.29 151.115,-203.065 169,-188 186.008,-173.673 202.225,-153.95 212.788,-139.997"/>
<polygon fill="midnightblue" stroke="midnightblue" points="215.735,-141.898 218.865,-131.776 210.106,-137.737 215.735,-141.898"/>
</g>
<!-- Node3 -->
<g id="node4" class="node"><title>Node3</title>
<g id="a_node4"><a xlink:href="_binding_tree_8hpp.html" target="_top" xlink:title="Bindings/BindingTree.hpp">
<polygon fill="white" stroke="black" points="33.5,-168.5 33.5,-187.5 160.5,-187.5 160.5,-168.5 33.5,-168.5"/>
<text text-anchor="middle" x="97" y="-175.5" font-family="Helvetica,sans-Serif" font-size="10.00">Bindings/BindingTree.hpp</text>
</a>
</g>
</g>
<!-- Node1&#45;&gt;Node3 -->
<g id="edge3" class="edge"><title>Node1&#45;&gt;Node3</title>
<path fill="none" stroke="midnightblue" d="M94.4954,-224.083C94.8886,-217.006 95.4522,-206.861 95.9452,-197.986"/>
<polygon fill="midnightblue" stroke="midnightblue" points="99.4536,-197.93 96.5138,-187.751 92.4644,-197.542 99.4536,-197.93"/>
</g>
<!-- Node3&#45;&gt;Node2 -->
<g id="edge6" class="edge"><title>Node3&#45;&gt;Node2</title>
<path fill="none" stroke="midnightblue" d="M117.282,-168.444C138.347,-159.557 171.517,-145.563 195.486,-135.451"/>
<polygon fill="midnightblue" stroke="midnightblue" points="196.96,-138.628 204.813,-131.516 194.239,-132.179 196.96,-138.628"/>
</g>
<!-- Node4 -->
<g id="node5" class="node"><title>Node4</title>
<polygon fill="white" stroke="#bfbfbf" points="0,-112.5 0,-131.5 58,-131.5 58,-112.5 0,-112.5"/>
<text text-anchor="middle" x="29" y="-119.5" font-family="Helvetica,sans-Serif" font-size="10.00">functional</text>
</g>
<!-- Node3&#45;&gt;Node4 -->
<g id="edge4" class="edge"><title>Node3&#45;&gt;Node4</title>
<path fill="none" stroke="midnightblue" d="M86.0746,-168.324C75.8254,-160.185 60.2794,-147.839 47.999,-138.087"/>
<polygon fill="midnightblue" stroke="midnightblue" points="50.1319,-135.312 40.1242,-131.834 45.7787,-140.794 50.1319,-135.312"/>
</g>
<!-- Node5 -->
<g id="node6" class="node"><title>Node5</title>
<polygon fill="white" stroke="#bfbfbf" points="76,-112.5 76,-131.5 118,-131.5 118,-112.5 76,-112.5"/>
<text text-anchor="middle" x="97" y="-119.5" font-family="Helvetica,sans-Serif" font-size="10.00">vector</text>
</g>
<!-- Node3&#45;&gt;Node5 -->
<g id="edge5" class="edge"><title>Node3&#45;&gt;Node5</title>
<path fill="none" stroke="midnightblue" d="M97,-168.083C97,-161.006 97,-150.861 97,-141.986"/>
<polygon fill="midnightblue" stroke="midnightblue" points="100.5,-141.751 97,-131.751 93.5001,-141.751 100.5,-141.751"/>
</g>
<!-- Node6 -->
<g id="node7" class="node"><title>Node6</title>
<g id="a_node7"><a xlink:href="_identifiable_8hpp.html" target="_top" xlink:title="Types/Identifiable.hpp">
<polygon fill="white" stroke="black" points="146,-56.5 146,-75.5 256,-75.5 256,-56.5 146,-56.5"/>
<text text-anchor="middle" x="201" y="-63.5" font-family="Helvetica,sans-Serif" font-size="10.00">Types/Identifiable.hpp</text>
</a>
</g>
</g>
<!-- Node3&#45;&gt;Node6 -->
<g id="edge7" class="edge"><title>Node3&#45;&gt;Node6</title>
<path fill="none" stroke="midnightblue" d="M105.161,-168.368C122.552,-149.974 163.493,-106.671 185.824,-83.0519"/>
<polygon fill="midnightblue" stroke="midnightblue" points="188.55,-85.2625 192.877,-75.5914 183.464,-80.4534 188.55,-85.2625"/>
</g>
<!-- Node7 -->
<g id="node8" class="node"><title>Node7</title>
<polygon fill="white" stroke="#bfbfbf" points="339.5,-0.5 339.5,-19.5 380.5,-19.5 380.5,-0.5 339.5,-0.5"/>
<text text-anchor="middle" x="360" y="-7.5" font-family="Helvetica,sans-Serif" font-size="10.00">string</text>
</g>
<!-- Node6&#45;&gt;Node7 -->
<g id="edge8" class="edge"><title>Node6&#45;&gt;Node7</title>
<path fill="none" stroke="midnightblue" d="M226.194,-56.4435C254.359,-46.8782 299.942,-31.3969 329.945,-21.2075"/>
<polygon fill="midnightblue" stroke="midnightblue" points="331.131,-24.501 339.474,-17.971 328.88,-17.8728 331.131,-24.501"/>
</g>
<!-- Node8&#45;&gt;Node2 -->
<g id="edge10" class="edge"><title>Node8&#45;&gt;Node2</title>
<path fill="none" stroke="midnightblue" d="M245.274,-224.368C241.723,-206.617 233.533,-165.666 228.719,-141.597"/>
<polygon fill="midnightblue" stroke="midnightblue" points="232.112,-140.711 226.718,-131.591 225.247,-142.084 232.112,-140.711"/>
</g>
<!-- Node9&#45;&gt;Node10 -->
<g id="edge12" class="edge"><title>Node9&#45;&gt;Node10</title>
<path fill="none" stroke="midnightblue" d="M466.781,-168.324C481.267,-159.822 503.573,-146.729 520.493,-136.797"/>
<polygon fill="midnightblue" stroke="midnightblue" points="522.403,-139.735 529.255,-131.655 518.859,-133.698 522.403,-139.735"/>
</g>
<!-- Node11 -->
<g id="node12" class="node"><title>Node11</title>
<g id="a_node12"><a xlink:href="_units_8hpp.html" target="_top" xlink:title="Transform/Units.hpp">
<polygon fill="white" stroke="black" points="308,-56.5 308,-75.5 412,-75.5 412,-56.5 308,-56.5"/>
<text text-anchor="middle" x="360" y="-63.5" font-family="Helvetica,sans-Serif" font-size="10.00">Transform/Units.hpp</text>
</a>
</g>
</g>
<!-- Node10&#45;&gt;Node11 -->
<g id="edge13" class="edge"><title>Node10&#45;&gt;Node11</title>
<path fill="none" stroke="midnightblue" d="M514.845,-112.444C483.487,-103.241 433.469,-88.5617 398.803,-78.3879"/>
<polygon fill="midnightblue" stroke="midnightblue" points="399.6,-74.9742 389.019,-75.5164 397.629,-81.6909 399.6,-74.9742"/>
</g>
<!-- Node12 -->
<g id="node13" class="node"><title>Node12</title>
<g id="a_node13"><a xlink:href="_unit_structures_8hpp.html" target="_top" xlink:title="Transform/UnitStructures.hpp">
<polygon fill="white" stroke="black" points="472.5,-56.5 472.5,-75.5 615.5,-75.5 615.5,-56.5 472.5,-56.5"/>
<text text-anchor="middle" x="544" y="-63.5" font-family="Helvetica,sans-Serif" font-size="10.00">Transform/UnitStructures.hpp</text>
</a>
</g>
</g>
<!-- Node10&#45;&gt;Node12 -->
<g id="edge15" class="edge"><title>Node10&#45;&gt;Node12</title>
<path fill="none" stroke="midnightblue" d="M544,-112.083C544,-105.006 544,-94.8611 544,-85.9865"/>
<polygon fill="midnightblue" stroke="midnightblue" points="547.5,-85.751 544,-75.7511 540.5,-85.7511 547.5,-85.751"/>
</g>
<!-- Node11&#45;&gt;Node7 -->
<g id="edge14" class="edge"><title>Node11&#45;&gt;Node7</title>
<path fill="none" stroke="midnightblue" d="M360,-56.083C360,-49.0059 360,-38.8611 360,-29.9865"/>
<polygon fill="midnightblue" stroke="midnightblue" points="363.5,-29.751 360,-19.7511 356.5,-29.7511 363.5,-29.751"/>
</g>
<!-- Node14 -->
<g id="node15" class="node"><title>Node14</title>
<polygon fill="white" stroke="#bfbfbf" points="593,-168.5 593,-187.5 765,-187.5 765,-168.5 593,-168.5"/>
<text text-anchor="middle" x="679" y="-175.5" font-family="Helvetica,sans-Serif" font-size="10.00">SFML/Graphics/RenderWindow.hpp</text>
</g>
<!-- Node13&#45;&gt;Node14 -->
<g id="edge17" class="edge"><title>Node13&#45;&gt;Node14</title>
<path fill="none" stroke="midnightblue" d="M679,-224.083C679,-217.006 679,-206.861 679,-197.986"/>
<polygon fill="midnightblue" stroke="midnightblue" points="682.5,-197.751 679,-187.751 675.5,-197.751 682.5,-197.751"/>
</g>
<!-- Node15 -->
<g id="node16" class="node"><title>Node15</title>
<g id="a_node16"><a xlink:href="_referencial_8hpp.html" target="_top" xlink:title="Transform/Referencial.hpp">
<polygon fill="white" stroke="black" points="783.5,-168.5 783.5,-187.5 912.5,-187.5 912.5,-168.5 783.5,-168.5"/>
<text text-anchor="middle" x="848" y="-175.5" font-family="Helvetica,sans-Serif" font-size="10.00">Transform/Referencial.hpp</text>
</a>
</g>
</g>
<!-- Node13&#45;&gt;Node15 -->
<g id="edge18" class="edge"><title>Node13&#45;&gt;Node15</title>
<path fill="none" stroke="midnightblue" d="M705.779,-224.444C734.333,-215.32 779.733,-200.813 811.537,-190.651"/>
<polygon fill="midnightblue" stroke="midnightblue" points="812.886,-193.894 821.347,-187.516 810.756,-187.226 812.886,-193.894"/>
</g>
<!-- Node15&#45;&gt;Node7 -->
<g id="edge19" class="edge"><title>Node15&#45;&gt;Node7</title>
<path fill="none" stroke="midnightblue" d="M835.554,-168.352C802.669,-145.944 710.078,-85.6814 624,-56 542.714,-27.9712 441.102,-16.9547 390.948,-12.9983"/>
<polygon fill="midnightblue" stroke="midnightblue" points="391.001,-9.49253 380.768,-12.2375 390.479,-16.4731 391.001,-9.49253"/>
</g>
<!-- Node15&#45;&gt;Node10 -->
<g id="edge20" class="edge"><title>Node15&#45;&gt;Node10</title>
<path fill="none" stroke="midnightblue" d="M799.83,-168.444C746.131,-158.905 659.314,-143.483 601.946,-133.293"/>
<polygon fill="midnightblue" stroke="midnightblue" points="602.402,-129.819 591.944,-131.516 601.178,-136.712 602.402,-129.819"/>
</g>
<!-- Node16&#45;&gt;Node11 -->
<g id="edge22" class="edge"><title>Node16&#45;&gt;Node11</title>
<path fill="none" stroke="midnightblue" d="M400.153,-224.427C385.422,-217.129 366.795,-205.091 358,-188 341.076,-155.114 348.373,-110.239 354.583,-85.4149"/>
<polygon fill="midnightblue" stroke="midnightblue" points="358.023,-86.103 357.269,-75.5351 351.268,-84.2668 358.023,-86.103"/>
</g>
</g>
</svg>
