<?xml version="1.0" encoding="UTF-8" standalone="no"?>
<!DOCTYPE svg PUBLIC "-//W3C//DTD SVG 1.1//EN"
 "http://www.w3.org/Graphics/SVG/1.1/DTD/svg11.dtd">
<!-- Generated by graphviz version 2.38.0 (20140413.2041)
 -->
<!-- Title: E:/Dev/ObEngine/Git/src/Bindings/TransformBindings.cpp Pages: 1 -->
<!--zoomable 319 -->
<svg id="main" version="1.1" xmlns="http://www.w3.org/2000/svg" xmlns:xlink="http://www.w3.org/1999/xlink" xml:space="preserve" onload="init(evt)">
<style type="text/css"><![CDATA[
.edge:hover path { stroke: red; }
.edge:hover polygon { stroke: red; fill: red; }
.edge path { stroke: white; }
.edge polygon { stroke: white; fill: white; }
.node polygon { fill: white; }
]]></style>
<script type="text/javascript"><![CDATA[
var edges = document.getElementsByTagName('g');
if (edges && edges.length) {
  for (var i=0;i<edges.length;i++) {
    if (edges[i].id.substr(0,4)=='edge') {
      edges[i].setAttribute('class','edge');
    }
  }
}
]]></script>
        <defs>
                <circle id="rim" cx="0" cy="0" r="7"/>
                <circle id="rim2" cx="0" cy="0" r="3.5"/>
                <g id="zoomPlus">
                        <use xlink:href="#rim" fill="#404040">
                                <set attributeName="fill" to="#808080" begin="zoomplus.mouseover" end="zoomplus.mouseout"/>
                        </use>
                        <path d="M-4,0h8M0,-4v8" fill="none" stroke="white" stroke-width="1.5" pointer-events="none"/>
                </g>
                <g id="zoomMin">
                        <use xlink:href="#rim" fill="#404040">
                                <set attributeName="fill" to="#808080" begin="zoomminus.mouseover" end="zoomminus.mouseout"/>
                        </use>
                        <path d="M-4,0h8" fill="none" stroke="white" stroke-width="1.5" pointer-events="none"/>
                </g>
                <g id="dirArrow">
                        <path fill="none" stroke="white" stroke-width="1.5" d="M0,-3.0v7 M-2.5,-0.5L0,-3.0L2.5,-0.5"/>
                </g>
               <g id="resetDef">
                       <use xlink:href="#rim2" fill="#404040">
                               <set attributeName="fill" to="#808080" begin="reset.mouseover" end="reset.mouseout"/>
                       </use>
               </g>
        </defs>

<script type="text/javascript">
var viewWidth = 744;
var viewHeight = 319;
var sectionId = 'dynsection-0';
</script>
<script xlink:href="svgpan.js"/>
<svg id="graph" class="graph">
<g id="viewport">
<title>E:/Dev/ObEngine/Git/src/Bindings/TransformBindings.cpp</title>
<!-- Node0 -->
<g id="node1" class="node"><title>Node0</title>
<polygon fill="#bfbfbf" stroke="black" points="378.5,-280.5 378.5,-310.5 554.5,-310.5 554.5,-280.5 378.5,-280.5"/>
<text text-anchor="start" x="386.5" y="-298.5" font-family="Helvetica,sans-Serif" font-size="10.00">E:/Dev/ObEngine/Git</text>
<text text-anchor="middle" x="466.5" y="-287.5" font-family="Helvetica,sans-Serif" font-size="10.00">/src/Bindings/TransformBindings.cpp</text>
</g>
<!-- Node1 -->
<g id="node2" class="node"><title>Node1</title>
<g id="a_node2"><a xlink:href="_transform_bindings_8hpp.html" target="_top" xlink:title="Bindings/TransformBindings.hpp">
<polygon fill="none" stroke="black" points="50.5,-224.5 50.5,-243.5 206.5,-243.5 206.5,-224.5 50.5,-224.5"/>
<text text-anchor="middle" x="128.5" y="-231.5" font-family="Helvetica,sans-Serif" font-size="10.00">Bindings/TransformBindings.hpp</text>
</a>
</g>
</g>
<!-- Node0&#45;&gt;Node1 -->
<g id="edge1" class="edge"><title>Node0&#45;&gt;Node1</title>
<path fill="none" stroke="midnightblue" d="M386.827,-280.475C325.459,-269.672 242.039,-254.987 186.797,-245.262"/>
<polygon fill="midnightblue" stroke="midnightblue" points="187.277,-241.793 176.822,-243.506 186.064,-248.687 187.277,-241.793"/>
</g>
<!-- Node3 -->
<g id="node4" class="node"><title>Node3</title>
<g id="a_node4"><a xlink:href="_protected_unit_vector_8hpp.html" target="_top" xlink:title="Transform/ProtectedUnitVector.hpp">
<polygon fill="none" stroke="black" points="495,-168.5 495,-187.5 664,-187.5 664,-168.5 495,-168.5"/>
<text text-anchor="middle" x="579.5" y="-175.5" font-family="Helvetica,sans-Serif" font-size="10.00">Transform/ProtectedUnitVector.hpp</text>
</a>
</g>
</g>
<!-- Node0&#45;&gt;Node3 -->
<g id="edge3" class="edge"><title>Node0&#45;&gt;Node3</title>
<path fill="none" stroke="midnightblue" d="M480.356,-280.337C501.549,-258.676 541.879,-217.453 564.01,-194.832"/>
<polygon fill="midnightblue" stroke="midnightblue" points="566.527,-197.265 571.018,-187.669 561.523,-192.37 566.527,-197.265"/>
</g>
<!-- Node4 -->
<g id="node5" class="node"><title>Node4</title>
<g id="a_node5"><a xlink:href="_unit_vector_8hpp.html" target="_top" xlink:title="Transform/UnitVector.hpp">
<polygon fill="none" stroke="black" points="403,-112.5 403,-131.5 530,-131.5 530,-112.5 403,-112.5"/>
<text text-anchor="middle" x="466.5" y="-119.5" font-family="Helvetica,sans-Serif" font-size="10.00">Transform/UnitVector.hpp</text>
</a>
</g>
</g>
<!-- Node0&#45;&gt;Node4 -->
<g id="edge15" class="edge"><title>Node0&#45;&gt;Node4</title>
<path fill="none" stroke="midnightblue" d="M466.5,-280.465C466.5,-249.704 466.5,-176.329 466.5,-141.7"/>
<polygon fill="midnightblue" stroke="midnightblue" points="470,-141.56 466.5,-131.56 463,-141.56 470,-141.56"/>
</g>
<!-- Node8 -->
<g id="node9" class="node"><title>Node8</title>
<g id="a_node9"><a xlink:href="_rect_8hpp.html" target="_top" xlink:title="Transform/Rect.hpp">
<polygon fill="none" stroke="black" points="302,-224.5 302,-243.5 403,-243.5 403,-224.5 302,-224.5"/>
<text text-anchor="middle" x="352.5" y="-231.5" font-family="Helvetica,sans-Serif" font-size="10.00">Transform/Rect.hpp</text>
</a>
</g>
</g>
<!-- Node0&#45;&gt;Node8 -->
<g id="edge8" class="edge"><title>Node0&#45;&gt;Node8</title>
<path fill="none" stroke="midnightblue" d="M439.484,-280.399C420.869,-270.684 396.29,-257.855 378.009,-248.314"/>
<polygon fill="midnightblue" stroke="midnightblue" points="379.573,-245.182 369.088,-243.658 376.334,-251.388 379.573,-245.182"/>
</g>
<!-- Node11 -->
<g id="node12" class="node"><title>Node11</title>
<g id="a_node12"><a xlink:href="_unit_based_object_8hpp.html" target="_top" xlink:title="Transform/UnitBasedObject.hpp">
<polygon fill="none" stroke="black" points="581,-112.5 581,-131.5 736,-131.5 736,-112.5 581,-112.5"/>
<text text-anchor="middle" x="658.5" y="-119.5" font-family="Helvetica,sans-Serif" font-size="10.00">Transform/UnitBasedObject.hpp</text>
</a>
</g>
</g>
<!-- Node0&#45;&gt;Node11 -->
<g id="edge13" class="edge"><title>Node0&#45;&gt;Node11</title>
<path fill="none" stroke="midnightblue" d="M530.792,-280.456C579.33,-266.116 642.663,-238.544 673.5,-188 682.334,-173.521 676.151,-154.335 669.242,-140.567"/>
<polygon fill="midnightblue" stroke="midnightblue" points="672.202,-138.687 664.287,-131.643 666.082,-142.085 672.202,-138.687"/>
</g>
<!-- Node2 -->
<g id="node3" class="node"><title>Node2</title>
<polygon fill="none" stroke="#bfbfbf" points="0,-168.5 0,-187.5 101,-187.5 101,-168.5 0,-168.5"/>
<text text-anchor="middle" x="50.5" y="-175.5" font-family="Helvetica,sans-Serif" font-size="10.00">kaguya/kaguya.hpp</text>
</g>
<!-- Node1&#45;&gt;Node2 -->
<g id="edge2" class="edge"><title>Node1&#45;&gt;Node2</title>
<path fill="none" stroke="midnightblue" d="M115.968,-224.324C103.914,-215.979 85.4732,-203.212 71.2313,-193.352"/>
<polygon fill="midnightblue" stroke="midnightblue" points="73.2151,-190.469 63.0009,-187.655 69.2306,-196.224 73.2151,-190.469"/>
</g>
<!-- Node3&#45;&gt;Node4 -->
<g id="edge4" class="edge"><title>Node3&#45;&gt;Node4</title>
<path fill="none" stroke="midnightblue" d="M561.595,-168.444C543.246,-159.675 514.495,-145.935 493.406,-135.858"/>
<polygon fill="midnightblue" stroke="midnightblue" points="494.853,-132.67 484.321,-131.516 491.835,-138.986 494.853,-132.67"/>
</g>
<!-- Node5 -->
<g id="node6" class="node"><title>Node5</title>
<g id="a_node6"><a xlink:href="_units_8hpp.html" target="_top" xlink:title="Transform/Units.hpp">
<polygon fill="none" stroke="black" points="510.5,-56.5 510.5,-75.5 614.5,-75.5 614.5,-56.5 510.5,-56.5"/>
<text text-anchor="middle" x="562.5" y="-63.5" font-family="Helvetica,sans-Serif" font-size="10.00">Transform/Units.hpp</text>
</a>
</g>
</g>
<!-- Node4&#45;&gt;Node5 -->
<g id="edge5" class="edge"><title>Node4&#45;&gt;Node5</title>
<path fill="none" stroke="midnightblue" d="M481.924,-112.324C497.04,-103.822 520.315,-90.7288 537.971,-80.7975"/>
<polygon fill="midnightblue" stroke="midnightblue" points="540.114,-83.6077 547.114,-75.6545 536.683,-77.5066 540.114,-83.6077"/>
</g>
<!-- Node7 -->
<g id="node8" class="node"><title>Node7</title>
<g id="a_node8"><a xlink:href="_unit_structures_8hpp.html" target="_top" xlink:title="Transform/UnitStructures.hpp">
<polygon fill="none" stroke="black" points="349,-56.5 349,-75.5 492,-75.5 492,-56.5 349,-56.5"/>
<text text-anchor="middle" x="420.5" y="-63.5" font-family="Helvetica,sans-Serif" font-size="10.00">Transform/UnitStructures.hpp</text>
</a>
</g>
</g>
<!-- Node4&#45;&gt;Node7 -->
<g id="edge7" class="edge"><title>Node4&#45;&gt;Node7</title>
<path fill="none" stroke="midnightblue" d="M458.904,-112.083C452.273,-104.298 442.479,-92.8015 434.442,-83.3665"/>
<polygon fill="midnightblue" stroke="midnightblue" points="437.104,-81.0939 427.955,-75.7511 431.775,-85.6332 437.104,-81.0939"/>
</g>
<!-- Node6 -->
<g id="node7" class="node"><title>Node6</title>
<polygon fill="none" stroke="#bfbfbf" points="466,-0.5 466,-19.5 507,-19.5 507,-0.5 466,-0.5"/>
<text text-anchor="middle" x="486.5" y="-7.5" font-family="Helvetica,sans-Serif" font-size="10.00">string</text>
</g>
<!-- Node5&#45;&gt;Node6 -->
<g id="edge6" class="edge"><title>Node5&#45;&gt;Node6</title>
<path fill="none" stroke="midnightblue" d="M550.289,-56.324C538.724,-48.1066 521.125,-35.6017 507.339,-25.8069"/>
<polygon fill="midnightblue" stroke="midnightblue" points="509.112,-22.7729 498.933,-19.8339 505.057,-28.4791 509.112,-22.7729"/>
</g>
<!-- Node9 -->
<g id="node10" class="node"><title>Node9</title>
<polygon fill="none" stroke="#bfbfbf" points="266.5,-168.5 266.5,-187.5 438.5,-187.5 438.5,-168.5 266.5,-168.5"/>
<text text-anchor="middle" x="352.5" y="-175.5" font-family="Helvetica,sans-Serif" font-size="10.00">SFML/Graphics/RenderWindow.hpp</text>
</g>
<!-- Node8&#45;&gt;Node9 -->
<g id="edge9" class="edge"><title>Node8&#45;&gt;Node9</title>
<path fill="none" stroke="midnightblue" d="M352.5,-224.083C352.5,-217.006 352.5,-206.861 352.5,-197.986"/>
<polygon fill="midnightblue" stroke="midnightblue" points="356,-197.751 352.5,-187.751 349,-197.751 356,-197.751"/>
</g>
<!-- Node10 -->
<g id="node11" class="node"><title>Node10</title>
<g id="a_node11"><a xlink:href="_referencial_8hpp.html" target="_top" xlink:title="Transform/Referencial.hpp">
<polygon fill="none" stroke="black" points="119,-168.5 119,-187.5 248,-187.5 248,-168.5 119,-168.5"/>
<text text-anchor="middle" x="183.5" y="-175.5" font-family="Helvetica,sans-Serif" font-size="10.00">Transform/Referencial.hpp</text>
</a>
</g>
</g>
<!-- Node8&#45;&gt;Node10 -->
<g id="edge10" class="edge"><title>Node8&#45;&gt;Node10</title>
<path fill="none" stroke="midnightblue" d="M325.721,-224.444C297.167,-215.32 251.767,-200.813 219.963,-190.651"/>
<polygon fill="midnightblue" stroke="midnightblue" points="220.744,-187.226 210.153,-187.516 218.614,-193.894 220.744,-187.226"/>
</g>
<!-- Node10&#45;&gt;Node4 -->
<g id="edge12" class="edge"><title>Node10&#45;&gt;Node4</title>
<path fill="none" stroke="midnightblue" d="M228.342,-168.444C278.125,-158.944 358.483,-143.611 411.892,-133.42"/>
<polygon fill="midnightblue" stroke="midnightblue" points="412.701,-136.829 421.868,-131.516 411.389,-129.953 412.701,-136.829"/>
</g>
<!-- Node10&#45;&gt;Node6 -->
<g id="edge11" class="edge"><title>Node10&#45;&gt;Node6</title>
<path fill="none" stroke="midnightblue" d="M192.18,-168.358C214.612,-146.479 277.124,-88.3461 339.5,-56 377.227,-36.4364 424.891,-23.8005 455.536,-17.0429"/>
<polygon fill="midnightblue" stroke="midnightblue" points="456.57,-20.4014 465.622,-14.896 455.112,-13.5548 456.57,-20.4014"/>
</g>
<!-- Node11&#45;&gt;Node5 -->
<g id="edge14" class="edge"><title>Node11&#45;&gt;Node5</title>
<path fill="none" stroke="midnightblue" d="M643.076,-112.324C627.96,-103.822 604.685,-90.7288 587.029,-80.7975"/>
<polygon fill="midnightblue" stroke="midnightblue" points="588.317,-77.5066 577.886,-75.6545 584.886,-83.6077 588.317,-77.5066"/>
</g>
</g>
</svg>
        <g id="navigator" transform="translate(0 0)" fill="#404254">
                <rect fill="#f2f5e9" fill-opacity="0.5" stroke="#606060" stroke-width=".5" x="0" y="0" width="60" height="60"/>
                <use id="zoomplus" xlink:href="#zoomPlus" x="17" y="9" onmousedown="handleZoom(evt,'in')"/>
                <use id="zoomminus" xlink:href="#zoomMin" x="42" y="9" onmousedown="handleZoom(evt,'out')"/>
                <use id="reset" xlink:href="#resetDef" x="30" y="36" onmousedown="handleReset()"/>
                <g id="arrowUp" xlink:href="#dirArrow" transform="translate(30 24)" onmousedown="handlePan(0,-1)">
                  <use xlink:href="#rim" fill="#404040">
                        <set attributeName="fill" to="#808080" begin="arrowUp.mouseover" end="arrowUp.mouseout"/>
                  </use>
                  <path fill="none" stroke="white" stroke-width="1.5" d="M0,-3.0v7 M-2.5,-0.5L0,-3.0L2.5,-0.5"/>
                </g>
                <g id="arrowRight" xlink:href="#dirArrow" transform="rotate(90) translate(36 -43)" onmousedown="handlePan(1,0)">
                  <use xlink:href="#rim" fill="#404040">
                        <set attributeName="fill" to="#808080" begin="arrowRight.mouseover" end="arrowRight.mouseout"/>
                  </use>
                  <path fill="none" stroke="white" stroke-width="1.5" d="M0,-3.0v7 M-2.5,-0.5L0,-3.0L2.5,-0.5"/>
                </g>
                <g id="arrowDown" xlink:href="#dirArrow" transform="rotate(180) translate(-30 -48)" onmousedown="handlePan(0,1)">
                  <use xlink:href="#rim" fill="#404040">
                        <set attributeName="fill" to="#808080" begin="arrowDown.mouseover" end="arrowDown.mouseout"/>
                  </use>
                  <path fill="none" stroke="white" stroke-width="1.5" d="M0,-3.0v7 M-2.5,-0.5L0,-3.0L2.5,-0.5"/>
                </g>
                <g id="arrowLeft" xlink:href="#dirArrow" transform="rotate(270) translate(-36 17)" onmousedown="handlePan(-1,0)">
                  <use xlink:href="#rim" fill="#404040">
                        <set attributeName="fill" to="#808080" begin="arrowLeft.mouseover" end="arrowLeft.mouseout"/>
                  </use>
                  <path fill="none" stroke="white" stroke-width="1.5" d="M0,-3.0v7 M-2.5,-0.5L0,-3.0L2.5,-0.5"/>
                </g>
        </g>
        <svg viewBox="0 0 15 15" width="100%" height="30px" preserveAspectRatio="xMaxYMin meet">
         <g id="arrow_out" transform="scale(0.3 0.3)">
          <a xlink:href="_transform_bindings_8cpp__incl_org.svg" target="_base">
           <rect id="button" ry="5" rx="5" y="6" x="6" height="38" width="38"
                fill="#f2f5e9" fill-opacity="0.5" stroke="#606060" stroke-width="1.0"/>
           <path id="arrow"
             d="M 11.500037,31.436501 C 11.940474,20.09759 22.043105,11.32322 32.158766,21.979434 L 37.068811,17.246167 C 37.068811,17.246167 37.088388,32 37.088388,32 L 22.160133,31.978069 C 22.160133,31.978069 26.997745,27.140456 26.997745,27.140456 C 18.528582,18.264221 13.291696,25.230495 11.500037,31.436501 z"
             style="fill:#404040;"/>
          </a>
         </g>
        </svg>
</svg>
