<?xml version="1.0" encoding="UTF-8" standalone="no"?>
<!DOCTYPE svg PUBLIC "-//W3C//DTD SVG 1.1//EN"
 "http://www.w3.org/Graphics/SVG/1.1/DTD/svg11.dtd">
<!-- Generated by graphviz version 2.38.0 (20140413.2041)
 -->
<!-- Title: E:/Dev/ObEngine/Git/src/Bindings/TriggersBindings.cpp Pages: 1 -->
<!--zoomable 487 -->
<svg id="main" version="1.1" xmlns="http://www.w3.org/2000/svg" xmlns:xlink="http://www.w3.org/1999/xlink" xml:space="preserve" onload="init(evt)">
<style type="text/css"><![CDATA[
.edge:hover path { stroke: red; }
.edge:hover polygon { stroke: red; fill: red; }
.edge path { stroke: white; }
.edge polygon { stroke: white; fill: white; }
.node polygon { fill: white; }
]]></style>
<script type="text/javascript"><![CDATA[
var edges = document.getElementsByTagName('g');
if (edges && edges.length) {
  for (var i=0;i<edges.length;i++) {
    if (edges[i].id.substr(0,4)=='edge') {
      edges[i].setAttribute('class','edge');
    }
  }
}
]]></script>
        <defs>
                <circle id="rim" cx="0" cy="0" r="7"/>
                <circle id="rim2" cx="0" cy="0" r="3.5"/>
                <g id="zoomPlus">
                        <use xlink:href="#rim" fill="#404040">
                                <set attributeName="fill" to="#808080" begin="zoomplus.mouseover" end="zoomplus.mouseout"/>
                        </use>
                        <path d="M-4,0h8M0,-4v8" fill="none" stroke="white" stroke-width="1.5" pointer-events="none"/>
                </g>
                <g id="zoomMin">
                        <use xlink:href="#rim" fill="#404040">
                                <set attributeName="fill" to="#808080" begin="zoomminus.mouseover" end="zoomminus.mouseout"/>
                        </use>
                        <path d="M-4,0h8" fill="none" stroke="white" stroke-width="1.5" pointer-events="none"/>
                </g>
                <g id="dirArrow">
                        <path fill="none" stroke="white" stroke-width="1.5" d="M0,-3.0v7 M-2.5,-0.5L0,-3.0L2.5,-0.5"/>
                </g>
               <g id="resetDef">
                       <use xlink:href="#rim2" fill="#404040">
                               <set attributeName="fill" to="#808080" begin="reset.mouseover" end="reset.mouseout"/>
                       </use>
               </g>
        </defs>

<script type="text/javascript">
var viewWidth = 743;
var viewHeight = 487;
var sectionId = 'dynsection-0';
</script>
<script xlink:href="svgpan.js"/>
<svg id="graph" class="graph">
<g id="viewport">
<title>E:/Dev/ObEngine/Git/src/Bindings/TriggersBindings.cpp</title>
<!-- Node0 -->
<g id="node1" class="node"><title>Node0</title>
<polygon fill="#bfbfbf" stroke="black" points="305,-448.5 305,-478.5 472,-478.5 472,-448.5 305,-448.5"/>
<text text-anchor="start" x="313" y="-466.5" font-family="Helvetica,sans-Serif" font-size="10.00">E:/Dev/ObEngine/Git</text>
<text text-anchor="middle" x="388.5" y="-455.5" font-family="Helvetica,sans-Serif" font-size="10.00">/src/Bindings/TriggersBindings.cpp</text>
</g>
<!-- Node1 -->
<g id="node2" class="node"><title>Node1</title>
<g id="a_node2"><a xlink:href="_triggers_bindings_8hpp.html" target="_top" xlink:title="Bindings/TriggersBindings.hpp">
<polygon fill="none" stroke="black" points="68.5,-392.5 68.5,-411.5 216.5,-411.5 216.5,-392.5 68.5,-392.5"/>
<text text-anchor="middle" x="142.5" y="-399.5" font-family="Helvetica,sans-Serif" font-size="10.00">Bindings/TriggersBindings.hpp</text>
</a>
</g>
</g>
<!-- Node0&#45;&gt;Node1 -->
<g id="edge1" class="edge"><title>Node0&#45;&gt;Node1</title>
<path fill="none" stroke="midnightblue" d="M330.513,-448.475C286.776,-437.896 227.648,-423.595 187.458,-413.874"/>
<polygon fill="midnightblue" stroke="midnightblue" points="188.212,-410.455 177.669,-411.506 186.566,-417.259 188.212,-410.455"/>
</g>
<!-- Node3 -->
<g id="node4" class="node"><title>Node3</title>
<g id="a_node4"><a xlink:href="_trigger_8hpp.html" target="_top" xlink:title="Triggers/Trigger.hpp">
<polygon fill="none" stroke="black" points="323.5,-224.5 323.5,-243.5 425.5,-243.5 425.5,-224.5 323.5,-224.5"/>
<text text-anchor="middle" x="374.5" y="-231.5" font-family="Helvetica,sans-Serif" font-size="10.00">Triggers/Trigger.hpp</text>
</a>
</g>
</g>
<!-- Node0&#45;&gt;Node3 -->
<g id="edge3" class="edge"><title>Node0&#45;&gt;Node3</title>
<path fill="none" stroke="midnightblue" d="M387.624,-448.269C385.201,-408.895 378.407,-298.487 375.667,-253.965"/>
<polygon fill="midnightblue" stroke="midnightblue" points="379.157,-253.693 375.049,-243.927 372.17,-254.123 379.157,-253.693"/>
</g>
<!-- Node19 -->
<g id="node20" class="node"><title>Node19</title>
<g id="a_node20"><a xlink:href="_trigger_database_8hpp.html" target="_top" xlink:title="Triggers/TriggerDatabase.hpp">
<polygon fill="none" stroke="black" points="436,-392.5 436,-411.5 579,-411.5 579,-392.5 436,-392.5"/>
<text text-anchor="middle" x="507.5" y="-399.5" font-family="Helvetica,sans-Serif" font-size="10.00">Triggers/TriggerDatabase.hpp</text>
</a>
</g>
</g>
<!-- Node0&#45;&gt;Node19 -->
<g id="edge25" class="edge"><title>Node0&#45;&gt;Node19</title>
<path fill="none" stroke="midnightblue" d="M416.701,-448.399C436.222,-438.639 462.025,-425.737 481.135,-416.183"/>
<polygon fill="midnightblue" stroke="midnightblue" points="482.805,-419.26 490.184,-411.658 479.675,-412.999 482.805,-419.26"/>
</g>
<!-- Node23 -->
<g id="node24" class="node"><title>Node23</title>
<g id="a_node24"><a xlink:href="_trigger_group_8hpp.html" target="_top" xlink:title="Triggers/TriggerGroup.hpp">
<polygon fill="none" stroke="black" points="435.5,-336.5 435.5,-355.5 563.5,-355.5 563.5,-336.5 435.5,-336.5"/>
<text text-anchor="middle" x="499.5" y="-343.5" font-family="Helvetica,sans-Serif" font-size="10.00">Triggers/TriggerGroup.hpp</text>
</a>
</g>
</g>
<!-- Node0&#45;&gt;Node23 -->
<g id="edge35" class="edge"><title>Node0&#45;&gt;Node23</title>
<path fill="none" stroke="midnightblue" d="M393.523,-448.434C399.52,-433.15 410.755,-408.687 426.5,-392 438.989,-378.765 456.193,-367.91 470.763,-360.179"/>
<polygon fill="midnightblue" stroke="midnightblue" points="472.544,-363.2 479.881,-355.557 469.379,-356.957 472.544,-363.2"/>
</g>
<!-- Node2 -->
<g id="node3" class="node"><title>Node2</title>
<polygon fill="none" stroke="#bfbfbf" points="0,-112.5 0,-131.5 101,-131.5 101,-112.5 0,-112.5"/>
<text text-anchor="middle" x="50.5" y="-119.5" font-family="Helvetica,sans-Serif" font-size="10.00">kaguya/kaguya.hpp</text>
</g>
<!-- Node1&#45;&gt;Node2 -->
<g id="edge2" class="edge"><title>Node1&#45;&gt;Node2</title>
<path fill="none" stroke="midnightblue" d="M116.816,-392.466C78.9302,-378.066 12.5,-345.104 12.5,-291 12.5,-291 12.5,-291 12.5,-233 12.5,-198.813 29.1005,-161.764 40.3573,-140.571"/>
<polygon fill="midnightblue" stroke="midnightblue" points="43.4473,-142.215 45.2163,-131.769 37.3191,-138.832 43.4473,-142.215"/>
</g>
<!-- Node3&#45;&gt;Node2 -->
<g id="edge5" class="edge"><title>Node3&#45;&gt;Node2</title>
<path fill="none" stroke="midnightblue" d="M323.252,-231.955C246.42,-229.338 106.434,-220.162 69.5,-188 56.3583,-176.556 52.065,-156.575 50.7794,-141.778"/>
<polygon fill="midnightblue" stroke="midnightblue" points="54.2709,-141.518 50.2858,-131.701 47.2793,-141.86 54.2709,-141.518"/>
</g>
<!-- Node4 -->
<g id="node5" class="node"><title>Node4</title>
<polygon fill="none" stroke="#bfbfbf" points="212,-168.5 212,-187.5 255,-187.5 255,-168.5 212,-168.5"/>
<text text-anchor="middle" x="233.5" y="-175.5" font-family="Helvetica,sans-Serif" font-size="10.00">queue</text>
</g>
<!-- Node3&#45;&gt;Node4 -->
<g id="edge4" class="edge"><title>Node3&#45;&gt;Node4</title>
<path fill="none" stroke="midnightblue" d="M352.158,-224.444C328.609,-215.425 291.329,-201.147 264.845,-191.004"/>
<polygon fill="midnightblue" stroke="midnightblue" points="265.864,-187.647 255.274,-187.339 263.361,-194.184 265.864,-187.647"/>
</g>
<!-- Node5 -->
<g id="node6" class="node"><title>Node5</title>
<g id="a_node6"><a xlink:href="_global_state_8hpp.html" target="_top" xlink:title="Script/GlobalState.hpp">
<polygon fill="none" stroke="black" points="79,-168.5 79,-187.5 194,-187.5 194,-168.5 79,-168.5"/>
<text text-anchor="middle" x="136.5" y="-175.5" font-family="Helvetica,sans-Serif" font-size="10.00">Script/GlobalState.hpp</text>
</a>
</g>
</g>
<!-- Node3&#45;&gt;Node5 -->
<g id="edge6" class="edge"><title>Node3&#45;&gt;Node5</title>
<path fill="none" stroke="midnightblue" d="M336.788,-224.444C295.357,-215.043 228.743,-199.929 183.833,-189.739"/>
<polygon fill="midnightblue" stroke="midnightblue" points="184.562,-186.316 174.035,-187.516 183.013,-193.142 184.562,-186.316"/>
</g>
<!-- Node6 -->
<g id="node7" class="node"><title>Node6</title>
<g id="a_node7"><a xlink:href="_any_8hpp.html" target="_top" xlink:title="Types/Any.hpp">
<polygon fill="none" stroke="black" points="273.5,-168.5 273.5,-187.5 355.5,-187.5 355.5,-168.5 273.5,-168.5"/>
<text text-anchor="middle" x="314.5" y="-175.5" font-family="Helvetica,sans-Serif" font-size="10.00">Types/Any.hpp</text>
</a>
</g>
</g>
<!-- Node3&#45;&gt;Node6 -->
<g id="edge8" class="edge"><title>Node3&#45;&gt;Node6</title>
<path fill="none" stroke="midnightblue" d="M364.86,-224.324C355.99,-216.341 342.625,-204.313 331.892,-194.653"/>
<polygon fill="midnightblue" stroke="midnightblue" points="334.09,-191.922 324.315,-187.834 329.407,-197.125 334.09,-191.922"/>
</g>
<!-- Node9 -->
<g id="node10" class="node"><title>Node9</title>
<g id="a_node10"><a xlink:href="_string_utils_8hpp.html" target="_top" xlink:title="Utils/StringUtils.hpp">
<polygon fill="none" stroke="black" points="336,-112.5 336,-131.5 439,-131.5 439,-112.5 336,-112.5"/>
<text text-anchor="middle" x="387.5" y="-119.5" font-family="Helvetica,sans-Serif" font-size="10.00">Utils/StringUtils.hpp</text>
</a>
</g>
</g>
<!-- Node3&#45;&gt;Node9 -->
<g id="edge11" class="edge"><title>Node3&#45;&gt;Node9</title>
<path fill="none" stroke="midnightblue" d="M375.52,-224.368C377.618,-206.617 382.458,-165.666 385.302,-141.597"/>
<polygon fill="midnightblue" stroke="midnightblue" points="388.787,-141.933 386.485,-131.591 381.835,-141.112 388.787,-141.933"/>
</g>
<!-- Node13 -->
<g id="node14" class="node"><title>Node13</title>
<g id="a_node14"><a xlink:href="_type_utils_8hpp.html" target="_top" xlink:title="Utils/TypeUtils.hpp">
<polygon fill="none" stroke="black" points="411.5,-168.5 411.5,-187.5 509.5,-187.5 509.5,-168.5 411.5,-168.5"/>
<text text-anchor="middle" x="460.5" y="-175.5" font-family="Helvetica,sans-Serif" font-size="10.00">Utils/TypeUtils.hpp</text>
</a>
</g>
</g>
<!-- Node3&#45;&gt;Node13 -->
<g id="edge15" class="edge"><title>Node3&#45;&gt;Node13</title>
<path fill="none" stroke="midnightblue" d="M388.317,-224.324C401.733,-215.9 422.324,-202.971 438.086,-193.074"/>
<polygon fill="midnightblue" stroke="midnightblue" points="440.109,-195.936 446.717,-187.655 436.387,-190.008 440.109,-195.936"/>
</g>
<!-- Node14 -->
<g id="node15" class="node"><title>Node14</title>
<g id="a_node15"><a xlink:href="_vector_utils_8hpp.html" target="_top" xlink:title="Utils/VectorUtils.hpp">
<polygon fill="none" stroke="black" points="457.5,-112.5 457.5,-131.5 563.5,-131.5 563.5,-112.5 457.5,-112.5"/>
<text text-anchor="middle" x="510.5" y="-119.5" font-family="Helvetica,sans-Serif" font-size="10.00">Utils/VectorUtils.hpp</text>
</a>
</g>
</g>
<!-- Node3&#45;&gt;Node14 -->
<g id="edge24" class="edge"><title>Node3&#45;&gt;Node14</title>
<path fill="none" stroke="midnightblue" d="M425.85,-231.525C458.078,-227.606 497.4,-216.7 518.5,-188 528.375,-174.568 524.314,-155.2 519.041,-141.101"/>
<polygon fill="midnightblue" stroke="midnightblue" points="522.11,-139.373 514.983,-131.533 515.665,-142.106 522.11,-139.373"/>
</g>
<!-- Node5&#45;&gt;Node2 -->
<g id="edge7" class="edge"><title>Node5&#45;&gt;Node2</title>
<path fill="none" stroke="midnightblue" d="M122.683,-168.324C109.267,-159.9 88.6759,-146.971 72.9144,-137.074"/>
<polygon fill="midnightblue" stroke="midnightblue" points="74.6132,-134.008 64.2831,-131.655 70.8908,-139.936 74.6132,-134.008"/>
</g>
<!-- Node7 -->
<g id="node8" class="node"><title>Node7</title>
<polygon fill="none" stroke="#bfbfbf" points="187.5,-112.5 187.5,-131.5 249.5,-131.5 249.5,-112.5 187.5,-112.5"/>
<text text-anchor="middle" x="218.5" y="-119.5" font-family="Helvetica,sans-Serif" font-size="10.00">type_traits</text>
</g>
<!-- Node6&#45;&gt;Node7 -->
<g id="edge9" class="edge"><title>Node6&#45;&gt;Node7</title>
<path fill="none" stroke="midnightblue" d="M299.076,-168.324C283.96,-159.822 260.685,-146.729 243.029,-136.797"/>
<polygon fill="midnightblue" stroke="midnightblue" points="244.317,-133.507 233.886,-131.655 240.886,-139.608 244.317,-133.507"/>
</g>
<!-- Node8 -->
<g id="node9" class="node"><title>Node8</title>
<polygon fill="none" stroke="#bfbfbf" points="267.5,-112.5 267.5,-131.5 317.5,-131.5 317.5,-112.5 267.5,-112.5"/>
<text text-anchor="middle" x="292.5" y="-119.5" font-family="Helvetica,sans-Serif" font-size="10.00">typeinfo</text>
</g>
<!-- Node6&#45;&gt;Node8 -->
<g id="edge10" class="edge"><title>Node6&#45;&gt;Node8</title>
<path fill="none" stroke="midnightblue" d="M310.867,-168.083C307.888,-160.77 303.574,-150.181 299.875,-141.103"/>
<polygon fill="midnightblue" stroke="midnightblue" points="303.08,-139.691 296.065,-131.751 296.597,-142.333 303.08,-139.691"/>
</g>
<!-- Node10 -->
<g id="node11" class="node"><title>Node10</title>
<polygon fill="none" stroke="#bfbfbf" points="321.5,-56.5 321.5,-75.5 359.5,-75.5 359.5,-56.5 321.5,-56.5"/>
<text text-anchor="middle" x="340.5" y="-63.5" font-family="Helvetica,sans-Serif" font-size="10.00">tuple</text>
</g>
<!-- Node9&#45;&gt;Node10 -->
<g id="edge12" class="edge"><title>Node9&#45;&gt;Node10</title>
<path fill="none" stroke="midnightblue" d="M379.739,-112.083C372.963,-104.298 362.957,-92.8015 354.745,-83.3665"/>
<polygon fill="midnightblue" stroke="midnightblue" points="357.322,-80.9963 348.117,-75.7511 352.042,-85.592 357.322,-80.9963"/>
</g>
<!-- Node11 -->
<g id="node12" class="node"><title>Node11</title>
<polygon fill="none" stroke="#bfbfbf" points="354,-0.5 354,-19.5 395,-19.5 395,-0.5 354,-0.5"/>
<text text-anchor="middle" x="374.5" y="-7.5" font-family="Helvetica,sans-Serif" font-size="10.00">string</text>
</g>
<!-- Node9&#45;&gt;Node11 -->
<g id="edge13" class="edge"><title>Node9&#45;&gt;Node11</title>
<path fill="none" stroke="midnightblue" d="M386.48,-112.368C384.382,-94.617 379.542,-53.6664 376.698,-29.5974"/>
<polygon fill="midnightblue" stroke="midnightblue" points="380.165,-29.1115 375.515,-19.5914 373.213,-29.9331 380.165,-29.1115"/>
</g>
<!-- Node12 -->
<g id="node13" class="node"><title>Node12</title>
<polygon fill="none" stroke="#bfbfbf" points="413.5,-0.5 413.5,-19.5 455.5,-19.5 455.5,-0.5 413.5,-0.5"/>
<text text-anchor="middle" x="434.5" y="-7.5" font-family="Helvetica,sans-Serif" font-size="10.00">vector</text>
</g>
<!-- Node9&#45;&gt;Node12 -->
<g id="edge14" class="edge"><title>Node9&#45;&gt;Node12</title>
<path fill="none" stroke="midnightblue" d="M391.188,-112.368C398.841,-94.4563 416.587,-52.9233 426.831,-28.9482"/>
<polygon fill="midnightblue" stroke="midnightblue" points="430.118,-30.1624 430.829,-19.5914 423.681,-27.412 430.118,-30.1624"/>
</g>
<!-- Node13&#45;&gt;Node9 -->
<g id="edge16" class="edge"><title>Node13&#45;&gt;Node9</title>
<path fill="none" stroke="midnightblue" d="M448.771,-168.324C437.663,-160.107 420.758,-147.602 407.517,-137.807"/>
<polygon fill="midnightblue" stroke="midnightblue" points="409.563,-134.967 399.442,-131.834 405.4,-140.595 409.563,-134.967"/>
</g>
<!-- Node13&#45;&gt;Node14 -->
<g id="edge17" class="edge"><title>Node13&#45;&gt;Node14</title>
<path fill="none" stroke="midnightblue" d="M468.756,-168.083C475.965,-160.298 486.61,-148.801 495.346,-139.367"/>
<polygon fill="midnightblue" stroke="midnightblue" points="498.171,-141.467 502.397,-131.751 493.035,-136.711 498.171,-141.467"/>
</g>
<!-- Node15 -->
<g id="node16" class="node"><title>Node15</title>
<g id="a_node16"><a xlink:href="_error_handler_8hpp.html" target="_top" xlink:title="vili/ErrorHandler.hpp">
<polygon fill="none" stroke="black" points="457,-56.5 457,-75.5 560,-75.5 560,-56.5 457,-56.5"/>
<text text-anchor="middle" x="508.5" y="-63.5" font-family="Helvetica,sans-Serif" font-size="10.00">vili/ErrorHandler.hpp</text>
</a>
</g>
</g>
<!-- Node14&#45;&gt;Node15 -->
<g id="edge18" class="edge"><title>Node14&#45;&gt;Node15</title>
<path fill="none" stroke="midnightblue" d="M510.17,-112.083C509.908,-105.006 509.532,-94.8611 509.203,-85.9865"/>
<polygon fill="midnightblue" stroke="midnightblue" points="512.692,-85.6147 508.824,-75.7511 505.697,-85.8738 512.692,-85.6147"/>
</g>
<!-- Node15&#45;&gt;Node11 -->
<g id="edge19" class="edge"><title>Node15&#45;&gt;Node11</title>
<path fill="none" stroke="midnightblue" d="M487.267,-56.4435C464.986,-47.4646 429.77,-33.2729 404.622,-23.1386"/>
<polygon fill="midnightblue" stroke="midnightblue" points="405.776,-19.8305 395.193,-19.339 403.16,-26.3231 405.776,-19.8305"/>
</g>
<!-- Node15&#45;&gt;Node12 -->
<g id="edge20" class="edge"><title>Node15&#45;&gt;Node12</title>
<path fill="none" stroke="midnightblue" d="M496.611,-56.324C485.35,-48.1066 468.213,-35.6017 454.791,-25.8069"/>
<polygon fill="midnightblue" stroke="midnightblue" points="456.747,-22.9014 446.606,-19.8339 452.62,-28.5559 456.747,-22.9014"/>
</g>
<!-- Node16 -->
<g id="node17" class="node"><title>Node16</title>
<polygon fill="none" stroke="#bfbfbf" points="623,-0.5 623,-19.5 658,-19.5 658,-0.5 623,-0.5"/>
<text text-anchor="middle" x="640.5" y="-7.5" font-family="Helvetica,sans-Serif" font-size="10.00">map</text>
</g>
<!-- Node15&#45;&gt;Node16 -->
<g id="edge21" class="edge"><title>Node15&#45;&gt;Node16</title>
<path fill="none" stroke="midnightblue" d="M529.416,-56.4435C552.034,-47.1907 588.184,-32.4021 613.067,-22.2227"/>
<polygon fill="midnightblue" stroke="midnightblue" points="614.715,-25.33 622.645,-18.3042 612.065,-18.8511 614.715,-25.33"/>
</g>
<!-- Node17 -->
<g id="node18" class="node"><title>Node17</title>
<polygon fill="none" stroke="#bfbfbf" points="473.5,-0.5 473.5,-19.5 527.5,-19.5 527.5,-0.5 473.5,-0.5"/>
<text text-anchor="middle" x="500.5" y="-7.5" font-family="Helvetica,sans-Serif" font-size="10.00">iostream</text>
</g>
<!-- Node15&#45;&gt;Node17 -->
<g id="edge22" class="edge"><title>Node15&#45;&gt;Node17</title>
<path fill="none" stroke="midnightblue" d="M507.179,-56.083C506.119,-48.9272 504.594,-38.6353 503.269,-29.6911"/>
<polygon fill="midnightblue" stroke="midnightblue" points="506.724,-29.1302 501.796,-19.7511 499.8,-30.1561 506.724,-29.1302"/>
</g>
<!-- Node18 -->
<g id="node19" class="node"><title>Node18</title>
<polygon fill="none" stroke="#bfbfbf" points="546,-0.5 546,-19.5 605,-19.5 605,-0.5 546,-0.5"/>
<text text-anchor="middle" x="575.5" y="-7.5" font-family="Helvetica,sans-Serif" font-size="10.00">exception</text>
</g>
<!-- Node15&#45;&gt;Node18 -->
<g id="edge23" class="edge"><title>Node15&#45;&gt;Node18</title>
<path fill="none" stroke="midnightblue" d="M519.265,-56.324C529.266,-48.2631 544.387,-36.0765 556.43,-26.3695"/>
<polygon fill="midnightblue" stroke="midnightblue" points="558.95,-28.8343 564.539,-19.8339 554.557,-23.3841 558.95,-28.8343"/>
</g>
<!-- Node19&#45;&gt;Node3 -->
<g id="edge30" class="edge"><title>Node19&#45;&gt;Node3</title>
<path fill="none" stroke="midnightblue" d="M483.101,-392.414C465.39,-385.109 441.923,-373.068 426.5,-356 399.259,-325.853 384.781,-279.256 378.473,-253.572"/>
<polygon fill="midnightblue" stroke="midnightblue" points="381.847,-252.626 376.194,-243.665 375.025,-254.195 381.847,-252.626"/>
</g>
<!-- Node19&#45;&gt;Node16 -->
<g id="edge26" class="edge"><title>Node19&#45;&gt;Node16</title>
<path fill="none" stroke="midnightblue" d="M526.398,-392.373C541.018,-384.773 560.698,-372.364 572.5,-356 590.106,-331.589 591.5,-321.098 591.5,-291 591.5,-291 591.5,-291 591.5,-121 591.5,-85.4659 613.1,-48.627 627.618,-27.8799"/>
<polygon fill="midnightblue" stroke="midnightblue" points="630.631,-29.6871 633.687,-19.5423 624.972,-25.5675 630.631,-29.6871"/>
</g>
<!-- Node20 -->
<g id="node21" class="node"><title>Node20</title>
<g id="a_node21"><a xlink:href="_chronometer_8hpp.html" target="_top" xlink:title="Time/Chronometer.hpp">
<polygon fill="none" stroke="black" points="620,-336.5 620,-355.5 735,-355.5 735,-336.5 620,-336.5"/>
<text text-anchor="middle" x="677.5" y="-343.5" font-family="Helvetica,sans-Serif" font-size="10.00">Time/Chronometer.hpp</text>
</a>
</g>
</g>
<!-- Node19&#45;&gt;Node20 -->
<g id="edge27" class="edge"><title>Node19&#45;&gt;Node20</title>
<path fill="none" stroke="midnightblue" d="M534.437,-392.444C563.16,-383.32 608.829,-368.813 640.821,-358.651"/>
<polygon fill="midnightblue" stroke="midnightblue" points="642.218,-361.88 650.689,-355.516 640.099,-355.208 642.218,-361.88"/>
</g>
<!-- Node19&#45;&gt;Node23 -->
<g id="edge31" class="edge"><title>Node19&#45;&gt;Node23</title>
<path fill="none" stroke="midnightblue" d="M506.179,-392.083C505.119,-384.927 503.594,-374.635 502.269,-365.691"/>
<polygon fill="midnightblue" stroke="midnightblue" points="505.724,-365.13 500.796,-355.751 498.8,-366.156 505.724,-365.13"/>
</g>
<!-- Node21 -->
<g id="node22" class="node"><title>Node21</title>
<polygon fill="none" stroke="#bfbfbf" points="619.5,-280.5 619.5,-299.5 665.5,-299.5 665.5,-280.5 619.5,-280.5"/>
<text text-anchor="middle" x="642.5" y="-287.5" font-family="Helvetica,sans-Serif" font-size="10.00">chrono</text>
</g>
<!-- Node20&#45;&gt;Node21 -->
<g id="edge28" class="edge"><title>Node20&#45;&gt;Node21</title>
<path fill="none" stroke="midnightblue" d="M671.72,-336.083C666.828,-328.534 659.673,-317.495 653.667,-308.23"/>
<polygon fill="midnightblue" stroke="midnightblue" points="656.548,-306.239 648.172,-299.751 650.674,-310.046 656.548,-306.239"/>
</g>
<!-- Node22 -->
<g id="node23" class="node"><title>Node22</title>
<g id="a_node23"><a xlink:href="_time_utils_8hpp.html" target="_top" xlink:title="Time/TimeUtils.hpp">
<polygon fill="none" stroke="black" points="631.5,-224.5 631.5,-243.5 731.5,-243.5 731.5,-224.5 631.5,-224.5"/>
<text text-anchor="middle" x="681.5" y="-231.5" font-family="Helvetica,sans-Serif" font-size="10.00">Time/TimeUtils.hpp</text>
</a>
</g>
</g>
<!-- Node20&#45;&gt;Node22 -->
<g id="edge29" class="edge"><title>Node20&#45;&gt;Node22</title>
<path fill="none" stroke="midnightblue" d="M677.814,-336.368C678.459,-318.617 679.948,-277.666 680.824,-253.597"/>
<polygon fill="midnightblue" stroke="midnightblue" points="684.322,-253.712 681.188,-243.591 677.326,-253.458 684.322,-253.712"/>
</g>
<!-- Node24 -->
<g id="node25" class="node"><title>Node24</title>
<g id="a_node25"><a xlink:href="_trigger_delay_8hpp.html" target="_top" xlink:title="Triggers/TriggerDelay.hpp">
<polygon fill="none" stroke="black" points="436,-280.5 436,-299.5 563,-299.5 563,-280.5 436,-280.5"/>
<text text-anchor="middle" x="499.5" y="-287.5" font-family="Helvetica,sans-Serif" font-size="10.00">Triggers/TriggerDelay.hpp</text>
</a>
</g>
</g>
<!-- Node23&#45;&gt;Node24 -->
<g id="edge32" class="edge"><title>Node23&#45;&gt;Node24</title>
<path fill="none" stroke="midnightblue" d="M499.5,-336.083C499.5,-329.006 499.5,-318.861 499.5,-309.986"/>
<polygon fill="midnightblue" stroke="midnightblue" points="503,-309.751 499.5,-299.751 496,-309.751 503,-309.751"/>
</g>
<!-- Node24&#45;&gt;Node3 -->
<g id="edge33" class="edge"><title>Node24&#45;&gt;Node3</title>
<path fill="none" stroke="midnightblue" d="M479.693,-280.444C459.213,-271.596 427.017,-257.687 403.635,-247.586"/>
<polygon fill="midnightblue" stroke="midnightblue" points="404.782,-244.269 394.214,-243.516 402.006,-250.695 404.782,-244.269"/>
</g>
<!-- Node24&#45;&gt;Node22 -->
<g id="edge34" class="edge"><title>Node24&#45;&gt;Node22</title>
<path fill="none" stroke="midnightblue" d="M528.338,-280.444C559.356,-271.241 608.829,-256.562 643.118,-246.388"/>
<polygon fill="midnightblue" stroke="midnightblue" points="644.205,-249.716 652.796,-243.516 642.214,-243.006 644.205,-249.716"/>
</g>
</g>
</svg>
        <g id="navigator" transform="translate(0 0)" fill="#404254">
                <rect fill="#f2f5e9" fill-opacity="0.5" stroke="#606060" stroke-width=".5" x="0" y="0" width="60" height="60"/>
                <use id="zoomplus" xlink:href="#zoomPlus" x="17" y="9" onmousedown="handleZoom(evt,'in')"/>
                <use id="zoomminus" xlink:href="#zoomMin" x="42" y="9" onmousedown="handleZoom(evt,'out')"/>
                <use id="reset" xlink:href="#resetDef" x="30" y="36" onmousedown="handleReset()"/>
                <g id="arrowUp" xlink:href="#dirArrow" transform="translate(30 24)" onmousedown="handlePan(0,-1)">
                  <use xlink:href="#rim" fill="#404040">
                        <set attributeName="fill" to="#808080" begin="arrowUp.mouseover" end="arrowUp.mouseout"/>
                  </use>
                  <path fill="none" stroke="white" stroke-width="1.5" d="M0,-3.0v7 M-2.5,-0.5L0,-3.0L2.5,-0.5"/>
                </g>
                <g id="arrowRight" xlink:href="#dirArrow" transform="rotate(90) translate(36 -43)" onmousedown="handlePan(1,0)">
                  <use xlink:href="#rim" fill="#404040">
                        <set attributeName="fill" to="#808080" begin="arrowRight.mouseover" end="arrowRight.mouseout"/>
                  </use>
                  <path fill="none" stroke="white" stroke-width="1.5" d="M0,-3.0v7 M-2.5,-0.5L0,-3.0L2.5,-0.5"/>
                </g>
                <g id="arrowDown" xlink:href="#dirArrow" transform="rotate(180) translate(-30 -48)" onmousedown="handlePan(0,1)">
                  <use xlink:href="#rim" fill="#404040">
                        <set attributeName="fill" to="#808080" begin="arrowDown.mouseover" end="arrowDown.mouseout"/>
                  </use>
                  <path fill="none" stroke="white" stroke-width="1.5" d="M0,-3.0v7 M-2.5,-0.5L0,-3.0L2.5,-0.5"/>
                </g>
                <g id="arrowLeft" xlink:href="#dirArrow" transform="rotate(270) translate(-36 17)" onmousedown="handlePan(-1,0)">
                  <use xlink:href="#rim" fill="#404040">
                        <set attributeName="fill" to="#808080" begin="arrowLeft.mouseover" end="arrowLeft.mouseout"/>
                  </use>
                  <path fill="none" stroke="white" stroke-width="1.5" d="M0,-3.0v7 M-2.5,-0.5L0,-3.0L2.5,-0.5"/>
                </g>
        </g>
        <svg viewBox="0 0 15 15" width="100%" height="30px" preserveAspectRatio="xMaxYMin meet">
         <g id="arrow_out" transform="scale(0.3 0.3)">
          <a xlink:href="_triggers_bindings_8cpp__incl_org.svg" target="_base">
           <rect id="button" ry="5" rx="5" y="6" x="6" height="38" width="38"
                fill="#f2f5e9" fill-opacity="0.5" stroke="#606060" stroke-width="1.0"/>
           <path id="arrow"
             d="M 11.500037,31.436501 C 11.940474,20.09759 22.043105,11.32322 32.158766,21.979434 L 37.068811,17.246167 C 37.068811,17.246167 37.088388,32 37.088388,32 L 22.160133,31.978069 C 22.160133,31.978069 26.997745,27.140456 26.997745,27.140456 C 18.528582,18.264221 13.291696,25.230495 11.500037,31.436501 z"
             style="fill:#404040;"/>
          </a>
         </g>
        </svg>
</svg>
