<?xml version="1.0" encoding="UTF-8" standalone="no"?>
<!DOCTYPE svg PUBLIC "-//W3C//DTD SVG 1.1//EN"
 "http://www.w3.org/Graphics/SVG/1.1/DTD/svg11.dtd">
<!-- Generated by graphviz version 2.38.0 (20140413.2041)
 -->
<!-- Title: E:/Dev/ObEngine/Git/src/Triggers.cpp Pages: 1 -->
<!--zoomable 263 -->
<svg id="main" version="1.1" xmlns="http://www.w3.org/2000/svg" xmlns:xlink="http://www.w3.org/1999/xlink" xml:space="preserve" onload="init(evt)">
<style type="text/css"><![CDATA[
.edge:hover path { stroke: red; }
.edge:hover polygon { stroke: red; fill: red; }
.edge path { stroke: white; }
.edge polygon { stroke: white; fill: white; }
]]></style>
<script type="text/javascript"><![CDATA[
var edges = document.getElementsByTagName('g');
if (edges && edges.length) {
  for (var i=0;i<edges.length;i++) {
    if (edges[i].id.substr(0,4)=='edge') {
      edges[i].setAttribute('class','edge');
    }
  }
}
]]></script>
        <defs>
                <circle id="rim" cx="0" cy="0" r="7"/>
                <circle id="rim2" cx="0" cy="0" r="3.5"/>
                <g id="zoomPlus">
                        <use xlink:href="#rim" fill="#404040">
                                <set attributeName="fill" to="#808080" begin="zoomplus.mouseover" end="zoomplus.mouseout"/>
                        </use>
                        <path d="M-4,0h8M0,-4v8" fill="none" stroke="white" stroke-width="1.5" pointer-events="none"/>
                </g>
                <g id="zoomMin">
                        <use xlink:href="#rim" fill="#404040">
                                <set attributeName="fill" to="#808080" begin="zoomminus.mouseover" end="zoomminus.mouseout"/>
                        </use>
                        <path d="M-4,0h8" fill="none" stroke="white" stroke-width="1.5" pointer-events="none"/>
                </g>
                <g id="dirArrow">
                        <path fill="none" stroke="white" stroke-width="1.5" d="M0,-3.0v7 M-2.5,-0.5L0,-3.0L2.5,-0.5"/>
                </g>
               <g id="resetDef">
                       <use xlink:href="#rim2" fill="#404040">
                               <set attributeName="fill" to="#808080" begin="reset.mouseover" end="reset.mouseout"/>
                       </use>
               </g>
        </defs>

<script type="text/javascript">
var viewWidth = 1404;
var viewHeight = 263;
var sectionId = 'dynsection-0';
</script>
<script xlink:href="svgpan.js"/>
<svg id="graph" class="graph">
<g id="viewport">
<title>E:/Dev/ObEngine/Git/src/Triggers.cpp</title>
<!-- Node0 -->
<g id="node1" class="node"><title>Node0</title>
<polygon fill="#bfbfbf" stroke="black" points="363.833,-224.5 363.833,-254.5 470.833,-254.5 470.833,-224.5 363.833,-224.5"/>
<text text-anchor="start" x="371.833" y="-242.5" font-family="Helvetica,sans-Serif" font-size="10.00">E:/Dev/ObEngine/Git</text>
<text text-anchor="middle" x="417.333" y="-231.5" font-family="Helvetica,sans-Serif" font-size="10.00">/src/Triggers.cpp</text>
</g>
<!-- Node1 -->
<g id="node2" class="node"><title>Node1</title>
<g id="a_node2"><a xlink:href="_triggers_8hpp.html" target="_top" xlink:title="Triggers.hpp">
<polygon fill="none" stroke="black" points="382.333,-168.5 382.333,-187.5 452.333,-187.5 452.333,-168.5 382.333,-168.5"/>
<text text-anchor="middle" x="417.333" y="-175.5" font-family="Helvetica,sans-Serif" font-size="10.00">Triggers.hpp</text>
</a>
</g>
</g>
<!-- Node0&#45;&gt;Node1 -->
<g id="edge1" class="edge"><title>Node0&#45;&gt;Node1</title>
<path fill="none" stroke="midnightblue" d="M417.333,-224.399C417.333,-216.466 417.333,-206.458 417.333,-197.858"/>
<polygon fill="midnightblue" stroke="midnightblue" points="420.833,-197.658 417.333,-187.658 413.833,-197.658 420.833,-197.658"/>
</g>
<!-- Node2 -->
<g id="node3" class="node"><title>Node2</title>
<polygon fill="none" stroke="#bfbfbf" points="61.8332,-0.5 61.8332,-19.5 96.8332,-19.5 96.8332,-0.5 61.8332,-0.5"/>
<text text-anchor="middle" x="79.3332" y="-7.5" font-family="Helvetica,sans-Serif" font-size="10.00">map</text>
</g>
<!-- Node1&#45;&gt;Node2 -->
<g id="edge2" class="edge"><title>Node1&#45;&gt;Node2</title>
<path fill="none" stroke="midnightblue" d="M382.116,-176.239C301.004,-173.933 103.656,-164.995 47.3332,-132 14.2176,-112.6 -12.3756,-89.5107 6.33323,-56 16.0696,-38.5605 35.649,-27.0411 52.0812,-20.0263"/>
<polygon fill="midnightblue" stroke="midnightblue" points="53.7522,-23.1309 61.7897,-16.228 51.2018,-16.612 53.7522,-23.1309"/>
</g>
<!-- Node3 -->
<g id="node4" class="node"><title>Node3</title>
<polygon fill="none" stroke="#bfbfbf" points="236.833,-0.5 236.833,-19.5 277.833,-19.5 277.833,-0.5 236.833,-0.5"/>
<text text-anchor="middle" x="257.333" y="-7.5" font-family="Helvetica,sans-Serif" font-size="10.00">string</text>
</g>
<!-- Node1&#45;&gt;Node3 -->
<g id="edge3" class="edge"><title>Node1&#45;&gt;Node3</title>
<path fill="none" stroke="midnightblue" d="M382.03,-176.022C324.161,-173.494 206.173,-164.438 112.333,-132 64.9208,-115.611 39.5125,-119.388 14.3332,-76 9.87165,-68.3119 8.64881,-62.8337 14.3332,-56 41.0025,-23.9386 167.294,-14.6212 226.528,-11.9935"/>
<polygon fill="midnightblue" stroke="midnightblue" points="226.919,-15.4806 236.768,-11.5768 226.634,-8.48639 226.919,-15.4806"/>
</g>
<!-- Node4 -->
<g id="node5" class="node"><title>Node4</title>
<polygon fill="none" stroke="#bfbfbf" points="396.333,-0.5 396.333,-19.5 438.333,-19.5 438.333,-0.5 396.333,-0.5"/>
<text text-anchor="middle" x="417.333" y="-7.5" font-family="Helvetica,sans-Serif" font-size="10.00">vector</text>
</g>
<!-- Node1&#45;&gt;Node4 -->
<g id="edge4" class="edge"><title>Node1&#45;&gt;Node4</title>
<path fill="none" stroke="midnightblue" d="M417.333,-168.075C417.333,-141.945 417.333,-65.2106 417.333,-29.577"/>
<polygon fill="midnightblue" stroke="midnightblue" points="420.833,-29.5681 417.333,-19.5681 413.833,-29.5681 420.833,-29.5681"/>
</g>
<!-- Node5 -->
<g id="node6" class="node"><title>Node5</title>
<polygon fill="none" stroke="#bfbfbf" points="538.333,-0.5 538.333,-19.5 592.333,-19.5 592.333,-0.5 538.333,-0.5"/>
<text text-anchor="middle" x="565.333" y="-7.5" font-family="Helvetica,sans-Serif" font-size="10.00">iostream</text>
</g>
<!-- Node1&#45;&gt;Node5 -->
<g id="edge5" class="edge"><title>Node1&#45;&gt;Node5</title>
<path fill="none" stroke="midnightblue" d="M452.721,-176.164C593.47,-172.668 1109.24,-158.17 1177.33,-132 1214.52,-117.706 1230.07,-111.909 1247.33,-76 1251.18,-67.9884 1253.41,-62.489 1247.33,-56 1203.12,-8.76985 739.255,-9.35293 602.855,-10.5611"/>
<polygon fill="midnightblue" stroke="midnightblue" points="602.475,-7.0645 592.509,-10.6597 602.542,-14.0642 602.475,-7.0645"/>
</g>
<!-- Node6 -->
<g id="node7" class="node"><title>Node6</title>
<polygon fill="none" stroke="#bfbfbf" points="1294.83,-112.5 1294.83,-131.5 1395.83,-131.5 1395.83,-112.5 1294.83,-112.5"/>
<text text-anchor="middle" x="1345.33" y="-119.5" font-family="Helvetica,sans-Serif" font-size="10.00">kaguya/kaguya.hpp</text>
</g>
<!-- Node1&#45;&gt;Node6 -->
<g id="edge6" class="edge"><title>Node1&#45;&gt;Node6</title>
<path fill="none" stroke="midnightblue" d="M452.35,-176.248C569.678,-173.499 959.592,-162.511 1280.33,-132 1281.64,-131.876 1282.96,-131.744 1284.29,-131.607"/>
<polygon fill="midnightblue" stroke="midnightblue" points="1285.09,-135.039 1294.64,-130.445 1284.31,-128.083 1285.09,-135.039"/>
</g>
<!-- Node7 -->
<g id="node8" class="node"><title>Node7</title>
<g id="a_node8"><a xlink:href="any_8hpp.html" target="_top" xlink:title="any/any.hpp">
<polygon fill="none" stroke="black" points="1098.33,-112.5 1098.33,-131.5 1168.33,-131.5 1168.33,-112.5 1098.33,-112.5"/>
<text text-anchor="middle" x="1133.33" y="-119.5" font-family="Helvetica,sans-Serif" font-size="10.00">any/any.hpp</text>
</a>
</g>
</g>
<!-- Node1&#45;&gt;Node7 -->
<g id="edge7" class="edge"><title>Node1&#45;&gt;Node7</title>
<path fill="none" stroke="midnightblue" d="M452.352,-174.359C570.581,-165.442 954.97,-136.452 1087.74,-126.439"/>
<polygon fill="midnightblue" stroke="midnightblue" points="1088.25,-129.91 1097.96,-125.668 1087.72,-122.93 1088.25,-129.91"/>
</g>
<!-- Node10 -->
<g id="node11" class="node"><title>Node10</title>
<g id="a_node11"><a xlink:href="_error_handler_8hpp.html" target="_top" xlink:title="vili/ErrorHandler.hpp">
<polygon fill="none" stroke="black" points="285.833,-56.5 285.833,-75.5 388.833,-75.5 388.833,-56.5 285.833,-56.5"/>
<text text-anchor="middle" x="337.333" y="-63.5" font-family="Helvetica,sans-Serif" font-size="10.00">vili/ErrorHandler.hpp</text>
</a>
</g>
</g>
<!-- Node1&#45;&gt;Node10 -->
<g id="edge10" class="edge"><title>Node1&#45;&gt;Node10</title>
<path fill="none" stroke="midnightblue" d="M411.056,-168.368C397.853,-150.215 367.007,-107.802 349.69,-83.9902"/>
<polygon fill="midnightblue" stroke="midnightblue" points="352.294,-81.6202 343.582,-75.5914 346.633,-85.7374 352.294,-81.6202"/>
</g>
<!-- Node12 -->
<g id="node13" class="node"><title>Node12</title>
<g id="a_node13"><a xlink:href="_time_manager_8hpp.html" target="_top" xlink:title="TimeManager.hpp">
<polygon fill="none" stroke="black" points="121.333,-112.5 121.333,-131.5 215.333,-131.5 215.333,-112.5 121.333,-112.5"/>
<text text-anchor="middle" x="168.333" y="-119.5" font-family="Helvetica,sans-Serif" font-size="10.00">TimeManager.hpp</text>
</a>
</g>
</g>
<!-- Node1&#45;&gt;Node12 -->
<g id="edge16" class="edge"><title>Node1&#45;&gt;Node12</title>
<path fill="none" stroke="midnightblue" d="M382.186,-169.378C339.258,-160.068 266.375,-144.262 217.798,-133.727"/>
<polygon fill="midnightblue" stroke="midnightblue" points="218.336,-130.263 207.821,-131.564 216.852,-137.104 218.336,-130.263"/>
</g>
<!-- Node15 -->
<g id="node16" class="node"><title>Node15</title>
<g id="a_node16"><a xlink:href="include_2_functions_8hpp.html" target="_top" xlink:title="Functions.hpp">
<polygon fill="none" stroke="black" points="598.333,-112.5 598.333,-131.5 676.333,-131.5 676.333,-112.5 598.333,-112.5"/>
<text text-anchor="middle" x="637.333" y="-119.5" font-family="Helvetica,sans-Serif" font-size="10.00">Functions.hpp</text>
</a>
</g>
</g>
<!-- Node1&#45;&gt;Node15 -->
<g id="edge21" class="edge"><title>Node1&#45;&gt;Node15</title>
<path fill="none" stroke="midnightblue" d="M452.193,-168.444C490.249,-159.102 551.291,-144.119 592.793,-133.933"/>
<polygon fill="midnightblue" stroke="midnightblue" points="593.759,-137.299 602.637,-131.516 592.091,-130.501 593.759,-137.299"/>
</g>
<!-- Node8 -->
<g id="node9" class="node"><title>Node8</title>
<polygon fill="none" stroke="#bfbfbf" points="1176.33,-56.5 1176.33,-75.5 1238.33,-75.5 1238.33,-56.5 1176.33,-56.5"/>
<text text-anchor="middle" x="1207.33" y="-63.5" font-family="Helvetica,sans-Serif" font-size="10.00">type_traits</text>
</g>
<!-- Node7&#45;&gt;Node8 -->
<g id="edge8" class="edge"><title>Node7&#45;&gt;Node8</title>
<path fill="none" stroke="midnightblue" d="M1145.22,-112.324C1156.48,-104.107 1173.62,-91.6017 1187.04,-81.8069"/>
<polygon fill="midnightblue" stroke="midnightblue" points="1189.21,-84.5559 1195.23,-75.8339 1185.09,-78.9014 1189.21,-84.5559"/>
</g>
<!-- Node9 -->
<g id="node10" class="node"><title>Node9</title>
<polygon fill="none" stroke="#bfbfbf" points="1108.33,-56.5 1108.33,-75.5 1158.33,-75.5 1158.33,-56.5 1108.33,-56.5"/>
<text text-anchor="middle" x="1133.33" y="-63.5" font-family="Helvetica,sans-Serif" font-size="10.00">typeinfo</text>
</g>
<!-- Node7&#45;&gt;Node9 -->
<g id="edge9" class="edge"><title>Node7&#45;&gt;Node9</title>
<path fill="none" stroke="midnightblue" d="M1133.33,-112.083C1133.33,-105.006 1133.33,-94.8611 1133.33,-85.9865"/>
<polygon fill="midnightblue" stroke="midnightblue" points="1136.83,-85.751 1133.33,-75.7511 1129.83,-85.7511 1136.83,-85.751"/>
</g>
<!-- Node10&#45;&gt;Node2 -->
<g id="edge13" class="edge"><title>Node10&#45;&gt;Node2</title>
<path fill="none" stroke="midnightblue" d="M296.452,-56.4435C243.441,-45.3481 152.399,-26.2929 106.9,-16.7699"/>
<polygon fill="midnightblue" stroke="midnightblue" points="107.384,-13.2953 96.8788,-14.6723 105.95,-20.1468 107.384,-13.2953"/>
</g>
<!-- Node10&#45;&gt;Node3 -->
<g id="edge11" class="edge"><title>Node10&#45;&gt;Node3</title>
<path fill="none" stroke="midnightblue" d="M324.48,-56.324C312.117,-47.979 293.203,-35.2122 278.596,-25.3524"/>
<polygon fill="midnightblue" stroke="midnightblue" points="280.401,-22.3483 270.155,-19.6545 276.485,-28.1503 280.401,-22.3483"/>
</g>
<!-- Node10&#45;&gt;Node4 -->
<g id="edge12" class="edge"><title>Node10&#45;&gt;Node4</title>
<path fill="none" stroke="midnightblue" d="M350.187,-56.324C362.55,-47.979 381.463,-35.2122 396.07,-25.3524"/>
<polygon fill="midnightblue" stroke="midnightblue" points="398.181,-28.1503 404.512,-19.6545 394.265,-22.3483 398.181,-28.1503"/>
</g>
<!-- Node10&#45;&gt;Node5 -->
<g id="edge14" class="edge"><title>Node10&#45;&gt;Node5</title>
<path fill="none" stroke="midnightblue" d="M373.461,-56.4435C415.801,-46.4155 485.594,-29.8856 528.315,-19.7674"/>
<polygon fill="midnightblue" stroke="midnightblue" points="529.376,-23.1131 538.3,-17.4026 527.763,-16.3016 529.376,-23.1131"/>
</g>
<!-- Node11 -->
<g id="node12" class="node"><title>Node11</title>
<polygon fill="none" stroke="#bfbfbf" points="307.833,-0.5 307.833,-19.5 366.833,-19.5 366.833,-0.5 307.833,-0.5"/>
<text text-anchor="middle" x="337.333" y="-7.5" font-family="Helvetica,sans-Serif" font-size="10.00">exception</text>
</g>
<!-- Node10&#45;&gt;Node11 -->
<g id="edge15" class="edge"><title>Node10&#45;&gt;Node11</title>
<path fill="none" stroke="midnightblue" d="M337.333,-56.083C337.333,-49.0059 337.333,-38.8611 337.333,-29.9865"/>
<polygon fill="midnightblue" stroke="midnightblue" points="340.833,-29.751 337.333,-19.7511 333.833,-29.7511 340.833,-29.751"/>
</g>
<!-- Node12&#45;&gt;Node2 -->
<g id="edge17" class="edge"><title>Node12&#45;&gt;Node2</title>
<path fill="none" stroke="midnightblue" d="M120.99,-113.507C80.659,-106.043 27.2393,-93.2171 14.3332,-76 -1.04664,-55.4829 28.4834,-35.1155 52.6085,-22.7919"/>
<polygon fill="midnightblue" stroke="midnightblue" points="54.3422,-25.841 61.8124,-18.328 51.2875,-19.5427 54.3422,-25.841"/>
</g>
<!-- Node12&#45;&gt;Node5 -->
<g id="edge19" class="edge"><title>Node12&#45;&gt;Node5</title>
<path fill="none" stroke="midnightblue" d="M215.396,-114.225C262.098,-106.926 335.448,-93.9026 397.333,-76 447.7,-61.4294 504.152,-38.0649 537.115,-23.6742"/>
<polygon fill="midnightblue" stroke="midnightblue" points="538.817,-26.7492 546.559,-19.5159 535.996,-20.3428 538.817,-26.7492"/>
</g>
<!-- Node13 -->
<g id="node14" class="node"><title>Node13</title>
<polygon fill="none" stroke="#bfbfbf" points="145.333,-56.5 145.333,-75.5 191.333,-75.5 191.333,-56.5 145.333,-56.5"/>
<text text-anchor="middle" x="168.333" y="-63.5" font-family="Helvetica,sans-Serif" font-size="10.00">chrono</text>
</g>
<!-- Node12&#45;&gt;Node13 -->
<g id="edge18" class="edge"><title>Node12&#45;&gt;Node13</title>
<path fill="none" stroke="midnightblue" d="M168.333,-112.083C168.333,-105.006 168.333,-94.8611 168.333,-85.9865"/>
<polygon fill="midnightblue" stroke="midnightblue" points="171.833,-85.751 168.333,-75.7511 164.833,-85.7511 171.833,-85.751"/>
</g>
<!-- Node14 -->
<g id="node15" class="node"><title>Node14</title>
<polygon fill="none" stroke="#bfbfbf" points="23.3332,-56.5 23.3332,-75.5 127.333,-75.5 127.333,-56.5 23.3332,-56.5"/>
<text text-anchor="middle" x="75.3332" y="-63.5" font-family="Helvetica,sans-Serif" font-size="10.00">SFML/Graphics.hpp</text>
</g>
<!-- Node12&#45;&gt;Node14 -->
<g id="edge20" class="edge"><title>Node12&#45;&gt;Node14</title>
<path fill="none" stroke="midnightblue" d="M153.391,-112.324C138.748,-103.822 116.2,-90.7288 99.0955,-80.7975"/>
<polygon fill="midnightblue" stroke="midnightblue" points="100.644,-77.6491 90.2382,-75.6545 97.1286,-83.7027 100.644,-77.6491"/>
</g>
<!-- Node15&#45;&gt;Node2 -->
<g id="edge26" class="edge"><title>Node15&#45;&gt;Node2</title>
<path fill="none" stroke="midnightblue" d="M598.296,-119.247C529.287,-115.508 381.583,-104.618 260.333,-76 244.931,-72.3647 153.071,-38.4639 106.447,-21.1196"/>
<polygon fill="midnightblue" stroke="midnightblue" points="107.555,-17.7975 96.9621,-17.5875 105.112,-24.3574 107.555,-17.7975"/>
</g>
<!-- Node15&#45;&gt;Node3 -->
<g id="edge24" class="edge"><title>Node15&#45;&gt;Node3</title>
<path fill="none" stroke="midnightblue" d="M598.102,-121.359C514.82,-121.308 324.066,-116.632 276.333,-76 263.064,-64.7045 258.791,-44.6996 257.545,-29.8569"/>
<polygon fill="midnightblue" stroke="midnightblue" points="261.035,-29.5725 257.083,-19.7426 254.043,-29.8918 261.035,-29.5725"/>
</g>
<!-- Node15&#45;&gt;Node4 -->
<g id="edge23" class="edge"><title>Node15&#45;&gt;Node4</title>
<path fill="none" stroke="midnightblue" d="M606.889,-112.425C581.007,-104.582 543.238,-91.8075 512.333,-76 484.072,-61.5445 454.307,-40.0028 435.785,-25.734"/>
<polygon fill="midnightblue" stroke="midnightblue" points="437.916,-22.9577 427.882,-19.559 433.607,-28.4738 437.916,-22.9577"/>
</g>
<!-- Node15&#45;&gt;Node5 -->
<g id="edge22" class="edge"><title>Node15&#45;&gt;Node5</title>
<path fill="none" stroke="midnightblue" d="M636.408,-112.346C634.67,-99.2302 629.981,-73.9495 618.333,-56 610.531,-43.9759 598.563,-33.4242 587.972,-25.5662"/>
<polygon fill="midnightblue" stroke="midnightblue" points="589.716,-22.5137 579.522,-19.6258 585.69,-28.2402 589.716,-22.5137"/>
</g>
<!-- Node15&#45;&gt;Node9 -->
<g id="edge31" class="edge"><title>Node15&#45;&gt;Node9</title>
<path fill="none" stroke="midnightblue" d="M676.566,-119.32C754.965,-115.504 936.619,-104.356 1098.07,-75.9491"/>
<polygon fill="midnightblue" stroke="midnightblue" points="1098.96,-79.3465 1108.18,-74.142 1097.72,-72.4556 1098.96,-79.3465"/>
</g>
<!-- Node15&#45;&gt;Node10 -->
<g id="edge34" class="edge"><title>Node15&#45;&gt;Node10</title>
<path fill="none" stroke="midnightblue" d="M598.113,-113.94C546.24,-104.603 454.431,-88.0776 394.744,-77.3339"/>
<polygon fill="midnightblue" stroke="midnightblue" points="395.184,-73.8569 384.722,-75.5299 393.943,-80.7462 395.184,-73.8569"/>
</g>
<!-- Node15&#45;&gt;Node13 -->
<g id="edge27" class="edge"><title>Node15&#45;&gt;Node13</title>
<path fill="none" stroke="midnightblue" d="M598.073,-118.689C521.901,-113.814 348.925,-100.826 205.333,-76 204.087,-75.7846 202.821,-75.5512 201.545,-75.3036"/>
<polygon fill="midnightblue" stroke="midnightblue" points="202.234,-71.8718 191.721,-73.1932 200.763,-78.7156 202.234,-71.8718"/>
</g>
<!-- Node16 -->
<g id="node17" class="node"><title>Node16</title>
<polygon fill="none" stroke="#bfbfbf" points="665.333,-56.5 665.333,-75.5 717.333,-75.5 717.333,-56.5 665.333,-56.5"/>
<text text-anchor="middle" x="691.333" y="-63.5" font-family="Helvetica,sans-Serif" font-size="10.00">sstream</text>
</g>
<!-- Node15&#45;&gt;Node16 -->
<g id="edge25" class="edge"><title>Node15&#45;&gt;Node16</title>
<path fill="none" stroke="midnightblue" d="M646.25,-112.083C654.114,-104.22 665.764,-92.5688 675.252,-83.0813"/>
<polygon fill="midnightblue" stroke="midnightblue" points="677.986,-85.2971 682.582,-75.7511 673.036,-80.3473 677.986,-85.2971"/>
</g>
<!-- Node17 -->
<g id="node18" class="node"><title>Node17</title>
<polygon fill="none" stroke="#bfbfbf" points="735.833,-56.5 735.833,-75.5 784.833,-75.5 784.833,-56.5 735.833,-56.5"/>
<text text-anchor="middle" x="760.333" y="-63.5" font-family="Helvetica,sans-Serif" font-size="10.00">random</text>
</g>
<!-- Node15&#45;&gt;Node17 -->
<g id="edge28" class="edge"><title>Node15&#45;&gt;Node17</title>
<path fill="none" stroke="midnightblue" d="M656.823,-112.444C676.975,-103.596 708.656,-89.6875 731.664,-79.5865"/>
<polygon fill="midnightblue" stroke="midnightblue" points="733.185,-82.7411 740.935,-75.5164 730.371,-76.3316 733.185,-82.7411"/>
</g>
<!-- Node18 -->
<g id="node19" class="node"><title>Node18</title>
<polygon fill="none" stroke="#bfbfbf" points="803.333,-56.5 803.333,-75.5 859.333,-75.5 859.333,-56.5 803.333,-56.5"/>
<text text-anchor="middle" x="831.333" y="-63.5" font-family="Helvetica,sans-Serif" font-size="10.00">algorithm</text>
</g>
<!-- Node15&#45;&gt;Node18 -->
<g id="edge29" class="edge"><title>Node15&#45;&gt;Node18</title>
<path fill="none" stroke="midnightblue" d="M668.073,-112.444C702.059,-102.984 756.831,-87.7377 793.444,-77.5465"/>
<polygon fill="midnightblue" stroke="midnightblue" points="794.562,-80.8685 803.257,-74.8151 792.684,-74.1249 794.562,-80.8685"/>
</g>
<!-- Node19 -->
<g id="node20" class="node"><title>Node19</title>
<polygon fill="none" stroke="#bfbfbf" points="877.833,-56.5 877.833,-75.5 924.833,-75.5 924.833,-56.5 877.833,-56.5"/>
<text text-anchor="middle" x="901.333" y="-63.5" font-family="Helvetica,sans-Serif" font-size="10.00">iterator</text>
</g>
<!-- Node15&#45;&gt;Node19 -->
<g id="edge30" class="edge"><title>Node15&#45;&gt;Node19</title>
<path fill="none" stroke="midnightblue" d="M676.348,-114.307C720.446,-106.542 794.573,-92.8879 867.746,-75.9944"/>
<polygon fill="midnightblue" stroke="midnightblue" points="868.649,-79.3779 877.593,-73.6996 867.06,-72.5606 868.649,-79.3779"/>
</g>
<!-- Node20 -->
<g id="node21" class="node"><title>Node20</title>
<polygon fill="none" stroke="#bfbfbf" points="942.833,-56.5 942.833,-75.5 991.833,-75.5 991.833,-56.5 942.833,-56.5"/>
<text text-anchor="middle" x="967.333" y="-63.5" font-family="Helvetica,sans-Serif" font-size="10.00">fstream</text>
</g>
<!-- Node15&#45;&gt;Node20 -->
<g id="edge32" class="edge"><title>Node15&#45;&gt;Node20</title>
<path fill="none" stroke="midnightblue" d="M676.511,-116.533C731.683,-109.921 835.554,-96.3032 932.573,-76.1877"/>
<polygon fill="midnightblue" stroke="midnightblue" points="933.476,-79.5744 942.542,-74.0922 932.036,-72.7241 933.476,-79.5744"/>
</g>
<!-- Node21 -->
<g id="node22" class="node"><title>Node21</title>
<polygon fill="none" stroke="#bfbfbf" points="1010.33,-56.5 1010.33,-75.5 1090.33,-75.5 1090.33,-56.5 1010.33,-56.5"/>
<text text-anchor="middle" x="1050.33" y="-63.5" font-family="Helvetica,sans-Serif" font-size="10.00">tinydir/tinydir.h</text>
</g>
<!-- Node15&#45;&gt;Node21 -->
<g id="edge33" class="edge"><title>Node15&#45;&gt;Node21</title>
<path fill="none" stroke="midnightblue" d="M676.491,-116.921C741.528,-109.981 876.139,-94.914 1000.2,-76.0962"/>
<polygon fill="midnightblue" stroke="midnightblue" points="1000.9,-79.5302 1010.25,-74.5592 999.84,-72.6106 1000.9,-79.5302"/>
</g>
<!-- Node22 -->
<g id="node23" class="node"><title>Node22</title>
<g id="a_node23"><a xlink:href="_coordinates_8hpp.html" target="_top" xlink:title="Coordinates.hpp">
<polygon fill="none" stroke="black" points="521.833,-56.5 521.833,-75.5 608.833,-75.5 608.833,-56.5 521.833,-56.5"/>
<text text-anchor="middle" x="565.333" y="-63.5" font-family="Helvetica,sans-Serif" font-size="10.00">Coordinates.hpp</text>
</a>
</g>
</g>
<!-- Node15&#45;&gt;Node22 -->
<g id="edge35" class="edge"><title>Node15&#45;&gt;Node22</title>
<path fill="none" stroke="midnightblue" d="M625.765,-112.324C614.913,-104.185 598.453,-91.8395 585.45,-82.0874"/>
<polygon fill="midnightblue" stroke="midnightblue" points="587.212,-79.0339 577.112,-75.8339 583.012,-84.6339 587.212,-79.0339"/>
</g>
<!-- Node22&#45;&gt;Node5 -->
<g id="edge36" class="edge"><title>Node22&#45;&gt;Node5</title>
<path fill="none" stroke="midnightblue" d="M565.333,-56.083C565.333,-49.0059 565.333,-38.8611 565.333,-29.9865"/>
<polygon fill="midnightblue" stroke="midnightblue" points="568.833,-29.751 565.333,-19.7511 561.833,-29.7511 568.833,-29.751"/>
</g>
</g>
</svg>
        <g id="navigator" transform="translate(0 0)" fill="#404254">
                <rect fill="#f2f5e9" fill-opacity="0.5" stroke="#606060" stroke-width=".5" x="0" y="0" width="60" height="60"/>
                <use id="zoomplus" xlink:href="#zoomPlus" x="17" y="9" onmousedown="handleZoom(evt,'in')"/>
                <use id="zoomminus" xlink:href="#zoomMin" x="42" y="9" onmousedown="handleZoom(evt,'out')"/>
                <use id="reset" xlink:href="#resetDef" x="30" y="36" onmousedown="handleReset()"/>
                <g id="arrowUp" xlink:href="#dirArrow" transform="translate(30 24)" onmousedown="handlePan(0,-1)">
                  <use xlink:href="#rim" fill="#404040">
                        <set attributeName="fill" to="#808080" begin="arrowUp.mouseover" end="arrowUp.mouseout"/>
                  </use>
                  <path fill="none" stroke="white" stroke-width="1.5" d="M0,-3.0v7 M-2.5,-0.5L0,-3.0L2.5,-0.5"/>
                </g>
                <g id="arrowRight" xlink:href="#dirArrow" transform="rotate(90) translate(36 -43)" onmousedown="handlePan(1,0)">
                  <use xlink:href="#rim" fill="#404040">
                        <set attributeName="fill" to="#808080" begin="arrowRight.mouseover" end="arrowRight.mouseout"/>
                  </use>
                  <path fill="none" stroke="white" stroke-width="1.5" d="M0,-3.0v7 M-2.5,-0.5L0,-3.0L2.5,-0.5"/>
                </g>
                <g id="arrowDown" xlink:href="#dirArrow" transform="rotate(180) translate(-30 -48)" onmousedown="handlePan(0,1)">
                  <use xlink:href="#rim" fill="#404040">
                        <set attributeName="fill" to="#808080" begin="arrowDown.mouseover" end="arrowDown.mouseout"/>
                  </use>
                  <path fill="none" stroke="white" stroke-width="1.5" d="M0,-3.0v7 M-2.5,-0.5L0,-3.0L2.5,-0.5"/>
                </g>
                <g id="arrowLeft" xlink:href="#dirArrow" transform="rotate(270) translate(-36 17)" onmousedown="handlePan(-1,0)">
                  <use xlink:href="#rim" fill="#404040">
                        <set attributeName="fill" to="#808080" begin="arrowLeft.mouseover" end="arrowLeft.mouseout"/>
                  </use>
                  <path fill="none" stroke="white" stroke-width="1.5" d="M0,-3.0v7 M-2.5,-0.5L0,-3.0L2.5,-0.5"/>
                </g>
        </g>
        <svg viewBox="0 0 15 15" width="100%" height="30px" preserveAspectRatio="xMaxYMin meet">
         <g id="arrow_out" transform="scale(0.3 0.3)">
          <a xlink:href="_triggers_8cpp__incl_org.svg" target="_base">
           <rect id="button" ry="5" rx="5" y="6" x="6" height="38" width="38"
                fill="#f2f5e9" fill-opacity="0.5" stroke="#606060" stroke-width="1.0"/>
           <path id="arrow"
             d="M 11.500037,31.436501 C 11.940474,20.09759 22.043105,11.32322 32.158766,21.979434 L 37.068811,17.246167 C 37.068811,17.246167 37.088388,32 37.088388,32 L 22.160133,31.978069 C 22.160133,31.978069 26.997745,27.140456 26.997745,27.140456 C 18.528582,18.264221 13.291696,25.230495 11.500037,31.436501 z"
             style="fill:#404040;"/>
          </a>
         </g>
        </svg>
</svg>
