<?xml version="1.0" encoding="UTF-8" standalone="no"?>
<!DOCTYPE svg PUBLIC "-//W3C//DTD SVG 1.1//EN"
 "http://www.w3.org/Graphics/SVG/1.1/DTD/svg11.dtd">
<!-- Generated by graphviz version 2.38.0 (20140413.2041)
 -->
<!-- Title: E:/Dev/ObEngine/Git/include/Triggers.hpp Pages: 1 -->
<!--zoomable 207 -->
<svg id="main" version="1.1" xmlns="http://www.w3.org/2000/svg" xmlns:xlink="http://www.w3.org/1999/xlink" xml:space="preserve" onload="init(evt)">
<style type="text/css"><![CDATA[
.edge:hover path { stroke: red; }
.edge:hover polygon { stroke: red; fill: red; }
.edge path { stroke: white; }
.edge polygon { stroke: white; fill: white; }
.node polygon { fill: white; }
]]></style>
<script type="text/javascript"><![CDATA[
var edges = document.getElementsByTagName('g');
if (edges && edges.length) {
  for (var i=0;i<edges.length;i++) {
    if (edges[i].id.substr(0,4)=='edge') {
      edges[i].setAttribute('class','edge');
    }
  }
}
]]></script>
        <defs>
                <circle id="rim" cx="0" cy="0" r="7"/>
                <circle id="rim2" cx="0" cy="0" r="3.5"/>
                <g id="zoomPlus">
                        <use xlink:href="#rim" fill="#404040">
                                <set attributeName="fill" to="#808080" begin="zoomplus.mouseover" end="zoomplus.mouseout"/>
                        </use>
                        <path d="M-4,0h8M0,-4v8" fill="none" stroke="white" stroke-width="1.5" pointer-events="none"/>
                </g>
                <g id="zoomMin">
                        <use xlink:href="#rim" fill="#404040">
                                <set attributeName="fill" to="#808080" begin="zoomminus.mouseover" end="zoomminus.mouseout"/>
                        </use>
                        <path d="M-4,0h8" fill="none" stroke="white" stroke-width="1.5" pointer-events="none"/>
                </g>
                <g id="dirArrow">
                        <path fill="none" stroke="white" stroke-width="1.5" d="M0,-3.0v7 M-2.5,-0.5L0,-3.0L2.5,-0.5"/>
                </g>
               <g id="resetDef">
                       <use xlink:href="#rim2" fill="#404040">
                               <set attributeName="fill" to="#808080" begin="reset.mouseover" end="reset.mouseout"/>
                       </use>
               </g>
        </defs>

<script type="text/javascript">
var viewWidth = 1404;
var viewHeight = 207;
var sectionId = 'dynsection-0';
</script>
<script xlink:href="svgpan.js"/>
<svg id="graph" class="graph">
<g id="viewport">
<title>E:/Dev/ObEngine/Git/include/Triggers.hpp</title>
<!-- Node0 -->
<g id="node1" class="node"><title>Node0</title>
<polygon fill="#bfbfbf" stroke="black" points="363.819,-168.5 363.819,-198.5 470.819,-198.5 470.819,-168.5 363.819,-168.5"/>
<text text-anchor="start" x="371.819" y="-186.5" font-family="Helvetica,sans-Serif" font-size="10.00">E:/Dev/ObEngine/Git</text>
<text text-anchor="middle" x="417.319" y="-175.5" font-family="Helvetica,sans-Serif" font-size="10.00">/include/Triggers.hpp</text>
</g>
<!-- Node1 -->
<g id="node2" class="node"><title>Node1</title>
<polygon fill="white" stroke="#bfbfbf" points="61.8187,-0.5 61.8187,-19.5 96.8187,-19.5 96.8187,-0.5 61.8187,-0.5"/>
<text text-anchor="middle" x="79.3187" y="-7.5" font-family="Helvetica,sans-Serif" font-size="10.00">map</text>
</g>
<!-- Node0&#45;&gt;Node1 -->
<g id="edge1" class="edge"><title>Node0&#45;&gt;Node1</title>
<path fill="none" stroke="midnightblue" d="M363.595,-180.287C274.211,-175.77 99.6058,-163.146 47.3187,-132 14.3459,-112.359 -12.3901,-89.5107 6.31873,-56 16.0551,-38.5605 35.6345,-27.0411 52.0667,-20.0263"/>
<polygon fill="midnightblue" stroke="midnightblue" points="53.7377,-23.1309 61.7752,-16.228 51.1873,-16.612 53.7377,-23.1309"/>
</g>
<!-- Node2 -->
<g id="node3" class="node"><title>Node2</title>
<polygon fill="white" stroke="#bfbfbf" points="236.819,-0.5 236.819,-19.5 277.819,-19.5 277.819,-0.5 236.819,-0.5"/>
<text text-anchor="middle" x="257.319" y="-7.5" font-family="Helvetica,sans-Serif" font-size="10.00">string</text>
</g>
<!-- Node0&#45;&gt;Node2 -->
<g id="edge2" class="edge"><title>Node0&#45;&gt;Node2</title>
<path fill="none" stroke="midnightblue" d="M363.816,-179.387C301.769,-174.48 197.151,-162.163 112.319,-132 65.0524,-115.194 39.498,-119.388 14.3187,-76 9.85716,-68.3119 8.63432,-62.8337 14.3187,-56 40.988,-23.9386 167.28,-14.6212 226.513,-11.9935"/>
<polygon fill="midnightblue" stroke="midnightblue" points="226.905,-15.4806 236.754,-11.5768 226.62,-8.48639 226.905,-15.4806"/>
</g>
<!-- Node3 -->
<g id="node4" class="node"><title>Node3</title>
<polygon fill="white" stroke="#bfbfbf" points="396.319,-0.5 396.319,-19.5 438.319,-19.5 438.319,-0.5 396.319,-0.5"/>
<text text-anchor="middle" x="417.319" y="-7.5" font-family="Helvetica,sans-Serif" font-size="10.00">vector</text>
</g>
<!-- Node0&#45;&gt;Node3 -->
<g id="edge3" class="edge"><title>Node0&#45;&gt;Node3</title>
<path fill="none" stroke="midnightblue" d="M417.319,-168.465C417.319,-137.704 417.319,-64.3288 417.319,-29.7003"/>
<polygon fill="midnightblue" stroke="midnightblue" points="420.819,-29.5597 417.319,-19.5597 413.819,-29.5597 420.819,-29.5597"/>
</g>
<!-- Node4 -->
<g id="node5" class="node"><title>Node4</title>
<polygon fill="white" stroke="#bfbfbf" points="538.319,-0.5 538.319,-19.5 592.319,-19.5 592.319,-0.5 538.319,-0.5"/>
<text text-anchor="middle" x="565.319" y="-7.5" font-family="Helvetica,sans-Serif" font-size="10.00">iostream</text>
</g>
<!-- Node0&#45;&gt;Node4 -->
<g id="edge4" class="edge"><title>Node0&#45;&gt;Node4</title>
<path fill="none" stroke="midnightblue" d="M470.925,-183.073C621.942,-184.04 1048.28,-182.13 1177.32,-132 1214.46,-117.572 1230.06,-111.909 1247.32,-76 1251.17,-67.9884 1253.39,-62.489 1247.32,-56 1203.1,-8.76985 739.241,-9.35293 602.841,-10.5611"/>
<polygon fill="midnightblue" stroke="midnightblue" points="602.461,-7.0645 592.495,-10.6597 602.528,-14.0642 602.461,-7.0645"/>
</g>
<!-- Node5 -->
<g id="node6" class="node"><title>Node5</title>
<polygon fill="white" stroke="#bfbfbf" points="1294.82,-112.5 1294.82,-131.5 1395.82,-131.5 1395.82,-112.5 1294.82,-112.5"/>
<text text-anchor="middle" x="1345.32" y="-119.5" font-family="Helvetica,sans-Serif" font-size="10.00">kaguya/kaguya.hpp</text>
</g>
<!-- Node0&#45;&gt;Node5 -->
<g id="edge5" class="edge"><title>Node0&#45;&gt;Node5</title>
<path fill="none" stroke="midnightblue" d="M470.959,-180.838C606.721,-176.31 974.873,-162.036 1280.32,-132 1281.63,-131.871 1282.95,-131.736 1284.28,-131.595"/>
<polygon fill="midnightblue" stroke="midnightblue" points="1285.08,-135.026 1294.62,-130.414 1284.29,-128.071 1285.08,-135.026"/>
</g>
<!-- Node6 -->
<g id="node7" class="node"><title>Node6</title>
<g id="a_node7"><a xlink:href="any_8hpp.html" target="_top" xlink:title="any/any.hpp">
<polygon fill="white" stroke="black" points="1098.32,-112.5 1098.32,-131.5 1168.32,-131.5 1168.32,-112.5 1098.32,-112.5"/>
<text text-anchor="middle" x="1133.32" y="-119.5" font-family="Helvetica,sans-Serif" font-size="10.00">any/any.hpp</text>
</a>
</g>
</g>
<!-- Node0&#45;&gt;Node6 -->
<g id="edge6" class="edge"><title>Node0&#45;&gt;Node6</title>
<path fill="none" stroke="midnightblue" d="M470.842,-178.052C606.47,-166.781 961.81,-137.252 1088.03,-126.764"/>
<polygon fill="midnightblue" stroke="midnightblue" points="1088.45,-130.241 1098.12,-125.925 1087.87,-123.265 1088.45,-130.241"/>
</g>
<!-- Node9 -->
<g id="node10" class="node"><title>Node9</title>
<g id="a_node10"><a xlink:href="_error_handler_8hpp.html" target="_top" xlink:title="vili/ErrorHandler.hpp">
<polygon fill="white" stroke="black" points="285.819,-56.5 285.819,-75.5 388.819,-75.5 388.819,-56.5 285.819,-56.5"/>
<text text-anchor="middle" x="337.319" y="-63.5" font-family="Helvetica,sans-Serif" font-size="10.00">vili/ErrorHandler.hpp</text>
</a>
</g>
</g>
<!-- Node0&#45;&gt;Node9 -->
<g id="edge9" class="edge"><title>Node0&#45;&gt;Node9</title>
<path fill="none" stroke="midnightblue" d="M407.509,-168.337C392.767,-147.054 364.946,-106.887 349.118,-84.0346"/>
<polygon fill="midnightblue" stroke="midnightblue" points="351.895,-81.8972 343.324,-75.6695 346.14,-85.883 351.895,-81.8972"/>
</g>
<!-- Node11 -->
<g id="node12" class="node"><title>Node11</title>
<g id="a_node12"><a xlink:href="_time_manager_8hpp.html" target="_top" xlink:title="TimeManager.hpp">
<polygon fill="white" stroke="black" points="121.319,-112.5 121.319,-131.5 215.319,-131.5 215.319,-112.5 121.319,-112.5"/>
<text text-anchor="middle" x="168.319" y="-119.5" font-family="Helvetica,sans-Serif" font-size="10.00">TimeManager.hpp</text>
</a>
</g>
</g>
<!-- Node0&#45;&gt;Node11 -->
<g id="edge15" class="edge"><title>Node0&#45;&gt;Node11</title>
<path fill="none" stroke="midnightblue" d="M363.596,-169.663C318.86,-158.973 255.866,-143.92 213.641,-133.83"/>
<polygon fill="midnightblue" stroke="midnightblue" points="214.446,-130.424 203.906,-131.504 212.819,-137.232 214.446,-130.424"/>
</g>
<!-- Node14 -->
<g id="node15" class="node"><title>Node14</title>
<g id="a_node15"><a xlink:href="include_2_functions_8hpp.html" target="_top" xlink:title="Functions.hpp">
<polygon fill="white" stroke="black" points="598.319,-112.5 598.319,-131.5 676.319,-131.5 676.319,-112.5 598.319,-112.5"/>
<text text-anchor="middle" x="637.319" y="-119.5" font-family="Helvetica,sans-Serif" font-size="10.00">Functions.hpp</text>
</a>
</g>
</g>
<!-- Node0&#45;&gt;Node14 -->
<g id="edge20" class="edge"><title>Node0&#45;&gt;Node14</title>
<path fill="none" stroke="midnightblue" d="M469.177,-168.475C507.96,-157.986 560.275,-143.837 596.195,-134.122"/>
<polygon fill="midnightblue" stroke="midnightblue" points="597.127,-137.496 605.867,-131.506 595.3,-130.739 597.127,-137.496"/>
</g>
<!-- Node7 -->
<g id="node8" class="node"><title>Node7</title>
<polygon fill="white" stroke="#bfbfbf" points="1176.32,-56.5 1176.32,-75.5 1238.32,-75.5 1238.32,-56.5 1176.32,-56.5"/>
<text text-anchor="middle" x="1207.32" y="-63.5" font-family="Helvetica,sans-Serif" font-size="10.00">type_traits</text>
</g>
<!-- Node6&#45;&gt;Node7 -->
<g id="edge7" class="edge"><title>Node6&#45;&gt;Node7</title>
<path fill="none" stroke="midnightblue" d="M1145.21,-112.324C1156.47,-104.107 1173.61,-91.6017 1187.03,-81.8069"/>
<polygon fill="midnightblue" stroke="midnightblue" points="1189.2,-84.5559 1195.21,-75.8339 1185.07,-78.9014 1189.2,-84.5559"/>
</g>
<!-- Node8 -->
<g id="node9" class="node"><title>Node8</title>
<polygon fill="white" stroke="#bfbfbf" points="1108.32,-56.5 1108.32,-75.5 1158.32,-75.5 1158.32,-56.5 1108.32,-56.5"/>
<text text-anchor="middle" x="1133.32" y="-63.5" font-family="Helvetica,sans-Serif" font-size="10.00">typeinfo</text>
</g>
<!-- Node6&#45;&gt;Node8 -->
<g id="edge8" class="edge"><title>Node6&#45;&gt;Node8</title>
<path fill="none" stroke="midnightblue" d="M1133.32,-112.083C1133.32,-105.006 1133.32,-94.8611 1133.32,-85.9865"/>
<polygon fill="midnightblue" stroke="midnightblue" points="1136.82,-85.751 1133.32,-75.7511 1129.82,-85.7511 1136.82,-85.751"/>
</g>
<!-- Node9&#45;&gt;Node1 -->
<g id="edge12" class="edge"><title>Node9&#45;&gt;Node1</title>
<path fill="none" stroke="midnightblue" d="M296.438,-56.4435C243.426,-45.3481 152.385,-26.2929 106.886,-16.7699"/>
<polygon fill="midnightblue" stroke="midnightblue" points="107.369,-13.2953 96.8643,-14.6723 105.935,-20.1468 107.369,-13.2953"/>
</g>
<!-- Node9&#45;&gt;Node2 -->
<g id="edge10" class="edge"><title>Node9&#45;&gt;Node2</title>
<path fill="none" stroke="midnightblue" d="M324.465,-56.324C312.102,-47.979 293.189,-35.2122 278.582,-25.3524"/>
<polygon fill="midnightblue" stroke="midnightblue" points="280.387,-22.3483 270.14,-19.6545 276.471,-28.1503 280.387,-22.3483"/>
</g>
<!-- Node9&#45;&gt;Node3 -->
<g id="edge11" class="edge"><title>Node9&#45;&gt;Node3</title>
<path fill="none" stroke="midnightblue" d="M350.172,-56.324C362.535,-47.979 381.449,-35.2122 396.056,-25.3524"/>
<polygon fill="midnightblue" stroke="midnightblue" points="398.167,-28.1503 404.497,-19.6545 394.251,-22.3483 398.167,-28.1503"/>
</g>
<!-- Node9&#45;&gt;Node4 -->
<g id="edge13" class="edge"><title>Node9&#45;&gt;Node4</title>
<path fill="none" stroke="midnightblue" d="M373.446,-56.4435C415.787,-46.4155 485.58,-29.8856 528.301,-19.7674"/>
<polygon fill="midnightblue" stroke="midnightblue" points="529.361,-23.1131 538.286,-17.4026 527.748,-16.3016 529.361,-23.1131"/>
</g>
<!-- Node10 -->
<g id="node11" class="node"><title>Node10</title>
<polygon fill="white" stroke="#bfbfbf" points="307.819,-0.5 307.819,-19.5 366.819,-19.5 366.819,-0.5 307.819,-0.5"/>
<text text-anchor="middle" x="337.319" y="-7.5" font-family="Helvetica,sans-Serif" font-size="10.00">exception</text>
</g>
<!-- Node9&#45;&gt;Node10 -->
<g id="edge14" class="edge"><title>Node9&#45;&gt;Node10</title>
<path fill="none" stroke="midnightblue" d="M337.319,-56.083C337.319,-49.0059 337.319,-38.8611 337.319,-29.9865"/>
<polygon fill="midnightblue" stroke="midnightblue" points="340.819,-29.751 337.319,-19.7511 333.819,-29.7511 340.819,-29.751"/>
</g>
<!-- Node11&#45;&gt;Node1 -->
<g id="edge16" class="edge"><title>Node11&#45;&gt;Node1</title>
<path fill="none" stroke="midnightblue" d="M120.976,-113.507C80.6445,-106.043 27.2248,-93.2171 14.3187,-76 -1.06114,-55.4829 28.4689,-35.1155 52.594,-22.7919"/>
<polygon fill="midnightblue" stroke="midnightblue" points="54.3277,-25.841 61.798,-18.328 51.273,-19.5427 54.3277,-25.841"/>
</g>
<!-- Node11&#45;&gt;Node4 -->
<g id="edge18" class="edge"><title>Node11&#45;&gt;Node4</title>
<path fill="none" stroke="midnightblue" d="M215.382,-114.225C262.083,-106.926 335.434,-93.9026 397.319,-76 447.686,-61.4294 504.137,-38.0649 537.101,-23.6742"/>
<polygon fill="midnightblue" stroke="midnightblue" points="538.803,-26.7492 546.544,-19.5159 535.982,-20.3428 538.803,-26.7492"/>
</g>
<!-- Node12 -->
<g id="node13" class="node"><title>Node12</title>
<polygon fill="white" stroke="#bfbfbf" points="145.319,-56.5 145.319,-75.5 191.319,-75.5 191.319,-56.5 145.319,-56.5"/>
<text text-anchor="middle" x="168.319" y="-63.5" font-family="Helvetica,sans-Serif" font-size="10.00">chrono</text>
</g>
<!-- Node11&#45;&gt;Node12 -->
<g id="edge17" class="edge"><title>Node11&#45;&gt;Node12</title>
<path fill="none" stroke="midnightblue" d="M168.319,-112.083C168.319,-105.006 168.319,-94.8611 168.319,-85.9865"/>
<polygon fill="midnightblue" stroke="midnightblue" points="171.819,-85.751 168.319,-75.7511 164.819,-85.7511 171.819,-85.751"/>
</g>
<!-- Node13 -->
<g id="node14" class="node"><title>Node13</title>
<polygon fill="white" stroke="#bfbfbf" points="23.3187,-56.5 23.3187,-75.5 127.319,-75.5 127.319,-56.5 23.3187,-56.5"/>
<text text-anchor="middle" x="75.3187" y="-63.5" font-family="Helvetica,sans-Serif" font-size="10.00">SFML/Graphics.hpp</text>
</g>
<!-- Node11&#45;&gt;Node13 -->
<g id="edge19" class="edge"><title>Node11&#45;&gt;Node13</title>
<path fill="none" stroke="midnightblue" d="M153.377,-112.324C138.734,-103.822 116.185,-90.7288 99.081,-80.7975"/>
<polygon fill="midnightblue" stroke="midnightblue" points="100.629,-77.6491 90.2237,-75.6545 97.1141,-83.7027 100.629,-77.6491"/>
</g>
<!-- Node14&#45;&gt;Node1 -->
<g id="edge25" class="edge"><title>Node14&#45;&gt;Node1</title>
<path fill="none" stroke="midnightblue" d="M598.281,-119.247C529.273,-115.508 381.568,-104.618 260.319,-76 244.917,-72.3647 153.056,-38.4639 106.432,-21.1196"/>
<polygon fill="midnightblue" stroke="midnightblue" points="107.54,-17.7975 96.9476,-17.5875 105.097,-24.3574 107.54,-17.7975"/>
</g>
<!-- Node14&#45;&gt;Node2 -->
<g id="edge23" class="edge"><title>Node14&#45;&gt;Node2</title>
<path fill="none" stroke="midnightblue" d="M598.088,-121.359C514.806,-121.308 324.052,-116.632 276.319,-76 263.049,-64.7045 258.776,-44.6996 257.53,-29.8569"/>
<polygon fill="midnightblue" stroke="midnightblue" points="261.021,-29.5725 257.069,-19.7426 254.028,-29.8918 261.021,-29.5725"/>
</g>
<!-- Node14&#45;&gt;Node3 -->
<g id="edge22" class="edge"><title>Node14&#45;&gt;Node3</title>
<path fill="none" stroke="midnightblue" d="M606.874,-112.425C580.993,-104.582 543.223,-91.8075 512.319,-76 484.058,-61.5445 454.293,-40.0028 435.771,-25.734"/>
<polygon fill="midnightblue" stroke="midnightblue" points="437.902,-22.9577 427.867,-19.559 433.592,-28.4738 437.902,-22.9577"/>
</g>
<!-- Node14&#45;&gt;Node4 -->
<g id="edge21" class="edge"><title>Node14&#45;&gt;Node4</title>
<path fill="none" stroke="midnightblue" d="M636.394,-112.346C634.656,-99.2302 629.967,-73.9495 618.319,-56 610.516,-43.9759 598.548,-33.4242 587.958,-25.5662"/>
<polygon fill="midnightblue" stroke="midnightblue" points="589.702,-22.5137 579.508,-19.6258 585.676,-28.2402 589.702,-22.5137"/>
</g>
<!-- Node14&#45;&gt;Node8 -->
<g id="edge30" class="edge"><title>Node14&#45;&gt;Node8</title>
<path fill="none" stroke="midnightblue" d="M676.551,-119.32C754.95,-115.504 936.605,-104.356 1098.06,-75.9491"/>
<polygon fill="midnightblue" stroke="midnightblue" points="1098.94,-79.3465 1108.17,-74.142 1097.71,-72.4556 1098.94,-79.3465"/>
</g>
<!-- Node14&#45;&gt;Node9 -->
<g id="edge33" class="edge"><title>Node14&#45;&gt;Node9</title>
<path fill="none" stroke="midnightblue" d="M598.099,-113.94C546.226,-104.603 454.416,-88.0776 394.73,-77.3339"/>
<polygon fill="midnightblue" stroke="midnightblue" points="395.169,-73.8569 384.707,-75.5299 393.929,-80.7462 395.169,-73.8569"/>
</g>
<!-- Node14&#45;&gt;Node12 -->
<g id="edge26" class="edge"><title>Node14&#45;&gt;Node12</title>
<path fill="none" stroke="midnightblue" d="M598.058,-118.689C521.887,-113.814 348.91,-100.826 205.319,-76 204.073,-75.7846 202.807,-75.5512 201.53,-75.3036"/>
<polygon fill="midnightblue" stroke="midnightblue" points="202.219,-71.8718 191.707,-73.1932 200.749,-78.7156 202.219,-71.8718"/>
</g>
<!-- Node15 -->
<g id="node16" class="node"><title>Node15</title>
<polygon fill="white" stroke="#bfbfbf" points="665.319,-56.5 665.319,-75.5 717.319,-75.5 717.319,-56.5 665.319,-56.5"/>
<text text-anchor="middle" x="691.319" y="-63.5" font-family="Helvetica,sans-Serif" font-size="10.00">sstream</text>
</g>
<!-- Node14&#45;&gt;Node15 -->
<g id="edge24" class="edge"><title>Node14&#45;&gt;Node15</title>
<path fill="none" stroke="midnightblue" d="M646.236,-112.083C654.099,-104.22 665.75,-92.5688 675.237,-83.0813"/>
<polygon fill="midnightblue" stroke="midnightblue" points="677.971,-85.2971 682.568,-75.7511 673.022,-80.3473 677.971,-85.2971"/>
</g>
<!-- Node16 -->
<g id="node17" class="node"><title>Node16</title>
<polygon fill="white" stroke="#bfbfbf" points="735.819,-56.5 735.819,-75.5 784.819,-75.5 784.819,-56.5 735.819,-56.5"/>
<text text-anchor="middle" x="760.319" y="-63.5" font-family="Helvetica,sans-Serif" font-size="10.00">random</text>
</g>
<!-- Node14&#45;&gt;Node16 -->
<g id="edge27" class="edge"><title>Node14&#45;&gt;Node16</title>
<path fill="none" stroke="midnightblue" d="M656.808,-112.444C676.961,-103.596 708.642,-89.6875 731.65,-79.5865"/>
<polygon fill="midnightblue" stroke="midnightblue" points="733.171,-82.7411 740.92,-75.5164 730.357,-76.3316 733.171,-82.7411"/>
</g>
<!-- Node17 -->
<g id="node18" class="node"><title>Node17</title>
<polygon fill="white" stroke="#bfbfbf" points="803.319,-56.5 803.319,-75.5 859.319,-75.5 859.319,-56.5 803.319,-56.5"/>
<text text-anchor="middle" x="831.319" y="-63.5" font-family="Helvetica,sans-Serif" font-size="10.00">algorithm</text>
</g>
<!-- Node14&#45;&gt;Node17 -->
<g id="edge28" class="edge"><title>Node14&#45;&gt;Node17</title>
<path fill="none" stroke="midnightblue" d="M668.059,-112.444C702.044,-102.984 756.817,-87.7377 793.43,-77.5465"/>
<polygon fill="midnightblue" stroke="midnightblue" points="794.547,-80.8685 803.242,-74.8151 792.67,-74.1249 794.547,-80.8685"/>
</g>
<!-- Node18 -->
<g id="node19" class="node"><title>Node18</title>
<polygon fill="white" stroke="#bfbfbf" points="877.819,-56.5 877.819,-75.5 924.819,-75.5 924.819,-56.5 877.819,-56.5"/>
<text text-anchor="middle" x="901.319" y="-63.5" font-family="Helvetica,sans-Serif" font-size="10.00">iterator</text>
</g>
<!-- Node14&#45;&gt;Node18 -->
<g id="edge29" class="edge"><title>Node14&#45;&gt;Node18</title>
<path fill="none" stroke="midnightblue" d="M676.334,-114.307C720.432,-106.542 794.558,-92.8879 867.732,-75.9944"/>
<polygon fill="midnightblue" stroke="midnightblue" points="868.634,-79.3779 877.579,-73.6996 867.046,-72.5606 868.634,-79.3779"/>
</g>
<!-- Node19 -->
<g id="node20" class="node"><title>Node19</title>
<polygon fill="white" stroke="#bfbfbf" points="942.819,-56.5 942.819,-75.5 991.819,-75.5 991.819,-56.5 942.819,-56.5"/>
<text text-anchor="middle" x="967.319" y="-63.5" font-family="Helvetica,sans-Serif" font-size="10.00">fstream</text>
</g>
<!-- Node14&#45;&gt;Node19 -->
<g id="edge31" class="edge"><title>Node14&#45;&gt;Node19</title>
<path fill="none" stroke="midnightblue" d="M676.497,-116.533C731.669,-109.921 835.539,-96.3032 932.558,-76.1877"/>
<polygon fill="midnightblue" stroke="midnightblue" points="933.461,-79.5744 942.528,-74.0922 932.021,-72.7241 933.461,-79.5744"/>
</g>
<!-- Node20 -->
<g id="node21" class="node"><title>Node20</title>
<polygon fill="white" stroke="#bfbfbf" points="1010.32,-56.5 1010.32,-75.5 1090.32,-75.5 1090.32,-56.5 1010.32,-56.5"/>
<text text-anchor="middle" x="1050.32" y="-63.5" font-family="Helvetica,sans-Serif" font-size="10.00">tinydir/tinydir.h</text>
</g>
<!-- Node14&#45;&gt;Node20 -->
<g id="edge32" class="edge"><title>Node14&#45;&gt;Node20</title>
<path fill="none" stroke="midnightblue" d="M676.476,-116.921C741.514,-109.981 876.125,-94.914 1000.19,-76.0962"/>
<polygon fill="midnightblue" stroke="midnightblue" points="1000.88,-79.5302 1010.24,-74.5592 999.826,-72.6106 1000.88,-79.5302"/>
</g>
<!-- Node21 -->
<g id="node22" class="node"><title>Node21</title>
<g id="a_node22"><a xlink:href="_coordinates_8hpp.html" target="_top" xlink:title="Coordinates.hpp">
<polygon fill="white" stroke="black" points="521.819,-56.5 521.819,-75.5 608.819,-75.5 608.819,-56.5 521.819,-56.5"/>
<text text-anchor="middle" x="565.319" y="-63.5" font-family="Helvetica,sans-Serif" font-size="10.00">Coordinates.hpp</text>
</a>
</g>
</g>
<!-- Node14&#45;&gt;Node21 -->
<g id="edge34" class="edge"><title>Node14&#45;&gt;Node21</title>
<path fill="none" stroke="midnightblue" d="M625.751,-112.324C614.899,-104.185 598.438,-91.8395 585.435,-82.0874"/>
<polygon fill="midnightblue" stroke="midnightblue" points="587.197,-79.0339 577.097,-75.8339 582.997,-84.6339 587.197,-79.0339"/>
</g>
<!-- Node21&#45;&gt;Node4 -->
<g id="edge35" class="edge"><title>Node21&#45;&gt;Node4</title>
<path fill="none" stroke="midnightblue" d="M565.319,-56.083C565.319,-49.0059 565.319,-38.8611 565.319,-29.9865"/>
<polygon fill="midnightblue" stroke="midnightblue" points="568.819,-29.751 565.319,-19.7511 561.819,-29.7511 568.819,-29.751"/>
</g>
</g>
</svg>
        <g id="navigator" transform="translate(0 0)" fill="#404254">
                <rect fill="#f2f5e9" fill-opacity="0.5" stroke="#606060" stroke-width=".5" x="0" y="0" width="60" height="60"/>
                <use id="zoomplus" xlink:href="#zoomPlus" x="17" y="9" onmousedown="handleZoom(evt,'in')"/>
                <use id="zoomminus" xlink:href="#zoomMin" x="42" y="9" onmousedown="handleZoom(evt,'out')"/>
                <use id="reset" xlink:href="#resetDef" x="30" y="36" onmousedown="handleReset()"/>
                <g id="arrowUp" xlink:href="#dirArrow" transform="translate(30 24)" onmousedown="handlePan(0,-1)">
                  <use xlink:href="#rim" fill="#404040">
                        <set attributeName="fill" to="#808080" begin="arrowUp.mouseover" end="arrowUp.mouseout"/>
                  </use>
                  <path fill="none" stroke="white" stroke-width="1.5" d="M0,-3.0v7 M-2.5,-0.5L0,-3.0L2.5,-0.5"/>
                </g>
                <g id="arrowRight" xlink:href="#dirArrow" transform="rotate(90) translate(36 -43)" onmousedown="handlePan(1,0)">
                  <use xlink:href="#rim" fill="#404040">
                        <set attributeName="fill" to="#808080" begin="arrowRight.mouseover" end="arrowRight.mouseout"/>
                  </use>
                  <path fill="none" stroke="white" stroke-width="1.5" d="M0,-3.0v7 M-2.5,-0.5L0,-3.0L2.5,-0.5"/>
                </g>
                <g id="arrowDown" xlink:href="#dirArrow" transform="rotate(180) translate(-30 -48)" onmousedown="handlePan(0,1)">
                  <use xlink:href="#rim" fill="#404040">
                        <set attributeName="fill" to="#808080" begin="arrowDown.mouseover" end="arrowDown.mouseout"/>
                  </use>
                  <path fill="none" stroke="white" stroke-width="1.5" d="M0,-3.0v7 M-2.5,-0.5L0,-3.0L2.5,-0.5"/>
                </g>
                <g id="arrowLeft" xlink:href="#dirArrow" transform="rotate(270) translate(-36 17)" onmousedown="handlePan(-1,0)">
                  <use xlink:href="#rim" fill="#404040">
                        <set attributeName="fill" to="#808080" begin="arrowLeft.mouseover" end="arrowLeft.mouseout"/>
                  </use>
                  <path fill="none" stroke="white" stroke-width="1.5" d="M0,-3.0v7 M-2.5,-0.5L0,-3.0L2.5,-0.5"/>
                </g>
        </g>
        <svg viewBox="0 0 15 15" width="100%" height="30px" preserveAspectRatio="xMaxYMin meet">
         <g id="arrow_out" transform="scale(0.3 0.3)">
          <a xlink:href="_triggers_8hpp__incl_org.svg" target="_base">
           <rect id="button" ry="5" rx="5" y="6" x="6" height="38" width="38"
                fill="#f2f5e9" fill-opacity="0.5" stroke="#606060" stroke-width="1.0"/>
           <path id="arrow"
             d="M 11.500037,31.436501 C 11.940474,20.09759 22.043105,11.32322 32.158766,21.979434 L 37.068811,17.246167 C 37.068811,17.246167 37.088388,32 37.088388,32 L 22.160133,31.978069 C 22.160133,31.978069 26.997745,27.140456 26.997745,27.140456 C 18.528582,18.264221 13.291696,25.230495 11.500037,31.436501 z"
             style="fill:#404040;"/>
          </a>
         </g>
        </svg>
</svg>
