<?xml version="1.0" encoding="UTF-8" standalone="no"?>
<!DOCTYPE svg PUBLIC "-//W3C//DTD SVG 1.1//EN"
 "http://www.w3.org/Graphics/SVG/1.1/DTD/svg11.dtd">
<!-- Generated by graphviz version 2.38.0 (20140413.2041)
 -->
<!-- Title: E:/Dev/ObEngine/Git/include/Triggers/Trigger.hpp Pages: 1 -->
<!--zoomable 374 -->
<svg id="main" version="1.1" xmlns="http://www.w3.org/2000/svg" xmlns:xlink="http://www.w3.org/1999/xlink" xml:space="preserve" onload="init(evt)">
<style type="text/css"><![CDATA[
.edge:hover path { stroke: red; }
.edge:hover polygon { stroke: red; fill: red; }
.edge path { stroke: white; }
.edge polygon { stroke: white; fill: white; }
.node polygon { fill: white; }
]]></style>
<script type="text/javascript"><![CDATA[
var edges = document.getElementsByTagName('g');
if (edges && edges.length) {
  for (var i=0;i<edges.length;i++) {
    if (edges[i].id.substr(0,4)=='edge') {
      edges[i].setAttribute('class','edge');
    }
  }
}
]]></script>
        <defs>
                <circle id="rim" cx="0" cy="0" r="7"/>
                <circle id="rim2" cx="0" cy="0" r="3.5"/>
                <g id="zoomPlus">
                        <use xlink:href="#rim" fill="#404040">
                                <set attributeName="fill" to="#808080" begin="zoomplus.mouseover" end="zoomplus.mouseout"/>
                        </use>
                        <path d="M-4,0h8M0,-4v8" fill="none" stroke="white" stroke-width="1.5" pointer-events="none"/>
                </g>
                <g id="zoomMin">
                        <use xlink:href="#rim" fill="#404040">
                                <set attributeName="fill" to="#808080" begin="zoomminus.mouseover" end="zoomminus.mouseout"/>
                        </use>
                        <path d="M-4,0h8" fill="none" stroke="white" stroke-width="1.5" pointer-events="none"/>
                </g>
                <g id="dirArrow">
                        <path fill="none" stroke="white" stroke-width="1.5" d="M0,-3.0v7 M-2.5,-0.5L0,-3.0L2.5,-0.5"/>
                </g>
               <g id="resetDef">
                       <use xlink:href="#rim2" fill="#404040">
                               <set attributeName="fill" to="#808080" begin="reset.mouseover" end="reset.mouseout"/>
                       </use>
               </g>
        </defs>

<script type="text/javascript">
var viewWidth = 1860;
var viewHeight = 374;
var sectionId = 'dynsection-1';
</script>
<script xlink:href="svgpan.js"/>
<svg id="graph" class="graph">
<g id="viewport">
<title>E:/Dev/ObEngine/Git/include/Triggers/Trigger.hpp</title>
<!-- Node14 -->
<g id="node1" class="node"><title>Node14</title>
<polygon fill="#bfbfbf" stroke="black" points="1215.5,-335.5 1215.5,-365.5 1354.5,-365.5 1354.5,-335.5 1215.5,-335.5"/>
<text text-anchor="start" x="1223.5" y="-353.5" font-family="Helvetica,sans-Serif" font-size="10.00">E:/Dev/ObEngine/Git</text>
<text text-anchor="middle" x="1285" y="-342.5" font-family="Helvetica,sans-Serif" font-size="10.00">/include/Triggers/Trigger.hpp</text>
</g>
<!-- Node15 -->
<g id="node2" class="node"><title>Node15</title>
<g id="a_node2"><a xlink:href="_trigger_database_8hpp.html" target="_top" xlink:title="E:/Dev/ObEngine/Git\l/include/Triggers/TriggerDatabase.hpp">
<polygon fill="white" stroke="black" points="722,-134.5 722,-164.5 902,-164.5 902,-134.5 722,-134.5"/>
<text text-anchor="start" x="730" y="-152.5" font-family="Helvetica,sans-Serif" font-size="10.00">E:/Dev/ObEngine/Git</text>
<text text-anchor="middle" x="812" y="-141.5" font-family="Helvetica,sans-Serif" font-size="10.00">/include/Triggers/TriggerDatabase.hpp</text>
</a>
</g>
</g>
<!-- Node14&#45;&gt;Node15 -->
<g id="edge1" class="edge"><title>Node14&#45;&gt;Node15</title>
<path fill="none" stroke="midnightblue" d="M1241.94,-331.383C1148.61,-292.12 929.367,-199.879 845.466,-164.58"/>
<polygon fill="midnightblue" stroke="midnightblue" points="1240.79,-334.696 1251.36,-335.348 1243.5,-328.244 1240.79,-334.696"/>
</g>
<!-- Node22 -->
<g id="node9" class="node"><title>Node22</title>
<g id="a_node9"><a xlink:href="_game_object_8cpp.html" target="_top" xlink:title="E:/Dev/ObEngine/Git\l/src/Script/GameObject.cpp">
<polygon fill="white" stroke="black" points="0,-0.5 0,-30.5 138,-30.5 138,-0.5 0,-0.5"/>
<text text-anchor="start" x="8" y="-18.5" font-family="Helvetica,sans-Serif" font-size="10.00">E:/Dev/ObEngine/Git</text>
<text text-anchor="middle" x="69" y="-7.5" font-family="Helvetica,sans-Serif" font-size="10.00">/src/Script/GameObject.cpp</text>
</a>
</g>
</g>
<!-- Node14&#45;&gt;Node22 -->
<g id="edge51" class="edge"><title>Node14&#45;&gt;Node22</title>
<path fill="none" stroke="midnightblue" d="M1204.93,-349.512C928.339,-348.511 30,-336.128 30,-217.5 30,-217.5 30,-217.5 30,-148.5 30,-104.053 50.5878,-54.5114 61.8468,-30.7413"/>
<polygon fill="midnightblue" stroke="midnightblue" points="1205.28,-353.014 1215.29,-349.546 1205.3,-346.014 1205.28,-353.014"/>
</g>
<!-- Node23 -->
<g id="node10" class="node"><title>Node23</title>
<g id="a_node10"><a xlink:href="_script_8cpp.html" target="_top" xlink:title="E:/Dev/ObEngine/Git\l/src/Script/Script.cpp">
<polygon fill="white" stroke="black" points="1528.5,-67.5 1528.5,-97.5 1637.5,-97.5 1637.5,-67.5 1528.5,-67.5"/>
<text text-anchor="start" x="1536.5" y="-85.5" font-family="Helvetica,sans-Serif" font-size="10.00">E:/Dev/ObEngine/Git</text>
<text text-anchor="middle" x="1583" y="-74.5" font-family="Helvetica,sans-Serif" font-size="10.00">/src/Script/Script.cpp</text>
</a>
</g>
</g>
<!-- Node14&#45;&gt;Node23 -->
<g id="edge52" class="edge"><title>Node14&#45;&gt;Node23</title>
<path fill="none" stroke="midnightblue" d="M1364.85,-344.741C1474.61,-333.381 1668.33,-294.945 1755,-165 1786.35,-117.992 1699.08,-97.42 1637.66,-88.9411"/>
<polygon fill="midnightblue" stroke="midnightblue" points="1364.43,-341.266 1354.82,-345.728 1365.12,-348.232 1364.43,-341.266"/>
</g>
<!-- Node27 -->
<g id="node14" class="node"><title>Node27</title>
<g id="a_node14"><a xlink:href="_trigger_delay_8hpp.html" target="_top" xlink:title="E:/Dev/ObEngine/Git\l/include/Triggers/TriggerDelay.hpp">
<polygon fill="white" stroke="black" points="1203,-268.5 1203,-298.5 1367,-298.5 1367,-268.5 1203,-268.5"/>
<text text-anchor="start" x="1211" y="-286.5" font-family="Helvetica,sans-Serif" font-size="10.00">E:/Dev/ObEngine/Git</text>
<text text-anchor="middle" x="1285" y="-275.5" font-family="Helvetica,sans-Serif" font-size="10.00">/include/Triggers/TriggerDelay.hpp</text>
</a>
</g>
</g>
<!-- Node14&#45;&gt;Node27 -->
<g id="edge13" class="edge"><title>Node14&#45;&gt;Node27</title>
<path fill="none" stroke="midnightblue" d="M1285,-325.108C1285,-316.154 1285,-306.323 1285,-298.577"/>
<polygon fill="midnightblue" stroke="midnightblue" points="1281.5,-325.396 1285,-335.396 1288.5,-325.396 1281.5,-325.396"/>
</g>
<!-- Node38 -->
<g id="node25" class="node"><title>Node38</title>
<g id="a_node25"><a xlink:href="_trigger_8cpp.html" target="_top" xlink:title="E:/Dev/ObEngine/Git\l/src/Triggers/Trigger.cpp">
<polygon fill="white" stroke="black" points="1624,-134.5 1624,-164.5 1746,-164.5 1746,-134.5 1624,-134.5"/>
<text text-anchor="start" x="1632" y="-152.5" font-family="Helvetica,sans-Serif" font-size="10.00">E:/Dev/ObEngine/Git</text>
<text text-anchor="middle" x="1685" y="-141.5" font-family="Helvetica,sans-Serif" font-size="10.00">/src/Triggers/Trigger.cpp</text>
</a>
</g>
</g>
<!-- Node14&#45;&gt;Node38 -->
<g id="edge53" class="edge"><title>Node14&#45;&gt;Node38</title>
<path fill="none" stroke="midnightblue" d="M1322.62,-330.784C1402.21,-291.189 1586.11,-199.7 1656.7,-164.58"/>
<polygon fill="midnightblue" stroke="midnightblue" points="1320.84,-327.76 1313.45,-335.348 1323.96,-334.027 1320.84,-327.76"/>
</g>
<!-- Node16 -->
<g id="node3" class="node"><title>Node16</title>
<g id="a_node3"><a xlink:href="_console_8cpp.html" target="_top" xlink:title="E:/Dev/ObEngine/Git\l/src/Debug/Console.cpp">
<polygon fill="white" stroke="black" points="1136.5,-67.5 1136.5,-97.5 1257.5,-97.5 1257.5,-67.5 1136.5,-67.5"/>
<text text-anchor="start" x="1144.5" y="-85.5" font-family="Helvetica,sans-Serif" font-size="10.00">E:/Dev/ObEngine/Git</text>
<text text-anchor="middle" x="1197" y="-74.5" font-family="Helvetica,sans-Serif" font-size="10.00">/src/Debug/Console.cpp</text>
</a>
</g>
</g>
<!-- Node15&#45;&gt;Node16 -->
<g id="edge2" class="edge"><title>Node15&#45;&gt;Node16</title>
<path fill="none" stroke="midnightblue" d="M912.308,-133.605C974.291,-124.106 1055.4,-111.148 1127,-98 1130.05,-97.4396 1133.17,-96.8504 1136.33,-96.2433"/>
<polygon fill="midnightblue" stroke="midnightblue" points="911.496,-130.188 902.139,-135.158 912.553,-137.108 911.496,-130.188"/>
</g>
<!-- Node17 -->
<g id="node4" class="node"><title>Node17</title>
<g id="a_node4"><a xlink:href="_map_editor_8cpp.html" target="_top" xlink:title="E:/Dev/ObEngine/Git\l/src/Editor/MapEditor.cpp">
<polygon fill="white" stroke="black" points="1085,-0.5 1085,-30.5 1213,-30.5 1213,-0.5 1085,-0.5"/>
<text text-anchor="start" x="1093" y="-18.5" font-family="Helvetica,sans-Serif" font-size="10.00">E:/Dev/ObEngine/Git</text>
<text text-anchor="middle" x="1149" y="-7.5" font-family="Helvetica,sans-Serif" font-size="10.00">/src/Editor/MapEditor.cpp</text>
</a>
</g>
</g>
<!-- Node15&#45;&gt;Node17 -->
<g id="edge3" class="edge"><title>Node15&#45;&gt;Node17</title>
<path fill="none" stroke="midnightblue" d="M803.196,-124.447C798.32,-106.502 795.627,-82.506 809,-67 826.733,-46.4384 991.099,-29.5885 1084.64,-21.5652"/>
<polygon fill="midnightblue" stroke="midnightblue" points="799.915,-125.684 806.214,-134.203 806.602,-123.616 799.915,-125.684"/>
</g>
<!-- Node18 -->
<g id="node5" class="node"><title>Node18</title>
<g id="a_node5"><a xlink:href="_key_bind_8cpp.html" target="_top" xlink:title="E:/Dev/ObEngine/Git\l/src/Input/KeyBind.cpp">
<polygon fill="white" stroke="black" points="1002,-67.5 1002,-97.5 1118,-97.5 1118,-67.5 1002,-67.5"/>
<text text-anchor="start" x="1010" y="-85.5" font-family="Helvetica,sans-Serif" font-size="10.00">E:/Dev/ObEngine/Git</text>
<text text-anchor="middle" x="1060" y="-74.5" font-family="Helvetica,sans-Serif" font-size="10.00">/src/Input/KeyBind.cpp</text>
</a>
</g>
</g>
<!-- Node15&#45;&gt;Node18 -->
<g id="edge4" class="edge"><title>Node15&#45;&gt;Node18</title>
<path fill="none" stroke="midnightblue" d="M875.27,-131.917C915.741,-121.31 967.672,-107.699 1006.16,-97.6109"/>
<polygon fill="midnightblue" stroke="midnightblue" points="874.293,-128.555 865.507,-134.476 876.068,-135.326 874.293,-128.555"/>
</g>
<!-- Node19 -->
<g id="node6" class="node"><title>Node19</title>
<g id="a_node6"><a xlink:href="_game_8cpp.html" target="_top" xlink:title="E:/Dev/ObEngine/Git\l/src/Modes/Game.cpp">
<polygon fill="white" stroke="black" points="824.5,-0.5 824.5,-30.5 937.5,-30.5 937.5,-0.5 824.5,-0.5"/>
<text text-anchor="start" x="832.5" y="-18.5" font-family="Helvetica,sans-Serif" font-size="10.00">E:/Dev/ObEngine/Git</text>
<text text-anchor="middle" x="881" y="-7.5" font-family="Helvetica,sans-Serif" font-size="10.00">/src/Modes/Game.cpp</text>
</a>
</g>
</g>
<!-- Node15&#45;&gt;Node19 -->
<g id="edge5" class="edge"><title>Node15&#45;&gt;Node19</title>
<path fill="none" stroke="midnightblue" d="M790.898,-126.612C777.24,-109.689 764.043,-86.0188 776,-67 786.928,-49.6184 805.696,-38.0812 824.37,-30.4865"/>
<polygon fill="midnightblue" stroke="midnightblue" points="788.358,-129.027 797.532,-134.327 793.666,-124.463 788.358,-129.027"/>
</g>
<!-- Node20 -->
<g id="node7" class="node"><title>Node20</title>
<g id="a_node7"><a xlink:href="_network_8cpp.html" target="_top" xlink:title="E:/Dev/ObEngine/Git\l/src/Network/Network.cpp">
<polygon fill="white" stroke="black" points="818,-67.5 818,-97.5 946,-97.5 946,-67.5 818,-67.5"/>
<text text-anchor="start" x="826" y="-85.5" font-family="Helvetica,sans-Serif" font-size="10.00">E:/Dev/ObEngine/Git</text>
<text text-anchor="middle" x="882" y="-74.5" font-family="Helvetica,sans-Serif" font-size="10.00">/src/Network/Network.cpp</text>
</a>
</g>
</g>
<!-- Node15&#45;&gt;Node20 -->
<g id="edge6" class="edge"><title>Node15&#45;&gt;Node20</title>
<path fill="none" stroke="midnightblue" d="M834.818,-127.311C845.319,-117.561 857.49,-106.259 866.841,-97.5765"/>
<polygon fill="midnightblue" stroke="midnightblue" points="832.135,-125.027 827.189,-134.396 836.899,-130.156 832.135,-125.027"/>
</g>
<!-- Node21 -->
<g id="node8" class="node"><title>Node21</title>
<g id="a_node8"><a xlink:href="_world_8cpp.html" target="_top" xlink:title="E:/Dev/ObEngine/Git\l/src/Scene/World.cpp">
<polygon fill="white" stroke="black" points="402.5,-0.5 402.5,-30.5 513.5,-30.5 513.5,-0.5 402.5,-0.5"/>
<text text-anchor="start" x="410.5" y="-18.5" font-family="Helvetica,sans-Serif" font-size="10.00">E:/Dev/ObEngine/Git</text>
<text text-anchor="middle" x="458" y="-7.5" font-family="Helvetica,sans-Serif" font-size="10.00">/src/Scene/World.cpp</text>
</a>
</g>
</g>
<!-- Node15&#45;&gt;Node21 -->
<g id="edge7" class="edge"><title>Node15&#45;&gt;Node21</title>
<path fill="none" stroke="midnightblue" d="M711.669,-141.544C661.417,-135.021 600.83,-122.401 551,-98 542.083,-93.6333 497.486,-53.016 473.435,-30.8219"/>
<polygon fill="midnightblue" stroke="midnightblue" points="711.547,-145.055 721.901,-142.807 712.405,-138.108 711.547,-145.055"/>
</g>
<!-- Node15&#45;&gt;Node22 -->
<g id="edge8" class="edge"><title>Node15&#45;&gt;Node22</title>
<path fill="none" stroke="midnightblue" d="M711.84,-148.747C554.777,-147.795 258.595,-140.222 163,-98 144.592,-89.8699 145.091,-80.3116 130,-67 115.668,-54.3583 98.9163,-40.5565 86.5974,-30.5814"/>
<polygon fill="midnightblue" stroke="midnightblue" points="711.963,-152.247 721.981,-148.8 712,-145.247 711.963,-152.247"/>
</g>
<!-- Node15&#45;&gt;Node23 -->
<g id="edge9" class="edge"><title>Node15&#45;&gt;Node23</title>
<path fill="none" stroke="midnightblue" d="M912.163,-133.95C1182.04,-107.074 1254.26,-135.57 1519,-98 1522.05,-97.5678 1525.16,-97.0655 1528.3,-96.5126"/>
<polygon fill="midnightblue" stroke="midnightblue" points="911.664,-130.482 902.067,-134.972 912.369,-137.447 911.664,-130.482"/>
</g>
<!-- Node24 -->
<g id="node11" class="node"><title>Node24</title>
<g id="a_node11"><a xlink:href="_cursor_8cpp.html" target="_top" xlink:title="E:/Dev/ObEngine/Git\l/src/System/Cursor.cpp">
<polygon fill="white" stroke="black" points="1390,-67.5 1390,-97.5 1510,-97.5 1510,-67.5 1390,-67.5"/>
<text text-anchor="start" x="1398" y="-85.5" font-family="Helvetica,sans-Serif" font-size="10.00">E:/Dev/ObEngine/Git</text>
<text text-anchor="middle" x="1450" y="-74.5" font-family="Helvetica,sans-Serif" font-size="10.00">/src/System/Cursor.cpp</text>
</a>
</g>
</g>
<!-- Node15&#45;&gt;Node24 -->
<g id="edge10" class="edge"><title>Node15&#45;&gt;Node24</title>
<path fill="none" stroke="midnightblue" d="M912.25,-133.889C1091.93,-112.565 1291.75,-95.8515 1389.67,-88.1225"/>
<polygon fill="midnightblue" stroke="midnightblue" points="911.596,-130.442 902.082,-135.103 912.426,-137.393 911.596,-130.442"/>
</g>
<!-- Node25 -->
<g id="node12" class="node"><title>Node25</title>
<g id="a_node12"><a xlink:href="_trigger_database_8cpp.html" target="_top" xlink:title="E:/Dev/ObEngine/Git\l/src/Triggers/TriggerDatabase.cpp">
<polygon fill="white" stroke="black" points="560.5,-67.5 560.5,-97.5 723.5,-97.5 723.5,-67.5 560.5,-67.5"/>
<text text-anchor="start" x="568.5" y="-85.5" font-family="Helvetica,sans-Serif" font-size="10.00">E:/Dev/ObEngine/Git</text>
<text text-anchor="middle" x="642" y="-74.5" font-family="Helvetica,sans-Serif" font-size="10.00">/src/Triggers/TriggerDatabase.cpp</text>
</a>
</g>
</g>
<!-- Node15&#45;&gt;Node25 -->
<g id="edge11" class="edge"><title>Node15&#45;&gt;Node25</title>
<path fill="none" stroke="midnightblue" d="M765.756,-130.819C738.431,-120.371 704.307,-107.323 678.815,-97.5765"/>
<polygon fill="midnightblue" stroke="midnightblue" points="764.522,-134.094 775.113,-134.396 767.022,-127.555 764.522,-134.094"/>
</g>
<!-- Node26 -->
<g id="node13" class="node"><title>Node26</title>
<g id="a_node13"><a xlink:href="_trigger_group_8cpp.html" target="_top" xlink:title="E:/Dev/ObEngine/Git\l/src/Triggers/TriggerGroup.cpp">
<polygon fill="white" stroke="black" points="356,-67.5 356,-97.5 504,-97.5 504,-67.5 356,-67.5"/>
<text text-anchor="start" x="364" y="-85.5" font-family="Helvetica,sans-Serif" font-size="10.00">E:/Dev/ObEngine/Git</text>
<text text-anchor="middle" x="430" y="-74.5" font-family="Helvetica,sans-Serif" font-size="10.00">/src/Triggers/TriggerGroup.cpp</text>
</a>
</g>
</g>
<!-- Node15&#45;&gt;Node26 -->
<g id="edge12" class="edge"><title>Node15&#45;&gt;Node26</title>
<path fill="none" stroke="midnightblue" d="M719.582,-132.774C653.495,-121.529 565.715,-106.593 504.188,-96.1237"/>
<polygon fill="midnightblue" stroke="midnightblue" points="719.137,-136.249 729.582,-134.476 720.311,-129.348 719.137,-136.249"/>
</g>
<!-- Node28 -->
<g id="node15" class="node"><title>Node28</title>
<g id="a_node15"><a xlink:href="_trigger_group_8hpp.html" target="_top" xlink:title="E:/Dev/ObEngine/Git\l/include/Triggers/TriggerGroup.hpp">
<polygon fill="white" stroke="black" points="1106.5,-201.5 1106.5,-231.5 1271.5,-231.5 1271.5,-201.5 1106.5,-201.5"/>
<text text-anchor="start" x="1114.5" y="-219.5" font-family="Helvetica,sans-Serif" font-size="10.00">E:/Dev/ObEngine/Git</text>
<text text-anchor="middle" x="1189" y="-208.5" font-family="Helvetica,sans-Serif" font-size="10.00">/include/Triggers/TriggerGroup.hpp</text>
</a>
</g>
</g>
<!-- Node27&#45;&gt;Node28 -->
<g id="edge14" class="edge"><title>Node27&#45;&gt;Node28</title>
<path fill="none" stroke="midnightblue" d="M1255.81,-262.734C1240.95,-252.676 1223.24,-240.685 1209.79,-231.577"/>
<polygon fill="midnightblue" stroke="midnightblue" points="1253.93,-265.688 1264.17,-268.396 1257.85,-259.891 1253.93,-265.688"/>
</g>
<!-- Node39 -->
<g id="node26" class="node"><title>Node39</title>
<g id="a_node26"><a xlink:href="_trigger_delay_8cpp.html" target="_top" xlink:title="E:/Dev/ObEngine/Git\l/src/Triggers/TriggerDelay.cpp">
<polygon fill="white" stroke="black" points="1308,-201.5 1308,-231.5 1454,-231.5 1454,-201.5 1308,-201.5"/>
<text text-anchor="start" x="1316" y="-219.5" font-family="Helvetica,sans-Serif" font-size="10.00">E:/Dev/ObEngine/Git</text>
<text text-anchor="middle" x="1381" y="-208.5" font-family="Helvetica,sans-Serif" font-size="10.00">/src/Triggers/TriggerDelay.cpp</text>
</a>
</g>
</g>
<!-- Node27&#45;&gt;Node39 -->
<g id="edge50" class="edge"><title>Node27&#45;&gt;Node39</title>
<path fill="none" stroke="midnightblue" d="M1314.19,-262.734C1329.05,-252.676 1346.76,-240.685 1360.21,-231.577"/>
<polygon fill="midnightblue" stroke="midnightblue" points="1312.15,-259.891 1305.83,-268.396 1316.07,-265.688 1312.15,-259.891"/>
</g>
<!-- Node28&#45;&gt;Node15 -->
<g id="edge45" class="edge"><title>Node28&#45;&gt;Node15</title>
<path fill="none" stroke="midnightblue" d="M1097.45,-199.715C1035.19,-188.981 953.537,-174.903 893.518,-164.555"/>
<polygon fill="midnightblue" stroke="midnightblue" points="1097.21,-203.226 1107.66,-201.476 1098.4,-196.328 1097.21,-203.226"/>
</g>
<!-- Node28&#45;&gt;Node23 -->
<g id="edge47" class="edge"><title>Node28&#45;&gt;Node23</title>
<path fill="none" stroke="midnightblue" d="M1281.42,-199.916C1334.9,-190.02 1396.36,-176.883 1421,-165 1440.63,-155.533 1440.26,-145.122 1459,-134 1484.39,-118.936 1515.1,-106.39 1539.61,-97.5706"/>
<polygon fill="midnightblue" stroke="midnightblue" points="1280.75,-196.481 1271.54,-201.725 1282.01,-203.367 1280.75,-196.481"/>
</g>
<!-- Node28&#45;&gt;Node26 -->
<g id="edge49" class="edge"><title>Node28&#45;&gt;Node26</title>
<path fill="none" stroke="midnightblue" d="M1096.21,-210.466C999.749,-204.113 844.745,-190.754 713,-165 624.936,-147.785 524.613,-115.87 470.227,-97.5014"/>
<polygon fill="midnightblue" stroke="midnightblue" points="1096.02,-213.961 1106.22,-211.114 1096.47,-206.976 1096.02,-213.961"/>
</g>
<!-- Node28&#45;&gt;Node28 -->
<g id="edge46" class="edge"><title>Node28&#45;&gt;Node28</title>
<path fill="none" stroke="midnightblue" d="M1281.73,-224.646C1286.61,-222.642 1289.5,-219.927 1289.5,-216.5 1289.5,-211.15 1282.46,-207.535 1271.8,-205.655"/>
<polygon fill="midnightblue" stroke="midnightblue" points="1280.53,-221.345 1271.8,-227.345 1282.36,-228.1 1280.53,-221.345"/>
</g>
<!-- Node29 -->
<g id="node16" class="node"><title>Node29</title>
<g id="a_node16"><a xlink:href="_console_8hpp.html" target="_top" xlink:title="E:/Dev/ObEngine/Git\l/include/Debug/Console.hpp">
<polygon fill="white" stroke="black" points="1274,-134.5 1274,-164.5 1412,-164.5 1412,-134.5 1274,-134.5"/>
<text text-anchor="start" x="1282" y="-152.5" font-family="Helvetica,sans-Serif" font-size="10.00">E:/Dev/ObEngine/Git</text>
<text text-anchor="middle" x="1343" y="-141.5" font-family="Helvetica,sans-Serif" font-size="10.00">/include/Debug/Console.hpp</text>
</a>
</g>
</g>
<!-- Node28&#45;&gt;Node29 -->
<g id="edge15" class="edge"><title>Node28&#45;&gt;Node29</title>
<path fill="none" stroke="midnightblue" d="M1231.87,-197.407C1256.45,-187.029 1286.86,-174.195 1309.65,-164.577"/>
<polygon fill="midnightblue" stroke="midnightblue" points="1230.27,-194.283 1222.42,-201.396 1232.99,-200.732 1230.27,-194.283"/>
</g>
<!-- Node30 -->
<g id="node17" class="node"><title>Node30</title>
<g id="a_node17"><a xlink:href="_key_bind_8hpp.html" target="_top" xlink:title="E:/Dev/ObEngine/Git\l/include/Input/KeyBind.hpp">
<polygon fill="white" stroke="black" points="1122.5,-134.5 1122.5,-164.5 1255.5,-164.5 1255.5,-134.5 1122.5,-134.5"/>
<text text-anchor="start" x="1130.5" y="-152.5" font-family="Helvetica,sans-Serif" font-size="10.00">E:/Dev/ObEngine/Git</text>
<text text-anchor="middle" x="1189" y="-141.5" font-family="Helvetica,sans-Serif" font-size="10.00">/include/Input/KeyBind.hpp</text>
</a>
</g>
</g>
<!-- Node28&#45;&gt;Node30 -->
<g id="edge19" class="edge"><title>Node28&#45;&gt;Node30</title>
<path fill="none" stroke="midnightblue" d="M1189,-191.108C1189,-182.154 1189,-172.323 1189,-164.577"/>
<polygon fill="midnightblue" stroke="midnightblue" points="1185.5,-191.396 1189,-201.396 1192.5,-191.396 1185.5,-191.396"/>
</g>
<!-- Node31 -->
<g id="node18" class="node"><title>Node31</title>
<g id="a_node18"><a xlink:href="_network_8hpp.html" target="_top" xlink:title="E:/Dev/ObEngine/Git\l/include/Network/Network.hpp">
<polygon fill="white" stroke="black" points="920,-134.5 920,-164.5 1066,-164.5 1066,-134.5 920,-134.5"/>
<text text-anchor="start" x="928" y="-152.5" font-family="Helvetica,sans-Serif" font-size="10.00">E:/Dev/ObEngine/Git</text>
<text text-anchor="middle" x="993" y="-141.5" font-family="Helvetica,sans-Serif" font-size="10.00">/include/Network/Network.hpp</text>
</a>
</g>
</g>
<!-- Node28&#45;&gt;Node31 -->
<g id="edge24" class="edge"><title>Node28&#45;&gt;Node31</title>
<path fill="none" stroke="midnightblue" d="M1136.92,-198.228C1105.21,-187.713 1065.22,-174.451 1035.45,-164.577"/>
<polygon fill="midnightblue" stroke="midnightblue" points="1135.88,-201.57 1146.47,-201.396 1138.08,-194.926 1135.88,-201.57"/>
</g>
<!-- Node32 -->
<g id="node19" class="node"><title>Node32</title>
<g id="a_node19"><a xlink:href="_game_object_8hpp.html" target="_top" xlink:title="E:/Dev/ObEngine/Git\l/include/Script/GameObject.hpp">
<polygon fill="white" stroke="black" points="158.5,-134.5 158.5,-164.5 313.5,-164.5 313.5,-134.5 158.5,-134.5"/>
<text text-anchor="start" x="166.5" y="-152.5" font-family="Helvetica,sans-Serif" font-size="10.00">E:/Dev/ObEngine/Git</text>
<text text-anchor="middle" x="236" y="-141.5" font-family="Helvetica,sans-Serif" font-size="10.00">/include/Script/GameObject.hpp</text>
</a>
</g>
</g>
<!-- Node28&#45;&gt;Node32 -->
<g id="edge27" class="edge"><title>Node28&#45;&gt;Node32</title>
<path fill="none" stroke="midnightblue" d="M1095.98,-209.155C908.374,-196.36 487.744,-167.67 313.689,-155.799"/>
<polygon fill="midnightblue" stroke="midnightblue" points="1095.88,-212.657 1106.09,-209.845 1096.36,-205.673 1095.88,-212.657"/>
</g>
<!-- Node35 -->
<g id="node22" class="node"><title>Node35</title>
<g id="a_node22"><a xlink:href="_cursor_8hpp.html" target="_top" xlink:title="E:/Dev/ObEngine/Git\l/include/System/Cursor.hpp">
<polygon fill="white" stroke="black" points="1468.5,-134.5 1468.5,-164.5 1605.5,-164.5 1605.5,-134.5 1468.5,-134.5"/>
<text text-anchor="start" x="1476.5" y="-152.5" font-family="Helvetica,sans-Serif" font-size="10.00">E:/Dev/ObEngine/Git</text>
<text text-anchor="middle" x="1537" y="-141.5" font-family="Helvetica,sans-Serif" font-size="10.00">/include/System/Cursor.hpp</text>
</a>
</g>
</g>
<!-- Node28&#45;&gt;Node35 -->
<g id="edge37" class="edge"><title>Node28&#45;&gt;Node35</title>
<path fill="none" stroke="midnightblue" d="M1274.24,-199.579C1333.91,-188.434 1412.59,-173.737 1468.25,-163.34"/>
<polygon fill="midnightblue" stroke="midnightblue" points="1273.27,-196.199 1264.08,-201.476 1274.56,-203.08 1273.27,-196.199"/>
</g>
<!-- Node28&#45;&gt;Node38 -->
<g id="edge48" class="edge"><title>Node28&#45;&gt;Node38</title>
<path fill="none" stroke="midnightblue" d="M1281.54,-203.185C1287.45,-202.435 1293.3,-201.701 1299,-201 1438.86,-183.792 1474.84,-187.119 1614,-165 1617.23,-164.487 1620.54,-163.928 1623.87,-163.338"/>
<polygon fill="midnightblue" stroke="midnightblue" points="1281.04,-199.719 1271.57,-204.459 1281.93,-206.663 1281.04,-199.719"/>
</g>
<!-- Node29&#45;&gt;Node16 -->
<g id="edge16" class="edge"><title>Node29&#45;&gt;Node16</title>
<path fill="none" stroke="midnightblue" d="M1302.05,-130.269C1278.8,-119.916 1250.13,-107.153 1228.62,-97.5765"/>
<polygon fill="midnightblue" stroke="midnightblue" points="1300.76,-133.526 1311.32,-134.396 1303.61,-127.131 1300.76,-133.526"/>
</g>
<!-- Node29&#45;&gt;Node17 -->
<g id="edge17" class="edge"><title>Node29&#45;&gt;Node17</title>
<path fill="none" stroke="midnightblue" d="M1341.22,-124.252C1338.64,-106.165 1332.33,-82.0756 1317,-67 1289.53,-39.9874 1248.19,-27.34 1213.39,-21.4568"/>
<polygon fill="midnightblue" stroke="midnightblue" points="1337.76,-124.811 1342.38,-134.348 1344.72,-124.015 1337.76,-124.811"/>
</g>
<!-- Node29&#45;&gt;Node23 -->
<g id="edge18" class="edge"><title>Node29&#45;&gt;Node23</title>
<path fill="none" stroke="midnightblue" d="M1404.48,-131.85C1443.61,-121.252 1493.73,-107.677 1530.9,-97.6109"/>
<polygon fill="midnightblue" stroke="midnightblue" points="1403.52,-128.483 1394.78,-134.476 1405.35,-135.24 1403.52,-128.483"/>
</g>
<!-- Node30&#45;&gt;Node17 -->
<g id="edge20" class="edge"><title>Node30&#45;&gt;Node17</title>
<path fill="none" stroke="midnightblue" d="M1260.15,-130.435C1275.87,-123.006 1290.61,-112.584 1300,-98 1307.46,-86.4147 1308.05,-78.1811 1300,-67 1280.21,-39.5198 1244.79,-26.7757 1213.22,-20.9571"/>
<polygon fill="midnightblue" stroke="midnightblue" points="1258.61,-127.289 1250.82,-134.473 1261.39,-133.713 1258.61,-127.289"/>
</g>
<!-- Node30&#45;&gt;Node18 -->
<g id="edge21" class="edge"><title>Node30&#45;&gt;Node18</title>
<path fill="none" stroke="midnightblue" d="M1151.99,-129.853C1131.6,-119.576 1106.69,-107.025 1087.94,-97.5765"/>
<polygon fill="midnightblue" stroke="midnightblue" points="1150.5,-133.022 1161.01,-134.396 1153.65,-126.77 1150.5,-133.022"/>
</g>
<!-- Node30&#45;&gt;Node19 -->
<g id="edge22" class="edge"><title>Node30&#45;&gt;Node19</title>
<path fill="none" stroke="midnightblue" d="M1227.69,-129.372C1255.59,-113.088 1285.23,-88.917 1266,-67 1255.27,-54.7751 1041.9,-32.2801 937.524,-21.9488"/>
<polygon fill="midnightblue" stroke="midnightblue" points="1225.78,-126.433 1218.76,-134.369 1229.2,-132.542 1225.78,-126.433"/>
</g>
<!-- Node30&#45;&gt;Node23 -->
<g id="edge23" class="edge"><title>Node30&#45;&gt;Node23</title>
<path fill="none" stroke="midnightblue" d="M1265.82,-133.921C1379.21,-115.479 1410.04,-118.03 1519,-98 1522.03,-97.4439 1525.12,-96.8437 1528.25,-96.2151"/>
<polygon fill="midnightblue" stroke="midnightblue" points="1264.99,-130.511 1255.7,-135.589 1266.13,-137.418 1264.99,-130.511"/>
</g>
<!-- Node31&#45;&gt;Node17 -->
<g id="edge25" class="edge"><title>Node31&#45;&gt;Node17</title>
<path fill="none" stroke="midnightblue" d="M986.001,-124.237C982.482,-106.691 981.145,-83.2984 993,-67 1013.93,-38.2235 1051.62,-25.5089 1084.7,-20.0316"/>
<polygon fill="midnightblue" stroke="midnightblue" points="982.671,-125.363 988.376,-134.291 989.484,-123.754 982.671,-125.363"/>
</g>
<!-- Node31&#45;&gt;Node20 -->
<g id="edge26" class="edge"><title>Node31&#45;&gt;Node20</title>
<path fill="none" stroke="midnightblue" d="M960.205,-129.296C942.836,-119.125 921.883,-106.855 906.038,-97.5765"/>
<polygon fill="midnightblue" stroke="midnightblue" points="958.517,-132.363 968.915,-134.396 962.054,-126.322 958.517,-132.363"/>
</g>
<!-- Node32&#45;&gt;Node17 -->
<g id="edge34" class="edge"><title>Node32&#45;&gt;Node17</title>
<path fill="none" stroke="midnightblue" d="M265.786,-128.678C279.17,-119.571 295.057,-108.484 309,-98 326.42,-84.9008 326.696,-74.9256 347,-67 471.223,-18.5095 812.936,-39.7506 946,-31 992.363,-27.9511 1044.66,-24.2085 1084.56,-21.2894"/>
<polygon fill="midnightblue" stroke="midnightblue" points="263.721,-125.849 257.397,-134.35 267.642,-131.648 263.721,-125.849"/>
</g>
<!-- Node32&#45;&gt;Node22 -->
<g id="edge36" class="edge"><title>Node32&#45;&gt;Node22</title>
<path fill="none" stroke="midnightblue" d="M201.804,-129.266C186.962,-120.395 169.658,-109.33 155,-98 127.332,-76.6148 98.4865,-47.6921 82.2282,-30.673"/>
<polygon fill="midnightblue" stroke="midnightblue" points="200.288,-132.435 210.682,-134.489 203.838,-126.401 200.288,-132.435"/>
</g>
<!-- Node33 -->
<g id="node20" class="node"><title>Node33</title>
<g id="a_node20"><a xlink:href="_world_8hpp.html" target="_top" xlink:title="E:/Dev/ObEngine/Git\l/include/Scene/World.hpp">
<polygon fill="white" stroke="black" points="172,-67.5 172,-97.5 300,-97.5 300,-67.5 172,-67.5"/>
<text text-anchor="start" x="180" y="-85.5" font-family="Helvetica,sans-Serif" font-size="10.00">E:/Dev/ObEngine/Git</text>
<text text-anchor="middle" x="236" y="-74.5" font-family="Helvetica,sans-Serif" font-size="10.00">/include/Scene/World.hpp</text>
</a>
</g>
</g>
<!-- Node32&#45;&gt;Node33 -->
<g id="edge28" class="edge"><title>Node32&#45;&gt;Node33</title>
<path fill="none" stroke="midnightblue" d="M236,-124.108C236,-115.154 236,-105.323 236,-97.5765"/>
<polygon fill="midnightblue" stroke="midnightblue" points="232.5,-124.396 236,-134.396 239.5,-124.396 232.5,-124.396"/>
</g>
<!-- Node34 -->
<g id="node21" class="node"><title>Node34</title>
<g id="a_node21"><a xlink:href="_map_editor_tools_8cpp.html" target="_top" xlink:title="E:/Dev/ObEngine/Git\l/src/Editor/MapEditorTools.cpp">
<polygon fill="white" stroke="black" points="158.5,-0.5 158.5,-30.5 309.5,-30.5 309.5,-0.5 158.5,-0.5"/>
<text text-anchor="start" x="166.5" y="-18.5" font-family="Helvetica,sans-Serif" font-size="10.00">E:/Dev/ObEngine/Git</text>
<text text-anchor="middle" x="234" y="-7.5" font-family="Helvetica,sans-Serif" font-size="10.00">/src/Editor/MapEditorTools.cpp</text>
</a>
</g>
</g>
<!-- Node32&#45;&gt;Node34 -->
<g id="edge35" class="edge"><title>Node32&#45;&gt;Node34</title>
<path fill="none" stroke="midnightblue" d="M193.744,-129.076C181.59,-121.254 169.794,-110.96 163,-98 156.603,-85.7971 156.683,-79.2444 163,-67 171.253,-51.0029 187.175,-38.9661 201.853,-30.6644"/>
<polygon fill="midnightblue" stroke="midnightblue" points="192.207,-132.234 202.591,-134.338 195.786,-126.218 192.207,-132.234"/>
</g>
<!-- Node33&#45;&gt;Node17 -->
<g id="edge29" class="edge"><title>Node33&#45;&gt;Node17</title>
<path fill="none" stroke="midnightblue" d="M310.164,-67.4835C311.451,-67.3149 312.731,-67.1535 314,-67 593.309,-33.2219 665.234,-49.0229 946,-31 992.367,-28.0236 1044.66,-24.279 1084.56,-21.3408"/>
<polygon fill="midnightblue" stroke="midnightblue" points="309.582,-64.0309 300.174,-68.903 310.567,-70.9613 309.582,-64.0309"/>
</g>
<!-- Node33&#45;&gt;Node19 -->
<g id="edge31" class="edge"><title>Node33&#45;&gt;Node19</title>
<path fill="none" stroke="midnightblue" d="M310.171,-67.5399C311.456,-67.3539 312.733,-67.1737 314,-67 500.03,-41.4831 722.249,-26.0253 824.466,-19.7509"/>
<polygon fill="midnightblue" stroke="midnightblue" points="309.55,-64.094 300.195,-69.0668 310.609,-71.0134 309.55,-64.094"/>
</g>
<!-- Node33&#45;&gt;Node21 -->
<g id="edge32" class="edge"><title>Node33&#45;&gt;Node21</title>
<path fill="none" stroke="midnightblue" d="M293.789,-64.5797C329.846,-54.0225 375.716,-40.5921 409.806,-30.6109"/>
<polygon fill="midnightblue" stroke="midnightblue" points="292.511,-61.307 283.897,-67.476 294.478,-68.0249 292.511,-61.307"/>
</g>
<!-- Node33&#45;&gt;Node22 -->
<g id="edge33" class="edge"><title>Node33&#45;&gt;Node22</title>
<path fill="none" stroke="midnightblue" d="M190.22,-63.6815C163.437,-53.2568 130.098,-40.2805 105.166,-30.5765"/>
<polygon fill="midnightblue" stroke="midnightblue" points="189.175,-67.0304 199.763,-67.396 191.714,-60.5071 189.175,-67.0304"/>
</g>
<!-- Node33&#45;&gt;Node34 -->
<g id="edge30" class="edge"><title>Node33&#45;&gt;Node34</title>
<path fill="none" stroke="midnightblue" d="M235.249,-57.1081C234.974,-48.1539 234.671,-38.3227 234.433,-30.5765"/>
<polygon fill="midnightblue" stroke="midnightblue" points="231.76,-57.5084 235.566,-67.396 238.757,-57.293 231.76,-57.5084"/>
</g>
<!-- Node35&#45;&gt;Node17 -->
<g id="edge41" class="edge"><title>Node35&#45;&gt;Node17</title>
<path fill="none" stroke="midnightblue" d="M1614.72,-131.79C1661.41,-118.299 1706.98,-96.6672 1680,-67 1649.12,-33.0446 1347.62,-21.3946 1213.16,-17.8664"/>
<polygon fill="midnightblue" stroke="midnightblue" points="1613.78,-128.419 1605.08,-134.463 1615.65,-135.165 1613.78,-128.419"/>
</g>
<!-- Node35&#45;&gt;Node19 -->
<g id="edge42" class="edge"><title>Node35&#45;&gt;Node19</title>
<path fill="none" stroke="midnightblue" d="M1591.64,-130.824C1629.79,-115.739 1669.93,-92.4883 1646,-67 1602.56,-20.7347 1139.31,-35.353 1076,-31 1029.43,-27.7982 976.633,-23.8527 937.731,-20.8862"/>
<polygon fill="midnightblue" stroke="midnightblue" points="1590.13,-127.654 1582.03,-134.479 1592.62,-134.197 1590.13,-127.654"/>
</g>
<!-- Node35&#45;&gt;Node23 -->
<g id="edge43" class="edge"><title>Node35&#45;&gt;Node23</title>
<path fill="none" stroke="midnightblue" d="M1552.81,-126.157C1559.52,-116.679 1567.13,-105.919 1573.04,-97.5765"/>
<polygon fill="midnightblue" stroke="midnightblue" points="1549.9,-124.211 1546.98,-134.396 1555.62,-128.255 1549.9,-124.211"/>
</g>
<!-- Node35&#45;&gt;Node24 -->
<g id="edge44" class="edge"><title>Node35&#45;&gt;Node24</title>
<path fill="none" stroke="midnightblue" d="M1509.79,-128.168C1496.48,-118.228 1480.8,-106.514 1468.84,-97.5765"/>
<polygon fill="midnightblue" stroke="midnightblue" points="1508.02,-131.215 1518.12,-134.396 1512.21,-125.607 1508.02,-131.215"/>
</g>
<!-- Node36 -->
<g id="node23" class="node"><title>Node36</title>
<g id="a_node23"><a xlink:href="_grid_8hpp.html" target="_top" xlink:title="E:/Dev/ObEngine/Git\l/include/Editor/Grid.hpp">
<polygon fill="white" stroke="black" points="1732.5,-67.5 1732.5,-97.5 1851.5,-97.5 1851.5,-67.5 1732.5,-67.5"/>
<text text-anchor="start" x="1740.5" y="-85.5" font-family="Helvetica,sans-Serif" font-size="10.00">E:/Dev/ObEngine/Git</text>
<text text-anchor="middle" x="1792" y="-74.5" font-family="Helvetica,sans-Serif" font-size="10.00">/include/Editor/Grid.hpp</text>
</a>
</g>
</g>
<!-- Node35&#45;&gt;Node36 -->
<g id="edge38" class="edge"><title>Node35&#45;&gt;Node36</title>
<path fill="none" stroke="midnightblue" d="M1601.79,-131.984C1643.44,-121.367 1696.98,-107.72 1736.64,-97.6109"/>
<polygon fill="midnightblue" stroke="midnightblue" points="1600.84,-128.614 1592.02,-134.476 1602.57,-135.397 1600.84,-128.614"/>
</g>
<!-- Node36&#45;&gt;Node17 -->
<g id="edge40" class="edge"><title>Node36&#45;&gt;Node17</title>
<path fill="none" stroke="midnightblue" d="M1722.41,-67.6491C1720.93,-67.4238 1719.46,-67.207 1718,-67 1535.86,-41.1453 1318.92,-26.2443 1213.25,-19.9979"/>
<polygon fill="midnightblue" stroke="midnightblue" points="1721.89,-71.1092 1732.32,-69.2471 1723,-64.1986 1721.89,-71.1092"/>
</g>
<!-- Node37 -->
<g id="node24" class="node"><title>Node37</title>
<g id="a_node24"><a xlink:href="_grid_8cpp.html" target="_top" xlink:title="E:/Dev/ObEngine/Git\l/src/Editor/Grid.cpp">
<polygon fill="white" stroke="black" points="1738.5,-0.5 1738.5,-30.5 1845.5,-30.5 1845.5,-0.5 1738.5,-0.5"/>
<text text-anchor="start" x="1746.5" y="-18.5" font-family="Helvetica,sans-Serif" font-size="10.00">E:/Dev/ObEngine/Git</text>
<text text-anchor="middle" x="1792" y="-7.5" font-family="Helvetica,sans-Serif" font-size="10.00">/src/Editor/Grid.cpp</text>
</a>
</g>
</g>
<!-- Node36&#45;&gt;Node37 -->
<g id="edge39" class="edge"><title>Node36&#45;&gt;Node37</title>
<path fill="none" stroke="midnightblue" d="M1792,-57.1081C1792,-48.1539 1792,-38.3227 1792,-30.5765"/>
<polygon fill="midnightblue" stroke="midnightblue" points="1788.5,-57.3959 1792,-67.396 1795.5,-57.396 1788.5,-57.3959"/>
</g>
</g>
</svg>
        <g id="navigator" transform="translate(0 0)" fill="#404254">
                <rect fill="#f2f5e9" fill-opacity="0.5" stroke="#606060" stroke-width=".5" x="0" y="0" width="60" height="60"/>
                <use id="zoomplus" xlink:href="#zoomPlus" x="17" y="9" onmousedown="handleZoom(evt,'in')"/>
                <use id="zoomminus" xlink:href="#zoomMin" x="42" y="9" onmousedown="handleZoom(evt,'out')"/>
                <use id="reset" xlink:href="#resetDef" x="30" y="36" onmousedown="handleReset()"/>
                <g id="arrowUp" xlink:href="#dirArrow" transform="translate(30 24)" onmousedown="handlePan(0,-1)">
                  <use xlink:href="#rim" fill="#404040">
                        <set attributeName="fill" to="#808080" begin="arrowUp.mouseover" end="arrowUp.mouseout"/>
                  </use>
                  <path fill="none" stroke="white" stroke-width="1.5" d="M0,-3.0v7 M-2.5,-0.5L0,-3.0L2.5,-0.5"/>
                </g>
                <g id="arrowRight" xlink:href="#dirArrow" transform="rotate(90) translate(36 -43)" onmousedown="handlePan(1,0)">
                  <use xlink:href="#rim" fill="#404040">
                        <set attributeName="fill" to="#808080" begin="arrowRight.mouseover" end="arrowRight.mouseout"/>
                  </use>
                  <path fill="none" stroke="white" stroke-width="1.5" d="M0,-3.0v7 M-2.5,-0.5L0,-3.0L2.5,-0.5"/>
                </g>
                <g id="arrowDown" xlink:href="#dirArrow" transform="rotate(180) translate(-30 -48)" onmousedown="handlePan(0,1)">
                  <use xlink:href="#rim" fill="#404040">
                        <set attributeName="fill" to="#808080" begin="arrowDown.mouseover" end="arrowDown.mouseout"/>
                  </use>
                  <path fill="none" stroke="white" stroke-width="1.5" d="M0,-3.0v7 M-2.5,-0.5L0,-3.0L2.5,-0.5"/>
                </g>
                <g id="arrowLeft" xlink:href="#dirArrow" transform="rotate(270) translate(-36 17)" onmousedown="handlePan(-1,0)">
                  <use xlink:href="#rim" fill="#404040">
                        <set attributeName="fill" to="#808080" begin="arrowLeft.mouseover" end="arrowLeft.mouseout"/>
                  </use>
                  <path fill="none" stroke="white" stroke-width="1.5" d="M0,-3.0v7 M-2.5,-0.5L0,-3.0L2.5,-0.5"/>
                </g>
        </g>
        <svg viewBox="0 0 15 15" width="100%" height="30px" preserveAspectRatio="xMaxYMin meet">
         <g id="arrow_out" transform="scale(0.3 0.3)">
          <a xlink:href="_trigger_8hpp__dep__incl_org.svg" target="_base">
           <rect id="button" ry="5" rx="5" y="6" x="6" height="38" width="38"
                fill="#f2f5e9" fill-opacity="0.5" stroke="#606060" stroke-width="1.0"/>
           <path id="arrow"
             d="M 11.500037,31.436501 C 11.940474,20.09759 22.043105,11.32322 32.158766,21.979434 L 37.068811,17.246167 C 37.068811,17.246167 37.088388,32 37.088388,32 L 22.160133,31.978069 C 22.160133,31.978069 26.997745,27.140456 26.997745,27.140456 C 18.528582,18.264221 13.291696,25.230495 11.500037,31.436501 z"
             style="fill:#404040;"/>
          </a>
         </g>
        </svg>
</svg>
