<?xml version="1.0" encoding="UTF-8" standalone="no"?>
<!DOCTYPE svg PUBLIC "-//W3C//DTD SVG 1.1//EN"
 "http://www.w3.org/Graphics/SVG/1.1/DTD/svg11.dtd">
<!-- Generated by graphviz version 2.38.0 (20140413.2041)
 -->
<!-- Title: E:/Dev/ObEngine/Git/include/Triggers/TriggerDatabase.hpp Pages: 1 -->
<!--zoomable 106 -->
<svg id="main" version="1.1" xmlns="http://www.w3.org/2000/svg" xmlns:xlink="http://www.w3.org/1999/xlink" xml:space="preserve" onload="init(evt)">
<style type="text/css"><![CDATA[
.edge:hover path { stroke: red; }
.edge:hover polygon { stroke: red; fill: red; }
.edge path { stroke: white; }
.edge polygon { stroke: white; fill: white; }
.node polygon { fill: white; }
]]></style>
<script type="text/javascript"><![CDATA[
var edges = document.getElementsByTagName('g');
if (edges && edges.length) {
  for (var i=0;i<edges.length;i++) {
    if (edges[i].id.substr(0,4)=='edge') {
      edges[i].setAttribute('class','edge');
    }
  }
}
]]></script>
        <defs>
                <circle id="rim" cx="0" cy="0" r="7"/>
                <circle id="rim2" cx="0" cy="0" r="3.5"/>
                <g id="zoomPlus">
                        <use xlink:href="#rim" fill="#404040">
                                <set attributeName="fill" to="#808080" begin="zoomplus.mouseover" end="zoomplus.mouseout"/>
                        </use>
                        <path d="M-4,0h8M0,-4v8" fill="none" stroke="white" stroke-width="1.5" pointer-events="none"/>
                </g>
                <g id="zoomMin">
                        <use xlink:href="#rim" fill="#404040">
                                <set attributeName="fill" to="#808080" begin="zoomminus.mouseover" end="zoomminus.mouseout"/>
                        </use>
                        <path d="M-4,0h8" fill="none" stroke="white" stroke-width="1.5" pointer-events="none"/>
                </g>
                <g id="dirArrow">
                        <path fill="none" stroke="white" stroke-width="1.5" d="M0,-3.0v7 M-2.5,-0.5L0,-3.0L2.5,-0.5"/>
                </g>
               <g id="resetDef">
                       <use xlink:href="#rim2" fill="#404040">
                               <set attributeName="fill" to="#808080" begin="reset.mouseover" end="reset.mouseout"/>
                       </use>
               </g>
        </defs>

<script type="text/javascript">
var viewWidth = 1796;
var viewHeight = 106;
var sectionId = 'dynsection-1';
</script>
<script xlink:href="svgpan.js"/>
<svg id="graph" class="graph">
<g id="viewport">
<title>E:/Dev/ObEngine/Git/include/Triggers/TriggerDatabase.hpp</title>
<!-- Node22 -->
<g id="node1" class="node"><title>Node22</title>
<polygon fill="#bfbfbf" stroke="black" points="800.5,-67.5 800.5,-97.5 980.5,-97.5 980.5,-67.5 800.5,-67.5"/>
<text text-anchor="start" x="808.5" y="-85.5" font-family="Helvetica,sans-Serif" font-size="10.00">E:/Dev/ObEngine/Git</text>
<text text-anchor="middle" x="890.5" y="-74.5" font-family="Helvetica,sans-Serif" font-size="10.00">/include/Triggers/TriggerDatabase.hpp</text>
</g>
<!-- Node23 -->
<g id="node2" class="node"><title>Node23</title>
<g id="a_node2"><a xlink:href="_triggers_bindings_8cpp.html" target="_top" xlink:title="E:/Dev/ObEngine/Git\l/src/Bindings/TriggersBindings.cpp">
<polygon fill="none" stroke="black" points="0,-0.5 0,-30.5 167,-30.5 167,-0.5 0,-0.5"/>
<text text-anchor="start" x="8" y="-18.5" font-family="Helvetica,sans-Serif" font-size="10.00">E:/Dev/ObEngine/Git</text>
<text text-anchor="middle" x="83.5" y="-7.5" font-family="Helvetica,sans-Serif" font-size="10.00">/src/Bindings/TriggersBindings.cpp</text>
</a>
</g>
</g>
<!-- Node22&#45;&gt;Node23 -->
<g id="edge1" class="edge"><title>Node22&#45;&gt;Node23</title>
<path fill="none" stroke="midnightblue" d="M790.08,-77.129C651.504,-70.4773 393.979,-55.8861 175.5,-31 172.769,-30.6889 169.995,-30.3552 167.195,-30.0032"/>
<polygon fill="midnightblue" stroke="midnightblue" points="790.102,-80.6339 800.257,-77.6135 790.435,-73.6418 790.102,-80.6339"/>
</g>
<!-- Node24 -->
<g id="node3" class="node"><title>Node24</title>
<g id="a_node3"><a xlink:href="_console_8cpp.html" target="_top" xlink:title="E:/Dev/ObEngine/Git\l/src/Debug/Console.cpp">
<polygon fill="none" stroke="black" points="185,-0.5 185,-30.5 306,-30.5 306,-0.5 185,-0.5"/>
<text text-anchor="start" x="193" y="-18.5" font-family="Helvetica,sans-Serif" font-size="10.00">E:/Dev/ObEngine/Git</text>
<text text-anchor="middle" x="245.5" y="-7.5" font-family="Helvetica,sans-Serif" font-size="10.00">/src/Debug/Console.cpp</text>
</a>
</g>
</g>
<!-- Node22&#45;&gt;Node24 -->
<g id="edge2" class="edge"><title>Node22&#45;&gt;Node24</title>
<path fill="none" stroke="midnightblue" d="M790.286,-76.2518C675.227,-69.404 481.034,-55.329 315.5,-31 312.43,-30.5488 309.293,-30.0475 306.129,-29.5101"/>
<polygon fill="midnightblue" stroke="midnightblue" points="790.296,-79.7583 800.484,-76.8521 790.707,-72.7704 790.296,-79.7583"/>
</g>
<!-- Node25 -->
<g id="node4" class="node"><title>Node25</title>
<g id="a_node4"><a xlink:href="_map_editor_8cpp.html" target="_top" xlink:title="E:/Dev/ObEngine/Git\l/src/Editor/MapEditor.cpp">
<polygon fill="none" stroke="black" points="324.5,-0.5 324.5,-30.5 452.5,-30.5 452.5,-0.5 324.5,-0.5"/>
<text text-anchor="start" x="332.5" y="-18.5" font-family="Helvetica,sans-Serif" font-size="10.00">E:/Dev/ObEngine/Git</text>
<text text-anchor="middle" x="388.5" y="-7.5" font-family="Helvetica,sans-Serif" font-size="10.00">/src/Editor/MapEditor.cpp</text>
</a>
</g>
</g>
<!-- Node22&#45;&gt;Node25 -->
<g id="edge3" class="edge"><title>Node22&#45;&gt;Node25</title>
<path fill="none" stroke="midnightblue" d="M790.095,-71.943C702.957,-63.1095 573.547,-48.6946 461.5,-31 458.565,-30.5364 455.567,-30.0391 452.543,-29.5178"/>
<polygon fill="midnightblue" stroke="midnightblue" points="789.942,-75.4452 800.242,-72.9658 790.644,-68.4805 789.942,-75.4452"/>
</g>
<!-- Node26 -->
<g id="node5" class="node"><title>Node26</title>
<g id="a_node5"><a xlink:href="_input_manager_8cpp.html" target="_top" xlink:title="E:/Dev/ObEngine/Git\l/src/Input/InputManager.cpp">
<polygon fill="none" stroke="black" points="471,-0.5 471,-30.5 608,-30.5 608,-0.5 471,-0.5"/>
<text text-anchor="start" x="479" y="-18.5" font-family="Helvetica,sans-Serif" font-size="10.00">E:/Dev/ObEngine/Git</text>
<text text-anchor="middle" x="539.5" y="-7.5" font-family="Helvetica,sans-Serif" font-size="10.00">/src/Input/InputManager.cpp</text>
</a>
</g>
</g>
<!-- Node22&#45;&gt;Node26 -->
<g id="edge4" class="edge"><title>Node22&#45;&gt;Node26</title>
<path fill="none" stroke="midnightblue" d="M804.14,-65.6717C750.19,-55.7617 679.284,-42.6973 616.5,-31 613.825,-30.5017 611.099,-29.9928 608.345,-29.4779"/>
<polygon fill="midnightblue" stroke="midnightblue" points="803.543,-69.1204 814.01,-67.4843 804.807,-62.2356 803.543,-69.1204"/>
</g>
<!-- Node27 -->
<g id="node6" class="node"><title>Node27</title>
<g id="a_node6"><a xlink:href="_game_8cpp.html" target="_top" xlink:title="E:/Dev/ObEngine/Git\l/src/Modes/Game.cpp">
<polygon fill="none" stroke="black" points="626,-0.5 626,-30.5 739,-30.5 739,-0.5 626,-0.5"/>
<text text-anchor="start" x="634" y="-18.5" font-family="Helvetica,sans-Serif" font-size="10.00">E:/Dev/ObEngine/Git</text>
<text text-anchor="middle" x="682.5" y="-7.5" font-family="Helvetica,sans-Serif" font-size="10.00">/src/Modes/Game.cpp</text>
</a>
</g>
</g>
<!-- Node22&#45;&gt;Node27 -->
<g id="edge5" class="edge"><title>Node22&#45;&gt;Node27</title>
<path fill="none" stroke="midnightblue" d="M835.922,-64.4442C802.205,-53.9078 759.458,-40.5495 727.655,-30.6109"/>
<polygon fill="midnightblue" stroke="midnightblue" points="835.034,-67.8339 845.623,-67.476 837.122,-61.1525 835.034,-67.8339"/>
</g>
<!-- Node28 -->
<g id="node7" class="node"><title>Node28</title>
<g id="a_node7"><a xlink:href="_network_8cpp.html" target="_top" xlink:title="E:/Dev/ObEngine/Git\l/src/Network/Network.cpp">
<polygon fill="none" stroke="black" points="757.5,-0.5 757.5,-30.5 885.5,-30.5 885.5,-0.5 757.5,-0.5"/>
<text text-anchor="start" x="765.5" y="-18.5" font-family="Helvetica,sans-Serif" font-size="10.00">E:/Dev/ObEngine/Git</text>
<text text-anchor="middle" x="821.5" y="-7.5" font-family="Helvetica,sans-Serif" font-size="10.00">/src/Network/Network.cpp</text>
</a>
</g>
</g>
<!-- Node22&#45;&gt;Node28 -->
<g id="edge6" class="edge"><title>Node22&#45;&gt;Node28</title>
<path fill="none" stroke="midnightblue" d="M868.008,-60.3115C857.657,-50.5612 845.66,-39.259 836.443,-30.5765"/>
<polygon fill="midnightblue" stroke="midnightblue" points="865.849,-63.0866 875.528,-67.396 870.649,-57.9914 865.849,-63.0866"/>
</g>
<!-- Node29 -->
<g id="node8" class="node"><title>Node29</title>
<g id="a_node8"><a xlink:href="_scene_8cpp.html" target="_top" xlink:title="E:/Dev/ObEngine/Git\l/src/Scene/Scene.cpp">
<polygon fill="none" stroke="black" points="904,-0.5 904,-30.5 1017,-30.5 1017,-0.5 904,-0.5"/>
<text text-anchor="start" x="912" y="-18.5" font-family="Helvetica,sans-Serif" font-size="10.00">E:/Dev/ObEngine/Git</text>
<text text-anchor="middle" x="960.5" y="-7.5" font-family="Helvetica,sans-Serif" font-size="10.00">/src/Scene/Scene.cpp</text>
</a>
</g>
</g>
<!-- Node22&#45;&gt;Node29 -->
<g id="edge7" class="edge"><title>Node22&#45;&gt;Node29</title>
<path fill="none" stroke="midnightblue" d="M913.318,-60.3115C923.819,-50.5612 935.99,-39.259 945.341,-30.5765"/>
<polygon fill="midnightblue" stroke="midnightblue" points="910.635,-58.0266 905.689,-67.396 915.399,-63.1562 910.635,-58.0266"/>
</g>
<!-- Node30 -->
<g id="node9" class="node"><title>Node30</title>
<g id="a_node9"><a xlink:href="_game_object_8cpp.html" target="_top" xlink:title="E:/Dev/ObEngine/Git\l/src/Script/GameObject.cpp">
<polygon fill="none" stroke="black" points="1035.5,-0.5 1035.5,-30.5 1173.5,-30.5 1173.5,-0.5 1035.5,-0.5"/>
<text text-anchor="start" x="1043.5" y="-18.5" font-family="Helvetica,sans-Serif" font-size="10.00">E:/Dev/ObEngine/Git</text>
<text text-anchor="middle" x="1104.5" y="-7.5" font-family="Helvetica,sans-Serif" font-size="10.00">/src/Script/GameObject.cpp</text>
</a>
</g>
</g>
<!-- Node22&#45;&gt;Node30 -->
<g id="edge8" class="edge"><title>Node22&#45;&gt;Node30</title>
<path fill="none" stroke="midnightblue" d="M946.653,-64.4442C981.342,-53.9078 1025.32,-40.5495 1058.04,-30.6109"/>
<polygon fill="midnightblue" stroke="midnightblue" points="945.222,-61.2207 936.671,-67.476 947.257,-67.9186 945.222,-61.2207"/>
</g>
<!-- Node31 -->
<g id="node10" class="node"><title>Node31</title>
<g id="a_node10"><a xlink:href="_script_8cpp.html" target="_top" xlink:title="E:/Dev/ObEngine/Git\l/src/Script/Script.cpp">
<polygon fill="none" stroke="black" points="1192,-0.5 1192,-30.5 1301,-30.5 1301,-0.5 1192,-0.5"/>
<text text-anchor="start" x="1200" y="-18.5" font-family="Helvetica,sans-Serif" font-size="10.00">E:/Dev/ObEngine/Git</text>
<text text-anchor="middle" x="1246.5" y="-7.5" font-family="Helvetica,sans-Serif" font-size="10.00">/src/Script/Script.cpp</text>
</a>
</g>
</g>
<!-- Node22&#45;&gt;Node31 -->
<g id="edge9" class="edge"><title>Node22&#45;&gt;Node31</title>
<path fill="none" stroke="midnightblue" d="M988.614,-65.8275C1045.39,-56.4348 1118.13,-43.8495 1182.5,-31 1185.52,-30.3979 1188.61,-29.7614 1191.73,-29.1047"/>
<polygon fill="midnightblue" stroke="midnightblue" points="987.863,-62.4041 978.565,-67.4842 989.001,-69.3108 987.863,-62.4041"/>
</g>
<!-- Node32 -->
<g id="node11" class="node"><title>Node32</title>
<g id="a_node11"><a xlink:href="_cursor_8cpp.html" target="_top" xlink:title="E:/Dev/ObEngine/Git\l/src/System/Cursor.cpp">
<polygon fill="none" stroke="black" points="1319.5,-0.5 1319.5,-30.5 1439.5,-30.5 1439.5,-0.5 1319.5,-0.5"/>
<text text-anchor="start" x="1327.5" y="-18.5" font-family="Helvetica,sans-Serif" font-size="10.00">E:/Dev/ObEngine/Git</text>
<text text-anchor="middle" x="1379.5" y="-7.5" font-family="Helvetica,sans-Serif" font-size="10.00">/src/System/Cursor.cpp</text>
</a>
</g>
</g>
<!-- Node22&#45;&gt;Node32 -->
<g id="edge10" class="edge"><title>Node22&#45;&gt;Node32</title>
<path fill="none" stroke="midnightblue" d="M990.736,-71.9384C1076.05,-63.2059 1201.7,-48.9378 1310.5,-31 1313.4,-30.5221 1316.36,-30.0064 1319.35,-29.4641"/>
<polygon fill="midnightblue" stroke="midnightblue" points="990.131,-68.4818 980.536,-72.9758 990.839,-75.4459 990.131,-68.4818"/>
</g>
<!-- Node33 -->
<g id="node12" class="node"><title>Node33</title>
<g id="a_node12"><a xlink:href="_trigger_database_8cpp.html" target="_top" xlink:title="E:/Dev/ObEngine/Git\l/src/Triggers/TriggerDatabase.cpp">
<polygon fill="none" stroke="black" points="1458,-0.5 1458,-30.5 1621,-30.5 1621,-0.5 1458,-0.5"/>
<text text-anchor="start" x="1466" y="-18.5" font-family="Helvetica,sans-Serif" font-size="10.00">E:/Dev/ObEngine/Git</text>
<text text-anchor="middle" x="1539.5" y="-7.5" font-family="Helvetica,sans-Serif" font-size="10.00">/src/Triggers/TriggerDatabase.cpp</text>
</a>
</g>
</g>
<!-- Node22&#45;&gt;Node33 -->
<g id="edge11" class="edge"><title>Node22&#45;&gt;Node33</title>
<path fill="none" stroke="midnightblue" d="M990.837,-74.4774C1102.71,-66.169 1288.91,-50.9128 1448.5,-31 1451.52,-30.6236 1454.59,-30.2233 1457.68,-29.8046"/>
<polygon fill="midnightblue" stroke="midnightblue" points="990.295,-71.0078 980.58,-75.2351 990.811,-77.9888 990.295,-71.0078"/>
</g>
<!-- Node34 -->
<g id="node13" class="node"><title>Node34</title>
<g id="a_node13"><a xlink:href="_trigger_group_8cpp.html" target="_top" xlink:title="E:/Dev/ObEngine/Git\l/src/Triggers/TriggerGroup.cpp">
<polygon fill="none" stroke="black" points="1639.5,-0.5 1639.5,-30.5 1787.5,-30.5 1787.5,-0.5 1639.5,-0.5"/>
<text text-anchor="start" x="1647.5" y="-18.5" font-family="Helvetica,sans-Serif" font-size="10.00">E:/Dev/ObEngine/Git</text>
<text text-anchor="middle" x="1713.5" y="-7.5" font-family="Helvetica,sans-Serif" font-size="10.00">/src/Triggers/TriggerGroup.cpp</text>
</a>
</g>
</g>
<!-- Node22&#45;&gt;Node34 -->
<g id="edge12" class="edge"><title>Node22&#45;&gt;Node34</title>
<path fill="none" stroke="midnightblue" d="M990.822,-77.9906C1133.4,-72.2454 1402.67,-58.5981 1630.5,-31 1633.4,-30.6482 1636.36,-30.2628 1639.35,-29.8514"/>
<polygon fill="midnightblue" stroke="midnightblue" points="990.63,-74.4953 980.777,-78.3906 990.908,-81.4898 990.63,-74.4953"/>
</g>
</g>
</svg>
        <g id="navigator" transform="translate(0 0)" fill="#404254">
                <rect fill="#f2f5e9" fill-opacity="0.5" stroke="#606060" stroke-width=".5" x="0" y="0" width="60" height="60"/>
                <use id="zoomplus" xlink:href="#zoomPlus" x="17" y="9" onmousedown="handleZoom(evt,'in')"/>
                <use id="zoomminus" xlink:href="#zoomMin" x="42" y="9" onmousedown="handleZoom(evt,'out')"/>
                <use id="reset" xlink:href="#resetDef" x="30" y="36" onmousedown="handleReset()"/>
                <g id="arrowUp" xlink:href="#dirArrow" transform="translate(30 24)" onmousedown="handlePan(0,-1)">
                  <use xlink:href="#rim" fill="#404040">
                        <set attributeName="fill" to="#808080" begin="arrowUp.mouseover" end="arrowUp.mouseout"/>
                  </use>
                  <path fill="none" stroke="white" stroke-width="1.5" d="M0,-3.0v7 M-2.5,-0.5L0,-3.0L2.5,-0.5"/>
                </g>
                <g id="arrowRight" xlink:href="#dirArrow" transform="rotate(90) translate(36 -43)" onmousedown="handlePan(1,0)">
                  <use xlink:href="#rim" fill="#404040">
                        <set attributeName="fill" to="#808080" begin="arrowRight.mouseover" end="arrowRight.mouseout"/>
                  </use>
                  <path fill="none" stroke="white" stroke-width="1.5" d="M0,-3.0v7 M-2.5,-0.5L0,-3.0L2.5,-0.5"/>
                </g>
                <g id="arrowDown" xlink:href="#dirArrow" transform="rotate(180) translate(-30 -48)" onmousedown="handlePan(0,1)">
                  <use xlink:href="#rim" fill="#404040">
                        <set attributeName="fill" to="#808080" begin="arrowDown.mouseover" end="arrowDown.mouseout"/>
                  </use>
                  <path fill="none" stroke="white" stroke-width="1.5" d="M0,-3.0v7 M-2.5,-0.5L0,-3.0L2.5,-0.5"/>
                </g>
                <g id="arrowLeft" xlink:href="#dirArrow" transform="rotate(270) translate(-36 17)" onmousedown="handlePan(-1,0)">
                  <use xlink:href="#rim" fill="#404040">
                        <set attributeName="fill" to="#808080" begin="arrowLeft.mouseover" end="arrowLeft.mouseout"/>
                  </use>
                  <path fill="none" stroke="white" stroke-width="1.5" d="M0,-3.0v7 M-2.5,-0.5L0,-3.0L2.5,-0.5"/>
                </g>
        </g>
        <svg viewBox="0 0 15 15" width="100%" height="30px" preserveAspectRatio="xMaxYMin meet">
         <g id="arrow_out" transform="scale(0.3 0.3)">
          <a xlink:href="_trigger_database_8hpp__dep__incl_org.svg" target="_base">
           <rect id="button" ry="5" rx="5" y="6" x="6" height="38" width="38"
                fill="#f2f5e9" fill-opacity="0.5" stroke="#606060" stroke-width="1.0"/>
           <path id="arrow"
             d="M 11.500037,31.436501 C 11.940474,20.09759 22.043105,11.32322 32.158766,21.979434 L 37.068811,17.246167 C 37.068811,17.246167 37.088388,32 37.088388,32 L 22.160133,31.978069 C 22.160133,31.978069 26.997745,27.140456 26.997745,27.140456 C 18.528582,18.264221 13.291696,25.230495 11.500037,31.436501 z"
             style="fill:#404040;"/>
          </a>
         </g>
        </svg>
</svg>
