<?xml version="1.0" encoding="UTF-8" standalone="no"?>
<!DOCTYPE svg PUBLIC "-//W3C//DTD SVG 1.1//EN"
 "http://www.w3.org/Graphics/SVG/1.1/DTD/svg11.dtd">
<!-- Generated by graphviz version 2.38.0 (20140413.2041)
 -->
<!-- Title: E:/Dev/ObEngine/Git/src/Triggers/TriggerDatabase.cpp Pages: 1 -->
<!--zoomable 487 -->
<svg id="main" version="1.1" xmlns="http://www.w3.org/2000/svg" xmlns:xlink="http://www.w3.org/1999/xlink" xml:space="preserve" onload="init(evt)">
<style type="text/css"><![CDATA[
.edge:hover path { stroke: red; }
.edge:hover polygon { stroke: red; fill: red; }
.edge path { stroke: white; }
.edge polygon { stroke: white; fill: white; }
.node polygon { fill: white; }
]]></style>
<script type="text/javascript"><![CDATA[
var edges = document.getElementsByTagName('g');
if (edges && edges.length) {
  for (var i=0;i<edges.length;i++) {
    if (edges[i].id.substr(0,4)=='edge') {
      edges[i].setAttribute('class','edge');
    }
  }
}
]]></script>
        <defs>
                <circle id="rim" cx="0" cy="0" r="7"/>
                <circle id="rim2" cx="0" cy="0" r="3.5"/>
                <g id="zoomPlus">
                        <use xlink:href="#rim" fill="#404040">
                                <set attributeName="fill" to="#808080" begin="zoomplus.mouseover" end="zoomplus.mouseout"/>
                        </use>
                        <path d="M-4,0h8M0,-4v8" fill="none" stroke="white" stroke-width="1.5" pointer-events="none"/>
                </g>
                <g id="zoomMin">
                        <use xlink:href="#rim" fill="#404040">
                                <set attributeName="fill" to="#808080" begin="zoomminus.mouseover" end="zoomminus.mouseout"/>
                        </use>
                        <path d="M-4,0h8" fill="none" stroke="white" stroke-width="1.5" pointer-events="none"/>
                </g>
                <g id="dirArrow">
                        <path fill="none" stroke="white" stroke-width="1.5" d="M0,-3.0v7 M-2.5,-0.5L0,-3.0L2.5,-0.5"/>
                </g>
               <g id="resetDef">
                       <use xlink:href="#rim2" fill="#404040">
                               <set attributeName="fill" to="#808080" begin="reset.mouseover" end="reset.mouseout"/>
                       </use>
               </g>
        </defs>

<script type="text/javascript">
var viewWidth = 610;
var viewHeight = 487;
var sectionId = 'dynsection-0';
</script>
<script xlink:href="svgpan.js"/>
<svg id="graph" class="graph">
<g id="viewport">
<title>E:/Dev/ObEngine/Git/src/Triggers/TriggerDatabase.cpp</title>
<!-- Node0 -->
<g id="node1" class="node"><title>Node0</title>
<polygon fill="#bfbfbf" stroke="black" points="119,-448.5 119,-478.5 282,-478.5 282,-448.5 119,-448.5"/>
<text text-anchor="start" x="127" y="-466.5" font-family="Helvetica,sans-Serif" font-size="10.00">E:/Dev/ObEngine/Git</text>
<text text-anchor="middle" x="200.5" y="-455.5" font-family="Helvetica,sans-Serif" font-size="10.00">/src/Triggers/TriggerDatabase.cpp</text>
</g>
<!-- Node1 -->
<g id="node2" class="node"><title>Node1</title>
<g id="a_node2"><a xlink:href="_trigger_database_8hpp.html" target="_top" xlink:title="Triggers/TriggerDatabase.hpp">
<polygon fill="none" stroke="black" points="129,-392.5 129,-411.5 272,-411.5 272,-392.5 129,-392.5"/>
<text text-anchor="middle" x="200.5" y="-399.5" font-family="Helvetica,sans-Serif" font-size="10.00">Triggers/TriggerDatabase.hpp</text>
</a>
</g>
</g>
<!-- Node0&#45;&gt;Node1 -->
<g id="edge1" class="edge"><title>Node0&#45;&gt;Node1</title>
<path fill="none" stroke="midnightblue" d="M200.5,-448.399C200.5,-440.466 200.5,-430.458 200.5,-421.858"/>
<polygon fill="midnightblue" stroke="midnightblue" points="204,-421.658 200.5,-411.658 197,-421.658 204,-421.658"/>
</g>
<!-- Node2 -->
<g id="node3" class="node"><title>Node2</title>
<polygon fill="none" stroke="#bfbfbf" points="0,-0.5 0,-19.5 35,-19.5 35,-0.5 0,-0.5"/>
<text text-anchor="middle" x="17.5" y="-7.5" font-family="Helvetica,sans-Serif" font-size="10.00">map</text>
</g>
<!-- Node1&#45;&gt;Node2 -->
<g id="edge2" class="edge"><title>Node1&#45;&gt;Node2</title>
<path fill="none" stroke="midnightblue" d="M148.06,-392.479C93.9834,-380.349 17.5,-352.349 17.5,-291 17.5,-291 17.5,-291 17.5,-121 17.5,-88.948 17.5,-51.6426 17.5,-29.7489"/>
<polygon fill="midnightblue" stroke="midnightblue" points="21.0001,-29.5577 17.5,-19.5578 14.0001,-29.5578 21.0001,-29.5577"/>
</g>
<!-- Node3 -->
<g id="node4" class="node"><title>Node3</title>
<g id="a_node4"><a xlink:href="_chronometer_8hpp.html" target="_top" xlink:title="Time/Chronometer.hpp">
<polygon fill="none" stroke="black" points="329,-336.5 329,-355.5 444,-355.5 444,-336.5 329,-336.5"/>
<text text-anchor="middle" x="386.5" y="-343.5" font-family="Helvetica,sans-Serif" font-size="10.00">Time/Chronometer.hpp</text>
</a>
</g>
</g>
<!-- Node1&#45;&gt;Node3 -->
<g id="edge3" class="edge"><title>Node1&#45;&gt;Node3</title>
<path fill="none" stroke="midnightblue" d="M229.972,-392.444C261.671,-383.241 312.232,-368.562 347.275,-358.388"/>
<polygon fill="midnightblue" stroke="midnightblue" points="348.538,-361.666 357.166,-355.516 346.586,-354.943 348.538,-361.666"/>
</g>
<!-- Node6 -->
<g id="node7" class="node"><title>Node6</title>
<g id="a_node7"><a xlink:href="_trigger_8hpp.html" target="_top" xlink:title="Triggers/Trigger.hpp">
<polygon fill="none" stroke="black" points="181.5,-224.5 181.5,-243.5 283.5,-243.5 283.5,-224.5 181.5,-224.5"/>
<text text-anchor="middle" x="232.5" y="-231.5" font-family="Helvetica,sans-Serif" font-size="10.00">Triggers/Trigger.hpp</text>
</a>
</g>
</g>
<!-- Node1&#45;&gt;Node6 -->
<g id="edge6" class="edge"><title>Node1&#45;&gt;Node6</title>
<path fill="none" stroke="midnightblue" d="M193.349,-392.364C186.727,-383.763 177.343,-369.873 173.5,-356 164.484,-323.448 158.516,-310.273 173.5,-280 180.103,-266.659 192.765,-256.194 204.671,-248.726"/>
<polygon fill="midnightblue" stroke="midnightblue" points="206.618,-251.643 213.516,-243.602 203.109,-245.587 206.618,-251.643"/>
</g>
<!-- Node22 -->
<g id="node23" class="node"><title>Node22</title>
<g id="a_node23"><a xlink:href="_trigger_group_8hpp.html" target="_top" xlink:title="Triggers/TriggerGroup.hpp">
<polygon fill="none" stroke="black" points="182.5,-336.5 182.5,-355.5 310.5,-355.5 310.5,-336.5 182.5,-336.5"/>
<text text-anchor="middle" x="246.5" y="-343.5" font-family="Helvetica,sans-Serif" font-size="10.00">Triggers/TriggerGroup.hpp</text>
</a>
</g>
</g>
<!-- Node1&#45;&gt;Node22 -->
<g id="edge28" class="edge"><title>Node1&#45;&gt;Node22</title>
<path fill="none" stroke="midnightblue" d="M208.096,-392.083C214.727,-384.298 224.521,-372.801 232.558,-363.367"/>
<polygon fill="midnightblue" stroke="midnightblue" points="235.225,-365.633 239.045,-355.751 229.896,-361.094 235.225,-365.633"/>
</g>
<!-- Node4 -->
<g id="node5" class="node"><title>Node4</title>
<polygon fill="none" stroke="#bfbfbf" points="379.5,-280.5 379.5,-299.5 425.5,-299.5 425.5,-280.5 379.5,-280.5"/>
<text text-anchor="middle" x="402.5" y="-287.5" font-family="Helvetica,sans-Serif" font-size="10.00">chrono</text>
</g>
<!-- Node3&#45;&gt;Node4 -->
<g id="edge4" class="edge"><title>Node3&#45;&gt;Node4</title>
<path fill="none" stroke="midnightblue" d="M389.142,-336.083C391.286,-328.849 394.379,-318.409 397.049,-309.397"/>
<polygon fill="midnightblue" stroke="midnightblue" points="400.422,-310.333 399.907,-299.751 393.71,-308.345 400.422,-310.333"/>
</g>
<!-- Node5 -->
<g id="node6" class="node"><title>Node5</title>
<g id="a_node6"><a xlink:href="_time_utils_8hpp.html" target="_top" xlink:title="Time/TimeUtils.hpp">
<polygon fill="none" stroke="black" points="301.5,-224.5 301.5,-243.5 401.5,-243.5 401.5,-224.5 301.5,-224.5"/>
<text text-anchor="middle" x="351.5" y="-231.5" font-family="Helvetica,sans-Serif" font-size="10.00">Time/TimeUtils.hpp</text>
</a>
</g>
</g>
<!-- Node3&#45;&gt;Node5 -->
<g id="edge5" class="edge"><title>Node3&#45;&gt;Node5</title>
<path fill="none" stroke="midnightblue" d="M383.285,-336.423C379.945,-327.406 374.636,-312.78 370.5,-300 365.466,-284.445 360.294,-266.609 356.62,-253.56"/>
<polygon fill="midnightblue" stroke="midnightblue" points="359.979,-252.573 353.922,-243.88 353.236,-254.453 359.979,-252.573"/>
</g>
<!-- Node7 -->
<g id="node8" class="node"><title>Node7</title>
<polygon fill="none" stroke="#bfbfbf" points="84,-168.5 84,-187.5 127,-187.5 127,-168.5 84,-168.5"/>
<text text-anchor="middle" x="105.5" y="-175.5" font-family="Helvetica,sans-Serif" font-size="10.00">queue</text>
</g>
<!-- Node6&#45;&gt;Node7 -->
<g id="edge7" class="edge"><title>Node6&#45;&gt;Node7</title>
<path fill="none" stroke="midnightblue" d="M212.376,-224.444C191.476,-215.557 158.565,-201.563 134.784,-191.451"/>
<polygon fill="midnightblue" stroke="midnightblue" points="136.102,-188.208 125.529,-187.516 133.362,-194.65 136.102,-188.208"/>
</g>
<!-- Node8 -->
<g id="node9" class="node"><title>Node8</title>
<polygon fill="none" stroke="#bfbfbf" points="342,-112.5 342,-131.5 443,-131.5 443,-112.5 342,-112.5"/>
<text text-anchor="middle" x="392.5" y="-119.5" font-family="Helvetica,sans-Serif" font-size="10.00">kaguya/kaguya.hpp</text>
</g>
<!-- Node6&#45;&gt;Node8 -->
<g id="edge8" class="edge"><title>Node6&#45;&gt;Node8</title>
<path fill="none" stroke="midnightblue" d="M245.055,-224.368C272.394,-205.573 337.564,-160.768 371.361,-137.533"/>
<polygon fill="midnightblue" stroke="midnightblue" points="373.746,-140.141 380.003,-131.591 369.78,-134.373 373.746,-140.141"/>
</g>
<!-- Node9 -->
<g id="node10" class="node"><title>Node9</title>
<g id="a_node10"><a xlink:href="_global_state_8hpp.html" target="_top" xlink:title="Script/GlobalState.hpp">
<polygon fill="none" stroke="black" points="338,-168.5 338,-187.5 453,-187.5 453,-168.5 338,-168.5"/>
<text text-anchor="middle" x="395.5" y="-175.5" font-family="Helvetica,sans-Serif" font-size="10.00">Script/GlobalState.hpp</text>
</a>
</g>
</g>
<!-- Node6&#45;&gt;Node9 -->
<g id="edge9" class="edge"><title>Node6&#45;&gt;Node9</title>
<path fill="none" stroke="midnightblue" d="M258.328,-224.444C285.749,-215.359 329.277,-200.939 359.932,-190.783"/>
<polygon fill="midnightblue" stroke="midnightblue" points="361.401,-193.984 369.793,-187.516 359.2,-187.339 361.401,-193.984"/>
</g>
<!-- Node10 -->
<g id="node11" class="node"><title>Node10</title>
<g id="a_node11"><a xlink:href="_any_8hpp.html" target="_top" xlink:title="Types/Any.hpp">
<polygon fill="none" stroke="black" points="471.5,-168.5 471.5,-187.5 553.5,-187.5 553.5,-168.5 471.5,-168.5"/>
<text text-anchor="middle" x="512.5" y="-175.5" font-family="Helvetica,sans-Serif" font-size="10.00">Types/Any.hpp</text>
</a>
</g>
</g>
<!-- Node6&#45;&gt;Node10 -->
<g id="edge11" class="edge"><title>Node6&#45;&gt;Node10</title>
<path fill="none" stroke="midnightblue" d="M276.867,-224.444C326.991,-214.777 408.444,-199.068 461.244,-188.885"/>
<polygon fill="midnightblue" stroke="midnightblue" points="461.923,-192.319 471.079,-186.988 460.597,-185.445 461.923,-192.319"/>
</g>
<!-- Node13 -->
<g id="node14" class="node"><title>Node13</title>
<g id="a_node14"><a xlink:href="_string_utils_8hpp.html" target="_top" xlink:title="Utils/StringUtils.hpp">
<polygon fill="none" stroke="black" points="219,-112.5 219,-131.5 322,-131.5 322,-112.5 219,-112.5"/>
<text text-anchor="middle" x="270.5" y="-119.5" font-family="Helvetica,sans-Serif" font-size="10.00">Utils/StringUtils.hpp</text>
</a>
</g>
</g>
<!-- Node6&#45;&gt;Node13 -->
<g id="edge14" class="edge"><title>Node6&#45;&gt;Node13</title>
<path fill="none" stroke="midnightblue" d="M236.881,-224.194C241.226,-215.236 247.884,-200.877 252.5,-188 258.056,-172.499 262.94,-154.415 266.213,-141.262"/>
<polygon fill="midnightblue" stroke="midnightblue" points="269.616,-142.081 268.563,-131.539 262.812,-140.437 269.616,-142.081"/>
</g>
<!-- Node17 -->
<g id="node18" class="node"><title>Node17</title>
<g id="a_node18"><a xlink:href="_type_utils_8hpp.html" target="_top" xlink:title="Utils/TypeUtils.hpp">
<polygon fill="none" stroke="black" points="145.5,-168.5 145.5,-187.5 243.5,-187.5 243.5,-168.5 145.5,-168.5"/>
<text text-anchor="middle" x="194.5" y="-175.5" font-family="Helvetica,sans-Serif" font-size="10.00">Utils/TypeUtils.hpp</text>
</a>
</g>
</g>
<!-- Node6&#45;&gt;Node17 -->
<g id="edge18" class="edge"><title>Node6&#45;&gt;Node17</title>
<path fill="none" stroke="midnightblue" d="M226.225,-224.083C220.858,-216.455 212.982,-205.264 206.421,-195.941"/>
<polygon fill="midnightblue" stroke="midnightblue" points="209.275,-193.915 200.658,-187.751 203.551,-197.943 209.275,-193.915"/>
</g>
<!-- Node18 -->
<g id="node19" class="node"><title>Node18</title>
<g id="a_node19"><a xlink:href="_vector_utils_8hpp.html" target="_top" xlink:title="Utils/VectorUtils.hpp">
<polygon fill="none" stroke="black" points="90.5,-112.5 90.5,-131.5 196.5,-131.5 196.5,-112.5 90.5,-112.5"/>
<text text-anchor="middle" x="143.5" y="-119.5" font-family="Helvetica,sans-Serif" font-size="10.00">Utils/VectorUtils.hpp</text>
</a>
</g>
</g>
<!-- Node6&#45;&gt;Node18 -->
<g id="edge27" class="edge"><title>Node6&#45;&gt;Node18</title>
<path fill="none" stroke="midnightblue" d="M181.112,-225.173C140.114,-217.754 87.4747,-205.186 74.5,-188 59.1127,-167.618 87.7319,-148.063 112.662,-135.821"/>
<polygon fill="midnightblue" stroke="midnightblue" points="114.349,-138.896 121.936,-131.501 111.393,-132.551 114.349,-138.896"/>
</g>
<!-- Node9&#45;&gt;Node8 -->
<g id="edge10" class="edge"><title>Node9&#45;&gt;Node8</title>
<path fill="none" stroke="midnightblue" d="M395.005,-168.083C394.611,-161.006 394.048,-150.861 393.555,-141.986"/>
<polygon fill="midnightblue" stroke="midnightblue" points="397.036,-141.542 392.986,-131.751 390.046,-141.93 397.036,-141.542"/>
</g>
<!-- Node11 -->
<g id="node12" class="node"><title>Node11</title>
<polygon fill="none" stroke="#bfbfbf" points="471.5,-112.5 471.5,-131.5 533.5,-131.5 533.5,-112.5 471.5,-112.5"/>
<text text-anchor="middle" x="502.5" y="-119.5" font-family="Helvetica,sans-Serif" font-size="10.00">type_traits</text>
</g>
<!-- Node10&#45;&gt;Node11 -->
<g id="edge12" class="edge"><title>Node10&#45;&gt;Node11</title>
<path fill="none" stroke="midnightblue" d="M510.849,-168.083C509.524,-160.927 507.618,-150.635 505.961,-141.691"/>
<polygon fill="midnightblue" stroke="midnightblue" points="509.383,-140.947 504.121,-131.751 502.5,-142.221 509.383,-140.947"/>
</g>
<!-- Node12 -->
<g id="node13" class="node"><title>Node12</title>
<polygon fill="none" stroke="#bfbfbf" points="551.5,-112.5 551.5,-131.5 601.5,-131.5 601.5,-112.5 551.5,-112.5"/>
<text text-anchor="middle" x="576.5" y="-119.5" font-family="Helvetica,sans-Serif" font-size="10.00">typeinfo</text>
</g>
<!-- Node10&#45;&gt;Node12 -->
<g id="edge13" class="edge"><title>Node10&#45;&gt;Node12</title>
<path fill="none" stroke="midnightblue" d="M522.783,-168.324C532.336,-160.263 546.78,-148.077 558.284,-138.369"/>
<polygon fill="midnightblue" stroke="midnightblue" points="560.644,-140.958 566.03,-131.834 556.13,-135.608 560.644,-140.958"/>
</g>
<!-- Node14 -->
<g id="node15" class="node"><title>Node14</title>
<polygon fill="none" stroke="#bfbfbf" points="251.5,-56.5 251.5,-75.5 289.5,-75.5 289.5,-56.5 251.5,-56.5"/>
<text text-anchor="middle" x="270.5" y="-63.5" font-family="Helvetica,sans-Serif" font-size="10.00">tuple</text>
</g>
<!-- Node13&#45;&gt;Node14 -->
<g id="edge15" class="edge"><title>Node13&#45;&gt;Node14</title>
<path fill="none" stroke="midnightblue" d="M270.5,-112.083C270.5,-105.006 270.5,-94.8611 270.5,-85.9865"/>
<polygon fill="midnightblue" stroke="midnightblue" points="274,-85.751 270.5,-75.7511 267,-85.7511 274,-85.751"/>
</g>
<!-- Node15 -->
<g id="node16" class="node"><title>Node15</title>
<polygon fill="none" stroke="#bfbfbf" points="203,-0.5 203,-19.5 244,-19.5 244,-0.5 203,-0.5"/>
<text text-anchor="middle" x="223.5" y="-7.5" font-family="Helvetica,sans-Serif" font-size="10.00">string</text>
</g>
<!-- Node13&#45;&gt;Node15 -->
<g id="edge16" class="edge"><title>Node13&#45;&gt;Node15</title>
<path fill="none" stroke="midnightblue" d="M264.176,-112.432C257.945,-103.658 248.51,-89.4397 242.5,-76 235.751,-60.907 230.683,-42.782 227.487,-29.5104"/>
<polygon fill="midnightblue" stroke="midnightblue" points="230.88,-28.649 225.245,-19.6768 224.055,-30.2046 230.88,-28.649"/>
</g>
<!-- Node16 -->
<g id="node17" class="node"><title>Node16</title>
<polygon fill="none" stroke="#bfbfbf" points="279.5,-0.5 279.5,-19.5 321.5,-19.5 321.5,-0.5 279.5,-0.5"/>
<text text-anchor="middle" x="300.5" y="-7.5" font-family="Helvetica,sans-Serif" font-size="10.00">vector</text>
</g>
<!-- Node13&#45;&gt;Node16 -->
<g id="edge17" class="edge"><title>Node13&#45;&gt;Node16</title>
<path fill="none" stroke="midnightblue" d="M277.818,-112.383C284.612,-103.796 294.292,-89.9157 298.5,-76 303.05,-60.9551 303.243,-43.0504 302.472,-29.8458"/>
<polygon fill="midnightblue" stroke="midnightblue" points="305.94,-29.3206 301.631,-19.6416 298.964,-29.8952 305.94,-29.3206"/>
</g>
<!-- Node17&#45;&gt;Node13 -->
<g id="edge19" class="edge"><title>Node17&#45;&gt;Node13</title>
<path fill="none" stroke="midnightblue" d="M206.711,-168.324C218.276,-160.107 235.875,-147.602 249.661,-137.807"/>
<polygon fill="midnightblue" stroke="midnightblue" points="251.943,-140.479 258.067,-131.834 247.888,-134.773 251.943,-140.479"/>
</g>
<!-- Node17&#45;&gt;Node18 -->
<g id="edge20" class="edge"><title>Node17&#45;&gt;Node18</title>
<path fill="none" stroke="midnightblue" d="M186.078,-168.083C178.652,-160.22 167.648,-148.569 158.688,-139.081"/>
<polygon fill="midnightblue" stroke="midnightblue" points="161.176,-136.618 151.765,-131.751 156.087,-141.424 161.176,-136.618"/>
</g>
<!-- Node19 -->
<g id="node20" class="node"><title>Node19</title>
<g id="a_node20"><a xlink:href="_error_handler_8hpp.html" target="_top" xlink:title="vili/ErrorHandler.hpp">
<polygon fill="none" stroke="black" points="92,-56.5 92,-75.5 195,-75.5 195,-56.5 92,-56.5"/>
<text text-anchor="middle" x="143.5" y="-63.5" font-family="Helvetica,sans-Serif" font-size="10.00">vili/ErrorHandler.hpp</text>
</a>
</g>
</g>
<!-- Node18&#45;&gt;Node19 -->
<g id="edge21" class="edge"><title>Node18&#45;&gt;Node19</title>
<path fill="none" stroke="midnightblue" d="M143.5,-112.083C143.5,-105.006 143.5,-94.8611 143.5,-85.9865"/>
<polygon fill="midnightblue" stroke="midnightblue" points="147,-85.751 143.5,-75.7511 140,-85.7511 147,-85.751"/>
</g>
<!-- Node19&#45;&gt;Node2 -->
<g id="edge24" class="edge"><title>Node19&#45;&gt;Node2</title>
<path fill="none" stroke="midnightblue" d="M123.535,-56.4435C102.284,-47.3359 68.5182,-32.865 44.8124,-22.7053"/>
<polygon fill="midnightblue" stroke="midnightblue" points="45.9046,-19.3656 35.3344,-18.6433 43.1472,-25.7996 45.9046,-19.3656"/>
</g>
<!-- Node19&#45;&gt;Node15 -->
<g id="edge22" class="edge"><title>Node19&#45;&gt;Node15</title>
<path fill="none" stroke="midnightblue" d="M156.353,-56.324C168.716,-47.979 187.63,-35.2122 202.237,-25.3524"/>
<polygon fill="midnightblue" stroke="midnightblue" points="204.348,-28.1503 210.679,-19.6545 200.432,-22.3483 204.348,-28.1503"/>
</g>
<!-- Node19&#45;&gt;Node16 -->
<g id="edge23" class="edge"><title>Node19&#45;&gt;Node16</title>
<path fill="none" stroke="midnightblue" d="M168.377,-56.4435C195.757,-47.0262 239.809,-31.8746 269.437,-21.6842"/>
<polygon fill="midnightblue" stroke="midnightblue" points="270.946,-24.8664 279.264,-18.3042 268.669,-18.247 270.946,-24.8664"/>
</g>
<!-- Node20 -->
<g id="node21" class="node"><title>Node20</title>
<polygon fill="none" stroke="#bfbfbf" points="53.5,-0.5 53.5,-19.5 107.5,-19.5 107.5,-0.5 53.5,-0.5"/>
<text text-anchor="middle" x="80.5" y="-7.5" font-family="Helvetica,sans-Serif" font-size="10.00">iostream</text>
</g>
<!-- Node19&#45;&gt;Node20 -->
<g id="edge25" class="edge"><title>Node19&#45;&gt;Node20</title>
<path fill="none" stroke="midnightblue" d="M133.378,-56.324C123.974,-48.2631 109.756,-36.0765 98.431,-26.3695"/>
<polygon fill="midnightblue" stroke="midnightblue" points="100.677,-23.6844 90.8062,-19.8339 96.121,-28.9993 100.677,-23.6844"/>
</g>
<!-- Node21 -->
<g id="node22" class="node"><title>Node21</title>
<polygon fill="none" stroke="#bfbfbf" points="126,-0.5 126,-19.5 185,-19.5 185,-0.5 126,-0.5"/>
<text text-anchor="middle" x="155.5" y="-7.5" font-family="Helvetica,sans-Serif" font-size="10.00">exception</text>
</g>
<!-- Node19&#45;&gt;Node21 -->
<g id="edge26" class="edge"><title>Node19&#45;&gt;Node21</title>
<path fill="none" stroke="midnightblue" d="M145.482,-56.083C147.072,-48.9272 149.359,-38.6353 151.346,-29.6911"/>
<polygon fill="midnightblue" stroke="midnightblue" points="154.803,-30.2722 153.555,-19.7511 147.969,-28.7537 154.803,-30.2722"/>
</g>
<!-- Node23 -->
<g id="node24" class="node"><title>Node23</title>
<g id="a_node24"><a xlink:href="_trigger_delay_8hpp.html" target="_top" xlink:title="Triggers/TriggerDelay.hpp">
<polygon fill="none" stroke="black" points="183,-280.5 183,-299.5 310,-299.5 310,-280.5 183,-280.5"/>
<text text-anchor="middle" x="246.5" y="-287.5" font-family="Helvetica,sans-Serif" font-size="10.00">Triggers/TriggerDelay.hpp</text>
</a>
</g>
</g>
<!-- Node22&#45;&gt;Node23 -->
<g id="edge29" class="edge"><title>Node22&#45;&gt;Node23</title>
<path fill="none" stroke="midnightblue" d="M246.5,-336.083C246.5,-329.006 246.5,-318.861 246.5,-309.986"/>
<polygon fill="midnightblue" stroke="midnightblue" points="250,-309.751 246.5,-299.751 243,-309.751 250,-309.751"/>
</g>
<!-- Node23&#45;&gt;Node5 -->
<g id="edge31" class="edge"><title>Node23&#45;&gt;Node5</title>
<path fill="none" stroke="midnightblue" d="M263.37,-280.324C280.209,-271.664 306.307,-258.242 325.738,-248.249"/>
<polygon fill="midnightblue" stroke="midnightblue" points="327.38,-251.341 334.672,-243.655 324.178,-245.116 327.38,-251.341"/>
</g>
<!-- Node23&#45;&gt;Node6 -->
<g id="edge30" class="edge"><title>Node23&#45;&gt;Node6</title>
<path fill="none" stroke="midnightblue" d="M244.188,-280.083C242.333,-272.927 239.665,-262.635 237.346,-253.691"/>
<polygon fill="midnightblue" stroke="midnightblue" points="240.666,-252.553 234.769,-243.751 233.891,-254.309 240.666,-252.553"/>
</g>
</g>
</svg>
        <g id="navigator" transform="translate(0 0)" fill="#404254">
                <rect fill="#f2f5e9" fill-opacity="0.5" stroke="#606060" stroke-width=".5" x="0" y="0" width="60" height="60"/>
                <use id="zoomplus" xlink:href="#zoomPlus" x="17" y="9" onmousedown="handleZoom(evt,'in')"/>
                <use id="zoomminus" xlink:href="#zoomMin" x="42" y="9" onmousedown="handleZoom(evt,'out')"/>
                <use id="reset" xlink:href="#resetDef" x="30" y="36" onmousedown="handleReset()"/>
                <g id="arrowUp" xlink:href="#dirArrow" transform="translate(30 24)" onmousedown="handlePan(0,-1)">
                  <use xlink:href="#rim" fill="#404040">
                        <set attributeName="fill" to="#808080" begin="arrowUp.mouseover" end="arrowUp.mouseout"/>
                  </use>
                  <path fill="none" stroke="white" stroke-width="1.5" d="M0,-3.0v7 M-2.5,-0.5L0,-3.0L2.5,-0.5"/>
                </g>
                <g id="arrowRight" xlink:href="#dirArrow" transform="rotate(90) translate(36 -43)" onmousedown="handlePan(1,0)">
                  <use xlink:href="#rim" fill="#404040">
                        <set attributeName="fill" to="#808080" begin="arrowRight.mouseover" end="arrowRight.mouseout"/>
                  </use>
                  <path fill="none" stroke="white" stroke-width="1.5" d="M0,-3.0v7 M-2.5,-0.5L0,-3.0L2.5,-0.5"/>
                </g>
                <g id="arrowDown" xlink:href="#dirArrow" transform="rotate(180) translate(-30 -48)" onmousedown="handlePan(0,1)">
                  <use xlink:href="#rim" fill="#404040">
                        <set attributeName="fill" to="#808080" begin="arrowDown.mouseover" end="arrowDown.mouseout"/>
                  </use>
                  <path fill="none" stroke="white" stroke-width="1.5" d="M0,-3.0v7 M-2.5,-0.5L0,-3.0L2.5,-0.5"/>
                </g>
                <g id="arrowLeft" xlink:href="#dirArrow" transform="rotate(270) translate(-36 17)" onmousedown="handlePan(-1,0)">
                  <use xlink:href="#rim" fill="#404040">
                        <set attributeName="fill" to="#808080" begin="arrowLeft.mouseover" end="arrowLeft.mouseout"/>
                  </use>
                  <path fill="none" stroke="white" stroke-width="1.5" d="M0,-3.0v7 M-2.5,-0.5L0,-3.0L2.5,-0.5"/>
                </g>
        </g>
        <svg viewBox="0 0 15 15" width="100%" height="30px" preserveAspectRatio="xMaxYMin meet">
         <g id="arrow_out" transform="scale(0.3 0.3)">
          <a xlink:href="_trigger_database_8cpp__incl_org.svg" target="_base">
           <rect id="button" ry="5" rx="5" y="6" x="6" height="38" width="38"
                fill="#f2f5e9" fill-opacity="0.5" stroke="#606060" stroke-width="1.0"/>
           <path id="arrow"
             d="M 11.500037,31.436501 C 11.940474,20.09759 22.043105,11.32322 32.158766,21.979434 L 37.068811,17.246167 C 37.068811,17.246167 37.088388,32 37.088388,32 L 22.160133,31.978069 C 22.160133,31.978069 26.997745,27.140456 26.997745,27.140456 C 18.528582,18.264221 13.291696,25.230495 11.500037,31.436501 z"
             style="fill:#404040;"/>
          </a>
         </g>
        </svg>
</svg>
