<?xml version="1.0" encoding="UTF-8" standalone="no"?>
<!DOCTYPE svg PUBLIC "-//W3C//DTD SVG 1.1//EN"
 "http://www.w3.org/Graphics/SVG/1.1/DTD/svg11.dtd">
<!-- Generated by graphviz version 2.38.0 (20140413.2041)
 -->
<!-- Title: E:/Dev/ObEngine/Git/include/Utils/TypeUtils.hpp Pages: 1 -->
<svg width="985pt" height="173pt"
 viewBox="0.00 0.00 984.50 173.00" xmlns="http://www.w3.org/2000/svg" xmlns:xlink="http://www.w3.org/1999/xlink">
<g id="graph0" class="graph" transform="scale(1 1) rotate(0) translate(4 169)">
<title>E:/Dev/ObEngine/Git/include/Utils/TypeUtils.hpp</title>
<!-- Node10 -->
<g id="node1" class="node"><title>Node10</title>
<polygon fill="#bfbfbf" stroke="black" points="757.5,-134.5 757.5,-164.5 892.5,-164.5 892.5,-134.5 757.5,-134.5"/>
<text text-anchor="start" x="765.5" y="-152.5" font-family="Helvetica,sans-Serif" font-size="10.00">E:/Dev/ObEngine/Git</text>
<text text-anchor="middle" x="825" y="-141.5" font-family="Helvetica,sans-Serif" font-size="10.00">/include/Utils/TypeUtils.hpp</text>
</g>
<!-- Node11 -->
<g id="node2" class="node"><title>Node11</title>
<g id="a_node2"><a xlink:href="_script_8hpp.html" target="_top" xlink:title="E:/Dev/ObEngine/Git\l/include/Script/Script.hpp">
<polygon fill="none" stroke="black" points="508,-67.5 508,-97.5 634,-97.5 634,-67.5 508,-67.5"/>
<text text-anchor="start" x="516" y="-85.5" font-family="Helvetica,sans-Serif" font-size="10.00">E:/Dev/ObEngine/Git</text>
<text text-anchor="middle" x="571" y="-74.5" font-family="Helvetica,sans-Serif" font-size="10.00">/include/Script/Script.hpp</text>
</a>
</g>
</g>
<!-- Node10&#45;&gt;Node11 -->
<g id="edge1" class="edge"><title>Node10&#45;&gt;Node11</title>
<path fill="none" stroke="midnightblue" d="M760.462,-131.984C718.974,-121.367 665.645,-107.72 626.141,-97.6109"/>
<polygon fill="midnightblue" stroke="midnightblue" points="759.643,-135.387 770.198,-134.476 761.378,-128.606 759.643,-135.387"/>
</g>
<!-- Node18 -->
<g id="node9" class="node"><title>Node18</title>
<g id="a_node9"><a xlink:href="_script_8cpp.html" target="_top" xlink:title="E:/Dev/ObEngine/Git\l/src/Script/Script.cpp">
<polygon fill="none" stroke="black" points="867.5,-0.5 867.5,-30.5 976.5,-30.5 976.5,-0.5 867.5,-0.5"/>
<text text-anchor="start" x="875.5" y="-18.5" font-family="Helvetica,sans-Serif" font-size="10.00">E:/Dev/ObEngine/Git</text>
<text text-anchor="middle" x="922" y="-7.5" font-family="Helvetica,sans-Serif" font-size="10.00">/src/Script/Script.cpp</text>
</a>
</g>
</g>
<!-- Node10&#45;&gt;Node18 -->
<g id="edge9" class="edge"><title>Node10&#45;&gt;Node18</title>
<path fill="none" stroke="midnightblue" d="M825.953,-123.815C827.7,-106.545 832.281,-83.6736 844,-67 855.132,-51.1621 872.966,-39.076 888.773,-30.7045"/>
<polygon fill="midnightblue" stroke="midnightblue" points="822.43,-123.999 825.168,-134.234 829.41,-124.526 822.43,-123.999"/>
</g>
<!-- Node19 -->
<g id="node10" class="node"><title>Node19</title>
<g id="a_node10"><a xlink:href="_trigger_8cpp.html" target="_top" xlink:title="E:/Dev/ObEngine/Git\l/src/Triggers/Trigger.cpp">
<polygon fill="none" stroke="black" points="853,-67.5 853,-97.5 975,-97.5 975,-67.5 853,-67.5"/>
<text text-anchor="start" x="861" y="-85.5" font-family="Helvetica,sans-Serif" font-size="10.00">E:/Dev/ObEngine/Git</text>
<text text-anchor="middle" x="914" y="-74.5" font-family="Helvetica,sans-Serif" font-size="10.00">/src/Triggers/Trigger.cpp</text>
</a>
</g>
</g>
<!-- Node10&#45;&gt;Node19 -->
<g id="edge10" class="edge"><title>Node10&#45;&gt;Node19</title>
<path fill="none" stroke="midnightblue" d="M852.452,-128.451C866.143,-118.452 882.371,-106.6 894.726,-97.5765"/>
<polygon fill="midnightblue" stroke="midnightblue" points="850.323,-125.672 844.312,-134.396 854.452,-131.324 850.323,-125.672"/>
</g>
<!-- Node12 -->
<g id="node3" class="node"><title>Node12</title>
<g id="a_node3"><a xlink:href="_map_editor_8cpp.html" target="_top" xlink:title="E:/Dev/ObEngine/Git\l/src/Editor/MapEditor.cpp">
<polygon fill="none" stroke="black" points="0,-0.5 0,-30.5 128,-30.5 128,-0.5 0,-0.5"/>
<text text-anchor="start" x="8" y="-18.5" font-family="Helvetica,sans-Serif" font-size="10.00">E:/Dev/ObEngine/Git</text>
<text text-anchor="middle" x="64" y="-7.5" font-family="Helvetica,sans-Serif" font-size="10.00">/src/Editor/MapEditor.cpp</text>
</a>
</g>
</g>
<!-- Node11&#45;&gt;Node12 -->
<g id="edge2" class="edge"><title>Node11&#45;&gt;Node12</title>
<path fill="none" stroke="midnightblue" d="M497.922,-74.8033C411.469,-66.4638 263.322,-50.8622 137,-31 134.064,-30.5384 131.067,-30.0427 128.042,-29.5227"/>
<polygon fill="midnightblue" stroke="midnightblue" points="497.608,-78.2891 507.896,-75.7595 498.276,-71.321 497.608,-78.2891"/>
</g>
<!-- Node13 -->
<g id="node4" class="node"><title>Node13</title>
<g id="a_node4"><a xlink:href="_map_editor_tools_8cpp.html" target="_top" xlink:title="E:/Dev/ObEngine/Git\l/src/Editor/MapEditorTools.cpp">
<polygon fill="none" stroke="black" points="146.5,-0.5 146.5,-30.5 297.5,-30.5 297.5,-0.5 146.5,-0.5"/>
<text text-anchor="start" x="154.5" y="-18.5" font-family="Helvetica,sans-Serif" font-size="10.00">E:/Dev/ObEngine/Git</text>
<text text-anchor="middle" x="222" y="-7.5" font-family="Helvetica,sans-Serif" font-size="10.00">/src/Editor/MapEditorTools.cpp</text>
</a>
</g>
</g>
<!-- Node11&#45;&gt;Node13 -->
<g id="edge3" class="edge"><title>Node11&#45;&gt;Node13</title>
<path fill="none" stroke="midnightblue" d="M497.828,-67.872C438.964,-56.9087 356.561,-41.5614 297.172,-30.5004"/>
<polygon fill="midnightblue" stroke="midnightblue" points="497.327,-71.3388 507.799,-69.729 498.609,-64.4571 497.327,-71.3388"/>
</g>
<!-- Node14 -->
<g id="node5" class="node"><title>Node14</title>
<g id="a_node5"><a xlink:href="_game_8cpp.html" target="_top" xlink:title="E:/Dev/ObEngine/Git\l/src/Modes/Game.cpp">
<polygon fill="none" stroke="black" points="315.5,-0.5 315.5,-30.5 428.5,-30.5 428.5,-0.5 315.5,-0.5"/>
<text text-anchor="start" x="323.5" y="-18.5" font-family="Helvetica,sans-Serif" font-size="10.00">E:/Dev/ObEngine/Git</text>
<text text-anchor="middle" x="372" y="-7.5" font-family="Helvetica,sans-Serif" font-size="10.00">/src/Modes/Game.cpp</text>
</a>
</g>
</g>
<!-- Node11&#45;&gt;Node14 -->
<g id="edge4" class="edge"><title>Node11&#45;&gt;Node14</title>
<path fill="none" stroke="midnightblue" d="M518.12,-64.2278C485.929,-53.7131 445.326,-40.4508 415.096,-30.5765"/>
<polygon fill="midnightblue" stroke="midnightblue" points="517.227,-67.618 527.82,-67.396 519.401,-60.964 517.227,-67.618"/>
</g>
<!-- Node15 -->
<g id="node6" class="node"><title>Node15</title>
<g id="a_node6"><a xlink:href="_toolkit_8cpp.html" target="_top" xlink:title="E:/Dev/ObEngine/Git\l/src/Modes/Toolkit.cpp">
<polygon fill="none" stroke="black" points="447,-0.5 447,-30.5 563,-30.5 563,-0.5 447,-0.5"/>
<text text-anchor="start" x="455" y="-18.5" font-family="Helvetica,sans-Serif" font-size="10.00">E:/Dev/ObEngine/Git</text>
<text text-anchor="middle" x="505" y="-7.5" font-family="Helvetica,sans-Serif" font-size="10.00">/src/Modes/Toolkit.cpp</text>
</a>
</g>
</g>
<!-- Node11&#45;&gt;Node15 -->
<g id="edge5" class="edge"><title>Node11&#45;&gt;Node15</title>
<path fill="none" stroke="midnightblue" d="M549.485,-60.3115C539.585,-50.5612 528.109,-39.259 519.293,-30.5765"/>
<polygon fill="midnightblue" stroke="midnightblue" points="547.098,-62.8728 556.679,-67.396 552.01,-57.8853 547.098,-62.8728"/>
</g>
<!-- Node16 -->
<g id="node7" class="node"><title>Node16</title>
<g id="a_node7"><a xlink:href="_world_8cpp.html" target="_top" xlink:title="E:/Dev/ObEngine/Git\l/src/Scene/World.cpp">
<polygon fill="none" stroke="black" points="581.5,-0.5 581.5,-30.5 692.5,-30.5 692.5,-0.5 581.5,-0.5"/>
<text text-anchor="start" x="589.5" y="-18.5" font-family="Helvetica,sans-Serif" font-size="10.00">E:/Dev/ObEngine/Git</text>
<text text-anchor="middle" x="637" y="-7.5" font-family="Helvetica,sans-Serif" font-size="10.00">/src/Scene/World.cpp</text>
</a>
</g>
</g>
<!-- Node11&#45;&gt;Node16 -->
<g id="edge6" class="edge"><title>Node11&#45;&gt;Node16</title>
<path fill="none" stroke="midnightblue" d="M592.515,-60.3115C602.415,-50.5612 613.891,-39.259 622.707,-30.5765"/>
<polygon fill="midnightblue" stroke="midnightblue" points="589.99,-57.8853 585.321,-67.396 594.902,-62.8728 589.99,-57.8853"/>
</g>
<!-- Node17 -->
<g id="node8" class="node"><title>Node17</title>
<g id="a_node8"><a xlink:href="_game_object_8cpp.html" target="_top" xlink:title="E:/Dev/ObEngine/Git\l/src/Script/GameObject.cpp">
<polygon fill="none" stroke="black" points="711,-0.5 711,-30.5 849,-30.5 849,-0.5 711,-0.5"/>
<text text-anchor="start" x="719" y="-18.5" font-family="Helvetica,sans-Serif" font-size="10.00">E:/Dev/ObEngine/Git</text>
<text text-anchor="middle" x="780" y="-7.5" font-family="Helvetica,sans-Serif" font-size="10.00">/src/Script/GameObject.cpp</text>
</a>
</g>
</g>
<!-- Node11&#45;&gt;Node17 -->
<g id="edge7" class="edge"><title>Node11&#45;&gt;Node17</title>
<path fill="none" stroke="midnightblue" d="M625.841,-64.4442C659.72,-53.9078 702.672,-40.5495 734.628,-30.6109"/>
<polygon fill="midnightblue" stroke="midnightblue" points="624.602,-61.1641 616.093,-67.476 626.681,-67.8483 624.602,-61.1641"/>
</g>
<!-- Node11&#45;&gt;Node18 -->
<g id="edge8" class="edge"><title>Node11&#45;&gt;Node18</title>
<path fill="none" stroke="midnightblue" d="M644.338,-69.6056C702.438,-59.9393 785.594,-45.5636 858,-31 861.016,-30.3934 864.107,-29.7535 867.225,-29.0941"/>
<polygon fill="midnightblue" stroke="midnightblue" points="643.445,-66.2059 634.152,-71.2948 644.59,-73.1116 643.445,-66.2059"/>
</g>
</g>
</svg>
