<?xml version="1.0" encoding="UTF-8" standalone="no"?>
<!DOCTYPE svg PUBLIC "-//W3C//DTD SVG 1.1//EN"
 "http://www.w3.org/Graphics/SVG/1.1/DTD/svg11.dtd">
<!-- Generated by graphviz version 2.38.0 (20140413.2041)
 -->
<!-- Title: E:/Dev/ObEngine/Git/include/Transform/UnitVector.hpp Pages: 1 -->
<svg width="2352pt" height="474pt"
 viewBox="0.00 0.00 2352.00 474.00" xmlns="http://www.w3.org/2000/svg" xmlns:xlink="http://www.w3.org/1999/xlink">
<g id="graph0" class="graph" transform="scale(1 1) rotate(0) translate(4 470)">
<title>E:/Dev/ObEngine/Git/include/Transform/UnitVector.hpp</title>
<!-- Node4 -->
<g id="node1" class="node"><title>Node4</title>
<polygon fill="#bfbfbf" stroke="black" points="1219,-435.5 1219,-465.5 1383,-465.5 1383,-435.5 1219,-435.5"/>
<text text-anchor="start" x="1227" y="-453.5" font-family="Helvetica,sans-Serif" font-size="10.00">E:/Dev/ObEngine/Git</text>
<text text-anchor="middle" x="1301" y="-442.5" font-family="Helvetica,sans-Serif" font-size="10.00">/include/Transform/UnitVector.hpp</text>
</g>
<!-- Node5 -->
<g id="node2" class="node"><title>Node5</title>
<g id="a_node2"><a xlink:href="_polygonal_collider_8hpp.html" target="_top" xlink:title="E:/Dev/ObEngine/Git\l/include/Collision/Polygonal\lCollider.hpp">
<polygon fill="none" stroke="black" points="465,-201.5 465,-242.5 601,-242.5 601,-201.5 465,-201.5"/>
<text text-anchor="start" x="473" y="-230.5" font-family="Helvetica,sans-Serif" font-size="10.00">E:/Dev/ObEngine/Git</text>
<text text-anchor="start" x="473" y="-219.5" font-family="Helvetica,sans-Serif" font-size="10.00">/include/Collision/Polygonal</text>
<text text-anchor="middle" x="533" y="-208.5" font-family="Helvetica,sans-Serif" font-size="10.00">Collider.hpp</text>
</a>
</g>
</g>
<!-- Node4&#45;&gt;Node5 -->
<g id="edge1" class="edge"><title>Node4&#45;&gt;Node5</title>
<path fill="none" stroke="midnightblue" d="M1208.61,-441.352C1141.1,-433.988 1047.79,-420.867 968,-399 816.947,-357.604 647.444,-279.125 572.39,-242.606"/>
<polygon fill="midnightblue" stroke="midnightblue" points="1208.49,-444.858 1218.8,-442.441 1209.23,-437.898 1208.49,-444.858"/>
</g>
<!-- Node7 -->
<g id="node4" class="node"><title>Node7</title>
<g id="a_node4"><a xlink:href="_map_editor_8cpp.html" target="_top" xlink:title="E:/Dev/ObEngine/Git\l/src/Editor/MapEditor.cpp">
<polygon fill="none" stroke="black" points="0,-0.5 0,-30.5 128,-30.5 128,-0.5 0,-0.5"/>
<text text-anchor="start" x="8" y="-18.5" font-family="Helvetica,sans-Serif" font-size="10.00">E:/Dev/ObEngine/Git</text>
<text text-anchor="middle" x="64" y="-7.5" font-family="Helvetica,sans-Serif" font-size="10.00">/src/Editor/MapEditor.cpp</text>
</a>
</g>
</g>
<!-- Node4&#45;&gt;Node7 -->
<g id="edge40" class="edge"><title>Node4&#45;&gt;Node7</title>
<path fill="none" stroke="midnightblue" d="M1208.78,-448.093C932.135,-443.556 125.348,-427.904 77,-399 33.5589,-373.03 19,-351.612 19,-301 19,-301 19,-301 19,-148.5 19,-103.466 42.7552,-54.1902 55.7463,-30.6096"/>
<polygon fill="midnightblue" stroke="midnightblue" points="1208.73,-451.592 1218.79,-448.256 1208.85,-444.593 1208.73,-451.592"/>
</g>
<!-- Node8 -->
<g id="node5" class="node"><title>Node8</title>
<g id="a_node5"><a xlink:href="_map_editor_tools_8cpp.html" target="_top" xlink:title="E:/Dev/ObEngine/Git\l/src/Editor/MapEditorTools.cpp">
<polygon fill="none" stroke="black" points="315.5,-0.5 315.5,-30.5 466.5,-30.5 466.5,-0.5 315.5,-0.5"/>
<text text-anchor="start" x="323.5" y="-18.5" font-family="Helvetica,sans-Serif" font-size="10.00">E:/Dev/ObEngine/Git</text>
<text text-anchor="middle" x="391" y="-7.5" font-family="Helvetica,sans-Serif" font-size="10.00">/src/Editor/MapEditorTools.cpp</text>
</a>
</g>
</g>
<!-- Node4&#45;&gt;Node8 -->
<g id="edge41" class="edge"><title>Node4&#45;&gt;Node8</title>
<path fill="none" stroke="midnightblue" d="M1208.37,-447.802C925.962,-441.407 95,-413.07 95,-301 95,-301 95,-301 95,-221 95,-109.196 239.716,-53.7613 326.772,-30.5289"/>
<polygon fill="midnightblue" stroke="midnightblue" points="1208.51,-451.305 1218.58,-448.029 1208.66,-444.307 1208.51,-451.305"/>
</g>
<!-- Node9 -->
<g id="node6" class="node"><title>Node9</title>
<g id="a_node6"><a xlink:href="_game_8cpp.html" target="_top" xlink:title="E:/Dev/ObEngine/Git\l/src/Modes/Game.cpp">
<polygon fill="none" stroke="black" points="613.5,-0.5 613.5,-30.5 726.5,-30.5 726.5,-0.5 613.5,-0.5"/>
<text text-anchor="start" x="621.5" y="-18.5" font-family="Helvetica,sans-Serif" font-size="10.00">E:/Dev/ObEngine/Git</text>
<text text-anchor="middle" x="670" y="-7.5" font-family="Helvetica,sans-Serif" font-size="10.00">/src/Modes/Game.cpp</text>
</a>
</g>
</g>
<!-- Node4&#45;&gt;Node9 -->
<g id="edge42" class="edge"><title>Node4&#45;&gt;Node9</title>
<path fill="none" stroke="midnightblue" d="M1301,-424.991C1301,-395.55 1301,-344.664 1301,-301 1301,-301 1301,-301 1301,-148.5 1301,-31.6836 881.432,-17.6081 726.552,-16.3918"/>
<polygon fill="midnightblue" stroke="midnightblue" points="1297.5,-425.165 1301,-435.165 1304.5,-425.165 1297.5,-425.165"/>
</g>
<!-- Node11 -->
<g id="node8" class="node"><title>Node11</title>
<g id="a_node8"><a xlink:href="_game_object_8cpp.html" target="_top" xlink:title="E:/Dev/ObEngine/Git\l/src/Script/GameObject.cpp">
<polygon fill="none" stroke="black" points="159,-0.5 159,-30.5 297,-30.5 297,-0.5 159,-0.5"/>
<text text-anchor="start" x="167" y="-18.5" font-family="Helvetica,sans-Serif" font-size="10.00">E:/Dev/ObEngine/Git</text>
<text text-anchor="middle" x="228" y="-7.5" font-family="Helvetica,sans-Serif" font-size="10.00">/src/Script/GameObject.cpp</text>
</a>
</g>
</g>
<!-- Node4&#45;&gt;Node11 -->
<g id="edge44" class="edge"><title>Node4&#45;&gt;Node11</title>
<path fill="none" stroke="midnightblue" d="M1208.87,-448.271C960.521,-444.538 289.504,-431.535 195,-399 123.872,-374.512 57,-376.225 57,-301 57,-301 57,-301 57,-221 57,-130.985 155.709,-59.7044 203.135,-30.6511"/>
<polygon fill="midnightblue" stroke="midnightblue" points="1208.9,-451.771 1218.95,-448.421 1209.01,-444.772 1208.9,-451.771"/>
</g>
<!-- Node14 -->
<g id="node11" class="node"><title>Node14</title>
<g id="a_node11"><a xlink:href="_script_8cpp.html" target="_top" xlink:title="E:/Dev/ObEngine/Git\l/src/Script/Script.cpp">
<polygon fill="none" stroke="black" points="994.5,-67.5 994.5,-97.5 1103.5,-97.5 1103.5,-67.5 994.5,-67.5"/>
<text text-anchor="start" x="1002.5" y="-85.5" font-family="Helvetica,sans-Serif" font-size="10.00">E:/Dev/ObEngine/Git</text>
<text text-anchor="middle" x="1049" y="-74.5" font-family="Helvetica,sans-Serif" font-size="10.00">/src/Script/Script.cpp</text>
</a>
</g>
</g>
<!-- Node4&#45;&gt;Node14 -->
<g id="edge45" class="edge"><title>Node4&#45;&gt;Node14</title>
<path fill="none" stroke="midnightblue" d="M1291.04,-425.856C1279.78,-396.946 1263,-346.269 1263,-301 1263,-301 1263,-301 1263,-221 1263,-181.325 1270.65,-162.454 1243,-134 1223.78,-114.219 1153.99,-99.5742 1103.62,-91.2881"/>
<polygon fill="midnightblue" stroke="midnightblue" points="1287.92,-427.493 1294.89,-435.471 1294.42,-424.887 1287.92,-427.493"/>
</g>
<!-- Node15 -->
<g id="node12" class="node"><title>Node15</title>
<g id="a_node12"><a xlink:href="_camera_8hpp.html" target="_top" xlink:title="E:/Dev/ObEngine/Git\l/include/Scene/Camera.hpp">
<polygon fill="none" stroke="black" points="1088.5,-207 1088.5,-237 1225.5,-237 1225.5,-207 1088.5,-207"/>
<text text-anchor="start" x="1096.5" y="-225" font-family="Helvetica,sans-Serif" font-size="10.00">E:/Dev/ObEngine/Git</text>
<text text-anchor="middle" x="1157" y="-214" font-family="Helvetica,sans-Serif" font-size="10.00">/include/Scene/Camera.hpp</text>
</a>
</g>
</g>
<!-- Node4&#45;&gt;Node15 -->
<g id="edge17" class="edge"><title>Node4&#45;&gt;Node15</title>
<path fill="none" stroke="midnightblue" d="M1276.23,-428.496C1267.01,-419.929 1256.88,-409.56 1249,-399 1207.98,-344.001 1175.14,-268.158 1162.55,-237.111"/>
<polygon fill="midnightblue" stroke="midnightblue" points="1273.93,-431.132 1283.7,-435.234 1278.62,-425.936 1273.93,-431.132"/>
</g>
<!-- Node17 -->
<g id="node14" class="node"><title>Node17</title>
<g id="a_node14"><a xlink:href="_protected_unit_vector_8hpp.html" target="_top" xlink:title="E:/Dev/ObEngine/Git\l/include/Transform/Protected\lUnitVector.hpp">
<polygon fill="none" stroke="black" points="1329.5,-357.5 1329.5,-398.5 1470.5,-398.5 1470.5,-357.5 1329.5,-357.5"/>
<text text-anchor="start" x="1337.5" y="-386.5" font-family="Helvetica,sans-Serif" font-size="10.00">E:/Dev/ObEngine/Git</text>
<text text-anchor="start" x="1337.5" y="-375.5" font-family="Helvetica,sans-Serif" font-size="10.00">/include/Transform/Protected</text>
<text text-anchor="middle" x="1400" y="-364.5" font-family="Helvetica,sans-Serif" font-size="10.00">UnitVector.hpp</text>
</a>
</g>
</g>
<!-- Node4&#45;&gt;Node17 -->
<g id="edge21" class="edge"><title>Node4&#45;&gt;Node17</title>
<path fill="none" stroke="midnightblue" d="M1329.49,-429.209C1343.01,-419.581 1359.1,-408.125 1372.49,-398.588"/>
<polygon fill="midnightblue" stroke="midnightblue" points="1327.15,-426.582 1321.03,-435.233 1331.21,-432.284 1327.15,-426.582"/>
</g>
<!-- Node19 -->
<g id="node16" class="node"><title>Node19</title>
<g id="a_node16"><a xlink:href="_referencial_8hpp.html" target="_top" xlink:title="E:/Dev/ObEngine/Git\l/include/Transform/Referencial.hpp">
<polygon fill="none" stroke="black" points="977,-363 977,-393 1143,-393 1143,-363 977,-363"/>
<text text-anchor="start" x="985" y="-381" font-family="Helvetica,sans-Serif" font-size="10.00">E:/Dev/ObEngine/Git</text>
<text text-anchor="middle" x="1060" y="-370" font-family="Helvetica,sans-Serif" font-size="10.00">/include/Transform/Referencial.hpp</text>
</a>
</g>
</g>
<!-- Node4&#45;&gt;Node19 -->
<g id="edge23" class="edge"><title>Node4&#45;&gt;Node19</title>
<path fill="none" stroke="midnightblue" d="M1243.45,-432.665C1202.18,-420.591 1147.2,-404.508 1108.22,-393.107"/>
<polygon fill="midnightblue" stroke="midnightblue" points="1242.52,-436.039 1253.1,-435.487 1244.48,-429.32 1242.52,-436.039"/>
</g>
<!-- Node27 -->
<g id="node24" class="node"><title>Node27</title>
<g id="a_node24"><a xlink:href="_console_8cpp.html" target="_top" xlink:title="E:/Dev/ObEngine/Git\l/src/Debug/Console.cpp">
<polygon fill="none" stroke="black" points="1488.5,-363 1488.5,-393 1609.5,-393 1609.5,-363 1488.5,-363"/>
<text text-anchor="start" x="1496.5" y="-381" font-family="Helvetica,sans-Serif" font-size="10.00">E:/Dev/ObEngine/Git</text>
<text text-anchor="middle" x="1549" y="-370" font-family="Helvetica,sans-Serif" font-size="10.00">/src/Debug/Console.cpp</text>
</a>
</g>
</g>
<!-- Node4&#45;&gt;Node27 -->
<g id="edge38" class="edge"><title>Node4&#45;&gt;Node27</title>
<path fill="none" stroke="midnightblue" d="M1360.44,-432.666C1395.04,-422.86 1439.49,-410.248 1479,-399 1485.69,-397.096 1492.73,-395.088 1499.67,-393.107"/>
<polygon fill="midnightblue" stroke="midnightblue" points="1359.16,-429.39 1350.5,-435.484 1361.07,-436.125 1359.16,-429.39"/>
</g>
<!-- Node28 -->
<g id="node25" class="node"><title>Node28</title>
<g id="a_node25"><a xlink:href="_grid_8cpp.html" target="_top" xlink:title="E:/Dev/ObEngine/Git\l/src/Editor/Grid.cpp">
<polygon fill="none" stroke="black" points="1627.5,-363 1627.5,-393 1734.5,-393 1734.5,-363 1627.5,-363"/>
<text text-anchor="start" x="1635.5" y="-381" font-family="Helvetica,sans-Serif" font-size="10.00">E:/Dev/ObEngine/Git</text>
<text text-anchor="middle" x="1681" y="-370" font-family="Helvetica,sans-Serif" font-size="10.00">/src/Editor/Grid.cpp</text>
</a>
</g>
</g>
<!-- Node4&#45;&gt;Node28 -->
<g id="edge39" class="edge"><title>Node4&#45;&gt;Node28</title>
<path fill="none" stroke="midnightblue" d="M1393.11,-438.527C1456.76,-430.045 1543.11,-416.748 1618,-399 1625.15,-397.306 1632.66,-395.21 1639.9,-393.017"/>
<polygon fill="midnightblue" stroke="midnightblue" points="1392.55,-435.07 1383.1,-439.847 1393.47,-442.01 1392.55,-435.07"/>
</g>
<!-- Node29 -->
<g id="node26" class="node"><title>Node29</title>
<g id="a_node26"><a xlink:href="_ob_engine_8cpp.html" target="_top" xlink:title="E:/Dev/ObEngine/Git\l/src/ObEngine.cpp">
<polygon fill="none" stroke="black" points="1752.5,-363 1752.5,-393 1859.5,-393 1859.5,-363 1752.5,-363"/>
<text text-anchor="start" x="1760.5" y="-381" font-family="Helvetica,sans-Serif" font-size="10.00">E:/Dev/ObEngine/Git</text>
<text text-anchor="middle" x="1806" y="-370" font-family="Helvetica,sans-Serif" font-size="10.00">/src/ObEngine.cpp</text>
</a>
</g>
</g>
<!-- Node4&#45;&gt;Node29 -->
<g id="edge43" class="edge"><title>Node4&#45;&gt;Node29</title>
<path fill="none" stroke="midnightblue" d="M1393.23,-444.338C1483.45,-438.036 1624.34,-424.853 1744,-399 1751.3,-397.424 1758.95,-395.331 1766.3,-393.092"/>
<polygon fill="midnightblue" stroke="midnightblue" points="1392.77,-440.861 1383.03,-445.036 1393.25,-447.845 1392.77,-440.861"/>
</g>
<!-- Node30 -->
<g id="node27" class="node"><title>Node30</title>
<g id="a_node27"><a xlink:href="_cursor_8cpp.html" target="_top" xlink:title="E:/Dev/ObEngine/Git\l/src/System/Cursor.cpp">
<polygon fill="none" stroke="black" points="1878,-363 1878,-393 1998,-393 1998,-363 1878,-363"/>
<text text-anchor="start" x="1886" y="-381" font-family="Helvetica,sans-Serif" font-size="10.00">E:/Dev/ObEngine/Git</text>
<text text-anchor="middle" x="1938" y="-370" font-family="Helvetica,sans-Serif" font-size="10.00">/src/System/Cursor.cpp</text>
</a>
</g>
</g>
<!-- Node4&#45;&gt;Node30 -->
<g id="edge46" class="edge"><title>Node4&#45;&gt;Node30</title>
<path fill="none" stroke="midnightblue" d="M1393.03,-446.784C1506,-442.199 1703,-430.134 1869,-399 1877.21,-397.46 1885.85,-395.356 1894.13,-393.088"/>
<polygon fill="midnightblue" stroke="midnightblue" points="1392.89,-443.287 1383.04,-447.179 1393.17,-450.281 1392.89,-443.287"/>
</g>
<!-- Node31 -->
<g id="node28" class="node"><title>Node31</title>
<g id="a_node28"><a xlink:href="_unit_structures_8cpp.html" target="_top" xlink:title="E:/Dev/ObEngine/Git\l/src/Transform/UnitStructures.cpp">
<polygon fill="none" stroke="black" points="2016.5,-363 2016.5,-393 2179.5,-393 2179.5,-363 2016.5,-363"/>
<text text-anchor="start" x="2024.5" y="-381" font-family="Helvetica,sans-Serif" font-size="10.00">E:/Dev/ObEngine/Git</text>
<text text-anchor="middle" x="2098" y="-370" font-family="Helvetica,sans-Serif" font-size="10.00">/src/Transform/UnitStructures.cpp</text>
</a>
</g>
</g>
<!-- Node4&#45;&gt;Node31 -->
<g id="edge47" class="edge"><title>Node4&#45;&gt;Node31</title>
<path fill="none" stroke="midnightblue" d="M1393.54,-447.153C1528.88,-442.755 1788.47,-430.66 2007,-399 2017.73,-397.446 2029.07,-395.336 2039.98,-393.066"/>
<polygon fill="midnightblue" stroke="midnightblue" points="1393.1,-443.665 1383.21,-447.481 1393.32,-450.662 1393.1,-443.665"/>
</g>
<!-- Node32 -->
<g id="node29" class="node"><title>Node32</title>
<g id="a_node29"><a xlink:href="_unit_vector_8cpp.html" target="_top" xlink:title="E:/Dev/ObEngine/Git\l/src/Transform/UnitVector.cpp">
<polygon fill="none" stroke="black" points="2198,-363 2198,-393 2344,-393 2344,-363 2198,-363"/>
<text text-anchor="start" x="2206" y="-381" font-family="Helvetica,sans-Serif" font-size="10.00">E:/Dev/ObEngine/Git</text>
<text text-anchor="middle" x="2271" y="-370" font-family="Helvetica,sans-Serif" font-size="10.00">/src/Transform/UnitVector.cpp</text>
</a>
</g>
</g>
<!-- Node4&#45;&gt;Node32 -->
<g id="edge48" class="edge"><title>Node4&#45;&gt;Node32</title>
<path fill="none" stroke="midnightblue" d="M1393.64,-449.772C1555.78,-449.017 1901.13,-441.924 2189,-399 2199,-397.509 2209.57,-395.369 2219.67,-393.037"/>
<polygon fill="midnightblue" stroke="midnightblue" points="1393.22,-446.273 1383.23,-449.813 1393.24,-453.273 1393.22,-446.273"/>
</g>
<!-- Node6 -->
<g id="node3" class="node"><title>Node6</title>
<g id="a_node3"><a xlink:href="_world_8hpp.html" target="_top" xlink:title="E:/Dev/ObEngine/Git\l/include/Scene/World.hpp">
<polygon fill="none" stroke="black" points="453,-67.5 453,-97.5 581,-97.5 581,-67.5 453,-67.5"/>
<text text-anchor="start" x="461" y="-85.5" font-family="Helvetica,sans-Serif" font-size="10.00">E:/Dev/ObEngine/Git</text>
<text text-anchor="middle" x="517" y="-74.5" font-family="Helvetica,sans-Serif" font-size="10.00">/include/Scene/World.hpp</text>
</a>
</g>
</g>
<!-- Node5&#45;&gt;Node6 -->
<g id="edge2" class="edge"><title>Node5&#45;&gt;Node6</title>
<path fill="none" stroke="midnightblue" d="M529.548,-191.336C526.184,-162.424 521.212,-119.699 518.654,-97.7151"/>
<polygon fill="midnightblue" stroke="midnightblue" points="526.075,-191.771 530.708,-201.3 533.028,-190.962 526.075,-191.771"/>
</g>
<!-- Node5&#45;&gt;Node7 -->
<g id="edge14" class="edge"><title>Node5&#45;&gt;Node7</title>
<path fill="none" stroke="midnightblue" d="M454.577,-217.354C357.8,-211.525 200.127,-197.285 152,-165 102.724,-131.944 77.0298,-61.1878 67.9164,-30.8234"/>
<polygon fill="midnightblue" stroke="midnightblue" points="454.428,-220.851 464.615,-217.942 454.837,-213.863 454.428,-220.851"/>
</g>
<!-- Node5&#45;&gt;Node9 -->
<g id="edge15" class="edge"><title>Node5&#45;&gt;Node9</title>
<path fill="none" stroke="midnightblue" d="M551.867,-192.837C581.543,-148.54 638.05,-64.192 660.48,-30.7101"/>
<polygon fill="midnightblue" stroke="midnightblue" points="548.794,-191.136 546.136,-201.392 554.61,-195.032 548.794,-191.136"/>
</g>
<!-- Node12 -->
<g id="node9" class="node"><title>Node12</title>
<g id="a_node9"><a xlink:href="_game_object_8hpp.html" target="_top" xlink:title="E:/Dev/ObEngine/Git\l/include/Script/GameObject.hpp">
<polygon fill="none" stroke="black" points="349.5,-134.5 349.5,-164.5 504.5,-164.5 504.5,-134.5 349.5,-134.5"/>
<text text-anchor="start" x="357.5" y="-152.5" font-family="Helvetica,sans-Serif" font-size="10.00">E:/Dev/ObEngine/Git</text>
<text text-anchor="middle" x="427" y="-141.5" font-family="Helvetica,sans-Serif" font-size="10.00">/include/Script/GameObject.hpp</text>
</a>
</g>
</g>
<!-- Node5&#45;&gt;Node12 -->
<g id="edge8" class="edge"><title>Node5&#45;&gt;Node12</title>
<path fill="none" stroke="midnightblue" d="M494.986,-195.717C479.284,-185.274 461.67,-173.559 448.305,-164.67"/>
<polygon fill="midnightblue" stroke="midnightblue" points="493.208,-198.738 503.473,-201.362 497.085,-192.91 493.208,-198.738"/>
</g>
<!-- Node13 -->
<g id="node10" class="node"><title>Node13</title>
<g id="a_node10"><a xlink:href="_polygonal_collider_8cpp.html" target="_top" xlink:title="E:/Dev/ObEngine/Git\l/src/Collision/PolygonalCollider.cpp">
<polygon fill="none" stroke="black" points="161,-134.5 161,-164.5 331,-164.5 331,-134.5 161,-134.5"/>
<text text-anchor="start" x="169" y="-152.5" font-family="Helvetica,sans-Serif" font-size="10.00">E:/Dev/ObEngine/Git</text>
<text text-anchor="middle" x="246" y="-141.5" font-family="Helvetica,sans-Serif" font-size="10.00">/src/Collision/PolygonalCollider.cpp</text>
</a>
</g>
</g>
<!-- Node5&#45;&gt;Node13 -->
<g id="edge13" class="edge"><title>Node5&#45;&gt;Node13</title>
<path fill="none" stroke="midnightblue" d="M455.269,-201.906C407.351,-190.135 346.95,-175.298 303.37,-164.593"/>
<polygon fill="midnightblue" stroke="midnightblue" points="454.439,-205.306 464.985,-204.292 456.109,-198.508 454.439,-205.306"/>
</g>
<!-- Node5&#45;&gt;Node14 -->
<g id="edge16" class="edge"><title>Node5&#45;&gt;Node14</title>
<path fill="none" stroke="midnightblue" d="M572.435,-196.246C606.113,-176.277 656.505,-149.109 704,-134 803.363,-102.391 925.205,-90.4555 994.291,-86.0291"/>
<polygon fill="midnightblue" stroke="midnightblue" points="570.596,-193.268 563.821,-201.414 574.197,-199.271 570.596,-193.268"/>
</g>
<!-- Node6&#45;&gt;Node7 -->
<g id="edge3" class="edge"><title>Node6&#45;&gt;Node7</title>
<path fill="none" stroke="midnightblue" d="M442.76,-71.9552C368.558,-62.2575 251.249,-46.498 150,-31 142.966,-29.9233 135.615,-28.7531 128.302,-27.5602"/>
<polygon fill="midnightblue" stroke="midnightblue" points="442.569,-75.4599 452.938,-73.2827 443.474,-68.5187 442.569,-75.4599"/>
</g>
<!-- Node6&#45;&gt;Node8 -->
<g id="edge4" class="edge"><title>Node6&#45;&gt;Node8</title>
<path fill="none" stroke="midnightblue" d="M480.585,-62.7143C460.713,-52.4631 436.52,-39.9826 418.287,-30.5765"/>
<polygon fill="midnightblue" stroke="midnightblue" points="479.168,-65.9218 489.66,-67.396 482.377,-59.7008 479.168,-65.9218"/>
</g>
<!-- Node6&#45;&gt;Node9 -->
<g id="edge5" class="edge"><title>Node6&#45;&gt;Node9</title>
<path fill="none" stroke="midnightblue" d="M559.589,-63.4066C584.015,-53.0294 614.225,-40.1954 636.866,-30.5765"/>
<polygon fill="midnightblue" stroke="midnightblue" points="558.034,-60.2644 550.199,-67.396 560.771,-66.7071 558.034,-60.2644"/>
</g>
<!-- Node10 -->
<g id="node7" class="node"><title>Node10</title>
<g id="a_node7"><a xlink:href="_world_8cpp.html" target="_top" xlink:title="E:/Dev/ObEngine/Git\l/src/Scene/World.cpp">
<polygon fill="none" stroke="black" points="484.5,-0.5 484.5,-30.5 595.5,-30.5 595.5,-0.5 484.5,-0.5"/>
<text text-anchor="start" x="492.5" y="-18.5" font-family="Helvetica,sans-Serif" font-size="10.00">E:/Dev/ObEngine/Git</text>
<text text-anchor="middle" x="540" y="-7.5" font-family="Helvetica,sans-Serif" font-size="10.00">/src/Scene/World.cpp</text>
</a>
</g>
</g>
<!-- Node6&#45;&gt;Node10 -->
<g id="edge6" class="edge"><title>Node6&#45;&gt;Node10</title>
<path fill="none" stroke="midnightblue" d="M525.423,-57.6971C528.646,-48.5871 532.218,-38.4929 535.019,-30.5765"/>
<polygon fill="midnightblue" stroke="midnightblue" points="522.027,-56.8012 521.991,-67.396 528.626,-59.1363 522.027,-56.8012"/>
</g>
<!-- Node6&#45;&gt;Node11 -->
<g id="edge7" class="edge"><title>Node6&#45;&gt;Node11</title>
<path fill="none" stroke="midnightblue" d="M444.761,-65.2525C397.39,-54.598 336.066,-40.8054 290.739,-30.6109"/>
<polygon fill="midnightblue" stroke="midnightblue" points="444.123,-68.6963 454.647,-67.476 445.659,-61.8669 444.123,-68.6963"/>
</g>
<!-- Node12&#45;&gt;Node6 -->
<g id="edge9" class="edge"><title>Node12&#45;&gt;Node6</title>
<path fill="none" stroke="midnightblue" d="M454.76,-128.451C468.605,-118.452 485.016,-106.6 497.509,-97.5765"/>
<polygon fill="midnightblue" stroke="midnightblue" points="452.586,-125.704 446.529,-134.396 456.685,-131.378 452.586,-125.704"/>
</g>
<!-- Node12&#45;&gt;Node7 -->
<g id="edge10" class="edge"><title>Node12&#45;&gt;Node7</title>
<path fill="none" stroke="midnightblue" d="M378.653,-130.919C305.802,-104.428 169.332,-54.8025 102.655,-30.5565"/>
<polygon fill="midnightblue" stroke="midnightblue" points="377.902,-134.37 388.496,-134.499 380.294,-127.792 377.902,-134.37"/>
</g>
<!-- Node12&#45;&gt;Node8 -->
<g id="edge11" class="edge"><title>Node12&#45;&gt;Node8</title>
<path fill="none" stroke="midnightblue" d="M420.424,-124.39C412.928,-96.9011 400.924,-52.8884 394.825,-30.5247"/>
<polygon fill="midnightblue" stroke="midnightblue" points="417.139,-125.647 423.147,-134.374 423.893,-123.805 417.139,-125.647"/>
</g>
<!-- Node12&#45;&gt;Node11 -->
<g id="edge12" class="edge"><title>Node12&#45;&gt;Node11</title>
<path fill="none" stroke="midnightblue" d="M397.29,-128.793C356.651,-101.836 284.723,-54.1253 249.143,-30.5247"/>
<polygon fill="midnightblue" stroke="midnightblue" points="395.435,-131.763 405.704,-134.374 399.305,-125.929 395.435,-131.763"/>
</g>
<!-- Node15&#45;&gt;Node6 -->
<g id="edge18" class="edge"><title>Node15&#45;&gt;Node6</title>
<path fill="none" stroke="midnightblue" d="M1096.85,-204.588C1090.85,-203.248 1084.82,-202.02 1079,-201 914.077,-172.12 866.088,-206.968 704,-165 672.63,-156.878 590.552,-118.721 546.293,-97.6204"/>
<polygon fill="midnightblue" stroke="midnightblue" points="1096.37,-208.068 1106.9,-206.933 1097.96,-201.251 1096.37,-208.068"/>
</g>
<!-- Node15&#45;&gt;Node14 -->
<g id="edge20" class="edge"><title>Node15&#45;&gt;Node14</title>
<path fill="none" stroke="midnightblue" d="M1136.16,-199.431C1126.65,-189.257 1115.42,-176.785 1106,-165 1087.88,-142.345 1069,-114.325 1058.15,-97.7391"/>
<polygon fill="midnightblue" stroke="midnightblue" points="1133.63,-201.852 1143.05,-206.715 1138.72,-197.044 1133.63,-201.852"/>
</g>
<!-- Node16 -->
<g id="node13" class="node"><title>Node16</title>
<g id="a_node13"><a xlink:href="_camera_8cpp.html" target="_top" xlink:title="E:/Dev/ObEngine/Git\l/src/Scene/Camera.cpp">
<polygon fill="none" stroke="black" points="1115.5,-134.5 1115.5,-164.5 1234.5,-164.5 1234.5,-134.5 1115.5,-134.5"/>
<text text-anchor="start" x="1123.5" y="-152.5" font-family="Helvetica,sans-Serif" font-size="10.00">E:/Dev/ObEngine/Git</text>
<text text-anchor="middle" x="1175" y="-141.5" font-family="Helvetica,sans-Serif" font-size="10.00">/src/Scene/Camera.cpp</text>
</a>
</g>
</g>
<!-- Node15&#45;&gt;Node16 -->
<g id="edge19" class="edge"><title>Node15&#45;&gt;Node16</title>
<path fill="none" stroke="midnightblue" d="M1163.2,-196.732C1165.92,-186.068 1169.02,-173.914 1171.36,-164.746"/>
<polygon fill="midnightblue" stroke="midnightblue" points="1159.73,-196.178 1160.64,-206.733 1166.51,-197.91 1159.73,-196.178"/>
</g>
<!-- Node18 -->
<g id="node15" class="node"><title>Node18</title>
<g id="a_node15"><a xlink:href="_protected_unit_vector_8cpp.html" target="_top" xlink:title="E:/Dev/ObEngine/Git\l/src/Transform/ProtectedUnit\lVector.cpp">
<polygon fill="none" stroke="black" points="1329.5,-279.5 1329.5,-320.5 1470.5,-320.5 1470.5,-279.5 1329.5,-279.5"/>
<text text-anchor="start" x="1337.5" y="-308.5" font-family="Helvetica,sans-Serif" font-size="10.00">E:/Dev/ObEngine/Git</text>
<text text-anchor="start" x="1337.5" y="-297.5" font-family="Helvetica,sans-Serif" font-size="10.00">/src/Transform/ProtectedUnit</text>
<text text-anchor="middle" x="1400" y="-286.5" font-family="Helvetica,sans-Serif" font-size="10.00">Vector.cpp</text>
</a>
</g>
</g>
<!-- Node17&#45;&gt;Node18 -->
<g id="edge22" class="edge"><title>Node17&#45;&gt;Node18</title>
<path fill="none" stroke="midnightblue" d="M1400,-347.297C1400,-338.301 1400,-328.653 1400,-320.506"/>
<polygon fill="midnightblue" stroke="midnightblue" points="1396.5,-347.428 1400,-357.428 1403.5,-347.428 1396.5,-347.428"/>
</g>
<!-- Node19&#45;&gt;Node15 -->
<g id="edge32" class="edge"><title>Node19&#45;&gt;Node15</title>
<path fill="none" stroke="midnightblue" d="M1098.47,-357.603C1112.99,-348.416 1128.32,-336.111 1138,-321 1154.74,-294.879 1157.36,-257.374 1157.42,-237.175"/>
<polygon fill="midnightblue" stroke="midnightblue" points="1096.37,-354.778 1089.59,-362.917 1099.97,-360.784 1096.37,-354.778"/>
</g>
<!-- Node20 -->
<g id="node17" class="node"><title>Node20</title>
<g id="a_node17"><a xlink:href="_level_sprite_8hpp.html" target="_top" xlink:title="E:/Dev/ObEngine/Git\l/include/Graphics/LevelSprite.hpp">
<polygon fill="none" stroke="black" points="714.5,-207 714.5,-237 875.5,-237 875.5,-207 714.5,-207"/>
<text text-anchor="start" x="722.5" y="-225" font-family="Helvetica,sans-Serif" font-size="10.00">E:/Dev/ObEngine/Git</text>
<text text-anchor="middle" x="795" y="-214" font-family="Helvetica,sans-Serif" font-size="10.00">/include/Graphics/LevelSprite.hpp</text>
</a>
</g>
</g>
<!-- Node19&#45;&gt;Node20 -->
<g id="edge24" class="edge"><title>Node19&#45;&gt;Node20</title>
<path fill="none" stroke="midnightblue" d="M967.022,-366.442C906.615,-357.652 835.285,-342.984 814,-321 792.06,-298.339 791.713,-258.367 793.345,-237.151"/>
<polygon fill="midnightblue" stroke="midnightblue" points="966.607,-369.918 976.999,-367.856 967.589,-362.987 966.607,-369.918"/>
</g>
<!-- Node24 -->
<g id="node21" class="node"><title>Node24</title>
<g id="a_node21"><a xlink:href="_rect_8hpp.html" target="_top" xlink:title="E:/Dev/ObEngine/Git\l/include/Transform/Rect.hpp">
<polygon fill="none" stroke="black" points="991,-285 991,-315 1129,-315 1129,-285 991,-285"/>
<text text-anchor="start" x="999" y="-303" font-family="Helvetica,sans-Serif" font-size="10.00">E:/Dev/ObEngine/Git</text>
<text text-anchor="middle" x="1060" y="-292" font-family="Helvetica,sans-Serif" font-size="10.00">/include/Transform/Rect.hpp</text>
</a>
</g>
</g>
<!-- Node19&#45;&gt;Node24 -->
<g id="edge33" class="edge"><title>Node19&#45;&gt;Node24</title>
<path fill="none" stroke="midnightblue" d="M1060,-352.59C1060,-340.257 1060,-325.724 1060,-315.231"/>
<polygon fill="midnightblue" stroke="midnightblue" points="1056.5,-352.705 1060,-362.705 1063.5,-352.705 1056.5,-352.705"/>
</g>
<!-- Node26 -->
<g id="node23" class="node"><title>Node26</title>
<g id="a_node23"><a xlink:href="_referencial_8cpp.html" target="_top" xlink:title="E:/Dev/ObEngine/Git\l/src/Transform/Referencial.cpp">
<polygon fill="none" stroke="black" points="823.5,-285 823.5,-315 972.5,-315 972.5,-285 823.5,-285"/>
<text text-anchor="start" x="831.5" y="-303" font-family="Helvetica,sans-Serif" font-size="10.00">E:/Dev/ObEngine/Git</text>
<text text-anchor="middle" x="898" y="-292" font-family="Helvetica,sans-Serif" font-size="10.00">/src/Transform/Referencial.cpp</text>
</a>
</g>
</g>
<!-- Node19&#45;&gt;Node26 -->
<g id="edge37" class="edge"><title>Node19&#45;&gt;Node26</title>
<path fill="none" stroke="midnightblue" d="M1020.62,-358.524C992.059,-345.126 954.024,-327.283 927.93,-315.041"/>
<polygon fill="midnightblue" stroke="midnightblue" points="1019.37,-361.804 1029.91,-362.883 1022.34,-355.467 1019.37,-361.804"/>
</g>
<!-- Node20&#45;&gt;Node6 -->
<g id="edge28" class="edge"><title>Node20&#45;&gt;Node6</title>
<path fill="none" stroke="midnightblue" d="M732.646,-203.929C701.82,-194.379 664.559,-181.136 633,-165 595.088,-145.616 555.442,-115.211 533.719,-97.5333"/>
<polygon fill="midnightblue" stroke="midnightblue" points="731.827,-207.338 742.412,-206.898 733.863,-200.641 731.827,-207.338"/>
</g>
<!-- Node20&#45;&gt;Node12 -->
<g id="edge29" class="edge"><title>Node20&#45;&gt;Node12</title>
<path fill="none" stroke="midnightblue" d="M711.853,-205.071C648.239,-192.884 561.353,-176.239 500.321,-164.547"/>
<polygon fill="midnightblue" stroke="midnightblue" points="711.375,-208.543 721.855,-206.987 712.692,-201.668 711.375,-208.543"/>
</g>
<!-- Node20&#45;&gt;Node14 -->
<g id="edge31" class="edge"><title>Node20&#45;&gt;Node14</title>
<path fill="none" stroke="midnightblue" d="M885.789,-209.343C942.926,-200.176 1009.59,-185.508 1030,-165 1047.83,-147.081 1050.2,-115.869 1049.89,-97.7133"/>
<polygon fill="midnightblue" stroke="midnightblue" points="884.952,-205.931 875.613,-210.934 886.033,-212.847 884.952,-205.931"/>
</g>
<!-- Node21 -->
<g id="node18" class="node"><title>Node21</title>
<g id="a_node18"><a xlink:href="_canvas_8hpp.html" target="_top" xlink:title="E:/Dev/ObEngine/Git\l/include/Graphics/Canvas.hpp">
<polygon fill="none" stroke="black" points="713,-134.5 713,-164.5 859,-164.5 859,-134.5 713,-134.5"/>
<text text-anchor="start" x="721" y="-152.5" font-family="Helvetica,sans-Serif" font-size="10.00">E:/Dev/ObEngine/Git</text>
<text text-anchor="middle" x="786" y="-141.5" font-family="Helvetica,sans-Serif" font-size="10.00">/include/Graphics/Canvas.hpp</text>
</a>
</g>
</g>
<!-- Node20&#45;&gt;Node21 -->
<g id="edge25" class="edge"><title>Node20&#45;&gt;Node21</title>
<path fill="none" stroke="midnightblue" d="M791.902,-196.732C790.541,-186.068 788.989,-173.914 787.819,-164.746"/>
<polygon fill="midnightblue" stroke="midnightblue" points="788.44,-197.257 793.179,-206.733 795.384,-196.371 788.44,-197.257"/>
</g>
<!-- Node23 -->
<g id="node20" class="node"><title>Node23</title>
<g id="a_node20"><a xlink:href="_level_sprite_8cpp.html" target="_top" xlink:title="E:/Dev/ObEngine/Git\l/src/Graphics/LevelSprite.cpp">
<polygon fill="none" stroke="black" points="877,-134.5 877,-164.5 1021,-164.5 1021,-134.5 877,-134.5"/>
<text text-anchor="start" x="885" y="-152.5" font-family="Helvetica,sans-Serif" font-size="10.00">E:/Dev/ObEngine/Git</text>
<text text-anchor="middle" x="949" y="-141.5" font-family="Helvetica,sans-Serif" font-size="10.00">/src/Graphics/LevelSprite.cpp</text>
</a>
</g>
</g>
<!-- Node20&#45;&gt;Node23 -->
<g id="edge30" class="edge"><title>Node20&#45;&gt;Node23</title>
<path fill="none" stroke="midnightblue" d="M835.003,-202.687C860.99,-190.79 894.352,-175.518 918.259,-164.573"/>
<polygon fill="midnightblue" stroke="midnightblue" points="833.43,-199.558 825.794,-206.903 836.343,-205.923 833.43,-199.558"/>
</g>
<!-- Node21&#45;&gt;Node14 -->
<g id="edge27" class="edge"><title>Node21&#45;&gt;Node14</title>
<path fill="none" stroke="midnightblue" d="M852.725,-132.009C896.491,-121.192 953.017,-107.222 994.16,-97.0536"/>
<polygon fill="midnightblue" stroke="midnightblue" points="851.611,-128.679 842.743,-134.476 853.291,-135.474 851.611,-128.679"/>
</g>
<!-- Node22 -->
<g id="node19" class="node"><title>Node22</title>
<g id="a_node19"><a xlink:href="_canvas_8cpp.html" target="_top" xlink:title="E:/Dev/ObEngine/Git\l/src/Graphics/Canvas.cpp">
<polygon fill="none" stroke="black" points="722,-67.5 722,-97.5 850,-97.5 850,-67.5 722,-67.5"/>
<text text-anchor="start" x="730" y="-85.5" font-family="Helvetica,sans-Serif" font-size="10.00">E:/Dev/ObEngine/Git</text>
<text text-anchor="middle" x="786" y="-74.5" font-family="Helvetica,sans-Serif" font-size="10.00">/src/Graphics/Canvas.cpp</text>
</a>
</g>
</g>
<!-- Node21&#45;&gt;Node22 -->
<g id="edge26" class="edge"><title>Node21&#45;&gt;Node22</title>
<path fill="none" stroke="midnightblue" d="M786,-124.108C786,-115.154 786,-105.323 786,-97.5765"/>
<polygon fill="midnightblue" stroke="midnightblue" points="782.5,-124.396 786,-134.396 789.5,-124.396 782.5,-124.396"/>
</g>
<!-- Node24&#45;&gt;Node15 -->
<g id="edge35" class="edge"><title>Node24&#45;&gt;Node15</title>
<path fill="none" stroke="midnightblue" d="M1086.48,-278.253C1103.1,-265.234 1124.09,-248.784 1138.84,-237.231"/>
<polygon fill="midnightblue" stroke="midnightblue" points="1083.96,-275.782 1078.24,-284.705 1088.28,-281.293 1083.96,-275.782"/>
</g>
<!-- Node24&#45;&gt;Node20 -->
<g id="edge34" class="edge"><title>Node24&#45;&gt;Node20</title>
<path fill="none" stroke="midnightblue" d="M1001.3,-282.167C954.095,-268.627 888.528,-249.823 844.077,-237.075"/>
<polygon fill="midnightblue" stroke="midnightblue" points="1000.51,-285.579 1011.09,-284.972 1002.44,-278.851 1000.51,-285.579"/>
</g>
<!-- Node25 -->
<g id="node22" class="node"><title>Node25</title>
<g id="a_node22"><a xlink:href="_rect_8cpp.html" target="_top" xlink:title="E:/Dev/ObEngine/Git\l/src/Transform/Rect.cpp">
<polygon fill="none" stroke="black" points="949.5,-207 949.5,-237 1070.5,-237 1070.5,-207 949.5,-207"/>
<text text-anchor="start" x="957.5" y="-225" font-family="Helvetica,sans-Serif" font-size="10.00">E:/Dev/ObEngine/Git</text>
<text text-anchor="middle" x="1010" y="-214" font-family="Helvetica,sans-Serif" font-size="10.00">/src/Transform/Rect.cpp</text>
</a>
</g>
</g>
<!-- Node24&#45;&gt;Node25 -->
<g id="edge36" class="edge"><title>Node24&#45;&gt;Node25</title>
<path fill="none" stroke="midnightblue" d="M1044.92,-276.074C1036.6,-263.437 1026.54,-248.148 1019.36,-237.231"/>
<polygon fill="midnightblue" stroke="midnightblue" points="1042.18,-278.274 1050.6,-284.705 1048.02,-274.427 1042.18,-278.274"/>
</g>
</g>
</svg>
