<?xml version="1.0" encoding="UTF-8" standalone="no"?>
<!DOCTYPE svg PUBLIC "-//W3C//DTD SVG 1.1//EN"
 "http://www.w3.org/Graphics/SVG/1.1/DTD/svg11.dtd">
<!-- Generated by graphviz version 2.38.0 (20140413.2041)
 -->
<!-- Title: E:/Dev/ObEngine/Git/src/Bindings/UtilsBindings.cpp Pages: 1 -->
<svg width="776pt" height="263pt"
 viewBox="0.00 0.00 775.50 263.00" xmlns="http://www.w3.org/2000/svg" xmlns:xlink="http://www.w3.org/1999/xlink">
<g id="graph0" class="graph" transform="scale(1 1) rotate(0) translate(4 259)">
<title>E:/Dev/ObEngine/Git/src/Bindings/UtilsBindings.cpp</title>
<!-- Node0 -->
<g id="node1" class="node"><title>Node0</title>
<polygon fill="#bfbfbf" stroke="black" points="345,-224.5 345,-254.5 497,-254.5 497,-224.5 345,-224.5"/>
<text text-anchor="start" x="353" y="-242.5" font-family="Helvetica,sans-Serif" font-size="10.00">E:/Dev/ObEngine/Git</text>
<text text-anchor="middle" x="421" y="-231.5" font-family="Helvetica,sans-Serif" font-size="10.00">/src/Bindings/UtilsBindings.cpp</text>
</g>
<!-- Node1 -->
<g id="node2" class="node"><title>Node1</title>
<g id="a_node2"><a xlink:href="_utils_bindings_8hpp.html" target="_top" xlink:title="Bindings/UtilsBindings.hpp">
<polygon fill="white" stroke="black" points="160.5,-168.5 160.5,-187.5 293.5,-187.5 293.5,-168.5 160.5,-168.5"/>
<text text-anchor="middle" x="227" y="-175.5" font-family="Helvetica,sans-Serif" font-size="10.00">Bindings/UtilsBindings.hpp</text>
</a>
</g>
</g>
<!-- Node0&#45;&gt;Node1 -->
<g id="edge1" class="edge"><title>Node0&#45;&gt;Node1</title>
<path fill="none" stroke="midnightblue" d="M375.025,-224.399C341.357,-214.073 296.223,-200.231 264.678,-190.556"/>
<polygon fill="midnightblue" stroke="midnightblue" points="265.532,-187.157 254.946,-187.571 263.48,-193.849 265.532,-187.157"/>
</g>
<!-- Node3 -->
<g id="node4" class="node"><title>Node3</title>
<g id="a_node4"><a xlink:href="_exec_utils_8hpp.html" target="_top" xlink:title="Utils/ExecUtils.hpp">
<polygon fill="white" stroke="black" points="350,-112.5 350,-131.5 450,-131.5 450,-112.5 350,-112.5"/>
<text text-anchor="middle" x="400" y="-119.5" font-family="Helvetica,sans-Serif" font-size="10.00">Utils/ExecUtils.hpp</text>
</a>
</g>
</g>
<!-- Node0&#45;&gt;Node3 -->
<g id="edge3" class="edge"><title>Node0&#45;&gt;Node3</title>
<path fill="none" stroke="midnightblue" d="M418.425,-224.337C414.641,-203.527 407.575,-164.663 403.379,-141.583"/>
<polygon fill="midnightblue" stroke="midnightblue" points="406.809,-140.882 401.576,-131.669 399.922,-142.134 406.809,-140.882"/>
</g>
<!-- Node5 -->
<g id="node6" class="node"><title>Node5</title>
<g id="a_node6"><a xlink:href="_file_utils_8hpp.html" target="_top" xlink:title="Utils/FileUtils.hpp">
<polygon fill="white" stroke="black" points="276.5,-56.5 276.5,-75.5 369.5,-75.5 369.5,-56.5 276.5,-56.5"/>
<text text-anchor="middle" x="323" y="-63.5" font-family="Helvetica,sans-Serif" font-size="10.00">Utils/FileUtils.hpp</text>
</a>
</g>
</g>
<!-- Node0&#45;&gt;Node5 -->
<g id="edge5" class="edge"><title>Node0&#45;&gt;Node5</title>
<path fill="none" stroke="midnightblue" d="M407.709,-224.498C390.042,-205.163 358.967,-168.52 341,-132 333.731,-117.225 329.017,-99.0685 326.243,-85.7041"/>
<polygon fill="midnightblue" stroke="midnightblue" points="329.664,-84.9545 324.357,-75.7844 322.787,-86.2622 329.664,-84.9545"/>
</g>
<!-- Node14 -->
<g id="node15" class="node"><title>Node14</title>
<g id="a_node15"><a xlink:href="_math_utils_8hpp.html" target="_top" xlink:title="Utils/MathUtils.hpp">
<polygon fill="white" stroke="black" points="586.5,-168.5 586.5,-187.5 685.5,-187.5 685.5,-168.5 586.5,-168.5"/>
<text text-anchor="middle" x="636" y="-175.5" font-family="Helvetica,sans-Serif" font-size="10.00">Utils/MathUtils.hpp</text>
</a>
</g>
</g>
<!-- Node0&#45;&gt;Node14 -->
<g id="edge15" class="edge"><title>Node0&#45;&gt;Node14</title>
<path fill="none" stroke="midnightblue" d="M471.68,-224.475C509.42,-214.03 560.271,-199.958 595.36,-190.247"/>
<polygon fill="midnightblue" stroke="midnightblue" points="596.558,-193.547 605.263,-187.506 594.691,-186.8 596.558,-193.547"/>
</g>
<!-- Node15 -->
<g id="node16" class="node"><title>Node15</title>
<g id="a_node16"><a xlink:href="_string_utils_8hpp.html" target="_top" xlink:title="Utils/StringUtils.hpp">
<polygon fill="white" stroke="black" points="468.5,-112.5 468.5,-131.5 571.5,-131.5 571.5,-112.5 468.5,-112.5"/>
<text text-anchor="middle" x="520" y="-119.5" font-family="Helvetica,sans-Serif" font-size="10.00">Utils/StringUtils.hpp</text>
</a>
</g>
</g>
<!-- Node0&#45;&gt;Node15 -->
<g id="edge16" class="edge"><title>Node0&#45;&gt;Node15</title>
<path fill="none" stroke="midnightblue" d="M426.905,-224.465C433.676,-209.43 445.823,-185.386 461,-168 471.396,-156.09 485.383,-145.258 497.129,-137.207"/>
<polygon fill="midnightblue" stroke="midnightblue" points="499.167,-140.056 505.578,-131.621 495.306,-134.217 499.167,-140.056"/>
</g>
<!-- Node17 -->
<g id="node18" class="node"><title>Node17</title>
<g id="a_node18"><a xlink:href="_type_utils_8hpp.html" target="_top" xlink:title="Utils/TypeUtils.hpp">
<polygon fill="white" stroke="black" points="470,-168.5 470,-187.5 568,-187.5 568,-168.5 470,-168.5"/>
<text text-anchor="middle" x="519" y="-175.5" font-family="Helvetica,sans-Serif" font-size="10.00">Utils/TypeUtils.hpp</text>
</a>
</g>
</g>
<!-- Node0&#45;&gt;Node17 -->
<g id="edge20" class="edge"><title>Node0&#45;&gt;Node17</title>
<path fill="none" stroke="midnightblue" d="M444.225,-224.399C459.786,-214.951 480.197,-202.559 495.762,-193.109"/>
<polygon fill="midnightblue" stroke="midnightblue" points="498.009,-195.839 504.74,-187.658 494.376,-189.856 498.009,-195.839"/>
</g>
<!-- Node2 -->
<g id="node3" class="node"><title>Node2</title>
<polygon fill="white" stroke="#bfbfbf" points="176.5,-112.5 176.5,-131.5 277.5,-131.5 277.5,-112.5 176.5,-112.5"/>
<text text-anchor="middle" x="227" y="-119.5" font-family="Helvetica,sans-Serif" font-size="10.00">kaguya/kaguya.hpp</text>
</g>
<!-- Node1&#45;&gt;Node2 -->
<g id="edge2" class="edge"><title>Node1&#45;&gt;Node2</title>
<path fill="none" stroke="midnightblue" d="M227,-168.083C227,-161.006 227,-150.861 227,-141.986"/>
<polygon fill="midnightblue" stroke="midnightblue" points="230.5,-141.751 227,-131.751 223.5,-141.751 230.5,-141.751"/>
</g>
<!-- Node4 -->
<g id="node5" class="node"><title>Node4</title>
<polygon fill="white" stroke="#bfbfbf" points="463.5,-0.5 463.5,-19.5 504.5,-19.5 504.5,-0.5 463.5,-0.5"/>
<text text-anchor="middle" x="484" y="-7.5" font-family="Helvetica,sans-Serif" font-size="10.00">string</text>
</g>
<!-- Node3&#45;&gt;Node4 -->
<g id="edge4" class="edge"><title>Node3&#45;&gt;Node4</title>
<path fill="none" stroke="midnightblue" d="M402.795,-112.366C407.308,-99.2781 417.122,-74.0324 431,-56 439.857,-44.4912 452.095,-33.8608 462.58,-25.825"/>
<polygon fill="midnightblue" stroke="midnightblue" points="464.888,-28.4724 470.863,-19.723 460.736,-22.8368 464.888,-28.4724"/>
</g>
<!-- Node5&#45;&gt;Node4 -->
<g id="edge6" class="edge"><title>Node5&#45;&gt;Node4</title>
<path fill="none" stroke="midnightblue" d="M348.511,-56.4435C377.03,-46.8782 423.187,-31.3969 453.567,-21.2075"/>
<polygon fill="midnightblue" stroke="midnightblue" points="454.848,-24.4693 463.216,-17.971 452.622,-17.8327 454.848,-24.4693"/>
</g>
<!-- Node6 -->
<g id="node7" class="node"><title>Node6</title>
<polygon fill="white" stroke="#bfbfbf" points="523,-0.5 523,-19.5 565,-19.5 565,-0.5 523,-0.5"/>
<text text-anchor="middle" x="544" y="-7.5" font-family="Helvetica,sans-Serif" font-size="10.00">vector</text>
</g>
<!-- Node5&#45;&gt;Node6 -->
<g id="edge7" class="edge"><title>Node5&#45;&gt;Node6</title>
<path fill="none" stroke="midnightblue" d="M362.313,-56.4628C398.931,-48.3497 455.255,-35.4627 512.753,-20.2189"/>
<polygon fill="midnightblue" stroke="midnightblue" points="513.982,-23.5132 522.74,-17.5501 512.175,-16.7504 513.982,-23.5132"/>
</g>
<!-- Node7 -->
<g id="node8" class="node"><title>Node7</title>
<polygon fill="white" stroke="#bfbfbf" points="167.5,-0.5 167.5,-19.5 216.5,-19.5 216.5,-0.5 167.5,-0.5"/>
<text text-anchor="middle" x="192" y="-7.5" font-family="Helvetica,sans-Serif" font-size="10.00">fstream</text>
</g>
<!-- Node5&#45;&gt;Node7 -->
<g id="edge8" class="edge"><title>Node5&#45;&gt;Node7</title>
<path fill="none" stroke="midnightblue" d="M302.243,-56.4435C280.684,-47.5566 246.737,-33.5632 222.206,-23.4514"/>
<polygon fill="midnightblue" stroke="midnightblue" points="223.239,-20.0917 212.66,-19.5164 220.572,-26.5634 223.239,-20.0917"/>
</g>
<!-- Node8 -->
<g id="node9" class="node"><title>Node8</title>
<polygon fill="white" stroke="#bfbfbf" points="583,-0.5 583,-19.5 637,-19.5 637,-0.5 583,-0.5"/>
<text text-anchor="middle" x="610" y="-7.5" font-family="Helvetica,sans-Serif" font-size="10.00">iostream</text>
</g>
<!-- Node5&#45;&gt;Node8 -->
<g id="edge9" class="edge"><title>Node5&#45;&gt;Node8</title>
<path fill="none" stroke="midnightblue" d="M369.908,-57.5633C418.397,-49.6586 496.491,-36.3237 573.1,-20.0788"/>
<polygon fill="midnightblue" stroke="midnightblue" points="573.872,-23.4928 582.919,-17.9786 572.408,-16.6476 573.872,-23.4928"/>
</g>
<!-- Node9 -->
<g id="node10" class="node"><title>Node9</title>
<polygon fill="white" stroke="#bfbfbf" points="235,-0.5 235,-19.5 303,-19.5 303,-0.5 235,-0.5"/>
<text text-anchor="middle" x="269" y="-7.5" font-family="Helvetica,sans-Serif" font-size="10.00">sys/types.h</text>
</g>
<!-- Node5&#45;&gt;Node9 -->
<g id="edge10" class="edge"><title>Node5&#45;&gt;Node9</title>
<path fill="none" stroke="midnightblue" d="M314.083,-56.083C306.22,-48.2195 294.569,-36.5688 285.081,-27.0813"/>
<polygon fill="midnightblue" stroke="midnightblue" points="287.297,-24.3473 277.751,-19.7511 282.347,-29.2971 287.297,-24.3473"/>
</g>
<!-- Node10 -->
<g id="node11" class="node"><title>Node10</title>
<polygon fill="white" stroke="#bfbfbf" points="321,-0.5 321,-19.5 381,-19.5 381,-0.5 321,-0.5"/>
<text text-anchor="middle" x="351" y="-7.5" font-family="Helvetica,sans-Serif" font-size="10.00">sys/stat.h</text>
</g>
<!-- Node5&#45;&gt;Node10 -->
<g id="edge11" class="edge"><title>Node5&#45;&gt;Node10</title>
<path fill="none" stroke="midnightblue" d="M327.624,-56.083C331.456,-48.6913 337.024,-37.9533 341.765,-28.8111"/>
<polygon fill="midnightblue" stroke="midnightblue" points="344.966,-30.2398 346.462,-19.7511 338.752,-27.0175 344.966,-30.2398"/>
</g>
<!-- Node11 -->
<g id="node12" class="node"><title>Node11</title>
<polygon fill="white" stroke="#bfbfbf" points="399,-0.5 399,-19.5 445,-19.5 445,-0.5 399,-0.5"/>
<text text-anchor="middle" x="422" y="-7.5" font-family="Helvetica,sans-Serif" font-size="10.00">stdio.h</text>
</g>
<!-- Node5&#45;&gt;Node11 -->
<g id="edge12" class="edge"><title>Node5&#45;&gt;Node11</title>
<path fill="none" stroke="midnightblue" d="M338.906,-56.324C354.638,-47.7428 378.942,-34.486 397.209,-24.5224"/>
<polygon fill="midnightblue" stroke="midnightblue" points="399.03,-27.5157 406.133,-19.6545 395.678,-21.3704 399.03,-27.5157"/>
</g>
<!-- Node12 -->
<g id="node13" class="node"><title>Node12</title>
<polygon fill="white" stroke="#bfbfbf" points="0,-0.5 0,-19.5 80,-19.5 80,-0.5 0,-0.5"/>
<text text-anchor="middle" x="40" y="-7.5" font-family="Helvetica,sans-Serif" font-size="10.00">tinydir/tinydir.h</text>
</g>
<!-- Node5&#45;&gt;Node12 -->
<g id="edge13" class="edge"><title>Node5&#45;&gt;Node12</title>
<path fill="none" stroke="midnightblue" d="M278.158,-56.4435C226.911,-46.665 143.263,-30.704 89.9665,-20.5342"/>
<polygon fill="midnightblue" stroke="midnightblue" points="90.5355,-17.0797 80.0567,-18.6433 89.2234,-23.9557 90.5355,-17.0797"/>
</g>
<!-- Node13 -->
<g id="node14" class="node"><title>Node13</title>
<polygon fill="white" stroke="#bfbfbf" points="98.5,-0.5 98.5,-19.5 149.5,-19.5 149.5,-0.5 98.5,-0.5"/>
<text text-anchor="middle" x="124" y="-7.5" font-family="Helvetica,sans-Serif" font-size="10.00">unistd.h</text>
</g>
<!-- Node5&#45;&gt;Node13 -->
<g id="edge14" class="edge"><title>Node5&#45;&gt;Node13</title>
<path fill="none" stroke="midnightblue" d="M291.468,-56.4435C255.605,-46.7118 197.176,-30.8567 159.675,-20.6807"/>
<polygon fill="midnightblue" stroke="midnightblue" points="160.257,-17.2121 149.689,-17.971 158.424,-23.9678 160.257,-17.2121"/>
</g>
<!-- Node15&#45;&gt;Node4 -->
<g id="edge18" class="edge"><title>Node15&#45;&gt;Node4</title>
<path fill="none" stroke="midnightblue" d="M517.175,-112.368C511.339,-94.5366 497.842,-53.2953 489.98,-29.2717"/>
<polygon fill="midnightblue" stroke="midnightblue" points="493.249,-28.0067 486.812,-19.5914 486.596,-30.1841 493.249,-28.0067"/>
</g>
<!-- Node15&#45;&gt;Node6 -->
<g id="edge19" class="edge"><title>Node15&#45;&gt;Node6</title>
<path fill="none" stroke="midnightblue" d="M521.883,-112.368C525.756,-94.617 534.691,-53.6664 539.942,-29.5974"/>
<polygon fill="midnightblue" stroke="midnightblue" points="543.413,-30.1077 542.126,-19.5914 536.574,-28.6155 543.413,-30.1077"/>
</g>
<!-- Node16 -->
<g id="node17" class="node"><title>Node16</title>
<polygon fill="white" stroke="#bfbfbf" points="440,-56.5 440,-75.5 478,-75.5 478,-56.5 440,-56.5"/>
<text text-anchor="middle" x="459" y="-63.5" font-family="Helvetica,sans-Serif" font-size="10.00">tuple</text>
</g>
<!-- Node15&#45;&gt;Node16 -->
<g id="edge17" class="edge"><title>Node15&#45;&gt;Node16</title>
<path fill="none" stroke="midnightblue" d="M510.199,-112.324C501.182,-104.341 487.594,-92.3128 476.682,-82.6529"/>
<polygon fill="midnightblue" stroke="midnightblue" points="478.787,-79.8416 468.979,-75.8339 474.147,-85.083 478.787,-79.8416"/>
</g>
<!-- Node17&#45;&gt;Node15 -->
<g id="edge21" class="edge"><title>Node17&#45;&gt;Node15</title>
<path fill="none" stroke="midnightblue" d="M519.165,-168.083C519.296,-161.006 519.484,-150.861 519.648,-141.986"/>
<polygon fill="midnightblue" stroke="midnightblue" points="523.152,-141.814 519.838,-131.751 516.153,-141.685 523.152,-141.814"/>
</g>
<!-- Node18 -->
<g id="node19" class="node"><title>Node18</title>
<g id="a_node19"><a xlink:href="_vector_utils_8hpp.html" target="_top" xlink:title="Utils/VectorUtils.hpp">
<polygon fill="white" stroke="black" points="590,-112.5 590,-131.5 696,-131.5 696,-112.5 590,-112.5"/>
<text text-anchor="middle" x="643" y="-119.5" font-family="Helvetica,sans-Serif" font-size="10.00">Utils/VectorUtils.hpp</text>
</a>
</g>
</g>
<!-- Node17&#45;&gt;Node18 -->
<g id="edge22" class="edge"><title>Node17&#45;&gt;Node18</title>
<path fill="none" stroke="midnightblue" d="M538.648,-168.444C558.965,-159.596 590.903,-145.687 614.098,-135.586"/>
<polygon fill="midnightblue" stroke="midnightblue" points="615.673,-138.718 623.444,-131.516 612.878,-132.3 615.673,-138.718"/>
</g>
<!-- Node19 -->
<g id="node20" class="node"><title>Node19</title>
<g id="a_node20"><a xlink:href="_error_handler_8hpp.html" target="_top" xlink:title="vili/ErrorHandler.hpp">
<polygon fill="white" stroke="black" points="587.5,-56.5 587.5,-75.5 690.5,-75.5 690.5,-56.5 587.5,-56.5"/>
<text text-anchor="middle" x="639" y="-63.5" font-family="Helvetica,sans-Serif" font-size="10.00">vili/ErrorHandler.hpp</text>
</a>
</g>
</g>
<!-- Node18&#45;&gt;Node19 -->
<g id="edge23" class="edge"><title>Node18&#45;&gt;Node19</title>
<path fill="none" stroke="midnightblue" d="M642.339,-112.083C641.815,-105.006 641.064,-94.8611 640.406,-85.9865"/>
<polygon fill="midnightblue" stroke="midnightblue" points="643.877,-85.4652 639.648,-75.7511 636.897,-85.9823 643.877,-85.4652"/>
</g>
<!-- Node19&#45;&gt;Node4 -->
<g id="edge24" class="edge"><title>Node19&#45;&gt;Node4</title>
<path fill="none" stroke="midnightblue" d="M614.44,-56.4435C587.408,-47.0262 543.918,-31.8746 514.668,-21.6842"/>
<polygon fill="midnightblue" stroke="midnightblue" points="515.561,-18.289 504.966,-18.3042 513.258,-24.8993 515.561,-18.289"/>
</g>
<!-- Node19&#45;&gt;Node6 -->
<g id="edge25" class="edge"><title>Node19&#45;&gt;Node6</title>
<path fill="none" stroke="midnightblue" d="M623.737,-56.324C608.779,-47.8215 585.745,-34.7288 568.273,-24.7975"/>
<polygon fill="midnightblue" stroke="midnightblue" points="569.649,-21.5534 559.226,-19.6545 566.19,-27.639 569.649,-21.5534"/>
</g>
<!-- Node19&#45;&gt;Node8 -->
<g id="edge27" class="edge"><title>Node19&#45;&gt;Node8</title>
<path fill="none" stroke="midnightblue" d="M634.211,-56.083C630.242,-48.6913 624.475,-37.9533 619.565,-28.8111"/>
<polygon fill="midnightblue" stroke="midnightblue" points="622.514,-26.9051 614.7,-19.7511 616.347,-30.217 622.514,-26.9051"/>
</g>
<!-- Node20 -->
<g id="node21" class="node"><title>Node20</title>
<polygon fill="white" stroke="#bfbfbf" points="732.5,-0.5 732.5,-19.5 767.5,-19.5 767.5,-0.5 732.5,-0.5"/>
<text text-anchor="middle" x="750" y="-7.5" font-family="Helvetica,sans-Serif" font-size="10.00">map</text>
</g>
<!-- Node19&#45;&gt;Node20 -->
<g id="edge26" class="edge"><title>Node19&#45;&gt;Node20</title>
<path fill="none" stroke="midnightblue" d="M656.834,-56.324C674.716,-47.6247 702.475,-34.1202 723.046,-24.113"/>
<polygon fill="midnightblue" stroke="midnightblue" points="724.749,-27.1765 732.21,-19.6545 721.687,-20.8819 724.749,-27.1765"/>
</g>
<!-- Node21 -->
<g id="node22" class="node"><title>Node21</title>
<polygon fill="white" stroke="#bfbfbf" points="655.5,-0.5 655.5,-19.5 714.5,-19.5 714.5,-0.5 655.5,-0.5"/>
<text text-anchor="middle" x="685" y="-7.5" font-family="Helvetica,sans-Serif" font-size="10.00">exception</text>
</g>
<!-- Node19&#45;&gt;Node21 -->
<g id="edge28" class="edge"><title>Node19&#45;&gt;Node21</title>
<path fill="none" stroke="midnightblue" d="M646.596,-56.083C653.227,-48.2982 663.021,-36.8015 671.058,-27.3665"/>
<polygon fill="midnightblue" stroke="midnightblue" points="673.725,-29.6332 677.545,-19.7511 668.396,-25.0939 673.725,-29.6332"/>
</g>
</g>
</svg>
