<?xml version="1.0" encoding="UTF-8" standalone="no"?>
<!DOCTYPE svg PUBLIC "-//W3C//DTD SVG 1.1//EN"
 "http://www.w3.org/Graphics/SVG/1.1/DTD/svg11.dtd">
<!-- Generated by graphviz version 2.38.0 (20140413.2041)
 -->
<!-- Title: vili::ComplexNode::extractElement Pages: 1 -->
<svg width="723pt" height="361pt"
 viewBox="0.00 0.00 723.00 361.00" xmlns="http://www.w3.org/2000/svg" xmlns:xlink="http://www.w3.org/1999/xlink">
<g id="graph0" class="graph" transform="scale(1 1) rotate(0) translate(4 357)">
<title>vili::ComplexNode::extractElement</title>
<!-- Node559 -->
<g id="node1" class="node"><title>Node559</title>
<polygon fill="#bfbfbf" stroke="black" points="0,-218.5 0,-248.5 100,-248.5 100,-218.5 0,-218.5"/>
<text text-anchor="start" x="8" y="-236.5" font-family="Helvetica,sans-Serif" font-size="10.00">vili::ComplexNode::</text>
<text text-anchor="middle" x="50" y="-225.5" font-family="Helvetica,sans-Serif" font-size="10.00">extractElement</text>
</g>
<!-- Node560 -->
<g id="node2" class="node"><title>Node560</title>
<g id="a_node2"><a xlink:href="namespacevili_1_1_functions_1_1_vector.html#aa9f0dd6b1c4be1e3d86846944329d9f2" target="_top" xlink:title="Check if a given item is in the given std::vector. ">
<polygon fill="white" stroke="black" points="136,-322.5 136,-352.5 246,-352.5 246,-322.5 136,-322.5"/>
<text text-anchor="start" x="144" y="-340.5" font-family="Helvetica,sans-Serif" font-size="10.00">vili::Functions::Vector</text>
<text text-anchor="middle" x="191" y="-329.5" font-family="Helvetica,sans-Serif" font-size="10.00">::isInList</text>
</a>
</g>
</g>
<!-- Node559&#45;&gt;Node560 -->
<g id="edge1" class="edge"><title>Node559&#45;&gt;Node560</title>
<path fill="none" stroke="midnightblue" d="M66.4689,-248.742C82.9054,-264.499 110.051,-289.298 136,-307.5 140.837,-310.893 146.093,-314.215 151.364,-317.34"/>
<polygon fill="midnightblue" stroke="midnightblue" points="149.76,-320.455 160.177,-322.389 153.24,-314.381 149.76,-320.455"/>
</g>
<!-- Node561 -->
<g id="node3" class="node"><title>Node561</title>
<g id="a_node3"><a xlink:href="classvili_1_1_node.html#ab03908ab3d62e3bfddaf9e7306fdf3b3" target="_top" xlink:title="Gets the id of the Node. ">
<polygon fill="white" stroke="black" points="612.5,-322 612.5,-341 695.5,-341 695.5,-322 612.5,-322"/>
<text text-anchor="middle" x="654" y="-329" font-family="Helvetica,sans-Serif" font-size="10.00">vili::Node::getId</text>
</a>
</g>
</g>
<!-- Node559&#45;&gt;Node561 -->
<g id="edge2" class="edge"><title>Node559&#45;&gt;Node561</title>
<path fill="none" stroke="midnightblue" d="M100.295,-245.815C111.962,-248.531 124.389,-251.262 136,-253.5 305.89,-286.246 509.398,-313.47 602.284,-325.241"/>
<polygon fill="midnightblue" stroke="midnightblue" points="601.897,-328.72 612.256,-326.5 602.773,-321.775 601.897,-328.72"/>
</g>
<!-- Node562 -->
<g id="node4" class="node"><title>Node562</title>
<g id="a_node4"><a xlink:href="classvili_1_1_container_node.html#aaf7736b92bd427111f9fb2522b76ba6c" target="_top" xlink:title="Removes ownership of a contained child (The child will still be in the ContainerNode but will think i...">
<polygon fill="white" stroke="black" points="141.5,-196.5 141.5,-226.5 240.5,-226.5 240.5,-196.5 141.5,-196.5"/>
<text text-anchor="start" x="149.5" y="-214.5" font-family="Helvetica,sans-Serif" font-size="10.00">vili::ContainerNode</text>
<text text-anchor="middle" x="191" y="-203.5" font-family="Helvetica,sans-Serif" font-size="10.00">::removeOwnership</text>
</a>
</g>
</g>
<!-- Node559&#45;&gt;Node562 -->
<g id="edge3" class="edge"><title>Node559&#45;&gt;Node562</title>
<path fill="none" stroke="midnightblue" d="M100.006,-225.744C110.194,-224.131 121.027,-222.417 131.517,-220.756"/>
<polygon fill="midnightblue" stroke="midnightblue" points="132.107,-224.207 141.436,-219.186 131.012,-217.293 132.107,-224.207"/>
</g>
<!-- Node564 -->
<g id="node6" class="node"><title>Node564</title>
<g id="a_node6"><a xlink:href="classaube_1_1_error_handler.html#a7c8d44a3e7f019646d289950abc5301b" target="_top" xlink:title="Raises an Error loaded in the Aube Error Database (AED) ">
<polygon fill="white" stroke="black" points="449,-122.5 449,-152.5 547,-152.5 547,-122.5 449,-122.5"/>
<text text-anchor="start" x="457" y="-140.5" font-family="Helvetica,sans-Serif" font-size="10.00">aube::ErrorHandler</text>
<text text-anchor="middle" x="498" y="-129.5" font-family="Helvetica,sans-Serif" font-size="10.00">::Raise</text>
</a>
</g>
</g>
<!-- Node559&#45;&gt;Node564 -->
<g id="edge16" class="edge"><title>Node559&#45;&gt;Node564</title>
<path fill="none" stroke="midnightblue" d="M73.4377,-218.454C90.0164,-208.077 113.519,-194.871 136,-187.5 239.005,-153.727 365.824,-142.764 438.449,-139.207"/>
<polygon fill="midnightblue" stroke="midnightblue" points="438.933,-142.689 448.762,-138.734 438.612,-135.696 438.933,-142.689"/>
</g>
<!-- Node569 -->
<g id="node11" class="node"><title>Node569</title>
<g id="a_node11"><a xlink:href="classvili_1_1_node.html#a5a6ad518f51d824e06ae7be0328f4864" target="_top" xlink:title="Get the Node Path (Example : GrandParent/Parent/Node) ">
<polygon fill="white" stroke="black" points="439,-246 439,-265 557,-265 557,-246 439,-246"/>
<text text-anchor="middle" x="498" y="-253" font-family="Helvetica,sans-Serif" font-size="10.00">vili::Node::getNodePath</text>
</a>
</g>
</g>
<!-- Node559&#45;&gt;Node569 -->
<g id="edge17" class="edge"><title>Node559&#45;&gt;Node569</title>
<path fill="none" stroke="midnightblue" d="M100.006,-235.917C179.753,-239.851 337.805,-247.647 428.583,-252.125"/>
<polygon fill="midnightblue" stroke="midnightblue" points="428.61,-255.631 438.77,-252.628 428.955,-248.639 428.61,-255.631"/>
</g>
<!-- Node573 -->
<g id="node15" class="node"><title>Node573</title>
<g id="a_node15"><a xlink:href="namespacevili_1_1_functions_1_1_vector.html#a0454c8e5ff5eef5cc9bb4977316a3c33" target="_top" xlink:title="Erases all occurences of a given element in the std::vector. ">
<polygon fill="white" stroke="black" points="136,-108.5 136,-138.5 246,-138.5 246,-108.5 136,-108.5"/>
<text text-anchor="start" x="144" y="-126.5" font-family="Helvetica,sans-Serif" font-size="10.00">vili::Functions::Vector</text>
<text text-anchor="middle" x="191" y="-115.5" font-family="Helvetica,sans-Serif" font-size="10.00">::eraseAll</text>
</a>
</g>
</g>
<!-- Node559&#45;&gt;Node573 -->
<g id="edge15" class="edge"><title>Node559&#45;&gt;Node573</title>
<path fill="none" stroke="midnightblue" d="M64.7698,-218.456C80.8296,-201.428 108.676,-173.468 136,-153.5 140.715,-150.054 145.867,-146.717 151.058,-143.598"/>
<polygon fill="midnightblue" stroke="midnightblue" points="152.848,-146.606 159.758,-138.575 149.348,-140.544 152.848,-146.606"/>
</g>
<!-- Node563 -->
<g id="node5" class="node"><title>Node563</title>
<g id="a_node5"><a xlink:href="classvili_1_1_node.html#a4d9ca9770bcc615dfc083c1f5df0fb1b" target="_top" xlink:title="vili::Node::removeParent">
<polygon fill="white" stroke="black" points="282,-202 282,-221 403,-221 403,-202 282,-202"/>
<text text-anchor="middle" x="342.5" y="-209" font-family="Helvetica,sans-Serif" font-size="10.00">vili::Node::removeParent</text>
</a>
</g>
</g>
<!-- Node562&#45;&gt;Node563 -->
<g id="edge4" class="edge"><title>Node562&#45;&gt;Node563</title>
<path fill="none" stroke="midnightblue" d="M240.538,-211.5C250.553,-211.5 261.286,-211.5 271.882,-211.5"/>
<polygon fill="midnightblue" stroke="midnightblue" points="271.97,-215 281.97,-211.5 271.97,-208 271.97,-215"/>
</g>
<!-- Node563&#45;&gt;Node564 -->
<g id="edge5" class="edge"><title>Node563&#45;&gt;Node564</title>
<path fill="none" stroke="midnightblue" d="M363.253,-201.977C386.634,-190.706 426.182,-171.64 456.225,-157.157"/>
<polygon fill="midnightblue" stroke="midnightblue" points="458.125,-160.127 465.613,-152.631 455.085,-153.821 458.125,-160.127"/>
</g>
<!-- Node563&#45;&gt;Node569 -->
<g id="edge10" class="edge"><title>Node563&#45;&gt;Node569</title>
<path fill="none" stroke="midnightblue" d="M376.807,-221.047C399.436,-227.534 429.579,-236.174 454.016,-243.179"/>
<polygon fill="midnightblue" stroke="midnightblue" points="453.18,-246.58 463.758,-245.971 455.109,-239.851 453.18,-246.58"/>
</g>
<!-- Node565 -->
<g id="node7" class="node"><title>Node565</title>
<g id="a_node7"><a xlink:href="classaube_1_1_error_message.html#a3a39b6fcd8fdb12eaf6383123535b8ca" target="_top" xlink:title="Gets the File where is located the ErrorMessage when raised. ">
<polygon fill="white" stroke="black" points="602,-147.5 602,-177.5 706,-177.5 706,-147.5 602,-147.5"/>
<text text-anchor="start" x="610" y="-165.5" font-family="Helvetica,sans-Serif" font-size="10.00">aube::ErrorMessage</text>
<text text-anchor="middle" x="654" y="-154.5" font-family="Helvetica,sans-Serif" font-size="10.00">::getFile</text>
</a>
</g>
</g>
<!-- Node564&#45;&gt;Node565 -->
<g id="edge6" class="edge"><title>Node564&#45;&gt;Node565</title>
<path fill="none" stroke="midnightblue" d="M547.304,-145.342C561.423,-147.634 577.044,-150.17 591.848,-152.573"/>
<polygon fill="midnightblue" stroke="midnightblue" points="591.507,-156.063 601.938,-154.211 592.628,-149.154 591.507,-156.063"/>
</g>
<!-- Node566 -->
<g id="node8" class="node"><title>Node566</title>
<g id="a_node8"><a xlink:href="classaube_1_1_error_message.html#a9184cc96589578f434351c105b0cd5f7" target="_top" xlink:title="Gets the location of the error in the code. ">
<polygon fill="white" stroke="black" points="602,-98.5 602,-128.5 706,-128.5 706,-98.5 602,-98.5"/>
<text text-anchor="start" x="610" y="-116.5" font-family="Helvetica,sans-Serif" font-size="10.00">aube::ErrorMessage</text>
<text text-anchor="middle" x="654" y="-105.5" font-family="Helvetica,sans-Serif" font-size="10.00">::getLocation</text>
</a>
</g>
</g>
<!-- Node564&#45;&gt;Node566 -->
<g id="edge7" class="edge"><title>Node564&#45;&gt;Node566</title>
<path fill="none" stroke="midnightblue" d="M547.304,-129.972C561.423,-127.772 577.044,-125.337 591.848,-123.03"/>
<polygon fill="midnightblue" stroke="midnightblue" points="592.597,-126.456 601.938,-121.458 591.519,-119.539 592.597,-126.456"/>
</g>
<!-- Node567 -->
<g id="node9" class="node"><title>Node567</title>
<g id="a_node9"><a xlink:href="classaube_1_1_error_message.html#a07927cb3e2d0712c459cc9e2b5f52696" target="_top" xlink:title="Gets the message displayed by the ErrorMessage when raised. ">
<polygon fill="white" stroke="black" points="602,-49.5 602,-79.5 706,-79.5 706,-49.5 602,-49.5"/>
<text text-anchor="start" x="610" y="-67.5" font-family="Helvetica,sans-Serif" font-size="10.00">aube::ErrorMessage</text>
<text text-anchor="middle" x="654" y="-56.5" font-family="Helvetica,sans-Serif" font-size="10.00">::getMessage</text>
</a>
</g>
</g>
<!-- Node564&#45;&gt;Node567 -->
<g id="edge8" class="edge"><title>Node564&#45;&gt;Node567</title>
<path fill="none" stroke="midnightblue" d="M526.199,-122.401C544.778,-112.316 570.088,-99.0223 593,-88.5 596.624,-86.8356 600.399,-85.1707 604.212,-83.5376"/>
<polygon fill="midnightblue" stroke="midnightblue" points="605.835,-86.6525 613.707,-79.5616 603.131,-80.1958 605.835,-86.6525"/>
</g>
<!-- Node568 -->
<g id="node10" class="node"><title>Node568</title>
<g id="a_node10"><a xlink:href="classaube_1_1_error_message.html#a77c2f9b7e93542c958173b52da267989" target="_top" xlink:title="Gets hints that can help the error resolution. ">
<polygon fill="white" stroke="black" points="602,-0.5 602,-30.5 706,-30.5 706,-0.5 602,-0.5"/>
<text text-anchor="start" x="610" y="-18.5" font-family="Helvetica,sans-Serif" font-size="10.00">aube::ErrorMessage</text>
<text text-anchor="middle" x="654" y="-7.5" font-family="Helvetica,sans-Serif" font-size="10.00">::getHints</text>
</a>
</g>
</g>
<!-- Node564&#45;&gt;Node568 -->
<g id="edge9" class="edge"><title>Node564&#45;&gt;Node568</title>
<path fill="none" stroke="midnightblue" d="M510.172,-122.286C526.354,-101.178 558.209,-62.9645 593,-39.5 595.157,-38.0454 597.415,-36.6574 599.739,-35.3359"/>
<polygon fill="midnightblue" stroke="midnightblue" points="601.678,-38.2733 608.95,-30.568 598.46,-32.0568 601.678,-38.2733"/>
</g>
<!-- Node569&#45;&gt;Node561 -->
<g id="edge12" class="edge"><title>Node569&#45;&gt;Node561</title>
<path fill="none" stroke="midnightblue" d="M527.715,-265.085C537.382,-268.901 547.992,-273.763 557,-279.5 575.307,-291.161 574.211,-301.634 593,-312.5 596.671,-314.623 600.608,-316.539 604.646,-318.262"/>
<polygon fill="midnightblue" stroke="midnightblue" points="603.585,-321.604 614.174,-321.939 606.105,-315.073 603.585,-321.604"/>
</g>
<!-- Node570 -->
<g id="node12" class="node"><title>Node570</title>
<g id="a_node12"><a xlink:href="classvili_1_1_node.html#a58273048e22a9ebd74e576fd8905f709" target="_top" xlink:title="vili::Node::getParent">
<polygon fill="white" stroke="black" points="602,-284 602,-303 706,-303 706,-284 602,-284"/>
<text text-anchor="middle" x="654" y="-291" font-family="Helvetica,sans-Serif" font-size="10.00">vili::Node::getParent</text>
</a>
</g>
</g>
<!-- Node569&#45;&gt;Node570 -->
<g id="edge11" class="edge"><title>Node569&#45;&gt;Node570</title>
<path fill="none" stroke="midnightblue" d="M537.861,-265.089C558.091,-270.081 583.021,-276.232 604.504,-281.533"/>
<polygon fill="midnightblue" stroke="midnightblue" points="603.871,-284.982 614.419,-283.98 605.548,-278.186 603.871,-284.982"/>
</g>
<!-- Node571 -->
<g id="node13" class="node"><title>Node571</title>
<g id="a_node13"><a xlink:href="classvili_1_1_node.html#ad3c91cfe2721eaf9841721d1ec8ee0d8" target="_top" xlink:title="Gets the Node annotation. ">
<polygon fill="white" stroke="black" points="593,-246 593,-265 715,-265 715,-246 593,-246"/>
<text text-anchor="middle" x="654" y="-253" font-family="Helvetica,sans-Serif" font-size="10.00">vili::Node::getAnnotation</text>
</a>
</g>
</g>
<!-- Node569&#45;&gt;Node571 -->
<g id="edge13" class="edge"><title>Node569&#45;&gt;Node571</title>
<path fill="none" stroke="midnightblue" d="M557.221,-255.5C565.608,-255.5 574.312,-255.5 582.9,-255.5"/>
<polygon fill="midnightblue" stroke="midnightblue" points="582.903,-259 592.903,-255.5 582.903,-252 582.903,-259"/>
</g>
<!-- Node572 -->
<g id="node14" class="node"><title>Node572</title>
<g id="a_node14"><a xlink:href="namespacevili_1_1_functions_1_1_vector.html#a10836e1fe04648534cfc59d9de9acd72" target="_top" xlink:title="vili::Functions::Vector\l::join">
<polygon fill="white" stroke="black" points="599,-196.5 599,-226.5 709,-226.5 709,-196.5 599,-196.5"/>
<text text-anchor="start" x="607" y="-214.5" font-family="Helvetica,sans-Serif" font-size="10.00">vili::Functions::Vector</text>
<text text-anchor="middle" x="654" y="-203.5" font-family="Helvetica,sans-Serif" font-size="10.00">::join</text>
</a>
</g>
</g>
<!-- Node569&#45;&gt;Node572 -->
<g id="edge14" class="edge"><title>Node569&#45;&gt;Node572</title>
<path fill="none" stroke="midnightblue" d="M532.416,-245.953C549.445,-241.087 570.714,-235.01 590.629,-229.32"/>
<polygon fill="midnightblue" stroke="midnightblue" points="591.618,-232.678 600.271,-226.565 589.694,-225.947 591.618,-232.678"/>
</g>
</g>
</svg>
