<?xml version="1.0" encoding="UTF-8" standalone="no"?>
<!DOCTYPE svg PUBLIC "-//W3C//DTD SVG 1.1//EN"
 "http://www.w3.org/Graphics/SVG/1.1/DTD/svg11.dtd">
<!-- Generated by graphviz version 2.38.0 (20140413.2041)
 -->
<!-- Title: obe::Collision::PolygonalCollider::getParentId Pages: 1 -->
<svg width="1265pt" height="154pt"
 viewBox="0.00 0.00 1265.00 153.50" xmlns="http://www.w3.org/2000/svg" xmlns:xlink="http://www.w3.org/1999/xlink">
<g id="graph0" class="graph" transform="scale(1 1) rotate(0) translate(4 149.5)">
<title>obe::Collision::PolygonalCollider::getParentId</title>
<!-- Node220 -->
<g id="node1" class="node"><title>Node220</title>
<polygon fill="#bfbfbf" stroke="black" points="0,-71 0,-101 124,-101 124,-71 0,-71"/>
<text text-anchor="start" x="8" y="-89" font-family="Helvetica,sans-Serif" font-size="10.00">obe::Collision::Polygonal</text>
<text text-anchor="middle" x="62" y="-78" font-family="Helvetica,sans-Serif" font-size="10.00">Collider::getParentId</text>
</g>
<!-- Node221 -->
<g id="node2" class="node"><title>Node221</title>
<g id="a_node2"><a xlink:href="namespaceobe_1_1_bindings_1_1_collision_bindings.html#a48f290ff49a763532bdf5bc65070d2d2" target="_top" xlink:title="obe::Bindings::Collision\lBindings::LoadPolygonalCollider">
<polygon fill="white" stroke="black" points="160,-115 160,-145 316,-145 316,-115 160,-115"/>
<text text-anchor="start" x="168" y="-133" font-family="Helvetica,sans-Serif" font-size="10.00">obe::Bindings::Collision</text>
<text text-anchor="middle" x="238" y="-122" font-family="Helvetica,sans-Serif" font-size="10.00">Bindings::LoadPolygonalCollider</text>
</a>
</g>
</g>
<!-- Node220&#45;&gt;Node221 -->
<g id="edge1" class="edge"><title>Node220&#45;&gt;Node221</title>
<path fill="none" stroke="midnightblue" d="M132.147,-103.485C147.181,-107.287 162.959,-111.277 177.578,-114.974"/>
<polygon fill="midnightblue" stroke="midnightblue" points="132.947,-100.078 122.394,-101.019 131.231,-106.864 132.947,-100.078"/>
</g>
<!-- Node224 -->
<g id="node5" class="node"><title>Node224</title>
<g id="a_node5"><a xlink:href="namespaceobe_1_1_editor.html#a56ffe9497d350fd93d16d6b490538827" target="_top" xlink:title="obe::Editor::connectColliders\lActions">
<polygon fill="white" stroke="black" points="352,-71 352,-101 494,-101 494,-71 352,-71"/>
<text text-anchor="start" x="360" y="-89" font-family="Helvetica,sans-Serif" font-size="10.00">obe::Editor::connectColliders</text>
<text text-anchor="middle" x="423" y="-78" font-family="Helvetica,sans-Serif" font-size="10.00">Actions</text>
</a>
</g>
</g>
<!-- Node220&#45;&gt;Node224 -->
<g id="edge4" class="edge"><title>Node220&#45;&gt;Node224</title>
<path fill="none" stroke="midnightblue" d="M134.569,-86C197.651,-86 289.022,-86 351.716,-86"/>
<polygon fill="midnightblue" stroke="midnightblue" points="134.306,-82.5001 124.306,-86 134.306,-89.5001 134.306,-82.5001"/>
</g>
<!-- Node227 -->
<g id="node8" class="node"><title>Node227</title>
<g id="a_node8"><a xlink:href="namespaceobe_1_1_script_1_1_core_lib.html#a07d6c11bbb082bc45bdba50d97965c00" target="_top" xlink:title="obe::Script::CoreLib\l::loadCollision">
<polygon fill="white" stroke="black" points="186.5,-27 186.5,-57 289.5,-57 289.5,-27 186.5,-27"/>
<text text-anchor="start" x="194.5" y="-45" font-family="Helvetica,sans-Serif" font-size="10.00">obe::Script::CoreLib</text>
<text text-anchor="middle" x="238" y="-34" font-family="Helvetica,sans-Serif" font-size="10.00">::loadCollision</text>
</a>
</g>
</g>
<!-- Node220&#45;&gt;Node227 -->
<g id="edge9" class="edge"><title>Node220&#45;&gt;Node227</title>
<path fill="none" stroke="midnightblue" d="M132.282,-68.4803C150.315,-63.9204 169.408,-59.0923 186.282,-54.8252"/>
<polygon fill="midnightblue" stroke="midnightblue" points="131.231,-65.1359 122.394,-70.9808 132.947,-71.9223 131.231,-65.1359"/>
</g>
<!-- Node222 -->
<g id="node3" class="node"><title>Node222</title>
<g id="a_node3"><a xlink:href="namespaceobe_1_1_bindings.html#a41d33207a0199f125c75a0f70a4a3ba8" target="_top" xlink:title="obe::Bindings::IndexBindings">
<polygon fill="white" stroke="black" points="530,-120.5 530,-139.5 673,-139.5 673,-120.5 530,-120.5"/>
<text text-anchor="middle" x="601.5" y="-127.5" font-family="Helvetica,sans-Serif" font-size="10.00">obe::Bindings::IndexBindings</text>
</a>
</g>
</g>
<!-- Node221&#45;&gt;Node222 -->
<g id="edge2" class="edge"><title>Node221&#45;&gt;Node222</title>
<path fill="none" stroke="midnightblue" d="M326.336,-130C388.767,-130 471.701,-130 529.946,-130"/>
<polygon fill="midnightblue" stroke="midnightblue" points="326.107,-126.5 316.107,-130 326.107,-133.5 326.107,-126.5"/>
</g>
<!-- Node223 -->
<g id="node4" class="node"><title>Node223</title>
<g id="a_node4"><a xlink:href="_ob_engine_8cpp.html#a3c04138a5bfe5d72780bb7e82a18e627" target="_top" xlink:title="main">
<polygon fill="white" stroke="black" points="1219,-63.5 1219,-82.5 1257,-82.5 1257,-63.5 1219,-63.5"/>
<text text-anchor="middle" x="1238" y="-70.5" font-family="Helvetica,sans-Serif" font-size="10.00">main</text>
</a>
</g>
</g>
<!-- Node222&#45;&gt;Node223 -->
<g id="edge3" class="edge"><title>Node222&#45;&gt;Node223</title>
<path fill="none" stroke="midnightblue" d="M683.429,-132.376C796.571,-134.003 1007.83,-130.848 1183,-93 1195.31,-90.3397 1208.59,-85.4531 1218.89,-81.1763"/>
<polygon fill="midnightblue" stroke="midnightblue" points="683.178,-128.872 673.123,-132.211 683.066,-135.871 683.178,-128.872"/>
</g>
<!-- Node225 -->
<g id="node6" class="node"><title>Node225</title>
<g id="a_node6"><a xlink:href="namespaceobe_1_1_editor.html#a9009207671e71dccb68a31ea2362e9ef" target="_top" xlink:title="Starts the map edition. ">
<polygon fill="white" stroke="black" points="889,-76.5 889,-95.5 993,-95.5 993,-76.5 889,-76.5"/>
<text text-anchor="middle" x="941" y="-83.5" font-family="Helvetica,sans-Serif" font-size="10.00">obe::Editor::editMap</text>
</a>
</g>
</g>
<!-- Node224&#45;&gt;Node225 -->
<g id="edge5" class="edge"><title>Node224&#45;&gt;Node225</title>
<path fill="none" stroke="midnightblue" d="M504.256,-86C611.562,-86 798.683,-86 888.721,-86"/>
<polygon fill="midnightblue" stroke="midnightblue" points="504.127,-82.5001 494.127,-86 504.127,-89.5001 504.127,-82.5001"/>
</g>
<!-- Node225&#45;&gt;Node223 -->
<g id="edge8" class="edge"><title>Node225&#45;&gt;Node223</title>
<path fill="none" stroke="midnightblue" d="M1003.21,-83.3028C1071.19,-80.3071 1176.89,-75.6491 1218.9,-73.7978"/>
<polygon fill="midnightblue" stroke="midnightblue" points="1002.88,-79.8135 993.048,-83.7504 1003.19,-86.8067 1002.88,-79.8135"/>
</g>
<!-- Node226 -->
<g id="node7" class="node"><title>Node226</title>
<g id="a_node7"><a xlink:href="namespaceobe_1_1_modes.html#a6a8b08eee511d4895c4da96d4ba223a6" target="_top" xlink:title="Starts the development Menu where you can starts other menus from. ">
<polygon fill="white" stroke="black" points="1050,-44.5 1050,-63.5 1183,-63.5 1183,-44.5 1050,-44.5"/>
<text text-anchor="middle" x="1116.5" y="-51.5" font-family="Helvetica,sans-Serif" font-size="10.00">obe::Modes::startDevMenu</text>
</a>
</g>
</g>
<!-- Node225&#45;&gt;Node226 -->
<g id="edge6" class="edge"><title>Node225&#45;&gt;Node226</title>
<path fill="none" stroke="midnightblue" d="M1003,-74.7497C1022.87,-71.0843 1044.73,-67.0531 1063.85,-63.5266"/>
<polygon fill="midnightblue" stroke="midnightblue" points="1002.32,-71.3162 993.117,-76.572 1003.59,-78.2001 1002.32,-71.3162"/>
</g>
<!-- Node226&#45;&gt;Node223 -->
<g id="edge7" class="edge"><title>Node226&#45;&gt;Node223</title>
<path fill="none" stroke="midnightblue" d="M1187.82,-65.1808C1199.35,-67.0131 1210.33,-68.7591 1218.98,-70.1346"/>
<polygon fill="midnightblue" stroke="midnightblue" points="1188.03,-61.6694 1177.6,-63.5557 1186.93,-68.5826 1188.03,-61.6694"/>
</g>
<!-- Node228 -->
<g id="node9" class="node"><title>Node228</title>
<g id="a_node9"><a xlink:href="namespaceobe_1_1_script.html#abdb81ec0976f1097cef6711415b8fac3" target="_top" xlink:title="obe::Script::loadCoreLib">
<polygon fill="white" stroke="black" points="362.5,-32.5 362.5,-51.5 483.5,-51.5 483.5,-32.5 362.5,-32.5"/>
<text text-anchor="middle" x="423" y="-39.5" font-family="Helvetica,sans-Serif" font-size="10.00">obe::Script::loadCoreLib</text>
</a>
</g>
</g>
<!-- Node227&#45;&gt;Node228 -->
<g id="edge10" class="edge"><title>Node227&#45;&gt;Node228</title>
<path fill="none" stroke="midnightblue" d="M300.205,-35.5902C320.191,-35.1255 342.35,-35.1369 362.229,-35.6245"/>
<polygon fill="midnightblue" stroke="midnightblue" points="299.874,-32.098 289.976,-35.8766 300.07,-39.0953 299.874,-32.098"/>
</g>
<!-- Node228&#45;&gt;Node227 -->
<g id="edge17" class="edge"><title>Node228&#45;&gt;Node227</title>
<path fill="none" stroke="midnightblue" d="M352.215,-48.5781C331.516,-48.9115 309.244,-48.7599 289.976,-48.1234"/>
<polygon fill="midnightblue" stroke="midnightblue" points="352.302,-52.0772 362.229,-48.3755 352.161,-45.0786 352.302,-52.0772"/>
</g>
<!-- Node229 -->
<g id="node10" class="node"><title>Node229</title>
<g id="a_node10"><a xlink:href="namespaceobe_1_1_script.html#a4e6ee77032cf7f66544f9b08464a60b7" target="_top" xlink:title="obe::Script::loadLib">
<polygon fill="white" stroke="black" points="551,-32.5 551,-51.5 652,-51.5 652,-32.5 551,-32.5"/>
<text text-anchor="middle" x="601.5" y="-39.5" font-family="Helvetica,sans-Serif" font-size="10.00">obe::Script::loadLib</text>
</a>
</g>
</g>
<!-- Node228&#45;&gt;Node229 -->
<g id="edge11" class="edge"><title>Node228&#45;&gt;Node229</title>
<path fill="none" stroke="midnightblue" d="M493.878,-42C512.908,-42 533.131,-42 550.792,-42"/>
<polygon fill="midnightblue" stroke="midnightblue" points="493.755,-38.5001 483.755,-42 493.755,-45.5001 493.755,-38.5001"/>
</g>
<!-- Node230 -->
<g id="node11" class="node"><title>Node230</title>
<g id="a_node11"><a xlink:href="namespaceobe_1_1_modes.html#a1e38c0d9a2ca0230f0de79c298f53ab9" target="_top" xlink:title="A mode that will start the Toolkit. ">
<polygon fill="white" stroke="black" points="868,-22.5 868,-41.5 1014,-41.5 1014,-22.5 868,-22.5"/>
<text text-anchor="middle" x="941" y="-29.5" font-family="Helvetica,sans-Serif" font-size="10.00">obe::Modes::startToolkitMode</text>
</a>
</g>
</g>
<!-- Node229&#45;&gt;Node230 -->
<g id="edge12" class="edge"><title>Node229&#45;&gt;Node230</title>
<path fill="none" stroke="midnightblue" d="M662.315,-40.2277C719.754,-38.5258 806.599,-35.9526 867.847,-34.1379"/>
<polygon fill="midnightblue" stroke="midnightblue" points="662.191,-36.7297 652.299,-40.5245 662.399,-43.7267 662.191,-36.7297"/>
</g>
<!-- Node231 -->
<g id="node12" class="node"><title>Node231</title>
<g id="a_node12"><a xlink:href="namespaceobe_1_1_script.html#aad6ef67388e6d16eb01853f208da410f" target="_top" xlink:title="obe::Script::loadBaseLib">
<polygon fill="white" stroke="black" points="709,-0.5 709,-19.5 832,-19.5 832,-0.5 709,-0.5"/>
<text text-anchor="middle" x="770.5" y="-7.5" font-family="Helvetica,sans-Serif" font-size="10.00">obe::Script::loadBaseLib</text>
</a>
</g>
</g>
<!-- Node229&#45;&gt;Node231 -->
<g id="edge15" class="edge"><title>Node229&#45;&gt;Node231</title>
<path fill="none" stroke="midnightblue" d="M662.131,-30.5738C681.001,-26.9578 701.648,-23.0016 719.75,-19.533"/>
<polygon fill="midnightblue" stroke="midnightblue" points="661.316,-27.1661 652.153,-32.4856 662.633,-34.041 661.316,-27.1661"/>
</g>
<!-- Node230&#45;&gt;Node223 -->
<g id="edge14" class="edge"><title>Node230&#45;&gt;Node223</title>
<path fill="none" stroke="midnightblue" d="M1017.97,-21.6148C1066.37,-17.7314 1129.76,-17.7782 1183,-35 1200.45,-40.6447 1217.18,-54.0773 1227.28,-63.3579"/>
<polygon fill="midnightblue" stroke="midnightblue" points="1017.54,-18.1394 1007.88,-22.4984 1018.15,-25.1127 1017.54,-18.1394"/>
</g>
<!-- Node230&#45;&gt;Node226 -->
<g id="edge13" class="edge"><title>Node230&#45;&gt;Node226</title>
<path fill="none" stroke="midnightblue" d="M1024.12,-42.4126C1032.72,-43.5029 1041.37,-44.6008 1049.76,-45.6635"/>
<polygon fill="midnightblue" stroke="midnightblue" points="1024.43,-38.9247 1014.07,-41.1389 1023.55,-45.8691 1024.43,-38.9247"/>
</g>
<!-- Node231&#45;&gt;Node230 -->
<g id="edge16" class="edge"><title>Node231&#45;&gt;Node230</title>
<path fill="none" stroke="midnightblue" d="M842.441,-19.2623C850.82,-20.3564 859.38,-21.474 867.777,-22.5703"/>
<polygon fill="midnightblue" stroke="midnightblue" points="842.701,-15.7667 832.332,-17.9425 841.795,-22.7078 842.701,-15.7667"/>
</g>
</g>
</svg>
