<?xml version="1.0" encoding="UTF-8" standalone="no"?>
<!DOCTYPE svg PUBLIC "-//W3C//DTD SVG 1.1//EN"
 "http://www.w3.org/Graphics/SVG/1.1/DTD/svg11.dtd">
<!-- Generated by graphviz version 2.38.0 (20140413.2041)
 -->
<!-- Title: obe::Input::InputAction::setRepeat Pages: 1 -->
<svg width="541pt" height="78pt"
 viewBox="0.00 0.00 541.00 77.50" xmlns="http://www.w3.org/2000/svg" xmlns:xlink="http://www.w3.org/1999/xlink">
<g id="graph0" class="graph" transform="scale(1 1) rotate(0) translate(4 73.5)">
<title>obe::Input::InputAction::setRepeat</title>
<!-- Node51 -->
<g id="node1" class="node"><title>Node51</title>
<polygon fill="#bfbfbf" stroke="black" points="0,-17 0,-47 114,-47 114,-17 0,-17"/>
<text text-anchor="start" x="8" y="-35" font-family="Helvetica,sans-Serif" font-size="10.00">obe::Input::InputAction</text>
<text text-anchor="middle" x="57" y="-24" font-family="Helvetica,sans-Serif" font-size="10.00">::setRepeat</text>
</g>
<!-- Node52 -->
<g id="node2" class="node"><title>Node52</title>
<g id="a_node2"><a xlink:href="namespaceobe_1_1_bindings_1_1_input_bindings.html#a3898ecb1ad8534de564c8153802dc789" target="_top" xlink:title="obe::Bindings::InputBindings\l::LoadInputAction">
<polygon fill="white" stroke="black" points="150,-39 150,-69 290,-69 290,-39 150,-39"/>
<text text-anchor="start" x="158" y="-57" font-family="Helvetica,sans-Serif" font-size="10.00">obe::Bindings::InputBindings</text>
<text text-anchor="middle" x="220" y="-46" font-family="Helvetica,sans-Serif" font-size="10.00">::LoadInputAction</text>
</a>
</g>
</g>
<!-- Node51&#45;&gt;Node52 -->
<g id="edge1" class="edge"><title>Node51&#45;&gt;Node52</title>
<path fill="none" stroke="midnightblue" d="M124.453,-41.0806C132.876,-42.2316 141.511,-43.4115 149.973,-44.5678"/>
<polygon fill="midnightblue" stroke="midnightblue" points="124.692,-37.5807 114.31,-39.6945 123.744,-44.5163 124.692,-37.5807"/>
</g>
<!-- Node53 -->
<g id="node3" class="node"><title>Node53</title>
<g id="a_node3"><a xlink:href="namespaceobe_1_1_editor.html#a9009207671e71dccb68a31ea2362e9ef" target="_top" xlink:title="Starts the map edition. ">
<polygon fill="white" stroke="black" points="168,-0.5 168,-19.5 272,-19.5 272,-0.5 168,-0.5"/>
<text text-anchor="middle" x="220" y="-7.5" font-family="Helvetica,sans-Serif" font-size="10.00">obe::Editor::editMap</text>
</a>
</g>
</g>
<!-- Node51&#45;&gt;Node53 -->
<g id="edge2" class="edge"><title>Node51&#45;&gt;Node53</title>
<path fill="none" stroke="midnightblue" d="M124.254,-22.9466C138.802,-20.9587 153.99,-18.8833 167.837,-16.9912"/>
<polygon fill="midnightblue" stroke="midnightblue" points="123.744,-19.4837 114.31,-24.3055 124.692,-26.4193 123.744,-19.4837"/>
</g>
<!-- Node54 -->
<g id="node4" class="node"><title>Node54</title>
<g id="a_node4"><a xlink:href="namespaceobe_1_1_modes.html#a6a8b08eee511d4895c4da96d4ba223a6" target="_top" xlink:title="Starts the development Menu where you can starts other menus from. ">
<polygon fill="white" stroke="black" points="326,-19.5 326,-38.5 459,-38.5 459,-19.5 326,-19.5"/>
<text text-anchor="middle" x="392.5" y="-26.5" font-family="Helvetica,sans-Serif" font-size="10.00">obe::Modes::startDevMenu</text>
</a>
</g>
</g>
<!-- Node53&#45;&gt;Node54 -->
<g id="edge3" class="edge"><title>Node53&#45;&gt;Node54</title>
<path fill="none" stroke="midnightblue" d="M282.26,-16.8267C296.405,-18.4029 311.508,-20.0859 325.832,-21.6821"/>
<polygon fill="midnightblue" stroke="midnightblue" points="282.482,-13.3298 272.156,-15.7006 281.706,-20.2867 282.482,-13.3298"/>
</g>
<!-- Node55 -->
<g id="node5" class="node"><title>Node55</title>
<g id="a_node5"><a xlink:href="_ob_engine_8cpp.html#a3c04138a5bfe5d72780bb7e82a18e627" target="_top" xlink:title="main">
<polygon fill="white" stroke="black" points="495,-0.5 495,-19.5 533,-19.5 533,-0.5 495,-0.5"/>
<text text-anchor="middle" x="514" y="-7.5" font-family="Helvetica,sans-Serif" font-size="10.00">main</text>
</a>
</g>
</g>
<!-- Node53&#45;&gt;Node55 -->
<g id="edge5" class="edge"><title>Node53&#45;&gt;Node55</title>
<path fill="none" stroke="midnightblue" d="M282.241,-10C349.426,-10 453.246,-10 494.849,-10"/>
<polygon fill="midnightblue" stroke="midnightblue" points="282.197,-6.5001 272.197,-10 282.197,-13.5001 282.197,-6.5001"/>
</g>
<!-- Node54&#45;&gt;Node55 -->
<g id="edge4" class="edge"><title>Node54&#45;&gt;Node55</title>
<path fill="none" stroke="midnightblue" d="M463.822,-17.8192C475.345,-15.9869 486.327,-14.2409 494.978,-12.8654"/>
<polygon fill="midnightblue" stroke="midnightblue" points="462.926,-14.4174 453.6,-19.4443 464.026,-21.3306 462.926,-14.4174"/>
</g>
</g>
</svg>
