<?xml version="1.0" encoding="UTF-8" standalone="no"?>
<!DOCTYPE svg PUBLIC "-//W3C//DTD SVG 1.1//EN"
 "http://www.w3.org/Graphics/SVG/1.1/DTD/svg11.dtd">
<!-- Generated by graphviz version 2.38.0 (20140413.2041)
 -->
<!-- Title: vili::ComplexAttribute::deleteComplexAttribute Pages: 1 -->
<!--zoomable 197 -->
<svg id="main" version="1.1" xmlns="http://www.w3.org/2000/svg" xmlns:xlink="http://www.w3.org/1999/xlink" xml:space="preserve" onload="init(evt)">
<style type="text/css"><![CDATA[
.edge:hover path { stroke: red; }
.edge:hover polygon { stroke: red; fill: red; }
.edge path { stroke: white; }
.edge polygon { stroke: white; fill: white; }
.node polygon { fill: white; }
]]></style>
<script type="text/javascript"><![CDATA[
var edges = document.getElementsByTagName('g');
if (edges && edges.length) {
  for (var i=0;i<edges.length;i++) {
    if (edges[i].id.substr(0,4)=='edge') {
      edges[i].setAttribute('class','edge');
    }
  }
}
]]></script>
        <defs>
                <circle id="rim" cx="0" cy="0" r="7"/>
                <circle id="rim2" cx="0" cy="0" r="3.5"/>
                <g id="zoomPlus">
                        <use xlink:href="#rim" fill="#404040">
                                <set attributeName="fill" to="#808080" begin="zoomplus.mouseover" end="zoomplus.mouseout"/>
                        </use>
                        <path d="M-4,0h8M0,-4v8" fill="none" stroke="white" stroke-width="1.5" pointer-events="none"/>
                </g>
                <g id="zoomMin">
                        <use xlink:href="#rim" fill="#404040">
                                <set attributeName="fill" to="#808080" begin="zoomminus.mouseover" end="zoomminus.mouseout"/>
                        </use>
                        <path d="M-4,0h8" fill="none" stroke="white" stroke-width="1.5" pointer-events="none"/>
                </g>
                <g id="dirArrow">
                        <path fill="none" stroke="white" stroke-width="1.5" d="M0,-3.0v7 M-2.5,-0.5L0,-3.0L2.5,-0.5"/>
                </g>
               <g id="resetDef">
                       <use xlink:href="#rim2" fill="#404040">
                               <set attributeName="fill" to="#808080" begin="reset.mouseover" end="reset.mouseout"/>
                       </use>
               </g>
        </defs>

<script type="text/javascript">
var viewWidth = 1184;
var viewHeight = 197;
var sectionId = 'dynsection-36';
</script>
<script xlink:href="svgpan.js"/>
<svg id="graph" class="graph">
<g id="viewport">
<title>vili::ComplexAttribute::deleteComplexAttribute</title>
<!-- Node636 -->
<g id="node1" class="node"><title>Node636</title>
<polygon fill="#bfbfbf" stroke="black" points="0,-104.5 0,-134.5 124,-134.5 124,-104.5 0,-104.5"/>
<text text-anchor="start" x="8" y="-122.5" font-family="Helvetica,sans-Serif" font-size="10.00">vili::ComplexAttribute</text>
<text text-anchor="middle" x="62" y="-111.5" font-family="Helvetica,sans-Serif" font-size="10.00">::deleteComplexAttribute</text>
</g>
<!-- Node637 -->
<g id="node2" class="node"><title>Node637</title>
<g id="a_node2"><a xlink:href="classvili_1_1_complex_attribute.html#a7effbea21d8995576687efb28c60fac9" target="_top" xlink:title="vili::ComplexAttribute::at">
<polygon fill="none" stroke="black" points="160,-132 160,-151 282,-151 282,-132 160,-132"/>
<text text-anchor="middle" x="221" y="-139" font-family="Helvetica,sans-Serif" font-size="10.00">vili::ComplexAttribute::at</text>
</a>
</g>
</g>
<!-- Node636&#45;&gt;Node637 -->
<g id="edge1" class="edge"><title>Node636&#45;&gt;Node637</title>
<path fill="none" stroke="midnightblue" d="M134.134,-129.468C142.706,-130.669 151.396,-131.887 159.791,-133.063"/>
<polygon fill="midnightblue" stroke="midnightblue" points="134.539,-125.99 124.15,-128.069 133.567,-132.923 134.539,-125.99"/>
</g>
<!-- Node638 -->
<g id="node3" class="node"><title>Node638</title>
<g id="a_node3"><a xlink:href="namespaceobe_1_1_script_1_1_core_lib.html#a144f31cc8b37c8d19a05138691229059" target="_top" xlink:title="obe::Script::CoreLib\l::loadVili">
<polygon fill="none" stroke="black" points="169.5,-82.5 169.5,-112.5 272.5,-112.5 272.5,-82.5 169.5,-82.5"/>
<text text-anchor="start" x="177.5" y="-100.5" font-family="Helvetica,sans-Serif" font-size="10.00">obe::Script::CoreLib</text>
<text text-anchor="middle" x="221" y="-89.5" font-family="Helvetica,sans-Serif" font-size="10.00">::loadVili</text>
</a>
</g>
</g>
<!-- Node636&#45;&gt;Node638 -->
<g id="edge2" class="edge"><title>Node636&#45;&gt;Node638</title>
<path fill="none" stroke="midnightblue" d="M134.084,-109.539C146.005,-107.869 158.155,-106.166 169.423,-104.587"/>
<polygon fill="midnightblue" stroke="midnightblue" points="133.567,-106.077 124.15,-110.931 134.539,-113.01 133.567,-106.077"/>
</g>
<!-- Node639 -->
<g id="node4" class="node"><title>Node639</title>
<g id="a_node4"><a xlink:href="namespaceobe_1_1_script.html#a633c629c5a54da2b5d4930730983121c" target="_top" xlink:title="obe::Script::loadCoreLib">
<polygon fill="none" stroke="black" points="318,-88 318,-107 439,-107 439,-88 318,-88"/>
<text text-anchor="middle" x="378.5" y="-95" font-family="Helvetica,sans-Serif" font-size="10.00">obe::Script::loadCoreLib</text>
</a>
</g>
</g>
<!-- Node638&#45;&gt;Node639 -->
<g id="edge3" class="edge"><title>Node638&#45;&gt;Node639</title>
<path fill="none" stroke="midnightblue" d="M283.205,-97.5C294.592,-97.5 306.476,-97.5 317.817,-97.5"/>
<polygon fill="midnightblue" stroke="midnightblue" points="282.917,-94.0001 272.917,-97.5 282.916,-101 282.917,-94.0001"/>
</g>
<!-- Node640 -->
<g id="node5" class="node"><title>Node640</title>
<g id="a_node5"><a xlink:href="namespaceobe_1_1_script.html#a4e6ee77032cf7f66544f9b08464a60b7" target="_top" xlink:title="obe::Script::loadLib">
<polygon fill="none" stroke="black" points="475,-88 475,-107 576,-107 576,-88 475,-88"/>
<text text-anchor="middle" x="525.5" y="-95" font-family="Helvetica,sans-Serif" font-size="10.00">obe::Script::loadLib</text>
</a>
</g>
</g>
<!-- Node639&#45;&gt;Node640 -->
<g id="edge4" class="edge"><title>Node639&#45;&gt;Node640</title>
<path fill="none" stroke="midnightblue" d="M449.401,-97.5C458.037,-97.5 466.723,-97.5 474.967,-97.5"/>
<polygon fill="midnightblue" stroke="midnightblue" points="449.314,-94.0001 439.314,-97.5 449.314,-101 449.314,-94.0001"/>
</g>
<!-- Node641 -->
<g id="node6" class="node"><title>Node641</title>
<g id="a_node6"><a xlink:href="namespaceobe_1_1_script.html#a5e992c0efb0543e7c934bc1065f08b01" target="_top" xlink:title="obe::Script::loadLibBridge">
<polygon fill="none" stroke="black" points="617.5,-164 617.5,-183 745.5,-183 745.5,-164 617.5,-164"/>
<text text-anchor="middle" x="681.5" y="-171" font-family="Helvetica,sans-Serif" font-size="10.00">obe::Script::loadLibBridge</text>
</a>
</g>
</g>
<!-- Node640&#45;&gt;Node641 -->
<g id="edge5" class="edge"><title>Node640&#45;&gt;Node641</title>
<path fill="none" stroke="midnightblue" d="M546.149,-113.245C562.824,-125.936 587.827,-143.434 612,-154.5 620.08,-158.198 629.033,-161.319 637.729,-163.895"/>
<polygon fill="midnightblue" stroke="midnightblue" points="548.283,-110.471 538.237,-107.105 543.992,-116.001 548.283,-110.471"/>
</g>
<!-- Node644 -->
<g id="node9" class="node"><title>Node644</title>
<g id="a_node9"><a xlink:href="namespaceobe_1_1_script.html#aad6ef67388e6d16eb01853f208da410f" target="_top" xlink:title="obe::Script::loadBaseLib">
<polygon fill="none" stroke="black" points="620,-126 620,-145 743,-145 743,-126 620,-126"/>
<text text-anchor="middle" x="681.5" y="-133" font-family="Helvetica,sans-Serif" font-size="10.00">obe::Script::loadBaseLib</text>
</a>
</g>
</g>
<!-- Node640&#45;&gt;Node644 -->
<g id="edge8" class="edge"><title>Node640&#45;&gt;Node644</title>
<path fill="none" stroke="midnightblue" d="M575.294,-109.54C596.808,-114.849 621.732,-120.999 641.919,-125.98"/>
<polygon fill="midnightblue" stroke="midnightblue" points="575.908,-106.087 565.361,-107.089 574.231,-112.883 575.908,-106.087"/>
</g>
<!-- Node645 -->
<g id="node10" class="node"><title>Node645</title>
<g id="a_node10"><a xlink:href="namespaceobe_1_1_modes.html#a1e38c0d9a2ca0230f0de79c298f53ab9" target="_top" xlink:title="A mode that will start the Toolkit. ">
<polygon fill="none" stroke="black" points="787,-96 787,-115 933,-115 933,-96 787,-96"/>
<text text-anchor="middle" x="860" y="-103" font-family="Helvetica,sans-Serif" font-size="10.00">obe::Modes::startToolkitMode</text>
</a>
</g>
</g>
<!-- Node640&#45;&gt;Node645 -->
<g id="edge13" class="edge"><title>Node640&#45;&gt;Node645</title>
<path fill="none" stroke="midnightblue" d="M586.437,-98.9421C642.645,-100.294 726.783,-102.319 786.692,-103.76"/>
<polygon fill="midnightblue" stroke="midnightblue" points="586.36,-95.4393 576.279,-98.6977 586.191,-102.437 586.36,-95.4393"/>
</g>
<!-- Node648 -->
<g id="node13" class="node"><title>Node648</title>
<g id="a_node13"><a xlink:href="classobe_1_1_world_1_1_world.html#a5bd621e3fd9293d949ad0c669cee6838" target="_top" xlink:title="obe::World::World::\lWorld">
<polygon fill="none" stroke="black" points="809.5,-27.5 809.5,-57.5 910.5,-57.5 910.5,-27.5 809.5,-27.5"/>
<text text-anchor="start" x="817.5" y="-45.5" font-family="Helvetica,sans-Serif" font-size="10.00">obe::World::World::</text>
<text text-anchor="middle" x="860" y="-34.5" font-family="Helvetica,sans-Serif" font-size="10.00">World</text>
</a>
</g>
</g>
<!-- Node640&#45;&gt;Node648 -->
<g id="edge14" class="edge"><title>Node640&#45;&gt;Node648</title>
<path fill="none" stroke="midnightblue" d="M586.189,-87.6266C649.947,-77.0802 749.845,-60.5558 809.425,-50.7004"/>
<polygon fill="midnightblue" stroke="midnightblue" points="585.573,-84.1808 576.279,-89.2659 586.716,-91.087 585.573,-84.1808"/>
</g>
<!-- Node649 -->
<g id="node14" class="node"><title>Node649</title>
<g id="a_node14"><a xlink:href="namespaceobe_1_1_world.html#afc958184e59524fdf9dc6ba98a1e9a37" target="_top" xlink:title="obe::World::loadWorldScript\lEngineBaseLib">
<polygon fill="none" stroke="black" points="612,-0.5 612,-30.5 751,-30.5 751,-0.5 612,-0.5"/>
<text text-anchor="start" x="620" y="-18.5" font-family="Helvetica,sans-Serif" font-size="10.00">obe::World::loadWorldScript</text>
<text text-anchor="middle" x="681.5" y="-7.5" font-family="Helvetica,sans-Serif" font-size="10.00">EngineBaseLib</text>
</a>
</g>
</g>
<!-- Node640&#45;&gt;Node649 -->
<g id="edge15" class="edge"><title>Node640&#45;&gt;Node649</title>
<path fill="none" stroke="midnightblue" d="M549.637,-82.2687C566.569,-71.4107 590.282,-56.7959 612,-45.5 622.021,-40.2881 633.142,-35.1539 643.458,-30.6464"/>
<polygon fill="midnightblue" stroke="midnightblue" points="547.477,-79.4976 540.983,-87.8694 551.28,-85.3741 547.477,-79.4976"/>
</g>
<!-- Node642 -->
<g id="node7" class="node"><title>Node642</title>
<g id="a_node7"><a xlink:href="namespaceobe_1_1_script.html#a5dc8321da50fd4b5dc2935e4d8c93a4e" target="_top" xlink:title="obe::Script::loadScrGame\lObject">
<polygon fill="none" stroke="black" points="795.5,-158.5 795.5,-188.5 924.5,-188.5 924.5,-158.5 795.5,-158.5"/>
<text text-anchor="start" x="803.5" y="-176.5" font-family="Helvetica,sans-Serif" font-size="10.00">obe::Script::loadScrGame</text>
<text text-anchor="middle" x="860" y="-165.5" font-family="Helvetica,sans-Serif" font-size="10.00">Object</text>
</a>
</g>
</g>
<!-- Node641&#45;&gt;Node642 -->
<g id="edge6" class="edge"><title>Node641&#45;&gt;Node642</title>
<path fill="none" stroke="midnightblue" d="M756.065,-173.5C769.107,-173.5 782.589,-173.5 795.329,-173.5"/>
<polygon fill="midnightblue" stroke="midnightblue" points="755.722,-170 745.722,-173.5 755.722,-177 755.722,-170"/>
</g>
<!-- Node643 -->
<g id="node8" class="node"><title>Node643</title>
<g id="a_node8"><a xlink:href="classobe_1_1_script_1_1_game_object.html#aa0d58bd1ef0fa2fe9f7567729b2d291e" target="_top" xlink:title="obe::Script::GameObject\l::loadGameObject">
<polygon fill="none" stroke="black" points="973,-158.5 973,-188.5 1098,-188.5 1098,-158.5 973,-158.5"/>
<text text-anchor="start" x="981" y="-176.5" font-family="Helvetica,sans-Serif" font-size="10.00">obe::Script::GameObject</text>
<text text-anchor="middle" x="1035.5" y="-165.5" font-family="Helvetica,sans-Serif" font-size="10.00">::loadGameObject</text>
</a>
</g>
</g>
<!-- Node642&#45;&gt;Node643 -->
<g id="edge7" class="edge"><title>Node642&#45;&gt;Node643</title>
<path fill="none" stroke="midnightblue" d="M934.721,-173.5C947.445,-173.5 960.552,-173.5 972.913,-173.5"/>
<polygon fill="midnightblue" stroke="midnightblue" points="934.62,-170 924.62,-173.5 934.62,-177 934.62,-170"/>
</g>
<!-- Node644&#45;&gt;Node645 -->
<g id="edge9" class="edge"><title>Node644&#45;&gt;Node645</title>
<path fill="none" stroke="midnightblue" d="M749.102,-124.18C766.829,-121.166 785.798,-117.942 802.901,-115.035"/>
<polygon fill="midnightblue" stroke="midnightblue" points="748.103,-120.799 738.831,-125.925 749.276,-127.7 748.103,-120.799"/>
</g>
<!-- Node646 -->
<g id="node11" class="node"><title>Node646</title>
<g id="a_node11"><a xlink:href="namespaceobe_1_1_modes.html#a6a8b08eee511d4895c4da96d4ba223a6" target="_top" xlink:title="obe::Modes::startDevMenu">
<polygon fill="none" stroke="black" points="969,-104 969,-123 1102,-123 1102,-104 969,-104"/>
<text text-anchor="middle" x="1035.5" y="-111" font-family="Helvetica,sans-Serif" font-size="10.00">obe::Modes::startDevMenu</text>
</a>
</g>
</g>
<!-- Node645&#45;&gt;Node646 -->
<g id="edge10" class="edge"><title>Node645&#45;&gt;Node646</title>
<path fill="none" stroke="midnightblue" d="M943.118,-109.286C951.716,-109.683 960.375,-110.082 968.755,-110.469"/>
<polygon fill="midnightblue" stroke="midnightblue" points="943.223,-105.788 933.072,-108.823 942.9,-112.78 943.223,-105.788"/>
</g>
<!-- Node647 -->
<g id="node12" class="node"><title>Node647</title>
<g id="a_node12"><a xlink:href="_ob_engine_8cpp.html#a3c04138a5bfe5d72780bb7e82a18e627" target="_top" xlink:title="main">
<polygon fill="none" stroke="black" points="1138,-85 1138,-104 1176,-104 1176,-85 1138,-85"/>
<text text-anchor="middle" x="1157" y="-92" font-family="Helvetica,sans-Serif" font-size="10.00">main</text>
</a>
</g>
</g>
<!-- Node645&#45;&gt;Node647 -->
<g id="edge12" class="edge"><title>Node645&#45;&gt;Node647</title>
<path fill="none" stroke="midnightblue" d="M943.367,-96.2384C952.013,-95.5273 960.68,-94.9226 969,-94.5 1030.93,-91.3544 1104.54,-92.9026 1137.93,-93.8916"/>
<polygon fill="midnightblue" stroke="midnightblue" points="942.909,-92.765 933.249,-97.1177 943.515,-99.7387 942.909,-92.765"/>
</g>
<!-- Node646&#45;&gt;Node647 -->
<g id="edge11" class="edge"><title>Node646&#45;&gt;Node647</title>
<path fill="none" stroke="midnightblue" d="M1106.82,-102.319C1118.35,-100.487 1129.33,-98.7409 1137.98,-97.3654"/>
<polygon fill="midnightblue" stroke="midnightblue" points="1105.93,-98.9174 1096.6,-103.944 1107.03,-105.831 1105.93,-98.9174"/>
</g>
<!-- Node649&#45;&gt;Node648 -->
<g id="edge16" class="edge"><title>Node649&#45;&gt;Node648</title>
<path fill="none" stroke="midnightblue" d="M761.323,-27.558C777.633,-30.0528 794.376,-32.6142 809.292,-34.8959"/>
<polygon fill="midnightblue" stroke="midnightblue" points="761.659,-24.0687 751.245,-26.0162 760.601,-30.9882 761.659,-24.0687"/>
</g>
</g>
</svg>
        <g id="navigator" transform="translate(0 0)" fill="#404254">
                <rect fill="#f2f5e9" fill-opacity="0.5" stroke="#606060" stroke-width=".5" x="0" y="0" width="60" height="60"/>
                <use id="zoomplus" xlink:href="#zoomPlus" x="17" y="9" onmousedown="handleZoom(evt,'in')"/>
                <use id="zoomminus" xlink:href="#zoomMin" x="42" y="9" onmousedown="handleZoom(evt,'out')"/>
                <use id="reset" xlink:href="#resetDef" x="30" y="36" onmousedown="handleReset()"/>
                <g id="arrowUp" xlink:href="#dirArrow" transform="translate(30 24)" onmousedown="handlePan(0,-1)">
                  <use xlink:href="#rim" fill="#404040">
                        <set attributeName="fill" to="#808080" begin="arrowUp.mouseover" end="arrowUp.mouseout"/>
                  </use>
                  <path fill="none" stroke="white" stroke-width="1.5" d="M0,-3.0v7 M-2.5,-0.5L0,-3.0L2.5,-0.5"/>
                </g>
                <g id="arrowRight" xlink:href="#dirArrow" transform="rotate(90) translate(36 -43)" onmousedown="handlePan(1,0)">
                  <use xlink:href="#rim" fill="#404040">
                        <set attributeName="fill" to="#808080" begin="arrowRight.mouseover" end="arrowRight.mouseout"/>
                  </use>
                  <path fill="none" stroke="white" stroke-width="1.5" d="M0,-3.0v7 M-2.5,-0.5L0,-3.0L2.5,-0.5"/>
                </g>
                <g id="arrowDown" xlink:href="#dirArrow" transform="rotate(180) translate(-30 -48)" onmousedown="handlePan(0,1)">
                  <use xlink:href="#rim" fill="#404040">
                        <set attributeName="fill" to="#808080" begin="arrowDown.mouseover" end="arrowDown.mouseout"/>
                  </use>
                  <path fill="none" stroke="white" stroke-width="1.5" d="M0,-3.0v7 M-2.5,-0.5L0,-3.0L2.5,-0.5"/>
                </g>
                <g id="arrowLeft" xlink:href="#dirArrow" transform="rotate(270) translate(-36 17)" onmousedown="handlePan(-1,0)">
                  <use xlink:href="#rim" fill="#404040">
                        <set attributeName="fill" to="#808080" begin="arrowLeft.mouseover" end="arrowLeft.mouseout"/>
                  </use>
                  <path fill="none" stroke="white" stroke-width="1.5" d="M0,-3.0v7 M-2.5,-0.5L0,-3.0L2.5,-0.5"/>
                </g>
        </g>
        <svg viewBox="0 0 15 15" width="100%" height="30px" preserveAspectRatio="xMaxYMin meet">
         <g id="arrow_out" transform="scale(0.3 0.3)">
          <a xlink:href="classvili_1_1_complex_attribute_a5463ea425c7591cbc567d8ebd2648a8b_icgraph_org.svg" target="_base">
           <rect id="button" ry="5" rx="5" y="6" x="6" height="38" width="38"
                fill="#f2f5e9" fill-opacity="0.5" stroke="#606060" stroke-width="1.0"/>
           <path id="arrow"
             d="M 11.500037,31.436501 C 11.940474,20.09759 22.043105,11.32322 32.158766,21.979434 L 37.068811,17.246167 C 37.068811,17.246167 37.088388,32 37.088388,32 L 22.160133,31.978069 C 22.160133,31.978069 26.997745,27.140456 26.997745,27.140456 C 18.528582,18.264221 13.291696,25.230495 11.500037,31.436501 z"
             style="fill:#404040;"/>
          </a>
         </g>
        </svg>
</svg>
