<?xml version="1.0" encoding="UTF-8" standalone="no"?>
<!DOCTYPE svg PUBLIC "-//W3C//DTD SVG 1.1//EN"
 "http://www.w3.org/Graphics/SVG/1.1/DTD/svg11.dtd">
<!-- Generated by graphviz version 2.38.0 (20140413.2041)
 -->
<!-- Title: obe::Debug::Console::pushMessage Pages: 1 -->
<svg width="257pt" height="137pt"
 viewBox="0.00 0.00 257.00 137.00" xmlns="http://www.w3.org/2000/svg" xmlns:xlink="http://www.w3.org/1999/xlink">
<g id="graph0" class="graph" transform="scale(1 1) rotate(0) translate(4 133)">
<title>obe::Debug::Console::pushMessage</title>
<!-- Node151 -->
<g id="node1" class="node"><title>Node151</title>
<polygon fill="#bfbfbf" stroke="black" points="0,-49.5 0,-79.5 107,-79.5 107,-49.5 0,-49.5"/>
<text text-anchor="start" x="8" y="-67.5" font-family="Helvetica,sans-Serif" font-size="10.00">obe::Debug::Console</text>
<text text-anchor="middle" x="53.5" y="-56.5" font-family="Helvetica,sans-Serif" font-size="10.00">::pushMessage</text>
</g>
<!-- Node152 -->
<g id="node2" class="node"><title>Node152</title>
<g id="a_node2"><a xlink:href="namespaceobe_1_1_utils_1_1_string.html#a6304ccfbd6a3bf086bd3189609381f70" target="_top" xlink:title="obe::Utils::String\l::occurencesInString">
<polygon fill="white" stroke="black" points="143,-98.5 143,-128.5 249,-128.5 249,-98.5 143,-98.5"/>
<text text-anchor="start" x="151" y="-116.5" font-family="Helvetica,sans-Serif" font-size="10.00">obe::Utils::String</text>
<text text-anchor="middle" x="196" y="-105.5" font-family="Helvetica,sans-Serif" font-size="10.00">::occurencesInString</text>
</a>
</g>
</g>
<!-- Node151&#45;&gt;Node152 -->
<g id="edge1" class="edge"><title>Node151&#45;&gt;Node152</title>
<path fill="none" stroke="midnightblue" d="M97.8011,-79.6014C111.689,-84.4451 127.234,-89.8664 141.749,-94.9285"/>
<polygon fill="midnightblue" stroke="midnightblue" points="141.005,-98.3758 151.6,-98.3641 143.31,-91.7662 141.005,-98.3758"/>
</g>
<!-- Node153 -->
<g id="node3" class="node"><title>Node153</title>
<g id="a_node3"><a xlink:href="namespaceobe_1_1_utils_1_1_string.html#a074d624ca5936545dc32c0b5e423050d" target="_top" xlink:title="obe::Utils::String\l::split">
<polygon fill="white" stroke="black" points="151.5,-49.5 151.5,-79.5 240.5,-79.5 240.5,-49.5 151.5,-49.5"/>
<text text-anchor="start" x="159.5" y="-67.5" font-family="Helvetica,sans-Serif" font-size="10.00">obe::Utils::String</text>
<text text-anchor="middle" x="196" y="-56.5" font-family="Helvetica,sans-Serif" font-size="10.00">::split</text>
</a>
</g>
</g>
<!-- Node151&#45;&gt;Node153 -->
<g id="edge2" class="edge"><title>Node151&#45;&gt;Node153</title>
<path fill="none" stroke="midnightblue" d="M107.217,-64.5C118.305,-64.5 130.017,-64.5 141.146,-64.5"/>
<polygon fill="midnightblue" stroke="midnightblue" points="141.169,-68.0001 151.169,-64.5 141.169,-61.0001 141.169,-68.0001"/>
</g>
<!-- Node154 -->
<g id="node4" class="node"><title>Node154</title>
<g id="a_node4"><a xlink:href="namespaceobe_1_1_utils_1_1_vector.html#a636b7f465d67c2bf42a297f221af9cfe" target="_top" xlink:title="obe::Utils::Vector\l::isInList">
<polygon fill="white" stroke="black" points="150,-0.5 150,-30.5 242,-30.5 242,-0.5 150,-0.5"/>
<text text-anchor="start" x="158" y="-18.5" font-family="Helvetica,sans-Serif" font-size="10.00">obe::Utils::Vector</text>
<text text-anchor="middle" x="196" y="-7.5" font-family="Helvetica,sans-Serif" font-size="10.00">::isInList</text>
</a>
</g>
</g>
<!-- Node151&#45;&gt;Node154 -->
<g id="edge3" class="edge"><title>Node151&#45;&gt;Node154</title>
<path fill="none" stroke="midnightblue" d="M97.8011,-49.3986C111.689,-44.5549 127.234,-39.1336 141.749,-34.0715"/>
<polygon fill="midnightblue" stroke="midnightblue" points="143.31,-37.2338 151.6,-30.6359 141.005,-30.6242 143.31,-37.2338"/>
</g>
</g>
</svg>
