<?xml version="1.0" encoding="UTF-8" standalone="no"?>
<!DOCTYPE svg PUBLIC "-//W3C//DTD SVG 1.1//EN"
 "http://www.w3.org/Graphics/SVG/1.1/DTD/svg11.dtd">
<!-- Generated by graphviz version 2.38.0 (20140413.2041)
 -->
<!-- Title: obe::Debug::Console::upHistory Pages: 1 -->
<svg width="541pt" height="78pt"
 viewBox="0.00 0.00 541.00 77.50" xmlns="http://www.w3.org/2000/svg" xmlns:xlink="http://www.w3.org/1999/xlink">
<g id="graph0" class="graph" transform="scale(1 1) rotate(0) translate(4 73.5)">
<title>obe::Debug::Console::upHistory</title>
<!-- Node131 -->
<g id="node1" class="node"><title>Node131</title>
<polygon fill="#bfbfbf" stroke="black" points="0,-17 0,-47 107,-47 107,-17 0,-17"/>
<text text-anchor="start" x="8" y="-35" font-family="Helvetica,sans-Serif" font-size="10.00">obe::Debug::Console</text>
<text text-anchor="middle" x="53.5" y="-24" font-family="Helvetica,sans-Serif" font-size="10.00">::upHistory</text>
</g>
<!-- Node132 -->
<g id="node2" class="node"><title>Node132</title>
<g id="a_node2"><a xlink:href="namespaceobe_1_1_bindings_1_1_debug_bindings.html#ac4745da23e2a90b8a1da52b120cd2423" target="_top" xlink:title="obe::Bindings::DebugBindings\l::LoadConsole">
<polygon fill="white" stroke="black" points="143,-39 143,-69 290,-69 290,-39 143,-39"/>
<text text-anchor="start" x="151" y="-57" font-family="Helvetica,sans-Serif" font-size="10.00">obe::Bindings::DebugBindings</text>
<text text-anchor="middle" x="216.5" y="-46" font-family="Helvetica,sans-Serif" font-size="10.00">::LoadConsole</text>
</a>
</g>
</g>
<!-- Node131&#45;&gt;Node132 -->
<g id="edge1" class="edge"><title>Node131&#45;&gt;Node132</title>
<path fill="none" stroke="midnightblue" d="M117.264,-40.5765C125.631,-41.7198 134.268,-42.8999 142.787,-44.064"/>
<polygon fill="midnightblue" stroke="midnightblue" points="117.599,-37.0898 107.217,-39.2036 116.651,-44.0254 117.599,-37.0898"/>
</g>
<!-- Node133 -->
<g id="node3" class="node"><title>Node133</title>
<g id="a_node3"><a xlink:href="namespaceobe_1_1_editor.html#a9009207671e71dccb68a31ea2362e9ef" target="_top" xlink:title="Starts the map edition. ">
<polygon fill="white" stroke="black" points="164.5,-0.5 164.5,-19.5 268.5,-19.5 268.5,-0.5 164.5,-0.5"/>
<text text-anchor="middle" x="216.5" y="-7.5" font-family="Helvetica,sans-Serif" font-size="10.00">obe::Editor::editMap</text>
</a>
</g>
</g>
<!-- Node131&#45;&gt;Node133 -->
<g id="edge2" class="edge"><title>Node131&#45;&gt;Node133</title>
<path fill="none" stroke="midnightblue" d="M117.291,-23.4199C132.864,-21.2919 149.367,-19.0368 164.31,-16.9949"/>
<polygon fill="midnightblue" stroke="midnightblue" points="116.651,-19.9746 107.217,-24.7964 117.599,-26.9102 116.651,-19.9746"/>
</g>
<!-- Node134 -->
<g id="node4" class="node"><title>Node134</title>
<g id="a_node4"><a xlink:href="namespaceobe_1_1_modes.html#a6a8b08eee511d4895c4da96d4ba223a6" target="_top" xlink:title="Starts the development Menu where you can starts other menus from. ">
<polygon fill="white" stroke="black" points="326,-19.5 326,-38.5 459,-38.5 459,-19.5 326,-19.5"/>
<text text-anchor="middle" x="392.5" y="-26.5" font-family="Helvetica,sans-Serif" font-size="10.00">obe::Modes::startDevMenu</text>
</a>
</g>
</g>
<!-- Node133&#45;&gt;Node134 -->
<g id="edge3" class="edge"><title>Node133&#45;&gt;Node134</title>
<path fill="none" stroke="midnightblue" d="M279.032,-16.7191C294.16,-18.3709 310.415,-20.1458 325.734,-21.8186"/>
<polygon fill="midnightblue" stroke="midnightblue" points="279.085,-13.2041 268.765,-15.5979 278.326,-20.1628 279.085,-13.2041"/>
</g>
<!-- Node135 -->
<g id="node5" class="node"><title>Node135</title>
<g id="a_node5"><a xlink:href="_ob_engine_8cpp.html#a3c04138a5bfe5d72780bb7e82a18e627" target="_top" xlink:title="main">
<polygon fill="white" stroke="black" points="495,-0.5 495,-19.5 533,-19.5 533,-0.5 495,-0.5"/>
<text text-anchor="middle" x="514" y="-7.5" font-family="Helvetica,sans-Serif" font-size="10.00">main</text>
</a>
</g>
</g>
<!-- Node133&#45;&gt;Node135 -->
<g id="edge5" class="edge"><title>Node133&#45;&gt;Node135</title>
<path fill="none" stroke="midnightblue" d="M278.809,-10C346.905,-10 452.785,-10 494.866,-10"/>
<polygon fill="midnightblue" stroke="midnightblue" points="278.635,-6.5001 268.635,-10 278.635,-13.5001 278.635,-6.5001"/>
</g>
<!-- Node134&#45;&gt;Node135 -->
<g id="edge4" class="edge"><title>Node134&#45;&gt;Node135</title>
<path fill="none" stroke="midnightblue" d="M463.822,-17.8192C475.345,-15.9869 486.327,-14.2409 494.978,-12.8654"/>
<polygon fill="midnightblue" stroke="midnightblue" points="462.926,-14.4174 453.6,-19.4443 464.026,-21.3306 462.926,-14.4174"/>
</g>
</g>
</svg>
