<?xml version="1.0" encoding="UTF-8" standalone="no"?>
<!DOCTYPE svg PUBLIC "-//W3C//DTD SVG 1.1//EN"
 "http://www.w3.org/Graphics/SVG/1.1/DTD/svg11.dtd">
<!-- Generated by graphviz version 2.38.0 (20140413.2041)
 -->
<!-- Title: obe::Input::InputCondition::setCombinationCode Pages: 1 -->
<svg width="730pt" height="121pt"
 viewBox="0.00 0.00 730.00 120.50" xmlns="http://www.w3.org/2000/svg" xmlns:xlink="http://www.w3.org/1999/xlink">
<g id="graph0" class="graph" transform="scale(1 1) rotate(0) translate(4 116.5)">
<title>obe::Input::InputCondition::setCombinationCode</title>
<!-- Node25 -->
<g id="node1" class="node"><title>Node25</title>
<polygon fill="#bfbfbf" stroke="black" points="0,-57 0,-87 127,-87 127,-57 0,-57"/>
<text text-anchor="start" x="8" y="-75" font-family="Helvetica,sans-Serif" font-size="10.00">obe::Input::InputCondition</text>
<text text-anchor="middle" x="63.5" y="-64" font-family="Helvetica,sans-Serif" font-size="10.00">::setCombinationCode</text>
</g>
<!-- Node26 -->
<g id="node2" class="node"><title>Node26</title>
<g id="a_node2"><a xlink:href="namespaceobe_1_1_bindings_1_1_input_bindings.html#a4498db674cd3c2fbe605e0676eef751d" target="_top" xlink:title="obe::Bindings::InputBindings\l::LoadInputCondition">
<polygon fill="white" stroke="black" points="163,-82 163,-112 303,-112 303,-82 163,-82"/>
<text text-anchor="start" x="171" y="-100" font-family="Helvetica,sans-Serif" font-size="10.00">obe::Bindings::InputBindings</text>
<text text-anchor="middle" x="233" y="-89" font-family="Helvetica,sans-Serif" font-size="10.00">::LoadInputCondition</text>
</a>
</g>
</g>
<!-- Node25&#45;&gt;Node26 -->
<g id="edge1" class="edge"><title>Node25&#45;&gt;Node26</title>
<path fill="none" stroke="midnightblue" d="M137.252,-82.8585C145.768,-84.1296 154.439,-85.4237 162.903,-86.6871"/>
<polygon fill="midnightblue" stroke="midnightblue" points="137.755,-79.3948 127.347,-81.3802 136.721,-86.3181 137.755,-79.3948"/>
</g>
<!-- Node27 -->
<g id="node3" class="node"><title>Node27</title>
<g id="a_node3"><a xlink:href="classobe_1_1_input_1_1_input_manager.html#adf10d43635b0d5c29bbb4839d083e150" target="_top" xlink:title="Configure KeyboardAction from a vili configuration file. ">
<polygon fill="white" stroke="black" points="171,-33 171,-63 295,-63 295,-33 171,-33"/>
<text text-anchor="start" x="179" y="-51" font-family="Helvetica,sans-Serif" font-size="10.00">obe::Input::InputManager</text>
<text text-anchor="middle" x="233" y="-40" font-family="Helvetica,sans-Serif" font-size="10.00">::configure</text>
</a>
</g>
</g>
<!-- Node25&#45;&gt;Node27 -->
<g id="edge2" class="edge"><title>Node25&#45;&gt;Node27</title>
<path fill="none" stroke="midnightblue" d="M137.452,-61.5472C148.559,-59.9557 159.923,-58.3274 170.746,-56.7767"/>
<polygon fill="midnightblue" stroke="midnightblue" points="136.75,-58.112 127.347,-62.995 137.743,-65.0412 136.75,-58.112"/>
</g>
<!-- Node28 -->
<g id="node4" class="node"><title>Node28</title>
<g id="a_node4"><a xlink:href="namespaceobe_1_1_bindings_1_1_input_bindings.html#a0e18c5fd5d863156b05c62dafface3b3" target="_top" xlink:title="obe::Bindings::InputBindings\l::LoadInputManager">
<polygon fill="white" stroke="black" points="339,-77 339,-107 479,-107 479,-77 339,-77"/>
<text text-anchor="start" x="347" y="-95" font-family="Helvetica,sans-Serif" font-size="10.00">obe::Bindings::InputBindings</text>
<text text-anchor="middle" x="409" y="-84" font-family="Helvetica,sans-Serif" font-size="10.00">::LoadInputManager</text>
</a>
</g>
</g>
<!-- Node27&#45;&gt;Node28 -->
<g id="edge3" class="edge"><title>Node27&#45;&gt;Node28</title>
<path fill="none" stroke="midnightblue" d="M303.147,-65.4855C318.181,-69.2873 333.959,-73.277 348.578,-76.9738"/>
<polygon fill="midnightblue" stroke="midnightblue" points="303.947,-62.0777 293.394,-63.0192 302.231,-68.8641 303.947,-62.0777"/>
</g>
<!-- Node29 -->
<g id="node5" class="node"><title>Node29</title>
<g id="a_node5"><a xlink:href="namespaceobe_1_1_editor.html#a9009207671e71dccb68a31ea2362e9ef" target="_top" xlink:title="Starts the map edition. ">
<polygon fill="white" stroke="black" points="357,-38.5 357,-57.5 461,-57.5 461,-38.5 357,-38.5"/>
<text text-anchor="middle" x="409" y="-45.5" font-family="Helvetica,sans-Serif" font-size="10.00">obe::Editor::editMap</text>
</a>
</g>
</g>
<!-- Node27&#45;&gt;Node29 -->
<g id="edge4" class="edge"><title>Node27&#45;&gt;Node29</title>
<path fill="none" stroke="midnightblue" d="M305.408,-48C322.7,-48 340.842,-48 356.979,-48"/>
<polygon fill="midnightblue" stroke="midnightblue" points="305.346,-44.5001 295.346,-48 305.346,-51.5001 305.346,-44.5001"/>
</g>
<!-- Node32 -->
<g id="node8" class="node"><title>Node32</title>
<g id="a_node8"><a xlink:href="namespaceobe_1_1_modes.html#a5f4a1008892030350b06282b8dee1a89" target="_top" xlink:title="Start the game by loading the boot.lua file in one of the MountedPaths. ">
<polygon fill="white" stroke="black" points="349.5,-0.5 349.5,-19.5 468.5,-19.5 468.5,-0.5 349.5,-0.5"/>
<text text-anchor="middle" x="409" y="-7.5" font-family="Helvetica,sans-Serif" font-size="10.00">obe::Modes::startGame</text>
</a>
</g>
</g>
<!-- Node27&#45;&gt;Node32 -->
<g id="edge8" class="edge"><title>Node27&#45;&gt;Node32</title>
<path fill="none" stroke="midnightblue" d="M305.371,-32.4132C325.385,-28.0422 346.541,-23.4221 364.411,-19.5195"/>
<polygon fill="midnightblue" stroke="midnightblue" points="304.369,-29.0495 295.346,-34.6026 305.862,-35.8883 304.369,-29.0495"/>
</g>
<!-- Node30 -->
<g id="node6" class="node"><title>Node30</title>
<g id="a_node6"><a xlink:href="namespaceobe_1_1_modes.html#a6a8b08eee511d4895c4da96d4ba223a6" target="_top" xlink:title="Starts the development Menu where you can starts other menus from. ">
<polygon fill="white" stroke="black" points="515,-19.5 515,-38.5 648,-38.5 648,-19.5 515,-19.5"/>
<text text-anchor="middle" x="581.5" y="-26.5" font-family="Helvetica,sans-Serif" font-size="10.00">obe::Modes::startDevMenu</text>
</a>
</g>
</g>
<!-- Node29&#45;&gt;Node30 -->
<g id="edge5" class="edge"><title>Node29&#45;&gt;Node30</title>
<path fill="none" stroke="midnightblue" d="M471.26,-41.1733C485.405,-39.5971 500.508,-37.9141 514.832,-36.3179"/>
<polygon fill="midnightblue" stroke="midnightblue" points="470.706,-37.7133 461.156,-42.2994 471.482,-44.6702 470.706,-37.7133"/>
</g>
<!-- Node31 -->
<g id="node7" class="node"><title>Node31</title>
<g id="a_node7"><a xlink:href="_ob_engine_8cpp.html#a3c04138a5bfe5d72780bb7e82a18e627" target="_top" xlink:title="main">
<polygon fill="white" stroke="black" points="684,-19.5 684,-38.5 722,-38.5 722,-19.5 684,-19.5"/>
<text text-anchor="middle" x="703" y="-26.5" font-family="Helvetica,sans-Serif" font-size="10.00">main</text>
</a>
</g>
</g>
<!-- Node29&#45;&gt;Node31 -->
<g id="edge7" class="edge"><title>Node29&#45;&gt;Node31</title>
<path fill="none" stroke="midnightblue" d="M471.02,-53.6187C519.384,-56.726 588.491,-58.1638 648,-48 660.344,-45.8918 673.618,-41.2561 683.917,-37.0917"/>
<polygon fill="midnightblue" stroke="midnightblue" points="471.241,-50.1257 461.025,-52.9338 470.762,-57.1093 471.241,-50.1257"/>
</g>
<!-- Node30&#45;&gt;Node31 -->
<g id="edge6" class="edge"><title>Node30&#45;&gt;Node31</title>
<path fill="none" stroke="midnightblue" d="M658.438,-29C667.719,-29 676.436,-29 683.598,-29"/>
<polygon fill="midnightblue" stroke="midnightblue" points="658.193,-25.5001 648.193,-29 658.193,-32.5001 658.193,-25.5001"/>
</g>
<!-- Node32&#45;&gt;Node30 -->
<g id="edge9" class="edge"><title>Node32&#45;&gt;Node30</title>
<path fill="none" stroke="midnightblue" d="M478.626,-17.6475C490.625,-18.9846 503.082,-20.3727 514.994,-21.7002"/>
<polygon fill="midnightblue" stroke="midnightblue" points="479.003,-14.1679 468.676,-16.5387 478.227,-21.1248 479.003,-14.1679"/>
</g>
<!-- Node32&#45;&gt;Node31 -->
<g id="edge10" class="edge"><title>Node32&#45;&gt;Node31</title>
<path fill="none" stroke="midnightblue" d="M478.896,-3.90191C526.697,-1.15403 591.651,-0.375938 648,-10 660.344,-12.1082 673.618,-16.7439 683.917,-20.9083"/>
<polygon fill="midnightblue" stroke="midnightblue" points="478.425,-0.42423 468.661,-4.53528 478.858,-7.41087 478.425,-0.42423"/>
</g>
</g>
</svg>
