<?xml version="1.0" encoding="UTF-8" standalone="no"?>
<!DOCTYPE svg PUBLIC "-//W3C//DTD SVG 1.1//EN"
 "http://www.w3.org/Graphics/SVG/1.1/DTD/svg11.dtd">
<!-- Generated by graphviz version 2.38.0 (20140413.2041)
 -->
<!-- Title: obe::Debug::Console::getStream Pages: 1 -->
<svg width="389pt" height="186pt"
 viewBox="0.00 0.00 389.00 186.00" xmlns="http://www.w3.org/2000/svg" xmlns:xlink="http://www.w3.org/1999/xlink">
<g id="graph0" class="graph" transform="scale(1 1) rotate(0) translate(4 182)">
<title>obe::Debug::Console::getStream</title>
<!-- Node69 -->
<g id="node1" class="node"><title>Node69</title>
<polygon fill="#bfbfbf" stroke="black" points="0,-97.5 0,-127.5 107,-127.5 107,-97.5 0,-97.5"/>
<text text-anchor="start" x="8" y="-115.5" font-family="Helvetica,sans-Serif" font-size="10.00">obe::Debug::Console</text>
<text text-anchor="middle" x="53.5" y="-104.5" font-family="Helvetica,sans-Serif" font-size="10.00">::getStream</text>
</g>
<!-- Node70 -->
<g id="node2" class="node"><title>Node70</title>
<g id="a_node2"><a xlink:href="namespaceobe_1_1_utils_1_1_vector.html#a636b7f465d67c2bf42a297f221af9cfe" target="_top" xlink:title="obe::Utils::Vector\l::isInList">
<polygon fill="none" stroke="black" points="146,-122.5 146,-152.5 238,-152.5 238,-122.5 146,-122.5"/>
<text text-anchor="start" x="154" y="-140.5" font-family="Helvetica,sans-Serif" font-size="10.00">obe::Utils::Vector</text>
<text text-anchor="middle" x="192" y="-129.5" font-family="Helvetica,sans-Serif" font-size="10.00">::isInList</text>
</a>
</g>
</g>
<!-- Node69&#45;&gt;Node70 -->
<g id="edge1" class="edge"><title>Node69&#45;&gt;Node70</title>
<path fill="none" stroke="midnightblue" d="M107.274,-122.166C116.64,-123.881 126.417,-125.672 135.847,-127.399"/>
<polygon fill="midnightblue" stroke="midnightblue" points="135.44,-130.882 145.907,-129.241 136.701,-123.997 135.44,-130.882"/>
</g>
<!-- Node71 -->
<g id="node3" class="node"><title>Node71</title>
<g id="a_node3"><a xlink:href="classaube_1_1_error_handler.html#a7c8d44a3e7f019646d289950abc5301b" target="_top" xlink:title="aube::ErrorHandler\l::Raise">
<polygon fill="none" stroke="black" points="143,-73.5 143,-103.5 241,-103.5 241,-73.5 143,-73.5"/>
<text text-anchor="start" x="151" y="-91.5" font-family="Helvetica,sans-Serif" font-size="10.00">aube::ErrorHandler</text>
<text text-anchor="middle" x="192" y="-80.5" font-family="Helvetica,sans-Serif" font-size="10.00">::Raise</text>
</a>
</g>
</g>
<!-- Node69&#45;&gt;Node71 -->
<g id="edge2" class="edge"><title>Node69&#45;&gt;Node71</title>
<path fill="none" stroke="midnightblue" d="M107.274,-103.221C115.686,-101.742 124.429,-100.205 132.955,-98.7058"/>
<polygon fill="midnightblue" stroke="midnightblue" points="133.587,-102.148 142.83,-96.9694 132.375,-95.2541 133.587,-102.148"/>
</g>
<!-- Node72 -->
<g id="node4" class="node"><title>Node72</title>
<g id="a_node4"><a xlink:href="classaube_1_1_error_message.html#a3a39b6fcd8fdb12eaf6383123535b8ca" target="_top" xlink:title="aube::ErrorMessage\l::getFile">
<polygon fill="none" stroke="black" points="277,-147.5 277,-177.5 381,-177.5 381,-147.5 277,-147.5"/>
<text text-anchor="start" x="285" y="-165.5" font-family="Helvetica,sans-Serif" font-size="10.00">aube::ErrorMessage</text>
<text text-anchor="middle" x="329" y="-154.5" font-family="Helvetica,sans-Serif" font-size="10.00">::getFile</text>
</a>
</g>
</g>
<!-- Node71&#45;&gt;Node72 -->
<g id="edge3" class="edge"><title>Node71&#45;&gt;Node72</title>
<path fill="none" stroke="midnightblue" d="M223.281,-103.527C229.231,-106.688 235.371,-110.098 241,-113.5 257.672,-123.575 260.128,-128.763 277,-138.5 279.503,-139.944 282.107,-141.375 284.756,-142.776"/>
<polygon fill="midnightblue" stroke="midnightblue" points="283.35,-145.987 293.85,-147.399 286.522,-139.747 283.35,-145.987"/>
</g>
<!-- Node73 -->
<g id="node5" class="node"><title>Node73</title>
<g id="a_node5"><a xlink:href="classaube_1_1_error_message.html#a9184cc96589578f434351c105b0cd5f7" target="_top" xlink:title="aube::ErrorMessage\l::getLocation">
<polygon fill="none" stroke="black" points="277,-98.5 277,-128.5 381,-128.5 381,-98.5 277,-98.5"/>
<text text-anchor="start" x="285" y="-116.5" font-family="Helvetica,sans-Serif" font-size="10.00">aube::ErrorMessage</text>
<text text-anchor="middle" x="329" y="-105.5" font-family="Helvetica,sans-Serif" font-size="10.00">::getLocation</text>
</a>
</g>
</g>
<!-- Node71&#45;&gt;Node73 -->
<g id="edge4" class="edge"><title>Node71&#45;&gt;Node73</title>
<path fill="none" stroke="midnightblue" d="M241.357,-97.455C249.622,-98.9856 258.306,-100.594 266.852,-102.176"/>
<polygon fill="midnightblue" stroke="midnightblue" points="266.318,-105.637 276.788,-104.016 267.592,-98.7538 266.318,-105.637"/>
</g>
<!-- Node74 -->
<g id="node6" class="node"><title>Node74</title>
<g id="a_node6"><a xlink:href="classaube_1_1_error_message.html#a07927cb3e2d0712c459cc9e2b5f52696" target="_top" xlink:title="aube::ErrorMessage\l::getMessage">
<polygon fill="none" stroke="black" points="277,-49.5 277,-79.5 381,-79.5 381,-49.5 277,-49.5"/>
<text text-anchor="start" x="285" y="-67.5" font-family="Helvetica,sans-Serif" font-size="10.00">aube::ErrorMessage</text>
<text text-anchor="middle" x="329" y="-56.5" font-family="Helvetica,sans-Serif" font-size="10.00">::getMessage</text>
</a>
</g>
</g>
<!-- Node71&#45;&gt;Node74 -->
<g id="edge5" class="edge"><title>Node71&#45;&gt;Node74</title>
<path fill="none" stroke="midnightblue" d="M241.357,-79.9032C249.622,-78.4338 258.306,-76.8901 266.852,-75.3708"/>
<polygon fill="midnightblue" stroke="midnightblue" points="267.555,-78.8008 276.788,-73.6044 266.33,-71.9088 267.555,-78.8008"/>
</g>
<!-- Node75 -->
<g id="node7" class="node"><title>Node75</title>
<g id="a_node7"><a xlink:href="classaube_1_1_error_message.html#a77c2f9b7e93542c958173b52da267989" target="_top" xlink:title="aube::ErrorMessage\l::getHints">
<polygon fill="none" stroke="black" points="277,-0.5 277,-30.5 381,-30.5 381,-0.5 277,-0.5"/>
<text text-anchor="start" x="285" y="-18.5" font-family="Helvetica,sans-Serif" font-size="10.00">aube::ErrorMessage</text>
<text text-anchor="middle" x="329" y="-7.5" font-family="Helvetica,sans-Serif" font-size="10.00">::getHints</text>
</a>
</g>
</g>
<!-- Node71&#45;&gt;Node75 -->
<g id="edge6" class="edge"><title>Node71&#45;&gt;Node75</title>
<path fill="none" stroke="midnightblue" d="M218.5,-73.3689C235.032,-63.6992 257.114,-51.042 277,-40.5 280.332,-38.7334 283.808,-36.9366 287.308,-35.158"/>
<polygon fill="midnightblue" stroke="midnightblue" points="289.182,-38.1343 296.555,-30.526 286.046,-31.8757 289.182,-38.1343"/>
</g>
</g>
</svg>
