<?xml version="1.0" encoding="UTF-8" standalone="no"?>
<!DOCTYPE svg PUBLIC "-//W3C//DTD SVG 1.1//EN"
 "http://www.w3.org/Graphics/SVG/1.1/DTD/svg11.dtd">
<!-- Generated by graphviz version 2.38.0 (20140413.2041)
 -->
<!-- Title: obe::Collision::PolygonalCollider::getDistanceFromPoint Pages: 1 -->
<!--zoomable 340 -->
<svg id="main" version="1.1" xmlns="http://www.w3.org/2000/svg" xmlns:xlink="http://www.w3.org/1999/xlink" xml:space="preserve" onload="init(evt)">
<style type="text/css"><![CDATA[
.edge:hover path { stroke: red; }
.edge:hover polygon { stroke: red; fill: red; }
.edge path { stroke: white; }
.edge polygon { stroke: white; fill: white; }
.node polygon { fill: white; }
]]></style>
<script type="text/javascript"><![CDATA[
var edges = document.getElementsByTagName('g');
if (edges && edges.length) {
  for (var i=0;i<edges.length;i++) {
    if (edges[i].id.substr(0,4)=='edge') {
      edges[i].setAttribute('class','edge');
    }
  }
}
]]></script>
        <defs>
                <circle id="rim" cx="0" cy="0" r="7"/>
                <circle id="rim2" cx="0" cy="0" r="3.5"/>
                <g id="zoomPlus">
                        <use xlink:href="#rim" fill="#404040">
                                <set attributeName="fill" to="#808080" begin="zoomplus.mouseover" end="zoomplus.mouseout"/>
                        </use>
                        <path d="M-4,0h8M0,-4v8" fill="none" stroke="white" stroke-width="1.5" pointer-events="none"/>
                </g>
                <g id="zoomMin">
                        <use xlink:href="#rim" fill="#404040">
                                <set attributeName="fill" to="#808080" begin="zoomminus.mouseover" end="zoomminus.mouseout"/>
                        </use>
                        <path d="M-4,0h8" fill="none" stroke="white" stroke-width="1.5" pointer-events="none"/>
                </g>
                <g id="dirArrow">
                        <path fill="none" stroke="white" stroke-width="1.5" d="M0,-3.0v7 M-2.5,-0.5L0,-3.0L2.5,-0.5"/>
                </g>
               <g id="resetDef">
                       <use xlink:href="#rim2" fill="#404040">
                               <set attributeName="fill" to="#808080" begin="reset.mouseover" end="reset.mouseout"/>
                       </use>
               </g>
        </defs>

<script type="text/javascript">
var viewWidth = 1915;
var viewHeight = 340;
var sectionId = 'dynsection-33';
</script>
<script xlink:href="svgpan.js"/>
<svg id="graph" class="graph">
<g id="viewport">
<title>obe::Collision::PolygonalCollider::getDistanceFromPoint</title>
<!-- Node355 -->
<g id="node1" class="node"><title>Node355</title>
<polygon fill="#bfbfbf" stroke="black" points="0,-250.805 0,-280.805 152,-280.805 152,-250.805 0,-250.805"/>
<text text-anchor="start" x="8" y="-268.805" font-family="Helvetica,sans-Serif" font-size="10.00">obe::Collision::Polygonal</text>
<text text-anchor="middle" x="76" y="-257.805" font-family="Helvetica,sans-Serif" font-size="10.00">Collider::getDistanceFromPoint</text>
</g>
<!-- Node356 -->
<g id="node2" class="node"><title>Node356</title>
<g id="a_node2"><a xlink:href="classobe_1_1_collision_1_1_polygonal_collider.html#a5ede4306a28e4fa73738e117454fc01b" target="_top" xlink:title="obe::Collision::Polygonal\lCollider::findClosestPoint">
<polygon fill="none" stroke="black" points="738.5,-272.805 738.5,-302.805 863.5,-302.805 863.5,-272.805 738.5,-272.805"/>
<text text-anchor="start" x="746.5" y="-290.805" font-family="Helvetica,sans-Serif" font-size="10.00">obe::Collision::Polygonal</text>
<text text-anchor="middle" x="801" y="-279.805" font-family="Helvetica,sans-Serif" font-size="10.00">Collider::findClosestPoint</text>
</a>
</g>
</g>
<!-- Node355&#45;&gt;Node356 -->
<g id="edge1" class="edge"><title>Node355&#45;&gt;Node356</title>
<path fill="none" stroke="midnightblue" d="M162.694,-268.413C310.361,-272.906 609.327,-282.003 738.385,-285.93"/>
<polygon fill="midnightblue" stroke="midnightblue" points="162.429,-264.903 152.328,-268.097 162.217,-271.9 162.429,-264.903"/>
</g>
<!-- Node357 -->
<g id="node3" class="node"><title>Node357</title>
<g id="a_node3"><a xlink:href="namespaceobe_1_1_editor.html#a508e767d732debdb65e63c7bffa50623" target="_top" xlink:title="obe::Editor::editMap">
<polygon fill="none" stroke="black" points="1057.5,-298.305 1057.5,-317.305 1161.5,-317.305 1161.5,-298.305 1057.5,-298.305"/>
<text text-anchor="middle" x="1109.5" y="-305.305" font-family="Helvetica,sans-Serif" font-size="10.00">obe::Editor::editMap</text>
</a>
</g>
</g>
<!-- Node355&#45;&gt;Node357 -->
<g id="edge31" class="edge"><title>Node355&#45;&gt;Node357</title>
<path fill="none" stroke="midnightblue" d="M137.18,-283.558C208.872,-303.107 332.582,-331.805 441,-331.805 441,-331.805 441,-331.805 802,-331.805 892.07,-331.805 996.575,-321.377 1057.35,-314.268"/>
<polygon fill="midnightblue" stroke="midnightblue" points="137.987,-280.15 127.416,-280.864 136.125,-286.898 137.987,-280.15"/>
</g>
<!-- Node360 -->
<g id="node6" class="node"><title>Node360</title>
<g id="a_node6"><a xlink:href="namespaceobe_1_1_script_1_1_core_lib.html#a07d6c11bbb082bc45bdba50d97965c00" target="_top" xlink:title="obe::Script::CoreLib\l::loadCollision">
<polygon fill="none" stroke="black" points="910,-152.805 910,-182.805 1013,-182.805 1013,-152.805 910,-152.805"/>
<text text-anchor="start" x="918" y="-170.805" font-family="Helvetica,sans-Serif" font-size="10.00">obe::Script::CoreLib</text>
<text text-anchor="middle" x="961.5" y="-159.805" font-family="Helvetica,sans-Serif" font-size="10.00">::loadCollision</text>
</a>
</g>
</g>
<!-- Node355&#45;&gt;Node360 -->
<g id="edge32" class="edge"><title>Node355&#45;&gt;Node360</title>
<path fill="none" stroke="midnightblue" d="M162.37,-257.726C236.08,-251.45 345.464,-243.805 441,-243.805 441,-243.805 441,-243.805 617,-243.805 728.772,-243.805 856.274,-204.969 919.901,-182.82"/>
<polygon fill="midnightblue" stroke="midnightblue" points="161.873,-254.256 152.211,-258.602 162.474,-261.23 161.873,-254.256"/>
</g>
<!-- Node370 -->
<g id="node16" class="node"><title>Node370</title>
<g id="a_node16"><a xlink:href="classobe_1_1_collision_1_1_polygonal_collider.html#adf3d1cd440bafc922498e6ce862e2aff" target="_top" xlink:title="obe::Collision::Polygonal\lCollider::getSideContainingPoint">
<polygon fill="none" stroke="black" points="188,-184.805 188,-214.805 344,-214.805 344,-184.805 188,-184.805"/>
<text text-anchor="start" x="196" y="-202.805" font-family="Helvetica,sans-Serif" font-size="10.00">obe::Collision::Polygonal</text>
<text text-anchor="middle" x="266" y="-191.805" font-family="Helvetica,sans-Serif" font-size="10.00">Collider::getSideContainingPoint</text>
</a>
</g>
</g>
<!-- Node355&#45;&gt;Node370 -->
<g id="edge20" class="edge"><title>Node355&#45;&gt;Node370</title>
<path fill="none" stroke="midnightblue" d="M129.742,-247.29C158.891,-237.056 194.644,-224.505 222.07,-214.877"/>
<polygon fill="midnightblue" stroke="midnightblue" points="128.407,-244.049 120.131,-250.664 130.726,-250.653 128.407,-244.049"/>
</g>
<!-- Node356&#45;&gt;Node357 -->
<g id="edge2" class="edge"><title>Node356&#45;&gt;Node357</title>
<path fill="none" stroke="midnightblue" d="M873.905,-292.497C930.133,-296.166 1006.93,-301.178 1057.11,-304.452"/>
<polygon fill="midnightblue" stroke="midnightblue" points="873.863,-288.987 863.656,-291.828 873.407,-295.972 873.863,-288.987"/>
</g>
<!-- Node356&#45;&gt;Node360 -->
<g id="edge6" class="edge"><title>Node356&#45;&gt;Node360</title>
<path fill="none" stroke="midnightblue" d="M855.577,-268.416C861.998,-265.25 868.293,-261.71 874,-257.805 905.122,-236.513 933.898,-202.587 949.14,-183.038"/>
<polygon fill="midnightblue" stroke="midnightblue" points="853.738,-265.41 846.133,-272.786 856.678,-271.763 853.738,-265.41"/>
</g>
<!-- Node358 -->
<g id="node4" class="node"><title>Node358</title>
<g id="a_node4"><a xlink:href="namespaceobe_1_1_modes.html#a6a8b08eee511d4895c4da96d4ba223a6" target="_top" xlink:title="obe::Modes::startDevMenu">
<polygon fill="none" stroke="black" points="1700,-278.305 1700,-297.305 1833,-297.305 1833,-278.305 1700,-278.305"/>
<text text-anchor="middle" x="1766.5" y="-285.305" font-family="Helvetica,sans-Serif" font-size="10.00">obe::Modes::startDevMenu</text>
</a>
</g>
</g>
<!-- Node357&#45;&gt;Node358 -->
<g id="edge3" class="edge"><title>Node357&#45;&gt;Node358</title>
<path fill="none" stroke="midnightblue" d="M1171.66,-305.938C1295.09,-302.169 1573.01,-293.683 1699.98,-289.806"/>
<polygon fill="midnightblue" stroke="midnightblue" points="1171.51,-302.441 1161.62,-306.244 1171.73,-309.437 1171.51,-302.441"/>
</g>
<!-- Node359 -->
<g id="node5" class="node"><title>Node359</title>
<g id="a_node5"><a xlink:href="_ob_engine_8cpp.html#a3c04138a5bfe5d72780bb7e82a18e627" target="_top" xlink:title="main">
<polygon fill="none" stroke="black" points="1869,-278.305 1869,-297.305 1907,-297.305 1907,-278.305 1869,-278.305"/>
<text text-anchor="middle" x="1888" y="-285.305" font-family="Helvetica,sans-Serif" font-size="10.00">main</text>
</a>
</g>
</g>
<!-- Node357&#45;&gt;Node359 -->
<g id="edge5" class="edge"><title>Node357&#45;&gt;Node359</title>
<path fill="none" stroke="midnightblue" d="M1171.76,-313.618C1232.54,-318.878 1328.36,-325.805 1411.5,-325.805 1411.5,-325.805 1411.5,-325.805 1592,-325.805 1699.44,-325.805 1727.88,-329.045 1833,-306.805 1845.25,-304.213 1858.52,-299.57 1868.84,-295.523"/>
<polygon fill="midnightblue" stroke="midnightblue" points="1171.84,-310.112 1161.57,-312.724 1171.23,-317.085 1171.84,-310.112"/>
</g>
<!-- Node358&#45;&gt;Node359 -->
<g id="edge4" class="edge"><title>Node358&#45;&gt;Node359</title>
<path fill="none" stroke="midnightblue" d="M1843.44,-287.805C1852.72,-287.805 1861.44,-287.805 1868.6,-287.805"/>
<polygon fill="midnightblue" stroke="midnightblue" points="1843.19,-284.305 1833.19,-287.805 1843.19,-291.305 1843.19,-284.305"/>
</g>
<!-- Node361 -->
<g id="node7" class="node"><title>Node361</title>
<g id="a_node7"><a xlink:href="namespaceobe_1_1_script.html#a633c629c5a54da2b5d4930730983121c" target="_top" xlink:title="obe::Script::loadCoreLib">
<polygon fill="none" stroke="black" points="1049,-158.305 1049,-177.305 1170,-177.305 1170,-158.305 1049,-158.305"/>
<text text-anchor="middle" x="1109.5" y="-165.305" font-family="Helvetica,sans-Serif" font-size="10.00">obe::Script::loadCoreLib</text>
</a>
</g>
</g>
<!-- Node360&#45;&gt;Node361 -->
<g id="edge7" class="edge"><title>Node360&#45;&gt;Node361</title>
<path fill="none" stroke="midnightblue" d="M1023.33,-167.805C1031.79,-167.805 1040.47,-167.805 1048.9,-167.805"/>
<polygon fill="midnightblue" stroke="midnightblue" points="1023.15,-164.305 1013.15,-167.805 1023.15,-171.305 1023.15,-164.305"/>
</g>
<!-- Node362 -->
<g id="node8" class="node"><title>Node362</title>
<g id="a_node8"><a xlink:href="namespaceobe_1_1_script.html#a4e6ee77032cf7f66544f9b08464a60b7" target="_top" xlink:title="obe::Script::loadLib">
<polygon fill="none" stroke="black" points="1206,-158.305 1206,-177.305 1307,-177.305 1307,-158.305 1206,-158.305"/>
<text text-anchor="middle" x="1256.5" y="-165.305" font-family="Helvetica,sans-Serif" font-size="10.00">obe::Script::loadLib</text>
</a>
</g>
</g>
<!-- Node361&#45;&gt;Node362 -->
<g id="edge8" class="edge"><title>Node361&#45;&gt;Node362</title>
<path fill="none" stroke="midnightblue" d="M1180.4,-167.805C1189.04,-167.805 1197.72,-167.805 1205.97,-167.805"/>
<polygon fill="midnightblue" stroke="midnightblue" points="1180.31,-164.305 1170.31,-167.805 1180.31,-171.305 1180.31,-164.305"/>
</g>
<!-- Node363 -->
<g id="node9" class="node"><title>Node363</title>
<g id="a_node9"><a xlink:href="namespaceobe_1_1_script.html#a5e992c0efb0543e7c934bc1065f08b01" target="_top" xlink:title="obe::Script::loadLibBridge">
<polygon fill="none" stroke="black" points="1348.5,-76.3053 1348.5,-95.3053 1476.5,-95.3053 1476.5,-76.3053 1348.5,-76.3053"/>
<text text-anchor="middle" x="1412.5" y="-83.3053" font-family="Helvetica,sans-Serif" font-size="10.00">obe::Script::loadLibBridge</text>
</a>
</g>
</g>
<!-- Node362&#45;&gt;Node363 -->
<g id="edge9" class="edge"><title>Node362&#45;&gt;Node363</title>
<path fill="none" stroke="midnightblue" d="M1277.31,-152.184C1294.07,-139.508 1319.13,-121.828 1343,-109.805 1354.25,-104.137 1367.17,-99.2355 1378.73,-95.3659"/>
<polygon fill="midnightblue" stroke="midnightblue" points="1275.14,-149.433 1269.34,-158.3 1279.41,-154.985 1275.14,-149.433"/>
</g>
<!-- Node366 -->
<g id="node12" class="node"><title>Node366</title>
<g id="a_node12"><a xlink:href="namespaceobe_1_1_script.html#aad6ef67388e6d16eb01853f208da410f" target="_top" xlink:title="obe::Script::loadBaseLib">
<polygon fill="none" stroke="black" points="1351,-202.305 1351,-221.305 1474,-221.305 1474,-202.305 1351,-202.305"/>
<text text-anchor="middle" x="1412.5" y="-209.305" font-family="Helvetica,sans-Serif" font-size="10.00">obe::Script::loadBaseLib</text>
</a>
</g>
</g>
<!-- Node362&#45;&gt;Node366 -->
<g id="edge12" class="edge"><title>Node362&#45;&gt;Node366</title>
<path fill="none" stroke="midnightblue" d="M1300.69,-180.146C1325.22,-187.155 1355.46,-195.794 1378.15,-202.277"/>
<polygon fill="midnightblue" stroke="midnightblue" points="1301.49,-176.735 1290.92,-177.353 1299.57,-183.465 1301.49,-176.735"/>
</g>
<!-- Node367 -->
<g id="node13" class="node"><title>Node367</title>
<g id="a_node13"><a xlink:href="namespaceobe_1_1_modes.html#a1e38c0d9a2ca0230f0de79c298f53ab9" target="_top" xlink:title="A mode that will start the Toolkit. ">
<polygon fill="none" stroke="black" points="1518,-240.305 1518,-259.305 1664,-259.305 1664,-240.305 1518,-240.305"/>
<text text-anchor="middle" x="1591" y="-247.305" font-family="Helvetica,sans-Serif" font-size="10.00">obe::Modes::startToolkitMode</text>
</a>
</g>
</g>
<!-- Node362&#45;&gt;Node367 -->
<g id="edge16" class="edge"><title>Node362&#45;&gt;Node367</title>
<path fill="none" stroke="midnightblue" d="M1274.42,-184.841C1290.52,-199.857 1316.21,-220.848 1343,-230.805 1399.14,-251.673 1467.28,-255.46 1517.77,-254.575"/>
<polygon fill="midnightblue" stroke="midnightblue" points="1276.55,-182.034 1266.92,-177.623 1271.7,-187.078 1276.55,-182.034"/>
</g>
<!-- Node368 -->
<g id="node14" class="node"><title>Node368</title>
<g id="a_node14"><a xlink:href="classobe_1_1_world_1_1_world.html#a5bd621e3fd9293d949ad0c669cee6838" target="_top" xlink:title="obe::World::World::\lWorld">
<polygon fill="none" stroke="black" points="1540.5,-136.805 1540.5,-166.805 1641.5,-166.805 1641.5,-136.805 1540.5,-136.805"/>
<text text-anchor="start" x="1548.5" y="-154.805" font-family="Helvetica,sans-Serif" font-size="10.00">obe::World::World::</text>
<text text-anchor="middle" x="1591" y="-143.805" font-family="Helvetica,sans-Serif" font-size="10.00">World</text>
</a>
</g>
</g>
<!-- Node362&#45;&gt;Node368 -->
<g id="edge17" class="edge"><title>Node362&#45;&gt;Node368</title>
<path fill="none" stroke="midnightblue" d="M1292.81,-155.029C1308.03,-150.165 1326.17,-145.215 1343,-142.805 1410.75,-133.103 1489.96,-138.985 1540.05,-144.797"/>
<polygon fill="midnightblue" stroke="midnightblue" points="1291.66,-151.721 1283.27,-158.185 1293.86,-158.366 1291.66,-151.721"/>
</g>
<!-- Node369 -->
<g id="node15" class="node"><title>Node369</title>
<g id="a_node15"><a xlink:href="namespaceobe_1_1_world.html#afc958184e59524fdf9dc6ba98a1e9a37" target="_top" xlink:title="obe::World::loadWorldScript\lEngineBaseLib">
<polygon fill="none" stroke="black" points="1343,-152.805 1343,-182.805 1482,-182.805 1482,-152.805 1343,-152.805"/>
<text text-anchor="start" x="1351" y="-170.805" font-family="Helvetica,sans-Serif" font-size="10.00">obe::World::loadWorldScript</text>
<text text-anchor="middle" x="1412.5" y="-159.805" font-family="Helvetica,sans-Serif" font-size="10.00">EngineBaseLib</text>
</a>
</g>
</g>
<!-- Node362&#45;&gt;Node369 -->
<g id="edge18" class="edge"><title>Node362&#45;&gt;Node369</title>
<path fill="none" stroke="midnightblue" d="M1317.19,-167.805C1325.63,-167.805 1334.35,-167.805 1342.94,-167.805"/>
<polygon fill="midnightblue" stroke="midnightblue" points="1317.07,-164.305 1307.07,-167.805 1317.07,-171.305 1317.07,-164.305"/>
</g>
<!-- Node364 -->
<g id="node10" class="node"><title>Node364</title>
<g id="a_node10"><a xlink:href="namespaceobe_1_1_script.html#a5dc8321da50fd4b5dc2935e4d8c93a4e" target="_top" xlink:title="obe::Script::loadScrGame\lObject">
<polygon fill="none" stroke="black" points="1526.5,-70.8053 1526.5,-100.805 1655.5,-100.805 1655.5,-70.8053 1526.5,-70.8053"/>
<text text-anchor="start" x="1534.5" y="-88.8053" font-family="Helvetica,sans-Serif" font-size="10.00">obe::Script::loadScrGame</text>
<text text-anchor="middle" x="1591" y="-77.8053" font-family="Helvetica,sans-Serif" font-size="10.00">Object</text>
</a>
</g>
</g>
<!-- Node363&#45;&gt;Node364 -->
<g id="edge10" class="edge"><title>Node363&#45;&gt;Node364</title>
<path fill="none" stroke="midnightblue" d="M1487.06,-85.8053C1500.11,-85.8053 1513.59,-85.8053 1526.33,-85.8053"/>
<polygon fill="midnightblue" stroke="midnightblue" points="1486.72,-82.3054 1476.72,-85.8053 1486.72,-89.3054 1486.72,-82.3054"/>
</g>
<!-- Node365 -->
<g id="node11" class="node"><title>Node365</title>
<g id="a_node11"><a xlink:href="classobe_1_1_script_1_1_game_object.html#aa0d58bd1ef0fa2fe9f7567729b2d291e" target="_top" xlink:title="obe::Script::GameObject\l::loadGameObject">
<polygon fill="none" stroke="black" points="1704,-70.8053 1704,-100.805 1829,-100.805 1829,-70.8053 1704,-70.8053"/>
<text text-anchor="start" x="1712" y="-88.8053" font-family="Helvetica,sans-Serif" font-size="10.00">obe::Script::GameObject</text>
<text text-anchor="middle" x="1766.5" y="-77.8053" font-family="Helvetica,sans-Serif" font-size="10.00">::loadGameObject</text>
</a>
</g>
</g>
<!-- Node364&#45;&gt;Node365 -->
<g id="edge11" class="edge"><title>Node364&#45;&gt;Node365</title>
<path fill="none" stroke="midnightblue" d="M1665.72,-85.8053C1678.44,-85.8053 1691.55,-85.8053 1703.91,-85.8053"/>
<polygon fill="midnightblue" stroke="midnightblue" points="1665.62,-82.3054 1655.62,-85.8053 1665.62,-89.3054 1665.62,-82.3054"/>
</g>
<!-- Node366&#45;&gt;Node367 -->
<g id="edge13" class="edge"><title>Node366&#45;&gt;Node367</title>
<path fill="none" stroke="midnightblue" d="M1468.09,-223.558C1493.04,-228.931 1522.23,-235.214 1545.78,-240.285"/>
<polygon fill="midnightblue" stroke="midnightblue" points="1468.55,-220.077 1458.04,-221.394 1467.08,-226.921 1468.55,-220.077"/>
</g>
<!-- Node367&#45;&gt;Node358 -->
<g id="edge14" class="edge"><title>Node367&#45;&gt;Node358</title>
<path fill="none" stroke="midnightblue" d="M1645.66,-261.558C1670.19,-266.931 1698.88,-273.214 1722.03,-278.285"/>
<polygon fill="midnightblue" stroke="midnightblue" points="1646.3,-258.115 1635.78,-259.394 1644.8,-264.953 1646.3,-258.115"/>
</g>
<!-- Node367&#45;&gt;Node359 -->
<g id="edge15" class="edge"><title>Node367&#45;&gt;Node359</title>
<path fill="none" stroke="midnightblue" d="M1674.26,-251.015C1721.19,-253.015 1780.88,-257.778 1833,-268.805 1845.25,-271.397 1858.52,-276.041 1868.84,-280.088"/>
<polygon fill="midnightblue" stroke="midnightblue" points="1674.27,-247.513 1664.14,-250.618 1674,-254.507 1674.27,-247.513"/>
</g>
<!-- Node369&#45;&gt;Node368 -->
<g id="edge19" class="edge"><title>Node369&#45;&gt;Node368</title>
<path fill="none" stroke="midnightblue" d="M1492.32,-160.66C1508.63,-159.181 1525.38,-157.664 1540.29,-156.311"/>
<polygon fill="midnightblue" stroke="midnightblue" points="1491.89,-157.185 1482.24,-161.573 1492.52,-164.156 1491.89,-157.185"/>
</g>
<!-- Node370&#45;&gt;Node360 -->
<g id="edge30" class="edge"><title>Node370&#45;&gt;Node360</title>
<path fill="none" stroke="midnightblue" d="M354.512,-195.767C501.262,-188.996 792.403,-175.562 909.735,-170.148"/>
<polygon fill="midnightblue" stroke="midnightblue" points="354.028,-192.286 344.2,-196.243 354.351,-199.278 354.028,-192.286"/>
</g>
<!-- Node371 -->
<g id="node17" class="node"><title>Node371</title>
<g id="a_node17"><a xlink:href="classobe_1_1_collision_1_1_polygonal_collider.html#a77d1bcd6dee0f06683bfbffefca58206" target="_top" xlink:title="obe::Collision::Polygonal\lCollider::doesCollide">
<polygon fill="none" stroke="black" points="380,-82.8053 380,-112.805 504,-112.805 504,-82.8053 380,-82.8053"/>
<text text-anchor="start" x="388" y="-100.805" font-family="Helvetica,sans-Serif" font-size="10.00">obe::Collision::Polygonal</text>
<text text-anchor="middle" x="442" y="-89.8053" font-family="Helvetica,sans-Serif" font-size="10.00">Collider::doesCollide</text>
</a>
</g>
</g>
<!-- Node370&#45;&gt;Node371 -->
<g id="edge21" class="edge"><title>Node370&#45;&gt;Node371</title>
<path fill="none" stroke="midnightblue" d="M301.653,-179.491C335.142,-159.86 385.104,-130.572 415.22,-112.917"/>
<polygon fill="midnightblue" stroke="midnightblue" points="299.531,-176.678 292.674,-184.755 303.071,-182.717 299.531,-176.678"/>
</g>
<!-- Node371&#45;&gt;Node360 -->
<g id="edge29" class="edge"><title>Node371&#45;&gt;Node360</title>
<path fill="none" stroke="midnightblue" d="M473.475,-77.2958C491.892,-66.0743 516.319,-53.1883 540,-46.8053 683.37,-8.1602 742.989,31.0841 874,-38.8053 919.917,-63.3001 945.764,-124.182 955.705,-152.663"/>
<polygon fill="midnightblue" stroke="midnightblue" points="471.565,-74.3622 464.946,-82.6351 475.279,-80.2955 471.565,-74.3622"/>
</g>
<!-- Node372 -->
<g id="node18" class="node"><title>Node372</title>
<g id="a_node18"><a xlink:href="classobe_1_1_collision_1_1_polygonal_collider.html#af37dad690ea1c82c605761b1d6218d14" target="_top" xlink:title="obe::Collision::Polygonal\lCollider::testAllColliders">
<polygon fill="none" stroke="black" points="554,-108.805 554,-138.805 678,-138.805 678,-108.805 554,-108.805"/>
<text text-anchor="start" x="562" y="-126.805" font-family="Helvetica,sans-Serif" font-size="10.00">obe::Collision::Polygonal</text>
<text text-anchor="middle" x="616" y="-115.805" font-family="Helvetica,sans-Serif" font-size="10.00">Collider::testAllColliders</text>
</a>
</g>
</g>
<!-- Node371&#45;&gt;Node372 -->
<g id="edge22" class="edge"><title>Node371&#45;&gt;Node372</title>
<path fill="none" stroke="midnightblue" d="M514.088,-108.551C527.267,-110.543 540.928,-112.608 553.782,-114.551"/>
<polygon fill="midnightblue" stroke="midnightblue" points="514.536,-105.079 504.125,-107.045 513.49,-112.001 514.536,-105.079"/>
</g>
<!-- Node374 -->
<g id="node20" class="node"><title>Node374</title>
<g id="a_node20"><a xlink:href="classobe_1_1_collision_1_1_polygonal_collider.html#ab7fc1d109efbb78e3eca2a9427038986" target="_top" xlink:title="obe::Collision::Polygonal\lCollider::getAllCollidedColliders">
<polygon fill="none" stroke="black" points="540,-56.8053 540,-86.8053 692,-86.8053 692,-56.8053 540,-56.8053"/>
<text text-anchor="start" x="548" y="-74.8053" font-family="Helvetica,sans-Serif" font-size="10.00">obe::Collision::Polygonal</text>
<text text-anchor="middle" x="616" y="-63.8053" font-family="Helvetica,sans-Serif" font-size="10.00">Collider::getAllCollidedColliders</text>
</a>
</g>
</g>
<!-- Node371&#45;&gt;Node374 -->
<g id="edge26" class="edge"><title>Node371&#45;&gt;Node374</title>
<path fill="none" stroke="midnightblue" d="M514.037,-87.0671C522.578,-85.7761 531.322,-84.4543 539.918,-83.1549"/>
<polygon fill="midnightblue" stroke="midnightblue" points="513.49,-83.61 504.125,-88.5654 514.536,-90.5314 513.49,-83.61"/>
</g>
<!-- Node372&#45;&gt;Node360 -->
<g id="edge25" class="edge"><title>Node372&#45;&gt;Node360</title>
<path fill="none" stroke="midnightblue" d="M688.085,-140.576C701.299,-143.294 715.027,-145.853 728,-147.805 790.297,-157.181 862.697,-162.546 909.94,-165.313"/>
<polygon fill="midnightblue" stroke="midnightblue" points="688.608,-137.109 678.101,-138.474 687.166,-143.959 688.608,-137.109"/>
</g>
<!-- Node373 -->
<g id="node19" class="node"><title>Node373</title>
<g id="a_node19"><a xlink:href="classobe_1_1_collision_1_1_polygonal_collider.html#a6b5ab1cbbddae72504f9a62fd6f7176e" target="_top" xlink:title="obe::Collision::Polygonal\lCollider::doesCollideWithTags">
<polygon fill="none" stroke="black" points="728,-108.805 728,-138.805 874,-138.805 874,-108.805 728,-108.805"/>
<text text-anchor="start" x="736" y="-126.805" font-family="Helvetica,sans-Serif" font-size="10.00">obe::Collision::Polygonal</text>
<text text-anchor="middle" x="801" y="-115.805" font-family="Helvetica,sans-Serif" font-size="10.00">Collider::doesCollideWithTags</text>
</a>
</g>
</g>
<!-- Node372&#45;&gt;Node373 -->
<g id="edge23" class="edge"><title>Node372&#45;&gt;Node373</title>
<path fill="none" stroke="midnightblue" d="M688.414,-123.805C701.337,-123.805 714.823,-123.805 727.77,-123.805"/>
<polygon fill="midnightblue" stroke="midnightblue" points="688.191,-120.305 678.191,-123.805 688.191,-127.305 688.191,-120.305"/>
</g>
<!-- Node373&#45;&gt;Node360 -->
<g id="edge24" class="edge"><title>Node373&#45;&gt;Node360</title>
<path fill="none" stroke="midnightblue" d="M866.055,-141.587C880.63,-145.633 895.917,-149.877 909.844,-153.743"/>
<polygon fill="midnightblue" stroke="midnightblue" points="866.675,-138.127 856.103,-138.824 864.803,-144.872 866.675,-138.127"/>
</g>
<!-- Node375 -->
<g id="node21" class="node"><title>Node375</title>
<g id="a_node21"><a xlink:href="classobe_1_1_collision_1_1_polygonal_collider.html#a630d6b76f8b33c836dbc302d3e7a499f" target="_top" xlink:title="obe::Collision::Polygonal\lCollider::getCollidedColliders\lWithTags">
<polygon fill="none" stroke="black" points="731,-48.3053 731,-89.3053 871,-89.3053 871,-48.3053 731,-48.3053"/>
<text text-anchor="start" x="739" y="-77.3053" font-family="Helvetica,sans-Serif" font-size="10.00">obe::Collision::Polygonal</text>
<text text-anchor="start" x="739" y="-66.3053" font-family="Helvetica,sans-Serif" font-size="10.00">Collider::getCollidedColliders</text>
<text text-anchor="middle" x="801" y="-55.3053" font-family="Helvetica,sans-Serif" font-size="10.00">WithTags</text>
</a>
</g>
</g>
<!-- Node374&#45;&gt;Node375 -->
<g id="edge27" class="edge"><title>Node374&#45;&gt;Node375</title>
<path fill="none" stroke="midnightblue" d="M702.511,-70.4034C712.04,-70.2472 721.656,-70.0896 730.943,-69.9373"/>
<polygon fill="midnightblue" stroke="midnightblue" points="702.167,-66.9085 692.225,-70.5721 702.281,-73.9076 702.167,-66.9085"/>
</g>
<!-- Node375&#45;&gt;Node360 -->
<g id="edge28" class="edge"><title>Node375&#45;&gt;Node360</title>
<path fill="none" stroke="midnightblue" d="M865.328,-93.9876C868.297,-95.5431 871.203,-97.1509 874,-98.8053 900.456,-114.451 927.631,-137.493 944.292,-152.574"/>
<polygon fill="midnightblue" stroke="midnightblue" points="866.787,-90.8045 856.275,-89.4839 863.669,-97.0718 866.787,-90.8045"/>
</g>
</g>
</svg>
        <g id="navigator" transform="translate(0 0)" fill="#404254">
                <rect fill="#f2f5e9" fill-opacity="0.5" stroke="#606060" stroke-width=".5" x="0" y="0" width="60" height="60"/>
                <use id="zoomplus" xlink:href="#zoomPlus" x="17" y="9" onmousedown="handleZoom(evt,'in')"/>
                <use id="zoomminus" xlink:href="#zoomMin" x="42" y="9" onmousedown="handleZoom(evt,'out')"/>
                <use id="reset" xlink:href="#resetDef" x="30" y="36" onmousedown="handleReset()"/>
                <g id="arrowUp" xlink:href="#dirArrow" transform="translate(30 24)" onmousedown="handlePan(0,-1)">
                  <use xlink:href="#rim" fill="#404040">
                        <set attributeName="fill" to="#808080" begin="arrowUp.mouseover" end="arrowUp.mouseout"/>
                  </use>
                  <path fill="none" stroke="white" stroke-width="1.5" d="M0,-3.0v7 M-2.5,-0.5L0,-3.0L2.5,-0.5"/>
                </g>
                <g id="arrowRight" xlink:href="#dirArrow" transform="rotate(90) translate(36 -43)" onmousedown="handlePan(1,0)">
                  <use xlink:href="#rim" fill="#404040">
                        <set attributeName="fill" to="#808080" begin="arrowRight.mouseover" end="arrowRight.mouseout"/>
                  </use>
                  <path fill="none" stroke="white" stroke-width="1.5" d="M0,-3.0v7 M-2.5,-0.5L0,-3.0L2.5,-0.5"/>
                </g>
                <g id="arrowDown" xlink:href="#dirArrow" transform="rotate(180) translate(-30 -48)" onmousedown="handlePan(0,1)">
                  <use xlink:href="#rim" fill="#404040">
                        <set attributeName="fill" to="#808080" begin="arrowDown.mouseover" end="arrowDown.mouseout"/>
                  </use>
                  <path fill="none" stroke="white" stroke-width="1.5" d="M0,-3.0v7 M-2.5,-0.5L0,-3.0L2.5,-0.5"/>
                </g>
                <g id="arrowLeft" xlink:href="#dirArrow" transform="rotate(270) translate(-36 17)" onmousedown="handlePan(-1,0)">
                  <use xlink:href="#rim" fill="#404040">
                        <set attributeName="fill" to="#808080" begin="arrowLeft.mouseover" end="arrowLeft.mouseout"/>
                  </use>
                  <path fill="none" stroke="white" stroke-width="1.5" d="M0,-3.0v7 M-2.5,-0.5L0,-3.0L2.5,-0.5"/>
                </g>
        </g>
        <svg viewBox="0 0 15 15" width="100%" height="30px" preserveAspectRatio="xMaxYMin meet">
         <g id="arrow_out" transform="scale(0.3 0.3)">
          <a xlink:href="classobe_1_1_collision_1_1_polygonal_collider_a683abe088e85053645e32c6457983f93_icgraph_org.svg" target="_base">
           <rect id="button" ry="5" rx="5" y="6" x="6" height="38" width="38"
                fill="#f2f5e9" fill-opacity="0.5" stroke="#606060" stroke-width="1.0"/>
           <path id="arrow"
             d="M 11.500037,31.436501 C 11.940474,20.09759 22.043105,11.32322 32.158766,21.979434 L 37.068811,17.246167 C 37.068811,17.246167 37.088388,32 37.088388,32 L 22.160133,31.978069 C 22.160133,31.978069 26.997745,27.140456 26.997745,27.140456 C 18.528582,18.264221 13.291696,25.230495 11.500037,31.436501 z"
             style="fill:#404040;"/>
          </a>
         </g>
        </svg>
</svg>
