<?xml version="1.0" encoding="UTF-8" standalone="no"?>
<!DOCTYPE svg PUBLIC "-//W3C//DTD SVG 1.1//EN"
 "http://www.w3.org/Graphics/SVG/1.1/DTD/svg11.dtd">
<!-- Generated by graphviz version 2.38.0 (20140413.2041)
 -->
<!-- Title: obe::Collision::PolygonalCollider::setPointPosition Pages: 1 -->
<!--zoomable 226 -->
<svg id="main" version="1.1" xmlns="http://www.w3.org/2000/svg" xmlns:xlink="http://www.w3.org/1999/xlink" xml:space="preserve" onload="init(evt)">
<style type="text/css"><![CDATA[
.edge:hover path { stroke: red; }
.edge:hover polygon { stroke: red; fill: red; }
.edge path { stroke: white; }
.edge polygon { stroke: white; fill: white; }
.node polygon { fill: white; }
]]></style>
<script type="text/javascript"><![CDATA[
var edges = document.getElementsByTagName('g');
if (edges && edges.length) {
  for (var i=0;i<edges.length;i++) {
    if (edges[i].id.substr(0,4)=='edge') {
      edges[i].setAttribute('class','edge');
    }
  }
}
]]></script>
        <defs>
                <circle id="rim" cx="0" cy="0" r="7"/>
                <circle id="rim2" cx="0" cy="0" r="3.5"/>
                <g id="zoomPlus">
                        <use xlink:href="#rim" fill="#404040">
                                <set attributeName="fill" to="#808080" begin="zoomplus.mouseover" end="zoomplus.mouseout"/>
                        </use>
                        <path d="M-4,0h8M0,-4v8" fill="none" stroke="white" stroke-width="1.5" pointer-events="none"/>
                </g>
                <g id="zoomMin">
                        <use xlink:href="#rim" fill="#404040">
                                <set attributeName="fill" to="#808080" begin="zoomminus.mouseover" end="zoomminus.mouseout"/>
                        </use>
                        <path d="M-4,0h8" fill="none" stroke="white" stroke-width="1.5" pointer-events="none"/>
                </g>
                <g id="dirArrow">
                        <path fill="none" stroke="white" stroke-width="1.5" d="M0,-3.0v7 M-2.5,-0.5L0,-3.0L2.5,-0.5"/>
                </g>
               <g id="resetDef">
                       <use xlink:href="#rim2" fill="#404040">
                               <set attributeName="fill" to="#808080" begin="reset.mouseover" end="reset.mouseout"/>
                       </use>
               </g>
        </defs>

<script type="text/javascript">
var viewWidth = 1342;
var viewHeight = 226;
var sectionId = 'dynsection-60';
</script>
<script xlink:href="svgpan.js"/>
<svg id="graph" class="graph">
<g id="viewport">
<title>obe::Collision::PolygonalCollider::setPointPosition</title>
<!-- Node678 -->
<g id="node1" class="node"><title>Node678</title>
<polygon fill="#bfbfbf" stroke="black" points="0,-12 0,-42 126,-42 126,-12 0,-12"/>
<text text-anchor="start" x="8" y="-30" font-family="Helvetica,sans-Serif" font-size="10.00">obe::Collision::Polygonal</text>
<text text-anchor="middle" x="63" y="-19" font-family="Helvetica,sans-Serif" font-size="10.00">Collider::setPointPosition</text>
</g>
<!-- Node679 -->
<g id="node2" class="node"><title>Node679</title>
<g id="a_node2"><a xlink:href="classobe_1_1_collision_1_1_polygonal_collider.html#a65ae9d514f92701f8a14fb78c94bf134" target="_top" xlink:title="obe::Collision::Polygonal\lCollider::u_setPointPosition">
<polygon fill="none" stroke="black" points="162,-40 162,-70 299,-70 299,-40 162,-40"/>
<text text-anchor="start" x="170" y="-58" font-family="Helvetica,sans-Serif" font-size="10.00">obe::Collision::Polygonal</text>
<text text-anchor="middle" x="230.5" y="-47" font-family="Helvetica,sans-Serif" font-size="10.00">Collider::u_setPointPosition</text>
</a>
</g>
</g>
<!-- Node678&#45;&gt;Node679 -->
<g id="edge1" class="edge"><title>Node678&#45;&gt;Node679</title>
<path fill="none" stroke="midnightblue" d="M136.042,-39.1883C144.593,-40.635 153.299,-42.108 161.787,-43.544"/>
<polygon fill="midnightblue" stroke="midnightblue" points="136.541,-35.7231 126.097,-37.5058 135.373,-42.625 136.541,-35.7231"/>
</g>
<!-- Node692 -->
<g id="node15" class="node"><title>Node692</title>
<g id="a_node15"><a xlink:href="namespaceobe_1_1_editor.html#a9009207671e71dccb68a31ea2362e9ef" target="_top" xlink:title="obe::Editor::editMap">
<polygon fill="none" stroke="black" points="966,-28.5 966,-47.5 1070,-47.5 1070,-28.5 966,-28.5"/>
<text text-anchor="middle" x="1018" y="-35.5" font-family="Helvetica,sans-Serif" font-size="10.00">obe::Editor::editMap</text>
</a>
</g>
</g>
<!-- Node678&#45;&gt;Node692 -->
<g id="edge18" class="edge"><title>Node678&#45;&gt;Node692</title>
<path fill="none" stroke="midnightblue" d="M136.254,-17.4502C201.318,-9.68192 299.634,-0 385.5,-0 385.5,-0 385.5,-0 682.5,-0 783.52,-0 808.818,-6.01286 909,-19 928.446,-21.5209 949.728,-25.089 968.219,-28.4536"/>
<polygon fill="midnightblue" stroke="midnightblue" points="135.611,-14.0024 126.104,-18.6788 136.452,-20.9517 135.611,-14.0024"/>
</g>
<!-- Node680 -->
<g id="node3" class="node"><title>Node680</title>
<g id="a_node3"><a xlink:href="namespaceobe_1_1_script_1_1_core_lib.html#a07d6c11bbb082bc45bdba50d97965c00" target="_top" xlink:title="obe::Script::CoreLib\l::loadCollision">
<polygon fill="none" stroke="black" points="335,-62 335,-92 438,-92 438,-62 335,-62"/>
<text text-anchor="start" x="343" y="-80" font-family="Helvetica,sans-Serif" font-size="10.00">obe::Script::CoreLib</text>
<text text-anchor="middle" x="386.5" y="-69" font-family="Helvetica,sans-Serif" font-size="10.00">::loadCollision</text>
</a>
</g>
</g>
<!-- Node679&#45;&gt;Node680 -->
<g id="edge2" class="edge"><title>Node679&#45;&gt;Node680</title>
<path fill="none" stroke="midnightblue" d="M309.186,-66.098C317.84,-67.3343 326.484,-68.5691 334.678,-69.7397"/>
<polygon fill="midnightblue" stroke="midnightblue" points="309.441,-62.599 299.047,-64.6495 308.451,-69.5286 309.441,-62.599"/>
</g>
<!-- Node681 -->
<g id="node4" class="node"><title>Node681</title>
<g id="a_node4"><a xlink:href="namespaceobe_1_1_script.html#abdb81ec0976f1097cef6711415b8fac3" target="_top" xlink:title="obe::Script::loadCoreLib">
<polygon fill="none" stroke="black" points="474,-67.5 474,-86.5 595,-86.5 595,-67.5 474,-67.5"/>
<text text-anchor="middle" x="534.5" y="-74.5" font-family="Helvetica,sans-Serif" font-size="10.00">obe::Script::loadCoreLib</text>
</a>
</g>
</g>
<!-- Node680&#45;&gt;Node681 -->
<g id="edge3" class="edge"><title>Node680&#45;&gt;Node681</title>
<path fill="none" stroke="midnightblue" d="M448.328,-70.3341C456.785,-70.2162 465.467,-70.2223 473.902,-70.3521"/>
<polygon fill="midnightblue" stroke="midnightblue" points="448.081,-66.8383 438.154,-70.5393 448.223,-73.8368 448.081,-66.8383"/>
</g>
<!-- Node681&#45;&gt;Node680 -->
<g id="edge17" class="edge"><title>Node681&#45;&gt;Node680</title>
<path fill="none" stroke="midnightblue" d="M463.805,-83.7438C455.154,-83.7761 446.441,-83.6817 438.154,-83.4607"/>
<polygon fill="midnightblue" stroke="midnightblue" points="463.936,-87.2429 473.902,-83.6479 463.869,-80.2432 463.936,-87.2429"/>
</g>
<!-- Node682 -->
<g id="node5" class="node"><title>Node682</title>
<g id="a_node5"><a xlink:href="namespaceobe_1_1_script.html#a4e6ee77032cf7f66544f9b08464a60b7" target="_top" xlink:title="obe::Script::loadLib">
<polygon fill="none" stroke="black" points="631,-97.5 631,-116.5 732,-116.5 732,-97.5 631,-97.5"/>
<text text-anchor="middle" x="681.5" y="-104.5" font-family="Helvetica,sans-Serif" font-size="10.00">obe::Script::loadLib</text>
</a>
</g>
</g>
<!-- Node681&#45;&gt;Node682 -->
<g id="edge4" class="edge"><title>Node681&#45;&gt;Node682</title>
<path fill="none" stroke="midnightblue" d="M591.802,-88.6487C605.82,-91.5489 620.689,-94.6252 634.165,-97.4134"/>
<polygon fill="midnightblue" stroke="midnightblue" points="592.279,-85.1734 581.778,-86.5747 590.861,-92.0282 592.279,-85.1734"/>
</g>
<!-- Node683 -->
<g id="node6" class="node"><title>Node683</title>
<g id="a_node6"><a xlink:href="namespaceobe_1_1_modes.html#a1e38c0d9a2ca0230f0de79c298f53ab9" target="_top" xlink:title="A mode that will start the Toolkit. ">
<polygon fill="none" stroke="black" points="945,-116.5 945,-135.5 1091,-135.5 1091,-116.5 945,-116.5"/>
<text text-anchor="middle" x="1018" y="-123.5" font-family="Helvetica,sans-Serif" font-size="10.00">obe::Modes::startToolkitMode</text>
</a>
</g>
</g>
<!-- Node682&#45;&gt;Node683 -->
<g id="edge5" class="edge"><title>Node682&#45;&gt;Node683</title>
<path fill="none" stroke="midnightblue" d="M707.522,-121.472C724.084,-130.192 746.614,-140.462 768,-145 841.582,-160.615 929.798,-146.337 979.013,-135.513"/>
<polygon fill="midnightblue" stroke="midnightblue" points="708.972,-118.277 698.515,-116.572 705.627,-124.426 708.972,-118.277"/>
</g>
<!-- Node686 -->
<g id="node9" class="node"><title>Node686</title>
<g id="a_node9"><a xlink:href="classobe_1_1_scene_1_1_world.html#a32964e659e18cb32094d9f8ceea30aa3" target="_top" xlink:title="obe::Scene::World::\lWorld">
<polygon fill="none" stroke="black" points="966,-67 966,-97 1070,-97 1070,-67 966,-67"/>
<text text-anchor="start" x="974" y="-85" font-family="Helvetica,sans-Serif" font-size="10.00">obe::Scene::World::</text>
<text text-anchor="middle" x="1018" y="-74" font-family="Helvetica,sans-Serif" font-size="10.00">World</text>
</a>
</g>
</g>
<!-- Node682&#45;&gt;Node686 -->
<g id="edge9" class="edge"><title>Node682&#45;&gt;Node686</title>
<path fill="none" stroke="midnightblue" d="M742.51,-102.515C806.218,-97.7535 905.826,-90.309 965.912,-85.8183"/>
<polygon fill="midnightblue" stroke="midnightblue" points="741.928,-99.0486 732.217,-103.284 742.45,-106.029 741.928,-99.0486"/>
</g>
<!-- Node687 -->
<g id="node10" class="node"><title>Node687</title>
<g id="a_node10"><a xlink:href="namespaceobe_1_1_scene.html#ae5cbcc3278d9115d603e5024dec9136e" target="_top" xlink:title="obe::Scene::loadWorldScript\lEngineBaseLib">
<polygon fill="none" stroke="black" points="768,-29 768,-59 909,-59 909,-29 768,-29"/>
<text text-anchor="start" x="776" y="-47" font-family="Helvetica,sans-Serif" font-size="10.00">obe::Scene::loadWorldScript</text>
<text text-anchor="middle" x="838.5" y="-36" font-family="Helvetica,sans-Serif" font-size="10.00">EngineBaseLib</text>
</a>
</g>
</g>
<!-- Node682&#45;&gt;Node687 -->
<g id="edge10" class="edge"><title>Node682&#45;&gt;Node687</title>
<path fill="none" stroke="midnightblue" d="M715.429,-93.616C740.342,-83.4901 774.564,-69.5805 800.435,-59.065"/>
<polygon fill="midnightblue" stroke="midnightblue" points="713.987,-90.4238 706.041,-97.4317 716.623,-96.9086 713.987,-90.4238"/>
</g>
<!-- Node688 -->
<g id="node11" class="node"><title>Node688</title>
<g id="a_node11"><a xlink:href="namespaceobe_1_1_script.html#a5e992c0efb0543e7c934bc1065f08b01" target="_top" xlink:title="obe::Script::loadLibBridge">
<polygon fill="none" stroke="black" points="774.5,-192.5 774.5,-211.5 902.5,-211.5 902.5,-192.5 774.5,-192.5"/>
<text text-anchor="middle" x="838.5" y="-199.5" font-family="Helvetica,sans-Serif" font-size="10.00">obe::Script::loadLibBridge</text>
</a>
</g>
</g>
<!-- Node682&#45;&gt;Node688 -->
<g id="edge12" class="edge"><title>Node682&#45;&gt;Node688</title>
<path fill="none" stroke="midnightblue" d="M698.778,-123.636C715.051,-139.467 741.414,-163.033 768,-178 778.456,-183.887 790.604,-188.686 801.791,-192.403"/>
<polygon fill="midnightblue" stroke="midnightblue" points="701.208,-121.115 691.644,-116.556 696.277,-126.084 701.208,-121.115"/>
</g>
<!-- Node691 -->
<g id="node14" class="node"><title>Node691</title>
<g id="a_node14"><a xlink:href="namespaceobe_1_1_script.html#aad6ef67388e6d16eb01853f208da410f" target="_top" xlink:title="obe::Script::loadBaseLib">
<polygon fill="none" stroke="black" points="777,-116.5 777,-135.5 900,-135.5 900,-116.5 777,-116.5"/>
<text text-anchor="middle" x="838.5" y="-123.5" font-family="Helvetica,sans-Serif" font-size="10.00">obe::Script::loadBaseLib</text>
</a>
</g>
</g>
<!-- Node682&#45;&gt;Node691 -->
<g id="edge15" class="edge"><title>Node682&#45;&gt;Node691</title>
<path fill="none" stroke="midnightblue" d="M742.556,-114.362C753.809,-115.741 765.58,-117.184 776.851,-118.566"/>
<polygon fill="midnightblue" stroke="midnightblue" points="742.748,-110.859 732.396,-113.116 741.896,-117.807 742.748,-110.859"/>
</g>
<!-- Node684 -->
<g id="node7" class="node"><title>Node684</title>
<g id="a_node7"><a xlink:href="namespaceobe_1_1_modes.html#a6a8b08eee511d4895c4da96d4ba223a6" target="_top" xlink:title="obe::Modes::startDevMenu">
<polygon fill="none" stroke="black" points="1127,-70.5 1127,-89.5 1260,-89.5 1260,-70.5 1127,-70.5"/>
<text text-anchor="middle" x="1193.5" y="-77.5" font-family="Helvetica,sans-Serif" font-size="10.00">obe::Modes::startDevMenu</text>
</a>
</g>
</g>
<!-- Node683&#45;&gt;Node684 -->
<g id="edge6" class="edge"><title>Node683&#45;&gt;Node684</title>
<path fill="none" stroke="midnightblue" d="M1064.75,-113.869C1093.47,-106.256 1129.97,-96.5781 1156.6,-89.519"/>
<polygon fill="midnightblue" stroke="midnightblue" points="1063.72,-110.523 1054.95,-116.469 1065.51,-117.289 1063.72,-110.523"/>
</g>
<!-- Node685 -->
<g id="node8" class="node"><title>Node685</title>
<g id="a_node8"><a xlink:href="_ob_engine_8cpp.html#a3c04138a5bfe5d72780bb7e82a18e627" target="_top" xlink:title="main">
<polygon fill="none" stroke="black" points="1296,-70.5 1296,-89.5 1334,-89.5 1334,-70.5 1296,-70.5"/>
<text text-anchor="middle" x="1315" y="-77.5" font-family="Helvetica,sans-Serif" font-size="10.00">main</text>
</a>
</g>
</g>
<!-- Node683&#45;&gt;Node685 -->
<g id="edge8" class="edge"><title>Node683&#45;&gt;Node685</title>
<path fill="none" stroke="midnightblue" d="M1101.28,-121.421C1148.22,-117.658 1207.9,-110.921 1260,-99 1272.21,-96.2068 1285.48,-91.5605 1295.81,-87.5618"/>
<polygon fill="midnightblue" stroke="midnightblue" points="1100.86,-117.943 1091.16,-122.203 1101.4,-124.922 1100.86,-117.943"/>
</g>
<!-- Node684&#45;&gt;Node685 -->
<g id="edge7" class="edge"><title>Node684&#45;&gt;Node685</title>
<path fill="none" stroke="midnightblue" d="M1270.44,-80C1279.72,-80 1288.44,-80 1295.6,-80"/>
<polygon fill="midnightblue" stroke="midnightblue" points="1270.19,-76.5001 1260.19,-80 1270.19,-83.5001 1270.19,-76.5001"/>
</g>
<!-- Node687&#45;&gt;Node686 -->
<g id="edge11" class="edge"><title>Node687&#45;&gt;Node686</title>
<path fill="none" stroke="midnightblue" d="M918.998,-61.0193C934.939,-64.4321 951.283,-67.931 965.941,-71.0692"/>
<polygon fill="midnightblue" stroke="midnightblue" points="919.654,-57.5806 909.143,-58.9095 918.189,-64.4255 919.654,-57.5806"/>
</g>
<!-- Node689 -->
<g id="node12" class="node"><title>Node689</title>
<g id="a_node12"><a xlink:href="namespaceobe_1_1_script.html#a5dc8321da50fd4b5dc2935e4d8c93a4e" target="_top" xlink:title="obe::Script::loadScrGame\lObject">
<polygon fill="none" stroke="black" points="953.5,-187 953.5,-217 1082.5,-217 1082.5,-187 953.5,-187"/>
<text text-anchor="start" x="961.5" y="-205" font-family="Helvetica,sans-Serif" font-size="10.00">obe::Script::loadScrGame</text>
<text text-anchor="middle" x="1018" y="-194" font-family="Helvetica,sans-Serif" font-size="10.00">Object</text>
</a>
</g>
</g>
<!-- Node688&#45;&gt;Node689 -->
<g id="edge13" class="edge"><title>Node688&#45;&gt;Node689</title>
<path fill="none" stroke="midnightblue" d="M912.737,-202C926.171,-202 940.096,-202 953.226,-202"/>
<polygon fill="midnightblue" stroke="midnightblue" points="912.58,-198.5 902.58,-202 912.58,-205.5 912.58,-198.5"/>
</g>
<!-- Node690 -->
<g id="node13" class="node"><title>Node690</title>
<g id="a_node13"><a xlink:href="classobe_1_1_script_1_1_game_object.html#aadeac0036d2fe21d523acfd4e9011a23" target="_top" xlink:title="obe::Script::GameObject\l::loadGameObject">
<polygon fill="none" stroke="black" points="1131,-187 1131,-217 1256,-217 1256,-187 1131,-187"/>
<text text-anchor="start" x="1139" y="-205" font-family="Helvetica,sans-Serif" font-size="10.00">obe::Script::GameObject</text>
<text text-anchor="middle" x="1193.5" y="-194" font-family="Helvetica,sans-Serif" font-size="10.00">::loadGameObject</text>
</a>
</g>
</g>
<!-- Node689&#45;&gt;Node690 -->
<g id="edge14" class="edge"><title>Node689&#45;&gt;Node690</title>
<path fill="none" stroke="midnightblue" d="M1092.72,-202C1105.44,-202 1118.55,-202 1130.91,-202"/>
<polygon fill="midnightblue" stroke="midnightblue" points="1092.62,-198.5 1082.62,-202 1092.62,-205.5 1092.62,-198.5"/>
</g>
<!-- Node691&#45;&gt;Node683 -->
<g id="edge16" class="edge"><title>Node691&#45;&gt;Node683</title>
<path fill="none" stroke="midnightblue" d="M910.346,-126C921.662,-126 933.384,-126 944.733,-126"/>
<polygon fill="midnightblue" stroke="midnightblue" points="910.089,-122.5 900.089,-126 910.089,-129.5 910.089,-122.5"/>
</g>
<!-- Node692&#45;&gt;Node684 -->
<g id="edge19" class="edge"><title>Node692&#45;&gt;Node684</title>
<path fill="none" stroke="midnightblue" d="M1068.33,-49.9417C1095.15,-56.4336 1127.87,-64.3542 1152.99,-70.4347"/>
<polygon fill="midnightblue" stroke="midnightblue" points="1068.91,-46.4816 1058.37,-47.5305 1067.27,-53.2851 1068.91,-46.4816"/>
</g>
<!-- Node692&#45;&gt;Node685 -->
<g id="edge20" class="edge"><title>Node692&#45;&gt;Node685</title>
<path fill="none" stroke="midnightblue" d="M1080.48,-39.7529C1129.56,-42.1347 1199.84,-47.7521 1260,-61 1272.23,-63.6928 1285.5,-68.3376 1295.83,-72.3606"/>
<polygon fill="midnightblue" stroke="midnightblue" points="1080.49,-36.2497 1070.34,-39.2922 1080.17,-43.2425 1080.49,-36.2497"/>
</g>
</g>
</svg>
        <g id="navigator" transform="translate(0 0)" fill="#404254">
                <rect fill="#f2f5e9" fill-opacity="0.5" stroke="#606060" stroke-width=".5" x="0" y="0" width="60" height="60"/>
                <use id="zoomplus" xlink:href="#zoomPlus" x="17" y="9" onmousedown="handleZoom(evt,'in')"/>
                <use id="zoomminus" xlink:href="#zoomMin" x="42" y="9" onmousedown="handleZoom(evt,'out')"/>
                <use id="reset" xlink:href="#resetDef" x="30" y="36" onmousedown="handleReset()"/>
                <g id="arrowUp" xlink:href="#dirArrow" transform="translate(30 24)" onmousedown="handlePan(0,-1)">
                  <use xlink:href="#rim" fill="#404040">
                        <set attributeName="fill" to="#808080" begin="arrowUp.mouseover" end="arrowUp.mouseout"/>
                  </use>
                  <path fill="none" stroke="white" stroke-width="1.5" d="M0,-3.0v7 M-2.5,-0.5L0,-3.0L2.5,-0.5"/>
                </g>
                <g id="arrowRight" xlink:href="#dirArrow" transform="rotate(90) translate(36 -43)" onmousedown="handlePan(1,0)">
                  <use xlink:href="#rim" fill="#404040">
                        <set attributeName="fill" to="#808080" begin="arrowRight.mouseover" end="arrowRight.mouseout"/>
                  </use>
                  <path fill="none" stroke="white" stroke-width="1.5" d="M0,-3.0v7 M-2.5,-0.5L0,-3.0L2.5,-0.5"/>
                </g>
                <g id="arrowDown" xlink:href="#dirArrow" transform="rotate(180) translate(-30 -48)" onmousedown="handlePan(0,1)">
                  <use xlink:href="#rim" fill="#404040">
                        <set attributeName="fill" to="#808080" begin="arrowDown.mouseover" end="arrowDown.mouseout"/>
                  </use>
                  <path fill="none" stroke="white" stroke-width="1.5" d="M0,-3.0v7 M-2.5,-0.5L0,-3.0L2.5,-0.5"/>
                </g>
                <g id="arrowLeft" xlink:href="#dirArrow" transform="rotate(270) translate(-36 17)" onmousedown="handlePan(-1,0)">
                  <use xlink:href="#rim" fill="#404040">
                        <set attributeName="fill" to="#808080" begin="arrowLeft.mouseover" end="arrowLeft.mouseout"/>
                  </use>
                  <path fill="none" stroke="white" stroke-width="1.5" d="M0,-3.0v7 M-2.5,-0.5L0,-3.0L2.5,-0.5"/>
                </g>
        </g>
        <svg viewBox="0 0 15 15" width="100%" height="30px" preserveAspectRatio="xMaxYMin meet">
         <g id="arrow_out" transform="scale(0.3 0.3)">
          <a xlink:href="classobe_1_1_collision_1_1_polygonal_collider_ae1fefad15795ab8773011d5fc7e21cce_icgraph_org.svg" target="_base">
           <rect id="button" ry="5" rx="5" y="6" x="6" height="38" width="38"
                fill="#f2f5e9" fill-opacity="0.5" stroke="#606060" stroke-width="1.0"/>
           <path id="arrow"
             d="M 11.500037,31.436501 C 11.940474,20.09759 22.043105,11.32322 32.158766,21.979434 L 37.068811,17.246167 C 37.068811,17.246167 37.088388,32 37.088388,32 L 22.160133,31.978069 C 22.160133,31.978069 26.997745,27.140456 26.997745,27.140456 C 18.528582,18.264221 13.291696,25.230495 11.500037,31.436501 z"
             style="fill:#404040;"/>
          </a>
         </g>
        </svg>
</svg>
