<?xml version="1.0" encoding="UTF-8" standalone="no"?>
<!DOCTYPE svg PUBLIC "-//W3C//DTD SVG 1.1//EN"
 "http://www.w3.org/Graphics/SVG/1.1/DTD/svg11.dtd">
<!-- Generated by graphviz version 2.38.0 (20140413.2041)
 -->
<!-- Title: obe::Time::TimeCheck::goToOver Pages: 1 -->
<svg width="701pt" height="39pt"
 viewBox="0.00 0.00 701.00 39.00" xmlns="http://www.w3.org/2000/svg" xmlns:xlink="http://www.w3.org/1999/xlink">
<g id="graph0" class="graph" transform="scale(1 1) rotate(0) translate(4 35)">
<title>obe::Time::TimeCheck::goToOver</title>
<!-- Node12 -->
<g id="node1" class="node"><title>Node12</title>
<polygon fill="#bfbfbf" stroke="black" points="0,-0.5 0,-30.5 114,-30.5 114,-0.5 0,-0.5"/>
<text text-anchor="start" x="8" y="-18.5" font-family="Helvetica,sans-Serif" font-size="10.00">obe::Time::TimeCheck</text>
<text text-anchor="middle" x="57" y="-7.5" font-family="Helvetica,sans-Serif" font-size="10.00">::goToOver</text>
</g>
<!-- Node13 -->
<g id="node2" class="node"><title>Node13</title>
<g id="a_node2"><a xlink:href="classobe_1_1_input_1_1_input_action.html#a146f4895528802dbc5c17b5adab035e4" target="_top" xlink:title="Updates the KeyboardAction. ">
<polygon fill="white" stroke="black" points="150,-0.5 150,-30.5 264,-30.5 264,-0.5 150,-0.5"/>
<text text-anchor="start" x="158" y="-18.5" font-family="Helvetica,sans-Serif" font-size="10.00">obe::Input::InputAction</text>
<text text-anchor="middle" x="207" y="-7.5" font-family="Helvetica,sans-Serif" font-size="10.00">::update</text>
</a>
</g>
</g>
<!-- Node12&#45;&gt;Node13 -->
<g id="edge1" class="edge"><title>Node12&#45;&gt;Node13</title>
<path fill="none" stroke="midnightblue" d="M124.558,-15.5C132.984,-15.5 141.539,-15.5 149.782,-15.5"/>
<polygon fill="midnightblue" stroke="midnightblue" points="124.375,-12.0001 114.375,-15.5 124.375,-19.0001 124.375,-12.0001"/>
</g>
<!-- Node14 -->
<g id="node3" class="node"><title>Node14</title>
<g id="a_node3"><a xlink:href="namespaceobe_1_1_bindings_1_1_input_bindings.html#a3898ecb1ad8534de564c8153802dc789" target="_top" xlink:title="obe::Bindings::InputBindings\l::LoadInputAction">
<polygon fill="white" stroke="black" points="300,-0.5 300,-30.5 440,-30.5 440,-0.5 300,-0.5"/>
<text text-anchor="start" x="308" y="-18.5" font-family="Helvetica,sans-Serif" font-size="10.00">obe::Bindings::InputBindings</text>
<text text-anchor="middle" x="370" y="-7.5" font-family="Helvetica,sans-Serif" font-size="10.00">::LoadInputAction</text>
</a>
</g>
</g>
<!-- Node13&#45;&gt;Node14 -->
<g id="edge2" class="edge"><title>Node13&#45;&gt;Node14</title>
<path fill="none" stroke="midnightblue" d="M274.453,-15.5C282.876,-15.5 291.511,-15.5 299.973,-15.5"/>
<polygon fill="midnightblue" stroke="midnightblue" points="274.31,-12.0001 264.31,-15.5 274.31,-19.0001 274.31,-12.0001"/>
</g>
<!-- Node15 -->
<g id="node4" class="node"><title>Node15</title>
<g id="a_node4"><a xlink:href="namespaceobe_1_1_bindings.html#a41d33207a0199f125c75a0f70a4a3ba8" target="_top" xlink:title="To call when the engine starts, indexes all Lua bindings. ">
<polygon fill="white" stroke="black" points="476,-6 476,-25 619,-25 619,-6 476,-6"/>
<text text-anchor="middle" x="547.5" y="-13" font-family="Helvetica,sans-Serif" font-size="10.00">obe::Bindings::IndexBindings</text>
</a>
</g>
</g>
<!-- Node14&#45;&gt;Node15 -->
<g id="edge3" class="edge"><title>Node14&#45;&gt;Node15</title>
<path fill="none" stroke="midnightblue" d="M450.353,-15.5C458.811,-15.5 467.374,-15.5 475.723,-15.5"/>
<polygon fill="midnightblue" stroke="midnightblue" points="450.11,-12.0001 440.11,-15.5 450.11,-19.0001 450.11,-12.0001"/>
</g>
<!-- Node16 -->
<g id="node5" class="node"><title>Node16</title>
<g id="a_node5"><a xlink:href="_ob_engine_8cpp.html#a3c04138a5bfe5d72780bb7e82a18e627" target="_top" xlink:title="main">
<polygon fill="white" stroke="black" points="655,-6 655,-25 693,-25 693,-6 655,-6"/>
<text text-anchor="middle" x="674" y="-13" font-family="Helvetica,sans-Serif" font-size="10.00">main</text>
</a>
</g>
</g>
<!-- Node15&#45;&gt;Node16 -->
<g id="edge4" class="edge"><title>Node15&#45;&gt;Node16</title>
<path fill="none" stroke="midnightblue" d="M629.161,-15.5C638.623,-15.5 647.462,-15.5 654.688,-15.5"/>
<polygon fill="midnightblue" stroke="midnightblue" points="629.117,-12.0001 619.117,-15.5 629.117,-19.0001 629.117,-12.0001"/>
</g>
</g>
</svg>
