<?xml version="1.0" encoding="UTF-8" standalone="no"?>
<!DOCTYPE svg PUBLIC "-//W3C//DTD SVG 1.1//EN"
 "http://www.w3.org/Graphics/SVG/1.1/DTD/svg11.dtd">
<!-- Generated by graphviz version 2.38.0 (20140413.2041)
 -->
<!-- Title: obe::Input::InputButton::getKey Pages: 1 -->
<svg width="552pt" height="39pt"
 viewBox="0.00 0.00 552.00 39.00" xmlns="http://www.w3.org/2000/svg" xmlns:xlink="http://www.w3.org/1999/xlink">
<g id="graph0" class="graph" transform="scale(1 1) rotate(0) translate(4 35)">
<title>obe::Input::InputButton::getKey</title>
<!-- Node11 -->
<g id="node1" class="node"><title>Node11</title>
<polygon fill="#bfbfbf" stroke="black" points="0,-0.5 0,-30.5 115,-30.5 115,-0.5 0,-0.5"/>
<text text-anchor="start" x="8" y="-18.5" font-family="Helvetica,sans-Serif" font-size="10.00">obe::Input::InputButton</text>
<text text-anchor="middle" x="57.5" y="-7.5" font-family="Helvetica,sans-Serif" font-size="10.00">::getKey</text>
</g>
<!-- Node12 -->
<g id="node2" class="node"><title>Node12</title>
<g id="a_node2"><a xlink:href="namespaceobe_1_1_bindings_1_1_input_bindings.html#abb08a4b38fd23b477de025ac406e863d" target="_top" xlink:title="obe::Bindings::InputBindings\l::LoadInputButton">
<polygon fill="white" stroke="black" points="151,-0.5 151,-30.5 291,-30.5 291,-0.5 151,-0.5"/>
<text text-anchor="start" x="159" y="-18.5" font-family="Helvetica,sans-Serif" font-size="10.00">obe::Bindings::InputBindings</text>
<text text-anchor="middle" x="221" y="-7.5" font-family="Helvetica,sans-Serif" font-size="10.00">::LoadInputButton</text>
</a>
</g>
</g>
<!-- Node11&#45;&gt;Node12 -->
<g id="edge1" class="edge"><title>Node11&#45;&gt;Node12</title>
<path fill="none" stroke="midnightblue" d="M125.512,-15.5C133.874,-15.5 142.437,-15.5 150.83,-15.5"/>
<polygon fill="midnightblue" stroke="midnightblue" points="125.439,-12.0001 115.439,-15.5 125.439,-19.0001 125.439,-12.0001"/>
</g>
<!-- Node13 -->
<g id="node3" class="node"><title>Node13</title>
<g id="a_node3"><a xlink:href="namespaceobe_1_1_bindings.html#a41d33207a0199f125c75a0f70a4a3ba8" target="_top" xlink:title="To call when the engine starts, indexes all Lua bindings. ">
<polygon fill="white" stroke="black" points="327,-6 327,-25 470,-25 470,-6 327,-6"/>
<text text-anchor="middle" x="398.5" y="-13" font-family="Helvetica,sans-Serif" font-size="10.00">obe::Bindings::IndexBindings</text>
</a>
</g>
</g>
<!-- Node12&#45;&gt;Node13 -->
<g id="edge2" class="edge"><title>Node12&#45;&gt;Node13</title>
<path fill="none" stroke="midnightblue" d="M301.353,-15.5C309.811,-15.5 318.374,-15.5 326.723,-15.5"/>
<polygon fill="midnightblue" stroke="midnightblue" points="301.11,-12.0001 291.11,-15.5 301.11,-19.0001 301.11,-12.0001"/>
</g>
<!-- Node14 -->
<g id="node4" class="node"><title>Node14</title>
<g id="a_node4"><a xlink:href="_ob_engine_8cpp.html#a3c04138a5bfe5d72780bb7e82a18e627" target="_top" xlink:title="main">
<polygon fill="white" stroke="black" points="506,-6 506,-25 544,-25 544,-6 506,-6"/>
<text text-anchor="middle" x="525" y="-13" font-family="Helvetica,sans-Serif" font-size="10.00">main</text>
</a>
</g>
</g>
<!-- Node13&#45;&gt;Node14 -->
<g id="edge3" class="edge"><title>Node13&#45;&gt;Node14</title>
<path fill="none" stroke="midnightblue" d="M480.161,-15.5C489.623,-15.5 498.462,-15.5 505.688,-15.5"/>
<polygon fill="midnightblue" stroke="midnightblue" points="480.117,-12.0001 470.117,-15.5 480.117,-19.0001 480.117,-12.0001"/>
</g>
</g>
</svg>
