<?xml version="1.0" encoding="UTF-8" standalone="no"?>
<!DOCTYPE svg PUBLIC "-//W3C//DTD SVG 1.1//EN"
 "http://www.w3.org/Graphics/SVG/1.1/DTD/svg11.dtd">
<!-- Generated by graphviz version 2.38.0 (20140413.2041)
 -->
<!-- Title: tgui::ToolkitContentBox::mouseNoLongerOnWidget Pages: 1 -->
<svg width="453pt" height="39pt"
 viewBox="0.00 0.00 453.00 39.00" xmlns="http://www.w3.org/2000/svg" xmlns:xlink="http://www.w3.org/1999/xlink">
<g id="graph0" class="graph" transform="scale(1 1) rotate(0) translate(4 35)">
<title>tgui::ToolkitContentBox::mouseNoLongerOnWidget</title>
<!-- Node115 -->
<g id="node1" class="node"><title>Node115</title>
<polygon fill="#bfbfbf" stroke="black" points="0,-0.5 0,-30.5 137,-30.5 137,-0.5 0,-0.5"/>
<text text-anchor="start" x="8" y="-18.5" font-family="Helvetica,sans-Serif" font-size="10.00">tgui::ToolkitContentBox</text>
<text text-anchor="middle" x="68.5" y="-7.5" font-family="Helvetica,sans-Serif" font-size="10.00">::mouseNoLongerOnWidget</text>
</g>
<!-- Node116 -->
<g id="node2" class="node"><title>Node116</title>
<g id="a_node2"><a xlink:href="classtgui_1_1_toolkit_content_box.html#abe309614d2505e1d9447a05835d1264e" target="_top" xlink:title="Returns the renderer, which gives access to functions that determine how the widget is displayed...">
<polygon fill="white" stroke="black" points="173,-0.5 173,-30.5 291,-30.5 291,-0.5 173,-0.5"/>
<text text-anchor="start" x="181" y="-18.5" font-family="Helvetica,sans-Serif" font-size="10.00">tgui::ToolkitContentBox</text>
<text text-anchor="middle" x="232" y="-7.5" font-family="Helvetica,sans-Serif" font-size="10.00">::getRenderer</text>
</a>
</g>
</g>
<!-- Node115&#45;&gt;Node116 -->
<g id="edge1" class="edge"><title>Node115&#45;&gt;Node116</title>
<path fill="none" stroke="midnightblue" d="M147.189,-15.5C155.86,-15.5 164.579,-15.5 172.944,-15.5"/>
<polygon fill="midnightblue" stroke="midnightblue" points="147.055,-12.0001 137.055,-15.5 147.055,-19.0001 147.055,-12.0001"/>
</g>
<!-- Node117 -->
<g id="node3" class="node"><title>Node117</title>
<g id="a_node3"><a xlink:href="classtgui_1_1_toolkit_content_box.html#aa3d6bbdf144451da4d3d371ebddb2849" target="_top" xlink:title="Function called when one of the properties of the renderer is changed. ">
<polygon fill="white" stroke="black" points="327,-0.5 327,-30.5 445,-30.5 445,-0.5 327,-0.5"/>
<text text-anchor="start" x="335" y="-18.5" font-family="Helvetica,sans-Serif" font-size="10.00">tgui::ToolkitContentBox</text>
<text text-anchor="middle" x="386" y="-7.5" font-family="Helvetica,sans-Serif" font-size="10.00">::rendererChanged</text>
</a>
</g>
</g>
<!-- Node116&#45;&gt;Node117 -->
<g id="edge2" class="edge"><title>Node116&#45;&gt;Node117</title>
<path fill="none" stroke="midnightblue" d="M301.542,-8.77897C309.986,-8.71318 318.554,-8.75945 326.824,-8.91777"/>
<polygon fill="midnightblue" stroke="midnightblue" points="301.285,-5.28199 291.332,-8.91479 301.378,-12.2814 301.285,-5.28199"/>
</g>
<!-- Node117&#45;&gt;Node116 -->
<g id="edge3" class="edge"><title>Node117&#45;&gt;Node116</title>
<path fill="none" stroke="midnightblue" d="M316.617,-22.2198C308.175,-22.287 299.606,-22.2421 291.332,-22.0852"/>
<polygon fill="midnightblue" stroke="midnightblue" points="316.872,-25.7168 326.824,-22.0822 316.777,-18.7174 316.872,-25.7168"/>
</g>
</g>
</svg>
