<?xml version="1.0" encoding="UTF-8" standalone="no"?>
<!DOCTYPE svg PUBLIC "-//W3C//DTD SVG 1.1//EN"
 "http://www.w3.org/Graphics/SVG/1.1/DTD/svg11.dtd">
<!-- Generated by graphviz version 2.38.0 (20140413.2041)
 -->
<!-- Title: obe::Graphics::Colorable Pages: 1 -->
<svg width="145pt" height="196pt"
 viewBox="0.00 0.00 145.00 196.00" xmlns="http://www.w3.org/2000/svg" xmlns:xlink="http://www.w3.org/1999/xlink">
<g id="graph0" class="graph" transform="scale(1 1) rotate(0) translate(4 192)">
<title>obe::Graphics::Colorable</title>
<!-- Node8 -->
<g id="node1" class="node"><title>Node8</title>
<polygon fill="#bfbfbf" stroke="black" points="6.5,-0.5 6.5,-19.5 130.5,-19.5 130.5,-0.5 6.5,-0.5"/>
<text text-anchor="middle" x="68.5" y="-7.5" font-family="Helvetica,sans-Serif" font-size="10.00">obe::Graphics::Colorable</text>
</g>
<!-- Node9 -->
<g id="node2" class="node"><title>Node9</title>
<g id="a_node2"><a xlink:href="classobe_1_1_graphics_1_1_drawable.html" target="_top" xlink:title="obe::Graphics::Drawable">
<polygon fill="white" stroke="black" points="7,-56.5 7,-75.5 130,-75.5 130,-56.5 7,-56.5"/>
<text text-anchor="middle" x="68.5" y="-63.5" font-family="Helvetica,sans-Serif" font-size="10.00">obe::Graphics::Drawable</text>
</a>
</g>
</g>
<!-- Node9&#45;&gt;Node8 -->
<g id="edge1" class="edge"><title>Node9&#45;&gt;Node8</title>
<path fill="none" stroke="midnightblue" d="M68.5,-45.8045C68.5,-36.9102 68.5,-26.7798 68.5,-19.7511"/>
<polygon fill="midnightblue" stroke="midnightblue" points="65.0001,-46.083 68.5,-56.083 72.0001,-46.083 65.0001,-46.083"/>
</g>
<!-- Node10 -->
<g id="node3" class="node"><title>Node10</title>
<g id="a_node3"><a xlink:href="classobe_1_1_graphics_1_1_configurable.html" target="_top" xlink:title="obe::Graphics::Configurable">
<polygon fill="white" stroke="black" points="0,-112.5 0,-131.5 137,-131.5 137,-112.5 0,-112.5"/>
<text text-anchor="middle" x="68.5" y="-119.5" font-family="Helvetica,sans-Serif" font-size="10.00">obe::Graphics::Configurable</text>
</a>
</g>
</g>
<!-- Node10&#45;&gt;Node9 -->
<g id="edge2" class="edge"><title>Node10&#45;&gt;Node9</title>
<path fill="none" stroke="midnightblue" d="M68.5,-101.805C68.5,-92.9102 68.5,-82.7798 68.5,-75.7511"/>
<polygon fill="midnightblue" stroke="midnightblue" points="65.0001,-102.083 68.5,-112.083 72.0001,-102.083 65.0001,-102.083"/>
</g>
<!-- Node11 -->
<g id="node4" class="node"><title>Node11</title>
<g id="a_node4"><a xlink:href="classobe_1_1_graphics_1_1_element.html" target="_top" xlink:title="obe::Graphics::Element">
<polygon fill="white" stroke="black" points="9,-168.5 9,-187.5 128,-187.5 128,-168.5 9,-168.5"/>
<text text-anchor="middle" x="68.5" y="-175.5" font-family="Helvetica,sans-Serif" font-size="10.00">obe::Graphics::Element</text>
</a>
</g>
</g>
<!-- Node11&#45;&gt;Node10 -->
<g id="edge3" class="edge"><title>Node11&#45;&gt;Node10</title>
<path fill="none" stroke="midnightblue" d="M68.5,-157.805C68.5,-148.91 68.5,-138.78 68.5,-131.751"/>
<polygon fill="midnightblue" stroke="midnightblue" points="65.0001,-158.083 68.5,-168.083 72.0001,-158.083 65.0001,-158.083"/>
</g>
</g>
</svg>
