<?xml version="1.0" encoding="UTF-8" standalone="no"?>
<!DOCTYPE svg PUBLIC "-//W3C//DTD SVG 1.1//EN"
 "http://www.w3.org/Graphics/SVG/1.1/DTD/svg11.dtd">
<!-- Generated by graphviz version 2.38.0 (20140413.2041)
 -->
<!-- Title: obe::Triggers::Trigger::getName Pages: 1 -->
<svg width="559pt" height="39pt"
 viewBox="0.00 0.00 559.00 39.00" xmlns="http://www.w3.org/2000/svg" xmlns:xlink="http://www.w3.org/1999/xlink">
<g id="graph0" class="graph" transform="scale(1 1) rotate(0) translate(4 35)">
<title>obe::Triggers::Trigger::getName</title>
<!-- Node123 -->
<g id="node1" class="node"><title>Node123</title>
<polygon fill="#bfbfbf" stroke="black" points="0,-0.5 0,-30.5 108,-30.5 108,-0.5 0,-0.5"/>
<text text-anchor="start" x="8" y="-18.5" font-family="Helvetica,sans-Serif" font-size="10.00">obe::Triggers::Trigger</text>
<text text-anchor="middle" x="54" y="-7.5" font-family="Helvetica,sans-Serif" font-size="10.00">::getName</text>
</g>
<!-- Node124 -->
<g id="node2" class="node"><title>Node124</title>
<g id="a_node2"><a xlink:href="namespaceobe_1_1_bindings_1_1_triggers_bindings.html#acf730b78ea0b1ea2891868892bd54c4b" target="_top" xlink:title="obe::Bindings::TriggersBindings\l::LoadTrigger">
<polygon fill="white" stroke="black" points="144,-0.5 144,-30.5 298,-30.5 298,-0.5 144,-0.5"/>
<text text-anchor="start" x="152" y="-18.5" font-family="Helvetica,sans-Serif" font-size="10.00">obe::Bindings::TriggersBindings</text>
<text text-anchor="middle" x="221" y="-7.5" font-family="Helvetica,sans-Serif" font-size="10.00">::LoadTrigger</text>
</a>
</g>
</g>
<!-- Node123&#45;&gt;Node124 -->
<g id="edge1" class="edge"><title>Node123&#45;&gt;Node124</title>
<path fill="none" stroke="midnightblue" d="M118.191,-15.5C126.587,-15.5 135.266,-15.5 143.852,-15.5"/>
<polygon fill="midnightblue" stroke="midnightblue" points="118.115,-12.0001 108.115,-15.5 118.115,-19.0001 118.115,-12.0001"/>
</g>
<!-- Node125 -->
<g id="node3" class="node"><title>Node125</title>
<g id="a_node3"><a xlink:href="namespaceobe_1_1_bindings.html#a41d33207a0199f125c75a0f70a4a3ba8" target="_top" xlink:title="To call when the engine starts, indexes all Lua bindings. ">
<polygon fill="white" stroke="black" points="334,-6 334,-25 477,-25 477,-6 334,-6"/>
<text text-anchor="middle" x="405.5" y="-13" font-family="Helvetica,sans-Serif" font-size="10.00">obe::Bindings::IndexBindings</text>
</a>
</g>
</g>
<!-- Node124&#45;&gt;Node125 -->
<g id="edge2" class="edge"><title>Node124&#45;&gt;Node125</title>
<path fill="none" stroke="midnightblue" d="M308.125,-15.5C316.725,-15.5 325.387,-15.5 333.802,-15.5"/>
<polygon fill="midnightblue" stroke="midnightblue" points="308.075,-12.0001 298.075,-15.5 308.075,-19.0001 308.075,-12.0001"/>
</g>
<!-- Node126 -->
<g id="node4" class="node"><title>Node126</title>
<g id="a_node4"><a xlink:href="_ob_engine_8cpp.html#a3c04138a5bfe5d72780bb7e82a18e627" target="_top" xlink:title="main">
<polygon fill="white" stroke="black" points="513,-6 513,-25 551,-25 551,-6 513,-6"/>
<text text-anchor="middle" x="532" y="-13" font-family="Helvetica,sans-Serif" font-size="10.00">main</text>
</a>
</g>
</g>
<!-- Node125&#45;&gt;Node126 -->
<g id="edge3" class="edge"><title>Node125&#45;&gt;Node126</title>
<path fill="none" stroke="midnightblue" d="M487.161,-15.5C496.623,-15.5 505.462,-15.5 512.688,-15.5"/>
<polygon fill="midnightblue" stroke="midnightblue" points="487.117,-12.0001 477.117,-15.5 487.117,-19.0001 487.117,-12.0001"/>
</g>
</g>
</svg>
