<?xml version="1.0" encoding="UTF-8" standalone="no"?>
<!DOCTYPE svg PUBLIC "-//W3C//DTD SVG 1.1//EN"
 "http://www.w3.org/Graphics/SVG/1.1/DTD/svg11.dtd">
<!-- Generated by graphviz version 2.38.0 (20140413.2041)
 -->
<!-- Title: obe::Animation::RessourceManager::getTexture Pages: 1 -->
<svg width="474pt" height="39pt"
 viewBox="0.00 0.00 474.00 39.00" xmlns="http://www.w3.org/2000/svg" xmlns:xlink="http://www.w3.org/1999/xlink">
<g id="graph0" class="graph" transform="scale(1 1) rotate(0) translate(4 35)">
<title>obe::Animation::RessourceManager::getTexture</title>
<!-- Node10 -->
<g id="node1" class="node"><title>Node10</title>
<polygon fill="#bfbfbf" stroke="black" points="0,-0.5 0,-30.5 134,-30.5 134,-0.5 0,-0.5"/>
<text text-anchor="start" x="8" y="-18.5" font-family="Helvetica,sans-Serif" font-size="10.00">obe::Animation::Ressource</text>
<text text-anchor="middle" x="67" y="-7.5" font-family="Helvetica,sans-Serif" font-size="10.00">Manager::getTexture</text>
</g>
<!-- Node11 -->
<g id="node2" class="node"><title>Node11</title>
<g id="a_node2"><a xlink:href="classobe_1_1_animation_1_1_animation.html#a672d106427b224e31b2dfe1489d8c075" target="_top" xlink:title="Configure an Animation using the Animation configuration file (Vili file) ">
<polygon fill="white" stroke="black" points="170,-0.5 170,-30.5 301,-30.5 301,-0.5 170,-0.5"/>
<text text-anchor="start" x="178" y="-18.5" font-family="Helvetica,sans-Serif" font-size="10.00">obe::Animation::Animation</text>
<text text-anchor="middle" x="235.5" y="-7.5" font-family="Helvetica,sans-Serif" font-size="10.00">::loadAnimation</text>
</a>
</g>
</g>
<!-- Node10&#45;&gt;Node11 -->
<g id="edge1" class="edge"><title>Node10&#45;&gt;Node11</title>
<path fill="none" stroke="midnightblue" d="M144.522,-15.5C152.973,-15.5 161.516,-15.5 169.802,-15.5"/>
<polygon fill="midnightblue" stroke="midnightblue" points="144.284,-12.0001 134.284,-15.5 144.284,-19.0001 144.284,-12.0001"/>
</g>
<!-- Node12 -->
<g id="node3" class="node"><title>Node12</title>
<g id="a_node3"><a xlink:href="classobe_1_1_graphics_1_1_renderers_1_1_visual_novel.html#a57413ea17f40729ac2c7031deabf80be" target="_top" xlink:title="obe::Graphics::Renderers\l::VisualNovel::VisualNovel">
<polygon fill="white" stroke="black" points="337,-0.5 337,-30.5 466,-30.5 466,-0.5 337,-0.5"/>
<text text-anchor="start" x="345" y="-18.5" font-family="Helvetica,sans-Serif" font-size="10.00">obe::Graphics::Renderers</text>
<text text-anchor="middle" x="401.5" y="-7.5" font-family="Helvetica,sans-Serif" font-size="10.00">::VisualNovel::VisualNovel</text>
</a>
</g>
</g>
<!-- Node11&#45;&gt;Node12 -->
<g id="edge2" class="edge"><title>Node11&#45;&gt;Node12</title>
<path fill="none" stroke="midnightblue" d="M311.587,-15.5C320.066,-15.5 328.645,-15.5 336.958,-15.5"/>
<polygon fill="midnightblue" stroke="midnightblue" points="311.317,-12.0001 301.317,-15.5 311.317,-19.0001 311.317,-12.0001"/>
</g>
</g>
</svg>
