<?xml version="1.0" encoding="UTF-8" standalone="no"?>
<!DOCTYPE svg PUBLIC "-//W3C//DTD SVG 1.1//EN"
 "http://www.w3.org/Graphics/SVG/1.1/DTD/svg11.dtd">
<!-- Generated by graphviz version 2.38.0 (20140413.2041)
 -->
<!-- Title: vili::DataParser::writeFile Pages: 1 -->
<svg width="1339pt" height="297pt"
 viewBox="0.00 0.00 1339.00 296.50" xmlns="http://www.w3.org/2000/svg" xmlns:xlink="http://www.w3.org/1999/xlink">
<g id="graph0" class="graph" transform="scale(1 1) rotate(0) translate(4 292.5)">
<title>vili::DataParser::writeFile</title>
<!-- Node497 -->
<g id="node1" class="node"><title>Node497</title>
<polygon fill="#bfbfbf" stroke="black" points="0,-165 0,-184 124,-184 124,-165 0,-165"/>
<text text-anchor="middle" x="62" y="-172" font-family="Helvetica,sans-Serif" font-size="10.00">vili::DataParser::writeFile</text>
</g>
<!-- Node498 -->
<g id="node2" class="node"><title>Node498</title>
<g id="a_node2"><a xlink:href="namespaceobe_1_1_modes.html#aba069f9abc42724d76690602326d6b7d" target="_top" xlink:title="obe::Modes::createLevel">
<polygon fill="white" stroke="black" points="466,-269 466,-288 588,-288 588,-269 466,-269"/>
<text text-anchor="middle" x="527" y="-276" font-family="Helvetica,sans-Serif" font-size="10.00">obe::Modes::createLevel</text>
</a>
</g>
</g>
<!-- Node497&#45;&gt;Node498 -->
<g id="edge1" class="edge"><title>Node497&#45;&gt;Node498</title>
<path fill="none" stroke="midnightblue" d="M92.3496,-188.453C111.335,-197.089 136.757,-207.935 160,-215.5 264.534,-249.523 392.175,-266.172 465.774,-273.497"/>
<polygon fill="midnightblue" stroke="midnightblue" points="93.6004,-185.175 83.0537,-184.167 90.6695,-191.532 93.6004,-185.175"/>
</g>
<!-- Node502 -->
<g id="node6" class="node"><title>Node502</title>
<g id="a_node6"><a xlink:href="namespaceobe_1_1_script_1_1_core_lib.html#a144f31cc8b37c8d19a05138691229059" target="_top" xlink:title="obe::Script::CoreLib\l::loadVili">
<polygon fill="white" stroke="black" points="327,-132.5 327,-162.5 430,-162.5 430,-132.5 327,-132.5"/>
<text text-anchor="start" x="335" y="-150.5" font-family="Helvetica,sans-Serif" font-size="10.00">obe::Script::CoreLib</text>
<text text-anchor="middle" x="378.5" y="-139.5" font-family="Helvetica,sans-Serif" font-size="10.00">::loadVili</text>
</a>
</g>
</g>
<!-- Node497&#45;&gt;Node502 -->
<g id="edge6" class="edge"><title>Node497&#45;&gt;Node502</title>
<path fill="none" stroke="midnightblue" d="M134.315,-168.378C192.961,-163.343 274.623,-156.332 326.777,-151.855"/>
<polygon fill="midnightblue" stroke="midnightblue" points="133.676,-164.919 124.012,-169.262 134.274,-171.894 133.676,-164.919"/>
</g>
<!-- Node513 -->
<g id="node17" class="node"><title>Node513</title>
<g id="a_node17"><a xlink:href="namespaceobe_1_1_system.html#ab44a678f8f4dc351d966f90283ba67e1" target="_top" xlink:title="Function called to Mount all Paths using &#39;Mount.vili&#39; file. ">
<polygon fill="white" stroke="black" points="160,-187 160,-206 291,-206 291,-187 160,-187"/>
<text text-anchor="middle" x="225.5" y="-194" font-family="Helvetica,sans-Serif" font-size="10.00">obe::System::MountPaths</text>
</a>
</g>
</g>
<!-- Node497&#45;&gt;Node513 -->
<g id="edge22" class="edge"><title>Node497&#45;&gt;Node513</title>
<path fill="none" stroke="midnightblue" d="M134.045,-184.178C142.632,-185.348 151.368,-186.538 159.857,-187.694"/>
<polygon fill="midnightblue" stroke="midnightblue" points="134.437,-180.699 124.056,-182.817 133.492,-187.635 134.437,-180.699"/>
</g>
<!-- Node515 -->
<g id="node19" class="node"><title>Node515</title>
<g id="a_node19"><a xlink:href="namespaceobe_1_1_system_1_1_package.html#ad8db0c0875d239ceec4b89383b410c51" target="_top" xlink:title="Installs a Package. ">
<polygon fill="white" stroke="black" points="167.5,-91.5 167.5,-121.5 283.5,-121.5 283.5,-91.5 167.5,-91.5"/>
<text text-anchor="start" x="175.5" y="-109.5" font-family="Helvetica,sans-Serif" font-size="10.00">obe::System::Package</text>
<text text-anchor="middle" x="225.5" y="-98.5" font-family="Helvetica,sans-Serif" font-size="10.00">::Install</text>
</a>
</g>
</g>
<!-- Node497&#45;&gt;Node515 -->
<g id="edge26" class="edge"><title>Node497&#45;&gt;Node515</title>
<path fill="none" stroke="midnightblue" d="M95.1878,-160.947C122.207,-149.571 160.766,-133.335 188.742,-121.556"/>
<polygon fill="midnightblue" stroke="midnightblue" points="93.6546,-157.795 85.7965,-164.901 96.3711,-164.247 93.6546,-157.795"/>
</g>
<!-- Node499 -->
<g id="node3" class="node"><title>Node499</title>
<g id="a_node3"><a xlink:href="namespaceobe_1_1_modes.html#a3f3265818dfb12925bf614e517346f73" target="_top" xlink:title="Starts the menu used to chose a map to edit. ">
<polygon fill="white" stroke="black" points="940,-269 940,-288 1088,-288 1088,-269 940,-269"/>
<text text-anchor="middle" x="1014" y="-276" font-family="Helvetica,sans-Serif" font-size="10.00">obe::Modes::chooseMapMenu</text>
</a>
</g>
</g>
<!-- Node498&#45;&gt;Node499 -->
<g id="edge2" class="edge"><title>Node498&#45;&gt;Node499</title>
<path fill="none" stroke="midnightblue" d="M598.68,-278.5C689.832,-278.5 847.587,-278.5 939.9,-278.5"/>
<polygon fill="midnightblue" stroke="midnightblue" points="598.445,-275 588.445,-278.5 598.445,-282 598.445,-275"/>
</g>
<!-- Node500 -->
<g id="node4" class="node"><title>Node500</title>
<g id="a_node4"><a xlink:href="namespaceobe_1_1_modes.html#a6a8b08eee511d4895c4da96d4ba223a6" target="_top" xlink:title="Starts the development Menu where you can starts other menus from. ">
<polygon fill="white" stroke="black" points="1124,-193 1124,-212 1257,-212 1257,-193 1124,-193"/>
<text text-anchor="middle" x="1190.5" y="-200" font-family="Helvetica,sans-Serif" font-size="10.00">obe::Modes::startDevMenu</text>
</a>
</g>
</g>
<!-- Node499&#45;&gt;Node500 -->
<g id="edge3" class="edge"><title>Node499&#45;&gt;Node500</title>
<path fill="none" stroke="midnightblue" d="M1046.38,-264.834C1081.35,-249.602 1137,-225.367 1167.58,-212.047"/>
<polygon fill="midnightblue" stroke="midnightblue" points="1044.87,-261.673 1037.1,-268.875 1047.67,-268.09 1044.87,-261.673"/>
</g>
<!-- Node501 -->
<g id="node5" class="node"><title>Node501</title>
<g id="a_node5"><a xlink:href="_ob_engine_8cpp.html#a3c04138a5bfe5d72780bb7e82a18e627" target="_top" xlink:title="main">
<polygon fill="white" stroke="black" points="1293,-212 1293,-231 1331,-231 1331,-212 1293,-212"/>
<text text-anchor="middle" x="1312" y="-219" font-family="Helvetica,sans-Serif" font-size="10.00">main</text>
</a>
</g>
</g>
<!-- Node499&#45;&gt;Node501 -->
<g id="edge5" class="edge"><title>Node499&#45;&gt;Node501</title>
<path fill="none" stroke="midnightblue" d="M1098.5,-279.358C1146.05,-277.611 1206.1,-271.578 1257,-254.5 1272.62,-249.258 1288.48,-238.829 1298.93,-231.092"/>
<polygon fill="midnightblue" stroke="midnightblue" points="1098.14,-275.868 1088.25,-279.676 1098.35,-282.865 1098.14,-275.868"/>
</g>
<!-- Node500&#45;&gt;Node501 -->
<g id="edge4" class="edge"><title>Node500&#45;&gt;Node501</title>
<path fill="none" stroke="midnightblue" d="M1261.82,-213.681C1273.35,-215.513 1284.33,-217.259 1292.98,-218.635"/>
<polygon fill="midnightblue" stroke="midnightblue" points="1262.03,-210.169 1251.6,-212.056 1260.93,-217.083 1262.03,-210.169"/>
</g>
<!-- Node503 -->
<g id="node7" class="node"><title>Node503</title>
<g id="a_node7"><a xlink:href="namespaceobe_1_1_script.html#abdb81ec0976f1097cef6711415b8fac3" target="_top" xlink:title="obe::Script::loadCoreLib">
<polygon fill="white" stroke="black" points="466.5,-138 466.5,-157 587.5,-157 587.5,-138 466.5,-138"/>
<text text-anchor="middle" x="527" y="-145" font-family="Helvetica,sans-Serif" font-size="10.00">obe::Script::loadCoreLib</text>
</a>
</g>
</g>
<!-- Node502&#45;&gt;Node503 -->
<g id="edge7" class="edge"><title>Node502&#45;&gt;Node503</title>
<path fill="none" stroke="midnightblue" d="M440.328,-147.5C448.966,-147.5 457.841,-147.5 466.453,-147.5"/>
<polygon fill="midnightblue" stroke="midnightblue" points="440.327,-144 430.327,-147.5 440.327,-151 440.327,-144"/>
</g>
<!-- Node504 -->
<g id="node8" class="node"><title>Node504</title>
<g id="a_node8"><a xlink:href="namespaceobe_1_1_script.html#a4e6ee77032cf7f66544f9b08464a60b7" target="_top" xlink:title="obe::Script::loadLib">
<polygon fill="white" stroke="black" points="625,-94 625,-113 726,-113 726,-94 625,-94"/>
<text text-anchor="middle" x="675.5" y="-101" font-family="Helvetica,sans-Serif" font-size="10.00">obe::Script::loadLib</text>
</a>
</g>
</g>
<!-- Node503&#45;&gt;Node504 -->
<g id="edge8" class="edge"><title>Node503&#45;&gt;Node504</title>
<path fill="none" stroke="midnightblue" d="M569.402,-135.065C592.68,-128.074 621.286,-119.482 642.774,-113.029"/>
<polygon fill="midnightblue" stroke="midnightblue" points="568.359,-131.724 559.788,-137.953 570.372,-138.428 568.359,-131.724"/>
</g>
<!-- Node512 -->
<g id="node16" class="node"><title>Node512</title>
<g id="a_node16"><a xlink:href="namespaceobe_1_1_script_1_1_core_lib.html#a07d6c11bbb082bc45bdba50d97965c00" target="_top" xlink:title="obe::Script::CoreLib\l::loadCollision">
<polygon fill="white" stroke="black" points="624,-132.5 624,-162.5 727,-162.5 727,-132.5 624,-132.5"/>
<text text-anchor="start" x="632" y="-150.5" font-family="Helvetica,sans-Serif" font-size="10.00">obe::Script::CoreLib</text>
<text text-anchor="middle" x="675.5" y="-139.5" font-family="Helvetica,sans-Serif" font-size="10.00">::loadCollision</text>
</a>
</g>
</g>
<!-- Node503&#45;&gt;Node512 -->
<g id="edge20" class="edge"><title>Node503&#45;&gt;Node512</title>
<path fill="none" stroke="midnightblue" d="M597.838,-140.757C606.621,-140.723 615.47,-140.819 623.878,-141.045"/>
<polygon fill="midnightblue" stroke="midnightblue" points="597.553,-137.259 587.587,-140.855 597.621,-144.259 597.553,-137.259"/>
</g>
<!-- Node505 -->
<g id="node9" class="node"><title>Node505</title>
<g id="a_node9"><a xlink:href="namespaceobe_1_1_modes.html#a1e38c0d9a2ca0230f0de79c298f53ab9" target="_top" xlink:title="A mode that will start the Toolkit. ">
<polygon fill="white" stroke="black" points="941,-163 941,-182 1087,-182 1087,-163 941,-163"/>
<text text-anchor="middle" x="1014" y="-170" font-family="Helvetica,sans-Serif" font-size="10.00">obe::Modes::startToolkitMode</text>
</a>
</g>
</g>
<!-- Node504&#45;&gt;Node505 -->
<g id="edge9" class="edge"><title>Node504&#45;&gt;Node505</title>
<path fill="none" stroke="midnightblue" d="M717.768,-117.199C720.984,-118.811 724.103,-120.576 727,-122.5 746.381,-135.369 741.855,-150.798 763,-160.5 822.24,-187.683 897.889,-187.13 950.379,-182.013"/>
<polygon fill="midnightblue" stroke="midnightblue" points="719.111,-113.965 708.555,-113.055 716.239,-120.349 719.111,-113.965"/>
</g>
<!-- Node506 -->
<g id="node10" class="node"><title>Node506</title>
<g id="a_node10"><a xlink:href="classobe_1_1_scene_1_1_world.html#a32964e659e18cb32094d9f8ceea30aa3" target="_top" xlink:title="obe::Scene::World::\lWorld">
<polygon fill="white" stroke="black" points="962,-69.5 962,-99.5 1066,-99.5 1066,-69.5 962,-69.5"/>
<text text-anchor="start" x="970" y="-87.5" font-family="Helvetica,sans-Serif" font-size="10.00">obe::Scene::World::</text>
<text text-anchor="middle" x="1014" y="-76.5" font-family="Helvetica,sans-Serif" font-size="10.00">World</text>
</a>
</g>
</g>
<!-- Node504&#45;&gt;Node506 -->
<g id="edge12" class="edge"><title>Node504&#45;&gt;Node506</title>
<path fill="none" stroke="midnightblue" d="M736.51,-100.112C800.639,-96.4907 901.223,-90.8113 961.764,-87.393"/>
<polygon fill="midnightblue" stroke="midnightblue" points="735.938,-96.6382 726.152,-100.696 736.333,-103.627 735.938,-96.6382"/>
</g>
<!-- Node507 -->
<g id="node11" class="node"><title>Node507</title>
<g id="a_node11"><a xlink:href="namespaceobe_1_1_scene.html#ae5cbcc3278d9115d603e5024dec9136e" target="_top" xlink:title="obe::Scene::loadWorldScript\lEngineBaseLib">
<polygon fill="white" stroke="black" points="763,-44.5 763,-74.5 904,-74.5 904,-44.5 763,-44.5"/>
<text text-anchor="start" x="771" y="-62.5" font-family="Helvetica,sans-Serif" font-size="10.00">obe::Scene::loadWorldScript</text>
<text text-anchor="middle" x="833.5" y="-51.5" font-family="Helvetica,sans-Serif" font-size="10.00">EngineBaseLib</text>
</a>
</g>
</g>
<!-- Node504&#45;&gt;Node507 -->
<g id="edge13" class="edge"><title>Node504&#45;&gt;Node507</title>
<path fill="none" stroke="midnightblue" d="M720.151,-91.1882C738.437,-86.0306 759.871,-79.9852 779.086,-74.5654"/>
<polygon fill="midnightblue" stroke="midnightblue" points="719.024,-87.8694 710.35,-93.9527 720.924,-94.6066 719.024,-87.8694"/>
</g>
<!-- Node508 -->
<g id="node12" class="node"><title>Node508</title>
<g id="a_node12"><a xlink:href="namespaceobe_1_1_script.html#a5e992c0efb0543e7c934bc1065f08b01" target="_top" xlink:title="obe::Script::loadLibBridge">
<polygon fill="white" stroke="black" points="769.5,-6 769.5,-25 897.5,-25 897.5,-6 769.5,-6"/>
<text text-anchor="middle" x="833.5" y="-13" font-family="Helvetica,sans-Serif" font-size="10.00">obe::Script::loadLibBridge</text>
</a>
</g>
</g>
<!-- Node504&#45;&gt;Node508 -->
<g id="edge15" class="edge"><title>Node504&#45;&gt;Node508</title>
<path fill="none" stroke="midnightblue" d="M692.888,-86.9882C709.291,-71.3462 735.919,-48.2593 763,-34.5 770.472,-30.7037 778.793,-27.5931 787.007,-25.0693"/>
<polygon fill="midnightblue" stroke="midnightblue" points="690.417,-84.5089 685.7,-93.9956 695.304,-89.5213 690.417,-84.5089"/>
</g>
<!-- Node511 -->
<g id="node15" class="node"><title>Node511</title>
<g id="a_node15"><a xlink:href="namespaceobe_1_1_script.html#aad6ef67388e6d16eb01853f208da410f" target="_top" xlink:title="obe::Script::loadBaseLib">
<polygon fill="white" stroke="black" points="772,-132 772,-151 895,-151 895,-132 772,-132"/>
<text text-anchor="middle" x="833.5" y="-139" font-family="Helvetica,sans-Serif" font-size="10.00">obe::Script::loadBaseLib</text>
</a>
</g>
</g>
<!-- Node504&#45;&gt;Node511 -->
<g id="edge18" class="edge"><title>Node504&#45;&gt;Node511</title>
<path fill="none" stroke="midnightblue" d="M725.632,-115.468C747.493,-120.793 772.876,-126.976 793.418,-131.98"/>
<polygon fill="midnightblue" stroke="midnightblue" points="726.41,-112.055 715.865,-113.089 724.753,-118.856 726.41,-112.055"/>
</g>
<!-- Node505&#45;&gt;Node500 -->
<g id="edge10" class="edge"><title>Node505&#45;&gt;Node500</title>
<path fill="none" stroke="midnightblue" d="M1080.85,-183.82C1098.37,-186.834 1117.13,-190.058 1134.04,-192.965"/>
<polygon fill="midnightblue" stroke="midnightblue" points="1081.14,-180.32 1070.69,-182.075 1079.96,-187.218 1081.14,-180.32"/>
</g>
<!-- Node505&#45;&gt;Node501 -->
<g id="edge11" class="edge"><title>Node505&#45;&gt;Node501</title>
<path fill="none" stroke="midnightblue" d="M1097.12,-164.966C1144.99,-163.315 1205.82,-166.009 1257,-183.5 1274.36,-189.432 1291.11,-202.792 1301.24,-211.979"/>
<polygon fill="midnightblue" stroke="midnightblue" points="1096.96,-161.47 1087.11,-165.38 1097.25,-168.464 1096.96,-161.47"/>
</g>
<!-- Node507&#45;&gt;Node506 -->
<g id="edge14" class="edge"><title>Node507&#45;&gt;Node506</title>
<path fill="none" stroke="midnightblue" d="M914.062,-70.6432C930.306,-72.9183 946.983,-75.254 961.907,-77.3441"/>
<polygon fill="midnightblue" stroke="midnightblue" points="914.413,-67.1582 904.024,-69.2372 913.442,-74.0905 914.413,-67.1582"/>
</g>
<!-- Node509 -->
<g id="node13" class="node"><title>Node509</title>
<g id="a_node13"><a xlink:href="namespaceobe_1_1_script.html#a5dc8321da50fd4b5dc2935e4d8c93a4e" target="_top" xlink:title="obe::Script::loadScrGame\lObject">
<polygon fill="white" stroke="black" points="949.5,-0.5 949.5,-30.5 1078.5,-30.5 1078.5,-0.5 949.5,-0.5"/>
<text text-anchor="start" x="957.5" y="-18.5" font-family="Helvetica,sans-Serif" font-size="10.00">obe::Script::loadScrGame</text>
<text text-anchor="middle" x="1014" y="-7.5" font-family="Helvetica,sans-Serif" font-size="10.00">Object</text>
</a>
</g>
</g>
<!-- Node508&#45;&gt;Node509 -->
<g id="edge16" class="edge"><title>Node508&#45;&gt;Node509</title>
<path fill="none" stroke="midnightblue" d="M908.034,-15.5C921.727,-15.5 935.931,-15.5 949.299,-15.5"/>
<polygon fill="midnightblue" stroke="midnightblue" points="907.684,-12.0001 897.684,-15.5 907.684,-19.0001 907.684,-12.0001"/>
</g>
<!-- Node510 -->
<g id="node14" class="node"><title>Node510</title>
<g id="a_node14"><a xlink:href="classobe_1_1_script_1_1_game_object.html#aadeac0036d2fe21d523acfd4e9011a23" target="_top" xlink:title="obe::Script::GameObject\l::loadGameObject">
<polygon fill="white" stroke="black" points="1128,-0.5 1128,-30.5 1253,-30.5 1253,-0.5 1128,-0.5"/>
<text text-anchor="start" x="1136" y="-18.5" font-family="Helvetica,sans-Serif" font-size="10.00">obe::Script::GameObject</text>
<text text-anchor="middle" x="1190.5" y="-7.5" font-family="Helvetica,sans-Serif" font-size="10.00">::loadGameObject</text>
</a>
</g>
</g>
<!-- Node509&#45;&gt;Node510 -->
<g id="edge17" class="edge"><title>Node509&#45;&gt;Node510</title>
<path fill="none" stroke="midnightblue" d="M1089.21,-15.5C1102.09,-15.5 1115.35,-15.5 1127.85,-15.5"/>
<polygon fill="midnightblue" stroke="midnightblue" points="1088.99,-12.0001 1078.99,-15.5 1088.99,-19.0001 1088.99,-12.0001"/>
</g>
<!-- Node511&#45;&gt;Node505 -->
<g id="edge19" class="edge"><title>Node511&#45;&gt;Node505</title>
<path fill="none" stroke="midnightblue" d="M899.42,-152.775C918.693,-156.122 939.604,-159.753 958.169,-162.978"/>
<polygon fill="midnightblue" stroke="midnightblue" points="899.964,-149.317 889.512,-151.054 898.766,-156.214 899.964,-149.317"/>
</g>
<!-- Node512&#45;&gt;Node503 -->
<g id="edge21" class="edge"><title>Node512&#45;&gt;Node503</title>
<path fill="none" stroke="midnightblue" d="M613.835,-154.161C605.16,-154.285 596.242,-154.28 587.587,-154.145"/>
<polygon fill="midnightblue" stroke="midnightblue" points="613.952,-157.659 623.878,-153.955 613.808,-150.661 613.952,-157.659"/>
</g>
<!-- Node513&#45;&gt;Node501 -->
<g id="edge23" class="edge"><title>Node513&#45;&gt;Node501</title>
<path fill="none" stroke="midnightblue" d="M277.663,-208.317C282.175,-209.384 286.671,-210.456 291,-211.5 307.032,-215.368 310.753,-217.668 327,-220.5 414.57,-235.764 437.11,-240.5 526,-240.5 526,-240.5 526,-240.5 1015,-240.5 1120.31,-240.5 1246.25,-228.376 1292.67,-223.497"/>
<polygon fill="midnightblue" stroke="midnightblue" points="278.35,-204.883 267.814,-206.001 276.748,-211.697 278.35,-204.883"/>
</g>
<!-- Node514 -->
<g id="node18" class="node"><title>Node514</title>
<g id="a_node18"><a xlink:href="namespaceobe_1_1_script_1_1_core_lib.html#a474d9f2d7938ff05a78649907b8a77d3" target="_top" xlink:title="obe::Script::CoreLib\l::loadPath">
<polygon fill="white" stroke="black" points="327,-181.5 327,-211.5 430,-211.5 430,-181.5 327,-181.5"/>
<text text-anchor="start" x="335" y="-199.5" font-family="Helvetica,sans-Serif" font-size="10.00">obe::Script::CoreLib</text>
<text text-anchor="middle" x="378.5" y="-188.5" font-family="Helvetica,sans-Serif" font-size="10.00">::loadPath</text>
</a>
</g>
</g>
<!-- Node513&#45;&gt;Node514 -->
<g id="edge24" class="edge"><title>Node513&#45;&gt;Node514</title>
<path fill="none" stroke="midnightblue" d="M301.453,-196.5C310.031,-196.5 318.619,-196.5 326.773,-196.5"/>
<polygon fill="midnightblue" stroke="midnightblue" points="301.414,-193 291.414,-196.5 301.414,-200 301.414,-193"/>
</g>
<!-- Node514&#45;&gt;Node503 -->
<g id="edge25" class="edge"><title>Node514&#45;&gt;Node503</title>
<path fill="none" stroke="midnightblue" d="M434.313,-178.167C455.751,-170.996 479.442,-163.072 497.372,-157.075"/>
<polygon fill="midnightblue" stroke="midnightblue" points="433.024,-174.907 424.65,-181.399 435.244,-181.546 433.024,-174.907"/>
</g>
<!-- Node516 -->
<g id="node20" class="node"><title>Node516</title>
<g id="a_node20"><a xlink:href="namespaceobe_1_1_script_1_1_core_lib.html#a1f5462552ef202ab28d4e0613eeda3f7" target="_top" xlink:title="obe::Script::CoreLib\l::loadPackage">
<polygon fill="white" stroke="black" points="327,-83.5 327,-113.5 430,-113.5 430,-83.5 327,-83.5"/>
<text text-anchor="start" x="335" y="-101.5" font-family="Helvetica,sans-Serif" font-size="10.00">obe::Script::CoreLib</text>
<text text-anchor="middle" x="378.5" y="-90.5" font-family="Helvetica,sans-Serif" font-size="10.00">::loadPackage</text>
</a>
</g>
</g>
<!-- Node515&#45;&gt;Node516 -->
<g id="edge27" class="edge"><title>Node515&#45;&gt;Node516</title>
<path fill="none" stroke="midnightblue" d="M293.694,-102.94C304.804,-102.351 316.158,-101.75 326.776,-101.187"/>
<polygon fill="midnightblue" stroke="midnightblue" points="293.387,-99.4513 283.587,-103.476 293.758,-106.441 293.387,-99.4513"/>
</g>
<!-- Node516&#45;&gt;Node503 -->
<g id="edge28" class="edge"><title>Node516&#45;&gt;Node503</title>
<path fill="none" stroke="midnightblue" d="M434.313,-116.833C455.751,-124.004 479.442,-131.928 497.372,-137.925"/>
<polygon fill="midnightblue" stroke="midnightblue" points="435.244,-113.454 424.65,-113.601 433.024,-120.093 435.244,-113.454"/>
</g>
</g>
</svg>
