<?xml version="1.0" encoding="UTF-8" standalone="no"?>
<!DOCTYPE svg PUBLIC "-//W3C//DTD SVG 1.1//EN"
 "http://www.w3.org/Graphics/SVG/1.1/DTD/svg11.dtd">
<!-- Generated by graphviz version 2.38.0 (20140413.2041)
 -->
<!-- Title: obe::Scene::Scene::~Scene Pages: 1 -->
<svg width="573pt" height="186pt"
 viewBox="0.00 0.00 573.00 186.00" xmlns="http://www.w3.org/2000/svg" xmlns:xlink="http://www.w3.org/1999/xlink">
<g id="graph0" class="graph" transform="scale(1 1) rotate(0) translate(4 182)">
<title>obe::Scene::Scene::~Scene</title>
<!-- Node90 -->
<g id="node1" class="node"><title>Node90</title>
<polygon fill="#bfbfbf" stroke="black" points="0,-97.5 0,-127.5 106,-127.5 106,-97.5 0,-97.5"/>
<text text-anchor="start" x="8" y="-115.5" font-family="Helvetica,sans-Serif" font-size="10.00">obe::Scene::Scene::</text>
<text text-anchor="middle" x="53" y="-104.5" font-family="Helvetica,sans-Serif" font-size="10.00">~Scene</text>
</g>
<!-- Node91 -->
<g id="node2" class="node"><title>Node91</title>
<g id="a_node2"><a xlink:href="classobe_1_1_triggers_1_1_trigger_database.html#a7fa7c3acb40846820d7f11a344d73451" target="_top" xlink:title="As TriggerDatabase is a Singleton, gets the single instance. ">
<polygon fill="white" stroke="black" points="142,-122.5 142,-152.5 291,-152.5 291,-122.5 142,-122.5"/>
<text text-anchor="start" x="150" y="-140.5" font-family="Helvetica,sans-Serif" font-size="10.00">obe::Triggers::TriggerDatabase</text>
<text text-anchor="middle" x="216.5" y="-129.5" font-family="Helvetica,sans-Serif" font-size="10.00">::GetInstance</text>
</a>
</g>
</g>
<!-- Node90&#45;&gt;Node91 -->
<g id="edge1" class="edge"><title>Node90&#45;&gt;Node91</title>
<path fill="none" stroke="midnightblue" d="M106.434,-120.617C114.577,-121.877 123.159,-123.206 131.787,-124.541"/>
<polygon fill="midnightblue" stroke="midnightblue" points="131.494,-128.038 141.912,-126.109 132.565,-121.12 131.494,-128.038"/>
</g>
<!-- Node92 -->
<g id="node3" class="node"><title>Node92</title>
<g id="a_node3"><a xlink:href="classobe_1_1_triggers_1_1_trigger_database.html#a270831c059617b67843e92913545883c" target="_top" xlink:title="Removes an existing namespace. ">
<polygon fill="white" stroke="black" points="142,-73.5 142,-103.5 291,-103.5 291,-73.5 142,-73.5"/>
<text text-anchor="start" x="150" y="-91.5" font-family="Helvetica,sans-Serif" font-size="10.00">obe::Triggers::TriggerDatabase</text>
<text text-anchor="middle" x="216.5" y="-80.5" font-family="Helvetica,sans-Serif" font-size="10.00">::removeNamespace</text>
</a>
</g>
</g>
<!-- Node90&#45;&gt;Node92 -->
<g id="edge2" class="edge"><title>Node90&#45;&gt;Node92</title>
<path fill="none" stroke="midnightblue" d="M106.434,-104.708C114.577,-103.498 123.159,-102.222 131.787,-100.94"/>
<polygon fill="midnightblue" stroke="midnightblue" points="132.535,-104.368 141.912,-99.4357 131.506,-97.4437 132.535,-104.368"/>
</g>
<!-- Node93 -->
<g id="node4" class="node"><title>Node93</title>
<g id="a_node4"><a xlink:href="classaube_1_1_error_handler.html#a7c8d44a3e7f019646d289950abc5301b" target="_top" xlink:title="Raises an Error loaded in the Aube Error Database (AED) ">
<polygon fill="white" stroke="black" points="327,-73.5 327,-103.5 425,-103.5 425,-73.5 327,-73.5"/>
<text text-anchor="start" x="335" y="-91.5" font-family="Helvetica,sans-Serif" font-size="10.00">aube::ErrorHandler</text>
<text text-anchor="middle" x="376" y="-80.5" font-family="Helvetica,sans-Serif" font-size="10.00">::Raise</text>
</a>
</g>
</g>
<!-- Node92&#45;&gt;Node93 -->
<g id="edge3" class="edge"><title>Node92&#45;&gt;Node93</title>
<path fill="none" stroke="midnightblue" d="M291.177,-88.5C299.621,-88.5 308.143,-88.5 316.353,-88.5"/>
<polygon fill="midnightblue" stroke="midnightblue" points="316.555,-92.0001 326.555,-88.5 316.555,-85.0001 316.555,-92.0001"/>
</g>
<!-- Node94 -->
<g id="node5" class="node"><title>Node94</title>
<g id="a_node5"><a xlink:href="classaube_1_1_error_message.html#a3a39b6fcd8fdb12eaf6383123535b8ca" target="_top" xlink:title="Gets the File where is located the ErrorMessage when raised. ">
<polygon fill="white" stroke="black" points="461,-147.5 461,-177.5 565,-177.5 565,-147.5 461,-147.5"/>
<text text-anchor="start" x="469" y="-165.5" font-family="Helvetica,sans-Serif" font-size="10.00">aube::ErrorMessage</text>
<text text-anchor="middle" x="513" y="-154.5" font-family="Helvetica,sans-Serif" font-size="10.00">::getFile</text>
</a>
</g>
</g>
<!-- Node93&#45;&gt;Node94 -->
<g id="edge4" class="edge"><title>Node93&#45;&gt;Node94</title>
<path fill="none" stroke="midnightblue" d="M400.905,-103.572C417.524,-113.84 440.318,-127.511 461,-138.5 463.852,-140.015 466.816,-141.538 469.816,-143.043"/>
<polygon fill="midnightblue" stroke="midnightblue" points="468.327,-146.211 478.847,-147.471 471.409,-139.926 468.327,-146.211"/>
</g>
<!-- Node95 -->
<g id="node6" class="node"><title>Node95</title>
<g id="a_node6"><a xlink:href="classaube_1_1_error_message.html#a9184cc96589578f434351c105b0cd5f7" target="_top" xlink:title="Gets the location of the error in the code. ">
<polygon fill="white" stroke="black" points="461,-98.5 461,-128.5 565,-128.5 565,-98.5 461,-98.5"/>
<text text-anchor="start" x="469" y="-116.5" font-family="Helvetica,sans-Serif" font-size="10.00">aube::ErrorMessage</text>
<text text-anchor="middle" x="513" y="-105.5" font-family="Helvetica,sans-Serif" font-size="10.00">::getLocation</text>
</a>
</g>
</g>
<!-- Node93&#45;&gt;Node95 -->
<g id="edge5" class="edge"><title>Node93&#45;&gt;Node95</title>
<path fill="none" stroke="midnightblue" d="M425.357,-97.455C433.622,-98.9856 442.306,-100.594 450.852,-102.176"/>
<polygon fill="midnightblue" stroke="midnightblue" points="450.318,-105.637 460.788,-104.016 451.592,-98.7538 450.318,-105.637"/>
</g>
<!-- Node96 -->
<g id="node7" class="node"><title>Node96</title>
<g id="a_node7"><a xlink:href="classaube_1_1_error_message.html#a07927cb3e2d0712c459cc9e2b5f52696" target="_top" xlink:title="Gets the message displayed by the ErrorMessage when raised. ">
<polygon fill="white" stroke="black" points="461,-49.5 461,-79.5 565,-79.5 565,-49.5 461,-49.5"/>
<text text-anchor="start" x="469" y="-67.5" font-family="Helvetica,sans-Serif" font-size="10.00">aube::ErrorMessage</text>
<text text-anchor="middle" x="513" y="-56.5" font-family="Helvetica,sans-Serif" font-size="10.00">::getMessage</text>
</a>
</g>
</g>
<!-- Node93&#45;&gt;Node96 -->
<g id="edge6" class="edge"><title>Node93&#45;&gt;Node96</title>
<path fill="none" stroke="midnightblue" d="M425.357,-79.9032C433.622,-78.4338 442.306,-76.8901 450.852,-75.3708"/>
<polygon fill="midnightblue" stroke="midnightblue" points="451.555,-78.8008 460.788,-73.6044 450.33,-71.9088 451.555,-78.8008"/>
</g>
<!-- Node97 -->
<g id="node8" class="node"><title>Node97</title>
<g id="a_node8"><a xlink:href="classaube_1_1_error_message.html#a77c2f9b7e93542c958173b52da267989" target="_top" xlink:title="Gets hints that can help the error resolution. ">
<polygon fill="white" stroke="black" points="461,-0.5 461,-30.5 565,-30.5 565,-0.5 461,-0.5"/>
<text text-anchor="start" x="469" y="-18.5" font-family="Helvetica,sans-Serif" font-size="10.00">aube::ErrorMessage</text>
<text text-anchor="middle" x="513" y="-7.5" font-family="Helvetica,sans-Serif" font-size="10.00">::getHints</text>
</a>
</g>
</g>
<!-- Node93&#45;&gt;Node97 -->
<g id="edge7" class="edge"><title>Node93&#45;&gt;Node97</title>
<path fill="none" stroke="midnightblue" d="M402.5,-73.3689C419.032,-63.6992 441.114,-51.042 461,-40.5 464.332,-38.7334 467.808,-36.9366 471.308,-35.158"/>
<polygon fill="midnightblue" stroke="midnightblue" points="473.182,-38.1343 480.555,-30.526 470.046,-31.8757 473.182,-38.1343"/>
</g>
</g>
</svg>
