<?xml version="1.0" encoding="UTF-8" standalone="no"?>
<!DOCTYPE svg PUBLIC "-//W3C//DTD SVG 1.1//EN"
 "http://www.w3.org/Graphics/SVG/1.1/DTD/svg11.dtd">
<!-- Generated by graphviz version 2.38.0 (20140413.2041)
 -->
<!-- Title: vili::DataNode::string Pages: 1 -->
<svg width="426pt" height="350pt"
 viewBox="0.00 0.00 426.00 350.00" xmlns="http://www.w3.org/2000/svg" xmlns:xlink="http://www.w3.org/1999/xlink">
<g id="graph0" class="graph" transform="scale(1 1) rotate(0) translate(4 346)">
<title>vili::DataNode::string</title>
<!-- Node368 -->
<g id="node1" class="node"><title>Node368</title>
<polygon fill="#bfbfbf" stroke="black" points="0,-153 0,-172 106,-172 106,-153 0,-153"/>
<text text-anchor="middle" x="53" y="-160" font-family="Helvetica,sans-Serif" font-size="10.00">vili::DataNode::string</text>
</g>
<!-- Node369 -->
<g id="node2" class="node"><title>Node369</title>
<g id="a_node2"><a xlink:href="classaube_1_1_error_handler.html#a7c8d44a3e7f019646d289950abc5301b" target="_top" xlink:title="Raises an Error loaded in the Aube Error Database (AED) ">
<polygon fill="white" stroke="black" points="152,-213.5 152,-243.5 250,-243.5 250,-213.5 152,-213.5"/>
<text text-anchor="start" x="160" y="-231.5" font-family="Helvetica,sans-Serif" font-size="10.00">aube::ErrorHandler</text>
<text text-anchor="middle" x="201" y="-220.5" font-family="Helvetica,sans-Serif" font-size="10.00">::Raise</text>
</a>
</g>
</g>
<!-- Node368&#45;&gt;Node369 -->
<g id="edge1" class="edge"><title>Node368&#45;&gt;Node369</title>
<path fill="none" stroke="midnightblue" d="M75.2297,-172.097C96.6657,-181.787 130.372,-197.024 157.35,-209.22"/>
<polygon fill="midnightblue" stroke="midnightblue" points="156.027,-212.463 166.581,-213.393 158.911,-206.084 156.027,-212.463"/>
</g>
<!-- Node374 -->
<g id="node7" class="node"><title>Node374</title>
<g id="a_node7"><a xlink:href="classvili_1_1_node.html#a5a6ad518f51d824e06ae7be0328f4864" target="_top" xlink:title="Get the Node Path (Example : GrandParent/Parent/Node) ">
<polygon fill="white" stroke="black" points="142,-88 142,-107 260,-107 260,-88 142,-88"/>
<text text-anchor="middle" x="201" y="-95" font-family="Helvetica,sans-Serif" font-size="10.00">vili::Node::getNodePath</text>
</a>
</g>
</g>
<!-- Node368&#45;&gt;Node374 -->
<g id="edge6" class="edge"><title>Node368&#45;&gt;Node374</title>
<path fill="none" stroke="midnightblue" d="M75.5428,-152.909C100.235,-141.916 140.909,-123.808 169.003,-111.3"/>
<polygon fill="midnightblue" stroke="midnightblue" points="170.657,-114.395 178.369,-107.13 167.81,-108 170.657,-114.395"/>
</g>
<!-- Node370 -->
<g id="node3" class="node"><title>Node370</title>
<g id="a_node3"><a xlink:href="classaube_1_1_error_message.html#a3a39b6fcd8fdb12eaf6383123535b8ca" target="_top" xlink:title="Gets the File where is located the ErrorMessage when raised. ">
<polygon fill="white" stroke="black" points="305,-311.5 305,-341.5 409,-341.5 409,-311.5 305,-311.5"/>
<text text-anchor="start" x="313" y="-329.5" font-family="Helvetica,sans-Serif" font-size="10.00">aube::ErrorMessage</text>
<text text-anchor="middle" x="357" y="-318.5" font-family="Helvetica,sans-Serif" font-size="10.00">::getFile</text>
</a>
</g>
</g>
<!-- Node369&#45;&gt;Node370 -->
<g id="edge2" class="edge"><title>Node369&#45;&gt;Node370</title>
<path fill="none" stroke="midnightblue" d="M218.266,-243.702C236.222,-259.887 266.503,-285.466 296,-302.5 298.817,-304.127 301.767,-305.693 304.781,-307.192"/>
<polygon fill="midnightblue" stroke="midnightblue" points="303.415,-310.417 313.957,-311.478 306.377,-304.075 303.415,-310.417"/>
</g>
<!-- Node371 -->
<g id="node4" class="node"><title>Node371</title>
<g id="a_node4"><a xlink:href="classaube_1_1_error_message.html#a9184cc96589578f434351c105b0cd5f7" target="_top" xlink:title="Gets the location of the error in the code. ">
<polygon fill="white" stroke="black" points="305,-262.5 305,-292.5 409,-292.5 409,-262.5 305,-262.5"/>
<text text-anchor="start" x="313" y="-280.5" font-family="Helvetica,sans-Serif" font-size="10.00">aube::ErrorMessage</text>
<text text-anchor="middle" x="357" y="-269.5" font-family="Helvetica,sans-Serif" font-size="10.00">::getLocation</text>
</a>
</g>
</g>
<!-- Node369&#45;&gt;Node371 -->
<g id="edge3" class="edge"><title>Node369&#45;&gt;Node371</title>
<path fill="none" stroke="midnightblue" d="M249.462,-243.601C265.05,-248.562 282.543,-254.127 298.778,-259.293"/>
<polygon fill="midnightblue" stroke="midnightblue" points="298.105,-262.752 308.695,-262.448 300.227,-256.081 298.105,-262.752"/>
</g>
<!-- Node372 -->
<g id="node5" class="node"><title>Node372</title>
<g id="a_node5"><a xlink:href="classaube_1_1_error_message.html#a07927cb3e2d0712c459cc9e2b5f52696" target="_top" xlink:title="Gets the message displayed by the ErrorMessage when raised. ">
<polygon fill="white" stroke="black" points="305,-213.5 305,-243.5 409,-243.5 409,-213.5 305,-213.5"/>
<text text-anchor="start" x="313" y="-231.5" font-family="Helvetica,sans-Serif" font-size="10.00">aube::ErrorMessage</text>
<text text-anchor="middle" x="357" y="-220.5" font-family="Helvetica,sans-Serif" font-size="10.00">::getMessage</text>
</a>
</g>
</g>
<!-- Node369&#45;&gt;Node372 -->
<g id="edge4" class="edge"><title>Node369&#45;&gt;Node372</title>
<path fill="none" stroke="midnightblue" d="M250.304,-228.5C264.423,-228.5 280.044,-228.5 294.848,-228.5"/>
<polygon fill="midnightblue" stroke="midnightblue" points="294.938,-232 304.938,-228.5 294.938,-225 294.938,-232"/>
</g>
<!-- Node373 -->
<g id="node6" class="node"><title>Node373</title>
<g id="a_node6"><a xlink:href="classaube_1_1_error_message.html#a77c2f9b7e93542c958173b52da267989" target="_top" xlink:title="Gets hints that can help the error resolution. ">
<polygon fill="white" stroke="black" points="305,-164.5 305,-194.5 409,-194.5 409,-164.5 305,-164.5"/>
<text text-anchor="start" x="313" y="-182.5" font-family="Helvetica,sans-Serif" font-size="10.00">aube::ErrorMessage</text>
<text text-anchor="middle" x="357" y="-171.5" font-family="Helvetica,sans-Serif" font-size="10.00">::getHints</text>
</a>
</g>
</g>
<!-- Node369&#45;&gt;Node373 -->
<g id="edge5" class="edge"><title>Node369&#45;&gt;Node373</title>
<path fill="none" stroke="midnightblue" d="M249.462,-213.399C265.05,-208.438 282.543,-202.873 298.778,-197.707"/>
<polygon fill="midnightblue" stroke="midnightblue" points="300.227,-200.919 308.695,-194.552 298.105,-194.248 300.227,-200.919"/>
</g>
<!-- Node375 -->
<g id="node8" class="node"><title>Node375</title>
<g id="a_node8"><a xlink:href="classvili_1_1_node.html#a58273048e22a9ebd74e576fd8905f709" target="_top" xlink:title="vili::Node::getParent">
<polygon fill="white" stroke="black" points="305,-126 305,-145 409,-145 409,-126 305,-126"/>
<text text-anchor="middle" x="357" y="-133" font-family="Helvetica,sans-Serif" font-size="10.00">vili::Node::getParent</text>
</a>
</g>
</g>
<!-- Node374&#45;&gt;Node375 -->
<g id="edge7" class="edge"><title>Node374&#45;&gt;Node375</title>
<path fill="none" stroke="midnightblue" d="M240.861,-107.089C261.091,-112.081 286.021,-118.232 307.504,-123.533"/>
<polygon fill="midnightblue" stroke="midnightblue" points="306.871,-126.982 317.419,-125.98 308.548,-120.186 306.871,-126.982"/>
</g>
<!-- Node376 -->
<g id="node9" class="node"><title>Node376</title>
<g id="a_node9"><a xlink:href="classvili_1_1_node.html#ab03908ab3d62e3bfddaf9e7306fdf3b3" target="_top" xlink:title="Gets the id of the Node. ">
<polygon fill="white" stroke="black" points="315.5,-88 315.5,-107 398.5,-107 398.5,-88 315.5,-88"/>
<text text-anchor="middle" x="357" y="-95" font-family="Helvetica,sans-Serif" font-size="10.00">vili::Node::getId</text>
</a>
</g>
</g>
<!-- Node374&#45;&gt;Node376 -->
<g id="edge8" class="edge"><title>Node374&#45;&gt;Node376</title>
<path fill="none" stroke="midnightblue" d="M260.221,-97.5C275.025,-97.5 290.816,-97.5 305.218,-97.5"/>
<polygon fill="midnightblue" stroke="midnightblue" points="305.425,-101 315.425,-97.5 305.425,-94.0001 305.425,-101"/>
</g>
<!-- Node377 -->
<g id="node10" class="node"><title>Node377</title>
<g id="a_node10"><a xlink:href="classvili_1_1_node.html#ad3c91cfe2721eaf9841721d1ec8ee0d8" target="_top" xlink:title="Gets the Node annotation. ">
<polygon fill="white" stroke="black" points="296,-50 296,-69 418,-69 418,-50 296,-50"/>
<text text-anchor="middle" x="357" y="-57" font-family="Helvetica,sans-Serif" font-size="10.00">vili::Node::getAnnotation</text>
</a>
</g>
</g>
<!-- Node374&#45;&gt;Node377 -->
<g id="edge9" class="edge"><title>Node374&#45;&gt;Node377</title>
<path fill="none" stroke="midnightblue" d="M240.861,-87.911C261.091,-82.9191 286.021,-76.7676 307.504,-71.4666"/>
<polygon fill="midnightblue" stroke="midnightblue" points="308.548,-74.8139 317.419,-69.0201 306.871,-68.0177 308.548,-74.8139"/>
</g>
<!-- Node378 -->
<g id="node11" class="node"><title>Node378</title>
<g id="a_node11"><a xlink:href="namespacevili_1_1_functions_1_1_vector.html#a10836e1fe04648534cfc59d9de9acd72" target="_top" xlink:title="vili::Functions::Vector\l::join">
<polygon fill="white" stroke="black" points="302,-0.5 302,-30.5 412,-30.5 412,-0.5 302,-0.5"/>
<text text-anchor="start" x="310" y="-18.5" font-family="Helvetica,sans-Serif" font-size="10.00">vili::Functions::Vector</text>
<text text-anchor="middle" x="357" y="-7.5" font-family="Helvetica,sans-Serif" font-size="10.00">::join</text>
</a>
</g>
</g>
<!-- Node374&#45;&gt;Node378 -->
<g id="edge10" class="edge"><title>Node374&#45;&gt;Node378</title>
<path fill="none" stroke="midnightblue" d="M216.267,-87.9179C234.36,-75.986 266.732,-55.3652 296,-40.5 299.955,-38.4911 304.111,-36.5096 308.312,-34.5945"/>
<polygon fill="midnightblue" stroke="midnightblue" points="309.79,-37.7679 317.521,-30.5232 306.959,-31.3657 309.79,-37.7679"/>
</g>
</g>
</svg>
