<?xml version="1.0" encoding="UTF-8" standalone="no"?>
<!DOCTYPE svg PUBLIC "-//W3C//DTD SVG 1.1//EN"
 "http://www.w3.org/Graphics/SVG/1.1/DTD/svg11.dtd">
<!-- Generated by graphviz version 2.38.0 (20140413.2041)
 -->
<!-- Title: obe::Collision::PolygonalCollider::hasPoint Pages: 1 -->
<!--zoomable 226 -->
<svg id="main" version="1.1" xmlns="http://www.w3.org/2000/svg" xmlns:xlink="http://www.w3.org/1999/xlink" xml:space="preserve" onload="init(evt)">
<style type="text/css"><![CDATA[
.edge:hover path { stroke: red; }
.edge:hover polygon { stroke: red; fill: red; }
.edge path { stroke: white; }
.edge polygon { stroke: white; fill: white; }
.node polygon { fill: white; }
]]></style>
<script type="text/javascript"><![CDATA[
var edges = document.getElementsByTagName('g');
if (edges && edges.length) {
  for (var i=0;i<edges.length;i++) {
    if (edges[i].id.substr(0,4)=='edge') {
      edges[i].setAttribute('class','edge');
    }
  }
}
]]></script>
        <defs>
                <circle id="rim" cx="0" cy="0" r="7"/>
                <circle id="rim2" cx="0" cy="0" r="3.5"/>
                <g id="zoomPlus">
                        <use xlink:href="#rim" fill="#404040">
                                <set attributeName="fill" to="#808080" begin="zoomplus.mouseover" end="zoomplus.mouseout"/>
                        </use>
                        <path d="M-4,0h8M0,-4v8" fill="none" stroke="white" stroke-width="1.5" pointer-events="none"/>
                </g>
                <g id="zoomMin">
                        <use xlink:href="#rim" fill="#404040">
                                <set attributeName="fill" to="#808080" begin="zoomminus.mouseover" end="zoomminus.mouseout"/>
                        </use>
                        <path d="M-4,0h8" fill="none" stroke="white" stroke-width="1.5" pointer-events="none"/>
                </g>
                <g id="dirArrow">
                        <path fill="none" stroke="white" stroke-width="1.5" d="M0,-3.0v7 M-2.5,-0.5L0,-3.0L2.5,-0.5"/>
                </g>
               <g id="resetDef">
                       <use xlink:href="#rim2" fill="#404040">
                               <set attributeName="fill" to="#808080" begin="reset.mouseover" end="reset.mouseout"/>
                       </use>
               </g>
        </defs>

<script type="text/javascript">
var viewWidth = 1165;
var viewHeight = 226;
var sectionId = 'dynsection-49';
</script>
<script xlink:href="svgpan.js"/>
<svg id="graph" class="graph">
<g id="viewport">
<title>obe::Collision::PolygonalCollider::hasPoint</title>
<!-- Node536 -->
<g id="node1" class="node"><title>Node536</title>
<polygon fill="#bfbfbf" stroke="black" points="0,-16 0,-46 124,-46 124,-16 0,-16"/>
<text text-anchor="start" x="8" y="-34" font-family="Helvetica,sans-Serif" font-size="10.00">obe::Collision::Polygonal</text>
<text text-anchor="middle" x="62" y="-23" font-family="Helvetica,sans-Serif" font-size="10.00">Collider::hasPoint</text>
</g>
<!-- Node537 -->
<g id="node2" class="node"><title>Node537</title>
<g id="a_node2"><a xlink:href="namespaceobe_1_1_editor.html#a508e767d732debdb65e63c7bffa50623" target="_top" xlink:title="obe::Editor::editMap">
<polygon fill="white" stroke="black" points="789,-28.5 789,-47.5 893,-47.5 893,-28.5 789,-28.5"/>
<text text-anchor="middle" x="841" y="-35.5" font-family="Helvetica,sans-Serif" font-size="10.00">obe::Editor::editMap</text>
</a>
</g>
</g>
<!-- Node536&#45;&gt;Node537 -->
<g id="edge1" class="edge"><title>Node536&#45;&gt;Node537</title>
<path fill="none" stroke="midnightblue" d="M134.286,-19.302C194.002,-10.5189 281.577,-0 358.5,-0 358.5,-0 358.5,-0 507.5,-0 607.725,-0 723.851,-17.2537 788.942,-28.509"/>
<polygon fill="midnightblue" stroke="midnightblue" points="133.583,-15.8681 124.21,-20.8065 134.617,-22.7913 133.583,-15.8681"/>
</g>
<!-- Node540 -->
<g id="node5" class="node"><title>Node540</title>
<g id="a_node5"><a xlink:href="namespaceobe_1_1_script_1_1_core_lib.html#a07d6c11bbb082bc45bdba50d97965c00" target="_top" xlink:title="obe::Script::CoreLib\l::loadCollision">
<polygon fill="white" stroke="black" points="160,-48 160,-78 263,-78 263,-48 160,-48"/>
<text text-anchor="start" x="168" y="-66" font-family="Helvetica,sans-Serif" font-size="10.00">obe::Script::CoreLib</text>
<text text-anchor="middle" x="211.5" y="-55" font-family="Helvetica,sans-Serif" font-size="10.00">::loadCollision</text>
</a>
</g>
</g>
<!-- Node536&#45;&gt;Node540 -->
<g id="edge5" class="edge"><title>Node536&#45;&gt;Node540</title>
<path fill="none" stroke="midnightblue" d="M134.085,-46.4218C142.818,-48.3164 151.601,-50.222 159.944,-52.0318"/>
<polygon fill="midnightblue" stroke="midnightblue" points="134.787,-42.9927 124.272,-44.2929 133.302,-49.8336 134.787,-42.9927"/>
</g>
<!-- Node538 -->
<g id="node3" class="node"><title>Node538</title>
<g id="a_node3"><a xlink:href="namespaceobe_1_1_modes.html#a6a8b08eee511d4895c4da96d4ba223a6" target="_top" xlink:title="obe::Modes::startDevMenu">
<polygon fill="white" stroke="black" points="950,-71.5 950,-90.5 1083,-90.5 1083,-71.5 950,-71.5"/>
<text text-anchor="middle" x="1016.5" y="-78.5" font-family="Helvetica,sans-Serif" font-size="10.00">obe::Modes::startDevMenu</text>
</a>
</g>
</g>
<!-- Node537&#45;&gt;Node538 -->
<g id="edge2" class="edge"><title>Node537&#45;&gt;Node538</title>
<path fill="none" stroke="midnightblue" d="M890.284,-49.9667C917.69,-56.7589 951.518,-65.1429 977.102,-71.4836"/>
<polygon fill="midnightblue" stroke="midnightblue" points="891.054,-46.5516 880.505,-47.5431 889.37,-53.346 891.054,-46.5516"/>
</g>
<!-- Node539 -->
<g id="node4" class="node"><title>Node539</title>
<g id="a_node4"><a xlink:href="_ob_engine_8cpp.html#a3c04138a5bfe5d72780bb7e82a18e627" target="_top" xlink:title="main">
<polygon fill="white" stroke="black" points="1119,-71.5 1119,-90.5 1157,-90.5 1157,-71.5 1119,-71.5"/>
<text text-anchor="middle" x="1138" y="-78.5" font-family="Helvetica,sans-Serif" font-size="10.00">main</text>
</a>
</g>
</g>
<!-- Node537&#45;&gt;Node539 -->
<g id="edge4" class="edge"><title>Node537&#45;&gt;Node539</title>
<path fill="none" stroke="midnightblue" d="M903.479,-40.0741C952.564,-42.6966 1022.84,-48.6232 1083,-62 1095.22,-64.718 1108.5,-69.3632 1118.82,-73.38"/>
<polygon fill="midnightblue" stroke="midnightblue" points="903.502,-36.5709 893.338,-39.5632 903.149,-43.562 903.502,-36.5709"/>
</g>
<!-- Node538&#45;&gt;Node539 -->
<g id="edge3" class="edge"><title>Node538&#45;&gt;Node539</title>
<path fill="none" stroke="midnightblue" d="M1093.44,-81C1102.72,-81 1111.44,-81 1118.6,-81"/>
<polygon fill="midnightblue" stroke="midnightblue" points="1093.19,-77.5001 1083.19,-81 1093.19,-84.5001 1093.19,-77.5001"/>
</g>
<!-- Node541 -->
<g id="node6" class="node"><title>Node541</title>
<g id="a_node6"><a xlink:href="namespaceobe_1_1_script.html#a633c629c5a54da2b5d4930730983121c" target="_top" xlink:title="obe::Script::loadCoreLib">
<polygon fill="white" stroke="black" points="299,-74.5 299,-93.5 420,-93.5 420,-74.5 299,-74.5"/>
<text text-anchor="middle" x="359.5" y="-81.5" font-family="Helvetica,sans-Serif" font-size="10.00">obe::Script::loadCoreLib</text>
</a>
</g>
</g>
<!-- Node540&#45;&gt;Node541 -->
<g id="edge6" class="edge"><title>Node540&#45;&gt;Node541</title>
<path fill="none" stroke="midnightblue" d="M273.328,-71.7492C281.785,-72.9657 290.467,-74.2145 298.902,-75.4277"/>
<polygon fill="midnightblue" stroke="midnightblue" points="273.55,-68.2453 263.154,-70.2858 272.554,-75.174 273.55,-68.2453"/>
</g>
<!-- Node542 -->
<g id="node7" class="node"><title>Node542</title>
<g id="a_node7"><a xlink:href="namespaceobe_1_1_script.html#a4e6ee77032cf7f66544f9b08464a60b7" target="_top" xlink:title="obe::Script::loadLib">
<polygon fill="white" stroke="black" points="456,-94.5 456,-113.5 557,-113.5 557,-94.5 456,-94.5"/>
<text text-anchor="middle" x="506.5" y="-101.5" font-family="Helvetica,sans-Serif" font-size="10.00">obe::Script::loadLib</text>
</a>
</g>
</g>
<!-- Node541&#45;&gt;Node542 -->
<g id="edge7" class="edge"><title>Node541&#45;&gt;Node542</title>
<path fill="none" stroke="midnightblue" d="M430.401,-93.6415C439.037,-94.8327 447.723,-96.0307 455.967,-97.1678"/>
<polygon fill="midnightblue" stroke="midnightblue" points="430.699,-90.1495 420.314,-92.2502 429.742,-97.0839 430.699,-90.1495"/>
</g>
<!-- Node543 -->
<g id="node8" class="node"><title>Node543</title>
<g id="a_node8"><a xlink:href="namespaceobe_1_1_script.html#a5e992c0efb0543e7c934bc1065f08b01" target="_top" xlink:title="obe::Script::loadLibBridge">
<polygon fill="white" stroke="black" points="598.5,-192.5 598.5,-211.5 726.5,-211.5 726.5,-192.5 598.5,-192.5"/>
<text text-anchor="middle" x="662.5" y="-199.5" font-family="Helvetica,sans-Serif" font-size="10.00">obe::Script::loadLibBridge</text>
</a>
</g>
</g>
<!-- Node542&#45;&gt;Node543 -->
<g id="edge8" class="edge"><title>Node542&#45;&gt;Node543</title>
<path fill="none" stroke="midnightblue" d="M521.926,-121.547C537.618,-139.521 564.324,-167.026 593,-183 599.9,-186.844 607.631,-189.953 615.347,-192.455"/>
<polygon fill="midnightblue" stroke="midnightblue" points="524.293,-118.929 515.147,-113.582 518.963,-123.465 524.293,-118.929"/>
</g>
<!-- Node546 -->
<g id="node11" class="node"><title>Node546</title>
<g id="a_node11"><a xlink:href="namespaceobe_1_1_script.html#aad6ef67388e6d16eb01853f208da410f" target="_top" xlink:title="obe::Script::loadBaseLib">
<polygon fill="white" stroke="black" points="601,-154.5 601,-173.5 724,-173.5 724,-154.5 601,-154.5"/>
<text text-anchor="middle" x="662.5" y="-161.5" font-family="Helvetica,sans-Serif" font-size="10.00">obe::Script::loadBaseLib</text>
</a>
</g>
</g>
<!-- Node542&#45;&gt;Node546 -->
<g id="edge11" class="edge"><title>Node542&#45;&gt;Node546</title>
<path fill="none" stroke="midnightblue" d="M538.62,-117.646C554.751,-124.581 574.829,-132.999 593,-140 606.052,-145.029 620.664,-150.209 633.029,-154.463"/>
<polygon fill="midnightblue" stroke="midnightblue" points="539.706,-114.302 529.138,-113.545 536.927,-120.727 539.706,-114.302"/>
</g>
<!-- Node547 -->
<g id="node12" class="node"><title>Node547</title>
<g id="a_node12"><a xlink:href="namespaceobe_1_1_modes.html#a1e38c0d9a2ca0230f0de79c298f53ab9" target="_top" xlink:title="A mode that will start the Toolkit. ">
<polygon fill="white" stroke="black" points="768,-116.5 768,-135.5 914,-135.5 914,-116.5 768,-116.5"/>
<text text-anchor="middle" x="841" y="-123.5" font-family="Helvetica,sans-Serif" font-size="10.00">obe::Modes::startToolkitMode</text>
</a>
</g>
</g>
<!-- Node542&#45;&gt;Node547 -->
<g id="edge15" class="edge"><title>Node542&#45;&gt;Node547</title>
<path fill="none" stroke="midnightblue" d="M567.437,-107.966C623.645,-111.685 707.783,-117.252 767.692,-121.216"/>
<polygon fill="midnightblue" stroke="midnightblue" points="567.488,-104.462 557.279,-107.294 567.026,-111.446 567.488,-104.462"/>
</g>
<!-- Node548 -->
<g id="node13" class="node"><title>Node548</title>
<g id="a_node13"><a xlink:href="classobe_1_1_world_1_1_world.html#a5bd621e3fd9293d949ad0c669cee6838" target="_top" xlink:title="obe::World::World::\lWorld">
<polygon fill="white" stroke="black" points="790.5,-67 790.5,-97 891.5,-97 891.5,-67 790.5,-67"/>
<text text-anchor="start" x="798.5" y="-85" font-family="Helvetica,sans-Serif" font-size="10.00">obe::World::World::</text>
<text text-anchor="middle" x="841" y="-74" font-family="Helvetica,sans-Serif" font-size="10.00">World</text>
</a>
</g>
</g>
<!-- Node542&#45;&gt;Node548 -->
<g id="edge16" class="edge"><title>Node542&#45;&gt;Node548</title>
<path fill="none" stroke="midnightblue" d="M528.323,-88.6279C544.898,-77.3994 569.19,-63.1129 593,-57 660.004,-39.7976 740.08,-53.9921 790.499,-66.9766"/>
<polygon fill="midnightblue" stroke="midnightblue" points="526.147,-85.8789 519.96,-94.48 530.16,-91.6141 526.147,-85.8789"/>
</g>
<!-- Node549 -->
<g id="node14" class="node"><title>Node549</title>
<g id="a_node14"><a xlink:href="namespaceobe_1_1_world.html#afc958184e59524fdf9dc6ba98a1e9a37" target="_top" xlink:title="obe::World::loadWorldScript\lEngineBaseLib">
<polygon fill="white" stroke="black" points="593,-67 593,-97 732,-97 732,-67 593,-67"/>
<text text-anchor="start" x="601" y="-85" font-family="Helvetica,sans-Serif" font-size="10.00">obe::World::loadWorldScript</text>
<text text-anchor="middle" x="662.5" y="-74" font-family="Helvetica,sans-Serif" font-size="10.00">EngineBaseLib</text>
</a>
</g>
</g>
<!-- Node542&#45;&gt;Node549 -->
<g id="edge17" class="edge"><title>Node542&#45;&gt;Node549</title>
<path fill="none" stroke="midnightblue" d="M567.19,-95.4728C575.626,-94.2677 584.354,-93.0208 592.941,-91.7942"/>
<polygon fill="midnightblue" stroke="midnightblue" points="566.479,-92.0388 557.074,-96.918 567.469,-98.9685 566.479,-92.0388"/>
</g>
<!-- Node544 -->
<g id="node9" class="node"><title>Node544</title>
<g id="a_node9"><a xlink:href="namespaceobe_1_1_script.html#a5dc8321da50fd4b5dc2935e4d8c93a4e" target="_top" xlink:title="obe::Script::loadScrGame\lObject">
<polygon fill="white" stroke="black" points="776.5,-187 776.5,-217 905.5,-217 905.5,-187 776.5,-187"/>
<text text-anchor="start" x="784.5" y="-205" font-family="Helvetica,sans-Serif" font-size="10.00">obe::Script::loadScrGame</text>
<text text-anchor="middle" x="841" y="-194" font-family="Helvetica,sans-Serif" font-size="10.00">Object</text>
</a>
</g>
</g>
<!-- Node543&#45;&gt;Node544 -->
<g id="edge9" class="edge"><title>Node543&#45;&gt;Node544</title>
<path fill="none" stroke="midnightblue" d="M737.065,-202C750.107,-202 763.589,-202 776.329,-202"/>
<polygon fill="midnightblue" stroke="midnightblue" points="736.722,-198.5 726.722,-202 736.722,-205.5 736.722,-198.5"/>
</g>
<!-- Node545 -->
<g id="node10" class="node"><title>Node545</title>
<g id="a_node10"><a xlink:href="classobe_1_1_script_1_1_game_object.html#aa0d58bd1ef0fa2fe9f7567729b2d291e" target="_top" xlink:title="obe::Script::GameObject\l::loadGameObject">
<polygon fill="white" stroke="black" points="954,-187 954,-217 1079,-217 1079,-187 954,-187"/>
<text text-anchor="start" x="962" y="-205" font-family="Helvetica,sans-Serif" font-size="10.00">obe::Script::GameObject</text>
<text text-anchor="middle" x="1016.5" y="-194" font-family="Helvetica,sans-Serif" font-size="10.00">::loadGameObject</text>
</a>
</g>
</g>
<!-- Node544&#45;&gt;Node545 -->
<g id="edge10" class="edge"><title>Node544&#45;&gt;Node545</title>
<path fill="none" stroke="midnightblue" d="M915.721,-202C928.445,-202 941.552,-202 953.913,-202"/>
<polygon fill="midnightblue" stroke="midnightblue" points="915.62,-198.5 905.62,-202 915.62,-205.5 915.62,-198.5"/>
</g>
<!-- Node546&#45;&gt;Node547 -->
<g id="edge12" class="edge"><title>Node546&#45;&gt;Node547</title>
<path fill="none" stroke="midnightblue" d="M718.088,-152.247C743.045,-146.874 772.227,-140.591 795.782,-135.52"/>
<polygon fill="midnightblue" stroke="midnightblue" points="717.078,-148.885 708.038,-154.411 718.551,-155.728 717.078,-148.885"/>
</g>
<!-- Node547&#45;&gt;Node538 -->
<g id="edge13" class="edge"><title>Node547&#45;&gt;Node538</title>
<path fill="none" stroke="midnightblue" d="M888.844,-113.85C917.087,-106.525 952.547,-97.3277 978.758,-90.5296"/>
<polygon fill="midnightblue" stroke="midnightblue" points="887.596,-110.558 878.795,-116.457 889.353,-117.334 887.596,-110.558"/>
</g>
<!-- Node547&#45;&gt;Node539 -->
<g id="edge14" class="edge"><title>Node547&#45;&gt;Node539</title>
<path fill="none" stroke="midnightblue" d="M924.277,-121.842C971.217,-118.299 1030.9,-111.808 1083,-100 1095.21,-97.2319 1108.48,-92.5859 1118.82,-88.5812"/>
<polygon fill="midnightblue" stroke="midnightblue" points="923.879,-118.362 914.159,-122.575 924.385,-125.343 923.879,-118.362"/>
</g>
<!-- Node549&#45;&gt;Node548 -->
<g id="edge18" class="edge"><title>Node549&#45;&gt;Node548</title>
<path fill="none" stroke="midnightblue" d="M742.323,-82C758.633,-82 775.376,-82 790.292,-82"/>
<polygon fill="midnightblue" stroke="midnightblue" points="742.245,-78.5001 732.245,-82 742.245,-85.5001 742.245,-78.5001"/>
</g>
</g>
</svg>
        <g id="navigator" transform="translate(0 0)" fill="#404254">
                <rect fill="#f2f5e9" fill-opacity="0.5" stroke="#606060" stroke-width=".5" x="0" y="0" width="60" height="60"/>
                <use id="zoomplus" xlink:href="#zoomPlus" x="17" y="9" onmousedown="handleZoom(evt,'in')"/>
                <use id="zoomminus" xlink:href="#zoomMin" x="42" y="9" onmousedown="handleZoom(evt,'out')"/>
                <use id="reset" xlink:href="#resetDef" x="30" y="36" onmousedown="handleReset()"/>
                <g id="arrowUp" xlink:href="#dirArrow" transform="translate(30 24)" onmousedown="handlePan(0,-1)">
                  <use xlink:href="#rim" fill="#404040">
                        <set attributeName="fill" to="#808080" begin="arrowUp.mouseover" end="arrowUp.mouseout"/>
                  </use>
                  <path fill="none" stroke="white" stroke-width="1.5" d="M0,-3.0v7 M-2.5,-0.5L0,-3.0L2.5,-0.5"/>
                </g>
                <g id="arrowRight" xlink:href="#dirArrow" transform="rotate(90) translate(36 -43)" onmousedown="handlePan(1,0)">
                  <use xlink:href="#rim" fill="#404040">
                        <set attributeName="fill" to="#808080" begin="arrowRight.mouseover" end="arrowRight.mouseout"/>
                  </use>
                  <path fill="none" stroke="white" stroke-width="1.5" d="M0,-3.0v7 M-2.5,-0.5L0,-3.0L2.5,-0.5"/>
                </g>
                <g id="arrowDown" xlink:href="#dirArrow" transform="rotate(180) translate(-30 -48)" onmousedown="handlePan(0,1)">
                  <use xlink:href="#rim" fill="#404040">
                        <set attributeName="fill" to="#808080" begin="arrowDown.mouseover" end="arrowDown.mouseout"/>
                  </use>
                  <path fill="none" stroke="white" stroke-width="1.5" d="M0,-3.0v7 M-2.5,-0.5L0,-3.0L2.5,-0.5"/>
                </g>
                <g id="arrowLeft" xlink:href="#dirArrow" transform="rotate(270) translate(-36 17)" onmousedown="handlePan(-1,0)">
                  <use xlink:href="#rim" fill="#404040">
                        <set attributeName="fill" to="#808080" begin="arrowLeft.mouseover" end="arrowLeft.mouseout"/>
                  </use>
                  <path fill="none" stroke="white" stroke-width="1.5" d="M0,-3.0v7 M-2.5,-0.5L0,-3.0L2.5,-0.5"/>
                </g>
        </g>
        <svg viewBox="0 0 15 15" width="100%" height="30px" preserveAspectRatio="xMaxYMin meet">
         <g id="arrow_out" transform="scale(0.3 0.3)">
          <a xlink:href="classobe_1_1_collision_1_1_polygonal_collider_abbce7b1ff57d3d4d468f2e3e371b44d7_icgraph_org.svg" target="_base">
           <rect id="button" ry="5" rx="5" y="6" x="6" height="38" width="38"
                fill="#f2f5e9" fill-opacity="0.5" stroke="#606060" stroke-width="1.0"/>
           <path id="arrow"
             d="M 11.500037,31.436501 C 11.940474,20.09759 22.043105,11.32322 32.158766,21.979434 L 37.068811,17.246167 C 37.068811,17.246167 37.088388,32 37.088388,32 L 22.160133,31.978069 C 22.160133,31.978069 26.997745,27.140456 26.997745,27.140456 C 18.528582,18.264221 13.291696,25.230495 11.500037,31.436501 z"
             style="fill:#404040;"/>
          </a>
         </g>
        </svg>
</svg>
