<?xml version="1.0" encoding="UTF-8" standalone="no"?>
<!DOCTYPE svg PUBLIC "-//W3C//DTD SVG 1.1//EN"
 "http://www.w3.org/Graphics/SVG/1.1/DTD/svg11.dtd">
<!-- Generated by graphviz version 2.38.0 (20140413.2041)
 -->
<!-- Title: obe::Script::GameObjectDatabase::GetDefinitionForGameObject Pages: 1 -->
<!--zoomable 214 -->
<svg id="main" version="1.1" xmlns="http://www.w3.org/2000/svg" xmlns:xlink="http://www.w3.org/1999/xlink" xml:space="preserve" onload="init(evt)">
<style type="text/css"><![CDATA[
.edge:hover path { stroke: red; }
.edge:hover polygon { stroke: red; fill: red; }
.edge path { stroke: white; }
.edge polygon { stroke: white; fill: white; }
.node polygon { fill: white; }
]]></style>
<script type="text/javascript"><![CDATA[
var edges = document.getElementsByTagName('g');
if (edges && edges.length) {
  for (var i=0;i<edges.length;i++) {
    if (edges[i].id.substr(0,4)=='edge') {
      edges[i].setAttribute('class','edge');
    }
  }
}
]]></script>
        <defs>
                <circle id="rim" cx="0" cy="0" r="7"/>
                <circle id="rim2" cx="0" cy="0" r="3.5"/>
                <g id="zoomPlus">
                        <use xlink:href="#rim" fill="#404040">
                                <set attributeName="fill" to="#808080" begin="zoomplus.mouseover" end="zoomplus.mouseout"/>
                        </use>
                        <path d="M-4,0h8M0,-4v8" fill="none" stroke="white" stroke-width="1.5" pointer-events="none"/>
                </g>
                <g id="zoomMin">
                        <use xlink:href="#rim" fill="#404040">
                                <set attributeName="fill" to="#808080" begin="zoomminus.mouseover" end="zoomminus.mouseout"/>
                        </use>
                        <path d="M-4,0h8" fill="none" stroke="white" stroke-width="1.5" pointer-events="none"/>
                </g>
                <g id="dirArrow">
                        <path fill="none" stroke="white" stroke-width="1.5" d="M0,-3.0v7 M-2.5,-0.5L0,-3.0L2.5,-0.5"/>
                </g>
               <g id="resetDef">
                       <use xlink:href="#rim2" fill="#404040">
                               <set attributeName="fill" to="#808080" begin="reset.mouseover" end="reset.mouseout"/>
                       </use>
               </g>
        </defs>

<script type="text/javascript">
var viewWidth = 1415;
var viewHeight = 214;
var sectionId = 'dynsection-3';
</script>
<script xlink:href="svgpan.js"/>
<svg id="graph" class="graph">
<g id="viewport">
<title>obe::Script::GameObjectDatabase::GetDefinitionForGameObject</title>
<!-- Node70 -->
<g id="node1" class="node"><title>Node70</title>
<polygon fill="#bfbfbf" stroke="black" points="0,-82.5 0,-112.5 166,-112.5 166,-82.5 0,-82.5"/>
<text text-anchor="start" x="8" y="-100.5" font-family="Helvetica,sans-Serif" font-size="10.00">obe::Script::GameObjectDatabase</text>
<text text-anchor="middle" x="83" y="-89.5" font-family="Helvetica,sans-Serif" font-size="10.00">::GetDefinitionForGameObject</text>
</g>
<!-- Node71 -->
<g id="node2" class="node"><title>Node71</title>
<g id="a_node2"><a xlink:href="classobe_1_1_scene_1_1_scene.html#a4cd121904533663534f9bd7cbedf6913" target="_top" xlink:title="Creates a new GameObject. ">
<polygon fill="none" stroke="black" points="202,-82.5 202,-112.5 308,-112.5 308,-82.5 202,-82.5"/>
<text text-anchor="start" x="210" y="-100.5" font-family="Helvetica,sans-Serif" font-size="10.00">obe::Scene::Scene::</text>
<text text-anchor="middle" x="255" y="-89.5" font-family="Helvetica,sans-Serif" font-size="10.00">createGameObject</text>
</a>
</g>
</g>
<!-- Node70&#45;&gt;Node71 -->
<g id="edge1" class="edge"><title>Node70&#45;&gt;Node71</title>
<path fill="none" stroke="midnightblue" d="M176.04,-97.5C184.901,-97.5 193.659,-97.5 201.926,-97.5"/>
<polygon fill="midnightblue" stroke="midnightblue" points="176.012,-94.0001 166.012,-97.5 176.012,-101 176.012,-94.0001"/>
</g>
<!-- Node72 -->
<g id="node3" class="node"><title>Node72</title>
<g id="a_node3"><a xlink:href="namespaceobe_1_1_bindings_1_1_scene_bindings.html#af7c6cb8cc46286eba7ddbe55ffe7d296" target="_top" xlink:title="obe::Bindings::SceneBindings\l::LoadScene">
<polygon fill="none" stroke="black" points="1007,-175.5 1007,-205.5 1154,-205.5 1154,-175.5 1007,-175.5"/>
<text text-anchor="start" x="1015" y="-193.5" font-family="Helvetica,sans-Serif" font-size="10.00">obe::Bindings::SceneBindings</text>
<text text-anchor="middle" x="1080.5" y="-182.5" font-family="Helvetica,sans-Serif" font-size="10.00">::LoadScene</text>
</a>
</g>
</g>
<!-- Node71&#45;&gt;Node72 -->
<g id="edge2" class="edge"><title>Node71&#45;&gt;Node72</title>
<path fill="none" stroke="midnightblue" d="M294.391,-117.186C351.276,-144.48 462.011,-190.5 562,-190.5 562,-190.5 562,-190.5 731,-190.5 826.293,-190.5 936.243,-190.5 1006.75,-190.5"/>
<polygon fill="midnightblue" stroke="midnightblue" points="295.595,-113.879 285.072,-112.649 292.531,-120.173 295.595,-113.879"/>
</g>
<!-- Node75 -->
<g id="node6" class="node"><title>Node75</title>
<g id="a_node6"><a xlink:href="namespaceobe_1_1_editor.html#af8c2ea92f8d718d85f019f9a27a91262" target="_top" xlink:title="Builds an Object through Parameters. ">
<polygon fill="none" stroke="black" points="344,-82.5 344,-112.5 463,-112.5 463,-82.5 344,-82.5"/>
<text text-anchor="start" x="352" y="-100.5" font-family="Helvetica,sans-Serif" font-size="10.00">obe::Editor::buildObject</text>
<text text-anchor="middle" x="403.5" y="-89.5" font-family="Helvetica,sans-Serif" font-size="10.00">ThroughRequire</text>
</a>
</g>
</g>
<!-- Node71&#45;&gt;Node75 -->
<g id="edge5" class="edge"><title>Node71&#45;&gt;Node75</title>
<path fill="none" stroke="midnightblue" d="M318.282,-97.5C326.767,-97.5 335.453,-97.5 343.871,-97.5"/>
<polygon fill="midnightblue" stroke="midnightblue" points="318.063,-94.0001 308.063,-97.5 318.063,-101 318.063,-94.0001"/>
</g>
<!-- Node81 -->
<g id="node12" class="node"><title>Node81</title>
<g id="a_node12"><a xlink:href="classobe_1_1_scene_1_1_scene.html#a385bccf95deb10358169dffe5547e567" target="_top" xlink:title="Loads the Scene from a .map.vili file. ">
<polygon fill="none" stroke="black" points="677,-38.5 677,-68.5 783,-68.5 783,-38.5 677,-38.5"/>
<text text-anchor="start" x="685" y="-56.5" font-family="Helvetica,sans-Serif" font-size="10.00">obe::Scene::Scene::</text>
<text text-anchor="middle" x="730" y="-45.5" font-family="Helvetica,sans-Serif" font-size="10.00">loadFromFile</text>
</a>
</g>
</g>
<!-- Node71&#45;&gt;Node81 -->
<g id="edge13" class="edge"><title>Node71&#45;&gt;Node81</title>
<path fill="none" stroke="midnightblue" d="M311.363,-79.7089C322.093,-76.8496 333.321,-74.2568 344,-72.5 461.871,-53.1085 602.546,-51.5217 676.918,-52.3381"/>
<polygon fill="midnightblue" stroke="midnightblue" points="310.382,-76.3489 301.681,-82.3933 312.252,-83.0944 310.382,-76.3489"/>
</g>
<!-- Node73 -->
<g id="node4" class="node"><title>Node73</title>
<g id="a_node4"><a xlink:href="namespaceobe_1_1_bindings.html#a41d33207a0199f125c75a0f70a4a3ba8" target="_top" xlink:title="To call when the engine starts, indexes all Lua bindings. ">
<polygon fill="none" stroke="black" points="1190,-181 1190,-200 1333,-200 1333,-181 1190,-181"/>
<text text-anchor="middle" x="1261.5" y="-188" font-family="Helvetica,sans-Serif" font-size="10.00">obe::Bindings::IndexBindings</text>
</a>
</g>
</g>
<!-- Node72&#45;&gt;Node73 -->
<g id="edge3" class="edge"><title>Node72&#45;&gt;Node73</title>
<path fill="none" stroke="midnightblue" d="M1164.1,-190.5C1172.72,-190.5 1181.42,-190.5 1189.88,-190.5"/>
<polygon fill="midnightblue" stroke="midnightblue" points="1164.05,-187 1154.05,-190.5 1164.05,-194 1164.05,-187"/>
</g>
<!-- Node74 -->
<g id="node5" class="node"><title>Node74</title>
<g id="a_node5"><a xlink:href="_ob_engine_8cpp.html#a3c04138a5bfe5d72780bb7e82a18e627" target="_top" xlink:title="main">
<polygon fill="none" stroke="black" points="1369,-124 1369,-143 1407,-143 1407,-124 1369,-124"/>
<text text-anchor="middle" x="1388" y="-131" font-family="Helvetica,sans-Serif" font-size="10.00">main</text>
</a>
</g>
</g>
<!-- Node73&#45;&gt;Node74 -->
<g id="edge4" class="edge"><title>Node73&#45;&gt;Node74</title>
<path fill="none" stroke="midnightblue" d="M1304.96,-177.737C1314.35,-174.45 1324.14,-170.654 1333,-166.5 1347.33,-159.785 1362.62,-150.183 1373.26,-143.066"/>
<polygon fill="midnightblue" stroke="midnightblue" points="1303.73,-174.457 1295.38,-180.971 1305.97,-181.09 1303.73,-174.457"/>
</g>
<!-- Node76 -->
<g id="node7" class="node"><title>Node76</title>
<g id="a_node7"><a xlink:href="namespaceobe_1_1_editor.html#a28799f83f6d2fc2c4fe20479e69fb720" target="_top" xlink:title="Builds the RequiresPanel that will transmit Init parameters to the GameObject. ">
<polygon fill="none" stroke="black" points="499,-82.5 499,-112.5 627,-112.5 627,-82.5 499,-82.5"/>
<text text-anchor="start" x="507" y="-100.5" font-family="Helvetica,sans-Serif" font-size="10.00">obe::Editor::buildRequires</text>
<text text-anchor="middle" x="563" y="-89.5" font-family="Helvetica,sans-Serif" font-size="10.00">ObjectTab</text>
</a>
</g>
</g>
<!-- Node75&#45;&gt;Node76 -->
<g id="edge6" class="edge"><title>Node75&#45;&gt;Node76</title>
<path fill="none" stroke="midnightblue" d="M473.365,-97.5C481.826,-97.5 490.443,-97.5 498.814,-97.5"/>
<polygon fill="midnightblue" stroke="midnightblue" points="473.147,-94.0001 463.147,-97.5 473.147,-101 473.147,-94.0001"/>
</g>
<!-- Node77 -->
<g id="node8" class="node"><title>Node77</title>
<g id="a_node8"><a xlink:href="namespaceobe_1_1_editor.html#a97c53e73ef3b12081baff754032596e9" target="_top" xlink:title="Builds the Editor Object Tab. ">
<polygon fill="none" stroke="black" points="663,-88 663,-107 797,-107 797,-88 663,-88"/>
<text text-anchor="middle" x="730" y="-95" font-family="Helvetica,sans-Serif" font-size="10.00">obe::Editor::buildObjectTab</text>
</a>
</g>
</g>
<!-- Node76&#45;&gt;Node77 -->
<g id="edge7" class="edge"><title>Node76&#45;&gt;Node77</title>
<path fill="none" stroke="midnightblue" d="M637.52,-97.5C645.952,-97.5 654.511,-97.5 662.839,-97.5"/>
<polygon fill="midnightblue" stroke="midnightblue" points="637.321,-94.0001 627.321,-97.5 637.321,-101 637.321,-94.0001"/>
</g>
<!-- Node78 -->
<g id="node9" class="node"><title>Node78</title>
<g id="a_node9"><a xlink:href="namespaceobe_1_1_editor_1_1_g_u_i.html#a1daea0dffefb4df9eb22870d7477bcf0" target="_top" xlink:title="obe::Editor::GUI::buildEditor\lObjectsMenu">
<polygon fill="none" stroke="black" points="833,-82.5 833,-112.5 971,-112.5 971,-82.5 833,-82.5"/>
<text text-anchor="start" x="841" y="-100.5" font-family="Helvetica,sans-Serif" font-size="10.00">obe::Editor::GUI::buildEditor</text>
<text text-anchor="middle" x="902" y="-89.5" font-family="Helvetica,sans-Serif" font-size="10.00">ObjectsMenu</text>
</a>
</g>
</g>
<!-- Node77&#45;&gt;Node78 -->
<g id="edge8" class="edge"><title>Node77&#45;&gt;Node78</title>
<path fill="none" stroke="midnightblue" d="M807.421,-97.5C815.854,-97.5 824.401,-97.5 832.725,-97.5"/>
<polygon fill="midnightblue" stroke="midnightblue" points="807.213,-94.0001 797.213,-97.5 807.213,-101 807.213,-94.0001"/>
</g>
<!-- Node79 -->
<g id="node10" class="node"><title>Node79</title>
<g id="a_node10"><a xlink:href="namespaceobe_1_1_editor.html#a9009207671e71dccb68a31ea2362e9ef" target="_top" xlink:title="Starts the map edition. ">
<polygon fill="none" stroke="black" points="1028.5,-78 1028.5,-97 1132.5,-97 1132.5,-78 1028.5,-78"/>
<text text-anchor="middle" x="1080.5" y="-85" font-family="Helvetica,sans-Serif" font-size="10.00">obe::Editor::editMap</text>
</a>
</g>
</g>
<!-- Node78&#45;&gt;Node79 -->
<g id="edge9" class="edge"><title>Node78&#45;&gt;Node79</title>
<path fill="none" stroke="midnightblue" d="M981.594,-93.0471C997.476,-92.1473 1013.78,-91.2235 1028.42,-90.3943"/>
<polygon fill="midnightblue" stroke="midnightblue" points="981.025,-89.5736 971.24,-93.6337 981.422,-96.5624 981.025,-89.5736"/>
</g>
<!-- Node79&#45;&gt;Node74 -->
<g id="edge12" class="edge"><title>Node79&#45;&gt;Node74</title>
<path fill="none" stroke="midnightblue" d="M1142.7,-79.8366C1194.71,-75.5599 1270.66,-74.6666 1333,-95.5 1350.4,-101.313 1367.14,-114.704 1377.25,-123.929"/>
<polygon fill="midnightblue" stroke="midnightblue" points="1142.27,-76.3603 1132.62,-80.7317 1142.89,-83.3328 1142.27,-76.3603"/>
</g>
<!-- Node80 -->
<g id="node11" class="node"><title>Node80</title>
<g id="a_node11"><a xlink:href="namespaceobe_1_1_modes.html#a6a8b08eee511d4895c4da96d4ba223a6" target="_top" xlink:title="Starts the development Menu where you can starts other menus from. ">
<polygon fill="none" stroke="black" points="1195,-105 1195,-124 1328,-124 1328,-105 1195,-105"/>
<text text-anchor="middle" x="1261.5" y="-112" font-family="Helvetica,sans-Serif" font-size="10.00">obe::Modes::startDevMenu</text>
</a>
</g>
</g>
<!-- Node79&#45;&gt;Node80 -->
<g id="edge10" class="edge"><title>Node79&#45;&gt;Node80</title>
<path fill="none" stroke="midnightblue" d="M1142.94,-96.7679C1160.53,-99.4214 1179.74,-102.318 1197.42,-104.986"/>
<polygon fill="midnightblue" stroke="midnightblue" points="1143.2,-93.2679 1132.79,-95.2371 1142.16,-100.19 1143.2,-93.2679"/>
</g>
<!-- Node80&#45;&gt;Node74 -->
<g id="edge11" class="edge"><title>Node80&#45;&gt;Node74</title>
<path fill="none" stroke="midnightblue" d="M1335.19,-125.593C1347.64,-127.494 1359.52,-129.307 1368.76,-130.716"/>
<polygon fill="midnightblue" stroke="midnightblue" points="1335.53,-122.104 1325.11,-124.056 1334.47,-129.024 1335.53,-122.104"/>
</g>
<!-- Node81&#45;&gt;Node79 -->
<g id="edge14" class="edge"><title>Node81&#45;&gt;Node79</title>
<path fill="none" stroke="midnightblue" d="M793.078,-57.4157C841.59,-60.717 910.676,-65.948 971,-72.5 989.716,-74.5328 1010.18,-77.2366 1028.25,-79.7885"/>
<polygon fill="midnightblue" stroke="midnightblue" points="793.261,-53.9202 783.048,-56.7408 792.791,-60.9044 793.261,-53.9202"/>
</g>
<!-- Node82 -->
<g id="node13" class="node"><title>Node82</title>
<g id="a_node13"><a xlink:href="classobe_1_1_scene_1_1_scene.html#a99bd0a38bd93c1ca105c34bb04776f47" target="_top" xlink:title="Updates all elements in the Scene. ">
<polygon fill="none" stroke="black" points="849,-131.5 849,-161.5 955,-161.5 955,-131.5 849,-131.5"/>
<text text-anchor="start" x="857" y="-149.5" font-family="Helvetica,sans-Serif" font-size="10.00">obe::Scene::Scene::</text>
<text text-anchor="middle" x="902" y="-138.5" font-family="Helvetica,sans-Serif" font-size="10.00">update</text>
</a>
</g>
</g>
<!-- Node81&#45;&gt;Node82 -->
<g id="edge15" class="edge"><title>Node81&#45;&gt;Node82</title>
<path fill="none" stroke="midnightblue" d="M788.644,-73.2163C791.548,-74.8593 794.353,-76.6189 797,-78.5 817.315,-92.9401 812.614,-107.159 833,-121.5 838.35,-125.263 844.332,-128.529 850.468,-131.344"/>
<polygon fill="midnightblue" stroke="midnightblue" points="790.195,-70.0786 779.7,-68.6319 787.002,-76.308 790.195,-70.0786"/>
</g>
<!-- Node84 -->
<g id="node15" class="node"><title>Node84</title>
<g id="a_node15"><a xlink:href="namespaceobe_1_1_scene.html#ac23b5fc14866394c89a820ce6badc130" target="_top" xlink:title="obe::Scene::loadWorldLib">
<polygon fill="none" stroke="black" points="838,-6 838,-25 966,-25 966,-6 838,-6"/>
<text text-anchor="middle" x="902" y="-13" font-family="Helvetica,sans-Serif" font-size="10.00">obe::Scene::loadWorldLib</text>
</a>
</g>
</g>
<!-- Node81&#45;&gt;Node84 -->
<g id="edge20" class="edge"><title>Node81&#45;&gt;Node84</title>
<path fill="none" stroke="midnightblue" d="M793.19,-39.5988C814.889,-34.7484 838.73,-29.4192 858.463,-25.0084"/>
<polygon fill="midnightblue" stroke="midnightblue" points="792.388,-36.1914 783.393,-41.7887 793.915,-43.0228 792.388,-36.1914"/>
</g>
<!-- Node82&#45;&gt;Node72 -->
<g id="edge16" class="edge"><title>Node82&#45;&gt;Node72</title>
<path fill="none" stroke="midnightblue" d="M965.133,-161.989C982.679,-166.363 1001.74,-171.115 1019.18,-175.462"/>
<polygon fill="midnightblue" stroke="midnightblue" points="965.551,-158.486 955.001,-159.463 963.858,-165.278 965.551,-158.486"/>
</g>
<!-- Node83 -->
<g id="node14" class="node"><title>Node83</title>
<g id="a_node14"><a xlink:href="namespaceobe_1_1_modes.html#a5f4a1008892030350b06282b8dee1a89" target="_top" xlink:title="Start the game by loading the boot.lua file in one of the MountedPaths. ">
<polygon fill="none" stroke="black" points="1021,-137 1021,-156 1140,-156 1140,-137 1021,-137"/>
<text text-anchor="middle" x="1080.5" y="-144" font-family="Helvetica,sans-Serif" font-size="10.00">obe::Modes::startGame</text>
</a>
</g>
</g>
<!-- Node82&#45;&gt;Node83 -->
<g id="edge17" class="edge"><title>Node82&#45;&gt;Node83</title>
<path fill="none" stroke="midnightblue" d="M965.142,-146.5C983.215,-146.5 1002.89,-146.5 1020.75,-146.5"/>
<polygon fill="midnightblue" stroke="midnightblue" points="965.001,-143 955.001,-146.5 965.001,-150 965.001,-143"/>
</g>
<!-- Node83&#45;&gt;Node74 -->
<g id="edge19" class="edge"><title>Node83&#45;&gt;Node74</title>
<path fill="none" stroke="midnightblue" d="M1150.24,-143.575C1221.13,-140.558 1327.08,-136.05 1369,-134.266"/>
<polygon fill="midnightblue" stroke="midnightblue" points="1149.88,-140.087 1140.04,-144.009 1150.18,-147.08 1149.88,-140.087"/>
</g>
<!-- Node83&#45;&gt;Node80 -->
<g id="edge18" class="edge"><title>Node83&#45;&gt;Node80</title>
<path fill="none" stroke="midnightblue" d="M1144.58,-135.224C1165.03,-131.567 1187.5,-127.55 1207.17,-124.033"/>
<polygon fill="midnightblue" stroke="midnightblue" points="1143.95,-131.78 1134.72,-136.986 1145.18,-138.671 1143.95,-131.78"/>
</g>
<!-- Node85 -->
<g id="node16" class="node"><title>Node85</title>
<g id="a_node16"><a xlink:href="namespaceobe_1_1_scene.html#ae5cbcc3278d9115d603e5024dec9136e" target="_top" xlink:title="obe::Scene::loadWorldScript\lEngineBaseLib">
<polygon fill="none" stroke="black" points="1010,-0.5 1010,-30.5 1151,-30.5 1151,-0.5 1010,-0.5"/>
<text text-anchor="start" x="1018" y="-18.5" font-family="Helvetica,sans-Serif" font-size="10.00">obe::Scene::loadWorldScript</text>
<text text-anchor="middle" x="1080.5" y="-7.5" font-family="Helvetica,sans-Serif" font-size="10.00">EngineBaseLib</text>
</a>
</g>
</g>
<!-- Node84&#45;&gt;Node85 -->
<g id="edge21" class="edge"><title>Node84&#45;&gt;Node85</title>
<path fill="none" stroke="midnightblue" d="M976.301,-15.5C987.398,-15.5 998.82,-15.5 1009.84,-15.5"/>
<polygon fill="midnightblue" stroke="midnightblue" points="976.222,-12.0001 966.222,-15.5 976.222,-19.0001 976.222,-12.0001"/>
</g>
<!-- Node86 -->
<g id="node17" class="node"><title>Node86</title>
<g id="a_node17"><a xlink:href="classobe_1_1_scene_1_1_scene.html#a6671ed54f3898e54a2814d58ec8ffec5" target="_top" xlink:title="Creates a new Scene. ">
<polygon fill="none" stroke="black" points="1208.5,-0.5 1208.5,-30.5 1314.5,-30.5 1314.5,-0.5 1208.5,-0.5"/>
<text text-anchor="start" x="1216.5" y="-18.5" font-family="Helvetica,sans-Serif" font-size="10.00">obe::Scene::Scene::</text>
<text text-anchor="middle" x="1261.5" y="-7.5" font-family="Helvetica,sans-Serif" font-size="10.00">Scene</text>
</a>
</g>
</g>
<!-- Node85&#45;&gt;Node86 -->
<g id="edge22" class="edge"><title>Node85&#45;&gt;Node86</title>
<path fill="none" stroke="midnightblue" d="M1161.58,-15.5C1177.48,-15.5 1193.78,-15.5 1208.44,-15.5"/>
<polygon fill="midnightblue" stroke="midnightblue" points="1161.22,-12.0001 1151.22,-15.5 1161.22,-19.0001 1161.22,-12.0001"/>
</g>
</g>
</svg>
        <g id="navigator" transform="translate(0 0)" fill="#404254">
                <rect fill="#f2f5e9" fill-opacity="0.5" stroke="#606060" stroke-width=".5" x="0" y="0" width="60" height="60"/>
                <use id="zoomplus" xlink:href="#zoomPlus" x="17" y="9" onmousedown="handleZoom(evt,'in')"/>
                <use id="zoomminus" xlink:href="#zoomMin" x="42" y="9" onmousedown="handleZoom(evt,'out')"/>
                <use id="reset" xlink:href="#resetDef" x="30" y="36" onmousedown="handleReset()"/>
                <g id="arrowUp" xlink:href="#dirArrow" transform="translate(30 24)" onmousedown="handlePan(0,-1)">
                  <use xlink:href="#rim" fill="#404040">
                        <set attributeName="fill" to="#808080" begin="arrowUp.mouseover" end="arrowUp.mouseout"/>
                  </use>
                  <path fill="none" stroke="white" stroke-width="1.5" d="M0,-3.0v7 M-2.5,-0.5L0,-3.0L2.5,-0.5"/>
                </g>
                <g id="arrowRight" xlink:href="#dirArrow" transform="rotate(90) translate(36 -43)" onmousedown="handlePan(1,0)">
                  <use xlink:href="#rim" fill="#404040">
                        <set attributeName="fill" to="#808080" begin="arrowRight.mouseover" end="arrowRight.mouseout"/>
                  </use>
                  <path fill="none" stroke="white" stroke-width="1.5" d="M0,-3.0v7 M-2.5,-0.5L0,-3.0L2.5,-0.5"/>
                </g>
                <g id="arrowDown" xlink:href="#dirArrow" transform="rotate(180) translate(-30 -48)" onmousedown="handlePan(0,1)">
                  <use xlink:href="#rim" fill="#404040">
                        <set attributeName="fill" to="#808080" begin="arrowDown.mouseover" end="arrowDown.mouseout"/>
                  </use>
                  <path fill="none" stroke="white" stroke-width="1.5" d="M0,-3.0v7 M-2.5,-0.5L0,-3.0L2.5,-0.5"/>
                </g>
                <g id="arrowLeft" xlink:href="#dirArrow" transform="rotate(270) translate(-36 17)" onmousedown="handlePan(-1,0)">
                  <use xlink:href="#rim" fill="#404040">
                        <set attributeName="fill" to="#808080" begin="arrowLeft.mouseover" end="arrowLeft.mouseout"/>
                  </use>
                  <path fill="none" stroke="white" stroke-width="1.5" d="M0,-3.0v7 M-2.5,-0.5L0,-3.0L2.5,-0.5"/>
                </g>
        </g>
        <svg viewBox="0 0 15 15" width="100%" height="30px" preserveAspectRatio="xMaxYMin meet">
         <g id="arrow_out" transform="scale(0.3 0.3)">
          <a xlink:href="classobe_1_1_script_1_1_game_object_database_a023795e90b492f57a14ed7b59e1f9346_icgraph_org.svg" target="_base">
           <rect id="button" ry="5" rx="5" y="6" x="6" height="38" width="38"
                fill="#f2f5e9" fill-opacity="0.5" stroke="#606060" stroke-width="1.0"/>
           <path id="arrow"
             d="M 11.500037,31.436501 C 11.940474,20.09759 22.043105,11.32322 32.158766,21.979434 L 37.068811,17.246167 C 37.068811,17.246167 37.088388,32 37.088388,32 L 22.160133,31.978069 C 22.160133,31.978069 26.997745,27.140456 26.997745,27.140456 C 18.528582,18.264221 13.291696,25.230495 11.500037,31.436501 z"
             style="fill:#404040;"/>
          </a>
         </g>
        </svg>
</svg>
