<?xml version="1.0" encoding="UTF-8" standalone="no"?>
<!DOCTYPE svg PUBLIC "-//W3C//DTD SVG 1.1//EN"
 "http://www.w3.org/Graphics/SVG/1.1/DTD/svg11.dtd">
<!-- Generated by graphviz version 2.38.0 (20140413.2041)
 -->
<!-- Title: vili::ComplexAttribute::useTemplate Pages: 1 -->
<!--zoomable 402 -->
<svg id="main" version="1.1" xmlns="http://www.w3.org/2000/svg" xmlns:xlink="http://www.w3.org/1999/xlink" xml:space="preserve" onload="init(evt)">
<style type="text/css"><![CDATA[
.edge:hover path { stroke: red; }
.edge:hover polygon { stroke: red; fill: red; }
.edge path { stroke: white; }
.edge polygon { stroke: white; fill: white; }
]]></style>
<script type="text/javascript"><![CDATA[
var edges = document.getElementsByTagName('g');
if (edges && edges.length) {
  for (var i=0;i<edges.length;i++) {
    if (edges[i].id.substr(0,4)=='edge') {
      edges[i].setAttribute('class','edge');
    }
  }
}
]]></script>
        <defs>
                <circle id="rim" cx="0" cy="0" r="7"/>
                <circle id="rim2" cx="0" cy="0" r="3.5"/>
                <g id="zoomPlus">
                        <use xlink:href="#rim" fill="#404040">
                                <set attributeName="fill" to="#808080" begin="zoomplus.mouseover" end="zoomplus.mouseout"/>
                        </use>
                        <path d="M-4,0h8M0,-4v8" fill="none" stroke="white" stroke-width="1.5" pointer-events="none"/>
                </g>
                <g id="zoomMin">
                        <use xlink:href="#rim" fill="#404040">
                                <set attributeName="fill" to="#808080" begin="zoomminus.mouseover" end="zoomminus.mouseout"/>
                        </use>
                        <path d="M-4,0h8" fill="none" stroke="white" stroke-width="1.5" pointer-events="none"/>
                </g>
                <g id="dirArrow">
                        <path fill="none" stroke="white" stroke-width="1.5" d="M0,-3.0v7 M-2.5,-0.5L0,-3.0L2.5,-0.5"/>
                </g>
               <g id="resetDef">
                       <use xlink:href="#rim2" fill="#404040">
                               <set attributeName="fill" to="#808080" begin="reset.mouseover" end="reset.mouseout"/>
                       </use>
               </g>
        </defs>

<script type="text/javascript">
var viewWidth = 1512;
var viewHeight = 402;
var sectionId = 'dynsection-71';
</script>
<script xlink:href="svgpan.js"/>
<svg id="graph" class="graph">
<g id="viewport">
<title>vili::ComplexAttribute::useTemplate</title>
<!-- Node1204 -->
<g id="node1" class="node"><title>Node1204</title>
<polygon fill="#bfbfbf" stroke="black" points="0,-95.6861 0,-125.686 108,-125.686 108,-95.6861 0,-95.6861"/>
<text text-anchor="start" x="8" y="-113.686" font-family="Helvetica,sans-Serif" font-size="10.00">vili::ComplexAttribute</text>
<text text-anchor="middle" x="54" y="-102.686" font-family="Helvetica,sans-Serif" font-size="10.00">::useTemplate</text>
</g>
<!-- Node1205 -->
<g id="node2" class="node"><title>Node1205</title>
<g id="a_node2"><a xlink:href="classvili_1_1_data_parser.html#aee1cbc0386d83924c07150644621160f" target="_top" xlink:title="vili::DataParser::parseFile">
<polygon fill="none" stroke="black" points="144,-196.186 144,-215.186 272,-215.186 272,-196.186 144,-196.186"/>
<text text-anchor="middle" x="208" y="-203.186" font-family="Helvetica,sans-Serif" font-size="10.00">vili::DataParser::parseFile</text>
</a>
</g>
</g>
<!-- Node1204&#45;&gt;Node1205 -->
<g id="edge1" class="edge"><title>Node1204&#45;&gt;Node1205</title>
<path fill="none" stroke="midnightblue" d="M87.6718,-131.106C119.677,-151.109 167.077,-180.734 191.381,-195.924"/>
<polygon fill="midnightblue" stroke="midnightblue" points="89.4199,-128.071 79.0849,-125.739 85.7098,-134.007 89.4199,-128.071"/>
</g>
<!-- Node1208 -->
<g id="node5" class="node"><title>Node1208</title>
<g id="a_node5"><a xlink:href="namespaceobe_1_1_modes.html#aba069f9abc42724d76690602326d6b7d" target="_top" xlink:title="obe::Modes::createLevel">
<polygon fill="none" stroke="black" points="481,-143.186 481,-162.186 603,-162.186 603,-143.186 481,-143.186"/>
<text text-anchor="middle" x="542" y="-150.186" font-family="Helvetica,sans-Serif" font-size="10.00">obe::Modes::createLevel</text>
</a>
</g>
</g>
<!-- Node1204&#45;&gt;Node1208 -->
<g id="edge27" class="edge"><title>Node1204&#45;&gt;Node1208</title>
<path fill="none" stroke="midnightblue" d="M118.364,-116.162C212.553,-124.302 388.291,-139.489 480.685,-147.474"/>
<polygon fill="midnightblue" stroke="midnightblue" points="118.665,-112.675 108.401,-115.301 118.062,-119.649 118.665,-112.675"/>
</g>
<!-- Node1223 -->
<g id="node20" class="node"><title>Node1223</title>
<g id="a_node20"><a xlink:href="classvili_1_1_complex_attribute.html#a7effbea21d8995576687efb28c60fac9" target="_top" xlink:title="vili::ComplexAttribute::at">
<polygon fill="none" stroke="black" points="147,-82.1861 147,-101.186 269,-101.186 269,-82.1861 147,-82.1861"/>
<text text-anchor="middle" x="208" y="-89.1861" font-family="Helvetica,sans-Serif" font-size="10.00">vili::ComplexAttribute::at</text>
</a>
</g>
</g>
<!-- Node1204&#45;&gt;Node1223 -->
<g id="edge26" class="edge"><title>Node1204&#45;&gt;Node1223</title>
<path fill="none" stroke="midnightblue" d="M118.286,-102.775C127.74,-101.594 137.464,-100.378 146.851,-99.2048"/>
<polygon fill="midnightblue" stroke="midnightblue" points="117.651,-99.3275 108.162,-104.041 118.519,-106.273 117.651,-99.3275"/>
</g>
<!-- Node1224 -->
<g id="node21" class="node"><title>Node1224</title>
<g id="a_node21"><a xlink:href="classobe_1_1_world_1_1_world.html#ad3f98425ed3917caead79559247695f1" target="_top" xlink:title="obe::World::World::\lsaveData">
<polygon fill="none" stroke="black" points="491.5,-20.6861 491.5,-50.6861 592.5,-50.6861 592.5,-20.6861 491.5,-20.6861"/>
<text text-anchor="start" x="499.5" y="-38.6861" font-family="Helvetica,sans-Serif" font-size="10.00">obe::World::World::</text>
<text text-anchor="middle" x="542" y="-27.6861" font-family="Helvetica,sans-Serif" font-size="10.00">saveData</text>
</a>
</g>
</g>
<!-- Node1204&#45;&gt;Node1224 -->
<g id="edge28" class="edge"><title>Node1204&#45;&gt;Node1224</title>
<path fill="none" stroke="midnightblue" d="M93.0793,-91.3426C108.511,-84.3287 126.737,-77.0616 144,-72.6861 266.123,-41.7328 415.259,-36.0903 491.274,-35.4145"/>
<polygon fill="midnightblue" stroke="midnightblue" points="91.443,-88.2439 83.8656,-95.6488 94.4069,-94.5854 91.443,-88.2439"/>
</g>
<!-- Node1206 -->
<g id="node3" class="node"><title>Node1206</title>
<g id="a_node3"><a xlink:href="classvili_1_1_data_parser.html#aa24d18e75c36a9a848b2d2a0f14a5819" target="_top" xlink:title="vili::DataParser::DataParser">
<polygon fill="none" stroke="black" points="308,-158.186 308,-177.186 445,-177.186 445,-158.186 308,-158.186"/>
<text text-anchor="middle" x="376.5" y="-165.186" font-family="Helvetica,sans-Serif" font-size="10.00">vili::DataParser::DataParser</text>
</a>
</g>
</g>
<!-- Node1205&#45;&gt;Node1206 -->
<g id="edge2" class="edge"><title>Node1205&#45;&gt;Node1206</title>
<path fill="none" stroke="midnightblue" d="M260.809,-193.862C284.283,-188.505 311.665,-182.255 333.787,-177.206"/>
<polygon fill="midnightblue" stroke="midnightblue" points="259.985,-190.46 251.015,-196.097 261.543,-197.284 259.985,-190.46"/>
</g>
<!-- Node1207 -->
<g id="node4" class="node"><title>Node1207</title>
<g id="a_node4"><a xlink:href="classvili_1_1_data_parser.html#a17e30ec4a5e111082ffea7ca82eb89d9" target="_top" xlink:title="vili::DataParser::includeFile">
<polygon fill="none" stroke="black" points="309.5,-196.186 309.5,-215.186 443.5,-215.186 443.5,-196.186 309.5,-196.186"/>
<text text-anchor="middle" x="376.5" y="-203.186" font-family="Helvetica,sans-Serif" font-size="10.00">vili::DataParser::includeFile</text>
</a>
</g>
</g>
<!-- Node1205&#45;&gt;Node1207 -->
<g id="edge3" class="edge"><title>Node1205&#45;&gt;Node1207</title>
<path fill="none" stroke="midnightblue" d="M282.484,-198.978C291.474,-198.901 300.618,-198.931 309.489,-199.066"/>
<polygon fill="midnightblue" stroke="midnightblue" points="282.375,-195.479 272.421,-199.109 282.466,-202.478 282.375,-195.479"/>
</g>
<!-- Node1212 -->
<g id="node9" class="node"><title>Node1212</title>
<g id="a_node9"><a xlink:href="namespaceobe_1_1_system.html#ab44a678f8f4dc351d966f90283ba67e1" target="_top" xlink:title="Function called to Mount all Paths using &#39;Mount.vili&#39; file. ">
<polygon fill="none" stroke="black" points="311,-253.186 311,-272.186 442,-272.186 442,-253.186 311,-253.186"/>
<text text-anchor="middle" x="376.5" y="-260.186" font-family="Helvetica,sans-Serif" font-size="10.00">obe::System::MountPaths</text>
</a>
</g>
</g>
<!-- Node1205&#45;&gt;Node1212 -->
<g id="edge10" class="edge"><title>Node1205&#45;&gt;Node1212</title>
<path fill="none" stroke="midnightblue" d="M246.366,-218.478C277.031,-228.976 319.774,-243.609 347.541,-253.114"/>
<polygon fill="midnightblue" stroke="midnightblue" points="247.463,-215.154 236.868,-215.227 245.196,-221.777 247.463,-215.154"/>
</g>
<!-- Node1207&#45;&gt;Node1205 -->
<g id="edge4" class="edge"><title>Node1207&#45;&gt;Node1205</title>
<path fill="none" stroke="midnightblue" d="M299.38,-212.414C290.364,-212.47 281.235,-212.42 272.421,-212.263"/>
<polygon fill="midnightblue" stroke="midnightblue" points="299.527,-215.913 309.489,-212.306 299.452,-208.913 299.527,-215.913"/>
</g>
<!-- Node1207&#45;&gt;Node1208 -->
<g id="edge5" class="edge"><title>Node1207&#45;&gt;Node1208</title>
<path fill="none" stroke="midnightblue" d="M422.688,-193.412C430.166,-191.253 437.819,-188.966 445,-186.686 469.099,-179.036 496.229,-169.324 515.485,-162.24"/>
<polygon fill="midnightblue" stroke="midnightblue" points="421.674,-190.061 413.013,-196.164 423.589,-196.794 421.674,-190.061"/>
</g>
<!-- Node1209 -->
<g id="node6" class="node"><title>Node1209</title>
<g id="a_node6"><a xlink:href="namespaceobe_1_1_modes.html#a3f3265818dfb12925bf614e517346f73" target="_top" xlink:title="obe::Modes::chooseMapMenu">
<polygon fill="none" stroke="black" points="1113,-132.186 1113,-151.186 1261,-151.186 1261,-132.186 1113,-132.186"/>
<text text-anchor="middle" x="1187" y="-139.186" font-family="Helvetica,sans-Serif" font-size="10.00">obe::Modes::chooseMapMenu</text>
</a>
</g>
</g>
<!-- Node1208&#45;&gt;Node1209 -->
<g id="edge6" class="edge"><title>Node1208&#45;&gt;Node1209</title>
<path fill="none" stroke="midnightblue" d="M613.24,-151.485C735.966,-149.385 988.216,-145.07 1112.91,-142.936"/>
<polygon fill="midnightblue" stroke="midnightblue" points="613.142,-147.986 603.203,-151.656 613.261,-154.985 613.142,-147.986"/>
</g>
<!-- Node1210 -->
<g id="node7" class="node"><title>Node1210</title>
<g id="a_node7"><a xlink:href="namespaceobe_1_1_modes.html#a6a8b08eee511d4895c4da96d4ba223a6" target="_top" xlink:title="obe::Modes::startDevMenu">
<polygon fill="none" stroke="black" points="1297,-170.186 1297,-189.186 1430,-189.186 1430,-170.186 1297,-170.186"/>
<text text-anchor="middle" x="1363.5" y="-177.186" font-family="Helvetica,sans-Serif" font-size="10.00">obe::Modes::startDevMenu</text>
</a>
</g>
</g>
<!-- Node1209&#45;&gt;Node1210 -->
<g id="edge7" class="edge"><title>Node1209&#45;&gt;Node1210</title>
<path fill="none" stroke="midnightblue" d="M1241.97,-153.439C1266.64,-158.812 1295.49,-165.095 1318.78,-170.166"/>
<polygon fill="midnightblue" stroke="midnightblue" points="1242.55,-149.983 1232.03,-151.275 1241.06,-156.823 1242.55,-149.983"/>
</g>
<!-- Node1211 -->
<g id="node8" class="node"><title>Node1211</title>
<g id="a_node8"><a xlink:href="_ob_engine_8cpp.html#a3c04138a5bfe5d72780bb7e82a18e627" target="_top" xlink:title="main">
<polygon fill="none" stroke="black" points="1466,-170.186 1466,-189.186 1504,-189.186 1504,-170.186 1466,-170.186"/>
<text text-anchor="middle" x="1485" y="-177.186" font-family="Helvetica,sans-Serif" font-size="10.00">main</text>
</a>
</g>
</g>
<!-- Node1209&#45;&gt;Node1211 -->
<g id="edge9" class="edge"><title>Node1209&#45;&gt;Node1211</title>
<path fill="none" stroke="midnightblue" d="M1271.38,-142.901C1318.39,-144.911 1377.95,-149.682 1430,-160.686 1442.25,-163.276 1455.52,-167.919 1465.85,-171.967"/>
<polygon fill="midnightblue" stroke="midnightblue" points="1271.37,-139.398 1261.24,-142.502 1271.1,-146.392 1271.37,-139.398"/>
</g>
<!-- Node1210&#45;&gt;Node1211 -->
<g id="edge8" class="edge"><title>Node1210&#45;&gt;Node1211</title>
<path fill="none" stroke="midnightblue" d="M1440.44,-179.686C1449.72,-179.686 1458.44,-179.686 1465.6,-179.686"/>
<polygon fill="midnightblue" stroke="midnightblue" points="1440.19,-176.186 1430.19,-179.686 1440.19,-183.186 1440.19,-176.186"/>
</g>
<!-- Node1212&#45;&gt;Node1211 -->
<g id="edge11" class="edge"><title>Node1212&#45;&gt;Node1211</title>
<path fill="none" stroke="midnightblue" d="M401.504,-277.512C453.838,-308.376 582.995,-376.686 701,-376.686 701,-376.686 701,-376.686 1188,-376.686 1295.89,-376.686 1345.93,-425.298 1430,-357.686 1483.6,-314.579 1485.39,-219.98 1484.48,-189.416"/>
<polygon fill="midnightblue" stroke="midnightblue" points="403.024,-274.343 392.646,-272.21 399.428,-280.349 403.024,-274.343"/>
</g>
<!-- Node1213 -->
<g id="node10" class="node"><title>Node1213</title>
<g id="a_node10"><a xlink:href="namespaceobe_1_1_script_1_1_core_lib.html#a474d9f2d7938ff05a78649907b8a77d3" target="_top" xlink:title="obe::Script::CoreLib\l::loadPath">
<polygon fill="none" stroke="black" points="490.5,-247.686 490.5,-277.686 593.5,-277.686 593.5,-247.686 490.5,-247.686"/>
<text text-anchor="start" x="498.5" y="-265.686" font-family="Helvetica,sans-Serif" font-size="10.00">obe::Script::CoreLib</text>
<text text-anchor="middle" x="542" y="-254.686" font-family="Helvetica,sans-Serif" font-size="10.00">::loadPath</text>
</a>
</g>
</g>
<!-- Node1212&#45;&gt;Node1213 -->
<g id="edge12" class="edge"><title>Node1212&#45;&gt;Node1213</title>
<path fill="none" stroke="midnightblue" d="M452.385,-262.686C465.278,-262.686 478.4,-262.686 490.457,-262.686"/>
<polygon fill="midnightblue" stroke="midnightblue" points="452.12,-259.186 442.12,-262.686 452.119,-266.186 452.12,-259.186"/>
</g>
<!-- Node1214 -->
<g id="node11" class="node"><title>Node1214</title>
<g id="a_node11"><a xlink:href="namespaceobe_1_1_script.html#a633c629c5a54da2b5d4930730983121c" target="_top" xlink:title="obe::Script::loadCoreLib">
<polygon fill="none" stroke="black" points="641.5,-253.186 641.5,-272.186 762.5,-272.186 762.5,-253.186 641.5,-253.186"/>
<text text-anchor="middle" x="702" y="-260.186" font-family="Helvetica,sans-Serif" font-size="10.00">obe::Script::loadCoreLib</text>
</a>
</g>
</g>
<!-- Node1213&#45;&gt;Node1214 -->
<g id="edge13" class="edge"><title>Node1213&#45;&gt;Node1214</title>
<path fill="none" stroke="midnightblue" d="M604.008,-262.686C616.291,-262.686 629.188,-262.686 641.422,-262.686"/>
<polygon fill="midnightblue" stroke="midnightblue" points="603.862,-259.186 593.862,-262.686 603.862,-266.186 603.862,-259.186"/>
</g>
<!-- Node1215 -->
<g id="node12" class="node"><title>Node1215</title>
<g id="a_node12"><a xlink:href="namespaceobe_1_1_script.html#a4e6ee77032cf7f66544f9b08464a60b7" target="_top" xlink:title="obe::Script::loadLib">
<polygon fill="none" stroke="black" points="801,-253.186 801,-272.186 902,-272.186 902,-253.186 801,-253.186"/>
<text text-anchor="middle" x="851.5" y="-260.186" font-family="Helvetica,sans-Serif" font-size="10.00">obe::Script::loadLib</text>
</a>
</g>
</g>
<!-- Node1214&#45;&gt;Node1215 -->
<g id="edge14" class="edge"><title>Node1214&#45;&gt;Node1215</title>
<path fill="none" stroke="midnightblue" d="M772.728,-262.686C782.15,-262.686 791.659,-262.686 800.639,-262.686"/>
<polygon fill="midnightblue" stroke="midnightblue" points="772.569,-259.186 762.569,-262.686 772.569,-266.186 772.569,-259.186"/>
</g>
<!-- Node1216 -->
<g id="node13" class="node"><title>Node1216</title>
<g id="a_node13"><a xlink:href="namespaceobe_1_1_script.html#a5e992c0efb0543e7c934bc1065f08b01" target="_top" xlink:title="obe::Script::loadLibBridge">
<polygon fill="none" stroke="black" points="943.5,-329.186 943.5,-348.186 1071.5,-348.186 1071.5,-329.186 943.5,-329.186"/>
<text text-anchor="middle" x="1007.5" y="-336.186" font-family="Helvetica,sans-Serif" font-size="10.00">obe::Script::loadLibBridge</text>
</a>
</g>
</g>
<!-- Node1215&#45;&gt;Node1216 -->
<g id="edge15" class="edge"><title>Node1215&#45;&gt;Node1216</title>
<path fill="none" stroke="midnightblue" d="M872.149,-278.431C888.824,-291.123 913.827,-308.621 938,-319.686 946.08,-323.385 955.033,-326.506 963.729,-329.081"/>
<polygon fill="midnightblue" stroke="midnightblue" points="874.283,-275.657 864.237,-272.292 869.992,-281.187 874.283,-275.657"/>
</g>
<!-- Node1219 -->
<g id="node16" class="node"><title>Node1219</title>
<g id="a_node16"><a xlink:href="namespaceobe_1_1_script.html#aad6ef67388e6d16eb01853f208da410f" target="_top" xlink:title="obe::Script::loadBaseLib">
<polygon fill="none" stroke="black" points="946,-291.186 946,-310.186 1069,-310.186 1069,-291.186 946,-291.186"/>
<text text-anchor="middle" x="1007.5" y="-298.186" font-family="Helvetica,sans-Serif" font-size="10.00">obe::Script::loadBaseLib</text>
</a>
</g>
</g>
<!-- Node1215&#45;&gt;Node1219 -->
<g id="edge18" class="edge"><title>Node1215&#45;&gt;Node1219</title>
<path fill="none" stroke="midnightblue" d="M901.294,-274.726C922.808,-280.035 947.732,-286.185 967.919,-291.166"/>
<polygon fill="midnightblue" stroke="midnightblue" points="901.908,-271.273 891.361,-272.275 900.231,-278.069 901.908,-271.273"/>
</g>
<!-- Node1220 -->
<g id="node17" class="node"><title>Node1220</title>
<g id="a_node17"><a xlink:href="namespaceobe_1_1_modes.html#a1e38c0d9a2ca0230f0de79c298f53ab9" target="_top" xlink:title="A mode that will start the Toolkit. ">
<polygon fill="none" stroke="black" points="1114,-248.186 1114,-267.186 1260,-267.186 1260,-248.186 1114,-248.186"/>
<text text-anchor="middle" x="1187" y="-255.186" font-family="Helvetica,sans-Serif" font-size="10.00">obe::Modes::startToolkitMode</text>
</a>
</g>
</g>
<!-- Node1215&#45;&gt;Node1220 -->
<g id="edge22" class="edge"><title>Node1215&#45;&gt;Node1220</title>
<path fill="none" stroke="midnightblue" d="M912.279,-261.79C968.8,-260.943 1053.69,-259.67 1113.93,-258.767"/>
<polygon fill="midnightblue" stroke="midnightblue" points="912.015,-258.293 902.068,-261.943 912.12,-265.293 912.015,-258.293"/>
</g>
<!-- Node1221 -->
<g id="node18" class="node"><title>Node1221</title>
<g id="a_node18"><a xlink:href="classobe_1_1_world_1_1_world.html#a5bd621e3fd9293d949ad0c669cee6838" target="_top" xlink:title="obe::World::World::\lWorld">
<polygon fill="none" stroke="black" points="1136.5,-189.686 1136.5,-219.686 1237.5,-219.686 1237.5,-189.686 1136.5,-189.686"/>
<text text-anchor="start" x="1144.5" y="-207.686" font-family="Helvetica,sans-Serif" font-size="10.00">obe::World::World::</text>
<text text-anchor="middle" x="1187" y="-196.686" font-family="Helvetica,sans-Serif" font-size="10.00">World</text>
</a>
</g>
</g>
<!-- Node1215&#45;&gt;Node1221 -->
<g id="edge23" class="edge"><title>Node1215&#45;&gt;Node1221</title>
<path fill="none" stroke="midnightblue" d="M912.012,-252.336C976.001,-241.208 1076.58,-223.716 1136.43,-213.307"/>
<polygon fill="midnightblue" stroke="midnightblue" points="911.321,-248.904 902.068,-254.066 912.52,-255.8 911.321,-248.904"/>
</g>
<!-- Node1222 -->
<g id="node19" class="node"><title>Node1222</title>
<g id="a_node19"><a xlink:href="namespaceobe_1_1_world.html#afc958184e59524fdf9dc6ba98a1e9a37" target="_top" xlink:title="obe::World::loadWorldScript\lEngineBaseLib">
<polygon fill="none" stroke="black" points="938,-165.686 938,-195.686 1077,-195.686 1077,-165.686 938,-165.686"/>
<text text-anchor="start" x="946" y="-183.686" font-family="Helvetica,sans-Serif" font-size="10.00">obe::World::loadWorldScript</text>
<text text-anchor="middle" x="1007.5" y="-172.686" font-family="Helvetica,sans-Serif" font-size="10.00">EngineBaseLib</text>
</a>
</g>
</g>
<!-- Node1215&#45;&gt;Node1222 -->
<g id="edge24" class="edge"><title>Node1215&#45;&gt;Node1222</title>
<path fill="none" stroke="midnightblue" d="M875.637,-247.455C892.569,-236.597 916.282,-221.982 938,-210.686 948.021,-205.474 959.142,-200.34 969.458,-195.833"/>
<polygon fill="midnightblue" stroke="midnightblue" points="873.477,-244.684 866.983,-253.056 877.28,-250.56 873.477,-244.684"/>
</g>
<!-- Node1217 -->
<g id="node14" class="node"><title>Node1217</title>
<g id="a_node14"><a xlink:href="namespaceobe_1_1_script.html#a5dc8321da50fd4b5dc2935e4d8c93a4e" target="_top" xlink:title="obe::Script::loadScrGame\lObject">
<polygon fill="none" stroke="black" points="1122.5,-317.686 1122.5,-347.686 1251.5,-347.686 1251.5,-317.686 1122.5,-317.686"/>
<text text-anchor="start" x="1130.5" y="-335.686" font-family="Helvetica,sans-Serif" font-size="10.00">obe::Script::loadScrGame</text>
<text text-anchor="middle" x="1187" y="-324.686" font-family="Helvetica,sans-Serif" font-size="10.00">Object</text>
</a>
</g>
</g>
<!-- Node1216&#45;&gt;Node1217 -->
<g id="edge16" class="edge"><title>Node1216&#45;&gt;Node1217</title>
<path fill="none" stroke="midnightblue" d="M1081.74,-336.211C1095.17,-335.756 1109.1,-335.286 1122.23,-334.842"/>
<polygon fill="midnightblue" stroke="midnightblue" points="1081.46,-332.718 1071.58,-336.554 1081.69,-339.714 1081.46,-332.718"/>
</g>
<!-- Node1218 -->
<g id="node15" class="node"><title>Node1218</title>
<g id="a_node15"><a xlink:href="classobe_1_1_script_1_1_game_object.html#aa0d58bd1ef0fa2fe9f7567729b2d291e" target="_top" xlink:title="obe::Script::GameObject\l::loadGameObject">
<polygon fill="none" stroke="black" points="1301,-317.686 1301,-347.686 1426,-347.686 1426,-317.686 1301,-317.686"/>
<text text-anchor="start" x="1309" y="-335.686" font-family="Helvetica,sans-Serif" font-size="10.00">obe::Script::GameObject</text>
<text text-anchor="middle" x="1363.5" y="-324.686" font-family="Helvetica,sans-Serif" font-size="10.00">::loadGameObject</text>
</a>
</g>
</g>
<!-- Node1217&#45;&gt;Node1218 -->
<g id="edge17" class="edge"><title>Node1217&#45;&gt;Node1218</title>
<path fill="none" stroke="midnightblue" d="M1262.21,-332.686C1275.09,-332.686 1288.35,-332.686 1300.85,-332.686"/>
<polygon fill="midnightblue" stroke="midnightblue" points="1261.99,-329.186 1251.99,-332.686 1261.99,-336.186 1261.99,-329.186"/>
</g>
<!-- Node1219&#45;&gt;Node1220 -->
<g id="edge19" class="edge"><title>Node1219&#45;&gt;Node1220</title>
<path fill="none" stroke="midnightblue" d="M1057.9,-288.719C1085.94,-281.927 1120.54,-273.543 1146.72,-267.203"/>
<polygon fill="midnightblue" stroke="midnightblue" points="1056.79,-285.387 1047.89,-291.143 1058.44,-292.19 1056.79,-285.387"/>
</g>
<!-- Node1220&#45;&gt;Node1210 -->
<g id="edge20" class="edge"><title>Node1220&#45;&gt;Node1210</title>
<path fill="none" stroke="midnightblue" d="M1222.88,-244.417C1235.02,-239.643 1248.69,-234.096 1261,-228.686 1290.2,-215.857 1323.37,-199.5 1343.61,-189.308"/>
<polygon fill="midnightblue" stroke="midnightblue" points="1221.57,-241.171 1213.52,-248.063 1224.11,-247.694 1221.57,-241.171"/>
</g>
<!-- Node1220&#45;&gt;Node1211 -->
<g id="edge21" class="edge"><title>Node1220&#45;&gt;Node1211</title>
<path fill="none" stroke="midnightblue" d="M1242.78,-245.96C1292.11,-235.018 1366.4,-217.578 1430,-198.686 1442,-195.121 1455.27,-190.462 1465.65,-186.65"/>
<polygon fill="midnightblue" stroke="midnightblue" points="1241.97,-242.556 1232.96,-248.127 1243.48,-249.391 1241.97,-242.556"/>
</g>
<!-- Node1222&#45;&gt;Node1221 -->
<g id="edge25" class="edge"><title>Node1222&#45;&gt;Node1221</title>
<path fill="none" stroke="midnightblue" d="M1087.39,-191.353C1104,-193.599 1121.09,-195.909 1136.27,-197.962"/>
<polygon fill="midnightblue" stroke="midnightblue" points="1087.5,-187.837 1077.13,-189.965 1086.57,-194.774 1087.5,-187.837"/>
</g>
<!-- Node1225 -->
<g id="node22" class="node"><title>Node1225</title>
<g id="a_node22"><a xlink:href="namespaceobe_1_1_editor.html#a508e767d732debdb65e63c7bffa50623" target="_top" xlink:title="obe::Editor::editMap">
<polygon fill="none" stroke="black" points="1135,-74.1861 1135,-93.1861 1239,-93.1861 1239,-74.1861 1135,-74.1861"/>
<text text-anchor="middle" x="1187" y="-81.1861" font-family="Helvetica,sans-Serif" font-size="10.00">obe::Editor::editMap</text>
</a>
</g>
</g>
<!-- Node1224&#45;&gt;Node1225 -->
<g id="edge29" class="edge"><title>Node1224&#45;&gt;Node1225</title>
<path fill="none" stroke="midnightblue" d="M602.545,-22.5578C614.564,-20.2877 627.148,-18.1808 639,-16.6861 755.038,-2.05287 785.929,6.6821 902,-7.68614 981.591,-17.5385 999.621,-30.6088 1077,-51.6861 1103.26,-58.8391 1132.88,-67.5791 1154.61,-74.1165"/>
<polygon fill="midnightblue" stroke="midnightblue" points="601.757,-19.1456 592.61,-24.4932 603.095,-26.0164 601.757,-19.1456"/>
</g>
<!-- Node1226 -->
<g id="node23" class="node"><title>Node1226</title>
<g id="a_node23"><a xlink:href="namespaceobe_1_1_world.html#af739dc1887d2fa99eeded5b208cf66f5" target="_top" xlink:title="obe::World::loadWorldLib">
<polygon fill="none" stroke="black" points="639,-26.1861 639,-45.1861 765,-45.1861 765,-26.1861 639,-26.1861"/>
<text text-anchor="middle" x="702" y="-33.1861" font-family="Helvetica,sans-Serif" font-size="10.00">obe::World::loadWorldLib</text>
</a>
</g>
</g>
<!-- Node1224&#45;&gt;Node1226 -->
<g id="edge32" class="edge"><title>Node1224&#45;&gt;Node1226</title>
<path fill="none" stroke="midnightblue" d="M602.738,-35.6861C614.533,-35.6861 626.938,-35.6861 638.811,-35.6861"/>
<polygon fill="midnightblue" stroke="midnightblue" points="602.559,-32.1862 592.559,-35.6861 602.559,-39.1862 602.559,-32.1862"/>
</g>
<!-- Node1225&#45;&gt;Node1210 -->
<g id="edge30" class="edge"><title>Node1225&#45;&gt;Node1210</title>
<path fill="none" stroke="midnightblue" d="M1215.03,-97.952C1228.82,-105.277 1245.85,-114.384 1261,-122.686 1290.95,-139.096 1325.59,-158.681 1345.68,-170.097"/>
<polygon fill="midnightblue" stroke="midnightblue" points="1216.53,-94.7878 1206.06,-93.1976 1213.25,-100.973 1216.53,-94.7878"/>
</g>
<!-- Node1225&#45;&gt;Node1211 -->
<g id="edge31" class="edge"><title>Node1225&#45;&gt;Node1211</title>
<path fill="none" stroke="midnightblue" d="M1249.08,-91.2722C1299.36,-99.0927 1371.6,-114.013 1430,-140.686 1446.41,-148.18 1462.87,-161.023 1473.23,-169.913"/>
<polygon fill="midnightblue" stroke="midnightblue" points="1249.42,-87.7845 1239.01,-89.7554 1248.38,-94.7063 1249.42,-87.7845"/>
</g>
<!-- Node1226&#45;&gt;Node1222 -->
<g id="edge38" class="edge"><title>Node1226&#45;&gt;Node1222</title>
<path fill="none" stroke="midnightblue" d="M732.098,-49.5882C789.173,-76.8562 915.392,-137.158 974.63,-165.46"/>
<polygon fill="midnightblue" stroke="midnightblue" points="733.445,-46.3528 722.913,-45.2 730.428,-52.669 733.445,-46.3528"/>
</g>
<!-- Node1227 -->
<g id="node24" class="node"><title>Node1227</title>
<g id="a_node24"><a xlink:href="classobe_1_1_world_1_1_world.html#a4985b41c5ed027948d823d7155abf779" target="_top" xlink:title="obe::World::World::\lcreateGameObject">
<polygon fill="none" stroke="black" points="801,-17.6861 801,-47.6861 902,-47.6861 902,-17.6861 801,-17.6861"/>
<text text-anchor="start" x="809" y="-35.6861" font-family="Helvetica,sans-Serif" font-size="10.00">obe::World::World::</text>
<text text-anchor="middle" x="851.5" y="-24.6861" font-family="Helvetica,sans-Serif" font-size="10.00">createGameObject</text>
</a>
</g>
</g>
<!-- Node1226&#45;&gt;Node1227 -->
<g id="edge33" class="edge"><title>Node1226&#45;&gt;Node1227</title>
<path fill="none" stroke="midnightblue" d="M775.294,-27.4669C783.99,-27.2761 792.714,-27.2099 800.981,-27.2781"/>
<polygon fill="midnightblue" stroke="midnightblue" points="775.025,-23.9729 765.126,-27.7476 775.219,-30.9702 775.025,-23.9729"/>
</g>
<!-- Node1227&#45;&gt;Node1226 -->
<g id="edge37" class="edge"><title>Node1227&#45;&gt;Node1226</title>
<path fill="none" stroke="midnightblue" d="M790.816,-40.5397C782.353,-40.8461 773.634,-41.0352 765.126,-41.0975"/>
<polygon fill="midnightblue" stroke="midnightblue" points="791.138,-44.0293 800.981,-40.1085 790.841,-37.0356 791.138,-44.0293"/>
</g>
<!-- Node1228 -->
<g id="node25" class="node"><title>Node1228</title>
<g id="a_node25"><a xlink:href="classobe_1_1_world_1_1_world.html#afb1d1ba4e0ae0ab5f741f413b793ba7e" target="_top" xlink:title="obe::World::World::\lloadFromFile">
<polygon fill="none" stroke="black" points="957,-61.6861 957,-91.6861 1058,-91.6861 1058,-61.6861 957,-61.6861"/>
<text text-anchor="start" x="965" y="-79.6861" font-family="Helvetica,sans-Serif" font-size="10.00">obe::World::World::</text>
<text text-anchor="middle" x="1007.5" y="-68.6861" font-family="Helvetica,sans-Serif" font-size="10.00">loadFromFile</text>
</a>
</g>
</g>
<!-- Node1227&#45;&gt;Node1228 -->
<g id="edge34" class="edge"><title>Node1227&#45;&gt;Node1228</title>
<path fill="none" stroke="midnightblue" d="M911.692,-49.5981C926.572,-53.8494 942.39,-58.3689 956.755,-62.4732"/>
<polygon fill="midnightblue" stroke="midnightblue" points="912.651,-46.2322 902.074,-46.8502 910.728,-52.9628 912.651,-46.2322"/>
</g>
<!-- Node1228&#45;&gt;Node1225 -->
<g id="edge35" class="edge"><title>Node1228&#45;&gt;Node1225</title>
<path fill="none" stroke="midnightblue" d="M1068.45,-79.0505C1090.03,-79.9016 1114.16,-80.8531 1134.92,-81.6716"/>
<polygon fill="midnightblue" stroke="midnightblue" points="1068.55,-75.5515 1058.42,-78.6547 1068.27,-82.5461 1068.55,-75.5515"/>
</g>
<!-- Node1228&#45;&gt;Node1226 -->
<g id="edge36" class="edge"><title>Node1228&#45;&gt;Node1226</title>
<path fill="none" stroke="midnightblue" d="M946.762,-72.6813C905.633,-69.4819 849.818,-64.2668 801,-56.6861 781.571,-53.669 760.2,-49.2238 742.386,-45.1991"/>
<polygon fill="midnightblue" stroke="midnightblue" points="946.652,-76.183 956.889,-73.4515 947.183,-69.2031 946.652,-76.183"/>
</g>
</g>
</svg>
        <g id="navigator" transform="translate(0 0)" fill="#404254">
                <rect fill="#f2f5e9" fill-opacity="0.5" stroke="#606060" stroke-width=".5" x="0" y="0" width="60" height="60"/>
                <use id="zoomplus" xlink:href="#zoomPlus" x="17" y="9" onmousedown="handleZoom(evt,'in')"/>
                <use id="zoomminus" xlink:href="#zoomMin" x="42" y="9" onmousedown="handleZoom(evt,'out')"/>
                <use id="reset" xlink:href="#resetDef" x="30" y="36" onmousedown="handleReset()"/>
                <g id="arrowUp" xlink:href="#dirArrow" transform="translate(30 24)" onmousedown="handlePan(0,-1)">
                  <use xlink:href="#rim" fill="#404040">
                        <set attributeName="fill" to="#808080" begin="arrowUp.mouseover" end="arrowUp.mouseout"/>
                  </use>
                  <path fill="none" stroke="white" stroke-width="1.5" d="M0,-3.0v7 M-2.5,-0.5L0,-3.0L2.5,-0.5"/>
                </g>
                <g id="arrowRight" xlink:href="#dirArrow" transform="rotate(90) translate(36 -43)" onmousedown="handlePan(1,0)">
                  <use xlink:href="#rim" fill="#404040">
                        <set attributeName="fill" to="#808080" begin="arrowRight.mouseover" end="arrowRight.mouseout"/>
                  </use>
                  <path fill="none" stroke="white" stroke-width="1.5" d="M0,-3.0v7 M-2.5,-0.5L0,-3.0L2.5,-0.5"/>
                </g>
                <g id="arrowDown" xlink:href="#dirArrow" transform="rotate(180) translate(-30 -48)" onmousedown="handlePan(0,1)">
                  <use xlink:href="#rim" fill="#404040">
                        <set attributeName="fill" to="#808080" begin="arrowDown.mouseover" end="arrowDown.mouseout"/>
                  </use>
                  <path fill="none" stroke="white" stroke-width="1.5" d="M0,-3.0v7 M-2.5,-0.5L0,-3.0L2.5,-0.5"/>
                </g>
                <g id="arrowLeft" xlink:href="#dirArrow" transform="rotate(270) translate(-36 17)" onmousedown="handlePan(-1,0)">
                  <use xlink:href="#rim" fill="#404040">
                        <set attributeName="fill" to="#808080" begin="arrowLeft.mouseover" end="arrowLeft.mouseout"/>
                  </use>
                  <path fill="none" stroke="white" stroke-width="1.5" d="M0,-3.0v7 M-2.5,-0.5L0,-3.0L2.5,-0.5"/>
                </g>
        </g>
        <svg viewBox="0 0 15 15" width="100%" height="30px" preserveAspectRatio="xMaxYMin meet">
         <g id="arrow_out" transform="scale(0.3 0.3)">
          <a xlink:href="classvili_1_1_complex_attribute_aaa276049f7ab3f22f33daf45d8ee0cfa_icgraph_org.svg" target="_base">
           <rect id="button" ry="5" rx="5" y="6" x="6" height="38" width="38"
                fill="#f2f5e9" fill-opacity="0.5" stroke="#606060" stroke-width="1.0"/>
           <path id="arrow"
             d="M 11.500037,31.436501 C 11.940474,20.09759 22.043105,11.32322 32.158766,21.979434 L 37.068811,17.246167 C 37.068811,17.246167 37.088388,32 37.088388,32 L 22.160133,31.978069 C 22.160133,31.978069 26.997745,27.140456 26.997745,27.140456 C 18.528582,18.264221 13.291696,25.230495 11.500037,31.436501 z"
             style="fill:#404040;"/>
          </a>
         </g>
        </svg>
</svg>
