<?xml version="1.0" encoding="UTF-8" standalone="no"?>
<!DOCTYPE svg PUBLIC "-//W3C//DTD SVG 1.1//EN"
 "http://www.w3.org/Graphics/SVG/1.1/DTD/svg11.dtd">
<!-- Generated by graphviz version 2.38.0 (20140413.2041)
 -->
<!-- Title: vili::ArrayNode::clear Pages: 1 -->
<!--zoomable 97 -->
<svg id="main" version="1.1" xmlns="http://www.w3.org/2000/svg" xmlns:xlink="http://www.w3.org/1999/xlink" xml:space="preserve" onload="init(evt)">
<style type="text/css"><![CDATA[
.edge:hover path { stroke: red; }
.edge:hover polygon { stroke: red; fill: red; }
.edge path { stroke: white; }
.edge polygon { stroke: white; fill: white; }
.node polygon { fill: white; }
]]></style>
<script type="text/javascript"><![CDATA[
var edges = document.getElementsByTagName('g');
if (edges && edges.length) {
  for (var i=0;i<edges.length;i++) {
    if (edges[i].id.substr(0,4)=='edge') {
      edges[i].setAttribute('class','edge');
    }
  }
}
]]></script>
        <defs>
                <circle id="rim" cx="0" cy="0" r="7"/>
                <circle id="rim2" cx="0" cy="0" r="3.5"/>
                <g id="zoomPlus">
                        <use xlink:href="#rim" fill="#404040">
                                <set attributeName="fill" to="#808080" begin="zoomplus.mouseover" end="zoomplus.mouseout"/>
                        </use>
                        <path d="M-4,0h8M0,-4v8" fill="none" stroke="white" stroke-width="1.5" pointer-events="none"/>
                </g>
                <g id="zoomMin">
                        <use xlink:href="#rim" fill="#404040">
                                <set attributeName="fill" to="#808080" begin="zoomminus.mouseover" end="zoomminus.mouseout"/>
                        </use>
                        <path d="M-4,0h8" fill="none" stroke="white" stroke-width="1.5" pointer-events="none"/>
                </g>
                <g id="dirArrow">
                        <path fill="none" stroke="white" stroke-width="1.5" d="M0,-3.0v7 M-2.5,-0.5L0,-3.0L2.5,-0.5"/>
                </g>
               <g id="resetDef">
                       <use xlink:href="#rim2" fill="#404040">
                               <set attributeName="fill" to="#808080" begin="reset.mouseover" end="reset.mouseout"/>
                       </use>
               </g>
        </defs>

<script type="text/javascript">
var viewWidth = 1167;
var viewHeight = 97;
var sectionId = 'dynsection-4';
</script>
<script xlink:href="svgpan.js"/>
<svg id="graph" class="graph">
<g id="viewport">
<title>vili::ArrayNode::clear</title>
<!-- Node37 -->
<g id="node1" class="node"><title>Node37</title>
<polygon fill="#bfbfbf" stroke="black" points="0,-28 0,-47 106,-47 106,-28 0,-28"/>
<text text-anchor="middle" x="53" y="-35" font-family="Helvetica,sans-Serif" font-size="10.00">vili::ArrayNode::clear</text>
</g>
<!-- Node38 -->
<g id="node2" class="node"><title>Node38</title>
<g id="a_node2"><a xlink:href="classvili_1_1_array_node.html#ab8d56408cf64599ccffc0a71f66a65b7" target="_top" xlink:title="vili::ArrayNode::~ArrayNode">
<polygon fill="none" stroke="black" points="142,-50 142,-69 279,-69 279,-50 142,-50"/>
<text text-anchor="middle" x="210.5" y="-57" font-family="Helvetica,sans-Serif" font-size="10.00">vili::ArrayNode::~ArrayNode</text>
</a>
</g>
</g>
<!-- Node37&#45;&gt;Node38 -->
<g id="edge1" class="edge"><title>Node37&#45;&gt;Node38</title>
<path fill="none" stroke="midnightblue" d="M116.139,-46.2913C124.721,-47.5055 133.568,-48.7572 142.238,-49.9838"/>
<polygon fill="midnightblue" stroke="midnightblue" points="116.604,-42.8223 106.212,-44.8869 115.623,-49.7533 116.604,-42.8223"/>
</g>
<!-- Node39 -->
<g id="node3" class="node"><title>Node39</title>
<g id="a_node3"><a xlink:href="namespaceobe_1_1_script_1_1_core_lib.html#a144f31cc8b37c8d19a05138691229059" target="_top" xlink:title="obe::Script::CoreLib\l::loadVili">
<polygon fill="none" stroke="black" points="159,-0.5 159,-30.5 262,-30.5 262,-0.5 159,-0.5"/>
<text text-anchor="start" x="167" y="-18.5" font-family="Helvetica,sans-Serif" font-size="10.00">obe::Script::CoreLib</text>
<text text-anchor="middle" x="210.5" y="-7.5" font-family="Helvetica,sans-Serif" font-size="10.00">::loadVili</text>
</a>
</g>
</g>
<!-- Node37&#45;&gt;Node39 -->
<g id="edge2" class="edge"><title>Node37&#45;&gt;Node39</title>
<path fill="none" stroke="midnightblue" d="M116.318,-28.6833C130.407,-26.69 145.2,-24.5971 158.745,-22.6808"/>
<polygon fill="midnightblue" stroke="midnightblue" points="115.623,-25.2467 106.212,-30.1131 116.604,-32.1777 115.623,-25.2467"/>
</g>
<!-- Node40 -->
<g id="node4" class="node"><title>Node40</title>
<g id="a_node4"><a xlink:href="namespaceobe_1_1_script.html#abdb81ec0976f1097cef6711415b8fac3" target="_top" xlink:title="obe::Script::loadCoreLib">
<polygon fill="none" stroke="black" points="315,-6 315,-25 436,-25 436,-6 315,-6"/>
<text text-anchor="middle" x="375.5" y="-13" font-family="Helvetica,sans-Serif" font-size="10.00">obe::Script::loadCoreLib</text>
</a>
</g>
</g>
<!-- Node39&#45;&gt;Node40 -->
<g id="edge3" class="edge"><title>Node39&#45;&gt;Node40</title>
<path fill="none" stroke="midnightblue" d="M272.189,-15.5C286.183,-15.5 301.053,-15.5 314.996,-15.5"/>
<polygon fill="midnightblue" stroke="midnightblue" points="272.181,-12.0001 262.181,-15.5 272.181,-19.0001 272.181,-12.0001"/>
</g>
<!-- Node41 -->
<g id="node5" class="node"><title>Node41</title>
<g id="a_node5"><a xlink:href="namespaceobe_1_1_script.html#a4e6ee77032cf7f66544f9b08464a60b7" target="_top" xlink:title="obe::Script::loadLib">
<polygon fill="none" stroke="black" points="473,-50 473,-69 574,-69 574,-50 473,-50"/>
<text text-anchor="middle" x="523.5" y="-57" font-family="Helvetica,sans-Serif" font-size="10.00">obe::Script::loadLib</text>
</a>
</g>
</g>
<!-- Node40&#45;&gt;Node41 -->
<g id="edge4" class="edge"><title>Node40&#45;&gt;Node41</title>
<path fill="none" stroke="midnightblue" d="M417.761,-27.9347C440.959,-34.926 469.468,-43.5177 490.882,-49.9713"/>
<polygon fill="midnightblue" stroke="midnightblue" points="418.764,-24.5818 408.18,-25.0473 416.745,-31.2841 418.764,-24.5818"/>
</g>
<!-- Node46 -->
<g id="node10" class="node"><title>Node46</title>
<g id="a_node10"><a xlink:href="namespaceobe_1_1_script_1_1_core_lib.html#a07d6c11bbb082bc45bdba50d97965c00" target="_top" xlink:title="obe::Script::CoreLib\l::loadCollision">
<polygon fill="none" stroke="black" points="472,-0.5 472,-30.5 575,-30.5 575,-0.5 472,-0.5"/>
<text text-anchor="start" x="480" y="-18.5" font-family="Helvetica,sans-Serif" font-size="10.00">obe::Script::CoreLib</text>
<text text-anchor="middle" x="523.5" y="-7.5" font-family="Helvetica,sans-Serif" font-size="10.00">::loadCollision</text>
</a>
</g>
</g>
<!-- Node40&#45;&gt;Node46 -->
<g id="edge11" class="edge"><title>Node40&#45;&gt;Node46</title>
<path fill="none" stroke="midnightblue" d="M446.356,-8.75557C454.966,-8.72506 463.634,-8.81994 471.88,-9.04021"/>
<polygon fill="midnightblue" stroke="midnightblue" points="446.272,-5.2561 436.305,-8.84898 446.337,-12.2558 446.272,-5.2561"/>
</g>
<!-- Node42 -->
<g id="node6" class="node"><title>Node42</title>
<g id="a_node6"><a xlink:href="namespaceobe_1_1_modes.html#a1e38c0d9a2ca0230f0de79c298f53ab9" target="_top" xlink:title="A mode that will start the Toolkit. ">
<polygon fill="none" stroke="black" points="770,-50 770,-69 916,-69 916,-50 770,-50"/>
<text text-anchor="middle" x="843" y="-57" font-family="Helvetica,sans-Serif" font-size="10.00">obe::Modes::startToolkitMode</text>
</a>
</g>
</g>
<!-- Node41&#45;&gt;Node42 -->
<g id="edge5" class="edge"><title>Node41&#45;&gt;Node42</title>
<path fill="none" stroke="midnightblue" d="M584.301,-59.5C636.934,-59.5 713.702,-59.5 769.756,-59.5"/>
<polygon fill="midnightblue" stroke="midnightblue" points="584.109,-56.0001 574.109,-59.5 584.109,-63.0001 584.109,-56.0001"/>
</g>
<!-- Node45 -->
<g id="node9" class="node"><title>Node45</title>
<g id="a_node9"><a xlink:href="namespaceobe_1_1_script.html#aad6ef67388e6d16eb01853f208da410f" target="_top" xlink:title="obe::Script::loadBaseLib">
<polygon fill="none" stroke="black" points="611,-31 611,-50 734,-50 734,-31 611,-31"/>
<text text-anchor="middle" x="672.5" y="-38" font-family="Helvetica,sans-Serif" font-size="10.00">obe::Script::loadBaseLib</text>
</a>
</g>
</g>
<!-- Node41&#45;&gt;Node45 -->
<g id="edge9" class="edge"><title>Node41&#45;&gt;Node45</title>
<path fill="none" stroke="midnightblue" d="M584.361,-51.7629C593.089,-50.6348 602.083,-49.4722 610.828,-48.342"/>
<polygon fill="midnightblue" stroke="midnightblue" points="583.736,-48.3144 574.267,-53.0675 584.634,-55.2567 583.736,-48.3144"/>
</g>
<!-- Node43 -->
<g id="node7" class="node"><title>Node43</title>
<g id="a_node7"><a xlink:href="namespaceobe_1_1_modes.html#a6a8b08eee511d4895c4da96d4ba223a6" target="_top" xlink:title="Starts the development Menu where you can starts other menus from. ">
<polygon fill="none" stroke="black" points="952,-69 952,-88 1085,-88 1085,-69 952,-69"/>
<text text-anchor="middle" x="1018.5" y="-76" font-family="Helvetica,sans-Serif" font-size="10.00">obe::Modes::startDevMenu</text>
</a>
</g>
</g>
<!-- Node42&#45;&gt;Node43 -->
<g id="edge6" class="edge"><title>Node42&#45;&gt;Node43</title>
<path fill="none" stroke="midnightblue" d="M926.118,-68.4927C934.716,-69.4343 943.375,-70.3825 951.755,-71.3003"/>
<polygon fill="midnightblue" stroke="midnightblue" points="926.394,-65.0021 916.072,-67.3926 925.632,-71.9605 926.394,-65.0021"/>
</g>
<!-- Node44 -->
<g id="node8" class="node"><title>Node44</title>
<g id="a_node8"><a xlink:href="_ob_engine_8cpp.html#a3c04138a5bfe5d72780bb7e82a18e627" target="_top" xlink:title="main">
<polygon fill="none" stroke="black" points="1121,-50 1121,-69 1159,-69 1159,-50 1121,-50"/>
<text text-anchor="middle" x="1140" y="-57" font-family="Helvetica,sans-Serif" font-size="10.00">main</text>
</a>
</g>
</g>
<!-- Node42&#45;&gt;Node44 -->
<g id="edge8" class="edge"><title>Node42&#45;&gt;Node44</title>
<path fill="none" stroke="midnightblue" d="M926.308,-59.5C993.39,-59.5 1082.99,-59.5 1120.87,-59.5"/>
<polygon fill="midnightblue" stroke="midnightblue" points="926.165,-56.0001 916.165,-59.5 926.165,-63.0001 926.165,-56.0001"/>
</g>
<!-- Node43&#45;&gt;Node44 -->
<g id="edge7" class="edge"><title>Node43&#45;&gt;Node44</title>
<path fill="none" stroke="midnightblue" d="M1089.82,-67.3192C1101.35,-65.4869 1112.33,-63.7409 1120.98,-62.3654"/>
<polygon fill="midnightblue" stroke="midnightblue" points="1088.93,-63.9174 1079.6,-68.9443 1090.03,-70.8306 1088.93,-63.9174"/>
</g>
<!-- Node45&#45;&gt;Node42 -->
<g id="edge10" class="edge"><title>Node45&#45;&gt;Node42</title>
<path fill="none" stroke="midnightblue" d="M744.441,-48.4993C752.82,-49.4441 761.38,-50.4093 769.777,-51.3562"/>
<polygon fill="midnightblue" stroke="midnightblue" points="744.662,-45.0021 734.332,-47.3594 743.877,-51.958 744.662,-45.0021"/>
</g>
<!-- Node46&#45;&gt;Node40 -->
<g id="edge12" class="edge"><title>Node46&#45;&gt;Node40</title>
<path fill="none" stroke="midnightblue" d="M461.757,-22.1647C453.342,-22.2828 444.703,-22.2783 436.305,-22.151"/>
<polygon fill="midnightblue" stroke="midnightblue" points="461.953,-25.6616 471.88,-21.9598 461.811,-18.663 461.953,-25.6616"/>
</g>
</g>
</svg>
        <g id="navigator" transform="translate(0 0)" fill="#404254">
                <rect fill="#f2f5e9" fill-opacity="0.5" stroke="#606060" stroke-width=".5" x="0" y="0" width="60" height="60"/>
                <use id="zoomplus" xlink:href="#zoomPlus" x="17" y="9" onmousedown="handleZoom(evt,'in')"/>
                <use id="zoomminus" xlink:href="#zoomMin" x="42" y="9" onmousedown="handleZoom(evt,'out')"/>
                <use id="reset" xlink:href="#resetDef" x="30" y="36" onmousedown="handleReset()"/>
                <g id="arrowUp" xlink:href="#dirArrow" transform="translate(30 24)" onmousedown="handlePan(0,-1)">
                  <use xlink:href="#rim" fill="#404040">
                        <set attributeName="fill" to="#808080" begin="arrowUp.mouseover" end="arrowUp.mouseout"/>
                  </use>
                  <path fill="none" stroke="white" stroke-width="1.5" d="M0,-3.0v7 M-2.5,-0.5L0,-3.0L2.5,-0.5"/>
                </g>
                <g id="arrowRight" xlink:href="#dirArrow" transform="rotate(90) translate(36 -43)" onmousedown="handlePan(1,0)">
                  <use xlink:href="#rim" fill="#404040">
                        <set attributeName="fill" to="#808080" begin="arrowRight.mouseover" end="arrowRight.mouseout"/>
                  </use>
                  <path fill="none" stroke="white" stroke-width="1.5" d="M0,-3.0v7 M-2.5,-0.5L0,-3.0L2.5,-0.5"/>
                </g>
                <g id="arrowDown" xlink:href="#dirArrow" transform="rotate(180) translate(-30 -48)" onmousedown="handlePan(0,1)">
                  <use xlink:href="#rim" fill="#404040">
                        <set attributeName="fill" to="#808080" begin="arrowDown.mouseover" end="arrowDown.mouseout"/>
                  </use>
                  <path fill="none" stroke="white" stroke-width="1.5" d="M0,-3.0v7 M-2.5,-0.5L0,-3.0L2.5,-0.5"/>
                </g>
                <g id="arrowLeft" xlink:href="#dirArrow" transform="rotate(270) translate(-36 17)" onmousedown="handlePan(-1,0)">
                  <use xlink:href="#rim" fill="#404040">
                        <set attributeName="fill" to="#808080" begin="arrowLeft.mouseover" end="arrowLeft.mouseout"/>
                  </use>
                  <path fill="none" stroke="white" stroke-width="1.5" d="M0,-3.0v7 M-2.5,-0.5L0,-3.0L2.5,-0.5"/>
                </g>
        </g>
        <svg viewBox="0 0 15 15" width="100%" height="30px" preserveAspectRatio="xMaxYMin meet">
         <g id="arrow_out" transform="scale(0.3 0.3)">
          <a xlink:href="classvili_1_1_array_node_a6dc3937bda1f57062ba6e0f1031fabf0_icgraph_org.svg" target="_base">
           <rect id="button" ry="5" rx="5" y="6" x="6" height="38" width="38"
                fill="#f2f5e9" fill-opacity="0.5" stroke="#606060" stroke-width="1.0"/>
           <path id="arrow"
             d="M 11.500037,31.436501 C 11.940474,20.09759 22.043105,11.32322 32.158766,21.979434 L 37.068811,17.246167 C 37.068811,17.246167 37.088388,32 37.088388,32 L 22.160133,31.978069 C 22.160133,31.978069 26.997745,27.140456 26.997745,27.140456 C 18.528582,18.264221 13.291696,25.230495 11.500037,31.436501 z"
             style="fill:#404040;"/>
          </a>
         </g>
        </svg>
</svg>
