<?xml version="1.0" encoding="UTF-8" standalone="no"?>
<!DOCTYPE svg PUBLIC "-//W3C//DTD SVG 1.1//EN"
 "http://www.w3.org/Graphics/SVG/1.1/DTD/svg11.dtd">
<!-- Generated by graphviz version 2.38.0 (20140413.2041)
 -->
<!-- Title: obe::Time::Chronometer::getTime Pages: 1 -->
<!--zoomable 102 -->
<svg id="main" version="1.1" xmlns="http://www.w3.org/2000/svg" xmlns:xlink="http://www.w3.org/1999/xlink" xml:space="preserve" onload="init(evt)">
<style type="text/css"><![CDATA[
.edge:hover path { stroke: red; }
.edge:hover polygon { stroke: red; fill: red; }
.edge path { stroke: white; }
.edge polygon { stroke: white; fill: white; }
.node polygon { fill: white; }
]]></style>
<script type="text/javascript"><![CDATA[
var edges = document.getElementsByTagName('g');
if (edges && edges.length) {
  for (var i=0;i<edges.length;i++) {
    if (edges[i].id.substr(0,4)=='edge') {
      edges[i].setAttribute('class','edge');
    }
  }
}
]]></script>
        <defs>
                <circle id="rim" cx="0" cy="0" r="7"/>
                <circle id="rim2" cx="0" cy="0" r="3.5"/>
                <g id="zoomPlus">
                        <use xlink:href="#rim" fill="#404040">
                                <set attributeName="fill" to="#808080" begin="zoomplus.mouseover" end="zoomplus.mouseout"/>
                        </use>
                        <path d="M-4,0h8M0,-4v8" fill="none" stroke="white" stroke-width="1.5" pointer-events="none"/>
                </g>
                <g id="zoomMin">
                        <use xlink:href="#rim" fill="#404040">
                                <set attributeName="fill" to="#808080" begin="zoomminus.mouseover" end="zoomminus.mouseout"/>
                        </use>
                        <path d="M-4,0h8" fill="none" stroke="white" stroke-width="1.5" pointer-events="none"/>
                </g>
                <g id="dirArrow">
                        <path fill="none" stroke="white" stroke-width="1.5" d="M0,-3.0v7 M-2.5,-0.5L0,-3.0L2.5,-0.5"/>
                </g>
               <g id="resetDef">
                       <use xlink:href="#rim2" fill="#404040">
                               <set attributeName="fill" to="#808080" begin="reset.mouseover" end="reset.mouseout"/>
                       </use>
               </g>
        </defs>

<script type="text/javascript">
var viewWidth = 712;
var viewHeight = 102;
var sectionId = 'dynsection-0';
</script>
<script xlink:href="svgpan.js"/>
<svg id="graph" class="graph">
<g id="viewport">
<title>obe::Time::Chronometer::getTime</title>
<!-- Node3 -->
<g id="node1" class="node"><title>Node3</title>
<polygon fill="#bfbfbf" stroke="black" points="0,-38 0,-68 121,-68 121,-38 0,-38"/>
<text text-anchor="start" x="8" y="-56" font-family="Helvetica,sans-Serif" font-size="10.00">obe::Time::Chronometer</text>
<text text-anchor="middle" x="60.5" y="-45" font-family="Helvetica,sans-Serif" font-size="10.00">::getTime</text>
</g>
<!-- Node4 -->
<g id="node2" class="node"><title>Node4</title>
<g id="a_node2"><a xlink:href="classobe_1_1_time_1_1_chronometer.html#a9f6569f865579a2f25aee3828dec1df4" target="_top" xlink:title="Check if the defined limit has been exceeded. ">
<polygon fill="none" stroke="black" points="171,-63 171,-93 292,-93 292,-63 171,-63"/>
<text text-anchor="start" x="179" y="-81" font-family="Helvetica,sans-Serif" font-size="10.00">obe::Time::Chronometer</text>
<text text-anchor="middle" x="231.5" y="-70" font-family="Helvetica,sans-Serif" font-size="10.00">::limitExceeded</text>
</a>
</g>
</g>
<!-- Node3&#45;&gt;Node4 -->
<g id="edge1" class="edge"><title>Node3&#45;&gt;Node4</title>
<path fill="none" stroke="midnightblue" d="M131.071,-63.2915C144.289,-65.2468 158.01,-67.2767 170.885,-69.1813"/>
<polygon fill="midnightblue" stroke="midnightblue" points="131.488,-59.8152 121.083,-61.8141 130.463,-66.7398 131.488,-59.8152"/>
</g>
<!-- Node5 -->
<g id="node3" class="node"><title>Node5</title>
<g id="a_node3"><a xlink:href="classobe_1_1_triggers_1_1_trigger_database.html#a24f39a6242a547f27f9ba8754a551385" target="_top" xlink:title="obe::Triggers::TriggerDatabase\l::update">
<polygon fill="none" stroke="black" points="157,-14 157,-44 306,-44 306,-14 157,-14"/>
<text text-anchor="start" x="165" y="-32" font-family="Helvetica,sans-Serif" font-size="10.00">obe::Triggers::TriggerDatabase</text>
<text text-anchor="middle" x="231.5" y="-21" font-family="Helvetica,sans-Serif" font-size="10.00">::update</text>
</a>
</g>
</g>
<!-- Node3&#45;&gt;Node5 -->
<g id="edge2" class="edge"><title>Node3&#45;&gt;Node5</title>
<path fill="none" stroke="midnightblue" d="M131.007,-43.1292C139.561,-41.9144 148.328,-40.6694 156.941,-39.4463"/>
<polygon fill="midnightblue" stroke="midnightblue" points="130.492,-39.6672 121.083,-44.5385 131.476,-46.5976 130.492,-39.6672"/>
</g>
<!-- Node6 -->
<g id="node4" class="node"><title>Node6</title>
<g id="a_node4"><a xlink:href="namespaceobe_1_1_editor.html#a9009207671e71dccb68a31ea2362e9ef" target="_top" xlink:title="obe::Editor::editMap">
<polygon fill="none" stroke="black" points="349.5,-38.5 349.5,-57.5 453.5,-57.5 453.5,-38.5 349.5,-38.5"/>
<text text-anchor="middle" x="401.5" y="-45.5" font-family="Helvetica,sans-Serif" font-size="10.00">obe::Editor::editMap</text>
</a>
</g>
</g>
<!-- Node5&#45;&gt;Node6 -->
<g id="edge3" class="edge"><title>Node5&#45;&gt;Node6</title>
<path fill="none" stroke="midnightblue" d="M316.399,-38.4886C327.544,-39.749 338.692,-41.0098 349.056,-42.182"/>
<polygon fill="midnightblue" stroke="midnightblue" points="316.517,-34.9797 306.187,-37.3337 315.731,-41.9354 316.517,-34.9797"/>
</g>
<!-- Node9 -->
<g id="node7" class="node"><title>Node9</title>
<g id="a_node7"><a xlink:href="namespaceobe_1_1_modes.html#a5f4a1008892030350b06282b8dee1a89" target="_top" xlink:title="obe::Modes::startGame">
<polygon fill="none" stroke="black" points="342,-0.5 342,-19.5 461,-19.5 461,-0.5 342,-0.5"/>
<text text-anchor="middle" x="401.5" y="-7.5" font-family="Helvetica,sans-Serif" font-size="10.00">obe::Modes::startGame</text>
</a>
</g>
</g>
<!-- Node5&#45;&gt;Node9 -->
<g id="edge7" class="edge"><title>Node5&#45;&gt;Node9</title>
<path fill="none" stroke="midnightblue" d="M316.274,-19.5255C324.887,-18.5515 333.503,-17.5771 341.759,-16.6433"/>
<polygon fill="midnightblue" stroke="midnightblue" points="315.731,-16.0646 306.187,-20.6663 316.517,-23.0203 315.731,-16.0646"/>
</g>
<!-- Node7 -->
<g id="node5" class="node"><title>Node7</title>
<g id="a_node5"><a xlink:href="namespaceobe_1_1_modes.html#a6a8b08eee511d4895c4da96d4ba223a6" target="_top" xlink:title="obe::Modes::startDevMenu">
<polygon fill="none" stroke="black" points="497,-19.5 497,-38.5 630,-38.5 630,-19.5 497,-19.5"/>
<text text-anchor="middle" x="563.5" y="-26.5" font-family="Helvetica,sans-Serif" font-size="10.00">obe::Modes::startDevMenu</text>
</a>
</g>
</g>
<!-- Node6&#45;&gt;Node7 -->
<g id="edge4" class="edge"><title>Node6&#45;&gt;Node7</title>
<path fill="none" stroke="midnightblue" d="M463.804,-40.7201C474.669,-39.4299 486.022,-38.0818 496.997,-36.7785"/>
<polygon fill="midnightblue" stroke="midnightblue" points="463.082,-37.2812 453.565,-41.936 463.908,-44.2323 463.082,-37.2812"/>
</g>
<!-- Node8 -->
<g id="node6" class="node"><title>Node8</title>
<g id="a_node6"><a xlink:href="_ob_engine_8cpp.html#a3c04138a5bfe5d72780bb7e82a18e627" target="_top" xlink:title="main">
<polygon fill="none" stroke="black" points="666,-19.5 666,-38.5 704,-38.5 704,-19.5 666,-19.5"/>
<text text-anchor="middle" x="685" y="-26.5" font-family="Helvetica,sans-Serif" font-size="10.00">main</text>
</a>
</g>
</g>
<!-- Node6&#45;&gt;Node8 -->
<g id="edge6" class="edge"><title>Node6&#45;&gt;Node8</title>
<path fill="none" stroke="midnightblue" d="M463.638,-53.5478C509.709,-56.3918 574.259,-57.5202 630,-48 642.344,-45.8918 655.618,-41.2561 665.917,-37.0917"/>
<polygon fill="midnightblue" stroke="midnightblue" points="463.723,-50.0459 453.514,-52.877 463.26,-57.0306 463.723,-50.0459"/>
</g>
<!-- Node7&#45;&gt;Node8 -->
<g id="edge5" class="edge"><title>Node7&#45;&gt;Node8</title>
<path fill="none" stroke="midnightblue" d="M640.438,-29C649.719,-29 658.436,-29 665.598,-29"/>
<polygon fill="midnightblue" stroke="midnightblue" points="640.193,-25.5001 630.193,-29 640.193,-32.5001 640.193,-25.5001"/>
</g>
<!-- Node9&#45;&gt;Node7 -->
<g id="edge8" class="edge"><title>Node9&#45;&gt;Node7</title>
<path fill="none" stroke="midnightblue" d="M471.36,-18.1771C479.804,-19.1798 488.417,-20.2026 496.812,-21.1996"/>
<polygon fill="midnightblue" stroke="midnightblue" points="471.513,-14.6707 461.17,-16.967 470.687,-21.6219 471.513,-14.6707"/>
</g>
<!-- Node9&#45;&gt;Node8 -->
<g id="edge9" class="edge"><title>Node9&#45;&gt;Node8</title>
<path fill="none" stroke="midnightblue" d="M471.431,-3.99845C516.808,-1.51611 577.336,-1.00527 630,-10 642.344,-12.1082 655.618,-16.7439 665.917,-20.9083"/>
<polygon fill="midnightblue" stroke="midnightblue" points="471.181,-0.507043 461.405,-4.59225 471.595,-7.4948 471.181,-0.507043"/>
</g>
</g>
</svg>
        <g id="navigator" transform="translate(0 0)" fill="#404254">
                <rect fill="#f2f5e9" fill-opacity="0.5" stroke="#606060" stroke-width=".5" x="0" y="0" width="60" height="60"/>
                <use id="zoomplus" xlink:href="#zoomPlus" x="17" y="9" onmousedown="handleZoom(evt,'in')"/>
                <use id="zoomminus" xlink:href="#zoomMin" x="42" y="9" onmousedown="handleZoom(evt,'out')"/>
                <use id="reset" xlink:href="#resetDef" x="30" y="36" onmousedown="handleReset()"/>
                <g id="arrowUp" xlink:href="#dirArrow" transform="translate(30 24)" onmousedown="handlePan(0,-1)">
                  <use xlink:href="#rim" fill="#404040">
                        <set attributeName="fill" to="#808080" begin="arrowUp.mouseover" end="arrowUp.mouseout"/>
                  </use>
                  <path fill="none" stroke="white" stroke-width="1.5" d="M0,-3.0v7 M-2.5,-0.5L0,-3.0L2.5,-0.5"/>
                </g>
                <g id="arrowRight" xlink:href="#dirArrow" transform="rotate(90) translate(36 -43)" onmousedown="handlePan(1,0)">
                  <use xlink:href="#rim" fill="#404040">
                        <set attributeName="fill" to="#808080" begin="arrowRight.mouseover" end="arrowRight.mouseout"/>
                  </use>
                  <path fill="none" stroke="white" stroke-width="1.5" d="M0,-3.0v7 M-2.5,-0.5L0,-3.0L2.5,-0.5"/>
                </g>
                <g id="arrowDown" xlink:href="#dirArrow" transform="rotate(180) translate(-30 -48)" onmousedown="handlePan(0,1)">
                  <use xlink:href="#rim" fill="#404040">
                        <set attributeName="fill" to="#808080" begin="arrowDown.mouseover" end="arrowDown.mouseout"/>
                  </use>
                  <path fill="none" stroke="white" stroke-width="1.5" d="M0,-3.0v7 M-2.5,-0.5L0,-3.0L2.5,-0.5"/>
                </g>
                <g id="arrowLeft" xlink:href="#dirArrow" transform="rotate(270) translate(-36 17)" onmousedown="handlePan(-1,0)">
                  <use xlink:href="#rim" fill="#404040">
                        <set attributeName="fill" to="#808080" begin="arrowLeft.mouseover" end="arrowLeft.mouseout"/>
                  </use>
                  <path fill="none" stroke="white" stroke-width="1.5" d="M0,-3.0v7 M-2.5,-0.5L0,-3.0L2.5,-0.5"/>
                </g>
        </g>
        <svg viewBox="0 0 15 15" width="100%" height="30px" preserveAspectRatio="xMaxYMin meet">
         <g id="arrow_out" transform="scale(0.3 0.3)">
          <a xlink:href="classobe_1_1_time_1_1_chronometer_a029cd6023fd2c35cf92d01849edb7124_icgraph_org.svg" target="_base">
           <rect id="button" ry="5" rx="5" y="6" x="6" height="38" width="38"
                fill="#f2f5e9" fill-opacity="0.5" stroke="#606060" stroke-width="1.0"/>
           <path id="arrow"
             d="M 11.500037,31.436501 C 11.940474,20.09759 22.043105,11.32322 32.158766,21.979434 L 37.068811,17.246167 C 37.068811,17.246167 37.088388,32 37.088388,32 L 22.160133,31.978069 C 22.160133,31.978069 26.997745,27.140456 26.997745,27.140456 C 18.528582,18.264221 13.291696,25.230495 11.500037,31.436501 z"
             style="fill:#404040;"/>
          </a>
         </g>
        </svg>
</svg>
