<?xml version="1.0" encoding="UTF-8" standalone="no"?>
<!DOCTYPE svg PUBLIC "-//W3C//DTD SVG 1.1//EN"
 "http://www.w3.org/Graphics/SVG/1.1/DTD/svg11.dtd">
<!-- Generated by graphviz version 2.38.0 (20140413.2041)
 -->
<!-- Title: obe::Collision::PolygonalCollider::setPointPositionFromMaster Pages: 1 -->
<svg width="602pt" height="50pt"
 viewBox="0.00 0.00 602.00 50.00" xmlns="http://www.w3.org/2000/svg" xmlns:xlink="http://www.w3.org/1999/xlink">
<g id="graph0" class="graph" transform="scale(1 1) rotate(0) translate(4 46)">
<title>obe::Collision::PolygonalCollider::setPointPositionFromMaster</title>
<!-- Node278 -->
<g id="node1" class="node"><title>Node278</title>
<polygon fill="#bfbfbf" stroke="black" points="0,-0.5 0,-41.5 149,-41.5 149,-0.5 0,-0.5"/>
<text text-anchor="start" x="8" y="-29.5" font-family="Helvetica,sans-Serif" font-size="10.00">obe::Collision::Polygonal</text>
<text text-anchor="start" x="8" y="-18.5" font-family="Helvetica,sans-Serif" font-size="10.00">Collider::setPointPositionFrom</text>
<text text-anchor="middle" x="74.5" y="-7.5" font-family="Helvetica,sans-Serif" font-size="10.00">Master</text>
</g>
<!-- Node279 -->
<g id="node2" class="node"><title>Node279</title>
<g id="a_node2"><a xlink:href="namespaceobe_1_1_bindings_1_1_collision_bindings.html#a48f290ff49a763532bdf5bc65070d2d2" target="_top" xlink:title="obe::Bindings::Collision\lBindings::LoadPolygonalCollider">
<polygon fill="white" stroke="black" points="185,-6 185,-36 341,-36 341,-6 185,-6"/>
<text text-anchor="start" x="193" y="-24" font-family="Helvetica,sans-Serif" font-size="10.00">obe::Bindings::Collision</text>
<text text-anchor="middle" x="263" y="-13" font-family="Helvetica,sans-Serif" font-size="10.00">Bindings::LoadPolygonalCollider</text>
</a>
</g>
</g>
<!-- Node278&#45;&gt;Node279 -->
<g id="edge1" class="edge"><title>Node278&#45;&gt;Node279</title>
<path fill="none" stroke="midnightblue" d="M159.452,-21C167.907,-21 176.465,-21 184.843,-21"/>
<polygon fill="midnightblue" stroke="midnightblue" points="159.21,-17.5001 149.21,-21 159.21,-24.5001 159.21,-17.5001"/>
</g>
<!-- Node280 -->
<g id="node3" class="node"><title>Node280</title>
<g id="a_node3"><a xlink:href="namespaceobe_1_1_bindings.html#a41d33207a0199f125c75a0f70a4a3ba8" target="_top" xlink:title="To call when the engine starts, indexes all Lua bindings. ">
<polygon fill="white" stroke="black" points="377,-11.5 377,-30.5 520,-30.5 520,-11.5 377,-11.5"/>
<text text-anchor="middle" x="448.5" y="-18.5" font-family="Helvetica,sans-Serif" font-size="10.00">obe::Bindings::IndexBindings</text>
</a>
</g>
</g>
<!-- Node279&#45;&gt;Node280 -->
<g id="edge2" class="edge"><title>Node279&#45;&gt;Node280</title>
<path fill="none" stroke="midnightblue" d="M351.098,-21C359.718,-21 368.392,-21 376.816,-21"/>
<polygon fill="midnightblue" stroke="midnightblue" points="351.023,-17.5001 341.023,-21 351.023,-24.5001 351.023,-17.5001"/>
</g>
<!-- Node281 -->
<g id="node4" class="node"><title>Node281</title>
<g id="a_node4"><a xlink:href="_ob_engine_8cpp.html#a3c04138a5bfe5d72780bb7e82a18e627" target="_top" xlink:title="main">
<polygon fill="white" stroke="black" points="556,-11.5 556,-30.5 594,-30.5 594,-11.5 556,-11.5"/>
<text text-anchor="middle" x="575" y="-18.5" font-family="Helvetica,sans-Serif" font-size="10.00">main</text>
</a>
</g>
</g>
<!-- Node280&#45;&gt;Node281 -->
<g id="edge3" class="edge"><title>Node280&#45;&gt;Node281</title>
<path fill="none" stroke="midnightblue" d="M530.161,-21C539.623,-21 548.462,-21 555.688,-21"/>
<polygon fill="midnightblue" stroke="midnightblue" points="530.117,-17.5001 520.117,-21 530.117,-24.5001 530.117,-17.5001"/>
</g>
</g>
</svg>
