<?xml version="1.0" encoding="UTF-8" standalone="no"?>
<!DOCTYPE svg PUBLIC "-//W3C//DTD SVG 1.1//EN"
 "http://www.w3.org/Graphics/SVG/1.1/DTD/svg11.dtd">
<!-- Generated by graphviz version 2.38.0 (20140413.2041)
 -->
<!-- Title: vili::LinkNode::apply Pages: 1 -->
<svg width="413pt" height="39pt"
 viewBox="0.00 0.00 413.00 39.00" xmlns="http://www.w3.org/2000/svg" xmlns:xlink="http://www.w3.org/1999/xlink">
<g id="graph0" class="graph" transform="scale(1 1) rotate(0) translate(4 35)">
<title>vili::LinkNode::apply</title>
<!-- Node34 -->
<g id="node1" class="node"><title>Node34</title>
<polygon fill="#bfbfbf" stroke="black" points="0,-6 0,-25 103,-25 103,-6 0,-6"/>
<text text-anchor="middle" x="51.5" y="-13" font-family="Helvetica,sans-Serif" font-size="10.00">vili::LinkNode::apply</text>
</g>
<!-- Node35 -->
<g id="node2" class="node"><title>Node35</title>
<g id="a_node2"><a xlink:href="classvili_1_1_link_node.html#ab2e7abc29a9e7f39a49cf836772c8d34" target="_top" xlink:title="Gets the Node the LinkNode is pointing to and casts it. ">
<polygon fill="white" stroke="black" points="139,-6 139,-25 232,-25 232,-6 139,-6"/>
<text text-anchor="middle" x="185.5" y="-13" font-family="Helvetica,sans-Serif" font-size="10.00">vili::LinkNode::get</text>
</a>
</g>
</g>
<!-- Node34&#45;&gt;Node35 -->
<g id="edge1" class="edge"><title>Node34&#45;&gt;Node35</title>
<path fill="none" stroke="midnightblue" d="M113.223,-15.5C121.875,-15.5 130.65,-15.5 138.946,-15.5"/>
<polygon fill="midnightblue" stroke="midnightblue" points="113.157,-12.0001 103.157,-15.5 113.157,-19.0001 113.157,-12.0001"/>
</g>
<!-- Node36 -->
<g id="node3" class="node"><title>Node36</title>
<g id="a_node3"><a xlink:href="classvili_1_1_node_constraint_manager.html#ac5b60874aec02ede1226715337b60828" target="_top" xlink:title="Checks if all constraints on the Argument value are accepted. ">
<polygon fill="white" stroke="black" points="268,-0.5 268,-30.5 405,-30.5 405,-0.5 268,-0.5"/>
<text text-anchor="start" x="276" y="-18.5" font-family="Helvetica,sans-Serif" font-size="10.00">vili::NodeConstraintManager</text>
<text text-anchor="middle" x="336.5" y="-7.5" font-family="Helvetica,sans-Serif" font-size="10.00">::checkAllConstraints</text>
</a>
</g>
</g>
<!-- Node35&#45;&gt;Node36 -->
<g id="edge2" class="edge"><title>Node35&#45;&gt;Node36</title>
<path fill="none" stroke="midnightblue" d="M242.044,-15.5C250.431,-15.5 259.162,-15.5 267.771,-15.5"/>
<polygon fill="midnightblue" stroke="midnightblue" points="242.015,-12.0001 232.015,-15.5 242.014,-19.0001 242.015,-12.0001"/>
</g>
</g>
</svg>
