<?xml version="1.0" encoding="UTF-8" standalone="no"?>
<!DOCTYPE svg PUBLIC "-//W3C//DTD SVG 1.1//EN"
 "http://www.w3.org/Graphics/SVG/1.1/DTD/svg11.dtd">
<!-- Generated by graphviz version 2.38.0 (20140413.2041)
 -->
<!-- Title: obe::Collision::PolygonalCollider::addPoint Pages: 1 -->
<svg width="1265pt" height="178pt"
 viewBox="0.00 0.00 1265.00 177.50" xmlns="http://www.w3.org/2000/svg" xmlns:xlink="http://www.w3.org/1999/xlink">
<g id="graph0" class="graph" transform="scale(1 1) rotate(0) translate(4 173.5)">
<title>obe::Collision::PolygonalCollider::addPoint</title>
<!-- Node22 -->
<g id="node1" class="node"><title>Node22</title>
<polygon fill="#bfbfbf" stroke="black" points="0,-73 0,-103 124,-103 124,-73 0,-73"/>
<text text-anchor="start" x="8" y="-91" font-family="Helvetica,sans-Serif" font-size="10.00">obe::Collision::Polygonal</text>
<text text-anchor="middle" x="62" y="-80" font-family="Helvetica,sans-Serif" font-size="10.00">Collider::addPoint</text>
</g>
<!-- Node23 -->
<g id="node2" class="node"><title>Node23</title>
<g id="a_node2"><a xlink:href="namespaceobe_1_1_bindings_1_1_collision_bindings.html#a48f290ff49a763532bdf5bc65070d2d2" target="_top" xlink:title="obe::Bindings::Collision\lBindings::LoadPolygonalCollider">
<polygon fill="white" stroke="black" points="160,-139 160,-169 316,-169 316,-139 160,-139"/>
<text text-anchor="start" x="168" y="-157" font-family="Helvetica,sans-Serif" font-size="10.00">obe::Bindings::Collision</text>
<text text-anchor="middle" x="238" y="-146" font-family="Helvetica,sans-Serif" font-size="10.00">Bindings::LoadPolygonalCollider</text>
</a>
</g>
</g>
<!-- Node22&#45;&gt;Node23 -->
<g id="edge1" class="edge"><title>Node22&#45;&gt;Node23</title>
<path fill="none" stroke="midnightblue" d="M112.519,-106.783C139.368,-116.967 172.104,-129.384 197.267,-138.929"/>
<polygon fill="midnightblue" stroke="midnightblue" points="113.51,-103.416 102.919,-103.142 111.028,-109.961 113.51,-103.416"/>
</g>
<!-- Node26 -->
<g id="node5" class="node"><title>Node26</title>
<g id="a_node5"><a xlink:href="namespaceobe_1_1_editor.html#a56ffe9497d350fd93d16d6b490538827" target="_top" xlink:title="obe::Editor::connectColliders\lActions">
<polygon fill="white" stroke="black" points="352,-95 352,-125 494,-125 494,-95 352,-95"/>
<text text-anchor="start" x="360" y="-113" font-family="Helvetica,sans-Serif" font-size="10.00">obe::Editor::connectColliders</text>
<text text-anchor="middle" x="423" y="-102" font-family="Helvetica,sans-Serif" font-size="10.00">Actions</text>
</a>
</g>
</g>
<!-- Node22&#45;&gt;Node26 -->
<g id="edge4" class="edge"><title>Node22&#45;&gt;Node26</title>
<path fill="none" stroke="midnightblue" d="M134.569,-92.3858C197.651,-96.2516 289.022,-101.851 351.716,-105.693"/>
<polygon fill="midnightblue" stroke="midnightblue" points="134.502,-88.8752 124.306,-91.7569 134.074,-95.8621 134.502,-88.8752"/>
</g>
<!-- Node29 -->
<g id="node8" class="node"><title>Node29</title>
<g id="a_node8"><a xlink:href="classobe_1_1_script_1_1_game_object.html#a3ff3f3070f0132be656f3425750cc507" target="_top" xlink:title="obe::Script::GameObject\l::loadGameObject">
<polygon fill="white" stroke="black" points="175.5,-51 175.5,-81 300.5,-81 300.5,-51 175.5,-51"/>
<text text-anchor="start" x="183.5" y="-69" font-family="Helvetica,sans-Serif" font-size="10.00">obe::Script::GameObject</text>
<text text-anchor="middle" x="238" y="-58" font-family="Helvetica,sans-Serif" font-size="10.00">::loadGameObject</text>
</a>
</g>
</g>
<!-- Node22&#45;&gt;Node29 -->
<g id="edge9" class="edge"><title>Node22&#45;&gt;Node29</title>
<path fill="none" stroke="midnightblue" d="M134.568,-78.9512C148.095,-77.2408 162.137,-75.4654 175.328,-73.7976"/>
<polygon fill="midnightblue" stroke="midnightblue" points="133.828,-75.5168 124.346,-80.2436 134.706,-82.4615 133.828,-75.5168"/>
</g>
<!-- Node30 -->
<g id="node9" class="node"><title>Node30</title>
<g id="a_node9"><a xlink:href="namespaceobe_1_1_script_1_1_core_lib.html#a07d6c11bbb082bc45bdba50d97965c00" target="_top" xlink:title="obe::Script::CoreLib\l::loadCollision">
<polygon fill="white" stroke="black" points="186.5,-2 186.5,-32 289.5,-32 289.5,-2 186.5,-2"/>
<text text-anchor="start" x="194.5" y="-20" font-family="Helvetica,sans-Serif" font-size="10.00">obe::Script::CoreLib</text>
<text text-anchor="middle" x="238" y="-9" font-family="Helvetica,sans-Serif" font-size="10.00">::loadCollision</text>
</a>
</g>
</g>
<!-- Node22&#45;&gt;Node30 -->
<g id="edge10" class="edge"><title>Node22&#45;&gt;Node30</title>
<path fill="none" stroke="midnightblue" d="M100.276,-68.3252C118.077,-59.3496 139.847,-48.9716 160,-41 168.333,-37.7037 177.312,-34.5556 186.094,-31.6875"/>
<polygon fill="midnightblue" stroke="midnightblue" points="98.6788,-65.2109 91.3592,-72.8709 101.858,-71.4474 98.6788,-65.2109"/>
</g>
<!-- Node24 -->
<g id="node3" class="node"><title>Node24</title>
<g id="a_node3"><a xlink:href="namespaceobe_1_1_bindings.html#a41d33207a0199f125c75a0f70a4a3ba8" target="_top" xlink:title="obe::Bindings::IndexBindings">
<polygon fill="white" stroke="black" points="530,-144.5 530,-163.5 673,-163.5 673,-144.5 530,-144.5"/>
<text text-anchor="middle" x="601.5" y="-151.5" font-family="Helvetica,sans-Serif" font-size="10.00">obe::Bindings::IndexBindings</text>
</a>
</g>
</g>
<!-- Node23&#45;&gt;Node24 -->
<g id="edge2" class="edge"><title>Node23&#45;&gt;Node24</title>
<path fill="none" stroke="midnightblue" d="M326.336,-154C388.767,-154 471.701,-154 529.946,-154"/>
<polygon fill="midnightblue" stroke="midnightblue" points="326.107,-150.5 316.107,-154 326.107,-157.5 326.107,-150.5"/>
</g>
<!-- Node25 -->
<g id="node4" class="node"><title>Node25</title>
<g id="a_node4"><a xlink:href="_ob_engine_8cpp.html#a3c04138a5bfe5d72780bb7e82a18e627" target="_top" xlink:title="main">
<polygon fill="white" stroke="black" points="1219,-87.5 1219,-106.5 1257,-106.5 1257,-87.5 1219,-87.5"/>
<text text-anchor="middle" x="1238" y="-94.5" font-family="Helvetica,sans-Serif" font-size="10.00">main</text>
</a>
</g>
</g>
<!-- Node24&#45;&gt;Node25 -->
<g id="edge3" class="edge"><title>Node24&#45;&gt;Node25</title>
<path fill="none" stroke="midnightblue" d="M683.429,-156.376C796.571,-158.003 1007.83,-154.848 1183,-117 1195.31,-114.34 1208.59,-109.453 1218.89,-105.176"/>
<polygon fill="midnightblue" stroke="midnightblue" points="683.178,-152.872 673.123,-156.211 683.066,-159.871 683.178,-152.872"/>
</g>
<!-- Node27 -->
<g id="node6" class="node"><title>Node27</title>
<g id="a_node6"><a xlink:href="namespaceobe_1_1_editor.html#a9009207671e71dccb68a31ea2362e9ef" target="_top" xlink:title="Starts the map edition. ">
<polygon fill="white" stroke="black" points="889,-100.5 889,-119.5 993,-119.5 993,-100.5 889,-100.5"/>
<text text-anchor="middle" x="941" y="-107.5" font-family="Helvetica,sans-Serif" font-size="10.00">obe::Editor::editMap</text>
</a>
</g>
</g>
<!-- Node26&#45;&gt;Node27 -->
<g id="edge5" class="edge"><title>Node26&#45;&gt;Node27</title>
<path fill="none" stroke="midnightblue" d="M504.256,-110C611.562,-110 798.683,-110 888.721,-110"/>
<polygon fill="midnightblue" stroke="midnightblue" points="504.127,-106.5 494.127,-110 504.127,-113.5 504.127,-106.5"/>
</g>
<!-- Node27&#45;&gt;Node25 -->
<g id="edge8" class="edge"><title>Node27&#45;&gt;Node25</title>
<path fill="none" stroke="midnightblue" d="M1003.21,-107.303C1071.19,-104.307 1176.89,-99.6491 1218.9,-97.7978"/>
<polygon fill="midnightblue" stroke="midnightblue" points="1002.88,-103.813 993.048,-107.75 1003.19,-110.807 1002.88,-103.813"/>
</g>
<!-- Node28 -->
<g id="node7" class="node"><title>Node28</title>
<g id="a_node7"><a xlink:href="namespaceobe_1_1_modes.html#a6a8b08eee511d4895c4da96d4ba223a6" target="_top" xlink:title="Starts the development Menu where you can starts other menus from. ">
<polygon fill="white" stroke="black" points="1050,-68.5 1050,-87.5 1183,-87.5 1183,-68.5 1050,-68.5"/>
<text text-anchor="middle" x="1116.5" y="-75.5" font-family="Helvetica,sans-Serif" font-size="10.00">obe::Modes::startDevMenu</text>
</a>
</g>
</g>
<!-- Node27&#45;&gt;Node28 -->
<g id="edge6" class="edge"><title>Node27&#45;&gt;Node28</title>
<path fill="none" stroke="midnightblue" d="M1003,-98.7497C1022.87,-95.0843 1044.73,-91.0531 1063.85,-87.5266"/>
<polygon fill="midnightblue" stroke="midnightblue" points="1002.32,-95.3162 993.117,-100.572 1003.59,-102.2 1002.32,-95.3162"/>
</g>
<!-- Node28&#45;&gt;Node25 -->
<g id="edge7" class="edge"><title>Node28&#45;&gt;Node25</title>
<path fill="none" stroke="midnightblue" d="M1187.82,-89.1808C1199.35,-91.0131 1210.33,-92.7591 1218.98,-94.1346"/>
<polygon fill="midnightblue" stroke="midnightblue" points="1188.03,-85.6694 1177.6,-87.5557 1186.93,-92.5826 1188.03,-85.6694"/>
</g>
<!-- Node31 -->
<g id="node10" class="node"><title>Node31</title>
<g id="a_node10"><a xlink:href="namespaceobe_1_1_script.html#abdb81ec0976f1097cef6711415b8fac3" target="_top" xlink:title="obe::Script::loadCoreLib">
<polygon fill="white" stroke="black" points="362.5,-7.5 362.5,-26.5 483.5,-26.5 483.5,-7.5 362.5,-7.5"/>
<text text-anchor="middle" x="423" y="-14.5" font-family="Helvetica,sans-Serif" font-size="10.00">obe::Script::loadCoreLib</text>
</a>
</g>
</g>
<!-- Node30&#45;&gt;Node31 -->
<g id="edge11" class="edge"><title>Node30&#45;&gt;Node31</title>
<path fill="none" stroke="midnightblue" d="M300.205,-10.5902C320.191,-10.1255 342.35,-10.1369 362.229,-10.6245"/>
<polygon fill="midnightblue" stroke="midnightblue" points="299.874,-7.09801 289.976,-10.8766 300.07,-14.0953 299.874,-7.09801"/>
</g>
<!-- Node31&#45;&gt;Node30 -->
<g id="edge18" class="edge"><title>Node31&#45;&gt;Node30</title>
<path fill="none" stroke="midnightblue" d="M352.215,-23.5781C331.516,-23.9115 309.244,-23.7599 289.976,-23.1234"/>
<polygon fill="midnightblue" stroke="midnightblue" points="352.302,-27.0772 362.229,-23.3755 352.161,-20.0786 352.302,-27.0772"/>
</g>
<!-- Node32 -->
<g id="node11" class="node"><title>Node32</title>
<g id="a_node11"><a xlink:href="namespaceobe_1_1_script.html#a4e6ee77032cf7f66544f9b08464a60b7" target="_top" xlink:title="obe::Script::loadLib">
<polygon fill="white" stroke="black" points="551,-7.5 551,-26.5 652,-26.5 652,-7.5 551,-7.5"/>
<text text-anchor="middle" x="601.5" y="-14.5" font-family="Helvetica,sans-Serif" font-size="10.00">obe::Script::loadLib</text>
</a>
</g>
</g>
<!-- Node31&#45;&gt;Node32 -->
<g id="edge12" class="edge"><title>Node31&#45;&gt;Node32</title>
<path fill="none" stroke="midnightblue" d="M493.878,-17C512.908,-17 533.131,-17 550.792,-17"/>
<polygon fill="midnightblue" stroke="midnightblue" points="493.755,-13.5001 483.755,-17 493.755,-20.5001 493.755,-13.5001"/>
</g>
<!-- Node33 -->
<g id="node12" class="node"><title>Node33</title>
<g id="a_node12"><a xlink:href="namespaceobe_1_1_modes.html#a1e38c0d9a2ca0230f0de79c298f53ab9" target="_top" xlink:title="A mode that will start the Toolkit. ">
<polygon fill="white" stroke="black" points="868,-34.5 868,-53.5 1014,-53.5 1014,-34.5 868,-34.5"/>
<text text-anchor="middle" x="941" y="-41.5" font-family="Helvetica,sans-Serif" font-size="10.00">obe::Modes::startToolkitMode</text>
</a>
</g>
</g>
<!-- Node32&#45;&gt;Node33 -->
<g id="edge13" class="edge"><title>Node32&#45;&gt;Node33</title>
<path fill="none" stroke="midnightblue" d="M662.348,-24.2472C677.551,-25.9496 693.866,-27.6568 709,-29 762.142,-33.7166 822.285,-37.575 867.879,-40.1971"/>
<polygon fill="midnightblue" stroke="midnightblue" points="662.361,-20.7261 652.029,-23.074 661.57,-27.6813 662.361,-20.7261"/>
</g>
<!-- Node34 -->
<g id="node13" class="node"><title>Node34</title>
<g id="a_node13"><a xlink:href="namespaceobe_1_1_script.html#aad6ef67388e6d16eb01853f208da410f" target="_top" xlink:title="obe::Script::loadBaseLib">
<polygon fill="white" stroke="black" points="709,-0.5 709,-19.5 832,-19.5 832,-0.5 709,-0.5"/>
<text text-anchor="middle" x="770.5" y="-7.5" font-family="Helvetica,sans-Serif" font-size="10.00">obe::Script::loadBaseLib</text>
</a>
</g>
</g>
<!-- Node32&#45;&gt;Node34 -->
<g id="edge16" class="edge"><title>Node32&#45;&gt;Node34</title>
<path fill="none" stroke="midnightblue" d="M662.392,-14.4896C677.478,-13.8572 693.685,-13.1779 708.81,-12.5439"/>
<polygon fill="midnightblue" stroke="midnightblue" points="661.998,-11.0029 652.153,-14.9187 662.291,-17.9968 661.998,-11.0029"/>
</g>
<!-- Node33&#45;&gt;Node25 -->
<g id="edge15" class="edge"><title>Node33&#45;&gt;Node25</title>
<path fill="none" stroke="midnightblue" d="M1024.42,-38.1686C1072.03,-37.4667 1132.33,-41.2086 1183,-59 1200.09,-65.0007 1216.65,-78.0693 1226.83,-87.1955"/>
<polygon fill="midnightblue" stroke="midnightblue" points="1024.07,-34.6751 1014.15,-38.3911 1024.22,-41.6735 1024.07,-34.6751"/>
</g>
<!-- Node33&#45;&gt;Node28 -->
<g id="edge14" class="edge"><title>Node33&#45;&gt;Node28</title>
<path fill="none" stroke="midnightblue" d="M1000.78,-55.5179C1022.25,-59.7253 1046.28,-64.4345 1066.77,-68.4515"/>
<polygon fill="midnightblue" stroke="midnightblue" points="1001.28,-52.0499 990.791,-53.5614 999.931,-58.9192 1001.28,-52.0499"/>
</g>
<!-- Node34&#45;&gt;Node33 -->
<g id="edge17" class="edge"><title>Node34&#45;&gt;Node33</title>
<path fill="none" stroke="midnightblue" d="M828.864,-21.575C849.644,-25.7679 872.861,-30.4526 892.679,-34.4515"/>
<polygon fill="midnightblue" stroke="midnightblue" points="829.38,-18.1085 818.885,-19.5614 827.995,-24.9702 829.38,-18.1085"/>
</g>
</g>
</svg>
