<?xml version="1.0" encoding="UTF-8" standalone="no"?>
<!DOCTYPE svg PUBLIC "-//W3C//DTD SVG 1.1//EN"
 "http://www.w3.org/Graphics/SVG/1.1/DTD/svg11.dtd">
<!-- Generated by graphviz version 2.38.0 (20140413.2041)
 -->
<!-- Title: obe::Console::Console::insertInputBufferContent Pages: 1 -->
<svg width="1167pt" height="226pt"
 viewBox="0.00 0.00 1167.00 225.50" xmlns="http://www.w3.org/2000/svg" xmlns:xlink="http://www.w3.org/1999/xlink">
<g id="graph0" class="graph" transform="scale(1 1) rotate(0) translate(4 221.5)">
<title>obe::Console::Console::insertInputBufferContent</title>
<!-- Node112 -->
<g id="node1" class="node"><title>Node112</title>
<polygon fill="#bfbfbf" stroke="black" points="0,-16 0,-46 126,-46 126,-16 0,-16"/>
<text text-anchor="start" x="8" y="-34" font-family="Helvetica,sans-Serif" font-size="10.00">obe::Console::Console</text>
<text text-anchor="middle" x="63" y="-23" font-family="Helvetica,sans-Serif" font-size="10.00">::insertInputBufferContent</text>
</g>
<!-- Node113 -->
<g id="node2" class="node"><title>Node113</title>
<g id="a_node2"><a xlink:href="namespaceobe_1_1_editor.html#a508e767d732debdb65e63c7bffa50623" target="_top" xlink:title="obe::Editor::editMap">
<polygon fill="none" stroke="black" points="791,-28.5 791,-47.5 895,-47.5 895,-28.5 791,-28.5"/>
<text text-anchor="middle" x="843" y="-35.5" font-family="Helvetica,sans-Serif" font-size="10.00">obe::Editor::editMap</text>
</a>
</g>
</g>
<!-- Node112&#45;&gt;Node113 -->
<g id="edge1" class="edge"><title>Node112&#45;&gt;Node113</title>
<path fill="none" stroke="midnightblue" d="M136.386,-19.1766C196.283,-10.4191 283.686,-0 360.5,-0 360.5,-0 360.5,-0 509.5,-0 609.725,-0 725.851,-17.2537 790.942,-28.509"/>
<polygon fill="midnightblue" stroke="midnightblue" points="135.651,-15.7471 126.274,-20.6774 136.679,-22.6713 135.651,-15.7471"/>
</g>
<!-- Node116 -->
<g id="node5" class="node"><title>Node116</title>
<g id="a_node5"><a xlink:href="namespaceobe_1_1_script_1_1_core_lib.html#ad0a0a4d8fdd1cdfe5d7177c1267e4d16" target="_top" xlink:title="obe::Script::CoreLib\l::loadConsole">
<polygon fill="none" stroke="black" points="162,-48 162,-78 265,-78 265,-48 162,-48"/>
<text text-anchor="start" x="170" y="-66" font-family="Helvetica,sans-Serif" font-size="10.00">obe::Script::CoreLib</text>
<text text-anchor="middle" x="213.5" y="-55" font-family="Helvetica,sans-Serif" font-size="10.00">::loadConsole</text>
</a>
</g>
</g>
<!-- Node112&#45;&gt;Node116 -->
<g id="edge5" class="edge"><title>Node112&#45;&gt;Node116</title>
<path fill="none" stroke="midnightblue" d="M135.967,-46.508C144.73,-48.3963 153.535,-50.2938 161.894,-52.0951"/>
<polygon fill="midnightblue" stroke="midnightblue" points="136.63,-43.0706 126.117,-44.3855 135.155,-49.9135 136.63,-43.0706"/>
</g>
<!-- Node114 -->
<g id="node3" class="node"><title>Node114</title>
<g id="a_node3"><a xlink:href="namespaceobe_1_1_modes.html#a6a8b08eee511d4895c4da96d4ba223a6" target="_top" xlink:title="obe::Modes::startDevMenu">
<polygon fill="none" stroke="black" points="952,-71.5 952,-90.5 1085,-90.5 1085,-71.5 952,-71.5"/>
<text text-anchor="middle" x="1018.5" y="-78.5" font-family="Helvetica,sans-Serif" font-size="10.00">obe::Modes::startDevMenu</text>
</a>
</g>
</g>
<!-- Node113&#45;&gt;Node114 -->
<g id="edge2" class="edge"><title>Node113&#45;&gt;Node114</title>
<path fill="none" stroke="midnightblue" d="M892.284,-49.9667C919.69,-56.7589 953.518,-65.1429 979.102,-71.4836"/>
<polygon fill="midnightblue" stroke="midnightblue" points="893.054,-46.5516 882.505,-47.5431 891.37,-53.346 893.054,-46.5516"/>
</g>
<!-- Node115 -->
<g id="node4" class="node"><title>Node115</title>
<g id="a_node4"><a xlink:href="_ob_engine_8cpp.html#a3c04138a5bfe5d72780bb7e82a18e627" target="_top" xlink:title="main">
<polygon fill="none" stroke="black" points="1121,-71.5 1121,-90.5 1159,-90.5 1159,-71.5 1121,-71.5"/>
<text text-anchor="middle" x="1140" y="-78.5" font-family="Helvetica,sans-Serif" font-size="10.00">main</text>
</a>
</g>
</g>
<!-- Node113&#45;&gt;Node115 -->
<g id="edge4" class="edge"><title>Node113&#45;&gt;Node115</title>
<path fill="none" stroke="midnightblue" d="M905.479,-40.0741C954.564,-42.6966 1024.84,-48.6232 1085,-62 1097.22,-64.718 1110.5,-69.3632 1120.82,-73.38"/>
<polygon fill="midnightblue" stroke="midnightblue" points="905.502,-36.5709 895.338,-39.5632 905.149,-43.562 905.502,-36.5709"/>
</g>
<!-- Node114&#45;&gt;Node115 -->
<g id="edge3" class="edge"><title>Node114&#45;&gt;Node115</title>
<path fill="none" stroke="midnightblue" d="M1095.44,-81C1104.72,-81 1113.44,-81 1120.6,-81"/>
<polygon fill="midnightblue" stroke="midnightblue" points="1095.19,-77.5001 1085.19,-81 1095.19,-84.5001 1095.19,-77.5001"/>
</g>
<!-- Node117 -->
<g id="node6" class="node"><title>Node117</title>
<g id="a_node6"><a xlink:href="namespaceobe_1_1_script.html#a633c629c5a54da2b5d4930730983121c" target="_top" xlink:title="obe::Script::loadCoreLib">
<polygon fill="none" stroke="black" points="301,-74.5 301,-93.5 422,-93.5 422,-74.5 301,-74.5"/>
<text text-anchor="middle" x="361.5" y="-81.5" font-family="Helvetica,sans-Serif" font-size="10.00">obe::Script::loadCoreLib</text>
</a>
</g>
</g>
<!-- Node116&#45;&gt;Node117 -->
<g id="edge6" class="edge"><title>Node116&#45;&gt;Node117</title>
<path fill="none" stroke="midnightblue" d="M275.328,-71.7492C283.785,-72.9657 292.467,-74.2145 300.902,-75.4277"/>
<polygon fill="midnightblue" stroke="midnightblue" points="275.55,-68.2453 265.154,-70.2858 274.554,-75.174 275.55,-68.2453"/>
</g>
<!-- Node118 -->
<g id="node7" class="node"><title>Node118</title>
<g id="a_node7"><a xlink:href="namespaceobe_1_1_script.html#a4e6ee77032cf7f66544f9b08464a60b7" target="_top" xlink:title="obe::Script::loadLib">
<polygon fill="none" stroke="black" points="458,-94.5 458,-113.5 559,-113.5 559,-94.5 458,-94.5"/>
<text text-anchor="middle" x="508.5" y="-101.5" font-family="Helvetica,sans-Serif" font-size="10.00">obe::Script::loadLib</text>
</a>
</g>
</g>
<!-- Node117&#45;&gt;Node118 -->
<g id="edge7" class="edge"><title>Node117&#45;&gt;Node118</title>
<path fill="none" stroke="midnightblue" d="M432.401,-93.6415C441.037,-94.8327 449.723,-96.0307 457.967,-97.1678"/>
<polygon fill="midnightblue" stroke="midnightblue" points="432.699,-90.1495 422.314,-92.2502 431.742,-97.0839 432.699,-90.1495"/>
</g>
<!-- Node119 -->
<g id="node8" class="node"><title>Node119</title>
<g id="a_node8"><a xlink:href="namespaceobe_1_1_script.html#a5e992c0efb0543e7c934bc1065f08b01" target="_top" xlink:title="obe::Script::loadLibBridge">
<polygon fill="none" stroke="black" points="600.5,-192.5 600.5,-211.5 728.5,-211.5 728.5,-192.5 600.5,-192.5"/>
<text text-anchor="middle" x="664.5" y="-199.5" font-family="Helvetica,sans-Serif" font-size="10.00">obe::Script::loadLibBridge</text>
</a>
</g>
</g>
<!-- Node118&#45;&gt;Node119 -->
<g id="edge8" class="edge"><title>Node118&#45;&gt;Node119</title>
<path fill="none" stroke="midnightblue" d="M523.926,-121.547C539.618,-139.521 566.324,-167.026 595,-183 601.9,-186.844 609.631,-189.953 617.347,-192.455"/>
<polygon fill="midnightblue" stroke="midnightblue" points="526.293,-118.929 517.147,-113.582 520.963,-123.465 526.293,-118.929"/>
</g>
<!-- Node122 -->
<g id="node11" class="node"><title>Node122</title>
<g id="a_node11"><a xlink:href="namespaceobe_1_1_script.html#aad6ef67388e6d16eb01853f208da410f" target="_top" xlink:title="obe::Script::loadBaseLib">
<polygon fill="none" stroke="black" points="603,-154.5 603,-173.5 726,-173.5 726,-154.5 603,-154.5"/>
<text text-anchor="middle" x="664.5" y="-161.5" font-family="Helvetica,sans-Serif" font-size="10.00">obe::Script::loadBaseLib</text>
</a>
</g>
</g>
<!-- Node118&#45;&gt;Node122 -->
<g id="edge11" class="edge"><title>Node118&#45;&gt;Node122</title>
<path fill="none" stroke="midnightblue" d="M540.62,-117.646C556.751,-124.581 576.829,-132.999 595,-140 608.052,-145.029 622.664,-150.209 635.029,-154.463"/>
<polygon fill="midnightblue" stroke="midnightblue" points="541.706,-114.302 531.138,-113.545 538.927,-120.727 541.706,-114.302"/>
</g>
<!-- Node123 -->
<g id="node12" class="node"><title>Node123</title>
<g id="a_node12"><a xlink:href="namespaceobe_1_1_modes.html#a1e38c0d9a2ca0230f0de79c298f53ab9" target="_top" xlink:title="A mode that will start the Toolkit. ">
<polygon fill="none" stroke="black" points="770,-116.5 770,-135.5 916,-135.5 916,-116.5 770,-116.5"/>
<text text-anchor="middle" x="843" y="-123.5" font-family="Helvetica,sans-Serif" font-size="10.00">obe::Modes::startToolkitMode</text>
</a>
</g>
</g>
<!-- Node118&#45;&gt;Node123 -->
<g id="edge15" class="edge"><title>Node118&#45;&gt;Node123</title>
<path fill="none" stroke="midnightblue" d="M569.437,-107.966C625.645,-111.685 709.783,-117.252 769.692,-121.216"/>
<polygon fill="midnightblue" stroke="midnightblue" points="569.488,-104.462 559.279,-107.294 569.026,-111.446 569.488,-104.462"/>
</g>
<!-- Node124 -->
<g id="node13" class="node"><title>Node124</title>
<g id="a_node13"><a xlink:href="classobe_1_1_world_1_1_world.html#a5bd621e3fd9293d949ad0c669cee6838" target="_top" xlink:title="obe::World::World::\lWorld">
<polygon fill="none" stroke="black" points="792.5,-67 792.5,-97 893.5,-97 893.5,-67 792.5,-67"/>
<text text-anchor="start" x="800.5" y="-85" font-family="Helvetica,sans-Serif" font-size="10.00">obe::World::World::</text>
<text text-anchor="middle" x="843" y="-74" font-family="Helvetica,sans-Serif" font-size="10.00">World</text>
</a>
</g>
</g>
<!-- Node118&#45;&gt;Node124 -->
<g id="edge16" class="edge"><title>Node118&#45;&gt;Node124</title>
<path fill="none" stroke="midnightblue" d="M530.323,-88.6279C546.898,-77.3994 571.19,-63.1129 595,-57 662.004,-39.7976 742.08,-53.9921 792.499,-66.9766"/>
<polygon fill="midnightblue" stroke="midnightblue" points="528.147,-85.8789 521.96,-94.48 532.16,-91.6141 528.147,-85.8789"/>
</g>
<!-- Node125 -->
<g id="node14" class="node"><title>Node125</title>
<g id="a_node14"><a xlink:href="namespaceobe_1_1_world.html#afc958184e59524fdf9dc6ba98a1e9a37" target="_top" xlink:title="obe::World::loadWorldScript\lEngineBaseLib">
<polygon fill="none" stroke="black" points="595,-67 595,-97 734,-97 734,-67 595,-67"/>
<text text-anchor="start" x="603" y="-85" font-family="Helvetica,sans-Serif" font-size="10.00">obe::World::loadWorldScript</text>
<text text-anchor="middle" x="664.5" y="-74" font-family="Helvetica,sans-Serif" font-size="10.00">EngineBaseLib</text>
</a>
</g>
</g>
<!-- Node118&#45;&gt;Node125 -->
<g id="edge17" class="edge"><title>Node118&#45;&gt;Node125</title>
<path fill="none" stroke="midnightblue" d="M569.19,-95.4728C577.626,-94.2677 586.354,-93.0208 594.941,-91.7942"/>
<polygon fill="midnightblue" stroke="midnightblue" points="568.479,-92.0388 559.074,-96.918 569.469,-98.9685 568.479,-92.0388"/>
</g>
<!-- Node120 -->
<g id="node9" class="node"><title>Node120</title>
<g id="a_node9"><a xlink:href="namespaceobe_1_1_script.html#a5dc8321da50fd4b5dc2935e4d8c93a4e" target="_top" xlink:title="obe::Script::loadScrGame\lObject">
<polygon fill="none" stroke="black" points="778.5,-187 778.5,-217 907.5,-217 907.5,-187 778.5,-187"/>
<text text-anchor="start" x="786.5" y="-205" font-family="Helvetica,sans-Serif" font-size="10.00">obe::Script::loadScrGame</text>
<text text-anchor="middle" x="843" y="-194" font-family="Helvetica,sans-Serif" font-size="10.00">Object</text>
</a>
</g>
</g>
<!-- Node119&#45;&gt;Node120 -->
<g id="edge9" class="edge"><title>Node119&#45;&gt;Node120</title>
<path fill="none" stroke="midnightblue" d="M739.065,-202C752.107,-202 765.589,-202 778.329,-202"/>
<polygon fill="midnightblue" stroke="midnightblue" points="738.722,-198.5 728.722,-202 738.722,-205.5 738.722,-198.5"/>
</g>
<!-- Node121 -->
<g id="node10" class="node"><title>Node121</title>
<g id="a_node10"><a xlink:href="classobe_1_1_script_1_1_game_object.html#aa0d58bd1ef0fa2fe9f7567729b2d291e" target="_top" xlink:title="obe::Script::GameObject\l::loadGameObject">
<polygon fill="none" stroke="black" points="956,-187 956,-217 1081,-217 1081,-187 956,-187"/>
<text text-anchor="start" x="964" y="-205" font-family="Helvetica,sans-Serif" font-size="10.00">obe::Script::GameObject</text>
<text text-anchor="middle" x="1018.5" y="-194" font-family="Helvetica,sans-Serif" font-size="10.00">::loadGameObject</text>
</a>
</g>
</g>
<!-- Node120&#45;&gt;Node121 -->
<g id="edge10" class="edge"><title>Node120&#45;&gt;Node121</title>
<path fill="none" stroke="midnightblue" d="M917.721,-202C930.445,-202 943.552,-202 955.913,-202"/>
<polygon fill="midnightblue" stroke="midnightblue" points="917.62,-198.5 907.62,-202 917.62,-205.5 917.62,-198.5"/>
</g>
<!-- Node122&#45;&gt;Node123 -->
<g id="edge12" class="edge"><title>Node122&#45;&gt;Node123</title>
<path fill="none" stroke="midnightblue" d="M720.088,-152.247C745.045,-146.874 774.227,-140.591 797.782,-135.52"/>
<polygon fill="midnightblue" stroke="midnightblue" points="719.078,-148.885 710.038,-154.411 720.551,-155.728 719.078,-148.885"/>
</g>
<!-- Node123&#45;&gt;Node114 -->
<g id="edge13" class="edge"><title>Node123&#45;&gt;Node114</title>
<path fill="none" stroke="midnightblue" d="M890.844,-113.85C919.087,-106.525 954.547,-97.3277 980.758,-90.5296"/>
<polygon fill="midnightblue" stroke="midnightblue" points="889.596,-110.558 880.795,-116.457 891.353,-117.334 889.596,-110.558"/>
</g>
<!-- Node123&#45;&gt;Node115 -->
<g id="edge14" class="edge"><title>Node123&#45;&gt;Node115</title>
<path fill="none" stroke="midnightblue" d="M926.277,-121.842C973.217,-118.299 1032.9,-111.808 1085,-100 1097.21,-97.2319 1110.48,-92.5859 1120.82,-88.5812"/>
<polygon fill="midnightblue" stroke="midnightblue" points="925.879,-118.362 916.159,-122.575 926.385,-125.343 925.879,-118.362"/>
</g>
<!-- Node125&#45;&gt;Node124 -->
<g id="edge18" class="edge"><title>Node125&#45;&gt;Node124</title>
<path fill="none" stroke="midnightblue" d="M744.323,-82C760.633,-82 777.376,-82 792.292,-82"/>
<polygon fill="midnightblue" stroke="midnightblue" points="744.245,-78.5001 734.245,-82 744.245,-85.5001 744.245,-78.5001"/>
</g>
</g>
</svg>
