<?xml version="1.0" encoding="UTF-8" standalone="no"?>
<!DOCTYPE svg PUBLIC "-//W3C//DTD SVG 1.1//EN"
 "http://www.w3.org/Graphics/SVG/1.1/DTD/svg11.dtd">
<!-- Generated by graphviz version 2.38.0 (20140413.2041)
 -->
<!-- Title: vili::ComplexNode::createDataNode Pages: 1 -->
<svg width="1670pt" height="306pt"
 viewBox="0.00 0.00 1670.00 306.00" xmlns="http://www.w3.org/2000/svg" xmlns:xlink="http://www.w3.org/1999/xlink">
<g id="graph0" class="graph" transform="scale(1 1) rotate(0) translate(4 302)">
<title>vili::ComplexNode::createDataNode</title>
<!-- Node402 -->
<g id="node1" class="node"><title>Node402</title>
<polygon fill="#bfbfbf" stroke="black" points="0,-115 0,-145 100,-145 100,-115 0,-115"/>
<text text-anchor="start" x="8" y="-133" font-family="Helvetica,sans-Serif" font-size="10.00">vili::ComplexNode::</text>
<text text-anchor="middle" x="50" y="-122" font-family="Helvetica,sans-Serif" font-size="10.00">createDataNode</text>
</g>
<!-- Node403 -->
<g id="node2" class="node"><title>Node403</title>
<g id="a_node2"><a xlink:href="classvili_1_1_complex_node.html#a3cd795e46a0b11466df1486ee982e69f" target="_top" xlink:title="Creates a DataNode in the ComplexNode. ">
<polygon fill="white" stroke="black" points="145.5,-252 145.5,-282 245.5,-282 245.5,-252 145.5,-252"/>
<text text-anchor="start" x="153.5" y="-270" font-family="Helvetica,sans-Serif" font-size="10.00">vili::ComplexNode::</text>
<text text-anchor="middle" x="195.5" y="-259" font-family="Helvetica,sans-Serif" font-size="10.00">createDataNode</text>
</a>
</g>
</g>
<!-- Node402&#45;&gt;Node403 -->
<g id="edge1" class="edge"><title>Node402&#45;&gt;Node403</title>
<path fill="none" stroke="midnightblue" d="M63.9222,-154.148C78.4805,-179.344 104.3,-218.519 136,-243 140.344,-246.355 145.223,-249.315 150.262,-251.906"/>
<polygon fill="midnightblue" stroke="midnightblue" points="66.8607,-152.233 58.9052,-145.236 60.7609,-155.667 66.8607,-152.233"/>
</g>
<!-- Node404 -->
<g id="node3" class="node"><title>Node404</title>
<g id="a_node3"><a xlink:href="classvili_1_1_vili_parser.html#abf78e297a322d2e500a04172928d7c67" target="_top" xlink:title="Parses a .vili file. ">
<polygon fill="white" stroke="black" points="307,-205.5 307,-224.5 428,-224.5 428,-205.5 307,-205.5"/>
<text text-anchor="middle" x="367.5" y="-212.5" font-family="Helvetica,sans-Serif" font-size="10.00">vili::ViliParser::parseFile</text>
</a>
</g>
</g>
<!-- Node402&#45;&gt;Node404 -->
<g id="edge2" class="edge"><title>Node402&#45;&gt;Node404</title>
<path fill="none" stroke="midnightblue" d="M110.069,-147.633C118.753,-150.149 127.599,-152.672 136,-155 203.544,-173.719 282.694,-193.953 328.47,-205.49"/>
<polygon fill="midnightblue" stroke="midnightblue" points="110.946,-144.243 100.366,-144.804 108.987,-150.963 110.946,-144.243"/>
</g>
<!-- Node407 -->
<g id="node6" class="node"><title>Node407</title>
<g id="a_node6"><a xlink:href="namespaceobe_1_1_modes.html#aba069f9abc42724d76690602326d6b7d" target="_top" xlink:title="obe::Modes::createLevel">
<polygon fill="white" stroke="black" points="647,-108.5 647,-127.5 769,-127.5 769,-108.5 647,-108.5"/>
<text text-anchor="middle" x="708" y="-115.5" font-family="Helvetica,sans-Serif" font-size="10.00">obe::Modes::createLevel</text>
</a>
</g>
</g>
<!-- Node402&#45;&gt;Node407 -->
<g id="edge26" class="edge"><title>Node402&#45;&gt;Node407</title>
<path fill="none" stroke="midnightblue" d="M105.398,-112.257C115.47,-109.656 125.975,-107.388 136,-106 320.647,-80.432 542.038,-98.8887 646.624,-110.498"/>
<polygon fill="midnightblue" stroke="midnightblue" points="104.234,-108.946 95.5042,-114.949 106.072,-115.701 104.234,-108.946"/>
</g>
<!-- Node418 -->
<g id="node17" class="node"><title>Node418</title>
<g id="a_node17"><a xlink:href="classvili_1_1_vili_parser.html#a17a7a333c47610bd163316256c994b67" target="_top" xlink:title="Generates a NodeTemplate from a ComplexNode which should be a direct child of the Root...">
<polygon fill="white" stroke="black" points="136,-203 136,-233 255,-233 255,-203 136,-203"/>
<text text-anchor="start" x="144" y="-221" font-family="Helvetica,sans-Serif" font-size="10.00">vili::ViliParser::generate</text>
<text text-anchor="middle" x="195.5" y="-210" font-family="Helvetica,sans-Serif" font-size="10.00">Template</text>
</a>
</g>
</g>
<!-- Node402&#45;&gt;Node418 -->
<g id="edge23" class="edge"><title>Node402&#45;&gt;Node418</title>
<path fill="none" stroke="midnightblue" d="M79.9627,-151.09C96.13,-162.522 116.823,-176.601 136,-188 144.732,-193.191 154.463,-198.398 163.443,-202.983"/>
<polygon fill="midnightblue" stroke="midnightblue" points="81.659,-148.001 71.4848,-145.045 77.5951,-153.7 81.659,-148.001"/>
</g>
<!-- Node419 -->
<g id="node18" class="node"><title>Node419</title>
<g id="a_node18"><a xlink:href="classvili_1_1_complex_node.html#ad6d24a98270eaba537a3641632f7e1e7" target="_top" xlink:title="Access a casted Node in the tree using a path (with multiple path parts) (.at(&quot;NodeA&quot;, &quot;NodeB&quot;, &quot;NodeB&quot;) for example) ">
<polygon fill="white" stroke="black" points="141.5,-0.5 141.5,-19.5 249.5,-19.5 249.5,-0.5 141.5,-0.5"/>
<text text-anchor="middle" x="195.5" y="-7.5" font-family="Helvetica,sans-Serif" font-size="10.00">vili::ComplexNode::at</text>
</a>
</g>
</g>
<!-- Node402&#45;&gt;Node419 -->
<g id="edge25" class="edge"><title>Node402&#45;&gt;Node419</title>
<path fill="none" stroke="midnightblue" d="M66.9475,-106.527C82.4604,-85.1879 107.769,-54.0568 136,-34 144.323,-28.0871 154.319,-23.303 163.674,-19.6078"/>
<polygon fill="midnightblue" stroke="midnightblue" points="64.0536,-104.558 61.1113,-114.736 69.7585,-108.614 64.0536,-104.558"/>
</g>
<!-- Node420 -->
<g id="node19" class="node"><title>Node420</title>
<g id="a_node19"><a xlink:href="classobe_1_1_scene_1_1_scene.html#a7af64c188e60cc5b6588223a0118625c" target="_top" xlink:title="Dumps all elements of the Scene in a vili tree. ">
<polygon fill="white" stroke="black" points="805,-44.5 805,-63.5 935,-63.5 935,-44.5 805,-44.5"/>
<text text-anchor="middle" x="870" y="-51.5" font-family="Helvetica,sans-Serif" font-size="10.00">obe::Scene::Scene::dump</text>
</a>
</g>
</g>
<!-- Node402&#45;&gt;Node420 -->
<g id="edge27" class="edge"><title>Node402&#45;&gt;Node420</title>
<path fill="none" stroke="midnightblue" d="M88.5607,-110.353C103.069,-103.411 120.005,-96.0762 136,-91 235.33,-59.4775 262.288,-48 366.5,-48 366.5,-48 366.5,-48 546.5,-48 636.099,-48 739.676,-50.3438 804.758,-52.1016"/>
<polygon fill="midnightblue" stroke="midnightblue" points="86.8548,-107.291 79.4111,-114.83 89.9317,-113.578 86.8548,-107.291"/>
</g>
<!-- Node423 -->
<g id="node22" class="node"><title>Node423</title>
<g id="a_node22"><a xlink:href="namespaceobe_1_1_system_1_1_package.html#ad8db0c0875d239ceec4b89383b410c51" target="_top" xlink:title="Installs a Package. ">
<polygon fill="white" stroke="black" points="137.5,-115 137.5,-145 253.5,-145 253.5,-115 137.5,-115"/>
<text text-anchor="start" x="145.5" y="-133" font-family="Helvetica,sans-Serif" font-size="10.00">obe::System::Package</text>
<text text-anchor="middle" x="195.5" y="-122" font-family="Helvetica,sans-Serif" font-size="10.00">::Install</text>
</a>
</g>
</g>
<!-- Node402&#45;&gt;Node423 -->
<g id="edge32" class="edge"><title>Node402&#45;&gt;Node423</title>
<path fill="none" stroke="midnightblue" d="M110.553,-130C119.341,-130 128.381,-130 137.124,-130"/>
<polygon fill="midnightblue" stroke="midnightblue" points="110.385,-126.5 100.385,-130 110.385,-133.5 110.385,-126.5"/>
</g>
<!-- Node405 -->
<g id="node4" class="node"><title>Node405</title>
<g id="a_node4"><a xlink:href="classvili_1_1_vili_parser.html#a99cb54088fabdcf4182fd1593648a47f" target="_top" xlink:title="Creates a ViliParser and parses the file at the given path. ">
<polygon fill="white" stroke="black" points="484,-278.5 484,-297.5 607,-297.5 607,-278.5 484,-278.5"/>
<text text-anchor="middle" x="545.5" y="-285.5" font-family="Helvetica,sans-Serif" font-size="10.00">vili::ViliParser::ViliParser</text>
</a>
</g>
</g>
<!-- Node404&#45;&gt;Node405 -->
<g id="edge3" class="edge"><title>Node404&#45;&gt;Node405</title>
<path fill="none" stroke="midnightblue" d="M394.707,-229.214C416.964,-240.913 449.981,-257.4 480,-269 489.038,-272.492 498.995,-275.717 508.326,-278.481"/>
<polygon fill="midnightblue" stroke="midnightblue" points="396.341,-226.119 385.868,-224.522 393.059,-232.302 396.341,-226.119"/>
</g>
<!-- Node406 -->
<g id="node5" class="node"><title>Node406</title>
<g id="a_node5"><a xlink:href="classvili_1_1_vili_parser.html#ab0484fbda61b08d2a97c6fc229638d06" target="_top" xlink:title="Includes a .vili file (all parsed content will be non&#45;visible) ">
<polygon fill="white" stroke="black" points="481.5,-202.5 481.5,-221.5 609.5,-221.5 609.5,-202.5 481.5,-202.5"/>
<text text-anchor="middle" x="545.5" y="-209.5" font-family="Helvetica,sans-Serif" font-size="10.00">vili::ViliParser::includeFile</text>
</a>
</g>
</g>
<!-- Node404&#45;&gt;Node406 -->
<g id="edge4" class="edge"><title>Node404&#45;&gt;Node406</title>
<path fill="none" stroke="midnightblue" d="M438.298,-207.19C452.515,-206.742 467.395,-206.527 481.364,-206.572"/>
<polygon fill="midnightblue" stroke="midnightblue" points="437.953,-203.7 428.086,-207.557 438.205,-210.696 437.953,-203.7"/>
</g>
<!-- Node411 -->
<g id="node10" class="node"><title>Node411</title>
<g id="a_node10"><a xlink:href="namespaceobe_1_1_system.html#ab44a678f8f4dc351d966f90283ba67e1" target="_top" xlink:title="Function called to Mount all Paths using &#39;Mount.vili&#39; file. ">
<polygon fill="white" stroke="black" points="480,-240.5 480,-259.5 611,-259.5 611,-240.5 480,-240.5"/>
<text text-anchor="middle" x="545.5" y="-247.5" font-family="Helvetica,sans-Serif" font-size="10.00">obe::System::MountPaths</text>
</a>
</g>
</g>
<!-- Node404&#45;&gt;Node411 -->
<g id="edge11" class="edge"><title>Node404&#45;&gt;Node411</title>
<path fill="none" stroke="midnightblue" d="M426.442,-226.522C449.126,-231.034 474.84,-236.147 496.465,-240.448"/>
<polygon fill="midnightblue" stroke="midnightblue" points="427.083,-223.082 416.593,-224.564 425.718,-229.947 427.083,-223.082"/>
</g>
<!-- Node406&#45;&gt;Node404 -->
<g id="edge5" class="edge"><title>Node406&#45;&gt;Node404</title>
<path fill="none" stroke="midnightblue" d="M471.054,-219.919C456.735,-220.327 441.888,-220.5 428.086,-220.411"/>
<polygon fill="midnightblue" stroke="midnightblue" points="471.484,-223.407 481.364,-219.581 471.254,-216.411 471.484,-223.407"/>
</g>
<!-- Node406&#45;&gt;Node407 -->
<g id="edge6" class="edge"><title>Node406&#45;&gt;Node407</title>
<path fill="none" stroke="midnightblue" d="M565.796,-196.157C585.364,-180.637 616.962,-157.044 647,-141 656.643,-135.849 667.696,-131.272 677.666,-127.583"/>
<polygon fill="midnightblue" stroke="midnightblue" points="563.547,-193.474 557.944,-202.466 567.931,-198.931 563.547,-193.474"/>
</g>
<!-- Node408 -->
<g id="node7" class="node"><title>Node408</title>
<g id="a_node7"><a xlink:href="namespaceobe_1_1_modes.html#a3f3265818dfb12925bf614e517346f73" target="_top" xlink:title="Starts the menu used to chose a map to edit. ">
<polygon fill="white" stroke="black" points="1271,-108.5 1271,-127.5 1419,-127.5 1419,-108.5 1271,-108.5"/>
<text text-anchor="middle" x="1345" y="-115.5" font-family="Helvetica,sans-Serif" font-size="10.00">obe::Modes::chooseMapMenu</text>
</a>
</g>
</g>
<!-- Node407&#45;&gt;Node408 -->
<g id="edge7" class="edge"><title>Node407&#45;&gt;Node408</title>
<path fill="none" stroke="midnightblue" d="M779.301,-118C900.564,-118 1147.86,-118 1270.98,-118"/>
<polygon fill="midnightblue" stroke="midnightblue" points="779.025,-114.5 769.025,-118 779.025,-121.5 779.025,-114.5"/>
</g>
<!-- Node409 -->
<g id="node8" class="node"><title>Node409</title>
<g id="a_node8"><a xlink:href="namespaceobe_1_1_modes.html#a6a8b08eee511d4895c4da96d4ba223a6" target="_top" xlink:title="Starts the development Menu where you can starts other menus from. ">
<polygon fill="white" stroke="black" points="1455,-105.5 1455,-124.5 1588,-124.5 1588,-105.5 1455,-105.5"/>
<text text-anchor="middle" x="1521.5" y="-112.5" font-family="Helvetica,sans-Serif" font-size="10.00">obe::Modes::startDevMenu</text>
</a>
</g>
</g>
<!-- Node408&#45;&gt;Node409 -->
<g id="edge8" class="edge"><title>Node408&#45;&gt;Node409</title>
<path fill="none" stroke="midnightblue" d="M1429.3,-116.568C1437.91,-116.42 1446.57,-116.271 1454.94,-116.127"/>
<polygon fill="midnightblue" stroke="midnightblue" points="1429.18,-113.069 1419.25,-116.741 1429.3,-120.068 1429.18,-113.069"/>
</g>
<!-- Node410 -->
<g id="node9" class="node"><title>Node410</title>
<g id="a_node9"><a xlink:href="_ob_engine_8cpp.html#a3c04138a5bfe5d72780bb7e82a18e627" target="_top" xlink:title="main">
<polygon fill="white" stroke="black" points="1624,-143.5 1624,-162.5 1662,-162.5 1662,-143.5 1624,-143.5"/>
<text text-anchor="middle" x="1643" y="-150.5" font-family="Helvetica,sans-Serif" font-size="10.00">main</text>
</a>
</g>
</g>
<!-- Node408&#45;&gt;Node410 -->
<g id="edge10" class="edge"><title>Node408&#45;&gt;Node410</title>
<path fill="none" stroke="midnightblue" d="M1417.52,-128.963C1430,-130.743 1442.87,-132.494 1455,-134 1516.85,-141.678 1590.5,-148.475 1623.92,-151.432"/>
<polygon fill="midnightblue" stroke="midnightblue" points="1418.01,-125.497 1407.62,-127.533 1417.01,-132.426 1418.01,-125.497"/>
</g>
<!-- Node409&#45;&gt;Node410 -->
<g id="edge9" class="edge"><title>Node409&#45;&gt;Node410</title>
<path fill="none" stroke="midnightblue" d="M1562.21,-127.628C1583.01,-134.241 1607.47,-142.019 1623.77,-147.203"/>
<polygon fill="midnightblue" stroke="midnightblue" points="1563.25,-124.284 1552.65,-124.589 1561.12,-130.955 1563.25,-124.284"/>
</g>
<!-- Node411&#45;&gt;Node410 -->
<g id="edge12" class="edge"><title>Node411&#45;&gt;Node410</title>
<path fill="none" stroke="midnightblue" d="M621.248,-252.905C686.604,-255.193 784.073,-258 869,-258 869,-258 869,-258 1346,-258 1458.09,-258 1485.82,-233.079 1588,-187 1602.74,-180.351 1618.24,-170.227 1628.82,-162.755"/>
<polygon fill="midnightblue" stroke="midnightblue" points="621.16,-249.399 611.042,-252.542 620.911,-256.395 621.16,-249.399"/>
</g>
<!-- Node412 -->
<g id="node11" class="node"><title>Node412</title>
<g id="a_node11"><a xlink:href="namespaceobe_1_1_script_1_1_core_lib.html#a474d9f2d7938ff05a78649907b8a77d3" target="_top" xlink:title="obe::Script::CoreLib\l::loadPath">
<polygon fill="white" stroke="black" points="656.5,-199 656.5,-229 759.5,-229 759.5,-199 656.5,-199"/>
<text text-anchor="start" x="664.5" y="-217" font-family="Helvetica,sans-Serif" font-size="10.00">obe::Script::CoreLib</text>
<text text-anchor="middle" x="708" y="-206" font-family="Helvetica,sans-Serif" font-size="10.00">::loadPath</text>
</a>
</g>
</g>
<!-- Node411&#45;&gt;Node412 -->
<g id="edge13" class="edge"><title>Node411&#45;&gt;Node412</title>
<path fill="none" stroke="midnightblue" d="M599.039,-238.216C617.409,-234.095 637.987,-229.48 656.212,-225.392"/>
<polygon fill="midnightblue" stroke="midnightblue" points="598.081,-234.843 589.09,-240.447 599.613,-241.674 598.081,-234.843"/>
</g>
<!-- Node413 -->
<g id="node12" class="node"><title>Node413</title>
<g id="a_node12"><a xlink:href="namespaceobe_1_1_script.html#abdb81ec0976f1097cef6711415b8fac3" target="_top" xlink:title="obe::Script::loadCoreLib">
<polygon fill="white" stroke="black" points="809.5,-159.5 809.5,-178.5 930.5,-178.5 930.5,-159.5 809.5,-159.5"/>
<text text-anchor="middle" x="870" y="-166.5" font-family="Helvetica,sans-Serif" font-size="10.00">obe::Script::loadCoreLib</text>
</a>
</g>
</g>
<!-- Node412&#45;&gt;Node413 -->
<g id="edge14" class="edge"><title>Node412&#45;&gt;Node413</title>
<path fill="none" stroke="midnightblue" d="M769.303,-197.04C791.476,-190.804 815.801,-183.962 834.872,-178.598"/>
<polygon fill="midnightblue" stroke="midnightblue" points="768.304,-193.685 759.625,-199.762 770.199,-200.423 768.304,-193.685"/>
</g>
<!-- Node414 -->
<g id="node13" class="node"><title>Node414</title>
<g id="a_node13"><a xlink:href="namespaceobe_1_1_script.html#a4e6ee77032cf7f66544f9b08464a60b7" target="_top" xlink:title="obe::Script::loadLib">
<polygon fill="white" stroke="black" points="972,-203.5 972,-222.5 1073,-222.5 1073,-203.5 972,-203.5"/>
<text text-anchor="middle" x="1022.5" y="-210.5" font-family="Helvetica,sans-Serif" font-size="10.00">obe::Script::loadLib</text>
</a>
</g>
</g>
<!-- Node413&#45;&gt;Node414 -->
<g id="edge15" class="edge"><title>Node413&#45;&gt;Node414</title>
<path fill="none" stroke="midnightblue" d="M913.532,-181.435C937.446,-188.426 966.833,-197.018 988.907,-203.471"/>
<polygon fill="midnightblue" stroke="midnightblue" points="914.237,-177.994 903.656,-178.547 912.272,-184.713 914.237,-177.994"/>
</g>
<!-- Node417 -->
<g id="node16" class="node"><title>Node417</title>
<g id="a_node16"><a xlink:href="namespaceobe_1_1_script_1_1_core_lib.html#a07d6c11bbb082bc45bdba50d97965c00" target="_top" xlink:title="obe::Script::CoreLib\l::loadCollision">
<polygon fill="white" stroke="black" points="971,-154 971,-184 1074,-184 1074,-154 971,-154"/>
<text text-anchor="start" x="979" y="-172" font-family="Helvetica,sans-Serif" font-size="10.00">obe::Script::CoreLib</text>
<text text-anchor="middle" x="1022.5" y="-161" font-family="Helvetica,sans-Serif" font-size="10.00">::loadCollision</text>
</a>
</g>
</g>
<!-- Node413&#45;&gt;Node417 -->
<g id="edge21" class="edge"><title>Node413&#45;&gt;Node417</title>
<path fill="none" stroke="midnightblue" d="M940.971,-162.265C951.098,-162.208 961.353,-162.315 970.998,-162.586"/>
<polygon fill="midnightblue" stroke="midnightblue" points="940.875,-158.766 930.914,-162.376 940.952,-165.765 940.875,-158.766"/>
</g>
<!-- Node415 -->
<g id="node14" class="node"><title>Node415</title>
<g id="a_node14"><a xlink:href="namespaceobe_1_1_modes.html#a1e38c0d9a2ca0230f0de79c298f53ab9" target="_top" xlink:title="A mode that will start the Toolkit. ">
<polygon fill="white" stroke="black" points="1272,-174.5 1272,-193.5 1418,-193.5 1418,-174.5 1272,-174.5"/>
<text text-anchor="middle" x="1345" y="-181.5" font-family="Helvetica,sans-Serif" font-size="10.00">obe::Modes::startToolkitMode</text>
</a>
</g>
</g>
<!-- Node414&#45;&gt;Node415 -->
<g id="edge16" class="edge"><title>Node414&#45;&gt;Node415</title>
<path fill="none" stroke="midnightblue" d="M1082.87,-201.802C1091.94,-200.355 1101.2,-199.023 1110,-198 1164.07,-191.714 1225.51,-188.175 1271.87,-186.229"/>
<polygon fill="midnightblue" stroke="midnightblue" points="1082.06,-198.39 1072.76,-203.475 1083.2,-205.296 1082.06,-198.39"/>
</g>
<!-- Node416 -->
<g id="node15" class="node"><title>Node416</title>
<g id="a_node15"><a xlink:href="namespaceobe_1_1_script.html#aad6ef67388e6d16eb01853f208da410f" target="_top" xlink:title="obe::Script::loadBaseLib">
<polygon fill="white" stroke="black" points="1111,-207.5 1111,-226.5 1234,-226.5 1234,-207.5 1111,-207.5"/>
<text text-anchor="middle" x="1172.5" y="-214.5" font-family="Helvetica,sans-Serif" font-size="10.00">obe::Script::loadBaseLib</text>
</a>
</g>
</g>
<!-- Node414&#45;&gt;Node416 -->
<g id="edge19" class="edge"><title>Node414&#45;&gt;Node416</title>
<path fill="none" stroke="midnightblue" d="M1083.3,-214.616C1092.39,-214.862 1101.78,-215.116 1110.89,-215.362"/>
<polygon fill="midnightblue" stroke="midnightblue" points="1083.28,-211.115 1073.19,-214.343 1083.1,-218.112 1083.28,-211.115"/>
</g>
<!-- Node415&#45;&gt;Node409 -->
<g id="edge17" class="edge"><title>Node415&#45;&gt;Node409</title>
<path fill="none" stroke="midnightblue" d="M1379.85,-170.616C1414.1,-157.072 1466.2,-136.472 1496.44,-124.513"/>
<polygon fill="midnightblue" stroke="midnightblue" points="1378.28,-167.474 1370.26,-174.406 1380.85,-173.983 1378.28,-167.474"/>
</g>
<!-- Node415&#45;&gt;Node410 -->
<g id="edge18" class="edge"><title>Node415&#45;&gt;Node410</title>
<path fill="none" stroke="midnightblue" d="M1428.28,-181.965C1475.3,-179.869 1535.24,-175.618 1588,-167 1600.04,-165.033 1613.31,-161.611 1623.68,-158.642"/>
<polygon fill="midnightblue" stroke="midnightblue" points="1427.98,-178.474 1418.14,-182.393 1428.28,-185.468 1427.98,-178.474"/>
</g>
<!-- Node416&#45;&gt;Node415 -->
<g id="edge20" class="edge"><title>Node416&#45;&gt;Node415</title>
<path fill="none" stroke="midnightblue" d="M1232.86,-205.511C1253.08,-201.597 1275.46,-197.267 1294.8,-193.524"/>
<polygon fill="midnightblue" stroke="midnightblue" points="1231.97,-202.119 1222.82,-207.455 1233.3,-208.991 1231.97,-202.119"/>
</g>
<!-- Node417&#45;&gt;Node413 -->
<g id="edge22" class="edge"><title>Node417&#45;&gt;Node413</title>
<path fill="none" stroke="midnightblue" d="M960.866,-175.636C950.992,-175.792 940.77,-175.788 930.914,-175.624"/>
<polygon fill="midnightblue" stroke="midnightblue" points="961.077,-179.132 970.998,-175.414 960.924,-172.134 961.077,-179.132"/>
</g>
<!-- Node418&#45;&gt;Node404 -->
<g id="edge24" class="edge"><title>Node418&#45;&gt;Node404</title>
<path fill="none" stroke="midnightblue" d="M265.351,-216.785C279.063,-216.543 293.356,-216.291 306.732,-216.055"/>
<polygon fill="midnightblue" stroke="midnightblue" points="264.941,-213.292 255.004,-216.968 265.065,-220.29 264.941,-213.292"/>
</g>
<!-- Node421 -->
<g id="node20" class="node"><title>Node421</title>
<g id="a_node20"><a xlink:href="namespaceobe_1_1_editor.html#ac84a3ef3300fd334ad4e8adbfa050578" target="_top" xlink:title="obe::Editor::connectSave\lActions">
<polygon fill="white" stroke="black" points="1110,-54 1110,-84 1235,-84 1235,-54 1110,-54"/>
<text text-anchor="start" x="1118" y="-72" font-family="Helvetica,sans-Serif" font-size="10.00">obe::Editor::connectSave</text>
<text text-anchor="middle" x="1172.5" y="-61" font-family="Helvetica,sans-Serif" font-size="10.00">Actions</text>
</a>
</g>
</g>
<!-- Node420&#45;&gt;Node421 -->
<g id="edge28" class="edge"><title>Node420&#45;&gt;Node421</title>
<path fill="none" stroke="midnightblue" d="M945.323,-57.7099C995.93,-60.2361 1062.13,-63.5404 1109.81,-65.9208"/>
<polygon fill="midnightblue" stroke="midnightblue" points="945.258,-54.2025 935.096,-57.1995 944.909,-61.1938 945.258,-54.2025"/>
</g>
<!-- Node422 -->
<g id="node21" class="node"><title>Node422</title>
<g id="a_node21"><a xlink:href="namespaceobe_1_1_editor.html#a9009207671e71dccb68a31ea2362e9ef" target="_top" xlink:title="Starts the map edition. ">
<polygon fill="white" stroke="black" points="1293,-67.5 1293,-86.5 1397,-86.5 1397,-67.5 1293,-67.5"/>
<text text-anchor="middle" x="1345" y="-74.5" font-family="Helvetica,sans-Serif" font-size="10.00">obe::Editor::editMap</text>
</a>
</g>
</g>
<!-- Node421&#45;&gt;Node422 -->
<g id="edge29" class="edge"><title>Node421&#45;&gt;Node422</title>
<path fill="none" stroke="midnightblue" d="M1245.43,-72.3749C1261.39,-73.1238 1277.99,-73.9028 1292.92,-74.6031"/>
<polygon fill="midnightblue" stroke="midnightblue" points="1245.21,-68.8608 1235.05,-71.8882 1244.88,-75.8531 1245.21,-68.8608"/>
</g>
<!-- Node422&#45;&gt;Node409 -->
<g id="edge30" class="edge"><title>Node422&#45;&gt;Node409</title>
<path fill="none" stroke="midnightblue" d="M1399.97,-88.7526C1424.64,-94.1258 1453.49,-100.409 1476.78,-105.48"/>
<polygon fill="midnightblue" stroke="midnightblue" points="1400.55,-85.297 1390.03,-86.589 1399.06,-92.1367 1400.55,-85.297"/>
</g>
<!-- Node422&#45;&gt;Node410 -->
<g id="edge31" class="edge"><title>Node422&#45;&gt;Node410</title>
<path fill="none" stroke="midnightblue" d="M1407.57,-70.019C1458.44,-66.9442 1531.25,-68.9084 1588,-96 1609.9,-106.453 1627.45,-129.927 1636.11,-143.261"/>
<polygon fill="midnightblue" stroke="midnightblue" points="1407.11,-66.5418 1397.38,-70.7197 1407.59,-73.5253 1407.11,-66.5418"/>
</g>
<!-- Node424 -->
<g id="node23" class="node"><title>Node424</title>
<g id="a_node23"><a xlink:href="namespaceobe_1_1_bindings_1_1_system_bindings.html#a22c5b1adb0db866c60e5dd2e4cd73c1b" target="_top" xlink:title="obe::Bindings::SystemBindings\l::LoadPackage">
<polygon fill="white" stroke="black" points="291,-115 291,-145 444,-145 444,-115 291,-115"/>
<text text-anchor="start" x="299" y="-133" font-family="Helvetica,sans-Serif" font-size="10.00">obe::Bindings::SystemBindings</text>
<text text-anchor="middle" x="367.5" y="-122" font-family="Helvetica,sans-Serif" font-size="10.00">::LoadPackage</text>
</a>
</g>
</g>
<!-- Node423&#45;&gt;Node424 -->
<g id="edge33" class="edge"><title>Node423&#45;&gt;Node424</title>
<path fill="none" stroke="midnightblue" d="M263.845,-130C272.714,-130 281.852,-130 290.849,-130"/>
<polygon fill="midnightblue" stroke="midnightblue" points="263.58,-126.5 253.58,-130 263.58,-133.5 263.58,-126.5"/>
</g>
<!-- Node425 -->
<g id="node24" class="node"><title>Node425</title>
<g id="a_node24"><a xlink:href="namespaceobe_1_1_script_1_1_core_lib.html#a1f5462552ef202ab28d4e0613eeda3f7" target="_top" xlink:title="obe::Script::CoreLib\l::loadPackage">
<polygon fill="white" stroke="black" points="656.5,-150 656.5,-180 759.5,-180 759.5,-150 656.5,-150"/>
<text text-anchor="start" x="664.5" y="-168" font-family="Helvetica,sans-Serif" font-size="10.00">obe::Script::CoreLib</text>
<text text-anchor="middle" x="708" y="-157" font-family="Helvetica,sans-Serif" font-size="10.00">::loadPackage</text>
</a>
</g>
</g>
<!-- Node423&#45;&gt;Node425 -->
<g id="edge34" class="edge"><title>Node423&#45;&gt;Node425</title>
<path fill="none" stroke="midnightblue" d="M254.489,-147.627C266.457,-150.617 279.055,-153.301 291,-155 421.708,-173.597 577.796,-170.738 656.418,-167.58"/>
<polygon fill="midnightblue" stroke="midnightblue" points="255.171,-144.188 244.612,-145.058 253.409,-150.963 255.171,-144.188"/>
</g>
<!-- Node425&#45;&gt;Node413 -->
<g id="edge35" class="edge"><title>Node425&#45;&gt;Node413</title>
<path fill="none" stroke="midnightblue" d="M769.858,-166.521C782.843,-166.846 796.544,-167.189 809.479,-167.512"/>
<polygon fill="midnightblue" stroke="midnightblue" points="769.709,-163.017 759.625,-166.266 769.534,-170.015 769.709,-163.017"/>
</g>
</g>
</svg>
