<?xml version="1.0" encoding="UTF-8" standalone="no"?>
<!DOCTYPE svg PUBLIC "-//W3C//DTD SVG 1.1//EN"
 "http://www.w3.org/Graphics/SVG/1.1/DTD/svg11.dtd">
<!-- Generated by graphviz version 2.38.0 (20140413.2041)
 -->
<!-- Title: obe::Graphics::LevelSprite Pages: 1 -->
<!--zoomable 154 -->
<svg id="main" version="1.1" xmlns="http://www.w3.org/2000/svg" xmlns:xlink="http://www.w3.org/1999/xlink" xml:space="preserve" onload="init(evt)">
<style type="text/css"><![CDATA[
.edge:hover path { stroke: red; }
.edge:hover polygon { stroke: red; fill: red; }
.edge path { stroke: white; }
.edge polygon { stroke: white; fill: white; }
.node polygon { fill: white; }
]]></style>
<script type="text/javascript"><![CDATA[
var edges = document.getElementsByTagName('g');
if (edges && edges.length) {
  for (var i=0;i<edges.length;i++) {
    if (edges[i].id.substr(0,4)=='edge') {
      edges[i].setAttribute('class','edge');
    }
  }
}
]]></script>
        <defs>
                <circle id="rim" cx="0" cy="0" r="7"/>
                <circle id="rim2" cx="0" cy="0" r="3.5"/>
                <g id="zoomPlus">
                        <use xlink:href="#rim" fill="#404040">
                                <set attributeName="fill" to="#808080" begin="zoomplus.mouseover" end="zoomplus.mouseout"/>
                        </use>
                        <path d="M-4,0h8M0,-4v8" fill="none" stroke="white" stroke-width="1.5" pointer-events="none"/>
                </g>
                <g id="zoomMin">
                        <use xlink:href="#rim" fill="#404040">
                                <set attributeName="fill" to="#808080" begin="zoomminus.mouseover" end="zoomminus.mouseout"/>
                        </use>
                        <path d="M-4,0h8" fill="none" stroke="white" stroke-width="1.5" pointer-events="none"/>
                </g>
                <g id="dirArrow">
                        <path fill="none" stroke="white" stroke-width="1.5" d="M0,-3.0v7 M-2.5,-0.5L0,-3.0L2.5,-0.5"/>
                </g>
               <g id="resetDef">
                       <use xlink:href="#rim2" fill="#404040">
                               <set attributeName="fill" to="#808080" begin="reset.mouseover" end="reset.mouseout"/>
                       </use>
               </g>
        </defs>

<script type="text/javascript">
var viewWidth = 739;
var viewHeight = 154;
var sectionId = 'dynsection-1';
</script>
<script xlink:href="svgpan.js"/>
<svg id="graph" class="graph">
<g id="viewport">
<title>obe::Graphics::LevelSprite</title>
<!-- Node5 -->
<g id="node1" class="node"><title>Node5</title>
<polygon fill="#bfbfbf" stroke="black" points="600,-60.5 600,-79.5 731,-79.5 731,-60.5 600,-60.5"/>
<text text-anchor="middle" x="665.5" y="-67.5" font-family="Helvetica,sans-Serif" font-size="10.00">obe::Graphics::LevelSprite</text>
</g>
<!-- Node6 -->
<g id="node2" class="node"><title>Node6</title>
<g id="a_node2"><a xlink:href="classobe_1_1_transform_1_1_unit_based_object.html" target="_top" xlink:title="Classes that works with Units should herit from this Class. ">
<polygon fill="white" stroke="black" points="431,-115 431,-145 563,-145 563,-115 431,-115"/>
<text text-anchor="start" x="439" y="-133" font-family="Helvetica,sans-Serif" font-size="10.00">obe::Transform::UnitBased</text>
<text text-anchor="middle" x="497" y="-122" font-family="Helvetica,sans-Serif" font-size="10.00">Object</text>
</a>
</g>
</g>
<!-- Node6&#45;&gt;Node5 -->
<g id="edge1" class="edge"><title>Node6&#45;&gt;Node5</title>
<path fill="none" stroke="midnightblue" d="M549.694,-111.371C579.004,-100.809 614.439,-88.0399 638.118,-79.5072"/>
<polygon fill="midnightblue" stroke="midnightblue" points="548.236,-108.176 540.015,-114.859 550.609,-114.762 548.236,-108.176"/>
</g>
<!-- Node7 -->
<g id="node3" class="node"><title>Node7</title>
<g id="a_node3"><a xlink:href="classobe_1_1_types_1_1_selectable.html" target="_top" xlink:title="A Base Class that you can select or unselect. ">
<polygon fill="white" stroke="black" points="439,-76.5 439,-95.5 555,-95.5 555,-76.5 439,-76.5"/>
<text text-anchor="middle" x="497" y="-83.5" font-family="Helvetica,sans-Serif" font-size="10.00">obe::Types::Selectable</text>
</a>
</g>
</g>
<!-- Node7&#45;&gt;Node5 -->
<g id="edge2" class="edge"><title>Node7&#45;&gt;Node5</title>
<path fill="none" stroke="midnightblue" d="M565.584,-79.5055C576.932,-78.4149 588.684,-77.2856 599.954,-76.2027"/>
<polygon fill="midnightblue" stroke="midnightblue" points="564.919,-76.0531 555.3,-80.4937 565.589,-83.021 564.919,-76.0531"/>
</g>
<!-- Node8 -->
<g id="node4" class="node"><title>Node8</title>
<g id="a_node4"><a xlink:href="classobe_1_1_transform_1_1_rect.html" target="_top" xlink:title="A Class that does represent a Rectangle with various methods to manipulate it. ">
<polygon fill="white" stroke="black" points="443.5,-38.5 443.5,-57.5 550.5,-57.5 550.5,-38.5 443.5,-38.5"/>
<text text-anchor="middle" x="497" y="-45.5" font-family="Helvetica,sans-Serif" font-size="10.00">obe::Transform::Rect</text>
</a>
</g>
</g>
<!-- Node8&#45;&gt;Node5 -->
<g id="edge3" class="edge"><title>Node8&#45;&gt;Node5</title>
<path fill="none" stroke="midnightblue" d="M560.767,-56.2935C573.557,-57.9835 587.035,-59.7644 599.888,-61.4627"/>
<polygon fill="midnightblue" stroke="midnightblue" points="561.054,-52.8011 550.682,-54.9609 560.137,-59.7408 561.054,-52.8011"/>
</g>
<!-- Node9 -->
<g id="node5" class="node"><title>Node9</title>
<g id="a_node5"><a xlink:href="classobe_1_1_transform_1_1_unit_vector.html" target="_top" xlink:title="Class widely used in the Engine to scale and position elements in a Scene. ">
<polygon fill="white" stroke="black" points="214,-38.5 214,-57.5 347,-57.5 347,-38.5 214,-38.5"/>
<text text-anchor="middle" x="280.5" y="-45.5" font-family="Helvetica,sans-Serif" font-size="10.00">obe::Transform::UnitVector</text>
</a>
</g>
</g>
<!-- Node9&#45;&gt;Node8 -->
<g id="edge4" class="edge"><title>Node9&#45;&gt;Node8</title>
<path fill="none" stroke="#9a32cd" stroke-dasharray="5,2" d="M357.35,-48C385.823,-48 417.535,-48 443.437,-48"/>
<polygon fill="#9a32cd" stroke="#9a32cd" points="357.023,-44.5001 347.023,-48 357.023,-51.5001 357.023,-44.5001"/>
<text text-anchor="middle" x="389" y="-62" font-family="Helvetica,sans-Serif" font-size="10.00"> m_size</text>
<text text-anchor="middle" x="389" y="-51" font-family="Helvetica,sans-Serif" font-size="10.00">m_position</text>
</g>
<!-- Node10 -->
<g id="node6" class="node"><title>Node10</title>
<g id="a_node6"><a xlink:href="structobe_1_1_transform_1_1_view_struct.html" target="_top" xlink:title="Struct representing the View used for internal UnitVector conversions. ">
<polygon fill="white" stroke="black" points="5,-57.5 5,-76.5 139,-76.5 139,-57.5 5,-57.5"/>
<text text-anchor="middle" x="72" y="-64.5" font-family="Helvetica,sans-Serif" font-size="10.00">obe::Transform::ViewStruct</text>
</a>
</g>
</g>
<!-- Node10&#45;&gt;Node9 -->
<g id="edge5" class="edge"><title>Node10&#45;&gt;Node9</title>
<path fill="none" stroke="#9a32cd" stroke-dasharray="5,2" d="M149.406,-59.9699C170.515,-58.0276 193.233,-55.9374 213.684,-54.0557"/>
<polygon fill="#9a32cd" stroke="#9a32cd" points="148.827,-56.5083 139.19,-60.9099 149.469,-63.4788 148.827,-56.5083"/>
<text text-anchor="middle" x="179" y="-62" font-family="Helvetica,sans-Serif" font-size="10.00"> View</text>
</g>
<!-- Node11 -->
<g id="node7" class="node"><title>Node11</title>
<g id="a_node7"><a xlink:href="structobe_1_1_transform_1_1_screen_struct.html" target="_top" xlink:title="Struct representing the Screen used for internal UnitVector conversions. ">
<polygon fill="white" stroke="black" points="0,-19.5 0,-38.5 144,-38.5 144,-19.5 0,-19.5"/>
<text text-anchor="middle" x="72" y="-26.5" font-family="Helvetica,sans-Serif" font-size="10.00">obe::Transform::ScreenStruct</text>
</a>
</g>
</g>
<!-- Node11&#45;&gt;Node9 -->
<g id="edge6" class="edge"><title>Node11&#45;&gt;Node9</title>
<path fill="none" stroke="#9a32cd" stroke-dasharray="5,2" d="M154.28,-36.4785C174.039,-38.2966 194.925,-40.2182 213.856,-41.9601"/>
<polygon fill="#9a32cd" stroke="#9a32cd" points="154.344,-32.9698 144.066,-35.5387 153.703,-39.9403 154.344,-32.9698"/>
<text text-anchor="middle" x="179" y="-44" font-family="Helvetica,sans-Serif" font-size="10.00"> Screen</text>
</g>
<!-- Node12 -->
<g id="node8" class="node"><title>Node12</title>
<g id="a_node8"><a xlink:href="classobe_1_1_types_1_1_identifiable.html" target="_top" xlink:title="A Base class that does carry an unique identifier for a given category (Sprites / Colliders etc...">
<polygon fill="white" stroke="black" points="439,-0.5 439,-19.5 555,-19.5 555,-0.5 439,-0.5"/>
<text text-anchor="middle" x="497" y="-7.5" font-family="Helvetica,sans-Serif" font-size="10.00">obe::Types::Identifiable</text>
</a>
</g>
</g>
<!-- Node12&#45;&gt;Node5 -->
<g id="edge7" class="edge"><title>Node12&#45;&gt;Node5</title>
<path fill="none" stroke="midnightblue" d="M542.783,-22.4544C549.592,-24.531 556.508,-26.7462 563,-29 590.828,-38.6609 622.167,-51.6533 642.564,-60.4014"/>
<polygon fill="midnightblue" stroke="midnightblue" points="543.531,-19.0251 532.948,-19.5226 541.531,-25.7334 543.531,-19.0251"/>
</g>
</g>
</svg>
        <g id="navigator" transform="translate(0 0)" fill="#404254">
                <rect fill="#f2f5e9" fill-opacity="0.5" stroke="#606060" stroke-width=".5" x="0" y="0" width="60" height="60"/>
                <use id="zoomplus" xlink:href="#zoomPlus" x="17" y="9" onmousedown="handleZoom(evt,'in')"/>
                <use id="zoomminus" xlink:href="#zoomMin" x="42" y="9" onmousedown="handleZoom(evt,'out')"/>
                <use id="reset" xlink:href="#resetDef" x="30" y="36" onmousedown="handleReset()"/>
                <g id="arrowUp" xlink:href="#dirArrow" transform="translate(30 24)" onmousedown="handlePan(0,-1)">
                  <use xlink:href="#rim" fill="#404040">
                        <set attributeName="fill" to="#808080" begin="arrowUp.mouseover" end="arrowUp.mouseout"/>
                  </use>
                  <path fill="none" stroke="white" stroke-width="1.5" d="M0,-3.0v7 M-2.5,-0.5L0,-3.0L2.5,-0.5"/>
                </g>
                <g id="arrowRight" xlink:href="#dirArrow" transform="rotate(90) translate(36 -43)" onmousedown="handlePan(1,0)">
                  <use xlink:href="#rim" fill="#404040">
                        <set attributeName="fill" to="#808080" begin="arrowRight.mouseover" end="arrowRight.mouseout"/>
                  </use>
                  <path fill="none" stroke="white" stroke-width="1.5" d="M0,-3.0v7 M-2.5,-0.5L0,-3.0L2.5,-0.5"/>
                </g>
                <g id="arrowDown" xlink:href="#dirArrow" transform="rotate(180) translate(-30 -48)" onmousedown="handlePan(0,1)">
                  <use xlink:href="#rim" fill="#404040">
                        <set attributeName="fill" to="#808080" begin="arrowDown.mouseover" end="arrowDown.mouseout"/>
                  </use>
                  <path fill="none" stroke="white" stroke-width="1.5" d="M0,-3.0v7 M-2.5,-0.5L0,-3.0L2.5,-0.5"/>
                </g>
                <g id="arrowLeft" xlink:href="#dirArrow" transform="rotate(270) translate(-36 17)" onmousedown="handlePan(-1,0)">
                  <use xlink:href="#rim" fill="#404040">
                        <set attributeName="fill" to="#808080" begin="arrowLeft.mouseover" end="arrowLeft.mouseout"/>
                  </use>
                  <path fill="none" stroke="white" stroke-width="1.5" d="M0,-3.0v7 M-2.5,-0.5L0,-3.0L2.5,-0.5"/>
                </g>
        </g>
        <svg viewBox="0 0 15 15" width="100%" height="30px" preserveAspectRatio="xMaxYMin meet">
         <g id="arrow_out" transform="scale(0.3 0.3)">
          <a xlink:href="classobe_1_1_graphics_1_1_level_sprite__coll__graph_org.svg" target="_base">
           <rect id="button" ry="5" rx="5" y="6" x="6" height="38" width="38"
                fill="#f2f5e9" fill-opacity="0.5" stroke="#606060" stroke-width="1.0"/>
           <path id="arrow"
             d="M 11.500037,31.436501 C 11.940474,20.09759 22.043105,11.32322 32.158766,21.979434 L 37.068811,17.246167 C 37.068811,17.246167 37.088388,32 37.088388,32 L 22.160133,31.978069 C 22.160133,31.978069 26.997745,27.140456 26.997745,27.140456 C 18.528582,18.264221 13.291696,25.230495 11.500037,31.436501 z"
             style="fill:#404040;"/>
          </a>
         </g>
        </svg>
</svg>
