<?xml version="1.0" encoding="UTF-8" standalone="no"?>
<!DOCTYPE svg PUBLIC "-//W3C//DTD SVG 1.1//EN"
 "http://www.w3.org/Graphics/SVG/1.1/DTD/svg11.dtd">
<!-- Generated by graphviz version 2.38.0 (20140413.2041)
 -->
<!-- Title: obe::Input::InputButton::getName Pages: 1 -->
<!--zoomable 198 -->
<svg id="main" version="1.1" xmlns="http://www.w3.org/2000/svg" xmlns:xlink="http://www.w3.org/1999/xlink" xml:space="preserve" onload="init(evt)">
<style type="text/css"><![CDATA[
.edge:hover path { stroke: red; }
.edge:hover polygon { stroke: red; fill: red; }
.edge path { stroke: white; }
.edge polygon { stroke: white; fill: white; }
.node polygon { fill: white; }
]]></style>
<script type="text/javascript"><![CDATA[
var edges = document.getElementsByTagName('g');
if (edges && edges.length) {
  for (var i=0;i<edges.length;i++) {
    if (edges[i].id.substr(0,4)=='edge') {
      edges[i].setAttribute('class','edge');
    }
  }
}
]]></script>
        <defs>
                <circle id="rim" cx="0" cy="0" r="7"/>
                <circle id="rim2" cx="0" cy="0" r="3.5"/>
                <g id="zoomPlus">
                        <use xlink:href="#rim" fill="#404040">
                                <set attributeName="fill" to="#808080" begin="zoomplus.mouseover" end="zoomplus.mouseout"/>
                        </use>
                        <path d="M-4,0h8M0,-4v8" fill="none" stroke="white" stroke-width="1.5" pointer-events="none"/>
                </g>
                <g id="zoomMin">
                        <use xlink:href="#rim" fill="#404040">
                                <set attributeName="fill" to="#808080" begin="zoomminus.mouseover" end="zoomminus.mouseout"/>
                        </use>
                        <path d="M-4,0h8" fill="none" stroke="white" stroke-width="1.5" pointer-events="none"/>
                </g>
                <g id="dirArrow">
                        <path fill="none" stroke="white" stroke-width="1.5" d="M0,-3.0v7 M-2.5,-0.5L0,-3.0L2.5,-0.5"/>
                </g>
               <g id="resetDef">
                       <use xlink:href="#rim2" fill="#404040">
                               <set attributeName="fill" to="#808080" begin="reset.mouseover" end="reset.mouseout"/>
                       </use>
               </g>
        </defs>

<script type="text/javascript">
var viewWidth = 904;
var viewHeight = 198;
var sectionId = 'dynsection-3';
</script>
<script xlink:href="svgpan.js"/>
<svg id="graph" class="graph">
<g id="viewport">
<title>obe::Input::InputButton::getName</title>
<!-- Node16 -->
<g id="node1" class="node"><title>Node16</title>
<polygon fill="#bfbfbf" stroke="black" points="0,-134 0,-164 115,-164 115,-134 0,-134"/>
<text text-anchor="start" x="8" y="-152" font-family="Helvetica,sans-Serif" font-size="10.00">obe::Input::InputButton</text>
<text text-anchor="middle" x="57.5" y="-141" font-family="Helvetica,sans-Serif" font-size="10.00">::getName</text>
</g>
<!-- Node17 -->
<g id="node2" class="node"><title>Node17</title>
<g id="a_node2"><a xlink:href="namespaceobe_1_1_bindings_1_1_input_bindings.html#abb08a4b38fd23b477de025ac406e863d" target="_top" xlink:title="obe::Bindings::InputBindings\l::LoadInputButton">
<polygon fill="none" stroke="black" points="151,-159 151,-189 291,-189 291,-159 151,-159"/>
<text text-anchor="start" x="159" y="-177" font-family="Helvetica,sans-Serif" font-size="10.00">obe::Bindings::InputBindings</text>
<text text-anchor="middle" x="221" y="-166" font-family="Helvetica,sans-Serif" font-size="10.00">::LoadInputButton</text>
</a>
</g>
</g>
<!-- Node16&#45;&gt;Node17 -->
<g id="edge1" class="edge"><title>Node16&#45;&gt;Node17</title>
<path fill="none" stroke="midnightblue" d="M125.512,-159.373C133.874,-160.668 142.437,-161.993 150.83,-163.293"/>
<polygon fill="midnightblue" stroke="midnightblue" points="125.857,-155.885 115.439,-157.814 124.786,-162.803 125.857,-155.885"/>
</g>
<!-- Node20 -->
<g id="node5" class="node"><title>Node20</title>
<g id="a_node5"><a xlink:href="classobe_1_1_input_1_1_input_condition.html#ac2722d5f8ee8a3f5959a0f544e6853fd" target="_top" xlink:title="Uses a parsable string to define the InputCombination &lt;DOCUMENT&gt; ">
<polygon fill="none" stroke="black" points="157.5,-110 157.5,-140 284.5,-140 284.5,-110 157.5,-110"/>
<text text-anchor="start" x="165.5" y="-128" font-family="Helvetica,sans-Serif" font-size="10.00">obe::Input::InputCondition</text>
<text text-anchor="middle" x="221" y="-117" font-family="Helvetica,sans-Serif" font-size="10.00">::setCombinationCode</text>
</a>
</g>
</g>
<!-- Node16&#45;&gt;Node20 -->
<g id="edge4" class="edge"><title>Node16&#45;&gt;Node20</title>
<path fill="none" stroke="midnightblue" d="M125.418,-139.055C135.956,-137.49 146.817,-135.875 157.256,-134.324"/>
<polygon fill="midnightblue" stroke="midnightblue" points="124.816,-135.607 115.439,-140.538 125.845,-142.53 124.816,-135.607"/>
</g>
<!-- Node18 -->
<g id="node3" class="node"><title>Node18</title>
<g id="a_node3"><a xlink:href="namespaceobe_1_1_bindings.html#a41d33207a0199f125c75a0f70a4a3ba8" target="_top" xlink:title="To call when the engine starts, indexes all Lua bindings. ">
<polygon fill="none" stroke="black" points="679,-120.5 679,-139.5 822,-139.5 822,-120.5 679,-120.5"/>
<text text-anchor="middle" x="750.5" y="-127.5" font-family="Helvetica,sans-Serif" font-size="10.00">obe::Bindings::IndexBindings</text>
</a>
</g>
</g>
<!-- Node17&#45;&gt;Node18 -->
<g id="edge2" class="edge"><title>Node17&#45;&gt;Node18</title>
<path fill="none" stroke="midnightblue" d="M301.056,-169.314C385.737,-164.029 524.021,-154.635 643,-143 654.586,-141.867 666.863,-140.512 678.803,-139.112"/>
<polygon fill="midnightblue" stroke="midnightblue" points="300.764,-165.825 291,-169.938 301.198,-172.812 300.764,-165.825"/>
</g>
<!-- Node19 -->
<g id="node4" class="node"><title>Node19</title>
<g id="a_node4"><a xlink:href="_ob_engine_8cpp.html#a3c04138a5bfe5d72780bb7e82a18e627" target="_top" xlink:title="main">
<polygon fill="none" stroke="black" points="858,-57.5 858,-76.5 896,-76.5 896,-57.5 858,-57.5"/>
<text text-anchor="middle" x="877" y="-64.5" font-family="Helvetica,sans-Serif" font-size="10.00">main</text>
</a>
</g>
</g>
<!-- Node18&#45;&gt;Node19 -->
<g id="edge3" class="edge"><title>Node18&#45;&gt;Node19</title>
<path fill="none" stroke="midnightblue" d="M785.794,-116.59C797.454,-111.721 810.451,-105.946 822,-100 835.871,-92.8588 850.969,-83.4865 861.664,-76.5554"/>
<polygon fill="midnightblue" stroke="midnightblue" points="784.301,-113.42 776.376,-120.451 786.956,-119.897 784.301,-113.42"/>
</g>
<!-- Node21 -->
<g id="node6" class="node"><title>Node21</title>
<g id="a_node6"><a xlink:href="namespaceobe_1_1_bindings_1_1_input_bindings.html#a4498db674cd3c2fbe605e0676eef751d" target="_top" xlink:title="obe::Bindings::InputBindings\l::LoadInputCondition">
<polygon fill="none" stroke="black" points="327,-113 327,-143 467,-143 467,-113 327,-113"/>
<text text-anchor="start" x="335" y="-131" font-family="Helvetica,sans-Serif" font-size="10.00">obe::Bindings::InputBindings</text>
<text text-anchor="middle" x="397" y="-120" font-family="Helvetica,sans-Serif" font-size="10.00">::LoadInputCondition</text>
</a>
</g>
</g>
<!-- Node20&#45;&gt;Node21 -->
<g id="edge5" class="edge"><title>Node20&#45;&gt;Node21</title>
<path fill="none" stroke="midnightblue" d="M294.85,-126.256C305.427,-126.438 316.291,-126.626 326.793,-126.807"/>
<polygon fill="midnightblue" stroke="midnightblue" points="294.877,-122.756 284.818,-126.083 294.756,-129.755 294.877,-122.756"/>
</g>
<!-- Node22 -->
<g id="node7" class="node"><title>Node22</title>
<g id="a_node7"><a xlink:href="classobe_1_1_input_1_1_input_manager.html#adf10d43635b0d5c29bbb4839d083e150" target="_top" xlink:title="Configure KeyboardAction from a vili configuration file. ">
<polygon fill="none" stroke="black" points="335,-48 335,-78 459,-78 459,-48 335,-48"/>
<text text-anchor="start" x="343" y="-66" font-family="Helvetica,sans-Serif" font-size="10.00">obe::Input::InputManager</text>
<text text-anchor="middle" x="397" y="-55" font-family="Helvetica,sans-Serif" font-size="10.00">::configure</text>
</a>
</g>
</g>
<!-- Node20&#45;&gt;Node22 -->
<g id="edge7" class="edge"><title>Node20&#45;&gt;Node22</title>
<path fill="none" stroke="midnightblue" d="M273.635,-106.601C299.147,-97.511 329.547,-86.6786 353.664,-78.0851"/>
<polygon fill="midnightblue" stroke="midnightblue" points="272.366,-103.338 264.121,-109.992 274.715,-109.932 272.366,-103.338"/>
</g>
<!-- Node21&#45;&gt;Node18 -->
<g id="edge6" class="edge"><title>Node21&#45;&gt;Node18</title>
<path fill="none" stroke="midnightblue" d="M477.303,-128.451C537.853,-128.796 620.527,-129.266 678.826,-129.598"/>
<polygon fill="midnightblue" stroke="midnightblue" points="477.045,-124.95 467.026,-128.393 477.006,-131.95 477.045,-124.95"/>
</g>
<!-- Node23 -->
<g id="node8" class="node"><title>Node23</title>
<g id="a_node8"><a xlink:href="namespaceobe_1_1_bindings_1_1_input_bindings.html#a0e18c5fd5d863156b05c62dafface3b3" target="_top" xlink:title="obe::Bindings::InputBindings\l::LoadInputManager">
<polygon fill="none" stroke="black" points="503,-77 503,-107 643,-107 643,-77 503,-77"/>
<text text-anchor="start" x="511" y="-95" font-family="Helvetica,sans-Serif" font-size="10.00">obe::Bindings::InputBindings</text>
<text text-anchor="middle" x="573" y="-84" font-family="Helvetica,sans-Serif" font-size="10.00">::LoadInputManager</text>
</a>
</g>
</g>
<!-- Node22&#45;&gt;Node23 -->
<g id="edge8" class="edge"><title>Node22&#45;&gt;Node23</title>
<path fill="none" stroke="midnightblue" d="M469.393,-74.8989C480.464,-76.744 491.884,-78.6473 502.903,-80.4838"/>
<polygon fill="midnightblue" stroke="midnightblue" points="469.785,-71.416 459.346,-73.2243 468.634,-78.3208 469.785,-71.416"/>
</g>
<!-- Node24 -->
<g id="node9" class="node"><title>Node24</title>
<g id="a_node9"><a xlink:href="namespaceobe_1_1_editor.html#a9009207671e71dccb68a31ea2362e9ef" target="_top" xlink:title="Starts the map edition. ">
<polygon fill="none" stroke="black" points="521,-38.5 521,-57.5 625,-57.5 625,-38.5 521,-38.5"/>
<text text-anchor="middle" x="573" y="-45.5" font-family="Helvetica,sans-Serif" font-size="10.00">obe::Editor::editMap</text>
</a>
</g>
</g>
<!-- Node22&#45;&gt;Node24 -->
<g id="edge10" class="edge"><title>Node22&#45;&gt;Node24</title>
<path fill="none" stroke="midnightblue" d="M469.408,-56.8442C486.7,-55.3535 504.842,-53.7895 520.979,-52.3984"/>
<polygon fill="midnightblue" stroke="midnightblue" points="469.008,-53.3655 459.346,-57.7116 469.61,-60.3397 469.008,-53.3655"/>
</g>
<!-- Node26 -->
<g id="node11" class="node"><title>Node26</title>
<g id="a_node11"><a xlink:href="namespaceobe_1_1_modes.html#a5f4a1008892030350b06282b8dee1a89" target="_top" xlink:title="Start the game by loading the boot.lua file in one of the MountedPaths. ">
<polygon fill="none" stroke="black" points="513.5,-0.5 513.5,-19.5 632.5,-19.5 632.5,-0.5 513.5,-0.5"/>
<text text-anchor="middle" x="573" y="-7.5" font-family="Helvetica,sans-Serif" font-size="10.00">obe::Modes::startGame</text>
</a>
</g>
</g>
<!-- Node22&#45;&gt;Node26 -->
<g id="edge14" class="edge"><title>Node22&#45;&gt;Node26</title>
<path fill="none" stroke="midnightblue" d="M452.658,-44.7928C468.821,-39.5465 486.583,-33.9157 503,-29 513.713,-25.7924 525.421,-22.4918 536.101,-19.56"/>
<polygon fill="midnightblue" stroke="midnightblue" points="451.248,-41.571 442.827,-47.9999 453.419,-48.2259 451.248,-41.571"/>
</g>
<!-- Node23&#45;&gt;Node18 -->
<g id="edge9" class="edge"><title>Node23&#45;&gt;Node18</title>
<path fill="none" stroke="midnightblue" d="M653.047,-109.116C671.06,-113.016 689.567,-117.023 705.491,-120.471"/>
<polygon fill="midnightblue" stroke="midnightblue" points="653.625,-105.66 643.11,-106.964 652.143,-112.501 653.625,-105.66"/>
</g>
<!-- Node24&#45;&gt;Node19 -->
<g id="edge13" class="edge"><title>Node24&#45;&gt;Node19</title>
<path fill="none" stroke="midnightblue" d="M626.761,-59.4514C643.391,-62.5471 661.887,-65.4641 679,-67 744.574,-72.8851 822.921,-69.9196 857.754,-68.0863"/>
<polygon fill="midnightblue" stroke="midnightblue" points="627.158,-55.9636 616.677,-57.5115 625.835,-62.8376 627.158,-55.9636"/>
</g>
<!-- Node25 -->
<g id="node10" class="node"><title>Node25</title>
<g id="a_node10"><a xlink:href="namespaceobe_1_1_modes.html#a6a8b08eee511d4895c4da96d4ba223a6" target="_top" xlink:title="Starts the development Menu where you can starts other menus from. ">
<polygon fill="none" stroke="black" points="684,-38.5 684,-57.5 817,-57.5 817,-38.5 684,-38.5"/>
<text text-anchor="middle" x="750.5" y="-45.5" font-family="Helvetica,sans-Serif" font-size="10.00">obe::Modes::startDevMenu</text>
</a>
</g>
</g>
<!-- Node24&#45;&gt;Node25 -->
<g id="edge11" class="edge"><title>Node24&#45;&gt;Node25</title>
<path fill="none" stroke="midnightblue" d="M635.332,-48C651.006,-48 667.92,-48 683.804,-48"/>
<polygon fill="midnightblue" stroke="midnightblue" points="635.234,-44.5001 625.234,-48 635.234,-51.5001 635.234,-44.5001"/>
</g>
<!-- Node25&#45;&gt;Node19 -->
<g id="edge12" class="edge"><title>Node25&#45;&gt;Node19</title>
<path fill="none" stroke="midnightblue" d="M824.187,-59.0928C836.642,-60.9936 848.523,-62.8068 857.759,-64.2163"/>
<polygon fill="midnightblue" stroke="midnightblue" points="824.528,-55.6044 814.115,-57.5557 823.472,-62.5243 824.528,-55.6044"/>
</g>
<!-- Node26&#45;&gt;Node19 -->
<g id="edge16" class="edge"><title>Node26&#45;&gt;Node19</title>
<path fill="none" stroke="midnightblue" d="M642.937,-5.62494C693.868,-4.67131 764.114,-8.20814 822,-29 839.046,-35.1228 855.621,-48.1627 865.813,-57.2492"/>
<polygon fill="midnightblue" stroke="midnightblue" points="642.605,-2.13208 632.696,-5.88181 642.78,-9.12988 642.605,-2.13208"/>
</g>
<!-- Node26&#45;&gt;Node25 -->
<g id="edge15" class="edge"><title>Node26&#45;&gt;Node25</title>
<path fill="none" stroke="midnightblue" d="M628.278,-21.7526C653.094,-27.1258 682.111,-33.4086 705.532,-38.4799"/>
<polygon fill="midnightblue" stroke="midnightblue" points="628.8,-18.2846 618.286,-19.589 627.319,-25.126 628.8,-18.2846"/>
</g>
</g>
</svg>
        <g id="navigator" transform="translate(0 0)" fill="#404254">
                <rect fill="#f2f5e9" fill-opacity="0.5" stroke="#606060" stroke-width=".5" x="0" y="0" width="60" height="60"/>
                <use id="zoomplus" xlink:href="#zoomPlus" x="17" y="9" onmousedown="handleZoom(evt,'in')"/>
                <use id="zoomminus" xlink:href="#zoomMin" x="42" y="9" onmousedown="handleZoom(evt,'out')"/>
                <use id="reset" xlink:href="#resetDef" x="30" y="36" onmousedown="handleReset()"/>
                <g id="arrowUp" xlink:href="#dirArrow" transform="translate(30 24)" onmousedown="handlePan(0,-1)">
                  <use xlink:href="#rim" fill="#404040">
                        <set attributeName="fill" to="#808080" begin="arrowUp.mouseover" end="arrowUp.mouseout"/>
                  </use>
                  <path fill="none" stroke="white" stroke-width="1.5" d="M0,-3.0v7 M-2.5,-0.5L0,-3.0L2.5,-0.5"/>
                </g>
                <g id="arrowRight" xlink:href="#dirArrow" transform="rotate(90) translate(36 -43)" onmousedown="handlePan(1,0)">
                  <use xlink:href="#rim" fill="#404040">
                        <set attributeName="fill" to="#808080" begin="arrowRight.mouseover" end="arrowRight.mouseout"/>
                  </use>
                  <path fill="none" stroke="white" stroke-width="1.5" d="M0,-3.0v7 M-2.5,-0.5L0,-3.0L2.5,-0.5"/>
                </g>
                <g id="arrowDown" xlink:href="#dirArrow" transform="rotate(180) translate(-30 -48)" onmousedown="handlePan(0,1)">
                  <use xlink:href="#rim" fill="#404040">
                        <set attributeName="fill" to="#808080" begin="arrowDown.mouseover" end="arrowDown.mouseout"/>
                  </use>
                  <path fill="none" stroke="white" stroke-width="1.5" d="M0,-3.0v7 M-2.5,-0.5L0,-3.0L2.5,-0.5"/>
                </g>
                <g id="arrowLeft" xlink:href="#dirArrow" transform="rotate(270) translate(-36 17)" onmousedown="handlePan(-1,0)">
                  <use xlink:href="#rim" fill="#404040">
                        <set attributeName="fill" to="#808080" begin="arrowLeft.mouseover" end="arrowLeft.mouseout"/>
                  </use>
                  <path fill="none" stroke="white" stroke-width="1.5" d="M0,-3.0v7 M-2.5,-0.5L0,-3.0L2.5,-0.5"/>
                </g>
        </g>
        <svg viewBox="0 0 15 15" width="100%" height="30px" preserveAspectRatio="xMaxYMin meet">
         <g id="arrow_out" transform="scale(0.3 0.3)">
          <a xlink:href="classobe_1_1_input_1_1_input_button_ab694602ebba22d7a412fc352278f69ca_icgraph_org.svg" target="_base">
           <rect id="button" ry="5" rx="5" y="6" x="6" height="38" width="38"
                fill="#f2f5e9" fill-opacity="0.5" stroke="#606060" stroke-width="1.0"/>
           <path id="arrow"
             d="M 11.500037,31.436501 C 11.940474,20.09759 22.043105,11.32322 32.158766,21.979434 L 37.068811,17.246167 C 37.068811,17.246167 37.088388,32 37.088388,32 L 22.160133,31.978069 C 22.160133,31.978069 26.997745,27.140456 26.997745,27.140456 C 18.528582,18.264221 13.291696,25.230495 11.500037,31.436501 z"
             style="fill:#404040;"/>
          </a>
         </g>
        </svg>
</svg>
