<?xml version="1.0" encoding="UTF-8" standalone="no"?>
<!DOCTYPE svg PUBLIC "-//W3C//DTD SVG 1.1//EN"
 "http://www.w3.org/Graphics/SVG/1.1/DTD/svg11.dtd">
<!-- Generated by graphviz version 2.38.0 (20140413.2041)
 -->
<!-- Title: ziputils::zipper::~zipper Pages: 1 -->
<svg width="407pt" height="39pt"
 viewBox="0.00 0.00 407.00 39.00" xmlns="http://www.w3.org/2000/svg" xmlns:xlink="http://www.w3.org/1999/xlink">
<g id="graph0" class="graph" transform="scale(1 1) rotate(0) translate(4 35)">
<title>ziputils::zipper::~zipper</title>
<!-- Node2 -->
<g id="node1" class="node"><title>Node2</title>
<polygon fill="#bfbfbf" stroke="black" points="0,-0.5 0,-30.5 86,-30.5 86,-0.5 0,-0.5"/>
<text text-anchor="start" x="8" y="-18.5" font-family="Helvetica,sans-Serif" font-size="10.00">ziputils::zipper::</text>
<text text-anchor="middle" x="43" y="-7.5" font-family="Helvetica,sans-Serif" font-size="10.00">~zipper</text>
</g>
<!-- Node3 -->
<g id="node2" class="node"><title>Node3</title>
<g id="a_node2"><a xlink:href="classziputils_1_1zipper.html#a383a3214aa40be90cfef9a2a60757689" target="_top" xlink:title="ziputils::zipper::close">
<polygon fill="none" stroke="black" points="122,-6 122,-25 231,-25 231,-6 122,-6"/>
<text text-anchor="middle" x="176.5" y="-13" font-family="Helvetica,sans-Serif" font-size="10.00">ziputils::zipper::close</text>
</a>
</g>
</g>
<!-- Node2&#45;&gt;Node3 -->
<g id="edge1" class="edge"><title>Node2&#45;&gt;Node3</title>
<path fill="none" stroke="midnightblue" d="M86.3313,-15.5C94.426,-15.5 103.065,-15.5 111.661,-15.5"/>
<polygon fill="midnightblue" stroke="midnightblue" points="111.697,-19.0001 121.697,-15.5 111.697,-12.0001 111.697,-19.0001"/>
</g>
<!-- Node4 -->
<g id="node3" class="node"><title>Node4</title>
<g id="a_node3"><a xlink:href="classziputils_1_1zipper.html#a48c9c6334cff890fc7c638f9b2ac35a3" target="_top" xlink:title="ziputils::zipper::closeEntry">
<polygon fill="none" stroke="black" points="267,-6 267,-25 399,-25 399,-6 267,-6"/>
<text text-anchor="middle" x="333" y="-13" font-family="Helvetica,sans-Serif" font-size="10.00">ziputils::zipper::closeEntry</text>
</a>
</g>
</g>
<!-- Node3&#45;&gt;Node4 -->
<g id="edge2" class="edge"><title>Node3&#45;&gt;Node4</title>
<path fill="none" stroke="midnightblue" d="M231.103,-15.5C239.372,-15.5 248.041,-15.5 256.677,-15.5"/>
<polygon fill="midnightblue" stroke="midnightblue" points="256.776,-19.0001 266.775,-15.5 256.775,-12.0001 256.776,-19.0001"/>
</g>
</g>
</svg>
