<?xml version="1.0" encoding="UTF-8" standalone="no"?>
<!DOCTYPE svg PUBLIC "-//W3C//DTD SVG 1.1//EN"
 "http://www.w3.org/Graphics/SVG/1.1/DTD/svg11.dtd">
<!-- Generated by graphviz version 2.38.0 (20140413.2041)
 -->
<!-- Title: obe::Collision::PolygonalCollider::doesCollideWithTags Pages: 1 -->
<svg width="867pt" height="382pt"
 viewBox="0.00 0.00 867.00 382.00" xmlns="http://www.w3.org/2000/svg" xmlns:xlink="http://www.w3.org/1999/xlink">
<g id="graph0" class="graph" transform="scale(1 1) rotate(0) translate(4 378)">
<title>obe::Collision::PolygonalCollider::doesCollideWithTags</title>
<!-- Node162 -->
<g id="node1" class="node"><title>Node162</title>
<polygon fill="#bfbfbf" stroke="black" points="0,-220.5 0,-250.5 146,-250.5 146,-220.5 0,-220.5"/>
<text text-anchor="start" x="8" y="-238.5" font-family="Helvetica,sans-Serif" font-size="10.00">obe::Collision::Polygonal</text>
<text text-anchor="middle" x="73" y="-227.5" font-family="Helvetica,sans-Serif" font-size="10.00">Collider::doesCollideWithTags</text>
</g>
<!-- Node163 -->
<g id="node2" class="node"><title>Node163</title>
<g id="a_node2"><a xlink:href="classobe_1_1_collision_1_1_polygonal_collider.html#ac4eaed27964092ed35f9994207c77d47" target="_top" xlink:title="obe::Collision::Polygonal\lCollider::clearExcludedTags">
<polygon fill="none" stroke="black" points="182,-245.5 182,-275.5 319,-275.5 319,-245.5 182,-245.5"/>
<text text-anchor="start" x="190" y="-263.5" font-family="Helvetica,sans-Serif" font-size="10.00">obe::Collision::Polygonal</text>
<text text-anchor="middle" x="250.5" y="-252.5" font-family="Helvetica,sans-Serif" font-size="10.00">Collider::clearExcludedTags</text>
</a>
</g>
</g>
<!-- Node162&#45;&gt;Node163 -->
<g id="edge1" class="edge"><title>Node162&#45;&gt;Node163</title>
<path fill="none" stroke="midnightblue" d="M146.142,-245.777C154.636,-246.987 163.332,-248.225 171.897,-249.445"/>
<polygon fill="midnightblue" stroke="midnightblue" points="171.478,-252.921 181.871,-250.866 172.465,-245.991 171.478,-252.921"/>
</g>
<!-- Node164 -->
<g id="node3" class="node"><title>Node164</title>
<g id="a_node3"><a xlink:href="classobe_1_1_collision_1_1_polygonal_collider.html#af37dad690ea1c82c605761b1d6218d14" target="_top" xlink:title="obe::Collision::Polygonal\lCollider::testAllColliders">
<polygon fill="none" stroke="black" points="188.5,-196.5 188.5,-226.5 312.5,-226.5 312.5,-196.5 188.5,-196.5"/>
<text text-anchor="start" x="196.5" y="-214.5" font-family="Helvetica,sans-Serif" font-size="10.00">obe::Collision::Polygonal</text>
<text text-anchor="middle" x="250.5" y="-203.5" font-family="Helvetica,sans-Serif" font-size="10.00">Collider::testAllColliders</text>
</a>
</g>
</g>
<!-- Node162&#45;&gt;Node164 -->
<g id="edge2" class="edge"><title>Node162&#45;&gt;Node164</title>
<path fill="none" stroke="midnightblue" d="M146.142,-225.634C156.746,-224.184 167.663,-222.691 178.249,-221.244"/>
<polygon fill="midnightblue" stroke="midnightblue" points="178.841,-224.695 188.275,-219.873 177.893,-217.76 178.841,-224.695"/>
</g>
<!-- Node165 -->
<g id="node4" class="node"><title>Node165</title>
<g id="a_node4"><a xlink:href="classobe_1_1_collision_1_1_polygonal_collider.html#a77d1bcd6dee0f06683bfbffefca58206" target="_top" xlink:title="obe::Collision::Polygonal\lCollider::doesCollide">
<polygon fill="none" stroke="black" points="355,-196.5 355,-226.5 479,-226.5 479,-196.5 355,-196.5"/>
<text text-anchor="start" x="363" y="-214.5" font-family="Helvetica,sans-Serif" font-size="10.00">obe::Collision::Polygonal</text>
<text text-anchor="middle" x="417" y="-203.5" font-family="Helvetica,sans-Serif" font-size="10.00">Collider::doesCollide</text>
</a>
</g>
</g>
<!-- Node164&#45;&gt;Node165 -->
<g id="edge3" class="edge"><title>Node164&#45;&gt;Node165</title>
<path fill="none" stroke="midnightblue" d="M312.754,-211.5C323.207,-211.5 334.144,-211.5 344.828,-211.5"/>
<polygon fill="midnightblue" stroke="midnightblue" points="344.969,-215 354.969,-211.5 344.969,-208 344.969,-215"/>
</g>
<!-- Node166 -->
<g id="node5" class="node"><title>Node166</title>
<g id="a_node5"><a xlink:href="classobe_1_1_collision_1_1_polygonal_collider.html#abdc6f9d207b65d5a6bf79bb58ee01cca" target="_top" xlink:title="obe::Collision::Polygonal\lCollider::isATagExcluded">
<polygon fill="none" stroke="black" points="530.5,-343.5 530.5,-373.5 655.5,-373.5 655.5,-343.5 530.5,-343.5"/>
<text text-anchor="start" x="538.5" y="-361.5" font-family="Helvetica,sans-Serif" font-size="10.00">obe::Collision::Polygonal</text>
<text text-anchor="middle" x="593" y="-350.5" font-family="Helvetica,sans-Serif" font-size="10.00">Collider::isATagExcluded</text>
</a>
</g>
</g>
<!-- Node165&#45;&gt;Node166 -->
<g id="edge4" class="edge"><title>Node165&#45;&gt;Node166</title>
<path fill="none" stroke="midnightblue" d="M425.98,-226.791C440.31,-252.771 472.878,-305.522 515,-334.5 517.248,-336.046 519.599,-337.496 522.026,-338.856"/>
<polygon fill="midnightblue" stroke="midnightblue" points="520.581,-342.046 531.09,-343.391 523.713,-335.786 520.581,-342.046"/>
</g>
<!-- Node168 -->
<g id="node7" class="node"><title>Node168</title>
<g id="a_node7"><a xlink:href="classobe_1_1_collision_1_1_polygonal_collider.html#a8a4211aadf7a5e8bced2fe87651e0212" target="_top" xlink:title="obe::Collision::Polygonal\lCollider::getAllTags">
<polygon fill="none" stroke="black" points="531,-294.5 531,-324.5 655,-324.5 655,-294.5 531,-294.5"/>
<text text-anchor="start" x="539" y="-312.5" font-family="Helvetica,sans-Serif" font-size="10.00">obe::Collision::Polygonal</text>
<text text-anchor="middle" x="593" y="-301.5" font-family="Helvetica,sans-Serif" font-size="10.00">Collider::getAllTags</text>
</a>
</g>
</g>
<!-- Node165&#45;&gt;Node168 -->
<g id="edge6" class="edge"><title>Node165&#45;&gt;Node168</title>
<path fill="none" stroke="midnightblue" d="M433.954,-226.523C452.251,-243.036 483.763,-269.36 515,-285.5 518.538,-287.328 522.239,-289.046 526.025,-290.656"/>
<polygon fill="midnightblue" stroke="midnightblue" points="524.977,-294.005 535.563,-294.436 527.556,-287.498 524.977,-294.005"/>
</g>
<!-- Node169 -->
<g id="node8" class="node"><title>Node169</title>
<g id="a_node8"><a xlink:href="classobe_1_1_collision_1_1_polygonal_collider.html#a02b72d53bd07384d0c9b72506af05928" target="_top" xlink:title="obe::Collision::Polygonal\lCollider::isATagAccepted">
<polygon fill="none" stroke="black" points="530,-245.5 530,-275.5 656,-275.5 656,-245.5 530,-245.5"/>
<text text-anchor="start" x="538" y="-263.5" font-family="Helvetica,sans-Serif" font-size="10.00">obe::Collision::Polygonal</text>
<text text-anchor="middle" x="593" y="-252.5" font-family="Helvetica,sans-Serif" font-size="10.00">Collider::isATagAccepted</text>
</a>
</g>
</g>
<!-- Node165&#45;&gt;Node169 -->
<g id="edge7" class="edge"><title>Node165&#45;&gt;Node169</title>
<path fill="none" stroke="midnightblue" d="M471.626,-226.601C489.737,-231.702 510.124,-237.443 528.9,-242.73"/>
<polygon fill="midnightblue" stroke="midnightblue" points="527.977,-246.107 538.552,-245.448 529.875,-239.369 527.977,-246.107"/>
</g>
<!-- Node170 -->
<g id="node9" class="node"><title>Node170</title>
<g id="a_node9"><a xlink:href="classobe_1_1_collision_1_1_polygonal_collider.html#aa5b7c9f68e408e8ab1c09804377c89d5" target="_top" xlink:title="obe::Collision::Polygonal\lCollider::getAllPoints">
<polygon fill="none" stroke="black" points="531,-196.5 531,-226.5 655,-226.5 655,-196.5 531,-196.5"/>
<text text-anchor="start" x="539" y="-214.5" font-family="Helvetica,sans-Serif" font-size="10.00">obe::Collision::Polygonal</text>
<text text-anchor="middle" x="593" y="-203.5" font-family="Helvetica,sans-Serif" font-size="10.00">Collider::getAllPoints</text>
</a>
</g>
</g>
<!-- Node165&#45;&gt;Node170 -->
<g id="edge9" class="edge"><title>Node165&#45;&gt;Node170</title>
<path fill="none" stroke="midnightblue" d="M479.346,-211.5C492.679,-211.5 506.894,-211.5 520.578,-211.5"/>
<polygon fill="midnightblue" stroke="midnightblue" points="520.915,-215 530.915,-211.5 520.915,-208 520.915,-215"/>
</g>
<!-- Node171 -->
<g id="node10" class="node"><title>Node171</title>
<g id="a_node10"><a xlink:href="classobe_1_1_collision_1_1_polygonal_collider.html#aa6af540369863706dbe5a91b8fcb3a72" target="_top" xlink:title="obe::Collision::Polygonal\lCollider::clearHighlights">
<polygon fill="none" stroke="black" points="531,-147.5 531,-177.5 655,-177.5 655,-147.5 531,-147.5"/>
<text text-anchor="start" x="539" y="-165.5" font-family="Helvetica,sans-Serif" font-size="10.00">obe::Collision::Polygonal</text>
<text text-anchor="middle" x="593" y="-154.5" font-family="Helvetica,sans-Serif" font-size="10.00">Collider::clearHighlights</text>
</a>
</g>
</g>
<!-- Node165&#45;&gt;Node171 -->
<g id="edge10" class="edge"><title>Node165&#45;&gt;Node171</title>
<path fill="none" stroke="midnightblue" d="M471.626,-196.399C489.737,-191.298 510.124,-185.557 528.9,-180.27"/>
<polygon fill="midnightblue" stroke="midnightblue" points="529.875,-183.631 538.552,-177.552 527.977,-176.893 529.875,-183.631"/>
</g>
<!-- Node172 -->
<g id="node11" class="node"><title>Node172</title>
<g id="a_node11"><a xlink:href="classobe_1_1_collision_1_1_polygonal_collider.html#a58fa67d8f1eb7609e990d76dc68ffffb" target="_top" xlink:title="obe::Collision::Polygonal\lCollider::highlightLine">
<polygon fill="none" stroke="black" points="531,-98.5 531,-128.5 655,-128.5 655,-98.5 531,-98.5"/>
<text text-anchor="start" x="539" y="-116.5" font-family="Helvetica,sans-Serif" font-size="10.00">obe::Collision::Polygonal</text>
<text text-anchor="middle" x="593" y="-105.5" font-family="Helvetica,sans-Serif" font-size="10.00">Collider::highlightLine</text>
</a>
</g>
</g>
<!-- Node165&#45;&gt;Node172 -->
<g id="edge11" class="edge"><title>Node165&#45;&gt;Node172</title>
<path fill="none" stroke="midnightblue" d="M434.361,-196.468C452.769,-180.233 484.146,-154.545 515,-138.5 519.22,-136.305 523.67,-134.254 528.216,-132.347"/>
<polygon fill="midnightblue" stroke="midnightblue" points="529.617,-135.556 537.637,-128.633 527.05,-129.044 529.617,-135.556"/>
</g>
<!-- Node173 -->
<g id="node12" class="node"><title>Node173</title>
<g id="a_node12"><a xlink:href="classobe_1_1_collision_1_1_polygonal_collider.html#adf3d1cd440bafc922498e6ce862e2aff" target="_top" xlink:title="obe::Collision::Polygonal\lCollider::getSideContainingPoint">
<polygon fill="none" stroke="black" points="515,-49.5 515,-79.5 671,-79.5 671,-49.5 515,-49.5"/>
<text text-anchor="start" x="523" y="-67.5" font-family="Helvetica,sans-Serif" font-size="10.00">obe::Collision::Polygonal</text>
<text text-anchor="middle" x="593" y="-56.5" font-family="Helvetica,sans-Serif" font-size="10.00">Collider::getSideContainingPoint</text>
</a>
</g>
</g>
<!-- Node165&#45;&gt;Node173 -->
<g id="edge12" class="edge"><title>Node165&#45;&gt;Node173</title>
<path fill="none" stroke="midnightblue" d="M426.049,-196.387C440.482,-170.7 473.201,-118.497 515,-89.5 517.858,-87.5172 520.883,-85.6841 524.017,-83.9904"/>
<polygon fill="midnightblue" stroke="midnightblue" points="525.624,-87.1006 533.084,-79.5771 522.561,-80.8065 525.624,-87.1006"/>
</g>
<!-- Node167 -->
<g id="node6" class="node"><title>Node167</title>
<g id="a_node6"><a xlink:href="namespaceobe_1_1_functions_1_1_vector.html#a8adc81831e6ac5c91887cf1c1089561a" target="_top" xlink:title="obe::Functions::Vector\l::isInList">
<polygon fill="none" stroke="black" points="725,-294.5 725,-324.5 841,-324.5 841,-294.5 725,-294.5"/>
<text text-anchor="start" x="733" y="-312.5" font-family="Helvetica,sans-Serif" font-size="10.00">obe::Functions::Vector</text>
<text text-anchor="middle" x="783" y="-301.5" font-family="Helvetica,sans-Serif" font-size="10.00">::isInList</text>
</a>
</g>
</g>
<!-- Node166&#45;&gt;Node167 -->
<g id="edge5" class="edge"><title>Node166&#45;&gt;Node167</title>
<path fill="none" stroke="midnightblue" d="M651.684,-343.465C671.717,-338.244 694.352,-332.345 715.068,-326.945"/>
<polygon fill="midnightblue" stroke="midnightblue" points="715.955,-330.331 724.749,-324.422 714.189,-323.557 715.955,-330.331"/>
</g>
<!-- Node169&#45;&gt;Node167 -->
<g id="edge8" class="edge"><title>Node169&#45;&gt;Node167</title>
<path fill="none" stroke="midnightblue" d="M651.684,-275.535C671.717,-280.756 694.352,-286.655 715.068,-292.055"/>
<polygon fill="midnightblue" stroke="midnightblue" points="714.189,-295.443 724.749,-294.578 715.955,-288.669 714.189,-295.443"/>
</g>
<!-- Node174 -->
<g id="node13" class="node"><title>Node174</title>
<g id="a_node13"><a xlink:href="classobe_1_1_collision_1_1_polygonal_collider.html#a683abe088e85053645e32c6457983f93" target="_top" xlink:title="obe::Collision::Polygonal\lCollider::getDistanceFromPoint">
<polygon fill="none" stroke="black" points="707,-98.5 707,-128.5 859,-128.5 859,-98.5 707,-98.5"/>
<text text-anchor="start" x="715" y="-116.5" font-family="Helvetica,sans-Serif" font-size="10.00">obe::Collision::Polygonal</text>
<text text-anchor="middle" x="783" y="-105.5" font-family="Helvetica,sans-Serif" font-size="10.00">Collider::getDistanceFromPoint</text>
</a>
</g>
</g>
<!-- Node173&#45;&gt;Node174 -->
<g id="edge13" class="edge"><title>Node173&#45;&gt;Node174</title>
<path fill="none" stroke="midnightblue" d="M651.684,-79.5346C671.534,-84.7083 693.937,-90.5475 714.499,-95.9066"/>
<polygon fill="midnightblue" stroke="midnightblue" points="713.866,-99.3585 724.425,-98.4938 715.631,-92.5848 713.866,-99.3585"/>
</g>
<!-- Node175 -->
<g id="node14" class="node"><title>Node175</title>
<g id="a_node14"><a xlink:href="classobe_1_1_collision_1_1_polygonal_collider.html#ae45f352630947b803382a66b6d23b39d" target="_top" xlink:title="obe::Collision::Polygonal\lCollider::getPointPosition">
<polygon fill="none" stroke="black" points="720,-49.5 720,-79.5 846,-79.5 846,-49.5 720,-49.5"/>
<text text-anchor="start" x="728" y="-67.5" font-family="Helvetica,sans-Serif" font-size="10.00">obe::Collision::Polygonal</text>
<text text-anchor="middle" x="783" y="-56.5" font-family="Helvetica,sans-Serif" font-size="10.00">Collider::getPointPosition</text>
</a>
</g>
</g>
<!-- Node173&#45;&gt;Node175 -->
<g id="edge14" class="edge"><title>Node173&#45;&gt;Node175</title>
<path fill="none" stroke="midnightblue" d="M671.009,-64.5C683.811,-64.5 697.049,-64.5 709.728,-64.5"/>
<polygon fill="midnightblue" stroke="midnightblue" points="709.758,-68.0001 719.758,-64.5 709.758,-61.0001 709.758,-68.0001"/>
</g>
<!-- Node176 -->
<g id="node15" class="node"><title>Node176</title>
<g id="a_node15"><a xlink:href="namespaceobe_1_1_functions_1_1_math.html#ace2502ece9d05e44fc5b4f22a6d3fcfc" target="_top" xlink:title="obe::Functions::Math\l::isBetween">
<polygon fill="none" stroke="black" points="728.5,-0.5 728.5,-30.5 837.5,-30.5 837.5,-0.5 728.5,-0.5"/>
<text text-anchor="start" x="736.5" y="-18.5" font-family="Helvetica,sans-Serif" font-size="10.00">obe::Functions::Math</text>
<text text-anchor="middle" x="783" y="-7.5" font-family="Helvetica,sans-Serif" font-size="10.00">::isBetween</text>
</a>
</g>
</g>
<!-- Node173&#45;&gt;Node176 -->
<g id="edge15" class="edge"><title>Node173&#45;&gt;Node176</title>
<path fill="none" stroke="midnightblue" d="M651.684,-49.4654C672.838,-43.9519 696.891,-37.6826 718.525,-32.0441"/>
<polygon fill="midnightblue" stroke="midnightblue" points="719.481,-35.4118 728.275,-29.5027 717.716,-28.6381 719.481,-35.4118"/>
</g>
</g>
</svg>
