<?xml version="1.0" encoding="UTF-8" standalone="no"?>
<!DOCTYPE svg PUBLIC "-//W3C//DTD SVG 1.1//EN"
 "http://www.w3.org/Graphics/SVG/1.1/DTD/svg11.dtd">
<!-- Generated by graphviz version 2.38.0 (20140413.2041)
 -->
<!-- Title: obe::Debug::Console::isVisible Pages: 1 -->
<!--zoomable 110 -->
<svg id="main" version="1.1" xmlns="http://www.w3.org/2000/svg" xmlns:xlink="http://www.w3.org/1999/xlink" xml:space="preserve" onload="init(evt)">
<style type="text/css"><![CDATA[
.edge:hover path { stroke: red; }
.edge:hover polygon { stroke: red; fill: red; }
.edge path { stroke: white; }
.edge polygon { stroke: white; fill: white; }
.node polygon { fill: white; }
]]></style>
<script type="text/javascript"><![CDATA[
var edges = document.getElementsByTagName('g');
if (edges && edges.length) {
  for (var i=0;i<edges.length;i++) {
    if (edges[i].id.substr(0,4)=='edge') {
      edges[i].setAttribute('class','edge');
    }
  }
}
]]></script>
        <defs>
                <circle id="rim" cx="0" cy="0" r="7"/>
                <circle id="rim2" cx="0" cy="0" r="3.5"/>
                <g id="zoomPlus">
                        <use xlink:href="#rim" fill="#404040">
                                <set attributeName="fill" to="#808080" begin="zoomplus.mouseover" end="zoomplus.mouseout"/>
                        </use>
                        <path d="M-4,0h8M0,-4v8" fill="none" stroke="white" stroke-width="1.5" pointer-events="none"/>
                </g>
                <g id="zoomMin">
                        <use xlink:href="#rim" fill="#404040">
                                <set attributeName="fill" to="#808080" begin="zoomminus.mouseover" end="zoomminus.mouseout"/>
                        </use>
                        <path d="M-4,0h8" fill="none" stroke="white" stroke-width="1.5" pointer-events="none"/>
                </g>
                <g id="dirArrow">
                        <path fill="none" stroke="white" stroke-width="1.5" d="M0,-3.0v7 M-2.5,-0.5L0,-3.0L2.5,-0.5"/>
                </g>
               <g id="resetDef">
                       <use xlink:href="#rim2" fill="#404040">
                               <set attributeName="fill" to="#808080" begin="reset.mouseover" end="reset.mouseout"/>
                       </use>
               </g>
        </defs>

<script type="text/javascript">
var viewWidth = 691;
var viewHeight = 110;
var sectionId = 'dynsection-14';
</script>
<script xlink:href="svgpan.js"/>
<svg id="graph" class="graph">
<g id="viewport">
<title>obe::Debug::Console::isVisible</title>
<!-- Node135 -->
<g id="node1" class="node"><title>Node135</title>
<polygon fill="#bfbfbf" stroke="black" points="0,-22 0,-52 107,-52 107,-22 0,-22"/>
<text text-anchor="start" x="8" y="-40" font-family="Helvetica,sans-Serif" font-size="10.00">obe::Debug::Console</text>
<text text-anchor="middle" x="53.5" y="-29" font-family="Helvetica,sans-Serif" font-size="10.00">::isVisible</text>
</g>
<!-- Node136 -->
<g id="node2" class="node"><title>Node136</title>
<g id="a_node2"><a xlink:href="namespaceobe_1_1_bindings_1_1_debug_bindings.html#a4d144f9af958b9abf8a5e00a58fa117b" target="_top" xlink:title="obe::Bindings::DebugBindings\l::LoadConsole">
<polygon fill="none" stroke="black" points="143,-71 143,-101 290,-101 290,-71 143,-71"/>
<text text-anchor="start" x="151" y="-89" font-family="Helvetica,sans-Serif" font-size="10.00">obe::Bindings::DebugBindings</text>
<text text-anchor="middle" x="216.5" y="-78" font-family="Helvetica,sans-Serif" font-size="10.00">::LoadConsole</text>
</a>
</g>
</g>
<!-- Node135&#45;&gt;Node136 -->
<g id="edge1" class="edge"><title>Node135&#45;&gt;Node136</title>
<path fill="none" stroke="midnightblue" d="M114.014,-55.1129C131.13,-60.3222 149.607,-65.9457 166.045,-70.9484"/>
<polygon fill="midnightblue" stroke="midnightblue" points="114.705,-51.6648 104.119,-52.1014 112.667,-58.3615 114.705,-51.6648"/>
</g>
<!-- Node139 -->
<g id="node5" class="node"><title>Node139</title>
<g id="a_node5"><a xlink:href="namespaceobe_1_1_editor.html#a49bd88e66380497c81af8fc4d8c8b864" target="_top" xlink:title="Connects Console&#39;s related Triggers. ">
<polygon fill="none" stroke="black" points="151,-22 151,-52 282,-52 282,-22 151,-22"/>
<text text-anchor="start" x="159" y="-40" font-family="Helvetica,sans-Serif" font-size="10.00">obe::Editor::connectGame</text>
<text text-anchor="middle" x="216.5" y="-29" font-family="Helvetica,sans-Serif" font-size="10.00">ConsoleActions</text>
</a>
</g>
</g>
<!-- Node135&#45;&gt;Node139 -->
<g id="edge4" class="edge"><title>Node135&#45;&gt;Node139</title>
<path fill="none" stroke="midnightblue" d="M117.54,-37C128.481,-37 139.873,-37 150.856,-37"/>
<polygon fill="midnightblue" stroke="midnightblue" points="117.217,-33.5001 107.217,-37 117.217,-40.5001 117.217,-33.5001"/>
</g>
<!-- Node140 -->
<g id="node6" class="node"><title>Node140</title>
<g id="a_node6"><a xlink:href="namespaceobe_1_1_editor.html#a9009207671e71dccb68a31ea2362e9ef" target="_top" xlink:title="Starts the map edition. ">
<polygon fill="none" stroke="black" points="326,-13.5 326,-32.5 430,-32.5 430,-13.5 326,-13.5"/>
<text text-anchor="middle" x="378" y="-20.5" font-family="Helvetica,sans-Serif" font-size="10.00">obe::Editor::editMap</text>
</a>
</g>
</g>
<!-- Node135&#45;&gt;Node140 -->
<g id="edge9" class="edge"><title>Node135&#45;&gt;Node140</title>
<path fill="none" stroke="midnightblue" d="M108.322,-19.2561C119.655,-16.2399 131.624,-13.5759 143,-12 205.442,-3.34977 278.053,-9.20694 325.629,-15.1751"/>
<polygon fill="midnightblue" stroke="midnightblue" points="107.251,-15.9212 98.559,-21.9789 109.132,-22.6639 107.251,-15.9212"/>
</g>
<!-- Node137 -->
<g id="node3" class="node"><title>Node137</title>
<g id="a_node3"><a xlink:href="namespaceobe_1_1_bindings.html#a41d33207a0199f125c75a0f70a4a3ba8" target="_top" xlink:title="To call when the engine starts, indexes all Lua bindings. ">
<polygon fill="none" stroke="black" points="466,-76.5 466,-95.5 609,-95.5 609,-76.5 466,-76.5"/>
<text text-anchor="middle" x="537.5" y="-83.5" font-family="Helvetica,sans-Serif" font-size="10.00">obe::Bindings::IndexBindings</text>
</a>
</g>
</g>
<!-- Node136&#45;&gt;Node137 -->
<g id="edge2" class="edge"><title>Node136&#45;&gt;Node137</title>
<path fill="none" stroke="midnightblue" d="M300.367,-86C351.748,-86 417.046,-86 465.947,-86"/>
<polygon fill="midnightblue" stroke="midnightblue" points="300.285,-82.5001 290.285,-86 300.285,-89.5001 300.285,-82.5001"/>
</g>
<!-- Node138 -->
<g id="node4" class="node"><title>Node138</title>
<g id="a_node4"><a xlink:href="_ob_engine_8cpp.html#a3c04138a5bfe5d72780bb7e82a18e627" target="_top" xlink:title="main">
<polygon fill="none" stroke="black" points="645,-38.5 645,-57.5 683,-57.5 683,-38.5 645,-38.5"/>
<text text-anchor="middle" x="664" y="-45.5" font-family="Helvetica,sans-Serif" font-size="10.00">main</text>
</a>
</g>
</g>
<!-- Node137&#45;&gt;Node138 -->
<g id="edge3" class="edge"><title>Node137&#45;&gt;Node138</title>
<path fill="none" stroke="midnightblue" d="M579.704,-73.4237C601.716,-66.7052 627.707,-58.772 644.73,-53.5764"/>
<polygon fill="midnightblue" stroke="midnightblue" points="578.459,-70.1441 569.917,-76.411 580.503,-76.8392 578.459,-70.1441"/>
</g>
<!-- Node139&#45;&gt;Node140 -->
<g id="edge5" class="edge"><title>Node139&#45;&gt;Node140</title>
<path fill="none" stroke="midnightblue" d="M292.649,-30.4039C303.902,-29.4162 315.277,-28.4177 325.875,-27.4875"/>
<polygon fill="midnightblue" stroke="midnightblue" points="292.03,-26.9446 282.375,-31.3057 292.643,-33.9178 292.03,-26.9446"/>
</g>
<!-- Node140&#45;&gt;Node138 -->
<g id="edge8" class="edge"><title>Node140&#45;&gt;Node138</title>
<path fill="none" stroke="midnightblue" d="M440.25,-28.3918C505.391,-34.1259 604.489,-42.8494 644.896,-46.4063"/>
<polygon fill="midnightblue" stroke="midnightblue" points="440.37,-24.8888 430.102,-27.4984 439.756,-31.8619 440.37,-24.8888"/>
</g>
<!-- Node141 -->
<g id="node7" class="node"><title>Node141</title>
<g id="a_node7"><a xlink:href="namespaceobe_1_1_modes.html#a6a8b08eee511d4895c4da96d4ba223a6" target="_top" xlink:title="Starts the development Menu where you can starts other menus from. ">
<polygon fill="none" stroke="black" points="471,-0.5 471,-19.5 604,-19.5 604,-0.5 471,-0.5"/>
<text text-anchor="middle" x="537.5" y="-7.5" font-family="Helvetica,sans-Serif" font-size="10.00">obe::Modes::startDevMenu</text>
</a>
</g>
</g>
<!-- Node140&#45;&gt;Node141 -->
<g id="edge6" class="edge"><title>Node140&#45;&gt;Node141</title>
<path fill="none" stroke="midnightblue" d="M440.41,-17.9312C450.434,-17.1038 460.853,-16.2439 470.972,-15.4087"/>
<polygon fill="midnightblue" stroke="midnightblue" points="439.814,-14.4684 430.136,-18.7793 440.39,-21.4447 439.814,-14.4684"/>
</g>
<!-- Node141&#45;&gt;Node138 -->
<g id="edge7" class="edge"><title>Node141&#45;&gt;Node138</title>
<path fill="none" stroke="midnightblue" d="M579.704,-22.5763C601.716,-29.2948 627.707,-37.228 644.73,-42.4236"/>
<polygon fill="midnightblue" stroke="midnightblue" points="580.503,-19.1608 569.917,-19.589 578.459,-25.8559 580.503,-19.1608"/>
</g>
</g>
</svg>
        <g id="navigator" transform="translate(0 0)" fill="#404254">
                <rect fill="#f2f5e9" fill-opacity="0.5" stroke="#606060" stroke-width=".5" x="0" y="0" width="60" height="60"/>
                <use id="zoomplus" xlink:href="#zoomPlus" x="17" y="9" onmousedown="handleZoom(evt,'in')"/>
                <use id="zoomminus" xlink:href="#zoomMin" x="42" y="9" onmousedown="handleZoom(evt,'out')"/>
                <use id="reset" xlink:href="#resetDef" x="30" y="36" onmousedown="handleReset()"/>
                <g id="arrowUp" xlink:href="#dirArrow" transform="translate(30 24)" onmousedown="handlePan(0,-1)">
                  <use xlink:href="#rim" fill="#404040">
                        <set attributeName="fill" to="#808080" begin="arrowUp.mouseover" end="arrowUp.mouseout"/>
                  </use>
                  <path fill="none" stroke="white" stroke-width="1.5" d="M0,-3.0v7 M-2.5,-0.5L0,-3.0L2.5,-0.5"/>
                </g>
                <g id="arrowRight" xlink:href="#dirArrow" transform="rotate(90) translate(36 -43)" onmousedown="handlePan(1,0)">
                  <use xlink:href="#rim" fill="#404040">
                        <set attributeName="fill" to="#808080" begin="arrowRight.mouseover" end="arrowRight.mouseout"/>
                  </use>
                  <path fill="none" stroke="white" stroke-width="1.5" d="M0,-3.0v7 M-2.5,-0.5L0,-3.0L2.5,-0.5"/>
                </g>
                <g id="arrowDown" xlink:href="#dirArrow" transform="rotate(180) translate(-30 -48)" onmousedown="handlePan(0,1)">
                  <use xlink:href="#rim" fill="#404040">
                        <set attributeName="fill" to="#808080" begin="arrowDown.mouseover" end="arrowDown.mouseout"/>
                  </use>
                  <path fill="none" stroke="white" stroke-width="1.5" d="M0,-3.0v7 M-2.5,-0.5L0,-3.0L2.5,-0.5"/>
                </g>
                <g id="arrowLeft" xlink:href="#dirArrow" transform="rotate(270) translate(-36 17)" onmousedown="handlePan(-1,0)">
                  <use xlink:href="#rim" fill="#404040">
                        <set attributeName="fill" to="#808080" begin="arrowLeft.mouseover" end="arrowLeft.mouseout"/>
                  </use>
                  <path fill="none" stroke="white" stroke-width="1.5" d="M0,-3.0v7 M-2.5,-0.5L0,-3.0L2.5,-0.5"/>
                </g>
        </g>
        <svg viewBox="0 0 15 15" width="100%" height="30px" preserveAspectRatio="xMaxYMin meet">
         <g id="arrow_out" transform="scale(0.3 0.3)">
          <a xlink:href="classobe_1_1_debug_1_1_console_a6844ee7b607813443ebca23e9742760d_icgraph_org.svg" target="_base">
           <rect id="button" ry="5" rx="5" y="6" x="6" height="38" width="38"
                fill="#f2f5e9" fill-opacity="0.5" stroke="#606060" stroke-width="1.0"/>
           <path id="arrow"
             d="M 11.500037,31.436501 C 11.940474,20.09759 22.043105,11.32322 32.158766,21.979434 L 37.068811,17.246167 C 37.068811,17.246167 37.088388,32 37.088388,32 L 22.160133,31.978069 C 22.160133,31.978069 26.997745,27.140456 26.997745,27.140456 C 18.528582,18.264221 13.291696,25.230495 11.500037,31.436501 z"
             style="fill:#404040;"/>
          </a>
         </g>
        </svg>
</svg>
