<?xml version="1.0" encoding="UTF-8" standalone="no"?>
<!DOCTYPE svg PUBLIC "-//W3C//DTD SVG 1.1//EN"
 "http://www.w3.org/Graphics/SVG/1.1/DTD/svg11.dtd">
<!-- Generated by graphviz version 2.38.0 (20140413.2041)
 -->
<!-- Title: obe::Graphics::LevelSprite::getRect Pages: 1 -->
<svg width="479pt" height="259pt"
 viewBox="0.00 0.00 479.00 259.00" xmlns="http://www.w3.org/2000/svg" xmlns:xlink="http://www.w3.org/1999/xlink">
<g id="graph0" class="graph" transform="scale(1 1) rotate(0) translate(4 255)">
<title>obe::Graphics::LevelSprite::getRect</title>
<!-- Node214 -->
<g id="node1" class="node"><title>Node214</title>
<polygon fill="#bfbfbf" stroke="black" points="0,-122.5 0,-152.5 131,-152.5 131,-122.5 0,-122.5"/>
<text text-anchor="start" x="8" y="-140.5" font-family="Helvetica,sans-Serif" font-size="10.00">obe::Graphics::LevelSprite</text>
<text text-anchor="middle" x="65.5" y="-129.5" font-family="Helvetica,sans-Serif" font-size="10.00">::getRect</text>
</g>
<!-- Node215 -->
<g id="node2" class="node"><title>Node215</title>
<g id="a_node2"><a xlink:href="classsfe_1_1_complex_transformable.html#a6a52efde53bb21622805b1293344a550" target="_top" xlink:title="sfe::ComplexTransformable\l::setTranslationOrigin">
<polygon fill="none" stroke="black" points="167,-220.5 167,-250.5 301,-250.5 301,-220.5 167,-220.5"/>
<text text-anchor="start" x="175" y="-238.5" font-family="Helvetica,sans-Serif" font-size="10.00">sfe::ComplexTransformable</text>
<text text-anchor="middle" x="234" y="-227.5" font-family="Helvetica,sans-Serif" font-size="10.00">::setTranslationOrigin</text>
</a>
</g>
</g>
<!-- Node214&#45;&gt;Node215 -->
<g id="edge1" class="edge"><title>Node214&#45;&gt;Node215</title>
<path fill="none" stroke="midnightblue" d="M83.6221,-152.505C102.845,-168.758 135.485,-194.62 167,-211.5 170.255,-213.243 173.663,-214.91 177.142,-216.494"/>
<polygon fill="midnightblue" stroke="midnightblue" points="175.894,-219.766 186.465,-220.488 178.651,-213.332 175.894,-219.766"/>
</g>
<!-- Node216 -->
<g id="node3" class="node"><title>Node216</title>
<g id="a_node3"><a xlink:href="classsfe_1_1_complex_transformable.html#a18d8f42254b6a16d7ac6b1cbb9f2112b" target="_top" xlink:title="sfe::ComplexTransformable\l::setRotationOrigin">
<polygon fill="none" stroke="black" points="167,-171.5 167,-201.5 301,-201.5 301,-171.5 167,-171.5"/>
<text text-anchor="start" x="175" y="-189.5" font-family="Helvetica,sans-Serif" font-size="10.00">sfe::ComplexTransformable</text>
<text text-anchor="middle" x="234" y="-178.5" font-family="Helvetica,sans-Serif" font-size="10.00">::setRotationOrigin</text>
</a>
</g>
</g>
<!-- Node214&#45;&gt;Node216 -->
<g id="edge2" class="edge"><title>Node214&#45;&gt;Node216</title>
<path fill="none" stroke="midnightblue" d="M117.814,-152.601C134.986,-157.655 154.295,-163.338 172.125,-168.585"/>
<polygon fill="midnightblue" stroke="midnightblue" points="171.274,-171.983 181.855,-171.448 173.25,-165.268 171.274,-171.983"/>
</g>
<!-- Node217 -->
<g id="node4" class="node"><title>Node217</title>
<g id="a_node4"><a xlink:href="classsfe_1_1_complex_transformable.html#a40b68d7103eccdb9db72d5145c62a855" target="_top" xlink:title="sfe::ComplexTransformable\l::setPosition">
<polygon fill="none" stroke="black" points="167,-122.5 167,-152.5 301,-152.5 301,-122.5 167,-122.5"/>
<text text-anchor="start" x="175" y="-140.5" font-family="Helvetica,sans-Serif" font-size="10.00">sfe::ComplexTransformable</text>
<text text-anchor="middle" x="234" y="-129.5" font-family="Helvetica,sans-Serif" font-size="10.00">::setPosition</text>
</a>
</g>
</g>
<!-- Node214&#45;&gt;Node217 -->
<g id="edge3" class="edge"><title>Node214&#45;&gt;Node217</title>
<path fill="none" stroke="midnightblue" d="M131.35,-137.5C139.659,-137.5 148.226,-137.5 156.696,-137.5"/>
<polygon fill="midnightblue" stroke="midnightblue" points="156.956,-141 166.956,-137.5 156.956,-134 156.956,-141"/>
</g>
<!-- Node218 -->
<g id="node5" class="node"><title>Node218</title>
<g id="a_node5"><a xlink:href="classsfe_1_1_complex_transformable.html#a9479c6251c68674bf96d3f6b03a9a8dd" target="_top" xlink:title="sfe::ComplexTransformable\l::setRotation">
<polygon fill="none" stroke="black" points="167,-73.5 167,-103.5 301,-103.5 301,-73.5 167,-73.5"/>
<text text-anchor="start" x="175" y="-91.5" font-family="Helvetica,sans-Serif" font-size="10.00">sfe::ComplexTransformable</text>
<text text-anchor="middle" x="234" y="-80.5" font-family="Helvetica,sans-Serif" font-size="10.00">::setRotation</text>
</a>
</g>
</g>
<!-- Node214&#45;&gt;Node218 -->
<g id="edge4" class="edge"><title>Node214&#45;&gt;Node218</title>
<path fill="none" stroke="midnightblue" d="M117.814,-122.399C134.986,-117.345 154.295,-111.662 172.125,-106.415"/>
<polygon fill="midnightblue" stroke="midnightblue" points="173.25,-109.732 181.855,-103.552 171.274,-103.017 173.25,-109.732"/>
</g>
<!-- Node219 -->
<g id="node6" class="node"><title>Node219</title>
<g id="a_node6"><a xlink:href="classsfe_1_1_complex_sprite.html#a04c2ee13426bdd0a48e61196a9300c9d" target="_top" xlink:title="sfe::ComplexSprite\l::getGlobalBounds">
<polygon fill="none" stroke="black" points="184.5,-24.5 184.5,-54.5 283.5,-54.5 283.5,-24.5 184.5,-24.5"/>
<text text-anchor="start" x="192.5" y="-42.5" font-family="Helvetica,sans-Serif" font-size="10.00">sfe::ComplexSprite</text>
<text text-anchor="middle" x="234" y="-31.5" font-family="Helvetica,sans-Serif" font-size="10.00">::getGlobalBounds</text>
</a>
</g>
</g>
<!-- Node214&#45;&gt;Node219 -->
<g id="edge5" class="edge"><title>Node214&#45;&gt;Node219</title>
<path fill="none" stroke="midnightblue" d="M84.4078,-122.21C103.784,-106.23 136.071,-81.2023 167,-64.5 170.76,-62.4696 174.72,-60.5284 178.757,-58.6898"/>
<polygon fill="midnightblue" stroke="midnightblue" points="180.459,-61.7673 188.255,-54.5923 177.686,-55.3399 180.459,-61.7673"/>
</g>
<!-- Node220 -->
<g id="node7" class="node"><title>Node220</title>
<g id="a_node7"><a xlink:href="classsfe_1_1_complex_transformable.html#a2fc53ad63260a6d4fd2b49534318a645" target="_top" xlink:title="sfe::ComplexTransformable\l::getTransform">
<polygon fill="none" stroke="black" points="337,-49.5 337,-79.5 471,-79.5 471,-49.5 337,-49.5"/>
<text text-anchor="start" x="345" y="-67.5" font-family="Helvetica,sans-Serif" font-size="10.00">sfe::ComplexTransformable</text>
<text text-anchor="middle" x="404" y="-56.5" font-family="Helvetica,sans-Serif" font-size="10.00">::getTransform</text>
</a>
</g>
</g>
<!-- Node219&#45;&gt;Node220 -->
<g id="edge6" class="edge"><title>Node219&#45;&gt;Node220</title>
<path fill="none" stroke="midnightblue" d="M283.593,-46.731C297.057,-48.7346 312.006,-50.9593 326.644,-53.1375"/>
<polygon fill="midnightblue" stroke="midnightblue" points="326.299,-56.6247 336.706,-54.6348 327.33,-49.7009 326.299,-56.6247"/>
</g>
<!-- Node221 -->
<g id="node8" class="node"><title>Node221</title>
<g id="a_node8"><a xlink:href="classsfe_1_1_complex_sprite.html#aa8d5f920bd13bb0d844d1bcc5ac8c676" target="_top" xlink:title="sfe::ComplexSprite\l::getLocalBounds">
<polygon fill="none" stroke="black" points="354.5,-0.5 354.5,-30.5 453.5,-30.5 453.5,-0.5 354.5,-0.5"/>
<text text-anchor="start" x="362.5" y="-18.5" font-family="Helvetica,sans-Serif" font-size="10.00">sfe::ComplexSprite</text>
<text text-anchor="middle" x="404" y="-7.5" font-family="Helvetica,sans-Serif" font-size="10.00">::getLocalBounds</text>
</a>
</g>
</g>
<!-- Node219&#45;&gt;Node221 -->
<g id="edge7" class="edge"><title>Node219&#45;&gt;Node221</title>
<path fill="none" stroke="midnightblue" d="M283.593,-32.5582C302.49,-29.8585 324.315,-26.7408 344.095,-23.915"/>
<polygon fill="midnightblue" stroke="midnightblue" points="344.821,-27.3469 354.226,-22.4677 343.831,-20.4172 344.821,-27.3469"/>
</g>
</g>
</svg>
