<?xml version="1.0" encoding="UTF-8" standalone="no"?>
<!DOCTYPE svg PUBLIC "-//W3C//DTD SVG 1.1//EN"
 "http://www.w3.org/Graphics/SVG/1.1/DTD/svg11.dtd">
<!-- Generated by graphviz version 2.38.0 (20140413.2041)
 -->
<!-- Title: obe::Sound::SoundWrapper::load Pages: 1 -->
<svg width="586pt" height="137pt"
 viewBox="0.00 0.00 586.00 137.00" xmlns="http://www.w3.org/2000/svg" xmlns:xlink="http://www.w3.org/1999/xlink">
<g id="graph0" class="graph" transform="scale(1 1) rotate(0) translate(4 133)">
<title>obe::Sound::SoundWrapper::load</title>
<!-- Node11 -->
<g id="node1" class="node"><title>Node11</title>
<polygon fill="#bfbfbf" stroke="black" points="0,-71.5 0,-101.5 137,-101.5 137,-71.5 0,-71.5"/>
<text text-anchor="start" x="8" y="-89.5" font-family="Helvetica,sans-Serif" font-size="10.00">obe::Sound::SoundWrapper</text>
<text text-anchor="middle" x="68.5" y="-78.5" font-family="Helvetica,sans-Serif" font-size="10.00">::load</text>
</g>
<!-- Node12 -->
<g id="node2" class="node"><title>Node12</title>
<g id="a_node2"><a xlink:href="classobe_1_1_system_1_1_path.html#a096ad4fa7397aa42fd73661b08f50e2a" target="_top" xlink:title="obe::System::Path::\lloadResource">
<polygon fill="white" stroke="black" points="173,-71.5 173,-101.5 277,-101.5 277,-71.5 173,-71.5"/>
<text text-anchor="start" x="181" y="-89.5" font-family="Helvetica,sans-Serif" font-size="10.00">obe::System::Path::</text>
<text text-anchor="middle" x="225" y="-78.5" font-family="Helvetica,sans-Serif" font-size="10.00">loadResource</text>
</a>
</g>
</g>
<!-- Node11&#45;&gt;Node12 -->
<g id="edge1" class="edge"><title>Node11&#45;&gt;Node12</title>
<path fill="none" stroke="midnightblue" d="M137.266,-86.5C145.589,-86.5 154.062,-86.5 162.289,-86.5"/>
<polygon fill="midnightblue" stroke="midnightblue" points="162.549,-90.0001 172.549,-86.5 162.549,-83.0001 162.549,-90.0001"/>
</g>
<!-- Node13 -->
<g id="node3" class="node"><title>Node13</title>
<g id="a_node3"><a xlink:href="namespaceobe_1_1_utils_1_1_file.html#a1095626f5495edc7b8692073dd25cceb" target="_top" xlink:title="Check if the file at the given path exists. ">
<polygon fill="white" stroke="black" points="313,-99 313,-118 438,-118 438,-99 313,-99"/>
<text text-anchor="middle" x="375.5" y="-106" font-family="Helvetica,sans-Serif" font-size="10.00">obe::Utils::File::fileExists</text>
</a>
</g>
</g>
<!-- Node12&#45;&gt;Node13 -->
<g id="edge2" class="edge"><title>Node12&#45;&gt;Node13</title>
<path fill="none" stroke="midnightblue" d="M277.105,-94.0712C285.367,-95.2951 294.053,-96.5819 302.695,-97.8622"/>
<polygon fill="midnightblue" stroke="midnightblue" points="302.386,-101.355 312.791,-99.3579 303.412,-94.4301 302.386,-101.355"/>
</g>
<!-- Node14 -->
<g id="node4" class="node"><title>Node14</title>
<g id="a_node4"><a xlink:href="classaube_1_1_error_handler.html#a7c8d44a3e7f019646d289950abc5301b" target="_top" xlink:title="Raises an Error loaded in the Aube Error Database (AED) ">
<polygon fill="white" stroke="black" points="326.5,-49.5 326.5,-79.5 424.5,-79.5 424.5,-49.5 326.5,-49.5"/>
<text text-anchor="start" x="334.5" y="-67.5" font-family="Helvetica,sans-Serif" font-size="10.00">aube::ErrorHandler</text>
<text text-anchor="middle" x="375.5" y="-56.5" font-family="Helvetica,sans-Serif" font-size="10.00">::Raise</text>
</a>
</g>
</g>
<!-- Node12&#45;&gt;Node14 -->
<g id="edge3" class="edge"><title>Node12&#45;&gt;Node14</title>
<path fill="none" stroke="midnightblue" d="M277.105,-78.9288C289.683,-77.0654 303.246,-75.0561 316.138,-73.1462"/>
<polygon fill="midnightblue" stroke="midnightblue" points="316.923,-76.5682 326.302,-71.6404 315.897,-69.6438 316.923,-76.5682"/>
</g>
<!-- Node15 -->
<g id="node5" class="node"><title>Node15</title>
<g id="a_node5"><a xlink:href="classaube_1_1_error_message.html#a9184cc96589578f434351c105b0cd5f7" target="_top" xlink:title="Gets the location of the error in the code. ">
<polygon fill="white" stroke="black" points="474,-98.5 474,-128.5 578,-128.5 578,-98.5 474,-98.5"/>
<text text-anchor="start" x="482" y="-116.5" font-family="Helvetica,sans-Serif" font-size="10.00">aube::ErrorMessage</text>
<text text-anchor="middle" x="526" y="-105.5" font-family="Helvetica,sans-Serif" font-size="10.00">::getLocation</text>
</a>
</g>
</g>
<!-- Node14&#45;&gt;Node15 -->
<g id="edge4" class="edge"><title>Node14&#45;&gt;Node15</title>
<path fill="none" stroke="midnightblue" d="M422.267,-79.6014C437.299,-84.5615 454.167,-90.1274 469.821,-95.2929"/>
<polygon fill="midnightblue" stroke="midnightblue" points="468.791,-98.6386 479.385,-98.4484 470.985,-91.9911 468.791,-98.6386"/>
</g>
<!-- Node16 -->
<g id="node6" class="node"><title>Node16</title>
<g id="a_node6"><a xlink:href="classaube_1_1_error_message.html#a07927cb3e2d0712c459cc9e2b5f52696" target="_top" xlink:title="Gets the message displayed by the ErrorMessage when raised. ">
<polygon fill="white" stroke="black" points="474,-49.5 474,-79.5 578,-79.5 578,-49.5 474,-49.5"/>
<text text-anchor="start" x="482" y="-67.5" font-family="Helvetica,sans-Serif" font-size="10.00">aube::ErrorMessage</text>
<text text-anchor="middle" x="526" y="-56.5" font-family="Helvetica,sans-Serif" font-size="10.00">::getMessage</text>
</a>
</g>
</g>
<!-- Node14&#45;&gt;Node16 -->
<g id="edge5" class="edge"><title>Node14&#45;&gt;Node16</title>
<path fill="none" stroke="midnightblue" d="M424.714,-64.5C437.143,-64.5 450.687,-64.5 463.686,-64.5"/>
<polygon fill="midnightblue" stroke="midnightblue" points="463.961,-68.0001 473.961,-64.5 463.961,-61.0001 463.961,-68.0001"/>
</g>
<!-- Node17 -->
<g id="node7" class="node"><title>Node17</title>
<g id="a_node7"><a xlink:href="classaube_1_1_error_message.html#a77c2f9b7e93542c958173b52da267989" target="_top" xlink:title="Gets hints that can help the error resolution. ">
<polygon fill="white" stroke="black" points="474,-0.5 474,-30.5 578,-30.5 578,-0.5 474,-0.5"/>
<text text-anchor="start" x="482" y="-18.5" font-family="Helvetica,sans-Serif" font-size="10.00">aube::ErrorMessage</text>
<text text-anchor="middle" x="526" y="-7.5" font-family="Helvetica,sans-Serif" font-size="10.00">::getHints</text>
</a>
</g>
</g>
<!-- Node14&#45;&gt;Node17 -->
<g id="edge6" class="edge"><title>Node14&#45;&gt;Node17</title>
<path fill="none" stroke="midnightblue" d="M422.267,-49.3986C437.299,-44.4385 454.167,-38.8726 469.821,-33.7071"/>
<polygon fill="midnightblue" stroke="midnightblue" points="470.985,-37.0089 479.385,-30.5516 468.791,-30.3614 470.985,-37.0089"/>
</g>
</g>
</svg>
