<?xml version="1.0" encoding="UTF-8" standalone="no"?>
<!DOCTYPE svg PUBLIC "-//W3C//DTD SVG 1.1//EN"
 "http://www.w3.org/Graphics/SVG/1.1/DTD/svg11.dtd">
<!-- Generated by graphviz version 2.38.0 (20140413.2041)
 -->
<!-- Title: vili::NodeTemplate::getArgumentCount Pages: 1 -->
<svg width="392pt" height="39pt"
 viewBox="0.00 0.00 392.00 39.00" xmlns="http://www.w3.org/2000/svg" xmlns:xlink="http://www.w3.org/1999/xlink">
<g id="graph0" class="graph" transform="scale(1 1) rotate(0) translate(4 35)">
<title>vili::NodeTemplate::getArgumentCount</title>
<!-- Node53 -->
<g id="node1" class="node"><title>Node53</title>
<polygon fill="#bfbfbf" stroke="black" points="0,-0.5 0,-30.5 104,-30.5 104,-0.5 0,-0.5"/>
<text text-anchor="start" x="8" y="-18.5" font-family="Helvetica,sans-Serif" font-size="10.00">vili::NodeTemplate</text>
<text text-anchor="middle" x="52" y="-7.5" font-family="Helvetica,sans-Serif" font-size="10.00">::getArgumentCount</text>
</g>
<!-- Node54 -->
<g id="node2" class="node"><title>Node54</title>
<g id="a_node2"><a xlink:href="classvili_1_1_complex_node.html#a1ef080cca91f585d1ef616c678057ede" target="_top" xlink:title="Writes the ComplexNode to a file. ">
<polygon fill="white" stroke="black" points="140,-0.5 140,-30.5 240,-30.5 240,-0.5 140,-0.5"/>
<text text-anchor="start" x="148" y="-18.5" font-family="Helvetica,sans-Serif" font-size="10.00">vili::ComplexNode::</text>
<text text-anchor="middle" x="190" y="-7.5" font-family="Helvetica,sans-Serif" font-size="10.00">write</text>
</a>
</g>
</g>
<!-- Node53&#45;&gt;Node54 -->
<g id="edge1" class="edge"><title>Node53&#45;&gt;Node54</title>
<path fill="none" stroke="midnightblue" d="M114.087,-15.5C122.743,-15.5 131.55,-15.5 139.94,-15.5"/>
<polygon fill="midnightblue" stroke="midnightblue" points="114.028,-12.0001 104.028,-15.5 114.028,-19.0001 114.028,-12.0001"/>
</g>
<!-- Node55 -->
<g id="node3" class="node"><title>Node55</title>
<g id="a_node3"><a xlink:href="classvili_1_1_complex_node.html#ad6d24a98270eaba537a3641632f7e1e7" target="_top" xlink:title="Access a casted Node in the tree using a path (with multiple path parts) (.at(&quot;NodeA&quot;, &quot;NodeB&quot;, &quot;NodeB&quot;) for example) ">
<polygon fill="white" stroke="black" points="276,-6 276,-25 384,-25 384,-6 276,-6"/>
<text text-anchor="middle" x="330" y="-13" font-family="Helvetica,sans-Serif" font-size="10.00">vili::ComplexNode::at</text>
</a>
</g>
</g>
<!-- Node54&#45;&gt;Node55 -->
<g id="edge2" class="edge"><title>Node54&#45;&gt;Node55</title>
<path fill="none" stroke="midnightblue" d="M250.291,-15.5C258.804,-15.5 267.518,-15.5 275.902,-15.5"/>
<polygon fill="midnightblue" stroke="midnightblue" points="250.042,-12.0001 240.042,-15.5 250.042,-19.0001 250.042,-12.0001"/>
</g>
</g>
</svg>
