<?xml version="1.0" encoding="UTF-8" standalone="no"?>
<!DOCTYPE svg PUBLIC "-//W3C//DTD SVG 1.1//EN"
 "http://www.w3.org/Graphics/SVG/1.1/DTD/svg11.dtd">
<!-- Generated by graphviz version 2.38.0 (20140413.2041)
 -->
<!-- Title: obe::Time::TimeCheck::resetIfOver Pages: 1 -->
<svg width="448pt" height="39pt"
 viewBox="0.00 0.00 448.00 39.00" xmlns="http://www.w3.org/2000/svg" xmlns:xlink="http://www.w3.org/1999/xlink">
<g id="graph0" class="graph" transform="scale(1 1) rotate(0) translate(4 35)">
<title>obe::Time::TimeCheck::resetIfOver</title>
<!-- Node24 -->
<g id="node1" class="node"><title>Node24</title>
<polygon fill="#bfbfbf" stroke="black" points="0,-0.5 0,-30.5 114,-30.5 114,-0.5 0,-0.5"/>
<text text-anchor="start" x="8" y="-18.5" font-family="Helvetica,sans-Serif" font-size="10.00">obe::Time::TimeCheck</text>
<text text-anchor="middle" x="57" y="-7.5" font-family="Helvetica,sans-Serif" font-size="10.00">::resetIfOver</text>
</g>
<!-- Node25 -->
<g id="node2" class="node"><title>Node25</title>
<g id="a_node2"><a xlink:href="classobe_1_1_input_1_1_input_action.html#a146f4895528802dbc5c17b5adab035e4" target="_top" xlink:title="Updates the KeyboardAction. ">
<polygon fill="white" stroke="black" points="150,-0.5 150,-30.5 264,-30.5 264,-0.5 150,-0.5"/>
<text text-anchor="start" x="158" y="-18.5" font-family="Helvetica,sans-Serif" font-size="10.00">obe::Input::InputAction</text>
<text text-anchor="middle" x="207" y="-7.5" font-family="Helvetica,sans-Serif" font-size="10.00">::update</text>
</a>
</g>
</g>
<!-- Node24&#45;&gt;Node25 -->
<g id="edge1" class="edge"><title>Node24&#45;&gt;Node25</title>
<path fill="none" stroke="midnightblue" d="M124.558,-15.5C132.984,-15.5 141.539,-15.5 149.782,-15.5"/>
<polygon fill="midnightblue" stroke="midnightblue" points="124.375,-12.0001 114.375,-15.5 124.375,-19.0001 124.375,-12.0001"/>
</g>
<!-- Node26 -->
<g id="node3" class="node"><title>Node26</title>
<g id="a_node3"><a xlink:href="namespaceobe_1_1_bindings_1_1_input_bindings.html#a3898ecb1ad8534de564c8153802dc789" target="_top" xlink:title="obe::Bindings::InputBindings\l::LoadInputAction">
<polygon fill="white" stroke="black" points="300,-0.5 300,-30.5 440,-30.5 440,-0.5 300,-0.5"/>
<text text-anchor="start" x="308" y="-18.5" font-family="Helvetica,sans-Serif" font-size="10.00">obe::Bindings::InputBindings</text>
<text text-anchor="middle" x="370" y="-7.5" font-family="Helvetica,sans-Serif" font-size="10.00">::LoadInputAction</text>
</a>
</g>
</g>
<!-- Node25&#45;&gt;Node26 -->
<g id="edge2" class="edge"><title>Node25&#45;&gt;Node26</title>
<path fill="none" stroke="midnightblue" d="M274.453,-15.5C282.876,-15.5 291.511,-15.5 299.973,-15.5"/>
<polygon fill="midnightblue" stroke="midnightblue" points="274.31,-12.0001 264.31,-15.5 274.31,-19.0001 274.31,-12.0001"/>
</g>
</g>
</svg>
