<?xml version="1.0" encoding="UTF-8" standalone="no"?>
<!DOCTYPE svg PUBLIC "-//W3C//DTD SVG 1.1//EN"
 "http://www.w3.org/Graphics/SVG/1.1/DTD/svg11.dtd">
<!-- Generated by graphviz version 2.38.0 (20140413.2041)
 -->
<!-- Title: obe::Graphics::Renderer::update Pages: 1 -->
<svg width="705pt" height="66pt"
 viewBox="0.00 0.00 705.00 66.00" xmlns="http://www.w3.org/2000/svg" xmlns:xlink="http://www.w3.org/1999/xlink">
<g id="graph0" class="graph" transform="scale(1 1) rotate(0) translate(4 62)">
<title>obe::Graphics::Renderer::update</title>
<!-- Node90 -->
<g id="node1" class="node"><title>Node90</title>
<polygon fill="#bfbfbf" stroke="black" points="0,-14 0,-44 122,-44 122,-14 0,-14"/>
<text text-anchor="start" x="8" y="-32" font-family="Helvetica,sans-Serif" font-size="10.00">obe::Graphics::Renderer</text>
<text text-anchor="middle" x="61" y="-21" font-family="Helvetica,sans-Serif" font-size="10.00">::update</text>
</g>
<!-- Node91 -->
<g id="node2" class="node"><title>Node91</title>
<g id="a_node2"><a xlink:href="classobe_1_1_graphics_1_1_text_renderer.html#a0aef290e7e51a50635fe8261b8b60c07" target="_top" xlink:title="obe::Graphics::TextRenderer\l::update">
<polygon fill="white" stroke="black" points="158,-14 158,-44 299,-44 299,-14 158,-14"/>
<text text-anchor="start" x="166" y="-32" font-family="Helvetica,sans-Serif" font-size="10.00">obe::Graphics::TextRenderer</text>
<text text-anchor="middle" x="228.5" y="-21" font-family="Helvetica,sans-Serif" font-size="10.00">::update</text>
</a>
</g>
</g>
<!-- Node90&#45;&gt;Node91 -->
<g id="edge1" class="edge"><title>Node90&#45;&gt;Node91</title>
<path fill="none" stroke="midnightblue" d="M132.371,-29C140.786,-29 149.375,-29 157.781,-29"/>
<polygon fill="midnightblue" stroke="midnightblue" points="132.218,-25.5001 122.217,-29 132.217,-32.5001 132.218,-25.5001"/>
</g>
<!-- Node92 -->
<g id="node3" class="node"><title>Node92</title>
<g id="a_node3"><a xlink:href="namespaceobe_1_1_modes.html#a5f4a1008892030350b06282b8dee1a89" target="_top" xlink:title="obe::Modes::startGame">
<polygon fill="white" stroke="black" points="335,-38.5 335,-57.5 454,-57.5 454,-38.5 335,-38.5"/>
<text text-anchor="middle" x="394.5" y="-45.5" font-family="Helvetica,sans-Serif" font-size="10.00">obe::Modes::startGame</text>
</a>
</g>
</g>
<!-- Node91&#45;&gt;Node92 -->
<g id="edge2" class="edge"><title>Node91&#45;&gt;Node92</title>
<path fill="none" stroke="midnightblue" d="M309.205,-38.2341C317.888,-39.24 326.605,-40.25 334.967,-41.2187"/>
<polygon fill="midnightblue" stroke="midnightblue" points="309.387,-34.7319 299.051,-37.0577 308.581,-41.6854 309.387,-34.7319"/>
</g>
<!-- Node95 -->
<g id="node6" class="node"><title>Node95</title>
<g id="a_node6"><a xlink:href="namespaceobe_1_1_editor.html#a508e767d732debdb65e63c7bffa50623" target="_top" xlink:title="obe::Editor::editMap">
<polygon fill="white" stroke="black" points="342.5,-0.5 342.5,-19.5 446.5,-19.5 446.5,-0.5 342.5,-0.5"/>
<text text-anchor="middle" x="394.5" y="-7.5" font-family="Helvetica,sans-Serif" font-size="10.00">obe::Editor::editMap</text>
</a>
</g>
</g>
<!-- Node91&#45;&gt;Node95 -->
<g id="edge6" class="edge"><title>Node91&#45;&gt;Node95</title>
<path fill="none" stroke="midnightblue" d="M309.304,-19.7544C320.511,-18.456 331.774,-17.1512 342.252,-15.9372"/>
<polygon fill="midnightblue" stroke="midnightblue" points="308.581,-16.3146 299.051,-20.9423 309.387,-23.2681 308.581,-16.3146"/>
</g>
<!-- Node93 -->
<g id="node4" class="node"><title>Node93</title>
<g id="a_node4"><a xlink:href="namespaceobe_1_1_modes.html#a6a8b08eee511d4895c4da96d4ba223a6" target="_top" xlink:title="obe::Modes::startDevMenu">
<polygon fill="white" stroke="black" points="490,-19.5 490,-38.5 623,-38.5 623,-19.5 490,-19.5"/>
<text text-anchor="middle" x="556.5" y="-26.5" font-family="Helvetica,sans-Serif" font-size="10.00">obe::Modes::startDevMenu</text>
</a>
</g>
</g>
<!-- Node92&#45;&gt;Node93 -->
<g id="edge3" class="edge"><title>Node92&#45;&gt;Node93</title>
<path fill="none" stroke="midnightblue" d="M464.36,-39.8229C472.804,-38.8202 481.417,-37.7974 489.812,-36.8004"/>
<polygon fill="midnightblue" stroke="midnightblue" points="463.687,-36.3781 454.17,-41.033 464.513,-43.3293 463.687,-36.3781"/>
</g>
<!-- Node94 -->
<g id="node5" class="node"><title>Node94</title>
<g id="a_node5"><a xlink:href="_ob_engine_8cpp.html#a3c04138a5bfe5d72780bb7e82a18e627" target="_top" xlink:title="main">
<polygon fill="white" stroke="black" points="659,-19.5 659,-38.5 697,-38.5 697,-19.5 659,-19.5"/>
<text text-anchor="middle" x="678" y="-26.5" font-family="Helvetica,sans-Serif" font-size="10.00">main</text>
</a>
</g>
</g>
<!-- Node92&#45;&gt;Node94 -->
<g id="edge5" class="edge"><title>Node92&#45;&gt;Node94</title>
<path fill="none" stroke="midnightblue" d="M464.431,-54.0015C509.808,-56.4839 570.336,-56.9947 623,-48 635.344,-45.8918 648.618,-41.2561 658.917,-37.0917"/>
<polygon fill="midnightblue" stroke="midnightblue" points="464.595,-50.5052 454.405,-53.4078 464.181,-57.493 464.595,-50.5052"/>
</g>
<!-- Node93&#45;&gt;Node94 -->
<g id="edge4" class="edge"><title>Node93&#45;&gt;Node94</title>
<path fill="none" stroke="midnightblue" d="M633.438,-29C642.719,-29 651.436,-29 658.598,-29"/>
<polygon fill="midnightblue" stroke="midnightblue" points="633.193,-25.5001 623.193,-29 633.193,-32.5001 633.193,-25.5001"/>
</g>
<!-- Node95&#45;&gt;Node93 -->
<g id="edge7" class="edge"><title>Node95&#45;&gt;Node93</title>
<path fill="none" stroke="midnightblue" d="M456.804,-17.2799C467.669,-18.5701 479.022,-19.9182 489.997,-21.2215"/>
<polygon fill="midnightblue" stroke="midnightblue" points="456.908,-13.7677 446.565,-16.064 456.082,-20.7188 456.908,-13.7677"/>
</g>
<!-- Node95&#45;&gt;Node94 -->
<g id="edge8" class="edge"><title>Node95&#45;&gt;Node94</title>
<path fill="none" stroke="midnightblue" d="M456.638,-4.45219C502.709,-1.60824 567.259,-0.479808 623,-10 635.344,-12.1082 648.618,-16.7439 658.917,-20.9083"/>
<polygon fill="midnightblue" stroke="midnightblue" points="456.26,-0.969437 446.514,-5.12303 456.723,-7.95412 456.26,-0.969437"/>
</g>
</g>
</svg>
