<?xml version="1.0" encoding="UTF-8" standalone="no"?>
<!DOCTYPE svg PUBLIC "-//W3C//DTD SVG 1.1//EN"
 "http://www.w3.org/Graphics/SVG/1.1/DTD/svg11.dtd">
<!-- Generated by graphviz version 2.38.0 (20140413.2041)
 -->
<!-- Title: vili::ComplexAttribute::createComplexAttribute Pages: 1 -->
<svg width="1849pt" height="366pt"
 viewBox="0.00 0.00 1849.00 365.95" xmlns="http://www.w3.org/2000/svg" xmlns:xlink="http://www.w3.org/1999/xlink">
<g id="graph0" class="graph" transform="scale(1 1) rotate(0) translate(4 361.953)">
<title>vili::ComplexAttribute::createComplexAttribute</title>
<!-- Node542 -->
<g id="node1" class="node"><title>Node542</title>
<polygon fill="#bfbfbf" stroke="black" points="0,-167.953 0,-197.953 125,-197.953 125,-167.953 0,-167.953"/>
<text text-anchor="start" x="8" y="-185.953" font-family="Helvetica,sans-Serif" font-size="10.00">vili::ComplexAttribute</text>
<text text-anchor="middle" x="62.5" y="-174.953" font-family="Helvetica,sans-Serif" font-size="10.00">::createComplexAttribute</text>
</g>
<!-- Node543 -->
<g id="node2" class="node"><title>Node543</title>
<g id="a_node2"><a xlink:href="classvili_1_1_complex_attribute.html#a303b76722d079863e3aac468c9d7a09c" target="_top" xlink:title="vili::ComplexAttribute\l::copy">
<polygon fill="white" stroke="black" points="165,-249.953 165,-279.953 273,-279.953 273,-249.953 165,-249.953"/>
<text text-anchor="start" x="173" y="-267.953" font-family="Helvetica,sans-Serif" font-size="10.00">vili::ComplexAttribute</text>
<text text-anchor="middle" x="219" y="-256.953" font-family="Helvetica,sans-Serif" font-size="10.00">::copy</text>
</a>
</g>
</g>
<!-- Node542&#45;&gt;Node543 -->
<g id="edge1" class="edge"><title>Node542&#45;&gt;Node543</title>
<path fill="none" stroke="midnightblue" d="M100.738,-202.874C118.902,-212.576 141.079,-224.398 161,-234.953 170.19,-239.822 180.225,-245.112 189.279,-249.875"/>
<polygon fill="midnightblue" stroke="midnightblue" points="102.107,-199.638 91.638,-198.012 98.8084,-205.812 102.107,-199.638"/>
</g>
<!-- Node545 -->
<g id="node4" class="node"><title>Node545</title>
<g id="a_node4"><a xlink:href="classvili_1_1_data_parser.html#aee1cbc0386d83924c07150644621160f" target="_top" xlink:title="vili::DataParser::parseFile">
<polygon fill="white" stroke="black" points="474,-255.453 474,-274.453 602,-274.453 602,-255.453 474,-255.453"/>
<text text-anchor="middle" x="538" y="-262.453" font-family="Helvetica,sans-Serif" font-size="10.00">vili::DataParser::parseFile</text>
</a>
</g>
</g>
<!-- Node542&#45;&gt;Node545 -->
<g id="edge32" class="edge"><title>Node542&#45;&gt;Node545</title>
<path fill="none" stroke="midnightblue" d="M135.252,-175.927C212.09,-170.831 336.646,-169.63 438,-201.953 473.519,-213.28 508.846,-240.606 526.105,-255.269"/>
<polygon fill="midnightblue" stroke="midnightblue" points="134.927,-172.441 125.197,-176.634 135.418,-179.424 134.927,-172.441"/>
</g>
<!-- Node548 -->
<g id="node7" class="node"><title>Node548</title>
<g id="a_node7"><a xlink:href="namespaceobe_1_1_modes.html#aba069f9abc42724d76690602326d6b7d" target="_top" xlink:title="obe::Modes::createLevel">
<polygon fill="white" stroke="black" points="811,-311.453 811,-330.453 933,-330.453 933,-311.453 811,-311.453"/>
<text text-anchor="middle" x="872" y="-318.453" font-family="Helvetica,sans-Serif" font-size="10.00">obe::Modes::createLevel</text>
</a>
</g>
</g>
<!-- Node542&#45;&gt;Node548 -->
<g id="edge34" class="edge"><title>Node542&#45;&gt;Node548</title>
<path fill="none" stroke="midnightblue" d="M79.458,-206.451C96.8754,-230.413 126.875,-267.086 161,-288.953 244.963,-342.754 274.779,-357.953 374.5,-357.953 374.5,-357.953 374.5,-357.953 539,-357.953 638.173,-357.953 752.989,-341.444 818.302,-330.481"/>
<polygon fill="midnightblue" stroke="midnightblue" points="82.2733,-204.371 73.626,-198.249 76.5683,-208.427 82.2733,-204.371"/>
</g>
<!-- Node565 -->
<g id="node24" class="node"><title>Node565</title>
<g id="a_node24"><a xlink:href="classvili_1_1_complex_attribute.html#a7effbea21d8995576687efb28c60fac9" target="_top" xlink:title="vili::ComplexAttribute::at">
<polygon fill="white" stroke="black" points="314.5,-211.453 314.5,-230.453 436.5,-230.453 436.5,-211.453 314.5,-211.453"/>
<text text-anchor="middle" x="375.5" y="-218.453" font-family="Helvetica,sans-Serif" font-size="10.00">vili::ComplexAttribute::at</text>
</a>
</g>
</g>
<!-- Node542&#45;&gt;Node565 -->
<g id="edge33" class="edge"><title>Node542&#45;&gt;Node565</title>
<path fill="none" stroke="midnightblue" d="M135.224,-193.507C143.903,-194.708 152.649,-195.884 161,-196.953 212.612,-203.557 271.371,-210.091 314.163,-214.669"/>
<polygon fill="midnightblue" stroke="midnightblue" points="135.483,-190.009 125.094,-192.089 134.513,-196.941 135.483,-190.009"/>
</g>
<!-- Node566 -->
<g id="node25" class="node"><title>Node566</title>
<g id="a_node25"><a xlink:href="classobe_1_1_scene_1_1_world.html#a9e5e57178b58edcba37810e6d3395220" target="_top" xlink:title="obe::Scene::World::\lsaveData">
<polygon fill="white" stroke="black" points="820,-41.9527 820,-71.9527 924,-71.9527 924,-41.9527 820,-41.9527"/>
<text text-anchor="start" x="828" y="-59.9527" font-family="Helvetica,sans-Serif" font-size="10.00">obe::Scene::World::</text>
<text text-anchor="middle" x="872" y="-48.9527" font-family="Helvetica,sans-Serif" font-size="10.00">saveData</text>
</a>
</g>
</g>
<!-- Node542&#45;&gt;Node566 -->
<g id="edge35" class="edge"><title>Node542&#45;&gt;Node566</title>
<path fill="none" stroke="midnightblue" d="M77.688,-158.878C94.1685,-133.387 123.901,-94.3467 161,-75.9527 246.349,-33.6358 279.236,-56.9527 374.5,-56.9527 374.5,-56.9527 374.5,-56.9527 539,-56.9527 638.427,-56.9527 754.603,-56.9527 819.812,-56.9527"/>
<polygon fill="midnightblue" stroke="midnightblue" points="74.5711,-157.26 72.2268,-167.593 80.5027,-160.978 74.5711,-157.26"/>
</g>
<!-- Node571 -->
<g id="node30" class="node"><title>Node571</title>
<g id="a_node30"><a xlink:href="namespaceobe_1_1_script_1_1_core_lib.html#a144f31cc8b37c8d19a05138691229059" target="_top" xlink:title="obe::Script::CoreLib\l::loadVili">
<polygon fill="white" stroke="black" points="486.5,-134.953 486.5,-164.953 589.5,-164.953 589.5,-134.953 486.5,-134.953"/>
<text text-anchor="start" x="494.5" y="-152.953" font-family="Helvetica,sans-Serif" font-size="10.00">obe::Script::CoreLib</text>
<text text-anchor="middle" x="538" y="-141.953" font-family="Helvetica,sans-Serif" font-size="10.00">::loadVili</text>
</a>
</g>
</g>
<!-- Node542&#45;&gt;Node571 -->
<g id="edge46" class="edge"><title>Node542&#45;&gt;Node571</title>
<path fill="none" stroke="midnightblue" d="M135.168,-171.895C143.857,-170.782 152.62,-169.764 161,-168.953 277.126,-157.706 414.114,-152.905 486.413,-151.03"/>
<polygon fill="midnightblue" stroke="midnightblue" points="134.482,-168.456 125.03,-173.241 135.403,-175.395 134.482,-168.456"/>
</g>
<!-- Node572 -->
<g id="node31" class="node"><title>Node572</title>
<g id="a_node31"><a xlink:href="namespaceobe_1_1_system_1_1_package.html#ad8db0c0875d239ceec4b89383b410c51" target="_top" xlink:title="Installs a Package. ">
<polygon fill="white" stroke="black" points="161,-85.9527 161,-115.953 277,-115.953 277,-85.9527 161,-85.9527"/>
<text text-anchor="start" x="169" y="-103.953" font-family="Helvetica,sans-Serif" font-size="10.00">obe::System::Package</text>
<text text-anchor="middle" x="219" y="-92.9527" font-family="Helvetica,sans-Serif" font-size="10.00">::Install</text>
</a>
</g>
</g>
<!-- Node542&#45;&gt;Node572 -->
<g id="edge48" class="edge"><title>Node542&#45;&gt;Node572</title>
<path fill="none" stroke="midnightblue" d="M100.738,-163.031C118.902,-153.329 141.079,-141.507 161,-130.953 170.19,-126.084 180.225,-120.793 189.279,-116.03"/>
<polygon fill="midnightblue" stroke="midnightblue" points="98.8084,-160.094 91.638,-167.893 102.107,-166.268 98.8084,-160.094"/>
</g>
<!-- Node544 -->
<g id="node3" class="node"><title>Node544</title>
<g id="a_node3"><a xlink:href="classvili_1_1_data_parser.html#a9608c9c66d1526081a5ab86045a20f1b" target="_top" xlink:title="vili::DataParser::generate\lTemplate">
<polygon fill="white" stroke="black" points="313,-249.953 313,-279.953 438,-279.953 438,-249.953 313,-249.953"/>
<text text-anchor="start" x="321" y="-267.953" font-family="Helvetica,sans-Serif" font-size="10.00">vili::DataParser::generate</text>
<text text-anchor="middle" x="375.5" y="-256.953" font-family="Helvetica,sans-Serif" font-size="10.00">Template</text>
</a>
</g>
</g>
<!-- Node543&#45;&gt;Node544 -->
<g id="edge2" class="edge"><title>Node543&#45;&gt;Node544</title>
<path fill="none" stroke="midnightblue" d="M283.263,-264.953C293.083,-264.953 303.215,-264.953 312.995,-264.953"/>
<polygon fill="midnightblue" stroke="midnightblue" points="283.17,-261.453 273.17,-264.953 283.17,-268.453 283.17,-261.453"/>
</g>
<!-- Node564 -->
<g id="node23" class="node"><title>Node564</title>
<g id="a_node23"><a xlink:href="classvili_1_1_data_template.html#a3b1b4345950d341c0206b19b46fe09a0" target="_top" xlink:title="vili::DataTemplate\l::build">
<polygon fill="white" stroke="black" points="329,-298.953 329,-328.953 422,-328.953 422,-298.953 329,-298.953"/>
<text text-anchor="start" x="337" y="-316.953" font-family="Helvetica,sans-Serif" font-size="10.00">vili::DataTemplate</text>
<text text-anchor="middle" x="375.5" y="-305.953" font-family="Helvetica,sans-Serif" font-size="10.00">::build</text>
</a>
</g>
</g>
<!-- Node543&#45;&gt;Node564 -->
<g id="edge30" class="edge"><title>Node543&#45;&gt;Node564</title>
<path fill="none" stroke="midnightblue" d="M277.429,-283.166C294.411,-288.552 312.764,-294.373 328.893,-299.488"/>
<polygon fill="midnightblue" stroke="midnightblue" points="278.206,-279.741 267.616,-280.054 276.09,-286.414 278.206,-279.741"/>
</g>
<!-- Node543&#45;&gt;Node565 -->
<g id="edge31" class="edge"><title>Node543&#45;&gt;Node565</title>
<path fill="none" stroke="midnightblue" d="M282.413,-247.178C302.396,-241.487 323.755,-235.404 340.867,-230.531"/>
<polygon fill="midnightblue" stroke="midnightblue" points="281.397,-243.828 272.738,-249.933 283.314,-250.561 281.397,-243.828"/>
</g>
<!-- Node544&#45;&gt;Node545 -->
<g id="edge3" class="edge"><title>Node544&#45;&gt;Node545</title>
<path fill="none" stroke="midnightblue" d="M448.125,-264.953C456.742,-264.953 465.494,-264.953 473.976,-264.953"/>
<polygon fill="midnightblue" stroke="midnightblue" points="448.095,-261.453 438.094,-264.953 448.094,-268.453 448.095,-261.453"/>
</g>
<!-- Node546 -->
<g id="node5" class="node"><title>Node546</title>
<g id="a_node5"><a xlink:href="classvili_1_1_data_parser.html#aa24d18e75c36a9a848b2d2a0f14a5819" target="_top" xlink:title="vili::DataParser::DataParser">
<polygon fill="white" stroke="black" points="638,-293.453 638,-312.453 775,-312.453 775,-293.453 638,-293.453"/>
<text text-anchor="middle" x="706.5" y="-300.453" font-family="Helvetica,sans-Serif" font-size="10.00">vili::DataParser::DataParser</text>
</a>
</g>
</g>
<!-- Node545&#45;&gt;Node546 -->
<g id="edge4" class="edge"><title>Node545&#45;&gt;Node546</title>
<path fill="none" stroke="midnightblue" d="M590.809,-276.777C614.283,-282.134 641.665,-288.384 663.787,-293.433"/>
<polygon fill="midnightblue" stroke="midnightblue" points="591.543,-273.355 581.015,-274.542 589.985,-280.179 591.543,-273.355"/>
</g>
<!-- Node547 -->
<g id="node6" class="node"><title>Node547</title>
<g id="a_node6"><a xlink:href="classvili_1_1_data_parser.html#a17e30ec4a5e111082ffea7ca82eb89d9" target="_top" xlink:title="vili::DataParser::includeFile">
<polygon fill="white" stroke="black" points="639.5,-255.453 639.5,-274.453 773.5,-274.453 773.5,-255.453 639.5,-255.453"/>
<text text-anchor="middle" x="706.5" y="-262.453" font-family="Helvetica,sans-Serif" font-size="10.00">vili::DataParser::includeFile</text>
</a>
</g>
</g>
<!-- Node545&#45;&gt;Node547 -->
<g id="edge5" class="edge"><title>Node545&#45;&gt;Node547</title>
<path fill="none" stroke="midnightblue" d="M612.484,-258.244C621.474,-258.167 630.618,-258.197 639.489,-258.333"/>
<polygon fill="midnightblue" stroke="midnightblue" points="612.375,-254.745 602.421,-258.376 612.466,-261.745 612.375,-254.745"/>
</g>
<!-- Node552 -->
<g id="node11" class="node"><title>Node552</title>
<g id="a_node11"><a xlink:href="namespaceobe_1_1_system.html#ab44a678f8f4dc351d966f90283ba67e1" target="_top" xlink:title="Function called to Mount all Paths using &#39;Mount.vili&#39; file. ">
<polygon fill="white" stroke="black" points="641,-217.453 641,-236.453 772,-236.453 772,-217.453 641,-217.453"/>
<text text-anchor="middle" x="706.5" y="-224.453" font-family="Helvetica,sans-Serif" font-size="10.00">obe::System::MountPaths</text>
</a>
</g>
</g>
<!-- Node545&#45;&gt;Node552 -->
<g id="edge12" class="edge"><title>Node545&#45;&gt;Node552</title>
<path fill="none" stroke="midnightblue" d="M590.809,-253.128C614.283,-247.771 641.665,-241.522 663.787,-236.473"/>
<polygon fill="midnightblue" stroke="midnightblue" points="589.985,-249.726 581.015,-255.364 591.543,-256.551 589.985,-249.726"/>
</g>
<!-- Node547&#45;&gt;Node545 -->
<g id="edge6" class="edge"><title>Node547&#45;&gt;Node545</title>
<path fill="none" stroke="midnightblue" d="M629.38,-271.681C620.364,-271.737 611.235,-271.686 602.421,-271.53"/>
<polygon fill="midnightblue" stroke="midnightblue" points="629.527,-275.179 639.489,-271.572 629.452,-268.18 629.527,-275.179"/>
</g>
<!-- Node547&#45;&gt;Node548 -->
<g id="edge7" class="edge"><title>Node547&#45;&gt;Node548</title>
<path fill="none" stroke="midnightblue" d="M753.494,-277.276C760.725,-279.393 768.091,-281.654 775,-283.953 788.644,-288.491 823.096,-301.955 846.788,-311.323"/>
<polygon fill="midnightblue" stroke="midnightblue" points="754.349,-273.881 743.772,-274.49 752.42,-280.61 754.349,-273.881"/>
</g>
<!-- Node549 -->
<g id="node8" class="node"><title>Node549</title>
<g id="a_node8"><a xlink:href="namespaceobe_1_1_modes.html#a3f3265818dfb12925bf614e517346f73" target="_top" xlink:title="Starts the menu used to chose a map to edit. ">
<polygon fill="white" stroke="black" points="1450,-311.453 1450,-330.453 1598,-330.453 1598,-311.453 1450,-311.453"/>
<text text-anchor="middle" x="1524" y="-318.453" font-family="Helvetica,sans-Serif" font-size="10.00">obe::Modes::chooseMapMenu</text>
</a>
</g>
</g>
<!-- Node548&#45;&gt;Node549 -->
<g id="edge8" class="edge"><title>Node548&#45;&gt;Node549</title>
<path fill="none" stroke="midnightblue" d="M943.425,-320.953C1067.55,-320.953 1324.03,-320.953 1449.98,-320.953"/>
<polygon fill="midnightblue" stroke="midnightblue" points="943.276,-317.453 933.276,-320.953 943.276,-324.453 943.276,-317.453"/>
</g>
<!-- Node550 -->
<g id="node9" class="node"><title>Node550</title>
<g id="a_node9"><a xlink:href="namespaceobe_1_1_modes.html#a6a8b08eee511d4895c4da96d4ba223a6" target="_top" xlink:title="Starts the development Menu where you can starts other menus from. ">
<polygon fill="white" stroke="black" points="1634,-197.453 1634,-216.453 1767,-216.453 1767,-197.453 1634,-197.453"/>
<text text-anchor="middle" x="1700.5" y="-204.453" font-family="Helvetica,sans-Serif" font-size="10.00">obe::Modes::startDevMenu</text>
</a>
</g>
</g>
<!-- Node549&#45;&gt;Node550 -->
<g id="edge9" class="edge"><title>Node549&#45;&gt;Node550</title>
<path fill="none" stroke="midnightblue" d="M1548.06,-305.886C1584.43,-282.125 1654.11,-236.609 1684.59,-216.691"/>
<polygon fill="midnightblue" stroke="midnightblue" points="1546.04,-303.03 1539.58,-311.429 1549.86,-308.89 1546.04,-303.03"/>
</g>
<!-- Node551 -->
<g id="node10" class="node"><title>Node551</title>
<g id="a_node10"><a xlink:href="_ob_engine_8cpp.html#a3c04138a5bfe5d72780bb7e82a18e627" target="_top" xlink:title="main">
<polygon fill="white" stroke="black" points="1803,-235.453 1803,-254.453 1841,-254.453 1841,-235.453 1803,-235.453"/>
<text text-anchor="middle" x="1822" y="-242.453" font-family="Helvetica,sans-Serif" font-size="10.00">main</text>
</a>
</g>
</g>
<!-- Node549&#45;&gt;Node551 -->
<g id="edge11" class="edge"><title>Node549&#45;&gt;Node551</title>
<path fill="none" stroke="midnightblue" d="M1608.26,-325.954C1656.65,-325.691 1717.62,-319.761 1767,-296.953 1787.56,-287.457 1805.12,-266.847 1814.26,-254.618"/>
<polygon fill="midnightblue" stroke="midnightblue" points="1608.14,-322.454 1598.14,-325.928 1608.13,-329.454 1608.14,-322.454"/>
</g>
<!-- Node550&#45;&gt;Node551 -->
<g id="edge10" class="edge"><title>Node550&#45;&gt;Node551</title>
<path fill="none" stroke="midnightblue" d="M1741.21,-219.581C1762.01,-226.194 1786.47,-233.971 1802.77,-239.155"/>
<polygon fill="midnightblue" stroke="midnightblue" points="1742.25,-216.237 1731.65,-216.542 1740.12,-222.908 1742.25,-216.237"/>
</g>
<!-- Node552&#45;&gt;Node551 -->
<g id="edge13" class="edge"><title>Node552&#45;&gt;Node551</title>
<path fill="none" stroke="midnightblue" d="M750.594,-239.226C812.37,-255.708 929.918,-282.953 1032,-282.953 1032,-282.953 1032,-282.953 1525,-282.953 1630.95,-282.953 1756.51,-258.704 1802.75,-248.948"/>
<polygon fill="midnightblue" stroke="midnightblue" points="751.374,-235.811 740.807,-236.579 749.547,-242.568 751.374,-235.811"/>
</g>
<!-- Node553 -->
<g id="node12" class="node"><title>Node553</title>
<g id="a_node12"><a xlink:href="namespaceobe_1_1_script_1_1_core_lib.html#a474d9f2d7938ff05a78649907b8a77d3" target="_top" xlink:title="obe::Script::CoreLib\l::loadPath">
<polygon fill="white" stroke="black" points="820.5,-190.953 820.5,-220.953 923.5,-220.953 923.5,-190.953 820.5,-190.953"/>
<text text-anchor="start" x="828.5" y="-208.953" font-family="Helvetica,sans-Serif" font-size="10.00">obe::Script::CoreLib</text>
<text text-anchor="middle" x="872" y="-197.953" font-family="Helvetica,sans-Serif" font-size="10.00">::loadPath</text>
</a>
</g>
</g>
<!-- Node552&#45;&gt;Node553 -->
<g id="edge14" class="edge"><title>Node552&#45;&gt;Node553</title>
<path fill="none" stroke="midnightblue" d="M782.385,-217.334C795.278,-215.678 808.4,-213.993 820.457,-212.444"/>
<polygon fill="midnightblue" stroke="midnightblue" points="781.592,-213.907 772.12,-218.653 782.484,-220.85 781.592,-213.907"/>
</g>
<!-- Node554 -->
<g id="node13" class="node"><title>Node554</title>
<g id="a_node13"><a xlink:href="namespaceobe_1_1_script.html#abdb81ec0976f1097cef6711415b8fac3" target="_top" xlink:title="obe::Script::loadCoreLib">
<polygon fill="white" stroke="black" points="972.5,-138.453 972.5,-157.453 1093.5,-157.453 1093.5,-138.453 972.5,-138.453"/>
<text text-anchor="middle" x="1033" y="-145.453" font-family="Helvetica,sans-Serif" font-size="10.00">obe::Script::loadCoreLib</text>
</a>
</g>
</g>
<!-- Node553&#45;&gt;Node554 -->
<g id="edge15" class="edge"><title>Node553&#45;&gt;Node554</title>
<path fill="none" stroke="midnightblue" d="M923.771,-187.433C951.062,-177.477 983.572,-165.618 1005.79,-157.513"/>
<polygon fill="midnightblue" stroke="midnightblue" points="922.555,-184.15 914.36,-190.865 924.954,-190.726 922.555,-184.15"/>
</g>
<!-- Node555 -->
<g id="node14" class="node"><title>Node555</title>
<g id="a_node14"><a xlink:href="namespaceobe_1_1_script.html#a4e6ee77032cf7f66544f9b08464a60b7" target="_top" xlink:title="obe::Script::loadLib">
<polygon fill="white" stroke="black" points="1134.5,-181.453 1134.5,-200.453 1235.5,-200.453 1235.5,-181.453 1134.5,-181.453"/>
<text text-anchor="middle" x="1185" y="-188.453" font-family="Helvetica,sans-Serif" font-size="10.00">obe::Script::loadLib</text>
</a>
</g>
</g>
<!-- Node554&#45;&gt;Node555 -->
<g id="edge16" class="edge"><title>Node554&#45;&gt;Node555</title>
<path fill="none" stroke="midnightblue" d="M1077,-160.278C1100.46,-167.005 1129.07,-175.207 1150.8,-181.436"/>
<polygon fill="midnightblue" stroke="midnightblue" points="1077.87,-156.887 1067.29,-157.496 1075.94,-163.616 1077.87,-156.887"/>
</g>
<!-- Node563 -->
<g id="node22" class="node"><title>Node563</title>
<g id="a_node22"><a xlink:href="namespaceobe_1_1_script_1_1_core_lib.html#a07d6c11bbb082bc45bdba50d97965c00" target="_top" xlink:title="obe::Script::CoreLib\l::loadCollision">
<polygon fill="white" stroke="black" points="1133.5,-131.953 1133.5,-161.953 1236.5,-161.953 1236.5,-131.953 1133.5,-131.953"/>
<text text-anchor="start" x="1141.5" y="-149.953" font-family="Helvetica,sans-Serif" font-size="10.00">obe::Script::CoreLib</text>
<text text-anchor="middle" x="1185" y="-138.953" font-family="Helvetica,sans-Serif" font-size="10.00">::loadCollision</text>
</a>
</g>
</g>
<!-- Node554&#45;&gt;Node563 -->
<g id="edge28" class="edge"><title>Node554&#45;&gt;Node563</title>
<path fill="none" stroke="midnightblue" d="M1103.93,-140.75C1113.79,-140.631 1123.78,-140.667 1133.19,-140.864"/>
<polygon fill="midnightblue" stroke="midnightblue" points="1103.65,-137.254 1093.71,-140.931 1103.78,-144.253 1103.65,-137.254"/>
</g>
<!-- Node556 -->
<g id="node15" class="node"><title>Node556</title>
<g id="a_node15"><a xlink:href="namespaceobe_1_1_modes.html#a1e38c0d9a2ca0230f0de79c298f53ab9" target="_top" xlink:title="A mode that will start the Toolkit. ">
<polygon fill="white" stroke="black" points="1451,-219.453 1451,-238.453 1597,-238.453 1597,-219.453 1451,-219.453"/>
<text text-anchor="middle" x="1524" y="-226.453" font-family="Helvetica,sans-Serif" font-size="10.00">obe::Modes::startToolkitMode</text>
</a>
</g>
</g>
<!-- Node555&#45;&gt;Node556 -->
<g id="edge17" class="edge"><title>Node555&#45;&gt;Node556</title>
<path fill="none" stroke="midnightblue" d="M1245.73,-197.687C1303.08,-204.155 1389.8,-213.933 1450.95,-220.829"/>
<polygon fill="midnightblue" stroke="midnightblue" points="1246.05,-194.202 1235.73,-196.56 1245.27,-201.158 1246.05,-194.202"/>
</g>
<!-- Node557 -->
<g id="node16" class="node"><title>Node557</title>
<g id="a_node16"><a xlink:href="classobe_1_1_scene_1_1_world.html#a32964e659e18cb32094d9f8ceea30aa3" target="_top" xlink:title="obe::Scene::World::\lWorld">
<polygon fill="white" stroke="black" points="1472,-86.9527 1472,-116.953 1576,-116.953 1576,-86.9527 1472,-86.9527"/>
<text text-anchor="start" x="1480" y="-104.953" font-family="Helvetica,sans-Serif" font-size="10.00">obe::Scene::World::</text>
<text text-anchor="middle" x="1524" y="-93.9527" font-family="Helvetica,sans-Serif" font-size="10.00">World</text>
</a>
</g>
</g>
<!-- Node555&#45;&gt;Node557 -->
<g id="edge20" class="edge"><title>Node555&#45;&gt;Node557</title>
<path fill="none" stroke="midnightblue" d="M1222.12,-177.593C1227.17,-175.492 1232.25,-173.251 1237,-170.953 1253.67,-162.881 1255.66,-156.459 1273,-149.953 1339.21,-125.116 1420.31,-112.575 1471.83,-106.662"/>
<polygon fill="midnightblue" stroke="midnightblue" points="1220.52,-174.464 1212.54,-181.438 1223.12,-180.96 1220.52,-174.464"/>
</g>
<!-- Node558 -->
<g id="node17" class="node"><title>Node558</title>
<g id="a_node17"><a xlink:href="namespaceobe_1_1_scene.html#ae5cbcc3278d9115d603e5024dec9136e" target="_top" xlink:title="obe::Scene::loadWorldScript\lEngineBaseLib">
<polygon fill="white" stroke="black" points="1273,-71.9527 1273,-101.953 1414,-101.953 1414,-71.9527 1273,-71.9527"/>
<text text-anchor="start" x="1281" y="-89.9527" font-family="Helvetica,sans-Serif" font-size="10.00">obe::Scene::loadWorldScript</text>
<text text-anchor="middle" x="1343.5" y="-78.9527" font-family="Helvetica,sans-Serif" font-size="10.00">EngineBaseLib</text>
</a>
</g>
</g>
<!-- Node555&#45;&gt;Node558 -->
<g id="edge21" class="edge"><title>Node555&#45;&gt;Node558</title>
<path fill="none" stroke="midnightblue" d="M1228.2,-176.876C1231.31,-175.106 1234.29,-173.137 1237,-170.953 1259.46,-152.855 1250.85,-135.427 1273,-116.953 1280.06,-111.06 1288.46,-106.148 1296.94,-102.119"/>
<polygon fill="midnightblue" stroke="midnightblue" points="1226.57,-173.774 1219.17,-181.352 1229.68,-180.045 1226.57,-173.774"/>
</g>
<!-- Node559 -->
<g id="node18" class="node"><title>Node559</title>
<g id="a_node18"><a xlink:href="namespaceobe_1_1_script.html#a5e992c0efb0543e7c934bc1065f08b01" target="_top" xlink:title="obe::Script::loadLibBridge">
<polygon fill="white" stroke="black" points="1279.5,-159.453 1279.5,-178.453 1407.5,-178.453 1407.5,-159.453 1279.5,-159.453"/>
<text text-anchor="middle" x="1343.5" y="-166.453" font-family="Helvetica,sans-Serif" font-size="10.00">obe::Script::loadLibBridge</text>
</a>
</g>
</g>
<!-- Node555&#45;&gt;Node559 -->
<g id="edge23" class="edge"><title>Node555&#45;&gt;Node559</title>
<path fill="none" stroke="midnightblue" d="M1245.48,-182.591C1256.52,-181.039 1268.09,-179.413 1279.24,-177.845"/>
<polygon fill="midnightblue" stroke="midnightblue" points="1244.93,-179.134 1235.52,-183.992 1245.91,-186.066 1244.93,-179.134"/>
</g>
<!-- Node562 -->
<g id="node21" class="node"><title>Node562</title>
<g id="a_node21"><a xlink:href="namespaceobe_1_1_script.html#aad6ef67388e6d16eb01853f208da410f" target="_top" xlink:title="obe::Script::loadBaseLib">
<polygon fill="white" stroke="black" points="1282,-235.453 1282,-254.453 1405,-254.453 1405,-235.453 1282,-235.453"/>
<text text-anchor="middle" x="1343.5" y="-242.453" font-family="Helvetica,sans-Serif" font-size="10.00">obe::Script::loadBaseLib</text>
</a>
</g>
</g>
<!-- Node555&#45;&gt;Node562 -->
<g id="edge26" class="edge"><title>Node555&#45;&gt;Node562</title>
<path fill="none" stroke="midnightblue" d="M1223.13,-203.764C1251.3,-213.483 1289.39,-226.626 1314.89,-235.427"/>
<polygon fill="midnightblue" stroke="midnightblue" points="1224.21,-200.436 1213.62,-200.482 1221.93,-207.053 1224.21,-200.436"/>
</g>
<!-- Node556&#45;&gt;Node550 -->
<g id="edge18" class="edge"><title>Node556&#45;&gt;Node550</title>
<path fill="none" stroke="midnightblue" d="M1607.23,-218.586C1616.12,-217.465 1625.08,-216.335 1633.74,-215.243"/>
<polygon fill="midnightblue" stroke="midnightblue" points="1606.72,-215.122 1597.24,-219.846 1607.59,-222.067 1606.72,-215.122"/>
</g>
<!-- Node556&#45;&gt;Node551 -->
<g id="edge19" class="edge"><title>Node556&#45;&gt;Node551</title>
<path fill="none" stroke="midnightblue" d="M1607.21,-233.396C1674.53,-237.035 1764.65,-241.907 1802.76,-243.967"/>
<polygon fill="midnightblue" stroke="midnightblue" points="1607.21,-229.891 1597.03,-232.846 1606.83,-236.881 1607.21,-229.891"/>
</g>
<!-- Node558&#45;&gt;Node557 -->
<g id="edge22" class="edge"><title>Node558&#45;&gt;Node557</title>
<path fill="none" stroke="midnightblue" d="M1424.06,-93.6386C1440.31,-95.0036 1456.98,-96.4051 1471.91,-97.6591"/>
<polygon fill="midnightblue" stroke="midnightblue" points="1424.28,-90.1448 1414.02,-92.795 1423.7,-97.1202 1424.28,-90.1448"/>
</g>
<!-- Node560 -->
<g id="node19" class="node"><title>Node560</title>
<g id="a_node19"><a xlink:href="namespaceobe_1_1_script.html#a5dc8321da50fd4b5dc2935e4d8c93a4e" target="_top" xlink:title="obe::Script::loadScrGame\lObject">
<polygon fill="white" stroke="black" points="1459.5,-150.953 1459.5,-180.953 1588.5,-180.953 1588.5,-150.953 1459.5,-150.953"/>
<text text-anchor="start" x="1467.5" y="-168.953" font-family="Helvetica,sans-Serif" font-size="10.00">obe::Script::loadScrGame</text>
<text text-anchor="middle" x="1524" y="-157.953" font-family="Helvetica,sans-Serif" font-size="10.00">Object</text>
</a>
</g>
</g>
<!-- Node559&#45;&gt;Node560 -->
<g id="edge24" class="edge"><title>Node559&#45;&gt;Node560</title>
<path fill="none" stroke="midnightblue" d="M1418.03,-167.717C1431.73,-167.487 1445.93,-167.248 1459.3,-167.023"/>
<polygon fill="midnightblue" stroke="midnightblue" points="1417.62,-164.223 1407.68,-167.891 1417.74,-171.222 1417.62,-164.223"/>
</g>
<!-- Node561 -->
<g id="node20" class="node"><title>Node561</title>
<g id="a_node20"><a xlink:href="classobe_1_1_script_1_1_game_object.html#aadeac0036d2fe21d523acfd4e9011a23" target="_top" xlink:title="obe::Script::GameObject\l::loadGameObject">
<polygon fill="white" stroke="black" points="1638,-147.953 1638,-177.953 1763,-177.953 1763,-147.953 1638,-147.953"/>
<text text-anchor="start" x="1646" y="-165.953" font-family="Helvetica,sans-Serif" font-size="10.00">obe::Script::GameObject</text>
<text text-anchor="middle" x="1700.5" y="-154.953" font-family="Helvetica,sans-Serif" font-size="10.00">::loadGameObject</text>
</a>
</g>
</g>
<!-- Node560&#45;&gt;Node561 -->
<g id="edge25" class="edge"><title>Node560&#45;&gt;Node561</title>
<path fill="none" stroke="midnightblue" d="M1599.21,-164.677C1612.09,-164.456 1625.35,-164.227 1637.85,-164.013"/>
<polygon fill="midnightblue" stroke="midnightblue" points="1598.92,-161.181 1588.99,-164.853 1599.05,-168.18 1598.92,-161.181"/>
</g>
<!-- Node562&#45;&gt;Node556 -->
<g id="edge27" class="edge"><title>Node562&#45;&gt;Node556</title>
<path fill="none" stroke="midnightblue" d="M1415.54,-238.585C1427.19,-237.541 1439.27,-236.457 1450.95,-235.411"/>
<polygon fill="midnightblue" stroke="midnightblue" points="1415.08,-235.112 1405.43,-239.491 1415.7,-242.084 1415.08,-235.112"/>
</g>
<!-- Node563&#45;&gt;Node554 -->
<g id="edge29" class="edge"><title>Node563&#45;&gt;Node554</title>
<path fill="none" stroke="midnightblue" d="M1122.9,-154.006C1113.26,-154.216 1103.31,-154.275 1093.71,-154.178"/>
<polygon fill="midnightblue" stroke="midnightblue" points="1123.29,-157.496 1133.19,-153.719 1123.1,-150.499 1123.29,-157.496"/>
</g>
<!-- Node567 -->
<g id="node26" class="node"><title>Node567</title>
<g id="a_node26"><a xlink:href="namespaceobe_1_1_editor.html#a9009207671e71dccb68a31ea2362e9ef" target="_top" xlink:title="Starts the map edition. ">
<polygon fill="white" stroke="black" points="1472,-46.4527 1472,-65.4527 1576,-65.4527 1576,-46.4527 1472,-46.4527"/>
<text text-anchor="middle" x="1524" y="-53.4527" font-family="Helvetica,sans-Serif" font-size="10.00">obe::Editor::editMap</text>
</a>
</g>
</g>
<!-- Node566&#45;&gt;Node567 -->
<g id="edge36" class="edge"><title>Node566&#45;&gt;Node567</title>
<path fill="none" stroke="midnightblue" d="M934.215,-41.3986C1035.08,-18.124 1242.16,19.7179 1414,-12.9527 1447.37,-19.2978 1483.59,-35.6633 1504.74,-46.2755"/>
<polygon fill="midnightblue" stroke="midnightblue" points="933.143,-38.0547 924.204,-43.7416 934.739,-44.8705 933.143,-38.0547"/>
</g>
<!-- Node568 -->
<g id="node27" class="node"><title>Node568</title>
<g id="a_node27"><a xlink:href="namespaceobe_1_1_scene.html#ac23b5fc14866394c89a820ce6badc130" target="_top" xlink:title="obe::Scene::loadWorldLib">
<polygon fill="white" stroke="black" points="969,-49.4527 969,-68.4527 1097,-68.4527 1097,-49.4527 969,-49.4527"/>
<text text-anchor="middle" x="1033" y="-56.4527" font-family="Helvetica,sans-Serif" font-size="10.00">obe::Scene::loadWorldLib</text>
</a>
</g>
</g>
<!-- Node566&#45;&gt;Node568 -->
<g id="edge39" class="edge"><title>Node566&#45;&gt;Node568</title>
<path fill="none" stroke="midnightblue" d="M934.407,-57.7251C945.729,-57.8675 957.567,-58.0164 968.936,-58.1594"/>
<polygon fill="midnightblue" stroke="midnightblue" points="934.227,-54.2227 924.184,-57.5965 934.139,-61.2221 934.227,-54.2227"/>
</g>
<!-- Node567&#45;&gt;Node550 -->
<g id="edge37" class="edge"><title>Node567&#45;&gt;Node550</title>
<path fill="none" stroke="midnightblue" d="M1585.45,-67.9428C1590.03,-70.4124 1594.3,-73.3823 1598,-76.9527 1635.03,-112.663 1597.27,-150.943 1634,-186.953 1638.42,-191.281 1643.74,-194.676 1649.42,-197.338"/>
<polygon fill="midnightblue" stroke="midnightblue" points="1586.89,-64.7523 1576.34,-63.7842 1583.99,-71.1204 1586.89,-64.7523"/>
</g>
<!-- Node567&#45;&gt;Node551 -->
<g id="edge38" class="edge"><title>Node567&#45;&gt;Node551</title>
<path fill="none" stroke="midnightblue" d="M1586.19,-63.2148C1639.55,-72.4144 1716.15,-92.9112 1767,-137.953 1797.84,-165.271 1813.28,-214.339 1818.69,-235.171"/>
<polygon fill="midnightblue" stroke="midnightblue" points="1586.61,-59.7372 1576.18,-61.5733 1585.48,-66.645 1586.61,-59.7372"/>
</g>
<!-- Node568&#45;&gt;Node558 -->
<g id="edge45" class="edge"><title>Node568&#45;&gt;Node558</title>
<path fill="none" stroke="midnightblue" d="M1075.69,-71.2036C1093.22,-75.7939 1113.94,-80.4905 1133,-82.9527 1179.36,-88.9413 1231.96,-89.9257 1272.86,-89.4209"/>
<polygon fill="midnightblue" stroke="midnightblue" points="1076.34,-67.7533 1065.77,-68.5309 1074.51,-74.5122 1076.34,-67.7533"/>
</g>
<!-- Node569 -->
<g id="node28" class="node"><title>Node569</title>
<g id="a_node28"><a xlink:href="classobe_1_1_scene_1_1_world.html#a896573e186dc6efbe2e5def53533908f" target="_top" xlink:title="obe::Scene::World::\lcreateGameObject">
<polygon fill="white" stroke="black" points="1133,-43.9527 1133,-73.9527 1237,-73.9527 1237,-43.9527 1133,-43.9527"/>
<text text-anchor="start" x="1141" y="-61.9527" font-family="Helvetica,sans-Serif" font-size="10.00">obe::Scene::World::</text>
<text text-anchor="middle" x="1185" y="-50.9527" font-family="Helvetica,sans-Serif" font-size="10.00">createGameObject</text>
</a>
</g>
</g>
<!-- Node568&#45;&gt;Node569 -->
<g id="edge40" class="edge"><title>Node568&#45;&gt;Node569</title>
<path fill="none" stroke="midnightblue" d="M1107.25,-52.2043C1115.86,-52.1882 1124.5,-52.2908 1132.72,-52.512"/>
<polygon fill="midnightblue" stroke="midnightblue" points="1107.15,-48.7048 1097.18,-52.2778 1107.2,-55.7046 1107.15,-48.7048"/>
</g>
<!-- Node569&#45;&gt;Node568 -->
<g id="edge44" class="edge"><title>Node569&#45;&gt;Node568</title>
<path fill="none" stroke="midnightblue" d="M1122.62,-65.6027C1114.23,-65.7271 1105.6,-65.7354 1097.18,-65.6276"/>
<polygon fill="midnightblue" stroke="midnightblue" points="1122.79,-69.1001 1132.72,-65.3933 1122.65,-62.1016 1122.79,-69.1001"/>
</g>
<!-- Node570 -->
<g id="node29" class="node"><title>Node570</title>
<g id="a_node29"><a xlink:href="classobe_1_1_scene_1_1_world.html#a362d242e7751481b0086ca9ed131920f" target="_top" xlink:title="obe::Scene::World::\lloadFromFile">
<polygon fill="white" stroke="black" points="1291.5,-22.9527 1291.5,-52.9527 1395.5,-52.9527 1395.5,-22.9527 1291.5,-22.9527"/>
<text text-anchor="start" x="1299.5" y="-40.9527" font-family="Helvetica,sans-Serif" font-size="10.00">obe::Scene::World::</text>
<text text-anchor="middle" x="1343.5" y="-29.9527" font-family="Helvetica,sans-Serif" font-size="10.00">loadFromFile</text>
</a>
</g>
</g>
<!-- Node569&#45;&gt;Node570 -->
<g id="edge41" class="edge"><title>Node569&#45;&gt;Node570</title>
<path fill="none" stroke="midnightblue" d="M1247.21,-50.7393C1261.83,-48.7768 1277.29,-46.7023 1291.41,-44.8084"/>
<polygon fill="midnightblue" stroke="midnightblue" points="1246.69,-47.2776 1237.24,-52.0765 1247.62,-54.2154 1246.69,-47.2776"/>
</g>
<!-- Node570&#45;&gt;Node567 -->
<g id="edge42" class="edge"><title>Node570&#45;&gt;Node567</title>
<path fill="none" stroke="midnightblue" d="M1405.68,-44.1224C1427.23,-46.2952 1451.21,-48.7131 1471.84,-50.7938"/>
<polygon fill="midnightblue" stroke="midnightblue" points="1405.95,-40.6318 1395.65,-43.1108 1405.25,-47.5965 1405.95,-40.6318"/>
</g>
<!-- Node570&#45;&gt;Node568 -->
<g id="edge43" class="edge"><title>Node570&#45;&gt;Node568</title>
<path fill="none" stroke="midnightblue" d="M1281.44,-32.2177C1239.52,-29.3976 1182.69,-27.7754 1133,-33.9527 1109.43,-36.883 1083.41,-43.5954 1063.96,-49.3275"/>
<polygon fill="midnightblue" stroke="midnightblue" points="1281.26,-35.7143 1291.49,-32.936 1281.76,-28.7321 1281.26,-35.7143"/>
</g>
<!-- Node571&#45;&gt;Node554 -->
<g id="edge47" class="edge"><title>Node571&#45;&gt;Node554</title>
<path fill="none" stroke="midnightblue" d="M599.947,-149.705C695.099,-149.319 877.805,-148.578 972.23,-148.195"/>
<polygon fill="midnightblue" stroke="midnightblue" points="599.888,-146.206 589.903,-149.746 599.917,-153.205 599.888,-146.206"/>
</g>
<!-- Node573 -->
<g id="node32" class="node"><title>Node573</title>
<g id="a_node32"><a xlink:href="namespaceobe_1_1_script_1_1_core_lib.html#a1f5462552ef202ab28d4e0613eeda3f7" target="_top" xlink:title="obe::Script::CoreLib\l::loadPackage">
<polygon fill="white" stroke="black" points="486.5,-85.9527 486.5,-115.953 589.5,-115.953 589.5,-85.9527 486.5,-85.9527"/>
<text text-anchor="start" x="494.5" y="-103.953" font-family="Helvetica,sans-Serif" font-size="10.00">obe::Script::CoreLib</text>
<text text-anchor="middle" x="538" y="-92.9527" font-family="Helvetica,sans-Serif" font-size="10.00">::loadPackage</text>
</a>
</g>
</g>
<!-- Node572&#45;&gt;Node573 -->
<g id="edge49" class="edge"><title>Node572&#45;&gt;Node573</title>
<path fill="none" stroke="midnightblue" d="M287.107,-100.953C346.695,-100.953 432.462,-100.953 486.431,-100.953"/>
<polygon fill="midnightblue" stroke="midnightblue" points="287.039,-97.4528 277.039,-100.953 287.039,-104.453 287.039,-97.4528"/>
</g>
<!-- Node573&#45;&gt;Node554 -->
<g id="edge50" class="edge"><title>Node573&#45;&gt;Node554</title>
<path fill="none" stroke="midnightblue" d="M599.947,-106.763C695.099,-115.834 877.805,-133.253 972.23,-142.254"/>
<polygon fill="midnightblue" stroke="midnightblue" points="600.19,-103.27 589.903,-105.805 599.525,-110.239 600.19,-103.27"/>
</g>
</g>
</svg>
