<?xml version="1.0" encoding="UTF-8" standalone="no"?>
<!DOCTYPE svg PUBLIC "-//W3C//DTD SVG 1.1//EN"
 "http://www.w3.org/Graphics/SVG/1.1/DTD/svg11.dtd">
<!-- Generated by graphviz version 2.38.0 (20140413.2041)
 -->
<!-- Title: obe::Graphics::LevelSprite::setAtr Pages: 1 -->
<svg width="1192pt" height="261pt"
 viewBox="0.00 0.00 1192.00 261.00" xmlns="http://www.w3.org/2000/svg" xmlns:xlink="http://www.w3.org/1999/xlink">
<g id="graph0" class="graph" transform="scale(1 1) rotate(0) translate(4 257)">
<title>obe::Graphics::LevelSprite::setAtr</title>
<!-- Node472 -->
<g id="node1" class="node"><title>Node472</title>
<polygon fill="#bfbfbf" stroke="black" points="0,-115 0,-145 131,-145 131,-115 0,-115"/>
<text text-anchor="start" x="8" y="-133" font-family="Helvetica,sans-Serif" font-size="10.00">obe::Graphics::LevelSprite</text>
<text text-anchor="middle" x="65.5" y="-122" font-family="Helvetica,sans-Serif" font-size="10.00">::setAtr</text>
</g>
<!-- Node473 -->
<g id="node2" class="node"><title>Node473</title>
<g id="a_node2"><a xlink:href="classobe_1_1_script_1_1_game_object.html#aa0d58bd1ef0fa2fe9f7567729b2d291e" target="_top" xlink:title="obe::Script::GameObject\l::loadGameObject">
<polygon fill="none" stroke="black" points="981,-216 981,-246 1106,-246 1106,-216 981,-216"/>
<text text-anchor="start" x="989" y="-234" font-family="Helvetica,sans-Serif" font-size="10.00">obe::Script::GameObject</text>
<text text-anchor="middle" x="1043.5" y="-223" font-family="Helvetica,sans-Serif" font-size="10.00">::loadGameObject</text>
</a>
</g>
</g>
<!-- Node472&#45;&gt;Node473 -->
<g id="edge1" class="edge"><title>Node472&#45;&gt;Node473</title>
<path fill="none" stroke="midnightblue" d="M97.0591,-150.613C152.035,-185.636 272.355,-253 384.5,-253 384.5,-253 384.5,-253 690,-253 792.093,-253 910.495,-243.694 980.806,-237.187"/>
<polygon fill="midnightblue" stroke="midnightblue" points="98.7967,-147.569 88.4978,-145.082 94.998,-153.449 98.7967,-147.569"/>
</g>
<!-- Node474 -->
<g id="node3" class="node"><title>Node474</title>
<g id="a_node3"><a xlink:href="namespaceobe_1_1_editor.html#a98df387085b87692b2458ada49d8c8a3" target="_top" xlink:title="obe::Editor::addSpriteTo\lWorld">
<polygon fill="none" stroke="black" points="167,-48 167,-78 289,-78 289,-48 167,-48"/>
<text text-anchor="start" x="175" y="-66" font-family="Helvetica,sans-Serif" font-size="10.00">obe::Editor::addSpriteTo</text>
<text text-anchor="middle" x="228" y="-55" font-family="Helvetica,sans-Serif" font-size="10.00">World</text>
</a>
</g>
</g>
<!-- Node472&#45;&gt;Node474 -->
<g id="edge2" class="edge"><title>Node472&#45;&gt;Node474</title>
<path fill="none" stroke="midnightblue" d="M111.8,-111.09C136.804,-100.652 167.434,-87.8654 190.824,-78.1017"/>
<polygon fill="midnightblue" stroke="midnightblue" points="110.399,-107.882 102.519,-114.964 113.096,-114.341 110.399,-107.882"/>
</g>
<!-- Node479 -->
<g id="node8" class="node"><title>Node479</title>
<g id="a_node8"><a xlink:href="namespaceobe_1_1_script_1_1_core_lib.html#a0acdeaec72b98cd716f4a56bd9fd4571" target="_top" xlink:title="obe::Script::CoreLib\l::loadLevelSprite">
<polygon fill="none" stroke="black" points="176.5,-115 176.5,-145 279.5,-145 279.5,-115 176.5,-115"/>
<text text-anchor="start" x="184.5" y="-133" font-family="Helvetica,sans-Serif" font-size="10.00">obe::Script::CoreLib</text>
<text text-anchor="middle" x="228" y="-122" font-family="Helvetica,sans-Serif" font-size="10.00">::loadLevelSprite</text>
</a>
</g>
</g>
<!-- Node472&#45;&gt;Node479 -->
<g id="edge8" class="edge"><title>Node472&#45;&gt;Node479</title>
<path fill="none" stroke="midnightblue" d="M141.579,-130C153.327,-130 165.223,-130 176.255,-130"/>
<polygon fill="midnightblue" stroke="midnightblue" points="141.319,-126.5 131.319,-130 141.319,-133.5 141.319,-126.5"/>
</g>
<!-- Node475 -->
<g id="node4" class="node"><title>Node475</title>
<g id="a_node4"><a xlink:href="namespaceobe_1_1_editor.html#a75bc94b8c9152749d28e9e3927522e4a" target="_top" xlink:title="obe::Editor::loadSpriteFolder">
<polygon fill="none" stroke="black" points="619,-0.5 619,-19.5 759,-19.5 759,-0.5 619,-0.5"/>
<text text-anchor="middle" x="689" y="-7.5" font-family="Helvetica,sans-Serif" font-size="10.00">obe::Editor::loadSpriteFolder</text>
</a>
</g>
</g>
<!-- Node474&#45;&gt;Node475 -->
<g id="edge3" class="edge"><title>Node474&#45;&gt;Node475</title>
<path fill="none" stroke="midnightblue" d="M299.022,-54.9147C385.786,-44.8962 532.694,-27.9329 618.988,-17.9687"/>
<polygon fill="midnightblue" stroke="midnightblue" points="298.539,-51.4471 289.006,-56.0712 299.342,-58.4009 298.539,-51.4471"/>
</g>
<!-- Node476 -->
<g id="node5" class="node"><title>Node476</title>
<g id="a_node5"><a xlink:href="namespaceobe_1_1_editor.html#a508e767d732debdb65e63c7bffa50623" target="_top" xlink:title="obe::Editor::editMap">
<polygon fill="none" stroke="black" points="816,-0.5 816,-19.5 920,-19.5 920,-0.5 816,-0.5"/>
<text text-anchor="middle" x="868" y="-7.5" font-family="Helvetica,sans-Serif" font-size="10.00">obe::Editor::editMap</text>
</a>
</g>
</g>
<!-- Node475&#45;&gt;Node476 -->
<g id="edge4" class="edge"><title>Node475&#45;&gt;Node476</title>
<path fill="none" stroke="midnightblue" d="M769.484,-10C785.26,-10 801.423,-10 815.938,-10"/>
<polygon fill="midnightblue" stroke="midnightblue" points="769.193,-6.5001 759.193,-10 769.193,-13.5001 769.193,-6.5001"/>
</g>
<!-- Node477 -->
<g id="node6" class="node"><title>Node477</title>
<g id="a_node6"><a xlink:href="namespaceobe_1_1_modes.html#a6a8b08eee511d4895c4da96d4ba223a6" target="_top" xlink:title="obe::Modes::startDevMenu">
<polygon fill="none" stroke="black" points="977,-29.5 977,-48.5 1110,-48.5 1110,-29.5 977,-29.5"/>
<text text-anchor="middle" x="1043.5" y="-36.5" font-family="Helvetica,sans-Serif" font-size="10.00">obe::Modes::startDevMenu</text>
</a>
</g>
</g>
<!-- Node476&#45;&gt;Node477 -->
<g id="edge5" class="edge"><title>Node476&#45;&gt;Node477</title>
<path fill="none" stroke="midnightblue" d="M930.186,-20.227C948.133,-23.2268 967.683,-26.4945 985.367,-29.4503"/>
<polygon fill="midnightblue" stroke="midnightblue" points="930.558,-16.7407 920.117,-18.5441 929.403,-23.6449 930.558,-16.7407"/>
</g>
<!-- Node478 -->
<g id="node7" class="node"><title>Node478</title>
<g id="a_node7"><a xlink:href="_ob_engine_8cpp.html#a3c04138a5bfe5d72780bb7e82a18e627" target="_top" xlink:title="main">
<polygon fill="none" stroke="black" points="1146,-29.5 1146,-48.5 1184,-48.5 1184,-29.5 1146,-29.5"/>
<text text-anchor="middle" x="1165" y="-36.5" font-family="Helvetica,sans-Serif" font-size="10.00">main</text>
</a>
</g>
</g>
<!-- Node476&#45;&gt;Node478 -->
<g id="edge7" class="edge"><title>Node476&#45;&gt;Node478</title>
<path fill="none" stroke="midnightblue" d="M930.416,-7.56877C979.466,-6.81714 1049.72,-8.41409 1110,-20 1122.3,-22.3637 1135.57,-27.0033 1145.88,-31.106"/>
<polygon fill="midnightblue" stroke="midnightblue" points="930.214,-4.07189 920.283,-7.76205 930.348,-11.0706 930.214,-4.07189"/>
</g>
<!-- Node477&#45;&gt;Node478 -->
<g id="edge6" class="edge"><title>Node477&#45;&gt;Node478</title>
<path fill="none" stroke="midnightblue" d="M1120.44,-39C1129.72,-39 1138.44,-39 1145.6,-39"/>
<polygon fill="midnightblue" stroke="midnightblue" points="1120.19,-35.5001 1110.19,-39 1120.19,-42.5001 1120.19,-35.5001"/>
</g>
<!-- Node480 -->
<g id="node9" class="node"><title>Node480</title>
<g id="a_node9"><a xlink:href="namespaceobe_1_1_script.html#a633c629c5a54da2b5d4930730983121c" target="_top" xlink:title="obe::Script::loadCoreLib">
<polygon fill="none" stroke="black" points="325,-120.5 325,-139.5 446,-139.5 446,-120.5 325,-120.5"/>
<text text-anchor="middle" x="385.5" y="-127.5" font-family="Helvetica,sans-Serif" font-size="10.00">obe::Script::loadCoreLib</text>
</a>
</g>
</g>
<!-- Node479&#45;&gt;Node480 -->
<g id="edge9" class="edge"><title>Node479&#45;&gt;Node480</title>
<path fill="none" stroke="midnightblue" d="M290.205,-130C301.592,-130 313.476,-130 324.817,-130"/>
<polygon fill="midnightblue" stroke="midnightblue" points="289.917,-126.5 279.917,-130 289.916,-133.5 289.917,-126.5"/>
</g>
<!-- Node481 -->
<g id="node10" class="node"><title>Node481</title>
<g id="a_node10"><a xlink:href="namespaceobe_1_1_script.html#a4e6ee77032cf7f66544f9b08464a60b7" target="_top" xlink:title="obe::Script::loadLib">
<polygon fill="none" stroke="black" points="482,-120.5 482,-139.5 583,-139.5 583,-120.5 482,-120.5"/>
<text text-anchor="middle" x="532.5" y="-127.5" font-family="Helvetica,sans-Serif" font-size="10.00">obe::Script::loadLib</text>
</a>
</g>
</g>
<!-- Node480&#45;&gt;Node481 -->
<g id="edge10" class="edge"><title>Node480&#45;&gt;Node481</title>
<path fill="none" stroke="midnightblue" d="M456.401,-130C465.037,-130 473.723,-130 481.967,-130"/>
<polygon fill="midnightblue" stroke="midnightblue" points="456.314,-126.5 446.314,-130 456.314,-133.5 456.314,-126.5"/>
</g>
<!-- Node482 -->
<g id="node11" class="node"><title>Node482</title>
<g id="a_node11"><a xlink:href="namespaceobe_1_1_script.html#a5e992c0efb0543e7c934bc1065f08b01" target="_top" xlink:title="obe::Script::loadLibBridge">
<polygon fill="none" stroke="black" points="625,-202.5 625,-221.5 753,-221.5 753,-202.5 625,-202.5"/>
<text text-anchor="middle" x="689" y="-209.5" font-family="Helvetica,sans-Serif" font-size="10.00">obe::Script::loadLibBridge</text>
</a>
</g>
</g>
<!-- Node481&#45;&gt;Node482 -->
<g id="edge11" class="edge"><title>Node481&#45;&gt;Node482</title>
<path fill="none" stroke="midnightblue" d="M553.299,-145.635C570.063,-158.32 595.113,-176.004 619,-188 630.334,-193.692 643.342,-198.599 654.987,-202.466"/>
<polygon fill="midnightblue" stroke="midnightblue" points="555.399,-142.835 545.337,-139.514 551.132,-148.384 555.399,-142.835"/>
</g>
<!-- Node484 -->
<g id="node13" class="node"><title>Node484</title>
<g id="a_node13"><a xlink:href="namespaceobe_1_1_script.html#aad6ef67388e6d16eb01853f208da410f" target="_top" xlink:title="obe::Script::loadBaseLib">
<polygon fill="none" stroke="black" points="627.5,-38.5 627.5,-57.5 750.5,-57.5 750.5,-38.5 627.5,-38.5"/>
<text text-anchor="middle" x="689" y="-45.5" font-family="Helvetica,sans-Serif" font-size="10.00">obe::Script::loadBaseLib</text>
</a>
</g>
</g>
<!-- Node481&#45;&gt;Node484 -->
<g id="edge14" class="edge"><title>Node481&#45;&gt;Node484</title>
<path fill="none" stroke="midnightblue" d="M553.299,-114.365C570.063,-101.68 595.113,-83.9959 619,-72 630.334,-66.3081 643.342,-61.4009 654.987,-57.5338"/>
<polygon fill="midnightblue" stroke="midnightblue" points="551.132,-111.616 545.337,-120.486 555.399,-117.165 551.132,-111.616"/>
</g>
<!-- Node485 -->
<g id="node14" class="node"><title>Node485</title>
<g id="a_node14"><a xlink:href="namespaceobe_1_1_modes.html#a1e38c0d9a2ca0230f0de79c298f53ab9" target="_top" xlink:title="A mode that will start the Toolkit. ">
<polygon fill="none" stroke="black" points="795,-57.5 795,-76.5 941,-76.5 941,-57.5 795,-57.5"/>
<text text-anchor="middle" x="868" y="-64.5" font-family="Helvetica,sans-Serif" font-size="10.00">obe::Modes::startToolkitMode</text>
</a>
</g>
</g>
<!-- Node481&#45;&gt;Node485 -->
<g id="edge18" class="edge"><title>Node481&#45;&gt;Node485</title>
<path fill="none" stroke="midnightblue" d="M572.217,-117.5C586.775,-113.113 603.543,-108.428 619,-105 677.684,-91.9845 745.165,-81.959 794.906,-75.482"/>
<polygon fill="midnightblue" stroke="midnightblue" points="571.068,-114.192 562.535,-120.471 573.121,-120.884 571.068,-114.192"/>
</g>
<!-- Node486 -->
<g id="node15" class="node"><title>Node486</title>
<g id="a_node15"><a xlink:href="classobe_1_1_world_1_1_world.html#a5bd621e3fd9293d949ad0c669cee6838" target="_top" xlink:title="obe::World::World::\lWorld">
<polygon fill="none" stroke="black" points="817.5,-130 817.5,-160 918.5,-160 918.5,-130 817.5,-130"/>
<text text-anchor="start" x="825.5" y="-148" font-family="Helvetica,sans-Serif" font-size="10.00">obe::World::World::</text>
<text text-anchor="middle" x="868" y="-137" font-family="Helvetica,sans-Serif" font-size="10.00">World</text>
</a>
</g>
</g>
<!-- Node481&#45;&gt;Node486 -->
<g id="edge19" class="edge"><title>Node481&#45;&gt;Node486</title>
<path fill="none" stroke="midnightblue" d="M570.304,-142.712C585.225,-147.236 602.743,-151.762 619,-154 687.29,-163.403 767.092,-157.537 817.341,-151.814"/>
<polygon fill="midnightblue" stroke="midnightblue" points="571.026,-139.27 560.436,-139.608 568.925,-145.947 571.026,-139.27"/>
</g>
<!-- Node487 -->
<g id="node16" class="node"><title>Node487</title>
<g id="a_node16"><a xlink:href="namespaceobe_1_1_world.html#afc958184e59524fdf9dc6ba98a1e9a37" target="_top" xlink:title="obe::World::loadWorldScript\lEngineBaseLib">
<polygon fill="none" stroke="black" points="619.5,-115 619.5,-145 758.5,-145 758.5,-115 619.5,-115"/>
<text text-anchor="start" x="627.5" y="-133" font-family="Helvetica,sans-Serif" font-size="10.00">obe::World::loadWorldScript</text>
<text text-anchor="middle" x="689" y="-122" font-family="Helvetica,sans-Serif" font-size="10.00">EngineBaseLib</text>
</a>
</g>
</g>
<!-- Node481&#45;&gt;Node487 -->
<g id="edge20" class="edge"><title>Node481&#45;&gt;Node487</title>
<path fill="none" stroke="midnightblue" d="M593.463,-130C601.994,-130 610.82,-130 619.498,-130"/>
<polygon fill="midnightblue" stroke="midnightblue" points="593.235,-126.5 583.235,-130 593.235,-133.5 593.235,-126.5"/>
</g>
<!-- Node483 -->
<g id="node12" class="node"><title>Node483</title>
<g id="a_node12"><a xlink:href="namespaceobe_1_1_script.html#a5dc8321da50fd4b5dc2935e4d8c93a4e" target="_top" xlink:title="obe::Script::loadScrGame\lObject">
<polygon fill="none" stroke="black" points="803.5,-194 803.5,-224 932.5,-224 932.5,-194 803.5,-194"/>
<text text-anchor="start" x="811.5" y="-212" font-family="Helvetica,sans-Serif" font-size="10.00">obe::Script::loadScrGame</text>
<text text-anchor="middle" x="868" y="-201" font-family="Helvetica,sans-Serif" font-size="10.00">Object</text>
</a>
</g>
</g>
<!-- Node482&#45;&gt;Node483 -->
<g id="edge12" class="edge"><title>Node482&#45;&gt;Node483</title>
<path fill="none" stroke="midnightblue" d="M763.447,-210.755C776.729,-210.53 790.477,-210.297 803.447,-210.077"/>
<polygon fill="midnightblue" stroke="midnightblue" points="763.34,-207.256 753.401,-210.925 763.459,-214.255 763.34,-207.256"/>
</g>
<!-- Node483&#45;&gt;Node473 -->
<g id="edge13" class="edge"><title>Node483&#45;&gt;Node473</title>
<path fill="none" stroke="midnightblue" d="M942.721,-218.348C955.445,-219.961 968.552,-221.623 980.913,-223.191"/>
<polygon fill="midnightblue" stroke="midnightblue" points="942.981,-214.853 932.62,-217.067 942.1,-221.797 942.981,-214.853"/>
</g>
<!-- Node484&#45;&gt;Node485 -->
<g id="edge15" class="edge"><title>Node484&#45;&gt;Node485</title>
<path fill="none" stroke="midnightblue" d="M761.05,-55.6268C772.229,-56.8268 783.795,-58.0684 794.995,-59.2707"/>
<polygon fill="midnightblue" stroke="midnightblue" points="761.23,-52.1261 750.913,-54.5387 760.483,-59.0861 761.23,-52.1261"/>
</g>
<!-- Node485&#45;&gt;Node477 -->
<g id="edge16" class="edge"><title>Node485&#45;&gt;Node477</title>
<path fill="none" stroke="midnightblue" d="M938.434,-55.7946C953.38,-53.3825 969.041,-50.8551 983.543,-48.5146"/>
<polygon fill="midnightblue" stroke="midnightblue" points="937.538,-52.3937 928.224,-57.4423 938.654,-59.3043 937.538,-52.3937"/>
</g>
<!-- Node485&#45;&gt;Node478 -->
<g id="edge17" class="edge"><title>Node485&#45;&gt;Node478</title>
<path fill="none" stroke="midnightblue" d="M951.189,-70.011C998.101,-70.2191 1057.79,-67.9238 1110,-58 1122.3,-55.6618 1135.58,-51.0225 1145.88,-46.9137"/>
<polygon fill="midnightblue" stroke="midnightblue" points="951.106,-66.5103 941.077,-69.9268 951.048,-73.5101 951.106,-66.5103"/>
</g>
<!-- Node487&#45;&gt;Node486 -->
<g id="edge21" class="edge"><title>Node487&#45;&gt;Node486</title>
<path fill="none" stroke="midnightblue" d="M768.857,-136.683C785.319,-138.078 802.231,-139.511 817.278,-140.786"/>
<polygon fill="midnightblue" stroke="midnightblue" points="768.946,-133.178 758.686,-135.821 768.355,-140.153 768.946,-133.178"/>
</g>
</g>
</svg>
