<?xml version="1.0" encoding="UTF-8" standalone="no"?>
<!DOCTYPE svg PUBLIC "-//W3C//DTD SVG 1.1//EN"
 "http://www.w3.org/Graphics/SVG/1.1/DTD/svg11.dtd">
<!-- Generated by graphviz version 2.38.0 (20140413.2041)
 -->
<!-- Title: obe::Collision::PolygonalCollider::getCollidedCollidersWithTags Pages: 1 -->
<!--zoomable 190 -->
<svg id="main" version="1.1" xmlns="http://www.w3.org/2000/svg" xmlns:xlink="http://www.w3.org/1999/xlink" xml:space="preserve" onload="init(evt)">
<style type="text/css"><![CDATA[
.edge:hover path { stroke: red; }
.edge:hover polygon { stroke: red; fill: red; }
.edge path { stroke: white; }
.edge polygon { stroke: white; fill: white; }
.node polygon { fill: white; }
]]></style>
<script type="text/javascript"><![CDATA[
var edges = document.getElementsByTagName('g');
if (edges && edges.length) {
  for (var i=0;i<edges.length;i++) {
    if (edges[i].id.substr(0,4)=='edge') {
      edges[i].setAttribute('class','edge');
    }
  }
}
]]></script>
        <defs>
                <circle id="rim" cx="0" cy="0" r="7"/>
                <circle id="rim2" cx="0" cy="0" r="3.5"/>
                <g id="zoomPlus">
                        <use xlink:href="#rim" fill="#404040">
                                <set attributeName="fill" to="#808080" begin="zoomplus.mouseover" end="zoomplus.mouseout"/>
                        </use>
                        <path d="M-4,0h8M0,-4v8" fill="none" stroke="white" stroke-width="1.5" pointer-events="none"/>
                </g>
                <g id="zoomMin">
                        <use xlink:href="#rim" fill="#404040">
                                <set attributeName="fill" to="#808080" begin="zoomminus.mouseover" end="zoomminus.mouseout"/>
                        </use>
                        <path d="M-4,0h8" fill="none" stroke="white" stroke-width="1.5" pointer-events="none"/>
                </g>
                <g id="dirArrow">
                        <path fill="none" stroke="white" stroke-width="1.5" d="M0,-3.0v7 M-2.5,-0.5L0,-3.0L2.5,-0.5"/>
                </g>
               <g id="resetDef">
                       <use xlink:href="#rim2" fill="#404040">
                               <set attributeName="fill" to="#808080" begin="reset.mouseover" end="reset.mouseout"/>
                       </use>
               </g>
        </defs>

<script type="text/javascript">
var viewWidth = 1183;
var viewHeight = 190;
var sectionId = 'dynsection-29';
</script>
<script xlink:href="svgpan.js"/>
<svg id="graph" class="graph">
<g id="viewport">
<title>obe::Collision::PolygonalCollider::getCollidedCollidersWithTags</title>
<!-- Node328 -->
<g id="node1" class="node"><title>Node328</title>
<polygon fill="#bfbfbf" stroke="black" points="0,-83 0,-124 140,-124 140,-83 0,-83"/>
<text text-anchor="start" x="8" y="-112" font-family="Helvetica,sans-Serif" font-size="10.00">obe::Collision::Polygonal</text>
<text text-anchor="start" x="8" y="-101" font-family="Helvetica,sans-Serif" font-size="10.00">Collider::getCollidedColliders</text>
<text text-anchor="middle" x="70" y="-90" font-family="Helvetica,sans-Serif" font-size="10.00">WithTags</text>
</g>
<!-- Node329 -->
<g id="node2" class="node"><title>Node329</title>
<g id="a_node2"><a xlink:href="namespaceobe_1_1_script_1_1_core_lib.html#a07d6c11bbb082bc45bdba50d97965c00" target="_top" xlink:title="obe::Script::CoreLib\l::loadCollision">
<polygon fill="none" stroke="black" points="176,-88.5 176,-118.5 279,-118.5 279,-88.5 176,-88.5"/>
<text text-anchor="start" x="184" y="-106.5" font-family="Helvetica,sans-Serif" font-size="10.00">obe::Script::CoreLib</text>
<text text-anchor="middle" x="227.5" y="-95.5" font-family="Helvetica,sans-Serif" font-size="10.00">::loadCollision</text>
</a>
</g>
</g>
<!-- Node328&#45;&gt;Node329 -->
<g id="edge1" class="edge"><title>Node328&#45;&gt;Node329</title>
<path fill="none" stroke="midnightblue" d="M150.279,-103.5C158.954,-103.5 167.603,-103.5 175.795,-103.5"/>
<polygon fill="midnightblue" stroke="midnightblue" points="150.11,-100 140.11,-103.5 150.11,-107 150.11,-100"/>
</g>
<!-- Node330 -->
<g id="node3" class="node"><title>Node330</title>
<g id="a_node3"><a xlink:href="namespaceobe_1_1_script.html#abdb81ec0976f1097cef6711415b8fac3" target="_top" xlink:title="obe::Script::loadCoreLib">
<polygon fill="none" stroke="black" points="315,-94 315,-113 436,-113 436,-94 315,-94"/>
<text text-anchor="middle" x="375.5" y="-101" font-family="Helvetica,sans-Serif" font-size="10.00">obe::Script::loadCoreLib</text>
</a>
</g>
</g>
<!-- Node329&#45;&gt;Node330 -->
<g id="edge2" class="edge"><title>Node329&#45;&gt;Node330</title>
<path fill="none" stroke="midnightblue" d="M289.328,-96.8341C297.785,-96.7162 306.467,-96.7223 314.902,-96.8521"/>
<polygon fill="midnightblue" stroke="midnightblue" points="289.081,-93.3383 279.154,-97.0393 289.223,-100.337 289.081,-93.3383"/>
</g>
<!-- Node330&#45;&gt;Node329 -->
<g id="edge16" class="edge"><title>Node330&#45;&gt;Node329</title>
<path fill="none" stroke="midnightblue" d="M304.805,-110.244C296.154,-110.276 287.441,-110.182 279.154,-109.961"/>
<polygon fill="midnightblue" stroke="midnightblue" points="304.936,-113.743 314.902,-110.148 304.869,-106.743 304.936,-113.743"/>
</g>
<!-- Node331 -->
<g id="node4" class="node"><title>Node331</title>
<g id="a_node4"><a xlink:href="namespaceobe_1_1_script.html#a4e6ee77032cf7f66544f9b08464a60b7" target="_top" xlink:title="obe::Script::loadLib">
<polygon fill="none" stroke="black" points="472,-94 472,-113 573,-113 573,-94 472,-94"/>
<text text-anchor="middle" x="522.5" y="-101" font-family="Helvetica,sans-Serif" font-size="10.00">obe::Script::loadLib</text>
</a>
</g>
</g>
<!-- Node330&#45;&gt;Node331 -->
<g id="edge3" class="edge"><title>Node330&#45;&gt;Node331</title>
<path fill="none" stroke="midnightblue" d="M446.401,-103.5C455.037,-103.5 463.723,-103.5 471.967,-103.5"/>
<polygon fill="midnightblue" stroke="midnightblue" points="446.314,-100 436.314,-103.5 446.314,-107 446.314,-100"/>
</g>
<!-- Node332 -->
<g id="node5" class="node"><title>Node332</title>
<g id="a_node5"><a xlink:href="namespaceobe_1_1_modes.html#a1e38c0d9a2ca0230f0de79c298f53ab9" target="_top" xlink:title="A mode that will start the Toolkit. ">
<polygon fill="none" stroke="black" points="786,-143 786,-162 932,-162 932,-143 786,-143"/>
<text text-anchor="middle" x="859" y="-150" font-family="Helvetica,sans-Serif" font-size="10.00">obe::Modes::startToolkitMode</text>
</a>
</g>
</g>
<!-- Node331&#45;&gt;Node332 -->
<g id="edge4" class="edge"><title>Node331&#45;&gt;Node332</title>
<path fill="none" stroke="midnightblue" d="M541.108,-119.839C557.345,-133.706 582.828,-152.576 609,-160.5 678.752,-181.619 764.556,-171.471 815.063,-162.067"/>
<polygon fill="midnightblue" stroke="midnightblue" points="543.319,-117.122 533.506,-113.128 538.687,-122.37 543.319,-117.122"/>
</g>
<!-- Node335 -->
<g id="node8" class="node"><title>Node335</title>
<g id="a_node8"><a xlink:href="classobe_1_1_scene_1_1_world.html#a32964e659e18cb32094d9f8ceea30aa3" target="_top" xlink:title="obe::Scene::World::\lWorld">
<polygon fill="none" stroke="black" points="807,-77.5 807,-107.5 911,-107.5 911,-77.5 807,-77.5"/>
<text text-anchor="start" x="815" y="-95.5" font-family="Helvetica,sans-Serif" font-size="10.00">obe::Scene::World::</text>
<text text-anchor="middle" x="859" y="-84.5" font-family="Helvetica,sans-Serif" font-size="10.00">World</text>
</a>
</g>
</g>
<!-- Node331&#45;&gt;Node335 -->
<g id="edge8" class="edge"><title>Node331&#45;&gt;Node335</title>
<path fill="none" stroke="midnightblue" d="M583.51,-101.527C647.218,-99.4315 746.826,-96.156 806.912,-94.18"/>
<polygon fill="midnightblue" stroke="midnightblue" points="583.096,-98.0382 573.217,-101.865 583.327,-105.034 583.096,-98.0382"/>
</g>
<!-- Node336 -->
<g id="node9" class="node"><title>Node336</title>
<g id="a_node9"><a xlink:href="namespaceobe_1_1_scene.html#ae5cbcc3278d9115d603e5024dec9136e" target="_top" xlink:title="obe::Scene::loadWorldScript\lEngineBaseLib">
<polygon fill="none" stroke="black" points="609,-44.5 609,-74.5 750,-74.5 750,-44.5 609,-44.5"/>
<text text-anchor="start" x="617" y="-62.5" font-family="Helvetica,sans-Serif" font-size="10.00">obe::Scene::loadWorldScript</text>
<text text-anchor="middle" x="679.5" y="-51.5" font-family="Helvetica,sans-Serif" font-size="10.00">EngineBaseLib</text>
</a>
</g>
</g>
<!-- Node331&#45;&gt;Node336 -->
<g id="edge9" class="edge"><title>Node331&#45;&gt;Node336</title>
<path fill="none" stroke="midnightblue" d="M566.871,-91.1882C585.04,-86.0306 606.336,-79.9852 625.429,-74.5654"/>
<polygon fill="midnightblue" stroke="midnightblue" points="565.797,-87.8548 557.133,-93.9527 567.708,-94.5887 565.797,-87.8548"/>
</g>
<!-- Node337 -->
<g id="node10" class="node"><title>Node337</title>
<g id="a_node10"><a xlink:href="namespaceobe_1_1_script.html#a5e992c0efb0543e7c934bc1065f08b01" target="_top" xlink:title="obe::Script::loadLibBridge">
<polygon fill="none" stroke="black" points="615.5,-6 615.5,-25 743.5,-25 743.5,-6 615.5,-6"/>
<text text-anchor="middle" x="679.5" y="-13" font-family="Helvetica,sans-Serif" font-size="10.00">obe::Script::loadLibBridge</text>
</a>
</g>
</g>
<!-- Node331&#45;&gt;Node337 -->
<g id="edge11" class="edge"><title>Node331&#45;&gt;Node337</title>
<path fill="none" stroke="midnightblue" d="M540.106,-86.5505C556.326,-70.9112 582.393,-48.1137 609,-34.5 616.461,-30.6825 624.777,-27.5618 632.99,-25.0347"/>
<polygon fill="midnightblue" stroke="midnightblue" points="537.228,-84.4735 532.571,-93.9898 542.146,-89.455 537.228,-84.4735"/>
</g>
<!-- Node340 -->
<g id="node13" class="node"><title>Node340</title>
<g id="a_node13"><a xlink:href="namespaceobe_1_1_script.html#aad6ef67388e6d16eb01853f208da410f" target="_top" xlink:title="obe::Script::loadBaseLib">
<polygon fill="none" stroke="black" points="618,-132 618,-151 741,-151 741,-132 618,-132"/>
<text text-anchor="middle" x="679.5" y="-139" font-family="Helvetica,sans-Serif" font-size="10.00">obe::Script::loadBaseLib</text>
</a>
</g>
</g>
<!-- Node331&#45;&gt;Node340 -->
<g id="edge14" class="edge"><title>Node331&#45;&gt;Node340</title>
<path fill="none" stroke="midnightblue" d="M572.611,-115.54C594.265,-120.849 619.35,-126.999 639.668,-131.98"/>
<polygon fill="midnightblue" stroke="midnightblue" points="573.159,-112.071 562.613,-113.089 571.492,-118.87 573.159,-112.071"/>
</g>
<!-- Node333 -->
<g id="node6" class="node"><title>Node333</title>
<g id="a_node6"><a xlink:href="namespaceobe_1_1_modes.html#a6a8b08eee511d4895c4da96d4ba223a6" target="_top" xlink:title="Starts the development Menu where you can starts other menus from. ">
<polygon fill="none" stroke="black" points="968,-162 968,-181 1101,-181 1101,-162 968,-162"/>
<text text-anchor="middle" x="1034.5" y="-169" font-family="Helvetica,sans-Serif" font-size="10.00">obe::Modes::startDevMenu</text>
</a>
</g>
</g>
<!-- Node332&#45;&gt;Node333 -->
<g id="edge5" class="edge"><title>Node332&#45;&gt;Node333</title>
<path fill="none" stroke="midnightblue" d="M942.118,-161.493C950.716,-162.434 959.375,-163.383 967.755,-164.3"/>
<polygon fill="midnightblue" stroke="midnightblue" points="942.394,-158.002 932.072,-160.393 941.632,-164.961 942.394,-158.002"/>
</g>
<!-- Node334 -->
<g id="node7" class="node"><title>Node334</title>
<g id="a_node7"><a xlink:href="_ob_engine_8cpp.html#a3c04138a5bfe5d72780bb7e82a18e627" target="_top" xlink:title="main">
<polygon fill="none" stroke="black" points="1137,-143 1137,-162 1175,-162 1175,-143 1137,-143"/>
<text text-anchor="middle" x="1156" y="-150" font-family="Helvetica,sans-Serif" font-size="10.00">main</text>
</a>
</g>
</g>
<!-- Node332&#45;&gt;Node334 -->
<g id="edge7" class="edge"><title>Node332&#45;&gt;Node334</title>
<path fill="none" stroke="midnightblue" d="M942.308,-152.5C1009.39,-152.5 1098.99,-152.5 1136.87,-152.5"/>
<polygon fill="midnightblue" stroke="midnightblue" points="942.165,-149 932.165,-152.5 942.165,-156 942.165,-149"/>
</g>
<!-- Node333&#45;&gt;Node334 -->
<g id="edge6" class="edge"><title>Node333&#45;&gt;Node334</title>
<path fill="none" stroke="midnightblue" d="M1105.82,-160.319C1117.35,-158.487 1128.33,-156.741 1136.98,-155.365"/>
<polygon fill="midnightblue" stroke="midnightblue" points="1104.93,-156.917 1095.6,-161.944 1106.03,-163.831 1104.93,-156.917"/>
</g>
<!-- Node336&#45;&gt;Node335 -->
<g id="edge10" class="edge"><title>Node336&#45;&gt;Node335</title>
<path fill="none" stroke="midnightblue" d="M759.998,-74.2799C775.939,-77.2436 792.283,-80.2821 806.941,-83.0074"/>
<polygon fill="midnightblue" stroke="midnightblue" points="760.615,-70.8346 750.143,-72.4478 759.335,-77.7167 760.615,-70.8346"/>
</g>
<!-- Node338 -->
<g id="node11" class="node"><title>Node338</title>
<g id="a_node11"><a xlink:href="namespaceobe_1_1_script.html#a5dc8321da50fd4b5dc2935e4d8c93a4e" target="_top" xlink:title="obe::Script::loadScrGame\lObject">
<polygon fill="none" stroke="black" points="794.5,-0.5 794.5,-30.5 923.5,-30.5 923.5,-0.5 794.5,-0.5"/>
<text text-anchor="start" x="802.5" y="-18.5" font-family="Helvetica,sans-Serif" font-size="10.00">obe::Script::loadScrGame</text>
<text text-anchor="middle" x="859" y="-7.5" font-family="Helvetica,sans-Serif" font-size="10.00">Object</text>
</a>
</g>
</g>
<!-- Node337&#45;&gt;Node338 -->
<g id="edge12" class="edge"><title>Node337&#45;&gt;Node338</title>
<path fill="none" stroke="midnightblue" d="M753.737,-15.5C767.171,-15.5 781.096,-15.5 794.226,-15.5"/>
<polygon fill="midnightblue" stroke="midnightblue" points="753.58,-12.0001 743.58,-15.5 753.58,-19.0001 753.58,-12.0001"/>
</g>
<!-- Node339 -->
<g id="node12" class="node"><title>Node339</title>
<g id="a_node12"><a xlink:href="classobe_1_1_script_1_1_game_object.html#aadeac0036d2fe21d523acfd4e9011a23" target="_top" xlink:title="obe::Script::GameObject\l::loadGameObject">
<polygon fill="none" stroke="black" points="972,-0.5 972,-30.5 1097,-30.5 1097,-0.5 972,-0.5"/>
<text text-anchor="start" x="980" y="-18.5" font-family="Helvetica,sans-Serif" font-size="10.00">obe::Script::GameObject</text>
<text text-anchor="middle" x="1034.5" y="-7.5" font-family="Helvetica,sans-Serif" font-size="10.00">::loadGameObject</text>
</a>
</g>
</g>
<!-- Node338&#45;&gt;Node339 -->
<g id="edge13" class="edge"><title>Node338&#45;&gt;Node339</title>
<path fill="none" stroke="midnightblue" d="M933.721,-15.5C946.445,-15.5 959.552,-15.5 971.913,-15.5"/>
<polygon fill="midnightblue" stroke="midnightblue" points="933.62,-12.0001 923.62,-15.5 933.62,-19.0001 933.62,-12.0001"/>
</g>
<!-- Node340&#45;&gt;Node332 -->
<g id="edge15" class="edge"><title>Node340&#45;&gt;Node332</title>
<path fill="none" stroke="midnightblue" d="M751.346,-145.89C762.662,-146.592 774.384,-147.318 785.733,-148.021"/>
<polygon fill="midnightblue" stroke="midnightblue" points="751.286,-142.38 741.089,-145.255 750.853,-149.367 751.286,-142.38"/>
</g>
</g>
</svg>
        <g id="navigator" transform="translate(0 0)" fill="#404254">
                <rect fill="#f2f5e9" fill-opacity="0.5" stroke="#606060" stroke-width=".5" x="0" y="0" width="60" height="60"/>
                <use id="zoomplus" xlink:href="#zoomPlus" x="17" y="9" onmousedown="handleZoom(evt,'in')"/>
                <use id="zoomminus" xlink:href="#zoomMin" x="42" y="9" onmousedown="handleZoom(evt,'out')"/>
                <use id="reset" xlink:href="#resetDef" x="30" y="36" onmousedown="handleReset()"/>
                <g id="arrowUp" xlink:href="#dirArrow" transform="translate(30 24)" onmousedown="handlePan(0,-1)">
                  <use xlink:href="#rim" fill="#404040">
                        <set attributeName="fill" to="#808080" begin="arrowUp.mouseover" end="arrowUp.mouseout"/>
                  </use>
                  <path fill="none" stroke="white" stroke-width="1.5" d="M0,-3.0v7 M-2.5,-0.5L0,-3.0L2.5,-0.5"/>
                </g>
                <g id="arrowRight" xlink:href="#dirArrow" transform="rotate(90) translate(36 -43)" onmousedown="handlePan(1,0)">
                  <use xlink:href="#rim" fill="#404040">
                        <set attributeName="fill" to="#808080" begin="arrowRight.mouseover" end="arrowRight.mouseout"/>
                  </use>
                  <path fill="none" stroke="white" stroke-width="1.5" d="M0,-3.0v7 M-2.5,-0.5L0,-3.0L2.5,-0.5"/>
                </g>
                <g id="arrowDown" xlink:href="#dirArrow" transform="rotate(180) translate(-30 -48)" onmousedown="handlePan(0,1)">
                  <use xlink:href="#rim" fill="#404040">
                        <set attributeName="fill" to="#808080" begin="arrowDown.mouseover" end="arrowDown.mouseout"/>
                  </use>
                  <path fill="none" stroke="white" stroke-width="1.5" d="M0,-3.0v7 M-2.5,-0.5L0,-3.0L2.5,-0.5"/>
                </g>
                <g id="arrowLeft" xlink:href="#dirArrow" transform="rotate(270) translate(-36 17)" onmousedown="handlePan(-1,0)">
                  <use xlink:href="#rim" fill="#404040">
                        <set attributeName="fill" to="#808080" begin="arrowLeft.mouseover" end="arrowLeft.mouseout"/>
                  </use>
                  <path fill="none" stroke="white" stroke-width="1.5" d="M0,-3.0v7 M-2.5,-0.5L0,-3.0L2.5,-0.5"/>
                </g>
        </g>
        <svg viewBox="0 0 15 15" width="100%" height="30px" preserveAspectRatio="xMaxYMin meet">
         <g id="arrow_out" transform="scale(0.3 0.3)">
          <a xlink:href="classobe_1_1_collision_1_1_polygonal_collider_a630d6b76f8b33c836dbc302d3e7a499f_icgraph_org.svg" target="_base">
           <rect id="button" ry="5" rx="5" y="6" x="6" height="38" width="38"
                fill="#f2f5e9" fill-opacity="0.5" stroke="#606060" stroke-width="1.0"/>
           <path id="arrow"
             d="M 11.500037,31.436501 C 11.940474,20.09759 22.043105,11.32322 32.158766,21.979434 L 37.068811,17.246167 C 37.068811,17.246167 37.088388,32 37.088388,32 L 22.160133,31.978069 C 22.160133,31.978069 26.997745,27.140456 26.997745,27.140456 C 18.528582,18.264221 13.291696,25.230495 11.500037,31.436501 z"
             style="fill:#404040;"/>
          </a>
         </g>
        </svg>
</svg>
