<?xml version="1.0" encoding="UTF-8" standalone="no"?>
<!DOCTYPE svg PUBLIC "-//W3C//DTD SVG 1.1//EN"
 "http://www.w3.org/Graphics/SVG/1.1/DTD/svg11.dtd">
<!-- Generated by graphviz version 2.38.0 (20140413.2041)
 -->
<!-- Title: obe::Animation::Animation::getAnimationName Pages: 1 -->
<svg width="1200pt" height="116pt"
 viewBox="0.00 0.00 1200.00 115.50" xmlns="http://www.w3.org/2000/svg" xmlns:xlink="http://www.w3.org/1999/xlink">
<g id="graph0" class="graph" transform="scale(1 1) rotate(0) translate(4 111.5)">
<title>obe::Animation::Animation::getAnimationName</title>
<!-- Node69 -->
<g id="node1" class="node"><title>Node69</title>
<polygon fill="#bfbfbf" stroke="black" points="0,-41.5 0,-71.5 131,-71.5 131,-41.5 0,-41.5"/>
<text text-anchor="start" x="8" y="-59.5" font-family="Helvetica,sans-Serif" font-size="10.00">obe::Animation::Animation</text>
<text text-anchor="middle" x="65.5" y="-48.5" font-family="Helvetica,sans-Serif" font-size="10.00">::getAnimationName</text>
</g>
<!-- Node70 -->
<g id="node2" class="node"><title>Node70</title>
<g id="a_node2"><a xlink:href="namespaceobe_1_1_bindings_1_1_animation_bindings.html#a07a26af93fe2b9216dbcb210661ddd4f" target="_top" xlink:title="obe::Bindings::Animation\lBindings::LoadAnimation">
<polygon fill="white" stroke="black" points="167,-74.5 167,-104.5 292,-104.5 292,-74.5 167,-74.5"/>
<text text-anchor="start" x="175" y="-92.5" font-family="Helvetica,sans-Serif" font-size="10.00">obe::Bindings::Animation</text>
<text text-anchor="middle" x="229.5" y="-81.5" font-family="Helvetica,sans-Serif" font-size="10.00">Bindings::LoadAnimation</text>
</a>
</g>
</g>
<!-- Node69&#45;&gt;Node70 -->
<g id="edge1" class="edge"><title>Node69&#45;&gt;Node70</title>
<path fill="none" stroke="midnightblue" d="M141.424,-71.7623C149.968,-73.5028 158.604,-75.2618 166.946,-76.9612"/>
<polygon fill="midnightblue" stroke="midnightblue" points="141.956,-68.2988 131.458,-69.7322 140.558,-75.1579 141.956,-68.2988"/>
</g>
<!-- Node73 -->
<g id="node5" class="node"><title>Node73</title>
<g id="a_node5"><a xlink:href="namespaceobe_1_1_script_1_1_core_lib.html#ad3e8d674e535b8a534a3bed6f311d701" target="_top" xlink:title="obe::Script::CoreLib\l::loadAnimation">
<polygon fill="white" stroke="black" points="178,-9.5 178,-39.5 281,-39.5 281,-9.5 178,-9.5"/>
<text text-anchor="start" x="186" y="-27.5" font-family="Helvetica,sans-Serif" font-size="10.00">obe::Script::CoreLib</text>
<text text-anchor="middle" x="229.5" y="-16.5" font-family="Helvetica,sans-Serif" font-size="10.00">::loadAnimation</text>
</a>
</g>
</g>
<!-- Node69&#45;&gt;Node73 -->
<g id="edge4" class="edge"><title>Node69&#45;&gt;Node73</title>
<path fill="none" stroke="midnightblue" d="M141.349,-41.7151C153.761,-39.2633 166.367,-36.7732 177.992,-34.4769"/>
<polygon fill="midnightblue" stroke="midnightblue" points="140.59,-38.2972 131.458,-43.6688 141.947,-45.1645 140.59,-38.2972"/>
</g>
<!-- Node71 -->
<g id="node3" class="node"><title>Node71</title>
<g id="a_node3"><a xlink:href="namespaceobe_1_1_bindings.html#a41d33207a0199f125c75a0f70a4a3ba8" target="_top" xlink:title="obe::Bindings::IndexBindings">
<polygon fill="white" stroke="black" points="624,-88 624,-107 767,-107 767,-88 624,-88"/>
<text text-anchor="middle" x="695.5" y="-95" font-family="Helvetica,sans-Serif" font-size="10.00">obe::Bindings::IndexBindings</text>
</a>
</g>
</g>
<!-- Node70&#45;&gt;Node71 -->
<g id="edge2" class="edge"><title>Node70&#45;&gt;Node71</title>
<path fill="none" stroke="midnightblue" d="M302.227,-90.7367C389.769,-92.246 536.857,-94.782 623.889,-96.2826"/>
<polygon fill="midnightblue" stroke="midnightblue" points="302.175,-87.2353 292.116,-90.5623 302.054,-94.2343 302.175,-87.2353"/>
</g>
<!-- Node72 -->
<g id="node4" class="node"><title>Node72</title>
<g id="a_node4"><a xlink:href="_ob_engine_8cpp.html#a3c04138a5bfe5d72780bb7e82a18e627" target="_top" xlink:title="main">
<polygon fill="white" stroke="black" points="1154,-50 1154,-69 1192,-69 1192,-50 1154,-50"/>
<text text-anchor="middle" x="1173" y="-57" font-family="Helvetica,sans-Serif" font-size="10.00">main</text>
</a>
</g>
</g>
<!-- Node71&#45;&gt;Node72 -->
<g id="edge3" class="edge"><title>Node71&#45;&gt;Node72</title>
<path fill="none" stroke="midnightblue" d="M777.172,-92.9012C862.095,-87.7478 999.625,-78.5161 1118,-66.5 1129.85,-65.2971 1143.12,-63.5825 1153.53,-62.1514"/>
<polygon fill="midnightblue" stroke="midnightblue" points="776.852,-89.414 767.081,-93.5093 777.274,-96.4013 776.852,-89.414"/>
</g>
<!-- Node74 -->
<g id="node6" class="node"><title>Node74</title>
<g id="a_node6"><a xlink:href="namespaceobe_1_1_script.html#abdb81ec0976f1097cef6711415b8fac3" target="_top" xlink:title="obe::Script::loadCoreLib">
<polygon fill="white" stroke="black" points="328,-10 328,-29 449,-29 449,-10 328,-10"/>
<text text-anchor="middle" x="388.5" y="-17" font-family="Helvetica,sans-Serif" font-size="10.00">obe::Script::loadCoreLib</text>
</a>
</g>
</g>
<!-- Node73&#45;&gt;Node74 -->
<g id="edge5" class="edge"><title>Node73&#45;&gt;Node74</title>
<path fill="none" stroke="midnightblue" d="M291.362,-22.5617C303.309,-22.1812 315.832,-21.7824 327.743,-21.4031"/>
<polygon fill="midnightblue" stroke="midnightblue" points="290.923,-19.0738 281.04,-22.8904 291.146,-26.0703 290.923,-19.0738"/>
</g>
<!-- Node75 -->
<g id="node7" class="node"><title>Node75</title>
<g id="a_node7"><a xlink:href="namespaceobe_1_1_script.html#a4e6ee77032cf7f66544f9b08464a60b7" target="_top" xlink:title="obe::Script::loadLib">
<polygon fill="white" stroke="black" points="486,-50 486,-69 587,-69 587,-50 486,-50"/>
<text text-anchor="middle" x="536.5" y="-57" font-family="Helvetica,sans-Serif" font-size="10.00">obe::Script::loadLib</text>
</a>
</g>
</g>
<!-- Node74&#45;&gt;Node75 -->
<g id="edge6" class="edge"><title>Node74&#45;&gt;Node75</title>
<path fill="none" stroke="midnightblue" d="M434.311,-31.777C455.703,-37.6378 480.91,-44.544 500.815,-49.9972"/>
<polygon fill="midnightblue" stroke="midnightblue" points="435.04,-28.3478 424.471,-29.081 433.19,-35.099 435.04,-28.3478"/>
</g>
<!-- Node79 -->
<g id="node11" class="node"><title>Node79</title>
<g id="a_node11"><a xlink:href="namespaceobe_1_1_script_1_1_core_lib.html#a07d6c11bbb082bc45bdba50d97965c00" target="_top" xlink:title="obe::Script::CoreLib\l::loadCollision">
<polygon fill="white" stroke="black" points="485,-0.5 485,-30.5 588,-30.5 588,-0.5 485,-0.5"/>
<text text-anchor="start" x="493" y="-18.5" font-family="Helvetica,sans-Serif" font-size="10.00">obe::Script::CoreLib</text>
<text text-anchor="middle" x="536.5" y="-7.5" font-family="Helvetica,sans-Serif" font-size="10.00">::loadCollision</text>
</a>
</g>
</g>
<!-- Node74&#45;&gt;Node79 -->
<g id="edge13" class="edge"><title>Node74&#45;&gt;Node79</title>
<path fill="none" stroke="midnightblue" d="M459.356,-10.8417C467.966,-10.5753 476.634,-10.4327 484.88,-10.4271"/>
<polygon fill="midnightblue" stroke="midnightblue" points="459.17,-7.34608 449.305,-11.2105 459.427,-14.3414 459.17,-7.34608"/>
</g>
<!-- Node76 -->
<g id="node8" class="node"><title>Node76</title>
<g id="a_node8"><a xlink:href="namespaceobe_1_1_modes.html#a1e38c0d9a2ca0230f0de79c298f53ab9" target="_top" xlink:title="A mode that will start the Toolkit. ">
<polygon fill="white" stroke="black" points="803,-31 803,-50 949,-50 949,-31 803,-31"/>
<text text-anchor="middle" x="876" y="-38" font-family="Helvetica,sans-Serif" font-size="10.00">obe::Modes::startToolkitMode</text>
</a>
</g>
</g>
<!-- Node75&#45;&gt;Node76 -->
<g id="edge7" class="edge"><title>Node75&#45;&gt;Node76</title>
<path fill="none" stroke="midnightblue" d="M597.315,-56.1326C654.754,-52.899 741.599,-48.01 802.847,-44.562"/>
<polygon fill="midnightblue" stroke="midnightblue" points="597.087,-52.6399 587.299,-56.6965 597.48,-59.6288 597.087,-52.6399"/>
</g>
<!-- Node78 -->
<g id="node10" class="node"><title>Node78</title>
<g id="a_node10"><a xlink:href="namespaceobe_1_1_script.html#aad6ef67388e6d16eb01853f208da410f" target="_top" xlink:title="obe::Script::loadBaseLib">
<polygon fill="white" stroke="black" points="634,-12 634,-31 757,-31 757,-12 634,-12"/>
<text text-anchor="middle" x="695.5" y="-19" font-family="Helvetica,sans-Serif" font-size="10.00">obe::Script::loadBaseLib</text>
</a>
</g>
</g>
<!-- Node75&#45;&gt;Node78 -->
<g id="edge11" class="edge"><title>Node75&#45;&gt;Node78</title>
<path fill="none" stroke="midnightblue" d="M586.947,-47.532C608.948,-42.2069 634.494,-36.0238 655.167,-31.0201"/>
<polygon fill="midnightblue" stroke="midnightblue" points="586.014,-44.1567 577.118,-49.911 587.66,-50.9602 586.014,-44.1567"/>
</g>
<!-- Node76&#45;&gt;Node72 -->
<g id="edge10" class="edge"><title>Node76&#45;&gt;Node72</title>
<path fill="none" stroke="midnightblue" d="M959.308,-45.8012C1026.39,-50.1217 1115.99,-55.8927 1153.87,-58.3326"/>
<polygon fill="midnightblue" stroke="midnightblue" points="959.369,-42.298 949.165,-45.1479 958.919,-49.2835 959.369,-42.298"/>
</g>
<!-- Node77 -->
<g id="node9" class="node"><title>Node77</title>
<g id="a_node9"><a xlink:href="namespaceobe_1_1_modes.html#a6a8b08eee511d4895c4da96d4ba223a6" target="_top" xlink:title="Starts the development Menu where you can starts other menus from. ">
<polygon fill="white" stroke="black" points="985,-12 985,-31 1118,-31 1118,-12 985,-12"/>
<text text-anchor="middle" x="1051.5" y="-19" font-family="Helvetica,sans-Serif" font-size="10.00">obe::Modes::startDevMenu</text>
</a>
</g>
</g>
<!-- Node76&#45;&gt;Node77 -->
<g id="edge8" class="edge"><title>Node76&#45;&gt;Node77</title>
<path fill="none" stroke="midnightblue" d="M959.118,-31.5073C967.716,-30.5657 976.375,-29.6175 984.755,-28.6997"/>
<polygon fill="midnightblue" stroke="midnightblue" points="958.632,-28.0395 949.072,-32.6074 959.394,-34.9979 958.632,-28.0395"/>
</g>
<!-- Node77&#45;&gt;Node72 -->
<g id="edge9" class="edge"><title>Node77&#45;&gt;Node72</title>
<path fill="none" stroke="midnightblue" d="M1092.21,-34.1283C1113.01,-40.7412 1137.47,-48.5187 1153.77,-53.7028"/>
<polygon fill="midnightblue" stroke="midnightblue" points="1093.25,-30.784 1082.65,-31.089 1091.12,-37.4549 1093.25,-30.784"/>
</g>
<!-- Node78&#45;&gt;Node76 -->
<g id="edge12" class="edge"><title>Node78&#45;&gt;Node76</title>
<path fill="none" stroke="midnightblue" d="M767.538,-29.0614C779.19,-30.3017 791.274,-31.588 802.951,-32.8309"/>
<polygon fill="midnightblue" stroke="midnightblue" points="767.745,-25.5638 757.43,-27.9856 767.004,-32.5245 767.745,-25.5638"/>
</g>
<!-- Node79&#45;&gt;Node74 -->
<g id="edge14" class="edge"><title>Node79&#45;&gt;Node74</title>
<path fill="none" stroke="midnightblue" d="M474.757,-23.8289C466.342,-24.1776 457.703,-24.4097 449.305,-24.5125"/>
<polygon fill="midnightblue" stroke="midnightblue" points="475.058,-27.3186 484.88,-23.3466 474.724,-20.3266 475.058,-27.3186"/>
</g>
</g>
</svg>
