<?xml version="1.0" encoding="UTF-8" standalone="no"?>
<!DOCTYPE svg PUBLIC "-//W3C//DTD SVG 1.1//EN"
 "http://www.w3.org/Graphics/SVG/1.1/DTD/svg11.dtd">
<!-- Generated by graphviz version 2.38.0 (20140413.2041)
 -->
<!-- Title: vili::ArrayNode::copy Pages: 1 -->
<svg width="426pt" height="350pt"
 viewBox="0.00 0.00 426.00 350.00" xmlns="http://www.w3.org/2000/svg" xmlns:xlink="http://www.w3.org/1999/xlink">
<g id="graph0" class="graph" transform="scale(1 1) rotate(0) translate(4 346)">
<title>vili::ArrayNode::copy</title>
<!-- Node47 -->
<g id="node1" class="node"><title>Node47</title>
<polygon fill="#bfbfbf" stroke="black" points="0,-219 0,-238 106,-238 106,-219 0,-219"/>
<text text-anchor="middle" x="53" y="-226" font-family="Helvetica,sans-Serif" font-size="10.00">vili::ArrayNode::copy</text>
</g>
<!-- Node48 -->
<g id="node2" class="node"><title>Node48</title>
<g id="a_node2"><a xlink:href="classvili_1_1_node.html#a9d438d0731569aeeb9cae121796c1d41" target="_top" xlink:title="Returns the ClassType of the Node (All Types in vili::NodeType) ">
<polygon fill="white" stroke="black" points="153,-263 153,-282 249,-282 249,-263 153,-263"/>
<text text-anchor="middle" x="201" y="-270" font-family="Helvetica,sans-Serif" font-size="10.00">vili::Node::getType</text>
</a>
</g>
</g>
<!-- Node47&#45;&gt;Node48 -->
<g id="edge1" class="edge"><title>Node47&#45;&gt;Node48</title>
<path fill="none" stroke="midnightblue" d="M85.6798,-238.047C107.108,-244.505 135.618,-253.097 158.806,-260.085"/>
<polygon fill="midnightblue" stroke="midnightblue" points="157.797,-263.437 168.382,-262.971 159.817,-256.735 157.797,-263.437"/>
</g>
<!-- Node49 -->
<g id="node3" class="node"><title>Node49</title>
<g id="a_node3"><a xlink:href="classaube_1_1_error_handler.html#a7c8d44a3e7f019646d289950abc5301b" target="_top" xlink:title="Raises an Error loaded in the Aube Error Database (AED) ">
<polygon fill="white" stroke="black" points="152,-213.5 152,-243.5 250,-243.5 250,-213.5 152,-213.5"/>
<text text-anchor="start" x="160" y="-231.5" font-family="Helvetica,sans-Serif" font-size="10.00">aube::ErrorHandler</text>
<text text-anchor="middle" x="201" y="-220.5" font-family="Helvetica,sans-Serif" font-size="10.00">::Raise</text>
</a>
</g>
</g>
<!-- Node47&#45;&gt;Node49 -->
<g id="edge2" class="edge"><title>Node47&#45;&gt;Node49</title>
<path fill="none" stroke="midnightblue" d="M106.297,-228.5C117.815,-228.5 130.082,-228.5 141.816,-228.5"/>
<polygon fill="midnightblue" stroke="midnightblue" points="141.959,-232 151.959,-228.5 141.959,-225 141.959,-232"/>
</g>
<!-- Node54 -->
<g id="node8" class="node"><title>Node54</title>
<g id="a_node8"><a xlink:href="classvili_1_1_node.html#a5a6ad518f51d824e06ae7be0328f4864" target="_top" xlink:title="Get the Node Path (Example : GrandParent/Parent/Node) ">
<polygon fill="white" stroke="black" points="142,-88 142,-107 260,-107 260,-88 142,-88"/>
<text text-anchor="middle" x="201" y="-95" font-family="Helvetica,sans-Serif" font-size="10.00">vili::Node::getNodePath</text>
</a>
</g>
</g>
<!-- Node47&#45;&gt;Node54 -->
<g id="edge7" class="edge"><title>Node47&#45;&gt;Node54</title>
<path fill="none" stroke="midnightblue" d="M64.9737,-218.654C89.933,-196.259 151.16,-141.322 181.848,-113.787"/>
<polygon fill="midnightblue" stroke="midnightblue" points="184.19,-116.388 189.296,-107.105 179.515,-111.178 184.19,-116.388"/>
</g>
<!-- Node50 -->
<g id="node4" class="node"><title>Node50</title>
<g id="a_node4"><a xlink:href="classaube_1_1_error_message.html#a3a39b6fcd8fdb12eaf6383123535b8ca" target="_top" xlink:title="Gets the File where is located the ErrorMessage when raised. ">
<polygon fill="white" stroke="black" points="305,-311.5 305,-341.5 409,-341.5 409,-311.5 305,-311.5"/>
<text text-anchor="start" x="313" y="-329.5" font-family="Helvetica,sans-Serif" font-size="10.00">aube::ErrorMessage</text>
<text text-anchor="middle" x="357" y="-318.5" font-family="Helvetica,sans-Serif" font-size="10.00">::getFile</text>
</a>
</g>
</g>
<!-- Node49&#45;&gt;Node50 -->
<g id="edge3" class="edge"><title>Node49&#45;&gt;Node50</title>
<path fill="none" stroke="midnightblue" d="M244.391,-243.59C249.912,-246.45 255.281,-249.745 260,-253.5 281.147,-270.325 274.632,-285.956 296,-302.5 297.766,-303.867 299.62,-305.167 301.538,-306.401"/>
<polygon fill="midnightblue" stroke="midnightblue" points="299.861,-309.474 310.279,-311.402 303.337,-303.399 299.861,-309.474"/>
</g>
<!-- Node51 -->
<g id="node5" class="node"><title>Node51</title>
<g id="a_node5"><a xlink:href="classaube_1_1_error_message.html#a9184cc96589578f434351c105b0cd5f7" target="_top" xlink:title="Gets the location of the error in the code. ">
<polygon fill="white" stroke="black" points="305,-262.5 305,-292.5 409,-292.5 409,-262.5 305,-262.5"/>
<text text-anchor="start" x="313" y="-280.5" font-family="Helvetica,sans-Serif" font-size="10.00">aube::ErrorMessage</text>
<text text-anchor="middle" x="357" y="-269.5" font-family="Helvetica,sans-Serif" font-size="10.00">::getLocation</text>
</a>
</g>
</g>
<!-- Node49&#45;&gt;Node51 -->
<g id="edge4" class="edge"><title>Node49&#45;&gt;Node51</title>
<path fill="none" stroke="midnightblue" d="M249.462,-243.601C265.05,-248.562 282.543,-254.127 298.778,-259.293"/>
<polygon fill="midnightblue" stroke="midnightblue" points="298.105,-262.752 308.695,-262.448 300.227,-256.081 298.105,-262.752"/>
</g>
<!-- Node52 -->
<g id="node6" class="node"><title>Node52</title>
<g id="a_node6"><a xlink:href="classaube_1_1_error_message.html#a07927cb3e2d0712c459cc9e2b5f52696" target="_top" xlink:title="Gets the message displayed by the ErrorMessage when raised. ">
<polygon fill="white" stroke="black" points="305,-213.5 305,-243.5 409,-243.5 409,-213.5 305,-213.5"/>
<text text-anchor="start" x="313" y="-231.5" font-family="Helvetica,sans-Serif" font-size="10.00">aube::ErrorMessage</text>
<text text-anchor="middle" x="357" y="-220.5" font-family="Helvetica,sans-Serif" font-size="10.00">::getMessage</text>
</a>
</g>
</g>
<!-- Node49&#45;&gt;Node52 -->
<g id="edge5" class="edge"><title>Node49&#45;&gt;Node52</title>
<path fill="none" stroke="midnightblue" d="M250.304,-228.5C264.423,-228.5 280.044,-228.5 294.848,-228.5"/>
<polygon fill="midnightblue" stroke="midnightblue" points="294.938,-232 304.938,-228.5 294.938,-225 294.938,-232"/>
</g>
<!-- Node53 -->
<g id="node7" class="node"><title>Node53</title>
<g id="a_node7"><a xlink:href="classaube_1_1_error_message.html#a77c2f9b7e93542c958173b52da267989" target="_top" xlink:title="Gets hints that can help the error resolution. ">
<polygon fill="white" stroke="black" points="305,-164.5 305,-194.5 409,-194.5 409,-164.5 305,-164.5"/>
<text text-anchor="start" x="313" y="-182.5" font-family="Helvetica,sans-Serif" font-size="10.00">aube::ErrorMessage</text>
<text text-anchor="middle" x="357" y="-171.5" font-family="Helvetica,sans-Serif" font-size="10.00">::getHints</text>
</a>
</g>
</g>
<!-- Node49&#45;&gt;Node53 -->
<g id="edge6" class="edge"><title>Node49&#45;&gt;Node53</title>
<path fill="none" stroke="midnightblue" d="M249.462,-213.399C265.05,-208.438 282.543,-202.873 298.778,-197.707"/>
<polygon fill="midnightblue" stroke="midnightblue" points="300.227,-200.919 308.695,-194.552 298.105,-194.248 300.227,-200.919"/>
</g>
<!-- Node55 -->
<g id="node9" class="node"><title>Node55</title>
<g id="a_node9"><a xlink:href="classvili_1_1_node.html#a58273048e22a9ebd74e576fd8905f709" target="_top" xlink:title="vili::Node::getParent">
<polygon fill="white" stroke="black" points="305,-126 305,-145 409,-145 409,-126 305,-126"/>
<text text-anchor="middle" x="357" y="-133" font-family="Helvetica,sans-Serif" font-size="10.00">vili::Node::getParent</text>
</a>
</g>
</g>
<!-- Node54&#45;&gt;Node55 -->
<g id="edge8" class="edge"><title>Node54&#45;&gt;Node55</title>
<path fill="none" stroke="midnightblue" d="M240.861,-107.089C261.091,-112.081 286.021,-118.232 307.504,-123.533"/>
<polygon fill="midnightblue" stroke="midnightblue" points="306.871,-126.982 317.419,-125.98 308.548,-120.186 306.871,-126.982"/>
</g>
<!-- Node56 -->
<g id="node10" class="node"><title>Node56</title>
<g id="a_node10"><a xlink:href="classvili_1_1_node.html#ab03908ab3d62e3bfddaf9e7306fdf3b3" target="_top" xlink:title="Gets the id of the Node. ">
<polygon fill="white" stroke="black" points="315.5,-88 315.5,-107 398.5,-107 398.5,-88 315.5,-88"/>
<text text-anchor="middle" x="357" y="-95" font-family="Helvetica,sans-Serif" font-size="10.00">vili::Node::getId</text>
</a>
</g>
</g>
<!-- Node54&#45;&gt;Node56 -->
<g id="edge9" class="edge"><title>Node54&#45;&gt;Node56</title>
<path fill="none" stroke="midnightblue" d="M260.221,-97.5C275.025,-97.5 290.816,-97.5 305.218,-97.5"/>
<polygon fill="midnightblue" stroke="midnightblue" points="305.425,-101 315.425,-97.5 305.425,-94.0001 305.425,-101"/>
</g>
<!-- Node57 -->
<g id="node11" class="node"><title>Node57</title>
<g id="a_node11"><a xlink:href="classvili_1_1_node.html#ad3c91cfe2721eaf9841721d1ec8ee0d8" target="_top" xlink:title="Gets the Node annotation. ">
<polygon fill="white" stroke="black" points="296,-50 296,-69 418,-69 418,-50 296,-50"/>
<text text-anchor="middle" x="357" y="-57" font-family="Helvetica,sans-Serif" font-size="10.00">vili::Node::getAnnotation</text>
</a>
</g>
</g>
<!-- Node54&#45;&gt;Node57 -->
<g id="edge10" class="edge"><title>Node54&#45;&gt;Node57</title>
<path fill="none" stroke="midnightblue" d="M240.861,-87.911C261.091,-82.9191 286.021,-76.7676 307.504,-71.4666"/>
<polygon fill="midnightblue" stroke="midnightblue" points="308.548,-74.8139 317.419,-69.0201 306.871,-68.0177 308.548,-74.8139"/>
</g>
<!-- Node58 -->
<g id="node12" class="node"><title>Node58</title>
<g id="a_node12"><a xlink:href="namespacevili_1_1_functions_1_1_vector.html#a10836e1fe04648534cfc59d9de9acd72" target="_top" xlink:title="vili::Functions::Vector\l::join">
<polygon fill="white" stroke="black" points="302,-0.5 302,-30.5 412,-30.5 412,-0.5 302,-0.5"/>
<text text-anchor="start" x="310" y="-18.5" font-family="Helvetica,sans-Serif" font-size="10.00">vili::Functions::Vector</text>
<text text-anchor="middle" x="357" y="-7.5" font-family="Helvetica,sans-Serif" font-size="10.00">::join</text>
</a>
</g>
</g>
<!-- Node54&#45;&gt;Node58 -->
<g id="edge11" class="edge"><title>Node54&#45;&gt;Node58</title>
<path fill="none" stroke="midnightblue" d="M216.267,-87.9179C234.36,-75.986 266.732,-55.3652 296,-40.5 299.955,-38.4911 304.111,-36.5096 308.312,-34.5945"/>
<polygon fill="midnightblue" stroke="midnightblue" points="309.79,-37.7679 317.521,-30.5232 306.959,-31.3657 309.79,-37.7679"/>
</g>
</g>
</svg>
