<?xml version="1.0" encoding="UTF-8" standalone="no"?>
<!DOCTYPE svg PUBLIC "-//W3C//DTD SVG 1.1//EN"
 "http://www.w3.org/Graphics/SVG/1.1/DTD/svg11.dtd">
<!-- Generated by graphviz version 2.38.0 (20140413.2041)
 -->
<!-- Title: vili::ComplexNode::removeNode Pages: 1 -->
<svg width="528pt" height="186pt"
 viewBox="0.00 0.00 528.00 186.00" xmlns="http://www.w3.org/2000/svg" xmlns:xlink="http://www.w3.org/1999/xlink">
<g id="graph0" class="graph" transform="scale(1 1) rotate(0) translate(4 182)">
<title>vili::ComplexNode::removeNode</title>
<!-- Node1049 -->
<g id="node1" class="node"><title>Node1049</title>
<polygon fill="#bfbfbf" stroke="black" points="0,-98.5 0,-128.5 100,-128.5 100,-98.5 0,-98.5"/>
<text text-anchor="start" x="8" y="-116.5" font-family="Helvetica,sans-Serif" font-size="10.00">vili::ComplexNode::</text>
<text text-anchor="middle" x="50" y="-105.5" font-family="Helvetica,sans-Serif" font-size="10.00">removeNode</text>
</g>
<!-- Node1050 -->
<g id="node2" class="node"><title>Node1050</title>
<g id="a_node2"><a xlink:href="namespacevili_1_1_functions_1_1_vector.html#aa9f0dd6b1c4be1e3d86846944329d9f2" target="_top" xlink:title="Check if a given item is in the given std::vector. ">
<polygon fill="white" stroke="black" points="136,-147.5 136,-177.5 246,-177.5 246,-147.5 136,-147.5"/>
<text text-anchor="start" x="144" y="-165.5" font-family="Helvetica,sans-Serif" font-size="10.00">vili::Functions::Vector</text>
<text text-anchor="middle" x="191" y="-154.5" font-family="Helvetica,sans-Serif" font-size="10.00">::isInList</text>
</a>
</g>
</g>
<!-- Node1049&#45;&gt;Node1050 -->
<g id="edge1" class="edge"><title>Node1049&#45;&gt;Node1050</title>
<path fill="none" stroke="midnightblue" d="M93.8388,-128.601C107.579,-133.445 122.958,-138.866 137.317,-143.928"/>
<polygon fill="midnightblue" stroke="midnightblue" points="136.469,-147.34 147.063,-147.364 138.796,-140.738 136.469,-147.34"/>
</g>
<!-- Node1051 -->
<g id="node3" class="node"><title>Node1051</title>
<g id="a_node3"><a xlink:href="classvili_1_1_complex_node.html#a550584eb0dc76bbcb50e35182ac308cd" target="_top" xlink:title="Get all the Node Ids of the given Type contained in the ComplexNode. ">
<polygon fill="white" stroke="black" points="141,-98.5 141,-128.5 241,-128.5 241,-98.5 141,-98.5"/>
<text text-anchor="start" x="149" y="-116.5" font-family="Helvetica,sans-Serif" font-size="10.00">vili::ComplexNode::</text>
<text text-anchor="middle" x="191" y="-105.5" font-family="Helvetica,sans-Serif" font-size="10.00">getAll</text>
</a>
</g>
</g>
<!-- Node1049&#45;&gt;Node1051 -->
<g id="edge2" class="edge"><title>Node1049&#45;&gt;Node1051</title>
<path fill="none" stroke="midnightblue" d="M100.006,-113.5C109.972,-113.5 120.555,-113.5 130.83,-113.5"/>
<polygon fill="midnightblue" stroke="midnightblue" points="130.968,-117 140.968,-113.5 130.968,-110 130.968,-117"/>
</g>
<!-- Node1052 -->
<g id="node4" class="node"><title>Node1052</title>
<g id="a_node4"><a xlink:href="namespacevili_1_1_functions_1_1_vector.html#a9f11b4d9b535b580a613a064d18b9caa" target="_top" xlink:title="Get the index of an item in a std::vector. ">
<polygon fill="white" stroke="black" points="136,-49.5 136,-79.5 246,-79.5 246,-49.5 136,-49.5"/>
<text text-anchor="start" x="144" y="-67.5" font-family="Helvetica,sans-Serif" font-size="10.00">vili::Functions::Vector</text>
<text text-anchor="middle" x="191" y="-56.5" font-family="Helvetica,sans-Serif" font-size="10.00">::indexOfElement</text>
</a>
</g>
</g>
<!-- Node1049&#45;&gt;Node1052 -->
<g id="edge3" class="edge"><title>Node1049&#45;&gt;Node1052</title>
<path fill="none" stroke="midnightblue" d="M93.8388,-98.3986C107.579,-93.5549 122.958,-88.1336 137.317,-83.0715"/>
<polygon fill="midnightblue" stroke="midnightblue" points="138.796,-86.2615 147.063,-79.6359 136.469,-79.6597 138.796,-86.2615"/>
</g>
<!-- Node1053 -->
<g id="node5" class="node"><title>Node1053</title>
<g id="a_node5"><a xlink:href="classaube_1_1_error_handler.html#a7c8d44a3e7f019646d289950abc5301b" target="_top" xlink:title="Raises an Error loaded in the Aube Error Database (AED) ">
<polygon fill="white" stroke="black" points="282,-49.5 282,-79.5 380,-79.5 380,-49.5 282,-49.5"/>
<text text-anchor="start" x="290" y="-67.5" font-family="Helvetica,sans-Serif" font-size="10.00">aube::ErrorHandler</text>
<text text-anchor="middle" x="331" y="-56.5" font-family="Helvetica,sans-Serif" font-size="10.00">::Raise</text>
</a>
</g>
</g>
<!-- Node1052&#45;&gt;Node1053 -->
<g id="edge4" class="edge"><title>Node1052&#45;&gt;Node1053</title>
<path fill="none" stroke="midnightblue" d="M246.145,-64.5C254.52,-64.5 263.201,-64.5 271.663,-64.5"/>
<polygon fill="midnightblue" stroke="midnightblue" points="271.84,-68.0001 281.84,-64.5 271.84,-61.0001 271.84,-68.0001"/>
</g>
<!-- Node1054 -->
<g id="node6" class="node"><title>Node1054</title>
<g id="a_node6"><a xlink:href="classaube_1_1_error_message.html#a9184cc96589578f434351c105b0cd5f7" target="_top" xlink:title="Gets the location of the error in the code. ">
<polygon fill="white" stroke="black" points="416,-98.5 416,-128.5 520,-128.5 520,-98.5 416,-98.5"/>
<text text-anchor="start" x="424" y="-116.5" font-family="Helvetica,sans-Serif" font-size="10.00">aube::ErrorMessage</text>
<text text-anchor="middle" x="468" y="-105.5" font-family="Helvetica,sans-Serif" font-size="10.00">::getLocation</text>
</a>
</g>
</g>
<!-- Node1053&#45;&gt;Node1054 -->
<g id="edge5" class="edge"><title>Node1053&#45;&gt;Node1054</title>
<path fill="none" stroke="midnightblue" d="M373.606,-79.6014C386.951,-84.4451 401.887,-89.8664 415.834,-94.9285"/>
<polygon fill="midnightblue" stroke="midnightblue" points="414.705,-98.2422 425.299,-98.3641 417.093,-91.6622 414.705,-98.2422"/>
</g>
<!-- Node1055 -->
<g id="node7" class="node"><title>Node1055</title>
<g id="a_node7"><a xlink:href="classaube_1_1_error_message.html#a07927cb3e2d0712c459cc9e2b5f52696" target="_top" xlink:title="Gets the message displayed by the ErrorMessage when raised. ">
<polygon fill="white" stroke="black" points="416,-49.5 416,-79.5 520,-79.5 520,-49.5 416,-49.5"/>
<text text-anchor="start" x="424" y="-67.5" font-family="Helvetica,sans-Serif" font-size="10.00">aube::ErrorMessage</text>
<text text-anchor="middle" x="468" y="-56.5" font-family="Helvetica,sans-Serif" font-size="10.00">::getMessage</text>
</a>
</g>
</g>
<!-- Node1053&#45;&gt;Node1055 -->
<g id="edge6" class="edge"><title>Node1053&#45;&gt;Node1055</title>
<path fill="none" stroke="midnightblue" d="M380.357,-64.5C388.533,-64.5 397.117,-64.5 405.573,-64.5"/>
<polygon fill="midnightblue" stroke="midnightblue" points="405.788,-68.0001 415.788,-64.5 405.788,-61.0001 405.788,-68.0001"/>
</g>
<!-- Node1056 -->
<g id="node8" class="node"><title>Node1056</title>
<g id="a_node8"><a xlink:href="classaube_1_1_error_message.html#a77c2f9b7e93542c958173b52da267989" target="_top" xlink:title="Gets hints that can help the error resolution. ">
<polygon fill="white" stroke="black" points="416,-0.5 416,-30.5 520,-30.5 520,-0.5 416,-0.5"/>
<text text-anchor="start" x="424" y="-18.5" font-family="Helvetica,sans-Serif" font-size="10.00">aube::ErrorMessage</text>
<text text-anchor="middle" x="468" y="-7.5" font-family="Helvetica,sans-Serif" font-size="10.00">::getHints</text>
</a>
</g>
</g>
<!-- Node1053&#45;&gt;Node1056 -->
<g id="edge7" class="edge"><title>Node1053&#45;&gt;Node1056</title>
<path fill="none" stroke="midnightblue" d="M373.606,-49.3986C386.951,-44.5549 401.887,-39.1336 415.834,-34.0715"/>
<polygon fill="midnightblue" stroke="midnightblue" points="417.093,-37.3378 425.299,-30.6359 414.705,-30.7578 417.093,-37.3378"/>
</g>
</g>
</svg>
