<?xml version="1.0" encoding="UTF-8" standalone="no"?>
<!DOCTYPE svg PUBLIC "-//W3C//DTD SVG 1.1//EN"
 "http://www.w3.org/Graphics/SVG/1.1/DTD/svg11.dtd">
<!-- Generated by graphviz version 2.38.0 (20140413.2041)
 -->
<!-- Title: obe::Triggers::Trigger::pushParameter Pages: 1 -->
<!--zoomable 361 -->
<svg id="main" version="1.1" xmlns="http://www.w3.org/2000/svg" xmlns:xlink="http://www.w3.org/1999/xlink" xml:space="preserve" onload="init(evt)">
<style type="text/css"><![CDATA[
.edge:hover path { stroke: red; }
.edge:hover polygon { stroke: red; fill: red; }
.edge path { stroke: white; }
.edge polygon { stroke: white; fill: white; }
.node polygon { fill: white; }
]]></style>
<script type="text/javascript"><![CDATA[
var edges = document.getElementsByTagName('g');
if (edges && edges.length) {
  for (var i=0;i<edges.length;i++) {
    if (edges[i].id.substr(0,4)=='edge') {
      edges[i].setAttribute('class','edge');
    }
  }
}
]]></script>
        <defs>
                <circle id="rim" cx="0" cy="0" r="7"/>
                <circle id="rim2" cx="0" cy="0" r="3.5"/>
                <g id="zoomPlus">
                        <use xlink:href="#rim" fill="#404040">
                                <set attributeName="fill" to="#808080" begin="zoomplus.mouseover" end="zoomplus.mouseout"/>
                        </use>
                        <path d="M-4,0h8M0,-4v8" fill="none" stroke="white" stroke-width="1.5" pointer-events="none"/>
                </g>
                <g id="zoomMin">
                        <use xlink:href="#rim" fill="#404040">
                                <set attributeName="fill" to="#808080" begin="zoomminus.mouseover" end="zoomminus.mouseout"/>
                        </use>
                        <path d="M-4,0h8" fill="none" stroke="white" stroke-width="1.5" pointer-events="none"/>
                </g>
                <g id="dirArrow">
                        <path fill="none" stroke="white" stroke-width="1.5" d="M0,-3.0v7 M-2.5,-0.5L0,-3.0L2.5,-0.5"/>
                </g>
               <g id="resetDef">
                       <use xlink:href="#rim2" fill="#404040">
                               <set attributeName="fill" to="#808080" begin="reset.mouseover" end="reset.mouseout"/>
                       </use>
               </g>
        </defs>

<script type="text/javascript">
var viewWidth = 1402;
var viewHeight = 361;
var sectionId = 'dynsection-9';
</script>
<script xlink:href="svgpan.js"/>
<svg id="graph" class="graph">
<g id="viewport">
<title>obe::Triggers::Trigger::pushParameter</title>
<!-- Node91 -->
<g id="node1" class="node"><title>Node91</title>
<polygon fill="#bfbfbf" stroke="black" points="0,-118.5 0,-148.5 108,-148.5 108,-118.5 0,-118.5"/>
<text text-anchor="start" x="8" y="-136.5" font-family="Helvetica,sans-Serif" font-size="10.00">obe::Triggers::Trigger</text>
<text text-anchor="middle" x="54" y="-125.5" font-family="Helvetica,sans-Serif" font-size="10.00">::pushParameter</text>
</g>
<!-- Node92 -->
<g id="node2" class="node"><title>Node92</title>
<g id="a_node2"><a xlink:href="classobe_1_1_triggers_1_1_trigger_group.html#a49dc453c0968342bd7ffae88abcb19b7" target="_top" xlink:title="Pushes a Parameter to a Trigger. ">
<polygon fill="none" stroke="black" points="144,-118.5 144,-148.5 278,-148.5 278,-118.5 144,-118.5"/>
<text text-anchor="start" x="152" y="-136.5" font-family="Helvetica,sans-Serif" font-size="10.00">obe::Triggers::TriggerGroup</text>
<text text-anchor="middle" x="211" y="-125.5" font-family="Helvetica,sans-Serif" font-size="10.00">::pushParameter</text>
</a>
</g>
</g>
<!-- Node91&#45;&gt;Node92 -->
<g id="edge1" class="edge"><title>Node91&#45;&gt;Node92</title>
<path fill="none" stroke="midnightblue" d="M118.459,-133.5C126.869,-133.5 135.507,-133.5 143.959,-133.5"/>
<polygon fill="midnightblue" stroke="midnightblue" points="118.342,-130 108.342,-133.5 118.342,-137 118.342,-130"/>
</g>
<!-- Node93 -->
<g id="node3" class="node"><title>Node93</title>
<g id="a_node3"><a xlink:href="classobe_1_1_debug_1_1_console.html#a95a9f75bf9c421f88d3bdd9ef1a95df3" target="_top" xlink:title="Creates a new Stream to use in the Console. ">
<polygon fill="none" stroke="black" points="334.5,-196.5 334.5,-226.5 441.5,-226.5 441.5,-196.5 334.5,-196.5"/>
<text text-anchor="start" x="342.5" y="-214.5" font-family="Helvetica,sans-Serif" font-size="10.00">obe::Debug::Console</text>
<text text-anchor="middle" x="388" y="-203.5" font-family="Helvetica,sans-Serif" font-size="10.00">::createStream</text>
</a>
</g>
</g>
<!-- Node92&#45;&gt;Node93 -->
<g id="edge2" class="edge"><title>Node92&#45;&gt;Node93</title>
<path fill="none" stroke="midnightblue" d="M249.169,-153.312C268.303,-163.195 292.144,-175.028 314,-184.5 323.547,-188.637 333.955,-192.729 343.842,-196.427"/>
<polygon fill="midnightblue" stroke="midnightblue" points="250.67,-150.147 240.184,-148.635 247.439,-156.357 250.67,-150.147"/>
</g>
<!-- Node99 -->
<g id="node9" class="node"><title>Node99</title>
<g id="a_node9"><a xlink:href="classobe_1_1_network_1_1_network_handler.html#a2614539df148bb0fb53c77b728394dff" target="_top" xlink:title="obe::Network::NetworkHandler\l::handleTriggers">
<polygon fill="none" stroke="black" points="314,-92.5 314,-122.5 462,-122.5 462,-92.5 314,-92.5"/>
<text text-anchor="start" x="322" y="-110.5" font-family="Helvetica,sans-Serif" font-size="10.00">obe::Network::NetworkHandler</text>
<text text-anchor="middle" x="388" y="-99.5" font-family="Helvetica,sans-Serif" font-size="10.00">::handleTriggers</text>
</a>
</g>
</g>
<!-- Node92&#45;&gt;Node99 -->
<g id="edge9" class="edge"><title>Node92&#45;&gt;Node99</title>
<path fill="none" stroke="midnightblue" d="M288.067,-122.199C296.581,-120.934 305.241,-119.647 313.719,-118.387"/>
<polygon fill="midnightblue" stroke="midnightblue" points="287.537,-118.739 278.16,-123.671 288.566,-125.663 287.537,-118.739"/>
</g>
<!-- Node100 -->
<g id="node10" class="node"><title>Node100</title>
<g id="a_node10"><a xlink:href="namespaceobe_1_1_script_1_1_core_lib.html#a94684c4b34b9c53b5bcf31d052cf6faf" target="_top" xlink:title="obe::Script::CoreLib\l::loadTrigger">
<polygon fill="none" stroke="black" points="336.5,-145.5 336.5,-175.5 439.5,-175.5 439.5,-145.5 336.5,-145.5"/>
<text text-anchor="start" x="344.5" y="-163.5" font-family="Helvetica,sans-Serif" font-size="10.00">obe::Script::CoreLib</text>
<text text-anchor="middle" x="388" y="-152.5" font-family="Helvetica,sans-Serif" font-size="10.00">::loadTrigger</text>
</a>
</g>
</g>
<!-- Node92&#45;&gt;Node100 -->
<g id="edge11" class="edge"><title>Node92&#45;&gt;Node100</title>
<path fill="none" stroke="midnightblue" d="M288.201,-145.257C304.471,-147.767 321.271,-150.359 336.3,-152.678"/>
<polygon fill="midnightblue" stroke="midnightblue" points="288.577,-141.773 278.16,-143.708 287.509,-148.692 288.577,-141.773"/>
</g>
<!-- Node111 -->
<g id="node21" class="node"><title>Node111</title>
<g id="a_node21"><a xlink:href="classobe_1_1_system_1_1_cursor.html#a3c1d2d899a2186435cdff92e31d50f1c" target="_top" xlink:title="Handles the internal Cursor Triggers. ">
<polygon fill="none" stroke="black" points="838,-38.5 838,-68.5 945,-68.5 945,-38.5 838,-38.5"/>
<text text-anchor="start" x="846" y="-56.5" font-family="Helvetica,sans-Serif" font-size="10.00">obe::System::Cursor</text>
<text text-anchor="middle" x="891.5" y="-45.5" font-family="Helvetica,sans-Serif" font-size="10.00">::handleTriggers</text>
</a>
</g>
</g>
<!-- Node92&#45;&gt;Node111 -->
<g id="edge27" class="edge"><title>Node92&#45;&gt;Node111</title>
<path fill="none" stroke="midnightblue" d="M243.942,-113.219C263.395,-101.988 289.204,-89.0154 314,-82.5 501.546,-33.2197 734.943,-41.869 837.728,-49.0296"/>
<polygon fill="midnightblue" stroke="midnightblue" points="242.029,-110.285 235.208,-118.391 245.596,-116.308 242.029,-110.285"/>
</g>
<!-- Node94 -->
<g id="node4" class="node"><title>Node94</title>
<g id="a_node4"><a xlink:href="namespaceobe_1_1_bindings_1_1_debug_bindings.html#ac4745da23e2a90b8a1da52b120cd2423" target="_top" xlink:title="obe::Bindings::DebugBindings\l::LoadConsole">
<polygon fill="none" stroke="black" points="498,-248.5 498,-278.5 645,-278.5 645,-248.5 498,-248.5"/>
<text text-anchor="start" x="506" y="-266.5" font-family="Helvetica,sans-Serif" font-size="10.00">obe::Bindings::DebugBindings</text>
<text text-anchor="middle" x="571.5" y="-255.5" font-family="Helvetica,sans-Serif" font-size="10.00">::LoadConsole</text>
</a>
</g>
</g>
<!-- Node93&#45;&gt;Node94 -->
<g id="edge3" class="edge"><title>Node93&#45;&gt;Node94</title>
<path fill="none" stroke="midnightblue" d="M451.304,-229.35C473.064,-235.584 497.251,-242.514 518.121,-248.493"/>
<polygon fill="midnightblue" stroke="midnightblue" points="452.075,-225.93 441.497,-226.541 450.147,-232.659 452.075,-225.93"/>
</g>
<!-- Node95 -->
<g id="node5" class="node"><title>Node95</title>
<g id="a_node5"><a xlink:href="classobe_1_1_debug_1_1_console.html#a6120ea12f472acf98bd67f65864e1dc3" target="_top" xlink:title="Creates a new Console. ">
<polygon fill="none" stroke="black" points="518,-199.5 518,-229.5 625,-229.5 625,-199.5 518,-199.5"/>
<text text-anchor="start" x="526" y="-217.5" font-family="Helvetica,sans-Serif" font-size="10.00">obe::Debug::Console</text>
<text text-anchor="middle" x="571.5" y="-206.5" font-family="Helvetica,sans-Serif" font-size="10.00">::Console</text>
</a>
</g>
</g>
<!-- Node93&#45;&gt;Node95 -->
<g id="edge4" class="edge"><title>Node93&#45;&gt;Node95</title>
<path fill="none" stroke="midnightblue" d="M451.986,-212.541C473.444,-212.896 497.193,-213.288 517.763,-213.628"/>
<polygon fill="midnightblue" stroke="midnightblue" points="452.042,-209.042 441.985,-212.376 451.926,-216.041 452.042,-209.042"/>
</g>
<!-- Node96 -->
<g id="node6" class="node"><title>Node96</title>
<g id="a_node6"><a xlink:href="namespaceobe_1_1_editor.html#a9009207671e71dccb68a31ea2362e9ef" target="_top" xlink:title="Starts the map edition. ">
<polygon fill="none" stroke="black" points="681,-102 681,-121 785,-121 785,-102 681,-102"/>
<text text-anchor="middle" x="733" y="-109" font-family="Helvetica,sans-Serif" font-size="10.00">obe::Editor::editMap</text>
</a>
</g>
</g>
<!-- Node93&#45;&gt;Node96 -->
<g id="edge5" class="edge"><title>Node93&#45;&gt;Node96</title>
<path fill="none" stroke="midnightblue" d="M447.119,-192.398C452.278,-189.993 457.315,-187.36 462,-184.5 480.526,-173.19 478.509,-161.051 498,-151.5 529.412,-136.108 622.052,-123.541 680.91,-116.82"/>
<polygon fill="midnightblue" stroke="midnightblue" points="445.521,-189.277 437.752,-196.481 448.318,-195.694 445.521,-189.277"/>
</g>
<!-- Node97 -->
<g id="node7" class="node"><title>Node97</title>
<g id="a_node7"><a xlink:href="namespaceobe_1_1_modes.html#a6a8b08eee511d4895c4da96d4ba223a6" target="_top" xlink:title="Starts the development Menu where you can starts other menus from. ">
<polygon fill="none" stroke="black" points="1187,-88 1187,-107 1320,-107 1320,-88 1187,-88"/>
<text text-anchor="middle" x="1253.5" y="-95" font-family="Helvetica,sans-Serif" font-size="10.00">obe::Modes::startDevMenu</text>
</a>
</g>
</g>
<!-- Node96&#45;&gt;Node97 -->
<g id="edge6" class="edge"><title>Node96&#45;&gt;Node97</title>
<path fill="none" stroke="midnightblue" d="M795.21,-109.847C893.514,-107.193 1085.77,-102.002 1186.83,-99.2732"/>
<polygon fill="midnightblue" stroke="midnightblue" points="795.037,-106.351 785.135,-110.119 795.226,-113.348 795.037,-106.351"/>
</g>
<!-- Node98 -->
<g id="node8" class="node"><title>Node98</title>
<g id="a_node8"><a xlink:href="_ob_engine_8cpp.html#a3c04138a5bfe5d72780bb7e82a18e627" target="_top" xlink:title="main">
<polygon fill="none" stroke="black" points="1356,-107 1356,-126 1394,-126 1394,-107 1356,-107"/>
<text text-anchor="middle" x="1375" y="-114" font-family="Helvetica,sans-Serif" font-size="10.00">main</text>
</a>
</g>
</g>
<!-- Node96&#45;&gt;Node98 -->
<g id="edge8" class="edge"><title>Node96&#45;&gt;Node98</title>
<path fill="none" stroke="midnightblue" d="M795.416,-119.447C803.994,-120.297 812.709,-121.025 821,-121.5 1030.92,-133.525 1286.38,-121.317 1355.84,-117.537"/>
<polygon fill="midnightblue" stroke="midnightblue" points="795.751,-115.963 785.44,-118.399 795.02,-122.925 795.751,-115.963"/>
</g>
<!-- Node97&#45;&gt;Node98 -->
<g id="edge7" class="edge"><title>Node97&#45;&gt;Node98</title>
<path fill="none" stroke="midnightblue" d="M1324.82,-108.681C1336.35,-110.513 1347.33,-112.259 1355.98,-113.635"/>
<polygon fill="midnightblue" stroke="midnightblue" points="1325.03,-105.169 1314.6,-107.056 1323.93,-112.083 1325.03,-105.169"/>
</g>
<!-- Node99&#45;&gt;Node96 -->
<g id="edge10" class="edge"><title>Node99&#45;&gt;Node96</title>
<path fill="none" stroke="midnightblue" d="M472.405,-108.473C537.526,-109.232 625.911,-110.263 680.923,-110.904"/>
<polygon fill="midnightblue" stroke="midnightblue" points="472.202,-104.97 462.161,-108.353 472.12,-111.97 472.202,-104.97"/>
</g>
<!-- Node101 -->
<g id="node11" class="node"><title>Node101</title>
<g id="a_node11"><a xlink:href="namespaceobe_1_1_script.html#abdb81ec0976f1097cef6711415b8fac3" target="_top" xlink:title="obe::Script::loadCoreLib">
<polygon fill="none" stroke="black" points="511,-161 511,-180 632,-180 632,-161 511,-161"/>
<text text-anchor="middle" x="571.5" y="-168" font-family="Helvetica,sans-Serif" font-size="10.00">obe::Script::loadCoreLib</text>
</a>
</g>
</g>
<!-- Node100&#45;&gt;Node101 -->
<g id="edge12" class="edge"><title>Node100&#45;&gt;Node101</title>
<path fill="none" stroke="midnightblue" d="M449.655,-163.842C469.38,-164.929 491.244,-166.133 510.891,-167.216"/>
<polygon fill="midnightblue" stroke="midnightblue" points="449.735,-160.341 439.558,-163.286 449.35,-167.33 449.735,-160.341"/>
</g>
<!-- Node102 -->
<g id="node12" class="node"><title>Node102</title>
<g id="a_node12"><a xlink:href="namespaceobe_1_1_script.html#a4e6ee77032cf7f66544f9b08464a60b7" target="_top" xlink:title="obe::Script::loadLib">
<polygon fill="none" stroke="black" points="682.5,-205 682.5,-224 783.5,-224 783.5,-205 682.5,-205"/>
<text text-anchor="middle" x="733" y="-212" font-family="Helvetica,sans-Serif" font-size="10.00">obe::Script::loadLib</text>
</a>
</g>
</g>
<!-- Node101&#45;&gt;Node102 -->
<g id="edge13" class="edge"><title>Node101&#45;&gt;Node102</title>
<path fill="none" stroke="midnightblue" d="M619.574,-182.665C628.048,-184.903 636.793,-187.246 645,-189.5 663.033,-194.453 683.1,-200.204 699.414,-204.94"/>
<polygon fill="midnightblue" stroke="midnightblue" points="620.362,-179.253 609.8,-180.096 618.582,-186.023 620.362,-179.253"/>
</g>
<!-- Node110 -->
<g id="node20" class="node"><title>Node110</title>
<g id="a_node20"><a xlink:href="namespaceobe_1_1_script_1_1_core_lib.html#a07d6c11bbb082bc45bdba50d97965c00" target="_top" xlink:title="obe::Script::CoreLib\l::loadCollision">
<polygon fill="none" stroke="black" points="681.5,-155.5 681.5,-185.5 784.5,-185.5 784.5,-155.5 681.5,-155.5"/>
<text text-anchor="start" x="689.5" y="-173.5" font-family="Helvetica,sans-Serif" font-size="10.00">obe::Script::CoreLib</text>
<text text-anchor="middle" x="733" y="-162.5" font-family="Helvetica,sans-Serif" font-size="10.00">::loadCollision</text>
</a>
</g>
</g>
<!-- Node101&#45;&gt;Node110 -->
<g id="edge25" class="edge"><title>Node101&#45;&gt;Node110</title>
<path fill="none" stroke="midnightblue" d="M642.711,-163.793C655.762,-163.675 669.159,-163.8 681.476,-164.17"/>
<polygon fill="midnightblue" stroke="midnightblue" points="642.295,-160.299 632.346,-163.94 642.394,-167.298 642.295,-160.299"/>
</g>
<!-- Node103 -->
<g id="node13" class="node"><title>Node103</title>
<g id="a_node13"><a xlink:href="namespaceobe_1_1_modes.html#a1e38c0d9a2ca0230f0de79c298f53ab9" target="_top" xlink:title="A mode that will start the Toolkit. ">
<polygon fill="none" stroke="black" points="1001.5,-164 1001.5,-183 1147.5,-183 1147.5,-164 1001.5,-164"/>
<text text-anchor="middle" x="1074.5" y="-171" font-family="Helvetica,sans-Serif" font-size="10.00">obe::Modes::startToolkitMode</text>
</a>
</g>
</g>
<!-- Node102&#45;&gt;Node103 -->
<g id="edge14" class="edge"><title>Node102&#45;&gt;Node103</title>
<path fill="none" stroke="midnightblue" d="M776.28,-202.25C790.393,-198.579 806.275,-194.897 821,-192.5 881.311,-182.681 950.569,-177.923 1001.28,-175.625"/>
<polygon fill="midnightblue" stroke="midnightblue" points="775.116,-198.938 766.358,-204.901 776.923,-205.701 775.116,-198.938"/>
</g>
<!-- Node104 -->
<g id="node14" class="node"><title>Node104</title>
<g id="a_node14"><a xlink:href="classobe_1_1_scene_1_1_world.html#a32964e659e18cb32094d9f8ceea30aa3" target="_top" xlink:title="obe::Scene::World::\lWorld">
<polygon fill="none" stroke="black" points="1022.5,-254.5 1022.5,-284.5 1126.5,-284.5 1126.5,-254.5 1022.5,-254.5"/>
<text text-anchor="start" x="1030.5" y="-272.5" font-family="Helvetica,sans-Serif" font-size="10.00">obe::Scene::World::</text>
<text text-anchor="middle" x="1074.5" y="-261.5" font-family="Helvetica,sans-Serif" font-size="10.00">World</text>
</a>
</g>
</g>
<!-- Node102&#45;&gt;Node104 -->
<g id="edge17" class="edge"><title>Node102&#45;&gt;Node104</title>
<path fill="none" stroke="midnightblue" d="M793.513,-225.679C802.709,-227.338 812.104,-228.995 821,-230.5 890.539,-242.262 971.101,-254.458 1022.17,-262.012"/>
<polygon fill="midnightblue" stroke="midnightblue" points="794.11,-222.23 783.645,-223.884 792.857,-229.117 794.11,-222.23"/>
</g>
<!-- Node105 -->
<g id="node15" class="node"><title>Node105</title>
<g id="a_node15"><a xlink:href="namespaceobe_1_1_scene.html#ae5cbcc3278d9115d603e5024dec9136e" target="_top" xlink:title="obe::Scene::loadWorldScript\lEngineBaseLib">
<polygon fill="none" stroke="black" points="821,-278.5 821,-308.5 962,-308.5 962,-278.5 821,-278.5"/>
<text text-anchor="start" x="829" y="-296.5" font-family="Helvetica,sans-Serif" font-size="10.00">obe::Scene::loadWorldScript</text>
<text text-anchor="middle" x="891.5" y="-285.5" font-family="Helvetica,sans-Serif" font-size="10.00">EngineBaseLib</text>
</a>
</g>
</g>
<!-- Node102&#45;&gt;Node105 -->
<g id="edge18" class="edge"><title>Node102&#45;&gt;Node105</title>
<path fill="none" stroke="midnightblue" d="M758.611,-229.28C775.832,-239.393 799.508,-252.846 821,-263.5 831.48,-268.695 843.073,-273.904 853.738,-278.489"/>
<polygon fill="midnightblue" stroke="midnightblue" points="760.152,-226.125 749.763,-224.044 756.587,-232.149 760.152,-226.125"/>
</g>
<!-- Node106 -->
<g id="node16" class="node"><title>Node106</title>
<g id="a_node16"><a xlink:href="namespaceobe_1_1_script.html#a5e992c0efb0543e7c934bc1065f08b01" target="_top" xlink:title="obe::Script::loadLibBridge">
<polygon fill="none" stroke="black" points="827.5,-328 827.5,-347 955.5,-347 955.5,-328 827.5,-328"/>
<text text-anchor="middle" x="891.5" y="-335" font-family="Helvetica,sans-Serif" font-size="10.00">obe::Script::loadLibBridge</text>
</a>
</g>
</g>
<!-- Node102&#45;&gt;Node106 -->
<g id="edge20" class="edge"><title>Node102&#45;&gt;Node106</title>
<path fill="none" stroke="midnightblue" d="M744.444,-232.857C758.717,-256.273 786.523,-296.376 821,-318.5 827.001,-322.351 833.775,-325.429 840.68,-327.887"/>
<polygon fill="midnightblue" stroke="midnightblue" points="747.438,-231.044 739.333,-224.22 741.413,-234.608 747.438,-231.044"/>
</g>
<!-- Node109 -->
<g id="node19" class="node"><title>Node109</title>
<g id="a_node19"><a xlink:href="namespaceobe_1_1_script.html#aad6ef67388e6d16eb01853f208da410f" target="_top" xlink:title="obe::Script::loadBaseLib">
<polygon fill="none" stroke="black" points="830,-202 830,-221 953,-221 953,-202 830,-202"/>
<text text-anchor="middle" x="891.5" y="-209" font-family="Helvetica,sans-Serif" font-size="10.00">obe::Script::loadBaseLib</text>
</a>
</g>
</g>
<!-- Node102&#45;&gt;Node109 -->
<g id="edge23" class="edge"><title>Node102&#45;&gt;Node109</title>
<path fill="none" stroke="midnightblue" d="M793.712,-213.355C805.521,-213.129 817.927,-212.891 829.769,-212.664"/>
<polygon fill="midnightblue" stroke="midnightblue" points="793.449,-209.86 783.518,-213.551 793.583,-216.858 793.449,-209.86"/>
</g>
<!-- Node103&#45;&gt;Node97 -->
<g id="edge15" class="edge"><title>Node103&#45;&gt;Node97</title>
<path fill="none" stroke="midnightblue" d="M1107.33,-159.834C1142.8,-144.602 1199.24,-120.367 1230.26,-107.047"/>
<polygon fill="midnightblue" stroke="midnightblue" points="1105.73,-156.713 1097.92,-163.875 1108.49,-163.145 1105.73,-156.713"/>
</g>
<!-- Node103&#45;&gt;Node98 -->
<g id="edge16" class="edge"><title>Node103&#45;&gt;Node98</title>
<path fill="none" stroke="midnightblue" d="M1157.72,-174.545C1206.09,-172.939 1267.8,-166.984 1320,-149.5 1335.63,-144.266 1351.48,-133.836 1361.93,-126.096"/>
<polygon fill="midnightblue" stroke="midnightblue" points="1157.51,-171.05 1147.61,-174.825 1157.7,-178.047 1157.51,-171.05"/>
</g>
<!-- Node105&#45;&gt;Node104 -->
<g id="edge19" class="edge"><title>Node105&#45;&gt;Node104</title>
<path fill="none" stroke="midnightblue" d="M972.17,-282.936C989.201,-280.678 1006.75,-278.351 1022.36,-276.281"/>
<polygon fill="midnightblue" stroke="midnightblue" points="971.674,-279.471 962.22,-284.255 972.594,-286.41 971.674,-279.471"/>
</g>
<!-- Node107 -->
<g id="node17" class="node"><title>Node107</title>
<g id="a_node17"><a xlink:href="namespaceobe_1_1_script.html#a5dc8321da50fd4b5dc2935e4d8c93a4e" target="_top" xlink:title="obe::Script::loadScrGame\lObject">
<polygon fill="none" stroke="black" points="1010,-322.5 1010,-352.5 1139,-352.5 1139,-322.5 1010,-322.5"/>
<text text-anchor="start" x="1018" y="-340.5" font-family="Helvetica,sans-Serif" font-size="10.00">obe::Script::loadScrGame</text>
<text text-anchor="middle" x="1074.5" y="-329.5" font-family="Helvetica,sans-Serif" font-size="10.00">Object</text>
</a>
</g>
</g>
<!-- Node106&#45;&gt;Node107 -->
<g id="edge21" class="edge"><title>Node106&#45;&gt;Node107</title>
<path fill="none" stroke="midnightblue" d="M965.562,-337.5C980.198,-337.5 995.466,-337.5 1009.76,-337.5"/>
<polygon fill="midnightblue" stroke="midnightblue" points="965.551,-334 955.551,-337.5 965.551,-341 965.551,-334"/>
</g>
<!-- Node108 -->
<g id="node18" class="node"><title>Node108</title>
<g id="a_node18"><a xlink:href="classobe_1_1_script_1_1_game_object.html#aadeac0036d2fe21d523acfd4e9011a23" target="_top" xlink:title="obe::Script::GameObject\l::loadGameObject">
<polygon fill="none" stroke="black" points="1191,-322.5 1191,-352.5 1316,-352.5 1316,-322.5 1191,-322.5"/>
<text text-anchor="start" x="1199" y="-340.5" font-family="Helvetica,sans-Serif" font-size="10.00">obe::Script::GameObject</text>
<text text-anchor="middle" x="1253.5" y="-329.5" font-family="Helvetica,sans-Serif" font-size="10.00">::loadGameObject</text>
</a>
</g>
</g>
<!-- Node107&#45;&gt;Node108 -->
<g id="edge22" class="edge"><title>Node107&#45;&gt;Node108</title>
<path fill="none" stroke="midnightblue" d="M1149.73,-337.5C1163.39,-337.5 1177.52,-337.5 1190.76,-337.5"/>
<polygon fill="midnightblue" stroke="midnightblue" points="1149.4,-334 1139.4,-337.5 1149.4,-341 1149.4,-334"/>
</g>
<!-- Node109&#45;&gt;Node103 -->
<g id="edge24" class="edge"><title>Node109&#45;&gt;Node103</title>
<path fill="none" stroke="midnightblue" d="M948.138,-199.819C973.807,-194.43 1003.89,-188.114 1028.15,-183.02"/>
<polygon fill="midnightblue" stroke="midnightblue" points="947.241,-196.431 938.174,-201.911 948.68,-203.282 947.241,-196.431"/>
</g>
<!-- Node110&#45;&gt;Node101 -->
<g id="edge26" class="edge"><title>Node110&#45;&gt;Node101</title>
<path fill="none" stroke="midnightblue" d="M671.393,-177.074C658.601,-177.313 645.11,-177.309 632.346,-177.06"/>
<polygon fill="midnightblue" stroke="midnightblue" points="671.564,-180.571 681.476,-176.83 671.394,-173.573 671.564,-180.571"/>
</g>
<!-- Node112 -->
<g id="node22" class="node"><title>Node112</title>
<g id="a_node22"><a xlink:href="namespaceobe_1_1_bindings_1_1_system_bindings.html#a58371d483e59e8389a76ffe9d03ea71c" target="_top" xlink:title="obe::Bindings::SystemBindings\l::BindCursor">
<polygon fill="none" stroke="black" points="998,-0.5 998,-30.5 1151,-30.5 1151,-0.5 998,-0.5"/>
<text text-anchor="start" x="1006" y="-18.5" font-family="Helvetica,sans-Serif" font-size="10.00">obe::Bindings::SystemBindings</text>
<text text-anchor="middle" x="1074.5" y="-7.5" font-family="Helvetica,sans-Serif" font-size="10.00">::BindCursor</text>
</a>
</g>
</g>
<!-- Node111&#45;&gt;Node112 -->
<g id="edge28" class="edge"><title>Node111&#45;&gt;Node112</title>
<path fill="none" stroke="midnightblue" d="M955.481,-40.2775C970.417,-37.1417 986.459,-33.7737 1001.75,-30.5627"/>
<polygon fill="midnightblue" stroke="midnightblue" points="954.407,-36.9266 945.339,-42.4067 955.845,-43.7773 954.407,-36.9266"/>
</g>
<!-- Node113 -->
<g id="node23" class="node"><title>Node113</title>
<g id="a_node23"><a xlink:href="namespaceobe_1_1_modes.html#a5f4a1008892030350b06282b8dee1a89" target="_top" xlink:title="Start the game by loading the boot.lua file in one of the MountedPaths. ">
<polygon fill="none" stroke="black" points="1015,-50 1015,-69 1134,-69 1134,-50 1015,-50"/>
<text text-anchor="middle" x="1074.5" y="-57" font-family="Helvetica,sans-Serif" font-size="10.00">obe::Modes::startGame</text>
</a>
</g>
</g>
<!-- Node111&#45;&gt;Node113 -->
<g id="edge29" class="edge"><title>Node111&#45;&gt;Node113</title>
<path fill="none" stroke="midnightblue" d="M955.53,-55.5894C974.805,-56.2283 995.916,-56.9281 1014.88,-57.5569"/>
<polygon fill="midnightblue" stroke="midnightblue" points="955.45,-52.0849 945.339,-55.2516 955.218,-59.0811 955.45,-52.0849"/>
</g>
<!-- Node113&#45;&gt;Node97 -->
<g id="edge30" class="edge"><title>Node113&#45;&gt;Node97</title>
<path fill="none" stroke="midnightblue" d="M1130.24,-71.2526C1155.27,-76.6258 1184.53,-82.9086 1208.16,-87.9799"/>
<polygon fill="midnightblue" stroke="midnightblue" points="1130.68,-67.7661 1120.16,-69.089 1129.21,-74.6102 1130.68,-67.7661"/>
</g>
<!-- Node113&#45;&gt;Node98 -->
<g id="edge31" class="edge"><title>Node113&#45;&gt;Node98</title>
<path fill="none" stroke="midnightblue" d="M1144.21,-55.2662C1194.36,-54.4381 1263.22,-58.0699 1320,-78.5 1337.04,-84.6321 1353.62,-97.6698 1363.81,-106.753"/>
<polygon fill="midnightblue" stroke="midnightblue" points="1144.04,-51.7691 1134.12,-55.4968 1144.2,-58.7673 1144.04,-51.7691"/>
</g>
</g>
</svg>
        <g id="navigator" transform="translate(0 0)" fill="#404254">
                <rect fill="#f2f5e9" fill-opacity="0.5" stroke="#606060" stroke-width=".5" x="0" y="0" width="60" height="60"/>
                <use id="zoomplus" xlink:href="#zoomPlus" x="17" y="9" onmousedown="handleZoom(evt,'in')"/>
                <use id="zoomminus" xlink:href="#zoomMin" x="42" y="9" onmousedown="handleZoom(evt,'out')"/>
                <use id="reset" xlink:href="#resetDef" x="30" y="36" onmousedown="handleReset()"/>
                <g id="arrowUp" xlink:href="#dirArrow" transform="translate(30 24)" onmousedown="handlePan(0,-1)">
                  <use xlink:href="#rim" fill="#404040">
                        <set attributeName="fill" to="#808080" begin="arrowUp.mouseover" end="arrowUp.mouseout"/>
                  </use>
                  <path fill="none" stroke="white" stroke-width="1.5" d="M0,-3.0v7 M-2.5,-0.5L0,-3.0L2.5,-0.5"/>
                </g>
                <g id="arrowRight" xlink:href="#dirArrow" transform="rotate(90) translate(36 -43)" onmousedown="handlePan(1,0)">
                  <use xlink:href="#rim" fill="#404040">
                        <set attributeName="fill" to="#808080" begin="arrowRight.mouseover" end="arrowRight.mouseout"/>
                  </use>
                  <path fill="none" stroke="white" stroke-width="1.5" d="M0,-3.0v7 M-2.5,-0.5L0,-3.0L2.5,-0.5"/>
                </g>
                <g id="arrowDown" xlink:href="#dirArrow" transform="rotate(180) translate(-30 -48)" onmousedown="handlePan(0,1)">
                  <use xlink:href="#rim" fill="#404040">
                        <set attributeName="fill" to="#808080" begin="arrowDown.mouseover" end="arrowDown.mouseout"/>
                  </use>
                  <path fill="none" stroke="white" stroke-width="1.5" d="M0,-3.0v7 M-2.5,-0.5L0,-3.0L2.5,-0.5"/>
                </g>
                <g id="arrowLeft" xlink:href="#dirArrow" transform="rotate(270) translate(-36 17)" onmousedown="handlePan(-1,0)">
                  <use xlink:href="#rim" fill="#404040">
                        <set attributeName="fill" to="#808080" begin="arrowLeft.mouseover" end="arrowLeft.mouseout"/>
                  </use>
                  <path fill="none" stroke="white" stroke-width="1.5" d="M0,-3.0v7 M-2.5,-0.5L0,-3.0L2.5,-0.5"/>
                </g>
        </g>
        <svg viewBox="0 0 15 15" width="100%" height="30px" preserveAspectRatio="xMaxYMin meet">
         <g id="arrow_out" transform="scale(0.3 0.3)">
          <a xlink:href="classobe_1_1_triggers_1_1_trigger_a3ad25b0fc614ad94c16a424464083607_icgraph_org.svg" target="_base">
           <rect id="button" ry="5" rx="5" y="6" x="6" height="38" width="38"
                fill="#f2f5e9" fill-opacity="0.5" stroke="#606060" stroke-width="1.0"/>
           <path id="arrow"
             d="M 11.500037,31.436501 C 11.940474,20.09759 22.043105,11.32322 32.158766,21.979434 L 37.068811,17.246167 C 37.068811,17.246167 37.088388,32 37.088388,32 L 22.160133,31.978069 C 22.160133,31.978069 26.997745,27.140456 26.997745,27.140456 C 18.528582,18.264221 13.291696,25.230495 11.500037,31.436501 z"
             style="fill:#404040;"/>
          </a>
         </g>
        </svg>
</svg>
