<?xml version="1.0" encoding="UTF-8" standalone="no"?>
<!DOCTYPE svg PUBLIC "-//W3C//DTD SVG 1.1//EN"
 "http://www.w3.org/Graphics/SVG/1.1/DTD/svg11.dtd">
<!-- Generated by graphviz version 2.38.0 (20140413.2041)
 -->
<!-- Title: obe::Script::GameObjectDatabase::ApplyRequirements Pages: 1 -->
<!--zoomable 181 -->
<svg id="main" version="1.1" xmlns="http://www.w3.org/2000/svg" xmlns:xlink="http://www.w3.org/1999/xlink" xml:space="preserve" onload="init(evt)">
<style type="text/css"><![CDATA[
.edge:hover path { stroke: red; }
.edge:hover polygon { stroke: red; fill: red; }
.edge path { stroke: white; }
.edge polygon { stroke: white; fill: white; }
.node polygon { fill: white; }
]]></style>
<script type="text/javascript"><![CDATA[
var edges = document.getElementsByTagName('g');
if (edges && edges.length) {
  for (var i=0;i<edges.length;i++) {
    if (edges[i].id.substr(0,4)=='edge') {
      edges[i].setAttribute('class','edge');
    }
  }
}
]]></script>
        <defs>
                <circle id="rim" cx="0" cy="0" r="7"/>
                <circle id="rim2" cx="0" cy="0" r="3.5"/>
                <g id="zoomPlus">
                        <use xlink:href="#rim" fill="#404040">
                                <set attributeName="fill" to="#808080" begin="zoomplus.mouseover" end="zoomplus.mouseout"/>
                        </use>
                        <path d="M-4,0h8M0,-4v8" fill="none" stroke="white" stroke-width="1.5" pointer-events="none"/>
                </g>
                <g id="zoomMin">
                        <use xlink:href="#rim" fill="#404040">
                                <set attributeName="fill" to="#808080" begin="zoomminus.mouseover" end="zoomminus.mouseout"/>
                        </use>
                        <path d="M-4,0h8" fill="none" stroke="white" stroke-width="1.5" pointer-events="none"/>
                </g>
                <g id="dirArrow">
                        <path fill="none" stroke="white" stroke-width="1.5" d="M0,-3.0v7 M-2.5,-0.5L0,-3.0L2.5,-0.5"/>
                </g>
               <g id="resetDef">
                       <use xlink:href="#rim2" fill="#404040">
                               <set attributeName="fill" to="#808080" begin="reset.mouseover" end="reset.mouseout"/>
                       </use>
               </g>
        </defs>

<script type="text/javascript">
var viewWidth = 1273;
var viewHeight = 181;
var sectionId = 'dynsection-1';
</script>
<script xlink:href="svgpan.js"/>
<svg id="graph" class="graph">
<g id="viewport">
<title>obe::Script::GameObjectDatabase::ApplyRequirements</title>
<!-- Node31 -->
<g id="node1" class="node"><title>Node31</title>
<polygon fill="#bfbfbf" stroke="black" points="0,-60.1113 0,-90.1113 166,-90.1113 166,-60.1113 0,-60.1113"/>
<text text-anchor="start" x="8" y="-78.1113" font-family="Helvetica,sans-Serif" font-size="10.00">obe::Script::GameObjectDatabase</text>
<text text-anchor="middle" x="83" y="-67.1113" font-family="Helvetica,sans-Serif" font-size="10.00">::ApplyRequirements</text>
</g>
<!-- Node32 -->
<g id="node2" class="node"><title>Node32</title>
<g id="a_node2"><a xlink:href="namespaceobe_1_1_editor.html#af8c2ea92f8d718d85f019f9a27a91262" target="_top" xlink:title="Builds an Object through Parameters. ">
<polygon fill="none" stroke="black" points="202,-38.1113 202,-68.1113 321,-68.1113 321,-38.1113 202,-38.1113"/>
<text text-anchor="start" x="210" y="-56.1113" font-family="Helvetica,sans-Serif" font-size="10.00">obe::Editor::buildObject</text>
<text text-anchor="middle" x="261.5" y="-45.1113" font-family="Helvetica,sans-Serif" font-size="10.00">ThroughRequire</text>
</a>
</g>
</g>
<!-- Node31&#45;&gt;Node32 -->
<g id="edge1" class="edge"><title>Node31&#45;&gt;Node32</title>
<path fill="none" stroke="midnightblue" d="M176.244,-63.6134C184.926,-62.5313 193.556,-61.4556 201.797,-60.4284"/>
<polygon fill="midnightblue" stroke="midnightblue" points="175.54,-60.174 166.049,-64.8841 176.406,-67.1203 175.54,-60.174"/>
</g>
<!-- Node39 -->
<g id="node9" class="node"><title>Node39</title>
<g id="a_node9"><a xlink:href="classobe_1_1_scene_1_1_scene.html#a385bccf95deb10358169dffe5547e567" target="_top" xlink:title="Loads the Scene from a .map.vili file. ">
<polygon fill="none" stroke="black" points="535,-82.1113 535,-112.111 641,-112.111 641,-82.1113 535,-82.1113"/>
<text text-anchor="start" x="543" y="-100.111" font-family="Helvetica,sans-Serif" font-size="10.00">obe::Scene::Scene::</text>
<text text-anchor="middle" x="588" y="-89.1113" font-family="Helvetica,sans-Serif" font-size="10.00">loadFromFile</text>
</a>
</g>
</g>
<!-- Node31&#45;&gt;Node39 -->
<g id="edge9" class="edge"><title>Node31&#45;&gt;Node39</title>
<path fill="none" stroke="midnightblue" d="M176.522,-79.1579C281.836,-83.7642 450.188,-91.1274 534.827,-94.8294"/>
<polygon fill="midnightblue" stroke="midnightblue" points="176.359,-75.6476 166.216,-78.7072 176.053,-82.6409 176.359,-75.6476"/>
</g>
<!-- Node33 -->
<g id="node3" class="node"><title>Node33</title>
<g id="a_node3"><a xlink:href="namespaceobe_1_1_editor.html#a28799f83f6d2fc2c4fe20479e69fb720" target="_top" xlink:title="Builds the RequiresPanel that will transmit Init parameters to the GameObject. ">
<polygon fill="none" stroke="black" points="357,-38.1113 357,-68.1113 485,-68.1113 485,-38.1113 357,-38.1113"/>
<text text-anchor="start" x="365" y="-56.1113" font-family="Helvetica,sans-Serif" font-size="10.00">obe::Editor::buildRequires</text>
<text text-anchor="middle" x="421" y="-45.1113" font-family="Helvetica,sans-Serif" font-size="10.00">ObjectTab</text>
</a>
</g>
</g>
<!-- Node32&#45;&gt;Node33 -->
<g id="edge2" class="edge"><title>Node32&#45;&gt;Node33</title>
<path fill="none" stroke="midnightblue" d="M331.365,-53.1113C339.826,-53.1113 348.443,-53.1113 356.814,-53.1113"/>
<polygon fill="midnightblue" stroke="midnightblue" points="331.147,-49.6114 321.147,-53.1113 331.147,-56.6114 331.147,-49.6114"/>
</g>
<!-- Node34 -->
<g id="node4" class="node"><title>Node34</title>
<g id="a_node4"><a xlink:href="namespaceobe_1_1_editor.html#a97c53e73ef3b12081baff754032596e9" target="_top" xlink:title="Builds the Editor Object Tab. ">
<polygon fill="none" stroke="black" points="521,-21.6113 521,-40.6113 655,-40.6113 655,-21.6113 521,-21.6113"/>
<text text-anchor="middle" x="588" y="-28.6113" font-family="Helvetica,sans-Serif" font-size="10.00">obe::Editor::buildObjectTab</text>
</a>
</g>
</g>
<!-- Node33&#45;&gt;Node34 -->
<g id="edge3" class="edge"><title>Node33&#45;&gt;Node34</title>
<path fill="none" stroke="midnightblue" d="M495.242,-43.3456C503.764,-42.2094 512.42,-41.0553 520.839,-39.9327"/>
<polygon fill="midnightblue" stroke="midnightblue" points="494.771,-39.8774 485.321,-44.6684 495.696,-46.816 494.771,-39.8774"/>
</g>
<!-- Node35 -->
<g id="node5" class="node"><title>Node35</title>
<g id="a_node5"><a xlink:href="namespaceobe_1_1_editor_1_1_g_u_i.html#a1daea0dffefb4df9eb22870d7477bcf0" target="_top" xlink:title="obe::Editor::GUI::buildEditor\lObjectsMenu">
<polygon fill="none" stroke="black" points="691,-5.11127 691,-35.1113 829,-35.1113 829,-5.11127 691,-5.11127"/>
<text text-anchor="start" x="699" y="-23.1113" font-family="Helvetica,sans-Serif" font-size="10.00">obe::Editor::GUI::buildEditor</text>
<text text-anchor="middle" x="760" y="-12.1113" font-family="Helvetica,sans-Serif" font-size="10.00">ObjectsMenu</text>
</a>
</g>
</g>
<!-- Node34&#45;&gt;Node35 -->
<g id="edge4" class="edge"><title>Node34&#45;&gt;Node35</title>
<path fill="none" stroke="midnightblue" d="M665.421,-26.1664C673.854,-25.6207 682.401,-25.0677 690.725,-24.5291"/>
<polygon fill="midnightblue" stroke="midnightblue" points="664.966,-22.6884 655.213,-26.8269 665.418,-29.6738 664.966,-22.6884"/>
</g>
<!-- Node36 -->
<g id="node6" class="node"><title>Node36</title>
<g id="a_node6"><a xlink:href="namespaceobe_1_1_editor.html#a9009207671e71dccb68a31ea2362e9ef" target="_top" xlink:title="Starts the map edition. ">
<polygon fill="none" stroke="black" points="886.5,-13.6113 886.5,-32.6113 990.5,-32.6113 990.5,-13.6113 886.5,-13.6113"/>
<text text-anchor="middle" x="938.5" y="-20.6113" font-family="Helvetica,sans-Serif" font-size="10.00">obe::Editor::editMap</text>
</a>
</g>
</g>
<!-- Node35&#45;&gt;Node36 -->
<g id="edge5" class="edge"><title>Node35&#45;&gt;Node36</title>
<path fill="none" stroke="midnightblue" d="M839.594,-21.4471C855.476,-21.7171 871.78,-21.9942 886.416,-22.243"/>
<polygon fill="midnightblue" stroke="midnightblue" points="839.298,-17.9417 829.24,-21.2711 839.179,-24.9407 839.298,-17.9417"/>
</g>
<!-- Node37 -->
<g id="node7" class="node"><title>Node37</title>
<g id="a_node7"><a xlink:href="namespaceobe_1_1_modes.html#a6a8b08eee511d4895c4da96d4ba223a6" target="_top" xlink:title="Starts the development Menu where you can starts other menus from. ">
<polygon fill="none" stroke="black" points="1053,-22.6113 1053,-41.6113 1186,-41.6113 1186,-22.6113 1053,-22.6113"/>
<text text-anchor="middle" x="1119.5" y="-29.6113" font-family="Helvetica,sans-Serif" font-size="10.00">obe::Modes::startDevMenu</text>
</a>
</g>
</g>
<!-- Node36&#45;&gt;Node37 -->
<g id="edge6" class="edge"><title>Node36&#45;&gt;Node37</title>
<path fill="none" stroke="midnightblue" d="M1000.99,-26.203C1017.71,-27.0434 1035.87,-27.9567 1052.81,-28.8084"/>
<polygon fill="midnightblue" stroke="midnightblue" points="1000.96,-22.697 990.794,-25.6903 1000.61,-29.6881 1000.96,-22.697"/>
</g>
<!-- Node38 -->
<g id="node8" class="node"><title>Node38</title>
<g id="a_node8"><a xlink:href="_ob_engine_8cpp.html#a3c04138a5bfe5d72780bb7e82a18e627" target="_top" xlink:title="main">
<polygon fill="none" stroke="black" points="1227,-41.6113 1227,-60.6113 1265,-60.6113 1265,-41.6113 1227,-41.6113"/>
<text text-anchor="middle" x="1246" y="-48.6113" font-family="Helvetica,sans-Serif" font-size="10.00">main</text>
</a>
</g>
</g>
<!-- Node36&#45;&gt;Node38 -->
<g id="edge8" class="edge"><title>Node36&#45;&gt;Node38</title>
<path fill="none" stroke="midnightblue" d="M988.4,-11.5359C1040.05,-1.504 1123.24,8.34138 1191,-13.1113 1208.49,-18.6472 1225.21,-32.107 1235.29,-41.4233"/>
<polygon fill="midnightblue" stroke="midnightblue" points="987.613,-8.12418 978.504,-13.5355 988.999,-14.9855 987.613,-8.12418"/>
</g>
<!-- Node37&#45;&gt;Node38 -->
<g id="edge7" class="edge"><title>Node37&#45;&gt;Node38</title>
<path fill="none" stroke="midnightblue" d="M1193.19,-43.2041C1205.64,-45.1048 1217.52,-46.9181 1226.76,-48.3275"/>
<polygon fill="midnightblue" stroke="midnightblue" points="1193.53,-39.7157 1183.11,-41.6669 1192.47,-46.6356 1193.53,-39.7157"/>
</g>
<!-- Node39&#45;&gt;Node36 -->
<g id="edge10" class="edge"><title>Node39&#45;&gt;Node36</title>
<path fill="none" stroke="midnightblue" d="M651.108,-83.9233C720.543,-69.1796 831.282,-45.6653 892.731,-32.6175"/>
<polygon fill="midnightblue" stroke="midnightblue" points="650.229,-80.5319 641.174,-86.0327 651.683,-87.3792 650.229,-80.5319"/>
</g>
<!-- Node40 -->
<g id="node10" class="node"><title>Node40</title>
<g id="a_node10"><a xlink:href="classobe_1_1_scene_1_1_scene.html#a99bd0a38bd93c1ca105c34bb04776f47" target="_top" xlink:title="Updates all elements in the Scene. ">
<polygon fill="none" stroke="black" points="707,-93.1113 707,-123.111 813,-123.111 813,-93.1113 707,-93.1113"/>
<text text-anchor="start" x="715" y="-111.111" font-family="Helvetica,sans-Serif" font-size="10.00">obe::Scene::Scene::</text>
<text text-anchor="middle" x="760" y="-100.111" font-family="Helvetica,sans-Serif" font-size="10.00">update</text>
</a>
</g>
</g>
<!-- Node39&#45;&gt;Node40 -->
<g id="edge11" class="edge"><title>Node39&#45;&gt;Node40</title>
<path fill="none" stroke="midnightblue" d="M651.587,-101.161C669.731,-102.335 689.343,-103.604 706.78,-104.732"/>
<polygon fill="midnightblue" stroke="midnightblue" points="651.598,-97.6545 641.393,-100.501 651.146,-104.64 651.598,-97.6545"/>
</g>
<!-- Node44 -->
<g id="node14" class="node"><title>Node44</title>
<g id="a_node14"><a xlink:href="namespaceobe_1_1_scene.html#ac23b5fc14866394c89a820ce6badc130" target="_top" xlink:title="obe::Scene::loadWorldLib">
<polygon fill="none" stroke="black" points="696,-145.611 696,-164.611 824,-164.611 824,-145.611 696,-145.611"/>
<text text-anchor="middle" x="760" y="-152.611" font-family="Helvetica,sans-Serif" font-size="10.00">obe::Scene::loadWorldLib</text>
</a>
</g>
</g>
<!-- Node39&#45;&gt;Node44 -->
<g id="edge18" class="edge"><title>Node39&#45;&gt;Node44</title>
<path fill="none" stroke="midnightblue" d="M642.221,-115.423C657.925,-120.813 675.15,-126.711 691,-132.111 703.976,-136.532 718.356,-141.4 730.537,-145.515"/>
<polygon fill="midnightblue" stroke="midnightblue" points="643.26,-112.079 632.665,-112.141 640.986,-118.699 643.26,-112.079"/>
</g>
<!-- Node41 -->
<g id="node11" class="node"><title>Node41</title>
<g id="a_node11"><a xlink:href="namespaceobe_1_1_bindings_1_1_scene_bindings.html#af7c6cb8cc46286eba7ddbe55ffe7d296" target="_top" xlink:title="obe::Bindings::SceneBindings\l::LoadScene">
<polygon fill="none" stroke="black" points="865,-93.1113 865,-123.111 1012,-123.111 1012,-93.1113 865,-93.1113"/>
<text text-anchor="start" x="873" y="-111.111" font-family="Helvetica,sans-Serif" font-size="10.00">obe::Bindings::SceneBindings</text>
<text text-anchor="middle" x="938.5" y="-100.111" font-family="Helvetica,sans-Serif" font-size="10.00">::LoadScene</text>
</a>
</g>
</g>
<!-- Node40&#45;&gt;Node41 -->
<g id="edge12" class="edge"><title>Node40&#45;&gt;Node41</title>
<path fill="none" stroke="midnightblue" d="M823.138,-108.111C836.654,-108.111 851.068,-108.111 864.947,-108.111"/>
<polygon fill="midnightblue" stroke="midnightblue" points="823.001,-104.611 813.001,-108.111 823.001,-111.611 823.001,-104.611"/>
</g>
<!-- Node43 -->
<g id="node13" class="node"><title>Node43</title>
<g id="a_node13"><a xlink:href="namespaceobe_1_1_modes.html#a5f4a1008892030350b06282b8dee1a89" target="_top" xlink:title="Start the game by loading the boot.lua file in one of the MountedPaths. ">
<polygon fill="none" stroke="black" points="879,-54.6113 879,-73.6113 998,-73.6113 998,-54.6113 879,-54.6113"/>
<text text-anchor="middle" x="938.5" y="-61.6113" font-family="Helvetica,sans-Serif" font-size="10.00">obe::Modes::startGame</text>
</a>
</g>
</g>
<!-- Node40&#45;&gt;Node43 -->
<g id="edge15" class="edge"><title>Node40&#45;&gt;Node43</title>
<path fill="none" stroke="midnightblue" d="M822.939,-92.6703C848.378,-86.3287 877.026,-79.1869 899.311,-73.6315"/>
<polygon fill="midnightblue" stroke="midnightblue" points="821.858,-89.3328 813.001,-95.1478 823.551,-96.1249 821.858,-89.3328"/>
</g>
<!-- Node42 -->
<g id="node12" class="node"><title>Node42</title>
<g id="a_node12"><a xlink:href="namespaceobe_1_1_bindings.html#a41d33207a0199f125c75a0f70a4a3ba8" target="_top" xlink:title="To call when the engine starts, indexes all Lua bindings. ">
<polygon fill="none" stroke="black" points="1048,-98.6113 1048,-117.611 1191,-117.611 1191,-98.6113 1048,-98.6113"/>
<text text-anchor="middle" x="1119.5" y="-105.611" font-family="Helvetica,sans-Serif" font-size="10.00">obe::Bindings::IndexBindings</text>
</a>
</g>
</g>
<!-- Node41&#45;&gt;Node42 -->
<g id="edge13" class="edge"><title>Node41&#45;&gt;Node42</title>
<path fill="none" stroke="midnightblue" d="M1022.1,-108.111C1030.72,-108.111 1039.42,-108.111 1047.88,-108.111"/>
<polygon fill="midnightblue" stroke="midnightblue" points="1022.05,-104.611 1012.05,-108.111 1022.05,-111.611 1022.05,-104.611"/>
</g>
<!-- Node42&#45;&gt;Node38 -->
<g id="edge14" class="edge"><title>Node42&#45;&gt;Node38</title>
<path fill="none" stroke="midnightblue" d="M1162.96,-95.3481C1172.35,-92.0616 1182.14,-88.2656 1191,-84.1113 1205.33,-77.3962 1220.62,-67.7942 1231.26,-60.6777"/>
<polygon fill="midnightblue" stroke="midnightblue" points="1161.73,-92.0685 1153.38,-98.582 1163.97,-98.7011 1161.73,-92.0685"/>
</g>
<!-- Node43&#45;&gt;Node37 -->
<g id="edge16" class="edge"><title>Node43&#45;&gt;Node37</title>
<path fill="none" stroke="midnightblue" d="M1002.58,-52.8348C1023.03,-49.1786 1045.5,-45.1609 1065.17,-41.6443"/>
<polygon fill="midnightblue" stroke="midnightblue" points="1001.95,-49.3916 992.721,-54.5969 1003.18,-56.2823 1001.95,-49.3916"/>
</g>
<!-- Node43&#45;&gt;Node38 -->
<g id="edge17" class="edge"><title>Node43&#45;&gt;Node38</title>
<path fill="none" stroke="midnightblue" d="M1008.24,-61.1863C1079.13,-58.1694 1185.08,-53.6611 1227,-51.8773"/>
<polygon fill="midnightblue" stroke="midnightblue" points="1007.88,-57.698 998.042,-61.6201 1008.18,-64.6917 1007.88,-57.698"/>
</g>
<!-- Node45 -->
<g id="node15" class="node"><title>Node45</title>
<g id="a_node15"><a xlink:href="namespaceobe_1_1_scene.html#ae5cbcc3278d9115d603e5024dec9136e" target="_top" xlink:title="obe::Scene::loadWorldScript\lEngineBaseLib">
<polygon fill="none" stroke="black" points="868,-142.111 868,-172.111 1009,-172.111 1009,-142.111 868,-142.111"/>
<text text-anchor="start" x="876" y="-160.111" font-family="Helvetica,sans-Serif" font-size="10.00">obe::Scene::loadWorldScript</text>
<text text-anchor="middle" x="938.5" y="-149.111" font-family="Helvetica,sans-Serif" font-size="10.00">EngineBaseLib</text>
</a>
</g>
</g>
<!-- Node44&#45;&gt;Node45 -->
<g id="edge19" class="edge"><title>Node44&#45;&gt;Node45</title>
<path fill="none" stroke="midnightblue" d="M834.301,-155.942C845.398,-156.068 856.82,-156.197 867.837,-156.322"/>
<polygon fill="midnightblue" stroke="midnightblue" points="834.261,-152.441 824.222,-155.828 834.182,-159.441 834.261,-152.441"/>
</g>
<!-- Node46 -->
<g id="node16" class="node"><title>Node46</title>
<g id="a_node16"><a xlink:href="classobe_1_1_scene_1_1_scene.html#a6671ed54f3898e54a2814d58ec8ffec5" target="_top" xlink:title="Creates a new Scene. ">
<polygon fill="none" stroke="black" points="1066.5,-142.111 1066.5,-172.111 1172.5,-172.111 1172.5,-142.111 1066.5,-142.111"/>
<text text-anchor="start" x="1074.5" y="-160.111" font-family="Helvetica,sans-Serif" font-size="10.00">obe::Scene::Scene::</text>
<text text-anchor="middle" x="1119.5" y="-149.111" font-family="Helvetica,sans-Serif" font-size="10.00">Scene</text>
</a>
</g>
</g>
<!-- Node45&#45;&gt;Node46 -->
<g id="edge20" class="edge"><title>Node45&#45;&gt;Node46</title>
<path fill="none" stroke="midnightblue" d="M1019.58,-157.111C1035.48,-157.111 1051.78,-157.111 1066.44,-157.111"/>
<polygon fill="midnightblue" stroke="midnightblue" points="1019.22,-153.611 1009.22,-157.111 1019.22,-160.611 1019.22,-153.611"/>
</g>
</g>
</svg>
        <g id="navigator" transform="translate(0 0)" fill="#404254">
                <rect fill="#f2f5e9" fill-opacity="0.5" stroke="#606060" stroke-width=".5" x="0" y="0" width="60" height="60"/>
                <use id="zoomplus" xlink:href="#zoomPlus" x="17" y="9" onmousedown="handleZoom(evt,'in')"/>
                <use id="zoomminus" xlink:href="#zoomMin" x="42" y="9" onmousedown="handleZoom(evt,'out')"/>
                <use id="reset" xlink:href="#resetDef" x="30" y="36" onmousedown="handleReset()"/>
                <g id="arrowUp" xlink:href="#dirArrow" transform="translate(30 24)" onmousedown="handlePan(0,-1)">
                  <use xlink:href="#rim" fill="#404040">
                        <set attributeName="fill" to="#808080" begin="arrowUp.mouseover" end="arrowUp.mouseout"/>
                  </use>
                  <path fill="none" stroke="white" stroke-width="1.5" d="M0,-3.0v7 M-2.5,-0.5L0,-3.0L2.5,-0.5"/>
                </g>
                <g id="arrowRight" xlink:href="#dirArrow" transform="rotate(90) translate(36 -43)" onmousedown="handlePan(1,0)">
                  <use xlink:href="#rim" fill="#404040">
                        <set attributeName="fill" to="#808080" begin="arrowRight.mouseover" end="arrowRight.mouseout"/>
                  </use>
                  <path fill="none" stroke="white" stroke-width="1.5" d="M0,-3.0v7 M-2.5,-0.5L0,-3.0L2.5,-0.5"/>
                </g>
                <g id="arrowDown" xlink:href="#dirArrow" transform="rotate(180) translate(-30 -48)" onmousedown="handlePan(0,1)">
                  <use xlink:href="#rim" fill="#404040">
                        <set attributeName="fill" to="#808080" begin="arrowDown.mouseover" end="arrowDown.mouseout"/>
                  </use>
                  <path fill="none" stroke="white" stroke-width="1.5" d="M0,-3.0v7 M-2.5,-0.5L0,-3.0L2.5,-0.5"/>
                </g>
                <g id="arrowLeft" xlink:href="#dirArrow" transform="rotate(270) translate(-36 17)" onmousedown="handlePan(-1,0)">
                  <use xlink:href="#rim" fill="#404040">
                        <set attributeName="fill" to="#808080" begin="arrowLeft.mouseover" end="arrowLeft.mouseout"/>
                  </use>
                  <path fill="none" stroke="white" stroke-width="1.5" d="M0,-3.0v7 M-2.5,-0.5L0,-3.0L2.5,-0.5"/>
                </g>
        </g>
        <svg viewBox="0 0 15 15" width="100%" height="30px" preserveAspectRatio="xMaxYMin meet">
         <g id="arrow_out" transform="scale(0.3 0.3)">
          <a xlink:href="classobe_1_1_script_1_1_game_object_database_af02e95fef12a2aebd29cb9c4b64a89db_icgraph_org.svg" target="_base">
           <rect id="button" ry="5" rx="5" y="6" x="6" height="38" width="38"
                fill="#f2f5e9" fill-opacity="0.5" stroke="#606060" stroke-width="1.0"/>
           <path id="arrow"
             d="M 11.500037,31.436501 C 11.940474,20.09759 22.043105,11.32322 32.158766,21.979434 L 37.068811,17.246167 C 37.068811,17.246167 37.088388,32 37.088388,32 L 22.160133,31.978069 C 22.160133,31.978069 26.997745,27.140456 26.997745,27.140456 C 18.528582,18.264221 13.291696,25.230495 11.500037,31.436501 z"
             style="fill:#404040;"/>
          </a>
         </g>
        </svg>
</svg>
