<?xml version="1.0" encoding="UTF-8" standalone="no"?>
<!DOCTYPE svg PUBLIC "-//W3C//DTD SVG 1.1//EN"
 "http://www.w3.org/Graphics/SVG/1.1/DTD/svg11.dtd">
<!-- Generated by graphviz version 2.38.0 (20140413.2041)
 -->
<!-- Title: obe::Scene::World::getCamera Pages: 1 -->
<!--zoomable 188 -->
<svg id="main" version="1.1" xmlns="http://www.w3.org/2000/svg" xmlns:xlink="http://www.w3.org/1999/xlink" xml:space="preserve" onload="init(evt)">
<style type="text/css"><![CDATA[
.edge:hover path { stroke: red; }
.edge:hover polygon { stroke: red; fill: red; }
.edge path { stroke: white; }
.edge polygon { stroke: white; fill: white; }
.node polygon { fill: white; }
]]></style>
<script type="text/javascript"><![CDATA[
var edges = document.getElementsByTagName('g');
if (edges && edges.length) {
  for (var i=0;i<edges.length;i++) {
    if (edges[i].id.substr(0,4)=='edge') {
      edges[i].setAttribute('class','edge');
    }
  }
}
]]></script>
        <defs>
                <circle id="rim" cx="0" cy="0" r="7"/>
                <circle id="rim2" cx="0" cy="0" r="3.5"/>
                <g id="zoomPlus">
                        <use xlink:href="#rim" fill="#404040">
                                <set attributeName="fill" to="#808080" begin="zoomplus.mouseover" end="zoomplus.mouseout"/>
                        </use>
                        <path d="M-4,0h8M0,-4v8" fill="none" stroke="white" stroke-width="1.5" pointer-events="none"/>
                </g>
                <g id="zoomMin">
                        <use xlink:href="#rim" fill="#404040">
                                <set attributeName="fill" to="#808080" begin="zoomminus.mouseover" end="zoomminus.mouseout"/>
                        </use>
                        <path d="M-4,0h8" fill="none" stroke="white" stroke-width="1.5" pointer-events="none"/>
                </g>
                <g id="dirArrow">
                        <path fill="none" stroke="white" stroke-width="1.5" d="M0,-3.0v7 M-2.5,-0.5L0,-3.0L2.5,-0.5"/>
                </g>
               <g id="resetDef">
                       <use xlink:href="#rim2" fill="#404040">
                               <set attributeName="fill" to="#808080" begin="reset.mouseover" end="reset.mouseout"/>
                       </use>
               </g>
        </defs>

<script type="text/javascript">
var viewWidth = 1012;
var viewHeight = 188;
var sectionId = 'dynsection-26';
</script>
<script xlink:href="svgpan.js"/>
<svg id="graph" class="graph">
<g id="viewport">
<title>obe::Scene::World::getCamera</title>
<!-- Node670 -->
<g id="node1" class="node"><title>Node670</title>
<polygon fill="#bfbfbf" stroke="black" points="0,-129.5 0,-159.5 104,-159.5 104,-129.5 0,-129.5"/>
<text text-anchor="start" x="8" y="-147.5" font-family="Helvetica,sans-Serif" font-size="10.00">obe::Scene::World::</text>
<text text-anchor="middle" x="52" y="-136.5" font-family="Helvetica,sans-Serif" font-size="10.00">getCamera</text>
</g>
<!-- Node671 -->
<g id="node2" class="node"><title>Node671</title>
<g id="a_node2"><a xlink:href="namespaceobe_1_1_editor.html#a9009207671e71dccb68a31ea2362e9ef" target="_top" xlink:title="Starts the map edition. ">
<polygon fill="white" stroke="black" points="657,-138 657,-157 761,-157 761,-138 657,-138"/>
<text text-anchor="middle" x="709" y="-145" font-family="Helvetica,sans-Serif" font-size="10.00">obe::Editor::editMap</text>
</a>
</g>
</g>
<!-- Node670&#45;&gt;Node671 -->
<g id="edge1" class="edge"><title>Node670&#45;&gt;Node671</title>
<path fill="none" stroke="midnightblue" d="M106.231,-162.334C117.272,-165.313 128.919,-167.94 140,-169.5 206.859,-178.916 429.56,-187.984 621,-166.5 638.054,-164.586 656.675,-160.76 672.298,-157.039"/>
<polygon fill="midnightblue" stroke="midnightblue" points="106.871,-158.878 96.2952,-159.52 104.963,-165.613 106.871,-158.878"/>
</g>
<!-- Node674 -->
<g id="node5" class="node"><title>Node674</title>
<g id="a_node5"><a xlink:href="namespaceobe_1_1_editor.html#a98df387085b87692b2458ada49d8c8a3" target="_top" xlink:title="obe::Editor::addSpriteTo\lWorld">
<polygon fill="white" stroke="black" points="143,-129.5 143,-159.5 265,-159.5 265,-129.5 143,-129.5"/>
<text text-anchor="start" x="151" y="-147.5" font-family="Helvetica,sans-Serif" font-size="10.00">obe::Editor::addSpriteTo</text>
<text text-anchor="middle" x="204" y="-136.5" font-family="Helvetica,sans-Serif" font-size="10.00">World</text>
</a>
</g>
</g>
<!-- Node670&#45;&gt;Node674 -->
<g id="edge5" class="edge"><title>Node670&#45;&gt;Node674</title>
<path fill="none" stroke="midnightblue" d="M114.321,-144.5C123.783,-144.5 133.546,-144.5 142.979,-144.5"/>
<polygon fill="midnightblue" stroke="midnightblue" points="114.202,-141 104.202,-144.5 114.202,-148 114.202,-141"/>
</g>
<!-- Node676 -->
<g id="node7" class="node"><title>Node676</title>
<g id="a_node7"><a xlink:href="namespaceobe_1_1_scene.html#ac23b5fc14866394c89a820ce6badc130" target="_top" xlink:title="obe::Scene::loadWorldLib">
<polygon fill="white" stroke="black" points="140,-91 140,-110 268,-110 268,-91 140,-91"/>
<text text-anchor="middle" x="204" y="-98" font-family="Helvetica,sans-Serif" font-size="10.00">obe::Scene::loadWorldLib</text>
</a>
</g>
</g>
<!-- Node670&#45;&gt;Node676 -->
<g id="edge8" class="edge"><title>Node670&#45;&gt;Node676</title>
<path fill="none" stroke="midnightblue" d="M113.859,-126.648C133.184,-120.979 153.809,-114.929 170.347,-110.078"/>
<polygon fill="midnightblue" stroke="midnightblue" points="112.812,-123.307 104.202,-129.481 114.783,-130.024 112.812,-123.307"/>
</g>
<!-- Node672 -->
<g id="node3" class="node"><title>Node672</title>
<g id="a_node3"><a xlink:href="namespaceobe_1_1_modes.html#a6a8b08eee511d4895c4da96d4ba223a6" target="_top" xlink:title="Starts the development Menu where you can starts other menus from. ">
<polygon fill="white" stroke="black" points="797,-157 797,-176 930,-176 930,-157 797,-157"/>
<text text-anchor="middle" x="863.5" y="-164" font-family="Helvetica,sans-Serif" font-size="10.00">obe::Modes::startDevMenu</text>
</a>
</g>
</g>
<!-- Node671&#45;&gt;Node672 -->
<g id="edge2" class="edge"><title>Node671&#45;&gt;Node672</title>
<path fill="none" stroke="midnightblue" d="M771.292,-155.136C779.688,-156.182 788.336,-157.26 796.806,-158.315"/>
<polygon fill="midnightblue" stroke="midnightblue" points="771.561,-151.643 761.205,-153.88 770.695,-158.589 771.561,-151.643"/>
</g>
<!-- Node673 -->
<g id="node4" class="node"><title>Node673</title>
<g id="a_node4"><a xlink:href="_ob_engine_8cpp.html#a3c04138a5bfe5d72780bb7e82a18e627" target="_top" xlink:title="main">
<polygon fill="white" stroke="black" points="966,-138 966,-157 1004,-157 1004,-138 966,-138"/>
<text text-anchor="middle" x="985" y="-145" font-family="Helvetica,sans-Serif" font-size="10.00">main</text>
</a>
</g>
</g>
<!-- Node671&#45;&gt;Node673 -->
<g id="edge4" class="edge"><title>Node671&#45;&gt;Node673</title>
<path fill="none" stroke="midnightblue" d="M771.356,-147.5C833.863,-147.5 926.971,-147.5 965.885,-147.5"/>
<polygon fill="midnightblue" stroke="midnightblue" points="771.216,-144 761.216,-147.5 771.216,-151 771.216,-144"/>
</g>
<!-- Node672&#45;&gt;Node673 -->
<g id="edge3" class="edge"><title>Node672&#45;&gt;Node673</title>
<path fill="none" stroke="midnightblue" d="M934.822,-155.319C946.345,-153.487 957.327,-151.741 965.978,-150.365"/>
<polygon fill="midnightblue" stroke="midnightblue" points="933.926,-151.917 924.6,-156.944 935.026,-158.831 933.926,-151.917"/>
</g>
<!-- Node675 -->
<g id="node6" class="node"><title>Node675</title>
<g id="a_node6"><a xlink:href="namespaceobe_1_1_editor.html#a75bc94b8c9152749d28e9e3927522e4a" target="_top" xlink:title="obe::Editor::loadSpriteFolder">
<polygon fill="white" stroke="black" points="481,-138 481,-157 621,-157 621,-138 481,-138"/>
<text text-anchor="middle" x="551" y="-145" font-family="Helvetica,sans-Serif" font-size="10.00">obe::Editor::loadSpriteFolder</text>
</a>
</g>
</g>
<!-- Node674&#45;&gt;Node675 -->
<g id="edge6" class="edge"><title>Node674&#45;&gt;Node675</title>
<path fill="none" stroke="midnightblue" d="M275.24,-145.111C335.252,-145.633 421.105,-146.379 480.813,-146.898"/>
<polygon fill="midnightblue" stroke="midnightblue" points="275.125,-141.61 265.094,-145.023 275.064,-148.609 275.125,-141.61"/>
</g>
<!-- Node675&#45;&gt;Node671 -->
<g id="edge7" class="edge"><title>Node675&#45;&gt;Node671</title>
<path fill="none" stroke="midnightblue" d="M631.396,-147.5C639.982,-147.5 648.544,-147.5 656.668,-147.5"/>
<polygon fill="midnightblue" stroke="midnightblue" points="631.332,-144 621.332,-147.5 631.332,-151 631.332,-144"/>
</g>
<!-- Node677 -->
<g id="node8" class="node"><title>Node677</title>
<g id="a_node8"><a xlink:href="classobe_1_1_scene_1_1_world.html#a896573e186dc6efbe2e5def53533908f" target="_top" xlink:title="obe::Scene::World::\lcreateGameObject">
<polygon fill="white" stroke="black" points="322.5,-88.5 322.5,-118.5 426.5,-118.5 426.5,-88.5 322.5,-88.5"/>
<text text-anchor="start" x="330.5" y="-106.5" font-family="Helvetica,sans-Serif" font-size="10.00">obe::Scene::World::</text>
<text text-anchor="middle" x="374.5" y="-95.5" font-family="Helvetica,sans-Serif" font-size="10.00">createGameObject</text>
</a>
</g>
</g>
<!-- Node676&#45;&gt;Node677 -->
<g id="edge9" class="edge"><title>Node676&#45;&gt;Node677</title>
<path fill="none" stroke="midnightblue" d="M278.374,-95.1066C293.176,-95.2327 308.433,-95.6489 322.277,-96.3219"/>
<polygon fill="midnightblue" stroke="midnightblue" points="278.237,-91.6061 268.223,-95.0661 278.208,-98.6061 278.237,-91.6061"/>
</g>
<!-- Node679 -->
<g id="node10" class="node"><title>Node679</title>
<g id="a_node10"><a xlink:href="namespaceobe_1_1_scene.html#ae5cbcc3278d9115d603e5024dec9136e" target="_top" xlink:title="obe::Scene::loadWorldScript\lEngineBaseLib">
<polygon fill="white" stroke="black" points="304,-0.5 304,-30.5 445,-30.5 445,-0.5 304,-0.5"/>
<text text-anchor="start" x="312" y="-18.5" font-family="Helvetica,sans-Serif" font-size="10.00">obe::Scene::loadWorldScript</text>
<text text-anchor="middle" x="374.5" y="-7.5" font-family="Helvetica,sans-Serif" font-size="10.00">EngineBaseLib</text>
</a>
</g>
</g>
<!-- Node676&#45;&gt;Node679 -->
<g id="edge14" class="edge"><title>Node676&#45;&gt;Node679</title>
<path fill="none" stroke="midnightblue" d="M229.904,-85.7579C249.706,-74.258 278.262,-58.1653 304,-45.5 314.495,-40.3357 326.092,-35.1363 336.758,-30.5503"/>
<polygon fill="midnightblue" stroke="midnightblue" points="228.068,-82.7769 221.2,-90.8443 231.6,-88.8206 228.068,-82.7769"/>
</g>
<!-- Node677&#45;&gt;Node676 -->
<g id="edge13" class="edge"><title>Node677&#45;&gt;Node676</title>
<path fill="none" stroke="midnightblue" d="M312.074,-108.931C297.798,-108.965 282.575,-108.706 268.223,-108.185"/>
<polygon fill="midnightblue" stroke="midnightblue" points="312.304,-112.43 322.277,-108.854 312.251,-105.43 312.304,-112.43"/>
</g>
<!-- Node678 -->
<g id="node9" class="node"><title>Node678</title>
<g id="a_node9"><a xlink:href="classobe_1_1_scene_1_1_world.html#a362d242e7751481b0086ca9ed131920f" target="_top" xlink:title="obe::Scene::World::\lloadFromFile">
<polygon fill="white" stroke="black" points="499,-88.5 499,-118.5 603,-118.5 603,-88.5 499,-88.5"/>
<text text-anchor="start" x="507" y="-106.5" font-family="Helvetica,sans-Serif" font-size="10.00">obe::Scene::World::</text>
<text text-anchor="middle" x="551" y="-95.5" font-family="Helvetica,sans-Serif" font-size="10.00">loadFromFile</text>
</a>
</g>
</g>
<!-- Node677&#45;&gt;Node678 -->
<g id="edge10" class="edge"><title>Node677&#45;&gt;Node678</title>
<path fill="none" stroke="midnightblue" d="M436.986,-103.5C457.252,-103.5 479.555,-103.5 498.956,-103.5"/>
<polygon fill="midnightblue" stroke="midnightblue" points="436.912,-100 426.912,-103.5 436.912,-107 436.912,-100"/>
</g>
<!-- Node678&#45;&gt;Node671 -->
<g id="edge11" class="edge"><title>Node678&#45;&gt;Node671</title>
<path fill="none" stroke="midnightblue" d="M612.809,-120.651C633.609,-126.518 656.126,-132.869 674.036,-137.92"/>
<polygon fill="midnightblue" stroke="midnightblue" points="613.655,-117.253 603.08,-117.907 611.755,-123.99 613.655,-117.253"/>
</g>
<!-- Node678&#45;&gt;Node676 -->
<g id="edge12" class="edge"><title>Node678&#45;&gt;Node676</title>
<path fill="none" stroke="midnightblue" d="M489.132,-86.4682C474.774,-83.1599 459.441,-80.1955 445,-78.5 382.761,-71.1927 366.292,-71.662 304,-78.5 282.123,-80.9015 258.007,-86.203 239.054,-90.9999"/>
<polygon fill="midnightblue" stroke="midnightblue" points="488.353,-89.8807 498.893,-88.8022 489.981,-83.0726 488.353,-89.8807"/>
</g>
<!-- Node680 -->
<g id="node11" class="node"><title>Node680</title>
<g id="a_node11"><a xlink:href="classobe_1_1_scene_1_1_world.html#a32964e659e18cb32094d9f8ceea30aa3" target="_top" xlink:title="obe::Scene::World::\lWorld">
<polygon fill="white" stroke="black" points="499,-0.5 499,-30.5 603,-30.5 603,-0.5 499,-0.5"/>
<text text-anchor="start" x="507" y="-18.5" font-family="Helvetica,sans-Serif" font-size="10.00">obe::Scene::World::</text>
<text text-anchor="middle" x="551" y="-7.5" font-family="Helvetica,sans-Serif" font-size="10.00">World</text>
</a>
</g>
</g>
<!-- Node679&#45;&gt;Node680 -->
<g id="edge15" class="edge"><title>Node679&#45;&gt;Node680</title>
<path fill="none" stroke="midnightblue" d="M455.399,-15.5C470.2,-15.5 485.285,-15.5 498.934,-15.5"/>
<polygon fill="midnightblue" stroke="midnightblue" points="455.219,-12.0001 445.219,-15.5 455.219,-19.0001 455.219,-12.0001"/>
</g>
</g>
</svg>
        <g id="navigator" transform="translate(0 0)" fill="#404254">
                <rect fill="#f2f5e9" fill-opacity="0.5" stroke="#606060" stroke-width=".5" x="0" y="0" width="60" height="60"/>
                <use id="zoomplus" xlink:href="#zoomPlus" x="17" y="9" onmousedown="handleZoom(evt,'in')"/>
                <use id="zoomminus" xlink:href="#zoomMin" x="42" y="9" onmousedown="handleZoom(evt,'out')"/>
                <use id="reset" xlink:href="#resetDef" x="30" y="36" onmousedown="handleReset()"/>
                <g id="arrowUp" xlink:href="#dirArrow" transform="translate(30 24)" onmousedown="handlePan(0,-1)">
                  <use xlink:href="#rim" fill="#404040">
                        <set attributeName="fill" to="#808080" begin="arrowUp.mouseover" end="arrowUp.mouseout"/>
                  </use>
                  <path fill="none" stroke="white" stroke-width="1.5" d="M0,-3.0v7 M-2.5,-0.5L0,-3.0L2.5,-0.5"/>
                </g>
                <g id="arrowRight" xlink:href="#dirArrow" transform="rotate(90) translate(36 -43)" onmousedown="handlePan(1,0)">
                  <use xlink:href="#rim" fill="#404040">
                        <set attributeName="fill" to="#808080" begin="arrowRight.mouseover" end="arrowRight.mouseout"/>
                  </use>
                  <path fill="none" stroke="white" stroke-width="1.5" d="M0,-3.0v7 M-2.5,-0.5L0,-3.0L2.5,-0.5"/>
                </g>
                <g id="arrowDown" xlink:href="#dirArrow" transform="rotate(180) translate(-30 -48)" onmousedown="handlePan(0,1)">
                  <use xlink:href="#rim" fill="#404040">
                        <set attributeName="fill" to="#808080" begin="arrowDown.mouseover" end="arrowDown.mouseout"/>
                  </use>
                  <path fill="none" stroke="white" stroke-width="1.5" d="M0,-3.0v7 M-2.5,-0.5L0,-3.0L2.5,-0.5"/>
                </g>
                <g id="arrowLeft" xlink:href="#dirArrow" transform="rotate(270) translate(-36 17)" onmousedown="handlePan(-1,0)">
                  <use xlink:href="#rim" fill="#404040">
                        <set attributeName="fill" to="#808080" begin="arrowLeft.mouseover" end="arrowLeft.mouseout"/>
                  </use>
                  <path fill="none" stroke="white" stroke-width="1.5" d="M0,-3.0v7 M-2.5,-0.5L0,-3.0L2.5,-0.5"/>
                </g>
        </g>
        <svg viewBox="0 0 15 15" width="100%" height="30px" preserveAspectRatio="xMaxYMin meet">
         <g id="arrow_out" transform="scale(0.3 0.3)">
          <a xlink:href="classobe_1_1_scene_1_1_world_a7f55d1a827111d53518be9cc7e7eb014_icgraph_org.svg" target="_base">
           <rect id="button" ry="5" rx="5" y="6" x="6" height="38" width="38"
                fill="#f2f5e9" fill-opacity="0.5" stroke="#606060" stroke-width="1.0"/>
           <path id="arrow"
             d="M 11.500037,31.436501 C 11.940474,20.09759 22.043105,11.32322 32.158766,21.979434 L 37.068811,17.246167 C 37.068811,17.246167 37.088388,32 37.088388,32 L 22.160133,31.978069 C 22.160133,31.978069 26.997745,27.140456 26.997745,27.140456 C 18.528582,18.264221 13.291696,25.230495 11.500037,31.436501 z"
             style="fill:#404040;"/>
          </a>
         </g>
        </svg>
</svg>
