<?xml version="1.0" encoding="UTF-8" standalone="no"?>
<!DOCTYPE svg PUBLIC "-//W3C//DTD SVG 1.1//EN"
 "http://www.w3.org/Graphics/SVG/1.1/DTD/svg11.dtd">
<!-- Generated by graphviz version 2.38.0 (20140413.2041)
 -->
<!-- Title: obe::Sound::SoundWrapper::load Pages: 1 -->
<svg width="1216pt" height="195pt"
 viewBox="0.00 0.00 1216.00 194.50" xmlns="http://www.w3.org/2000/svg" xmlns:xlink="http://www.w3.org/1999/xlink">
<g id="graph0" class="graph" transform="scale(1 1) rotate(0) translate(4 190.5)">
<title>obe::Sound::SoundWrapper::load</title>
<!-- Node266 -->
<g id="node1" class="node"><title>Node266</title>
<polygon fill="#bfbfbf" stroke="black" points="0,-49.5 0,-79.5 137,-79.5 137,-49.5 0,-49.5"/>
<text text-anchor="start" x="8" y="-67.5" font-family="Helvetica,sans-Serif" font-size="10.00">obe::Sound::SoundWrapper</text>
<text text-anchor="middle" x="68.5" y="-56.5" font-family="Helvetica,sans-Serif" font-size="10.00">::load</text>
</g>
<!-- Node267 -->
<g id="node2" class="node"><title>Node267</title>
<g id="a_node2"><a xlink:href="namespaceobe_1_1_script_1_1_core_lib.html#a90640a9a9da1a14786a445076cf66f5b" target="_top" xlink:title="obe::Script::CoreLib\l::loadSound">
<polygon fill="white" stroke="black" points="190,-49.5 190,-79.5 293,-79.5 293,-49.5 190,-49.5"/>
<text text-anchor="start" x="198" y="-67.5" font-family="Helvetica,sans-Serif" font-size="10.00">obe::Script::CoreLib</text>
<text text-anchor="middle" x="241.5" y="-56.5" font-family="Helvetica,sans-Serif" font-size="10.00">::loadSound</text>
</a>
</g>
</g>
<!-- Node266&#45;&gt;Node267 -->
<g id="edge1" class="edge"><title>Node266&#45;&gt;Node267</title>
<path fill="none" stroke="midnightblue" d="M147.465,-57.7734C161.822,-57.6841 176.466,-57.8505 189.758,-58.2724"/>
<polygon fill="midnightblue" stroke="midnightblue" points="147.046,-54.2775 137.084,-57.8835 147.12,-61.2771 147.046,-54.2775"/>
</g>
<!-- Node280 -->
<g id="node15" class="node"><title>Node280</title>
<g id="a_node15"><a xlink:href="classobe_1_1_sound_1_1_sound_wrapper.html#a5d94e1507ea9d060777bbabc17bda08e" target="_top" xlink:title="obe::Sound::SoundWrapper\l::SoundWrapper">
<polygon fill="white" stroke="black" points="173,-0.5 173,-30.5 310,-30.5 310,-0.5 173,-0.5"/>
<text text-anchor="start" x="181" y="-18.5" font-family="Helvetica,sans-Serif" font-size="10.00">obe::Sound::SoundWrapper</text>
<text text-anchor="middle" x="241.5" y="-7.5" font-family="Helvetica,sans-Serif" font-size="10.00">::SoundWrapper</text>
</a>
</g>
</g>
<!-- Node266&#45;&gt;Node280 -->
<g id="edge19" class="edge"><title>Node266&#45;&gt;Node280</title>
<path fill="none" stroke="midnightblue" d="M131.947,-46.6059C150.339,-41.3356 170.27,-35.6245 187.973,-30.5516"/>
<polygon fill="midnightblue" stroke="midnightblue" points="130.85,-43.2793 122.201,-49.3986 132.778,-50.0084 130.85,-43.2793"/>
</g>
<!-- Node267&#45;&gt;Node266 -->
<g id="edge18" class="edge"><title>Node267&#45;&gt;Node266</title>
<path fill="none" stroke="midnightblue" d="M179.46,-70.9982C165.725,-71.2883 151.069,-71.3277 137.084,-71.1165"/>
<polygon fill="midnightblue" stroke="midnightblue" points="179.854,-74.4892 189.758,-70.7276 179.67,-67.4916 179.854,-74.4892"/>
</g>
<!-- Node268 -->
<g id="node3" class="node"><title>Node268</title>
<g id="a_node3"><a xlink:href="namespaceobe_1_1_script.html#abdb81ec0976f1097cef6711415b8fac3" target="_top" xlink:title="obe::Script::loadCoreLib">
<polygon fill="white" stroke="black" points="346,-55 346,-74 467,-74 467,-55 346,-55"/>
<text text-anchor="middle" x="406.5" y="-62" font-family="Helvetica,sans-Serif" font-size="10.00">obe::Script::loadCoreLib</text>
</a>
</g>
</g>
<!-- Node267&#45;&gt;Node268 -->
<g id="edge2" class="edge"><title>Node267&#45;&gt;Node268</title>
<path fill="none" stroke="midnightblue" d="M303.189,-64.5C317.183,-64.5 332.053,-64.5 345.996,-64.5"/>
<polygon fill="midnightblue" stroke="midnightblue" points="303.181,-61.0001 293.181,-64.5 303.181,-68.0001 303.181,-61.0001"/>
</g>
<!-- Node269 -->
<g id="node4" class="node"><title>Node269</title>
<g id="a_node4"><a xlink:href="namespaceobe_1_1_script.html#a4e6ee77032cf7f66544f9b08464a60b7" target="_top" xlink:title="obe::Script::loadLib">
<polygon fill="white" stroke="black" points="504,-99 504,-118 605,-118 605,-99 504,-99"/>
<text text-anchor="middle" x="554.5" y="-106" font-family="Helvetica,sans-Serif" font-size="10.00">obe::Script::loadLib</text>
</a>
</g>
</g>
<!-- Node268&#45;&gt;Node269 -->
<g id="edge3" class="edge"><title>Node268&#45;&gt;Node269</title>
<path fill="none" stroke="midnightblue" d="M448.761,-76.9347C471.959,-83.926 500.468,-92.5177 521.882,-98.9713"/>
<polygon fill="midnightblue" stroke="midnightblue" points="449.764,-73.5818 439.18,-74.0473 447.745,-80.2841 449.764,-73.5818"/>
</g>
<!-- Node279 -->
<g id="node14" class="node"><title>Node279</title>
<g id="a_node14"><a xlink:href="namespaceobe_1_1_script_1_1_core_lib.html#a07d6c11bbb082bc45bdba50d97965c00" target="_top" xlink:title="obe::Script::CoreLib\l::loadCollision">
<polygon fill="white" stroke="black" points="503,-49.5 503,-79.5 606,-79.5 606,-49.5 503,-49.5"/>
<text text-anchor="start" x="511" y="-67.5" font-family="Helvetica,sans-Serif" font-size="10.00">obe::Script::CoreLib</text>
<text text-anchor="middle" x="554.5" y="-56.5" font-family="Helvetica,sans-Serif" font-size="10.00">::loadCollision</text>
</a>
</g>
</g>
<!-- Node268&#45;&gt;Node279 -->
<g id="edge16" class="edge"><title>Node268&#45;&gt;Node279</title>
<path fill="none" stroke="midnightblue" d="M477.356,-57.7556C485.966,-57.7251 494.634,-57.8199 502.88,-58.0402"/>
<polygon fill="midnightblue" stroke="midnightblue" points="477.272,-54.2561 467.305,-57.849 477.337,-61.2558 477.272,-54.2561"/>
</g>
<!-- Node270 -->
<g id="node5" class="node"><title>Node270</title>
<g id="a_node5"><a xlink:href="namespaceobe_1_1_modes.html#a1e38c0d9a2ca0230f0de79c298f53ab9" target="_top" xlink:title="A mode that will start the Toolkit. ">
<polygon fill="white" stroke="black" points="819,-148 819,-167 965,-167 965,-148 819,-148"/>
<text text-anchor="middle" x="892" y="-155" font-family="Helvetica,sans-Serif" font-size="10.00">obe::Modes::startToolkitMode</text>
</a>
</g>
</g>
<!-- Node269&#45;&gt;Node270 -->
<g id="edge4" class="edge"><title>Node269&#45;&gt;Node270</title>
<path fill="none" stroke="midnightblue" d="M573.349,-124.842C589.799,-138.711 615.594,-157.582 642,-165.5 711.808,-186.432 797.595,-176.343 848.083,-167.001"/>
<polygon fill="midnightblue" stroke="midnightblue" points="575.485,-122.06 565.646,-118.13 570.886,-127.338 575.485,-122.06"/>
</g>
<!-- Node273 -->
<g id="node8" class="node"><title>Node273</title>
<g id="a_node8"><a xlink:href="classobe_1_1_scene_1_1_world.html#a32964e659e18cb32094d9f8ceea30aa3" target="_top" xlink:title="obe::Scene::World::\lWorld">
<polygon fill="white" stroke="black" points="840,-82.5 840,-112.5 944,-112.5 944,-82.5 840,-82.5"/>
<text text-anchor="start" x="848" y="-100.5" font-family="Helvetica,sans-Serif" font-size="10.00">obe::Scene::World::</text>
<text text-anchor="middle" x="892" y="-89.5" font-family="Helvetica,sans-Serif" font-size="10.00">World</text>
</a>
</g>
</g>
<!-- Node269&#45;&gt;Node273 -->
<g id="edge8" class="edge"><title>Node269&#45;&gt;Node273</title>
<path fill="none" stroke="midnightblue" d="M615.331,-106.538C679.27,-104.442 779.555,-101.154 839.916,-99.1749"/>
<polygon fill="midnightblue" stroke="midnightblue" points="614.884,-103.051 605.004,-106.877 615.114,-110.047 614.884,-103.051"/>
</g>
<!-- Node274 -->
<g id="node9" class="node"><title>Node274</title>
<g id="a_node9"><a xlink:href="namespaceobe_1_1_scene.html#ae5cbcc3278d9115d603e5024dec9136e" target="_top" xlink:title="obe::Scene::loadWorldScript\lEngineBaseLib">
<polygon fill="white" stroke="black" points="642,-49.5 642,-79.5 783,-79.5 783,-49.5 642,-49.5"/>
<text text-anchor="start" x="650" y="-67.5" font-family="Helvetica,sans-Serif" font-size="10.00">obe::Scene::loadWorldScript</text>
<text text-anchor="middle" x="712.5" y="-56.5" font-family="Helvetica,sans-Serif" font-size="10.00">EngineBaseLib</text>
</a>
</g>
</g>
<!-- Node269&#45;&gt;Node274 -->
<g id="edge9" class="edge"><title>Node269&#45;&gt;Node274</title>
<path fill="none" stroke="midnightblue" d="M599.151,-96.1882C617.437,-91.0306 638.871,-84.9852 658.086,-79.5654"/>
<polygon fill="midnightblue" stroke="midnightblue" points="598.024,-92.8694 589.35,-98.9527 599.924,-99.6066 598.024,-92.8694"/>
</g>
<!-- Node275 -->
<g id="node10" class="node"><title>Node275</title>
<g id="a_node10"><a xlink:href="namespaceobe_1_1_script.html#a5e992c0efb0543e7c934bc1065f08b01" target="_top" xlink:title="obe::Script::loadLibBridge">
<polygon fill="white" stroke="black" points="648.5,-11 648.5,-30 776.5,-30 776.5,-11 648.5,-11"/>
<text text-anchor="middle" x="712.5" y="-18" font-family="Helvetica,sans-Serif" font-size="10.00">obe::Script::loadLibBridge</text>
</a>
</g>
</g>
<!-- Node269&#45;&gt;Node275 -->
<g id="edge11" class="edge"><title>Node269&#45;&gt;Node275</title>
<path fill="none" stroke="midnightblue" d="M596.912,-94.4024C600.114,-92.6311 603.19,-90.6682 606,-88.5 627.396,-71.9928 619.727,-54.8035 642,-39.5 647.67,-35.604 654.112,-32.505 660.732,-30.0404"/>
<polygon fill="midnightblue" stroke="midnightblue" points="595.13,-91.3769 587.668,-98.8975 598.191,-97.6721 595.13,-91.3769"/>
</g>
<!-- Node278 -->
<g id="node13" class="node"><title>Node278</title>
<g id="a_node13"><a xlink:href="namespaceobe_1_1_script.html#aad6ef67388e6d16eb01853f208da410f" target="_top" xlink:title="obe::Script::loadBaseLib">
<polygon fill="white" stroke="black" points="651,-137 651,-156 774,-156 774,-137 651,-137"/>
<text text-anchor="middle" x="712.5" y="-144" font-family="Helvetica,sans-Serif" font-size="10.00">obe::Script::loadBaseLib</text>
</a>
</g>
</g>
<!-- Node269&#45;&gt;Node278 -->
<g id="edge14" class="edge"><title>Node269&#45;&gt;Node278</title>
<path fill="none" stroke="midnightblue" d="M604.632,-120.468C626.493,-125.793 651.876,-131.976 672.418,-136.98"/>
<polygon fill="midnightblue" stroke="midnightblue" points="605.41,-117.055 594.865,-118.089 603.753,-123.856 605.41,-117.055"/>
</g>
<!-- Node271 -->
<g id="node6" class="node"><title>Node271</title>
<g id="a_node6"><a xlink:href="namespaceobe_1_1_modes.html#a6a8b08eee511d4895c4da96d4ba223a6" target="_top" xlink:title="obe::Modes::startDevMenu">
<polygon fill="white" stroke="black" points="1001,-167 1001,-186 1134,-186 1134,-167 1001,-167"/>
<text text-anchor="middle" x="1067.5" y="-174" font-family="Helvetica,sans-Serif" font-size="10.00">obe::Modes::startDevMenu</text>
</a>
</g>
</g>
<!-- Node270&#45;&gt;Node271 -->
<g id="edge5" class="edge"><title>Node270&#45;&gt;Node271</title>
<path fill="none" stroke="midnightblue" d="M975.118,-166.493C983.716,-167.434 992.375,-168.383 1000.76,-169.3"/>
<polygon fill="midnightblue" stroke="midnightblue" points="975.394,-163.002 965.072,-165.393 974.632,-169.961 975.394,-163.002"/>
</g>
<!-- Node272 -->
<g id="node7" class="node"><title>Node272</title>
<g id="a_node7"><a xlink:href="_ob_engine_8cpp.html#a3c04138a5bfe5d72780bb7e82a18e627" target="_top" xlink:title="main">
<polygon fill="white" stroke="black" points="1170,-148 1170,-167 1208,-167 1208,-148 1170,-148"/>
<text text-anchor="middle" x="1189" y="-155" font-family="Helvetica,sans-Serif" font-size="10.00">main</text>
</a>
</g>
</g>
<!-- Node270&#45;&gt;Node272 -->
<g id="edge7" class="edge"><title>Node270&#45;&gt;Node272</title>
<path fill="none" stroke="midnightblue" d="M975.308,-157.5C1042.39,-157.5 1131.99,-157.5 1169.87,-157.5"/>
<polygon fill="midnightblue" stroke="midnightblue" points="975.165,-154 965.165,-157.5 975.165,-161 975.165,-154"/>
</g>
<!-- Node271&#45;&gt;Node272 -->
<g id="edge6" class="edge"><title>Node271&#45;&gt;Node272</title>
<path fill="none" stroke="midnightblue" d="M1138.82,-165.319C1150.35,-163.487 1161.33,-161.741 1169.98,-160.365"/>
<polygon fill="midnightblue" stroke="midnightblue" points="1137.93,-161.917 1128.6,-166.944 1139.03,-168.831 1137.93,-161.917"/>
</g>
<!-- Node274&#45;&gt;Node273 -->
<g id="edge10" class="edge"><title>Node274&#45;&gt;Node273</title>
<path fill="none" stroke="midnightblue" d="M792.998,-79.2799C808.939,-82.2436 825.283,-85.2821 839.941,-88.0074"/>
<polygon fill="midnightblue" stroke="midnightblue" points="793.615,-75.8346 783.143,-77.4478 792.335,-82.7167 793.615,-75.8346"/>
</g>
<!-- Node276 -->
<g id="node11" class="node"><title>Node276</title>
<g id="a_node11"><a xlink:href="namespaceobe_1_1_script.html#a5dc8321da50fd4b5dc2935e4d8c93a4e" target="_top" xlink:title="obe::Script::loadScrGame\lObject">
<polygon fill="white" stroke="black" points="827.5,-5.5 827.5,-35.5 956.5,-35.5 956.5,-5.5 827.5,-5.5"/>
<text text-anchor="start" x="835.5" y="-23.5" font-family="Helvetica,sans-Serif" font-size="10.00">obe::Script::loadScrGame</text>
<text text-anchor="middle" x="892" y="-12.5" font-family="Helvetica,sans-Serif" font-size="10.00">Object</text>
</a>
</g>
</g>
<!-- Node275&#45;&gt;Node276 -->
<g id="edge12" class="edge"><title>Node275&#45;&gt;Node276</title>
<path fill="none" stroke="midnightblue" d="M786.737,-20.5C800.171,-20.5 814.096,-20.5 827.226,-20.5"/>
<polygon fill="midnightblue" stroke="midnightblue" points="786.58,-17.0001 776.58,-20.5 786.58,-24.0001 786.58,-17.0001"/>
</g>
<!-- Node277 -->
<g id="node12" class="node"><title>Node277</title>
<g id="a_node12"><a xlink:href="classobe_1_1_script_1_1_game_object.html#aadeac0036d2fe21d523acfd4e9011a23" target="_top" xlink:title="obe::Script::GameObject\l::loadGameObject">
<polygon fill="white" stroke="black" points="1005,-5.5 1005,-35.5 1130,-35.5 1130,-5.5 1005,-5.5"/>
<text text-anchor="start" x="1013" y="-23.5" font-family="Helvetica,sans-Serif" font-size="10.00">obe::Script::GameObject</text>
<text text-anchor="middle" x="1067.5" y="-12.5" font-family="Helvetica,sans-Serif" font-size="10.00">::loadGameObject</text>
</a>
</g>
</g>
<!-- Node276&#45;&gt;Node277 -->
<g id="edge13" class="edge"><title>Node276&#45;&gt;Node277</title>
<path fill="none" stroke="midnightblue" d="M966.721,-20.5C979.445,-20.5 992.552,-20.5 1004.91,-20.5"/>
<polygon fill="midnightblue" stroke="midnightblue" points="966.62,-17.0001 956.62,-20.5 966.62,-24.0001 966.62,-17.0001"/>
</g>
<!-- Node278&#45;&gt;Node270 -->
<g id="edge15" class="edge"><title>Node278&#45;&gt;Node270</title>
<path fill="none" stroke="midnightblue" d="M784.346,-150.89C795.662,-151.592 807.384,-152.318 818.733,-153.021"/>
<polygon fill="midnightblue" stroke="midnightblue" points="784.286,-147.38 774.089,-150.255 783.853,-154.367 784.286,-147.38"/>
</g>
<!-- Node279&#45;&gt;Node268 -->
<g id="edge17" class="edge"><title>Node279&#45;&gt;Node268</title>
<path fill="none" stroke="midnightblue" d="M492.757,-71.1647C484.342,-71.2828 475.703,-71.2783 467.305,-71.151"/>
<polygon fill="midnightblue" stroke="midnightblue" points="492.953,-74.6616 502.88,-70.9598 492.811,-67.663 492.953,-74.6616"/>
</g>
</g>
</svg>
