<?xml version="1.0" encoding="UTF-8" standalone="no"?>
<!DOCTYPE svg PUBLIC "-//W3C//DTD SVG 1.1//EN"
 "http://www.w3.org/Graphics/SVG/1.1/DTD/svg11.dtd">
<!-- Generated by graphviz version 2.38.0 (20140413.2041)
 -->
<!-- Title: obe::Animation::Animator::loadAnimator Pages: 1 -->
<svg width="1315pt" height="198pt"
 viewBox="0.00 0.00 1315.00 197.50" xmlns="http://www.w3.org/2000/svg" xmlns:xlink="http://www.w3.org/1999/xlink">
<g id="graph0" class="graph" transform="scale(1 1) rotate(0) translate(4 193.5)">
<title>obe::Animation::Animator::loadAnimator</title>
<!-- Node150 -->
<g id="node1" class="node"><title>Node150</title>
<polygon fill="#bfbfbf" stroke="black" points="0,-49.5 0,-79.5 127,-79.5 127,-49.5 0,-49.5"/>
<text text-anchor="start" x="8" y="-67.5" font-family="Helvetica,sans-Serif" font-size="10.00">obe::Animation::Animator</text>
<text text-anchor="middle" x="63.5" y="-56.5" font-family="Helvetica,sans-Serif" font-size="10.00">::loadAnimator</text>
</g>
<!-- Node151 -->
<g id="node2" class="node"><title>Node151</title>
<g id="a_node2"><a xlink:href="namespaceobe_1_1_script_1_1_core_lib.html#ad3e8d674e535b8a534a3bed6f311d701" target="_top" xlink:title="obe::Script::CoreLib\l::loadAnimation">
<polygon fill="none" stroke="black" points="306,-82.5 306,-112.5 409,-112.5 409,-82.5 306,-82.5"/>
<text text-anchor="start" x="314" y="-100.5" font-family="Helvetica,sans-Serif" font-size="10.00">obe::Script::CoreLib</text>
<text text-anchor="middle" x="357.5" y="-89.5" font-family="Helvetica,sans-Serif" font-size="10.00">::loadAnimation</text>
</a>
</g>
</g>
<!-- Node150&#45;&gt;Node151 -->
<g id="edge1" class="edge"><title>Node150&#45;&gt;Node151</title>
<path fill="none" stroke="midnightblue" d="M128.075,-81.8835C139.621,-84.4986 151.614,-86.8636 163,-88.5 211.101,-95.4129 266.551,-97.3892 305.728,-97.7994"/>
<polygon fill="midnightblue" stroke="midnightblue" points="128.604,-78.4126 118.068,-79.5331 127.003,-85.2272 128.604,-78.4126"/>
</g>
<!-- Node164 -->
<g id="node15" class="node"><title>Node164</title>
<g id="a_node15"><a xlink:href="classobe_1_1_system_1_1_cursor.html#a97cc621e093c133754f6b7c834bb809c" target="_top" xlink:title="obe::System::Cursor\l::Cursor">
<polygon fill="none" stroke="black" points="163,-49.5 163,-79.5 270,-79.5 270,-49.5 163,-49.5"/>
<text text-anchor="start" x="171" y="-67.5" font-family="Helvetica,sans-Serif" font-size="10.00">obe::System::Cursor</text>
<text text-anchor="middle" x="216.5" y="-56.5" font-family="Helvetica,sans-Serif" font-size="10.00">::Cursor</text>
</a>
</g>
</g>
<!-- Node150&#45;&gt;Node164 -->
<g id="edge18" class="edge"><title>Node150&#45;&gt;Node164</title>
<path fill="none" stroke="midnightblue" d="M137.283,-64.5C145.892,-64.5 154.547,-64.5 162.802,-64.5"/>
<polygon fill="midnightblue" stroke="midnightblue" points="137.226,-61.0001 127.226,-64.5 137.226,-68.0001 137.226,-61.0001"/>
</g>
<!-- Node165 -->
<g id="node16" class="node"><title>Node165</title>
<g id="a_node16"><a xlink:href="classobe_1_1_system_1_1_cursor.html#a0cea173153502abccd3593fc91b72f40" target="_top" xlink:title="obe::System::Cursor\l::selectCursor">
<polygon fill="none" stroke="black" points="163,-0.5 163,-30.5 270,-30.5 270,-0.5 163,-0.5"/>
<text text-anchor="start" x="171" y="-18.5" font-family="Helvetica,sans-Serif" font-size="10.00">obe::System::Cursor</text>
<text text-anchor="middle" x="216.5" y="-7.5" font-family="Helvetica,sans-Serif" font-size="10.00">::selectCursor</text>
</a>
</g>
</g>
<!-- Node150&#45;&gt;Node165 -->
<g id="edge19" class="edge"><title>Node150&#45;&gt;Node165</title>
<path fill="none" stroke="midnightblue" d="M120.768,-46.2409C136.694,-41.0727 153.844,-35.5076 169.117,-30.5516"/>
<polygon fill="midnightblue" stroke="midnightblue" points="119.468,-42.9828 111.037,-49.3986 121.629,-49.641 119.468,-42.9828"/>
</g>
<!-- Node152 -->
<g id="node3" class="node"><title>Node152</title>
<g id="a_node3"><a xlink:href="namespaceobe_1_1_script.html#abdb81ec0976f1097cef6711415b8fac3" target="_top" xlink:title="obe::Script::loadCoreLib">
<polygon fill="none" stroke="black" points="445,-58 445,-77 566,-77 566,-58 445,-58"/>
<text text-anchor="middle" x="505.5" y="-65" font-family="Helvetica,sans-Serif" font-size="10.00">obe::Script::loadCoreLib</text>
</a>
</g>
</g>
<!-- Node151&#45;&gt;Node152 -->
<g id="edge2" class="edge"><title>Node151&#45;&gt;Node152</title>
<path fill="none" stroke="midnightblue" d="M418.953,-85.0781C431.944,-82.4087 445.482,-79.627 457.853,-77.085"/>
<polygon fill="midnightblue" stroke="midnightblue" points="418.245,-81.6505 409.154,-87.0916 419.654,-88.5072 418.245,-81.6505"/>
</g>
<!-- Node153 -->
<g id="node4" class="node"><title>Node153</title>
<g id="a_node4"><a xlink:href="namespaceobe_1_1_script.html#a4e6ee77032cf7f66544f9b08464a60b7" target="_top" xlink:title="obe::Script::loadLib">
<polygon fill="none" stroke="black" points="603,-102 603,-121 704,-121 704,-102 603,-102"/>
<text text-anchor="middle" x="653.5" y="-109" font-family="Helvetica,sans-Serif" font-size="10.00">obe::Script::loadLib</text>
</a>
</g>
</g>
<!-- Node152&#45;&gt;Node153 -->
<g id="edge3" class="edge"><title>Node152&#45;&gt;Node153</title>
<path fill="none" stroke="midnightblue" d="M547.761,-79.9347C570.959,-86.926 599.468,-95.5177 620.882,-101.971"/>
<polygon fill="midnightblue" stroke="midnightblue" points="548.764,-76.5818 538.18,-77.0473 546.745,-83.2841 548.764,-76.5818"/>
</g>
<!-- Node163 -->
<g id="node14" class="node"><title>Node163</title>
<g id="a_node14"><a xlink:href="namespaceobe_1_1_script_1_1_core_lib.html#a07d6c11bbb082bc45bdba50d97965c00" target="_top" xlink:title="obe::Script::CoreLib\l::loadCollision">
<polygon fill="none" stroke="black" points="602,-52.5 602,-82.5 705,-82.5 705,-52.5 602,-52.5"/>
<text text-anchor="start" x="610" y="-70.5" font-family="Helvetica,sans-Serif" font-size="10.00">obe::Script::CoreLib</text>
<text text-anchor="middle" x="653.5" y="-59.5" font-family="Helvetica,sans-Serif" font-size="10.00">::loadCollision</text>
</a>
</g>
</g>
<!-- Node152&#45;&gt;Node163 -->
<g id="edge16" class="edge"><title>Node152&#45;&gt;Node163</title>
<path fill="none" stroke="midnightblue" d="M576.356,-60.7556C584.966,-60.7251 593.634,-60.8199 601.88,-61.0402"/>
<polygon fill="midnightblue" stroke="midnightblue" points="576.272,-57.2561 566.305,-60.849 576.337,-64.2558 576.272,-57.2561"/>
</g>
<!-- Node154 -->
<g id="node5" class="node"><title>Node154</title>
<g id="a_node5"><a xlink:href="namespaceobe_1_1_modes.html#a1e38c0d9a2ca0230f0de79c298f53ab9" target="_top" xlink:title="A mode that will start the Toolkit. ">
<polygon fill="none" stroke="black" points="918,-151 918,-170 1064,-170 1064,-151 918,-151"/>
<text text-anchor="middle" x="991" y="-158" font-family="Helvetica,sans-Serif" font-size="10.00">obe::Modes::startToolkitMode</text>
</a>
</g>
</g>
<!-- Node153&#45;&gt;Node154 -->
<g id="edge4" class="edge"><title>Node153&#45;&gt;Node154</title>
<path fill="none" stroke="midnightblue" d="M672.349,-127.842C688.799,-141.711 714.594,-160.582 741,-168.5 810.808,-189.432 896.595,-179.343 947.083,-170.001"/>
<polygon fill="midnightblue" stroke="midnightblue" points="674.485,-125.06 664.646,-121.13 669.886,-130.338 674.485,-125.06"/>
</g>
<!-- Node157 -->
<g id="node8" class="node"><title>Node157</title>
<g id="a_node8"><a xlink:href="classobe_1_1_scene_1_1_world.html#a32964e659e18cb32094d9f8ceea30aa3" target="_top" xlink:title="obe::Scene::World::\lWorld">
<polygon fill="none" stroke="black" points="939,-85.5 939,-115.5 1043,-115.5 1043,-85.5 939,-85.5"/>
<text text-anchor="start" x="947" y="-103.5" font-family="Helvetica,sans-Serif" font-size="10.00">obe::Scene::World::</text>
<text text-anchor="middle" x="991" y="-92.5" font-family="Helvetica,sans-Serif" font-size="10.00">World</text>
</a>
</g>
</g>
<!-- Node153&#45;&gt;Node157 -->
<g id="edge8" class="edge"><title>Node153&#45;&gt;Node157</title>
<path fill="none" stroke="midnightblue" d="M714.331,-109.538C778.27,-107.442 878.555,-104.154 938.916,-102.175"/>
<polygon fill="midnightblue" stroke="midnightblue" points="713.884,-106.051 704.004,-109.877 714.114,-113.047 713.884,-106.051"/>
</g>
<!-- Node158 -->
<g id="node9" class="node"><title>Node158</title>
<g id="a_node9"><a xlink:href="namespaceobe_1_1_scene.html#ae5cbcc3278d9115d603e5024dec9136e" target="_top" xlink:title="obe::Scene::loadWorldScript\lEngineBaseLib">
<polygon fill="none" stroke="black" points="741,-52.5 741,-82.5 882,-82.5 882,-52.5 741,-52.5"/>
<text text-anchor="start" x="749" y="-70.5" font-family="Helvetica,sans-Serif" font-size="10.00">obe::Scene::loadWorldScript</text>
<text text-anchor="middle" x="811.5" y="-59.5" font-family="Helvetica,sans-Serif" font-size="10.00">EngineBaseLib</text>
</a>
</g>
</g>
<!-- Node153&#45;&gt;Node158 -->
<g id="edge9" class="edge"><title>Node153&#45;&gt;Node158</title>
<path fill="none" stroke="midnightblue" d="M698.151,-99.1882C716.437,-94.0306 737.871,-87.9852 757.086,-82.5654"/>
<polygon fill="midnightblue" stroke="midnightblue" points="697.024,-95.8694 688.35,-101.953 698.924,-102.607 697.024,-95.8694"/>
</g>
<!-- Node159 -->
<g id="node10" class="node"><title>Node159</title>
<g id="a_node10"><a xlink:href="namespaceobe_1_1_script.html#a5e992c0efb0543e7c934bc1065f08b01" target="_top" xlink:title="obe::Script::loadLibBridge">
<polygon fill="none" stroke="black" points="747.5,-14 747.5,-33 875.5,-33 875.5,-14 747.5,-14"/>
<text text-anchor="middle" x="811.5" y="-21" font-family="Helvetica,sans-Serif" font-size="10.00">obe::Script::loadLibBridge</text>
</a>
</g>
</g>
<!-- Node153&#45;&gt;Node159 -->
<g id="edge11" class="edge"><title>Node153&#45;&gt;Node159</title>
<path fill="none" stroke="midnightblue" d="M695.912,-97.4024C699.114,-95.6311 702.19,-93.6682 705,-91.5 726.396,-74.9928 718.727,-57.8035 741,-42.5 746.67,-38.604 753.112,-35.505 759.732,-33.0404"/>
<polygon fill="midnightblue" stroke="midnightblue" points="694.13,-94.3769 686.668,-101.898 697.191,-100.672 694.13,-94.3769"/>
</g>
<!-- Node162 -->
<g id="node13" class="node"><title>Node162</title>
<g id="a_node13"><a xlink:href="namespaceobe_1_1_script.html#aad6ef67388e6d16eb01853f208da410f" target="_top" xlink:title="obe::Script::loadBaseLib">
<polygon fill="none" stroke="black" points="750,-140 750,-159 873,-159 873,-140 750,-140"/>
<text text-anchor="middle" x="811.5" y="-147" font-family="Helvetica,sans-Serif" font-size="10.00">obe::Script::loadBaseLib</text>
</a>
</g>
</g>
<!-- Node153&#45;&gt;Node162 -->
<g id="edge14" class="edge"><title>Node153&#45;&gt;Node162</title>
<path fill="none" stroke="midnightblue" d="M703.632,-123.468C725.493,-128.793 750.876,-134.976 771.418,-139.98"/>
<polygon fill="midnightblue" stroke="midnightblue" points="704.41,-120.055 693.865,-121.089 702.753,-126.856 704.41,-120.055"/>
</g>
<!-- Node155 -->
<g id="node6" class="node"><title>Node155</title>
<g id="a_node6"><a xlink:href="namespaceobe_1_1_modes.html#a6a8b08eee511d4895c4da96d4ba223a6" target="_top" xlink:title="obe::Modes::startDevMenu">
<polygon fill="none" stroke="black" points="1100,-170 1100,-189 1233,-189 1233,-170 1100,-170"/>
<text text-anchor="middle" x="1166.5" y="-177" font-family="Helvetica,sans-Serif" font-size="10.00">obe::Modes::startDevMenu</text>
</a>
</g>
</g>
<!-- Node154&#45;&gt;Node155 -->
<g id="edge5" class="edge"><title>Node154&#45;&gt;Node155</title>
<path fill="none" stroke="midnightblue" d="M1074.12,-169.493C1082.72,-170.434 1091.37,-171.383 1099.76,-172.3"/>
<polygon fill="midnightblue" stroke="midnightblue" points="1074.39,-166.002 1064.07,-168.393 1073.63,-172.961 1074.39,-166.002"/>
</g>
<!-- Node156 -->
<g id="node7" class="node"><title>Node156</title>
<g id="a_node7"><a xlink:href="_ob_engine_8cpp.html#a3c04138a5bfe5d72780bb7e82a18e627" target="_top" xlink:title="main">
<polygon fill="none" stroke="black" points="1269,-151 1269,-170 1307,-170 1307,-151 1269,-151"/>
<text text-anchor="middle" x="1288" y="-158" font-family="Helvetica,sans-Serif" font-size="10.00">main</text>
</a>
</g>
</g>
<!-- Node154&#45;&gt;Node156 -->
<g id="edge7" class="edge"><title>Node154&#45;&gt;Node156</title>
<path fill="none" stroke="midnightblue" d="M1074.31,-160.5C1141.39,-160.5 1230.99,-160.5 1268.87,-160.5"/>
<polygon fill="midnightblue" stroke="midnightblue" points="1074.17,-157 1064.17,-160.5 1074.17,-164 1074.17,-157"/>
</g>
<!-- Node155&#45;&gt;Node156 -->
<g id="edge6" class="edge"><title>Node155&#45;&gt;Node156</title>
<path fill="none" stroke="midnightblue" d="M1237.82,-168.319C1249.35,-166.487 1260.33,-164.741 1268.98,-163.365"/>
<polygon fill="midnightblue" stroke="midnightblue" points="1236.93,-164.917 1227.6,-169.944 1238.03,-171.831 1236.93,-164.917"/>
</g>
<!-- Node158&#45;&gt;Node157 -->
<g id="edge10" class="edge"><title>Node158&#45;&gt;Node157</title>
<path fill="none" stroke="midnightblue" d="M891.998,-82.2799C907.939,-85.2436 924.283,-88.2821 938.941,-91.0074"/>
<polygon fill="midnightblue" stroke="midnightblue" points="892.615,-78.8346 882.143,-80.4478 891.335,-85.7167 892.615,-78.8346"/>
</g>
<!-- Node160 -->
<g id="node11" class="node"><title>Node160</title>
<g id="a_node11"><a xlink:href="namespaceobe_1_1_script.html#a5dc8321da50fd4b5dc2935e4d8c93a4e" target="_top" xlink:title="obe::Script::loadScrGame\lObject">
<polygon fill="none" stroke="black" points="926.5,-8.5 926.5,-38.5 1055.5,-38.5 1055.5,-8.5 926.5,-8.5"/>
<text text-anchor="start" x="934.5" y="-26.5" font-family="Helvetica,sans-Serif" font-size="10.00">obe::Script::loadScrGame</text>
<text text-anchor="middle" x="991" y="-15.5" font-family="Helvetica,sans-Serif" font-size="10.00">Object</text>
</a>
</g>
</g>
<!-- Node159&#45;&gt;Node160 -->
<g id="edge12" class="edge"><title>Node159&#45;&gt;Node160</title>
<path fill="none" stroke="midnightblue" d="M885.737,-23.5C899.171,-23.5 913.096,-23.5 926.226,-23.5"/>
<polygon fill="midnightblue" stroke="midnightblue" points="885.58,-20.0001 875.58,-23.5 885.58,-27.0001 885.58,-20.0001"/>
</g>
<!-- Node161 -->
<g id="node12" class="node"><title>Node161</title>
<g id="a_node12"><a xlink:href="classobe_1_1_script_1_1_game_object.html#aadeac0036d2fe21d523acfd4e9011a23" target="_top" xlink:title="obe::Script::GameObject\l::loadGameObject">
<polygon fill="none" stroke="black" points="1104,-8.5 1104,-38.5 1229,-38.5 1229,-8.5 1104,-8.5"/>
<text text-anchor="start" x="1112" y="-26.5" font-family="Helvetica,sans-Serif" font-size="10.00">obe::Script::GameObject</text>
<text text-anchor="middle" x="1166.5" y="-15.5" font-family="Helvetica,sans-Serif" font-size="10.00">::loadGameObject</text>
</a>
</g>
</g>
<!-- Node160&#45;&gt;Node161 -->
<g id="edge13" class="edge"><title>Node160&#45;&gt;Node161</title>
<path fill="none" stroke="midnightblue" d="M1065.72,-23.5C1078.44,-23.5 1091.55,-23.5 1103.91,-23.5"/>
<polygon fill="midnightblue" stroke="midnightblue" points="1065.62,-20.0001 1055.62,-23.5 1065.62,-27.0001 1065.62,-20.0001"/>
</g>
<!-- Node162&#45;&gt;Node154 -->
<g id="edge15" class="edge"><title>Node162&#45;&gt;Node154</title>
<path fill="none" stroke="midnightblue" d="M883.346,-153.89C894.662,-154.592 906.384,-155.318 917.733,-156.021"/>
<polygon fill="midnightblue" stroke="midnightblue" points="883.286,-150.38 873.089,-153.255 882.853,-157.367 883.286,-150.38"/>
</g>
<!-- Node163&#45;&gt;Node152 -->
<g id="edge17" class="edge"><title>Node163&#45;&gt;Node152</title>
<path fill="none" stroke="midnightblue" d="M591.757,-74.1647C583.342,-74.2828 574.703,-74.2783 566.305,-74.151"/>
<polygon fill="midnightblue" stroke="midnightblue" points="591.953,-77.6616 601.88,-73.9598 591.811,-70.663 591.953,-77.6616"/>
</g>
<!-- Node166 -->
<g id="node17" class="node"><title>Node166</title>
<g id="a_node17"><a xlink:href="namespaceobe_1_1_script_1_1_core_lib.html#adc976091c779b7a03984d210b9285983" target="_top" xlink:title="obe::Script::CoreLib\l::loadCursor">
<polygon fill="none" stroke="black" points="306,-22.5 306,-52.5 409,-52.5 409,-22.5 306,-22.5"/>
<text text-anchor="start" x="314" y="-40.5" font-family="Helvetica,sans-Serif" font-size="10.00">obe::Script::CoreLib</text>
<text text-anchor="middle" x="357.5" y="-29.5" font-family="Helvetica,sans-Serif" font-size="10.00">::loadCursor</text>
</a>
</g>
</g>
<!-- Node165&#45;&gt;Node166 -->
<g id="edge20" class="edge"><title>Node165&#45;&gt;Node166</title>
<path fill="none" stroke="midnightblue" d="M280.039,-25.3983C288.632,-26.7583 297.368,-28.141 305.715,-29.4622"/>
<polygon fill="midnightblue" stroke="midnightblue" points="280.474,-21.9236 270.05,-23.8173 279.38,-28.8376 280.474,-21.9236"/>
</g>
<!-- Node166&#45;&gt;Node152 -->
<g id="edge21" class="edge"><title>Node166&#45;&gt;Node152</title>
<path fill="none" stroke="midnightblue" d="M418.953,-49.9219C431.944,-52.5913 445.482,-55.373 457.853,-57.915"/>
<polygon fill="midnightblue" stroke="midnightblue" points="419.654,-46.4928 409.154,-47.9084 418.245,-53.3495 419.654,-46.4928"/>
</g>
</g>
</svg>
