<?xml version="1.0" encoding="UTF-8" standalone="no"?>
<!DOCTYPE svg PUBLIC "-//W3C//DTD SVG 1.1//EN"
 "http://www.w3.org/Graphics/SVG/1.1/DTD/svg11.dtd">
<!-- Generated by graphviz version 2.38.0 (20140413.2041)
 -->
<!-- Title: obe::Light::PointLight::setBehind Pages: 1 -->
<!--zoomable 197 -->
<svg id="main" version="1.1" xmlns="http://www.w3.org/2000/svg" xmlns:xlink="http://www.w3.org/1999/xlink" xml:space="preserve" onload="init(evt)">
<style type="text/css"><![CDATA[
.edge:hover path { stroke: red; }
.edge:hover polygon { stroke: red; fill: red; }
.edge path { stroke: white; }
.edge polygon { stroke: white; fill: white; }
.node polygon { fill: white; }
]]></style>
<script type="text/javascript"><![CDATA[
var edges = document.getElementsByTagName('g');
if (edges && edges.length) {
  for (var i=0;i<edges.length;i++) {
    if (edges[i].id.substr(0,4)=='edge') {
      edges[i].setAttribute('class','edge');
    }
  }
}
]]></script>
        <defs>
                <circle id="rim" cx="0" cy="0" r="7"/>
                <circle id="rim2" cx="0" cy="0" r="3.5"/>
                <g id="zoomPlus">
                        <use xlink:href="#rim" fill="#404040">
                                <set attributeName="fill" to="#808080" begin="zoomplus.mouseover" end="zoomplus.mouseout"/>
                        </use>
                        <path d="M-4,0h8M0,-4v8" fill="none" stroke="white" stroke-width="1.5" pointer-events="none"/>
                </g>
                <g id="zoomMin">
                        <use xlink:href="#rim" fill="#404040">
                                <set attributeName="fill" to="#808080" begin="zoomminus.mouseover" end="zoomminus.mouseout"/>
                        </use>
                        <path d="M-4,0h8" fill="none" stroke="white" stroke-width="1.5" pointer-events="none"/>
                </g>
                <g id="dirArrow">
                        <path fill="none" stroke="white" stroke-width="1.5" d="M0,-3.0v7 M-2.5,-0.5L0,-3.0L2.5,-0.5"/>
                </g>
               <g id="resetDef">
                       <use xlink:href="#rim2" fill="#404040">
                               <set attributeName="fill" to="#808080" begin="reset.mouseover" end="reset.mouseout"/>
                       </use>
               </g>
        </defs>

<script type="text/javascript">
var viewWidth = 1150;
var viewHeight = 197;
var sectionId = 'dynsection-19';
</script>
<script xlink:href="svgpan.js"/>
<svg id="graph" class="graph">
<g id="viewport">
<title>obe::Light::PointLight::setBehind</title>
<!-- Node255 -->
<g id="node1" class="node"><title>Node255</title>
<polygon fill="#bfbfbf" stroke="black" points="0,-82.5 0,-112.5 109,-112.5 109,-82.5 0,-82.5"/>
<text text-anchor="start" x="8" y="-100.5" font-family="Helvetica,sans-Serif" font-size="10.00">obe::Light::PointLight</text>
<text text-anchor="middle" x="54.5" y="-89.5" font-family="Helvetica,sans-Serif" font-size="10.00">::setBehind</text>
</g>
<!-- Node256 -->
<g id="node2" class="node"><title>Node256</title>
<g id="a_node2"><a xlink:href="namespaceobe_1_1_script_1_1_core_lib.html#a2876a04af760fe42e215b8c6b8e70108" target="_top" xlink:title="obe::Script::CoreLib\l::loadLight">
<polygon fill="none" stroke="black" points="145,-82.5 145,-112.5 248,-112.5 248,-82.5 145,-82.5"/>
<text text-anchor="start" x="153" y="-100.5" font-family="Helvetica,sans-Serif" font-size="10.00">obe::Script::CoreLib</text>
<text text-anchor="middle" x="196.5" y="-89.5" font-family="Helvetica,sans-Serif" font-size="10.00">::loadLight</text>
</a>
</g>
</g>
<!-- Node255&#45;&gt;Node256 -->
<g id="edge1" class="edge"><title>Node255&#45;&gt;Node256</title>
<path fill="none" stroke="midnightblue" d="M119.238,-97.5C127.843,-97.5 136.574,-97.5 144.907,-97.5"/>
<polygon fill="midnightblue" stroke="midnightblue" points="119.227,-94.0001 109.227,-97.5 119.227,-101 119.227,-94.0001"/>
</g>
<!-- Node257 -->
<g id="node3" class="node"><title>Node257</title>
<g id="a_node3"><a xlink:href="namespaceobe_1_1_script.html#a633c629c5a54da2b5d4930730983121c" target="_top" xlink:title="obe::Script::loadCoreLib">
<polygon fill="none" stroke="black" points="284,-88 284,-107 405,-107 405,-88 284,-88"/>
<text text-anchor="middle" x="344.5" y="-95" font-family="Helvetica,sans-Serif" font-size="10.00">obe::Script::loadCoreLib</text>
</a>
</g>
</g>
<!-- Node256&#45;&gt;Node257 -->
<g id="edge2" class="edge"><title>Node256&#45;&gt;Node257</title>
<path fill="none" stroke="midnightblue" d="M258.328,-97.5C266.785,-97.5 275.467,-97.5 283.902,-97.5"/>
<polygon fill="midnightblue" stroke="midnightblue" points="258.154,-94.0001 248.154,-97.5 258.154,-101 258.154,-94.0001"/>
</g>
<!-- Node258 -->
<g id="node4" class="node"><title>Node258</title>
<g id="a_node4"><a xlink:href="namespaceobe_1_1_script.html#a4e6ee77032cf7f66544f9b08464a60b7" target="_top" xlink:title="obe::Script::loadLib">
<polygon fill="none" stroke="black" points="441,-88 441,-107 542,-107 542,-88 441,-88"/>
<text text-anchor="middle" x="491.5" y="-95" font-family="Helvetica,sans-Serif" font-size="10.00">obe::Script::loadLib</text>
</a>
</g>
</g>
<!-- Node257&#45;&gt;Node258 -->
<g id="edge3" class="edge"><title>Node257&#45;&gt;Node258</title>
<path fill="none" stroke="midnightblue" d="M415.401,-97.5C424.037,-97.5 432.723,-97.5 440.967,-97.5"/>
<polygon fill="midnightblue" stroke="midnightblue" points="415.314,-94.0001 405.314,-97.5 415.314,-101 415.314,-94.0001"/>
</g>
<!-- Node259 -->
<g id="node5" class="node"><title>Node259</title>
<g id="a_node5"><a xlink:href="namespaceobe_1_1_script.html#a5e992c0efb0543e7c934bc1065f08b01" target="_top" xlink:title="obe::Script::loadLibBridge">
<polygon fill="none" stroke="black" points="583.5,-164 583.5,-183 711.5,-183 711.5,-164 583.5,-164"/>
<text text-anchor="middle" x="647.5" y="-171" font-family="Helvetica,sans-Serif" font-size="10.00">obe::Script::loadLibBridge</text>
</a>
</g>
</g>
<!-- Node258&#45;&gt;Node259 -->
<g id="edge4" class="edge"><title>Node258&#45;&gt;Node259</title>
<path fill="none" stroke="midnightblue" d="M512.149,-113.245C528.824,-125.936 553.827,-143.434 578,-154.5 586.08,-158.198 595.033,-161.319 603.729,-163.895"/>
<polygon fill="midnightblue" stroke="midnightblue" points="514.283,-110.471 504.237,-107.105 509.992,-116.001 514.283,-110.471"/>
</g>
<!-- Node262 -->
<g id="node8" class="node"><title>Node262</title>
<g id="a_node8"><a xlink:href="namespaceobe_1_1_script.html#aad6ef67388e6d16eb01853f208da410f" target="_top" xlink:title="obe::Script::loadBaseLib">
<polygon fill="none" stroke="black" points="586,-126 586,-145 709,-145 709,-126 586,-126"/>
<text text-anchor="middle" x="647.5" y="-133" font-family="Helvetica,sans-Serif" font-size="10.00">obe::Script::loadBaseLib</text>
</a>
</g>
</g>
<!-- Node258&#45;&gt;Node262 -->
<g id="edge7" class="edge"><title>Node258&#45;&gt;Node262</title>
<path fill="none" stroke="midnightblue" d="M541.294,-109.54C562.808,-114.849 587.732,-120.999 607.919,-125.98"/>
<polygon fill="midnightblue" stroke="midnightblue" points="541.908,-106.087 531.361,-107.089 540.231,-112.883 541.908,-106.087"/>
</g>
<!-- Node263 -->
<g id="node9" class="node"><title>Node263</title>
<g id="a_node9"><a xlink:href="namespaceobe_1_1_modes.html#a1e38c0d9a2ca0230f0de79c298f53ab9" target="_top" xlink:title="A mode that will start the Toolkit. ">
<polygon fill="none" stroke="black" points="753,-96 753,-115 899,-115 899,-96 753,-96"/>
<text text-anchor="middle" x="826" y="-103" font-family="Helvetica,sans-Serif" font-size="10.00">obe::Modes::startToolkitMode</text>
</a>
</g>
</g>
<!-- Node258&#45;&gt;Node263 -->
<g id="edge12" class="edge"><title>Node258&#45;&gt;Node263</title>
<path fill="none" stroke="midnightblue" d="M552.437,-98.9421C608.645,-100.294 692.783,-102.319 752.692,-103.76"/>
<polygon fill="midnightblue" stroke="midnightblue" points="552.36,-95.4393 542.279,-98.6977 552.191,-102.437 552.36,-95.4393"/>
</g>
<!-- Node266 -->
<g id="node12" class="node"><title>Node266</title>
<g id="a_node12"><a xlink:href="classobe_1_1_world_1_1_world.html#a5bd621e3fd9293d949ad0c669cee6838" target="_top" xlink:title="obe::World::World::\lWorld">
<polygon fill="none" stroke="black" points="775.5,-27.5 775.5,-57.5 876.5,-57.5 876.5,-27.5 775.5,-27.5"/>
<text text-anchor="start" x="783.5" y="-45.5" font-family="Helvetica,sans-Serif" font-size="10.00">obe::World::World::</text>
<text text-anchor="middle" x="826" y="-34.5" font-family="Helvetica,sans-Serif" font-size="10.00">World</text>
</a>
</g>
</g>
<!-- Node258&#45;&gt;Node266 -->
<g id="edge13" class="edge"><title>Node258&#45;&gt;Node266</title>
<path fill="none" stroke="midnightblue" d="M552.189,-87.6266C615.947,-77.0802 715.845,-60.5558 775.425,-50.7004"/>
<polygon fill="midnightblue" stroke="midnightblue" points="551.573,-84.1808 542.279,-89.2659 552.716,-91.087 551.573,-84.1808"/>
</g>
<!-- Node267 -->
<g id="node13" class="node"><title>Node267</title>
<g id="a_node13"><a xlink:href="namespaceobe_1_1_world.html#afc958184e59524fdf9dc6ba98a1e9a37" target="_top" xlink:title="obe::World::loadWorldScript\lEngineBaseLib">
<polygon fill="none" stroke="black" points="578,-0.5 578,-30.5 717,-30.5 717,-0.5 578,-0.5"/>
<text text-anchor="start" x="586" y="-18.5" font-family="Helvetica,sans-Serif" font-size="10.00">obe::World::loadWorldScript</text>
<text text-anchor="middle" x="647.5" y="-7.5" font-family="Helvetica,sans-Serif" font-size="10.00">EngineBaseLib</text>
</a>
</g>
</g>
<!-- Node258&#45;&gt;Node267 -->
<g id="edge14" class="edge"><title>Node258&#45;&gt;Node267</title>
<path fill="none" stroke="midnightblue" d="M515.637,-82.2687C532.569,-71.4107 556.282,-56.7959 578,-45.5 588.021,-40.2881 599.142,-35.1539 609.458,-30.6464"/>
<polygon fill="midnightblue" stroke="midnightblue" points="513.477,-79.4976 506.983,-87.8694 517.28,-85.3741 513.477,-79.4976"/>
</g>
<!-- Node260 -->
<g id="node6" class="node"><title>Node260</title>
<g id="a_node6"><a xlink:href="namespaceobe_1_1_script.html#a5dc8321da50fd4b5dc2935e4d8c93a4e" target="_top" xlink:title="obe::Script::loadScrGame\lObject">
<polygon fill="none" stroke="black" points="761.5,-158.5 761.5,-188.5 890.5,-188.5 890.5,-158.5 761.5,-158.5"/>
<text text-anchor="start" x="769.5" y="-176.5" font-family="Helvetica,sans-Serif" font-size="10.00">obe::Script::loadScrGame</text>
<text text-anchor="middle" x="826" y="-165.5" font-family="Helvetica,sans-Serif" font-size="10.00">Object</text>
</a>
</g>
</g>
<!-- Node259&#45;&gt;Node260 -->
<g id="edge5" class="edge"><title>Node259&#45;&gt;Node260</title>
<path fill="none" stroke="midnightblue" d="M722.065,-173.5C735.107,-173.5 748.589,-173.5 761.329,-173.5"/>
<polygon fill="midnightblue" stroke="midnightblue" points="721.722,-170 711.722,-173.5 721.722,-177 721.722,-170"/>
</g>
<!-- Node261 -->
<g id="node7" class="node"><title>Node261</title>
<g id="a_node7"><a xlink:href="classobe_1_1_script_1_1_game_object.html#aa0d58bd1ef0fa2fe9f7567729b2d291e" target="_top" xlink:title="obe::Script::GameObject\l::loadGameObject">
<polygon fill="none" stroke="black" points="939,-158.5 939,-188.5 1064,-188.5 1064,-158.5 939,-158.5"/>
<text text-anchor="start" x="947" y="-176.5" font-family="Helvetica,sans-Serif" font-size="10.00">obe::Script::GameObject</text>
<text text-anchor="middle" x="1001.5" y="-165.5" font-family="Helvetica,sans-Serif" font-size="10.00">::loadGameObject</text>
</a>
</g>
</g>
<!-- Node260&#45;&gt;Node261 -->
<g id="edge6" class="edge"><title>Node260&#45;&gt;Node261</title>
<path fill="none" stroke="midnightblue" d="M900.721,-173.5C913.445,-173.5 926.552,-173.5 938.913,-173.5"/>
<polygon fill="midnightblue" stroke="midnightblue" points="900.62,-170 890.62,-173.5 900.62,-177 900.62,-170"/>
</g>
<!-- Node262&#45;&gt;Node263 -->
<g id="edge8" class="edge"><title>Node262&#45;&gt;Node263</title>
<path fill="none" stroke="midnightblue" d="M715.102,-124.18C732.829,-121.166 751.798,-117.942 768.901,-115.035"/>
<polygon fill="midnightblue" stroke="midnightblue" points="714.103,-120.799 704.831,-125.925 715.276,-127.7 714.103,-120.799"/>
</g>
<!-- Node264 -->
<g id="node10" class="node"><title>Node264</title>
<g id="a_node10"><a xlink:href="namespaceobe_1_1_modes.html#a6a8b08eee511d4895c4da96d4ba223a6" target="_top" xlink:title="obe::Modes::startDevMenu">
<polygon fill="none" stroke="black" points="935,-104 935,-123 1068,-123 1068,-104 935,-104"/>
<text text-anchor="middle" x="1001.5" y="-111" font-family="Helvetica,sans-Serif" font-size="10.00">obe::Modes::startDevMenu</text>
</a>
</g>
</g>
<!-- Node263&#45;&gt;Node264 -->
<g id="edge9" class="edge"><title>Node263&#45;&gt;Node264</title>
<path fill="none" stroke="midnightblue" d="M909.118,-109.286C917.716,-109.683 926.375,-110.082 934.755,-110.469"/>
<polygon fill="midnightblue" stroke="midnightblue" points="909.223,-105.788 899.072,-108.823 908.9,-112.78 909.223,-105.788"/>
</g>
<!-- Node265 -->
<g id="node11" class="node"><title>Node265</title>
<g id="a_node11"><a xlink:href="_ob_engine_8cpp.html#a3c04138a5bfe5d72780bb7e82a18e627" target="_top" xlink:title="main">
<polygon fill="none" stroke="black" points="1104,-85 1104,-104 1142,-104 1142,-85 1104,-85"/>
<text text-anchor="middle" x="1123" y="-92" font-family="Helvetica,sans-Serif" font-size="10.00">main</text>
</a>
</g>
</g>
<!-- Node263&#45;&gt;Node265 -->
<g id="edge11" class="edge"><title>Node263&#45;&gt;Node265</title>
<path fill="none" stroke="midnightblue" d="M909.367,-96.2384C918.013,-95.5273 926.68,-94.9226 935,-94.5 996.929,-91.3544 1070.54,-92.9026 1103.93,-93.8916"/>
<polygon fill="midnightblue" stroke="midnightblue" points="908.909,-92.765 899.249,-97.1177 909.515,-99.7387 908.909,-92.765"/>
</g>
<!-- Node264&#45;&gt;Node265 -->
<g id="edge10" class="edge"><title>Node264&#45;&gt;Node265</title>
<path fill="none" stroke="midnightblue" d="M1072.82,-102.319C1084.35,-100.487 1095.33,-98.7409 1103.98,-97.3654"/>
<polygon fill="midnightblue" stroke="midnightblue" points="1071.93,-98.9174 1062.6,-103.944 1073.03,-105.831 1071.93,-98.9174"/>
</g>
<!-- Node267&#45;&gt;Node266 -->
<g id="edge15" class="edge"><title>Node267&#45;&gt;Node266</title>
<path fill="none" stroke="midnightblue" d="M727.323,-27.558C743.633,-30.0528 760.376,-32.6142 775.292,-34.8959"/>
<polygon fill="midnightblue" stroke="midnightblue" points="727.659,-24.0687 717.245,-26.0162 726.601,-30.9882 727.659,-24.0687"/>
</g>
</g>
</svg>
        <g id="navigator" transform="translate(0 0)" fill="#404254">
                <rect fill="#f2f5e9" fill-opacity="0.5" stroke="#606060" stroke-width=".5" x="0" y="0" width="60" height="60"/>
                <use id="zoomplus" xlink:href="#zoomPlus" x="17" y="9" onmousedown="handleZoom(evt,'in')"/>
                <use id="zoomminus" xlink:href="#zoomMin" x="42" y="9" onmousedown="handleZoom(evt,'out')"/>
                <use id="reset" xlink:href="#resetDef" x="30" y="36" onmousedown="handleReset()"/>
                <g id="arrowUp" xlink:href="#dirArrow" transform="translate(30 24)" onmousedown="handlePan(0,-1)">
                  <use xlink:href="#rim" fill="#404040">
                        <set attributeName="fill" to="#808080" begin="arrowUp.mouseover" end="arrowUp.mouseout"/>
                  </use>
                  <path fill="none" stroke="white" stroke-width="1.5" d="M0,-3.0v7 M-2.5,-0.5L0,-3.0L2.5,-0.5"/>
                </g>
                <g id="arrowRight" xlink:href="#dirArrow" transform="rotate(90) translate(36 -43)" onmousedown="handlePan(1,0)">
                  <use xlink:href="#rim" fill="#404040">
                        <set attributeName="fill" to="#808080" begin="arrowRight.mouseover" end="arrowRight.mouseout"/>
                  </use>
                  <path fill="none" stroke="white" stroke-width="1.5" d="M0,-3.0v7 M-2.5,-0.5L0,-3.0L2.5,-0.5"/>
                </g>
                <g id="arrowDown" xlink:href="#dirArrow" transform="rotate(180) translate(-30 -48)" onmousedown="handlePan(0,1)">
                  <use xlink:href="#rim" fill="#404040">
                        <set attributeName="fill" to="#808080" begin="arrowDown.mouseover" end="arrowDown.mouseout"/>
                  </use>
                  <path fill="none" stroke="white" stroke-width="1.5" d="M0,-3.0v7 M-2.5,-0.5L0,-3.0L2.5,-0.5"/>
                </g>
                <g id="arrowLeft" xlink:href="#dirArrow" transform="rotate(270) translate(-36 17)" onmousedown="handlePan(-1,0)">
                  <use xlink:href="#rim" fill="#404040">
                        <set attributeName="fill" to="#808080" begin="arrowLeft.mouseover" end="arrowLeft.mouseout"/>
                  </use>
                  <path fill="none" stroke="white" stroke-width="1.5" d="M0,-3.0v7 M-2.5,-0.5L0,-3.0L2.5,-0.5"/>
                </g>
        </g>
        <svg viewBox="0 0 15 15" width="100%" height="30px" preserveAspectRatio="xMaxYMin meet">
         <g id="arrow_out" transform="scale(0.3 0.3)">
          <a xlink:href="classobe_1_1_light_1_1_point_light_ad4ea2652adb9e75bacca6dee44b371a6_icgraph_org.svg" target="_base">
           <rect id="button" ry="5" rx="5" y="6" x="6" height="38" width="38"
                fill="#f2f5e9" fill-opacity="0.5" stroke="#606060" stroke-width="1.0"/>
           <path id="arrow"
             d="M 11.500037,31.436501 C 11.940474,20.09759 22.043105,11.32322 32.158766,21.979434 L 37.068811,17.246167 C 37.068811,17.246167 37.088388,32 37.088388,32 L 22.160133,31.978069 C 22.160133,31.978069 26.997745,27.140456 26.997745,27.140456 C 18.528582,18.264221 13.291696,25.230495 11.500037,31.436501 z"
             style="fill:#404040;"/>
          </a>
         </g>
        </svg>
</svg>
