<?xml version="1.0" encoding="UTF-8" standalone="no"?>
<!DOCTYPE svg PUBLIC "-//W3C//DTD SVG 1.1//EN"
 "http://www.w3.org/Graphics/SVG/1.1/DTD/svg11.dtd">
<!-- Generated by graphviz version 2.38.0 (20140413.2041)
 -->
<!-- Title: obe::Scene::Scene::doesLevelSpriteExists Pages: 1 -->
<!--zoomable 53 -->
<svg id="main" version="1.1" xmlns="http://www.w3.org/2000/svg" xmlns:xlink="http://www.w3.org/1999/xlink" xml:space="preserve" onload="init(evt)">
<style type="text/css"><![CDATA[
.edge:hover path { stroke: red; }
.edge:hover polygon { stroke: red; fill: red; }
.edge path { stroke: white; }
.edge polygon { stroke: white; fill: white; }
.node polygon { fill: white; }
]]></style>
<script type="text/javascript"><![CDATA[
var edges = document.getElementsByTagName('g');
if (edges && edges.length) {
  for (var i=0;i<edges.length;i++) {
    if (edges[i].id.substr(0,4)=='edge') {
      edges[i].setAttribute('class','edge');
    }
  }
}
]]></script>
        <defs>
                <circle id="rim" cx="0" cy="0" r="7"/>
                <circle id="rim2" cx="0" cy="0" r="3.5"/>
                <g id="zoomPlus">
                        <use xlink:href="#rim" fill="#404040">
                                <set attributeName="fill" to="#808080" begin="zoomplus.mouseover" end="zoomplus.mouseout"/>
                        </use>
                        <path d="M-4,0h8M0,-4v8" fill="none" stroke="white" stroke-width="1.5" pointer-events="none"/>
                </g>
                <g id="zoomMin">
                        <use xlink:href="#rim" fill="#404040">
                                <set attributeName="fill" to="#808080" begin="zoomminus.mouseover" end="zoomminus.mouseout"/>
                        </use>
                        <path d="M-4,0h8" fill="none" stroke="white" stroke-width="1.5" pointer-events="none"/>
                </g>
                <g id="dirArrow">
                        <path fill="none" stroke="white" stroke-width="1.5" d="M0,-3.0v7 M-2.5,-0.5L0,-3.0L2.5,-0.5"/>
                </g>
               <g id="resetDef">
                       <use xlink:href="#rim2" fill="#404040">
                               <set attributeName="fill" to="#808080" begin="reset.mouseover" end="reset.mouseout"/>
                       </use>
               </g>
        </defs>

<script type="text/javascript">
var viewWidth = 1012;
var viewHeight = 53;
var sectionId = 'dynsection-11';
</script>
<script xlink:href="svgpan.js"/>
<svg id="graph" class="graph">
<g id="viewport">
<title>obe::Scene::Scene::doesLevelSpriteExists</title>
<!-- Node203 -->
<g id="node1" class="node"><title>Node203</title>
<polygon fill="#bfbfbf" stroke="black" points="0,-0.5 0,-30.5 113,-30.5 113,-0.5 0,-0.5"/>
<text text-anchor="start" x="8" y="-18.5" font-family="Helvetica,sans-Serif" font-size="10.00">obe::Scene::Scene::</text>
<text text-anchor="middle" x="56.5" y="-7.5" font-family="Helvetica,sans-Serif" font-size="10.00">doesLevelSpriteExists</text>
</g>
<!-- Node204 -->
<g id="node2" class="node"><title>Node204</title>
<g id="a_node2"><a xlink:href="namespaceobe_1_1_editor.html#a98df387085b87692b2458ada49d8c8a3" target="_top" xlink:title="obe::Editor::addSpriteTo\lWorld">
<polygon fill="none" stroke="black" points="149,-0.5 149,-30.5 271,-30.5 271,-0.5 149,-0.5"/>
<text text-anchor="start" x="157" y="-18.5" font-family="Helvetica,sans-Serif" font-size="10.00">obe::Editor::addSpriteTo</text>
<text text-anchor="middle" x="210" y="-7.5" font-family="Helvetica,sans-Serif" font-size="10.00">World</text>
</a>
</g>
</g>
<!-- Node203&#45;&gt;Node204 -->
<g id="edge1" class="edge"><title>Node203&#45;&gt;Node204</title>
<path fill="none" stroke="midnightblue" d="M123.302,-15.5C131.798,-15.5 140.463,-15.5 148.861,-15.5"/>
<polygon fill="midnightblue" stroke="midnightblue" points="123.053,-12.0001 113.053,-15.5 123.053,-19.0001 123.053,-12.0001"/>
</g>
<!-- Node205 -->
<g id="node3" class="node"><title>Node205</title>
<g id="a_node3"><a xlink:href="namespaceobe_1_1_editor.html#a7700319c196fd0ad0c381df012809869" target="_top" xlink:title="obe::Editor::loadSpriteFolder">
<polygon fill="none" stroke="black" points="307,-6 307,-25 447,-25 447,-6 307,-6"/>
<text text-anchor="middle" x="377" y="-13" font-family="Helvetica,sans-Serif" font-size="10.00">obe::Editor::loadSpriteFolder</text>
</a>
</g>
</g>
<!-- Node204&#45;&gt;Node205 -->
<g id="edge2" class="edge"><title>Node204&#45;&gt;Node205</title>
<path fill="none" stroke="midnightblue" d="M281.24,-15.5C289.698,-15.5 298.331,-15.5 306.774,-15.5"/>
<polygon fill="midnightblue" stroke="midnightblue" points="281.036,-12.0001 271.036,-15.5 281.036,-19.0001 281.036,-12.0001"/>
</g>
<!-- Node206 -->
<g id="node4" class="node"><title>Node206</title>
<g id="a_node4"><a xlink:href="namespaceobe_1_1_editor_1_1_g_u_i.html#a5d2864942020d4f1bdfe7cf9e7d667bc" target="_top" xlink:title="obe::Editor::GUI::buildEditor\lSpritesMenu">
<polygon fill="none" stroke="black" points="483,-0.5 483,-30.5 621,-30.5 621,-0.5 483,-0.5"/>
<text text-anchor="start" x="491" y="-18.5" font-family="Helvetica,sans-Serif" font-size="10.00">obe::Editor::GUI::buildEditor</text>
<text text-anchor="middle" x="552" y="-7.5" font-family="Helvetica,sans-Serif" font-size="10.00">SpritesMenu</text>
</a>
</g>
</g>
<!-- Node205&#45;&gt;Node206 -->
<g id="edge3" class="edge"><title>Node205&#45;&gt;Node206</title>
<path fill="none" stroke="midnightblue" d="M457.564,-15.5C465.976,-15.5 474.475,-15.5 482.742,-15.5"/>
<polygon fill="midnightblue" stroke="midnightblue" points="457.369,-12.0001 447.369,-15.5 457.369,-19.0001 457.369,-12.0001"/>
</g>
<!-- Node207 -->
<g id="node5" class="node"><title>Node207</title>
<g id="a_node5"><a xlink:href="namespaceobe_1_1_editor.html#a9009207671e71dccb68a31ea2362e9ef" target="_top" xlink:title="Starts the map edition. ">
<polygon fill="none" stroke="black" points="657,-6 657,-25 761,-25 761,-6 657,-6"/>
<text text-anchor="middle" x="709" y="-13" font-family="Helvetica,sans-Serif" font-size="10.00">obe::Editor::editMap</text>
</a>
</g>
</g>
<!-- Node206&#45;&gt;Node207 -->
<g id="edge4" class="edge"><title>Node206&#45;&gt;Node207</title>
<path fill="none" stroke="midnightblue" d="M631.47,-15.5C640.032,-15.5 648.578,-15.5 656.69,-15.5"/>
<polygon fill="midnightblue" stroke="midnightblue" points="631.436,-12.0001 621.436,-15.5 631.436,-19.0001 631.436,-12.0001"/>
</g>
<!-- Node208 -->
<g id="node6" class="node"><title>Node208</title>
<g id="a_node6"><a xlink:href="namespaceobe_1_1_modes.html#a6a8b08eee511d4895c4da96d4ba223a6" target="_top" xlink:title="Starts the development Menu where you can starts other menus from. ">
<polygon fill="none" stroke="black" points="797,-25 797,-44 930,-44 930,-25 797,-25"/>
<text text-anchor="middle" x="863.5" y="-32" font-family="Helvetica,sans-Serif" font-size="10.00">obe::Modes::startDevMenu</text>
</a>
</g>
</g>
<!-- Node207&#45;&gt;Node208 -->
<g id="edge5" class="edge"><title>Node207&#45;&gt;Node208</title>
<path fill="none" stroke="midnightblue" d="M771.292,-23.1364C779.688,-24.1824 788.336,-25.2599 796.806,-26.3152"/>
<polygon fill="midnightblue" stroke="midnightblue" points="771.561,-19.6429 761.205,-21.8796 770.695,-26.5892 771.561,-19.6429"/>
</g>
<!-- Node209 -->
<g id="node7" class="node"><title>Node209</title>
<g id="a_node7"><a xlink:href="_ob_engine_8cpp.html#a3c04138a5bfe5d72780bb7e82a18e627" target="_top" xlink:title="main">
<polygon fill="none" stroke="black" points="966,-6 966,-25 1004,-25 1004,-6 966,-6"/>
<text text-anchor="middle" x="985" y="-13" font-family="Helvetica,sans-Serif" font-size="10.00">main</text>
</a>
</g>
</g>
<!-- Node207&#45;&gt;Node209 -->
<g id="edge7" class="edge"><title>Node207&#45;&gt;Node209</title>
<path fill="none" stroke="midnightblue" d="M771.356,-15.5C833.863,-15.5 926.971,-15.5 965.885,-15.5"/>
<polygon fill="midnightblue" stroke="midnightblue" points="771.216,-12.0001 761.216,-15.5 771.216,-19.0001 771.216,-12.0001"/>
</g>
<!-- Node208&#45;&gt;Node209 -->
<g id="edge6" class="edge"><title>Node208&#45;&gt;Node209</title>
<path fill="none" stroke="midnightblue" d="M934.822,-23.3192C946.345,-21.4869 957.327,-19.7409 965.978,-18.3654"/>
<polygon fill="midnightblue" stroke="midnightblue" points="933.926,-19.9174 924.6,-24.9443 935.026,-26.8306 933.926,-19.9174"/>
</g>
</g>
</svg>
        <g id="navigator" transform="translate(0 0)" fill="#404254">
                <rect fill="#f2f5e9" fill-opacity="0.5" stroke="#606060" stroke-width=".5" x="0" y="0" width="60" height="60"/>
                <use id="zoomplus" xlink:href="#zoomPlus" x="17" y="9" onmousedown="handleZoom(evt,'in')"/>
                <use id="zoomminus" xlink:href="#zoomMin" x="42" y="9" onmousedown="handleZoom(evt,'out')"/>
                <use id="reset" xlink:href="#resetDef" x="30" y="36" onmousedown="handleReset()"/>
                <g id="arrowUp" xlink:href="#dirArrow" transform="translate(30 24)" onmousedown="handlePan(0,-1)">
                  <use xlink:href="#rim" fill="#404040">
                        <set attributeName="fill" to="#808080" begin="arrowUp.mouseover" end="arrowUp.mouseout"/>
                  </use>
                  <path fill="none" stroke="white" stroke-width="1.5" d="M0,-3.0v7 M-2.5,-0.5L0,-3.0L2.5,-0.5"/>
                </g>
                <g id="arrowRight" xlink:href="#dirArrow" transform="rotate(90) translate(36 -43)" onmousedown="handlePan(1,0)">
                  <use xlink:href="#rim" fill="#404040">
                        <set attributeName="fill" to="#808080" begin="arrowRight.mouseover" end="arrowRight.mouseout"/>
                  </use>
                  <path fill="none" stroke="white" stroke-width="1.5" d="M0,-3.0v7 M-2.5,-0.5L0,-3.0L2.5,-0.5"/>
                </g>
                <g id="arrowDown" xlink:href="#dirArrow" transform="rotate(180) translate(-30 -48)" onmousedown="handlePan(0,1)">
                  <use xlink:href="#rim" fill="#404040">
                        <set attributeName="fill" to="#808080" begin="arrowDown.mouseover" end="arrowDown.mouseout"/>
                  </use>
                  <path fill="none" stroke="white" stroke-width="1.5" d="M0,-3.0v7 M-2.5,-0.5L0,-3.0L2.5,-0.5"/>
                </g>
                <g id="arrowLeft" xlink:href="#dirArrow" transform="rotate(270) translate(-36 17)" onmousedown="handlePan(-1,0)">
                  <use xlink:href="#rim" fill="#404040">
                        <set attributeName="fill" to="#808080" begin="arrowLeft.mouseover" end="arrowLeft.mouseout"/>
                  </use>
                  <path fill="none" stroke="white" stroke-width="1.5" d="M0,-3.0v7 M-2.5,-0.5L0,-3.0L2.5,-0.5"/>
                </g>
        </g>
        <svg viewBox="0 0 15 15" width="100%" height="30px" preserveAspectRatio="xMaxYMin meet">
         <g id="arrow_out" transform="scale(0.3 0.3)">
          <a xlink:href="classobe_1_1_scene_1_1_scene_adbadedd41641b7dbcdc00682395f6925_icgraph_org.svg" target="_base">
           <rect id="button" ry="5" rx="5" y="6" x="6" height="38" width="38"
                fill="#f2f5e9" fill-opacity="0.5" stroke="#606060" stroke-width="1.0"/>
           <path id="arrow"
             d="M 11.500037,31.436501 C 11.940474,20.09759 22.043105,11.32322 32.158766,21.979434 L 37.068811,17.246167 C 37.068811,17.246167 37.088388,32 37.088388,32 L 22.160133,31.978069 C 22.160133,31.978069 26.997745,27.140456 26.997745,27.140456 C 18.528582,18.264221 13.291696,25.230495 11.500037,31.436501 z"
             style="fill:#404040;"/>
          </a>
         </g>
        </svg>
</svg>
