<?xml version="1.0" encoding="UTF-8" standalone="no"?>
<!DOCTYPE svg PUBLIC "-//W3C//DTD SVG 1.1//EN"
 "http://www.w3.org/Graphics/SVG/1.1/DTD/svg11.dtd">
<!-- Generated by graphviz version 2.38.0 (20140413.2041)
 -->
<!-- Title: obe::Math::MathExp::buildMathExp Pages: 1 -->
<!--zoomable 330 -->
<svg id="main" version="1.1" xmlns="http://www.w3.org/2000/svg" xmlns:xlink="http://www.w3.org/1999/xlink" xml:space="preserve" onload="init(evt)">
<style type="text/css"><![CDATA[
.edge:hover path { stroke: red; }
.edge:hover polygon { stroke: red; fill: red; }
.edge path { stroke: white; }
.edge polygon { stroke: white; fill: white; }
.node polygon { fill: white; }
]]></style>
<script type="text/javascript"><![CDATA[
var edges = document.getElementsByTagName('g');
if (edges && edges.length) {
  for (var i=0;i<edges.length;i++) {
    if (edges[i].id.substr(0,4)=='edge') {
      edges[i].setAttribute('class','edge');
    }
  }
}
]]></script>
        <defs>
                <circle id="rim" cx="0" cy="0" r="7"/>
                <circle id="rim2" cx="0" cy="0" r="3.5"/>
                <g id="zoomPlus">
                        <use xlink:href="#rim" fill="#404040">
                                <set attributeName="fill" to="#808080" begin="zoomplus.mouseover" end="zoomplus.mouseout"/>
                        </use>
                        <path d="M-4,0h8M0,-4v8" fill="none" stroke="white" stroke-width="1.5" pointer-events="none"/>
                </g>
                <g id="zoomMin">
                        <use xlink:href="#rim" fill="#404040">
                                <set attributeName="fill" to="#808080" begin="zoomminus.mouseover" end="zoomminus.mouseout"/>
                        </use>
                        <path d="M-4,0h8" fill="none" stroke="white" stroke-width="1.5" pointer-events="none"/>
                </g>
                <g id="dirArrow">
                        <path fill="none" stroke="white" stroke-width="1.5" d="M0,-3.0v7 M-2.5,-0.5L0,-3.0L2.5,-0.5"/>
                </g>
               <g id="resetDef">
                       <use xlink:href="#rim2" fill="#404040">
                               <set attributeName="fill" to="#808080" begin="reset.mouseover" end="reset.mouseout"/>
                       </use>
               </g>
        </defs>

<script type="text/javascript">
var viewWidth = 577;
var viewHeight = 330;
var sectionId = 'dynsection-1';
</script>
<script xlink:href="svgpan.js"/>
<svg id="graph" class="graph">
<g id="viewport">
<title>obe::Math::MathExp::buildMathExp</title>
<!-- Node3 -->
<g id="node1" class="node"><title>Node3</title>
<polygon fill="#bfbfbf" stroke="black" points="0,-146.5 0,-176.5 105,-176.5 105,-146.5 0,-146.5"/>
<text text-anchor="start" x="8" y="-164.5" font-family="Helvetica,sans-Serif" font-size="10.00">obe::Math::MathExp</text>
<text text-anchor="middle" x="52.5" y="-153.5" font-family="Helvetica,sans-Serif" font-size="10.00">::buildMathExp</text>
</g>
<!-- Node4 -->
<g id="node2" class="node"><title>Node4</title>
<g id="a_node2"><a xlink:href="namespaceobe_1_1_functions_1_1_string.html#a5e6e747b1df0870d5c8f7b657de03f8b" target="_top" xlink:title="obe::Functions::String\l::multiSplit">
<polygon fill="none" stroke="black" points="145,-269.5 145,-299.5 258,-299.5 258,-269.5 145,-269.5"/>
<text text-anchor="start" x="153" y="-287.5" font-family="Helvetica,sans-Serif" font-size="10.00">obe::Functions::String</text>
<text text-anchor="middle" x="201.5" y="-276.5" font-family="Helvetica,sans-Serif" font-size="10.00">::multiSplit</text>
</a>
</g>
</g>
<!-- Node3&#45;&gt;Node4 -->
<g id="edge1" class="edge"><title>Node3&#45;&gt;Node4</title>
<path fill="none" stroke="midnightblue" d="M63.3853,-176.55C78.049,-197.843 107.468,-236.804 141,-260.5 143.069,-261.962 145.241,-263.354 147.48,-264.677"/>
<polygon fill="midnightblue" stroke="midnightblue" points="145.91,-267.806 156.379,-269.436 149.211,-261.634 145.91,-267.806"/>
</g>
<!-- Node7 -->
<g id="node5" class="node"><title>Node7</title>
<g id="a_node5"><a xlink:href="namespaceobe_1_1_functions_1_1_string.html#a7dfb55eef95a1ce46e45b2eb6318975b" target="_top" xlink:title="obe::Functions::String\l::replaceString">
<polygon fill="none" stroke="black" points="145,-220.5 145,-250.5 258,-250.5 258,-220.5 145,-220.5"/>
<text text-anchor="start" x="153" y="-238.5" font-family="Helvetica,sans-Serif" font-size="10.00">obe::Functions::String</text>
<text text-anchor="middle" x="201.5" y="-227.5" font-family="Helvetica,sans-Serif" font-size="10.00">::replaceString</text>
</a>
</g>
</g>
<!-- Node3&#45;&gt;Node7 -->
<g id="edge4" class="edge"><title>Node3&#45;&gt;Node7</title>
<path fill="none" stroke="midnightblue" d="M77.9103,-176.639C95.1993,-187.065 119.115,-200.894 141,-211.5 144.508,-213.2 148.169,-214.884 151.876,-216.524"/>
<polygon fill="midnightblue" stroke="midnightblue" points="150.553,-219.765 161.122,-220.496 153.316,-213.333 150.553,-219.765"/>
</g>
<!-- Node8 -->
<g id="node6" class="node"><title>Node8</title>
<g id="a_node6"><a xlink:href="classobe_1_1_math_1_1_exp_bloc.html#a97d8a8c304135bc59ffcc0b7fc436084" target="_top" xlink:title="obe::Math::ExpBloc\l::ExpBloc">
<polygon fill="none" stroke="black" points="150,-171.5 150,-201.5 253,-201.5 253,-171.5 150,-171.5"/>
<text text-anchor="start" x="158" y="-189.5" font-family="Helvetica,sans-Serif" font-size="10.00">obe::Math::ExpBloc</text>
<text text-anchor="middle" x="201.5" y="-178.5" font-family="Helvetica,sans-Serif" font-size="10.00">::ExpBloc</text>
</a>
</g>
</g>
<!-- Node3&#45;&gt;Node8 -->
<g id="edge5" class="edge"><title>Node3&#45;&gt;Node8</title>
<path fill="none" stroke="midnightblue" d="M105.327,-170.314C116.451,-172.206 128.303,-174.222 139.731,-176.165"/>
<polygon fill="midnightblue" stroke="midnightblue" points="139.191,-179.623 149.636,-177.85 140.364,-172.722 139.191,-179.623"/>
</g>
<!-- Node9 -->
<g id="node7" class="node"><title>Node9</title>
<g id="a_node7"><a xlink:href="namespaceobe_1_1_functions_1_1_vector.html#a8adc81831e6ac5c91887cf1c1089561a" target="_top" xlink:title="obe::Functions::Vector\l::isInList">
<polygon fill="none" stroke="black" points="143.5,-122.5 143.5,-152.5 259.5,-152.5 259.5,-122.5 143.5,-122.5"/>
<text text-anchor="start" x="151.5" y="-140.5" font-family="Helvetica,sans-Serif" font-size="10.00">obe::Functions::Vector</text>
<text text-anchor="middle" x="201.5" y="-129.5" font-family="Helvetica,sans-Serif" font-size="10.00">::isInList</text>
</a>
</g>
</g>
<!-- Node3&#45;&gt;Node9 -->
<g id="edge6" class="edge"><title>Node3&#45;&gt;Node9</title>
<path fill="none" stroke="midnightblue" d="M105.327,-153.038C114.372,-151.562 123.897,-150.007 133.285,-148.474"/>
<polygon fill="midnightblue" stroke="midnightblue" points="134.084,-151.89 143.389,-146.824 132.956,-144.981 134.084,-151.89"/>
</g>
<!-- Node10 -->
<g id="node8" class="node"><title>Node10</title>
<g id="a_node8"><a xlink:href="classobe_1_1_math_1_1_exp_operator.html#aea8a4321b3e888e73af67d7200b22677" target="_top" xlink:title="obe::Math::ExpOperator\l::setMembers">
<polygon fill="none" stroke="black" points="141,-73.5 141,-103.5 262,-103.5 262,-73.5 141,-73.5"/>
<text text-anchor="start" x="149" y="-91.5" font-family="Helvetica,sans-Serif" font-size="10.00">obe::Math::ExpOperator</text>
<text text-anchor="middle" x="201.5" y="-80.5" font-family="Helvetica,sans-Serif" font-size="10.00">::setMembers</text>
</a>
</g>
</g>
<!-- Node3&#45;&gt;Node10 -->
<g id="edge7" class="edge"><title>Node3&#45;&gt;Node10</title>
<path fill="none" stroke="midnightblue" d="M78.3233,-146.484C95.5995,-136.312 119.333,-122.885 141,-112.5 144.516,-110.815 148.182,-109.142 151.892,-107.51"/>
<polygon fill="midnightblue" stroke="midnightblue" points="153.328,-110.702 161.145,-103.551 150.574,-104.267 153.328,-110.702"/>
</g>
<!-- Node11 -->
<g id="node9" class="node"><title>Node11</title>
<g id="a_node9"><a xlink:href="namespaceobe_1_1_functions_1_1_string.html#afdceffa565b46f4f9070f28a834fd925" target="_top" xlink:title="obe::Functions::String\l::isStringNumeric">
<polygon fill="none" stroke="black" points="145,-24.5 145,-54.5 258,-54.5 258,-24.5 145,-24.5"/>
<text text-anchor="start" x="153" y="-42.5" font-family="Helvetica,sans-Serif" font-size="10.00">obe::Functions::String</text>
<text text-anchor="middle" x="201.5" y="-31.5" font-family="Helvetica,sans-Serif" font-size="10.00">::isStringNumeric</text>
</a>
</g>
</g>
<!-- Node3&#45;&gt;Node11 -->
<g id="edge8" class="edge"><title>Node3&#45;&gt;Node11</title>
<path fill="none" stroke="midnightblue" d="M63.6686,-146.253C78.4569,-125.106 107.785,-86.847 141,-63.5 143.073,-62.0428 145.248,-60.6551 147.489,-59.3359"/>
<polygon fill="midnightblue" stroke="midnightblue" points="149.218,-62.3806 156.395,-54.5864 145.924,-56.2041 149.218,-62.3806"/>
</g>
<!-- Node5 -->
<g id="node3" class="node"><title>Node5</title>
<g id="a_node3"><a xlink:href="namespaceobe_1_1_functions_1_1_string.html#a5e60f5d89fd341caad1db962ab14ec38" target="_top" xlink:title="obe::Functions::String\l::replaceStringInPlace">
<polygon fill="none" stroke="black" points="298,-291.5 298,-321.5 411,-321.5 411,-291.5 298,-291.5"/>
<text text-anchor="start" x="306" y="-309.5" font-family="Helvetica,sans-Serif" font-size="10.00">obe::Functions::String</text>
<text text-anchor="middle" x="354.5" y="-298.5" font-family="Helvetica,sans-Serif" font-size="10.00">::replaceStringInPlace</text>
</a>
</g>
</g>
<!-- Node4&#45;&gt;Node5 -->
<g id="edge2" class="edge"><title>Node4&#45;&gt;Node5</title>
<path fill="none" stroke="midnightblue" d="M258.298,-292.629C267.9,-294.028 277.96,-295.494 287.794,-296.927"/>
<polygon fill="midnightblue" stroke="midnightblue" points="287.531,-300.426 297.932,-298.404 288.541,-293.499 287.531,-300.426"/>
</g>
<!-- Node6 -->
<g id="node4" class="node"><title>Node6</title>
<g id="a_node4"><a xlink:href="elzip__fallback_8cpp.html#a9f2ce856ffec652145a26842617b63e1" target="_top" xlink:title="split">
<polygon fill="none" stroke="black" points="337,-253 337,-272 372,-272 372,-253 337,-253"/>
<text text-anchor="middle" x="354.5" y="-260" font-family="Helvetica,sans-Serif" font-size="10.00">split</text>
</a>
</g>
</g>
<!-- Node4&#45;&gt;Node6 -->
<g id="edge3" class="edge"><title>Node4&#45;&gt;Node6</title>
<path fill="none" stroke="midnightblue" d="M258.298,-276.371C281.723,-272.958 307.868,-269.148 326.824,-266.387"/>
<polygon fill="midnightblue" stroke="midnightblue" points="327.425,-269.836 336.816,-264.931 326.415,-262.909 327.425,-269.836"/>
</g>
<!-- Node12 -->
<g id="node10" class="node"><title>Node12</title>
<g id="a_node10"><a xlink:href="namespaceobe_1_1_functions_1_1_string.html#a3102c5a22983e2450cb4dbf6f8eda9db" target="_top" xlink:title="obe::Functions::String\l::isStringFloat">
<polygon fill="none" stroke="black" points="298,-49.5 298,-79.5 411,-79.5 411,-49.5 298,-49.5"/>
<text text-anchor="start" x="306" y="-67.5" font-family="Helvetica,sans-Serif" font-size="10.00">obe::Functions::String</text>
<text text-anchor="middle" x="354.5" y="-56.5" font-family="Helvetica,sans-Serif" font-size="10.00">::isStringFloat</text>
</a>
</g>
</g>
<!-- Node11&#45;&gt;Node12 -->
<g id="edge9" class="edge"><title>Node11&#45;&gt;Node12</title>
<path fill="none" stroke="midnightblue" d="M258.298,-48.738C267.9,-50.3278 277.96,-51.9933 287.794,-53.6215"/>
<polygon fill="midnightblue" stroke="midnightblue" points="287.494,-57.1194 297.932,-55.2999 288.638,-50.2135 287.494,-57.1194"/>
</g>
<!-- Node15 -->
<g id="node13" class="node"><title>Node15</title>
<g id="a_node13"><a xlink:href="namespaceobe_1_1_functions_1_1_string.html#a4fa170e997b70593697e62a8ecef2411" target="_top" xlink:title="obe::Functions::String\l::isStringInt">
<polygon fill="none" stroke="black" points="298,-0.5 298,-30.5 411,-30.5 411,-0.5 298,-0.5"/>
<text text-anchor="start" x="306" y="-18.5" font-family="Helvetica,sans-Serif" font-size="10.00">obe::Functions::String</text>
<text text-anchor="middle" x="354.5" y="-7.5" font-family="Helvetica,sans-Serif" font-size="10.00">::isStringInt</text>
</a>
</g>
</g>
<!-- Node11&#45;&gt;Node15 -->
<g id="edge12" class="edge"><title>Node11&#45;&gt;Node15</title>
<path fill="none" stroke="midnightblue" d="M258.298,-30.6315C267.9,-29.1053 277.96,-27.5064 287.794,-25.9434"/>
<polygon fill="midnightblue" stroke="midnightblue" points="288.605,-29.3585 297.932,-24.3321 287.506,-22.4452 288.605,-29.3585"/>
</g>
<!-- Node13 -->
<g id="node11" class="node"><title>Node13</title>
<g id="a_node11"><a xlink:href="namespaceobe_1_1_functions_1_1_string.html#a84cae24bc30f412aef8671b0dd41a280" target="_top" xlink:title="obe::Functions::String\l::occurencesInString">
<polygon fill="none" stroke="black" points="451.5,-74.5 451.5,-104.5 564.5,-104.5 564.5,-74.5 451.5,-74.5"/>
<text text-anchor="start" x="459.5" y="-92.5" font-family="Helvetica,sans-Serif" font-size="10.00">obe::Functions::String</text>
<text text-anchor="middle" x="508" y="-81.5" font-family="Helvetica,sans-Serif" font-size="10.00">::occurencesInString</text>
</a>
</g>
</g>
<!-- Node12&#45;&gt;Node13 -->
<g id="edge10" class="edge"><title>Node12&#45;&gt;Node13</title>
<path fill="none" stroke="midnightblue" d="M411.053,-73.6671C420.933,-75.2976 431.308,-77.0096 441.436,-78.6809"/>
<polygon fill="midnightblue" stroke="midnightblue" points="441.018,-82.1591 451.454,-80.334 442.157,-75.2525 441.018,-82.1591"/>
</g>
<!-- Node14 -->
<g id="node12" class="node"><title>Node14</title>
<g id="a_node12"><a xlink:href="namespaceobe_1_1_functions_1_1_string.html#a8a7989f90fef55f3e3bb9452cbbec8f0" target="_top" xlink:title="obe::Functions::String\l::removeCharFromString">
<polygon fill="none" stroke="black" points="447,-25.5 447,-55.5 569,-55.5 569,-25.5 447,-25.5"/>
<text text-anchor="start" x="455" y="-43.5" font-family="Helvetica,sans-Serif" font-size="10.00">obe::Functions::String</text>
<text text-anchor="middle" x="508" y="-32.5" font-family="Helvetica,sans-Serif" font-size="10.00">::removeCharFromString</text>
</a>
</g>
</g>
<!-- Node12&#45;&gt;Node14 -->
<g id="edge11" class="edge"><title>Node12&#45;&gt;Node14</title>
<path fill="none" stroke="midnightblue" d="M411.053,-55.6996C419.429,-54.3726 428.161,-52.9894 436.796,-51.6214"/>
<polygon fill="midnightblue" stroke="midnightblue" points="437.532,-55.0485 446.861,-50.0269 436.437,-48.1347 437.532,-55.0485"/>
</g>
</g>
</svg>
        <g id="navigator" transform="translate(0 0)" fill="#404254">
                <rect fill="#f2f5e9" fill-opacity="0.5" stroke="#606060" stroke-width=".5" x="0" y="0" width="60" height="60"/>
                <use id="zoomplus" xlink:href="#zoomPlus" x="17" y="9" onmousedown="handleZoom(evt,'in')"/>
                <use id="zoomminus" xlink:href="#zoomMin" x="42" y="9" onmousedown="handleZoom(evt,'out')"/>
                <use id="reset" xlink:href="#resetDef" x="30" y="36" onmousedown="handleReset()"/>
                <g id="arrowUp" xlink:href="#dirArrow" transform="translate(30 24)" onmousedown="handlePan(0,-1)">
                  <use xlink:href="#rim" fill="#404040">
                        <set attributeName="fill" to="#808080" begin="arrowUp.mouseover" end="arrowUp.mouseout"/>
                  </use>
                  <path fill="none" stroke="white" stroke-width="1.5" d="M0,-3.0v7 M-2.5,-0.5L0,-3.0L2.5,-0.5"/>
                </g>
                <g id="arrowRight" xlink:href="#dirArrow" transform="rotate(90) translate(36 -43)" onmousedown="handlePan(1,0)">
                  <use xlink:href="#rim" fill="#404040">
                        <set attributeName="fill" to="#808080" begin="arrowRight.mouseover" end="arrowRight.mouseout"/>
                  </use>
                  <path fill="none" stroke="white" stroke-width="1.5" d="M0,-3.0v7 M-2.5,-0.5L0,-3.0L2.5,-0.5"/>
                </g>
                <g id="arrowDown" xlink:href="#dirArrow" transform="rotate(180) translate(-30 -48)" onmousedown="handlePan(0,1)">
                  <use xlink:href="#rim" fill="#404040">
                        <set attributeName="fill" to="#808080" begin="arrowDown.mouseover" end="arrowDown.mouseout"/>
                  </use>
                  <path fill="none" stroke="white" stroke-width="1.5" d="M0,-3.0v7 M-2.5,-0.5L0,-3.0L2.5,-0.5"/>
                </g>
                <g id="arrowLeft" xlink:href="#dirArrow" transform="rotate(270) translate(-36 17)" onmousedown="handlePan(-1,0)">
                  <use xlink:href="#rim" fill="#404040">
                        <set attributeName="fill" to="#808080" begin="arrowLeft.mouseover" end="arrowLeft.mouseout"/>
                  </use>
                  <path fill="none" stroke="white" stroke-width="1.5" d="M0,-3.0v7 M-2.5,-0.5L0,-3.0L2.5,-0.5"/>
                </g>
        </g>
        <svg viewBox="0 0 15 15" width="100%" height="30px" preserveAspectRatio="xMaxYMin meet">
         <g id="arrow_out" transform="scale(0.3 0.3)">
          <a xlink:href="classobe_1_1_math_1_1_math_exp_a88e2760fa53ae5b693b654afad7bd149_cgraph_org.svg" target="_base">
           <rect id="button" ry="5" rx="5" y="6" x="6" height="38" width="38"
                fill="#f2f5e9" fill-opacity="0.5" stroke="#606060" stroke-width="1.0"/>
           <path id="arrow"
             d="M 11.500037,31.436501 C 11.940474,20.09759 22.043105,11.32322 32.158766,21.979434 L 37.068811,17.246167 C 37.068811,17.246167 37.088388,32 37.088388,32 L 22.160133,31.978069 C 22.160133,31.978069 26.997745,27.140456 26.997745,27.140456 C 18.528582,18.264221 13.291696,25.230495 11.500037,31.436501 z"
             style="fill:#404040;"/>
          </a>
         </g>
        </svg>
</svg>
