<?xml version="1.0" encoding="UTF-8" standalone="no"?>
<!DOCTYPE svg PUBLIC "-//W3C//DTD SVG 1.1//EN"
 "http://www.w3.org/Graphics/SVG/1.1/DTD/svg11.dtd">
<!-- Generated by graphviz version 2.38.0 (20140413.2041)
 -->
<!-- Title: vili::ComplexAttribute::createBaseAttribute Pages: 1 -->
<svg width="884pt" height="596pt"
 viewBox="0.00 0.00 884.00 595.50" xmlns="http://www.w3.org/2000/svg" xmlns:xlink="http://www.w3.org/1999/xlink">
<g id="graph0" class="graph" transform="scale(1 1) rotate(0) translate(4 591.5)">
<title>vili::ComplexAttribute::createBaseAttribute</title>
<!-- Node383 -->
<g id="node1" class="node"><title>Node383</title>
<polygon fill="#bfbfbf" stroke="black" points="0,-269.5 0,-299.5 109,-299.5 109,-269.5 0,-269.5"/>
<text text-anchor="start" x="8" y="-287.5" font-family="Helvetica,sans-Serif" font-size="10.00">vili::ComplexAttribute</text>
<text text-anchor="middle" x="54.5" y="-276.5" font-family="Helvetica,sans-Serif" font-size="10.00">::createBaseAttribute</text>
</g>
<!-- Node384 -->
<g id="node2" class="node"><title>Node384</title>
<g id="a_node2"><a xlink:href="classvili_1_1_complex_attribute.html#a7031eabef8547fe00efb455c75b5e28e" target="_top" xlink:title="vili::ComplexAttribute\l::getBaseAttribute">
<polygon fill="none" stroke="black" points="145,-318.5 145,-348.5 253,-348.5 253,-318.5 145,-318.5"/>
<text text-anchor="start" x="153" y="-336.5" font-family="Helvetica,sans-Serif" font-size="10.00">vili::ComplexAttribute</text>
<text text-anchor="middle" x="199" y="-325.5" font-family="Helvetica,sans-Serif" font-size="10.00">::getBaseAttribute</text>
</a>
</g>
</g>
<!-- Node383&#45;&gt;Node384 -->
<g id="edge1" class="edge"><title>Node383&#45;&gt;Node384</title>
<path fill="none" stroke="midnightblue" d="M99.4175,-299.601C113.639,-304.492 129.573,-309.971 144.415,-315.074"/>
<polygon fill="midnightblue" stroke="midnightblue" points="143.388,-318.422 153.982,-318.364 145.664,-311.802 143.388,-318.422"/>
</g>
<!-- Node395 -->
<g id="node13" class="node"><title>Node395</title>
<g id="a_node13"><a xlink:href="classvili_1_1_base_attribute.html#a90ccd428f7465b44a490c2f007b1262d" target="_top" xlink:title="vili::BaseAttribute\l::autoset">
<polygon fill="none" stroke="black" points="153,-269.5 153,-299.5 245,-299.5 245,-269.5 153,-269.5"/>
<text text-anchor="start" x="161" y="-287.5" font-family="Helvetica,sans-Serif" font-size="10.00">vili::BaseAttribute</text>
<text text-anchor="middle" x="199" y="-276.5" font-family="Helvetica,sans-Serif" font-size="10.00">::autoset</text>
</a>
</g>
</g>
<!-- Node383&#45;&gt;Node395 -->
<g id="edge12" class="edge"><title>Node383&#45;&gt;Node395</title>
<path fill="none" stroke="midnightblue" d="M109.373,-284.5C120.244,-284.5 131.689,-284.5 142.61,-284.5"/>
<polygon fill="midnightblue" stroke="midnightblue" points="142.885,-288 152.885,-284.5 142.885,-281 142.885,-288"/>
</g>
<!-- Node397 -->
<g id="node15" class="node"><title>Node397</title>
<g id="a_node15"><a xlink:href="namespacevili_1_1_functions_1_1_vector.html#aa9f0dd6b1c4be1e3d86846944329d9f2" target="_top" xlink:title="Check if a given item is in the given std::vector. ">
<polygon fill="none" stroke="black" points="470,-0.5 470,-30.5 580,-30.5 580,-0.5 470,-0.5"/>
<text text-anchor="start" x="478" y="-18.5" font-family="Helvetica,sans-Serif" font-size="10.00">vili::Functions::Vector</text>
<text text-anchor="middle" x="525" y="-7.5" font-family="Helvetica,sans-Serif" font-size="10.00">::isInList</text>
</a>
</g>
</g>
<!-- Node383&#45;&gt;Node397 -->
<g id="edge26" class="edge"><title>Node383&#45;&gt;Node397</title>
<path fill="none" stroke="midnightblue" d="M74.4289,-269.426C113.244,-238.907 205.261,-168.541 289,-119.5 360.363,-77.7071 380.642,-71.2622 457,-39.5 461.335,-37.6968 465.859,-35.9 470.421,-34.1476"/>
<polygon fill="midnightblue" stroke="midnightblue" points="471.661,-37.4208 479.789,-30.625 469.197,-30.8687 471.661,-37.4208"/>
</g>
<!-- Node385 -->
<g id="node3" class="node"><title>Node385</title>
<g id="a_node3"><a xlink:href="classaube_1_1_error_handler.html#a7c8d44a3e7f019646d289950abc5301b" target="_top" xlink:title="aube::ErrorHandler\l::Raise">
<polygon fill="none" stroke="black" points="306,-318.5 306,-348.5 404,-348.5 404,-318.5 306,-318.5"/>
<text text-anchor="start" x="314" y="-336.5" font-family="Helvetica,sans-Serif" font-size="10.00">aube::ErrorHandler</text>
<text text-anchor="middle" x="355" y="-325.5" font-family="Helvetica,sans-Serif" font-size="10.00">::Raise</text>
</a>
</g>
</g>
<!-- Node384&#45;&gt;Node385 -->
<g id="edge2" class="edge"><title>Node384&#45;&gt;Node385</title>
<path fill="none" stroke="midnightblue" d="M253.43,-333.5C266.998,-333.5 281.647,-333.5 295.455,-333.5"/>
<polygon fill="midnightblue" stroke="midnightblue" points="295.818,-337 305.818,-333.5 295.818,-330 295.818,-337"/>
</g>
<!-- Node390 -->
<g id="node8" class="node"><title>Node390</title>
<g id="a_node8"><a xlink:href="classvili_1_1_attribute.html#a14b2534c1250d36bb0c02f7e5c25b40b" target="_top" xlink:title="vili::Attribute::getNodePath">
<polygon fill="none" stroke="black" points="289,-464 289,-483 421,-483 421,-464 289,-464"/>
<text text-anchor="middle" x="355" y="-471" font-family="Helvetica,sans-Serif" font-size="10.00">vili::Attribute::getNodePath</text>
</a>
</g>
</g>
<!-- Node384&#45;&gt;Node390 -->
<g id="edge7" class="edge"><title>Node384&#45;&gt;Node390</title>
<path fill="none" stroke="midnightblue" d="M216.774,-348.749C245.847,-375.179 305.373,-429.293 335.564,-456.74"/>
<polygon fill="midnightblue" stroke="midnightblue" points="333.498,-459.592 343.251,-463.728 338.206,-454.412 333.498,-459.592"/>
</g>
<!-- Node386 -->
<g id="node4" class="node"><title>Node386</title>
<g id="a_node4"><a xlink:href="classaube_1_1_error_message.html#a3a39b6fcd8fdb12eaf6383123535b8ca" target="_top" xlink:title="aube::ErrorMessage\l::getFile">
<polygon fill="none" stroke="black" points="473,-245.5 473,-275.5 577,-275.5 577,-245.5 473,-245.5"/>
<text text-anchor="start" x="481" y="-263.5" font-family="Helvetica,sans-Serif" font-size="10.00">aube::ErrorMessage</text>
<text text-anchor="middle" x="525" y="-252.5" font-family="Helvetica,sans-Serif" font-size="10.00">::getFile</text>
</a>
</g>
</g>
<!-- Node385&#45;&gt;Node386 -->
<g id="edge3" class="edge"><title>Node385&#45;&gt;Node386</title>
<path fill="none" stroke="midnightblue" d="M400.997,-318.457C407.813,-315.73 414.675,-312.72 421,-309.5 438.137,-300.777 439.878,-294.253 457,-285.5 461.026,-283.442 465.263,-281.463 469.569,-279.583"/>
<polygon fill="midnightblue" stroke="midnightblue" points="471.166,-282.709 479.051,-275.632 468.474,-276.248 471.166,-282.709"/>
</g>
<!-- Node387 -->
<g id="node5" class="node"><title>Node387</title>
<g id="a_node5"><a xlink:href="classaube_1_1_error_message.html#a9184cc96589578f434351c105b0cd5f7" target="_top" xlink:title="aube::ErrorMessage\l::getLocation">
<polygon fill="none" stroke="black" points="473,-392.5 473,-422.5 577,-422.5 577,-392.5 473,-392.5"/>
<text text-anchor="start" x="481" y="-410.5" font-family="Helvetica,sans-Serif" font-size="10.00">aube::ErrorMessage</text>
<text text-anchor="middle" x="525" y="-399.5" font-family="Helvetica,sans-Serif" font-size="10.00">::getLocation</text>
</a>
</g>
</g>
<!-- Node385&#45;&gt;Node387 -->
<g id="edge4" class="edge"><title>Node385&#45;&gt;Node387</title>
<path fill="none" stroke="midnightblue" d="M384.322,-348.62C404.345,-359.037 431.97,-372.864 457,-383.5 461.321,-385.336 465.836,-387.156 470.391,-388.924"/>
<polygon fill="midnightblue" stroke="midnightblue" points="469.159,-392.2 479.75,-392.469 471.638,-385.654 469.159,-392.2"/>
</g>
<!-- Node388 -->
<g id="node6" class="node"><title>Node388</title>
<g id="a_node6"><a xlink:href="classaube_1_1_error_message.html#a07927cb3e2d0712c459cc9e2b5f52696" target="_top" xlink:title="aube::ErrorMessage\l::getMessage">
<polygon fill="none" stroke="black" points="473,-343.5 473,-373.5 577,-373.5 577,-343.5 473,-343.5"/>
<text text-anchor="start" x="481" y="-361.5" font-family="Helvetica,sans-Serif" font-size="10.00">aube::ErrorMessage</text>
<text text-anchor="middle" x="525" y="-350.5" font-family="Helvetica,sans-Serif" font-size="10.00">::getMessage</text>
</a>
</g>
</g>
<!-- Node385&#45;&gt;Node388 -->
<g id="edge5" class="edge"><title>Node385&#45;&gt;Node388</title>
<path fill="none" stroke="midnightblue" d="M404.142,-340.664C422.472,-343.392 443.607,-346.537 462.976,-349.419"/>
<polygon fill="midnightblue" stroke="midnightblue" points="462.513,-352.889 472.919,-350.899 463.543,-345.965 462.513,-352.889"/>
</g>
<!-- Node389 -->
<g id="node7" class="node"><title>Node389</title>
<g id="a_node7"><a xlink:href="classaube_1_1_error_message.html#a77c2f9b7e93542c958173b52da267989" target="_top" xlink:title="aube::ErrorMessage\l::getHints">
<polygon fill="none" stroke="black" points="473,-294.5 473,-324.5 577,-324.5 577,-294.5 473,-294.5"/>
<text text-anchor="start" x="481" y="-312.5" font-family="Helvetica,sans-Serif" font-size="10.00">aube::ErrorMessage</text>
<text text-anchor="middle" x="525" y="-301.5" font-family="Helvetica,sans-Serif" font-size="10.00">::getHints</text>
</a>
</g>
</g>
<!-- Node385&#45;&gt;Node389 -->
<g id="edge6" class="edge"><title>Node385&#45;&gt;Node389</title>
<path fill="none" stroke="midnightblue" d="M404.142,-326.623C422.472,-324.004 443.607,-320.985 462.976,-318.218"/>
<polygon fill="midnightblue" stroke="midnightblue" points="463.515,-321.676 472.919,-316.797 462.525,-314.747 463.515,-321.676"/>
</g>
<!-- Node391 -->
<g id="node9" class="node"><title>Node391</title>
<g id="a_node9"><a xlink:href="classvili_1_1_attribute.html#a1ed7aaea237378cc2b3ab767a864ced8" target="_top" xlink:title="vili::Attribute::getParent">
<polygon fill="none" stroke="black" points="466,-442 466,-461 584,-461 584,-442 466,-442"/>
<text text-anchor="middle" x="525" y="-449" font-family="Helvetica,sans-Serif" font-size="10.00">vili::Attribute::getParent</text>
</a>
</g>
</g>
<!-- Node390&#45;&gt;Node391 -->
<g id="edge8" class="edge"><title>Node390&#45;&gt;Node391</title>
<path fill="none" stroke="midnightblue" d="M421.434,-464.931C432.65,-463.463 444.33,-461.933 455.621,-460.454"/>
<polygon fill="midnightblue" stroke="midnightblue" points="456.394,-463.883 465.855,-459.114 455.485,-456.942 456.394,-463.883"/>
</g>
<!-- Node392 -->
<g id="node10" class="node"><title>Node392</title>
<g id="a_node10"><a xlink:href="classvili_1_1_attribute.html#a4af867485d90f3ce77332995e5dcfc5f" target="_top" xlink:title="vili::Attribute::getID">
<polygon fill="none" stroke="black" points="476,-568 476,-587 574,-587 574,-568 476,-568"/>
<text text-anchor="middle" x="525" y="-575" font-family="Helvetica,sans-Serif" font-size="10.00">vili::Attribute::getID</text>
</a>
</g>
</g>
<!-- Node390&#45;&gt;Node392 -->
<g id="edge9" class="edge"><title>Node390&#45;&gt;Node392</title>
<path fill="none" stroke="midnightblue" d="M364.749,-483.188C381.143,-500.763 418.335,-537.978 457,-558.5 461.248,-560.755 465.794,-562.768 470.443,-564.56"/>
<polygon fill="midnightblue" stroke="midnightblue" points="469.471,-567.928 480.066,-567.933 471.787,-561.322 469.471,-567.928"/>
</g>
<!-- Node393 -->
<g id="node11" class="node"><title>Node393</title>
<g id="a_node11"><a xlink:href="classvili_1_1_attribute.html#a1ec7ebd0bd596dd848151d37bba8c1b4" target="_top" xlink:title="vili::Attribute::getAnnotation">
<polygon fill="none" stroke="black" points="457,-530 457,-549 593,-549 593,-530 457,-530"/>
<text text-anchor="middle" x="525" y="-537" font-family="Helvetica,sans-Serif" font-size="10.00">vili::Attribute::getAnnotation</text>
</a>
</g>
</g>
<!-- Node390&#45;&gt;Node393 -->
<g id="edge10" class="edge"><title>Node390&#45;&gt;Node393</title>
<path fill="none" stroke="midnightblue" d="M374.238,-483.065C394.181,-493.267 427.27,-509.447 457,-520.5 463.32,-522.85 470.066,-525.077 476.752,-527.124"/>
<polygon fill="midnightblue" stroke="midnightblue" points="475.867,-530.512 486.449,-529.988 477.849,-523.799 475.867,-530.512"/>
</g>
<!-- Node394 -->
<g id="node12" class="node"><title>Node394</title>
<g id="a_node12"><a xlink:href="namespacevili_1_1_functions_1_1_vector.html#a10836e1fe04648534cfc59d9de9acd72" target="_top" xlink:title="vili::Functions::Vector\l::join">
<polygon fill="none" stroke="black" points="470,-480.5 470,-510.5 580,-510.5 580,-480.5 470,-480.5"/>
<text text-anchor="start" x="478" y="-498.5" font-family="Helvetica,sans-Serif" font-size="10.00">vili::Functions::Vector</text>
<text text-anchor="middle" x="525" y="-487.5" font-family="Helvetica,sans-Serif" font-size="10.00">::join</text>
</a>
</g>
</g>
<!-- Node390&#45;&gt;Node394 -->
<g id="edge11" class="edge"><title>Node390&#45;&gt;Node394</title>
<path fill="none" stroke="midnightblue" d="M421.434,-482.069C434.084,-483.725 447.324,-485.459 459.93,-487.11"/>
<polygon fill="midnightblue" stroke="midnightblue" points="459.509,-490.585 469.879,-488.413 460.418,-483.644 459.509,-490.585"/>
</g>
<!-- Node395&#45;&gt;Node385 -->
<g id="edge24" class="edge"><title>Node395&#45;&gt;Node385</title>
<path fill="none" stroke="midnightblue" d="M245.372,-298.937C261.541,-304.081 279.961,-309.942 296.982,-315.358"/>
<polygon fill="midnightblue" stroke="midnightblue" points="296.223,-318.789 306.814,-318.486 298.346,-312.119 296.223,-318.789"/>
</g>
<!-- Node395&#45;&gt;Node390 -->
<g id="edge25" class="edge"><title>Node395&#45;&gt;Node390</title>
<path fill="none" stroke="midnightblue" d="M238.999,-299.635C244.005,-302.488 248.83,-305.769 253,-309.5 265.433,-320.622 319.85,-414.05 343.245,-454.714"/>
<polygon fill="midnightblue" stroke="midnightblue" points="340.345,-456.691 348.359,-463.621 346.415,-453.206 340.345,-456.691"/>
</g>
<!-- Node396 -->
<g id="node14" class="node"><title>Node396</title>
<g id="a_node14"><a xlink:href="namespacevili_1_1_types.html#a954a0d867af2b4d9b5aba4a5e9ce3603" target="_top" xlink:title="vili::Types::getVarType">
<polygon fill="none" stroke="black" points="297.5,-129 297.5,-148 412.5,-148 412.5,-129 297.5,-129"/>
<text text-anchor="middle" x="355" y="-136" font-family="Helvetica,sans-Serif" font-size="10.00">vili::Types::getVarType</text>
</a>
</g>
</g>
<!-- Node395&#45;&gt;Node396 -->
<g id="edge13" class="edge"><title>Node395&#45;&gt;Node396</title>
<path fill="none" stroke="midnightblue" d="M215.901,-269.425C244.965,-241.871 306.444,-183.585 336.591,-155.004"/>
<polygon fill="midnightblue" stroke="midnightblue" points="339.028,-157.517 343.877,-148.097 334.212,-152.437 339.028,-157.517"/>
</g>
<!-- Node406 -->
<g id="node24" class="node"><title>Node406</title>
<g id="a_node24"><a xlink:href="namespacevili_1_1_functions_1_1_string.html#ad7421099a2ab911f64f06d89abc7d7cf" target="_top" xlink:title="vili::Functions::String\l::extract">
<polygon fill="none" stroke="black" points="301.5,-269.5 301.5,-299.5 408.5,-299.5 408.5,-269.5 301.5,-269.5"/>
<text text-anchor="start" x="309.5" y="-287.5" font-family="Helvetica,sans-Serif" font-size="10.00">vili::Functions::String</text>
<text text-anchor="middle" x="355" y="-276.5" font-family="Helvetica,sans-Serif" font-size="10.00">::extract</text>
</a>
</g>
</g>
<!-- Node395&#45;&gt;Node406 -->
<g id="edge23" class="edge"><title>Node395&#45;&gt;Node406</title>
<path fill="none" stroke="midnightblue" d="M245.372,-284.5C259.645,-284.5 275.674,-284.5 290.945,-284.5"/>
<polygon fill="midnightblue" stroke="midnightblue" points="291.365,-288 301.365,-284.5 291.365,-281 291.365,-288"/>
</g>
<!-- Node396&#45;&gt;Node397 -->
<g id="edge14" class="edge"><title>Node396&#45;&gt;Node397</title>
<path fill="none" stroke="midnightblue" d="M363.323,-128.945C378.679,-109.509 416.218,-65.0504 457,-39.5 459.587,-37.8795 462.298,-36.3483 465.086,-34.9042"/>
<polygon fill="midnightblue" stroke="midnightblue" points="466.655,-38.0336 474.191,-30.586 463.655,-31.7088 466.655,-38.0336"/>
</g>
<!-- Node398 -->
<g id="node16" class="node"><title>Node398</title>
<g id="a_node16"><a xlink:href="namespacevili_1_1_functions_1_1_string.html#a1fbc6d2a04846beafb94140e7f0e7ed2" target="_top" xlink:title="Count of the occurences of occur in string str. ">
<polygon fill="none" stroke="black" points="471.5,-49.5 471.5,-79.5 578.5,-79.5 578.5,-49.5 471.5,-49.5"/>
<text text-anchor="start" x="479.5" y="-67.5" font-family="Helvetica,sans-Serif" font-size="10.00">vili::Functions::String</text>
<text text-anchor="middle" x="525" y="-56.5" font-family="Helvetica,sans-Serif" font-size="10.00">::occurencesInString</text>
</a>
</g>
</g>
<!-- Node396&#45;&gt;Node398 -->
<g id="edge15" class="edge"><title>Node396&#45;&gt;Node398</title>
<path fill="none" stroke="midnightblue" d="M373.95,-128.824C393.919,-118.247 427.288,-101.126 457,-88.5 461.321,-86.6637 465.836,-84.8438 470.391,-83.0758"/>
<polygon fill="midnightblue" stroke="midnightblue" points="471.638,-86.3463 479.75,-79.5311 469.159,-79.8001 471.638,-86.3463"/>
</g>
<!-- Node399 -->
<g id="node17" class="node"><title>Node399</title>
<g id="a_node17"><a xlink:href="namespacevili_1_1_functions_1_1_string.html#a47cfebfa3355133cfbf43f9f2e435bf4" target="_top" xlink:title="Get if the string is an integer. ">
<polygon fill="none" stroke="black" points="471.5,-196.5 471.5,-226.5 578.5,-226.5 578.5,-196.5 471.5,-196.5"/>
<text text-anchor="start" x="479.5" y="-214.5" font-family="Helvetica,sans-Serif" font-size="10.00">vili::Functions::String</text>
<text text-anchor="middle" x="525" y="-203.5" font-family="Helvetica,sans-Serif" font-size="10.00">::isStringInt</text>
</a>
</g>
</g>
<!-- Node396&#45;&gt;Node399 -->
<g id="edge16" class="edge"><title>Node396&#45;&gt;Node399</title>
<path fill="none" stroke="midnightblue" d="M374.765,-148.018C394.88,-158.078 427.858,-174.165 457,-186.5 462.002,-188.617 467.251,-190.741 472.517,-192.807"/>
<polygon fill="midnightblue" stroke="midnightblue" points="471.374,-196.117 481.964,-196.45 473.893,-189.586 471.374,-196.117"/>
</g>
<!-- Node400 -->
<g id="node18" class="node"><title>Node400</title>
<g id="a_node18"><a xlink:href="namespacevili_1_1_functions_1_1_string.html#a9133ec632cc286cede9c5403c5b593b2" target="_top" xlink:title="Splits a std::string using a delimited. ">
<polygon fill="none" stroke="black" points="471.5,-147.5 471.5,-177.5 578.5,-177.5 578.5,-147.5 471.5,-147.5"/>
<text text-anchor="start" x="479.5" y="-165.5" font-family="Helvetica,sans-Serif" font-size="10.00">vili::Functions::String</text>
<text text-anchor="middle" x="525" y="-154.5" font-family="Helvetica,sans-Serif" font-size="10.00">::split</text>
</a>
</g>
</g>
<!-- Node396&#45;&gt;Node400 -->
<g id="edge17" class="edge"><title>Node396&#45;&gt;Node400</title>
<path fill="none" stroke="midnightblue" d="M412.877,-146.625C428.416,-148.845 445.343,-151.263 461.192,-153.527"/>
<polygon fill="midnightblue" stroke="midnightblue" points="461.032,-157.04 471.427,-154.99 462.022,-150.11 461.032,-157.04"/>
</g>
<!-- Node401 -->
<g id="node19" class="node"><title>Node401</title>
<g id="a_node19"><a xlink:href="namespacevili_1_1_functions_1_1_string.html#a531ad73fd3a5a004a5430dc7476dc805" target="_top" xlink:title="Get if the string is a float. ">
<polygon fill="none" stroke="black" points="471.5,-98.5 471.5,-128.5 578.5,-128.5 578.5,-98.5 471.5,-98.5"/>
<text text-anchor="start" x="479.5" y="-116.5" font-family="Helvetica,sans-Serif" font-size="10.00">vili::Functions::String</text>
<text text-anchor="middle" x="525" y="-105.5" font-family="Helvetica,sans-Serif" font-size="10.00">::isStringFloat</text>
</a>
</g>
</g>
<!-- Node396&#45;&gt;Node401 -->
<g id="edge18" class="edge"><title>Node396&#45;&gt;Node401</title>
<path fill="none" stroke="midnightblue" d="M412.877,-130.036C428.416,-127.724 445.343,-125.205 461.192,-122.846"/>
<polygon fill="midnightblue" stroke="midnightblue" points="462.051,-126.257 471.427,-121.323 461.021,-119.333 462.051,-126.257"/>
</g>
<!-- Node402 -->
<g id="node20" class="node"><title>Node402</title>
<g id="a_node20"><a xlink:href="namespaceobe_1_1_utils_1_1_string.html#a6304ccfbd6a3bf086bd3189609381f70" target="_top" xlink:title="Count of the occurences of occur in string str. ">
<polygon fill="none" stroke="black" points="637,-147.5 637,-177.5 743,-177.5 743,-147.5 637,-147.5"/>
<text text-anchor="start" x="645" y="-165.5" font-family="Helvetica,sans-Serif" font-size="10.00">obe::Utils::String</text>
<text text-anchor="middle" x="690" y="-154.5" font-family="Helvetica,sans-Serif" font-size="10.00">::occurencesInString</text>
</a>
</g>
</g>
<!-- Node401&#45;&gt;Node402 -->
<g id="edge19" class="edge"><title>Node401&#45;&gt;Node402</title>
<path fill="none" stroke="midnightblue" d="M576.235,-128.601C592.891,-133.608 611.6,-139.232 628.919,-144.439"/>
<polygon fill="midnightblue" stroke="midnightblue" points="628.346,-147.921 638.93,-147.448 630.361,-141.218 628.346,-147.921"/>
</g>
<!-- Node403 -->
<g id="node21" class="node"><title>Node403</title>
<g id="a_node21"><a xlink:href="namespacevili_1_1_functions_1_1_string.html#a8d1e845c06f563c1a18e8c9d2adc34af" target="_top" xlink:title="vili::Functions::String\l::removeCharFromString">
<polygon fill="none" stroke="black" points="629,-98.5 629,-128.5 751,-128.5 751,-98.5 629,-98.5"/>
<text text-anchor="start" x="637" y="-116.5" font-family="Helvetica,sans-Serif" font-size="10.00">vili::Functions::String</text>
<text text-anchor="middle" x="690" y="-105.5" font-family="Helvetica,sans-Serif" font-size="10.00">::removeCharFromString</text>
</a>
</g>
</g>
<!-- Node401&#45;&gt;Node403 -->
<g id="edge20" class="edge"><title>Node401&#45;&gt;Node403</title>
<path fill="none" stroke="midnightblue" d="M578.921,-113.5C591.663,-113.5 605.471,-113.5 618.862,-113.5"/>
<polygon fill="midnightblue" stroke="midnightblue" points="618.996,-117 628.996,-113.5 618.996,-110 618.996,-117"/>
</g>
<!-- Node404 -->
<g id="node22" class="node"><title>Node404</title>
<g id="a_node22"><a xlink:href="namespaceobe_1_1_utils_1_1_string.html#ad9d5afbd60c8e3c6894ad5c782de001a" target="_top" xlink:title="Replace all the occurences of search to replace in the string subject in place. ">
<polygon fill="none" stroke="black" points="645.5,-49.5 645.5,-79.5 734.5,-79.5 734.5,-49.5 645.5,-49.5"/>
<text text-anchor="start" x="653.5" y="-67.5" font-family="Helvetica,sans-Serif" font-size="10.00">obe::Utils::String</text>
<text text-anchor="middle" x="690" y="-56.5" font-family="Helvetica,sans-Serif" font-size="10.00">::replaceInPlace</text>
</a>
</g>
</g>
<!-- Node401&#45;&gt;Node404 -->
<g id="edge21" class="edge"><title>Node401&#45;&gt;Node404</title>
<path fill="none" stroke="midnightblue" d="M576.235,-98.3986C595.034,-92.7473 616.449,-86.3098 635.53,-80.5739"/>
<polygon fill="midnightblue" stroke="midnightblue" points="636.7,-83.877 645.269,-77.6462 634.684,-77.1733 636.7,-83.877"/>
</g>
<!-- Node405 -->
<g id="node23" class="node"><title>Node405</title>
<g id="a_node23"><a xlink:href="namespaceobe_1_1_utils_1_1_string.html#ad648e63a60e1fce71a321037fbee4e30" target="_top" xlink:title="Replace all the occurences of search to replace in the string subject. ">
<polygon fill="none" stroke="black" points="787,-49.5 787,-79.5 876,-79.5 876,-49.5 787,-49.5"/>
<text text-anchor="start" x="795" y="-67.5" font-family="Helvetica,sans-Serif" font-size="10.00">obe::Utils::String</text>
<text text-anchor="middle" x="831.5" y="-56.5" font-family="Helvetica,sans-Serif" font-size="10.00">::replace</text>
</a>
</g>
</g>
<!-- Node404&#45;&gt;Node405 -->
<g id="edge22" class="edge"><title>Node404&#45;&gt;Node405</title>
<path fill="none" stroke="midnightblue" d="M734.756,-64.5C748,-64.5 762.703,-64.5 776.533,-64.5"/>
<polygon fill="midnightblue" stroke="midnightblue" points="776.899,-68.0001 786.899,-64.5 776.899,-61.0001 776.899,-68.0001"/>
</g>
</g>
</svg>
