<?xml version="1.0" encoding="UTF-8" standalone="no"?>
<!DOCTYPE svg PUBLIC "-//W3C//DTD SVG 1.1//EN"
 "http://www.w3.org/Graphics/SVG/1.1/DTD/svg11.dtd">
<!-- Generated by graphviz version 2.38.0 (20140413.2041)
 -->
<!-- Title: obe::Animation::Animator::getAnimation Pages: 1 -->
<svg width="712pt" height="61pt"
 viewBox="0.00 0.00 712.00 61.00" xmlns="http://www.w3.org/2000/svg" xmlns:xlink="http://www.w3.org/1999/xlink">
<g id="graph0" class="graph" transform="scale(1 1) rotate(0) translate(4 57)">
<title>obe::Animation::Animator::getAnimation</title>
<!-- Node20 -->
<g id="node1" class="node"><title>Node20</title>
<polygon fill="#bfbfbf" stroke="black" points="0,-0.5 0,-30.5 127,-30.5 127,-0.5 0,-0.5"/>
<text text-anchor="start" x="8" y="-18.5" font-family="Helvetica,sans-Serif" font-size="10.00">obe::Animation::Animator</text>
<text text-anchor="middle" x="63.5" y="-7.5" font-family="Helvetica,sans-Serif" font-size="10.00">::getAnimation</text>
</g>
<!-- Node21 -->
<g id="node2" class="node"><title>Node21</title>
<g id="a_node2"><a xlink:href="classobe_1_1_animation_1_1_animator.html#a608b6df6159ee25a6f2e4afa7db2a162" target="_top" xlink:title="Calls Animation::getTextureAtIndex. ">
<polygon fill="white" stroke="black" points="163,-22.5 163,-52.5 290,-52.5 290,-22.5 163,-22.5"/>
<text text-anchor="start" x="171" y="-40.5" font-family="Helvetica,sans-Serif" font-size="10.00">obe::Animation::Animator</text>
<text text-anchor="middle" x="226.5" y="-29.5" font-family="Helvetica,sans-Serif" font-size="10.00">::getTextureAtKey</text>
</a>
</g>
</g>
<!-- Node20&#45;&gt;Node21 -->
<g id="edge1" class="edge"><title>Node20&#45;&gt;Node21</title>
<path fill="none" stroke="midnightblue" d="M137.218,-25.4367C145.813,-26.6111 154.527,-27.8018 162.963,-28.9546"/>
<polygon fill="midnightblue" stroke="midnightblue" points="137.59,-21.955 127.208,-24.0688 136.642,-28.8905 137.59,-21.955"/>
</g>
<!-- Node22 -->
<g id="node3" class="node"><title>Node22</title>
<g id="a_node3"><a xlink:href="namespaceobe_1_1_bindings_1_1_animation_bindings.html#ab0eea6adc605854faee6aefa85a9ad10" target="_top" xlink:title="obe::Bindings::Animation\lBindings::LoadAnimator">
<polygon fill="white" stroke="black" points="326,-0.5 326,-30.5 451,-30.5 451,-0.5 326,-0.5"/>
<text text-anchor="start" x="334" y="-18.5" font-family="Helvetica,sans-Serif" font-size="10.00">obe::Bindings::Animation</text>
<text text-anchor="middle" x="388.5" y="-7.5" font-family="Helvetica,sans-Serif" font-size="10.00">Bindings::LoadAnimator</text>
</a>
</g>
</g>
<!-- Node20&#45;&gt;Node22 -->
<g id="edge5" class="edge"><title>Node20&#45;&gt;Node22</title>
<path fill="none" stroke="midnightblue" d="M137.184,-13.8575C145.883,-13.7102 154.641,-13.5849 163,-13.5 219.442,-12.927 233.559,-12.9212 290,-13.5 301.597,-13.6189 313.968,-13.8174 325.87,-14.0444"/>
<polygon fill="midnightblue" stroke="midnightblue" points="136.961,-10.3608 127.026,-14.0394 137.087,-17.3597 136.961,-10.3608"/>
</g>
<!-- Node21&#45;&gt;Node22 -->
<g id="edge2" class="edge"><title>Node21&#45;&gt;Node22</title>
<path fill="none" stroke="midnightblue" d="M300.275,-27.4935C308.855,-26.3136 317.548,-25.1184 325.953,-23.9628"/>
<polygon fill="midnightblue" stroke="midnightblue" points="299.707,-24.0385 290.277,-28.8682 300.661,-30.9733 299.707,-24.0385"/>
</g>
<!-- Node23 -->
<g id="node4" class="node"><title>Node23</title>
<g id="a_node4"><a xlink:href="namespaceobe_1_1_bindings.html#a41d33207a0199f125c75a0f70a4a3ba8" target="_top" xlink:title="To call when the engine starts, indexes all Lua bindings. ">
<polygon fill="white" stroke="black" points="487,-6 487,-25 630,-25 630,-6 487,-6"/>
<text text-anchor="middle" x="558.5" y="-13" font-family="Helvetica,sans-Serif" font-size="10.00">obe::Bindings::IndexBindings</text>
</a>
</g>
</g>
<!-- Node22&#45;&gt;Node23 -->
<g id="edge3" class="edge"><title>Node22&#45;&gt;Node23</title>
<path fill="none" stroke="midnightblue" d="M461.304,-15.5C469.754,-15.5 478.373,-15.5 486.808,-15.5"/>
<polygon fill="midnightblue" stroke="midnightblue" points="461.103,-12.0001 451.103,-15.5 461.103,-19.0001 461.103,-12.0001"/>
</g>
<!-- Node24 -->
<g id="node5" class="node"><title>Node24</title>
<g id="a_node5"><a xlink:href="_ob_engine_8cpp.html#a3c04138a5bfe5d72780bb7e82a18e627" target="_top" xlink:title="main">
<polygon fill="white" stroke="black" points="666,-6 666,-25 704,-25 704,-6 666,-6"/>
<text text-anchor="middle" x="685" y="-13" font-family="Helvetica,sans-Serif" font-size="10.00">main</text>
</a>
</g>
</g>
<!-- Node23&#45;&gt;Node24 -->
<g id="edge4" class="edge"><title>Node23&#45;&gt;Node24</title>
<path fill="none" stroke="midnightblue" d="M640.161,-15.5C649.623,-15.5 658.462,-15.5 665.688,-15.5"/>
<polygon fill="midnightblue" stroke="midnightblue" points="640.117,-12.0001 630.117,-15.5 640.117,-19.0001 640.117,-12.0001"/>
</g>
</g>
</svg>
