<?xml version="1.0" encoding="UTF-8" standalone="no"?>
<!DOCTYPE svg PUBLIC "-//W3C//DTD SVG 1.1//EN"
 "http://www.w3.org/Graphics/SVG/1.1/DTD/svg11.dtd">
<!-- Generated by graphviz version 2.38.0 (20140413.2041)
 -->
<!-- Title: obe::Triggers::TriggerDatabase::joinTriggerGroup Pages: 1 -->
<!--zoomable 97 -->
<svg id="main" version="1.1" xmlns="http://www.w3.org/2000/svg" xmlns:xlink="http://www.w3.org/1999/xlink" xml:space="preserve" onload="init(evt)">
<style type="text/css"><![CDATA[
.edge:hover path { stroke: red; }
.edge:hover polygon { stroke: red; fill: red; }
.edge path { stroke: white; }
.edge polygon { stroke: white; fill: white; }
.node polygon { fill: white; }
]]></style>
<script type="text/javascript"><![CDATA[
var edges = document.getElementsByTagName('g');
if (edges && edges.length) {
  for (var i=0;i<edges.length;i++) {
    if (edges[i].id.substr(0,4)=='edge') {
      edges[i].setAttribute('class','edge');
    }
  }
}
]]></script>
        <defs>
                <circle id="rim" cx="0" cy="0" r="7"/>
                <circle id="rim2" cx="0" cy="0" r="3.5"/>
                <g id="zoomPlus">
                        <use xlink:href="#rim" fill="#404040">
                                <set attributeName="fill" to="#808080" begin="zoomplus.mouseover" end="zoomplus.mouseout"/>
                        </use>
                        <path d="M-4,0h8M0,-4v8" fill="none" stroke="white" stroke-width="1.5" pointer-events="none"/>
                </g>
                <g id="zoomMin">
                        <use xlink:href="#rim" fill="#404040">
                                <set attributeName="fill" to="#808080" begin="zoomminus.mouseover" end="zoomminus.mouseout"/>
                        </use>
                        <path d="M-4,0h8" fill="none" stroke="white" stroke-width="1.5" pointer-events="none"/>
                </g>
                <g id="dirArrow">
                        <path fill="none" stroke="white" stroke-width="1.5" d="M0,-3.0v7 M-2.5,-0.5L0,-3.0L2.5,-0.5"/>
                </g>
               <g id="resetDef">
                       <use xlink:href="#rim2" fill="#404040">
                               <set attributeName="fill" to="#808080" begin="reset.mouseover" end="reset.mouseout"/>
                       </use>
               </g>
        </defs>

<script type="text/javascript">
var viewWidth = 1227;
var viewHeight = 97;
var sectionId = 'dynsection-14';
</script>
<script xlink:href="svgpan.js"/>
<svg id="graph" class="graph">
<g id="viewport">
<title>obe::Triggers::TriggerDatabase::joinTriggerGroup</title>
<!-- Node104 -->
<g id="node1" class="node"><title>Node104</title>
<polygon fill="#bfbfbf" stroke="black" points="0,-24.5 0,-54.5 149,-54.5 149,-24.5 0,-24.5"/>
<text text-anchor="start" x="8" y="-42.5" font-family="Helvetica,sans-Serif" font-size="10.00">obe::Triggers::TriggerDatabase</text>
<text text-anchor="middle" x="74.5" y="-31.5" font-family="Helvetica,sans-Serif" font-size="10.00">::joinTriggerGroup</text>
</g>
<!-- Node105 -->
<g id="node2" class="node"><title>Node105</title>
<g id="a_node2"><a xlink:href="namespaceobe_1_1_bindings_1_1_triggers_bindings.html#a9a549fbc75acd6cf3f1faabd0996ab71" target="_top" xlink:title="obe::Bindings::TriggersBindings\l::LoadTriggerDatabase">
<polygon fill="none" stroke="black" points="185,-49.5 185,-79.5 339,-79.5 339,-49.5 185,-49.5"/>
<text text-anchor="start" x="193" y="-67.5" font-family="Helvetica,sans-Serif" font-size="10.00">obe::Bindings::TriggersBindings</text>
<text text-anchor="middle" x="262" y="-56.5" font-family="Helvetica,sans-Serif" font-size="10.00">::LoadTriggerDatabase</text>
</a>
</g>
</g>
<!-- Node104&#45;&gt;Node105 -->
<g id="edge1" class="edge"><title>Node104&#45;&gt;Node105</title>
<path fill="none" stroke="midnightblue" d="M159.065,-50.7622C167.627,-51.916 176.293,-53.084 184.77,-54.2264"/>
<polygon fill="midnightblue" stroke="midnightblue" points="159.459,-47.2836 149.081,-49.4166 158.524,-54.2209 159.459,-47.2836"/>
</g>
<!-- Node106 -->
<g id="node3" class="node"><title>Node106</title>
<g id="a_node3"><a xlink:href="namespaceobe_1_1_script_1_1_core_lib.html#a94684c4b34b9c53b5bcf31d052cf6faf" target="_top" xlink:title="obe::Script::CoreLib\l::loadTrigger">
<polygon fill="none" stroke="black" points="210.5,-0.5 210.5,-30.5 313.5,-30.5 313.5,-0.5 210.5,-0.5"/>
<text text-anchor="start" x="218.5" y="-18.5" font-family="Helvetica,sans-Serif" font-size="10.00">obe::Script::CoreLib</text>
<text text-anchor="middle" x="262" y="-7.5" font-family="Helvetica,sans-Serif" font-size="10.00">::loadTrigger</text>
</a>
</g>
</g>
<!-- Node104&#45;&gt;Node106 -->
<g id="edge2" class="edge"><title>Node104&#45;&gt;Node106</title>
<path fill="none" stroke="midnightblue" d="M159.275,-28.6612C176.703,-26.4063 194.559,-24.0962 210.348,-22.0533"/>
<polygon fill="midnightblue" stroke="midnightblue" points="158.549,-25.2258 149.081,-29.9801 159.447,-32.168 158.549,-25.2258"/>
</g>
<!-- Node107 -->
<g id="node4" class="node"><title>Node107</title>
<g id="a_node4"><a xlink:href="namespaceobe_1_1_script.html#abdb81ec0976f1097cef6711415b8fac3" target="_top" xlink:title="obe::Script::loadCoreLib">
<polygon fill="none" stroke="black" points="375,-6 375,-25 496,-25 496,-6 375,-6"/>
<text text-anchor="middle" x="435.5" y="-13" font-family="Helvetica,sans-Serif" font-size="10.00">obe::Script::loadCoreLib</text>
</a>
</g>
</g>
<!-- Node106&#45;&gt;Node107 -->
<g id="edge3" class="edge"><title>Node106&#45;&gt;Node107</title>
<path fill="none" stroke="midnightblue" d="M323.692,-15.5C340.343,-15.5 358.376,-15.5 374.961,-15.5"/>
<polygon fill="midnightblue" stroke="midnightblue" points="323.528,-12.0001 313.528,-15.5 323.528,-19.0001 323.528,-12.0001"/>
</g>
<!-- Node108 -->
<g id="node5" class="node"><title>Node108</title>
<g id="a_node5"><a xlink:href="namespaceobe_1_1_script.html#a4e6ee77032cf7f66544f9b08464a60b7" target="_top" xlink:title="obe::Script::loadLib">
<polygon fill="none" stroke="black" points="533,-50 533,-69 634,-69 634,-50 533,-50"/>
<text text-anchor="middle" x="583.5" y="-57" font-family="Helvetica,sans-Serif" font-size="10.00">obe::Script::loadLib</text>
</a>
</g>
</g>
<!-- Node107&#45;&gt;Node108 -->
<g id="edge4" class="edge"><title>Node107&#45;&gt;Node108</title>
<path fill="none" stroke="midnightblue" d="M477.761,-27.9347C500.959,-34.926 529.468,-43.5177 550.882,-49.9713"/>
<polygon fill="midnightblue" stroke="midnightblue" points="478.764,-24.5818 468.18,-25.0473 476.745,-31.2841 478.764,-24.5818"/>
</g>
<!-- Node113 -->
<g id="node10" class="node"><title>Node113</title>
<g id="a_node10"><a xlink:href="namespaceobe_1_1_script_1_1_core_lib.html#a07d6c11bbb082bc45bdba50d97965c00" target="_top" xlink:title="obe::Script::CoreLib\l::loadCollision">
<polygon fill="none" stroke="black" points="532,-0.5 532,-30.5 635,-30.5 635,-0.5 532,-0.5"/>
<text text-anchor="start" x="540" y="-18.5" font-family="Helvetica,sans-Serif" font-size="10.00">obe::Script::CoreLib</text>
<text text-anchor="middle" x="583.5" y="-7.5" font-family="Helvetica,sans-Serif" font-size="10.00">::loadCollision</text>
</a>
</g>
</g>
<!-- Node107&#45;&gt;Node113 -->
<g id="edge11" class="edge"><title>Node107&#45;&gt;Node113</title>
<path fill="none" stroke="midnightblue" d="M506.356,-8.75557C514.966,-8.72506 523.634,-8.81994 531.88,-9.04021"/>
<polygon fill="midnightblue" stroke="midnightblue" points="506.272,-5.2561 496.305,-8.84898 506.337,-12.2558 506.272,-5.2561"/>
</g>
<!-- Node109 -->
<g id="node6" class="node"><title>Node109</title>
<g id="a_node6"><a xlink:href="namespaceobe_1_1_modes.html#a1e38c0d9a2ca0230f0de79c298f53ab9" target="_top" xlink:title="A mode that will start the Toolkit. ">
<polygon fill="none" stroke="black" points="830,-50 830,-69 976,-69 976,-50 830,-50"/>
<text text-anchor="middle" x="903" y="-57" font-family="Helvetica,sans-Serif" font-size="10.00">obe::Modes::startToolkitMode</text>
</a>
</g>
</g>
<!-- Node108&#45;&gt;Node109 -->
<g id="edge5" class="edge"><title>Node108&#45;&gt;Node109</title>
<path fill="none" stroke="midnightblue" d="M644.301,-59.5C696.934,-59.5 773.702,-59.5 829.756,-59.5"/>
<polygon fill="midnightblue" stroke="midnightblue" points="644.109,-56.0001 634.109,-59.5 644.109,-63.0001 644.109,-56.0001"/>
</g>
<!-- Node112 -->
<g id="node9" class="node"><title>Node112</title>
<g id="a_node9"><a xlink:href="namespaceobe_1_1_script.html#aad6ef67388e6d16eb01853f208da410f" target="_top" xlink:title="obe::Script::loadBaseLib">
<polygon fill="none" stroke="black" points="671,-31 671,-50 794,-50 794,-31 671,-31"/>
<text text-anchor="middle" x="732.5" y="-38" font-family="Helvetica,sans-Serif" font-size="10.00">obe::Script::loadBaseLib</text>
</a>
</g>
</g>
<!-- Node108&#45;&gt;Node112 -->
<g id="edge9" class="edge"><title>Node108&#45;&gt;Node112</title>
<path fill="none" stroke="midnightblue" d="M644.361,-51.7629C653.089,-50.6348 662.083,-49.4722 670.828,-48.342"/>
<polygon fill="midnightblue" stroke="midnightblue" points="643.736,-48.3144 634.267,-53.0675 644.634,-55.2567 643.736,-48.3144"/>
</g>
<!-- Node110 -->
<g id="node7" class="node"><title>Node110</title>
<g id="a_node7"><a xlink:href="namespaceobe_1_1_modes.html#a6a8b08eee511d4895c4da96d4ba223a6" target="_top" xlink:title="Starts the development Menu where you can starts other menus from. ">
<polygon fill="none" stroke="black" points="1012,-69 1012,-88 1145,-88 1145,-69 1012,-69"/>
<text text-anchor="middle" x="1078.5" y="-76" font-family="Helvetica,sans-Serif" font-size="10.00">obe::Modes::startDevMenu</text>
</a>
</g>
</g>
<!-- Node109&#45;&gt;Node110 -->
<g id="edge6" class="edge"><title>Node109&#45;&gt;Node110</title>
<path fill="none" stroke="midnightblue" d="M986.118,-68.4927C994.716,-69.4343 1003.37,-70.3825 1011.76,-71.3003"/>
<polygon fill="midnightblue" stroke="midnightblue" points="986.394,-65.0021 976.072,-67.3926 985.632,-71.9605 986.394,-65.0021"/>
</g>
<!-- Node111 -->
<g id="node8" class="node"><title>Node111</title>
<g id="a_node8"><a xlink:href="_ob_engine_8cpp.html#a3c04138a5bfe5d72780bb7e82a18e627" target="_top" xlink:title="main">
<polygon fill="none" stroke="black" points="1181,-50 1181,-69 1219,-69 1219,-50 1181,-50"/>
<text text-anchor="middle" x="1200" y="-57" font-family="Helvetica,sans-Serif" font-size="10.00">main</text>
</a>
</g>
</g>
<!-- Node109&#45;&gt;Node111 -->
<g id="edge8" class="edge"><title>Node109&#45;&gt;Node111</title>
<path fill="none" stroke="midnightblue" d="M986.308,-59.5C1053.39,-59.5 1142.99,-59.5 1180.87,-59.5"/>
<polygon fill="midnightblue" stroke="midnightblue" points="986.165,-56.0001 976.165,-59.5 986.165,-63.0001 986.165,-56.0001"/>
</g>
<!-- Node110&#45;&gt;Node111 -->
<g id="edge7" class="edge"><title>Node110&#45;&gt;Node111</title>
<path fill="none" stroke="midnightblue" d="M1149.82,-67.3192C1161.35,-65.4869 1172.33,-63.7409 1180.98,-62.3654"/>
<polygon fill="midnightblue" stroke="midnightblue" points="1148.93,-63.9174 1139.6,-68.9443 1150.03,-70.8306 1148.93,-63.9174"/>
</g>
<!-- Node112&#45;&gt;Node109 -->
<g id="edge10" class="edge"><title>Node112&#45;&gt;Node109</title>
<path fill="none" stroke="midnightblue" d="M804.441,-48.4993C812.82,-49.4441 821.38,-50.4093 829.777,-51.3562"/>
<polygon fill="midnightblue" stroke="midnightblue" points="804.662,-45.0021 794.332,-47.3594 803.877,-51.958 804.662,-45.0021"/>
</g>
<!-- Node113&#45;&gt;Node107 -->
<g id="edge12" class="edge"><title>Node113&#45;&gt;Node107</title>
<path fill="none" stroke="midnightblue" d="M521.757,-22.1647C513.342,-22.2828 504.703,-22.2783 496.305,-22.151"/>
<polygon fill="midnightblue" stroke="midnightblue" points="521.953,-25.6616 531.88,-21.9598 521.811,-18.663 521.953,-25.6616"/>
</g>
</g>
</svg>
        <g id="navigator" transform="translate(0 0)" fill="#404254">
                <rect fill="#f2f5e9" fill-opacity="0.5" stroke="#606060" stroke-width=".5" x="0" y="0" width="60" height="60"/>
                <use id="zoomplus" xlink:href="#zoomPlus" x="17" y="9" onmousedown="handleZoom(evt,'in')"/>
                <use id="zoomminus" xlink:href="#zoomMin" x="42" y="9" onmousedown="handleZoom(evt,'out')"/>
                <use id="reset" xlink:href="#resetDef" x="30" y="36" onmousedown="handleReset()"/>
                <g id="arrowUp" xlink:href="#dirArrow" transform="translate(30 24)" onmousedown="handlePan(0,-1)">
                  <use xlink:href="#rim" fill="#404040">
                        <set attributeName="fill" to="#808080" begin="arrowUp.mouseover" end="arrowUp.mouseout"/>
                  </use>
                  <path fill="none" stroke="white" stroke-width="1.5" d="M0,-3.0v7 M-2.5,-0.5L0,-3.0L2.5,-0.5"/>
                </g>
                <g id="arrowRight" xlink:href="#dirArrow" transform="rotate(90) translate(36 -43)" onmousedown="handlePan(1,0)">
                  <use xlink:href="#rim" fill="#404040">
                        <set attributeName="fill" to="#808080" begin="arrowRight.mouseover" end="arrowRight.mouseout"/>
                  </use>
                  <path fill="none" stroke="white" stroke-width="1.5" d="M0,-3.0v7 M-2.5,-0.5L0,-3.0L2.5,-0.5"/>
                </g>
                <g id="arrowDown" xlink:href="#dirArrow" transform="rotate(180) translate(-30 -48)" onmousedown="handlePan(0,1)">
                  <use xlink:href="#rim" fill="#404040">
                        <set attributeName="fill" to="#808080" begin="arrowDown.mouseover" end="arrowDown.mouseout"/>
                  </use>
                  <path fill="none" stroke="white" stroke-width="1.5" d="M0,-3.0v7 M-2.5,-0.5L0,-3.0L2.5,-0.5"/>
                </g>
                <g id="arrowLeft" xlink:href="#dirArrow" transform="rotate(270) translate(-36 17)" onmousedown="handlePan(-1,0)">
                  <use xlink:href="#rim" fill="#404040">
                        <set attributeName="fill" to="#808080" begin="arrowLeft.mouseover" end="arrowLeft.mouseout"/>
                  </use>
                  <path fill="none" stroke="white" stroke-width="1.5" d="M0,-3.0v7 M-2.5,-0.5L0,-3.0L2.5,-0.5"/>
                </g>
        </g>
        <svg viewBox="0 0 15 15" width="100%" height="30px" preserveAspectRatio="xMaxYMin meet">
         <g id="arrow_out" transform="scale(0.3 0.3)">
          <a xlink:href="classobe_1_1_triggers_1_1_trigger_database_a8eaa4768ed4c03613952f241c925b33e_icgraph_org.svg" target="_base">
           <rect id="button" ry="5" rx="5" y="6" x="6" height="38" width="38"
                fill="#f2f5e9" fill-opacity="0.5" stroke="#606060" stroke-width="1.0"/>
           <path id="arrow"
             d="M 11.500037,31.436501 C 11.940474,20.09759 22.043105,11.32322 32.158766,21.979434 L 37.068811,17.246167 C 37.068811,17.246167 37.088388,32 37.088388,32 L 22.160133,31.978069 C 22.160133,31.978069 26.997745,27.140456 26.997745,27.140456 C 18.528582,18.264221 13.291696,25.230495 11.500037,31.436501 z"
             style="fill:#404040;"/>
          </a>
         </g>
        </svg>
</svg>
