<?xml version="1.0" encoding="UTF-8" standalone="no"?>
<!DOCTYPE svg PUBLIC "-//W3C//DTD SVG 1.1//EN"
 "http://www.w3.org/Graphics/SVG/1.1/DTD/svg11.dtd">
<!-- Generated by graphviz version 2.38.0 (20140413.2041)
 -->
<!-- Title: obe::Animation::Animation::getAnimationGroup Pages: 1 -->
<!--zoomable 232 -->
<svg id="main" version="1.1" xmlns="http://www.w3.org/2000/svg" xmlns:xlink="http://www.w3.org/1999/xlink" xml:space="preserve" onload="init(evt)">
<style type="text/css"><![CDATA[
.edge:hover path { stroke: red; }
.edge:hover polygon { stroke: red; fill: red; }
.edge path { stroke: white; }
.edge polygon { stroke: white; fill: white; }
.node polygon { fill: white; }
]]></style>
<script type="text/javascript"><![CDATA[
var edges = document.getElementsByTagName('g');
if (edges && edges.length) {
  for (var i=0;i<edges.length;i++) {
    if (edges[i].id.substr(0,4)=='edge') {
      edges[i].setAttribute('class','edge');
    }
  }
}
]]></script>
        <defs>
                <circle id="rim" cx="0" cy="0" r="7"/>
                <circle id="rim2" cx="0" cy="0" r="3.5"/>
                <g id="zoomPlus">
                        <use xlink:href="#rim" fill="#404040">
                                <set attributeName="fill" to="#808080" begin="zoomplus.mouseover" end="zoomplus.mouseout"/>
                        </use>
                        <path d="M-4,0h8M0,-4v8" fill="none" stroke="white" stroke-width="1.5" pointer-events="none"/>
                </g>
                <g id="zoomMin">
                        <use xlink:href="#rim" fill="#404040">
                                <set attributeName="fill" to="#808080" begin="zoomminus.mouseover" end="zoomminus.mouseout"/>
                        </use>
                        <path d="M-4,0h8" fill="none" stroke="white" stroke-width="1.5" pointer-events="none"/>
                </g>
                <g id="dirArrow">
                        <path fill="none" stroke="white" stroke-width="1.5" d="M0,-3.0v7 M-2.5,-0.5L0,-3.0L2.5,-0.5"/>
                </g>
               <g id="resetDef">
                       <use xlink:href="#rim2" fill="#404040">
                               <set attributeName="fill" to="#808080" begin="reset.mouseover" end="reset.mouseout"/>
                       </use>
               </g>
        </defs>

<script type="text/javascript">
var viewWidth = 1220;
var viewHeight = 232;
var sectionId = 'dynsection-5';
</script>
<script xlink:href="svgpan.js"/>
<svg id="graph" class="graph">
<g id="viewport">
<title>obe::Animation::Animation::getAnimationGroup</title>
<!-- Node68 -->
<g id="node1" class="node"><title>Node68</title>
<polygon fill="#bfbfbf" stroke="black" points="0,-146.5 0,-176.5 131,-176.5 131,-146.5 0,-146.5"/>
<text text-anchor="start" x="8" y="-164.5" font-family="Helvetica,sans-Serif" font-size="10.00">obe::Animation::Animation</text>
<text text-anchor="middle" x="65.5" y="-153.5" font-family="Helvetica,sans-Serif" font-size="10.00">::getAnimationGroup</text>
</g>
<!-- Node69 -->
<g id="node2" class="node"><title>Node69</title>
<g id="a_node2"><a xlink:href="namespaceobe_1_1_bindings_1_1_animation_bindings.html#a90425c1ca7642b03ad5d515f5b40bd00" target="_top" xlink:title="obe::Bindings::Animation\lBindings::LoadAnimation">
<polygon fill="none" stroke="black" points="167,-184.5 167,-214.5 292,-214.5 292,-184.5 167,-184.5"/>
<text text-anchor="start" x="175" y="-202.5" font-family="Helvetica,sans-Serif" font-size="10.00">obe::Bindings::Animation</text>
<text text-anchor="middle" x="229.5" y="-191.5" font-family="Helvetica,sans-Serif" font-size="10.00">Bindings::LoadAnimation</text>
</a>
</g>
</g>
<!-- Node68&#45;&gt;Node69 -->
<g id="edge1" class="edge"><title>Node68&#45;&gt;Node69</title>
<path fill="none" stroke="midnightblue" d="M140.414,-178.838C149.234,-180.907 158.166,-183.002 166.789,-185.025"/>
<polygon fill="midnightblue" stroke="midnightblue" points="141.062,-175.395 130.527,-176.519 139.463,-182.21 141.062,-175.395"/>
</g>
<!-- Node72 -->
<g id="node5" class="node"><title>Node72</title>
<g id="a_node5"><a xlink:href="namespaceobe_1_1_script_1_1_core_lib.html#ad3e8d674e535b8a534a3bed6f311d701" target="_top" xlink:title="obe::Script::CoreLib\l::loadAnimation">
<polygon fill="none" stroke="black" points="178,-108.5 178,-138.5 281,-138.5 281,-108.5 178,-108.5"/>
<text text-anchor="start" x="186" y="-126.5" font-family="Helvetica,sans-Serif" font-size="10.00">obe::Script::CoreLib</text>
<text text-anchor="middle" x="229.5" y="-115.5" font-family="Helvetica,sans-Serif" font-size="10.00">::loadAnimation</text>
</a>
</g>
</g>
<!-- Node68&#45;&gt;Node72 -->
<g id="edge4" class="edge"><title>Node68&#45;&gt;Node72</title>
<path fill="none" stroke="midnightblue" d="M140.585,-144.122C153.216,-141.159 166.073,-138.143 177.915,-135.366"/>
<polygon fill="midnightblue" stroke="midnightblue" points="139.463,-140.79 130.527,-146.481 141.062,-147.605 139.463,-140.79"/>
</g>
<!-- Node70 -->
<g id="node3" class="node"><title>Node70</title>
<g id="a_node3"><a xlink:href="namespaceobe_1_1_bindings.html#a41d33207a0199f125c75a0f70a4a3ba8" target="_top" xlink:title="obe::Bindings::IndexBindings">
<polygon fill="none" stroke="black" points="328,-204 328,-223 471,-223 471,-204 328,-204"/>
<text text-anchor="middle" x="399.5" y="-211" font-family="Helvetica,sans-Serif" font-size="10.00">obe::Bindings::IndexBindings</text>
</a>
</g>
</g>
<!-- Node69&#45;&gt;Node70 -->
<g id="edge2" class="edge"><title>Node69&#45;&gt;Node70</title>
<path fill="none" stroke="midnightblue" d="M302.304,-205.484C310.754,-206.188 319.373,-206.906 327.808,-207.609"/>
<polygon fill="midnightblue" stroke="midnightblue" points="302.359,-201.976 292.103,-204.634 301.778,-208.952 302.359,-201.976"/>
</g>
<!-- Node71 -->
<g id="node4" class="node"><title>Node71</title>
<g id="a_node4"><a xlink:href="_ob_engine_8cpp.html#a3c04138a5bfe5d72780bb7e82a18e627" target="_top" xlink:title="main">
<polygon fill="none" stroke="black" points="1174,-170 1174,-189 1212,-189 1212,-170 1174,-170"/>
<text text-anchor="middle" x="1193" y="-177" font-family="Helvetica,sans-Serif" font-size="10.00">main</text>
</a>
</g>
</g>
<!-- Node70&#45;&gt;Node71 -->
<g id="edge3" class="edge"><title>Node70&#45;&gt;Node71</title>
<path fill="none" stroke="midnightblue" d="M481.547,-215.095C545.166,-216.21 635.975,-217.5 715.5,-217.5 715.5,-217.5 715.5,-217.5 897,-217.5 1002.6,-217.5 1127.74,-193.251 1173.81,-183.495"/>
<polygon fill="midnightblue" stroke="midnightblue" points="481.242,-211.589 471.181,-214.91 481.118,-218.588 481.242,-211.589"/>
</g>
<!-- Node73 -->
<g id="node6" class="node"><title>Node73</title>
<g id="a_node6"><a xlink:href="namespaceobe_1_1_script.html#abdb81ec0976f1097cef6711415b8fac3" target="_top" xlink:title="obe::Script::loadCoreLib">
<polygon fill="none" stroke="black" points="339,-60 339,-79 460,-79 460,-60 339,-60"/>
<text text-anchor="middle" x="399.5" y="-67" font-family="Helvetica,sans-Serif" font-size="10.00">obe::Script::loadCoreLib</text>
</a>
</g>
</g>
<!-- Node72&#45;&gt;Node73 -->
<g id="edge5" class="edge"><title>Node72&#45;&gt;Node73</title>
<path fill="none" stroke="midnightblue" d="M287.165,-105.286C314.552,-96.4833 346.289,-86.282 368.855,-79.0288"/>
<polygon fill="midnightblue" stroke="midnightblue" points="285.747,-102.066 277.297,-108.458 287.889,-108.73 285.747,-102.066"/>
</g>
<!-- Node74 -->
<g id="node7" class="node"><title>Node74</title>
<g id="a_node7"><a xlink:href="namespaceobe_1_1_script.html#a4e6ee77032cf7f66544f9b08464a60b7" target="_top" xlink:title="obe::Script::loadLib">
<polygon fill="none" stroke="black" points="508,-97 508,-116 609,-116 609,-97 508,-97"/>
<text text-anchor="middle" x="558.5" y="-104" font-family="Helvetica,sans-Serif" font-size="10.00">obe::Script::loadLib</text>
</a>
</g>
</g>
<!-- Node73&#45;&gt;Node74 -->
<g id="edge6" class="edge"><title>Node73&#45;&gt;Node74</title>
<path fill="none" stroke="midnightblue" d="M450.811,-81.3567C472.177,-86.392 496.756,-92.1845 516.933,-96.9396"/>
<polygon fill="midnightblue" stroke="midnightblue" points="451.468,-77.9157 440.931,-79.0284 449.862,-84.729 451.468,-77.9157"/>
</g>
<!-- Node83 -->
<g id="node16" class="node"><title>Node83</title>
<g id="a_node16"><a xlink:href="namespaceobe_1_1_script_1_1_core_lib.html#a07d6c11bbb082bc45bdba50d97965c00" target="_top" xlink:title="obe::Script::CoreLib\l::loadCollision">
<polygon fill="none" stroke="black" points="507,-47.5 507,-77.5 610,-77.5 610,-47.5 507,-47.5"/>
<text text-anchor="start" x="515" y="-65.5" font-family="Helvetica,sans-Serif" font-size="10.00">obe::Script::CoreLib</text>
<text text-anchor="middle" x="558.5" y="-54.5" font-family="Helvetica,sans-Serif" font-size="10.00">::loadCollision</text>
</a>
</g>
</g>
<!-- Node73&#45;&gt;Node83 -->
<g id="edge19" class="edge"><title>Node73&#45;&gt;Node83</title>
<path fill="none" stroke="midnightblue" d="M470.487,-59.665C482.721,-59.0174 495.234,-58.5783 506.819,-58.4014"/>
<polygon fill="midnightblue" stroke="midnightblue" points="470.083,-56.1824 460.303,-60.2568 470.489,-63.1707 470.083,-56.1824"/>
</g>
<!-- Node75 -->
<g id="node8" class="node"><title>Node75</title>
<g id="a_node8"><a xlink:href="namespaceobe_1_1_modes.html#a1e38c0d9a2ca0230f0de79c298f53ab9" target="_top" xlink:title="A mode that will start the Toolkit. ">
<polygon fill="none" stroke="black" points="823,-154 823,-173 969,-173 969,-154 823,-154"/>
<text text-anchor="middle" x="896" y="-161" font-family="Helvetica,sans-Serif" font-size="10.00">obe::Modes::startToolkitMode</text>
</a>
</g>
</g>
<!-- Node74&#45;&gt;Node75 -->
<g id="edge7" class="edge"><title>Node74&#45;&gt;Node75</title>
<path fill="none" stroke="midnightblue" d="M578.081,-122.357C594.666,-135.412 620.248,-152.954 646,-160.5 703.771,-177.43 772.367,-176.829 822.918,-172.761"/>
<polygon fill="midnightblue" stroke="midnightblue" points="580.244,-119.605 570.275,-116.016 575.83,-125.038 580.244,-119.605"/>
</g>
<!-- Node77 -->
<g id="node10" class="node"><title>Node77</title>
<g id="a_node10"><a xlink:href="classobe_1_1_scene_1_1_world.html#a32964e659e18cb32094d9f8ceea30aa3" target="_top" xlink:title="obe::Scene::World::\lWorld">
<polygon fill="none" stroke="black" points="844,-69.5 844,-99.5 948,-99.5 948,-69.5 844,-69.5"/>
<text text-anchor="start" x="852" y="-87.5" font-family="Helvetica,sans-Serif" font-size="10.00">obe::Scene::World::</text>
<text text-anchor="middle" x="896" y="-76.5" font-family="Helvetica,sans-Serif" font-size="10.00">World</text>
</a>
</g>
</g>
<!-- Node74&#45;&gt;Node77 -->
<g id="edge11" class="edge"><title>Node74&#45;&gt;Node77</title>
<path fill="none" stroke="midnightblue" d="M619.331,-102.577C683.27,-98.3839 783.555,-91.8079 843.916,-87.8497"/>
<polygon fill="midnightblue" stroke="midnightblue" points="618.754,-99.1069 609.004,-103.254 619.212,-106.092 618.754,-99.1069"/>
</g>
<!-- Node78 -->
<g id="node11" class="node"><title>Node78</title>
<g id="a_node11"><a xlink:href="namespaceobe_1_1_scene.html#ae5cbcc3278d9115d603e5024dec9136e" target="_top" xlink:title="obe::Scene::loadWorldScript\lEngineBaseLib">
<polygon fill="none" stroke="black" points="646,-44.5 646,-74.5 787,-74.5 787,-44.5 646,-44.5"/>
<text text-anchor="start" x="654" y="-62.5" font-family="Helvetica,sans-Serif" font-size="10.00">obe::Scene::loadWorldScript</text>
<text text-anchor="middle" x="716.5" y="-51.5" font-family="Helvetica,sans-Serif" font-size="10.00">EngineBaseLib</text>
</a>
</g>
</g>
<!-- Node74&#45;&gt;Node78 -->
<g id="edge12" class="edge"><title>Node74&#45;&gt;Node78</title>
<path fill="none" stroke="midnightblue" d="M600.757,-94.0701C620.637,-88.0805 644.645,-80.8475 665.551,-74.5488"/>
<polygon fill="midnightblue" stroke="midnightblue" points="599.634,-90.7528 591.069,-96.9888 601.653,-97.4552 599.634,-90.7528"/>
</g>
<!-- Node79 -->
<g id="node12" class="node"><title>Node79</title>
<g id="a_node12"><a xlink:href="namespaceobe_1_1_script.html#a5e992c0efb0543e7c934bc1065f08b01" target="_top" xlink:title="obe::Script::loadLibBridge">
<polygon fill="none" stroke="black" points="652.5,-6 652.5,-25 780.5,-25 780.5,-6 652.5,-6"/>
<text text-anchor="middle" x="716.5" y="-13" font-family="Helvetica,sans-Serif" font-size="10.00">obe::Script::loadLibBridge</text>
</a>
</g>
</g>
<!-- Node74&#45;&gt;Node79 -->
<g id="edge14" class="edge"><title>Node74&#45;&gt;Node79</title>
<path fill="none" stroke="midnightblue" d="M601.11,-92.4144C604.25,-90.6435 607.259,-88.6772 610,-86.5 632.012,-69.0189 623.058,-50.742 646,-34.5 651.513,-30.597 657.793,-27.4952 664.27,-25.0302"/>
<polygon fill="midnightblue" stroke="midnightblue" points="599.441,-89.3351 592.023,-96.9001 602.539,-95.6119 599.441,-89.3351"/>
</g>
<!-- Node82 -->
<g id="node15" class="node"><title>Node82</title>
<g id="a_node15"><a xlink:href="namespaceobe_1_1_script.html#aad6ef67388e6d16eb01853f208da410f" target="_top" xlink:title="obe::Script::loadBaseLib">
<polygon fill="none" stroke="black" points="655,-132 655,-151 778,-151 778,-132 655,-132"/>
<text text-anchor="middle" x="716.5" y="-139" font-family="Helvetica,sans-Serif" font-size="10.00">obe::Script::loadBaseLib</text>
</a>
</g>
</g>
<!-- Node74&#45;&gt;Node82 -->
<g id="edge17" class="edge"><title>Node74&#45;&gt;Node82</title>
<path fill="none" stroke="midnightblue" d="M611.942,-118.266C631.781,-122.717 654.1,-127.724 672.924,-131.948"/>
<polygon fill="midnightblue" stroke="midnightblue" points="612.651,-114.838 602.128,-116.064 611.119,-121.668 612.651,-114.838"/>
</g>
<!-- Node75&#45;&gt;Node71 -->
<g id="edge10" class="edge"><title>Node75&#45;&gt;Node71</title>
<path fill="none" stroke="midnightblue" d="M979.308,-167.964C1046.39,-171.602 1135.99,-176.462 1173.87,-178.517"/>
<polygon fill="midnightblue" stroke="midnightblue" points="979.34,-164.461 969.165,-167.414 978.961,-171.451 979.34,-164.461"/>
</g>
<!-- Node76 -->
<g id="node9" class="node"><title>Node76</title>
<g id="a_node9"><a xlink:href="namespaceobe_1_1_modes.html#a6a8b08eee511d4895c4da96d4ba223a6" target="_top" xlink:title="Starts the development Menu where you can starts other menus from. ">
<polygon fill="none" stroke="black" points="1005,-132 1005,-151 1138,-151 1138,-132 1005,-132"/>
<text text-anchor="middle" x="1071.5" y="-139" font-family="Helvetica,sans-Serif" font-size="10.00">obe::Modes::startDevMenu</text>
</a>
</g>
</g>
<!-- Node75&#45;&gt;Node76 -->
<g id="edge8" class="edge"><title>Node75&#45;&gt;Node76</title>
<path fill="none" stroke="midnightblue" d="M979.118,-153.087C987.716,-151.997 996.375,-150.899 1004.76,-149.836"/>
<polygon fill="midnightblue" stroke="midnightblue" points="978.553,-149.631 969.072,-154.361 979.433,-156.575 978.553,-149.631"/>
</g>
<!-- Node76&#45;&gt;Node71 -->
<g id="edge9" class="edge"><title>Node76&#45;&gt;Node71</title>
<path fill="none" stroke="midnightblue" d="M1112.21,-154.128C1133.01,-160.741 1157.47,-168.519 1173.77,-173.703"/>
<polygon fill="midnightblue" stroke="midnightblue" points="1113.25,-150.784 1102.65,-151.089 1111.12,-157.455 1113.25,-150.784"/>
</g>
<!-- Node78&#45;&gt;Node77 -->
<g id="edge13" class="edge"><title>Node78&#45;&gt;Node77</title>
<path fill="none" stroke="midnightblue" d="M797.449,-70.7605C813.247,-72.9856 829.421,-75.2635 843.941,-77.3087"/>
<polygon fill="midnightblue" stroke="midnightblue" points="797.534,-67.2379 787.143,-69.3089 796.557,-74.1695 797.534,-67.2379"/>
</g>
<!-- Node80 -->
<g id="node13" class="node"><title>Node80</title>
<g id="a_node13"><a xlink:href="namespaceobe_1_1_script.html#a5dc8321da50fd4b5dc2935e4d8c93a4e" target="_top" xlink:title="obe::Script::loadScrGame\lObject">
<polygon fill="none" stroke="black" points="831.5,-0.5 831.5,-30.5 960.5,-30.5 960.5,-0.5 831.5,-0.5"/>
<text text-anchor="start" x="839.5" y="-18.5" font-family="Helvetica,sans-Serif" font-size="10.00">obe::Script::loadScrGame</text>
<text text-anchor="middle" x="896" y="-7.5" font-family="Helvetica,sans-Serif" font-size="10.00">Object</text>
</a>
</g>
</g>
<!-- Node79&#45;&gt;Node80 -->
<g id="edge15" class="edge"><title>Node79&#45;&gt;Node80</title>
<path fill="none" stroke="midnightblue" d="M790.737,-15.5C804.171,-15.5 818.096,-15.5 831.226,-15.5"/>
<polygon fill="midnightblue" stroke="midnightblue" points="790.58,-12.0001 780.58,-15.5 790.58,-19.0001 790.58,-12.0001"/>
</g>
<!-- Node81 -->
<g id="node14" class="node"><title>Node81</title>
<g id="a_node14"><a xlink:href="classobe_1_1_script_1_1_game_object.html#aadeac0036d2fe21d523acfd4e9011a23" target="_top" xlink:title="obe::Script::GameObject\l::loadGameObject">
<polygon fill="none" stroke="black" points="1009,-0.5 1009,-30.5 1134,-30.5 1134,-0.5 1009,-0.5"/>
<text text-anchor="start" x="1017" y="-18.5" font-family="Helvetica,sans-Serif" font-size="10.00">obe::Script::GameObject</text>
<text text-anchor="middle" x="1071.5" y="-7.5" font-family="Helvetica,sans-Serif" font-size="10.00">::loadGameObject</text>
</a>
</g>
</g>
<!-- Node80&#45;&gt;Node81 -->
<g id="edge16" class="edge"><title>Node80&#45;&gt;Node81</title>
<path fill="none" stroke="midnightblue" d="M970.721,-15.5C983.445,-15.5 996.552,-15.5 1008.91,-15.5"/>
<polygon fill="midnightblue" stroke="midnightblue" points="970.62,-12.0001 960.62,-15.5 970.62,-19.0001 970.62,-12.0001"/>
</g>
<!-- Node82&#45;&gt;Node75 -->
<g id="edge18" class="edge"><title>Node82&#45;&gt;Node75</title>
<path fill="none" stroke="midnightblue" d="M788.346,-150.281C799.662,-151.683 811.384,-153.136 822.733,-154.543"/>
<polygon fill="midnightblue" stroke="midnightblue" points="788.444,-146.766 778.089,-149.01 787.583,-153.713 788.444,-146.766"/>
</g>
<!-- Node83&#45;&gt;Node73 -->
<g id="edge20" class="edge"><title>Node83&#45;&gt;Node73</title>
<path fill="none" stroke="midnightblue" d="M496.535,-71.8162C484.634,-72.5563 472.166,-73.1051 460.303,-73.4105"/>
<polygon fill="midnightblue" stroke="midnightblue" points="497.079,-75.2874 506.819,-71.1179 496.605,-68.3035 497.079,-75.2874"/>
</g>
</g>
</svg>
        <g id="navigator" transform="translate(0 0)" fill="#404254">
                <rect fill="#f2f5e9" fill-opacity="0.5" stroke="#606060" stroke-width=".5" x="0" y="0" width="60" height="60"/>
                <use id="zoomplus" xlink:href="#zoomPlus" x="17" y="9" onmousedown="handleZoom(evt,'in')"/>
                <use id="zoomminus" xlink:href="#zoomMin" x="42" y="9" onmousedown="handleZoom(evt,'out')"/>
                <use id="reset" xlink:href="#resetDef" x="30" y="36" onmousedown="handleReset()"/>
                <g id="arrowUp" xlink:href="#dirArrow" transform="translate(30 24)" onmousedown="handlePan(0,-1)">
                  <use xlink:href="#rim" fill="#404040">
                        <set attributeName="fill" to="#808080" begin="arrowUp.mouseover" end="arrowUp.mouseout"/>
                  </use>
                  <path fill="none" stroke="white" stroke-width="1.5" d="M0,-3.0v7 M-2.5,-0.5L0,-3.0L2.5,-0.5"/>
                </g>
                <g id="arrowRight" xlink:href="#dirArrow" transform="rotate(90) translate(36 -43)" onmousedown="handlePan(1,0)">
                  <use xlink:href="#rim" fill="#404040">
                        <set attributeName="fill" to="#808080" begin="arrowRight.mouseover" end="arrowRight.mouseout"/>
                  </use>
                  <path fill="none" stroke="white" stroke-width="1.5" d="M0,-3.0v7 M-2.5,-0.5L0,-3.0L2.5,-0.5"/>
                </g>
                <g id="arrowDown" xlink:href="#dirArrow" transform="rotate(180) translate(-30 -48)" onmousedown="handlePan(0,1)">
                  <use xlink:href="#rim" fill="#404040">
                        <set attributeName="fill" to="#808080" begin="arrowDown.mouseover" end="arrowDown.mouseout"/>
                  </use>
                  <path fill="none" stroke="white" stroke-width="1.5" d="M0,-3.0v7 M-2.5,-0.5L0,-3.0L2.5,-0.5"/>
                </g>
                <g id="arrowLeft" xlink:href="#dirArrow" transform="rotate(270) translate(-36 17)" onmousedown="handlePan(-1,0)">
                  <use xlink:href="#rim" fill="#404040">
                        <set attributeName="fill" to="#808080" begin="arrowLeft.mouseover" end="arrowLeft.mouseout"/>
                  </use>
                  <path fill="none" stroke="white" stroke-width="1.5" d="M0,-3.0v7 M-2.5,-0.5L0,-3.0L2.5,-0.5"/>
                </g>
        </g>
        <svg viewBox="0 0 15 15" width="100%" height="30px" preserveAspectRatio="xMaxYMin meet">
         <g id="arrow_out" transform="scale(0.3 0.3)">
          <a xlink:href="classobe_1_1_animation_1_1_animation_a9259e39a1ec6ccd3caf5724d2498e5af_icgraph_org.svg" target="_base">
           <rect id="button" ry="5" rx="5" y="6" x="6" height="38" width="38"
                fill="#f2f5e9" fill-opacity="0.5" stroke="#606060" stroke-width="1.0"/>
           <path id="arrow"
             d="M 11.500037,31.436501 C 11.940474,20.09759 22.043105,11.32322 32.158766,21.979434 L 37.068811,17.246167 C 37.068811,17.246167 37.088388,32 37.088388,32 L 22.160133,31.978069 C 22.160133,31.978069 26.997745,27.140456 26.997745,27.140456 C 18.528582,18.264221 13.291696,25.230495 11.500037,31.436501 z"
             style="fill:#404040;"/>
          </a>
         </g>
        </svg>
</svg>
