<?xml version="1.0" encoding="UTF-8" standalone="no"?>
<!DOCTYPE svg PUBLIC "-//W3C//DTD SVG 1.1//EN"
 "http://www.w3.org/Graphics/SVG/1.1/DTD/svg11.dtd">
<!-- Generated by graphviz version 2.38.0 (20140413.2041)
 -->
<!-- Title: vili::ComplexNode::operator[] Pages: 1 -->
<!--zoomable 301 -->
<svg id="main" version="1.1" xmlns="http://www.w3.org/2000/svg" xmlns:xlink="http://www.w3.org/1999/xlink" xml:space="preserve" onload="init(evt)">
<style type="text/css"><![CDATA[
.edge:hover path { stroke: red; }
.edge:hover polygon { stroke: red; fill: red; }
.edge path { stroke: white; }
.edge polygon { stroke: white; fill: white; }
.node polygon { fill: white; }
]]></style>
<script type="text/javascript"><![CDATA[
var edges = document.getElementsByTagName('g');
if (edges && edges.length) {
  for (var i=0;i<edges.length;i++) {
    if (edges[i].id.substr(0,4)=='edge') {
      edges[i].setAttribute('class','edge');
    }
  }
}
]]></script>
        <defs>
                <circle id="rim" cx="0" cy="0" r="7"/>
                <circle id="rim2" cx="0" cy="0" r="3.5"/>
                <g id="zoomPlus">
                        <use xlink:href="#rim" fill="#404040">
                                <set attributeName="fill" to="#808080" begin="zoomplus.mouseover" end="zoomplus.mouseout"/>
                        </use>
                        <path d="M-4,0h8M0,-4v8" fill="none" stroke="white" stroke-width="1.5" pointer-events="none"/>
                </g>
                <g id="zoomMin">
                        <use xlink:href="#rim" fill="#404040">
                                <set attributeName="fill" to="#808080" begin="zoomminus.mouseover" end="zoomminus.mouseout"/>
                        </use>
                        <path d="M-4,0h8" fill="none" stroke="white" stroke-width="1.5" pointer-events="none"/>
                </g>
                <g id="dirArrow">
                        <path fill="none" stroke="white" stroke-width="1.5" d="M0,-3.0v7 M-2.5,-0.5L0,-3.0L2.5,-0.5"/>
                </g>
               <g id="resetDef">
                       <use xlink:href="#rim2" fill="#404040">
                               <set attributeName="fill" to="#808080" begin="reset.mouseover" end="reset.mouseout"/>
                       </use>
               </g>
        </defs>

<script type="text/javascript">
var viewWidth = 699;
var viewHeight = 301;
var sectionId = 'dynsection-49';
</script>
<script xlink:href="svgpan.js"/>
<svg id="graph" class="graph">
<g id="viewport">
<title>vili::ComplexNode::operator[]</title>
<!-- Node965 -->
<g id="node1" class="node"><title>Node965</title>
<polygon fill="#bfbfbf" stroke="black" points="0,-148.5 0,-178.5 100,-178.5 100,-148.5 0,-148.5"/>
<text text-anchor="start" x="8" y="-166.5" font-family="Helvetica,sans-Serif" font-size="10.00">vili::ComplexNode::</text>
<text text-anchor="middle" x="50" y="-155.5" font-family="Helvetica,sans-Serif" font-size="10.00">operator[]</text>
</g>
<!-- Node966 -->
<g id="node2" class="node"><title>Node966</title>
<g id="a_node2"><a xlink:href="classvili_1_1_complex_node.html#af863182abb35759cf98a0a39bde589fa" target="_top" xlink:title="vili::ComplexNode::\lgetPath">
<polygon fill="none" stroke="black" points="136,-148.5 136,-178.5 236,-178.5 236,-148.5 136,-148.5"/>
<text text-anchor="start" x="144" y="-166.5" font-family="Helvetica,sans-Serif" font-size="10.00">vili::ComplexNode::</text>
<text text-anchor="middle" x="186" y="-155.5" font-family="Helvetica,sans-Serif" font-size="10.00">getPath</text>
</a>
</g>
</g>
<!-- Node965&#45;&gt;Node966 -->
<g id="edge1" class="edge"><title>Node965&#45;&gt;Node966</title>
<path fill="none" stroke="midnightblue" d="M100.136,-163.5C108.42,-163.5 117.097,-163.5 125.608,-163.5"/>
<polygon fill="midnightblue" stroke="midnightblue" points="125.87,-167 135.87,-163.5 125.87,-160 125.87,-167"/>
</g>
<!-- Node967 -->
<g id="node3" class="node"><title>Node967</title>
<g id="a_node3"><a xlink:href="namespacevili_1_1_functions_1_1_string.html#ad7421099a2ab911f64f06d89abc7d7cf" target="_top" xlink:title="vili::Functions::String\l::extract">
<polygon fill="none" stroke="black" points="272,-214.5 272,-244.5 379,-244.5 379,-214.5 272,-214.5"/>
<text text-anchor="start" x="280" y="-232.5" font-family="Helvetica,sans-Serif" font-size="10.00">vili::Functions::String</text>
<text text-anchor="middle" x="325.5" y="-221.5" font-family="Helvetica,sans-Serif" font-size="10.00">::extract</text>
</a>
</g>
</g>
<!-- Node966&#45;&gt;Node967 -->
<g id="edge2" class="edge"><title>Node966&#45;&gt;Node967</title>
<path fill="none" stroke="midnightblue" d="M218.545,-178.642C237.935,-187.949 262.974,-199.967 283.842,-209.984"/>
<polygon fill="midnightblue" stroke="midnightblue" points="282.572,-213.257 293.102,-214.429 285.601,-206.946 282.572,-213.257"/>
</g>
<!-- Node968 -->
<g id="node4" class="node"><title>Node968</title>
<g id="a_node4"><a xlink:href="classvili_1_1_complex_node.html#aa9274f5ba9c9dbe1a0c90d54380a003a" target="_top" xlink:title="Get a ComplexNode contained in the ComplexNode. ">
<polygon fill="none" stroke="black" points="275.5,-126.5 275.5,-156.5 375.5,-156.5 375.5,-126.5 275.5,-126.5"/>
<text text-anchor="start" x="283.5" y="-144.5" font-family="Helvetica,sans-Serif" font-size="10.00">vili::ComplexNode::</text>
<text text-anchor="middle" x="325.5" y="-133.5" font-family="Helvetica,sans-Serif" font-size="10.00">getComplexNode</text>
</a>
</g>
</g>
<!-- Node966&#45;&gt;Node968 -->
<g id="edge3" class="edge"><title>Node966&#45;&gt;Node968</title>
<path fill="none" stroke="midnightblue" d="M236.252,-155.62C245.632,-154.119 255.539,-152.534 265.193,-150.989"/>
<polygon fill="midnightblue" stroke="midnightblue" points="265.808,-154.435 275.129,-149.399 264.702,-147.523 265.808,-154.435"/>
</g>
<!-- Node969 -->
<g id="node5" class="node"><title>Node969</title>
<g id="a_node5"><a xlink:href="classaube_1_1_error_handler.html#a7c8d44a3e7f019646d289950abc5301b" target="_top" xlink:title="Raises an Error loaded in the Aube Error Database (AED) ">
<polygon fill="none" stroke="black" points="425,-170.5 425,-200.5 523,-200.5 523,-170.5 425,-170.5"/>
<text text-anchor="start" x="433" y="-188.5" font-family="Helvetica,sans-Serif" font-size="10.00">aube::ErrorHandler</text>
<text text-anchor="middle" x="474" y="-177.5" font-family="Helvetica,sans-Serif" font-size="10.00">::Raise</text>
</a>
</g>
</g>
<!-- Node966&#45;&gt;Node969 -->
<g id="edge13" class="edge"><title>Node966&#45;&gt;Node969</title>
<path fill="none" stroke="midnightblue" d="M236.165,-167.282C285.725,-171.094 362.208,-176.978 414.773,-181.021"/>
<polygon fill="midnightblue" stroke="midnightblue" points="414.713,-184.527 424.952,-181.804 415.25,-177.547 414.713,-184.527"/>
</g>
<!-- Node973 -->
<g id="node9" class="node"><title>Node973</title>
<g id="a_node9"><a xlink:href="classvili_1_1_node.html#a5a6ad518f51d824e06ae7be0328f4864" target="_top" xlink:title="Get the Node Path (Example : GrandParent/Parent/Node) ">
<polygon fill="none" stroke="black" points="415,-88 415,-107 533,-107 533,-88 415,-88"/>
<text text-anchor="middle" x="474" y="-95" font-family="Helvetica,sans-Serif" font-size="10.00">vili::Node::getNodePath</text>
</a>
</g>
</g>
<!-- Node966&#45;&gt;Node973 -->
<g id="edge14" class="edge"><title>Node966&#45;&gt;Node973</title>
<path fill="none" stroke="midnightblue" d="M208.251,-148.499C224.805,-137.643 248.8,-123.668 272,-116.5 314.822,-103.269 365.014,-98.515 404.528,-97.0709"/>
<polygon fill="midnightblue" stroke="midnightblue" points="404.704,-100.567 414.593,-96.7656 404.491,-93.5705 404.704,-100.567"/>
</g>
<!-- Node968&#45;&gt;Node969 -->
<g id="edge4" class="edge"><title>Node968&#45;&gt;Node969</title>
<path fill="none" stroke="midnightblue" d="M375.69,-156.274C388.276,-160.054 401.927,-164.154 414.914,-168.054"/>
<polygon fill="midnightblue" stroke="midnightblue" points="414.102,-171.465 424.686,-170.989 416.116,-164.761 414.102,-171.465"/>
</g>
<!-- Node968&#45;&gt;Node973 -->
<g id="edge8" class="edge"><title>Node968&#45;&gt;Node973</title>
<path fill="none" stroke="midnightblue" d="M375.69,-126.726C393.757,-121.3 414.02,-115.214 431.359,-110.006"/>
<polygon fill="midnightblue" stroke="midnightblue" points="432.621,-113.282 441.192,-107.053 430.608,-106.578 432.621,-113.282"/>
</g>
<!-- Node970 -->
<g id="node6" class="node"><title>Node970</title>
<g id="a_node6"><a xlink:href="classaube_1_1_error_message.html#a9184cc96589578f434351c105b0cd5f7" target="_top" xlink:title="Gets the location of the error in the code. ">
<polygon fill="none" stroke="black" points="578,-262.5 578,-292.5 682,-292.5 682,-262.5 578,-262.5"/>
<text text-anchor="start" x="586" y="-280.5" font-family="Helvetica,sans-Serif" font-size="10.00">aube::ErrorMessage</text>
<text text-anchor="middle" x="630" y="-269.5" font-family="Helvetica,sans-Serif" font-size="10.00">::getLocation</text>
</a>
</g>
</g>
<!-- Node969&#45;&gt;Node970 -->
<g id="edge5" class="edge"><title>Node969&#45;&gt;Node970</title>
<path fill="none" stroke="midnightblue" d="M493.177,-200.736C511.48,-215.561 540.947,-238.051 569,-253.5 571.899,-255.097 574.927,-256.644 578.015,-258.132"/>
<polygon fill="midnightblue" stroke="midnightblue" points="576.842,-261.444 587.393,-262.409 579.747,-255.075 576.842,-261.444"/>
</g>
<!-- Node971 -->
<g id="node7" class="node"><title>Node971</title>
<g id="a_node7"><a xlink:href="classaube_1_1_error_message.html#a07927cb3e2d0712c459cc9e2b5f52696" target="_top" xlink:title="Gets the message displayed by the ErrorMessage when raised. ">
<polygon fill="none" stroke="black" points="578,-213.5 578,-243.5 682,-243.5 682,-213.5 578,-213.5"/>
<text text-anchor="start" x="586" y="-231.5" font-family="Helvetica,sans-Serif" font-size="10.00">aube::ErrorMessage</text>
<text text-anchor="middle" x="630" y="-220.5" font-family="Helvetica,sans-Serif" font-size="10.00">::getMessage</text>
</a>
</g>
</g>
<!-- Node969&#45;&gt;Node971 -->
<g id="edge6" class="edge"><title>Node969&#45;&gt;Node971</title>
<path fill="none" stroke="midnightblue" d="M523.304,-198.987C537.559,-202.968 553.345,-207.375 568.275,-211.544"/>
<polygon fill="midnightblue" stroke="midnightblue" points="567.365,-214.924 577.938,-214.243 569.248,-208.182 567.365,-214.924"/>
</g>
<!-- Node972 -->
<g id="node8" class="node"><title>Node972</title>
<g id="a_node8"><a xlink:href="classaube_1_1_error_message.html#a77c2f9b7e93542c958173b52da267989" target="_top" xlink:title="Gets hints that can help the error resolution. ">
<polygon fill="none" stroke="black" points="578,-164.5 578,-194.5 682,-194.5 682,-164.5 578,-164.5"/>
<text text-anchor="start" x="586" y="-182.5" font-family="Helvetica,sans-Serif" font-size="10.00">aube::ErrorMessage</text>
<text text-anchor="middle" x="630" y="-171.5" font-family="Helvetica,sans-Serif" font-size="10.00">::getHints</text>
</a>
</g>
</g>
<!-- Node969&#45;&gt;Node972 -->
<g id="edge7" class="edge"><title>Node969&#45;&gt;Node972</title>
<path fill="none" stroke="midnightblue" d="M523.304,-183.618C537.423,-183.068 553.044,-182.459 567.848,-181.883"/>
<polygon fill="midnightblue" stroke="midnightblue" points="568.082,-185.376 577.938,-181.489 567.81,-178.381 568.082,-185.376"/>
</g>
<!-- Node974 -->
<g id="node10" class="node"><title>Node974</title>
<g id="a_node10"><a xlink:href="classvili_1_1_node.html#a58273048e22a9ebd74e576fd8905f709" target="_top" xlink:title="vili::Node::getParent">
<polygon fill="none" stroke="black" points="578,-126 578,-145 682,-145 682,-126 578,-126"/>
<text text-anchor="middle" x="630" y="-133" font-family="Helvetica,sans-Serif" font-size="10.00">vili::Node::getParent</text>
</a>
</g>
</g>
<!-- Node973&#45;&gt;Node974 -->
<g id="edge9" class="edge"><title>Node973&#45;&gt;Node974</title>
<path fill="none" stroke="midnightblue" d="M513.861,-107.089C534.091,-112.081 559.021,-118.232 580.504,-123.533"/>
<polygon fill="midnightblue" stroke="midnightblue" points="579.871,-126.982 590.419,-125.98 581.548,-120.186 579.871,-126.982"/>
</g>
<!-- Node975 -->
<g id="node11" class="node"><title>Node975</title>
<g id="a_node11"><a xlink:href="classvili_1_1_node.html#ab03908ab3d62e3bfddaf9e7306fdf3b3" target="_top" xlink:title="Gets the id of the Node. ">
<polygon fill="none" stroke="black" points="588.5,-88 588.5,-107 671.5,-107 671.5,-88 588.5,-88"/>
<text text-anchor="middle" x="630" y="-95" font-family="Helvetica,sans-Serif" font-size="10.00">vili::Node::getId</text>
</a>
</g>
</g>
<!-- Node973&#45;&gt;Node975 -->
<g id="edge10" class="edge"><title>Node973&#45;&gt;Node975</title>
<path fill="none" stroke="midnightblue" d="M533.221,-97.5C548.025,-97.5 563.816,-97.5 578.218,-97.5"/>
<polygon fill="midnightblue" stroke="midnightblue" points="578.425,-101 588.425,-97.5 578.425,-94.0001 578.425,-101"/>
</g>
<!-- Node976 -->
<g id="node12" class="node"><title>Node976</title>
<g id="a_node12"><a xlink:href="classvili_1_1_node.html#ad3c91cfe2721eaf9841721d1ec8ee0d8" target="_top" xlink:title="Gets the Node annotation. ">
<polygon fill="none" stroke="black" points="569,-50 569,-69 691,-69 691,-50 569,-50"/>
<text text-anchor="middle" x="630" y="-57" font-family="Helvetica,sans-Serif" font-size="10.00">vili::Node::getAnnotation</text>
</a>
</g>
</g>
<!-- Node973&#45;&gt;Node976 -->
<g id="edge11" class="edge"><title>Node973&#45;&gt;Node976</title>
<path fill="none" stroke="midnightblue" d="M513.861,-87.911C534.091,-82.9191 559.021,-76.7676 580.504,-71.4666"/>
<polygon fill="midnightblue" stroke="midnightblue" points="581.548,-74.8139 590.419,-69.0201 579.871,-68.0177 581.548,-74.8139"/>
</g>
<!-- Node977 -->
<g id="node13" class="node"><title>Node977</title>
<g id="a_node13"><a xlink:href="namespacevili_1_1_functions_1_1_vector.html#a10836e1fe04648534cfc59d9de9acd72" target="_top" xlink:title="vili::Functions::Vector\l::join">
<polygon fill="none" stroke="black" points="575,-0.5 575,-30.5 685,-30.5 685,-0.5 575,-0.5"/>
<text text-anchor="start" x="583" y="-18.5" font-family="Helvetica,sans-Serif" font-size="10.00">vili::Functions::Vector</text>
<text text-anchor="middle" x="630" y="-7.5" font-family="Helvetica,sans-Serif" font-size="10.00">::join</text>
</a>
</g>
</g>
<!-- Node973&#45;&gt;Node977 -->
<g id="edge12" class="edge"><title>Node973&#45;&gt;Node977</title>
<path fill="none" stroke="midnightblue" d="M489.267,-87.9179C507.36,-75.986 539.732,-55.3652 569,-40.5 572.955,-38.4911 577.111,-36.5096 581.312,-34.5945"/>
<polygon fill="midnightblue" stroke="midnightblue" points="582.79,-37.7679 590.521,-30.5232 579.959,-31.3657 582.79,-37.7679"/>
</g>
</g>
</svg>
        <g id="navigator" transform="translate(0 0)" fill="#404254">
                <rect fill="#f2f5e9" fill-opacity="0.5" stroke="#606060" stroke-width=".5" x="0" y="0" width="60" height="60"/>
                <use id="zoomplus" xlink:href="#zoomPlus" x="17" y="9" onmousedown="handleZoom(evt,'in')"/>
                <use id="zoomminus" xlink:href="#zoomMin" x="42" y="9" onmousedown="handleZoom(evt,'out')"/>
                <use id="reset" xlink:href="#resetDef" x="30" y="36" onmousedown="handleReset()"/>
                <g id="arrowUp" xlink:href="#dirArrow" transform="translate(30 24)" onmousedown="handlePan(0,-1)">
                  <use xlink:href="#rim" fill="#404040">
                        <set attributeName="fill" to="#808080" begin="arrowUp.mouseover" end="arrowUp.mouseout"/>
                  </use>
                  <path fill="none" stroke="white" stroke-width="1.5" d="M0,-3.0v7 M-2.5,-0.5L0,-3.0L2.5,-0.5"/>
                </g>
                <g id="arrowRight" xlink:href="#dirArrow" transform="rotate(90) translate(36 -43)" onmousedown="handlePan(1,0)">
                  <use xlink:href="#rim" fill="#404040">
                        <set attributeName="fill" to="#808080" begin="arrowRight.mouseover" end="arrowRight.mouseout"/>
                  </use>
                  <path fill="none" stroke="white" stroke-width="1.5" d="M0,-3.0v7 M-2.5,-0.5L0,-3.0L2.5,-0.5"/>
                </g>
                <g id="arrowDown" xlink:href="#dirArrow" transform="rotate(180) translate(-30 -48)" onmousedown="handlePan(0,1)">
                  <use xlink:href="#rim" fill="#404040">
                        <set attributeName="fill" to="#808080" begin="arrowDown.mouseover" end="arrowDown.mouseout"/>
                  </use>
                  <path fill="none" stroke="white" stroke-width="1.5" d="M0,-3.0v7 M-2.5,-0.5L0,-3.0L2.5,-0.5"/>
                </g>
                <g id="arrowLeft" xlink:href="#dirArrow" transform="rotate(270) translate(-36 17)" onmousedown="handlePan(-1,0)">
                  <use xlink:href="#rim" fill="#404040">
                        <set attributeName="fill" to="#808080" begin="arrowLeft.mouseover" end="arrowLeft.mouseout"/>
                  </use>
                  <path fill="none" stroke="white" stroke-width="1.5" d="M0,-3.0v7 M-2.5,-0.5L0,-3.0L2.5,-0.5"/>
                </g>
        </g>
        <svg viewBox="0 0 15 15" width="100%" height="30px" preserveAspectRatio="xMaxYMin meet">
         <g id="arrow_out" transform="scale(0.3 0.3)">
          <a xlink:href="classvili_1_1_complex_node_a3c4cf02119f198c81fc357ffcadda495_cgraph_org.svg" target="_base">
           <rect id="button" ry="5" rx="5" y="6" x="6" height="38" width="38"
                fill="#f2f5e9" fill-opacity="0.5" stroke="#606060" stroke-width="1.0"/>
           <path id="arrow"
             d="M 11.500037,31.436501 C 11.940474,20.09759 22.043105,11.32322 32.158766,21.979434 L 37.068811,17.246167 C 37.068811,17.246167 37.088388,32 37.088388,32 L 22.160133,31.978069 C 22.160133,31.978069 26.997745,27.140456 26.997745,27.140456 C 18.528582,18.264221 13.291696,25.230495 11.500037,31.436501 z"
             style="fill:#404040;"/>
          </a>
         </g>
        </svg>
</svg>
