<?xml version="1.0" encoding="UTF-8" standalone="no"?>
<!DOCTYPE svg PUBLIC "-//W3C//DTD SVG 1.1//EN"
 "http://www.w3.org/Graphics/SVG/1.1/DTD/svg11.dtd">
<!-- Generated by graphviz version 2.38.0 (20140413.2041)
 -->
<!-- Title: obe::Collision::PolygonalCollider::u_setPointPositionFromMaster Pages: 1 -->
<!--zoomable 190 -->
<svg id="main" version="1.1" xmlns="http://www.w3.org/2000/svg" xmlns:xlink="http://www.w3.org/1999/xlink" xml:space="preserve" onload="init(evt)">
<style type="text/css"><![CDATA[
.edge:hover path { stroke: red; }
.edge:hover polygon { stroke: red; fill: red; }
.edge path { stroke: white; }
.edge polygon { stroke: white; fill: white; }
.node polygon { fill: white; }
]]></style>
<script type="text/javascript"><![CDATA[
var edges = document.getElementsByTagName('g');
if (edges && edges.length) {
  for (var i=0;i<edges.length;i++) {
    if (edges[i].id.substr(0,4)=='edge') {
      edges[i].setAttribute('class','edge');
    }
  }
}
]]></script>
        <defs>
                <circle id="rim" cx="0" cy="0" r="7"/>
                <circle id="rim2" cx="0" cy="0" r="3.5"/>
                <g id="zoomPlus">
                        <use xlink:href="#rim" fill="#404040">
                                <set attributeName="fill" to="#808080" begin="zoomplus.mouseover" end="zoomplus.mouseout"/>
                        </use>
                        <path d="M-4,0h8M0,-4v8" fill="none" stroke="white" stroke-width="1.5" pointer-events="none"/>
                </g>
                <g id="zoomMin">
                        <use xlink:href="#rim" fill="#404040">
                                <set attributeName="fill" to="#808080" begin="zoomminus.mouseover" end="zoomminus.mouseout"/>
                        </use>
                        <path d="M-4,0h8" fill="none" stroke="white" stroke-width="1.5" pointer-events="none"/>
                </g>
                <g id="dirArrow">
                        <path fill="none" stroke="white" stroke-width="1.5" d="M0,-3.0v7 M-2.5,-0.5L0,-3.0L2.5,-0.5"/>
                </g>
               <g id="resetDef">
                       <use xlink:href="#rim2" fill="#404040">
                               <set attributeName="fill" to="#808080" begin="reset.mouseover" end="reset.mouseout"/>
                       </use>
               </g>
        </defs>

<script type="text/javascript">
var viewWidth = 1202;
var viewHeight = 190;
var sectionId = 'dynsection-82';
</script>
<script xlink:href="svgpan.js"/>
<svg id="graph" class="graph">
<g id="viewport">
<title>obe::Collision::PolygonalCollider::u_setPointPositionFromMaster</title>
<!-- Node892 -->
<g id="node1" class="node"><title>Node892</title>
<polygon fill="#bfbfbf" stroke="black" points="0,-83 0,-124 159,-124 159,-83 0,-83"/>
<text text-anchor="start" x="8" y="-112" font-family="Helvetica,sans-Serif" font-size="10.00">obe::Collision::Polygonal</text>
<text text-anchor="start" x="8" y="-101" font-family="Helvetica,sans-Serif" font-size="10.00">Collider::u_setPointPositionFrom</text>
<text text-anchor="middle" x="79.5" y="-90" font-family="Helvetica,sans-Serif" font-size="10.00">Master</text>
</g>
<!-- Node893 -->
<g id="node2" class="node"><title>Node893</title>
<g id="a_node2"><a xlink:href="namespaceobe_1_1_script_1_1_core_lib.html#a07d6c11bbb082bc45bdba50d97965c00" target="_top" xlink:title="obe::Script::CoreLib\l::loadCollision">
<polygon fill="none" stroke="black" points="195,-88.5 195,-118.5 298,-118.5 298,-88.5 195,-88.5"/>
<text text-anchor="start" x="203" y="-106.5" font-family="Helvetica,sans-Serif" font-size="10.00">obe::Script::CoreLib</text>
<text text-anchor="middle" x="246.5" y="-95.5" font-family="Helvetica,sans-Serif" font-size="10.00">::loadCollision</text>
</a>
</g>
</g>
<!-- Node892&#45;&gt;Node893 -->
<g id="edge1" class="edge"><title>Node892&#45;&gt;Node893</title>
<path fill="none" stroke="midnightblue" d="M169.362,-103.5C178.058,-103.5 186.658,-103.5 194.775,-103.5"/>
<polygon fill="midnightblue" stroke="midnightblue" points="169.134,-100 159.134,-103.5 169.134,-107 169.134,-100"/>
</g>
<!-- Node894 -->
<g id="node3" class="node"><title>Node894</title>
<g id="a_node3"><a xlink:href="namespaceobe_1_1_script.html#abdb81ec0976f1097cef6711415b8fac3" target="_top" xlink:title="obe::Script::loadCoreLib">
<polygon fill="none" stroke="black" points="334,-94 334,-113 455,-113 455,-94 334,-94"/>
<text text-anchor="middle" x="394.5" y="-101" font-family="Helvetica,sans-Serif" font-size="10.00">obe::Script::loadCoreLib</text>
</a>
</g>
</g>
<!-- Node893&#45;&gt;Node894 -->
<g id="edge2" class="edge"><title>Node893&#45;&gt;Node894</title>
<path fill="none" stroke="midnightblue" d="M308.328,-96.8341C316.785,-96.7162 325.467,-96.7223 333.902,-96.8521"/>
<polygon fill="midnightblue" stroke="midnightblue" points="308.081,-93.3383 298.154,-97.0393 308.223,-100.337 308.081,-93.3383"/>
</g>
<!-- Node894&#45;&gt;Node893 -->
<g id="edge16" class="edge"><title>Node894&#45;&gt;Node893</title>
<path fill="none" stroke="midnightblue" d="M323.805,-110.244C315.154,-110.276 306.441,-110.182 298.154,-109.961"/>
<polygon fill="midnightblue" stroke="midnightblue" points="323.936,-113.743 333.902,-110.148 323.869,-106.743 323.936,-113.743"/>
</g>
<!-- Node895 -->
<g id="node4" class="node"><title>Node895</title>
<g id="a_node4"><a xlink:href="namespaceobe_1_1_script.html#a4e6ee77032cf7f66544f9b08464a60b7" target="_top" xlink:title="obe::Script::loadLib">
<polygon fill="none" stroke="black" points="491,-94 491,-113 592,-113 592,-94 491,-94"/>
<text text-anchor="middle" x="541.5" y="-101" font-family="Helvetica,sans-Serif" font-size="10.00">obe::Script::loadLib</text>
</a>
</g>
</g>
<!-- Node894&#45;&gt;Node895 -->
<g id="edge3" class="edge"><title>Node894&#45;&gt;Node895</title>
<path fill="none" stroke="midnightblue" d="M465.401,-103.5C474.037,-103.5 482.723,-103.5 490.967,-103.5"/>
<polygon fill="midnightblue" stroke="midnightblue" points="465.314,-100 455.314,-103.5 465.314,-107 465.314,-100"/>
</g>
<!-- Node896 -->
<g id="node5" class="node"><title>Node896</title>
<g id="a_node5"><a xlink:href="namespaceobe_1_1_modes.html#a1e38c0d9a2ca0230f0de79c298f53ab9" target="_top" xlink:title="A mode that will start the Toolkit. ">
<polygon fill="none" stroke="black" points="805,-143 805,-162 951,-162 951,-143 805,-143"/>
<text text-anchor="middle" x="878" y="-150" font-family="Helvetica,sans-Serif" font-size="10.00">obe::Modes::startToolkitMode</text>
</a>
</g>
</g>
<!-- Node895&#45;&gt;Node896 -->
<g id="edge4" class="edge"><title>Node895&#45;&gt;Node896</title>
<path fill="none" stroke="midnightblue" d="M560.108,-119.839C576.345,-133.706 601.828,-152.576 628,-160.5 697.752,-181.619 783.556,-171.471 834.063,-162.067"/>
<polygon fill="midnightblue" stroke="midnightblue" points="562.319,-117.122 552.506,-113.128 557.687,-122.37 562.319,-117.122"/>
</g>
<!-- Node899 -->
<g id="node8" class="node"><title>Node899</title>
<g id="a_node8"><a xlink:href="classobe_1_1_scene_1_1_world.html#a32964e659e18cb32094d9f8ceea30aa3" target="_top" xlink:title="obe::Scene::World::\lWorld">
<polygon fill="none" stroke="black" points="826,-77.5 826,-107.5 930,-107.5 930,-77.5 826,-77.5"/>
<text text-anchor="start" x="834" y="-95.5" font-family="Helvetica,sans-Serif" font-size="10.00">obe::Scene::World::</text>
<text text-anchor="middle" x="878" y="-84.5" font-family="Helvetica,sans-Serif" font-size="10.00">World</text>
</a>
</g>
</g>
<!-- Node895&#45;&gt;Node899 -->
<g id="edge8" class="edge"><title>Node895&#45;&gt;Node899</title>
<path fill="none" stroke="midnightblue" d="M602.51,-101.527C666.218,-99.4315 765.826,-96.156 825.912,-94.18"/>
<polygon fill="midnightblue" stroke="midnightblue" points="602.096,-98.0382 592.217,-101.865 602.327,-105.034 602.096,-98.0382"/>
</g>
<!-- Node900 -->
<g id="node9" class="node"><title>Node900</title>
<g id="a_node9"><a xlink:href="namespaceobe_1_1_scene.html#ae5cbcc3278d9115d603e5024dec9136e" target="_top" xlink:title="obe::Scene::loadWorldScript\lEngineBaseLib">
<polygon fill="none" stroke="black" points="628,-44.5 628,-74.5 769,-74.5 769,-44.5 628,-44.5"/>
<text text-anchor="start" x="636" y="-62.5" font-family="Helvetica,sans-Serif" font-size="10.00">obe::Scene::loadWorldScript</text>
<text text-anchor="middle" x="698.5" y="-51.5" font-family="Helvetica,sans-Serif" font-size="10.00">EngineBaseLib</text>
</a>
</g>
</g>
<!-- Node895&#45;&gt;Node900 -->
<g id="edge9" class="edge"><title>Node895&#45;&gt;Node900</title>
<path fill="none" stroke="midnightblue" d="M585.871,-91.1882C604.04,-86.0306 625.336,-79.9852 644.429,-74.5654"/>
<polygon fill="midnightblue" stroke="midnightblue" points="584.797,-87.8548 576.133,-93.9527 586.708,-94.5887 584.797,-87.8548"/>
</g>
<!-- Node901 -->
<g id="node10" class="node"><title>Node901</title>
<g id="a_node10"><a xlink:href="namespaceobe_1_1_script.html#a5e992c0efb0543e7c934bc1065f08b01" target="_top" xlink:title="obe::Script::loadLibBridge">
<polygon fill="none" stroke="black" points="634.5,-6 634.5,-25 762.5,-25 762.5,-6 634.5,-6"/>
<text text-anchor="middle" x="698.5" y="-13" font-family="Helvetica,sans-Serif" font-size="10.00">obe::Script::loadLibBridge</text>
</a>
</g>
</g>
<!-- Node895&#45;&gt;Node901 -->
<g id="edge11" class="edge"><title>Node895&#45;&gt;Node901</title>
<path fill="none" stroke="midnightblue" d="M559.106,-86.5505C575.326,-70.9112 601.393,-48.1137 628,-34.5 635.461,-30.6825 643.777,-27.5618 651.99,-25.0347"/>
<polygon fill="midnightblue" stroke="midnightblue" points="556.228,-84.4735 551.571,-93.9898 561.146,-89.455 556.228,-84.4735"/>
</g>
<!-- Node904 -->
<g id="node13" class="node"><title>Node904</title>
<g id="a_node13"><a xlink:href="namespaceobe_1_1_script.html#aad6ef67388e6d16eb01853f208da410f" target="_top" xlink:title="obe::Script::loadBaseLib">
<polygon fill="none" stroke="black" points="637,-132 637,-151 760,-151 760,-132 637,-132"/>
<text text-anchor="middle" x="698.5" y="-139" font-family="Helvetica,sans-Serif" font-size="10.00">obe::Script::loadBaseLib</text>
</a>
</g>
</g>
<!-- Node895&#45;&gt;Node904 -->
<g id="edge14" class="edge"><title>Node895&#45;&gt;Node904</title>
<path fill="none" stroke="midnightblue" d="M591.611,-115.54C613.265,-120.849 638.35,-126.999 658.668,-131.98"/>
<polygon fill="midnightblue" stroke="midnightblue" points="592.159,-112.071 581.613,-113.089 590.492,-118.87 592.159,-112.071"/>
</g>
<!-- Node897 -->
<g id="node6" class="node"><title>Node897</title>
<g id="a_node6"><a xlink:href="namespaceobe_1_1_modes.html#a6a8b08eee511d4895c4da96d4ba223a6" target="_top" xlink:title="obe::Modes::startDevMenu">
<polygon fill="none" stroke="black" points="987,-162 987,-181 1120,-181 1120,-162 987,-162"/>
<text text-anchor="middle" x="1053.5" y="-169" font-family="Helvetica,sans-Serif" font-size="10.00">obe::Modes::startDevMenu</text>
</a>
</g>
</g>
<!-- Node896&#45;&gt;Node897 -->
<g id="edge5" class="edge"><title>Node896&#45;&gt;Node897</title>
<path fill="none" stroke="midnightblue" d="M961.118,-161.493C969.716,-162.434 978.375,-163.383 986.755,-164.3"/>
<polygon fill="midnightblue" stroke="midnightblue" points="961.394,-158.002 951.072,-160.393 960.632,-164.961 961.394,-158.002"/>
</g>
<!-- Node898 -->
<g id="node7" class="node"><title>Node898</title>
<g id="a_node7"><a xlink:href="_ob_engine_8cpp.html#a3c04138a5bfe5d72780bb7e82a18e627" target="_top" xlink:title="main">
<polygon fill="none" stroke="black" points="1156,-143 1156,-162 1194,-162 1194,-143 1156,-143"/>
<text text-anchor="middle" x="1175" y="-150" font-family="Helvetica,sans-Serif" font-size="10.00">main</text>
</a>
</g>
</g>
<!-- Node896&#45;&gt;Node898 -->
<g id="edge7" class="edge"><title>Node896&#45;&gt;Node898</title>
<path fill="none" stroke="midnightblue" d="M961.308,-152.5C1028.39,-152.5 1117.99,-152.5 1155.87,-152.5"/>
<polygon fill="midnightblue" stroke="midnightblue" points="961.165,-149 951.165,-152.5 961.165,-156 961.165,-149"/>
</g>
<!-- Node897&#45;&gt;Node898 -->
<g id="edge6" class="edge"><title>Node897&#45;&gt;Node898</title>
<path fill="none" stroke="midnightblue" d="M1124.82,-160.319C1136.35,-158.487 1147.33,-156.741 1155.98,-155.365"/>
<polygon fill="midnightblue" stroke="midnightblue" points="1123.93,-156.917 1114.6,-161.944 1125.03,-163.831 1123.93,-156.917"/>
</g>
<!-- Node900&#45;&gt;Node899 -->
<g id="edge10" class="edge"><title>Node900&#45;&gt;Node899</title>
<path fill="none" stroke="midnightblue" d="M778.998,-74.2799C794.939,-77.2436 811.283,-80.2821 825.941,-83.0074"/>
<polygon fill="midnightblue" stroke="midnightblue" points="779.615,-70.8346 769.143,-72.4478 778.335,-77.7167 779.615,-70.8346"/>
</g>
<!-- Node902 -->
<g id="node11" class="node"><title>Node902</title>
<g id="a_node11"><a xlink:href="namespaceobe_1_1_script.html#a5dc8321da50fd4b5dc2935e4d8c93a4e" target="_top" xlink:title="obe::Script::loadScrGame\lObject">
<polygon fill="none" stroke="black" points="813.5,-0.5 813.5,-30.5 942.5,-30.5 942.5,-0.5 813.5,-0.5"/>
<text text-anchor="start" x="821.5" y="-18.5" font-family="Helvetica,sans-Serif" font-size="10.00">obe::Script::loadScrGame</text>
<text text-anchor="middle" x="878" y="-7.5" font-family="Helvetica,sans-Serif" font-size="10.00">Object</text>
</a>
</g>
</g>
<!-- Node901&#45;&gt;Node902 -->
<g id="edge12" class="edge"><title>Node901&#45;&gt;Node902</title>
<path fill="none" stroke="midnightblue" d="M772.737,-15.5C786.171,-15.5 800.096,-15.5 813.226,-15.5"/>
<polygon fill="midnightblue" stroke="midnightblue" points="772.58,-12.0001 762.58,-15.5 772.58,-19.0001 772.58,-12.0001"/>
</g>
<!-- Node903 -->
<g id="node12" class="node"><title>Node903</title>
<g id="a_node12"><a xlink:href="classobe_1_1_script_1_1_game_object.html#aadeac0036d2fe21d523acfd4e9011a23" target="_top" xlink:title="obe::Script::GameObject\l::loadGameObject">
<polygon fill="none" stroke="black" points="991,-0.5 991,-30.5 1116,-30.5 1116,-0.5 991,-0.5"/>
<text text-anchor="start" x="999" y="-18.5" font-family="Helvetica,sans-Serif" font-size="10.00">obe::Script::GameObject</text>
<text text-anchor="middle" x="1053.5" y="-7.5" font-family="Helvetica,sans-Serif" font-size="10.00">::loadGameObject</text>
</a>
</g>
</g>
<!-- Node902&#45;&gt;Node903 -->
<g id="edge13" class="edge"><title>Node902&#45;&gt;Node903</title>
<path fill="none" stroke="midnightblue" d="M952.721,-15.5C965.445,-15.5 978.552,-15.5 990.913,-15.5"/>
<polygon fill="midnightblue" stroke="midnightblue" points="952.62,-12.0001 942.62,-15.5 952.62,-19.0001 952.62,-12.0001"/>
</g>
<!-- Node904&#45;&gt;Node896 -->
<g id="edge15" class="edge"><title>Node904&#45;&gt;Node896</title>
<path fill="none" stroke="midnightblue" d="M770.346,-145.89C781.662,-146.592 793.384,-147.318 804.733,-148.021"/>
<polygon fill="midnightblue" stroke="midnightblue" points="770.286,-142.38 760.089,-145.255 769.853,-149.367 770.286,-142.38"/>
</g>
</g>
</svg>
        <g id="navigator" transform="translate(0 0)" fill="#404254">
                <rect fill="#f2f5e9" fill-opacity="0.5" stroke="#606060" stroke-width=".5" x="0" y="0" width="60" height="60"/>
                <use id="zoomplus" xlink:href="#zoomPlus" x="17" y="9" onmousedown="handleZoom(evt,'in')"/>
                <use id="zoomminus" xlink:href="#zoomMin" x="42" y="9" onmousedown="handleZoom(evt,'out')"/>
                <use id="reset" xlink:href="#resetDef" x="30" y="36" onmousedown="handleReset()"/>
                <g id="arrowUp" xlink:href="#dirArrow" transform="translate(30 24)" onmousedown="handlePan(0,-1)">
                  <use xlink:href="#rim" fill="#404040">
                        <set attributeName="fill" to="#808080" begin="arrowUp.mouseover" end="arrowUp.mouseout"/>
                  </use>
                  <path fill="none" stroke="white" stroke-width="1.5" d="M0,-3.0v7 M-2.5,-0.5L0,-3.0L2.5,-0.5"/>
                </g>
                <g id="arrowRight" xlink:href="#dirArrow" transform="rotate(90) translate(36 -43)" onmousedown="handlePan(1,0)">
                  <use xlink:href="#rim" fill="#404040">
                        <set attributeName="fill" to="#808080" begin="arrowRight.mouseover" end="arrowRight.mouseout"/>
                  </use>
                  <path fill="none" stroke="white" stroke-width="1.5" d="M0,-3.0v7 M-2.5,-0.5L0,-3.0L2.5,-0.5"/>
                </g>
                <g id="arrowDown" xlink:href="#dirArrow" transform="rotate(180) translate(-30 -48)" onmousedown="handlePan(0,1)">
                  <use xlink:href="#rim" fill="#404040">
                        <set attributeName="fill" to="#808080" begin="arrowDown.mouseover" end="arrowDown.mouseout"/>
                  </use>
                  <path fill="none" stroke="white" stroke-width="1.5" d="M0,-3.0v7 M-2.5,-0.5L0,-3.0L2.5,-0.5"/>
                </g>
                <g id="arrowLeft" xlink:href="#dirArrow" transform="rotate(270) translate(-36 17)" onmousedown="handlePan(-1,0)">
                  <use xlink:href="#rim" fill="#404040">
                        <set attributeName="fill" to="#808080" begin="arrowLeft.mouseover" end="arrowLeft.mouseout"/>
                  </use>
                  <path fill="none" stroke="white" stroke-width="1.5" d="M0,-3.0v7 M-2.5,-0.5L0,-3.0L2.5,-0.5"/>
                </g>
        </g>
        <svg viewBox="0 0 15 15" width="100%" height="30px" preserveAspectRatio="xMaxYMin meet">
         <g id="arrow_out" transform="scale(0.3 0.3)">
          <a xlink:href="classobe_1_1_collision_1_1_polygonal_collider_a160928d0bcf6fba151d2b21682afee76_icgraph_org.svg" target="_base">
           <rect id="button" ry="5" rx="5" y="6" x="6" height="38" width="38"
                fill="#f2f5e9" fill-opacity="0.5" stroke="#606060" stroke-width="1.0"/>
           <path id="arrow"
             d="M 11.500037,31.436501 C 11.940474,20.09759 22.043105,11.32322 32.158766,21.979434 L 37.068811,17.246167 C 37.068811,17.246167 37.088388,32 37.088388,32 L 22.160133,31.978069 C 22.160133,31.978069 26.997745,27.140456 26.997745,27.140456 C 18.528582,18.264221 13.291696,25.230495 11.500037,31.436501 z"
             style="fill:#404040;"/>
          </a>
         </g>
        </svg>
</svg>
