<?xml version="1.0" encoding="UTF-8" standalone="no"?>
<!DOCTYPE svg PUBLIC "-//W3C//DTD SVG 1.1//EN"
 "http://www.w3.org/Graphics/SVG/1.1/DTD/svg11.dtd">
<!-- Generated by graphviz version 2.38.0 (20140413.2041)
 -->
<!-- Title: vili::LinkNode::apply Pages: 1 -->
<!--zoomable 733 -->
<svg id="main" version="1.1" xmlns="http://www.w3.org/2000/svg" xmlns:xlink="http://www.w3.org/1999/xlink" xml:space="preserve" onload="init(evt)">
<style type="text/css"><![CDATA[
.edge:hover path { stroke: red; }
.edge:hover polygon { stroke: red; fill: red; }
.edge path { stroke: white; }
.edge polygon { stroke: white; fill: white; }
.node polygon { fill: white; }
]]></style>
<script type="text/javascript"><![CDATA[
var edges = document.getElementsByTagName('g');
if (edges && edges.length) {
  for (var i=0;i<edges.length;i++) {
    if (edges[i].id.substr(0,4)=='edge') {
      edges[i].setAttribute('class','edge');
    }
  }
}
]]></script>
        <defs>
                <circle id="rim" cx="0" cy="0" r="7"/>
                <circle id="rim2" cx="0" cy="0" r="3.5"/>
                <g id="zoomPlus">
                        <use xlink:href="#rim" fill="#404040">
                                <set attributeName="fill" to="#808080" begin="zoomplus.mouseover" end="zoomplus.mouseout"/>
                        </use>
                        <path d="M-4,0h8M0,-4v8" fill="none" stroke="white" stroke-width="1.5" pointer-events="none"/>
                </g>
                <g id="zoomMin">
                        <use xlink:href="#rim" fill="#404040">
                                <set attributeName="fill" to="#808080" begin="zoomminus.mouseover" end="zoomminus.mouseout"/>
                        </use>
                        <path d="M-4,0h8" fill="none" stroke="white" stroke-width="1.5" pointer-events="none"/>
                </g>
                <g id="dirArrow">
                        <path fill="none" stroke="white" stroke-width="1.5" d="M0,-3.0v7 M-2.5,-0.5L0,-3.0L2.5,-0.5"/>
                </g>
               <g id="resetDef">
                       <use xlink:href="#rim2" fill="#404040">
                               <set attributeName="fill" to="#808080" begin="reset.mouseover" end="reset.mouseout"/>
                       </use>
               </g>
        </defs>

<script type="text/javascript">
var viewWidth = 1056;
var viewHeight = 733;
var sectionId = 'dynsection-2';
</script>
<script xlink:href="svgpan.js"/>
<svg id="graph" class="graph">
<g id="viewport">
<title>vili::LinkNode::apply</title>
<!-- Node2 -->
<g id="node1" class="node"><title>Node2</title>
<polygon fill="#bfbfbf" stroke="black" points="0,-156.113 0,-175.113 103,-175.113 103,-156.113 0,-156.113"/>
<text text-anchor="middle" x="51.5" y="-163.113" font-family="Helvetica,sans-Serif" font-size="10.00">vili::LinkNode::apply</text>
</g>
<!-- Node3 -->
<g id="node2" class="node"><title>Node3</title>
<g id="a_node2"><a xlink:href="classvili_1_1_complex_node.html#a85a665e4380f90e3445ad71c296a42ee" target="_top" xlink:title="Removes a child Node from the ComplexNode. ">
<polygon fill="none" stroke="black" points="149,-623.613 149,-653.613 249,-653.613 249,-623.613 149,-623.613"/>
<text text-anchor="start" x="157" y="-641.613" font-family="Helvetica,sans-Serif" font-size="10.00">vili::ComplexNode::</text>
<text text-anchor="middle" x="199" y="-630.613" font-family="Helvetica,sans-Serif" font-size="10.00">removeNode</text>
</a>
</g>
</g>
<!-- Node2&#45;&gt;Node3 -->
<g id="edge1" class="edge"><title>Node2&#45;&gt;Node3</title>
<path fill="none" stroke="midnightblue" d="M55.539,-175.493C73.2642,-233.115 163.439,-526.261 190.386,-613.86"/>
<polygon fill="midnightblue" stroke="midnightblue" points="187.064,-614.966 193.349,-623.495 193.754,-612.907 187.064,-614.966"/>
</g>
<!-- Node12 -->
<g id="node11" class="node"><title>Node12</title>
<g id="a_node11"><a xlink:href="classvili_1_1_link_node.html#a7d237573208ae570b0711ffa537488b8" target="_top" xlink:title="Get the Node the LinkNode is pointing to. ">
<polygon fill="none" stroke="black" points="139,-298.113 139,-317.113 259,-317.113 259,-298.113 139,-298.113"/>
<text text-anchor="middle" x="199" y="-305.113" font-family="Helvetica,sans-Serif" font-size="10.00">vili::LinkNode::getTarget</text>
</a>
</g>
</g>
<!-- Node2&#45;&gt;Node12 -->
<g id="edge10" class="edge"><title>Node2&#45;&gt;Node12</title>
<path fill="none" stroke="midnightblue" d="M62.5008,-175.374C86.9009,-199.187 149.732,-260.507 180.499,-290.534"/>
<polygon fill="midnightblue" stroke="midnightblue" points="178.328,-293.305 187.929,-297.785 183.217,-288.296 178.328,-293.305"/>
</g>
<!-- Node22 -->
<g id="node21" class="node"><title>Node22</title>
<g id="a_node21"><a xlink:href="classvili_1_1_node.html#a9d438d0731569aeeb9cae121796c1d41" target="_top" xlink:title="Returns the ClassType of the Node (All Types in vili::NodeType) ">
<polygon fill="none" stroke="black" points="602,-137.113 602,-156.113 698,-156.113 698,-137.113 602,-137.113"/>
<text text-anchor="middle" x="650" y="-144.113" font-family="Helvetica,sans-Serif" font-size="10.00">vili::Node::getType</text>
</a>
</g>
</g>
<!-- Node2&#45;&gt;Node22 -->
<g id="edge44" class="edge"><title>Node2&#45;&gt;Node22</title>
<path fill="none" stroke="midnightblue" d="M80.0535,-155.996C124.574,-141.018 215.393,-112.785 295,-102.613 407.482,-88.241 540.155,-116.937 606.595,-134.445"/>
<polygon fill="midnightblue" stroke="midnightblue" points="605.726,-137.836 616.291,-137.046 607.539,-131.075 605.726,-137.836"/>
</g>
<!-- Node33 -->
<g id="node32" class="node"><title>Node33</title>
<g id="a_node32"><a xlink:href="classvili_1_1_link_node.html#a4b4a339604e69b5bb5bafa70e455430b" target="_top" xlink:title="Copies the LinkNode into a new ContainerNode. ">
<polygon fill="none" stroke="black" points="445.5,-61.1135 445.5,-80.1135 546.5,-80.1135 546.5,-61.1135 445.5,-61.1135"/>
<text text-anchor="middle" x="496" y="-68.1135" font-family="Helvetica,sans-Serif" font-size="10.00">vili::LinkNode::copy</text>
</a>
</g>
</g>
<!-- Node2&#45;&gt;Node33 -->
<g id="edge45" class="edge"><title>Node2&#45;&gt;Node33</title>
<path fill="none" stroke="midnightblue" d="M55.2618,-155.779C63.1755,-129.722 88.6654,-59.0322 139,-31.6135 242.818,24.9394 289.24,-7.61053 405,-31.6135 427.792,-36.3394 451.903,-47.137 469.426,-56.1753"/>
<polygon fill="midnightblue" stroke="midnightblue" points="467.961,-59.3603 478.434,-60.9658 471.248,-53.18 467.961,-59.3603"/>
</g>
<!-- Node4 -->
<g id="node3" class="node"><title>Node4</title>
<g id="a_node3"><a xlink:href="namespacevili_1_1_functions_1_1_vector.html#aa9f0dd6b1c4be1e3d86846944329d9f2" target="_top" xlink:title="Check if a given item is in the given std::vector. ">
<polygon fill="none" stroke="black" points="295,-694.613 295,-724.613 405,-724.613 405,-694.613 295,-694.613"/>
<text text-anchor="start" x="303" y="-712.613" font-family="Helvetica,sans-Serif" font-size="10.00">vili::Functions::Vector</text>
<text text-anchor="middle" x="350" y="-701.613" font-family="Helvetica,sans-Serif" font-size="10.00">::isInList</text>
</a>
</g>
</g>
<!-- Node3&#45;&gt;Node4 -->
<g id="edge2" class="edge"><title>Node3&#45;&gt;Node4</title>
<path fill="none" stroke="midnightblue" d="M229.798,-653.748C248.441,-663.12 273.012,-675.293 295,-685.613 298.355,-687.188 301.838,-688.796 305.347,-690.397"/>
<polygon fill="midnightblue" stroke="midnightblue" points="304.07,-693.661 314.624,-694.59 306.953,-687.282 304.07,-693.661"/>
</g>
<!-- Node5 -->
<g id="node4" class="node"><title>Node5</title>
<g id="a_node4"><a xlink:href="classvili_1_1_complex_node.html#a550584eb0dc76bbcb50e35182ac308cd" target="_top" xlink:title="Get all the Node Ids of the given Type contained in the ComplexNode. ">
<polygon fill="none" stroke="black" points="300,-645.613 300,-675.613 400,-675.613 400,-645.613 300,-645.613"/>
<text text-anchor="start" x="308" y="-663.613" font-family="Helvetica,sans-Serif" font-size="10.00">vili::ComplexNode::</text>
<text text-anchor="middle" x="350" y="-652.613" font-family="Helvetica,sans-Serif" font-size="10.00">getAll</text>
</a>
</g>
</g>
<!-- Node3&#45;&gt;Node5 -->
<g id="edge3" class="edge"><title>Node3&#45;&gt;Node5</title>
<path fill="none" stroke="midnightblue" d="M249.201,-645.878C262.17,-647.793 276.3,-649.879 289.739,-651.864"/>
<polygon fill="midnightblue" stroke="midnightblue" points="289.447,-655.358 299.851,-653.357 290.469,-648.433 289.447,-655.358"/>
</g>
<!-- Node6 -->
<g id="node5" class="node"><title>Node6</title>
<g id="a_node5"><a xlink:href="namespacevili_1_1_functions_1_1_vector.html#a9f11b4d9b535b580a613a064d18b9caa" target="_top" xlink:title="Get the index of an item in a std::vector. ">
<polygon fill="none" stroke="black" points="441,-604.613 441,-634.613 551,-634.613 551,-604.613 441,-604.613"/>
<text text-anchor="start" x="449" y="-622.613" font-family="Helvetica,sans-Serif" font-size="10.00">vili::Functions::Vector</text>
<text text-anchor="middle" x="496" y="-611.613" font-family="Helvetica,sans-Serif" font-size="10.00">::indexOfElement</text>
</a>
</g>
</g>
<!-- Node3&#45;&gt;Node6 -->
<g id="edge4" class="edge"><title>Node3&#45;&gt;Node6</title>
<path fill="none" stroke="midnightblue" d="M249.044,-635.455C298.76,-632.253 375.938,-627.282 430.564,-623.764"/>
<polygon fill="midnightblue" stroke="midnightblue" points="431.077,-627.238 440.831,-623.102 430.627,-620.252 431.077,-627.238"/>
</g>
<!-- Node7 -->
<g id="node6" class="node"><title>Node7</title>
<g id="a_node6"><a xlink:href="classaube_1_1_error_handler.html#a7c8d44a3e7f019646d289950abc5301b" target="_top" xlink:title="Raises an Error loaded in the Aube Error Database (AED) ">
<polygon fill="none" stroke="black" points="770.5,-382.613 770.5,-412.613 868.5,-412.613 868.5,-382.613 770.5,-382.613"/>
<text text-anchor="start" x="778.5" y="-400.613" font-family="Helvetica,sans-Serif" font-size="10.00">aube::ErrorHandler</text>
<text text-anchor="middle" x="819.5" y="-389.613" font-family="Helvetica,sans-Serif" font-size="10.00">::Raise</text>
</a>
</g>
</g>
<!-- Node6&#45;&gt;Node7 -->
<g id="edge5" class="edge"><title>Node6&#45;&gt;Node7</title>
<path fill="none" stroke="midnightblue" d="M551.055,-624.928C597.903,-626.742 665.452,-622.365 713,-589.613 771.906,-549.038 801.2,-464.462 812.599,-422.43"/>
<polygon fill="midnightblue" stroke="midnightblue" points="815.997,-423.271 815.119,-412.713 809.221,-421.514 815.997,-423.271"/>
</g>
<!-- Node8 -->
<g id="node7" class="node"><title>Node8</title>
<g id="a_node7"><a xlink:href="classaube_1_1_error_message.html#a3a39b6fcd8fdb12eaf6383123535b8ca" target="_top" xlink:title="Gets the File where is located the ErrorMessage when raised. ">
<polygon fill="none" stroke="black" points="935,-480.613 935,-510.613 1039,-510.613 1039,-480.613 935,-480.613"/>
<text text-anchor="start" x="943" y="-498.613" font-family="Helvetica,sans-Serif" font-size="10.00">aube::ErrorMessage</text>
<text text-anchor="middle" x="987" y="-487.613" font-family="Helvetica,sans-Serif" font-size="10.00">::getFile</text>
</a>
</g>
</g>
<!-- Node7&#45;&gt;Node8 -->
<g id="edge6" class="edge"><title>Node7&#45;&gt;Node8</title>
<path fill="none" stroke="midnightblue" d="M839.539,-412.624C860.081,-428.371 894.14,-453.206 926,-470.613 929.52,-472.537 933.22,-474.408 936.981,-476.204"/>
<polygon fill="midnightblue" stroke="midnightblue" points="935.839,-479.531 946.39,-480.503 938.748,-473.164 935.839,-479.531"/>
</g>
<!-- Node9 -->
<g id="node8" class="node"><title>Node9</title>
<g id="a_node8"><a xlink:href="classaube_1_1_error_message.html#a9184cc96589578f434351c105b0cd5f7" target="_top" xlink:title="Gets the location of the error in the code. ">
<polygon fill="none" stroke="black" points="935,-431.613 935,-461.613 1039,-461.613 1039,-431.613 935,-431.613"/>
<text text-anchor="start" x="943" y="-449.613" font-family="Helvetica,sans-Serif" font-size="10.00">aube::ErrorMessage</text>
<text text-anchor="middle" x="987" y="-438.613" font-family="Helvetica,sans-Serif" font-size="10.00">::getLocation</text>
</a>
</g>
</g>
<!-- Node7&#45;&gt;Node9 -->
<g id="edge7" class="edge"><title>Node7&#45;&gt;Node9</title>
<path fill="none" stroke="midnightblue" d="M868.814,-411.918C886.607,-417.186 906.986,-423.22 925.706,-428.762"/>
<polygon fill="midnightblue" stroke="midnightblue" points="924.739,-432.126 935.321,-431.609 926.726,-425.414 924.739,-432.126"/>
</g>
<!-- Node10 -->
<g id="node9" class="node"><title>Node10</title>
<g id="a_node9"><a xlink:href="classaube_1_1_error_message.html#a07927cb3e2d0712c459cc9e2b5f52696" target="_top" xlink:title="Gets the message displayed by the ErrorMessage when raised. ">
<polygon fill="none" stroke="black" points="935,-382.613 935,-412.613 1039,-412.613 1039,-382.613 935,-382.613"/>
<text text-anchor="start" x="943" y="-400.613" font-family="Helvetica,sans-Serif" font-size="10.00">aube::ErrorMessage</text>
<text text-anchor="middle" x="987" y="-389.613" font-family="Helvetica,sans-Serif" font-size="10.00">::getMessage</text>
</a>
</g>
</g>
<!-- Node7&#45;&gt;Node10 -->
<g id="edge8" class="edge"><title>Node7&#45;&gt;Node10</title>
<path fill="none" stroke="midnightblue" d="M868.814,-397.613C886.283,-397.613 906.244,-397.613 924.681,-397.613"/>
<polygon fill="midnightblue" stroke="midnightblue" points="924.741,-401.114 934.741,-397.613 924.741,-394.114 924.741,-401.114"/>
</g>
<!-- Node11 -->
<g id="node10" class="node"><title>Node11</title>
<g id="a_node10"><a xlink:href="classaube_1_1_error_message.html#a77c2f9b7e93542c958173b52da267989" target="_top" xlink:title="Gets hints that can help the error resolution. ">
<polygon fill="none" stroke="black" points="935,-333.613 935,-363.613 1039,-363.613 1039,-333.613 935,-333.613"/>
<text text-anchor="start" x="943" y="-351.613" font-family="Helvetica,sans-Serif" font-size="10.00">aube::ErrorMessage</text>
<text text-anchor="middle" x="987" y="-340.613" font-family="Helvetica,sans-Serif" font-size="10.00">::getHints</text>
</a>
</g>
</g>
<!-- Node7&#45;&gt;Node11 -->
<g id="edge9" class="edge"><title>Node7&#45;&gt;Node11</title>
<path fill="none" stroke="midnightblue" d="M868.814,-383.309C886.607,-378.041 906.986,-372.007 925.706,-366.465"/>
<polygon fill="midnightblue" stroke="midnightblue" points="926.726,-369.813 935.321,-363.618 924.739,-363.101 926.726,-369.813"/>
</g>
<!-- Node12&#45;&gt;Node7 -->
<g id="edge37" class="edge"><title>Node12&#45;&gt;Node7</title>
<path fill="none" stroke="midnightblue" d="M200.316,-317.114C202.122,-354.214 214.225,-489.969 295,-544.613 460.592,-656.637 710.48,-482.706 791.863,-419.281"/>
<polygon fill="midnightblue" stroke="midnightblue" points="794.389,-421.746 800.075,-412.807 790.055,-416.249 794.389,-421.746"/>
</g>
<!-- Node13 -->
<g id="node12" class="node"><title>Node13</title>
<g id="a_node12"><a xlink:href="classvili_1_1_complex_node.html#a69e5169f4f0b1aa72d9a3d7c0ee91e6f" target="_top" xlink:title="Checks if the ComplexNode contains a Node with the given Id. ">
<polygon fill="none" stroke="black" points="300,-314.613 300,-344.613 400,-344.613 400,-314.613 300,-314.613"/>
<text text-anchor="start" x="308" y="-332.613" font-family="Helvetica,sans-Serif" font-size="10.00">vili::ComplexNode::</text>
<text text-anchor="middle" x="350" y="-321.613" font-family="Helvetica,sans-Serif" font-size="10.00">contains</text>
</a>
</g>
</g>
<!-- Node12&#45;&gt;Node13 -->
<g id="edge11" class="edge"><title>Node12&#45;&gt;Node13</title>
<path fill="none" stroke="midnightblue" d="M259.317,-316.372C269.421,-317.864 279.914,-319.413 290.009,-320.903"/>
<polygon fill="midnightblue" stroke="midnightblue" points="289.539,-324.372 299.943,-322.37 290.561,-317.447 289.539,-324.372"/>
</g>
<!-- Node14 -->
<g id="node13" class="node"><title>Node14</title>
<g id="a_node13"><a xlink:href="classvili_1_1_complex_node.html#a2a280e0b84d7b5b22a49b0938977ab0b" target="_top" xlink:title="Get a DataNode contained in the ComplexNode. ">
<polygon fill="none" stroke="black" points="600,-338.613 600,-368.613 700,-368.613 700,-338.613 600,-338.613"/>
<text text-anchor="start" x="608" y="-356.613" font-family="Helvetica,sans-Serif" font-size="10.00">vili::ComplexNode::</text>
<text text-anchor="middle" x="650" y="-345.613" font-family="Helvetica,sans-Serif" font-size="10.00">getDataNode</text>
</a>
</g>
</g>
<!-- Node12&#45;&gt;Node14 -->
<g id="edge12" class="edge"><title>Node12&#45;&gt;Node14</title>
<path fill="none" stroke="midnightblue" d="M214.363,-317.143C232.331,-328.437 264.458,-346.608 295,-353.613 396.486,-376.891 518.687,-369.359 589.738,-361.601"/>
<polygon fill="midnightblue" stroke="midnightblue" points="590.297,-365.061 599.841,-360.459 589.511,-358.105 590.297,-365.061"/>
</g>
<!-- Node15 -->
<g id="node14" class="node"><title>Node15</title>
<g id="a_node14"><a xlink:href="classvili_1_1_node.html#a5a6ad518f51d824e06ae7be0328f4864" target="_top" xlink:title="Get the Node Path (Example : GrandParent/Parent/Node) ">
<polygon fill="none" stroke="black" points="760.5,-251.113 760.5,-270.113 878.5,-270.113 878.5,-251.113 760.5,-251.113"/>
<text text-anchor="middle" x="819.5" y="-258.113" font-family="Helvetica,sans-Serif" font-size="10.00">vili::Node::getNodePath</text>
</a>
</g>
</g>
<!-- Node12&#45;&gt;Node15 -->
<g id="edge38" class="edge"><title>Node12&#45;&gt;Node15</title>
<path fill="none" stroke="midnightblue" d="M259.024,-303.128C374.151,-294.38 628.075,-275.084 750.229,-265.801"/>
<polygon fill="midnightblue" stroke="midnightblue" points="750.507,-269.29 760.213,-265.043 749.977,-262.311 750.507,-269.29"/>
</g>
<!-- Node16 -->
<g id="node15" class="node"><title>Node16</title>
<g id="a_node15"><a xlink:href="classvili_1_1_node.html#a58273048e22a9ebd74e576fd8905f709" target="_top" xlink:title="vili::Node::getParent">
<polygon fill="none" stroke="black" points="935,-96.1135 935,-115.113 1039,-115.113 1039,-96.1135 935,-96.1135"/>
<text text-anchor="middle" x="987" y="-103.113" font-family="Helvetica,sans-Serif" font-size="10.00">vili::Node::getParent</text>
</a>
</g>
</g>
<!-- Node12&#45;&gt;Node16 -->
<g id="edge28" class="edge"><title>Node12&#45;&gt;Node16</title>
<path fill="none" stroke="midnightblue" d="M201.722,-297.882C207.98,-265.352 232.519,-159.259 295,-102.613 345.922,-56.4474 373.234,-63.1087 441,-51.6135 626.002,-20.2313 849.657,-69.3264 942.423,-93.4684"/>
<polygon fill="midnightblue" stroke="midnightblue" points="941.733,-96.906 952.295,-96.0727 943.519,-90.1376 941.733,-96.906"/>
</g>
<!-- Node20 -->
<g id="node19" class="node"><title>Node20</title>
<g id="a_node19"><a xlink:href="classvili_1_1_data_node.html#a623be71b43a8906703721f18c89ef178" target="_top" xlink:title="Template method (overloaded by Template specialisation) to get the contained Data. ">
<polygon fill="none" stroke="black" points="302.5,-200.113 302.5,-219.113 397.5,-219.113 397.5,-200.113 302.5,-200.113"/>
<text text-anchor="middle" x="350" y="-207.113" font-family="Helvetica,sans-Serif" font-size="10.00">vili::DataNode::get</text>
</a>
</g>
</g>
<!-- Node12&#45;&gt;Node20 -->
<g id="edge19" class="edge"><title>Node12&#45;&gt;Node20</title>
<path fill="none" stroke="midnightblue" d="M210.487,-298.039C227.364,-282.967 262.006,-253.391 295,-233.613 301.149,-229.928 307.964,-226.466 314.624,-223.381"/>
<polygon fill="midnightblue" stroke="midnightblue" points="316.45,-226.4 324.174,-219.147 313.613,-220 316.45,-226.4"/>
</g>
<!-- Node12&#45;&gt;Node22 -->
<g id="edge30" class="edge"><title>Node12&#45;&gt;Node22</title>
<path fill="none" stroke="midnightblue" d="M204.634,-298.093C216.279,-275.286 249.15,-217.428 295,-190.613 344.06,-161.921 504.735,-151.754 591.762,-148.297"/>
<polygon fill="midnightblue" stroke="midnightblue" points="592.138,-151.786 601.998,-147.908 591.872,-144.791 592.138,-151.786"/>
</g>
<!-- Node27 -->
<g id="node26" class="node"><title>Node27</title>
<g id="a_node26"><a xlink:href="namespacevili_1_1_functions_1_1_string.html#a9133ec632cc286cede9c5403c5b593b2" target="_top" xlink:title="Splits a std::string using a delimited. ">
<polygon fill="none" stroke="black" points="296.5,-112.613 296.5,-142.613 403.5,-142.613 403.5,-112.613 296.5,-112.613"/>
<text text-anchor="start" x="304.5" y="-130.613" font-family="Helvetica,sans-Serif" font-size="10.00">vili::Functions::String</text>
<text text-anchor="middle" x="350" y="-119.613" font-family="Helvetica,sans-Serif" font-size="10.00">::split</text>
</a>
</g>
</g>
<!-- Node12&#45;&gt;Node27 -->
<g id="edge29" class="edge"><title>Node12&#45;&gt;Node27</title>
<path fill="none" stroke="midnightblue" d="M204.01,-298.045C215.125,-272.456 248.603,-201.418 295,-157.613 298.707,-154.114 302.898,-150.88 307.267,-147.933"/>
<polygon fill="midnightblue" stroke="midnightblue" points="309.16,-150.878 315.806,-142.626 305.465,-144.932 309.16,-150.878"/>
</g>
<!-- Node28 -->
<g id="node27" class="node"><title>Node28</title>
<g id="a_node27"><a xlink:href="classvili_1_1_complex_node.html#aa9274f5ba9c9dbe1a0c90d54380a003a" target="_top" xlink:title="Get a ComplexNode contained in the ComplexNode. ">
<polygon fill="none" stroke="black" points="600,-289.613 600,-319.613 700,-319.613 700,-289.613 600,-289.613"/>
<text text-anchor="start" x="608" y="-307.613" font-family="Helvetica,sans-Serif" font-size="10.00">vili::ComplexNode::</text>
<text text-anchor="middle" x="650" y="-296.613" font-family="Helvetica,sans-Serif" font-size="10.00">getComplexNode</text>
</a>
</g>
</g>
<!-- Node12&#45;&gt;Node28 -->
<g id="edge31" class="edge"><title>Node12&#45;&gt;Node28</title>
<path fill="none" stroke="midnightblue" d="M259.031,-305.46C270.938,-305.107 283.368,-304.797 295,-304.613 398.457,-302.98 518.942,-303.495 589.314,-304.039"/>
<polygon fill="midnightblue" stroke="midnightblue" points="589.718,-307.543 599.746,-304.123 589.774,-300.543 589.718,-307.543"/>
</g>
<!-- Node29 -->
<g id="node28" class="node"><title>Node29</title>
<g id="a_node28"><a xlink:href="classvili_1_1_complex_node.html#abfafad10954568b678b208b7fefb074a" target="_top" xlink:title="Get a ArrayNode contained in the ComplexNode. ">
<polygon fill="none" stroke="black" points="600,-426.613 600,-456.613 700,-456.613 700,-426.613 600,-426.613"/>
<text text-anchor="start" x="608" y="-444.613" font-family="Helvetica,sans-Serif" font-size="10.00">vili::ComplexNode::</text>
<text text-anchor="middle" x="650" y="-433.613" font-family="Helvetica,sans-Serif" font-size="10.00">getArrayNode</text>
</a>
</g>
</g>
<!-- Node12&#45;&gt;Node29 -->
<g id="edge34" class="edge"><title>Node12&#45;&gt;Node29</title>
<path fill="none" stroke="midnightblue" d="M200.862,-317.472C204.509,-352.381 222.035,-470.538 295,-517.613 399.425,-584.987 553.687,-502.973 618.532,-462.125"/>
<polygon fill="midnightblue" stroke="midnightblue" points="620.541,-464.995 627.074,-456.654 616.765,-459.1 620.541,-464.995"/>
</g>
<!-- Node30 -->
<g id="node29" class="node"><title>Node30</title>
<g id="a_node29"><a xlink:href="namespacevili_1_1_functions_1_1_string.html#a47cfebfa3355133cfbf43f9f2e435bf4" target="_top" xlink:title="Get if the string is an integer. ">
<polygon fill="none" stroke="black" points="296.5,-478.613 296.5,-508.613 403.5,-508.613 403.5,-478.613 296.5,-478.613"/>
<text text-anchor="start" x="304.5" y="-496.613" font-family="Helvetica,sans-Serif" font-size="10.00">vili::Functions::String</text>
<text text-anchor="middle" x="350" y="-485.613" font-family="Helvetica,sans-Serif" font-size="10.00">::isStringInt</text>
</a>
</g>
</g>
<!-- Node12&#45;&gt;Node30 -->
<g id="edge39" class="edge"><title>Node12&#45;&gt;Node30</title>
<path fill="none" stroke="midnightblue" d="M203.345,-317.298C213.215,-344.59 244.711,-423.095 295,-468.613 296.68,-470.134 298.469,-471.578 300.336,-472.947"/>
<polygon fill="midnightblue" stroke="midnightblue" points="298.617,-476.003 308.92,-478.474 302.407,-470.118 298.617,-476.003"/>
</g>
<!-- Node31 -->
<g id="node30" class="node"><title>Node31</title>
<g id="a_node30"><a xlink:href="classvili_1_1_array_node.html#a550ab855eda9d07c47477cf7fddf2c4b" target="_top" xlink:title="Gets the size of the ArrayNode (Amount of contained Nodes) ">
<polygon fill="none" stroke="black" points="298.5,-440.113 298.5,-459.113 401.5,-459.113 401.5,-440.113 298.5,-440.113"/>
<text text-anchor="middle" x="350" y="-447.113" font-family="Helvetica,sans-Serif" font-size="10.00">vili::ArrayNode::size</text>
</a>
</g>
</g>
<!-- Node12&#45;&gt;Node31 -->
<g id="edge40" class="edge"><title>Node12&#45;&gt;Node31</title>
<path fill="none" stroke="midnightblue" d="M205.468,-317.15C218.43,-339.022 253.096,-393.386 295,-425.613 300.017,-429.472 305.751,-432.864 311.566,-435.791"/>
<polygon fill="midnightblue" stroke="midnightblue" points="310.134,-438.985 320.679,-440.008 313.073,-432.632 310.134,-438.985"/>
</g>
<!-- Node32 -->
<g id="node31" class="node"><title>Node32</title>
<g id="a_node31"><a xlink:href="classvili_1_1_array_node.html#aba67c18c26c9a7c78973cae023e6f374" target="_top" xlink:title="Access a contained DataNode. ">
<polygon fill="none" stroke="black" points="601,-388.113 601,-407.113 699,-407.113 699,-388.113 601,-388.113"/>
<text text-anchor="middle" x="650" y="-395.113" font-family="Helvetica,sans-Serif" font-size="10.00">vili::ArrayNode::get</text>
</a>
</g>
</g>
<!-- Node12&#45;&gt;Node32 -->
<g id="edge41" class="edge"><title>Node12&#45;&gt;Node32</title>
<path fill="none" stroke="midnightblue" d="M209.451,-317.251C225.411,-332.804 259.455,-362.973 295,-375.613 394.26,-410.911 518.956,-408.855 590.757,-403.608"/>
<polygon fill="midnightblue" stroke="midnightblue" points="591.259,-407.08 600.957,-402.815 590.716,-400.101 591.259,-407.08"/>
</g>
<!-- Node14&#45;&gt;Node7 -->
<g id="edge13" class="edge"><title>Node14&#45;&gt;Node7</title>
<path fill="none" stroke="midnightblue" d="M700.35,-366.577C719.254,-371.543 740.989,-377.253 760.621,-382.41"/>
<polygon fill="midnightblue" stroke="midnightblue" points="759.807,-385.814 770.368,-384.97 761.585,-379.044 759.807,-385.814"/>
</g>
<!-- Node14&#45;&gt;Node15 -->
<g id="edge14" class="edge"><title>Node14&#45;&gt;Node15</title>
<path fill="none" stroke="midnightblue" d="M691.522,-338.564C698.783,-335.505 706.198,-332.136 713,-328.613 743.339,-312.899 776.091,-290.925 796.919,-276.254"/>
<polygon fill="midnightblue" stroke="midnightblue" points="799.217,-278.914 805.335,-270.265 795.158,-273.211 799.217,-278.914"/>
</g>
<!-- Node15&#45;&gt;Node16 -->
<g id="edge15" class="edge"><title>Node15&#45;&gt;Node16</title>
<path fill="none" stroke="midnightblue" d="M833.145,-250.918C847.343,-239.879 870.893,-221.105 890,-203.613 919.645,-176.474 951.921,-142.532 970.478,-122.547"/>
<polygon fill="midnightblue" stroke="midnightblue" points="973.109,-124.857 977.324,-115.136 967.968,-120.107 973.109,-124.857"/>
</g>
<!-- Node17 -->
<g id="node16" class="node"><title>Node17</title>
<g id="a_node16"><a xlink:href="classvili_1_1_node.html#ab03908ab3d62e3bfddaf9e7306fdf3b3" target="_top" xlink:title="Gets the id of the Node. ">
<polygon fill="none" stroke="black" points="945.5,-207.113 945.5,-226.113 1028.5,-226.113 1028.5,-207.113 945.5,-207.113"/>
<text text-anchor="middle" x="987" y="-214.113" font-family="Helvetica,sans-Serif" font-size="10.00">vili::Node::getId</text>
</a>
</g>
</g>
<!-- Node15&#45;&gt;Node17 -->
<g id="edge16" class="edge"><title>Node15&#45;&gt;Node17</title>
<path fill="none" stroke="midnightblue" d="M856.411,-251.066C881.026,-244.522 913.886,-235.786 940.357,-228.748"/>
<polygon fill="midnightblue" stroke="midnightblue" points="941.394,-232.094 950.159,-226.142 939.595,-225.329 941.394,-232.094"/>
</g>
<!-- Node18 -->
<g id="node17" class="node"><title>Node18</title>
<g id="a_node17"><a xlink:href="classvili_1_1_node.html#ad3c91cfe2721eaf9841721d1ec8ee0d8" target="_top" xlink:title="Gets the Node annotation. ">
<polygon fill="none" stroke="black" points="926,-295.113 926,-314.113 1048,-314.113 1048,-295.113 926,-295.113"/>
<text text-anchor="middle" x="987" y="-302.113" font-family="Helvetica,sans-Serif" font-size="10.00">vili::Node::getAnnotation</text>
</a>
</g>
</g>
<!-- Node15&#45;&gt;Node18 -->
<g id="edge17" class="edge"><title>Node15&#45;&gt;Node18</title>
<path fill="none" stroke="midnightblue" d="M856.411,-270.161C881.026,-276.705 913.886,-285.441 940.357,-292.479"/>
<polygon fill="midnightblue" stroke="midnightblue" points="939.595,-295.898 950.159,-295.085 941.394,-289.133 939.595,-295.898"/>
</g>
<!-- Node19 -->
<g id="node18" class="node"><title>Node19</title>
<g id="a_node18"><a xlink:href="namespacevili_1_1_functions_1_1_vector.html#a10836e1fe04648534cfc59d9de9acd72" target="_top" xlink:title="vili::Functions::Vector\l::join">
<polygon fill="none" stroke="black" points="932,-245.613 932,-275.613 1042,-275.613 1042,-245.613 932,-245.613"/>
<text text-anchor="start" x="940" y="-263.613" font-family="Helvetica,sans-Serif" font-size="10.00">vili::Functions::Vector</text>
<text text-anchor="middle" x="987" y="-252.613" font-family="Helvetica,sans-Serif" font-size="10.00">::join</text>
</a>
</g>
</g>
<!-- Node15&#45;&gt;Node19 -->
<g id="edge18" class="edge"><title>Node15&#45;&gt;Node19</title>
<path fill="none" stroke="midnightblue" d="M878.849,-260.613C892.703,-260.613 907.559,-260.613 921.664,-260.613"/>
<polygon fill="midnightblue" stroke="midnightblue" points="921.776,-264.114 931.776,-260.613 921.776,-257.114 921.776,-264.114"/>
</g>
<!-- Node21 -->
<g id="node20" class="node"><title>Node21</title>
<g id="a_node20"><a xlink:href="classvili_1_1_data_node.html#a7f30e8836aedbe34f8936b5d30da5413" target="_top" xlink:title="Copies the DataNode into a new ContainerNode. ">
<polygon fill="none" stroke="black" points="444.5,-175.113 444.5,-194.113 547.5,-194.113 547.5,-175.113 444.5,-175.113"/>
<text text-anchor="middle" x="496" y="-182.113" font-family="Helvetica,sans-Serif" font-size="10.00">vili::DataNode::copy</text>
</a>
</g>
</g>
<!-- Node20&#45;&gt;Node21 -->
<g id="edge20" class="edge"><title>Node20&#45;&gt;Node21</title>
<path fill="none" stroke="midnightblue" d="M397.753,-201.497C409.365,-199.481 421.981,-197.29 434.161,-195.176"/>
<polygon fill="midnightblue" stroke="midnightblue" points="435.003,-198.582 444.257,-193.423 433.806,-191.685 435.003,-198.582"/>
</g>
<!-- Node25 -->
<g id="node24" class="node"><title>Node25</title>
<g id="a_node24"><a xlink:href="classvili_1_1_data_node.html#ac00a0ebfb6c627d51262dd140a5dff14" target="_top" xlink:title="Writes the DataNode to a file. ">
<polygon fill="none" stroke="black" points="445,-213.113 445,-232.113 547,-232.113 547,-213.113 445,-213.113"/>
<text text-anchor="middle" x="496" y="-220.113" font-family="Helvetica,sans-Serif" font-size="10.00">vili::DataNode::write</text>
</a>
</g>
</g>
<!-- Node20&#45;&gt;Node25 -->
<g id="edge26" class="edge"><title>Node20&#45;&gt;Node25</title>
<path fill="none" stroke="midnightblue" d="M397.753,-213.834C409.494,-214.894 422.26,-216.047 434.564,-217.157"/>
<polygon fill="midnightblue" stroke="midnightblue" points="434.484,-220.664 444.758,-218.078 435.113,-213.693 434.484,-220.664"/>
</g>
<!-- Node21&#45;&gt;Node22 -->
<g id="edge21" class="edge"><title>Node21&#45;&gt;Node22</title>
<path fill="none" stroke="midnightblue" d="M535.356,-175.024C555.324,-170.033 579.93,-163.881 601.133,-158.58"/>
<polygon fill="midnightblue" stroke="midnightblue" points="602.067,-161.954 610.92,-156.134 600.369,-155.163 602.067,-161.954"/>
</g>
<!-- Node23 -->
<g id="node22" class="node"><title>Node23</title>
<g id="a_node22"><a xlink:href="classvili_1_1_data_node.html#a27dadd644c19ee34b95fa998764b225f" target="_top" xlink:title="Sets an Int value. ">
<polygon fill="none" stroke="black" points="602.5,-175.113 602.5,-194.113 697.5,-194.113 697.5,-175.113 602.5,-175.113"/>
<text text-anchor="middle" x="650" y="-182.113" font-family="Helvetica,sans-Serif" font-size="10.00">vili::DataNode::set</text>
</a>
</g>
</g>
<!-- Node21&#45;&gt;Node23 -->
<g id="edge22" class="edge"><title>Node21&#45;&gt;Node23</title>
<path fill="none" stroke="midnightblue" d="M547.614,-184.613C561.86,-184.613 577.451,-184.613 592.041,-184.613"/>
<polygon fill="midnightblue" stroke="midnightblue" points="592.454,-188.114 602.454,-184.613 592.454,-181.114 592.454,-188.114"/>
</g>
<!-- Node23&#45;&gt;Node7 -->
<g id="edge23" class="edge"><title>Node23&#45;&gt;Node7</title>
<path fill="none" stroke="midnightblue" d="M697.613,-194.146C703.184,-196.61 708.486,-199.711 713,-203.613 741.274,-228.058 731.498,-246.589 749,-279.613 766.691,-312.996 789.198,-350.401 803.726,-373.973"/>
<polygon fill="midnightblue" stroke="midnightblue" points="800.819,-375.927 809.059,-382.587 806.771,-372.242 800.819,-375.927"/>
</g>
<!-- Node23&#45;&gt;Node15 -->
<g id="edge24" class="edge"><title>Node23&#45;&gt;Node15</title>
<path fill="none" stroke="midnightblue" d="M686.514,-194.175C695.292,-196.898 704.588,-200.093 713,-203.613 741.811,-215.671 773.086,-233.172 794.042,-245.595"/>
<polygon fill="midnightblue" stroke="midnightblue" points="792.523,-248.765 802.898,-250.908 796.124,-242.763 792.523,-248.765"/>
</g>
<!-- Node24 -->
<g id="node23" class="node"><title>Node24</title>
<g id="a_node23"><a xlink:href="namespacevili_1_1_types.html#ac195a27b2ff3164cfb8aeba0222fad03" target="_top" xlink:title="Converts a DataType to its name (in a std::string) ">
<polygon fill="none" stroke="black" points="749,-175.113 749,-194.113 890,-194.113 890,-175.113 749,-175.113"/>
<text text-anchor="middle" x="819.5" y="-182.113" font-family="Helvetica,sans-Serif" font-size="10.00">vili::Types::dataTypeToString</text>
</a>
</g>
</g>
<!-- Node23&#45;&gt;Node24 -->
<g id="edge25" class="edge"><title>Node23&#45;&gt;Node24</title>
<path fill="none" stroke="midnightblue" d="M697.658,-184.613C710.433,-184.613 724.65,-184.613 738.718,-184.613"/>
<polygon fill="midnightblue" stroke="midnightblue" points="738.913,-188.114 748.913,-184.613 738.912,-181.114 738.913,-188.114"/>
</g>
<!-- Node26 -->
<g id="node25" class="node"><title>Node26</title>
<g id="a_node25"><a xlink:href="classvili_1_1_data_node.html#acb68076f90b2344cba37afd31b8b2156" target="_top" xlink:title="Gets a dumpable representation of the contained data. ">
<polygon fill="none" stroke="black" points="587,-213.113 587,-232.113 713,-232.113 713,-213.113 587,-213.113"/>
<text text-anchor="middle" x="650" y="-220.113" font-family="Helvetica,sans-Serif" font-size="10.00">vili::DataNode::dumpData</text>
</a>
</g>
</g>
<!-- Node25&#45;&gt;Node26 -->
<g id="edge27" class="edge"><title>Node25&#45;&gt;Node26</title>
<path fill="none" stroke="midnightblue" d="M547.192,-222.613C556.626,-222.613 566.663,-222.613 576.616,-222.613"/>
<polygon fill="midnightblue" stroke="midnightblue" points="576.93,-226.114 586.93,-222.613 576.93,-219.114 576.93,-226.114"/>
</g>
<!-- Node28&#45;&gt;Node7 -->
<g id="edge32" class="edge"><title>Node28&#45;&gt;Node7</title>
<path fill="none" stroke="midnightblue" d="M693.545,-319.715C700.16,-322.452 706.839,-325.451 713,-328.613 740.258,-342.606 769.255,-361.93 789.936,-376.57"/>
<polygon fill="midnightblue" stroke="midnightblue" points="788.092,-379.554 798.261,-382.528 792.166,-373.862 788.092,-379.554"/>
</g>
<!-- Node28&#45;&gt;Node15 -->
<g id="edge33" class="edge"><title>Node28&#45;&gt;Node15</title>
<path fill="none" stroke="midnightblue" d="M700.35,-291.65C723.112,-285.671 749.977,-278.614 772.334,-272.741"/>
<polygon fill="midnightblue" stroke="midnightblue" points="773.476,-276.06 782.258,-270.134 771.697,-269.289 773.476,-276.06"/>
</g>
<!-- Node29&#45;&gt;Node7 -->
<g id="edge35" class="edge"><title>Node29&#45;&gt;Node7</title>
<path fill="none" stroke="midnightblue" d="M700.35,-428.65C719.254,-423.684 740.989,-417.974 760.621,-412.817"/>
<polygon fill="midnightblue" stroke="midnightblue" points="761.585,-416.183 770.368,-410.257 759.807,-409.413 761.585,-416.183"/>
</g>
<!-- Node29&#45;&gt;Node15 -->
<g id="edge36" class="edge"><title>Node29&#45;&gt;Node15</title>
<path fill="none" stroke="midnightblue" d="M697.423,-426.516C702.961,-423.691 708.306,-420.407 713,-416.613 725.6,-406.43 781.93,-318.504 806.722,-279.321"/>
<polygon fill="midnightblue" stroke="midnightblue" points="809.921,-280.81 812.3,-270.486 804.002,-277.073 809.921,-280.81"/>
</g>
<!-- Node32&#45;&gt;Node7 -->
<g id="edge42" class="edge"><title>Node32&#45;&gt;Node7</title>
<path fill="none" stroke="midnightblue" d="M699.448,-397.613C718.454,-397.613 740.429,-397.613 760.286,-397.613"/>
<polygon fill="midnightblue" stroke="midnightblue" points="760.45,-401.114 770.45,-397.613 760.45,-394.114 760.45,-401.114"/>
</g>
<!-- Node32&#45;&gt;Node15 -->
<g id="edge43" class="edge"><title>Node32&#45;&gt;Node15</title>
<path fill="none" stroke="midnightblue" d="M691.103,-388.096C698.707,-385.361 706.354,-381.916 713,-377.613 754.101,-351.005 789.309,-304.398 806.767,-278.773"/>
<polygon fill="midnightblue" stroke="midnightblue" points="809.742,-280.62 812.374,-270.357 803.916,-276.739 809.742,-280.62"/>
</g>
<!-- Node33&#45;&gt;Node7 -->
<g id="edge47" class="edge"><title>Node33&#45;&gt;Node7</title>
<path fill="none" stroke="midnightblue" d="M537.666,-80.2063C598.502,-94.719 706.79,-121.244 713,-127.613 761.462,-177.325 723.093,-215.204 749,-279.613 762.942,-314.276 785.955,-350.845 801.649,-373.921"/>
<polygon fill="midnightblue" stroke="midnightblue" points="798.913,-376.118 807.474,-382.36 804.674,-372.142 798.913,-376.118"/>
</g>
<!-- Node33&#45;&gt;Node15 -->
<g id="edge48" class="edge"><title>Node33&#45;&gt;Node15</title>
<path fill="none" stroke="midnightblue" d="M546.914,-62.017C594.814,-56.7264 666.545,-56.9525 713,-94.6135 752.631,-126.742 720.132,-161.548 749,-203.613 760.626,-220.555 778.679,-235.148 793.472,-245.327"/>
<polygon fill="midnightblue" stroke="midnightblue" points="791.901,-248.484 802.174,-251.076 795.759,-242.644 791.901,-248.484"/>
</g>
<!-- Node33&#45;&gt;Node22 -->
<g id="edge46" class="edge"><title>Node33&#45;&gt;Node22</title>
<path fill="none" stroke="midnightblue" d="M521.824,-80.1508C531.218,-84.1424 541.847,-89.1312 551,-94.6135 568.389,-105.029 569.361,-112.627 587,-122.613 594.062,-126.612 601.922,-130.225 609.609,-133.362"/>
<polygon fill="midnightblue" stroke="midnightblue" points="608.591,-136.721 619.18,-137.074 611.122,-130.194 608.591,-136.721"/>
</g>
</g>
</svg>
        <g id="navigator" transform="translate(0 0)" fill="#404254">
                <rect fill="#f2f5e9" fill-opacity="0.5" stroke="#606060" stroke-width=".5" x="0" y="0" width="60" height="60"/>
                <use id="zoomplus" xlink:href="#zoomPlus" x="17" y="9" onmousedown="handleZoom(evt,'in')"/>
                <use id="zoomminus" xlink:href="#zoomMin" x="42" y="9" onmousedown="handleZoom(evt,'out')"/>
                <use id="reset" xlink:href="#resetDef" x="30" y="36" onmousedown="handleReset()"/>
                <g id="arrowUp" xlink:href="#dirArrow" transform="translate(30 24)" onmousedown="handlePan(0,-1)">
                  <use xlink:href="#rim" fill="#404040">
                        <set attributeName="fill" to="#808080" begin="arrowUp.mouseover" end="arrowUp.mouseout"/>
                  </use>
                  <path fill="none" stroke="white" stroke-width="1.5" d="M0,-3.0v7 M-2.5,-0.5L0,-3.0L2.5,-0.5"/>
                </g>
                <g id="arrowRight" xlink:href="#dirArrow" transform="rotate(90) translate(36 -43)" onmousedown="handlePan(1,0)">
                  <use xlink:href="#rim" fill="#404040">
                        <set attributeName="fill" to="#808080" begin="arrowRight.mouseover" end="arrowRight.mouseout"/>
                  </use>
                  <path fill="none" stroke="white" stroke-width="1.5" d="M0,-3.0v7 M-2.5,-0.5L0,-3.0L2.5,-0.5"/>
                </g>
                <g id="arrowDown" xlink:href="#dirArrow" transform="rotate(180) translate(-30 -48)" onmousedown="handlePan(0,1)">
                  <use xlink:href="#rim" fill="#404040">
                        <set attributeName="fill" to="#808080" begin="arrowDown.mouseover" end="arrowDown.mouseout"/>
                  </use>
                  <path fill="none" stroke="white" stroke-width="1.5" d="M0,-3.0v7 M-2.5,-0.5L0,-3.0L2.5,-0.5"/>
                </g>
                <g id="arrowLeft" xlink:href="#dirArrow" transform="rotate(270) translate(-36 17)" onmousedown="handlePan(-1,0)">
                  <use xlink:href="#rim" fill="#404040">
                        <set attributeName="fill" to="#808080" begin="arrowLeft.mouseover" end="arrowLeft.mouseout"/>
                  </use>
                  <path fill="none" stroke="white" stroke-width="1.5" d="M0,-3.0v7 M-2.5,-0.5L0,-3.0L2.5,-0.5"/>
                </g>
        </g>
        <svg viewBox="0 0 15 15" width="100%" height="30px" preserveAspectRatio="xMaxYMin meet">
         <g id="arrow_out" transform="scale(0.3 0.3)">
          <a xlink:href="classvili_1_1_link_node_a4912faf06362f3c85c9eac8b3bab2e62_cgraph_org.svg" target="_base">
           <rect id="button" ry="5" rx="5" y="6" x="6" height="38" width="38"
                fill="#f2f5e9" fill-opacity="0.5" stroke="#606060" stroke-width="1.0"/>
           <path id="arrow"
             d="M 11.500037,31.436501 C 11.940474,20.09759 22.043105,11.32322 32.158766,21.979434 L 37.068811,17.246167 C 37.068811,17.246167 37.088388,32 37.088388,32 L 22.160133,31.978069 C 22.160133,31.978069 26.997745,27.140456 26.997745,27.140456 C 18.528582,18.264221 13.291696,25.230495 11.500037,31.436501 z"
             style="fill:#404040;"/>
          </a>
         </g>
        </svg>
</svg>
