<?xml version="1.0" encoding="UTF-8" standalone="no"?>
<!DOCTYPE svg PUBLIC "-//W3C//DTD SVG 1.1//EN"
 "http://www.w3.org/Graphics/SVG/1.1/DTD/svg11.dtd">
<!-- Generated by graphviz version 2.38.0 (20140413.2041)
 -->
<!-- Title: obe::Collision::PolygonalCollider::setPointPosition Pages: 1 -->
<svg width="1222pt" height="285pt"
 viewBox="0.00 0.00 1222.00 285.00" xmlns="http://www.w3.org/2000/svg" xmlns:xlink="http://www.w3.org/1999/xlink">
<g id="graph0" class="graph" transform="scale(1 1) rotate(0) translate(4 281)">
<title>obe::Collision::PolygonalCollider::setPointPosition</title>
<!-- Node558 -->
<g id="node1" class="node"><title>Node558</title>
<polygon fill="#bfbfbf" stroke="black" points="0,-202.5 0,-232.5 126,-232.5 126,-202.5 0,-202.5"/>
<text text-anchor="start" x="8" y="-220.5" font-family="Helvetica,sans-Serif" font-size="10.00">obe::Collision::Polygonal</text>
<text text-anchor="middle" x="63" y="-209.5" font-family="Helvetica,sans-Serif" font-size="10.00">Collider::setPointPosition</text>
</g>
<!-- Node559 -->
<g id="node2" class="node"><title>Node559</title>
<g id="a_node2"><a xlink:href="namespaceobe_1_1_bindings_1_1_collision_bindings.html#afa4c96728348503721dd7ddbc50da7c6" target="_top" xlink:title="obe::Bindings::Collision\lBindings::LoadPolygonalCollider">
<polygon fill="white" stroke="black" points="162,-246.5 162,-276.5 318,-276.5 318,-246.5 162,-246.5"/>
<text text-anchor="start" x="170" y="-264.5" font-family="Helvetica,sans-Serif" font-size="10.00">obe::Bindings::Collision</text>
<text text-anchor="middle" x="240" y="-253.5" font-family="Helvetica,sans-Serif" font-size="10.00">Bindings::LoadPolygonalCollider</text>
</a>
</g>
</g>
<!-- Node558&#45;&gt;Node559 -->
<g id="edge1" class="edge"><title>Node558&#45;&gt;Node559</title>
<path fill="none" stroke="midnightblue" d="M133.544,-234.985C148.665,-238.787 164.534,-242.777 179.237,-246.474"/>
<polygon fill="midnightblue" stroke="midnightblue" points="134.287,-231.563 123.736,-232.519 132.58,-238.352 134.287,-231.563"/>
</g>
<!-- Node560 -->
<g id="node3" class="node"><title>Node560</title>
<g id="a_node3"><a xlink:href="namespaceobe_1_1_editor.html#a9009207671e71dccb68a31ea2362e9ef" target="_top" xlink:title="Starts the map edition. ">
<polygon fill="white" stroke="black" points="846,-208 846,-227 950,-227 950,-208 846,-208"/>
<text text-anchor="middle" x="898" y="-215" font-family="Helvetica,sans-Serif" font-size="10.00">obe::Editor::editMap</text>
</a>
</g>
</g>
<!-- Node558&#45;&gt;Node560 -->
<g id="edge2" class="edge"><title>Node558&#45;&gt;Node560</title>
<path fill="none" stroke="midnightblue" d="M136.318,-217.5C206.995,-217.5 317.642,-217.5 413.5,-217.5 413.5,-217.5 413.5,-217.5 562.5,-217.5 662.966,-217.5 780.406,-217.5 845.997,-217.5"/>
<polygon fill="midnightblue" stroke="midnightblue" points="136.186,-214 126.186,-217.5 136.186,-221 136.186,-214"/>
</g>
<!-- Node563 -->
<g id="node6" class="node"><title>Node563</title>
<g id="a_node6"><a xlink:href="namespaceobe_1_1_script_1_1_core_lib.html#a07d6c11bbb082bc45bdba50d97965c00" target="_top" xlink:title="obe::Script::CoreLib\l::loadCollision">
<polygon fill="white" stroke="black" points="188.5,-123.5 188.5,-153.5 291.5,-153.5 291.5,-123.5 188.5,-123.5"/>
<text text-anchor="start" x="196.5" y="-141.5" font-family="Helvetica,sans-Serif" font-size="10.00">obe::Script::CoreLib</text>
<text text-anchor="middle" x="240" y="-130.5" font-family="Helvetica,sans-Serif" font-size="10.00">::loadCollision</text>
</a>
</g>
</g>
<!-- Node558&#45;&gt;Node563 -->
<g id="edge6" class="edge"><title>Node558&#45;&gt;Node563</title>
<path fill="none" stroke="midnightblue" d="M106.823,-198.169C137.217,-184.448 177.439,-166.29 205.498,-153.624"/>
<polygon fill="midnightblue" stroke="midnightblue" points="105.002,-195.15 97.3281,-202.455 107.883,-201.53 105.002,-195.15"/>
</g>
<!-- Node561 -->
<g id="node4" class="node"><title>Node561</title>
<g id="a_node4"><a xlink:href="namespaceobe_1_1_modes.html#a6a8b08eee511d4895c4da96d4ba223a6" target="_top" xlink:title="Starts the development Menu where you can starts other menus from. ">
<polygon fill="white" stroke="black" points="1007,-181 1007,-200 1140,-200 1140,-181 1007,-181"/>
<text text-anchor="middle" x="1073.5" y="-188" font-family="Helvetica,sans-Serif" font-size="10.00">obe::Modes::startDevMenu</text>
</a>
</g>
</g>
<!-- Node560&#45;&gt;Node561 -->
<g id="edge3" class="edge"><title>Node560&#45;&gt;Node561</title>
<path fill="none" stroke="midnightblue" d="M960.238,-207.97C976.815,-205.39 994.757,-202.598 1011.33,-200.019"/>
<polygon fill="midnightblue" stroke="midnightblue" points="959.46,-204.549 950.117,-209.545 960.537,-211.466 959.46,-204.549"/>
</g>
<!-- Node562 -->
<g id="node5" class="node"><title>Node562</title>
<g id="a_node5"><a xlink:href="_ob_engine_8cpp.html#a3c04138a5bfe5d72780bb7e82a18e627" target="_top" xlink:title="main">
<polygon fill="white" stroke="black" points="1176,-181 1176,-200 1214,-200 1214,-181 1176,-181"/>
<text text-anchor="middle" x="1195" y="-188" font-family="Helvetica,sans-Serif" font-size="10.00">main</text>
</a>
</g>
</g>
<!-- Node560&#45;&gt;Node562 -->
<g id="edge5" class="edge"><title>Node560&#45;&gt;Node562</title>
<path fill="none" stroke="midnightblue" d="M960.4,-220.576C1009.44,-221.811 1079.69,-220.833 1140,-209.5 1152.31,-207.187 1165.58,-202.548 1175.89,-198.433"/>
<polygon fill="midnightblue" stroke="midnightblue" points="960.366,-217.074 950.269,-220.282 960.163,-224.071 960.366,-217.074"/>
</g>
<!-- Node561&#45;&gt;Node562 -->
<g id="edge4" class="edge"><title>Node561&#45;&gt;Node562</title>
<path fill="none" stroke="midnightblue" d="M1150.44,-190.5C1159.72,-190.5 1168.44,-190.5 1175.6,-190.5"/>
<polygon fill="midnightblue" stroke="midnightblue" points="1150.19,-187 1140.19,-190.5 1150.19,-194 1150.19,-187"/>
</g>
<!-- Node564 -->
<g id="node7" class="node"><title>Node564</title>
<g id="a_node7"><a xlink:href="namespaceobe_1_1_script.html#abdb81ec0976f1097cef6711415b8fac3" target="_top" xlink:title="obe::Script::loadCoreLib">
<polygon fill="white" stroke="black" points="354,-129 354,-148 475,-148 475,-129 354,-129"/>
<text text-anchor="middle" x="414.5" y="-136" font-family="Helvetica,sans-Serif" font-size="10.00">obe::Script::loadCoreLib</text>
</a>
</g>
</g>
<!-- Node563&#45;&gt;Node564 -->
<g id="edge7" class="edge"><title>Node563&#45;&gt;Node564</title>
<path fill="none" stroke="midnightblue" d="M302.099,-132.012C318.936,-131.652 337.174,-131.663 353.924,-132.045"/>
<polygon fill="midnightblue" stroke="midnightblue" points="301.727,-128.52 291.823,-132.284 301.912,-135.518 301.727,-128.52"/>
</g>
<!-- Node564&#45;&gt;Node563 -->
<g id="edge20" class="edge"><title>Node564&#45;&gt;Node563</title>
<path fill="none" stroke="midnightblue" d="M343.816,-145.138C326.428,-145.376 308.106,-145.235 291.823,-144.716"/>
<polygon fill="midnightblue" stroke="midnightblue" points="343.989,-148.636 353.924,-144.955 343.862,-141.637 343.989,-148.636"/>
</g>
<!-- Node565 -->
<g id="node8" class="node"><title>Node565</title>
<g id="a_node8"><a xlink:href="namespaceobe_1_1_script.html#a4e6ee77032cf7f66544f9b08464a60b7" target="_top" xlink:title="obe::Script::loadLib">
<polygon fill="white" stroke="black" points="511,-111 511,-130 612,-130 612,-111 511,-111"/>
<text text-anchor="middle" x="561.5" y="-118" font-family="Helvetica,sans-Serif" font-size="10.00">obe::Script::loadLib</text>
</a>
</g>
</g>
<!-- Node564&#45;&gt;Node565 -->
<g id="edge8" class="edge"><title>Node564&#45;&gt;Node565</title>
<path fill="none" stroke="midnightblue" d="M485.401,-129.823C494.037,-128.751 502.723,-127.672 510.967,-126.649"/>
<polygon fill="midnightblue" stroke="midnightblue" points="484.807,-126.369 475.314,-131.075 485.669,-133.316 484.807,-126.369"/>
</g>
<!-- Node566 -->
<g id="node9" class="node"><title>Node566</title>
<g id="a_node9"><a xlink:href="namespaceobe_1_1_modes.html#a1e38c0d9a2ca0230f0de79c298f53ab9" target="_top" xlink:title="A mode that will start the Toolkit. ">
<polygon fill="white" stroke="black" points="825,-154 825,-173 971,-173 971,-154 825,-154"/>
<text text-anchor="middle" x="898" y="-161" font-family="Helvetica,sans-Serif" font-size="10.00">obe::Modes::startToolkitMode</text>
</a>
</g>
</g>
<!-- Node565&#45;&gt;Node566 -->
<g id="edge9" class="edge"><title>Node565&#45;&gt;Node566</title>
<path fill="none" stroke="midnightblue" d="M586.831,-135.3C603.415,-144.511 626.232,-155.522 648,-160.5 706.475,-173.872 774.709,-173.631 824.946,-170.604"/>
<polygon fill="midnightblue" stroke="midnightblue" points="588.259,-132.084 577.843,-130.144 584.776,-138.156 588.259,-132.084"/>
</g>
<!-- Node567 -->
<g id="node10" class="node"><title>Node567</title>
<g id="a_node10"><a xlink:href="classobe_1_1_scene_1_1_world.html#a32964e659e18cb32094d9f8ceea30aa3" target="_top" xlink:title="obe::Scene::World::\lWorld">
<polygon fill="white" stroke="black" points="846,-69.5 846,-99.5 950,-99.5 950,-69.5 846,-69.5"/>
<text text-anchor="start" x="854" y="-87.5" font-family="Helvetica,sans-Serif" font-size="10.00">obe::Scene::World::</text>
<text text-anchor="middle" x="898" y="-76.5" font-family="Helvetica,sans-Serif" font-size="10.00">World</text>
</a>
</g>
</g>
<!-- Node565&#45;&gt;Node567 -->
<g id="edge12" class="edge"><title>Node565&#45;&gt;Node567</title>
<path fill="none" stroke="midnightblue" d="M622.51,-114.042C686.218,-107.185 785.826,-96.465 845.912,-89.9983"/>
<polygon fill="midnightblue" stroke="midnightblue" points="621.785,-110.599 612.217,-115.149 622.534,-117.559 621.785,-110.599"/>
</g>
<!-- Node568 -->
<g id="node11" class="node"><title>Node568</title>
<g id="a_node11"><a xlink:href="namespaceobe_1_1_scene.html#ae5cbcc3278d9115d603e5024dec9136e" target="_top" xlink:title="obe::Scene::loadWorldScript\lEngineBaseLib">
<polygon fill="white" stroke="black" points="648,-44.5 648,-74.5 789,-74.5 789,-44.5 648,-44.5"/>
<text text-anchor="start" x="656" y="-62.5" font-family="Helvetica,sans-Serif" font-size="10.00">obe::Scene::loadWorldScript</text>
<text text-anchor="middle" x="718.5" y="-51.5" font-family="Helvetica,sans-Serif" font-size="10.00">EngineBaseLib</text>
</a>
</g>
</g>
<!-- Node565&#45;&gt;Node568 -->
<g id="edge13" class="edge"><title>Node565&#45;&gt;Node568</title>
<path fill="none" stroke="midnightblue" d="M596.297,-107.199C620.761,-97.5714 653.858,-84.5462 679.285,-74.5395"/>
<polygon fill="midnightblue" stroke="midnightblue" points="594.742,-104.05 586.719,-110.969 597.306,-110.563 594.742,-104.05"/>
</g>
<!-- Node569 -->
<g id="node12" class="node"><title>Node569</title>
<g id="a_node12"><a xlink:href="namespaceobe_1_1_script.html#a5e992c0efb0543e7c934bc1065f08b01" target="_top" xlink:title="obe::Script::loadLibBridge">
<polygon fill="white" stroke="black" points="654.5,-6 654.5,-25 782.5,-25 782.5,-6 654.5,-6"/>
<text text-anchor="middle" x="718.5" y="-13" font-family="Helvetica,sans-Serif" font-size="10.00">obe::Script::loadLibBridge</text>
</a>
</g>
</g>
<!-- Node565&#45;&gt;Node569 -->
<g id="edge15" class="edge"><title>Node565&#45;&gt;Node569</title>
<path fill="none" stroke="midnightblue" d="M575.438,-102.787C590.655,-83.2186 617.712,-52.1481 648,-34.5 654.593,-30.6585 661.99,-27.5689 669.433,-25.0911"/>
<polygon fill="midnightblue" stroke="midnightblue" points="572.557,-100.793 569.311,-110.878 578.138,-105.019 572.557,-100.793"/>
</g>
<!-- Node572 -->
<g id="node15" class="node"><title>Node572</title>
<g id="a_node15"><a xlink:href="namespaceobe_1_1_script.html#aad6ef67388e6d16eb01853f208da410f" target="_top" xlink:title="obe::Script::loadBaseLib">
<polygon fill="white" stroke="black" points="657,-132 657,-151 780,-151 780,-132 657,-132"/>
<text text-anchor="middle" x="718.5" y="-139" font-family="Helvetica,sans-Serif" font-size="10.00">obe::Script::loadBaseLib</text>
</a>
</g>
</g>
<!-- Node565&#45;&gt;Node572 -->
<g id="edge18" class="edge"><title>Node565&#45;&gt;Node572</title>
<path fill="none" stroke="midnightblue" d="M622.556,-128.637C633.809,-130.161 645.58,-131.756 656.851,-133.283"/>
<polygon fill="midnightblue" stroke="midnightblue" points="622.776,-125.134 612.396,-127.26 621.836,-132.071 622.776,-125.134"/>
</g>
<!-- Node566&#45;&gt;Node561 -->
<g id="edge10" class="edge"><title>Node566&#45;&gt;Node561</title>
<path fill="none" stroke="midnightblue" d="M970.423,-174.615C983.993,-176.727 998.08,-178.919 1011.3,-180.976"/>
<polygon fill="midnightblue" stroke="midnightblue" points="970.589,-171.099 960.17,-173.019 969.512,-178.015 970.589,-171.099"/>
</g>
<!-- Node566&#45;&gt;Node562 -->
<g id="edge11" class="edge"><title>Node566&#45;&gt;Node562</title>
<path fill="none" stroke="midnightblue" d="M981.179,-160.066C1028.09,-159.637 1087.77,-161.686 1140,-171.5 1152.31,-173.813 1165.58,-178.452 1175.89,-182.567"/>
<polygon fill="midnightblue" stroke="midnightblue" points="981.021,-156.568 971.068,-160.199 981.113,-163.567 981.021,-156.568"/>
</g>
<!-- Node568&#45;&gt;Node567 -->
<g id="edge14" class="edge"><title>Node568&#45;&gt;Node567</title>
<path fill="none" stroke="midnightblue" d="M799.449,-70.7605C815.247,-72.9856 831.421,-75.2635 845.941,-77.3087"/>
<polygon fill="midnightblue" stroke="midnightblue" points="799.534,-67.2379 789.143,-69.3089 798.557,-74.1695 799.534,-67.2379"/>
</g>
<!-- Node570 -->
<g id="node13" class="node"><title>Node570</title>
<g id="a_node13"><a xlink:href="namespaceobe_1_1_script.html#a5dc8321da50fd4b5dc2935e4d8c93a4e" target="_top" xlink:title="obe::Script::loadScrGame\lObject">
<polygon fill="white" stroke="black" points="833.5,-0.5 833.5,-30.5 962.5,-30.5 962.5,-0.5 833.5,-0.5"/>
<text text-anchor="start" x="841.5" y="-18.5" font-family="Helvetica,sans-Serif" font-size="10.00">obe::Script::loadScrGame</text>
<text text-anchor="middle" x="898" y="-7.5" font-family="Helvetica,sans-Serif" font-size="10.00">Object</text>
</a>
</g>
</g>
<!-- Node569&#45;&gt;Node570 -->
<g id="edge16" class="edge"><title>Node569&#45;&gt;Node570</title>
<path fill="none" stroke="midnightblue" d="M792.737,-15.5C806.171,-15.5 820.096,-15.5 833.226,-15.5"/>
<polygon fill="midnightblue" stroke="midnightblue" points="792.58,-12.0001 782.58,-15.5 792.58,-19.0001 792.58,-12.0001"/>
</g>
<!-- Node571 -->
<g id="node14" class="node"><title>Node571</title>
<g id="a_node14"><a xlink:href="classobe_1_1_script_1_1_game_object.html#aadeac0036d2fe21d523acfd4e9011a23" target="_top" xlink:title="obe::Script::GameObject\l::loadGameObject">
<polygon fill="white" stroke="black" points="1011,-0.5 1011,-30.5 1136,-30.5 1136,-0.5 1011,-0.5"/>
<text text-anchor="start" x="1019" y="-18.5" font-family="Helvetica,sans-Serif" font-size="10.00">obe::Script::GameObject</text>
<text text-anchor="middle" x="1073.5" y="-7.5" font-family="Helvetica,sans-Serif" font-size="10.00">::loadGameObject</text>
</a>
</g>
</g>
<!-- Node570&#45;&gt;Node571 -->
<g id="edge17" class="edge"><title>Node570&#45;&gt;Node571</title>
<path fill="none" stroke="midnightblue" d="M972.721,-15.5C985.445,-15.5 998.552,-15.5 1010.91,-15.5"/>
<polygon fill="midnightblue" stroke="midnightblue" points="972.62,-12.0001 962.62,-15.5 972.62,-19.0001 972.62,-12.0001"/>
</g>
<!-- Node572&#45;&gt;Node566 -->
<g id="edge19" class="edge"><title>Node572&#45;&gt;Node566</title>
<path fill="none" stroke="midnightblue" d="M790.346,-150.281C801.662,-151.683 813.384,-153.136 824.733,-154.543"/>
<polygon fill="midnightblue" stroke="midnightblue" points="790.444,-146.766 780.089,-149.01 789.583,-153.713 790.444,-146.766"/>
</g>
</g>
</svg>
