<?xml version="1.0" encoding="UTF-8" standalone="no"?>
<!DOCTYPE svg PUBLIC "-//W3C//DTD SVG 1.1//EN"
 "http://www.w3.org/Graphics/SVG/1.1/DTD/svg11.dtd">
<!-- Generated by graphviz version 2.38.0 (20140413.2041)
 -->
<!-- Title: obe::World::World::deleteSpriteByID Pages: 1 -->
<!--zoomable 186 -->
<svg id="main" version="1.1" xmlns="http://www.w3.org/2000/svg" xmlns:xlink="http://www.w3.org/1999/xlink" xml:space="preserve" onload="init(evt)">
<style type="text/css"><![CDATA[
.edge:hover path { stroke: red; }
.edge:hover polygon { stroke: red; fill: red; }
.edge path { stroke: white; }
.edge polygon { stroke: white; fill: white; }
.node polygon { fill: white; }
]]></style>
<script type="text/javascript"><![CDATA[
var edges = document.getElementsByTagName('g');
if (edges && edges.length) {
  for (var i=0;i<edges.length;i++) {
    if (edges[i].id.substr(0,4)=='edge') {
      edges[i].setAttribute('class','edge');
    }
  }
}
]]></script>
        <defs>
                <circle id="rim" cx="0" cy="0" r="7"/>
                <circle id="rim2" cx="0" cy="0" r="3.5"/>
                <g id="zoomPlus">
                        <use xlink:href="#rim" fill="#404040">
                                <set attributeName="fill" to="#808080" begin="zoomplus.mouseover" end="zoomplus.mouseout"/>
                        </use>
                        <path d="M-4,0h8M0,-4v8" fill="none" stroke="white" stroke-width="1.5" pointer-events="none"/>
                </g>
                <g id="zoomMin">
                        <use xlink:href="#rim" fill="#404040">
                                <set attributeName="fill" to="#808080" begin="zoomminus.mouseover" end="zoomminus.mouseout"/>
                        </use>
                        <path d="M-4,0h8" fill="none" stroke="white" stroke-width="1.5" pointer-events="none"/>
                </g>
                <g id="dirArrow">
                        <path fill="none" stroke="white" stroke-width="1.5" d="M0,-3.0v7 M-2.5,-0.5L0,-3.0L2.5,-0.5"/>
                </g>
               <g id="resetDef">
                       <use xlink:href="#rim2" fill="#404040">
                               <set attributeName="fill" to="#808080" begin="reset.mouseover" end="reset.mouseout"/>
                       </use>
               </g>
        </defs>

<script type="text/javascript">
var viewWidth = 553;
var viewHeight = 186;
var sectionId = 'dynsection-17';
</script>
<script xlink:href="svgpan.js"/>
<svg id="graph" class="graph">
<g id="viewport">
<title>obe::World::World::deleteSpriteByID</title>
<!-- Node792 -->
<g id="node1" class="node"><title>Node792</title>
<polygon fill="#bfbfbf" stroke="black" points="0,-97.5 0,-127.5 101,-127.5 101,-97.5 0,-97.5"/>
<text text-anchor="start" x="8" y="-115.5" font-family="Helvetica,sans-Serif" font-size="10.00">obe::World::World::</text>
<text text-anchor="middle" x="50.5" y="-104.5" font-family="Helvetica,sans-Serif" font-size="10.00">deleteSpriteByID</text>
</g>
<!-- Node793 -->
<g id="node2" class="node"><title>Node793</title>
<g id="a_node2"><a xlink:href="classobe_1_1_world_1_1_world.html#a088f47c415b98d692000ebc62ce194d7" target="_top" xlink:title="obe::World::World::\ldeleteSprite">
<polygon fill="none" stroke="black" points="137,-122.5 137,-152.5 238,-152.5 238,-122.5 137,-122.5"/>
<text text-anchor="start" x="145" y="-140.5" font-family="Helvetica,sans-Serif" font-size="10.00">obe::World::World::</text>
<text text-anchor="middle" x="187.5" y="-129.5" font-family="Helvetica,sans-Serif" font-size="10.00">deleteSprite</text>
</a>
</g>
</g>
<!-- Node792&#45;&gt;Node793 -->
<g id="edge1" class="edge"><title>Node792&#45;&gt;Node793</title>
<path fill="none" stroke="midnightblue" d="M101.002,-121.667C109.332,-123.21 118.056,-124.825 126.614,-126.41"/>
<polygon fill="midnightblue" stroke="midnightblue" points="126.081,-129.871 136.552,-128.25 127.356,-122.988 126.081,-129.871"/>
</g>
<!-- Node795 -->
<g id="node4" class="node"><title>Node795</title>
<g id="a_node4"><a xlink:href="classobe_1_1_world_1_1_world.html#a2789f8d3d6e5c2f7ff99b1a6caf5d70b" target="_top" xlink:title="obe::World::World::\lgetSpriteByID">
<polygon fill="none" stroke="black" points="137,-73.5 137,-103.5 238,-103.5 238,-73.5 137,-73.5"/>
<text text-anchor="start" x="145" y="-91.5" font-family="Helvetica,sans-Serif" font-size="10.00">obe::World::World::</text>
<text text-anchor="middle" x="187.5" y="-80.5" font-family="Helvetica,sans-Serif" font-size="10.00">getSpriteByID</text>
</a>
</g>
</g>
<!-- Node792&#45;&gt;Node795 -->
<g id="edge3" class="edge"><title>Node792&#45;&gt;Node795</title>
<path fill="none" stroke="midnightblue" d="M101.002,-103.7C109.332,-102.219 118.056,-100.668 126.614,-99.1464"/>
<polygon fill="midnightblue" stroke="midnightblue" points="127.319,-102.576 136.552,-97.3797 126.093,-95.6842 127.319,-102.576"/>
</g>
<!-- Node794 -->
<g id="node3" class="node"><title>Node794</title>
<g id="a_node3"><a xlink:href="classobe_1_1_graphics_1_1_level_sprite.html#a37e18d92990f1b1289f45fff74f3bff4" target="_top" xlink:title="obe::Graphics::LevelSprite\l::getID">
<polygon fill="none" stroke="black" points="274,-122.5 274,-152.5 405,-152.5 405,-122.5 274,-122.5"/>
<text text-anchor="start" x="282" y="-140.5" font-family="Helvetica,sans-Serif" font-size="10.00">obe::Graphics::LevelSprite</text>
<text text-anchor="middle" x="339.5" y="-129.5" font-family="Helvetica,sans-Serif" font-size="10.00">::getID</text>
</a>
</g>
</g>
<!-- Node793&#45;&gt;Node794 -->
<g id="edge2" class="edge"><title>Node793&#45;&gt;Node794</title>
<path fill="none" stroke="midnightblue" d="M238.031,-137.5C246.25,-137.5 254.932,-137.5 263.612,-137.5"/>
<polygon fill="midnightblue" stroke="midnightblue" points="263.773,-141 273.773,-137.5 263.773,-134 263.773,-141"/>
</g>
<!-- Node796 -->
<g id="node5" class="node"><title>Node796</title>
<g id="a_node5"><a xlink:href="classaube_1_1_error_handler.html#a7c8d44a3e7f019646d289950abc5301b" target="_top" xlink:title="aube::ErrorHandler\l::Raise">
<polygon fill="none" stroke="black" points="290.5,-73.5 290.5,-103.5 388.5,-103.5 388.5,-73.5 290.5,-73.5"/>
<text text-anchor="start" x="298.5" y="-91.5" font-family="Helvetica,sans-Serif" font-size="10.00">aube::ErrorHandler</text>
<text text-anchor="middle" x="339.5" y="-80.5" font-family="Helvetica,sans-Serif" font-size="10.00">::Raise</text>
</a>
</g>
</g>
<!-- Node795&#45;&gt;Node796 -->
<g id="edge4" class="edge"><title>Node795&#45;&gt;Node796</title>
<path fill="none" stroke="midnightblue" d="M238.031,-88.5C251.428,-88.5 266.054,-88.5 279.897,-88.5"/>
<polygon fill="midnightblue" stroke="midnightblue" points="280.297,-92.0001 290.297,-88.5 280.297,-85.0001 280.297,-92.0001"/>
</g>
<!-- Node797 -->
<g id="node6" class="node"><title>Node797</title>
<g id="a_node6"><a xlink:href="classaube_1_1_error_message.html#a3a39b6fcd8fdb12eaf6383123535b8ca" target="_top" xlink:title="aube::ErrorMessage\l::getFile">
<polygon fill="none" stroke="black" points="441,-147.5 441,-177.5 545,-177.5 545,-147.5 441,-147.5"/>
<text text-anchor="start" x="449" y="-165.5" font-family="Helvetica,sans-Serif" font-size="10.00">aube::ErrorMessage</text>
<text text-anchor="middle" x="493" y="-154.5" font-family="Helvetica,sans-Serif" font-size="10.00">::getFile</text>
</a>
</g>
</g>
<!-- Node796&#45;&gt;Node797 -->
<g id="edge5" class="edge"><title>Node796&#45;&gt;Node797</title>
<path fill="none" stroke="midnightblue" d="M383.468,-103.508C390.787,-106.528 398.212,-109.894 405,-113.5 422.202,-122.64 424.128,-128.763 441,-138.5 443.503,-139.944 446.107,-141.375 448.756,-142.776"/>
<polygon fill="midnightblue" stroke="midnightblue" points="447.35,-145.987 457.85,-147.399 450.522,-139.747 447.35,-145.987"/>
</g>
<!-- Node798 -->
<g id="node7" class="node"><title>Node798</title>
<g id="a_node7"><a xlink:href="classaube_1_1_error_message.html#a9184cc96589578f434351c105b0cd5f7" target="_top" xlink:title="aube::ErrorMessage\l::getLocation">
<polygon fill="none" stroke="black" points="441,-98.5 441,-128.5 545,-128.5 545,-98.5 441,-98.5"/>
<text text-anchor="start" x="449" y="-116.5" font-family="Helvetica,sans-Serif" font-size="10.00">aube::ErrorMessage</text>
<text text-anchor="middle" x="493" y="-105.5" font-family="Helvetica,sans-Serif" font-size="10.00">::getLocation</text>
</a>
</g>
</g>
<!-- Node796&#45;&gt;Node798 -->
<g id="edge6" class="edge"><title>Node796&#45;&gt;Node798</title>
<path fill="none" stroke="midnightblue" d="M388.852,-96.4789C402.231,-98.6867 416.928,-101.112 430.93,-103.422"/>
<polygon fill="midnightblue" stroke="midnightblue" points="430.537,-106.905 440.973,-105.08 431.676,-99.9982 430.537,-106.905"/>
</g>
<!-- Node799 -->
<g id="node8" class="node"><title>Node799</title>
<g id="a_node8"><a xlink:href="classaube_1_1_error_message.html#a07927cb3e2d0712c459cc9e2b5f52696" target="_top" xlink:title="aube::ErrorMessage\l::getMessage">
<polygon fill="none" stroke="black" points="441,-49.5 441,-79.5 545,-79.5 545,-49.5 441,-49.5"/>
<text text-anchor="start" x="449" y="-67.5" font-family="Helvetica,sans-Serif" font-size="10.00">aube::ErrorMessage</text>
<text text-anchor="middle" x="493" y="-56.5" font-family="Helvetica,sans-Serif" font-size="10.00">::getMessage</text>
</a>
</g>
</g>
<!-- Node796&#45;&gt;Node799 -->
<g id="edge7" class="edge"><title>Node796&#45;&gt;Node799</title>
<path fill="none" stroke="midnightblue" d="M388.852,-80.8403C402.231,-78.7208 416.928,-76.3925 430.93,-74.1745"/>
<polygon fill="midnightblue" stroke="midnightblue" points="431.644,-77.6051 440.973,-72.5835 430.549,-70.6913 431.644,-77.6051"/>
</g>
<!-- Node800 -->
<g id="node9" class="node"><title>Node800</title>
<g id="a_node9"><a xlink:href="classaube_1_1_error_message.html#a77c2f9b7e93542c958173b52da267989" target="_top" xlink:title="aube::ErrorMessage\l::getHints">
<polygon fill="none" stroke="black" points="441,-0.5 441,-30.5 545,-30.5 545,-0.5 441,-0.5"/>
<text text-anchor="start" x="449" y="-18.5" font-family="Helvetica,sans-Serif" font-size="10.00">aube::ErrorMessage</text>
<text text-anchor="middle" x="493" y="-7.5" font-family="Helvetica,sans-Serif" font-size="10.00">::getHints</text>
</a>
</g>
</g>
<!-- Node796&#45;&gt;Node800 -->
<g id="edge8" class="edge"><title>Node796&#45;&gt;Node800</title>
<path fill="none" stroke="midnightblue" d="M371.891,-73.3744C394.947,-62.265 426.467,-47.0768 451.433,-35.047"/>
<polygon fill="midnightblue" stroke="midnightblue" points="453.16,-38.1002 460.649,-30.6063 450.121,-31.7941 453.16,-38.1002"/>
</g>
</g>
</svg>
        <g id="navigator" transform="translate(0 0)" fill="#404254">
                <rect fill="#f2f5e9" fill-opacity="0.5" stroke="#606060" stroke-width=".5" x="0" y="0" width="60" height="60"/>
                <use id="zoomplus" xlink:href="#zoomPlus" x="17" y="9" onmousedown="handleZoom(evt,'in')"/>
                <use id="zoomminus" xlink:href="#zoomMin" x="42" y="9" onmousedown="handleZoom(evt,'out')"/>
                <use id="reset" xlink:href="#resetDef" x="30" y="36" onmousedown="handleReset()"/>
                <g id="arrowUp" xlink:href="#dirArrow" transform="translate(30 24)" onmousedown="handlePan(0,-1)">
                  <use xlink:href="#rim" fill="#404040">
                        <set attributeName="fill" to="#808080" begin="arrowUp.mouseover" end="arrowUp.mouseout"/>
                  </use>
                  <path fill="none" stroke="white" stroke-width="1.5" d="M0,-3.0v7 M-2.5,-0.5L0,-3.0L2.5,-0.5"/>
                </g>
                <g id="arrowRight" xlink:href="#dirArrow" transform="rotate(90) translate(36 -43)" onmousedown="handlePan(1,0)">
                  <use xlink:href="#rim" fill="#404040">
                        <set attributeName="fill" to="#808080" begin="arrowRight.mouseover" end="arrowRight.mouseout"/>
                  </use>
                  <path fill="none" stroke="white" stroke-width="1.5" d="M0,-3.0v7 M-2.5,-0.5L0,-3.0L2.5,-0.5"/>
                </g>
                <g id="arrowDown" xlink:href="#dirArrow" transform="rotate(180) translate(-30 -48)" onmousedown="handlePan(0,1)">
                  <use xlink:href="#rim" fill="#404040">
                        <set attributeName="fill" to="#808080" begin="arrowDown.mouseover" end="arrowDown.mouseout"/>
                  </use>
                  <path fill="none" stroke="white" stroke-width="1.5" d="M0,-3.0v7 M-2.5,-0.5L0,-3.0L2.5,-0.5"/>
                </g>
                <g id="arrowLeft" xlink:href="#dirArrow" transform="rotate(270) translate(-36 17)" onmousedown="handlePan(-1,0)">
                  <use xlink:href="#rim" fill="#404040">
                        <set attributeName="fill" to="#808080" begin="arrowLeft.mouseover" end="arrowLeft.mouseout"/>
                  </use>
                  <path fill="none" stroke="white" stroke-width="1.5" d="M0,-3.0v7 M-2.5,-0.5L0,-3.0L2.5,-0.5"/>
                </g>
        </g>
        <svg viewBox="0 0 15 15" width="100%" height="30px" preserveAspectRatio="xMaxYMin meet">
         <g id="arrow_out" transform="scale(0.3 0.3)">
          <a xlink:href="classobe_1_1_world_1_1_world_a032c29f4887c5d4d0ac46d3da86388dc_cgraph_org.svg" target="_base">
           <rect id="button" ry="5" rx="5" y="6" x="6" height="38" width="38"
                fill="#f2f5e9" fill-opacity="0.5" stroke="#606060" stroke-width="1.0"/>
           <path id="arrow"
             d="M 11.500037,31.436501 C 11.940474,20.09759 22.043105,11.32322 32.158766,21.979434 L 37.068811,17.246167 C 37.068811,17.246167 37.088388,32 37.088388,32 L 22.160133,31.978069 C 22.160133,31.978069 26.997745,27.140456 26.997745,27.140456 C 18.528582,18.264221 13.291696,25.230495 11.500037,31.436501 z"
             style="fill:#404040;"/>
          </a>
         </g>
        </svg>
</svg>
