<?xml version="1.0" encoding="UTF-8" standalone="no"?>
<!DOCTYPE svg PUBLIC "-//W3C//DTD SVG 1.1//EN"
 "http://www.w3.org/Graphics/SVG/1.1/DTD/svg11.dtd">
<!-- Generated by graphviz version 2.38.0 (20140413.2041)
 -->
<!-- Title: obe::Script::GameObject::exec Pages: 1 -->
<svg width="1214pt" height="110pt"
 viewBox="0.00 0.00 1214.00 109.50" xmlns="http://www.w3.org/2000/svg" xmlns:xlink="http://www.w3.org/1999/xlink">
<g id="graph0" class="graph" transform="scale(1 1) rotate(0) translate(4 105.5)">
<title>obe::Script::GameObject::exec</title>
<!-- Node45 -->
<g id="node1" class="node"><title>Node45</title>
<polygon fill="#bfbfbf" stroke="black" points="0,-46 0,-76 125,-76 125,-46 0,-46"/>
<text text-anchor="start" x="8" y="-64" font-family="Helvetica,sans-Serif" font-size="10.00">obe::Script::GameObject</text>
<text text-anchor="middle" x="62.5" y="-53" font-family="Helvetica,sans-Serif" font-size="10.00">::exec</text>
</g>
<!-- Node46 -->
<g id="node2" class="node"><title>Node46</title>
<g id="a_node2"><a xlink:href="namespaceobe_1_1_bindings_1_1_script_bindings.html#a04868f6a764f6509ebe9359f40603aad" target="_top" xlink:title="obe::Bindings::ScriptBindings\l::LoadGameObject">
<polygon fill="white" stroke="black" points="161,-71 161,-101 306,-101 306,-71 161,-71"/>
<text text-anchor="start" x="169" y="-89" font-family="Helvetica,sans-Serif" font-size="10.00">obe::Bindings::ScriptBindings</text>
<text text-anchor="middle" x="233.5" y="-78" font-family="Helvetica,sans-Serif" font-size="10.00">::LoadGameObject</text>
</a>
</g>
</g>
<!-- Node45&#45;&gt;Node46 -->
<g id="edge1" class="edge"><title>Node45&#45;&gt;Node46</title>
<path fill="none" stroke="midnightblue" d="M135.564,-71.6603C143.925,-72.8973 152.453,-74.1587 160.81,-75.3949"/>
<polygon fill="midnightblue" stroke="midnightblue" points="135.874,-68.1682 125.47,-70.1671 134.85,-75.0929 135.874,-68.1682"/>
</g>
<!-- Node49 -->
<g id="node5" class="node"><title>Node49</title>
<g id="a_node5"><a xlink:href="namespaceobe_1_1_editor.html#af8c2ea92f8d718d85f019f9a27a91262" target="_top" xlink:title="Builds an Object through Parameters. ">
<polygon fill="white" stroke="black" points="174,-22 174,-52 293,-52 293,-22 174,-22"/>
<text text-anchor="start" x="182" y="-40" font-family="Helvetica,sans-Serif" font-size="10.00">obe::Editor::buildObject</text>
<text text-anchor="middle" x="233.5" y="-29" font-family="Helvetica,sans-Serif" font-size="10.00">ThroughRequire</text>
</a>
</g>
</g>
<!-- Node45&#45;&gt;Node49 -->
<g id="edge4" class="edge"><title>Node45&#45;&gt;Node49</title>
<path fill="none" stroke="midnightblue" d="M135.614,-50.759C148.394,-48.944 161.561,-47.0741 173.911,-45.3204"/>
<polygon fill="midnightblue" stroke="midnightblue" points="134.878,-47.3282 125.47,-52.1996 135.863,-54.2587 134.878,-47.3282"/>
</g>
<!-- Node47 -->
<g id="node3" class="node"><title>Node47</title>
<g id="a_node3"><a xlink:href="namespaceobe_1_1_bindings.html#a41d33207a0199f125c75a0f70a4a3ba8" target="_top" xlink:title="To call when the engine starts, indexes all Lua bindings. ">
<polygon fill="white" stroke="black" points="506,-76.5 506,-95.5 649,-95.5 649,-76.5 506,-76.5"/>
<text text-anchor="middle" x="577.5" y="-83.5" font-family="Helvetica,sans-Serif" font-size="10.00">obe::Bindings::IndexBindings</text>
</a>
</g>
</g>
<!-- Node46&#45;&gt;Node47 -->
<g id="edge2" class="edge"><title>Node46&#45;&gt;Node47</title>
<path fill="none" stroke="midnightblue" d="M316.383,-86C374.129,-86 450.69,-86 505.779,-86"/>
<polygon fill="midnightblue" stroke="midnightblue" points="316.194,-82.5001 306.194,-86 316.194,-89.5001 316.194,-82.5001"/>
</g>
<!-- Node48 -->
<g id="node4" class="node"><title>Node48</title>
<g id="a_node4"><a xlink:href="_ob_engine_8cpp.html#a3c04138a5bfe5d72780bb7e82a18e627" target="_top" xlink:title="main">
<polygon fill="white" stroke="black" points="1168,-38.5 1168,-57.5 1206,-57.5 1206,-38.5 1168,-38.5"/>
<text text-anchor="middle" x="1187" y="-45.5" font-family="Helvetica,sans-Serif" font-size="10.00">main</text>
</a>
</g>
</g>
<!-- Node47&#45;&gt;Node48 -->
<g id="edge3" class="edge"><title>Node47&#45;&gt;Node48</title>
<path fill="none" stroke="midnightblue" d="M659.258,-85.2621C767.294,-83.5112 964.672,-77.638 1132,-58 1143.93,-56.5997 1157.2,-54.1553 1167.6,-52.0339"/>
<polygon fill="midnightblue" stroke="midnightblue" points="659.03,-81.7651 649.085,-85.419 659.138,-88.7642 659.03,-81.7651"/>
</g>
<!-- Node50 -->
<g id="node6" class="node"><title>Node50</title>
<g id="a_node6"><a xlink:href="namespaceobe_1_1_editor.html#a28799f83f6d2fc2c4fe20479e69fb720" target="_top" xlink:title="Builds the RequiresPanel that will transmit Init parameters to the GameObject. ">
<polygon fill="white" stroke="black" points="342,-22 342,-52 470,-52 470,-22 342,-22"/>
<text text-anchor="start" x="350" y="-40" font-family="Helvetica,sans-Serif" font-size="10.00">obe::Editor::buildRequires</text>
<text text-anchor="middle" x="406" y="-29" font-family="Helvetica,sans-Serif" font-size="10.00">ObjectTab</text>
</a>
</g>
</g>
<!-- Node49&#45;&gt;Node50 -->
<g id="edge5" class="edge"><title>Node49&#45;&gt;Node50</title>
<path fill="none" stroke="midnightblue" d="M303.268,-37C316.016,-37 329.276,-37 341.847,-37"/>
<polygon fill="midnightblue" stroke="midnightblue" points="303.176,-33.5001 293.176,-37 303.176,-40.5001 303.176,-33.5001"/>
</g>
<!-- Node51 -->
<g id="node7" class="node"><title>Node51</title>
<g id="a_node7"><a xlink:href="namespaceobe_1_1_editor.html#a97c53e73ef3b12081baff754032596e9" target="_top" xlink:title="Builds the Editor Object Tab. ">
<polygon fill="white" stroke="black" points="510.5,-27.5 510.5,-46.5 644.5,-46.5 644.5,-27.5 510.5,-27.5"/>
<text text-anchor="middle" x="577.5" y="-34.5" font-family="Helvetica,sans-Serif" font-size="10.00">obe::Editor::buildObjectTab</text>
</a>
</g>
</g>
<!-- Node50&#45;&gt;Node51 -->
<g id="edge6" class="edge"><title>Node50&#45;&gt;Node51</title>
<path fill="none" stroke="midnightblue" d="M480.117,-37C490.215,-37 500.538,-37 510.497,-37"/>
<polygon fill="midnightblue" stroke="midnightblue" points="480.116,-33.5001 470.116,-37 480.116,-40.5001 480.116,-33.5001"/>
</g>
<!-- Node52 -->
<g id="node8" class="node"><title>Node52</title>
<g id="a_node8"><a xlink:href="namespaceobe_1_1_editor_1_1_g_u_i.html#a1daea0dffefb4df9eb22870d7477bcf0" target="_top" xlink:title="obe::Editor::GUI::buildEditor\lObjectsMenu">
<polygon fill="white" stroke="black" points="685,-22 685,-52 823,-52 823,-22 685,-22"/>
<text text-anchor="start" x="693" y="-40" font-family="Helvetica,sans-Serif" font-size="10.00">obe::Editor::GUI::buildEditor</text>
<text text-anchor="middle" x="754" y="-29" font-family="Helvetica,sans-Serif" font-size="10.00">ObjectsMenu</text>
</a>
</g>
</g>
<!-- Node51&#45;&gt;Node52 -->
<g id="edge7" class="edge"><title>Node51&#45;&gt;Node52</title>
<path fill="none" stroke="midnightblue" d="M655.21,-37C665.123,-37 675.22,-37 684.979,-37"/>
<polygon fill="midnightblue" stroke="midnightblue" points="654.969,-33.5001 644.969,-37 654.969,-40.5001 654.969,-33.5001"/>
</g>
<!-- Node53 -->
<g id="node9" class="node"><title>Node53</title>
<g id="a_node9"><a xlink:href="namespaceobe_1_1_editor.html#a9009207671e71dccb68a31ea2362e9ef" target="_top" xlink:title="Starts the map edition. ">
<polygon fill="white" stroke="black" points="859,-27.5 859,-46.5 963,-46.5 963,-27.5 859,-27.5"/>
<text text-anchor="middle" x="911" y="-34.5" font-family="Helvetica,sans-Serif" font-size="10.00">obe::Editor::editMap</text>
</a>
</g>
</g>
<!-- Node52&#45;&gt;Node53 -->
<g id="edge8" class="edge"><title>Node52&#45;&gt;Node53</title>
<path fill="none" stroke="midnightblue" d="M833.47,-37C842.032,-37 850.578,-37 858.69,-37"/>
<polygon fill="midnightblue" stroke="midnightblue" points="833.436,-33.5001 823.436,-37 833.436,-40.5001 833.436,-33.5001"/>
</g>
<!-- Node53&#45;&gt;Node48 -->
<g id="edge11" class="edge"><title>Node53&#45;&gt;Node48</title>
<path fill="none" stroke="midnightblue" d="M973.356,-39.4632C1035.86,-41.9726 1128.97,-45.7105 1167.89,-47.2728"/>
<polygon fill="midnightblue" stroke="midnightblue" points="973.348,-35.9602 963.216,-39.0561 973.067,-42.9545 973.348,-35.9602"/>
</g>
<!-- Node54 -->
<g id="node10" class="node"><title>Node54</title>
<g id="a_node10"><a xlink:href="namespaceobe_1_1_modes.html#a6a8b08eee511d4895c4da96d4ba223a6" target="_top" xlink:title="Starts the development Menu where you can starts other menus from. ">
<polygon fill="white" stroke="black" points="999,-0.5 999,-19.5 1132,-19.5 1132,-0.5 999,-0.5"/>
<text text-anchor="middle" x="1065.5" y="-7.5" font-family="Helvetica,sans-Serif" font-size="10.00">obe::Modes::startDevMenu</text>
</a>
</g>
</g>
<!-- Node53&#45;&gt;Node54 -->
<g id="edge9" class="edge"><title>Node53&#45;&gt;Node54</title>
<path fill="none" stroke="midnightblue" d="M973.072,-26.1873C985.561,-23.9762 998.616,-21.6648 1010.82,-19.5036"/>
<polygon fill="midnightblue" stroke="midnightblue" points="972.441,-22.7444 963.205,-27.9343 973.662,-29.6372 972.441,-22.7444"/>
</g>
<!-- Node54&#45;&gt;Node48 -->
<g id="edge10" class="edge"><title>Node54&#45;&gt;Node48</title>
<path fill="none" stroke="midnightblue" d="M1106.21,-22.6283C1127.01,-29.2412 1151.47,-37.0187 1167.77,-42.2028"/>
<polygon fill="midnightblue" stroke="midnightblue" points="1107.25,-19.284 1096.65,-19.589 1105.12,-25.9549 1107.25,-19.284"/>
</g>
</g>
</svg>
