<?xml version="1.0" encoding="UTF-8" standalone="no"?>
<!DOCTYPE svg PUBLIC "-//W3C//DTD SVG 1.1//EN"
 "http://www.w3.org/Graphics/SVG/1.1/DTD/svg11.dtd">
<!-- Generated by graphviz version 2.38.0 (20140413.2041)
 -->
<!-- Title: vili::ComplexNode::pushLinkNode Pages: 1 -->
<svg width="566pt" height="302pt"
 viewBox="0.00 0.00 566.00 301.50" xmlns="http://www.w3.org/2000/svg" xmlns:xlink="http://www.w3.org/1999/xlink">
<g id="graph0" class="graph" transform="scale(1 1) rotate(0) translate(4 297.5)">
<title>vili::ComplexNode::pushLinkNode</title>
<!-- Node1032 -->
<g id="node1" class="node"><title>Node1032</title>
<polygon fill="#bfbfbf" stroke="black" points="0,-224.5 0,-254.5 100,-254.5 100,-224.5 0,-224.5"/>
<text text-anchor="start" x="8" y="-242.5" font-family="Helvetica,sans-Serif" font-size="10.00">vili::ComplexNode::</text>
<text text-anchor="middle" x="50" y="-231.5" font-family="Helvetica,sans-Serif" font-size="10.00">pushLinkNode</text>
</g>
<!-- Node1033 -->
<g id="node2" class="node"><title>Node1033</title>
<g id="a_node2"><a xlink:href="classvili_1_1_node.html#ab03908ab3d62e3bfddaf9e7306fdf3b3" target="_top" xlink:title="Gets the id of the Node. ">
<polygon fill="white" stroke="black" points="455.5,-274 455.5,-293 538.5,-293 538.5,-274 455.5,-274"/>
<text text-anchor="middle" x="497" y="-281" font-family="Helvetica,sans-Serif" font-size="10.00">vili::Node::getId</text>
</a>
</g>
</g>
<!-- Node1032&#45;&gt;Node1033 -->
<g id="edge1" class="edge"><title>Node1032&#45;&gt;Node1033</title>
<path fill="none" stroke="midnightblue" d="M95.0955,-254.59C108.121,-258.467 122.506,-262.192 136,-264.5 244.996,-283.142 375.017,-285.102 445.126,-284.527"/>
<polygon fill="midnightblue" stroke="midnightblue" points="445.475,-288.024 455.438,-284.42 445.402,-281.024 445.475,-288.024"/>
</g>
<!-- Node1034 -->
<g id="node3" class="node"><title>Node1034</title>
<g id="a_node3"><a xlink:href="namespacevili_1_1_functions_1_1_vector.html#aa9f0dd6b1c4be1e3d86846944329d9f2" target="_top" xlink:title="Check if a given item is in the given std::vector. ">
<polygon fill="white" stroke="black" points="136,-224.5 136,-254.5 246,-254.5 246,-224.5 136,-224.5"/>
<text text-anchor="start" x="144" y="-242.5" font-family="Helvetica,sans-Serif" font-size="10.00">vili::Functions::Vector</text>
<text text-anchor="middle" x="191" y="-231.5" font-family="Helvetica,sans-Serif" font-size="10.00">::isInList</text>
</a>
</g>
</g>
<!-- Node1032&#45;&gt;Node1034 -->
<g id="edge2" class="edge"><title>Node1032&#45;&gt;Node1034</title>
<path fill="none" stroke="midnightblue" d="M100.006,-239.5C108.321,-239.5 117.065,-239.5 125.701,-239.5"/>
<polygon fill="midnightblue" stroke="midnightblue" points="125.758,-243 135.758,-239.5 125.758,-236 125.758,-243"/>
</g>
<!-- Node1035 -->
<g id="node4" class="node"><title>Node1035</title>
<g id="a_node4"><a xlink:href="classvili_1_1_complex_node.html#af5e6d6152ca8466fb0b820aa95aafa58" target="_top" xlink:title="Get a LinkNode contained in the ComplexNode. ">
<polygon fill="white" stroke="black" points="141,-175.5 141,-205.5 241,-205.5 241,-175.5 141,-175.5"/>
<text text-anchor="start" x="149" y="-193.5" font-family="Helvetica,sans-Serif" font-size="10.00">vili::ComplexNode::</text>
<text text-anchor="middle" x="191" y="-182.5" font-family="Helvetica,sans-Serif" font-size="10.00">getLinkNode</text>
</a>
</g>
</g>
<!-- Node1032&#45;&gt;Node1035 -->
<g id="edge3" class="edge"><title>Node1032&#45;&gt;Node1035</title>
<path fill="none" stroke="midnightblue" d="M93.8388,-224.399C107.579,-219.555 122.958,-214.134 137.317,-209.072"/>
<polygon fill="midnightblue" stroke="midnightblue" points="138.796,-212.262 147.063,-205.636 136.469,-205.66 138.796,-212.262"/>
</g>
<!-- Node1036 -->
<g id="node5" class="node"><title>Node1036</title>
<g id="a_node5"><a xlink:href="classaube_1_1_error_handler.html#a7c8d44a3e7f019646d289950abc5301b" target="_top" xlink:title="Raises an Error loaded in the Aube Error Database (AED) ">
<polygon fill="white" stroke="black" points="292,-73.5 292,-103.5 390,-103.5 390,-73.5 292,-73.5"/>
<text text-anchor="start" x="300" y="-91.5" font-family="Helvetica,sans-Serif" font-size="10.00">aube::ErrorHandler</text>
<text text-anchor="middle" x="341" y="-80.5" font-family="Helvetica,sans-Serif" font-size="10.00">::Raise</text>
</a>
</g>
</g>
<!-- Node1035&#45;&gt;Node1036 -->
<g id="edge4" class="edge"><title>Node1035&#45;&gt;Node1036</title>
<path fill="none" stroke="midnightblue" d="M213.838,-175.45C239.196,-157.973 281.183,-129.036 309.691,-109.389"/>
<polygon fill="midnightblue" stroke="midnightblue" points="311.825,-112.169 318.072,-103.612 307.852,-106.405 311.825,-112.169"/>
</g>
<!-- Node1040 -->
<g id="node9" class="node"><title>Node1040</title>
<g id="a_node9"><a xlink:href="classvili_1_1_node.html#a5a6ad518f51d824e06ae7be0328f4864" target="_top" xlink:title="Get the Node Path (Example : GrandParent/Parent/Node) ">
<polygon fill="white" stroke="black" points="282,-186 282,-205 400,-205 400,-186 282,-186"/>
<text text-anchor="middle" x="341" y="-193" font-family="Helvetica,sans-Serif" font-size="10.00">vili::Node::getNodePath</text>
</a>
</g>
</g>
<!-- Node1035&#45;&gt;Node1040 -->
<g id="edge8" class="edge"><title>Node1035&#45;&gt;Node1040</title>
<path fill="none" stroke="midnightblue" d="M241.282,-192.165C251.057,-192.495 261.483,-192.847 271.759,-193.195"/>
<polygon fill="midnightblue" stroke="midnightblue" points="271.844,-196.699 281.956,-193.539 272.08,-189.703 271.844,-196.699"/>
</g>
<!-- Node1037 -->
<g id="node6" class="node"><title>Node1037</title>
<g id="a_node6"><a xlink:href="classaube_1_1_error_message.html#a9184cc96589578f434351c105b0cd5f7" target="_top" xlink:title="Gets the location of the error in the code. ">
<polygon fill="white" stroke="black" points="445,-49.5 445,-79.5 549,-79.5 549,-49.5 445,-49.5"/>
<text text-anchor="start" x="453" y="-67.5" font-family="Helvetica,sans-Serif" font-size="10.00">aube::ErrorMessage</text>
<text text-anchor="middle" x="497" y="-56.5" font-family="Helvetica,sans-Serif" font-size="10.00">::getLocation</text>
</a>
</g>
</g>
<!-- Node1036&#45;&gt;Node1037 -->
<g id="edge5" class="edge"><title>Node1036&#45;&gt;Node1037</title>
<path fill="none" stroke="midnightblue" d="M390.304,-80.9721C404.423,-78.7717 420.044,-76.3373 434.848,-74.0301"/>
<polygon fill="midnightblue" stroke="midnightblue" points="435.597,-77.4559 444.938,-72.4577 434.519,-70.5393 435.597,-77.4559"/>
</g>
<!-- Node1038 -->
<g id="node7" class="node"><title>Node1038</title>
<g id="a_node7"><a xlink:href="classaube_1_1_error_message.html#a07927cb3e2d0712c459cc9e2b5f52696" target="_top" xlink:title="Gets the message displayed by the ErrorMessage when raised. ">
<polygon fill="white" stroke="black" points="445,-0.5 445,-30.5 549,-30.5 549,-0.5 445,-0.5"/>
<text text-anchor="start" x="453" y="-18.5" font-family="Helvetica,sans-Serif" font-size="10.00">aube::ErrorMessage</text>
<text text-anchor="middle" x="497" y="-7.5" font-family="Helvetica,sans-Serif" font-size="10.00">::getMessage</text>
</a>
</g>
</g>
<!-- Node1036&#45;&gt;Node1038 -->
<g id="edge6" class="edge"><title>Node1036&#45;&gt;Node1038</title>
<path fill="none" stroke="midnightblue" d="M369.199,-73.4007C387.778,-63.3157 413.088,-50.0223 436,-39.5 439.624,-37.8356 443.399,-36.1707 447.212,-34.5376"/>
<polygon fill="midnightblue" stroke="midnightblue" points="448.835,-37.6525 456.707,-30.5616 446.131,-31.1958 448.835,-37.6525"/>
</g>
<!-- Node1039 -->
<g id="node8" class="node"><title>Node1039</title>
<g id="a_node8"><a xlink:href="classaube_1_1_error_message.html#a77c2f9b7e93542c958173b52da267989" target="_top" xlink:title="Gets hints that can help the error resolution. ">
<polygon fill="white" stroke="black" points="445,-98.5 445,-128.5 549,-128.5 549,-98.5 445,-98.5"/>
<text text-anchor="start" x="453" y="-116.5" font-family="Helvetica,sans-Serif" font-size="10.00">aube::ErrorMessage</text>
<text text-anchor="middle" x="497" y="-105.5" font-family="Helvetica,sans-Serif" font-size="10.00">::getHints</text>
</a>
</g>
</g>
<!-- Node1036&#45;&gt;Node1039 -->
<g id="edge7" class="edge"><title>Node1036&#45;&gt;Node1039</title>
<path fill="none" stroke="midnightblue" d="M390.304,-96.3416C404.423,-98.6336 420.044,-101.17 434.848,-103.573"/>
<polygon fill="midnightblue" stroke="midnightblue" points="434.507,-107.063 444.938,-105.211 435.628,-100.154 434.507,-107.063"/>
</g>
<!-- Node1040&#45;&gt;Node1033 -->
<g id="edge10" class="edge"><title>Node1040&#45;&gt;Node1033</title>
<path fill="none" stroke="midnightblue" d="M352.514,-205.04C369.128,-219.673 402.969,-247.724 436,-264.5 440.28,-266.674 444.859,-268.661 449.507,-270.462"/>
<polygon fill="midnightblue" stroke="midnightblue" points="448.478,-273.812 459.073,-273.897 450.844,-267.223 448.478,-273.812"/>
</g>
<!-- Node1041 -->
<g id="node10" class="node"><title>Node1041</title>
<g id="a_node10"><a xlink:href="classvili_1_1_node.html#a58273048e22a9ebd74e576fd8905f709" target="_top" xlink:title="vili::Node::getParent">
<polygon fill="white" stroke="black" points="445,-186 445,-205 549,-205 549,-186 445,-186"/>
<text text-anchor="middle" x="497" y="-193" font-family="Helvetica,sans-Serif" font-size="10.00">vili::Node::getParent</text>
</a>
</g>
</g>
<!-- Node1040&#45;&gt;Node1041 -->
<g id="edge9" class="edge"><title>Node1040&#45;&gt;Node1041</title>
<path fill="none" stroke="midnightblue" d="M400.221,-195.5C411.437,-195.5 423.22,-195.5 434.536,-195.5"/>
<polygon fill="midnightblue" stroke="midnightblue" points="434.767,-199 444.767,-195.5 434.767,-192 434.767,-199"/>
</g>
<!-- Node1042 -->
<g id="node11" class="node"><title>Node1042</title>
<g id="a_node11"><a xlink:href="classvili_1_1_node.html#ad3c91cfe2721eaf9841721d1ec8ee0d8" target="_top" xlink:title="Gets the Node annotation. ">
<polygon fill="white" stroke="black" points="436,-148 436,-167 558,-167 558,-148 436,-148"/>
<text text-anchor="middle" x="497" y="-155" font-family="Helvetica,sans-Serif" font-size="10.00">vili::Node::getAnnotation</text>
</a>
</g>
</g>
<!-- Node1040&#45;&gt;Node1042 -->
<g id="edge11" class="edge"><title>Node1040&#45;&gt;Node1042</title>
<path fill="none" stroke="midnightblue" d="M380.861,-185.911C401.091,-180.919 426.021,-174.768 447.504,-169.467"/>
<polygon fill="midnightblue" stroke="midnightblue" points="448.548,-172.814 457.419,-167.02 446.871,-166.018 448.548,-172.814"/>
</g>
<!-- Node1043 -->
<g id="node12" class="node"><title>Node1043</title>
<g id="a_node12"><a xlink:href="namespacevili_1_1_functions_1_1_vector.html#a10836e1fe04648534cfc59d9de9acd72" target="_top" xlink:title="vili::Functions::Vector\l::join">
<polygon fill="white" stroke="black" points="442,-224.5 442,-254.5 552,-254.5 552,-224.5 442,-224.5"/>
<text text-anchor="start" x="450" y="-242.5" font-family="Helvetica,sans-Serif" font-size="10.00">vili::Functions::Vector</text>
<text text-anchor="middle" x="497" y="-231.5" font-family="Helvetica,sans-Serif" font-size="10.00">::join</text>
</a>
</g>
</g>
<!-- Node1040&#45;&gt;Node1043 -->
<g id="edge12" class="edge"><title>Node1040&#45;&gt;Node1043</title>
<path fill="none" stroke="midnightblue" d="M375.416,-205.047C392.445,-209.913 413.714,-215.99 433.629,-221.68"/>
<polygon fill="midnightblue" stroke="midnightblue" points="432.694,-225.053 443.271,-224.435 434.618,-218.322 432.694,-225.053"/>
</g>
</g>
</svg>
