<?xml version="1.0" encoding="UTF-8" standalone="no"?>
<!DOCTYPE svg PUBLIC "-//W3C//DTD SVG 1.1//EN"
 "http://www.w3.org/Graphics/SVG/1.1/DTD/svg11.dtd">
<!-- Generated by graphviz version 2.38.0 (20140413.2041)
 -->
<!-- Title: vili::ComplexNode::getArrayNode Pages: 1 -->
<svg width="1791pt" height="587pt"
 viewBox="0.00 0.00 1791.00 586.79" xmlns="http://www.w3.org/2000/svg" xmlns:xlink="http://www.w3.org/1999/xlink">
<g id="graph0" class="graph" transform="scale(1 1) rotate(0) translate(4 582.789)">
<title>vili::ComplexNode::getArrayNode</title>
<!-- Node640 -->
<g id="node1" class="node"><title>Node640</title>
<polygon fill="#bfbfbf" stroke="black" points="0,-323.5 0,-353.5 100,-353.5 100,-323.5 0,-323.5"/>
<text text-anchor="start" x="8" y="-341.5" font-family="Helvetica,sans-Serif" font-size="10.00">vili::ComplexNode::</text>
<text text-anchor="middle" x="50" y="-330.5" font-family="Helvetica,sans-Serif" font-size="10.00">getArrayNode</text>
</g>
<!-- Node641 -->
<g id="node2" class="node"><title>Node641</title>
<g id="a_node2"><a xlink:href="classvili_1_1_complex_node.html#ad0fb0be46ef509c3edd1046b5d584a4c" target="_top" xlink:title="Creates an ArrayNode in the ComplexNode. ">
<polygon fill="white" stroke="black" points="151.5,-430.5 151.5,-460.5 251.5,-460.5 251.5,-430.5 151.5,-430.5"/>
<text text-anchor="start" x="159.5" y="-448.5" font-family="Helvetica,sans-Serif" font-size="10.00">vili::ComplexNode::</text>
<text text-anchor="middle" x="201.5" y="-437.5" font-family="Helvetica,sans-Serif" font-size="10.00">createArrayNode</text>
</a>
</g>
</g>
<!-- Node640&#45;&gt;Node641 -->
<g id="edge1" class="edge"><title>Node640&#45;&gt;Node641</title>
<path fill="none" stroke="midnightblue" d="M72.3122,-361.182C88.6447,-377.685 112.329,-399.798 136,-415.5 144.336,-421.03 153.854,-426.064 162.972,-430.362"/>
<polygon fill="midnightblue" stroke="midnightblue" points="74.4,-358.309 64.9172,-353.584 69.3837,-363.192 74.4,-358.309"/>
</g>
<!-- Node642 -->
<g id="node3" class="node"><title>Node642</title>
<g id="a_node3"><a xlink:href="classvili_1_1_vili_parser.html#abf78e297a322d2e500a04172928d7c67" target="_top" xlink:title="Parses a .vili file. ">
<polygon fill="white" stroke="black" points="680,-398 680,-417 801,-417 801,-398 680,-398"/>
<text text-anchor="middle" x="740.5" y="-405" font-family="Helvetica,sans-Serif" font-size="10.00">vili::ViliParser::parseFile</text>
</a>
</g>
</g>
<!-- Node640&#45;&gt;Node642 -->
<g id="edge46" class="edge"><title>Node640&#45;&gt;Node642</title>
<path fill="none" stroke="midnightblue" d="M109.854,-355.135C118.568,-357.189 127.481,-359.066 136,-360.5 333.423,-393.724 571.211,-403.527 679.967,-406.369"/>
<polygon fill="midnightblue" stroke="midnightblue" points="110.676,-351.733 100.13,-352.756 109.012,-358.533 110.676,-351.733"/>
</g>
<!-- Node653 -->
<g id="node14" class="node"><title>Node653</title>
<g id="a_node14"><a xlink:href="classvili_1_1_complex_node.html#ad6d24a98270eaba537a3641632f7e1e7" target="_top" xlink:title="Access a casted Node in the tree using a path (with multiple path parts) (.at(&quot;NodeA&quot;, &quot;NodeB&quot;, &quot;NodeB&quot;) for example) ">
<polygon fill="white" stroke="black" points="315.5,-524 315.5,-543 423.5,-543 423.5,-524 315.5,-524"/>
<text text-anchor="middle" x="369.5" y="-531" font-family="Helvetica,sans-Serif" font-size="10.00">vili::ComplexNode::at</text>
</a>
</g>
</g>
<!-- Node640&#45;&gt;Node653 -->
<g id="edge50" class="edge"><title>Node640&#45;&gt;Node653</title>
<path fill="none" stroke="midnightblue" d="M52.1104,-363.706C55.7243,-411.175 71.058,-513.044 136,-557.5 202.97,-603.344 307.206,-562.908 349.605,-543.024"/>
<polygon fill="midnightblue" stroke="midnightblue" points="55.5987,-363.41 51.4614,-353.656 48.6133,-363.861 55.5987,-363.41"/>
</g>
<!-- Node654 -->
<g id="node15" class="node"><title>Node654</title>
<g id="a_node15"><a xlink:href="namespaceobe_1_1_bindings_1_1_vili_bindings.html#a1e41fb34d5eef62ebd8c29b99f499276" target="_top" xlink:title="obe::Bindings::ViliBindings\l::LoadViliComplexNode">
<polygon fill="white" stroke="black" points="303,-474.5 303,-504.5 436,-504.5 436,-474.5 303,-474.5"/>
<text text-anchor="start" x="311" y="-492.5" font-family="Helvetica,sans-Serif" font-size="10.00">obe::Bindings::ViliBindings</text>
<text text-anchor="middle" x="369.5" y="-481.5" font-family="Helvetica,sans-Serif" font-size="10.00">::LoadViliComplexNode</text>
</a>
</g>
</g>
<!-- Node640&#45;&gt;Node654 -->
<g id="edge51" class="edge"><title>Node640&#45;&gt;Node654</title>
<path fill="none" stroke="midnightblue" d="M59.2478,-363.059C70.991,-393.788 95.6914,-445.309 136,-469.5 186.11,-499.573 253.568,-502.105 302.914,-498.585"/>
<polygon fill="midnightblue" stroke="midnightblue" points="62.4765,-361.697 55.7583,-353.504 55.9013,-364.098 62.4765,-361.697"/>
</g>
<!-- Node655 -->
<g id="node16" class="node"><title>Node655</title>
<g id="a_node16"><a xlink:href="classobe_1_1_scene_1_1_scene.html#a7af64c188e60cc5b6588223a0118625c" target="_top" xlink:title="Dumps all elements of the Scene in a vili tree. ">
<polygon fill="white" stroke="black" points="490,-196 490,-215 620,-215 620,-196 490,-196"/>
<text text-anchor="middle" x="555" y="-203" font-family="Helvetica,sans-Serif" font-size="10.00">obe::Scene::Scene::dump</text>
</a>
</g>
</g>
<!-- Node640&#45;&gt;Node655 -->
<g id="edge63" class="edge"><title>Node640&#45;&gt;Node655</title>
<path fill="none" stroke="midnightblue" d="M86.1278,-318.578C133.646,-292.686 221.82,-248.33 303,-227.5 365.179,-211.546 438.551,-206.653 489.851,-205.383"/>
<polygon fill="midnightblue" stroke="midnightblue" points="84.2568,-315.612 77.1805,-323.498 87.6296,-321.746 84.2568,-315.612"/>
</g>
<!-- Node659 -->
<g id="node20" class="node"><title>Node659</title>
<g id="a_node20"><a xlink:href="classvili_1_1_complex_node.html#a9806c899add949c9961b9940da7483d5" target="_top" xlink:title="Pushes an existing ArrayNode in the ComplexNode. ">
<polygon fill="white" stroke="black" points="151.5,-518.5 151.5,-548.5 251.5,-548.5 251.5,-518.5 151.5,-518.5"/>
<text text-anchor="start" x="159.5" y="-536.5" font-family="Helvetica,sans-Serif" font-size="10.00">vili::ComplexNode::</text>
<text text-anchor="middle" x="201.5" y="-525.5" font-family="Helvetica,sans-Serif" font-size="10.00">pushArrayNode</text>
</a>
</g>
</g>
<!-- Node640&#45;&gt;Node659 -->
<g id="edge28" class="edge"><title>Node640&#45;&gt;Node659</title>
<path fill="none" stroke="midnightblue" d="M58.2419,-363.737C69.5487,-399.134 94.5087,-463.65 136,-503.5 142.235,-509.488 149.883,-514.445 157.704,-518.486"/>
<polygon fill="midnightblue" stroke="midnightblue" points="61.4539,-362.274 55.168,-353.746 54.7634,-364.333 61.4539,-362.274"/>
</g>
<!-- Node660 -->
<g id="node21" class="node"><title>Node660</title>
<g id="a_node21"><a xlink:href="classvili_1_1_link_node.html#a7d237573208ae570b0711ffa537488b8" target="_top" xlink:title="Get the Node the LinkNode is pointing to. ">
<polygon fill="white" stroke="black" points="309.5,-305 309.5,-324 429.5,-324 429.5,-305 309.5,-305"/>
<text text-anchor="middle" x="369.5" y="-312" font-family="Helvetica,sans-Serif" font-size="10.00">vili::LinkNode::getTarget</text>
</a>
</g>
</g>
<!-- Node640&#45;&gt;Node660 -->
<g id="edge31" class="edge"><title>Node640&#45;&gt;Node660</title>
<path fill="none" stroke="midnightblue" d="M110.538,-333.999C167.416,-329.7 252.653,-323.257 309.388,-318.968"/>
<polygon fill="midnightblue" stroke="midnightblue" points="109.969,-330.532 100.261,-334.776 110.496,-337.513 109.969,-330.532"/>
</g>
<!-- Node667 -->
<g id="node28" class="node"><title>Node667</title>
<g id="a_node28"><a xlink:href="namespaceobe_1_1_editor.html#a28799f83f6d2fc2c4fe20479e69fb720" target="_top" xlink:title="Builds the RequiresPanel that will transmit Init parameters to the GameObject. ">
<polygon fill="white" stroke="black" points="847.5,-0.5 847.5,-30.5 975.5,-30.5 975.5,-0.5 847.5,-0.5"/>
<text text-anchor="start" x="855.5" y="-18.5" font-family="Helvetica,sans-Serif" font-size="10.00">obe::Editor::buildRequires</text>
<text text-anchor="middle" x="911.5" y="-7.5" font-family="Helvetica,sans-Serif" font-size="10.00">ObjectTab</text>
</a>
</g>
</g>
<!-- Node640&#45;&gt;Node667 -->
<g id="edge52" class="edge"><title>Node640&#45;&gt;Node667</title>
<path fill="none" stroke="midnightblue" d="M50.0856,-313.041C49.5537,-256.108 56.9558,-118.128 136,-49.5 214.858,18.9658 264.068,-15.5 368.5,-15.5 368.5,-15.5 368.5,-15.5 556,-15.5 658.011,-15.5 776.534,-15.5 847.424,-15.5"/>
<polygon fill="midnightblue" stroke="midnightblue" points="46.5911,-313.37 50.2789,-323.302 53.5898,-313.238 46.5911,-313.37"/>
</g>
<!-- Node671 -->
<g id="node32" class="node"><title>Node671</title>
<g id="a_node32"><a xlink:href="classvili_1_1_vili_parser.html#a17a7a333c47610bd163316256c994b67" target="_top" xlink:title="Generates a NodeTemplate from a ComplexNode which should be a direct child of the Root...">
<polygon fill="white" stroke="black" points="495.5,-348.5 495.5,-378.5 614.5,-378.5 614.5,-348.5 495.5,-348.5"/>
<text text-anchor="start" x="503.5" y="-366.5" font-family="Helvetica,sans-Serif" font-size="10.00">vili::ViliParser::generate</text>
<text text-anchor="middle" x="555" y="-355.5" font-family="Helvetica,sans-Serif" font-size="10.00">Template</text>
</a>
</g>
</g>
<!-- Node640&#45;&gt;Node671 -->
<g id="edge47" class="edge"><title>Node640&#45;&gt;Node671</title>
<path fill="none" stroke="midnightblue" d="M110.369,-341.451C207.42,-346.274 398.88,-355.79 495.417,-360.588"/>
<polygon fill="midnightblue" stroke="midnightblue" points="110.307,-337.943 100.146,-340.943 109.959,-344.935 110.307,-337.943"/>
</g>
<!-- Node672 -->
<g id="node33" class="node"><title>Node672</title>
<g id="a_node33"><a xlink:href="classobe_1_1_scene_1_1_scene.html#a385bccf95deb10358169dffe5547e567" target="_top" xlink:title="Loads the Scene from a .map.vili file. ">
<polygon fill="white" stroke="black" points="687.5,-93.5 687.5,-123.5 793.5,-123.5 793.5,-93.5 687.5,-93.5"/>
<text text-anchor="start" x="695.5" y="-111.5" font-family="Helvetica,sans-Serif" font-size="10.00">obe::Scene::Scene::</text>
<text text-anchor="middle" x="740.5" y="-100.5" font-family="Helvetica,sans-Serif" font-size="10.00">loadFromFile</text>
</a>
</g>
</g>
<!-- Node640&#45;&gt;Node672 -->
<g id="edge53" class="edge"><title>Node640&#45;&gt;Node672</title>
<path fill="none" stroke="midnightblue" d="M64.368,-314.526C78.8616,-290.865 104.237,-255.547 136,-236.5 331.408,-119.322 415.556,-181.831 638,-132.5 654.087,-128.932 671.562,-124.869 687.407,-121.112"/>
<polygon fill="midnightblue" stroke="midnightblue" points="61.2743,-312.881 59.1819,-323.267 67.2945,-316.453 61.2743,-312.881"/>
</g>
<!-- Node678 -->
<g id="node39" class="node"><title>Node678</title>
<g id="a_node39"><a xlink:href="classobe_1_1_script_1_1_game_object.html#a1cfdaac0ab4bd6ce11b4ccba4b2f0a52" target="_top" xlink:title="Loads the GameObject through the GameObject Definition File. ">
<polygon fill="white" stroke="black" points="139,-59.5 139,-89.5 264,-89.5 264,-59.5 139,-59.5"/>
<text text-anchor="start" x="147" y="-77.5" font-family="Helvetica,sans-Serif" font-size="10.00">obe::Script::GameObject</text>
<text text-anchor="middle" x="201.5" y="-66.5" font-family="Helvetica,sans-Serif" font-size="10.00">::loadGameObject</text>
</a>
</g>
</g>
<!-- Node640&#45;&gt;Node678 -->
<g id="edge64" class="edge"><title>Node640&#45;&gt;Node678</title>
<path fill="none" stroke="midnightblue" d="M53.0393,-313.072C58.2392,-264.801 76.1651,-159.29 136,-98.5 139.353,-95.0939 143.232,-92.1663 147.392,-89.6508"/>
<polygon fill="midnightblue" stroke="midnightblue" points="49.5327,-312.969 52.042,-323.262 56.4994,-313.651 49.5327,-312.969"/>
</g>
<!-- Node679 -->
<g id="node40" class="node"><title>Node679</title>
<g id="a_node40"><a xlink:href="namespaceobe_1_1_script_1_1_data_bridge.html#ade4cfeb90d28b7ccfe24a6d607fd979c" target="_top" xlink:title="Adds a converted Vili ComplexAttribute to a Lua Table The key of the newly converted element in the t...">
<polygon fill="white" stroke="black" points="136,-108.5 136,-138.5 267,-138.5 267,-108.5 136,-108.5"/>
<text text-anchor="start" x="144" y="-126.5" font-family="Helvetica,sans-Serif" font-size="10.00">obe::Script::DataBridge</text>
<text text-anchor="middle" x="201.5" y="-115.5" font-family="Helvetica,sans-Serif" font-size="10.00">::complexNodeToLuaTable</text>
</a>
</g>
</g>
<!-- Node640&#45;&gt;Node679 -->
<g id="edge65" class="edge"><title>Node640&#45;&gt;Node679</title>
<path fill="none" stroke="midnightblue" d="M56.6183,-313.305C66.4707,-274.401 90.3016,-199.412 136,-153.5 141.924,-147.548 149.252,-142.641 156.82,-138.644"/>
<polygon fill="midnightblue" stroke="midnightblue" points="53.158,-312.724 54.2036,-323.267 59.9609,-314.373 53.158,-312.724"/>
</g>
<!-- Node641&#45;&gt;Node642 -->
<g id="edge2" class="edge"><title>Node641&#45;&gt;Node642</title>
<path fill="none" stroke="midnightblue" d="M261.683,-443.777C345.568,-440.986 503.781,-434.433 638,-421.5 651.545,-420.195 666.059,-418.42 679.753,-416.572"/>
<polygon fill="midnightblue" stroke="midnightblue" points="261.463,-440.283 251.582,-444.107 261.691,-447.279 261.463,-440.283"/>
</g>
<!-- Node641&#45;&gt;Node653 -->
<g id="edge18" class="edge"><title>Node641&#45;&gt;Node653</title>
<path fill="none" stroke="midnightblue" d="M229.209,-466.825C248.728,-481.576 276.34,-500.766 303,-513.5 311.583,-517.6 321.198,-521.09 330.362,-523.952"/>
<polygon fill="midnightblue" stroke="midnightblue" points="231.168,-463.916 221.104,-460.604 226.905,-469.469 231.168,-463.916"/>
</g>
<!-- Node641&#45;&gt;Node654 -->
<g id="edge19" class="edge"><title>Node641&#45;&gt;Node654</title>
<path fill="none" stroke="midnightblue" d="M261.785,-461.214C278.048,-465.525 295.636,-470.187 311.752,-474.458"/>
<polygon fill="midnightblue" stroke="midnightblue" points="262.419,-457.761 251.856,-458.582 260.625,-464.528 262.419,-457.761"/>
</g>
<!-- Node641&#45;&gt;Node655 -->
<g id="edge21" class="edge"><title>Node641&#45;&gt;Node655</title>
<path fill="none" stroke="midnightblue" d="M213.384,-420.883C228.952,-388.2 260.465,-330.542 303,-295.5 358.649,-249.654 439.492,-226.28 494.274,-215.004"/>
<polygon fill="midnightblue" stroke="midnightblue" points="210.108,-419.627 209.07,-430.171 216.457,-422.576 210.108,-419.627"/>
</g>
<!-- Node643 -->
<g id="node4" class="node"><title>Node643</title>
<g id="a_node4"><a xlink:href="classvili_1_1_vili_parser.html#a99cb54088fabdcf4182fd1593648a47f" target="_top" xlink:title="Creates a ViliParser and parses the file at the given path. ">
<polygon fill="white" stroke="black" points="850,-436 850,-455 973,-455 973,-436 850,-436"/>
<text text-anchor="middle" x="911.5" y="-443" font-family="Helvetica,sans-Serif" font-size="10.00">vili::ViliParser::ViliParser</text>
</a>
</g>
</g>
<!-- Node642&#45;&gt;Node643 -->
<g id="edge3" class="edge"><title>Node642&#45;&gt;Node643</title>
<path fill="none" stroke="midnightblue" d="M794.087,-419.324C817.913,-424.682 845.707,-430.931 868.161,-435.98"/>
<polygon fill="midnightblue" stroke="midnightblue" points="794.67,-415.868 784.146,-417.089 793.134,-422.698 794.67,-415.868"/>
</g>
<!-- Node644 -->
<g id="node5" class="node"><title>Node644</title>
<g id="a_node5"><a xlink:href="classvili_1_1_vili_parser.html#ab0484fbda61b08d2a97c6fc229638d06" target="_top" xlink:title="Includes a .vili file (all parsed content will be non&#45;visible) ">
<polygon fill="white" stroke="black" points="847.5,-398 847.5,-417 975.5,-417 975.5,-398 847.5,-398"/>
<text text-anchor="middle" x="911.5" y="-405" font-family="Helvetica,sans-Serif" font-size="10.00">vili::ViliParser::includeFile</text>
</a>
</g>
</g>
<!-- Node642&#45;&gt;Node644 -->
<g id="edge4" class="edge"><title>Node642&#45;&gt;Node644</title>
<path fill="none" stroke="midnightblue" d="M811.441,-400.84C823.373,-400.691 835.705,-400.727 847.445,-400.947"/>
<polygon fill="midnightblue" stroke="midnightblue" points="811.021,-397.346 801.083,-401.018 811.142,-404.345 811.021,-397.346"/>
</g>
<!-- Node651 -->
<g id="node12" class="node"><title>Node651</title>
<g id="a_node12"><a xlink:href="namespaceobe_1_1_system.html#ab44a678f8f4dc351d966f90283ba67e1" target="_top" xlink:title="Function called to Mount all Paths using &#39;Mount.vili&#39; file. ">
<polygon fill="white" stroke="black" points="846,-474 846,-493 977,-493 977,-474 846,-474"/>
<text text-anchor="middle" x="911.5" y="-481" font-family="Helvetica,sans-Serif" font-size="10.00">obe::System::MountPaths</text>
</a>
</g>
</g>
<!-- Node642&#45;&gt;Node651 -->
<g id="edge14" class="edge"><title>Node642&#45;&gt;Node651</title>
<path fill="none" stroke="midnightblue" d="M764.535,-422.53C784.606,-435.107 814.83,-452.821 843,-464.5 851.772,-468.137 861.465,-471.321 870.703,-473.992"/>
<polygon fill="midnightblue" stroke="midnightblue" points="766.389,-419.561 756.072,-417.153 762.635,-425.469 766.389,-419.561"/>
</g>
<!-- Node644&#45;&gt;Node642 -->
<g id="edge5" class="edge"><title>Node644&#45;&gt;Node642</title>
<path fill="none" stroke="midnightblue" d="M837.364,-414.195C825.248,-414.312 812.814,-414.241 801.083,-413.982"/>
<polygon fill="midnightblue" stroke="midnightblue" points="837.495,-417.694 847.445,-414.053 837.396,-410.695 837.495,-417.694"/>
</g>
<!-- Node645 -->
<g id="node6" class="node"><title>Node645</title>
<g id="a_node6"><a xlink:href="namespaceobe_1_1_bindings_1_1_vili_bindings.html#a2a6e6e94c5f087a6db0ede8023deb0c8" target="_top" xlink:title="obe::Bindings::ViliBindings\l::LoadViliViliParser">
<polygon fill="white" stroke="black" points="1030,-359.5 1030,-389.5 1163,-389.5 1163,-359.5 1030,-359.5"/>
<text text-anchor="start" x="1038" y="-377.5" font-family="Helvetica,sans-Serif" font-size="10.00">obe::Bindings::ViliBindings</text>
<text text-anchor="middle" x="1096.5" y="-366.5" font-family="Helvetica,sans-Serif" font-size="10.00">::LoadViliViliParser</text>
</a>
</g>
</g>
<!-- Node644&#45;&gt;Node645 -->
<g id="edge6" class="edge"><title>Node644&#45;&gt;Node645</title>
<path fill="none" stroke="midnightblue" d="M975.525,-396.135C993.008,-392.982 1012.03,-389.552 1029.67,-386.371"/>
<polygon fill="midnightblue" stroke="midnightblue" points="974.651,-392.736 965.431,-397.955 975.894,-399.625 974.651,-392.736"/>
</g>
<!-- Node648 -->
<g id="node9" class="node"><title>Node648</title>
<g id="a_node9"><a xlink:href="namespaceobe_1_1_modes.html#aba069f9abc42724d76690602326d6b7d" target="_top" xlink:title="obe::Modes::createLevel">
<polygon fill="white" stroke="black" points="1223.5,-406 1223.5,-425 1345.5,-425 1345.5,-406 1223.5,-406"/>
<text text-anchor="middle" x="1284.5" y="-413" font-family="Helvetica,sans-Serif" font-size="10.00">obe::Modes::createLevel</text>
</a>
</g>
</g>
<!-- Node644&#45;&gt;Node648 -->
<g id="edge9" class="edge"><title>Node644&#45;&gt;Node648</title>
<path fill="none" stroke="midnightblue" d="M962.638,-420.07C968.568,-422.008 974.472,-424.155 980,-426.5 997.052,-433.734 998.119,-442.666 1016,-447.5 1085.08,-466.175 1106.21,-457.906 1177,-447.5 1205.84,-443.26 1237.71,-432.889 1259,-425.094"/>
<polygon fill="midnightblue" stroke="midnightblue" points="963.283,-416.606 952.696,-417.008 961.223,-423.296 963.283,-416.606"/>
</g>
<!-- Node646 -->
<g id="node7" class="node"><title>Node646</title>
<g id="a_node7"><a xlink:href="namespaceobe_1_1_bindings.html#a41d33207a0199f125c75a0f70a4a3ba8" target="_top" xlink:title="To call when the engine starts, indexes all Lua bindings. ">
<polygon fill="white" stroke="black" points="1213,-316 1213,-335 1356,-335 1356,-316 1213,-316"/>
<text text-anchor="middle" x="1284.5" y="-323" font-family="Helvetica,sans-Serif" font-size="10.00">obe::Bindings::IndexBindings</text>
</a>
</g>
</g>
<!-- Node645&#45;&gt;Node646 -->
<g id="edge7" class="edge"><title>Node645&#45;&gt;Node646</title>
<path fill="none" stroke="midnightblue" d="M1164.31,-356.899C1192.32,-349.521 1223.77,-341.235 1247.33,-335.028"/>
<polygon fill="midnightblue" stroke="midnightblue" points="1163.35,-353.533 1154.57,-359.465 1165.13,-360.302 1163.35,-353.533"/>
</g>
<!-- Node647 -->
<g id="node8" class="node"><title>Node647</title>
<g id="a_node8"><a xlink:href="_ob_engine_8cpp.html#a3c04138a5bfe5d72780bb7e82a18e627" target="_top" xlink:title="main">
<polygon fill="white" stroke="black" points="1745,-270 1745,-289 1783,-289 1783,-270 1745,-270"/>
<text text-anchor="middle" x="1764" y="-277" font-family="Helvetica,sans-Serif" font-size="10.00">main</text>
</a>
</g>
</g>
<!-- Node646&#45;&gt;Node647 -->
<g id="edge8" class="edge"><title>Node646&#45;&gt;Node647</title>
<path fill="none" stroke="midnightblue" d="M1366.35,-317.712C1480.99,-306.667 1683.69,-287.14 1744.96,-281.238"/>
<polygon fill="midnightblue" stroke="midnightblue" points="1365.83,-314.245 1356.21,-318.688 1366.5,-321.213 1365.83,-314.245"/>
</g>
<!-- Node649 -->
<g id="node10" class="node"><title>Node649</title>
<g id="a_node10"><a xlink:href="namespaceobe_1_1_modes.html#a3f3265818dfb12925bf614e517346f73" target="_top" xlink:title="Starts the menu used to chose a map to edit. ">
<polygon fill="white" stroke="black" points="1392,-327 1392,-346 1540,-346 1540,-327 1392,-327"/>
<text text-anchor="middle" x="1466" y="-334" font-family="Helvetica,sans-Serif" font-size="10.00">obe::Modes::chooseMapMenu</text>
</a>
</g>
</g>
<!-- Node648&#45;&gt;Node649 -->
<g id="edge10" class="edge"><title>Node648&#45;&gt;Node649</title>
<path fill="none" stroke="midnightblue" d="M1316.73,-401.757C1352.94,-385.819 1411.69,-359.962 1443.27,-346.063"/>
<polygon fill="midnightblue" stroke="midnightblue" points="1314.89,-398.739 1307.15,-405.971 1317.71,-405.146 1314.89,-398.739"/>
</g>
<!-- Node649&#45;&gt;Node647 -->
<g id="edge13" class="edge"><title>Node649&#45;&gt;Node647</title>
<path fill="none" stroke="midnightblue" d="M1550.5,-337.358C1598.05,-335.611 1658.1,-329.578 1709,-312.5 1724.62,-307.258 1740.48,-296.829 1750.93,-289.092"/>
<polygon fill="midnightblue" stroke="midnightblue" points="1550.14,-333.868 1540.25,-337.676 1550.35,-340.865 1550.14,-333.868"/>
</g>
<!-- Node650 -->
<g id="node11" class="node"><title>Node650</title>
<g id="a_node11"><a xlink:href="namespaceobe_1_1_modes.html#a6a8b08eee511d4895c4da96d4ba223a6" target="_top" xlink:title="Starts the development Menu where you can starts other menus from. ">
<polygon fill="white" stroke="black" points="1576,-213 1576,-232 1709,-232 1709,-213 1576,-213"/>
<text text-anchor="middle" x="1642.5" y="-220" font-family="Helvetica,sans-Serif" font-size="10.00">obe::Modes::startDevMenu</text>
</a>
</g>
</g>
<!-- Node649&#45;&gt;Node650 -->
<g id="edge11" class="edge"><title>Node649&#45;&gt;Node650</title>
<path fill="none" stroke="midnightblue" d="M1490.06,-321.433C1526.43,-297.673 1596.11,-252.156 1626.59,-232.238"/>
<polygon fill="midnightblue" stroke="midnightblue" points="1488.04,-318.577 1481.58,-326.977 1491.86,-324.437 1488.04,-318.577"/>
</g>
<!-- Node650&#45;&gt;Node647 -->
<g id="edge12" class="edge"><title>Node650&#45;&gt;Node647</title>
<path fill="none" stroke="midnightblue" d="M1682.97,-235.531C1691.68,-238.799 1700.76,-242.52 1709,-246.5 1723.05,-253.285 1738.13,-262.696 1748.77,-269.732"/>
<polygon fill="midnightblue" stroke="midnightblue" points="1683.95,-232.164 1673.36,-232.043 1681.56,-238.744 1683.95,-232.164"/>
</g>
<!-- Node651&#45;&gt;Node647 -->
<g id="edge17" class="edge"><title>Node651&#45;&gt;Node647</title>
<path fill="none" stroke="midnightblue" d="M949.603,-496.295C1015.81,-517.951 1159.05,-559.5 1283.5,-559.5 1283.5,-559.5 1283.5,-559.5 1467,-559.5 1627.93,-559.5 1736.59,-338.373 1758.79,-289.138"/>
<polygon fill="midnightblue" stroke="midnightblue" points="950.622,-492.946 940.028,-493.125 948.422,-499.591 950.622,-492.946"/>
</g>
<!-- Node652 -->
<g id="node13" class="node"><title>Node652</title>
<g id="a_node13"><a xlink:href="namespaceobe_1_1_bindings_1_1_system_bindings.html#a2cd44a60b6250b8e4279e7bd0ad077db" target="_top" xlink:title="obe::Bindings::SystemBindings\l::LoadMountablePath">
<polygon fill="white" stroke="black" points="1020,-408.5 1020,-438.5 1173,-438.5 1173,-408.5 1020,-408.5"/>
<text text-anchor="start" x="1028" y="-426.5" font-family="Helvetica,sans-Serif" font-size="10.00">obe::Bindings::SystemBindings</text>
<text text-anchor="middle" x="1096.5" y="-415.5" font-family="Helvetica,sans-Serif" font-size="10.00">::LoadMountablePath</text>
</a>
</g>
</g>
<!-- Node651&#45;&gt;Node652 -->
<g id="edge15" class="edge"><title>Node651&#45;&gt;Node652</title>
<path fill="none" stroke="midnightblue" d="M957.69,-471.23C965.167,-469.071 972.82,-466.782 980,-464.5 1005.15,-456.508 1033.03,-446.639 1055.1,-438.586"/>
<polygon fill="midnightblue" stroke="midnightblue" points="956.675,-467.88 948.015,-473.983 958.591,-474.613 956.675,-467.88"/>
</g>
<!-- Node652&#45;&gt;Node646 -->
<g id="edge16" class="edge"><title>Node652&#45;&gt;Node646</title>
<path fill="none" stroke="midnightblue" d="M1162.62,-404.784C1167.56,-402.833 1172.4,-400.737 1177,-398.5 1214.29,-380.358 1253.3,-350.314 1272.07,-335.044"/>
<polygon fill="midnightblue" stroke="midnightblue" points="1161.21,-401.577 1153.06,-408.357 1163.66,-408.134 1161.21,-401.577"/>
</g>
<!-- Node654&#45;&gt;Node646 -->
<g id="edge20" class="edge"><title>Node654&#45;&gt;Node646</title>
<path fill="none" stroke="midnightblue" d="M446.228,-499.924C520.704,-509.264 637.706,-521.5 739.5,-521.5 739.5,-521.5 739.5,-521.5 912.5,-521.5 1034.57,-521.5 1077.26,-517.876 1177,-447.5 1199.67,-431.504 1195.16,-417.751 1213,-396.5 1232.65,-373.083 1258.61,-348.305 1272.91,-335.107"/>
<polygon fill="midnightblue" stroke="midnightblue" points="446.369,-496.414 436.007,-498.627 445.487,-503.358 446.369,-496.414"/>
</g>
<!-- Node656 -->
<g id="node17" class="node"><title>Node656</title>
<g id="a_node17"><a xlink:href="namespaceobe_1_1_bindings_1_1_scene_bindings.html#af7c6cb8cc46286eba7ddbe55ffe7d296" target="_top" xlink:title="obe::Bindings::SceneBindings\l::LoadScene">
<polygon fill="white" stroke="black" points="1023,-222.5 1023,-252.5 1170,-252.5 1170,-222.5 1023,-222.5"/>
<text text-anchor="start" x="1031" y="-240.5" font-family="Helvetica,sans-Serif" font-size="10.00">obe::Bindings::SceneBindings</text>
<text text-anchor="middle" x="1096.5" y="-229.5" font-family="Helvetica,sans-Serif" font-size="10.00">::LoadScene</text>
</a>
</g>
</g>
<!-- Node655&#45;&gt;Node656 -->
<g id="edge22" class="edge"><title>Node655&#45;&gt;Node656</title>
<path fill="none" stroke="midnightblue" d="M630.064,-209.893C733.577,-216.033 920.325,-227.11 1022.99,-233.199"/>
<polygon fill="midnightblue" stroke="midnightblue" points="630.196,-206.395 620.006,-209.296 629.782,-213.383 630.196,-206.395"/>
</g>
<!-- Node657 -->
<g id="node18" class="node"><title>Node657</title>
<g id="a_node18"><a xlink:href="namespaceobe_1_1_editor.html#a19631d61170bd127227951fc535189ea" target="_top" xlink:title="obe::Editor::connectSave\lActions">
<polygon fill="white" stroke="black" points="1222,-137.5 1222,-167.5 1347,-167.5 1347,-137.5 1222,-137.5"/>
<text text-anchor="start" x="1230" y="-155.5" font-family="Helvetica,sans-Serif" font-size="10.00">obe::Editor::connectSave</text>
<text text-anchor="middle" x="1284.5" y="-144.5" font-family="Helvetica,sans-Serif" font-size="10.00">Actions</text>
</a>
</g>
</g>
<!-- Node655&#45;&gt;Node657 -->
<g id="edge24" class="edge"><title>Node655&#45;&gt;Node657</title>
<path fill="none" stroke="midnightblue" d="M627.282,-194.459C685.237,-185.929 769.199,-174.585 843,-168.5 977.803,-157.386 1136.45,-153.992 1221.75,-152.955"/>
<polygon fill="midnightblue" stroke="midnightblue" points="626.511,-191.035 617.132,-195.963 627.537,-197.959 626.511,-191.035"/>
</g>
<!-- Node656&#45;&gt;Node646 -->
<g id="edge23" class="edge"><title>Node656&#45;&gt;Node646</title>
<path fill="none" stroke="midnightblue" d="M1150.45,-256.315C1159.4,-259.826 1168.53,-263.618 1177,-267.5 1210.11,-282.676 1247.11,-303.828 1267.62,-315.949"/>
<polygon fill="midnightblue" stroke="midnightblue" points="1151.44,-252.946 1140.85,-252.625 1148.93,-259.48 1151.44,-252.946"/>
</g>
<!-- Node658 -->
<g id="node19" class="node"><title>Node658</title>
<g id="a_node19"><a xlink:href="namespaceobe_1_1_editor.html#a9009207671e71dccb68a31ea2362e9ef" target="_top" xlink:title="Starts the map edition. ">
<polygon fill="white" stroke="black" points="1414,-143 1414,-162 1518,-162 1518,-143 1414,-143"/>
<text text-anchor="middle" x="1466" y="-150" font-family="Helvetica,sans-Serif" font-size="10.00">obe::Editor::editMap</text>
</a>
</g>
</g>
<!-- Node657&#45;&gt;Node658 -->
<g id="edge25" class="edge"><title>Node657&#45;&gt;Node658</title>
<path fill="none" stroke="midnightblue" d="M1357.15,-152.5C1376.17,-152.5 1396.32,-152.5 1413.99,-152.5"/>
<polygon fill="midnightblue" stroke="midnightblue" points="1357.02,-149 1347.02,-152.5 1357.02,-156 1357.02,-149"/>
</g>
<!-- Node658&#45;&gt;Node647 -->
<g id="edge27" class="edge"><title>Node658&#45;&gt;Node647</title>
<path fill="none" stroke="midnightblue" d="M1528.44,-153.263C1580.39,-156.603 1654.8,-167.964 1709,-203.5 1734.45,-220.186 1751.64,-253.352 1758.98,-269.794"/>
<polygon fill="midnightblue" stroke="midnightblue" points="1528.54,-149.763 1518.36,-152.697 1528.15,-156.752 1528.54,-149.763"/>
</g>
<!-- Node658&#45;&gt;Node650 -->
<g id="edge26" class="edge"><title>Node658&#45;&gt;Node650</title>
<path fill="none" stroke="midnightblue" d="M1500.49,-165.934C1534.8,-179.697 1587.29,-200.753 1617.61,-212.917"/>
<polygon fill="midnightblue" stroke="midnightblue" points="1501.48,-162.561 1490.9,-162.086 1498.88,-169.058 1501.48,-162.561"/>
</g>
<!-- Node659&#45;&gt;Node653 -->
<g id="edge29" class="edge"><title>Node659&#45;&gt;Node653</title>
<path fill="none" stroke="midnightblue" d="M261.914,-533.5C279.337,-533.5 298.272,-533.5 315.284,-533.5"/>
<polygon fill="midnightblue" stroke="midnightblue" points="261.856,-530 251.856,-533.5 261.856,-537 261.856,-530"/>
</g>
<!-- Node659&#45;&gt;Node654 -->
<g id="edge30" class="edge"><title>Node659&#45;&gt;Node654</title>
<path fill="none" stroke="midnightblue" d="M261.785,-517.786C278.048,-513.475 295.636,-508.813 311.752,-504.542"/>
<polygon fill="midnightblue" stroke="midnightblue" points="260.625,-514.472 251.856,-520.418 262.419,-521.239 260.625,-514.472"/>
</g>
<!-- Node661 -->
<g id="node22" class="node"><title>Node661</title>
<g id="a_node22"><a xlink:href="classvili_1_1_link_node.html#a4912faf06362f3c85c9eac8b3bab2e62" target="_top" xlink:title="Transforms the LinkNode to a copy of the pointed Node. ">
<polygon fill="white" stroke="black" points="503.5,-272 503.5,-291 606.5,-291 606.5,-272 503.5,-272"/>
<text text-anchor="middle" x="555" y="-279" font-family="Helvetica,sans-Serif" font-size="10.00">vili::LinkNode::apply</text>
</a>
</g>
</g>
<!-- Node660&#45;&gt;Node661 -->
<g id="edge32" class="edge"><title>Node660&#45;&gt;Node661</title>
<path fill="none" stroke="midnightblue" d="M433.492,-303.172C456.263,-299.077 481.664,-294.509 503.252,-290.626"/>
<polygon fill="midnightblue" stroke="midnightblue" points="432.798,-299.74 423.576,-304.955 434.037,-306.63 432.798,-299.74"/>
</g>
<!-- Node665 -->
<g id="node26" class="node"><title>Node665</title>
<g id="a_node26"><a xlink:href="namespaceobe_1_1_bindings_1_1_vili_bindings.html#af5e34049e0220ae5eb0801dc909a93ec" target="_top" xlink:title="obe::Bindings::ViliBindings\l::LoadViliLinkNode">
<polygon fill="white" stroke="black" points="674,-266.5 674,-296.5 807,-296.5 807,-266.5 674,-266.5"/>
<text text-anchor="start" x="682" y="-284.5" font-family="Helvetica,sans-Serif" font-size="10.00">obe::Bindings::ViliBindings</text>
<text text-anchor="middle" x="740.5" y="-273.5" font-family="Helvetica,sans-Serif" font-size="10.00">::LoadViliLinkNode</text>
</a>
</g>
</g>
<!-- Node660&#45;&gt;Node665 -->
<g id="edge45" class="edge"><title>Node660&#45;&gt;Node665</title>
<path fill="none" stroke="midnightblue" d="M439.834,-313.393C493.963,-311.921 570.975,-308.491 638,-300.5 649.66,-299.11 661.998,-297.187 673.904,-295.096"/>
<polygon fill="midnightblue" stroke="midnightblue" points="439.569,-309.899 429.662,-313.654 439.748,-316.897 439.569,-309.899"/>
</g>
<!-- Node670 -->
<g id="node31" class="node"><title>Node670</title>
<g id="a_node31"><a xlink:href="classvili_1_1_link_node.html#aeff8225b14125edbfaf6ffeed9949d70" target="_top" xlink:title="vili::LinkNode::get">
<polygon fill="white" stroke="black" points="508.5,-234 508.5,-253 601.5,-253 601.5,-234 508.5,-234"/>
<text text-anchor="middle" x="555" y="-241" font-family="Helvetica,sans-Serif" font-size="10.00">vili::LinkNode::get</text>
</a>
</g>
</g>
<!-- Node660&#45;&gt;Node670 -->
<g id="edge44" class="edge"><title>Node660&#45;&gt;Node670</title>
<path fill="none" stroke="midnightblue" d="M394.912,-299.829C415.007,-288.29 444.55,-272.538 472,-262.5 483.529,-258.284 496.32,-254.79 508.305,-251.996"/>
<polygon fill="midnightblue" stroke="midnightblue" points="392.998,-296.894 386.122,-304.954 396.524,-302.941 392.998,-296.894"/>
</g>
<!-- Node662 -->
<g id="node23" class="node"><title>Node662</title>
<g id="a_node23"><a xlink:href="classvili_1_1_link_node.html#ab2e7abc29a9e7f39a49cf836772c8d34" target="_top" xlink:title="Gets the Node the LinkNode is pointing to and casts it. ">
<polygon fill="white" stroke="black" points="694,-316 694,-335 787,-335 787,-316 694,-316"/>
<text text-anchor="middle" x="740.5" y="-323" font-family="Helvetica,sans-Serif" font-size="10.00">vili::LinkNode::get</text>
</a>
</g>
</g>
<!-- Node661&#45;&gt;Node662 -->
<g id="edge33" class="edge"><title>Node661&#45;&gt;Node662</title>
<path fill="none" stroke="midnightblue" d="M605.916,-293.469C635.411,-300.541 672.246,-309.374 699.761,-315.971"/>
<polygon fill="midnightblue" stroke="midnightblue" points="606.357,-289.976 595.817,-291.047 604.725,-296.783 606.357,-289.976"/>
</g>
<!-- Node661&#45;&gt;Node665 -->
<g id="edge37" class="edge"><title>Node661&#45;&gt;Node665</title>
<path fill="none" stroke="midnightblue" d="M616.868,-281.5C635.162,-281.5 655.31,-281.5 673.896,-281.5"/>
<polygon fill="midnightblue" stroke="midnightblue" points="616.628,-278 606.628,-281.5 616.628,-285 616.628,-278"/>
</g>
<!-- Node666 -->
<g id="node27" class="node"><title>Node666</title>
<g id="a_node27"><a xlink:href="namespaceobe_1_1_editor.html#af8c2ea92f8d718d85f019f9a27a91262" target="_top" xlink:title="Builds an Object through Parameters. ">
<polygon fill="white" stroke="black" points="681,-44.5 681,-74.5 800,-74.5 800,-44.5 681,-44.5"/>
<text text-anchor="start" x="689" y="-62.5" font-family="Helvetica,sans-Serif" font-size="10.00">obe::Editor::buildObject</text>
<text text-anchor="middle" x="740.5" y="-51.5" font-family="Helvetica,sans-Serif" font-size="10.00">ThroughRequire</text>
</a>
</g>
</g>
<!-- Node661&#45;&gt;Node666 -->
<g id="edge39" class="edge"><title>Node661&#45;&gt;Node666</title>
<path fill="none" stroke="midnightblue" d="M616.296,-276.041C624.416,-273.019 632,-268.678 638,-262.5 694.536,-204.287 621.165,-145.092 674,-83.5 676.918,-80.0989 680.36,-77.1796 684.115,-74.6739"/>
<polygon fill="midnightblue" stroke="midnightblue" points="615.118,-272.741 606.58,-279.013 617.166,-279.434 615.118,-272.741"/>
</g>
<!-- Node663 -->
<g id="node24" class="node"><title>Node663</title>
<g id="a_node24"><a xlink:href="classvili_1_1_node_constraint_manager.html#ac5b60874aec02ede1226715337b60828" target="_top" xlink:title="Checks if all constraints on the Argument value are accepted. ">
<polygon fill="white" stroke="black" points="843,-310.5 843,-340.5 980,-340.5 980,-310.5 843,-310.5"/>
<text text-anchor="start" x="851" y="-328.5" font-family="Helvetica,sans-Serif" font-size="10.00">vili::NodeConstraintManager</text>
<text text-anchor="middle" x="911.5" y="-317.5" font-family="Helvetica,sans-Serif" font-size="10.00">::checkAllConstraints</text>
</a>
</g>
</g>
<!-- Node662&#45;&gt;Node663 -->
<g id="edge34" class="edge"><title>Node662&#45;&gt;Node663</title>
<path fill="none" stroke="midnightblue" d="M797.538,-325.5C812.037,-325.5 827.801,-325.5 842.825,-325.5"/>
<polygon fill="midnightblue" stroke="midnightblue" points="797.234,-322 787.234,-325.5 797.234,-329 797.234,-322"/>
</g>
<!-- Node664 -->
<g id="node25" class="node"><title>Node664</title>
<g id="a_node25"><a xlink:href="namespaceobe_1_1_bindings_1_1_vili_bindings.html#abb316424dd526a33b33a311f152281ea" target="_top" xlink:title="obe::Bindings::ViliBindings\l::LoadViliNodeConstraintManager">
<polygon fill="white" stroke="black" points="1016,-310.5 1016,-340.5 1177,-340.5 1177,-310.5 1016,-310.5"/>
<text text-anchor="start" x="1024" y="-328.5" font-family="Helvetica,sans-Serif" font-size="10.00">obe::Bindings::ViliBindings</text>
<text text-anchor="middle" x="1096.5" y="-317.5" font-family="Helvetica,sans-Serif" font-size="10.00">::LoadViliNodeConstraintManager</text>
</a>
</g>
</g>
<!-- Node663&#45;&gt;Node664 -->
<g id="edge35" class="edge"><title>Node663&#45;&gt;Node664</title>
<path fill="none" stroke="midnightblue" d="M990.306,-325.5C998.736,-325.5 1007.32,-325.5 1015.78,-325.5"/>
<polygon fill="midnightblue" stroke="midnightblue" points="990.123,-322 980.123,-325.5 990.122,-329 990.123,-322"/>
</g>
<!-- Node664&#45;&gt;Node646 -->
<g id="edge36" class="edge"><title>Node664&#45;&gt;Node646</title>
<path fill="none" stroke="midnightblue" d="M1187.23,-325.5C1195.8,-325.5 1204.42,-325.5 1212.78,-325.5"/>
<polygon fill="midnightblue" stroke="midnightblue" points="1187.19,-322 1177.19,-325.5 1187.19,-329 1187.19,-322"/>
</g>
<!-- Node665&#45;&gt;Node646 -->
<g id="edge38" class="edge"><title>Node665&#45;&gt;Node646</title>
<path fill="none" stroke="midnightblue" d="M817.207,-280.53C904.386,-280.401 1051.7,-283.215 1177,-300.5 1201.83,-303.926 1229.37,-310.466 1250.23,-315.997"/>
<polygon fill="midnightblue" stroke="midnightblue" points="817.13,-277.031 807.14,-280.559 817.149,-284.031 817.13,-277.031"/>
</g>
<!-- Node666&#45;&gt;Node667 -->
<g id="edge40" class="edge"><title>Node666&#45;&gt;Node667</title>
<path fill="none" stroke="midnightblue" d="M809.077,-41.9059C823.554,-38.1368 838.722,-34.1878 852.786,-30.5262"/>
<polygon fill="midnightblue" stroke="midnightblue" points="807.983,-38.574 799.188,-44.4808 809.747,-45.3482 807.983,-38.574"/>
</g>
<!-- Node668 -->
<g id="node29" class="node"><title>Node668</title>
<g id="a_node29"><a xlink:href="namespaceobe_1_1_editor.html#a97c53e73ef3b12081baff754032596e9" target="_top" xlink:title="Builds the Editor Object Tab. ">
<polygon fill="white" stroke="black" points="1029.5,-6 1029.5,-25 1163.5,-25 1163.5,-6 1029.5,-6"/>
<text text-anchor="middle" x="1096.5" y="-13" font-family="Helvetica,sans-Serif" font-size="10.00">obe::Editor::buildObjectTab</text>
</a>
</g>
</g>
<!-- Node667&#45;&gt;Node668 -->
<g id="edge41" class="edge"><title>Node667&#45;&gt;Node668</title>
<path fill="none" stroke="midnightblue" d="M986.055,-15.5C1000.41,-15.5 1015.37,-15.5 1029.46,-15.5"/>
<polygon fill="midnightblue" stroke="midnightblue" points="985.735,-12.0001 975.734,-15.5 985.734,-19.0001 985.735,-12.0001"/>
</g>
<!-- Node669 -->
<g id="node30" class="node"><title>Node669</title>
<g id="a_node30"><a xlink:href="namespaceobe_1_1_editor_1_1_g_u_i.html#a1daea0dffefb4df9eb22870d7477bcf0" target="_top" xlink:title="obe::Editor::GUI::buildEditor\lObjectsMenu">
<polygon fill="white" stroke="black" points="1215.5,-0.5 1215.5,-30.5 1353.5,-30.5 1353.5,-0.5 1215.5,-0.5"/>
<text text-anchor="start" x="1223.5" y="-18.5" font-family="Helvetica,sans-Serif" font-size="10.00">obe::Editor::GUI::buildEditor</text>
<text text-anchor="middle" x="1284.5" y="-7.5" font-family="Helvetica,sans-Serif" font-size="10.00">ObjectsMenu</text>
</a>
</g>
</g>
<!-- Node668&#45;&gt;Node669 -->
<g id="edge42" class="edge"><title>Node668&#45;&gt;Node669</title>
<path fill="none" stroke="midnightblue" d="M1173.98,-15.5C1187.71,-15.5 1201.94,-15.5 1215.41,-15.5"/>
<polygon fill="midnightblue" stroke="midnightblue" points="1173.6,-12.0001 1163.6,-15.5 1173.6,-19.0001 1173.6,-12.0001"/>
</g>
<!-- Node669&#45;&gt;Node658 -->
<g id="edge43" class="edge"><title>Node669&#45;&gt;Node658</title>
<path fill="none" stroke="midnightblue" d="M1347.9,-34.857C1350.69,-36.3087 1353.41,-37.855 1356,-39.5 1402.02,-68.7235 1442.66,-121.255 1458.24,-142.839"/>
<polygon fill="midnightblue" stroke="midnightblue" points="1349.29,-31.6427 1338.75,-30.5373 1346.3,-37.9724 1349.29,-31.6427"/>
</g>
<!-- Node671&#45;&gt;Node642 -->
<g id="edge48" class="edge"><title>Node671&#45;&gt;Node642</title>
<path fill="none" stroke="midnightblue" d="M624.511,-379.928C649.871,-386.009 677.767,-392.698 699.732,-397.964"/>
<polygon fill="midnightblue" stroke="midnightblue" points="625.106,-376.471 614.565,-377.543 623.473,-383.278 625.106,-376.471"/>
</g>
<!-- Node671&#45;&gt;Node645 -->
<g id="edge49" class="edge"><title>Node671&#45;&gt;Node645</title>
<path fill="none" stroke="midnightblue" d="M624.627,-364.899C729.114,-367.03 926.779,-371.06 1029.61,-373.157"/>
<polygon fill="midnightblue" stroke="midnightblue" points="624.575,-361.398 614.506,-364.693 624.432,-368.396 624.575,-361.398"/>
</g>
<!-- Node672&#45;&gt;Node658 -->
<g id="edge54" class="edge"><title>Node672&#45;&gt;Node658</title>
<path fill="none" stroke="midnightblue" d="M803.601,-106.45C914.86,-103.658 1155.31,-101.633 1356,-127.5 1381.42,-130.776 1409.6,-137.32 1430.94,-142.892"/>
<polygon fill="midnightblue" stroke="midnightblue" points="803.469,-102.952 793.564,-106.713 803.652,-109.949 803.469,-102.952"/>
</g>
<!-- Node673 -->
<g id="node34" class="node"><title>Node673</title>
<g id="a_node34"><a xlink:href="classobe_1_1_scene_1_1_scene.html#a99bd0a38bd93c1ca105c34bb04776f47" target="_top" xlink:title="Updates all elements in the Scene. ">
<polygon fill="white" stroke="black" points="858.5,-178.5 858.5,-208.5 964.5,-208.5 964.5,-178.5 858.5,-178.5"/>
<text text-anchor="start" x="866.5" y="-196.5" font-family="Helvetica,sans-Serif" font-size="10.00">obe::Scene::Scene::</text>
<text text-anchor="middle" x="911.5" y="-185.5" font-family="Helvetica,sans-Serif" font-size="10.00">update</text>
</a>
</g>
</g>
<!-- Node672&#45;&gt;Node673 -->
<g id="edge55" class="edge"><title>Node672&#45;&gt;Node673</title>
<path fill="none" stroke="midnightblue" d="M780.377,-128.053C810.8,-143.355 852.492,-164.324 880.405,-178.363"/>
<polygon fill="midnightblue" stroke="midnightblue" points="781.831,-124.867 771.325,-123.501 778.686,-131.121 781.831,-124.867"/>
</g>
<!-- Node675 -->
<g id="node36" class="node"><title>Node675</title>
<g id="a_node36"><a xlink:href="namespaceobe_1_1_scene.html#ac23b5fc14866394c89a820ce6badc130" target="_top" xlink:title="obe::Scene::loadWorldLib">
<polygon fill="white" stroke="black" points="847.5,-58 847.5,-77 975.5,-77 975.5,-58 847.5,-58"/>
<text text-anchor="middle" x="911.5" y="-65" font-family="Helvetica,sans-Serif" font-size="10.00">obe::Scene::loadWorldLib</text>
</a>
</g>
</g>
<!-- Node672&#45;&gt;Node675 -->
<g id="edge60" class="edge"><title>Node672&#45;&gt;Node675</title>
<path fill="none" stroke="midnightblue" d="M803.461,-93.4681C826.104,-87.9748 851.077,-81.9163 871.202,-77.0339"/>
<polygon fill="midnightblue" stroke="midnightblue" points="802.477,-90.105 793.585,-95.8641 804.128,-96.9077 802.477,-90.105"/>
</g>
<!-- Node673&#45;&gt;Node656 -->
<g id="edge56" class="edge"><title>Node673&#45;&gt;Node656</title>
<path fill="none" stroke="midnightblue" d="M974.862,-208.494C993.631,-213.007 1014.23,-217.959 1033,-222.474"/>
<polygon fill="midnightblue" stroke="midnightblue" points="975.482,-205.043 964.94,-206.109 973.845,-211.849 975.482,-205.043"/>
</g>
<!-- Node674 -->
<g id="node35" class="node"><title>Node674</title>
<g id="a_node35"><a xlink:href="namespaceobe_1_1_modes.html#a5f4a1008892030350b06282b8dee1a89" target="_top" xlink:title="Start the game by loading the boot.lua file in one of the MountedPaths. ">
<polygon fill="white" stroke="black" points="1406.5,-213 1406.5,-232 1525.5,-232 1525.5,-213 1406.5,-213"/>
<text text-anchor="middle" x="1466" y="-220" font-family="Helvetica,sans-Serif" font-size="10.00">obe::Modes::startGame</text>
</a>
</g>
</g>
<!-- Node673&#45;&gt;Node674 -->
<g id="edge57" class="edge"><title>Node673&#45;&gt;Node674</title>
<path fill="none" stroke="midnightblue" d="M975.035,-196.782C1082.64,-202.43 1301.34,-213.91 1406.27,-219.417"/>
<polygon fill="midnightblue" stroke="midnightblue" points="975.146,-193.283 964.976,-196.254 974.779,-200.274 975.146,-193.283"/>
</g>
<!-- Node674&#45;&gt;Node647 -->
<g id="edge59" class="edge"><title>Node674&#45;&gt;Node647</title>
<path fill="none" stroke="midnightblue" d="M1526.72,-234C1594.91,-247.131 1702.5,-267.85 1744.94,-276.022"/>
<polygon fill="midnightblue" stroke="midnightblue" points="1527.03,-230.495 1516.54,-232.041 1525.7,-237.368 1527.03,-230.495"/>
</g>
<!-- Node674&#45;&gt;Node650 -->
<g id="edge58" class="edge"><title>Node674&#45;&gt;Node650</title>
<path fill="none" stroke="midnightblue" d="M1535.98,-222.5C1549.11,-222.5 1562.82,-222.5 1575.85,-222.5"/>
<polygon fill="midnightblue" stroke="midnightblue" points="1535.59,-219 1525.59,-222.5 1535.59,-226 1535.59,-219"/>
</g>
<!-- Node676 -->
<g id="node37" class="node"><title>Node676</title>
<g id="a_node37"><a xlink:href="namespaceobe_1_1_scene.html#ae5cbcc3278d9115d603e5024dec9136e" target="_top" xlink:title="obe::Scene::loadWorldScript\lEngineBaseLib">
<polygon fill="white" stroke="black" points="1026,-49.5 1026,-79.5 1167,-79.5 1167,-49.5 1026,-49.5"/>
<text text-anchor="start" x="1034" y="-67.5" font-family="Helvetica,sans-Serif" font-size="10.00">obe::Scene::loadWorldScript</text>
<text text-anchor="middle" x="1096.5" y="-56.5" font-family="Helvetica,sans-Serif" font-size="10.00">EngineBaseLib</text>
</a>
</g>
</g>
<!-- Node675&#45;&gt;Node676 -->
<g id="edge61" class="edge"><title>Node675&#45;&gt;Node676</title>
<path fill="none" stroke="midnightblue" d="M986.085,-66.2937C999.153,-66.0795 1012.73,-65.8569 1025.69,-65.6444"/>
<polygon fill="midnightblue" stroke="midnightblue" points="985.676,-62.7998 975.734,-66.4634 985.791,-69.7989 985.676,-62.7998"/>
</g>
<!-- Node677 -->
<g id="node38" class="node"><title>Node677</title>
<g id="a_node38"><a xlink:href="classobe_1_1_scene_1_1_scene.html#a6671ed54f3898e54a2814d58ec8ffec5" target="_top" xlink:title="Creates a new Scene. ">
<polygon fill="white" stroke="black" points="1231.5,-49.5 1231.5,-79.5 1337.5,-79.5 1337.5,-49.5 1231.5,-49.5"/>
<text text-anchor="start" x="1239.5" y="-67.5" font-family="Helvetica,sans-Serif" font-size="10.00">obe::Scene::Scene::</text>
<text text-anchor="middle" x="1284.5" y="-56.5" font-family="Helvetica,sans-Serif" font-size="10.00">Scene</text>
</a>
</g>
</g>
<!-- Node676&#45;&gt;Node677 -->
<g id="edge62" class="edge"><title>Node676&#45;&gt;Node677</title>
<path fill="none" stroke="midnightblue" d="M1177.15,-64.5C1195.53,-64.5 1214.63,-64.5 1231.48,-64.5"/>
<polygon fill="midnightblue" stroke="midnightblue" points="1177.02,-61.0001 1167.02,-64.5 1177.02,-68.0001 1177.02,-61.0001"/>
</g>
<!-- Node680 -->
<g id="node41" class="node"><title>Node680</title>
<g id="a_node41"><a xlink:href="namespaceobe_1_1_script_1_1_data_bridge.html#a7861dbbae848d140daac164976c457dd" target="_top" xlink:title="obe::Script::DataBridge\l::dataToLua">
<polygon fill="white" stroke="black" points="310.5,-99.5 310.5,-129.5 428.5,-129.5 428.5,-99.5 310.5,-99.5"/>
<text text-anchor="start" x="318.5" y="-117.5" font-family="Helvetica,sans-Serif" font-size="10.00">obe::Script::DataBridge</text>
<text text-anchor="middle" x="369.5" y="-106.5" font-family="Helvetica,sans-Serif" font-size="10.00">::dataToLua</text>
</a>
</g>
</g>
<!-- Node679&#45;&gt;Node680 -->
<g id="edge66" class="edge"><title>Node679&#45;&gt;Node680</title>
<path fill="none" stroke="midnightblue" d="M277.242,-119.448C288.311,-118.848 299.578,-118.237 310.244,-117.658"/>
<polygon fill="midnightblue" stroke="midnightblue" points="276.951,-115.958 267.155,-119.995 277.33,-122.948 276.951,-115.958"/>
</g>
<!-- Node681 -->
<g id="node42" class="node"><title>Node681</title>
<g id="a_node42"><a xlink:href="classobe_1_1_script_1_1_game_object_database.html#af02e95fef12a2aebd29cb9c4b64a89db" target="_top" xlink:title="Applies the Requirements to a GameObject using a Requires ComplexNode. ">
<polygon fill="white" stroke="black" points="472,-93.5 472,-123.5 638,-123.5 638,-93.5 472,-93.5"/>
<text text-anchor="start" x="480" y="-111.5" font-family="Helvetica,sans-Serif" font-size="10.00">obe::Script::GameObjectDatabase</text>
<text text-anchor="middle" x="555" y="-100.5" font-family="Helvetica,sans-Serif" font-size="10.00">::ApplyRequirements</text>
</a>
</g>
</g>
<!-- Node680&#45;&gt;Node681 -->
<g id="edge67" class="edge"><title>Node680&#45;&gt;Node681</title>
<path fill="none" stroke="midnightblue" d="M438.739,-112.269C449.527,-111.916 460.78,-111.548 471.844,-111.186"/>
<polygon fill="midnightblue" stroke="midnightblue" points="438.441,-108.777 428.561,-112.602 438.67,-115.773 438.441,-108.777"/>
</g>
<!-- Node681&#45;&gt;Node666 -->
<g id="edge68" class="edge"><title>Node681&#45;&gt;Node666</title>
<path fill="none" stroke="midnightblue" d="M621.996,-90.8771C642.072,-85.5163 663.937,-79.6775 683.303,-74.5062"/>
<polygon fill="midnightblue" stroke="midnightblue" points="621.062,-87.5039 612.303,-93.4654 622.868,-94.2669 621.062,-87.5039"/>
</g>
<!-- Node681&#45;&gt;Node672 -->
<g id="edge69" class="edge"><title>Node681&#45;&gt;Node672</title>
<path fill="none" stroke="midnightblue" d="M648.358,-108.5C661.808,-108.5 675.24,-108.5 687.499,-108.5"/>
<polygon fill="midnightblue" stroke="midnightblue" points="648.089,-105 638.089,-108.5 648.089,-112 648.089,-105"/>
</g>
</g>
</svg>
