<?xml version="1.0" encoding="UTF-8" standalone="no"?>
<!DOCTYPE svg PUBLIC "-//W3C//DTD SVG 1.1//EN"
 "http://www.w3.org/Graphics/SVG/1.1/DTD/svg11.dtd">
<!-- Generated by graphviz version 2.38.0 (20140413.2041)
 -->
<!-- Title: obe::Math::MathExp::isStatic Pages: 1 -->
<svg width="1146pt" height="197pt"
 viewBox="0.00 0.00 1146.00 197.00" xmlns="http://www.w3.org/2000/svg" xmlns:xlink="http://www.w3.org/1999/xlink">
<g id="graph0" class="graph" transform="scale(1 1) rotate(0) translate(4 193)">
<title>obe::Math::MathExp::isStatic</title>
<!-- Node44 -->
<g id="node1" class="node"><title>Node44</title>
<polygon fill="#bfbfbf" stroke="black" points="0,-82.5 0,-112.5 105,-112.5 105,-82.5 0,-82.5"/>
<text text-anchor="start" x="8" y="-100.5" font-family="Helvetica,sans-Serif" font-size="10.00">obe::Math::MathExp</text>
<text text-anchor="middle" x="52.5" y="-89.5" font-family="Helvetica,sans-Serif" font-size="10.00">::isStatic</text>
</g>
<!-- Node45 -->
<g id="node2" class="node"><title>Node45</title>
<g id="a_node2"><a xlink:href="namespaceobe_1_1_script_1_1_core_lib.html#a8bf7aba311de3d6c78319d0bca25e06f" target="_top" xlink:title="obe::Script::CoreLib\l::loadMathExp">
<polygon fill="none" stroke="black" points="141,-82.5 141,-112.5 244,-112.5 244,-82.5 141,-82.5"/>
<text text-anchor="start" x="149" y="-100.5" font-family="Helvetica,sans-Serif" font-size="10.00">obe::Script::CoreLib</text>
<text text-anchor="middle" x="192.5" y="-89.5" font-family="Helvetica,sans-Serif" font-size="10.00">::loadMathExp</text>
</a>
</g>
</g>
<!-- Node44&#45;&gt;Node45 -->
<g id="edge1" class="edge"><title>Node44&#45;&gt;Node45</title>
<path fill="none" stroke="midnightblue" d="M115.5,-97.5C123.965,-97.5 132.573,-97.5 140.806,-97.5"/>
<polygon fill="midnightblue" stroke="midnightblue" points="115.279,-94.0001 105.279,-97.5 115.279,-101 115.279,-94.0001"/>
</g>
<!-- Node46 -->
<g id="node3" class="node"><title>Node46</title>
<g id="a_node3"><a xlink:href="namespaceobe_1_1_script.html#a633c629c5a54da2b5d4930730983121c" target="_top" xlink:title="obe::Script::loadCoreLib">
<polygon fill="none" stroke="black" points="280,-88 280,-107 401,-107 401,-88 280,-88"/>
<text text-anchor="middle" x="340.5" y="-95" font-family="Helvetica,sans-Serif" font-size="10.00">obe::Script::loadCoreLib</text>
</a>
</g>
</g>
<!-- Node45&#45;&gt;Node46 -->
<g id="edge2" class="edge"><title>Node45&#45;&gt;Node46</title>
<path fill="none" stroke="midnightblue" d="M254.328,-97.5C262.785,-97.5 271.467,-97.5 279.902,-97.5"/>
<polygon fill="midnightblue" stroke="midnightblue" points="254.154,-94.0001 244.154,-97.5 254.154,-101 254.154,-94.0001"/>
</g>
<!-- Node47 -->
<g id="node4" class="node"><title>Node47</title>
<g id="a_node4"><a xlink:href="namespaceobe_1_1_script.html#a4e6ee77032cf7f66544f9b08464a60b7" target="_top" xlink:title="obe::Script::loadLib">
<polygon fill="none" stroke="black" points="437,-88 437,-107 538,-107 538,-88 437,-88"/>
<text text-anchor="middle" x="487.5" y="-95" font-family="Helvetica,sans-Serif" font-size="10.00">obe::Script::loadLib</text>
</a>
</g>
</g>
<!-- Node46&#45;&gt;Node47 -->
<g id="edge3" class="edge"><title>Node46&#45;&gt;Node47</title>
<path fill="none" stroke="midnightblue" d="M411.401,-97.5C420.037,-97.5 428.723,-97.5 436.967,-97.5"/>
<polygon fill="midnightblue" stroke="midnightblue" points="411.314,-94.0001 401.314,-97.5 411.314,-101 411.314,-94.0001"/>
</g>
<!-- Node48 -->
<g id="node5" class="node"><title>Node48</title>
<g id="a_node5"><a xlink:href="namespaceobe_1_1_script.html#a5e992c0efb0543e7c934bc1065f08b01" target="_top" xlink:title="obe::Script::loadLibBridge">
<polygon fill="none" stroke="black" points="579.5,-164 579.5,-183 707.5,-183 707.5,-164 579.5,-164"/>
<text text-anchor="middle" x="643.5" y="-171" font-family="Helvetica,sans-Serif" font-size="10.00">obe::Script::loadLibBridge</text>
</a>
</g>
</g>
<!-- Node47&#45;&gt;Node48 -->
<g id="edge4" class="edge"><title>Node47&#45;&gt;Node48</title>
<path fill="none" stroke="midnightblue" d="M508.149,-113.245C524.824,-125.936 549.827,-143.434 574,-154.5 582.08,-158.198 591.033,-161.319 599.729,-163.895"/>
<polygon fill="midnightblue" stroke="midnightblue" points="510.283,-110.471 500.237,-107.105 505.992,-116.001 510.283,-110.471"/>
</g>
<!-- Node51 -->
<g id="node8" class="node"><title>Node51</title>
<g id="a_node8"><a xlink:href="namespaceobe_1_1_script.html#aad6ef67388e6d16eb01853f208da410f" target="_top" xlink:title="obe::Script::loadBaseLib">
<polygon fill="none" stroke="black" points="582,-126 582,-145 705,-145 705,-126 582,-126"/>
<text text-anchor="middle" x="643.5" y="-133" font-family="Helvetica,sans-Serif" font-size="10.00">obe::Script::loadBaseLib</text>
</a>
</g>
</g>
<!-- Node47&#45;&gt;Node51 -->
<g id="edge7" class="edge"><title>Node47&#45;&gt;Node51</title>
<path fill="none" stroke="midnightblue" d="M537.294,-109.54C558.808,-114.849 583.732,-120.999 603.919,-125.98"/>
<polygon fill="midnightblue" stroke="midnightblue" points="537.908,-106.087 527.361,-107.089 536.231,-112.883 537.908,-106.087"/>
</g>
<!-- Node52 -->
<g id="node9" class="node"><title>Node52</title>
<g id="a_node9"><a xlink:href="namespaceobe_1_1_modes.html#a1e38c0d9a2ca0230f0de79c298f53ab9" target="_top" xlink:title="A mode that will start the Toolkit. ">
<polygon fill="none" stroke="black" points="749,-96 749,-115 895,-115 895,-96 749,-96"/>
<text text-anchor="middle" x="822" y="-103" font-family="Helvetica,sans-Serif" font-size="10.00">obe::Modes::startToolkitMode</text>
</a>
</g>
</g>
<!-- Node47&#45;&gt;Node52 -->
<g id="edge12" class="edge"><title>Node47&#45;&gt;Node52</title>
<path fill="none" stroke="midnightblue" d="M548.437,-98.9421C604.645,-100.294 688.783,-102.319 748.692,-103.76"/>
<polygon fill="midnightblue" stroke="midnightblue" points="548.36,-95.4393 538.279,-98.6977 548.191,-102.437 548.36,-95.4393"/>
</g>
<!-- Node55 -->
<g id="node12" class="node"><title>Node55</title>
<g id="a_node12"><a xlink:href="classobe_1_1_world_1_1_world.html#a5bd621e3fd9293d949ad0c669cee6838" target="_top" xlink:title="obe::World::World::\lWorld">
<polygon fill="none" stroke="black" points="771.5,-27.5 771.5,-57.5 872.5,-57.5 872.5,-27.5 771.5,-27.5"/>
<text text-anchor="start" x="779.5" y="-45.5" font-family="Helvetica,sans-Serif" font-size="10.00">obe::World::World::</text>
<text text-anchor="middle" x="822" y="-34.5" font-family="Helvetica,sans-Serif" font-size="10.00">World</text>
</a>
</g>
</g>
<!-- Node47&#45;&gt;Node55 -->
<g id="edge13" class="edge"><title>Node47&#45;&gt;Node55</title>
<path fill="none" stroke="midnightblue" d="M548.189,-87.6266C611.947,-77.0802 711.845,-60.5558 771.425,-50.7004"/>
<polygon fill="midnightblue" stroke="midnightblue" points="547.573,-84.1808 538.279,-89.2659 548.716,-91.087 547.573,-84.1808"/>
</g>
<!-- Node56 -->
<g id="node13" class="node"><title>Node56</title>
<g id="a_node13"><a xlink:href="namespaceobe_1_1_world.html#afc958184e59524fdf9dc6ba98a1e9a37" target="_top" xlink:title="obe::World::loadWorldScript\lEngineBaseLib">
<polygon fill="none" stroke="black" points="574,-0.5 574,-30.5 713,-30.5 713,-0.5 574,-0.5"/>
<text text-anchor="start" x="582" y="-18.5" font-family="Helvetica,sans-Serif" font-size="10.00">obe::World::loadWorldScript</text>
<text text-anchor="middle" x="643.5" y="-7.5" font-family="Helvetica,sans-Serif" font-size="10.00">EngineBaseLib</text>
</a>
</g>
</g>
<!-- Node47&#45;&gt;Node56 -->
<g id="edge14" class="edge"><title>Node47&#45;&gt;Node56</title>
<path fill="none" stroke="midnightblue" d="M511.637,-82.2687C528.569,-71.4107 552.282,-56.7959 574,-45.5 584.021,-40.2881 595.142,-35.1539 605.458,-30.6464"/>
<polygon fill="midnightblue" stroke="midnightblue" points="509.477,-79.4976 502.983,-87.8694 513.28,-85.3741 509.477,-79.4976"/>
</g>
<!-- Node49 -->
<g id="node6" class="node"><title>Node49</title>
<g id="a_node6"><a xlink:href="namespaceobe_1_1_script.html#a5dc8321da50fd4b5dc2935e4d8c93a4e" target="_top" xlink:title="obe::Script::loadScrGame\lObject">
<polygon fill="none" stroke="black" points="757.5,-158.5 757.5,-188.5 886.5,-188.5 886.5,-158.5 757.5,-158.5"/>
<text text-anchor="start" x="765.5" y="-176.5" font-family="Helvetica,sans-Serif" font-size="10.00">obe::Script::loadScrGame</text>
<text text-anchor="middle" x="822" y="-165.5" font-family="Helvetica,sans-Serif" font-size="10.00">Object</text>
</a>
</g>
</g>
<!-- Node48&#45;&gt;Node49 -->
<g id="edge5" class="edge"><title>Node48&#45;&gt;Node49</title>
<path fill="none" stroke="midnightblue" d="M718.065,-173.5C731.107,-173.5 744.589,-173.5 757.329,-173.5"/>
<polygon fill="midnightblue" stroke="midnightblue" points="717.722,-170 707.722,-173.5 717.722,-177 717.722,-170"/>
</g>
<!-- Node50 -->
<g id="node7" class="node"><title>Node50</title>
<g id="a_node7"><a xlink:href="classobe_1_1_script_1_1_game_object.html#aa0d58bd1ef0fa2fe9f7567729b2d291e" target="_top" xlink:title="obe::Script::GameObject\l::loadGameObject">
<polygon fill="none" stroke="black" points="935,-158.5 935,-188.5 1060,-188.5 1060,-158.5 935,-158.5"/>
<text text-anchor="start" x="943" y="-176.5" font-family="Helvetica,sans-Serif" font-size="10.00">obe::Script::GameObject</text>
<text text-anchor="middle" x="997.5" y="-165.5" font-family="Helvetica,sans-Serif" font-size="10.00">::loadGameObject</text>
</a>
</g>
</g>
<!-- Node49&#45;&gt;Node50 -->
<g id="edge6" class="edge"><title>Node49&#45;&gt;Node50</title>
<path fill="none" stroke="midnightblue" d="M896.721,-173.5C909.445,-173.5 922.552,-173.5 934.913,-173.5"/>
<polygon fill="midnightblue" stroke="midnightblue" points="896.62,-170 886.62,-173.5 896.62,-177 896.62,-170"/>
</g>
<!-- Node51&#45;&gt;Node52 -->
<g id="edge8" class="edge"><title>Node51&#45;&gt;Node52</title>
<path fill="none" stroke="midnightblue" d="M711.102,-124.18C728.829,-121.166 747.798,-117.942 764.901,-115.035"/>
<polygon fill="midnightblue" stroke="midnightblue" points="710.103,-120.799 700.831,-125.925 711.276,-127.7 710.103,-120.799"/>
</g>
<!-- Node53 -->
<g id="node10" class="node"><title>Node53</title>
<g id="a_node10"><a xlink:href="namespaceobe_1_1_modes.html#a6a8b08eee511d4895c4da96d4ba223a6" target="_top" xlink:title="obe::Modes::startDevMenu">
<polygon fill="none" stroke="black" points="931,-104 931,-123 1064,-123 1064,-104 931,-104"/>
<text text-anchor="middle" x="997.5" y="-111" font-family="Helvetica,sans-Serif" font-size="10.00">obe::Modes::startDevMenu</text>
</a>
</g>
</g>
<!-- Node52&#45;&gt;Node53 -->
<g id="edge9" class="edge"><title>Node52&#45;&gt;Node53</title>
<path fill="none" stroke="midnightblue" d="M905.118,-109.286C913.716,-109.683 922.375,-110.082 930.755,-110.469"/>
<polygon fill="midnightblue" stroke="midnightblue" points="905.223,-105.788 895.072,-108.823 904.9,-112.78 905.223,-105.788"/>
</g>
<!-- Node54 -->
<g id="node11" class="node"><title>Node54</title>
<g id="a_node11"><a xlink:href="_ob_engine_8cpp.html#a3c04138a5bfe5d72780bb7e82a18e627" target="_top" xlink:title="main">
<polygon fill="none" stroke="black" points="1100,-85 1100,-104 1138,-104 1138,-85 1100,-85"/>
<text text-anchor="middle" x="1119" y="-92" font-family="Helvetica,sans-Serif" font-size="10.00">main</text>
</a>
</g>
</g>
<!-- Node52&#45;&gt;Node54 -->
<g id="edge11" class="edge"><title>Node52&#45;&gt;Node54</title>
<path fill="none" stroke="midnightblue" d="M905.367,-96.2384C914.013,-95.5273 922.68,-94.9226 931,-94.5 992.929,-91.3544 1066.54,-92.9026 1099.93,-93.8916"/>
<polygon fill="midnightblue" stroke="midnightblue" points="904.909,-92.765 895.249,-97.1177 905.515,-99.7387 904.909,-92.765"/>
</g>
<!-- Node53&#45;&gt;Node54 -->
<g id="edge10" class="edge"><title>Node53&#45;&gt;Node54</title>
<path fill="none" stroke="midnightblue" d="M1068.82,-102.319C1080.35,-100.487 1091.33,-98.7409 1099.98,-97.3654"/>
<polygon fill="midnightblue" stroke="midnightblue" points="1067.93,-98.9174 1058.6,-103.944 1069.03,-105.831 1067.93,-98.9174"/>
</g>
<!-- Node56&#45;&gt;Node55 -->
<g id="edge15" class="edge"><title>Node56&#45;&gt;Node55</title>
<path fill="none" stroke="midnightblue" d="M723.323,-27.558C739.633,-30.0528 756.376,-32.6142 771.292,-34.8959"/>
<polygon fill="midnightblue" stroke="midnightblue" points="723.659,-24.0687 713.245,-26.0162 722.601,-30.9882 723.659,-24.0687"/>
</g>
</g>
</svg>
