<?xml version="1.0" encoding="UTF-8" standalone="no"?>
<!DOCTYPE svg PUBLIC "-//W3C//DTD SVG 1.1//EN"
 "http://www.w3.org/Graphics/SVG/1.1/DTD/svg11.dtd">
<!-- Generated by graphviz version 2.38.0 (20140413.2041)
 -->
<!-- Title: vili::ContainerNode::removeOwnership Pages: 1 -->
<svg width="576pt" height="350pt"
 viewBox="0.00 0.00 576.00 350.00" xmlns="http://www.w3.org/2000/svg" xmlns:xlink="http://www.w3.org/1999/xlink">
<g id="graph0" class="graph" transform="scale(1 1) rotate(0) translate(4 346)">
<title>vili::ContainerNode::removeOwnership</title>
<!-- Node13 -->
<g id="node1" class="node"><title>Node13</title>
<polygon fill="#bfbfbf" stroke="black" points="0,-147.5 0,-177.5 99,-177.5 99,-147.5 0,-147.5"/>
<text text-anchor="start" x="8" y="-165.5" font-family="Helvetica,sans-Serif" font-size="10.00">vili::ContainerNode</text>
<text text-anchor="middle" x="49.5" y="-154.5" font-family="Helvetica,sans-Serif" font-size="10.00">::removeOwnership</text>
</g>
<!-- Node14 -->
<g id="node2" class="node"><title>Node14</title>
<g id="a_node2"><a xlink:href="classvili_1_1_node.html#a4d9ca9770bcc615dfc083c1f5df0fb1b" target="_top" xlink:title="vili::Node::removeParent">
<polygon fill="white" stroke="black" points="135,-153 135,-172 256,-172 256,-153 135,-153"/>
<text text-anchor="middle" x="195.5" y="-160" font-family="Helvetica,sans-Serif" font-size="10.00">vili::Node::removeParent</text>
</a>
</g>
</g>
<!-- Node13&#45;&gt;Node14 -->
<g id="edge1" class="edge"><title>Node13&#45;&gt;Node14</title>
<path fill="none" stroke="midnightblue" d="M99.2518,-162.5C107.462,-162.5 116.124,-162.5 124.743,-162.5"/>
<polygon fill="midnightblue" stroke="midnightblue" points="124.812,-166 134.812,-162.5 124.812,-159 124.812,-166"/>
</g>
<!-- Node15 -->
<g id="node3" class="node"><title>Node15</title>
<g id="a_node3"><a xlink:href="classaube_1_1_error_handler.html#a7c8d44a3e7f019646d289950abc5301b" target="_top" xlink:title="Raises an Error loaded in the Aube Error Database (AED) ">
<polygon fill="white" stroke="black" points="302,-213.5 302,-243.5 400,-243.5 400,-213.5 302,-213.5"/>
<text text-anchor="start" x="310" y="-231.5" font-family="Helvetica,sans-Serif" font-size="10.00">aube::ErrorHandler</text>
<text text-anchor="middle" x="351" y="-220.5" font-family="Helvetica,sans-Serif" font-size="10.00">::Raise</text>
</a>
</g>
</g>
<!-- Node14&#45;&gt;Node15 -->
<g id="edge2" class="edge"><title>Node14&#45;&gt;Node15</title>
<path fill="none" stroke="midnightblue" d="M218.82,-172.097C241.456,-181.83 277.105,-197.158 305.531,-209.38"/>
<polygon fill="midnightblue" stroke="midnightblue" points="304.295,-212.658 314.864,-213.393 307.06,-206.227 304.295,-212.658"/>
</g>
<!-- Node20 -->
<g id="node8" class="node"><title>Node20</title>
<g id="a_node8"><a xlink:href="classvili_1_1_node.html#a5a6ad518f51d824e06ae7be0328f4864" target="_top" xlink:title="Get the Node Path (Example : GrandParent/Parent/Node) ">
<polygon fill="white" stroke="black" points="292,-88 292,-107 410,-107 410,-88 292,-88"/>
<text text-anchor="middle" x="351" y="-95" font-family="Helvetica,sans-Serif" font-size="10.00">vili::Node::getNodePath</text>
</a>
</g>
</g>
<!-- Node14&#45;&gt;Node20 -->
<g id="edge7" class="edge"><title>Node14&#45;&gt;Node20</title>
<path fill="none" stroke="midnightblue" d="M219.149,-152.909C245.224,-141.868 288.247,-123.649 317.797,-111.136"/>
<polygon fill="midnightblue" stroke="midnightblue" points="319.414,-114.253 327.258,-107.13 316.684,-107.807 319.414,-114.253"/>
</g>
<!-- Node16 -->
<g id="node4" class="node"><title>Node16</title>
<g id="a_node4"><a xlink:href="classaube_1_1_error_message.html#a3a39b6fcd8fdb12eaf6383123535b8ca" target="_top" xlink:title="Gets the File where is located the ErrorMessage when raised. ">
<polygon fill="white" stroke="black" points="455,-311.5 455,-341.5 559,-341.5 559,-311.5 455,-311.5"/>
<text text-anchor="start" x="463" y="-329.5" font-family="Helvetica,sans-Serif" font-size="10.00">aube::ErrorMessage</text>
<text text-anchor="middle" x="507" y="-318.5" font-family="Helvetica,sans-Serif" font-size="10.00">::getFile</text>
</a>
</g>
</g>
<!-- Node15&#45;&gt;Node16 -->
<g id="edge3" class="edge"><title>Node15&#45;&gt;Node16</title>
<path fill="none" stroke="midnightblue" d="M368.266,-243.702C386.222,-259.887 416.503,-285.466 446,-302.5 448.817,-304.127 451.767,-305.693 454.781,-307.192"/>
<polygon fill="midnightblue" stroke="midnightblue" points="453.415,-310.417 463.957,-311.478 456.377,-304.075 453.415,-310.417"/>
</g>
<!-- Node17 -->
<g id="node5" class="node"><title>Node17</title>
<g id="a_node5"><a xlink:href="classaube_1_1_error_message.html#a9184cc96589578f434351c105b0cd5f7" target="_top" xlink:title="Gets the location of the error in the code. ">
<polygon fill="white" stroke="black" points="455,-262.5 455,-292.5 559,-292.5 559,-262.5 455,-262.5"/>
<text text-anchor="start" x="463" y="-280.5" font-family="Helvetica,sans-Serif" font-size="10.00">aube::ErrorMessage</text>
<text text-anchor="middle" x="507" y="-269.5" font-family="Helvetica,sans-Serif" font-size="10.00">::getLocation</text>
</a>
</g>
</g>
<!-- Node15&#45;&gt;Node17 -->
<g id="edge4" class="edge"><title>Node15&#45;&gt;Node17</title>
<path fill="none" stroke="midnightblue" d="M399.462,-243.601C415.05,-248.562 432.543,-254.127 448.778,-259.293"/>
<polygon fill="midnightblue" stroke="midnightblue" points="448.105,-262.752 458.695,-262.448 450.227,-256.081 448.105,-262.752"/>
</g>
<!-- Node18 -->
<g id="node6" class="node"><title>Node18</title>
<g id="a_node6"><a xlink:href="classaube_1_1_error_message.html#a07927cb3e2d0712c459cc9e2b5f52696" target="_top" xlink:title="Gets the message displayed by the ErrorMessage when raised. ">
<polygon fill="white" stroke="black" points="455,-213.5 455,-243.5 559,-243.5 559,-213.5 455,-213.5"/>
<text text-anchor="start" x="463" y="-231.5" font-family="Helvetica,sans-Serif" font-size="10.00">aube::ErrorMessage</text>
<text text-anchor="middle" x="507" y="-220.5" font-family="Helvetica,sans-Serif" font-size="10.00">::getMessage</text>
</a>
</g>
</g>
<!-- Node15&#45;&gt;Node18 -->
<g id="edge5" class="edge"><title>Node15&#45;&gt;Node18</title>
<path fill="none" stroke="midnightblue" d="M400.304,-228.5C414.423,-228.5 430.044,-228.5 444.848,-228.5"/>
<polygon fill="midnightblue" stroke="midnightblue" points="444.938,-232 454.938,-228.5 444.938,-225 444.938,-232"/>
</g>
<!-- Node19 -->
<g id="node7" class="node"><title>Node19</title>
<g id="a_node7"><a xlink:href="classaube_1_1_error_message.html#a77c2f9b7e93542c958173b52da267989" target="_top" xlink:title="Gets hints that can help the error resolution. ">
<polygon fill="white" stroke="black" points="455,-164.5 455,-194.5 559,-194.5 559,-164.5 455,-164.5"/>
<text text-anchor="start" x="463" y="-182.5" font-family="Helvetica,sans-Serif" font-size="10.00">aube::ErrorMessage</text>
<text text-anchor="middle" x="507" y="-171.5" font-family="Helvetica,sans-Serif" font-size="10.00">::getHints</text>
</a>
</g>
</g>
<!-- Node15&#45;&gt;Node19 -->
<g id="edge6" class="edge"><title>Node15&#45;&gt;Node19</title>
<path fill="none" stroke="midnightblue" d="M399.462,-213.399C415.05,-208.438 432.543,-202.873 448.778,-197.707"/>
<polygon fill="midnightblue" stroke="midnightblue" points="450.227,-200.919 458.695,-194.552 448.105,-194.248 450.227,-200.919"/>
</g>
<!-- Node21 -->
<g id="node9" class="node"><title>Node21</title>
<g id="a_node9"><a xlink:href="classvili_1_1_node.html#a58273048e22a9ebd74e576fd8905f709" target="_top" xlink:title="vili::Node::getParent">
<polygon fill="white" stroke="black" points="455,-126 455,-145 559,-145 559,-126 455,-126"/>
<text text-anchor="middle" x="507" y="-133" font-family="Helvetica,sans-Serif" font-size="10.00">vili::Node::getParent</text>
</a>
</g>
</g>
<!-- Node20&#45;&gt;Node21 -->
<g id="edge8" class="edge"><title>Node20&#45;&gt;Node21</title>
<path fill="none" stroke="midnightblue" d="M390.861,-107.089C411.091,-112.081 436.021,-118.232 457.504,-123.533"/>
<polygon fill="midnightblue" stroke="midnightblue" points="456.871,-126.982 467.419,-125.98 458.548,-120.186 456.871,-126.982"/>
</g>
<!-- Node22 -->
<g id="node10" class="node"><title>Node22</title>
<g id="a_node10"><a xlink:href="classvili_1_1_node.html#ab03908ab3d62e3bfddaf9e7306fdf3b3" target="_top" xlink:title="Gets the id of the Node. ">
<polygon fill="white" stroke="black" points="465.5,-88 465.5,-107 548.5,-107 548.5,-88 465.5,-88"/>
<text text-anchor="middle" x="507" y="-95" font-family="Helvetica,sans-Serif" font-size="10.00">vili::Node::getId</text>
</a>
</g>
</g>
<!-- Node20&#45;&gt;Node22 -->
<g id="edge9" class="edge"><title>Node20&#45;&gt;Node22</title>
<path fill="none" stroke="midnightblue" d="M410.221,-97.5C425.025,-97.5 440.816,-97.5 455.218,-97.5"/>
<polygon fill="midnightblue" stroke="midnightblue" points="455.425,-101 465.425,-97.5 455.425,-94.0001 455.425,-101"/>
</g>
<!-- Node23 -->
<g id="node11" class="node"><title>Node23</title>
<g id="a_node11"><a xlink:href="classvili_1_1_node.html#ad3c91cfe2721eaf9841721d1ec8ee0d8" target="_top" xlink:title="Gets the Node annotation. ">
<polygon fill="white" stroke="black" points="446,-50 446,-69 568,-69 568,-50 446,-50"/>
<text text-anchor="middle" x="507" y="-57" font-family="Helvetica,sans-Serif" font-size="10.00">vili::Node::getAnnotation</text>
</a>
</g>
</g>
<!-- Node20&#45;&gt;Node23 -->
<g id="edge10" class="edge"><title>Node20&#45;&gt;Node23</title>
<path fill="none" stroke="midnightblue" d="M390.861,-87.911C411.091,-82.9191 436.021,-76.7676 457.504,-71.4666"/>
<polygon fill="midnightblue" stroke="midnightblue" points="458.548,-74.8139 467.419,-69.0201 456.871,-68.0177 458.548,-74.8139"/>
</g>
<!-- Node24 -->
<g id="node12" class="node"><title>Node24</title>
<g id="a_node12"><a xlink:href="namespacevili_1_1_functions_1_1_vector.html#a10836e1fe04648534cfc59d9de9acd72" target="_top" xlink:title="vili::Functions::Vector\l::join">
<polygon fill="white" stroke="black" points="452,-0.5 452,-30.5 562,-30.5 562,-0.5 452,-0.5"/>
<text text-anchor="start" x="460" y="-18.5" font-family="Helvetica,sans-Serif" font-size="10.00">vili::Functions::Vector</text>
<text text-anchor="middle" x="507" y="-7.5" font-family="Helvetica,sans-Serif" font-size="10.00">::join</text>
</a>
</g>
</g>
<!-- Node20&#45;&gt;Node24 -->
<g id="edge11" class="edge"><title>Node20&#45;&gt;Node24</title>
<path fill="none" stroke="midnightblue" d="M366.267,-87.9179C384.36,-75.986 416.732,-55.3652 446,-40.5 449.955,-38.4911 454.111,-36.5096 458.312,-34.5945"/>
<polygon fill="midnightblue" stroke="midnightblue" points="459.79,-37.7679 467.521,-30.5232 456.959,-31.3657 459.79,-37.7679"/>
</g>
</g>
</svg>
