<?xml version="1.0" encoding="UTF-8" standalone="no"?>
<!DOCTYPE svg PUBLIC "-//W3C//DTD SVG 1.1//EN"
 "http://www.w3.org/Graphics/SVG/1.1/DTD/svg11.dtd">
<!-- Generated by graphviz version 2.38.0 (20140413.2041)
 -->
<!-- Title: obe::Scene::Scene::doesGameObjectExists Pages: 1 -->
<svg width="564pt" height="39pt"
 viewBox="0.00 0.00 564.00 39.00" xmlns="http://www.w3.org/2000/svg" xmlns:xlink="http://www.w3.org/1999/xlink">
<g id="graph0" class="graph" transform="scale(1 1) rotate(0) translate(4 35)">
<title>obe::Scene::Scene::doesGameObjectExists</title>
<!-- Node203 -->
<g id="node1" class="node"><title>Node203</title>
<polygon fill="#bfbfbf" stroke="black" points="0,-0.5 0,-30.5 120,-30.5 120,-0.5 0,-0.5"/>
<text text-anchor="start" x="8" y="-18.5" font-family="Helvetica,sans-Serif" font-size="10.00">obe::Scene::Scene::</text>
<text text-anchor="middle" x="60" y="-7.5" font-family="Helvetica,sans-Serif" font-size="10.00">doesGameObjectExists</text>
</g>
<!-- Node204 -->
<g id="node2" class="node"><title>Node204</title>
<g id="a_node2"><a xlink:href="namespaceobe_1_1_bindings_1_1_scene_bindings.html#af7c6cb8cc46286eba7ddbe55ffe7d296" target="_top" xlink:title="obe::Bindings::SceneBindings\l::LoadScene">
<polygon fill="white" stroke="black" points="156,-0.5 156,-30.5 303,-30.5 303,-0.5 156,-0.5"/>
<text text-anchor="start" x="164" y="-18.5" font-family="Helvetica,sans-Serif" font-size="10.00">obe::Bindings::SceneBindings</text>
<text text-anchor="middle" x="229.5" y="-7.5" font-family="Helvetica,sans-Serif" font-size="10.00">::LoadScene</text>
</a>
</g>
</g>
<!-- Node203&#45;&gt;Node204 -->
<g id="edge1" class="edge"><title>Node203&#45;&gt;Node204</title>
<path fill="none" stroke="midnightblue" d="M130.25,-15.5C138.711,-15.5 147.377,-15.5 155.886,-15.5"/>
<polygon fill="midnightblue" stroke="midnightblue" points="130.054,-12.0001 120.054,-15.5 130.054,-19.0001 130.054,-12.0001"/>
</g>
<!-- Node205 -->
<g id="node3" class="node"><title>Node205</title>
<g id="a_node3"><a xlink:href="namespaceobe_1_1_bindings.html#a41d33207a0199f125c75a0f70a4a3ba8" target="_top" xlink:title="To call when the engine starts, indexes all Lua bindings. ">
<polygon fill="white" stroke="black" points="339,-6 339,-25 482,-25 482,-6 339,-6"/>
<text text-anchor="middle" x="410.5" y="-13" font-family="Helvetica,sans-Serif" font-size="10.00">obe::Bindings::IndexBindings</text>
</a>
</g>
</g>
<!-- Node204&#45;&gt;Node205 -->
<g id="edge2" class="edge"><title>Node204&#45;&gt;Node205</title>
<path fill="none" stroke="midnightblue" d="M313.102,-15.5C321.716,-15.5 330.416,-15.5 338.88,-15.5"/>
<polygon fill="midnightblue" stroke="midnightblue" points="313.048,-12.0001 303.048,-15.5 313.048,-19.0001 313.048,-12.0001"/>
</g>
<!-- Node206 -->
<g id="node4" class="node"><title>Node206</title>
<g id="a_node4"><a xlink:href="_ob_engine_8cpp.html#a3c04138a5bfe5d72780bb7e82a18e627" target="_top" xlink:title="main">
<polygon fill="white" stroke="black" points="518,-6 518,-25 556,-25 556,-6 518,-6"/>
<text text-anchor="middle" x="537" y="-13" font-family="Helvetica,sans-Serif" font-size="10.00">main</text>
</a>
</g>
</g>
<!-- Node205&#45;&gt;Node206 -->
<g id="edge3" class="edge"><title>Node205&#45;&gt;Node206</title>
<path fill="none" stroke="midnightblue" d="M492.161,-15.5C501.623,-15.5 510.462,-15.5 517.688,-15.5"/>
<polygon fill="midnightblue" stroke="midnightblue" points="492.117,-12.0001 482.117,-15.5 492.117,-19.0001 492.117,-12.0001"/>
</g>
</g>
</svg>
