<?xml version="1.0" encoding="UTF-8" standalone="no"?>
<!DOCTYPE svg PUBLIC "-//W3C//DTD SVG 1.1//EN"
 "http://www.w3.org/Graphics/SVG/1.1/DTD/svg11.dtd">
<!-- Generated by graphviz version 2.38.0 (20140413.2041)
 -->
<!-- Title: obe::Collision::PolygonalCollider::testAllColliders Pages: 1 -->
<!--zoomable 190 -->
<svg id="main" version="1.1" xmlns="http://www.w3.org/2000/svg" xmlns:xlink="http://www.w3.org/1999/xlink" xml:space="preserve" onload="init(evt)">
<style type="text/css"><![CDATA[
.edge:hover path { stroke: red; }
.edge:hover polygon { stroke: red; fill: red; }
.edge path { stroke: white; }
.edge polygon { stroke: white; fill: white; }
.node polygon { fill: white; }
]]></style>
<script type="text/javascript"><![CDATA[
var edges = document.getElementsByTagName('g');
if (edges && edges.length) {
  for (var i=0;i<edges.length;i++) {
    if (edges[i].id.substr(0,4)=='edge') {
      edges[i].setAttribute('class','edge');
    }
  }
}
]]></script>
        <defs>
                <circle id="rim" cx="0" cy="0" r="7"/>
                <circle id="rim2" cx="0" cy="0" r="3.5"/>
                <g id="zoomPlus">
                        <use xlink:href="#rim" fill="#404040">
                                <set attributeName="fill" to="#808080" begin="zoomplus.mouseover" end="zoomplus.mouseout"/>
                        </use>
                        <path d="M-4,0h8M0,-4v8" fill="none" stroke="white" stroke-width="1.5" pointer-events="none"/>
                </g>
                <g id="zoomMin">
                        <use xlink:href="#rim" fill="#404040">
                                <set attributeName="fill" to="#808080" begin="zoomminus.mouseover" end="zoomminus.mouseout"/>
                        </use>
                        <path d="M-4,0h8" fill="none" stroke="white" stroke-width="1.5" pointer-events="none"/>
                </g>
                <g id="dirArrow">
                        <path fill="none" stroke="white" stroke-width="1.5" d="M0,-3.0v7 M-2.5,-0.5L0,-3.0L2.5,-0.5"/>
                </g>
               <g id="resetDef">
                       <use xlink:href="#rim2" fill="#404040">
                               <set attributeName="fill" to="#808080" begin="reset.mouseover" end="reset.mouseout"/>
                       </use>
               </g>
        </defs>

<script type="text/javascript">
var viewWidth = 1349;
var viewHeight = 190;
var sectionId = 'dynsection-66';
</script>
<script xlink:href="svgpan.js"/>
<svg id="graph" class="graph">
<g id="viewport">
<title>obe::Collision::PolygonalCollider::testAllColliders</title>
<!-- Node767 -->
<g id="node1" class="node"><title>Node767</title>
<polygon fill="#bfbfbf" stroke="black" points="0,-88.5 0,-118.5 124,-118.5 124,-88.5 0,-88.5"/>
<text text-anchor="start" x="8" y="-106.5" font-family="Helvetica,sans-Serif" font-size="10.00">obe::Collision::Polygonal</text>
<text text-anchor="middle" x="62" y="-95.5" font-family="Helvetica,sans-Serif" font-size="10.00">Collider::testAllColliders</text>
</g>
<!-- Node768 -->
<g id="node2" class="node"><title>Node768</title>
<g id="a_node2"><a xlink:href="classobe_1_1_collision_1_1_polygonal_collider.html#a6b5ab1cbbddae72504f9a62fd6f7176e" target="_top" xlink:title="obe::Collision::Polygonal\lCollider::doesCollideWithTags">
<polygon fill="none" stroke="black" points="160,-110.5 160,-140.5 306,-140.5 306,-110.5 160,-110.5"/>
<text text-anchor="start" x="168" y="-128.5" font-family="Helvetica,sans-Serif" font-size="10.00">obe::Collision::Polygonal</text>
<text text-anchor="middle" x="233" y="-117.5" font-family="Helvetica,sans-Serif" font-size="10.00">Collider::doesCollideWithTags</text>
</a>
</g>
</g>
<!-- Node767&#45;&gt;Node768 -->
<g id="edge1" class="edge"><title>Node767&#45;&gt;Node768</title>
<path fill="none" stroke="midnightblue" d="M133.956,-112.737C142.52,-113.852 151.274,-114.991 159.854,-116.108"/>
<polygon fill="midnightblue" stroke="midnightblue" points="134.381,-109.263 124.013,-111.443 133.477,-116.204 134.381,-109.263"/>
</g>
<!-- Node769 -->
<g id="node3" class="node"><title>Node769</title>
<g id="a_node3"><a xlink:href="namespaceobe_1_1_script_1_1_core_lib.html#a07d6c11bbb082bc45bdba50d97965c00" target="_top" xlink:title="obe::Script::CoreLib\l::loadCollision">
<polygon fill="none" stroke="black" points="342,-88.5 342,-118.5 445,-118.5 445,-88.5 342,-88.5"/>
<text text-anchor="start" x="350" y="-106.5" font-family="Helvetica,sans-Serif" font-size="10.00">obe::Script::CoreLib</text>
<text text-anchor="middle" x="393.5" y="-95.5" font-family="Helvetica,sans-Serif" font-size="10.00">::loadCollision</text>
</a>
</g>
</g>
<!-- Node767&#45;&gt;Node769 -->
<g id="edge18" class="edge"><title>Node767&#45;&gt;Node769</title>
<path fill="none" stroke="midnightblue" d="M134.196,-101.046C142.887,-100.821 151.645,-100.629 160,-100.5 224.881,-99.4969 241.121,-99.3753 306,-100.5 317.569,-100.701 330.004,-101.052 341.737,-101.445"/>
<polygon fill="midnightblue" stroke="midnightblue" points="133.952,-97.5513 124.051,-101.324 134.143,-104.549 133.952,-97.5513"/>
</g>
<!-- Node768&#45;&gt;Node769 -->
<g id="edge2" class="edge"><title>Node768&#45;&gt;Node769</title>
<path fill="none" stroke="midnightblue" d="M316.376,-114.066C324.968,-112.874 333.51,-111.688 341.598,-110.565"/>
<polygon fill="midnightblue" stroke="midnightblue" points="315.716,-110.624 306.293,-115.466 316.679,-117.558 315.716,-110.624"/>
</g>
<!-- Node770 -->
<g id="node4" class="node"><title>Node770</title>
<g id="a_node4"><a xlink:href="namespaceobe_1_1_script.html#abdb81ec0976f1097cef6711415b8fac3" target="_top" xlink:title="obe::Script::loadCoreLib">
<polygon fill="none" stroke="black" points="481,-94 481,-113 602,-113 602,-94 481,-94"/>
<text text-anchor="middle" x="541.5" y="-101" font-family="Helvetica,sans-Serif" font-size="10.00">obe::Script::loadCoreLib</text>
</a>
</g>
</g>
<!-- Node769&#45;&gt;Node770 -->
<g id="edge3" class="edge"><title>Node769&#45;&gt;Node770</title>
<path fill="none" stroke="midnightblue" d="M455.328,-96.8341C463.785,-96.7162 472.467,-96.7223 480.902,-96.8521"/>
<polygon fill="midnightblue" stroke="midnightblue" points="455.081,-93.3383 445.154,-97.0393 455.223,-100.337 455.081,-93.3383"/>
</g>
<!-- Node770&#45;&gt;Node769 -->
<g id="edge17" class="edge"><title>Node770&#45;&gt;Node769</title>
<path fill="none" stroke="midnightblue" d="M470.805,-110.244C462.154,-110.276 453.441,-110.182 445.154,-109.961"/>
<polygon fill="midnightblue" stroke="midnightblue" points="470.936,-113.743 480.902,-110.148 470.869,-106.743 470.936,-113.743"/>
</g>
<!-- Node771 -->
<g id="node5" class="node"><title>Node771</title>
<g id="a_node5"><a xlink:href="namespaceobe_1_1_script.html#a4e6ee77032cf7f66544f9b08464a60b7" target="_top" xlink:title="obe::Script::loadLib">
<polygon fill="none" stroke="black" points="638,-94 638,-113 739,-113 739,-94 638,-94"/>
<text text-anchor="middle" x="688.5" y="-101" font-family="Helvetica,sans-Serif" font-size="10.00">obe::Script::loadLib</text>
</a>
</g>
</g>
<!-- Node770&#45;&gt;Node771 -->
<g id="edge4" class="edge"><title>Node770&#45;&gt;Node771</title>
<path fill="none" stroke="midnightblue" d="M612.401,-103.5C621.037,-103.5 629.723,-103.5 637.967,-103.5"/>
<polygon fill="midnightblue" stroke="midnightblue" points="612.314,-100 602.314,-103.5 612.314,-107 612.314,-100"/>
</g>
<!-- Node772 -->
<g id="node6" class="node"><title>Node772</title>
<g id="a_node6"><a xlink:href="namespaceobe_1_1_modes.html#a1e38c0d9a2ca0230f0de79c298f53ab9" target="_top" xlink:title="A mode that will start the Toolkit. ">
<polygon fill="none" stroke="black" points="952,-143 952,-162 1098,-162 1098,-143 952,-143"/>
<text text-anchor="middle" x="1025" y="-150" font-family="Helvetica,sans-Serif" font-size="10.00">obe::Modes::startToolkitMode</text>
</a>
</g>
</g>
<!-- Node771&#45;&gt;Node772 -->
<g id="edge5" class="edge"><title>Node771&#45;&gt;Node772</title>
<path fill="none" stroke="midnightblue" d="M707.108,-119.839C723.345,-133.706 748.828,-152.576 775,-160.5 844.752,-181.619 930.556,-171.471 981.063,-162.067"/>
<polygon fill="midnightblue" stroke="midnightblue" points="709.319,-117.122 699.506,-113.128 704.687,-122.37 709.319,-117.122"/>
</g>
<!-- Node775 -->
<g id="node9" class="node"><title>Node775</title>
<g id="a_node9"><a xlink:href="classobe_1_1_scene_1_1_world.html#a32964e659e18cb32094d9f8ceea30aa3" target="_top" xlink:title="obe::Scene::World::\lWorld">
<polygon fill="none" stroke="black" points="973,-77.5 973,-107.5 1077,-107.5 1077,-77.5 973,-77.5"/>
<text text-anchor="start" x="981" y="-95.5" font-family="Helvetica,sans-Serif" font-size="10.00">obe::Scene::World::</text>
<text text-anchor="middle" x="1025" y="-84.5" font-family="Helvetica,sans-Serif" font-size="10.00">World</text>
</a>
</g>
</g>
<!-- Node771&#45;&gt;Node775 -->
<g id="edge9" class="edge"><title>Node771&#45;&gt;Node775</title>
<path fill="none" stroke="midnightblue" d="M749.51,-101.527C813.218,-99.4315 912.826,-96.156 972.912,-94.18"/>
<polygon fill="midnightblue" stroke="midnightblue" points="749.096,-98.0382 739.217,-101.865 749.327,-105.034 749.096,-98.0382"/>
</g>
<!-- Node776 -->
<g id="node10" class="node"><title>Node776</title>
<g id="a_node10"><a xlink:href="namespaceobe_1_1_scene.html#ae5cbcc3278d9115d603e5024dec9136e" target="_top" xlink:title="obe::Scene::loadWorldScript\lEngineBaseLib">
<polygon fill="none" stroke="black" points="775,-44.5 775,-74.5 916,-74.5 916,-44.5 775,-44.5"/>
<text text-anchor="start" x="783" y="-62.5" font-family="Helvetica,sans-Serif" font-size="10.00">obe::Scene::loadWorldScript</text>
<text text-anchor="middle" x="845.5" y="-51.5" font-family="Helvetica,sans-Serif" font-size="10.00">EngineBaseLib</text>
</a>
</g>
</g>
<!-- Node771&#45;&gt;Node776 -->
<g id="edge10" class="edge"><title>Node771&#45;&gt;Node776</title>
<path fill="none" stroke="midnightblue" d="M732.871,-91.1882C751.04,-86.0306 772.336,-79.9852 791.429,-74.5654"/>
<polygon fill="midnightblue" stroke="midnightblue" points="731.797,-87.8548 723.133,-93.9527 733.708,-94.5887 731.797,-87.8548"/>
</g>
<!-- Node777 -->
<g id="node11" class="node"><title>Node777</title>
<g id="a_node11"><a xlink:href="namespaceobe_1_1_script.html#a5e992c0efb0543e7c934bc1065f08b01" target="_top" xlink:title="obe::Script::loadLibBridge">
<polygon fill="none" stroke="black" points="781.5,-6 781.5,-25 909.5,-25 909.5,-6 781.5,-6"/>
<text text-anchor="middle" x="845.5" y="-13" font-family="Helvetica,sans-Serif" font-size="10.00">obe::Script::loadLibBridge</text>
</a>
</g>
</g>
<!-- Node771&#45;&gt;Node777 -->
<g id="edge12" class="edge"><title>Node771&#45;&gt;Node777</title>
<path fill="none" stroke="midnightblue" d="M706.106,-86.5505C722.326,-70.9112 748.393,-48.1137 775,-34.5 782.461,-30.6825 790.777,-27.5618 798.99,-25.0347"/>
<polygon fill="midnightblue" stroke="midnightblue" points="703.228,-84.4735 698.571,-93.9898 708.146,-89.455 703.228,-84.4735"/>
</g>
<!-- Node780 -->
<g id="node14" class="node"><title>Node780</title>
<g id="a_node14"><a xlink:href="namespaceobe_1_1_script.html#aad6ef67388e6d16eb01853f208da410f" target="_top" xlink:title="obe::Script::loadBaseLib">
<polygon fill="none" stroke="black" points="784,-132 784,-151 907,-151 907,-132 784,-132"/>
<text text-anchor="middle" x="845.5" y="-139" font-family="Helvetica,sans-Serif" font-size="10.00">obe::Script::loadBaseLib</text>
</a>
</g>
</g>
<!-- Node771&#45;&gt;Node780 -->
<g id="edge15" class="edge"><title>Node771&#45;&gt;Node780</title>
<path fill="none" stroke="midnightblue" d="M738.611,-115.54C760.265,-120.849 785.35,-126.999 805.668,-131.98"/>
<polygon fill="midnightblue" stroke="midnightblue" points="739.159,-112.071 728.613,-113.089 737.492,-118.87 739.159,-112.071"/>
</g>
<!-- Node773 -->
<g id="node7" class="node"><title>Node773</title>
<g id="a_node7"><a xlink:href="namespaceobe_1_1_modes.html#a6a8b08eee511d4895c4da96d4ba223a6" target="_top" xlink:title="Starts the development Menu where you can starts other menus from. ">
<polygon fill="none" stroke="black" points="1134,-162 1134,-181 1267,-181 1267,-162 1134,-162"/>
<text text-anchor="middle" x="1200.5" y="-169" font-family="Helvetica,sans-Serif" font-size="10.00">obe::Modes::startDevMenu</text>
</a>
</g>
</g>
<!-- Node772&#45;&gt;Node773 -->
<g id="edge6" class="edge"><title>Node772&#45;&gt;Node773</title>
<path fill="none" stroke="midnightblue" d="M1108.12,-161.493C1116.72,-162.434 1125.37,-163.383 1133.76,-164.3"/>
<polygon fill="midnightblue" stroke="midnightblue" points="1108.39,-158.002 1098.07,-160.393 1107.63,-164.961 1108.39,-158.002"/>
</g>
<!-- Node774 -->
<g id="node8" class="node"><title>Node774</title>
<g id="a_node8"><a xlink:href="_ob_engine_8cpp.html#a3c04138a5bfe5d72780bb7e82a18e627" target="_top" xlink:title="main">
<polygon fill="none" stroke="black" points="1303,-143 1303,-162 1341,-162 1341,-143 1303,-143"/>
<text text-anchor="middle" x="1322" y="-150" font-family="Helvetica,sans-Serif" font-size="10.00">main</text>
</a>
</g>
</g>
<!-- Node772&#45;&gt;Node774 -->
<g id="edge8" class="edge"><title>Node772&#45;&gt;Node774</title>
<path fill="none" stroke="midnightblue" d="M1108.31,-152.5C1175.39,-152.5 1264.99,-152.5 1302.87,-152.5"/>
<polygon fill="midnightblue" stroke="midnightblue" points="1108.17,-149 1098.17,-152.5 1108.17,-156 1108.17,-149"/>
</g>
<!-- Node773&#45;&gt;Node774 -->
<g id="edge7" class="edge"><title>Node773&#45;&gt;Node774</title>
<path fill="none" stroke="midnightblue" d="M1271.82,-160.319C1283.35,-158.487 1294.33,-156.741 1302.98,-155.365"/>
<polygon fill="midnightblue" stroke="midnightblue" points="1270.93,-156.917 1261.6,-161.944 1272.03,-163.831 1270.93,-156.917"/>
</g>
<!-- Node776&#45;&gt;Node775 -->
<g id="edge11" class="edge"><title>Node776&#45;&gt;Node775</title>
<path fill="none" stroke="midnightblue" d="M925.998,-74.2799C941.939,-77.2436 958.283,-80.2821 972.941,-83.0074"/>
<polygon fill="midnightblue" stroke="midnightblue" points="926.615,-70.8346 916.143,-72.4478 925.335,-77.7167 926.615,-70.8346"/>
</g>
<!-- Node778 -->
<g id="node12" class="node"><title>Node778</title>
<g id="a_node12"><a xlink:href="namespaceobe_1_1_script.html#a5dc8321da50fd4b5dc2935e4d8c93a4e" target="_top" xlink:title="obe::Script::loadScrGame\lObject">
<polygon fill="none" stroke="black" points="960.5,-0.5 960.5,-30.5 1089.5,-30.5 1089.5,-0.5 960.5,-0.5"/>
<text text-anchor="start" x="968.5" y="-18.5" font-family="Helvetica,sans-Serif" font-size="10.00">obe::Script::loadScrGame</text>
<text text-anchor="middle" x="1025" y="-7.5" font-family="Helvetica,sans-Serif" font-size="10.00">Object</text>
</a>
</g>
</g>
<!-- Node777&#45;&gt;Node778 -->
<g id="edge13" class="edge"><title>Node777&#45;&gt;Node778</title>
<path fill="none" stroke="midnightblue" d="M919.737,-15.5C933.171,-15.5 947.096,-15.5 960.226,-15.5"/>
<polygon fill="midnightblue" stroke="midnightblue" points="919.58,-12.0001 909.58,-15.5 919.58,-19.0001 919.58,-12.0001"/>
</g>
<!-- Node779 -->
<g id="node13" class="node"><title>Node779</title>
<g id="a_node13"><a xlink:href="classobe_1_1_script_1_1_game_object.html#aadeac0036d2fe21d523acfd4e9011a23" target="_top" xlink:title="obe::Script::GameObject\l::loadGameObject">
<polygon fill="none" stroke="black" points="1138,-0.5 1138,-30.5 1263,-30.5 1263,-0.5 1138,-0.5"/>
<text text-anchor="start" x="1146" y="-18.5" font-family="Helvetica,sans-Serif" font-size="10.00">obe::Script::GameObject</text>
<text text-anchor="middle" x="1200.5" y="-7.5" font-family="Helvetica,sans-Serif" font-size="10.00">::loadGameObject</text>
</a>
</g>
</g>
<!-- Node778&#45;&gt;Node779 -->
<g id="edge14" class="edge"><title>Node778&#45;&gt;Node779</title>
<path fill="none" stroke="midnightblue" d="M1099.72,-15.5C1112.44,-15.5 1125.55,-15.5 1137.91,-15.5"/>
<polygon fill="midnightblue" stroke="midnightblue" points="1099.62,-12.0001 1089.62,-15.5 1099.62,-19.0001 1099.62,-12.0001"/>
</g>
<!-- Node780&#45;&gt;Node772 -->
<g id="edge16" class="edge"><title>Node780&#45;&gt;Node772</title>
<path fill="none" stroke="midnightblue" d="M917.346,-145.89C928.662,-146.592 940.384,-147.318 951.733,-148.021"/>
<polygon fill="midnightblue" stroke="midnightblue" points="917.286,-142.38 907.089,-145.255 916.853,-149.367 917.286,-142.38"/>
</g>
</g>
</svg>
        <g id="navigator" transform="translate(0 0)" fill="#404254">
                <rect fill="#f2f5e9" fill-opacity="0.5" stroke="#606060" stroke-width=".5" x="0" y="0" width="60" height="60"/>
                <use id="zoomplus" xlink:href="#zoomPlus" x="17" y="9" onmousedown="handleZoom(evt,'in')"/>
                <use id="zoomminus" xlink:href="#zoomMin" x="42" y="9" onmousedown="handleZoom(evt,'out')"/>
                <use id="reset" xlink:href="#resetDef" x="30" y="36" onmousedown="handleReset()"/>
                <g id="arrowUp" xlink:href="#dirArrow" transform="translate(30 24)" onmousedown="handlePan(0,-1)">
                  <use xlink:href="#rim" fill="#404040">
                        <set attributeName="fill" to="#808080" begin="arrowUp.mouseover" end="arrowUp.mouseout"/>
                  </use>
                  <path fill="none" stroke="white" stroke-width="1.5" d="M0,-3.0v7 M-2.5,-0.5L0,-3.0L2.5,-0.5"/>
                </g>
                <g id="arrowRight" xlink:href="#dirArrow" transform="rotate(90) translate(36 -43)" onmousedown="handlePan(1,0)">
                  <use xlink:href="#rim" fill="#404040">
                        <set attributeName="fill" to="#808080" begin="arrowRight.mouseover" end="arrowRight.mouseout"/>
                  </use>
                  <path fill="none" stroke="white" stroke-width="1.5" d="M0,-3.0v7 M-2.5,-0.5L0,-3.0L2.5,-0.5"/>
                </g>
                <g id="arrowDown" xlink:href="#dirArrow" transform="rotate(180) translate(-30 -48)" onmousedown="handlePan(0,1)">
                  <use xlink:href="#rim" fill="#404040">
                        <set attributeName="fill" to="#808080" begin="arrowDown.mouseover" end="arrowDown.mouseout"/>
                  </use>
                  <path fill="none" stroke="white" stroke-width="1.5" d="M0,-3.0v7 M-2.5,-0.5L0,-3.0L2.5,-0.5"/>
                </g>
                <g id="arrowLeft" xlink:href="#dirArrow" transform="rotate(270) translate(-36 17)" onmousedown="handlePan(-1,0)">
                  <use xlink:href="#rim" fill="#404040">
                        <set attributeName="fill" to="#808080" begin="arrowLeft.mouseover" end="arrowLeft.mouseout"/>
                  </use>
                  <path fill="none" stroke="white" stroke-width="1.5" d="M0,-3.0v7 M-2.5,-0.5L0,-3.0L2.5,-0.5"/>
                </g>
        </g>
        <svg viewBox="0 0 15 15" width="100%" height="30px" preserveAspectRatio="xMaxYMin meet">
         <g id="arrow_out" transform="scale(0.3 0.3)">
          <a xlink:href="classobe_1_1_collision_1_1_polygonal_collider_af37dad690ea1c82c605761b1d6218d14_icgraph_org.svg" target="_base">
           <rect id="button" ry="5" rx="5" y="6" x="6" height="38" width="38"
                fill="#f2f5e9" fill-opacity="0.5" stroke="#606060" stroke-width="1.0"/>
           <path id="arrow"
             d="M 11.500037,31.436501 C 11.940474,20.09759 22.043105,11.32322 32.158766,21.979434 L 37.068811,17.246167 C 37.068811,17.246167 37.088388,32 37.088388,32 L 22.160133,31.978069 C 22.160133,31.978069 26.997745,27.140456 26.997745,27.140456 C 18.528582,18.264221 13.291696,25.230495 11.500037,31.436501 z"
             style="fill:#404040;"/>
          </a>
         </g>
        </svg>
</svg>
