<?xml version="1.0" encoding="UTF-8" standalone="no"?>
<!DOCTYPE svg PUBLIC "-//W3C//DTD SVG 1.1//EN"
 "http://www.w3.org/Graphics/SVG/1.1/DTD/svg11.dtd">
<!-- Generated by graphviz version 2.38.0 (20140413.2041)
 -->
<!-- Title: obe::EditorTools::Thumbnailer::GetSpriteThumbnail Pages: 1 -->
<svg width="582pt" height="186pt"
 viewBox="0.00 0.00 582.00 186.00" xmlns="http://www.w3.org/2000/svg" xmlns:xlink="http://www.w3.org/1999/xlink">
<g id="graph0" class="graph" transform="scale(1 1) rotate(0) translate(4 182)">
<title>obe::EditorTools::Thumbnailer::GetSpriteThumbnail</title>
<!-- Node7 -->
<g id="node1" class="node"><title>Node7</title>
<polygon fill="#bfbfbf" stroke="black" points="0,-73.5 0,-103.5 146,-103.5 146,-73.5 0,-73.5"/>
<text text-anchor="start" x="8" y="-91.5" font-family="Helvetica,sans-Serif" font-size="10.00">obe::EditorTools::Thumbnailer</text>
<text text-anchor="middle" x="73" y="-80.5" font-family="Helvetica,sans-Serif" font-size="10.00">::GetSpriteThumbnail</text>
</g>
<!-- Node8 -->
<g id="node2" class="node"><title>Node8</title>
<g id="a_node2"><a xlink:href="classobe_1_1_system_1_1_path.html#a096ad4fa7397aa42fd73661b08f50e2a" target="_top" xlink:title="obe::System::Path::\lloadResource">
<polygon fill="none" stroke="black" points="186.5,-98.5 186.5,-128.5 290.5,-128.5 290.5,-98.5 186.5,-98.5"/>
<text text-anchor="start" x="194.5" y="-116.5" font-family="Helvetica,sans-Serif" font-size="10.00">obe::System::Path::</text>
<text text-anchor="middle" x="238.5" y="-105.5" font-family="Helvetica,sans-Serif" font-size="10.00">loadResource</text>
</a>
</g>
</g>
<!-- Node7&#45;&gt;Node8 -->
<g id="edge1" class="edge"><title>Node7&#45;&gt;Node8</title>
<path fill="none" stroke="midnightblue" d="M146.189,-99.5381C156.221,-101.072 166.447,-102.636 176.253,-104.135"/>
<polygon fill="midnightblue" stroke="midnightblue" points="175.879,-107.618 186.293,-105.67 176.937,-100.699 175.879,-107.618"/>
</g>
<!-- Node15 -->
<g id="node9" class="node"><title>Node15</title>
<g id="a_node9"><a xlink:href="namespaceobe_1_1_functions_1_1_string.html#aeae2b259a93c4d51a7151d92aabdc85a" target="_top" xlink:title="obe::Functions::String\l::split">
<polygon fill="none" stroke="black" points="182,-49.5 182,-79.5 295,-79.5 295,-49.5 182,-49.5"/>
<text text-anchor="start" x="190" y="-67.5" font-family="Helvetica,sans-Serif" font-size="10.00">obe::Functions::String</text>
<text text-anchor="middle" x="238.5" y="-56.5" font-family="Helvetica,sans-Serif" font-size="10.00">::split</text>
</a>
</g>
</g>
<!-- Node7&#45;&gt;Node15 -->
<g id="edge8" class="edge"><title>Node7&#45;&gt;Node15</title>
<path fill="none" stroke="midnightblue" d="M146.189,-77.9034C154.704,-76.6536 163.359,-75.3831 171.777,-74.1474"/>
<polygon fill="midnightblue" stroke="midnightblue" points="172.518,-77.5762 181.904,-72.6609 171.502,-70.6504 172.518,-77.5762"/>
</g>
<!-- Node9 -->
<g id="node3" class="node"><title>Node9</title>
<g id="a_node3"><a xlink:href="namespaceobe_1_1_functions_1_1_file.html#a5e850093b89dad14d6040f188c2f600c" target="_top" xlink:title="obe::Functions::File\l::fileExists">
<polygon fill="none" stroke="black" points="331,-122.5 331,-152.5 434,-152.5 434,-122.5 331,-122.5"/>
<text text-anchor="start" x="339" y="-140.5" font-family="Helvetica,sans-Serif" font-size="10.00">obe::Functions::File</text>
<text text-anchor="middle" x="382.5" y="-129.5" font-family="Helvetica,sans-Serif" font-size="10.00">::fileExists</text>
</a>
</g>
</g>
<!-- Node8&#45;&gt;Node9 -->
<g id="edge2" class="edge"><title>Node8&#45;&gt;Node9</title>
<path fill="none" stroke="midnightblue" d="M290.765,-122.165C300.537,-123.816 310.85,-125.559 320.88,-127.254"/>
<polygon fill="midnightblue" stroke="midnightblue" points="320.343,-130.713 330.786,-128.929 321.509,-123.811 320.343,-130.713"/>
</g>
<!-- Node10 -->
<g id="node4" class="node"><title>Node10</title>
<g id="a_node4"><a xlink:href="classaube_1_1_error_handler.html#a7c8d44a3e7f019646d289950abc5301b" target="_top" xlink:title="aube::ErrorHandler\l::Raise">
<polygon fill="none" stroke="black" points="333.5,-73.5 333.5,-103.5 431.5,-103.5 431.5,-73.5 333.5,-73.5"/>
<text text-anchor="start" x="341.5" y="-91.5" font-family="Helvetica,sans-Serif" font-size="10.00">aube::ErrorHandler</text>
<text text-anchor="middle" x="382.5" y="-80.5" font-family="Helvetica,sans-Serif" font-size="10.00">::Raise</text>
</a>
</g>
</g>
<!-- Node8&#45;&gt;Node10 -->
<g id="edge3" class="edge"><title>Node8&#45;&gt;Node10</title>
<path fill="none" stroke="midnightblue" d="M290.765,-104.474C301.24,-102.63 312.338,-100.676 323.043,-98.7917"/>
<polygon fill="midnightblue" stroke="midnightblue" points="323.911,-102.193 333.153,-97.0118 322.697,-95.2988 323.911,-102.193"/>
</g>
<!-- Node11 -->
<g id="node5" class="node"><title>Node11</title>
<g id="a_node5"><a xlink:href="classaube_1_1_error_message.html#a3a39b6fcd8fdb12eaf6383123535b8ca" target="_top" xlink:title="aube::ErrorMessage\l::getFile">
<polygon fill="none" stroke="black" points="470,-147.5 470,-177.5 574,-177.5 574,-147.5 470,-147.5"/>
<text text-anchor="start" x="478" y="-165.5" font-family="Helvetica,sans-Serif" font-size="10.00">aube::ErrorMessage</text>
<text text-anchor="middle" x="522" y="-154.5" font-family="Helvetica,sans-Serif" font-size="10.00">::getFile</text>
</a>
</g>
</g>
<!-- Node10&#45;&gt;Node11 -->
<g id="edge4" class="edge"><title>Node10&#45;&gt;Node11</title>
<path fill="none" stroke="midnightblue" d="M415.667,-103.537C421.839,-106.67 428.187,-110.068 434,-113.5 450.774,-123.404 453.128,-128.763 470,-138.5 472.503,-139.944 475.107,-141.375 477.756,-142.776"/>
<polygon fill="midnightblue" stroke="midnightblue" points="476.35,-145.987 486.85,-147.399 479.522,-139.747 476.35,-145.987"/>
</g>
<!-- Node12 -->
<g id="node6" class="node"><title>Node12</title>
<g id="a_node6"><a xlink:href="classaube_1_1_error_message.html#a9184cc96589578f434351c105b0cd5f7" target="_top" xlink:title="aube::ErrorMessage\l::getLocation">
<polygon fill="none" stroke="black" points="470,-98.5 470,-128.5 574,-128.5 574,-98.5 470,-98.5"/>
<text text-anchor="start" x="478" y="-116.5" font-family="Helvetica,sans-Serif" font-size="10.00">aube::ErrorMessage</text>
<text text-anchor="middle" x="522" y="-105.5" font-family="Helvetica,sans-Serif" font-size="10.00">::getLocation</text>
</a>
</g>
</g>
<!-- Node10&#45;&gt;Node12 -->
<g id="edge5" class="edge"><title>Node10&#45;&gt;Node12</title>
<path fill="none" stroke="midnightblue" d="M431.591,-97.2438C440.69,-98.8983 450.322,-100.65 459.763,-102.366"/>
<polygon fill="midnightblue" stroke="midnightblue" points="459.433,-105.863 469.898,-104.209 460.685,-98.9762 459.433,-105.863"/>
</g>
<!-- Node13 -->
<g id="node7" class="node"><title>Node13</title>
<g id="a_node7"><a xlink:href="classaube_1_1_error_message.html#a07927cb3e2d0712c459cc9e2b5f52696" target="_top" xlink:title="aube::ErrorMessage\l::getMessage">
<polygon fill="none" stroke="black" points="470,-49.5 470,-79.5 574,-79.5 574,-49.5 470,-49.5"/>
<text text-anchor="start" x="478" y="-67.5" font-family="Helvetica,sans-Serif" font-size="10.00">aube::ErrorMessage</text>
<text text-anchor="middle" x="522" y="-56.5" font-family="Helvetica,sans-Serif" font-size="10.00">::getMessage</text>
</a>
</g>
</g>
<!-- Node10&#45;&gt;Node13 -->
<g id="edge6" class="edge"><title>Node10&#45;&gt;Node13</title>
<path fill="none" stroke="midnightblue" d="M431.591,-80.106C440.69,-78.5177 450.322,-76.8365 459.763,-75.1886"/>
<polygon fill="midnightblue" stroke="midnightblue" points="460.649,-78.5871 469.898,-73.4197 459.445,-71.6913 460.649,-78.5871"/>
</g>
<!-- Node14 -->
<g id="node8" class="node"><title>Node14</title>
<g id="a_node8"><a xlink:href="classaube_1_1_error_message.html#a77c2f9b7e93542c958173b52da267989" target="_top" xlink:title="aube::ErrorMessage\l::getHints">
<polygon fill="none" stroke="black" points="470,-0.5 470,-30.5 574,-30.5 574,-0.5 470,-0.5"/>
<text text-anchor="start" x="478" y="-18.5" font-family="Helvetica,sans-Serif" font-size="10.00">aube::ErrorMessage</text>
<text text-anchor="middle" x="522" y="-7.5" font-family="Helvetica,sans-Serif" font-size="10.00">::getHints</text>
</a>
</g>
</g>
<!-- Node10&#45;&gt;Node14 -->
<g id="edge7" class="edge"><title>Node10&#45;&gt;Node14</title>
<path fill="none" stroke="midnightblue" d="M409.812,-73.4436C426.856,-63.8037 449.599,-51.1516 470,-40.5 473.343,-38.7543 476.826,-36.9722 480.332,-35.2034"/>
<polygon fill="midnightblue" stroke="midnightblue" points="482.201,-38.1827 489.587,-30.5871 479.076,-31.9188 482.201,-38.1827"/>
</g>
</g>
</svg>
