<?xml version="1.0" encoding="UTF-8" standalone="no"?>
<!DOCTYPE svg PUBLIC "-//W3C//DTD SVG 1.1//EN"
 "http://www.w3.org/Graphics/SVG/1.1/DTD/svg11.dtd">
<!-- Generated by graphviz version 2.38.0 (20140413.2041)
 -->
<!-- Title: obe::Input::InputAction::connect Pages: 1 -->
<!--zoomable 470 -->
<svg id="main" version="1.1" xmlns="http://www.w3.org/2000/svg" xmlns:xlink="http://www.w3.org/1999/xlink" xml:space="preserve" onload="init(evt)">
<style type="text/css"><![CDATA[
.edge:hover path { stroke: red; }
.edge:hover polygon { stroke: red; fill: red; }
.edge path { stroke: white; }
.edge polygon { stroke: white; fill: white; }
.node polygon { fill: white; }
]]></style>
<script type="text/javascript"><![CDATA[
var edges = document.getElementsByTagName('g');
if (edges && edges.length) {
  for (var i=0;i<edges.length;i++) {
    if (edges[i].id.substr(0,4)=='edge') {
      edges[i].setAttribute('class','edge');
    }
  }
}
]]></script>
        <defs>
                <circle id="rim" cx="0" cy="0" r="7"/>
                <circle id="rim2" cx="0" cy="0" r="3.5"/>
                <g id="zoomPlus">
                        <use xlink:href="#rim" fill="#404040">
                                <set attributeName="fill" to="#808080" begin="zoomplus.mouseover" end="zoomplus.mouseout"/>
                        </use>
                        <path d="M-4,0h8M0,-4v8" fill="none" stroke="white" stroke-width="1.5" pointer-events="none"/>
                </g>
                <g id="zoomMin">
                        <use xlink:href="#rim" fill="#404040">
                                <set attributeName="fill" to="#808080" begin="zoomminus.mouseover" end="zoomminus.mouseout"/>
                        </use>
                        <path d="M-4,0h8" fill="none" stroke="white" stroke-width="1.5" pointer-events="none"/>
                </g>
                <g id="dirArrow">
                        <path fill="none" stroke="white" stroke-width="1.5" d="M0,-3.0v7 M-2.5,-0.5L0,-3.0L2.5,-0.5"/>
                </g>
               <g id="resetDef">
                       <use xlink:href="#rim2" fill="#404040">
                               <set attributeName="fill" to="#808080" begin="reset.mouseover" end="reset.mouseout"/>
                       </use>
               </g>
        </defs>

<script type="text/javascript">
var viewWidth = 720;
var viewHeight = 470;
var sectionId = 'dynsection-9';
</script>
<script xlink:href="svgpan.js"/>
<svg id="graph" class="graph">
<g id="viewport">
<title>obe::Input::InputAction::connect</title>
<!-- Node41 -->
<g id="node1" class="node"><title>Node41</title>
<polygon fill="#bfbfbf" stroke="black" points="0,-220.5 0,-250.5 114,-250.5 114,-220.5 0,-220.5"/>
<text text-anchor="start" x="8" y="-238.5" font-family="Helvetica,sans-Serif" font-size="10.00">obe::Input::InputAction</text>
<text text-anchor="middle" x="57" y="-227.5" font-family="Helvetica,sans-Serif" font-size="10.00">::connect</text>
</g>
<!-- Node42 -->
<g id="node2" class="node"><title>Node42</title>
<g id="a_node2"><a xlink:href="namespaceobe_1_1_bindings_1_1_input_bindings.html#a3898ecb1ad8534de564c8153802dc789" target="_top" xlink:title="obe::Bindings::InputBindings\l::LoadInputAction">
<polygon fill="none" stroke="black" points="164.5,-431.5 164.5,-461.5 304.5,-461.5 304.5,-431.5 164.5,-431.5"/>
<text text-anchor="start" x="172.5" y="-449.5" font-family="Helvetica,sans-Serif" font-size="10.00">obe::Bindings::InputBindings</text>
<text text-anchor="middle" x="234.5" y="-438.5" font-family="Helvetica,sans-Serif" font-size="10.00">::LoadInputAction</text>
</a>
</g>
</g>
<!-- Node41&#45;&gt;Node42 -->
<g id="edge1" class="edge"><title>Node41&#45;&gt;Node42</title>
<path fill="none" stroke="midnightblue" d="M63.3887,-260.481C73.3624,-300.652 98.5448,-379.446 150,-422.5 154.28,-426.081 159.067,-429.129 164.126,-431.722"/>
<polygon fill="midnightblue" stroke="midnightblue" points="66.7806,-259.616 61.0714,-250.691 59.9688,-261.228 66.7806,-259.616"/>
</g>
<!-- Node45 -->
<g id="node5" class="node"><title>Node45</title>
<g id="a_node5"><a xlink:href="namespaceobe_1_1_editor.html#aa3cb1a8c423af767355cc211d0cfb805" target="_top" xlink:title="Connects all Colliders&#39; related Actions in the Editor. ">
<polygon fill="none" stroke="black" points="163.5,-382.5 163.5,-412.5 305.5,-412.5 305.5,-382.5 163.5,-382.5"/>
<text text-anchor="start" x="171.5" y="-400.5" font-family="Helvetica,sans-Serif" font-size="10.00">obe::Editor::connectColliders</text>
<text text-anchor="middle" x="234.5" y="-389.5" font-family="Helvetica,sans-Serif" font-size="10.00">Actions</text>
</a>
</g>
</g>
<!-- Node41&#45;&gt;Node45 -->
<g id="edge4" class="edge"><title>Node41&#45;&gt;Node45</title>
<path fill="none" stroke="midnightblue" d="M69.2257,-260.042C83.8655,-289.489 112.142,-338.509 150,-367.5 157.949,-373.587 167.245,-378.518 176.691,-382.486"/>
<polygon fill="midnightblue" stroke="midnightblue" points="72.2922,-258.343 64.7895,-250.863 65.9897,-261.39 72.2922,-258.343"/>
</g>
<!-- Node46 -->
<g id="node6" class="node"><title>Node46</title>
<g id="a_node6"><a xlink:href="namespaceobe_1_1_editor.html#a9009207671e71dccb68a31ea2362e9ef" target="_top" xlink:title="Starts the map edition. ">
<polygon fill="none" stroke="black" points="355,-222 355,-241 459,-241 459,-222 355,-222"/>
<text text-anchor="middle" x="407" y="-229" font-family="Helvetica,sans-Serif" font-size="10.00">obe::Editor::editMap</text>
</a>
</g>
</g>
<!-- Node41&#45;&gt;Node46 -->
<g id="edge19" class="edge"><title>Node41&#45;&gt;Node46</title>
<path fill="none" stroke="midnightblue" d="M71.9314,-259.478C87.4776,-283.584 115.097,-319.288 150,-334.5 218.856,-364.51 250.875,-366.133 319,-334.5 361.46,-314.784 390.677,-263.008 401.427,-241.3"/>
<polygon fill="midnightblue" stroke="midnightblue" points="74.831,-257.513 66.5743,-250.874 68.8887,-261.213 74.831,-257.513"/>
</g>
<!-- Node48 -->
<g id="node8" class="node"><title>Node48</title>
<g id="a_node8"><a xlink:href="namespaceobe_1_1_editor.html#a735e212bb83551b65407b45dba110cc6" target="_top" xlink:title="obe::Editor::connectCamMovement\lActions">
<polygon fill="none" stroke="black" points="150,-294.5 150,-324.5 319,-324.5 319,-294.5 150,-294.5"/>
<text text-anchor="start" x="158" y="-312.5" font-family="Helvetica,sans-Serif" font-size="10.00">obe::Editor::connectCamMovement</text>
<text text-anchor="middle" x="234.5" y="-301.5" font-family="Helvetica,sans-Serif" font-size="10.00">Actions</text>
</a>
</g>
</g>
<!-- Node41&#45;&gt;Node48 -->
<g id="edge9" class="edge"><title>Node41&#45;&gt;Node48</title>
<path fill="none" stroke="midnightblue" d="M91.2962,-255.885C108.405,-265.762 129.846,-277.243 150,-285.5 157.956,-288.76 166.508,-291.757 174.997,-294.449"/>
<polygon fill="midnightblue" stroke="midnightblue" points="92.6695,-252.633 82.2729,-250.593 89.1282,-258.671 92.6695,-252.633"/>
</g>
<!-- Node49 -->
<g id="node9" class="node"><title>Node49</title>
<g id="a_node9"><a xlink:href="namespaceobe_1_1_editor.html#a2d8998fcd282e0d972194002d2a43bb2" target="_top" xlink:title="obe::Editor::connectGrid\lActions">
<polygon fill="none" stroke="black" points="173.5,-245.5 173.5,-275.5 295.5,-275.5 295.5,-245.5 173.5,-245.5"/>
<text text-anchor="start" x="181.5" y="-263.5" font-family="Helvetica,sans-Serif" font-size="10.00">obe::Editor::connectGrid</text>
<text text-anchor="middle" x="234.5" y="-252.5" font-family="Helvetica,sans-Serif" font-size="10.00">Actions</text>
</a>
</g>
</g>
<!-- Node41&#45;&gt;Node49 -->
<g id="edge11" class="edge"><title>Node41&#45;&gt;Node49</title>
<path fill="none" stroke="midnightblue" d="M123.969,-244.897C140.215,-247.212 157.526,-249.677 173.474,-251.949"/>
<polygon fill="midnightblue" stroke="midnightblue" points="124.406,-241.424 114.012,-243.479 123.418,-248.354 124.406,-241.424"/>
</g>
<!-- Node50 -->
<g id="node10" class="node"><title>Node50</title>
<g id="a_node10"><a xlink:href="namespaceobe_1_1_editor.html#a182ecd233967e437f70f9cdeae0e7144" target="_top" xlink:title="obe::Editor::connectMenu\lActions">
<polygon fill="none" stroke="black" points="170.5,-196.5 170.5,-226.5 298.5,-226.5 298.5,-196.5 170.5,-196.5"/>
<text text-anchor="start" x="178.5" y="-214.5" font-family="Helvetica,sans-Serif" font-size="10.00">obe::Editor::connectMenu</text>
<text text-anchor="middle" x="234.5" y="-203.5" font-family="Helvetica,sans-Serif" font-size="10.00">Actions</text>
</a>
</g>
</g>
<!-- Node41&#45;&gt;Node50 -->
<g id="edge13" class="edge"><title>Node41&#45;&gt;Node50</title>
<path fill="none" stroke="midnightblue" d="M124.305,-226.433C139.415,-224.366 155.429,-222.176 170.401,-220.129"/>
<polygon fill="midnightblue" stroke="midnightblue" points="123.445,-223.018 114.012,-227.84 124.394,-229.953 123.445,-223.018"/>
</g>
<!-- Node51 -->
<g id="node11" class="node"><title>Node51</title>
<g id="a_node11"><a xlink:href="namespaceobe_1_1_editor.html#a19631d61170bd127227951fc535189ea" target="_top" xlink:title="obe::Editor::connectSave\lActions">
<polygon fill="none" stroke="black" points="172,-147.5 172,-177.5 297,-177.5 297,-147.5 172,-147.5"/>
<text text-anchor="start" x="180" y="-165.5" font-family="Helvetica,sans-Serif" font-size="10.00">obe::Editor::connectSave</text>
<text text-anchor="middle" x="234.5" y="-154.5" font-family="Helvetica,sans-Serif" font-size="10.00">Actions</text>
</a>
</g>
</g>
<!-- Node41&#45;&gt;Node51 -->
<g id="edge15" class="edge"><title>Node41&#45;&gt;Node51</title>
<path fill="none" stroke="midnightblue" d="M92.5216,-215.498C109.477,-206.193 130.425,-195.453 150,-187.5 158.832,-183.912 168.374,-180.576 177.742,-177.585"/>
<polygon fill="midnightblue" stroke="midnightblue" points="90.5829,-212.571 83.5471,-220.492 93.9871,-218.688 90.5829,-212.571"/>
</g>
<!-- Node52 -->
<g id="node12" class="node"><title>Node52</title>
<g id="a_node12"><a xlink:href="namespaceobe_1_1_editor.html#a49bd88e66380497c81af8fc4d8c8b864" target="_top" xlink:title="Connects Console&#39;s related Triggers. ">
<polygon fill="none" stroke="black" points="169,-98.5 169,-128.5 300,-128.5 300,-98.5 169,-98.5"/>
<text text-anchor="start" x="177" y="-116.5" font-family="Helvetica,sans-Serif" font-size="10.00">obe::Editor::connectGame</text>
<text text-anchor="middle" x="234.5" y="-105.5" font-family="Helvetica,sans-Serif" font-size="10.00">ConsoleActions</text>
</a>
</g>
</g>
<!-- Node41&#45;&gt;Node52 -->
<g id="edge17" class="edge"><title>Node41&#45;&gt;Node52</title>
<path fill="none" stroke="midnightblue" d="M74.3838,-212.194C91.0311,-190.167 118.758,-157.714 150,-138.5 156.187,-134.695 162.99,-131.438 169.959,-128.657"/>
<polygon fill="midnightblue" stroke="midnightblue" points="71.4798,-210.235 68.3578,-220.359 77.112,-214.392 71.4798,-210.235"/>
</g>
<!-- Node53 -->
<g id="node13" class="node"><title>Node53</title>
<g id="a_node13"><a xlink:href="namespaceobe_1_1_editor.html#a4513c77341144adcdbdf7114e1f6f605" target="_top" xlink:title="obe::Editor::connectSprite\lLayerActions">
<polygon fill="none" stroke="black" points="169.5,-49.5 169.5,-79.5 299.5,-79.5 299.5,-49.5 169.5,-49.5"/>
<text text-anchor="start" x="177.5" y="-67.5" font-family="Helvetica,sans-Serif" font-size="10.00">obe::Editor::connectSprite</text>
<text text-anchor="middle" x="234.5" y="-56.5" font-family="Helvetica,sans-Serif" font-size="10.00">LayerActions</text>
</a>
</g>
</g>
<!-- Node41&#45;&gt;Node53 -->
<g id="edge20" class="edge"><title>Node41&#45;&gt;Node53</title>
<path fill="none" stroke="midnightblue" d="M67.2518,-210.457C80.5726,-177.833 108.239,-121.228 150,-89.5 155.784,-85.1059 162.334,-81.4807 169.16,-78.4905"/>
<polygon fill="midnightblue" stroke="midnightblue" points="63.8441,-209.558 63.4312,-220.144 70.356,-212.126 63.8441,-209.558"/>
</g>
<!-- Node54 -->
<g id="node14" class="node"><title>Node54</title>
<g id="a_node14"><a xlink:href="namespaceobe_1_1_editor.html#ab6bfdaa8e8de8a30a00d270cd9d70d12" target="_top" xlink:title="obe::Editor::connectSprite\lActions">
<polygon fill="none" stroke="black" points="169.5,-0.5 169.5,-30.5 299.5,-30.5 299.5,-0.5 169.5,-0.5"/>
<text text-anchor="start" x="177.5" y="-18.5" font-family="Helvetica,sans-Serif" font-size="10.00">obe::Editor::connectSprite</text>
<text text-anchor="middle" x="234.5" y="-7.5" font-family="Helvetica,sans-Serif" font-size="10.00">Actions</text>
</a>
</g>
</g>
<!-- Node41&#45;&gt;Node54 -->
<g id="edge22" class="edge"><title>Node41&#45;&gt;Node54</title>
<path fill="none" stroke="midnightblue" d="M62.7587,-210.534C72.02,-168.847 96.447,-85.1507 150,-39.5 155.739,-34.6075 162.422,-30.7106 169.461,-27.607"/>
<polygon fill="midnightblue" stroke="midnightblue" points="59.3143,-209.906 60.6757,-220.413 66.1637,-211.35 59.3143,-209.906"/>
</g>
<!-- Node43 -->
<g id="node3" class="node"><title>Node43</title>
<g id="a_node3"><a xlink:href="namespaceobe_1_1_bindings.html#a41d33207a0199f125c75a0f70a4a3ba8" target="_top" xlink:title="To call when the engine starts, indexes all Lua bindings. ">
<polygon fill="none" stroke="black" points="495,-338 495,-357 638,-357 638,-338 495,-338"/>
<text text-anchor="middle" x="566.5" y="-345" font-family="Helvetica,sans-Serif" font-size="10.00">obe::Bindings::IndexBindings</text>
</a>
</g>
</g>
<!-- Node42&#45;&gt;Node43 -->
<g id="edge2" class="edge"><title>Node42&#45;&gt;Node43</title>
<path fill="none" stroke="midnightblue" d="M298.591,-428.478C305.483,-426.476 312.392,-424.455 319,-422.5 396.854,-399.469 488.219,-371.396 534.803,-357.007"/>
<polygon fill="midnightblue" stroke="midnightblue" points="297.175,-425.245 288.542,-431.388 299.121,-431.969 297.175,-425.245"/>
</g>
<!-- Node44 -->
<g id="node4" class="node"><title>Node44</title>
<g id="a_node4"><a xlink:href="_ob_engine_8cpp.html#a3c04138a5bfe5d72780bb7e82a18e627" target="_top" xlink:title="main">
<polygon fill="none" stroke="black" points="674,-260 674,-279 712,-279 712,-260 674,-260"/>
<text text-anchor="middle" x="693" y="-267" font-family="Helvetica,sans-Serif" font-size="10.00">main</text>
</a>
</g>
</g>
<!-- Node43&#45;&gt;Node44 -->
<g id="edge3" class="edge"><title>Node43&#45;&gt;Node44</title>
<path fill="none" stroke="midnightblue" d="M591.341,-332.563C616.455,-316.829 655.259,-292.518 676.609,-279.143"/>
<polygon fill="midnightblue" stroke="midnightblue" points="589.382,-329.66 582.766,-337.936 593.099,-335.592 589.382,-329.66"/>
</g>
<!-- Node45&#45;&gt;Node46 -->
<g id="edge5" class="edge"><title>Node45&#45;&gt;Node46</title>
<path fill="none" stroke="midnightblue" d="M302.669,-377.971C308.473,-374.942 314.021,-371.471 319,-367.5 363.92,-331.67 392.686,-266.014 402.365,-241.276"/>
<polygon fill="midnightblue" stroke="midnightblue" points="300.918,-374.927 293.382,-382.375 303.917,-381.252 300.918,-374.927"/>
</g>
<!-- Node46&#45;&gt;Node44 -->
<g id="edge8" class="edge"><title>Node46&#45;&gt;Node44</title>
<path fill="none" stroke="midnightblue" d="M456.924,-243.252C469.294,-245.929 482.59,-248.554 495,-250.5 560.514,-260.776 639.215,-266.357 673.983,-268.481"/>
<polygon fill="midnightblue" stroke="midnightblue" points="457.312,-239.753 446.791,-241.006 455.797,-246.587 457.312,-239.753"/>
</g>
<!-- Node47 -->
<g id="node7" class="node"><title>Node47</title>
<g id="a_node7"><a xlink:href="namespaceobe_1_1_modes.html#a6a8b08eee511d4895c4da96d4ba223a6" target="_top" xlink:title="Starts the development Menu where you can starts other menus from. ">
<polygon fill="none" stroke="black" points="500,-222 500,-241 633,-241 633,-222 500,-222"/>
<text text-anchor="middle" x="566.5" y="-229" font-family="Helvetica,sans-Serif" font-size="10.00">obe::Modes::startDevMenu</text>
</a>
</g>
</g>
<!-- Node46&#45;&gt;Node47 -->
<g id="edge6" class="edge"><title>Node46&#45;&gt;Node47</title>
<path fill="none" stroke="midnightblue" d="M469.41,-231.5C479.434,-231.5 489.853,-231.5 499.972,-231.5"/>
<polygon fill="midnightblue" stroke="midnightblue" points="469.136,-228 459.136,-231.5 469.136,-235 469.136,-228"/>
</g>
<!-- Node47&#45;&gt;Node44 -->
<g id="edge7" class="edge"><title>Node47&#45;&gt;Node44</title>
<path fill="none" stroke="midnightblue" d="M608.704,-244.076C630.716,-250.795 656.707,-258.728 673.73,-263.924"/>
<polygon fill="midnightblue" stroke="midnightblue" points="609.503,-240.661 598.917,-241.089 607.459,-247.356 609.503,-240.661"/>
</g>
<!-- Node48&#45;&gt;Node46 -->
<g id="edge10" class="edge"><title>Node48&#45;&gt;Node46</title>
<path fill="none" stroke="midnightblue" d="M305.251,-291.039C309.957,-289.309 314.58,-287.462 319,-285.5 346.948,-273.097 376.614,-252.984 393.073,-241.12"/>
<polygon fill="midnightblue" stroke="midnightblue" points="303.811,-287.834 295.516,-294.425 306.11,-294.445 303.811,-287.834"/>
</g>
<!-- Node49&#45;&gt;Node46 -->
<g id="edge12" class="edge"><title>Node49&#45;&gt;Node46</title>
<path fill="none" stroke="midnightblue" d="M305.743,-248.552C322.212,-245.751 339.452,-242.819 354.9,-240.191"/>
<polygon fill="midnightblue" stroke="midnightblue" points="304.883,-245.148 295.612,-250.276 306.057,-252.049 304.883,-245.148"/>
</g>
<!-- Node50&#45;&gt;Node46 -->
<g id="edge14" class="edge"><title>Node50&#45;&gt;Node46</title>
<path fill="none" stroke="midnightblue" d="M308.651,-220.081C324.247,-221.91 340.395,-223.804 354.949,-225.512"/>
<polygon fill="midnightblue" stroke="midnightblue" points="308.843,-216.579 298.503,-218.89 308.028,-223.532 308.843,-216.579"/>
</g>
<!-- Node51&#45;&gt;Node46 -->
<g id="edge16" class="edge"><title>Node51&#45;&gt;Node46</title>
<path fill="none" stroke="midnightblue" d="M300.62,-180.765C306.883,-182.89 313.097,-185.145 319,-187.5 344.311,-197.597 372.196,-212.397 389.406,-221.991"/>
<polygon fill="midnightblue" stroke="midnightblue" points="301.366,-177.327 290.773,-177.538 299.186,-183.979 301.366,-177.327"/>
</g>
<!-- Node52&#45;&gt;Node46 -->
<g id="edge18" class="edge"><title>Node52&#45;&gt;Node46</title>
<path fill="none" stroke="midnightblue" d="M308.388,-132.709C312.062,-134.481 315.624,-136.407 319,-138.5 355.458,-161.095 386.622,-202.852 399.578,-221.753"/>
<polygon fill="midnightblue" stroke="midnightblue" points="309.63,-129.432 299.067,-128.615 306.815,-135.841 309.63,-129.432"/>
</g>
<!-- Node53&#45;&gt;Node46 -->
<g id="edge21" class="edge"><title>Node53&#45;&gt;Node46</title>
<path fill="none" stroke="midnightblue" d="M308.94,-82.9109C312.472,-84.8882 315.852,-87.0771 319,-89.5 366.425,-126.004 394.038,-196.317 402.871,-221.897"/>
<polygon fill="midnightblue" stroke="midnightblue" points="310.408,-79.7319 299.895,-78.4185 307.294,-86.0013 310.408,-79.7319"/>
</g>
<!-- Node54&#45;&gt;Node46 -->
<g id="edge23" class="edge"><title>Node54&#45;&gt;Node46</title>
<path fill="none" stroke="midnightblue" d="M308.568,-32.1016C312.278,-34.2725 315.79,-36.7264 319,-39.5 378.257,-90.7033 399.239,-190.469 404.528,-221.826"/>
<polygon fill="midnightblue" stroke="midnightblue" points="310.102,-28.9552 299.603,-27.5325 306.923,-35.1919 310.102,-28.9552"/>
</g>
</g>
</svg>
        <g id="navigator" transform="translate(0 0)" fill="#404254">
                <rect fill="#f2f5e9" fill-opacity="0.5" stroke="#606060" stroke-width=".5" x="0" y="0" width="60" height="60"/>
                <use id="zoomplus" xlink:href="#zoomPlus" x="17" y="9" onmousedown="handleZoom(evt,'in')"/>
                <use id="zoomminus" xlink:href="#zoomMin" x="42" y="9" onmousedown="handleZoom(evt,'out')"/>
                <use id="reset" xlink:href="#resetDef" x="30" y="36" onmousedown="handleReset()"/>
                <g id="arrowUp" xlink:href="#dirArrow" transform="translate(30 24)" onmousedown="handlePan(0,-1)">
                  <use xlink:href="#rim" fill="#404040">
                        <set attributeName="fill" to="#808080" begin="arrowUp.mouseover" end="arrowUp.mouseout"/>
                  </use>
                  <path fill="none" stroke="white" stroke-width="1.5" d="M0,-3.0v7 M-2.5,-0.5L0,-3.0L2.5,-0.5"/>
                </g>
                <g id="arrowRight" xlink:href="#dirArrow" transform="rotate(90) translate(36 -43)" onmousedown="handlePan(1,0)">
                  <use xlink:href="#rim" fill="#404040">
                        <set attributeName="fill" to="#808080" begin="arrowRight.mouseover" end="arrowRight.mouseout"/>
                  </use>
                  <path fill="none" stroke="white" stroke-width="1.5" d="M0,-3.0v7 M-2.5,-0.5L0,-3.0L2.5,-0.5"/>
                </g>
                <g id="arrowDown" xlink:href="#dirArrow" transform="rotate(180) translate(-30 -48)" onmousedown="handlePan(0,1)">
                  <use xlink:href="#rim" fill="#404040">
                        <set attributeName="fill" to="#808080" begin="arrowDown.mouseover" end="arrowDown.mouseout"/>
                  </use>
                  <path fill="none" stroke="white" stroke-width="1.5" d="M0,-3.0v7 M-2.5,-0.5L0,-3.0L2.5,-0.5"/>
                </g>
                <g id="arrowLeft" xlink:href="#dirArrow" transform="rotate(270) translate(-36 17)" onmousedown="handlePan(-1,0)">
                  <use xlink:href="#rim" fill="#404040">
                        <set attributeName="fill" to="#808080" begin="arrowLeft.mouseover" end="arrowLeft.mouseout"/>
                  </use>
                  <path fill="none" stroke="white" stroke-width="1.5" d="M0,-3.0v7 M-2.5,-0.5L0,-3.0L2.5,-0.5"/>
                </g>
        </g>
        <svg viewBox="0 0 15 15" width="100%" height="30px" preserveAspectRatio="xMaxYMin meet">
         <g id="arrow_out" transform="scale(0.3 0.3)">
          <a xlink:href="classobe_1_1_input_1_1_input_action_af1d91783e1b5124c01208f5337823edf_icgraph_org.svg" target="_base">
           <rect id="button" ry="5" rx="5" y="6" x="6" height="38" width="38"
                fill="#f2f5e9" fill-opacity="0.5" stroke="#606060" stroke-width="1.0"/>
           <path id="arrow"
             d="M 11.500037,31.436501 C 11.940474,20.09759 22.043105,11.32322 32.158766,21.979434 L 37.068811,17.246167 C 37.068811,17.246167 37.088388,32 37.088388,32 L 22.160133,31.978069 C 22.160133,31.978069 26.997745,27.140456 26.997745,27.140456 C 18.528582,18.264221 13.291696,25.230495 11.500037,31.436501 z"
             style="fill:#404040;"/>
          </a>
         </g>
        </svg>
</svg>
