<?xml version="1.0" encoding="UTF-8" standalone="no"?>
<!DOCTYPE svg PUBLIC "-//W3C//DTD SVG 1.1//EN"
 "http://www.w3.org/Graphics/SVG/1.1/DTD/svg11.dtd">
<!-- Generated by graphviz version 2.38.0 (20140413.2041)
 -->
<!-- Title: vili::LinkAttribute::apply Pages: 1 -->
<!--zoomable 757 -->
<svg id="main" version="1.1" xmlns="http://www.w3.org/2000/svg" xmlns:xlink="http://www.w3.org/1999/xlink" xml:space="preserve" onload="init(evt)">
<style type="text/css"><![CDATA[
.edge:hover path { stroke: red; }
.edge:hover polygon { stroke: red; fill: red; }
.edge path { stroke: white; }
.edge polygon { stroke: white; fill: white; }
]]></style>
<script type="text/javascript"><![CDATA[
var edges = document.getElementsByTagName('g');
if (edges && edges.length) {
  for (var i=0;i<edges.length;i++) {
    if (edges[i].id.substr(0,4)=='edge') {
      edges[i].setAttribute('class','edge');
    }
  }
}
]]></script>
        <defs>
                <circle id="rim" cx="0" cy="0" r="7"/>
                <circle id="rim2" cx="0" cy="0" r="3.5"/>
                <g id="zoomPlus">
                        <use xlink:href="#rim" fill="#404040">
                                <set attributeName="fill" to="#808080" begin="zoomplus.mouseover" end="zoomplus.mouseout"/>
                        </use>
                        <path d="M-4,0h8M0,-4v8" fill="none" stroke="white" stroke-width="1.5" pointer-events="none"/>
                </g>
                <g id="zoomMin">
                        <use xlink:href="#rim" fill="#404040">
                                <set attributeName="fill" to="#808080" begin="zoomminus.mouseover" end="zoomminus.mouseout"/>
                        </use>
                        <path d="M-4,0h8" fill="none" stroke="white" stroke-width="1.5" pointer-events="none"/>
                </g>
                <g id="dirArrow">
                        <path fill="none" stroke="white" stroke-width="1.5" d="M0,-3.0v7 M-2.5,-0.5L0,-3.0L2.5,-0.5"/>
                </g>
               <g id="resetDef">
                       <use xlink:href="#rim2" fill="#404040">
                               <set attributeName="fill" to="#808080" begin="reset.mouseover" end="reset.mouseout"/>
                       </use>
               </g>
        </defs>

<script type="text/javascript">
var viewWidth = 1013;
var viewHeight = 757;
var sectionId = 'dynsection-2';
</script>
<script xlink:href="svgpan.js"/>
<svg id="graph" class="graph">
<g id="viewport">
<title>vili::LinkAttribute::apply</title>
<!-- Node2 -->
<g id="node1" class="node"><title>Node2</title>
<polygon fill="#bfbfbf" stroke="black" points="0,-202 0,-232 88,-232 88,-202 0,-202"/>
<text text-anchor="start" x="8" y="-220" font-family="Helvetica,sans-Serif" font-size="10.00">vili::LinkAttribute</text>
<text text-anchor="middle" x="44" y="-209" font-family="Helvetica,sans-Serif" font-size="10.00">::apply</text>
</g>
<!-- Node3 -->
<g id="node2" class="node"><title>Node3</title>
<g id="a_node2"><a xlink:href="classvili_1_1_complex_attribute.html#a8f1ac32c86502ab3b6c38d82ff09174c" target="_top" xlink:title="vili::ComplexAttribute\l::deleteLinkAttribute">
<polygon fill="none" stroke="black" points="124,-644 124,-674 232,-674 232,-644 124,-644"/>
<text text-anchor="start" x="132" y="-662" font-family="Helvetica,sans-Serif" font-size="10.00">vili::ComplexAttribute</text>
<text text-anchor="middle" x="178" y="-651" font-family="Helvetica,sans-Serif" font-size="10.00">::deleteLinkAttribute</text>
</a>
</g>
</g>
<!-- Node2&#45;&gt;Node3 -->
<g id="edge1" class="edge"><title>Node2&#45;&gt;Node3</title>
<path fill="none" stroke="midnightblue" d="M49.5437,-232.215C68.9806,-297.299 145.242,-552.66 169.528,-633.981"/>
<polygon fill="midnightblue" stroke="midnightblue" points="166.26,-635.269 172.475,-643.849 172.967,-633.266 166.26,-635.269"/>
</g>
<!-- Node7 -->
<g id="node6" class="node"><title>Node7</title>
<g id="a_node6"><a xlink:href="classvili_1_1_link_attribute.html#a9394a299c1f4ac3aca74adbbfab8be86" target="_top" xlink:title="vili::LinkAttribute\l::getTarget">
<polygon fill="none" stroke="black" points="134,-294 134,-324 222,-324 222,-294 134,-294"/>
<text text-anchor="start" x="142" y="-312" font-family="Helvetica,sans-Serif" font-size="10.00">vili::LinkAttribute</text>
<text text-anchor="middle" x="178" y="-301" font-family="Helvetica,sans-Serif" font-size="10.00">::getTarget</text>
</a>
</g>
</g>
<!-- Node2&#45;&gt;Node7 -->
<g id="edge5" class="edge"><title>Node2&#45;&gt;Node7</title>
<path fill="none" stroke="midnightblue" d="M66.7971,-232.192C88.6751,-247.44 122.546,-271.047 146.963,-288.065"/>
<polygon fill="midnightblue" stroke="midnightblue" points="144.965,-290.939 155.171,-293.786 148.968,-285.196 144.965,-290.939"/>
</g>
<!-- Node22 -->
<g id="node21" class="node"><title>Node22</title>
<g id="a_node21"><a xlink:href="classvili_1_1_attribute.html#aecd24fafcb10f21a7759de0bfcf5cd26" target="_top" xlink:title="vili::Attribute::getType">
<polygon fill="none" stroke="black" points="545,-153.5 545,-172.5 655,-172.5 655,-153.5 545,-153.5"/>
<text text-anchor="middle" x="600" y="-160.5" font-family="Helvetica,sans-Serif" font-size="10.00">vili::Attribute::getType</text>
</a>
</g>
</g>
<!-- Node2&#45;&gt;Node22 -->
<g id="edge43" class="edge"><title>Node2&#45;&gt;Node22</title>
<path fill="none" stroke="midnightblue" d="M80.0789,-201.881C123.313,-184.143 199.479,-155.788 268,-145 361.007,-130.357 470.322,-141.781 537.116,-151.936"/>
<polygon fill="midnightblue" stroke="midnightblue" points="536.638,-155.403 547.058,-153.486 537.717,-148.487 536.638,-155.403"/>
</g>
<!-- Node33 -->
<g id="node32" class="node"><title>Node33</title>
<g id="a_node32"><a xlink:href="classvili_1_1_link_attribute.html#af81f90685c7df43ba5dd96bac6ec3008" target="_top" xlink:title="vili::LinkAttribute\l::copy">
<polygon fill="none" stroke="black" points="418,-67 418,-97 506,-97 506,-67 418,-67"/>
<text text-anchor="start" x="426" y="-85" font-family="Helvetica,sans-Serif" font-size="10.00">vili::LinkAttribute</text>
<text text-anchor="middle" x="462" y="-74" font-family="Helvetica,sans-Serif" font-size="10.00">::copy</text>
</a>
</g>
</g>
<!-- Node2&#45;&gt;Node33 -->
<g id="edge44" class="edge"><title>Node2&#45;&gt;Node33</title>
<path fill="none" stroke="midnightblue" d="M51.347,-201.981C62.2821,-178.207 87.1115,-132.502 124,-112 213.611,-62.1947 337.683,-66.3582 407.569,-74.0508"/>
<polygon fill="midnightblue" stroke="midnightblue" points="407.553,-77.5726 417.891,-75.2566 408.365,-70.6199 407.553,-77.5726"/>
</g>
<!-- Node4 -->
<g id="node3" class="node"><title>Node4</title>
<g id="a_node3"><a xlink:href="namespacevili_1_1_functions_1_1_vector.html#aa9f0dd6b1c4be1e3d86846944329d9f2" target="_top" xlink:title="vili::Functions::Vector\l::isInList">
<polygon fill="none" stroke="black" points="269,-718 269,-748 379,-748 379,-718 269,-718"/>
<text text-anchor="start" x="277" y="-736" font-family="Helvetica,sans-Serif" font-size="10.00">vili::Functions::Vector</text>
<text text-anchor="middle" x="324" y="-725" font-family="Helvetica,sans-Serif" font-size="10.00">::isInList</text>
</a>
</g>
</g>
<!-- Node3&#45;&gt;Node4 -->
<g id="edge2" class="edge"><title>Node3&#45;&gt;Node4</title>
<path fill="none" stroke="midnightblue" d="M204.339,-674.132C221.951,-684.428 246.103,-698.106 268,-709 271.126,-710.555 274.376,-712.115 277.665,-713.651"/>
<polygon fill="midnightblue" stroke="midnightblue" points="276.411,-716.926 286.962,-717.893 279.317,-710.557 276.411,-716.926"/>
</g>
<!-- Node5 -->
<g id="node4" class="node"><title>Node5</title>
<g id="a_node4"><a xlink:href="classvili_1_1_complex_attribute.html#ac32300595ce951f6d00a5f1165980b61" target="_top" xlink:title="vili::ComplexAttribute\l::getAll">
<polygon fill="none" stroke="black" points="270,-669 270,-699 378,-699 378,-669 270,-669"/>
<text text-anchor="start" x="278" y="-687" font-family="Helvetica,sans-Serif" font-size="10.00">vili::ComplexAttribute</text>
<text text-anchor="middle" x="324" y="-676" font-family="Helvetica,sans-Serif" font-size="10.00">::getAll</text>
</a>
</g>
</g>
<!-- Node3&#45;&gt;Node5 -->
<g id="edge3" class="edge"><title>Node3&#45;&gt;Node5</title>
<path fill="none" stroke="midnightblue" d="M232.211,-668.238C241.059,-669.774 250.314,-671.381 259.389,-672.956"/>
<polygon fill="midnightblue" stroke="midnightblue" points="259.075,-676.454 269.527,-674.716 260.273,-669.557 259.075,-676.454"/>
</g>
<!-- Node6 -->
<g id="node5" class="node"><title>Node6</title>
<g id="a_node5"><a xlink:href="namespacevili_1_1_functions_1_1_vector.html#a9f11b4d9b535b580a613a064d18b9caa" target="_top" xlink:title="vili::Functions::Vector\l::indexOfElement">
<polygon fill="none" stroke="black" points="269,-620 269,-650 379,-650 379,-620 269,-620"/>
<text text-anchor="start" x="277" y="-638" font-family="Helvetica,sans-Serif" font-size="10.00">vili::Functions::Vector</text>
<text text-anchor="middle" x="324" y="-627" font-family="Helvetica,sans-Serif" font-size="10.00">::indexOfElement</text>
</a>
</g>
</g>
<!-- Node3&#45;&gt;Node6 -->
<g id="edge4" class="edge"><title>Node3&#45;&gt;Node6</title>
<path fill="none" stroke="midnightblue" d="M232.211,-650.131C240.826,-648.696 249.827,-647.195 258.672,-645.721"/>
<polygon fill="midnightblue" stroke="midnightblue" points="259.274,-649.169 268.563,-644.073 258.124,-642.265 259.274,-649.169"/>
</g>
<!-- Node8 -->
<g id="node7" class="node"><title>Node8</title>
<g id="a_node7"><a xlink:href="classvili_1_1_complex_attribute.html#a079cdf7cb1a71858137ad16b1d48a174" target="_top" xlink:title="vili::ComplexAttribute\l::contains">
<polygon fill="none" stroke="black" points="270,-357 270,-387 378,-387 378,-357 270,-357"/>
<text text-anchor="start" x="278" y="-375" font-family="Helvetica,sans-Serif" font-size="10.00">vili::ComplexAttribute</text>
<text text-anchor="middle" x="324" y="-364" font-family="Helvetica,sans-Serif" font-size="10.00">::contains</text>
</a>
</g>
</g>
<!-- Node7&#45;&gt;Node8 -->
<g id="edge6" class="edge"><title>Node7&#45;&gt;Node8</title>
<path fill="none" stroke="midnightblue" d="M213.492,-324.09C233.118,-332.676 257.902,-343.52 278.927,-352.718"/>
<polygon fill="midnightblue" stroke="midnightblue" points="277.726,-356.013 288.291,-356.815 280.532,-349.6 277.726,-356.013"/>
</g>
<!-- Node9 -->
<g id="node8" class="node"><title>Node9</title>
<g id="a_node8"><a xlink:href="classvili_1_1_complex_attribute.html#a7031eabef8547fe00efb455c75b5e28e" target="_top" xlink:title="vili::ComplexAttribute\l::getBaseAttribute">
<polygon fill="none" stroke="black" points="546,-384 546,-414 654,-414 654,-384 546,-384"/>
<text text-anchor="start" x="554" y="-402" font-family="Helvetica,sans-Serif" font-size="10.00">vili::ComplexAttribute</text>
<text text-anchor="middle" x="600" y="-391" font-family="Helvetica,sans-Serif" font-size="10.00">::getBaseAttribute</text>
</a>
</g>
</g>
<!-- Node7&#45;&gt;Node9 -->
<g id="edge7" class="edge"><title>Node7&#45;&gt;Node9</title>
<path fill="none" stroke="midnightblue" d="M188.851,-324.22C203.309,-344.995 232.45,-381.322 268,-396 355.282,-432.036 466.884,-423.048 535.628,-411.988"/>
<polygon fill="midnightblue" stroke="midnightblue" points="536.582,-415.377 545.867,-410.274 535.426,-408.473 536.582,-415.377"/>
</g>
<!-- Node10 -->
<g id="node9" class="node"><title>Node10</title>
<g id="a_node9"><a xlink:href="classaube_1_1_error_handler.html#a7c8d44a3e7f019646d289950abc5301b" target="_top" xlink:title="aube::ErrorHandler\l::Raise">
<polygon fill="none" stroke="black" points="713.5,-351 713.5,-381 811.5,-381 811.5,-351 713.5,-351"/>
<text text-anchor="start" x="721.5" y="-369" font-family="Helvetica,sans-Serif" font-size="10.00">aube::ErrorHandler</text>
<text text-anchor="middle" x="762.5" y="-358" font-family="Helvetica,sans-Serif" font-size="10.00">::Raise</text>
</a>
</g>
</g>
<!-- Node7&#45;&gt;Node10 -->
<g id="edge36" class="edge"><title>Node7&#45;&gt;Node10</title>
<path fill="none" stroke="midnightblue" d="M178.92,-324.264C179.614,-369.465 188.567,-502.962 268,-559 429.378,-672.849 667.139,-460.031 739.691,-388.361"/>
<polygon fill="midnightblue" stroke="midnightblue" points="742.348,-390.654 746.952,-381.112 737.402,-385.7 742.348,-390.654"/>
</g>
<!-- Node15 -->
<g id="node14" class="node"><title>Node15</title>
<g id="a_node14"><a xlink:href="classvili_1_1_attribute.html#a14b2534c1250d36bb0c02f7e5c25b40b" target="_top" xlink:title="vili::Attribute::getNodePath">
<polygon fill="none" stroke="black" points="696.5,-227.5 696.5,-246.5 828.5,-246.5 828.5,-227.5 696.5,-227.5"/>
<text text-anchor="middle" x="762.5" y="-234.5" font-family="Helvetica,sans-Serif" font-size="10.00">vili::Attribute::getNodePath</text>
</a>
</g>
</g>
<!-- Node7&#45;&gt;Node15 -->
<g id="edge37" class="edge"><title>Node7&#45;&gt;Node15</title>
<path fill="none" stroke="midnightblue" d="M184.123,-293.739C195.201,-262.588 223.992,-190.769 268,-145 321.041,-89.8363 342.209,-77.2807 416,-57 519.028,-28.6839 575.143,-1.15297 656,-71 706.902,-114.971 645.076,-169.807 692,-218 693.407,-219.445 694.913,-220.784 696.499,-222.023"/>
<polygon fill="midnightblue" stroke="midnightblue" points="694.698,-225.026 705.017,-227.432 698.451,-219.117 694.698,-225.026"/>
</g>
<!-- Node16 -->
<g id="node15" class="node"><title>Node16</title>
<g id="a_node15"><a xlink:href="classvili_1_1_attribute.html#a1ed7aaea237378cc2b3ab767a864ced8" target="_top" xlink:title="vili::Attribute::getParent">
<polygon fill="none" stroke="black" points="878,-64.5 878,-83.5 996,-83.5 996,-64.5 878,-64.5"/>
<text text-anchor="middle" x="937" y="-71.5" font-family="Helvetica,sans-Serif" font-size="10.00">vili::Attribute::getParent</text>
</a>
</g>
</g>
<!-- Node7&#45;&gt;Node16 -->
<g id="edge27" class="edge"><title>Node7&#45;&gt;Node16</title>
<path fill="none" stroke="midnightblue" d="M180.104,-293.696C183.988,-251.214 200.699,-130.646 268,-65 332.793,-1.80027 370.488,-0 461,-0 461,-0 461,-0 601,-0 712.764,-0 840.67,-39.7579 901.007,-60.9897"/>
<polygon fill="midnightblue" stroke="midnightblue" points="900.19,-64.414 910.784,-64.4773 902.542,-57.8209 900.19,-64.414"/>
</g>
<!-- Node20 -->
<g id="node19" class="node"><title>Node20</title>
<g id="a_node19"><a xlink:href="classvili_1_1_base_attribute.html#a637dd7d2977f7a453f06065d5d441495" target="_top" xlink:title="vili::BaseAttribute::get">
<polygon fill="none" stroke="black" points="268,-242.5 268,-261.5 380,-261.5 380,-242.5 268,-242.5"/>
<text text-anchor="middle" x="324" y="-249.5" font-family="Helvetica,sans-Serif" font-size="10.00">vili::BaseAttribute::get</text>
</a>
</g>
</g>
<!-- Node7&#45;&gt;Node20 -->
<g id="edge18" class="edge"><title>Node7&#45;&gt;Node20</title>
<path fill="none" stroke="midnightblue" d="M217.211,-293.875C239.611,-285.008 267.652,-273.909 289.236,-265.365"/>
<polygon fill="midnightblue" stroke="midnightblue" points="290.645,-268.571 298.655,-261.637 288.069,-262.063 290.645,-268.571"/>
</g>
<!-- Node7&#45;&gt;Node22 -->
<g id="edge29" class="edge"><title>Node7&#45;&gt;Node22</title>
<path fill="none" stroke="midnightblue" d="M193.092,-293.903C209.608,-276.989 238.491,-249.751 268,-233 275.548,-228.716 407.525,-184.871 416,-183 454.914,-174.407 499.335,-169.44 534.667,-166.606"/>
<polygon fill="midnightblue" stroke="midnightblue" points="535.146,-170.079 544.85,-165.827 534.612,-163.1 535.146,-170.079"/>
</g>
<!-- Node27 -->
<g id="node26" class="node"><title>Node27</title>
<g id="a_node26"><a xlink:href="namespacevili_1_1_functions_1_1_string.html#a9133ec632cc286cede9c5403c5b593b2" target="_top" xlink:title="vili::Functions::String\l::split">
<polygon fill="none" stroke="black" points="270.5,-155 270.5,-185 377.5,-185 377.5,-155 270.5,-155"/>
<text text-anchor="start" x="278.5" y="-173" font-family="Helvetica,sans-Serif" font-size="10.00">vili::Functions::String</text>
<text text-anchor="middle" x="324" y="-162" font-family="Helvetica,sans-Serif" font-size="10.00">::split</text>
</a>
</g>
</g>
<!-- Node7&#45;&gt;Node27 -->
<g id="edge28" class="edge"><title>Node7&#45;&gt;Node27</title>
<path fill="none" stroke="midnightblue" d="M188.679,-293.687C203.571,-271.035 233.972,-228.239 268,-200 272.237,-196.484 276.949,-193.185 281.783,-190.155"/>
<polygon fill="midnightblue" stroke="midnightblue" points="283.695,-193.091 290.539,-185.003 280.145,-187.058 283.695,-193.091"/>
</g>
<!-- Node28 -->
<g id="node27" class="node"><title>Node28</title>
<g id="a_node27"><a xlink:href="classvili_1_1_complex_attribute.html#a593e840a2edb136819e66e62994ebfed" target="_top" xlink:title="vili::ComplexAttribute\l::getComplexAttribute">
<polygon fill="none" stroke="black" points="544.5,-335 544.5,-365 655.5,-365 655.5,-335 544.5,-335"/>
<text text-anchor="start" x="552.5" y="-353" font-family="Helvetica,sans-Serif" font-size="10.00">vili::ComplexAttribute</text>
<text text-anchor="middle" x="600" y="-342" font-family="Helvetica,sans-Serif" font-size="10.00">::getComplexAttribute</text>
</a>
</g>
</g>
<!-- Node7&#45;&gt;Node28 -->
<g id="edge30" class="edge"><title>Node7&#45;&gt;Node28</title>
<path fill="none" stroke="midnightblue" d="M222.365,-313.233C296.456,-320.466 447.779,-335.238 534.368,-343.691"/>
<polygon fill="midnightblue" stroke="midnightblue" points="534.047,-347.176 544.34,-344.664 534.727,-340.209 534.047,-347.176"/>
</g>
<!-- Node29 -->
<g id="node28" class="node"><title>Node29</title>
<g id="a_node28"><a xlink:href="classvili_1_1_complex_attribute.html#ae3a592ac76f931c89a565b299f3841d2" target="_top" xlink:title="vili::ComplexAttribute\l::getListAttribute">
<polygon fill="none" stroke="black" points="546,-286 546,-316 654,-316 654,-286 546,-286"/>
<text text-anchor="start" x="554" y="-304" font-family="Helvetica,sans-Serif" font-size="10.00">vili::ComplexAttribute</text>
<text text-anchor="middle" x="600" y="-293" font-family="Helvetica,sans-Serif" font-size="10.00">::getListAttribute</text>
</a>
</g>
</g>
<!-- Node7&#45;&gt;Node29 -->
<g id="edge33" class="edge"><title>Node7&#45;&gt;Node29</title>
<path fill="none" stroke="midnightblue" d="M222.365,-308.174C296.783,-306.757 449.119,-303.855 535.513,-302.209"/>
<polygon fill="midnightblue" stroke="midnightblue" points="535.78,-305.705 545.712,-302.015 535.647,-298.706 535.78,-305.705"/>
</g>
<!-- Node30 -->
<g id="node29" class="node"><title>Node30</title>
<g id="a_node29"><a xlink:href="namespacevili_1_1_functions_1_1_string.html#a47cfebfa3355133cfbf43f9f2e435bf4" target="_top" xlink:title="vili::Functions::String\l::isStringInt">
<polygon fill="none" stroke="black" points="270.5,-494 270.5,-524 377.5,-524 377.5,-494 270.5,-494"/>
<text text-anchor="start" x="278.5" y="-512" font-family="Helvetica,sans-Serif" font-size="10.00">vili::Functions::String</text>
<text text-anchor="middle" x="324" y="-501" font-family="Helvetica,sans-Serif" font-size="10.00">::isStringInt</text>
</a>
</g>
</g>
<!-- Node7&#45;&gt;Node30 -->
<g id="edge38" class="edge"><title>Node7&#45;&gt;Node30</title>
<path fill="none" stroke="midnightblue" d="M182.836,-324.079C192.033,-357.407 218.348,-438.087 268,-485 269.112,-486.051 270.278,-487.06 271.487,-488.029"/>
<polygon fill="midnightblue" stroke="midnightblue" points="269.769,-491.094 279.998,-493.854 273.722,-485.318 269.769,-491.094"/>
</g>
<!-- Node31 -->
<g id="node30" class="node"><title>Node31</title>
<g id="a_node30"><a xlink:href="classvili_1_1_list_attribute.html#aa36c767c486107aef798de216e00c763" target="_top" xlink:title="vili::ListAttribute\l::size">
<polygon fill="none" stroke="black" points="281,-445 281,-475 367,-475 367,-445 281,-445"/>
<text text-anchor="start" x="289" y="-463" font-family="Helvetica,sans-Serif" font-size="10.00">vili::ListAttribute</text>
<text text-anchor="middle" x="324" y="-452" font-family="Helvetica,sans-Serif" font-size="10.00">::size</text>
</a>
</g>
</g>
<!-- Node7&#45;&gt;Node31 -->
<g id="edge39" class="edge"><title>Node7&#45;&gt;Node31</title>
<path fill="none" stroke="midnightblue" d="M187.13,-324.036C201.04,-348.675 231.47,-398.091 268,-430 271.944,-433.445 276.349,-436.655 280.903,-439.596"/>
<polygon fill="midnightblue" stroke="midnightblue" points="279.386,-442.768 289.761,-444.914 282.989,-436.766 279.386,-442.768"/>
</g>
<!-- Node32 -->
<g id="node31" class="node"><title>Node32</title>
<g id="a_node31"><a xlink:href="classvili_1_1_list_attribute.html#ad541b2709368be3dc486f4075345f526" target="_top" xlink:title="vili::ListAttribute::get">
<polygon fill="none" stroke="black" points="547.5,-433.5 547.5,-452.5 652.5,-452.5 652.5,-433.5 547.5,-433.5"/>
<text text-anchor="middle" x="600" y="-440.5" font-family="Helvetica,sans-Serif" font-size="10.00">vili::ListAttribute::get</text>
</a>
</g>
</g>
<!-- Node7&#45;&gt;Node32 -->
<g id="edge40" class="edge"><title>Node7&#45;&gt;Node32</title>
<path fill="none" stroke="midnightblue" d="M179.574,-324.278C182.084,-366.476 195.568,-484.758 268,-534 370.479,-603.669 524.844,-500.136 579.207,-458.793"/>
<polygon fill="midnightblue" stroke="midnightblue" points="581.563,-461.395 587.33,-452.507 577.279,-455.859 581.563,-461.395"/>
</g>
<!-- Node9&#45;&gt;Node10 -->
<g id="edge8" class="edge"><title>Node9&#45;&gt;Node10</title>
<path fill="none" stroke="midnightblue" d="M654.444,-388.011C670.227,-384.766 687.573,-381.2 703.622,-377.9"/>
<polygon fill="midnightblue" stroke="midnightblue" points="704.331,-381.328 713.421,-375.885 702.921,-374.471 704.331,-381.328"/>
</g>
<!-- Node9&#45;&gt;Node15 -->
<g id="edge13" class="edge"><title>Node9&#45;&gt;Node15</title>
<path fill="none" stroke="midnightblue" d="M640.543,-383.902C645.991,-381.016 651.316,-377.715 656,-374 699.129,-339.789 734.603,-284.293 751.259,-255.56"/>
<polygon fill="midnightblue" stroke="midnightblue" points="754.457,-257.017 756.348,-246.592 748.369,-253.562 754.457,-257.017"/>
</g>
<!-- Node11 -->
<g id="node10" class="node"><title>Node11</title>
<g id="a_node10"><a xlink:href="classaube_1_1_error_message.html#a3a39b6fcd8fdb12eaf6383123535b8ca" target="_top" xlink:title="aube::ErrorMessage\l::getFile">
<polygon fill="none" stroke="black" points="885,-449 885,-479 989,-479 989,-449 885,-449"/>
<text text-anchor="start" x="893" y="-467" font-family="Helvetica,sans-Serif" font-size="10.00">aube::ErrorMessage</text>
<text text-anchor="middle" x="937" y="-456" font-family="Helvetica,sans-Serif" font-size="10.00">::getFile</text>
</a>
</g>
</g>
<!-- Node10&#45;&gt;Node11 -->
<g id="edge9" class="edge"><title>Node10&#45;&gt;Node11</title>
<path fill="none" stroke="midnightblue" d="M782.412,-381.249C802.847,-397.196 836.818,-422.196 869,-439 873.008,-441.093 877.232,-443.096 881.529,-444.994"/>
<polygon fill="midnightblue" stroke="midnightblue" points="880.423,-448.325 890.998,-448.97 883.133,-441.871 880.423,-448.325"/>
</g>
<!-- Node12 -->
<g id="node11" class="node"><title>Node12</title>
<g id="a_node11"><a xlink:href="classaube_1_1_error_message.html#a9184cc96589578f434351c105b0cd5f7" target="_top" xlink:title="aube::ErrorMessage\l::getLocation">
<polygon fill="none" stroke="black" points="885,-400 885,-430 989,-430 989,-400 885,-400"/>
<text text-anchor="start" x="893" y="-418" font-family="Helvetica,sans-Serif" font-size="10.00">aube::ErrorMessage</text>
<text text-anchor="middle" x="937" y="-407" font-family="Helvetica,sans-Serif" font-size="10.00">::getLocation</text>
</a>
</g>
</g>
<!-- Node10&#45;&gt;Node12 -->
<g id="edge10" class="edge"><title>Node10&#45;&gt;Node12</title>
<path fill="none" stroke="midnightblue" d="M811.551,-379.649C831.259,-385.247 854.301,-391.793 875.165,-397.719"/>
<polygon fill="midnightblue" stroke="midnightblue" points="874.316,-401.117 884.892,-400.482 876.229,-394.383 874.316,-401.117"/>
</g>
<!-- Node13 -->
<g id="node12" class="node"><title>Node13</title>
<g id="a_node12"><a xlink:href="classaube_1_1_error_message.html#a07927cb3e2d0712c459cc9e2b5f52696" target="_top" xlink:title="aube::ErrorMessage\l::getMessage">
<polygon fill="none" stroke="black" points="885,-351 885,-381 989,-381 989,-351 885,-351"/>
<text text-anchor="start" x="893" y="-369" font-family="Helvetica,sans-Serif" font-size="10.00">aube::ErrorMessage</text>
<text text-anchor="middle" x="937" y="-358" font-family="Helvetica,sans-Serif" font-size="10.00">::getMessage</text>
</a>
</g>
</g>
<!-- Node10&#45;&gt;Node13 -->
<g id="edge11" class="edge"><title>Node10&#45;&gt;Node13</title>
<path fill="none" stroke="midnightblue" d="M811.551,-366C831.17,-366 854.093,-366 874.882,-366"/>
<polygon fill="midnightblue" stroke="midnightblue" points="874.892,-369.5 884.892,-366 874.892,-362.5 874.892,-369.5"/>
</g>
<!-- Node14 -->
<g id="node13" class="node"><title>Node14</title>
<g id="a_node13"><a xlink:href="classaube_1_1_error_message.html#a77c2f9b7e93542c958173b52da267989" target="_top" xlink:title="aube::ErrorMessage\l::getHints">
<polygon fill="none" stroke="black" points="885,-302 885,-332 989,-332 989,-302 885,-302"/>
<text text-anchor="start" x="893" y="-320" font-family="Helvetica,sans-Serif" font-size="10.00">aube::ErrorMessage</text>
<text text-anchor="middle" x="937" y="-309" font-family="Helvetica,sans-Serif" font-size="10.00">::getHints</text>
</a>
</g>
</g>
<!-- Node10&#45;&gt;Node14 -->
<g id="edge12" class="edge"><title>Node10&#45;&gt;Node14</title>
<path fill="none" stroke="midnightblue" d="M811.551,-352.351C831.259,-346.753 854.301,-340.207 875.165,-334.281"/>
<polygon fill="midnightblue" stroke="midnightblue" points="876.229,-337.617 884.892,-331.518 874.316,-330.883 876.229,-337.617"/>
</g>
<!-- Node15&#45;&gt;Node16 -->
<g id="edge14" class="edge"><title>Node15&#45;&gt;Node16</title>
<path fill="none" stroke="midnightblue" d="M814.73,-227.47C821.207,-225.005 827.487,-221.903 833,-218 855.942,-201.758 852.725,-188.918 869,-166 887.483,-139.972 909.322,-110.154 922.92,-91.6964"/>
<polygon fill="midnightblue" stroke="midnightblue" points="925.762,-93.7394 928.882,-83.6143 920.129,-89.5838 925.762,-93.7394"/>
</g>
<!-- Node17 -->
<g id="node16" class="node"><title>Node17</title>
<g id="a_node16"><a xlink:href="classvili_1_1_attribute.html#a4af867485d90f3ce77332995e5dcfc5f" target="_top" xlink:title="vili::Attribute::getID">
<polygon fill="none" stroke="black" points="888,-175.5 888,-194.5 986,-194.5 986,-175.5 888,-175.5"/>
<text text-anchor="middle" x="937" y="-182.5" font-family="Helvetica,sans-Serif" font-size="10.00">vili::Attribute::getID</text>
</a>
</g>
</g>
<!-- Node15&#45;&gt;Node17 -->
<g id="edge15" class="edge"><title>Node15&#45;&gt;Node17</title>
<path fill="none" stroke="midnightblue" d="M801.226,-227.454C811.59,-224.623 822.785,-221.372 833,-218 849.302,-212.618 852.724,-209.459 869,-204 875.856,-201.7 883.166,-199.438 890.344,-197.321"/>
<polygon fill="midnightblue" stroke="midnightblue" points="891.357,-200.672 899.993,-194.535 889.415,-193.947 891.357,-200.672"/>
</g>
<!-- Node18 -->
<g id="node17" class="node"><title>Node18</title>
<g id="a_node17"><a xlink:href="classvili_1_1_attribute.html#a1ec7ebd0bd596dd848151d37bba8c1b4" target="_top" xlink:title="vili::Attribute::getAnnotation">
<polygon fill="none" stroke="black" points="869,-263.5 869,-282.5 1005,-282.5 1005,-263.5 869,-263.5"/>
<text text-anchor="middle" x="937" y="-270.5" font-family="Helvetica,sans-Serif" font-size="10.00">vili::Attribute::getAnnotation</text>
</a>
</g>
</g>
<!-- Node15&#45;&gt;Node18 -->
<g id="edge16" class="edge"><title>Node15&#45;&gt;Node18</title>
<path fill="none" stroke="midnightblue" d="M809.274,-246.553C831.097,-251.107 857.392,-256.595 880.359,-261.388"/>
<polygon fill="midnightblue" stroke="midnightblue" points="879.808,-264.848 890.312,-263.465 881.238,-257.996 879.808,-264.848"/>
</g>
<!-- Node19 -->
<g id="node18" class="node"><title>Node19</title>
<g id="a_node18"><a xlink:href="namespacevili_1_1_functions_1_1_vector.html#a10836e1fe04648534cfc59d9de9acd72" target="_top" xlink:title="vili::Functions::Vector\l::join">
<polygon fill="none" stroke="black" points="882,-214 882,-244 992,-244 992,-214 882,-214"/>
<text text-anchor="start" x="890" y="-232" font-family="Helvetica,sans-Serif" font-size="10.00">vili::Functions::Vector</text>
<text text-anchor="middle" x="937" y="-221" font-family="Helvetica,sans-Serif" font-size="10.00">::join</text>
</a>
</g>
</g>
<!-- Node15&#45;&gt;Node19 -->
<g id="edge17" class="edge"><title>Node15&#45;&gt;Node19</title>
<path fill="none" stroke="midnightblue" d="M828.715,-233.976C842.841,-233.32 857.769,-232.628 871.854,-231.975"/>
<polygon fill="midnightblue" stroke="midnightblue" points="872.11,-235.467 881.938,-231.507 871.786,-228.474 872.11,-235.467"/>
</g>
<!-- Node21 -->
<g id="node20" class="node"><title>Node21</title>
<g id="a_node20"><a xlink:href="classvili_1_1_base_attribute.html#a27b7f17214e2b9708f4f8fb9847aaa95" target="_top" xlink:title="vili::BaseAttribute\l::copy">
<polygon fill="none" stroke="black" points="416,-193 416,-223 508,-223 508,-193 416,-193"/>
<text text-anchor="start" x="424" y="-211" font-family="Helvetica,sans-Serif" font-size="10.00">vili::BaseAttribute</text>
<text text-anchor="middle" x="462" y="-200" font-family="Helvetica,sans-Serif" font-size="10.00">::copy</text>
</a>
</g>
</g>
<!-- Node20&#45;&gt;Node21 -->
<g id="edge19" class="edge"><title>Node20&#45;&gt;Node21</title>
<path fill="none" stroke="midnightblue" d="M354.51,-242.453C369.605,-237.569 388.472,-231.465 406.116,-225.757"/>
<polygon fill="midnightblue" stroke="midnightblue" points="407.323,-229.045 415.76,-222.637 405.168,-222.385 407.323,-229.045"/>
</g>
<!-- Node25 -->
<g id="node24" class="node"><title>Node25</title>
<g id="a_node24"><a xlink:href="classvili_1_1_base_attribute.html#a7317c3254137e3886900536d9fb5ba3f" target="_top" xlink:title="vili::BaseAttribute\l::write">
<polygon fill="none" stroke="black" points="416,-242 416,-272 508,-272 508,-242 416,-242"/>
<text text-anchor="start" x="424" y="-260" font-family="Helvetica,sans-Serif" font-size="10.00">vili::BaseAttribute</text>
<text text-anchor="middle" x="462" y="-249" font-family="Helvetica,sans-Serif" font-size="10.00">::write</text>
</a>
</g>
</g>
<!-- Node20&#45;&gt;Node25 -->
<g id="edge25" class="edge"><title>Node20&#45;&gt;Node25</title>
<path fill="none" stroke="midnightblue" d="M380.316,-254.034C388.682,-254.341 397.312,-254.659 405.677,-254.966"/>
<polygon fill="midnightblue" stroke="midnightblue" points="405.592,-258.465 415.714,-255.335 405.849,-251.47 405.592,-258.465"/>
</g>
<!-- Node21&#45;&gt;Node22 -->
<g id="edge20" class="edge"><title>Node21&#45;&gt;Node22</title>
<path fill="none" stroke="midnightblue" d="M508.286,-193.016C525.179,-187.426 544.186,-181.137 560.42,-175.765"/>
<polygon fill="midnightblue" stroke="midnightblue" points="561.732,-179.018 570.127,-172.554 559.533,-172.372 561.732,-179.018"/>
</g>
<!-- Node23 -->
<g id="node22" class="node"><title>Node23</title>
<g id="a_node22"><a xlink:href="classvili_1_1_base_attribute.html#aa9d584a49371506524beee1672ccd976" target="_top" xlink:title="vili::BaseAttribute::set">
<polygon fill="none" stroke="black" points="544,-198.5 544,-217.5 656,-217.5 656,-198.5 544,-198.5"/>
<text text-anchor="middle" x="600" y="-205.5" font-family="Helvetica,sans-Serif" font-size="10.00">vili::BaseAttribute::set</text>
</a>
</g>
</g>
<!-- Node21&#45;&gt;Node23 -->
<g id="edge21" class="edge"><title>Node21&#45;&gt;Node23</title>
<path fill="none" stroke="midnightblue" d="M508.286,-208C516.506,-208 525.226,-208 533.883,-208"/>
<polygon fill="midnightblue" stroke="midnightblue" points="533.984,-211.5 543.984,-208 533.984,-204.5 533.984,-211.5"/>
</g>
<!-- Node23&#45;&gt;Node10 -->
<g id="edge22" class="edge"><title>Node23&#45;&gt;Node10</title>
<path fill="none" stroke="midnightblue" d="M638.284,-217.513C644.52,-220.025 650.683,-223.147 656,-227 698.685,-257.932 732.083,-311.031 749.1,-341.873"/>
<polygon fill="midnightblue" stroke="midnightblue" points="746.022,-343.539 753.847,-350.681 752.184,-340.218 746.022,-343.539"/>
</g>
<!-- Node23&#45;&gt;Node15 -->
<g id="edge23" class="edge"><title>Node23&#45;&gt;Node15</title>
<path fill="none" stroke="midnightblue" d="M653.999,-217.576C668.317,-220.163 683.949,-222.988 698.746,-225.661"/>
<polygon fill="midnightblue" stroke="midnightblue" points="698.368,-229.15 708.831,-227.483 699.613,-222.261 698.368,-229.15"/>
</g>
<!-- Node24 -->
<g id="node23" class="node"><title>Node24</title>
<g id="a_node23"><a xlink:href="namespacevili_1_1_types.html#ac195a27b2ff3164cfb8aeba0222fad03" target="_top" xlink:title="vili::Types::dataTypeToString">
<polygon fill="none" stroke="black" points="692,-189.5 692,-208.5 833,-208.5 833,-189.5 692,-189.5"/>
<text text-anchor="middle" x="762.5" y="-196.5" font-family="Helvetica,sans-Serif" font-size="10.00">vili::Types::dataTypeToString</text>
</a>
</g>
</g>
<!-- Node23&#45;&gt;Node24 -->
<g id="edge24" class="edge"><title>Node23&#45;&gt;Node24</title>
<path fill="none" stroke="midnightblue" d="M656.235,-204.903C664.512,-204.439 673.184,-203.952 681.846,-203.467"/>
<polygon fill="midnightblue" stroke="midnightblue" points="682.198,-206.952 691.987,-202.898 681.806,-199.963 682.198,-206.952"/>
</g>
<!-- Node26 -->
<g id="node25" class="node"><title>Node26</title>
<g id="a_node25"><a xlink:href="classvili_1_1_base_attribute.html#a020cdacac377615d95728677256ecc4d" target="_top" xlink:title="vili::BaseAttribute\l::returnData">
<polygon fill="none" stroke="black" points="554,-237 554,-267 646,-267 646,-237 554,-237"/>
<text text-anchor="start" x="562" y="-255" font-family="Helvetica,sans-Serif" font-size="10.00">vili::BaseAttribute</text>
<text text-anchor="middle" x="600" y="-244" font-family="Helvetica,sans-Serif" font-size="10.00">::returnData</text>
</a>
</g>
</g>
<!-- Node25&#45;&gt;Node26 -->
<g id="edge26" class="edge"><title>Node25&#45;&gt;Node26</title>
<path fill="none" stroke="midnightblue" d="M508.286,-255.335C519.641,-254.918 531.951,-254.465 543.732,-254.032"/>
<polygon fill="midnightblue" stroke="midnightblue" points="544.047,-257.523 553.912,-253.658 543.79,-250.528 544.047,-257.523"/>
</g>
<!-- Node28&#45;&gt;Node10 -->
<g id="edge31" class="edge"><title>Node28&#45;&gt;Node10</title>
<path fill="none" stroke="midnightblue" d="M655.786,-355.462C671.132,-356.991 687.864,-358.659 703.395,-360.208"/>
<polygon fill="midnightblue" stroke="midnightblue" points="703.103,-363.696 713.401,-361.205 703.797,-356.73 703.103,-363.696"/>
</g>
<!-- Node28&#45;&gt;Node15 -->
<g id="edge32" class="edge"><title>Node28&#45;&gt;Node15</title>
<path fill="none" stroke="midnightblue" d="M637.814,-334.932C644.036,-331.919 650.316,-328.571 656,-325 689.727,-303.812 724.344,-272.821 744.339,-253.833"/>
<polygon fill="midnightblue" stroke="midnightblue" points="746.949,-256.179 751.731,-246.724 742.097,-251.133 746.949,-256.179"/>
</g>
<!-- Node29&#45;&gt;Node10 -->
<g id="edge34" class="edge"><title>Node29&#45;&gt;Node10</title>
<path fill="none" stroke="midnightblue" d="M638.225,-316.076C661.034,-325.313 690.427,-337.216 714.79,-347.083"/>
<polygon fill="midnightblue" stroke="midnightblue" points="713.616,-350.384 724.199,-350.894 716.244,-343.896 713.616,-350.384"/>
</g>
<!-- Node29&#45;&gt;Node15 -->
<g id="edge35" class="edge"><title>Node29&#45;&gt;Node15</title>
<path fill="none" stroke="midnightblue" d="M638.63,-285.995C665.742,-275.184 701.998,-260.727 728.089,-250.323"/>
<polygon fill="midnightblue" stroke="midnightblue" points="729.559,-253.505 737.551,-246.55 726.966,-247.002 729.559,-253.505"/>
</g>
<!-- Node32&#45;&gt;Node10 -->
<g id="edge41" class="edge"><title>Node32&#45;&gt;Node10</title>
<path fill="none" stroke="midnightblue" d="M629.864,-433.403C638.384,-430.33 647.658,-426.746 656,-423 680.374,-412.055 706.826,-397.758 727.145,-386.22"/>
<polygon fill="midnightblue" stroke="midnightblue" points="729.083,-389.144 736.02,-381.136 725.603,-383.07 729.083,-389.144"/>
</g>
<!-- Node32&#45;&gt;Node15 -->
<g id="edge42" class="edge"><title>Node32&#45;&gt;Node15</title>
<path fill="none" stroke="midnightblue" d="M639.965,-433.372C645.807,-430.702 651.403,-427.307 656,-423 685.043,-395.784 672.869,-375.903 692,-341 709.289,-309.458 733.299,-275.196 748.096,-254.937"/>
<polygon fill="midnightblue" stroke="midnightblue" points="751.071,-256.8 754.189,-246.675 745.437,-252.646 751.071,-256.8"/>
</g>
<!-- Node33&#45;&gt;Node10 -->
<g id="edge46" class="edge"><title>Node33&#45;&gt;Node10</title>
<path fill="none" stroke="midnightblue" d="M506.159,-94.7761C561.355,-111.274 650.525,-138.526 656,-144 692.975,-180.969 669.86,-208.633 692,-256 706.712,-287.476 728.834,-320.837 744.151,-342.456"/>
<polygon fill="midnightblue" stroke="midnightblue" points="741.383,-344.603 750.057,-350.688 747.071,-340.522 741.383,-344.603"/>
</g>
<!-- Node33&#45;&gt;Node15 -->
<g id="edge47" class="edge"><title>Node33&#45;&gt;Node15</title>
<path fill="none" stroke="midnightblue" d="M506.125,-75.6611C549.021,-71.8779 614.295,-73.2828 656,-108 695.535,-140.91 654.738,-182.536 692,-218 693.656,-219.577 695.431,-221.025 697.298,-222.355"/>
<polygon fill="midnightblue" stroke="midnightblue" points="695.602,-225.418 705.997,-227.464 699.146,-219.382 695.602,-225.418"/>
</g>
<!-- Node33&#45;&gt;Node22 -->
<g id="edge45" class="edge"><title>Node33&#45;&gt;Node22</title>
<path fill="none" stroke="midnightblue" d="M485.494,-97.0021C509.397,-112.944 543.809,-135.89 544,-136 551.819,-140.5 560.494,-144.981 568.6,-148.963"/>
<polygon fill="midnightblue" stroke="midnightblue" points="567.24,-152.193 577.768,-153.379 570.277,-145.886 567.24,-152.193"/>
</g>
</g>
</svg>
        <g id="navigator" transform="translate(0 0)" fill="#404254">
                <rect fill="#f2f5e9" fill-opacity="0.5" stroke="#606060" stroke-width=".5" x="0" y="0" width="60" height="60"/>
                <use id="zoomplus" xlink:href="#zoomPlus" x="17" y="9" onmousedown="handleZoom(evt,'in')"/>
                <use id="zoomminus" xlink:href="#zoomMin" x="42" y="9" onmousedown="handleZoom(evt,'out')"/>
                <use id="reset" xlink:href="#resetDef" x="30" y="36" onmousedown="handleReset()"/>
                <g id="arrowUp" xlink:href="#dirArrow" transform="translate(30 24)" onmousedown="handlePan(0,-1)">
                  <use xlink:href="#rim" fill="#404040">
                        <set attributeName="fill" to="#808080" begin="arrowUp.mouseover" end="arrowUp.mouseout"/>
                  </use>
                  <path fill="none" stroke="white" stroke-width="1.5" d="M0,-3.0v7 M-2.5,-0.5L0,-3.0L2.5,-0.5"/>
                </g>
                <g id="arrowRight" xlink:href="#dirArrow" transform="rotate(90) translate(36 -43)" onmousedown="handlePan(1,0)">
                  <use xlink:href="#rim" fill="#404040">
                        <set attributeName="fill" to="#808080" begin="arrowRight.mouseover" end="arrowRight.mouseout"/>
                  </use>
                  <path fill="none" stroke="white" stroke-width="1.5" d="M0,-3.0v7 M-2.5,-0.5L0,-3.0L2.5,-0.5"/>
                </g>
                <g id="arrowDown" xlink:href="#dirArrow" transform="rotate(180) translate(-30 -48)" onmousedown="handlePan(0,1)">
                  <use xlink:href="#rim" fill="#404040">
                        <set attributeName="fill" to="#808080" begin="arrowDown.mouseover" end="arrowDown.mouseout"/>
                  </use>
                  <path fill="none" stroke="white" stroke-width="1.5" d="M0,-3.0v7 M-2.5,-0.5L0,-3.0L2.5,-0.5"/>
                </g>
                <g id="arrowLeft" xlink:href="#dirArrow" transform="rotate(270) translate(-36 17)" onmousedown="handlePan(-1,0)">
                  <use xlink:href="#rim" fill="#404040">
                        <set attributeName="fill" to="#808080" begin="arrowLeft.mouseover" end="arrowLeft.mouseout"/>
                  </use>
                  <path fill="none" stroke="white" stroke-width="1.5" d="M0,-3.0v7 M-2.5,-0.5L0,-3.0L2.5,-0.5"/>
                </g>
        </g>
        <svg viewBox="0 0 15 15" width="100%" height="30px" preserveAspectRatio="xMaxYMin meet">
         <g id="arrow_out" transform="scale(0.3 0.3)">
          <a xlink:href="classvili_1_1_link_attribute_adae9f0b175b458735495aa2f0146c509_cgraph_org.svg" target="_base">
           <rect id="button" ry="5" rx="5" y="6" x="6" height="38" width="38"
                fill="#f2f5e9" fill-opacity="0.5" stroke="#606060" stroke-width="1.0"/>
           <path id="arrow"
             d="M 11.500037,31.436501 C 11.940474,20.09759 22.043105,11.32322 32.158766,21.979434 L 37.068811,17.246167 C 37.068811,17.246167 37.088388,32 37.088388,32 L 22.160133,31.978069 C 22.160133,31.978069 26.997745,27.140456 26.997745,27.140456 C 18.528582,18.264221 13.291696,25.230495 11.500037,31.436501 z"
             style="fill:#404040;"/>
          </a>
         </g>
        </svg>
</svg>
