<?xml version="1.0" encoding="UTF-8" standalone="no"?>
<!DOCTYPE svg PUBLIC "-//W3C//DTD SVG 1.1//EN"
 "http://www.w3.org/Graphics/SVG/1.1/DTD/svg11.dtd">
<!-- Generated by graphviz version 2.38.0 (20140413.2041)
 -->
<!-- Title: obe::Collision::PolygonalCollider::findClosestPoint Pages: 1 -->
<svg width="504pt" height="105pt"
 viewBox="0.00 0.00 504.00 104.50" xmlns="http://www.w3.org/2000/svg" xmlns:xlink="http://www.w3.org/1999/xlink">
<g id="graph0" class="graph" transform="scale(1 1) rotate(0) translate(4 100.5)">
<title>obe::Collision::PolygonalCollider::findClosestPoint</title>
<!-- Node85 -->
<g id="node1" class="node"><title>Node85</title>
<polygon fill="#bfbfbf" stroke="black" points="0,-49.5 0,-79.5 125,-79.5 125,-49.5 0,-49.5"/>
<text text-anchor="start" x="8" y="-67.5" font-family="Helvetica,sans-Serif" font-size="10.00">obe::Collision::Polygonal</text>
<text text-anchor="middle" x="62.5" y="-56.5" font-family="Helvetica,sans-Serif" font-size="10.00">Collider::findClosestPoint</text>
</g>
<!-- Node86 -->
<g id="node2" class="node"><title>Node86</title>
<g id="a_node2"><a xlink:href="classobe_1_1_transform_1_1_unit_vector.html#ac3baab00050c329e70453fd646224a0d" target="_top" xlink:title="Return an UnitVector with the converted values (x, y) to the Unit you want. ">
<polygon fill="white" stroke="black" points="349,-77 349,-96 496,-96 496,-77 349,-77"/>
<text text-anchor="middle" x="422.5" y="-84" font-family="Helvetica,sans-Serif" font-size="10.00">obe::Transform::UnitVector::to</text>
</a>
</g>
</g>
<!-- Node85&#45;&gt;Node86 -->
<g id="edge1" class="edge"><title>Node85&#45;&gt;Node86</title>
<path fill="none" stroke="midnightblue" d="M112.137,-79.5251C127.6,-83.6102 144.876,-87.4658 161,-89.5 220.106,-96.9571 287.353,-95.9462 338.716,-93.2072"/>
<polygon fill="midnightblue" stroke="midnightblue" points="338.983,-96.6978 348.769,-92.6384 338.588,-89.709 338.983,-96.6978"/>
</g>
<!-- Node87 -->
<g id="node3" class="node"><title>Node87</title>
<g id="a_node3"><a xlink:href="classobe_1_1_collision_1_1_polygonal_collider.html#abbe4cd7b2b2f4df12172277cfe21ed84" target="_top" xlink:title="Get the distance between a Point of the Polygon and the given Position(x, y) ">
<polygon fill="white" stroke="black" points="161,-49.5 161,-79.5 313,-79.5 313,-49.5 161,-49.5"/>
<text text-anchor="start" x="169" y="-67.5" font-family="Helvetica,sans-Serif" font-size="10.00">obe::Collision::Polygonal</text>
<text text-anchor="middle" x="237" y="-56.5" font-family="Helvetica,sans-Serif" font-size="10.00">Collider::getDistanceFromPoint</text>
</a>
</g>
</g>
<!-- Node85&#45;&gt;Node87 -->
<g id="edge2" class="edge"><title>Node85&#45;&gt;Node87</title>
<path fill="none" stroke="midnightblue" d="M125.289,-64.5C133.558,-64.5 142.153,-64.5 150.736,-64.5"/>
<polygon fill="midnightblue" stroke="midnightblue" points="150.785,-68.0001 160.785,-64.5 150.785,-61.0001 150.785,-68.0001"/>
</g>
<!-- Node88 -->
<g id="node4" class="node"><title>Node88</title>
<g id="a_node4"><a xlink:href="namespaceobe_1_1_utils_1_1_vector.html#a636b7f465d67c2bf42a297f221af9cfe" target="_top" xlink:title="Check if a given item is in the given std::vector. ">
<polygon fill="white" stroke="black" points="191,-0.5 191,-30.5 283,-30.5 283,-0.5 191,-0.5"/>
<text text-anchor="start" x="199" y="-18.5" font-family="Helvetica,sans-Serif" font-size="10.00">obe::Utils::Vector</text>
<text text-anchor="middle" x="237" y="-7.5" font-family="Helvetica,sans-Serif" font-size="10.00">::isInList</text>
</a>
</g>
</g>
<!-- Node85&#45;&gt;Node88 -->
<g id="edge4" class="edge"><title>Node85&#45;&gt;Node88</title>
<path fill="none" stroke="midnightblue" d="M116.663,-49.3986C137.081,-43.5988 160.414,-36.9709 181,-31.1232"/>
<polygon fill="midnightblue" stroke="midnightblue" points="182.198,-34.4215 190.861,-28.3222 180.285,-27.6879 182.198,-34.4215"/>
</g>
<!-- Node87&#45;&gt;Node86 -->
<g id="edge3" class="edge"><title>Node87&#45;&gt;Node86</title>
<path fill="none" stroke="midnightblue" d="M313.166,-73.5117C321.632,-74.5267 330.292,-75.565 338.846,-76.5905"/>
<polygon fill="midnightblue" stroke="midnightblue" points="338.475,-80.071 348.821,-77.7864 339.308,-73.1208 338.475,-80.071"/>
</g>
</g>
</svg>
