<?xml version="1.0" encoding="UTF-8" standalone="no"?>
<!DOCTYPE svg PUBLIC "-//W3C//DTD SVG 1.1//EN"
 "http://www.w3.org/Graphics/SVG/1.1/DTD/svg11.dtd">
<!-- Generated by graphviz version 2.38.0 (20140413.2041)
 -->
<!-- Title: obe::Graphics::LevelSprite::useTextureSize Pages: 1 -->
<svg width="1011pt" height="142pt"
 viewBox="0.00 0.00 1011.00 142.00" xmlns="http://www.w3.org/2000/svg" xmlns:xlink="http://www.w3.org/1999/xlink">
<g id="graph0" class="graph" transform="scale(1 1) rotate(0) translate(4 138)">
<title>obe::Graphics::LevelSprite::useTextureSize</title>
<!-- Node356 -->
<g id="node1" class="node"><title>Node356</title>
<polygon fill="#bfbfbf" stroke="black" points="0,-57 0,-87 131,-87 131,-57 0,-57"/>
<text text-anchor="start" x="8" y="-75" font-family="Helvetica,sans-Serif" font-size="10.00">obe::Graphics::LevelSprite</text>
<text text-anchor="middle" x="65.5" y="-64" font-family="Helvetica,sans-Serif" font-size="10.00">::useTextureSize</text>
</g>
<!-- Node357 -->
<g id="node2" class="node"><title>Node357</title>
<g id="a_node2"><a xlink:href="classobe_1_1_graphics_1_1_level_sprite.html#a4a5fe710180a8e212146c405e2ada699" target="_top" xlink:title="Gets a reference to the texture of the LevelSprite. ">
<polygon fill="white" stroke="black" points="167,-82 167,-112 298,-112 298,-82 167,-82"/>
<text text-anchor="start" x="175" y="-100" font-family="Helvetica,sans-Serif" font-size="10.00">obe::Graphics::LevelSprite</text>
<text text-anchor="middle" x="232.5" y="-89" font-family="Helvetica,sans-Serif" font-size="10.00">::getTexture</text>
</a>
</g>
</g>
<!-- Node356&#45;&gt;Node357 -->
<g id="edge1" class="edge"><title>Node356&#45;&gt;Node357</title>
<path fill="none" stroke="midnightblue" d="M131.239,-81.8089C139.675,-83.0871 148.371,-84.4047 156.951,-85.7047"/>
<polygon fill="midnightblue" stroke="midnightblue" points="156.536,-89.1817 166.948,-87.2194 157.585,-82.2607 156.536,-89.1817"/>
</g>
<!-- Node358 -->
<g id="node3" class="node"><title>Node358</title>
<g id="a_node3"><a xlink:href="classobe_1_1_transform_1_1_rect.html#a33e764690a560ac81e2cb1dd73e0fb85" target="_top" xlink:title="Set the size of the Rect. ">
<polygon fill="white" stroke="black" points="179,-33 179,-63 286,-63 286,-33 179,-33"/>
<text text-anchor="start" x="187" y="-51" font-family="Helvetica,sans-Serif" font-size="10.00">obe::Transform::Rect</text>
<text text-anchor="middle" x="232.5" y="-40" font-family="Helvetica,sans-Serif" font-size="10.00">::setSize</text>
</a>
</g>
</g>
<!-- Node356&#45;&gt;Node358 -->
<g id="edge2" class="edge"><title>Node356&#45;&gt;Node358</title>
<path fill="none" stroke="midnightblue" d="M131.239,-62.5834C143.582,-60.788 156.483,-58.9116 168.763,-57.1254"/>
<polygon fill="midnightblue" stroke="midnightblue" points="169.514,-60.5531 178.906,-55.6501 168.506,-53.626 169.514,-60.5531"/>
</g>
<!-- Node359 -->
<g id="node4" class="node"><title>Node359</title>
<g id="a_node4"><a xlink:href="classobe_1_1_transform_1_1_rect.html#adf40297c2c6af849749317a50b028a0d" target="_top" xlink:title="Get the Position of the Rect. ">
<polygon fill="white" stroke="black" points="334,-82 334,-112 441,-112 441,-82 334,-82"/>
<text text-anchor="start" x="342" y="-100" font-family="Helvetica,sans-Serif" font-size="10.00">obe::Transform::Rect</text>
<text text-anchor="middle" x="387.5" y="-89" font-family="Helvetica,sans-Serif" font-size="10.00">::getPosition</text>
</a>
</g>
</g>
<!-- Node358&#45;&gt;Node359 -->
<g id="edge3" class="edge"><title>Node358&#45;&gt;Node359</title>
<path fill="none" stroke="midnightblue" d="M280.653,-63.1014C296.141,-68.0615 313.52,-73.6274 329.649,-78.7929"/>
<polygon fill="midnightblue" stroke="midnightblue" points="328.911,-82.2316 339.502,-81.9484 331.046,-75.5651 328.911,-82.2316"/>
</g>
<!-- Node363 -->
<g id="node8" class="node"><title>Node363</title>
<g id="a_node8"><a xlink:href="classobe_1_1_transform_1_1_unit_vector.html#af3867f780ceba4d23046a85314bfa077" target="_top" xlink:title="Set the values of the given UnitVector but keeps base Unit. ">
<polygon fill="white" stroke="black" points="477,-0.5 477,-19.5 629,-19.5 629,-0.5 477,-0.5"/>
<text text-anchor="middle" x="553" y="-7.5" font-family="Helvetica,sans-Serif" font-size="10.00">obe::Transform::UnitVector::set</text>
</a>
</g>
</g>
<!-- Node358&#45;&gt;Node363 -->
<g id="edge8" class="edge"><title>Node358&#45;&gt;Node363</title>
<path fill="none" stroke="midnightblue" d="M286.071,-32.9855C301.406,-29.1341 318.271,-25.4044 334,-23 377.534,-16.3454 426.443,-13.0532 466.887,-11.4423"/>
<polygon fill="midnightblue" stroke="midnightblue" points="467.115,-14.9363 476.979,-11.0679 466.856,-7.94112 467.115,-14.9363"/>
</g>
<!-- Node364 -->
<g id="node9" class="node"><title>Node364</title>
<g id="a_node9"><a xlink:href="classobe_1_1_transform_1_1_rect.html#a76c0e31ad4c6f81b974e99be7a1bc088" target="_top" xlink:title="Set the position of the Rect using an UnitVector. ">
<polygon fill="white" stroke="black" points="334,-33 334,-63 441,-63 441,-33 334,-33"/>
<text text-anchor="start" x="342" y="-51" font-family="Helvetica,sans-Serif" font-size="10.00">obe::Transform::Rect</text>
<text text-anchor="middle" x="387.5" y="-40" font-family="Helvetica,sans-Serif" font-size="10.00">::setPosition</text>
</a>
</g>
</g>
<!-- Node358&#45;&gt;Node364 -->
<g id="edge10" class="edge"><title>Node358&#45;&gt;Node364</title>
<path fill="none" stroke="midnightblue" d="M286.154,-48C298.175,-48 311.068,-48 323.473,-48"/>
<polygon fill="midnightblue" stroke="midnightblue" points="323.749,-51.5001 333.749,-48 323.749,-44.5001 323.749,-51.5001"/>
</g>
<!-- Node360 -->
<g id="node5" class="node"><title>Node360</title>
<g id="a_node5"><a xlink:href="classobe_1_1_transform_1_1_rect.html#a02a40e3f622105b27fa3841002d8739e" target="_top" xlink:title="Transform the UnitVector passed by reference using the given Referencial. ">
<polygon fill="white" stroke="black" points="499.5,-79 499.5,-109 606.5,-109 606.5,-79 499.5,-79"/>
<text text-anchor="start" x="507.5" y="-97" font-family="Helvetica,sans-Serif" font-size="10.00">obe::Transform::Rect</text>
<text text-anchor="middle" x="553" y="-86" font-family="Helvetica,sans-Serif" font-size="10.00">::transformRef</text>
</a>
</g>
</g>
<!-- Node359&#45;&gt;Node360 -->
<g id="edge4" class="edge"><title>Node359&#45;&gt;Node360</title>
<path fill="none" stroke="midnightblue" d="M441.132,-96.0343C456.448,-95.7532 473.332,-95.4435 489.207,-95.1522"/>
<polygon fill="midnightblue" stroke="midnightblue" points="489.532,-98.6469 499.466,-94.9639 489.404,-91.6481 489.532,-98.6469"/>
</g>
<!-- Node361 -->
<g id="node6" class="node"><title>Node361</title>
<g id="a_node6"><a xlink:href="classobe_1_1_transform_1_1_unit_vector.html#ace41a69769656febcf45cb2f4b90fa0e" target="_top" xlink:title="Adds the values of the the given UnitVector but keeps base Unit. ">
<polygon fill="white" stroke="black" points="665,-114.5 665,-133.5 820,-133.5 820,-114.5 665,-114.5"/>
<text text-anchor="middle" x="742.5" y="-121.5" font-family="Helvetica,sans-Serif" font-size="10.00">obe::Transform::UnitVector::add</text>
</a>
</g>
</g>
<!-- Node360&#45;&gt;Node361 -->
<g id="edge5" class="edge"><title>Node360&#45;&gt;Node361</title>
<path fill="none" stroke="midnightblue" d="M606.728,-102.437C626.926,-105.668 650.288,-109.406 671.83,-112.853"/>
<polygon fill="midnightblue" stroke="midnightblue" points="671.481,-116.341 681.908,-114.465 672.587,-109.429 671.481,-116.341"/>
</g>
<!-- Node362 -->
<g id="node7" class="node"><title>Node362</title>
<g id="a_node7"><a xlink:href="classobe_1_1_transform_1_1_unit_vector.html#ac3baab00050c329e70453fd646224a0d" target="_top" xlink:title="Return an UnitVector with the converted values (x, y) to the Unit you want. ">
<polygon fill="white" stroke="black" points="856,-57.5 856,-76.5 1003,-76.5 1003,-57.5 856,-57.5"/>
<text text-anchor="middle" x="929.5" y="-64.5" font-family="Helvetica,sans-Serif" font-size="10.00">obe::Transform::UnitVector::to</text>
</a>
</g>
</g>
<!-- Node360&#45;&gt;Node362 -->
<g id="edge7" class="edge"><title>Node360&#45;&gt;Node362</title>
<path fill="none" stroke="midnightblue" d="M606.862,-90.1888C669.061,-85.7045 773.072,-78.2057 845.93,-72.953"/>
<polygon fill="midnightblue" stroke="midnightblue" points="846.274,-76.4374 855.996,-72.2272 845.77,-69.4555 846.274,-76.4374"/>
</g>
<!-- Node361&#45;&gt;Node362 -->
<g id="edge6" class="edge"><title>Node361&#45;&gt;Node362</title>
<path fill="none" stroke="midnightblue" d="M774.465,-114.459C805.547,-104.883 853.593,-90.0795 887.754,-79.5543"/>
<polygon fill="midnightblue" stroke="midnightblue" points="888.908,-82.861 897.434,-76.5716 886.847,-76.1714 888.908,-82.861"/>
</g>
<!-- Node363&#45;&gt;Node362 -->
<g id="edge9" class="edge"><title>Node363&#45;&gt;Node362</title>
<path fill="none" stroke="midnightblue" d="M629.105,-12.6629C682.705,-15.5605 756.285,-21.5732 820,-34 844.857,-38.8481 872.127,-47.1555 893.11,-54.222"/>
<polygon fill="midnightblue" stroke="midnightblue" points="891.977,-57.5335 902.571,-57.4674 894.248,-50.9121 891.977,-57.5335"/>
</g>
<!-- Node364&#45;&gt;Node360 -->
<g id="edge12" class="edge"><title>Node364&#45;&gt;Node360</title>
<path fill="none" stroke="midnightblue" d="M441.132,-62.8079C456.594,-67.1579 473.654,-71.9576 489.66,-76.4609"/>
<polygon fill="midnightblue" stroke="midnightblue" points="488.892,-79.8807 499.466,-79.2199 490.788,-73.1423 488.892,-79.8807"/>
</g>
<!-- Node364&#45;&gt;Node362 -->
<g id="edge11" class="edge"><title>Node364&#45;&gt;Node362</title>
<path fill="none" stroke="midnightblue" d="M441.261,-49.8564C535.452,-53.1705 733.189,-60.1279 845.654,-64.085"/>
<polygon fill="midnightblue" stroke="midnightblue" points="845.815,-67.5928 855.932,-64.4467 846.061,-60.5971 845.815,-67.5928"/>
</g>
<!-- Node364&#45;&gt;Node363 -->
<g id="edge13" class="edge"><title>Node364&#45;&gt;Node363</title>
<path fill="none" stroke="midnightblue" d="M441.132,-35.7674C460.282,-31.3167 481.884,-26.2962 500.898,-21.8768"/>
<polygon fill="midnightblue" stroke="midnightblue" points="501.923,-25.2321 510.871,-19.5591 500.338,-18.4139 501.923,-25.2321"/>
</g>
</g>
</svg>
