<?xml version="1.0" encoding="UTF-8" standalone="no"?>
<!DOCTYPE svg PUBLIC "-//W3C//DTD SVG 1.1//EN"
 "http://www.w3.org/Graphics/SVG/1.1/DTD/svg11.dtd">
<!-- Generated by graphviz version 2.38.0 (20140413.2041)
 -->
<!-- Title: obe::Transform::UnitVector::set Pages: 1 -->
<svg width="1468pt" height="516pt"
 viewBox="0.00 0.00 1468.00 516.00" xmlns="http://www.w3.org/2000/svg" xmlns:xlink="http://www.w3.org/1999/xlink">
<g id="graph0" class="graph" transform="scale(1 1) rotate(0) translate(4 512)">
<title>obe::Transform::UnitVector::set</title>
<!-- Node89 -->
<g id="node1" class="node"><title>Node89</title>
<polygon fill="#bfbfbf" stroke="black" points="0,-373 0,-392 152,-392 152,-373 0,-373"/>
<text text-anchor="middle" x="76" y="-380" font-family="Helvetica,sans-Serif" font-size="10.00">obe::Transform::UnitVector::set</text>
</g>
<!-- Node90 -->
<g id="node2" class="node"><title>Node90</title>
<g id="a_node2"><a xlink:href="namespaceobe_1_1_bindings_1_1_transform_bindings.html#a8cdfa507b4638e51eeac7439c5fc199f" target="_top" xlink:title="obe::Bindings::Transform\lBindings::LoadUnitVector">
<polygon fill="white" stroke="black" points="213,-477.5 213,-507.5 340,-507.5 340,-477.5 213,-477.5"/>
<text text-anchor="start" x="221" y="-495.5" font-family="Helvetica,sans-Serif" font-size="10.00">obe::Bindings::Transform</text>
<text text-anchor="middle" x="276.5" y="-484.5" font-family="Helvetica,sans-Serif" font-size="10.00">Bindings::LoadUnitVector</text>
</a>
</g>
</g>
<!-- Node89&#45;&gt;Node90 -->
<g id="edge1" class="edge"><title>Node89&#45;&gt;Node90</title>
<path fill="none" stroke="midnightblue" d="M94.1889,-399.023C114.883,-418.073 151.435,-449.114 188,-467.5 195.763,-471.404 204.229,-474.784 212.738,-477.685"/>
<polygon fill="midnightblue" stroke="midnightblue" points="96.516,-396.407 86.8235,-392.129 91.7324,-401.518 96.516,-396.407"/>
</g>
<!-- Node91 -->
<g id="node3" class="node"><title>Node91</title>
<g id="a_node3"><a xlink:href="classobe_1_1_collision_1_1_polygonal_collider.html#ad79f0ea77ec512302aa14e5f41ffcb22" target="_top" xlink:title="obe::Collision::Polygonal\lCollider::getMaximumDistanceBefore\lCollision">
<polygon fill="white" stroke="black" points="188,-417 188,-458 365,-458 365,-417 188,-417"/>
<text text-anchor="start" x="196" y="-446" font-family="Helvetica,sans-Serif" font-size="10.00">obe::Collision::Polygonal</text>
<text text-anchor="start" x="196" y="-435" font-family="Helvetica,sans-Serif" font-size="10.00">Collider::getMaximumDistanceBefore</text>
<text text-anchor="middle" x="276.5" y="-424" font-family="Helvetica,sans-Serif" font-size="10.00">Collision</text>
</a>
</g>
</g>
<!-- Node89&#45;&gt;Node91 -->
<g id="edge2" class="edge"><title>Node89&#45;&gt;Node91</title>
<path fill="none" stroke="midnightblue" d="M121.286,-394.771C144.864,-401.304 174.488,-409.512 201.454,-416.983"/>
<polygon fill="midnightblue" stroke="midnightblue" points="122.148,-391.378 111.576,-392.08 120.278,-398.123 122.148,-391.378"/>
</g>
<!-- Node101 -->
<g id="node13" class="node"><title>Node101</title>
<g id="a_node13"><a xlink:href="namespaceobe_1_1_script_1_1_core_lib.html#a8b313257cdb3bef245614c95a6fe0d6e" target="_top" xlink:title="obe::Script::CoreLib\l::loadCoordinates">
<polygon fill="white" stroke="black" points="225,-367.5 225,-397.5 328,-397.5 328,-367.5 225,-367.5"/>
<text text-anchor="start" x="233" y="-385.5" font-family="Helvetica,sans-Serif" font-size="10.00">obe::Script::CoreLib</text>
<text text-anchor="middle" x="276.5" y="-374.5" font-family="Helvetica,sans-Serif" font-size="10.00">::loadCoordinates</text>
</a>
</g>
</g>
<!-- Node89&#45;&gt;Node101 -->
<g id="edge16" class="edge"><title>Node89&#45;&gt;Node101</title>
<path fill="none" stroke="midnightblue" d="M162.095,-382.5C183.425,-382.5 205.645,-382.5 224.705,-382.5"/>
<polygon fill="midnightblue" stroke="midnightblue" points="162.044,-379 152.044,-382.5 162.044,-386 162.044,-379"/>
</g>
<!-- Node102 -->
<g id="node14" class="node"><title>Node102</title>
<g id="a_node14"><a xlink:href="classobe_1_1_transform_1_1_rect.html#a76c0e31ad4c6f81b974e99be7a1bc088" target="_top" xlink:title="Set the position of the Rect using an UnitVector. ">
<polygon fill="white" stroke="black" points="223,-186.5 223,-216.5 330,-216.5 330,-186.5 223,-186.5"/>
<text text-anchor="start" x="231" y="-204.5" font-family="Helvetica,sans-Serif" font-size="10.00">obe::Transform::Rect</text>
<text text-anchor="middle" x="276.5" y="-193.5" font-family="Helvetica,sans-Serif" font-size="10.00">::setPosition</text>
</a>
</g>
</g>
<!-- Node89&#45;&gt;Node102 -->
<g id="edge18" class="edge"><title>Node89&#45;&gt;Node102</title>
<path fill="none" stroke="midnightblue" d="M95.5077,-365.624C133.988,-330.536 222.098,-250.194 258.886,-216.65"/>
<polygon fill="midnightblue" stroke="midnightblue" points="92.7033,-363.445 87.6722,-372.769 97.4198,-368.617 92.7033,-363.445"/>
</g>
<!-- Node107 -->
<g id="node19" class="node"><title>Node107</title>
<g id="a_node19"><a xlink:href="classobe_1_1_transform_1_1_rect.html#a405a68aa67b39a999dd35e27f09949dd" target="_top" xlink:title="Set the size of the Rect. ">
<polygon fill="white" stroke="black" points="425.5,-323.5 425.5,-353.5 532.5,-353.5 532.5,-323.5 425.5,-323.5"/>
<text text-anchor="start" x="433.5" y="-341.5" font-family="Helvetica,sans-Serif" font-size="10.00">obe::Transform::Rect</text>
<text text-anchor="middle" x="479" y="-330.5" font-family="Helvetica,sans-Serif" font-size="10.00">::setSize</text>
</a>
</g>
</g>
<!-- Node89&#45;&gt;Node107 -->
<g id="edge33" class="edge"><title>Node89&#45;&gt;Node107</title>
<path fill="none" stroke="midnightblue" d="M122.492,-370.569C142.458,-365.771 166.258,-360.641 188,-357.5 270.396,-345.596 367.05,-341.144 425.354,-339.483"/>
<polygon fill="midnightblue" stroke="midnightblue" points="121.608,-367.182 112.729,-372.961 123.274,-373.981 121.608,-367.182"/>
</g>
<!-- Node92 -->
<g id="node4" class="node"><title>Node92</title>
<g id="a_node4"><a xlink:href="namespaceobe_1_1_bindings_1_1_collision_bindings.html#a48f290ff49a763532bdf5bc65070d2d2" target="_top" xlink:title="obe::Bindings::Collision\lBindings::LoadPolygonalCollider">
<polygon fill="white" stroke="black" points="401,-460.5 401,-490.5 557,-490.5 557,-460.5 401,-460.5"/>
<text text-anchor="start" x="409" y="-478.5" font-family="Helvetica,sans-Serif" font-size="10.00">obe::Bindings::Collision</text>
<text text-anchor="middle" x="479" y="-467.5" font-family="Helvetica,sans-Serif" font-size="10.00">Bindings::LoadPolygonalCollider</text>
</a>
</g>
</g>
<!-- Node91&#45;&gt;Node92 -->
<g id="edge3" class="edge"><title>Node91&#45;&gt;Node92</title>
<path fill="none" stroke="midnightblue" d="M375.239,-456.024C383.856,-457.657 392.497,-459.295 400.909,-460.889"/>
<polygon fill="midnightblue" stroke="midnightblue" points="375.627,-452.535 365.151,-454.112 374.324,-459.413 375.627,-452.535"/>
</g>
<!-- Node95 -->
<g id="node7" class="node"><title>Node95</title>
<g id="a_node7"><a xlink:href="namespaceobe_1_1_script_1_1_core_lib.html#a07d6c11bbb082bc45bdba50d97965c00" target="_top" xlink:title="obe::Script::CoreLib\l::loadCollision">
<polygon fill="white" stroke="black" points="427.5,-411.5 427.5,-441.5 530.5,-441.5 530.5,-411.5 427.5,-411.5"/>
<text text-anchor="start" x="435.5" y="-429.5" font-family="Helvetica,sans-Serif" font-size="10.00">obe::Script::CoreLib</text>
<text text-anchor="middle" x="479" y="-418.5" font-family="Helvetica,sans-Serif" font-size="10.00">::loadCollision</text>
</a>
</g>
</g>
<!-- Node91&#45;&gt;Node95 -->
<g id="edge6" class="edge"><title>Node91&#45;&gt;Node95</title>
<path fill="none" stroke="midnightblue" d="M375.17,-432.142C393.252,-431.15 411.445,-430.151 427.396,-429.276"/>
<polygon fill="midnightblue" stroke="midnightblue" points="374.944,-428.649 365.151,-432.691 375.327,-435.638 374.944,-428.649"/>
</g>
<!-- Node93 -->
<g id="node5" class="node"><title>Node93</title>
<g id="a_node5"><a xlink:href="namespaceobe_1_1_bindings.html#a41d33207a0199f125c75a0f70a4a3ba8" target="_top" xlink:title="obe::Bindings::IndexBindings">
<polygon fill="white" stroke="black" points="1243,-458 1243,-477 1386,-477 1386,-458 1243,-458"/>
<text text-anchor="middle" x="1314.5" y="-465" font-family="Helvetica,sans-Serif" font-size="10.00">obe::Bindings::IndexBindings</text>
</a>
</g>
</g>
<!-- Node92&#45;&gt;Node93 -->
<g id="edge4" class="edge"><title>Node92&#45;&gt;Node93</title>
<path fill="none" stroke="midnightblue" d="M567.101,-474.282C633.958,-473.451 728.563,-472.5 811.5,-472.5 811.5,-472.5 811.5,-472.5 964.5,-472.5 1061,-472.5 1172.49,-470.565 1242.98,-469.103"/>
<polygon fill="midnightblue" stroke="midnightblue" points="566.984,-470.783 557.029,-474.408 567.072,-477.782 566.984,-470.783"/>
</g>
<!-- Node94 -->
<g id="node6" class="node"><title>Node94</title>
<g id="a_node6"><a xlink:href="_ob_engine_8cpp.html#a3c04138a5bfe5d72780bb7e82a18e627" target="_top" xlink:title="main">
<polygon fill="white" stroke="black" points="1422,-392 1422,-411 1460,-411 1460,-392 1422,-392"/>
<text text-anchor="middle" x="1441" y="-399" font-family="Helvetica,sans-Serif" font-size="10.00">main</text>
</a>
</g>
</g>
<!-- Node93&#45;&gt;Node94 -->
<g id="edge5" class="edge"><title>Node93&#45;&gt;Node94</title>
<path fill="none" stroke="midnightblue" d="M1347.12,-453.603C1359.41,-447.969 1373.51,-441.214 1386,-434.5 1399.55,-427.218 1414.43,-418.031 1425.13,-411.201"/>
<polygon fill="midnightblue" stroke="midnightblue" points="1345.39,-450.547 1337.72,-457.859 1348.27,-456.924 1345.39,-450.547"/>
</g>
<!-- Node96 -->
<g id="node8" class="node"><title>Node96</title>
<g id="a_node8"><a xlink:href="namespaceobe_1_1_script.html#abdb81ec0976f1097cef6711415b8fac3" target="_top" xlink:title="obe::Script::loadCoreLib">
<polygon fill="white" stroke="black" points="597.5,-417 597.5,-436 718.5,-436 718.5,-417 597.5,-417"/>
<text text-anchor="middle" x="658" y="-424" font-family="Helvetica,sans-Serif" font-size="10.00">obe::Script::loadCoreLib</text>
</a>
</g>
</g>
<!-- Node95&#45;&gt;Node96 -->
<g id="edge7" class="edge"><title>Node95&#45;&gt;Node96</title>
<path fill="none" stroke="midnightblue" d="M540.922,-420.05C559.127,-419.642 579.061,-419.65 597.193,-420.076"/>
<polygon fill="midnightblue" stroke="midnightblue" points="540.622,-416.557 530.721,-420.329 540.813,-423.554 540.622,-416.557"/>
</g>
<!-- Node96&#45;&gt;Node95 -->
<g id="edge15" class="edge"><title>Node96&#45;&gt;Node95</title>
<path fill="none" stroke="midnightblue" d="M587.169,-433.115C568.325,-433.392 548.299,-433.244 530.721,-432.671"/>
<polygon fill="midnightblue" stroke="midnightblue" points="587.261,-436.614 597.193,-432.924 587.128,-429.615 587.261,-436.614"/>
</g>
<!-- Node97 -->
<g id="node9" class="node"><title>Node97</title>
<g id="a_node9"><a xlink:href="namespaceobe_1_1_script.html#a4e6ee77032cf7f66544f9b08464a60b7" target="_top" xlink:title="obe::Script::loadLib">
<polygon fill="white" stroke="black" points="762,-417 762,-436 863,-436 863,-417 762,-417"/>
<text text-anchor="middle" x="812.5" y="-424" font-family="Helvetica,sans-Serif" font-size="10.00">obe::Script::loadLib</text>
</a>
</g>
</g>
<!-- Node96&#45;&gt;Node97 -->
<g id="edge8" class="edge"><title>Node96&#45;&gt;Node97</title>
<path fill="none" stroke="midnightblue" d="M728.913,-426.5C739.971,-426.5 751.209,-426.5 761.686,-426.5"/>
<polygon fill="midnightblue" stroke="midnightblue" points="728.834,-423 718.834,-426.5 728.834,-430 728.834,-423"/>
</g>
<!-- Node98 -->
<g id="node10" class="node"><title>Node98</title>
<g id="a_node10"><a xlink:href="namespaceobe_1_1_modes.html#a1e38c0d9a2ca0230f0de79c298f53ab9" target="_top" xlink:title="A mode that will start the Toolkit. ">
<polygon fill="white" stroke="black" points="1061,-388 1061,-407 1207,-407 1207,-388 1061,-388"/>
<text text-anchor="middle" x="1134" y="-395" font-family="Helvetica,sans-Serif" font-size="10.00">obe::Modes::startToolkitMode</text>
</a>
</g>
</g>
<!-- Node97&#45;&gt;Node98 -->
<g id="edge9" class="edge"><title>Node97&#45;&gt;Node98</title>
<path fill="none" stroke="midnightblue" d="M873.311,-423.69C915.719,-421.417 973.933,-417.73 1025,-412.5 1039.59,-411.005 1055.25,-409.041 1069.99,-407.028"/>
<polygon fill="midnightblue" stroke="midnightblue" points="872.959,-420.203 863.156,-424.223 873.326,-427.194 872.959,-420.203"/>
</g>
<!-- Node100 -->
<g id="node12" class="node"><title>Node100</title>
<g id="a_node12"><a xlink:href="namespaceobe_1_1_script.html#aad6ef67388e6d16eb01853f208da410f" target="_top" xlink:title="obe::Script::loadBaseLib">
<polygon fill="white" stroke="black" points="902,-384 902,-403 1025,-403 1025,-384 902,-384"/>
<text text-anchor="middle" x="963.5" y="-391" font-family="Helvetica,sans-Serif" font-size="10.00">obe::Script::loadBaseLib</text>
</a>
</g>
</g>
<!-- Node97&#45;&gt;Node100 -->
<g id="edge13" class="edge"><title>Node97&#45;&gt;Node100</title>
<path fill="none" stroke="midnightblue" d="M866.586,-414.743C883.939,-410.899 902.985,-406.681 919.5,-403.024"/>
<polygon fill="midnightblue" stroke="midnightblue" points="865.604,-411.375 856.597,-416.955 867.117,-418.21 865.604,-411.375"/>
</g>
<!-- Node98&#45;&gt;Node94 -->
<g id="edge12" class="edge"><title>Node98&#45;&gt;Node94</title>
<path fill="none" stroke="midnightblue" d="M1217.21,-400.862C1225.92,-401.123 1234.64,-401.345 1243,-401.5 1308.83,-402.719 1387.05,-402.105 1421.8,-401.725"/>
<polygon fill="midnightblue" stroke="midnightblue" points="1217.13,-397.358 1207.03,-400.539 1216.91,-404.354 1217.13,-397.358"/>
</g>
<!-- Node99 -->
<g id="node11" class="node"><title>Node99</title>
<g id="a_node11"><a xlink:href="namespaceobe_1_1_modes.html#a6a8b08eee511d4895c4da96d4ba223a6" target="_top" xlink:title="Starts the development Menu where you can starts other menus from. ">
<polygon fill="white" stroke="black" points="1248,-373 1248,-392 1381,-392 1381,-373 1248,-373"/>
<text text-anchor="middle" x="1314.5" y="-380" font-family="Helvetica,sans-Serif" font-size="10.00">obe::Modes::startDevMenu</text>
</a>
</g>
</g>
<!-- Node98&#45;&gt;Node99 -->
<g id="edge10" class="edge"><title>Node98&#45;&gt;Node99</title>
<path fill="none" stroke="midnightblue" d="M1217.26,-390.588C1227.49,-389.728 1237.84,-388.858 1247.77,-388.023"/>
<polygon fill="midnightblue" stroke="midnightblue" points="1216.76,-387.117 1207.09,-391.442 1217.35,-394.092 1216.76,-387.117"/>
</g>
<!-- Node99&#45;&gt;Node94 -->
<g id="edge11" class="edge"><title>Node99&#45;&gt;Node94</title>
<path fill="none" stroke="midnightblue" d="M1388.19,-393.593C1400.64,-395.494 1412.52,-397.307 1421.76,-398.716"/>
<polygon fill="midnightblue" stroke="midnightblue" points="1388.53,-390.104 1378.11,-392.056 1387.47,-397.024 1388.53,-390.104"/>
</g>
<!-- Node100&#45;&gt;Node98 -->
<g id="edge14" class="edge"><title>Node100&#45;&gt;Node98</title>
<path fill="none" stroke="midnightblue" d="M1035.44,-395.184C1043.82,-395.383 1052.38,-395.586 1060.78,-395.786"/>
<polygon fill="midnightblue" stroke="midnightblue" points="1035.41,-391.682 1025.33,-394.944 1035.25,-398.681 1035.41,-391.682"/>
</g>
<!-- Node101&#45;&gt;Node96 -->
<g id="edge17" class="edge"><title>Node101&#45;&gt;Node96</title>
<path fill="none" stroke="midnightblue" d="M338.292,-383.536C395.144,-385.235 482.262,-389.713 557,-401.5 579.98,-405.124 605.408,-411.514 624.872,-416.927"/>
<polygon fill="midnightblue" stroke="midnightblue" points="338.132,-380.03 328.038,-383.25 337.937,-387.027 338.132,-380.03"/>
</g>
<!-- Node103 -->
<g id="node15" class="node"><title>Node103</title>
<g id="a_node15"><a xlink:href="namespaceobe_1_1_editor.html#abb65591bc39719e5fb6c9be98d9ae1ee" target="_top" xlink:title="obe::Editor::connectSprite\lActions">
<polygon fill="white" stroke="black" points="593,-295.5 593,-325.5 723,-325.5 723,-295.5 593,-295.5"/>
<text text-anchor="start" x="601" y="-313.5" font-family="Helvetica,sans-Serif" font-size="10.00">obe::Editor::connectSprite</text>
<text text-anchor="middle" x="658" y="-302.5" font-family="Helvetica,sans-Serif" font-size="10.00">Actions</text>
</a>
</g>
</g>
<!-- Node102&#45;&gt;Node103 -->
<g id="edge19" class="edge"><title>Node102&#45;&gt;Node103</title>
<path fill="none" stroke="midnightblue" d="M305.531,-222.459C329.581,-239.329 365.827,-262.185 401,-274.5 463.905,-296.524 539.972,-305.11 592.764,-308.438"/>
<polygon fill="midnightblue" stroke="midnightblue" points="307.42,-219.507 297.247,-216.546 303.353,-225.205 307.42,-219.507"/>
</g>
<!-- Node105 -->
<g id="node17" class="node"><title>Node105</title>
<g id="a_node17"><a xlink:href="classobe_1_1_script_1_1_game_object.html#a3ff3f3070f0132be656f3425750cc507" target="_top" xlink:title="obe::Script::GameObject\l::loadGameObject">
<polygon fill="white" stroke="black" points="416.5,-235.5 416.5,-265.5 541.5,-265.5 541.5,-235.5 416.5,-235.5"/>
<text text-anchor="start" x="424.5" y="-253.5" font-family="Helvetica,sans-Serif" font-size="10.00">obe::Script::GameObject</text>
<text text-anchor="middle" x="479" y="-242.5" font-family="Helvetica,sans-Serif" font-size="10.00">::loadGameObject</text>
</a>
</g>
</g>
<!-- Node102&#45;&gt;Node105 -->
<g id="edge23" class="edge"><title>Node102&#45;&gt;Node105</title>
<path fill="none" stroke="midnightblue" d="M340.024,-216.78C364.365,-222.729 392.18,-229.527 416.43,-235.453"/>
<polygon fill="midnightblue" stroke="midnightblue" points="340.724,-213.348 330.179,-214.374 339.062,-220.148 340.724,-213.348"/>
</g>
<!-- Node106 -->
<g id="node18" class="node"><title>Node106</title>
<g id="a_node18"><a xlink:href="classobe_1_1_transform_1_1_rect.html#a32c9ef190efe43dfbb6a229c2d46b9a9" target="_top" xlink:title="Set the position of the Rect using a pair of double. ">
<polygon fill="white" stroke="black" points="425.5,-186.5 425.5,-216.5 532.5,-216.5 532.5,-186.5 425.5,-186.5"/>
<text text-anchor="start" x="433.5" y="-204.5" font-family="Helvetica,sans-Serif" font-size="10.00">obe::Transform::Rect</text>
<text text-anchor="middle" x="479" y="-193.5" font-family="Helvetica,sans-Serif" font-size="10.00">::setPosition</text>
</a>
</g>
</g>
<!-- Node102&#45;&gt;Node106 -->
<g id="edge24" class="edge"><title>Node102&#45;&gt;Node106</title>
<path fill="none" stroke="midnightblue" d="M340.407,-201.5C367.698,-201.5 399.297,-201.5 425.325,-201.5"/>
<polygon fill="midnightblue" stroke="midnightblue" points="340.179,-198 330.179,-201.5 340.179,-205 340.179,-198"/>
</g>
<!-- Node102&#45;&gt;Node107 -->
<g id="edge25" class="edge"><title>Node102&#45;&gt;Node107</title>
<path fill="none" stroke="midnightblue" d="M299.041,-224.315C322.347,-247.942 361.496,-284.674 401,-308.5 410.46,-314.206 421.195,-319.193 431.582,-323.378"/>
<polygon fill="midnightblue" stroke="midnightblue" points="301.251,-221.566 291.768,-216.842 296.234,-226.449 301.251,-221.566"/>
</g>
<!-- Node108 -->
<g id="node20" class="node"><title>Node108</title>
<g id="a_node20"><a xlink:href="classobe_1_1_transform_1_1_rect.html#a8ce9778fe854024a56442d27443e92d2" target="_top" xlink:title="Scales the Rect (Relative to the current size) ">
<polygon fill="white" stroke="black" points="425.5,-137.5 425.5,-167.5 532.5,-167.5 532.5,-137.5 425.5,-137.5"/>
<text text-anchor="start" x="433.5" y="-155.5" font-family="Helvetica,sans-Serif" font-size="10.00">obe::Transform::Rect</text>
<text text-anchor="middle" x="479" y="-144.5" font-family="Helvetica,sans-Serif" font-size="10.00">::scale</text>
</a>
</g>
</g>
<!-- Node102&#45;&gt;Node108 -->
<g id="edge26" class="edge"><title>Node102&#45;&gt;Node108</title>
<path fill="none" stroke="midnightblue" d="M340.047,-186.214C367.419,-179.525 399.182,-171.762 425.325,-165.373"/>
<polygon fill="midnightblue" stroke="midnightblue" points="339.062,-182.852 330.179,-188.626 340.724,-189.652 339.062,-182.852"/>
</g>
<!-- Node109 -->
<g id="node21" class="node"><title>Node109</title>
<g id="a_node21"><a xlink:href="classobe_1_1_transform_1_1_rect.html#a69ac4ab4d8187fc542c271dda07629b3" target="_top" xlink:title="Set the Width of the Rect. ">
<polygon fill="white" stroke="black" points="425.5,-88.5 425.5,-118.5 532.5,-118.5 532.5,-88.5 425.5,-88.5"/>
<text text-anchor="start" x="433.5" y="-106.5" font-family="Helvetica,sans-Serif" font-size="10.00">obe::Transform::Rect</text>
<text text-anchor="middle" x="479" y="-95.5" font-family="Helvetica,sans-Serif" font-size="10.00">::setWidth</text>
</a>
</g>
</g>
<!-- Node102&#45;&gt;Node109 -->
<g id="edge27" class="edge"><title>Node102&#45;&gt;Node109</title>
<path fill="none" stroke="midnightblue" d="M307.387,-180.829C331.744,-164.672 367.476,-142.511 401,-127.5 408.668,-124.067 416.971,-120.924 425.191,-118.125"/>
<polygon fill="midnightblue" stroke="midnightblue" points="305.308,-178.008 298.952,-186.485 309.207,-183.822 305.308,-178.008"/>
</g>
<!-- Node110 -->
<g id="node22" class="node"><title>Node110</title>
<g id="a_node22"><a xlink:href="classobe_1_1_transform_1_1_rect.html#acdc5c857f16cdeac3f24a86c52b9b330" target="_top" xlink:title="Set the Position of a specific Referencial of the Rect (The opposite Point won&#39;t move) ...">
<polygon fill="white" stroke="black" points="604.5,-44.5 604.5,-74.5 711.5,-74.5 711.5,-44.5 604.5,-44.5"/>
<text text-anchor="start" x="612.5" y="-62.5" font-family="Helvetica,sans-Serif" font-size="10.00">obe::Transform::Rect</text>
<text text-anchor="middle" x="658" y="-51.5" font-family="Helvetica,sans-Serif" font-size="10.00">::setPointPosition</text>
</a>
</g>
</g>
<!-- Node102&#45;&gt;Node110 -->
<g id="edge32" class="edge"><title>Node102&#45;&gt;Node110</title>
<path fill="none" stroke="midnightblue" d="M292.979,-178.006C313.683,-148.836 353.361,-100.275 401,-78.5 466.258,-48.6716 550.688,-48.8468 604.364,-53.0845"/>
<polygon fill="midnightblue" stroke="midnightblue" points="289.993,-176.171 287.176,-186.385 295.747,-180.157 289.993,-176.171"/>
</g>
<!-- Node112 -->
<g id="node24" class="node"><title>Node112</title>
<g id="a_node24"><a xlink:href="classobe_1_1_transform_1_1_rect.html#afa80d81d169dc5889af23eb1373f6763" target="_top" xlink:title="Set the Height of the Rect. ">
<polygon fill="white" stroke="black" points="425.5,-0.5 425.5,-30.5 532.5,-30.5 532.5,-0.5 425.5,-0.5"/>
<text text-anchor="start" x="433.5" y="-18.5" font-family="Helvetica,sans-Serif" font-size="10.00">obe::Transform::Rect</text>
<text text-anchor="middle" x="479" y="-7.5" font-family="Helvetica,sans-Serif" font-size="10.00">::setHeight</text>
</a>
</g>
</g>
<!-- Node102&#45;&gt;Node112 -->
<g id="edge30" class="edge"><title>Node102&#45;&gt;Node112</title>
<path fill="none" stroke="midnightblue" d="M290.748,-177.711C310.633,-143.981 351.226,-82.276 401,-45.5 409.077,-39.532 418.494,-34.5848 427.915,-30.5462"/>
<polygon fill="midnightblue" stroke="midnightblue" points="287.677,-176.031 285.699,-186.439 293.736,-179.536 287.677,-176.031"/>
</g>
<!-- Node104 -->
<g id="node16" class="node"><title>Node104</title>
<g id="a_node16"><a xlink:href="namespaceobe_1_1_editor.html#a9009207671e71dccb68a31ea2362e9ef" target="_top" xlink:title="Starts the map edition. ">
<polygon fill="white" stroke="black" points="1082,-335 1082,-354 1186,-354 1186,-335 1082,-335"/>
<text text-anchor="middle" x="1134" y="-342" font-family="Helvetica,sans-Serif" font-size="10.00">obe::Editor::editMap</text>
</a>
</g>
</g>
<!-- Node103&#45;&gt;Node104 -->
<g id="edge20" class="edge"><title>Node103&#45;&gt;Node104</title>
<path fill="none" stroke="midnightblue" d="M733.456,-315.841C830.54,-322.805 997.842,-334.805 1081.8,-340.828"/>
<polygon fill="midnightblue" stroke="midnightblue" points="733.644,-312.345 723.419,-315.121 733.143,-319.327 733.644,-312.345"/>
</g>
<!-- Node104&#45;&gt;Node94 -->
<g id="edge22" class="edge"><title>Node104&#45;&gt;Node94</title>
<path fill="none" stroke="midnightblue" d="M1196.24,-340.207C1248.26,-338.633 1324.1,-341.3 1386,-363.5 1403.05,-369.615 1419.62,-382.657 1429.81,-391.746"/>
<polygon fill="midnightblue" stroke="midnightblue" points="1196.03,-336.712 1186.17,-340.573 1196.29,-343.707 1196.03,-336.712"/>
</g>
<!-- Node104&#45;&gt;Node99 -->
<g id="edge21" class="edge"><title>Node104&#45;&gt;Node99</title>
<path fill="none" stroke="midnightblue" d="M1189.87,-356.181C1215.18,-361.57 1244.85,-367.886 1268.78,-372.98"/>
<polygon fill="midnightblue" stroke="midnightblue" points="1190.55,-352.748 1180.04,-354.089 1189.1,-359.595 1190.55,-352.748"/>
</g>
<!-- Node109&#45;&gt;Node110 -->
<g id="edge28" class="edge"><title>Node109&#45;&gt;Node110</title>
<path fill="none" stroke="midnightblue" d="M542.373,-87.9949C562.596,-82.9675 584.819,-77.4432 604.271,-72.6079"/>
<polygon fill="midnightblue" stroke="midnightblue" points="541.487,-84.6085 532.627,-90.4177 543.176,-91.4018 541.487,-84.6085"/>
</g>
<!-- Node111 -->
<g id="node23" class="node"><title>Node111</title>
<g id="a_node23"><a xlink:href="classobe_1_1_transform_1_1_rect.html#a8f10de323814de2ddad0d39c0d4c8150" target="_top" xlink:title="Set the Position of a specific Referencial of the Rect (The opposite Point won&#39;t move) ...">
<polygon fill="white" stroke="black" points="759,-44.5 759,-74.5 866,-74.5 866,-44.5 759,-44.5"/>
<text text-anchor="start" x="767" y="-62.5" font-family="Helvetica,sans-Serif" font-size="10.00">obe::Transform::Rect</text>
<text text-anchor="middle" x="812.5" y="-51.5" font-family="Helvetica,sans-Serif" font-size="10.00">::setPointPosition</text>
</a>
</g>
</g>
<!-- Node110&#45;&gt;Node111 -->
<g id="edge29" class="edge"><title>Node110&#45;&gt;Node111</title>
<path fill="none" stroke="midnightblue" d="M722.07,-59.5C734.332,-59.5 747.063,-59.5 758.942,-59.5"/>
<polygon fill="midnightblue" stroke="midnightblue" points="721.909,-56.0001 711.909,-59.5 721.909,-63.0001 721.909,-56.0001"/>
</g>
<!-- Node112&#45;&gt;Node110 -->
<g id="edge31" class="edge"><title>Node112&#45;&gt;Node110</title>
<path fill="none" stroke="midnightblue" d="M542.373,-31.0051C562.596,-36.0325 584.819,-41.5568 604.271,-46.3921"/>
<polygon fill="midnightblue" stroke="midnightblue" points="543.176,-27.5982 532.627,-28.5823 541.487,-34.3915 543.176,-27.5982"/>
</g>
</g>
</svg>
