<?xml version="1.0" encoding="UTF-8" standalone="no"?>
<!DOCTYPE svg PUBLIC "-//W3C//DTD SVG 1.1//EN"
 "http://www.w3.org/Graphics/SVG/1.1/DTD/svg11.dtd">
<!-- Generated by graphviz version 2.38.0 (20140413.2041)
 -->
<!-- Title: ziputils::zipper::addEntry Pages: 1 -->
<svg width="301pt" height="66pt"
 viewBox="0.00 0.00 301.00 66.00" xmlns="http://www.w3.org/2000/svg" xmlns:xlink="http://www.w3.org/1999/xlink">
<g id="graph0" class="graph" transform="scale(1 1) rotate(0) translate(4 62)">
<title>ziputils::zipper::addEntry</title>
<!-- Node10 -->
<g id="node1" class="node"><title>Node10</title>
<polygon fill="#bfbfbf" stroke="black" points="0,-19.5 0,-38.5 125,-38.5 125,-19.5 0,-19.5"/>
<text text-anchor="middle" x="62.5" y="-26.5" font-family="Helvetica,sans-Serif" font-size="10.00">ziputils::zipper::addEntry</text>
</g>
<!-- Node11 -->
<g id="node2" class="node"><title>Node11</title>
<g id="a_node2"><a xlink:href="classziputils_1_1zipper.html#a61e5a332bb844fcb5bd043860c959e98" target="_top" xlink:title="ziputils::zipper::isOpen">
<polygon fill="none" stroke="black" points="169,-38.5 169,-57.5 285,-57.5 285,-38.5 169,-38.5"/>
<text text-anchor="middle" x="227" y="-45.5" font-family="Helvetica,sans-Serif" font-size="10.00">ziputils::zipper::isOpen</text>
</a>
</g>
</g>
<!-- Node10&#45;&gt;Node11 -->
<g id="edge1" class="edge"><title>Node10&#45;&gt;Node11</title>
<path fill="none" stroke="midnightblue" d="M125.398,-36.2373C136.316,-37.5139 147.73,-38.8484 158.786,-40.1412"/>
<polygon fill="midnightblue" stroke="midnightblue" points="158.476,-43.6286 168.815,-41.3137 159.289,-36.676 158.476,-43.6286"/>
</g>
<!-- Node12 -->
<g id="node3" class="node"><title>Node12</title>
<g id="a_node3"><a xlink:href="classziputils_1_1zipper.html#a48c9c6334cff890fc7c638f9b2ac35a3" target="_top" xlink:title="ziputils::zipper::closeEntry">
<polygon fill="none" stroke="black" points="161,-0.5 161,-19.5 293,-19.5 293,-0.5 161,-0.5"/>
<text text-anchor="middle" x="227" y="-7.5" font-family="Helvetica,sans-Serif" font-size="10.00">ziputils::zipper::closeEntry</text>
</a>
</g>
</g>
<!-- Node10&#45;&gt;Node12 -->
<g id="edge2" class="edge"><title>Node10&#45;&gt;Node12</title>
<path fill="none" stroke="midnightblue" d="M125.398,-21.7627C133.624,-20.8009 142.13,-19.8063 150.553,-18.8214"/>
<polygon fill="midnightblue" stroke="midnightblue" points="151.236,-22.2656 160.762,-17.6278 150.423,-15.3129 151.236,-22.2656"/>
</g>
</g>
</svg>
