<?xml version="1.0" encoding="UTF-8" standalone="no"?>
<!DOCTYPE svg PUBLIC "-//W3C//DTD SVG 1.1//EN"
 "http://www.w3.org/Graphics/SVG/1.1/DTD/svg11.dtd">
<!-- Generated by graphviz version 2.38.0 (20140413.2041)
 -->
<!-- Title: ziputils::unzipper::openEntry Pages: 1 -->
<svg width="809pt" height="83pt"
 viewBox="0.00 0.00 809.00 82.80" xmlns="http://www.w3.org/2000/svg" xmlns:xlink="http://www.w3.org/1999/xlink">
<g id="graph0" class="graph" transform="scale(1 1) rotate(0) translate(4 78.8039)">
<title>ziputils::unzipper::openEntry</title>
<!-- Node127 -->
<g id="node1" class="node"><title>Node127</title>
<polygon fill="#bfbfbf" stroke="black" points="0,-38.5 0,-68.5 90,-68.5 90,-38.5 0,-38.5"/>
<text text-anchor="start" x="8" y="-56.5" font-family="Helvetica,sans-Serif" font-size="10.00">ziputils::unzipper</text>
<text text-anchor="middle" x="45" y="-45.5" font-family="Helvetica,sans-Serif" font-size="10.00">::openEntry</text>
</g>
<!-- Node128 -->
<g id="node2" class="node"><title>Node128</title>
<g id="a_node2"><a xlink:href="namespaceelz.html#ab6aa3d8a6c1250ba161b00d1695e4888" target="_top" xlink:title="elz::extractZip">
<polygon fill="white" stroke="black" points="127.5,-6 127.5,-25 205.5,-25 205.5,-6 127.5,-6"/>
<text text-anchor="middle" x="166.5" y="-13" font-family="Helvetica,sans-Serif" font-size="10.00">elz::extractZip</text>
</a>
</g>
</g>
<!-- Node127&#45;&gt;Node128 -->
<g id="edge1" class="edge"><title>Node127&#45;&gt;Node128</title>
<path fill="none" stroke="midnightblue" d="M99.8161,-36.3869C111.997,-32.5136 124.51,-28.5346 135.303,-25.1024"/>
<polygon fill="midnightblue" stroke="midnightblue" points="98.627,-33.0923 90.1579,-39.4582 100.748,-39.7631 98.627,-33.0923"/>
</g>
<!-- Node129 -->
<g id="node3" class="node"><title>Node129</title>
<g id="a_node3"><a xlink:href="elzip__fallback_8cpp.html#abcec8c64c7ae6dfbd2c0a1012a4d9dff" target="_top" xlink:title="join">
<polygon fill="white" stroke="black" points="285,-50 285,-69 317,-69 317,-50 285,-50"/>
<text text-anchor="middle" x="301" y="-57" font-family="Helvetica,sans-Serif" font-size="10.00">join</text>
</a>
</g>
</g>
<!-- Node127&#45;&gt;Node129 -->
<g id="edge10" class="edge"><title>Node127&#45;&gt;Node129</title>
<path fill="none" stroke="midnightblue" d="M100.065,-68.1373C108.681,-69.9486 117.542,-71.5094 126,-72.5 184.369,-79.3362 254.197,-68.3456 284.596,-62.6211"/>
<polygon fill="midnightblue" stroke="midnightblue" points="100.624,-64.6761 90.1021,-65.9151 99.1003,-71.5082 100.624,-64.6761"/>
</g>
<!-- Node134 -->
<g id="node8" class="node"><title>Node134</title>
<g id="a_node8"><a xlink:href="namespaceelz.html#a2f9a470fe7cfc780818ac0264d1176ec" target="_top" xlink:title="elz::extractFile">
<polygon fill="white" stroke="black" points="126,-44 126,-63 207,-63 207,-44 126,-44"/>
<text text-anchor="middle" x="166.5" y="-51" font-family="Helvetica,sans-Serif" font-size="10.00">elz::extractFile</text>
</a>
</g>
</g>
<!-- Node127&#45;&gt;Node134 -->
<g id="edge7" class="edge"><title>Node127&#45;&gt;Node134</title>
<path fill="none" stroke="midnightblue" d="M100.191,-53.5C108.836,-53.5 117.638,-53.5 125.864,-53.5"/>
<polygon fill="midnightblue" stroke="midnightblue" points="100.158,-50.0001 90.1579,-53.5 100.158,-57.0001 100.158,-50.0001"/>
</g>
<!-- Node128&#45;&gt;Node129 -->
<g id="edge2" class="edge"><title>Node128&#45;&gt;Node129</title>
<path fill="none" stroke="midnightblue" d="M205.951,-28.2688C232.296,-37.017 265.803,-48.1441 284.883,-54.4801"/>
<polygon fill="midnightblue" stroke="midnightblue" points="206.844,-24.8773 196.251,-25.0473 204.638,-31.5206 206.844,-24.8773"/>
</g>
<!-- Node130 -->
<g id="node4" class="node"><title>Node130</title>
<g id="a_node4"><a xlink:href="namespaceobe_1_1_system_1_1_package.html#ad8db0c0875d239ceec4b89383b410c51" target="_top" xlink:title="Installs a Package. ">
<polygon fill="white" stroke="black" points="243,-0.5 243,-30.5 359,-30.5 359,-0.5 243,-0.5"/>
<text text-anchor="start" x="251" y="-18.5" font-family="Helvetica,sans-Serif" font-size="10.00">obe::System::Package</text>
<text text-anchor="middle" x="301" y="-7.5" font-family="Helvetica,sans-Serif" font-size="10.00">::Install</text>
</a>
</g>
</g>
<!-- Node128&#45;&gt;Node130 -->
<g id="edge3" class="edge"><title>Node128&#45;&gt;Node130</title>
<path fill="none" stroke="midnightblue" d="M216.066,-15.5C224.672,-15.5 233.707,-15.5 242.531,-15.5"/>
<polygon fill="midnightblue" stroke="midnightblue" points="215.825,-12.0001 205.824,-15.5 215.824,-19.0001 215.825,-12.0001"/>
</g>
<!-- Node131 -->
<g id="node5" class="node"><title>Node131</title>
<g id="a_node5"><a xlink:href="namespaceobe_1_1_bindings_1_1_system_bindings.html#a22c5b1adb0db866c60e5dd2e4cd73c1b" target="_top" xlink:title="obe::Bindings::SystemBindings\l::LoadPackage">
<polygon fill="white" stroke="black" points="395,-0.5 395,-30.5 548,-30.5 548,-0.5 395,-0.5"/>
<text text-anchor="start" x="403" y="-18.5" font-family="Helvetica,sans-Serif" font-size="10.00">obe::Bindings::SystemBindings</text>
<text text-anchor="middle" x="471.5" y="-7.5" font-family="Helvetica,sans-Serif" font-size="10.00">::LoadPackage</text>
</a>
</g>
</g>
<!-- Node130&#45;&gt;Node131 -->
<g id="edge4" class="edge"><title>Node130&#45;&gt;Node131</title>
<path fill="none" stroke="midnightblue" d="M369.232,-15.5C377.699,-15.5 386.406,-15.5 394.991,-15.5"/>
<polygon fill="midnightblue" stroke="midnightblue" points="369.046,-12.0001 359.046,-15.5 369.046,-19.0001 369.046,-12.0001"/>
</g>
<!-- Node132 -->
<g id="node6" class="node"><title>Node132</title>
<g id="a_node6"><a xlink:href="namespaceobe_1_1_bindings.html#a41d33207a0199f125c75a0f70a4a3ba8" target="_top" xlink:title="To call when the engine starts, indexes all Lua bindings. ">
<polygon fill="white" stroke="black" points="584,-6 584,-25 727,-25 727,-6 584,-6"/>
<text text-anchor="middle" x="655.5" y="-13" font-family="Helvetica,sans-Serif" font-size="10.00">obe::Bindings::IndexBindings</text>
</a>
</g>
</g>
<!-- Node131&#45;&gt;Node132 -->
<g id="edge5" class="edge"><title>Node131&#45;&gt;Node132</title>
<path fill="none" stroke="midnightblue" d="M558.14,-15.5C566.731,-15.5 575.386,-15.5 583.797,-15.5"/>
<polygon fill="midnightblue" stroke="midnightblue" points="558.103,-12.0001 548.103,-15.5 558.103,-19.0001 558.103,-12.0001"/>
</g>
<!-- Node133 -->
<g id="node7" class="node"><title>Node133</title>
<g id="a_node7"><a xlink:href="_ob_engine_8cpp.html#a3c04138a5bfe5d72780bb7e82a18e627" target="_top" xlink:title="main">
<polygon fill="white" stroke="black" points="763,-6 763,-25 801,-25 801,-6 763,-6"/>
<text text-anchor="middle" x="782" y="-13" font-family="Helvetica,sans-Serif" font-size="10.00">main</text>
</a>
</g>
</g>
<!-- Node132&#45;&gt;Node133 -->
<g id="edge6" class="edge"><title>Node132&#45;&gt;Node133</title>
<path fill="none" stroke="midnightblue" d="M737.161,-15.5C746.623,-15.5 755.462,-15.5 762.688,-15.5"/>
<polygon fill="midnightblue" stroke="midnightblue" points="737.117,-12.0001 727.117,-15.5 737.117,-19.0001 737.117,-12.0001"/>
</g>
<!-- Node134&#45;&gt;Node129 -->
<g id="edge8" class="edge"><title>Node134&#45;&gt;Node129</title>
<path fill="none" stroke="midnightblue" d="M217.298,-55.755C241.264,-56.8403 268.297,-58.0644 284.738,-58.8089"/>
<polygon fill="midnightblue" stroke="midnightblue" points="217.402,-52.2562 207.254,-55.3002 217.086,-59.2491 217.402,-52.2562"/>
</g>
<!-- Node134&#45;&gt;Node130 -->
<g id="edge9" class="edge"><title>Node134&#45;&gt;Node130</title>
<path fill="none" stroke="midnightblue" d="M210.889,-41.0565C222.581,-37.7031 235.357,-34.0391 247.49,-30.5595"/>
<polygon fill="midnightblue" stroke="midnightblue" points="209.583,-37.7898 200.935,-43.911 211.513,-44.5185 209.583,-37.7898"/>
</g>
</g>
</svg>
