<?xml version="1.0" encoding="UTF-8" standalone="no"?>
<!DOCTYPE svg PUBLIC "-//W3C//DTD SVG 1.1//EN"
 "http://www.w3.org/Graphics/SVG/1.1/DTD/svg11.dtd">
<!-- Generated by graphviz version 2.38.0 (20140413.2041)
 -->
<!-- Title: obe::Input::InputAction::update Pages: 1 -->
<svg width="961pt" height="336pt"
 viewBox="0.00 0.00 961.00 336.00" xmlns="http://www.w3.org/2000/svg" xmlns:xlink="http://www.w3.org/1999/xlink">
<g id="graph0" class="graph" transform="scale(1 1) rotate(0) translate(4 332)">
<title>obe::Input::InputAction::update</title>
<!-- Node86 -->
<g id="node1" class="node"><title>Node86</title>
<polygon fill="#bfbfbf" stroke="black" points="0,-179.5 0,-209.5 114,-209.5 114,-179.5 0,-179.5"/>
<text text-anchor="start" x="8" y="-197.5" font-family="Helvetica,sans-Serif" font-size="10.00">obe::Input::InputAction</text>
<text text-anchor="middle" x="57" y="-186.5" font-family="Helvetica,sans-Serif" font-size="10.00">::update</text>
</g>
<!-- Node87 -->
<g id="node2" class="node"><title>Node87</title>
<g id="a_node2"><a xlink:href="classobe_1_1_time_1_1_time_check.html#aaecdfe048a694d55c6fc0e2bda99765c" target="_top" xlink:title="Resets the TimeCheck if elapsed. ">
<polygon fill="white" stroke="black" points="160,-253.5 160,-283.5 274,-283.5 274,-253.5 160,-253.5"/>
<text text-anchor="start" x="168" y="-271.5" font-family="Helvetica,sans-Serif" font-size="10.00">obe::Time::TimeCheck</text>
<text text-anchor="middle" x="217" y="-260.5" font-family="Helvetica,sans-Serif" font-size="10.00">::resetIfOver</text>
</a>
</g>
</g>
<!-- Node86&#45;&gt;Node87 -->
<g id="edge1" class="edge"><title>Node86&#45;&gt;Node87</title>
<path fill="none" stroke="midnightblue" d="M83.2574,-209.555C101.457,-220.072 126.796,-234.046 150,-244.5 153.877,-246.247 157.922,-247.963 162.018,-249.624"/>
<polygon fill="midnightblue" stroke="midnightblue" points="161.025,-252.994 171.613,-253.391 163.583,-246.479 161.025,-252.994"/>
</g>
<!-- Node91 -->
<g id="node6" class="node"><title>Node91</title>
<g id="a_node6"><a xlink:href="classobe_1_1_triggers_1_1_trigger_group.html#a49dc453c0968342bd7ffae88abcb19b7" target="_top" xlink:title="Pushes a Parameter to a Trigger. ">
<polygon fill="white" stroke="black" points="150,-106.5 150,-136.5 284,-136.5 284,-106.5 150,-106.5"/>
<text text-anchor="start" x="158" y="-124.5" font-family="Helvetica,sans-Serif" font-size="10.00">obe::Triggers::TriggerGroup</text>
<text text-anchor="middle" x="217" y="-113.5" font-family="Helvetica,sans-Serif" font-size="10.00">::pushParameter</text>
</a>
</g>
</g>
<!-- Node86&#45;&gt;Node91 -->
<g id="edge6" class="edge"><title>Node86&#45;&gt;Node91</title>
<path fill="none" stroke="midnightblue" d="M84.0802,-179.342C102.236,-169.107 127.188,-155.662 150,-145.5 154.056,-143.693 158.295,-141.914 162.581,-140.193"/>
<polygon fill="midnightblue" stroke="midnightblue" points="163.942,-143.418 171.988,-136.525 161.4,-136.896 163.942,-143.418"/>
</g>
<!-- Node103 -->
<g id="node18" class="node"><title>Node103</title>
<g id="a_node18"><a xlink:href="classobe_1_1_triggers_1_1_trigger_group.html#a321c75e1c0d14e8cf23dfa4829c457c6" target="_top" xlink:title="Enables a Trigger. ">
<polygon fill="white" stroke="black" points="150,-155.5 150,-185.5 284,-185.5 284,-155.5 150,-155.5"/>
<text text-anchor="start" x="158" y="-173.5" font-family="Helvetica,sans-Serif" font-size="10.00">obe::Triggers::TriggerGroup</text>
<text text-anchor="middle" x="217" y="-162.5" font-family="Helvetica,sans-Serif" font-size="10.00">::trigger</text>
</a>
</g>
</g>
<!-- Node86&#45;&gt;Node103 -->
<g id="edge18" class="edge"><title>Node86&#45;&gt;Node103</title>
<path fill="none" stroke="midnightblue" d="M114.15,-185.971C122.438,-184.712 131.092,-183.397 139.704,-182.089"/>
<polygon fill="midnightblue" stroke="midnightblue" points="140.409,-185.522 149.77,-180.56 139.358,-178.602 140.409,-185.522"/>
</g>
<!-- Node105 -->
<g id="node20" class="node"><title>Node105</title>
<g id="a_node20"><a xlink:href="classobe_1_1_time_1_1_time_check.html#accefb84002e7796f31828c7b6f856489" target="_top" xlink:title="Directly overs the TimeCheck so ::over() will return true. ">
<polygon fill="white" stroke="black" points="160,-204.5 160,-234.5 274,-234.5 274,-204.5 160,-204.5"/>
<text text-anchor="start" x="168" y="-222.5" font-family="Helvetica,sans-Serif" font-size="10.00">obe::Time::TimeCheck</text>
<text text-anchor="middle" x="217" y="-211.5" font-family="Helvetica,sans-Serif" font-size="10.00">::goToOver</text>
</a>
</g>
</g>
<!-- Node86&#45;&gt;Node105 -->
<g id="edge24" class="edge"><title>Node86&#45;&gt;Node105</title>
<path fill="none" stroke="midnightblue" d="M114.15,-203.384C125.606,-205.197 137.765,-207.121 149.541,-208.984"/>
<polygon fill="midnightblue" stroke="midnightblue" points="149.341,-212.496 159.765,-210.602 150.435,-205.582 149.341,-212.496"/>
</g>
<!-- Node88 -->
<g id="node3" class="node"><title>Node88</title>
<g id="a_node3"><a xlink:href="classobe_1_1_time_1_1_time_check.html#acc6937212751588fd056749114cf3bb3" target="_top" xlink:title="Checks if the TimeCheck is elapsed. ">
<polygon fill="white" stroke="black" points="330,-297.5 330,-327.5 444,-327.5 444,-297.5 330,-297.5"/>
<text text-anchor="start" x="338" y="-315.5" font-family="Helvetica,sans-Serif" font-size="10.00">obe::Time::TimeCheck</text>
<text text-anchor="middle" x="387" y="-304.5" font-family="Helvetica,sans-Serif" font-size="10.00">::over</text>
</a>
</g>
</g>
<!-- Node87&#45;&gt;Node88 -->
<g id="edge2" class="edge"><title>Node87&#45;&gt;Node88</title>
<path fill="none" stroke="midnightblue" d="M274.409,-283.274C289.031,-287.103 304.909,-291.262 319.977,-295.208"/>
<polygon fill="midnightblue" stroke="midnightblue" points="319.179,-298.617 329.74,-297.765 320.953,-291.846 319.179,-298.617"/>
</g>
<!-- Node90 -->
<g id="node5" class="node"><title>Node90</title>
<g id="a_node5"><a xlink:href="classobe_1_1_time_1_1_time_check.html#a169dfcdb1c70bc89d1acaf64632fd639" target="_top" xlink:title="obe::Time::TimeCheck\l::reset">
<polygon fill="white" stroke="black" points="330,-248.5 330,-278.5 444,-278.5 444,-248.5 330,-248.5"/>
<text text-anchor="start" x="338" y="-266.5" font-family="Helvetica,sans-Serif" font-size="10.00">obe::Time::TimeCheck</text>
<text text-anchor="middle" x="387" y="-255.5" font-family="Helvetica,sans-Serif" font-size="10.00">::reset</text>
</a>
</g>
</g>
<!-- Node87&#45;&gt;Node90 -->
<g id="edge4" class="edge"><title>Node87&#45;&gt;Node90</title>
<path fill="none" stroke="midnightblue" d="M274.409,-266.821C288.892,-266.39 304.607,-265.922 319.546,-265.478"/>
<polygon fill="midnightblue" stroke="midnightblue" points="319.849,-268.97 329.74,-265.174 319.64,-261.974 319.849,-268.97"/>
</g>
<!-- Node89 -->
<g id="node4" class="node"><title>Node89</title>
<g id="a_node4"><a xlink:href="namespaceobe_1_1_time.html#a8ae76b1e66dea054aced3ab86ecb6d3f" target="_top" xlink:title="Get the amount of milliseconds elapsed since Epoch. ">
<polygon fill="white" stroke="black" points="490,-254 490,-273 639,-273 639,-254 490,-254"/>
<text text-anchor="middle" x="564.5" y="-261" font-family="Helvetica,sans-Serif" font-size="10.00">obe::Time::getTickSinceEpoch</text>
</a>
</g>
</g>
<!-- Node88&#45;&gt;Node89 -->
<g id="edge3" class="edge"><title>Node88&#45;&gt;Node89</title>
<path fill="none" stroke="midnightblue" d="M442.088,-297.399C467.027,-290.435 496.243,-282.278 519.765,-275.711"/>
<polygon fill="midnightblue" stroke="midnightblue" points="520.777,-279.062 529.468,-273.002 518.895,-272.32 520.777,-279.062"/>
</g>
<!-- Node90&#45;&gt;Node89 -->
<g id="edge5" class="edge"><title>Node90&#45;&gt;Node89</title>
<path fill="none" stroke="midnightblue" d="M444.012,-263.5C455.376,-263.5 467.56,-263.5 479.646,-263.5"/>
<polygon fill="midnightblue" stroke="midnightblue" points="479.755,-267 489.755,-263.5 479.755,-260 479.755,-267"/>
</g>
<!-- Node92 -->
<g id="node7" class="node"><title>Node92</title>
<g id="a_node7"><a xlink:href="classobe_1_1_triggers_1_1_trigger_group.html#aa634130b4aeb886549f0a20d993b5c92" target="_top" xlink:title="Get a Trigger contained in the TriggerGroup. ">
<polygon fill="white" stroke="black" points="320,-109.5 320,-139.5 454,-139.5 454,-109.5 320,-109.5"/>
<text text-anchor="start" x="328" y="-127.5" font-family="Helvetica,sans-Serif" font-size="10.00">obe::Triggers::TriggerGroup</text>
<text text-anchor="middle" x="387" y="-116.5" font-family="Helvetica,sans-Serif" font-size="10.00">::getTrigger</text>
</a>
</g>
</g>
<!-- Node91&#45;&gt;Node92 -->
<g id="edge7" class="edge"><title>Node91&#45;&gt;Node92</title>
<path fill="none" stroke="midnightblue" d="M284.398,-122.686C292.679,-122.834 301.199,-122.986 309.616,-123.136"/>
<polygon fill="midnightblue" stroke="midnightblue" points="309.748,-126.639 319.809,-123.318 309.873,-119.64 309.748,-126.639"/>
</g>
<!-- Node97 -->
<g id="node12" class="node"><title>Node97</title>
<g id="a_node12"><a xlink:href="classobe_1_1_triggers_1_1_trigger.html#a09b4d1a86c910fd6659ec37547bea49f" target="_top" xlink:title="Pushes a parameter to the Trigger. ">
<polygon fill="white" stroke="black" points="333,-60.5 333,-90.5 441,-90.5 441,-60.5 333,-60.5"/>
<text text-anchor="start" x="341" y="-78.5" font-family="Helvetica,sans-Serif" font-size="10.00">obe::Triggers::Trigger</text>
<text text-anchor="middle" x="387" y="-67.5" font-family="Helvetica,sans-Serif" font-size="10.00">::pushParameter</text>
</a>
</g>
</g>
<!-- Node91&#45;&gt;Node97 -->
<g id="edge12" class="edge"><title>Node91&#45;&gt;Node97</title>
<path fill="none" stroke="midnightblue" d="M273.009,-106.438C288.938,-102.076 306.452,-97.2809 322.837,-92.7946"/>
<polygon fill="midnightblue" stroke="midnightblue" points="324.148,-96.0645 332.869,-90.0478 322.3,-89.313 324.148,-96.0645"/>
</g>
<!-- Node93 -->
<g id="node8" class="node"><title>Node93</title>
<g id="a_node8"><a xlink:href="classaube_1_1_error_handler.html#a7c8d44a3e7f019646d289950abc5301b" target="_top" xlink:title="Raises an Error loaded in the Aube Error Database (AED) ">
<polygon fill="white" stroke="black" points="515.5,-57.5 515.5,-87.5 613.5,-87.5 613.5,-57.5 515.5,-57.5"/>
<text text-anchor="start" x="523.5" y="-75.5" font-family="Helvetica,sans-Serif" font-size="10.00">aube::ErrorHandler</text>
<text text-anchor="middle" x="564.5" y="-64.5" font-family="Helvetica,sans-Serif" font-size="10.00">::Raise</text>
</a>
</g>
</g>
<!-- Node92&#45;&gt;Node93 -->
<g id="edge8" class="edge"><title>Node92&#45;&gt;Node93</title>
<path fill="none" stroke="midnightblue" d="M438.762,-109.459C459.656,-103.269 483.974,-96.0633 505.561,-89.6672"/>
<polygon fill="midnightblue" stroke="midnightblue" points="506.671,-92.9887 515.265,-86.792 504.682,-86.2771 506.671,-92.9887"/>
</g>
<!-- Node94 -->
<g id="node9" class="node"><title>Node94</title>
<g id="a_node9"><a xlink:href="classaube_1_1_error_message.html#a9184cc96589578f434351c105b0cd5f7" target="_top" xlink:title="Gets the location of the error in the code. ">
<polygon fill="white" stroke="black" points="677,-98.5 677,-128.5 781,-128.5 781,-98.5 677,-98.5"/>
<text text-anchor="start" x="685" y="-116.5" font-family="Helvetica,sans-Serif" font-size="10.00">aube::ErrorMessage</text>
<text text-anchor="middle" x="729" y="-105.5" font-family="Helvetica,sans-Serif" font-size="10.00">::getLocation</text>
</a>
</g>
</g>
<!-- Node93&#45;&gt;Node94 -->
<g id="edge9" class="edge"><title>Node93&#45;&gt;Node94</title>
<path fill="none" stroke="midnightblue" d="M613.815,-84.6903C630.395,-88.8736 649.178,-93.6125 666.651,-98.0212"/>
<polygon fill="midnightblue" stroke="midnightblue" points="666.209,-101.519 676.762,-100.572 667.922,-94.7321 666.209,-101.519"/>
</g>
<!-- Node95 -->
<g id="node10" class="node"><title>Node95</title>
<g id="a_node10"><a xlink:href="classaube_1_1_error_message.html#a07927cb3e2d0712c459cc9e2b5f52696" target="_top" xlink:title="Gets the message displayed by the ErrorMessage when raised. ">
<polygon fill="white" stroke="black" points="677,-49.5 677,-79.5 781,-79.5 781,-49.5 677,-49.5"/>
<text text-anchor="start" x="685" y="-67.5" font-family="Helvetica,sans-Serif" font-size="10.00">aube::ErrorMessage</text>
<text text-anchor="middle" x="729" y="-56.5" font-family="Helvetica,sans-Serif" font-size="10.00">::getMessage</text>
</a>
</g>
</g>
<!-- Node93&#45;&gt;Node95 -->
<g id="edge10" class="edge"><title>Node93&#45;&gt;Node95</title>
<path fill="none" stroke="midnightblue" d="M613.815,-70.1214C630.395,-69.3052 649.178,-68.3805 666.651,-67.5202"/>
<polygon fill="midnightblue" stroke="midnightblue" points="666.946,-71.0101 676.762,-67.0225 666.602,-64.0185 666.946,-71.0101"/>
</g>
<!-- Node96 -->
<g id="node11" class="node"><title>Node96</title>
<g id="a_node11"><a xlink:href="classaube_1_1_error_message.html#a77c2f9b7e93542c958173b52da267989" target="_top" xlink:title="Gets hints that can help the error resolution. ">
<polygon fill="white" stroke="black" points="677,-0.5 677,-30.5 781,-30.5 781,-0.5 677,-0.5"/>
<text text-anchor="start" x="685" y="-18.5" font-family="Helvetica,sans-Serif" font-size="10.00">aube::ErrorMessage</text>
<text text-anchor="middle" x="729" y="-7.5" font-family="Helvetica,sans-Serif" font-size="10.00">::getHints</text>
</a>
</g>
</g>
<!-- Node93&#45;&gt;Node96 -->
<g id="edge11" class="edge"><title>Node93&#45;&gt;Node96</title>
<path fill="none" stroke="midnightblue" d="M608.62,-57.3747C629.087,-50.1958 653.727,-41.5527 675.294,-33.9878"/>
<polygon fill="midnightblue" stroke="midnightblue" points="676.682,-37.2097 684.96,-30.597 674.365,-30.6043 676.682,-37.2097"/>
</g>
<!-- Node98 -->
<g id="node13" class="node"><title>Node98</title>
<g id="a_node13"><a xlink:href="classobe_1_1_triggers_1_1_trigger.html#ad83456f23a1e90dc2b7f816628c93e36" target="_top" xlink:title="Gets the Lua Table path used to store Trigger Parameters. ">
<polygon fill="white" stroke="black" points="499.5,-114.5 499.5,-144.5 629.5,-144.5 629.5,-114.5 499.5,-114.5"/>
<text text-anchor="start" x="507.5" y="-132.5" font-family="Helvetica,sans-Serif" font-size="10.00">obe::Triggers::Trigger</text>
<text text-anchor="middle" x="564.5" y="-121.5" font-family="Helvetica,sans-Serif" font-size="10.00">::getTriggerLuaTableName</text>
</a>
</g>
</g>
<!-- Node97&#45;&gt;Node98 -->
<g id="edge13" class="edge"><title>Node97&#45;&gt;Node98</title>
<path fill="none" stroke="midnightblue" d="M436.887,-90.542C458.002,-97.0391 482.88,-104.694 504.97,-111.491"/>
<polygon fill="midnightblue" stroke="midnightblue" points="503.984,-114.849 514.572,-114.445 506.043,-108.159 503.984,-114.849"/>
</g>
<!-- Node99 -->
<g id="node14" class="node"><title>Node99</title>
<g id="a_node14"><a xlink:href="classobe_1_1_triggers_1_1_trigger.html#a5649d751353ffb6fd27051f7f21eee6e" target="_top" xlink:title="Get the name of the namespace of the parent (TriggerGroup) of the Trigger. ">
<polygon fill="white" stroke="black" points="675,-196.5 675,-226.5 783,-226.5 783,-196.5 675,-196.5"/>
<text text-anchor="start" x="683" y="-214.5" font-family="Helvetica,sans-Serif" font-size="10.00">obe::Triggers::Trigger</text>
<text text-anchor="middle" x="729" y="-203.5" font-family="Helvetica,sans-Serif" font-size="10.00">::getNamespace</text>
</a>
</g>
</g>
<!-- Node98&#45;&gt;Node99 -->
<g id="edge14" class="edge"><title>Node98&#45;&gt;Node99</title>
<path fill="none" stroke="midnightblue" d="M593.704,-144.569C615.727,-156.241 647.159,-172.694 675,-186.5 678.743,-188.356 682.648,-190.26 686.568,-192.148"/>
<polygon fill="midnightblue" stroke="midnightblue" points="685.139,-195.344 695.671,-196.497 688.157,-189.028 685.139,-195.344"/>
</g>
<!-- Node101 -->
<g id="node16" class="node"><title>Node101</title>
<g id="a_node16"><a xlink:href="classobe_1_1_triggers_1_1_trigger.html#ab0eb4ecf6b771aadfc966a10cd620160" target="_top" xlink:title="Get the name of the TriggerGroup which is the parent of the Trigger. ">
<polygon fill="white" stroke="black" points="675,-147.5 675,-177.5 783,-177.5 783,-147.5 675,-147.5"/>
<text text-anchor="start" x="683" y="-165.5" font-family="Helvetica,sans-Serif" font-size="10.00">obe::Triggers::Trigger</text>
<text text-anchor="middle" x="729" y="-154.5" font-family="Helvetica,sans-Serif" font-size="10.00">::getGroup</text>
</a>
</g>
</g>
<!-- Node98&#45;&gt;Node101 -->
<g id="edge16" class="edge"><title>Node98&#45;&gt;Node101</title>
<path fill="none" stroke="midnightblue" d="M629.724,-142.542C641.32,-144.897 653.4,-147.351 664.962,-149.698"/>
<polygon fill="midnightblue" stroke="midnightblue" points="664.467,-153.169 674.964,-151.73 665.86,-146.309 664.467,-153.169"/>
</g>
<!-- Node100 -->
<g id="node15" class="node"><title>Node100</title>
<g id="a_node15"><a xlink:href="classobe_1_1_triggers_1_1_trigger_group.html#a4444bdd3126c3cee2c09f5f20f799256" target="_top" xlink:title="Get the name of the namespace the Trigger is in. ">
<polygon fill="white" stroke="black" points="819,-196.5 819,-226.5 953,-226.5 953,-196.5 819,-196.5"/>
<text text-anchor="start" x="827" y="-214.5" font-family="Helvetica,sans-Serif" font-size="10.00">obe::Triggers::TriggerGroup</text>
<text text-anchor="middle" x="886" y="-203.5" font-family="Helvetica,sans-Serif" font-size="10.00">::getNamespace</text>
</a>
</g>
</g>
<!-- Node99&#45;&gt;Node100 -->
<g id="edge15" class="edge"><title>Node99&#45;&gt;Node100</title>
<path fill="none" stroke="midnightblue" d="M783.342,-211.5C791.587,-211.5 800.238,-211.5 808.866,-211.5"/>
<polygon fill="midnightblue" stroke="midnightblue" points="808.959,-215 818.959,-211.5 808.959,-208 808.959,-215"/>
</g>
<!-- Node102 -->
<g id="node17" class="node"><title>Node102</title>
<g id="a_node17"><a xlink:href="classobe_1_1_triggers_1_1_trigger_group.html#afd615ae94ece6e7d978aab0ae9de80f8" target="_top" xlink:title="Get the name of the TriggerGroup. ">
<polygon fill="white" stroke="black" points="819,-147.5 819,-177.5 953,-177.5 953,-147.5 819,-147.5"/>
<text text-anchor="start" x="827" y="-165.5" font-family="Helvetica,sans-Serif" font-size="10.00">obe::Triggers::TriggerGroup</text>
<text text-anchor="middle" x="886" y="-154.5" font-family="Helvetica,sans-Serif" font-size="10.00">::getName</text>
</a>
</g>
</g>
<!-- Node101&#45;&gt;Node102 -->
<g id="edge17" class="edge"><title>Node101&#45;&gt;Node102</title>
<path fill="none" stroke="midnightblue" d="M783.342,-162.5C791.587,-162.5 800.238,-162.5 808.866,-162.5"/>
<polygon fill="midnightblue" stroke="midnightblue" points="808.959,-166 818.959,-162.5 808.959,-159 808.959,-166"/>
</g>
<!-- Node103&#45;&gt;Node92 -->
<g id="edge19" class="edge"><title>Node103&#45;&gt;Node92</title>
<path fill="none" stroke="midnightblue" d="M273.009,-155.438C288.463,-151.207 305.408,-146.567 321.367,-142.197"/>
<polygon fill="midnightblue" stroke="midnightblue" points="322.433,-145.534 331.154,-139.517 320.585,-138.783 322.433,-145.534"/>
</g>
<!-- Node104 -->
<g id="node19" class="node"><title>Node104</title>
<g id="a_node19"><a xlink:href="classobe_1_1_triggers_1_1_trigger.html#a8681c2bad7905ed990df9aa4053f2a5b" target="_top" xlink:title="Triggers callbacks. ">
<polygon fill="white" stroke="black" points="333,-158.5 333,-188.5 441,-188.5 441,-158.5 333,-158.5"/>
<text text-anchor="start" x="341" y="-176.5" font-family="Helvetica,sans-Serif" font-size="10.00">obe::Triggers::Trigger</text>
<text text-anchor="middle" x="387" y="-165.5" font-family="Helvetica,sans-Serif" font-size="10.00">::execute</text>
</a>
</g>
</g>
<!-- Node103&#45;&gt;Node104 -->
<g id="edge20" class="edge"><title>Node103&#45;&gt;Node104</title>
<path fill="none" stroke="midnightblue" d="M284.398,-171.686C296.937,-171.91 310.025,-172.143 322.473,-172.366"/>
<polygon fill="midnightblue" stroke="midnightblue" points="322.693,-175.87 332.754,-172.549 322.818,-168.871 322.693,-175.87"/>
</g>
<!-- Node104&#45;&gt;Node98 -->
<g id="edge21" class="edge"><title>Node104&#45;&gt;Node98</title>
<path fill="none" stroke="midnightblue" d="M441.132,-160.179C457.577,-156.056 475.955,-151.449 493.367,-147.083"/>
<polygon fill="midnightblue" stroke="midnightblue" points="494.637,-150.373 503.485,-144.546 492.934,-143.583 494.637,-150.373"/>
</g>
<!-- Node104&#45;&gt;Node99 -->
<g id="edge22" class="edge"><title>Node104&#45;&gt;Node99</title>
<path fill="none" stroke="midnightblue" d="M441.125,-179.438C501.667,-186.204 600.54,-197.254 664.94,-204.452"/>
<polygon fill="midnightblue" stroke="midnightblue" points="664.641,-207.94 674.968,-205.573 665.419,-200.984 664.641,-207.94"/>
</g>
<!-- Node104&#45;&gt;Node101 -->
<g id="edge23" class="edge"><title>Node104&#45;&gt;Node101</title>
<path fill="none" stroke="midnightblue" d="M441.125,-171.781C501.667,-169.823 600.54,-166.624 664.94,-164.54"/>
<polygon fill="midnightblue" stroke="midnightblue" points="665.087,-168.037 674.968,-164.216 664.86,-161.041 665.087,-168.037"/>
</g>
<!-- Node105&#45;&gt;Node89 -->
<g id="edge25" class="edge"><title>Node105&#45;&gt;Node89</title>
<path fill="none" stroke="midnightblue" d="M274.032,-222.174C322.003,-224.958 392.812,-230.243 454,-239.5 474.471,-242.597 496.837,-247.265 515.988,-251.662"/>
<polygon fill="midnightblue" stroke="midnightblue" points="515.439,-255.128 525.973,-253.997 517.032,-248.312 515.439,-255.128"/>
</g>
</g>
</svg>
