<?xml version="1.0" encoding="UTF-8" standalone="no"?>
<!DOCTYPE svg PUBLIC "-//W3C//DTD SVG 1.1//EN"
 "http://www.w3.org/Graphics/SVG/1.1/DTD/svg11.dtd">
<!-- Generated by graphviz version 2.38.0 (20140413.2041)
 -->
<!-- Title: obe::Input::InputManager::actionExists Pages: 1 -->
<svg width="721pt" height="131pt"
 viewBox="0.00 0.00 721.00 130.91" xmlns="http://www.w3.org/2000/svg" xmlns:xlink="http://www.w3.org/1999/xlink">
<g id="graph0" class="graph" transform="scale(1 1) rotate(0) translate(4 126.908)">
<title>obe::Input::InputManager::actionExists</title>
<!-- Node3 -->
<g id="node1" class="node"><title>Node3</title>
<polygon fill="#bfbfbf" stroke="black" points="0,-70.4077 0,-100.408 124,-100.408 124,-70.4077 0,-70.4077"/>
<text text-anchor="start" x="8" y="-88.4077" font-family="Helvetica,sans-Serif" font-size="10.00">obe::Input::InputManager</text>
<text text-anchor="middle" x="62" y="-77.4077" font-family="Helvetica,sans-Serif" font-size="10.00">::actionExists</text>
</g>
<!-- Node4 -->
<g id="node2" class="node"><title>Node4</title>
<g id="a_node2"><a xlink:href="namespaceobe_1_1_bindings_1_1_input_bindings.html#a0e18c5fd5d863156b05c62dafface3b3" target="_top" xlink:title="obe::Bindings::InputBindings\l::LoadInputManager">
<polygon fill="white" stroke="black" points="320,-92.4077 320,-122.408 460,-122.408 460,-92.4077 320,-92.4077"/>
<text text-anchor="start" x="328" y="-110.408" font-family="Helvetica,sans-Serif" font-size="10.00">obe::Bindings::InputBindings</text>
<text text-anchor="middle" x="390" y="-99.4077" font-family="Helvetica,sans-Serif" font-size="10.00">::LoadInputManager</text>
</a>
</g>
</g>
<!-- Node3&#45;&gt;Node4 -->
<g id="edge1" class="edge"><title>Node3&#45;&gt;Node4</title>
<path fill="none" stroke="midnightblue" d="M134.354,-90.223C189.443,-93.9407 265.221,-99.0546 319.769,-102.736"/>
<polygon fill="midnightblue" stroke="midnightblue" points="134.531,-86.7271 124.318,-89.5458 134.06,-93.7112 134.531,-86.7271"/>
</g>
<!-- Node7 -->
<g id="node5" class="node"><title>Node7</title>
<g id="a_node5"><a xlink:href="classobe_1_1_input_1_1_input_manager.html#adf10d43635b0d5c29bbb4839d083e150" target="_top" xlink:title="Configure KeyboardAction from a vili configuration file. ">
<polygon fill="white" stroke="black" points="160,-48.4077 160,-78.4077 284,-78.4077 284,-48.4077 160,-48.4077"/>
<text text-anchor="start" x="168" y="-66.4077" font-family="Helvetica,sans-Serif" font-size="10.00">obe::Input::InputManager</text>
<text text-anchor="middle" x="222" y="-55.4077" font-family="Helvetica,sans-Serif" font-size="10.00">::configure</text>
</a>
</g>
</g>
<!-- Node3&#45;&gt;Node7 -->
<g id="edge4" class="edge"><title>Node3&#45;&gt;Node7</title>
<path fill="none" stroke="midnightblue" d="M134.086,-75.5097C142.673,-74.314 151.387,-73.1007 159.815,-71.9272"/>
<polygon fill="midnightblue" stroke="midnightblue" points="133.509,-72.0562 124.087,-76.902 134.474,-78.9893 133.509,-72.0562"/>
</g>
<!-- Node5 -->
<g id="node3" class="node"><title>Node5</title>
<g id="a_node3"><a xlink:href="namespaceobe_1_1_bindings.html#a41d33207a0199f125c75a0f70a4a3ba8" target="_top" xlink:title="To call when the engine starts, indexes all Lua bindings. ">
<polygon fill="white" stroke="black" points="496,-97.9077 496,-116.908 639,-116.908 639,-97.9077 496,-97.9077"/>
<text text-anchor="middle" x="567.5" y="-104.908" font-family="Helvetica,sans-Serif" font-size="10.00">obe::Bindings::IndexBindings</text>
</a>
</g>
</g>
<!-- Node4&#45;&gt;Node5 -->
<g id="edge2" class="edge"><title>Node4&#45;&gt;Node5</title>
<path fill="none" stroke="midnightblue" d="M470.353,-107.408C478.811,-107.408 487.374,-107.408 495.723,-107.408"/>
<polygon fill="midnightblue" stroke="midnightblue" points="470.11,-103.908 460.11,-107.408 470.11,-110.908 470.11,-103.908"/>
</g>
<!-- Node6 -->
<g id="node4" class="node"><title>Node6</title>
<g id="a_node4"><a xlink:href="_ob_engine_8cpp.html#a3c04138a5bfe5d72780bb7e82a18e627" target="_top" xlink:title="main">
<polygon fill="white" stroke="black" points="675,-40.9077 675,-59.9077 713,-59.9077 713,-40.9077 675,-40.9077"/>
<text text-anchor="middle" x="694" y="-47.9077" font-family="Helvetica,sans-Serif" font-size="10.00">main</text>
</a>
</g>
</g>
<!-- Node5&#45;&gt;Node6 -->
<g id="edge3" class="edge"><title>Node5&#45;&gt;Node6</title>
<path fill="none" stroke="midnightblue" d="M610.963,-94.6445C620.351,-91.3581 630.137,-87.562 639,-83.4077 653.326,-76.6927 668.621,-67.0907 679.262,-59.9742"/>
<polygon fill="midnightblue" stroke="midnightblue" points="609.735,-91.365 601.379,-97.8785 611.973,-97.9976 609.735,-91.365"/>
</g>
<!-- Node7&#45;&gt;Node4 -->
<g id="edge5" class="edge"><title>Node7&#45;&gt;Node4</title>
<path fill="none" stroke="midnightblue" d="M289.378,-81.0019C303.598,-84.771 318.496,-88.72 332.31,-92.3815"/>
<polygon fill="midnightblue" stroke="midnightblue" points="290.226,-77.606 279.663,-78.427 288.433,-84.3723 290.226,-77.606"/>
</g>
<!-- Node8 -->
<g id="node6" class="node"><title>Node8</title>
<g id="a_node6"><a xlink:href="namespaceobe_1_1_editor.html#a9009207671e71dccb68a31ea2362e9ef" target="_top" xlink:title="Starts the map edition. ">
<polygon fill="white" stroke="black" points="338,-53.9077 338,-72.9077 442,-72.9077 442,-53.9077 338,-53.9077"/>
<text text-anchor="middle" x="390" y="-60.9077" font-family="Helvetica,sans-Serif" font-size="10.00">obe::Editor::editMap</text>
</a>
</g>
</g>
<!-- Node7&#45;&gt;Node8 -->
<g id="edge6" class="edge"><title>Node7&#45;&gt;Node8</title>
<path fill="none" stroke="midnightblue" d="M294.388,-63.4077C309.049,-63.4077 324.202,-63.4077 337.97,-63.4077"/>
<polygon fill="midnightblue" stroke="midnightblue" points="294.341,-59.9078 284.341,-63.4077 294.341,-66.9078 294.341,-59.9078"/>
</g>
<!-- Node10 -->
<g id="node8" class="node"><title>Node10</title>
<g id="a_node8"><a xlink:href="namespaceobe_1_1_modes.html#a5f4a1008892030350b06282b8dee1a89" target="_top" xlink:title="Start the game by loading the boot.lua file in one of the MountedPaths. ">
<polygon fill="white" stroke="black" points="330.5,-15.9077 330.5,-34.9077 449.5,-34.9077 449.5,-15.9077 330.5,-15.9077"/>
<text text-anchor="middle" x="390" y="-22.9077" font-family="Helvetica,sans-Serif" font-size="10.00">obe::Modes::startGame</text>
</a>
</g>
</g>
<!-- Node7&#45;&gt;Node10 -->
<g id="edge10" class="edge"><title>Node7&#45;&gt;Node10</title>
<path fill="none" stroke="midnightblue" d="M294.291,-47.0881C312.382,-42.9468 331.23,-38.6321 347.305,-34.9525"/>
<polygon fill="midnightblue" stroke="midnightblue" points="293.307,-43.7226 284.341,-49.3659 294.87,-50.5461 293.307,-43.7226"/>
</g>
<!-- Node8&#45;&gt;Node6 -->
<g id="edge9" class="edge"><title>Node8&#45;&gt;Node6</title>
<path fill="none" stroke="midnightblue" d="M452.226,-60.7722C522.042,-57.7668 632.057,-53.0311 674.994,-51.1828"/>
<polygon fill="midnightblue" stroke="midnightblue" points="452.07,-57.2755 442.23,-61.2025 452.371,-64.2691 452.07,-57.2755"/>
</g>
<!-- Node9 -->
<g id="node7" class="node"><title>Node9</title>
<g id="a_node7"><a xlink:href="namespaceobe_1_1_modes.html#a6a8b08eee511d4895c4da96d4ba223a6" target="_top" xlink:title="Starts the development Menu where you can starts other menus from. ">
<polygon fill="white" stroke="black" points="501,-21.9077 501,-40.9077 634,-40.9077 634,-21.9077 501,-21.9077"/>
<text text-anchor="middle" x="567.5" y="-28.9077" font-family="Helvetica,sans-Serif" font-size="10.00">obe::Modes::startDevMenu</text>
</a>
</g>
</g>
<!-- Node8&#45;&gt;Node9 -->
<g id="edge7" class="edge"><title>Node8&#45;&gt;Node9</title>
<path fill="none" stroke="midnightblue" d="M452.285,-52.2333C472.511,-48.5454 494.807,-44.48 514.29,-40.9276"/>
<polygon fill="midnightblue" stroke="midnightblue" points="451.444,-48.8289 442.234,-54.066 452.699,-55.7154 451.444,-48.8289"/>
</g>
<!-- Node9&#45;&gt;Node6 -->
<g id="edge8" class="edge"><title>Node9&#45;&gt;Node6</title>
<path fill="none" stroke="midnightblue" d="M641.187,-42.5005C653.642,-44.4013 665.523,-46.2145 674.759,-47.624"/>
<polygon fill="midnightblue" stroke="midnightblue" points="641.528,-39.0122 631.115,-40.9634 640.472,-45.9321 641.528,-39.0122"/>
</g>
<!-- Node10&#45;&gt;Node6 -->
<g id="edge12" class="edge"><title>Node10&#45;&gt;Node6</title>
<path fill="none" stroke="midnightblue" d="M436.478,-13.6263C487.16,-2.62706 570.935,9.14068 639,-12.4077 656.486,-17.9437 673.209,-31.4034 683.291,-40.7198"/>
<polygon fill="midnightblue" stroke="midnightblue" points="435.476,-10.2643 426.49,-15.8775 437.015,-17.093 435.476,-10.2643"/>
</g>
<!-- Node10&#45;&gt;Node9 -->
<g id="edge11" class="edge"><title>Node10&#45;&gt;Node9</title>
<path fill="none" stroke="midnightblue" d="M460.042,-27.7682C473.454,-28.2267 487.478,-28.7061 500.78,-29.1609"/>
<polygon fill="midnightblue" stroke="midnightblue" points="460.041,-24.2662 449.927,-27.4223 459.802,-31.2621 460.041,-24.2662"/>
</g>
</g>
</svg>
