<?xml version="1.0" encoding="UTF-8" standalone="no"?>
<!DOCTYPE svg PUBLIC "-//W3C//DTD SVG 1.1//EN"
 "http://www.w3.org/Graphics/SVG/1.1/DTD/svg11.dtd">
<!-- Generated by graphviz version 2.38.0 (20140413.2041)
 -->
<!-- Title: obe::Animation::Animator::getSpriteOffsetX Pages: 1 -->
<svg width="1172pt" height="190pt"
 viewBox="0.00 0.00 1172.00 189.50" xmlns="http://www.w3.org/2000/svg" xmlns:xlink="http://www.w3.org/1999/xlink">
<g id="graph0" class="graph" transform="scale(1 1) rotate(0) translate(4 185.5)">
<title>obe::Animation::Animator::getSpriteOffsetX</title>
<!-- Node76 -->
<g id="node1" class="node"><title>Node76</title>
<polygon fill="#bfbfbf" stroke="black" points="0,-44.5 0,-74.5 127,-74.5 127,-44.5 0,-44.5"/>
<text text-anchor="start" x="8" y="-62.5" font-family="Helvetica,sans-Serif" font-size="10.00">obe::Animation::Animator</text>
<text text-anchor="middle" x="63.5" y="-51.5" font-family="Helvetica,sans-Serif" font-size="10.00">::getSpriteOffsetX</text>
</g>
<!-- Node77 -->
<g id="node2" class="node"><title>Node77</title>
<g id="a_node2"><a xlink:href="namespaceobe_1_1_script_1_1_core_lib.html#ad3e8d674e535b8a534a3bed6f311d701" target="_top" xlink:title="obe::Script::CoreLib\l::loadAnimation">
<polygon fill="white" stroke="black" points="163,-44.5 163,-74.5 266,-74.5 266,-44.5 163,-44.5"/>
<text text-anchor="start" x="171" y="-62.5" font-family="Helvetica,sans-Serif" font-size="10.00">obe::Script::CoreLib</text>
<text text-anchor="middle" x="214.5" y="-51.5" font-family="Helvetica,sans-Serif" font-size="10.00">::loadAnimation</text>
</a>
</g>
</g>
<!-- Node76&#45;&gt;Node77 -->
<g id="edge1" class="edge"><title>Node76&#45;&gt;Node77</title>
<path fill="none" stroke="midnightblue" d="M137.536,-59.5C145.997,-59.5 154.483,-59.5 162.558,-59.5"/>
<polygon fill="midnightblue" stroke="midnightblue" points="137.258,-56.0001 127.258,-59.5 137.258,-63.0001 137.258,-56.0001"/>
</g>
<!-- Node78 -->
<g id="node3" class="node"><title>Node78</title>
<g id="a_node3"><a xlink:href="namespaceobe_1_1_script.html#abdb81ec0976f1097cef6711415b8fac3" target="_top" xlink:title="obe::Script::loadCoreLib">
<polygon fill="white" stroke="black" points="302,-50 302,-69 423,-69 423,-50 302,-50"/>
<text text-anchor="middle" x="362.5" y="-57" font-family="Helvetica,sans-Serif" font-size="10.00">obe::Script::loadCoreLib</text>
</a>
</g>
</g>
<!-- Node77&#45;&gt;Node78 -->
<g id="edge2" class="edge"><title>Node77&#45;&gt;Node78</title>
<path fill="none" stroke="midnightblue" d="M276.328,-59.5C284.785,-59.5 293.467,-59.5 301.902,-59.5"/>
<polygon fill="midnightblue" stroke="midnightblue" points="276.154,-56.0001 266.154,-59.5 276.154,-63.0001 276.154,-56.0001"/>
</g>
<!-- Node79 -->
<g id="node4" class="node"><title>Node79</title>
<g id="a_node4"><a xlink:href="namespaceobe_1_1_script.html#a4e6ee77032cf7f66544f9b08464a60b7" target="_top" xlink:title="obe::Script::loadLib">
<polygon fill="white" stroke="black" points="460,-94 460,-113 561,-113 561,-94 460,-94"/>
<text text-anchor="middle" x="510.5" y="-101" font-family="Helvetica,sans-Serif" font-size="10.00">obe::Script::loadLib</text>
</a>
</g>
</g>
<!-- Node78&#45;&gt;Node79 -->
<g id="edge3" class="edge"><title>Node78&#45;&gt;Node79</title>
<path fill="none" stroke="midnightblue" d="M404.761,-71.9347C427.959,-78.926 456.468,-87.5177 477.882,-93.9713"/>
<polygon fill="midnightblue" stroke="midnightblue" points="405.764,-68.5818 395.18,-69.0473 403.745,-75.2841 405.764,-68.5818"/>
</g>
<!-- Node89 -->
<g id="node14" class="node"><title>Node89</title>
<g id="a_node14"><a xlink:href="namespaceobe_1_1_script_1_1_core_lib.html#a07d6c11bbb082bc45bdba50d97965c00" target="_top" xlink:title="obe::Script::CoreLib\l::loadCollision">
<polygon fill="white" stroke="black" points="459,-44.5 459,-74.5 562,-74.5 562,-44.5 459,-44.5"/>
<text text-anchor="start" x="467" y="-62.5" font-family="Helvetica,sans-Serif" font-size="10.00">obe::Script::CoreLib</text>
<text text-anchor="middle" x="510.5" y="-51.5" font-family="Helvetica,sans-Serif" font-size="10.00">::loadCollision</text>
</a>
</g>
</g>
<!-- Node78&#45;&gt;Node89 -->
<g id="edge16" class="edge"><title>Node78&#45;&gt;Node89</title>
<path fill="none" stroke="midnightblue" d="M433.356,-52.7556C441.966,-52.7251 450.634,-52.8199 458.88,-53.0402"/>
<polygon fill="midnightblue" stroke="midnightblue" points="433.272,-49.2561 423.305,-52.849 433.337,-56.2558 433.272,-49.2561"/>
</g>
<!-- Node80 -->
<g id="node5" class="node"><title>Node80</title>
<g id="a_node5"><a xlink:href="namespaceobe_1_1_modes.html#a1e38c0d9a2ca0230f0de79c298f53ab9" target="_top" xlink:title="A mode that will start the Toolkit. ">
<polygon fill="white" stroke="black" points="775,-143 775,-162 921,-162 921,-143 775,-143"/>
<text text-anchor="middle" x="848" y="-150" font-family="Helvetica,sans-Serif" font-size="10.00">obe::Modes::startToolkitMode</text>
</a>
</g>
</g>
<!-- Node79&#45;&gt;Node80 -->
<g id="edge4" class="edge"><title>Node79&#45;&gt;Node80</title>
<path fill="none" stroke="midnightblue" d="M529.349,-119.842C545.799,-133.711 571.594,-152.582 598,-160.5 667.808,-181.432 753.595,-171.343 804.083,-162.001"/>
<polygon fill="midnightblue" stroke="midnightblue" points="531.485,-117.06 521.646,-113.13 526.886,-122.338 531.485,-117.06"/>
</g>
<!-- Node83 -->
<g id="node8" class="node"><title>Node83</title>
<g id="a_node8"><a xlink:href="classobe_1_1_scene_1_1_world.html#a32964e659e18cb32094d9f8ceea30aa3" target="_top" xlink:title="obe::Scene::World::\lWorld">
<polygon fill="white" stroke="black" points="796,-77.5 796,-107.5 900,-107.5 900,-77.5 796,-77.5"/>
<text text-anchor="start" x="804" y="-95.5" font-family="Helvetica,sans-Serif" font-size="10.00">obe::Scene::World::</text>
<text text-anchor="middle" x="848" y="-84.5" font-family="Helvetica,sans-Serif" font-size="10.00">World</text>
</a>
</g>
</g>
<!-- Node79&#45;&gt;Node83 -->
<g id="edge8" class="edge"><title>Node79&#45;&gt;Node83</title>
<path fill="none" stroke="midnightblue" d="M571.331,-101.538C635.27,-99.442 735.555,-96.1539 795.916,-94.1749"/>
<polygon fill="midnightblue" stroke="midnightblue" points="570.884,-98.051 561.004,-101.877 571.114,-105.047 570.884,-98.051"/>
</g>
<!-- Node84 -->
<g id="node9" class="node"><title>Node84</title>
<g id="a_node9"><a xlink:href="namespaceobe_1_1_scene.html#ae5cbcc3278d9115d603e5024dec9136e" target="_top" xlink:title="obe::Scene::loadWorldScript\lEngineBaseLib">
<polygon fill="white" stroke="black" points="598,-44.5 598,-74.5 739,-74.5 739,-44.5 598,-44.5"/>
<text text-anchor="start" x="606" y="-62.5" font-family="Helvetica,sans-Serif" font-size="10.00">obe::Scene::loadWorldScript</text>
<text text-anchor="middle" x="668.5" y="-51.5" font-family="Helvetica,sans-Serif" font-size="10.00">EngineBaseLib</text>
</a>
</g>
</g>
<!-- Node79&#45;&gt;Node84 -->
<g id="edge9" class="edge"><title>Node79&#45;&gt;Node84</title>
<path fill="none" stroke="midnightblue" d="M555.151,-91.1882C573.437,-86.0306 594.871,-79.9852 614.086,-74.5654"/>
<polygon fill="midnightblue" stroke="midnightblue" points="554.024,-87.8694 545.35,-93.9527 555.924,-94.6066 554.024,-87.8694"/>
</g>
<!-- Node85 -->
<g id="node10" class="node"><title>Node85</title>
<g id="a_node10"><a xlink:href="namespaceobe_1_1_script.html#a5e992c0efb0543e7c934bc1065f08b01" target="_top" xlink:title="obe::Script::loadLibBridge">
<polygon fill="white" stroke="black" points="604.5,-6 604.5,-25 732.5,-25 732.5,-6 604.5,-6"/>
<text text-anchor="middle" x="668.5" y="-13" font-family="Helvetica,sans-Serif" font-size="10.00">obe::Script::loadLibBridge</text>
</a>
</g>
</g>
<!-- Node79&#45;&gt;Node85 -->
<g id="edge11" class="edge"><title>Node79&#45;&gt;Node85</title>
<path fill="none" stroke="midnightblue" d="M552.912,-89.4024C556.114,-87.6311 559.19,-85.6682 562,-83.5 583.396,-66.9928 575.727,-49.8035 598,-34.5 603.67,-30.604 610.112,-27.505 616.732,-25.0404"/>
<polygon fill="midnightblue" stroke="midnightblue" points="551.13,-86.3769 543.668,-93.8975 554.191,-92.6721 551.13,-86.3769"/>
</g>
<!-- Node88 -->
<g id="node13" class="node"><title>Node88</title>
<g id="a_node13"><a xlink:href="namespaceobe_1_1_script.html#aad6ef67388e6d16eb01853f208da410f" target="_top" xlink:title="obe::Script::loadBaseLib">
<polygon fill="white" stroke="black" points="607,-132 607,-151 730,-151 730,-132 607,-132"/>
<text text-anchor="middle" x="668.5" y="-139" font-family="Helvetica,sans-Serif" font-size="10.00">obe::Script::loadBaseLib</text>
</a>
</g>
</g>
<!-- Node79&#45;&gt;Node88 -->
<g id="edge14" class="edge"><title>Node79&#45;&gt;Node88</title>
<path fill="none" stroke="midnightblue" d="M560.632,-115.468C582.493,-120.793 607.876,-126.976 628.418,-131.98"/>
<polygon fill="midnightblue" stroke="midnightblue" points="561.41,-112.055 550.865,-113.089 559.753,-118.856 561.41,-112.055"/>
</g>
<!-- Node81 -->
<g id="node6" class="node"><title>Node81</title>
<g id="a_node6"><a xlink:href="namespaceobe_1_1_modes.html#a6a8b08eee511d4895c4da96d4ba223a6" target="_top" xlink:title="Starts the development Menu where you can starts other menus from. ">
<polygon fill="white" stroke="black" points="957,-162 957,-181 1090,-181 1090,-162 957,-162"/>
<text text-anchor="middle" x="1023.5" y="-169" font-family="Helvetica,sans-Serif" font-size="10.00">obe::Modes::startDevMenu</text>
</a>
</g>
</g>
<!-- Node80&#45;&gt;Node81 -->
<g id="edge5" class="edge"><title>Node80&#45;&gt;Node81</title>
<path fill="none" stroke="midnightblue" d="M931.118,-161.493C939.716,-162.434 948.375,-163.383 956.755,-164.3"/>
<polygon fill="midnightblue" stroke="midnightblue" points="931.394,-158.002 921.072,-160.393 930.632,-164.961 931.394,-158.002"/>
</g>
<!-- Node82 -->
<g id="node7" class="node"><title>Node82</title>
<g id="a_node7"><a xlink:href="_ob_engine_8cpp.html#a3c04138a5bfe5d72780bb7e82a18e627" target="_top" xlink:title="main">
<polygon fill="white" stroke="black" points="1126,-143 1126,-162 1164,-162 1164,-143 1126,-143"/>
<text text-anchor="middle" x="1145" y="-150" font-family="Helvetica,sans-Serif" font-size="10.00">main</text>
</a>
</g>
</g>
<!-- Node80&#45;&gt;Node82 -->
<g id="edge7" class="edge"><title>Node80&#45;&gt;Node82</title>
<path fill="none" stroke="midnightblue" d="M931.308,-152.5C998.39,-152.5 1087.99,-152.5 1125.87,-152.5"/>
<polygon fill="midnightblue" stroke="midnightblue" points="931.165,-149 921.165,-152.5 931.165,-156 931.165,-149"/>
</g>
<!-- Node81&#45;&gt;Node82 -->
<g id="edge6" class="edge"><title>Node81&#45;&gt;Node82</title>
<path fill="none" stroke="midnightblue" d="M1094.82,-160.319C1106.35,-158.487 1117.33,-156.741 1125.98,-155.365"/>
<polygon fill="midnightblue" stroke="midnightblue" points="1093.93,-156.917 1084.6,-161.944 1095.03,-163.831 1093.93,-156.917"/>
</g>
<!-- Node84&#45;&gt;Node83 -->
<g id="edge10" class="edge"><title>Node84&#45;&gt;Node83</title>
<path fill="none" stroke="midnightblue" d="M748.998,-74.2799C764.939,-77.2436 781.283,-80.2821 795.941,-83.0074"/>
<polygon fill="midnightblue" stroke="midnightblue" points="749.615,-70.8346 739.143,-72.4478 748.335,-77.7167 749.615,-70.8346"/>
</g>
<!-- Node86 -->
<g id="node11" class="node"><title>Node86</title>
<g id="a_node11"><a xlink:href="namespaceobe_1_1_script.html#a5dc8321da50fd4b5dc2935e4d8c93a4e" target="_top" xlink:title="obe::Script::loadScrGame\lObject">
<polygon fill="white" stroke="black" points="783.5,-0.5 783.5,-30.5 912.5,-30.5 912.5,-0.5 783.5,-0.5"/>
<text text-anchor="start" x="791.5" y="-18.5" font-family="Helvetica,sans-Serif" font-size="10.00">obe::Script::loadScrGame</text>
<text text-anchor="middle" x="848" y="-7.5" font-family="Helvetica,sans-Serif" font-size="10.00">Object</text>
</a>
</g>
</g>
<!-- Node85&#45;&gt;Node86 -->
<g id="edge12" class="edge"><title>Node85&#45;&gt;Node86</title>
<path fill="none" stroke="midnightblue" d="M742.737,-15.5C756.171,-15.5 770.096,-15.5 783.226,-15.5"/>
<polygon fill="midnightblue" stroke="midnightblue" points="742.58,-12.0001 732.58,-15.5 742.58,-19.0001 742.58,-12.0001"/>
</g>
<!-- Node87 -->
<g id="node12" class="node"><title>Node87</title>
<g id="a_node12"><a xlink:href="classobe_1_1_script_1_1_game_object.html#aadeac0036d2fe21d523acfd4e9011a23" target="_top" xlink:title="obe::Script::GameObject\l::loadGameObject">
<polygon fill="white" stroke="black" points="961,-0.5 961,-30.5 1086,-30.5 1086,-0.5 961,-0.5"/>
<text text-anchor="start" x="969" y="-18.5" font-family="Helvetica,sans-Serif" font-size="10.00">obe::Script::GameObject</text>
<text text-anchor="middle" x="1023.5" y="-7.5" font-family="Helvetica,sans-Serif" font-size="10.00">::loadGameObject</text>
</a>
</g>
</g>
<!-- Node86&#45;&gt;Node87 -->
<g id="edge13" class="edge"><title>Node86&#45;&gt;Node87</title>
<path fill="none" stroke="midnightblue" d="M922.721,-15.5C935.445,-15.5 948.552,-15.5 960.913,-15.5"/>
<polygon fill="midnightblue" stroke="midnightblue" points="922.62,-12.0001 912.62,-15.5 922.62,-19.0001 922.62,-12.0001"/>
</g>
<!-- Node88&#45;&gt;Node80 -->
<g id="edge15" class="edge"><title>Node88&#45;&gt;Node80</title>
<path fill="none" stroke="midnightblue" d="M740.346,-145.89C751.662,-146.592 763.384,-147.318 774.733,-148.021"/>
<polygon fill="midnightblue" stroke="midnightblue" points="740.286,-142.38 730.089,-145.255 739.853,-149.367 740.286,-142.38"/>
</g>
<!-- Node89&#45;&gt;Node78 -->
<g id="edge17" class="edge"><title>Node89&#45;&gt;Node78</title>
<path fill="none" stroke="midnightblue" d="M448.757,-66.1647C440.342,-66.2828 431.703,-66.2783 423.305,-66.151"/>
<polygon fill="midnightblue" stroke="midnightblue" points="448.953,-69.6616 458.88,-65.9598 448.811,-62.663 448.953,-69.6616"/>
</g>
</g>
</svg>
