<?xml version="1.0" encoding="UTF-8" standalone="no"?>
<!DOCTYPE svg PUBLIC "-//W3C//DTD SVG 1.1//EN"
 "http://www.w3.org/Graphics/SVG/1.1/DTD/svg11.dtd">
<!-- Generated by graphviz version 2.38.0 (20140413.2041)
 -->
<!-- Title: obe::Script::Trigger::getNamespace Pages: 1 -->
<svg width="429pt" height="431pt"
 viewBox="0.00 0.00 429.00 431.00" xmlns="http://www.w3.org/2000/svg" xmlns:xlink="http://www.w3.org/1999/xlink">
<g id="graph0" class="graph" transform="scale(1 1) rotate(0) translate(4 427)">
<title>obe::Script::Trigger::getNamespace</title>
<!-- Node45 -->
<g id="node1" class="node"><title>Node45</title>
<polygon fill="#bfbfbf" stroke="black" points="0,-196.5 0,-226.5 99,-226.5 99,-196.5 0,-196.5"/>
<text text-anchor="start" x="8" y="-214.5" font-family="Helvetica,sans-Serif" font-size="10.00">obe::Script::Trigger</text>
<text text-anchor="middle" x="49.5" y="-203.5" font-family="Helvetica,sans-Serif" font-size="10.00">::getNamespace</text>
</g>
<!-- Node46 -->
<g id="node2" class="node"><title>Node46</title>
<g id="a_node2"><a xlink:href="classobe_1_1_script_1_1_trigger.html#abe793d7ad08c765fdc0c71025a67f8b0" target="_top" xlink:title="obe::Script::Trigger\l::getParameters">
<polygon fill="none" stroke="black" points="148,-392.5 148,-422.5 247,-422.5 247,-392.5 148,-392.5"/>
<text text-anchor="start" x="156" y="-410.5" font-family="Helvetica,sans-Serif" font-size="10.00">obe::Script::Trigger</text>
<text text-anchor="middle" x="197.5" y="-399.5" font-family="Helvetica,sans-Serif" font-size="10.00">::getParameters</text>
</a>
</g>
</g>
<!-- Node45&#45;&gt;Node46 -->
<g id="edge1" class="edge"><title>Node45&#45;&gt;Node46</title>
<path fill="none" stroke="midnightblue" d="M53.9511,-226.622C62.2294,-259.619 86.2469,-338.705 135,-383.5 136.306,-384.7 137.678,-385.842 139.104,-386.929"/>
<polygon fill="midnightblue" stroke="midnightblue" points="137.483,-390.05 147.773,-392.576 141.304,-384.185 137.483,-390.05"/>
</g>
<!-- Node47 -->
<g id="node3" class="node"><title>Node47</title>
<g id="a_node3"><a xlink:href="classobe_1_1_script_1_1_trigger_delay.html#ac132e01f8594ef046f65436a2b2dbd73" target="_top" xlink:title="obe::Script::TriggerDelay\l::TriggerDelay">
<polygon fill="none" stroke="black" points="135.5,-343.5 135.5,-373.5 259.5,-373.5 259.5,-343.5 135.5,-343.5"/>
<text text-anchor="start" x="143.5" y="-361.5" font-family="Helvetica,sans-Serif" font-size="10.00">obe::Script::TriggerDelay</text>
<text text-anchor="middle" x="197.5" y="-350.5" font-family="Helvetica,sans-Serif" font-size="10.00">::TriggerDelay</text>
</a>
</g>
</g>
<!-- Node45&#45;&gt;Node47 -->
<g id="edge2" class="edge"><title>Node45&#45;&gt;Node47</title>
<path fill="none" stroke="midnightblue" d="M57.1407,-226.519C69.1543,-252.088 96.8366,-304.236 135,-334.5 136.751,-335.889 138.592,-337.205 140.5,-338.452"/>
<polygon fill="midnightblue" stroke="midnightblue" points="138.803,-341.514 149.212,-343.485 142.304,-335.452 138.803,-341.514"/>
</g>
<!-- Node48 -->
<g id="node4" class="node"><title>Node48</title>
<g id="a_node4"><a xlink:href="classobe_1_1_script_1_1_trigger_group.html#a85c6352398e45cd784954ecd5b8e7c5e" target="_top" xlink:title="obe::Script::TriggerGroup\l::TriggerGroup">
<polygon fill="none" stroke="black" points="135,-294.5 135,-324.5 260,-324.5 260,-294.5 135,-294.5"/>
<text text-anchor="start" x="143" y="-312.5" font-family="Helvetica,sans-Serif" font-size="10.00">obe::Script::TriggerGroup</text>
<text text-anchor="middle" x="197.5" y="-301.5" font-family="Helvetica,sans-Serif" font-size="10.00">::TriggerGroup</text>
</a>
</g>
</g>
<!-- Node45&#45;&gt;Node48 -->
<g id="edge3" class="edge"><title>Node45&#45;&gt;Node48</title>
<path fill="none" stroke="midnightblue" d="M64.5151,-226.574C80.3439,-242.887 107.497,-268.801 135,-285.5 137.61,-287.085 140.343,-288.599 143.144,-290.042"/>
<polygon fill="midnightblue" stroke="midnightblue" points="141.73,-293.245 152.262,-294.398 144.748,-286.928 141.73,-293.245"/>
</g>
<!-- Node49 -->
<g id="node5" class="node"><title>Node49</title>
<g id="a_node5"><a xlink:href="classobe_1_1_script_1_1_trigger_group.html#a7b20e8e912445c11b7d2f35327e0ff1f" target="_top" xlink:title="obe::Script::TriggerGroup\l::getTrigger">
<polygon fill="none" stroke="black" points="135,-245.5 135,-275.5 260,-275.5 260,-245.5 135,-245.5"/>
<text text-anchor="start" x="143" y="-263.5" font-family="Helvetica,sans-Serif" font-size="10.00">obe::Script::TriggerGroup</text>
<text text-anchor="middle" x="197.5" y="-252.5" font-family="Helvetica,sans-Serif" font-size="10.00">::getTrigger</text>
</a>
</g>
</g>
<!-- Node45&#45;&gt;Node49 -->
<g id="edge4" class="edge"><title>Node45&#45;&gt;Node49</title>
<path fill="none" stroke="midnightblue" d="M95.4961,-226.601C110.136,-231.515 126.546,-237.022 141.814,-242.147"/>
<polygon fill="midnightblue" stroke="midnightblue" points="141.058,-245.585 151.652,-245.448 143.286,-238.948 141.058,-245.585"/>
</g>
<!-- Node50 -->
<g id="node6" class="node"><title>Node50</title>
<g id="a_node6"><a xlink:href="classaube_1_1_error_handler.html#a7c8d44a3e7f019646d289950abc5301b" target="_top" xlink:title="aube::ErrorHandler\l::Raise">
<polygon fill="none" stroke="black" points="148.5,-196.5 148.5,-226.5 246.5,-226.5 246.5,-196.5 148.5,-196.5"/>
<text text-anchor="start" x="156.5" y="-214.5" font-family="Helvetica,sans-Serif" font-size="10.00">aube::ErrorHandler</text>
<text text-anchor="middle" x="197.5" y="-203.5" font-family="Helvetica,sans-Serif" font-size="10.00">::Raise</text>
</a>
</g>
</g>
<!-- Node45&#45;&gt;Node50 -->
<g id="edge5" class="edge"><title>Node45&#45;&gt;Node50</title>
<path fill="none" stroke="midnightblue" d="M99.1159,-211.5C111.552,-211.5 125.055,-211.5 137.934,-211.5"/>
<polygon fill="midnightblue" stroke="midnightblue" points="138.096,-215 148.096,-211.5 138.096,-208 138.096,-215"/>
</g>
<!-- Node55 -->
<g id="node11" class="node"><title>Node55</title>
<g id="a_node11"><a xlink:href="classobe_1_1_script_1_1_trigger_group.html#a7c0ea74bcddac3ce2ca8f8946be3c041" target="_top" xlink:title="obe::Script::TriggerGroup\l::addTrigger">
<polygon fill="none" stroke="black" points="135,-147.5 135,-177.5 260,-177.5 260,-147.5 135,-147.5"/>
<text text-anchor="start" x="143" y="-165.5" font-family="Helvetica,sans-Serif" font-size="10.00">obe::Script::TriggerGroup</text>
<text text-anchor="middle" x="197.5" y="-154.5" font-family="Helvetica,sans-Serif" font-size="10.00">::addTrigger</text>
</a>
</g>
</g>
<!-- Node45&#45;&gt;Node55 -->
<g id="edge10" class="edge"><title>Node45&#45;&gt;Node55</title>
<path fill="none" stroke="midnightblue" d="M95.4961,-196.399C110.136,-191.485 126.546,-185.978 141.814,-180.853"/>
<polygon fill="midnightblue" stroke="midnightblue" points="143.286,-184.052 151.652,-177.552 141.058,-177.415 143.286,-184.052"/>
</g>
<!-- Node56 -->
<g id="node12" class="node"><title>Node56</title>
<g id="a_node12"><a xlink:href="classobe_1_1_script_1_1_trigger.html#a7a7b82c51ea5050632847ca44e960830" target="_top" xlink:title="obe::Script::Trigger\l::Trigger">
<polygon fill="none" stroke="black" points="148,-98.5 148,-128.5 247,-128.5 247,-98.5 148,-98.5"/>
<text text-anchor="start" x="156" y="-116.5" font-family="Helvetica,sans-Serif" font-size="10.00">obe::Script::Trigger</text>
<text text-anchor="middle" x="197.5" y="-105.5" font-family="Helvetica,sans-Serif" font-size="10.00">::Trigger</text>
</a>
</g>
</g>
<!-- Node45&#45;&gt;Node56 -->
<g id="edge11" class="edge"><title>Node45&#45;&gt;Node56</title>
<path fill="none" stroke="midnightblue" d="M64.8895,-196.424C80.8312,-180.39 107.884,-155.099 135,-138.5 138.186,-136.55 141.55,-134.693 144.997,-132.937"/>
<polygon fill="midnightblue" stroke="midnightblue" points="146.727,-135.99 154.249,-128.529 143.716,-129.671 146.727,-135.99"/>
</g>
<!-- Node59 -->
<g id="node15" class="node"><title>Node59</title>
<g id="a_node15"><a xlink:href="classobe_1_1_script_1_1_trigger_group.html#a272bcb48daafd477599d8d300c1999bb" target="_top" xlink:title="obe::Script::TriggerGroup\l::delayTriggerState">
<polygon fill="none" stroke="black" points="135,-49.5 135,-79.5 260,-79.5 260,-49.5 135,-49.5"/>
<text text-anchor="start" x="143" y="-67.5" font-family="Helvetica,sans-Serif" font-size="10.00">obe::Script::TriggerGroup</text>
<text text-anchor="middle" x="197.5" y="-56.5" font-family="Helvetica,sans-Serif" font-size="10.00">::delayTriggerState</text>
</a>
</g>
</g>
<!-- Node45&#45;&gt;Node59 -->
<g id="edge14" class="edge"><title>Node45&#45;&gt;Node59</title>
<path fill="none" stroke="midnightblue" d="M57.4128,-196.255C69.6447,-170.839 97.4024,-119.629 135,-89.5 137.234,-87.7094 139.614,-86.0309 142.091,-84.4596"/>
<polygon fill="midnightblue" stroke="midnightblue" points="143.831,-87.4961 150.809,-79.5231 140.382,-81.4048 143.831,-87.4961"/>
</g>
<!-- Node60 -->
<g id="node16" class="node"><title>Node60</title>
<g id="a_node16"><a xlink:href="classobe_1_1_script_1_1_trigger_group.html#a395c3fe732fc5d7cf81e16dbf744b993" target="_top" xlink:title="obe::Script::TriggerGroup\l::enableTrigger">
<polygon fill="none" stroke="black" points="135,-0.5 135,-30.5 260,-30.5 260,-0.5 135,-0.5"/>
<text text-anchor="start" x="143" y="-18.5" font-family="Helvetica,sans-Serif" font-size="10.00">obe::Script::TriggerGroup</text>
<text text-anchor="middle" x="197.5" y="-7.5" font-family="Helvetica,sans-Serif" font-size="10.00">::enableTrigger</text>
</a>
</g>
</g>
<!-- Node45&#45;&gt;Node60 -->
<g id="edge15" class="edge"><title>Node45&#45;&gt;Node60</title>
<path fill="none" stroke="midnightblue" d="M53.9511,-196.378C62.2294,-163.381 86.2469,-84.2947 135,-39.5 136.277,-38.3271 137.617,-37.2091 139.009,-36.1435"/>
<polygon fill="midnightblue" stroke="midnightblue" points="141.023,-39.0081 147.466,-30.5971 137.184,-33.1546 141.023,-39.0081"/>
</g>
<!-- Node51 -->
<g id="node7" class="node"><title>Node51</title>
<g id="a_node7"><a xlink:href="classaube_1_1_error_message.html#a3a39b6fcd8fdb12eaf6383123535b8ca" target="_top" xlink:title="aube::ErrorMessage\l::getFile">
<polygon fill="none" stroke="black" points="306.5,-294.5 306.5,-324.5 410.5,-324.5 410.5,-294.5 306.5,-294.5"/>
<text text-anchor="start" x="314.5" y="-312.5" font-family="Helvetica,sans-Serif" font-size="10.00">aube::ErrorMessage</text>
<text text-anchor="middle" x="358.5" y="-301.5" font-family="Helvetica,sans-Serif" font-size="10.00">::getFile</text>
</a>
</g>
</g>
<!-- Node50&#45;&gt;Node51 -->
<g id="edge6" class="edge"><title>Node50&#45;&gt;Node51</title>
<path fill="none" stroke="midnightblue" d="M244.092,-226.649C249.72,-229.476 255.18,-232.747 260,-236.5 281.321,-253.103 274.563,-269.047 296,-285.5 297.773,-286.861 299.633,-288.153 301.556,-289.381"/>
<polygon fill="midnightblue" stroke="midnightblue" points="299.893,-292.461 310.319,-294.349 303.345,-286.372 299.893,-292.461"/>
</g>
<!-- Node52 -->
<g id="node8" class="node"><title>Node52</title>
<g id="a_node8"><a xlink:href="classaube_1_1_error_message.html#a9184cc96589578f434351c105b0cd5f7" target="_top" xlink:title="aube::ErrorMessage\l::getLocation">
<polygon fill="none" stroke="black" points="306.5,-245.5 306.5,-275.5 410.5,-275.5 410.5,-245.5 306.5,-245.5"/>
<text text-anchor="start" x="314.5" y="-263.5" font-family="Helvetica,sans-Serif" font-size="10.00">aube::ErrorMessage</text>
<text text-anchor="middle" x="358.5" y="-252.5" font-family="Helvetica,sans-Serif" font-size="10.00">::getLocation</text>
</a>
</g>
</g>
<!-- Node50&#45;&gt;Node52 -->
<g id="edge7" class="edge"><title>Node50&#45;&gt;Node52</title>
<path fill="none" stroke="midnightblue" d="M246.637,-226.335C263.064,-231.397 281.619,-237.115 298.784,-242.405"/>
<polygon fill="midnightblue" stroke="midnightblue" points="298.116,-245.862 308.703,-245.462 300.178,-239.172 298.116,-245.862"/>
</g>
<!-- Node53 -->
<g id="node9" class="node"><title>Node53</title>
<g id="a_node9"><a xlink:href="classaube_1_1_error_message.html#a07927cb3e2d0712c459cc9e2b5f52696" target="_top" xlink:title="aube::ErrorMessage\l::getMessage">
<polygon fill="none" stroke="black" points="306.5,-196.5 306.5,-226.5 410.5,-226.5 410.5,-196.5 306.5,-196.5"/>
<text text-anchor="start" x="314.5" y="-214.5" font-family="Helvetica,sans-Serif" font-size="10.00">aube::ErrorMessage</text>
<text text-anchor="middle" x="358.5" y="-203.5" font-family="Helvetica,sans-Serif" font-size="10.00">::getMessage</text>
</a>
</g>
</g>
<!-- Node50&#45;&gt;Node53 -->
<g id="edge8" class="edge"><title>Node50&#45;&gt;Node53</title>
<path fill="none" stroke="midnightblue" d="M246.637,-211.5C262.305,-211.5 279.909,-211.5 296.396,-211.5"/>
<polygon fill="midnightblue" stroke="midnightblue" points="296.49,-215 306.49,-211.5 296.49,-208 296.49,-215"/>
</g>
<!-- Node54 -->
<g id="node10" class="node"><title>Node54</title>
<g id="a_node10"><a xlink:href="classaube_1_1_error_message.html#a77c2f9b7e93542c958173b52da267989" target="_top" xlink:title="aube::ErrorMessage\l::getHints">
<polygon fill="none" stroke="black" points="306.5,-147.5 306.5,-177.5 410.5,-177.5 410.5,-147.5 306.5,-147.5"/>
<text text-anchor="start" x="314.5" y="-165.5" font-family="Helvetica,sans-Serif" font-size="10.00">aube::ErrorMessage</text>
<text text-anchor="middle" x="358.5" y="-154.5" font-family="Helvetica,sans-Serif" font-size="10.00">::getHints</text>
</a>
</g>
</g>
<!-- Node50&#45;&gt;Node54 -->
<g id="edge9" class="edge"><title>Node50&#45;&gt;Node54</title>
<path fill="none" stroke="midnightblue" d="M246.637,-196.665C263.064,-191.603 281.619,-185.885 298.784,-180.595"/>
<polygon fill="midnightblue" stroke="midnightblue" points="300.178,-183.828 308.703,-177.538 298.116,-177.138 300.178,-183.828"/>
</g>
<!-- Node57 -->
<g id="node13" class="node"><title>Node57</title>
<g id="a_node13"><a xlink:href="classobe_1_1_script_1_1_trigger_group.html#afdfe7e5fe7cd2f04f306e490bb562b57" target="_top" xlink:title="obe::Script::TriggerGroup\l::getNamespace">
<polygon fill="none" stroke="black" points="296,-98.5 296,-128.5 421,-128.5 421,-98.5 296,-98.5"/>
<text text-anchor="start" x="304" y="-116.5" font-family="Helvetica,sans-Serif" font-size="10.00">obe::Script::TriggerGroup</text>
<text text-anchor="middle" x="358.5" y="-105.5" font-family="Helvetica,sans-Serif" font-size="10.00">::getNamespace</text>
</a>
</g>
</g>
<!-- Node56&#45;&gt;Node57 -->
<g id="edge12" class="edge"><title>Node56&#45;&gt;Node57</title>
<path fill="none" stroke="midnightblue" d="M247.069,-113.5C259.176,-113.5 272.416,-113.5 285.391,-113.5"/>
<polygon fill="midnightblue" stroke="midnightblue" points="285.714,-117 295.713,-113.5 285.713,-110 285.714,-117"/>
</g>
<!-- Node58 -->
<g id="node14" class="node"><title>Node58</title>
<g id="a_node14"><a xlink:href="classobe_1_1_script_1_1_trigger_group.html#ad6e7bf6ce41497d051c3fdb2f66f2ad2" target="_top" xlink:title="obe::Script::TriggerGroup\l::getName">
<polygon fill="none" stroke="black" points="296,-49.5 296,-79.5 421,-79.5 421,-49.5 296,-49.5"/>
<text text-anchor="start" x="304" y="-67.5" font-family="Helvetica,sans-Serif" font-size="10.00">obe::Script::TriggerGroup</text>
<text text-anchor="middle" x="358.5" y="-56.5" font-family="Helvetica,sans-Serif" font-size="10.00">::getName</text>
</a>
</g>
</g>
<!-- Node56&#45;&gt;Node58 -->
<g id="edge13" class="edge"><title>Node56&#45;&gt;Node58</title>
<path fill="none" stroke="midnightblue" d="M247.069,-98.5321C263.407,-93.4973 281.809,-87.8263 298.838,-82.5782"/>
<polygon fill="midnightblue" stroke="midnightblue" points="300.155,-85.835 308.68,-79.5451 298.093,-79.1454 300.155,-85.835"/>
</g>
</g>
</svg>
