<?xml version="1.0" encoding="UTF-8" standalone="no"?>
<!DOCTYPE svg PUBLIC "-//W3C//DTD SVG 1.1//EN"
 "http://www.w3.org/Graphics/SVG/1.1/DTD/svg11.dtd">
<!-- Generated by graphviz version 2.38.0 (20140413.2041)
 -->
<!-- Title: obe::Collision::PolygonalCollider::getParentId Pages: 1 -->
<svg width="1220pt" height="285pt"
 viewBox="0.00 0.00 1220.00 285.00" xmlns="http://www.w3.org/2000/svg" xmlns:xlink="http://www.w3.org/1999/xlink">
<g id="graph0" class="graph" transform="scale(1 1) rotate(0) translate(4 281)">
<title>obe::Collision::PolygonalCollider::getParentId</title>
<!-- Node256 -->
<g id="node1" class="node"><title>Node256</title>
<polygon fill="#bfbfbf" stroke="black" points="0,-202.5 0,-232.5 124,-232.5 124,-202.5 0,-202.5"/>
<text text-anchor="start" x="8" y="-220.5" font-family="Helvetica,sans-Serif" font-size="10.00">obe::Collision::Polygonal</text>
<text text-anchor="middle" x="62" y="-209.5" font-family="Helvetica,sans-Serif" font-size="10.00">Collider::getParentId</text>
</g>
<!-- Node257 -->
<g id="node2" class="node"><title>Node257</title>
<g id="a_node2"><a xlink:href="namespaceobe_1_1_bindings_1_1_collision_bindings.html#afa4c96728348503721dd7ddbc50da7c6" target="_top" xlink:title="obe::Bindings::Collision\lBindings::LoadPolygonalCollider">
<polygon fill="white" stroke="black" points="160,-246.5 160,-276.5 316,-276.5 316,-246.5 160,-246.5"/>
<text text-anchor="start" x="168" y="-264.5" font-family="Helvetica,sans-Serif" font-size="10.00">obe::Bindings::Collision</text>
<text text-anchor="middle" x="238" y="-253.5" font-family="Helvetica,sans-Serif" font-size="10.00">Bindings::LoadPolygonalCollider</text>
</a>
</g>
</g>
<!-- Node256&#45;&gt;Node257 -->
<g id="edge1" class="edge"><title>Node256&#45;&gt;Node257</title>
<path fill="none" stroke="midnightblue" d="M132.147,-234.985C147.181,-238.787 162.959,-242.777 177.578,-246.474"/>
<polygon fill="midnightblue" stroke="midnightblue" points="132.947,-231.578 122.394,-232.519 131.231,-238.364 132.947,-231.578"/>
</g>
<!-- Node258 -->
<g id="node3" class="node"><title>Node258</title>
<g id="a_node3"><a xlink:href="namespaceobe_1_1_editor.html#a9009207671e71dccb68a31ea2362e9ef" target="_top" xlink:title="Starts the map edition. ">
<polygon fill="white" stroke="black" points="844,-208 844,-227 948,-227 948,-208 844,-208"/>
<text text-anchor="middle" x="896" y="-215" font-family="Helvetica,sans-Serif" font-size="10.00">obe::Editor::editMap</text>
</a>
</g>
</g>
<!-- Node256&#45;&gt;Node258 -->
<g id="edge2" class="edge"><title>Node256&#45;&gt;Node258</title>
<path fill="none" stroke="midnightblue" d="M134.157,-217.5C204.587,-217.5 315.484,-217.5 411.5,-217.5 411.5,-217.5 411.5,-217.5 560.5,-217.5 660.966,-217.5 778.406,-217.5 843.997,-217.5"/>
<polygon fill="midnightblue" stroke="midnightblue" points="134.065,-214 124.065,-217.5 134.065,-221 134.065,-214"/>
</g>
<!-- Node261 -->
<g id="node6" class="node"><title>Node261</title>
<g id="a_node6"><a xlink:href="namespaceobe_1_1_script_1_1_core_lib.html#a07d6c11bbb082bc45bdba50d97965c00" target="_top" xlink:title="obe::Script::CoreLib\l::loadCollision">
<polygon fill="white" stroke="black" points="186.5,-123.5 186.5,-153.5 289.5,-153.5 289.5,-123.5 186.5,-123.5"/>
<text text-anchor="start" x="194.5" y="-141.5" font-family="Helvetica,sans-Serif" font-size="10.00">obe::Script::CoreLib</text>
<text text-anchor="middle" x="238" y="-130.5" font-family="Helvetica,sans-Serif" font-size="10.00">::loadCollision</text>
</a>
</g>
</g>
<!-- Node256&#45;&gt;Node261 -->
<g id="edge6" class="edge"><title>Node256&#45;&gt;Node261</title>
<path fill="none" stroke="midnightblue" d="M105.578,-198.169C135.798,-184.448 175.791,-166.29 203.69,-153.624"/>
<polygon fill="midnightblue" stroke="midnightblue" points="103.796,-195.134 96.1376,-202.455 106.69,-201.508 103.796,-195.134"/>
</g>
<!-- Node259 -->
<g id="node4" class="node"><title>Node259</title>
<g id="a_node4"><a xlink:href="namespaceobe_1_1_modes.html#a6a8b08eee511d4895c4da96d4ba223a6" target="_top" xlink:title="Starts the development Menu where you can starts other menus from. ">
<polygon fill="white" stroke="black" points="1005,-181 1005,-200 1138,-200 1138,-181 1005,-181"/>
<text text-anchor="middle" x="1071.5" y="-188" font-family="Helvetica,sans-Serif" font-size="10.00">obe::Modes::startDevMenu</text>
</a>
</g>
</g>
<!-- Node258&#45;&gt;Node259 -->
<g id="edge3" class="edge"><title>Node258&#45;&gt;Node259</title>
<path fill="none" stroke="midnightblue" d="M958.238,-207.97C974.815,-205.39 992.757,-202.598 1009.33,-200.019"/>
<polygon fill="midnightblue" stroke="midnightblue" points="957.46,-204.549 948.117,-209.545 958.537,-211.466 957.46,-204.549"/>
</g>
<!-- Node260 -->
<g id="node5" class="node"><title>Node260</title>
<g id="a_node5"><a xlink:href="_ob_engine_8cpp.html#a3c04138a5bfe5d72780bb7e82a18e627" target="_top" xlink:title="main">
<polygon fill="white" stroke="black" points="1174,-181 1174,-200 1212,-200 1212,-181 1174,-181"/>
<text text-anchor="middle" x="1193" y="-188" font-family="Helvetica,sans-Serif" font-size="10.00">main</text>
</a>
</g>
</g>
<!-- Node258&#45;&gt;Node260 -->
<g id="edge5" class="edge"><title>Node258&#45;&gt;Node260</title>
<path fill="none" stroke="midnightblue" d="M958.4,-220.576C1007.44,-221.811 1077.69,-220.833 1138,-209.5 1150.31,-207.187 1163.58,-202.548 1173.89,-198.433"/>
<polygon fill="midnightblue" stroke="midnightblue" points="958.366,-217.074 948.269,-220.282 958.163,-224.071 958.366,-217.074"/>
</g>
<!-- Node259&#45;&gt;Node260 -->
<g id="edge4" class="edge"><title>Node259&#45;&gt;Node260</title>
<path fill="none" stroke="midnightblue" d="M1148.44,-190.5C1157.72,-190.5 1166.44,-190.5 1173.6,-190.5"/>
<polygon fill="midnightblue" stroke="midnightblue" points="1148.19,-187 1138.19,-190.5 1148.19,-194 1148.19,-187"/>
</g>
<!-- Node262 -->
<g id="node7" class="node"><title>Node262</title>
<g id="a_node7"><a xlink:href="namespaceobe_1_1_script.html#abdb81ec0976f1097cef6711415b8fac3" target="_top" xlink:title="obe::Script::loadCoreLib">
<polygon fill="white" stroke="black" points="352,-129 352,-148 473,-148 473,-129 352,-129"/>
<text text-anchor="middle" x="412.5" y="-136" font-family="Helvetica,sans-Serif" font-size="10.00">obe::Script::loadCoreLib</text>
</a>
</g>
</g>
<!-- Node261&#45;&gt;Node262 -->
<g id="edge7" class="edge"><title>Node261&#45;&gt;Node262</title>
<path fill="none" stroke="midnightblue" d="M300.099,-132.012C316.936,-131.652 335.174,-131.663 351.924,-132.045"/>
<polygon fill="midnightblue" stroke="midnightblue" points="299.727,-128.52 289.823,-132.284 299.912,-135.518 299.727,-128.52"/>
</g>
<!-- Node262&#45;&gt;Node261 -->
<g id="edge20" class="edge"><title>Node262&#45;&gt;Node261</title>
<path fill="none" stroke="midnightblue" d="M341.816,-145.138C324.428,-145.376 306.106,-145.235 289.823,-144.716"/>
<polygon fill="midnightblue" stroke="midnightblue" points="341.989,-148.636 351.924,-144.955 341.862,-141.637 341.989,-148.636"/>
</g>
<!-- Node263 -->
<g id="node8" class="node"><title>Node263</title>
<g id="a_node8"><a xlink:href="namespaceobe_1_1_script.html#a4e6ee77032cf7f66544f9b08464a60b7" target="_top" xlink:title="obe::Script::loadLib">
<polygon fill="white" stroke="black" points="509,-111 509,-130 610,-130 610,-111 509,-111"/>
<text text-anchor="middle" x="559.5" y="-118" font-family="Helvetica,sans-Serif" font-size="10.00">obe::Script::loadLib</text>
</a>
</g>
</g>
<!-- Node262&#45;&gt;Node263 -->
<g id="edge8" class="edge"><title>Node262&#45;&gt;Node263</title>
<path fill="none" stroke="midnightblue" d="M483.401,-129.823C492.037,-128.751 500.723,-127.672 508.967,-126.649"/>
<polygon fill="midnightblue" stroke="midnightblue" points="482.807,-126.369 473.314,-131.075 483.669,-133.316 482.807,-126.369"/>
</g>
<!-- Node264 -->
<g id="node9" class="node"><title>Node264</title>
<g id="a_node9"><a xlink:href="namespaceobe_1_1_modes.html#a1e38c0d9a2ca0230f0de79c298f53ab9" target="_top" xlink:title="A mode that will start the Toolkit. ">
<polygon fill="white" stroke="black" points="823,-154 823,-173 969,-173 969,-154 823,-154"/>
<text text-anchor="middle" x="896" y="-161" font-family="Helvetica,sans-Serif" font-size="10.00">obe::Modes::startToolkitMode</text>
</a>
</g>
</g>
<!-- Node263&#45;&gt;Node264 -->
<g id="edge9" class="edge"><title>Node263&#45;&gt;Node264</title>
<path fill="none" stroke="midnightblue" d="M584.831,-135.3C601.415,-144.511 624.232,-155.522 646,-160.5 704.475,-173.872 772.709,-173.631 822.946,-170.604"/>
<polygon fill="midnightblue" stroke="midnightblue" points="586.259,-132.084 575.843,-130.144 582.776,-138.156 586.259,-132.084"/>
</g>
<!-- Node265 -->
<g id="node10" class="node"><title>Node265</title>
<g id="a_node10"><a xlink:href="classobe_1_1_scene_1_1_world.html#a32964e659e18cb32094d9f8ceea30aa3" target="_top" xlink:title="obe::Scene::World::\lWorld">
<polygon fill="white" stroke="black" points="844,-69.5 844,-99.5 948,-99.5 948,-69.5 844,-69.5"/>
<text text-anchor="start" x="852" y="-87.5" font-family="Helvetica,sans-Serif" font-size="10.00">obe::Scene::World::</text>
<text text-anchor="middle" x="896" y="-76.5" font-family="Helvetica,sans-Serif" font-size="10.00">World</text>
</a>
</g>
</g>
<!-- Node263&#45;&gt;Node265 -->
<g id="edge12" class="edge"><title>Node263&#45;&gt;Node265</title>
<path fill="none" stroke="midnightblue" d="M620.51,-114.042C684.218,-107.185 783.826,-96.465 843.912,-89.9983"/>
<polygon fill="midnightblue" stroke="midnightblue" points="619.785,-110.599 610.217,-115.149 620.534,-117.559 619.785,-110.599"/>
</g>
<!-- Node266 -->
<g id="node11" class="node"><title>Node266</title>
<g id="a_node11"><a xlink:href="namespaceobe_1_1_scene.html#ae5cbcc3278d9115d603e5024dec9136e" target="_top" xlink:title="obe::Scene::loadWorldScript\lEngineBaseLib">
<polygon fill="white" stroke="black" points="646,-44.5 646,-74.5 787,-74.5 787,-44.5 646,-44.5"/>
<text text-anchor="start" x="654" y="-62.5" font-family="Helvetica,sans-Serif" font-size="10.00">obe::Scene::loadWorldScript</text>
<text text-anchor="middle" x="716.5" y="-51.5" font-family="Helvetica,sans-Serif" font-size="10.00">EngineBaseLib</text>
</a>
</g>
</g>
<!-- Node263&#45;&gt;Node266 -->
<g id="edge13" class="edge"><title>Node263&#45;&gt;Node266</title>
<path fill="none" stroke="midnightblue" d="M594.297,-107.199C618.761,-97.5714 651.858,-84.5462 677.285,-74.5395"/>
<polygon fill="midnightblue" stroke="midnightblue" points="592.742,-104.05 584.719,-110.969 595.306,-110.563 592.742,-104.05"/>
</g>
<!-- Node267 -->
<g id="node12" class="node"><title>Node267</title>
<g id="a_node12"><a xlink:href="namespaceobe_1_1_script.html#a5e992c0efb0543e7c934bc1065f08b01" target="_top" xlink:title="obe::Script::loadLibBridge">
<polygon fill="white" stroke="black" points="652.5,-6 652.5,-25 780.5,-25 780.5,-6 652.5,-6"/>
<text text-anchor="middle" x="716.5" y="-13" font-family="Helvetica,sans-Serif" font-size="10.00">obe::Script::loadLibBridge</text>
</a>
</g>
</g>
<!-- Node263&#45;&gt;Node267 -->
<g id="edge15" class="edge"><title>Node263&#45;&gt;Node267</title>
<path fill="none" stroke="midnightblue" d="M573.438,-102.787C588.655,-83.2186 615.712,-52.1481 646,-34.5 652.593,-30.6585 659.99,-27.5689 667.433,-25.0911"/>
<polygon fill="midnightblue" stroke="midnightblue" points="570.557,-100.793 567.311,-110.878 576.138,-105.019 570.557,-100.793"/>
</g>
<!-- Node270 -->
<g id="node15" class="node"><title>Node270</title>
<g id="a_node15"><a xlink:href="namespaceobe_1_1_script.html#aad6ef67388e6d16eb01853f208da410f" target="_top" xlink:title="obe::Script::loadBaseLib">
<polygon fill="white" stroke="black" points="655,-132 655,-151 778,-151 778,-132 655,-132"/>
<text text-anchor="middle" x="716.5" y="-139" font-family="Helvetica,sans-Serif" font-size="10.00">obe::Script::loadBaseLib</text>
</a>
</g>
</g>
<!-- Node263&#45;&gt;Node270 -->
<g id="edge18" class="edge"><title>Node263&#45;&gt;Node270</title>
<path fill="none" stroke="midnightblue" d="M620.556,-128.637C631.809,-130.161 643.58,-131.756 654.851,-133.283"/>
<polygon fill="midnightblue" stroke="midnightblue" points="620.776,-125.134 610.396,-127.26 619.836,-132.071 620.776,-125.134"/>
</g>
<!-- Node264&#45;&gt;Node259 -->
<g id="edge10" class="edge"><title>Node264&#45;&gt;Node259</title>
<path fill="none" stroke="midnightblue" d="M968.423,-174.615C981.993,-176.727 996.08,-178.919 1009.3,-180.976"/>
<polygon fill="midnightblue" stroke="midnightblue" points="968.589,-171.099 958.17,-173.019 967.512,-178.015 968.589,-171.099"/>
</g>
<!-- Node264&#45;&gt;Node260 -->
<g id="edge11" class="edge"><title>Node264&#45;&gt;Node260</title>
<path fill="none" stroke="midnightblue" d="M979.179,-160.066C1026.09,-159.637 1085.77,-161.686 1138,-171.5 1150.31,-173.813 1163.58,-178.452 1173.89,-182.567"/>
<polygon fill="midnightblue" stroke="midnightblue" points="979.021,-156.568 969.068,-160.199 979.113,-163.567 979.021,-156.568"/>
</g>
<!-- Node266&#45;&gt;Node265 -->
<g id="edge14" class="edge"><title>Node266&#45;&gt;Node265</title>
<path fill="none" stroke="midnightblue" d="M797.449,-70.7605C813.247,-72.9856 829.421,-75.2635 843.941,-77.3087"/>
<polygon fill="midnightblue" stroke="midnightblue" points="797.534,-67.2379 787.143,-69.3089 796.557,-74.1695 797.534,-67.2379"/>
</g>
<!-- Node268 -->
<g id="node13" class="node"><title>Node268</title>
<g id="a_node13"><a xlink:href="namespaceobe_1_1_script.html#a5dc8321da50fd4b5dc2935e4d8c93a4e" target="_top" xlink:title="obe::Script::loadScrGame\lObject">
<polygon fill="white" stroke="black" points="831.5,-0.5 831.5,-30.5 960.5,-30.5 960.5,-0.5 831.5,-0.5"/>
<text text-anchor="start" x="839.5" y="-18.5" font-family="Helvetica,sans-Serif" font-size="10.00">obe::Script::loadScrGame</text>
<text text-anchor="middle" x="896" y="-7.5" font-family="Helvetica,sans-Serif" font-size="10.00">Object</text>
</a>
</g>
</g>
<!-- Node267&#45;&gt;Node268 -->
<g id="edge16" class="edge"><title>Node267&#45;&gt;Node268</title>
<path fill="none" stroke="midnightblue" d="M790.737,-15.5C804.171,-15.5 818.096,-15.5 831.226,-15.5"/>
<polygon fill="midnightblue" stroke="midnightblue" points="790.58,-12.0001 780.58,-15.5 790.58,-19.0001 790.58,-12.0001"/>
</g>
<!-- Node269 -->
<g id="node14" class="node"><title>Node269</title>
<g id="a_node14"><a xlink:href="classobe_1_1_script_1_1_game_object.html#aadeac0036d2fe21d523acfd4e9011a23" target="_top" xlink:title="obe::Script::GameObject\l::loadGameObject">
<polygon fill="white" stroke="black" points="1009,-0.5 1009,-30.5 1134,-30.5 1134,-0.5 1009,-0.5"/>
<text text-anchor="start" x="1017" y="-18.5" font-family="Helvetica,sans-Serif" font-size="10.00">obe::Script::GameObject</text>
<text text-anchor="middle" x="1071.5" y="-7.5" font-family="Helvetica,sans-Serif" font-size="10.00">::loadGameObject</text>
</a>
</g>
</g>
<!-- Node268&#45;&gt;Node269 -->
<g id="edge17" class="edge"><title>Node268&#45;&gt;Node269</title>
<path fill="none" stroke="midnightblue" d="M970.721,-15.5C983.445,-15.5 996.552,-15.5 1008.91,-15.5"/>
<polygon fill="midnightblue" stroke="midnightblue" points="970.62,-12.0001 960.62,-15.5 970.62,-19.0001 970.62,-12.0001"/>
</g>
<!-- Node270&#45;&gt;Node264 -->
<g id="edge19" class="edge"><title>Node270&#45;&gt;Node264</title>
<path fill="none" stroke="midnightblue" d="M788.346,-150.281C799.662,-151.683 811.384,-153.136 822.733,-154.543"/>
<polygon fill="midnightblue" stroke="midnightblue" points="788.444,-146.766 778.089,-149.01 787.583,-153.713 788.444,-146.766"/>
</g>
</g>
</svg>
