<?xml version="1.0" encoding="UTF-8" standalone="no"?>
<!DOCTYPE svg PUBLIC "-//W3C//DTD SVG 1.1//EN"
 "http://www.w3.org/Graphics/SVG/1.1/DTD/svg11.dtd">
<!-- Generated by graphviz version 2.38.0 (20140413.2041)
 -->
<!-- Title: obe::Triggers::TriggerGroupPtr::~TriggerGroupPtr Pages: 1 -->
<svg width="497pt" height="112pt"
 viewBox="0.00 0.00 497.00 112.00" xmlns="http://www.w3.org/2000/svg" xmlns:xlink="http://www.w3.org/1999/xlink">
<g id="graph0" class="graph" transform="scale(1 1) rotate(0) translate(4 108)">
<title>obe::Triggers::TriggerGroupPtr::~TriggerGroupPtr</title>
<!-- Node2 -->
<g id="node1" class="node"><title>Node2</title>
<polygon fill="#bfbfbf" stroke="black" points="0,-48.5 0,-78.5 134,-78.5 134,-48.5 0,-48.5"/>
<text text-anchor="start" x="8" y="-66.5" font-family="Helvetica,sans-Serif" font-size="10.00">obe::Triggers::TriggerGroup</text>
<text text-anchor="middle" x="67" y="-55.5" font-family="Helvetica,sans-Serif" font-size="10.00">Ptr::~TriggerGroupPtr</text>
</g>
<!-- Node3 -->
<g id="node2" class="node"><title>Node3</title>
<g id="a_node2"><a xlink:href="classobe_1_1_triggers_1_1_trigger_database.html#a7fa7c3acb40846820d7f11a344d73451" target="_top" xlink:title="As TriggerDatabase is a Singleton, gets the single instance. ">
<polygon fill="white" stroke="black" points="170,-73.5 170,-103.5 319,-103.5 319,-73.5 170,-73.5"/>
<text text-anchor="start" x="178" y="-91.5" font-family="Helvetica,sans-Serif" font-size="10.00">obe::Triggers::TriggerDatabase</text>
<text text-anchor="middle" x="244.5" y="-80.5" font-family="Helvetica,sans-Serif" font-size="10.00">::GetInstance</text>
</a>
</g>
</g>
<!-- Node2&#45;&gt;Node3 -->
<g id="edge1" class="edge"><title>Node2&#45;&gt;Node3</title>
<path fill="none" stroke="midnightblue" d="M134.349,-72.9514C142.651,-74.1341 151.226,-75.3555 159.75,-76.5698"/>
<polygon fill="midnightblue" stroke="midnightblue" points="159.32,-80.0438 169.714,-77.9892 160.307,-73.1138 159.32,-80.0438"/>
</g>
<!-- Node4 -->
<g id="node3" class="node"><title>Node4</title>
<g id="a_node3"><a xlink:href="classobe_1_1_triggers_1_1_trigger_database.html#a86088f4568d0629ed0d63436892e40bc" target="_top" xlink:title="Removes an existing TriggerGroup. ">
<polygon fill="white" stroke="black" points="170,-24.5 170,-54.5 319,-54.5 319,-24.5 170,-24.5"/>
<text text-anchor="start" x="178" y="-42.5" font-family="Helvetica,sans-Serif" font-size="10.00">obe::Triggers::TriggerDatabase</text>
<text text-anchor="middle" x="244.5" y="-31.5" font-family="Helvetica,sans-Serif" font-size="10.00">::removeTriggerGroup</text>
</a>
</g>
</g>
<!-- Node2&#45;&gt;Node4 -->
<g id="edge2" class="edge"><title>Node2&#45;&gt;Node4</title>
<path fill="none" stroke="midnightblue" d="M134.349,-54.4266C142.651,-53.2913 151.226,-52.1187 159.75,-50.953"/>
<polygon fill="midnightblue" stroke="midnightblue" points="160.28,-54.4131 169.714,-49.5904 159.332,-47.4777 160.28,-54.4131"/>
</g>
<!-- Node5 -->
<g id="node4" class="node"><title>Node5</title>
<g id="a_node4"><a xlink:href="classobe_1_1_triggers_1_1_trigger_group.html#a4444bdd3126c3cee2c09f5f20f799256" target="_top" xlink:title="Get the name of the namespace the Trigger is in. ">
<polygon fill="white" stroke="black" points="355,-49.5 355,-79.5 489,-79.5 489,-49.5 355,-49.5"/>
<text text-anchor="start" x="363" y="-67.5" font-family="Helvetica,sans-Serif" font-size="10.00">obe::Triggers::TriggerGroup</text>
<text text-anchor="middle" x="422" y="-56.5" font-family="Helvetica,sans-Serif" font-size="10.00">::getNamespace</text>
</a>
</g>
</g>
<!-- Node4&#45;&gt;Node5 -->
<g id="edge3" class="edge"><title>Node4&#45;&gt;Node5</title>
<path fill="none" stroke="midnightblue" d="M319.165,-49.9936C327.66,-51.2037 336.336,-52.4396 344.863,-53.6543"/>
<polygon fill="midnightblue" stroke="midnightblue" points="344.391,-57.1223 354.785,-55.0676 345.378,-50.1923 344.391,-57.1223"/>
</g>
<!-- Node6 -->
<g id="node5" class="node"><title>Node6</title>
<g id="a_node5"><a xlink:href="classobe_1_1_triggers_1_1_trigger_group.html#afd615ae94ece6e7d978aab0ae9de80f8" target="_top" xlink:title="Get the name of the TriggerGroup. ">
<polygon fill="white" stroke="black" points="355,-0.5 355,-30.5 489,-30.5 489,-0.5 355,-0.5"/>
<text text-anchor="start" x="363" y="-18.5" font-family="Helvetica,sans-Serif" font-size="10.00">obe::Triggers::TriggerGroup</text>
<text text-anchor="middle" x="422" y="-7.5" font-family="Helvetica,sans-Serif" font-size="10.00">::getName</text>
</a>
</g>
</g>
<!-- Node4&#45;&gt;Node6 -->
<g id="edge4" class="edge"><title>Node4&#45;&gt;Node6</title>
<path fill="none" stroke="midnightblue" d="M319.165,-29.4262C327.66,-28.2644 336.336,-27.078 344.863,-25.9119"/>
<polygon fill="midnightblue" stroke="midnightblue" points="345.351,-29.3778 354.785,-24.5551 344.403,-22.4423 345.351,-29.3778"/>
</g>
</g>
</svg>
