<?xml version="1.0" encoding="UTF-8" standalone="no"?>
<!DOCTYPE svg PUBLIC "-//W3C//DTD SVG 1.1//EN"
 "http://www.w3.org/Graphics/SVG/1.1/DTD/svg11.dtd">
<!-- Generated by graphviz version 2.38.0 (20140413.2041)
 -->
<!-- Title: obe::Debug::Console::Message::getA Pages: 1 -->
<svg width="1152pt" height="190pt"
 viewBox="0.00 0.00 1152.00 189.50" xmlns="http://www.w3.org/2000/svg" xmlns:xlink="http://www.w3.org/1999/xlink">
<g id="graph0" class="graph" transform="scale(1 1) rotate(0) translate(4 185.5)">
<title>obe::Debug::Console::Message::getA</title>
<!-- Node4 -->
<g id="node1" class="node"><title>Node4</title>
<polygon fill="#bfbfbf" stroke="black" points="0,-44.5 0,-74.5 107,-74.5 107,-44.5 0,-44.5"/>
<text text-anchor="start" x="8" y="-62.5" font-family="Helvetica,sans-Serif" font-size="10.00">obe::Debug::Console</text>
<text text-anchor="middle" x="53.5" y="-51.5" font-family="Helvetica,sans-Serif" font-size="10.00">::Message::getA</text>
</g>
<!-- Node5 -->
<g id="node2" class="node"><title>Node5</title>
<g id="a_node2"><a xlink:href="namespaceobe_1_1_script_1_1_core_lib.html#ad0a0a4d8fdd1cdfe5d7177c1267e4d16" target="_top" xlink:title="obe::Script::CoreLib\l::loadConsole">
<polygon fill="none" stroke="black" points="143,-44.5 143,-74.5 246,-74.5 246,-44.5 143,-44.5"/>
<text text-anchor="start" x="151" y="-62.5" font-family="Helvetica,sans-Serif" font-size="10.00">obe::Script::CoreLib</text>
<text text-anchor="middle" x="194.5" y="-51.5" font-family="Helvetica,sans-Serif" font-size="10.00">::loadConsole</text>
</a>
</g>
</g>
<!-- Node4&#45;&gt;Node5 -->
<g id="edge1" class="edge"><title>Node4&#45;&gt;Node5</title>
<path fill="none" stroke="midnightblue" d="M117.32,-59.5C125.822,-59.5 134.459,-59.5 142.715,-59.5"/>
<polygon fill="midnightblue" stroke="midnightblue" points="117.05,-56.0001 107.05,-59.5 117.05,-63.0001 117.05,-56.0001"/>
</g>
<!-- Node6 -->
<g id="node3" class="node"><title>Node6</title>
<g id="a_node3"><a xlink:href="namespaceobe_1_1_script.html#abdb81ec0976f1097cef6711415b8fac3" target="_top" xlink:title="obe::Script::loadCoreLib">
<polygon fill="none" stroke="black" points="282,-50 282,-69 403,-69 403,-50 282,-50"/>
<text text-anchor="middle" x="342.5" y="-57" font-family="Helvetica,sans-Serif" font-size="10.00">obe::Script::loadCoreLib</text>
</a>
</g>
</g>
<!-- Node5&#45;&gt;Node6 -->
<g id="edge2" class="edge"><title>Node5&#45;&gt;Node6</title>
<path fill="none" stroke="midnightblue" d="M256.328,-59.5C264.785,-59.5 273.467,-59.5 281.902,-59.5"/>
<polygon fill="midnightblue" stroke="midnightblue" points="256.154,-56.0001 246.154,-59.5 256.154,-63.0001 256.154,-56.0001"/>
</g>
<!-- Node7 -->
<g id="node4" class="node"><title>Node7</title>
<g id="a_node4"><a xlink:href="namespaceobe_1_1_script.html#a4e6ee77032cf7f66544f9b08464a60b7" target="_top" xlink:title="obe::Script::loadLib">
<polygon fill="none" stroke="black" points="440,-94 440,-113 541,-113 541,-94 440,-94"/>
<text text-anchor="middle" x="490.5" y="-101" font-family="Helvetica,sans-Serif" font-size="10.00">obe::Script::loadLib</text>
</a>
</g>
</g>
<!-- Node6&#45;&gt;Node7 -->
<g id="edge3" class="edge"><title>Node6&#45;&gt;Node7</title>
<path fill="none" stroke="midnightblue" d="M384.761,-71.9347C407.959,-78.926 436.468,-87.5177 457.882,-93.9713"/>
<polygon fill="midnightblue" stroke="midnightblue" points="385.764,-68.5818 375.18,-69.0473 383.745,-75.2841 385.764,-68.5818"/>
</g>
<!-- Node17 -->
<g id="node14" class="node"><title>Node17</title>
<g id="a_node14"><a xlink:href="namespaceobe_1_1_script_1_1_core_lib.html#a07d6c11bbb082bc45bdba50d97965c00" target="_top" xlink:title="obe::Script::CoreLib\l::loadCollision">
<polygon fill="none" stroke="black" points="439,-44.5 439,-74.5 542,-74.5 542,-44.5 439,-44.5"/>
<text text-anchor="start" x="447" y="-62.5" font-family="Helvetica,sans-Serif" font-size="10.00">obe::Script::CoreLib</text>
<text text-anchor="middle" x="490.5" y="-51.5" font-family="Helvetica,sans-Serif" font-size="10.00">::loadCollision</text>
</a>
</g>
</g>
<!-- Node6&#45;&gt;Node17 -->
<g id="edge16" class="edge"><title>Node6&#45;&gt;Node17</title>
<path fill="none" stroke="midnightblue" d="M413.356,-52.7556C421.966,-52.7251 430.634,-52.8199 438.88,-53.0402"/>
<polygon fill="midnightblue" stroke="midnightblue" points="413.272,-49.2561 403.305,-52.849 413.337,-56.2558 413.272,-49.2561"/>
</g>
<!-- Node8 -->
<g id="node5" class="node"><title>Node8</title>
<g id="a_node5"><a xlink:href="namespaceobe_1_1_modes.html#a1e38c0d9a2ca0230f0de79c298f53ab9" target="_top" xlink:title="A mode that will start the Toolkit. ">
<polygon fill="none" stroke="black" points="755,-143 755,-162 901,-162 901,-143 755,-143"/>
<text text-anchor="middle" x="828" y="-150" font-family="Helvetica,sans-Serif" font-size="10.00">obe::Modes::startToolkitMode</text>
</a>
</g>
</g>
<!-- Node7&#45;&gt;Node8 -->
<g id="edge4" class="edge"><title>Node7&#45;&gt;Node8</title>
<path fill="none" stroke="midnightblue" d="M509.349,-119.842C525.799,-133.711 551.594,-152.582 578,-160.5 647.808,-181.432 733.595,-171.343 784.083,-162.001"/>
<polygon fill="midnightblue" stroke="midnightblue" points="511.485,-117.06 501.646,-113.13 506.886,-122.338 511.485,-117.06"/>
</g>
<!-- Node11 -->
<g id="node8" class="node"><title>Node11</title>
<g id="a_node8"><a xlink:href="classobe_1_1_scene_1_1_world.html#a32964e659e18cb32094d9f8ceea30aa3" target="_top" xlink:title="obe::Scene::World::\lWorld">
<polygon fill="none" stroke="black" points="776,-77.5 776,-107.5 880,-107.5 880,-77.5 776,-77.5"/>
<text text-anchor="start" x="784" y="-95.5" font-family="Helvetica,sans-Serif" font-size="10.00">obe::Scene::World::</text>
<text text-anchor="middle" x="828" y="-84.5" font-family="Helvetica,sans-Serif" font-size="10.00">World</text>
</a>
</g>
</g>
<!-- Node7&#45;&gt;Node11 -->
<g id="edge8" class="edge"><title>Node7&#45;&gt;Node11</title>
<path fill="none" stroke="midnightblue" d="M551.331,-101.538C615.27,-99.442 715.555,-96.1539 775.916,-94.1749"/>
<polygon fill="midnightblue" stroke="midnightblue" points="550.884,-98.051 541.004,-101.877 551.114,-105.047 550.884,-98.051"/>
</g>
<!-- Node12 -->
<g id="node9" class="node"><title>Node12</title>
<g id="a_node9"><a xlink:href="namespaceobe_1_1_scene.html#ae5cbcc3278d9115d603e5024dec9136e" target="_top" xlink:title="obe::Scene::loadWorldScript\lEngineBaseLib">
<polygon fill="none" stroke="black" points="578,-44.5 578,-74.5 719,-74.5 719,-44.5 578,-44.5"/>
<text text-anchor="start" x="586" y="-62.5" font-family="Helvetica,sans-Serif" font-size="10.00">obe::Scene::loadWorldScript</text>
<text text-anchor="middle" x="648.5" y="-51.5" font-family="Helvetica,sans-Serif" font-size="10.00">EngineBaseLib</text>
</a>
</g>
</g>
<!-- Node7&#45;&gt;Node12 -->
<g id="edge9" class="edge"><title>Node7&#45;&gt;Node12</title>
<path fill="none" stroke="midnightblue" d="M535.151,-91.1882C553.437,-86.0306 574.871,-79.9852 594.086,-74.5654"/>
<polygon fill="midnightblue" stroke="midnightblue" points="534.024,-87.8694 525.35,-93.9527 535.924,-94.6066 534.024,-87.8694"/>
</g>
<!-- Node13 -->
<g id="node10" class="node"><title>Node13</title>
<g id="a_node10"><a xlink:href="namespaceobe_1_1_script.html#a5e992c0efb0543e7c934bc1065f08b01" target="_top" xlink:title="obe::Script::loadLibBridge">
<polygon fill="none" stroke="black" points="584.5,-6 584.5,-25 712.5,-25 712.5,-6 584.5,-6"/>
<text text-anchor="middle" x="648.5" y="-13" font-family="Helvetica,sans-Serif" font-size="10.00">obe::Script::loadLibBridge</text>
</a>
</g>
</g>
<!-- Node7&#45;&gt;Node13 -->
<g id="edge11" class="edge"><title>Node7&#45;&gt;Node13</title>
<path fill="none" stroke="midnightblue" d="M532.912,-89.4024C536.114,-87.6311 539.19,-85.6682 542,-83.5 563.396,-66.9928 555.727,-49.8035 578,-34.5 583.67,-30.604 590.112,-27.505 596.732,-25.0404"/>
<polygon fill="midnightblue" stroke="midnightblue" points="531.13,-86.3769 523.668,-93.8975 534.191,-92.6721 531.13,-86.3769"/>
</g>
<!-- Node16 -->
<g id="node13" class="node"><title>Node16</title>
<g id="a_node13"><a xlink:href="namespaceobe_1_1_script.html#aad6ef67388e6d16eb01853f208da410f" target="_top" xlink:title="obe::Script::loadBaseLib">
<polygon fill="none" stroke="black" points="587,-132 587,-151 710,-151 710,-132 587,-132"/>
<text text-anchor="middle" x="648.5" y="-139" font-family="Helvetica,sans-Serif" font-size="10.00">obe::Script::loadBaseLib</text>
</a>
</g>
</g>
<!-- Node7&#45;&gt;Node16 -->
<g id="edge14" class="edge"><title>Node7&#45;&gt;Node16</title>
<path fill="none" stroke="midnightblue" d="M540.632,-115.468C562.493,-120.793 587.876,-126.976 608.418,-131.98"/>
<polygon fill="midnightblue" stroke="midnightblue" points="541.41,-112.055 530.865,-113.089 539.753,-118.856 541.41,-112.055"/>
</g>
<!-- Node9 -->
<g id="node6" class="node"><title>Node9</title>
<g id="a_node6"><a xlink:href="namespaceobe_1_1_modes.html#a6a8b08eee511d4895c4da96d4ba223a6" target="_top" xlink:title="obe::Modes::startDevMenu">
<polygon fill="none" stroke="black" points="937,-162 937,-181 1070,-181 1070,-162 937,-162"/>
<text text-anchor="middle" x="1003.5" y="-169" font-family="Helvetica,sans-Serif" font-size="10.00">obe::Modes::startDevMenu</text>
</a>
</g>
</g>
<!-- Node8&#45;&gt;Node9 -->
<g id="edge5" class="edge"><title>Node8&#45;&gt;Node9</title>
<path fill="none" stroke="midnightblue" d="M911.118,-161.493C919.716,-162.434 928.375,-163.383 936.755,-164.3"/>
<polygon fill="midnightblue" stroke="midnightblue" points="911.394,-158.002 901.072,-160.393 910.632,-164.961 911.394,-158.002"/>
</g>
<!-- Node10 -->
<g id="node7" class="node"><title>Node10</title>
<g id="a_node7"><a xlink:href="_ob_engine_8cpp.html#a3c04138a5bfe5d72780bb7e82a18e627" target="_top" xlink:title="main">
<polygon fill="none" stroke="black" points="1106,-143 1106,-162 1144,-162 1144,-143 1106,-143"/>
<text text-anchor="middle" x="1125" y="-150" font-family="Helvetica,sans-Serif" font-size="10.00">main</text>
</a>
</g>
</g>
<!-- Node8&#45;&gt;Node10 -->
<g id="edge7" class="edge"><title>Node8&#45;&gt;Node10</title>
<path fill="none" stroke="midnightblue" d="M911.308,-152.5C978.39,-152.5 1067.99,-152.5 1105.87,-152.5"/>
<polygon fill="midnightblue" stroke="midnightblue" points="911.165,-149 901.165,-152.5 911.165,-156 911.165,-149"/>
</g>
<!-- Node9&#45;&gt;Node10 -->
<g id="edge6" class="edge"><title>Node9&#45;&gt;Node10</title>
<path fill="none" stroke="midnightblue" d="M1074.82,-160.319C1086.35,-158.487 1097.33,-156.741 1105.98,-155.365"/>
<polygon fill="midnightblue" stroke="midnightblue" points="1073.93,-156.917 1064.6,-161.944 1075.03,-163.831 1073.93,-156.917"/>
</g>
<!-- Node12&#45;&gt;Node11 -->
<g id="edge10" class="edge"><title>Node12&#45;&gt;Node11</title>
<path fill="none" stroke="midnightblue" d="M728.998,-74.2799C744.939,-77.2436 761.283,-80.2821 775.941,-83.0074"/>
<polygon fill="midnightblue" stroke="midnightblue" points="729.615,-70.8346 719.143,-72.4478 728.335,-77.7167 729.615,-70.8346"/>
</g>
<!-- Node14 -->
<g id="node11" class="node"><title>Node14</title>
<g id="a_node11"><a xlink:href="namespaceobe_1_1_script.html#a5dc8321da50fd4b5dc2935e4d8c93a4e" target="_top" xlink:title="obe::Script::loadScrGame\lObject">
<polygon fill="none" stroke="black" points="763.5,-0.5 763.5,-30.5 892.5,-30.5 892.5,-0.5 763.5,-0.5"/>
<text text-anchor="start" x="771.5" y="-18.5" font-family="Helvetica,sans-Serif" font-size="10.00">obe::Script::loadScrGame</text>
<text text-anchor="middle" x="828" y="-7.5" font-family="Helvetica,sans-Serif" font-size="10.00">Object</text>
</a>
</g>
</g>
<!-- Node13&#45;&gt;Node14 -->
<g id="edge12" class="edge"><title>Node13&#45;&gt;Node14</title>
<path fill="none" stroke="midnightblue" d="M722.737,-15.5C736.171,-15.5 750.096,-15.5 763.226,-15.5"/>
<polygon fill="midnightblue" stroke="midnightblue" points="722.58,-12.0001 712.58,-15.5 722.58,-19.0001 722.58,-12.0001"/>
</g>
<!-- Node15 -->
<g id="node12" class="node"><title>Node15</title>
<g id="a_node12"><a xlink:href="classobe_1_1_script_1_1_game_object.html#aadeac0036d2fe21d523acfd4e9011a23" target="_top" xlink:title="obe::Script::GameObject\l::loadGameObject">
<polygon fill="none" stroke="black" points="941,-0.5 941,-30.5 1066,-30.5 1066,-0.5 941,-0.5"/>
<text text-anchor="start" x="949" y="-18.5" font-family="Helvetica,sans-Serif" font-size="10.00">obe::Script::GameObject</text>
<text text-anchor="middle" x="1003.5" y="-7.5" font-family="Helvetica,sans-Serif" font-size="10.00">::loadGameObject</text>
</a>
</g>
</g>
<!-- Node14&#45;&gt;Node15 -->
<g id="edge13" class="edge"><title>Node14&#45;&gt;Node15</title>
<path fill="none" stroke="midnightblue" d="M902.721,-15.5C915.445,-15.5 928.552,-15.5 940.913,-15.5"/>
<polygon fill="midnightblue" stroke="midnightblue" points="902.62,-12.0001 892.62,-15.5 902.62,-19.0001 902.62,-12.0001"/>
</g>
<!-- Node16&#45;&gt;Node8 -->
<g id="edge15" class="edge"><title>Node16&#45;&gt;Node8</title>
<path fill="none" stroke="midnightblue" d="M720.346,-145.89C731.662,-146.592 743.384,-147.318 754.733,-148.021"/>
<polygon fill="midnightblue" stroke="midnightblue" points="720.286,-142.38 710.089,-145.255 719.853,-149.367 720.286,-142.38"/>
</g>
<!-- Node17&#45;&gt;Node6 -->
<g id="edge17" class="edge"><title>Node17&#45;&gt;Node6</title>
<path fill="none" stroke="midnightblue" d="M428.757,-66.1647C420.342,-66.2828 411.703,-66.2783 403.305,-66.151"/>
<polygon fill="midnightblue" stroke="midnightblue" points="428.953,-69.6616 438.88,-65.9598 428.811,-62.663 428.953,-69.6616"/>
</g>
</g>
</svg>
