<?xml version="1.0" encoding="UTF-8" standalone="no"?>
<!DOCTYPE svg PUBLIC "-//W3C//DTD SVG 1.1//EN"
 "http://www.w3.org/Graphics/SVG/1.1/DTD/svg11.dtd">
<!-- Generated by graphviz version 2.38.0 (20140413.2041)
 -->
<!-- Title: vili::LinkAttribute::get Pages: 1 -->
<!--zoomable 806 -->
<svg id="main" version="1.1" xmlns="http://www.w3.org/2000/svg" xmlns:xlink="http://www.w3.org/1999/xlink" xml:space="preserve" onload="init(evt)">
<style type="text/css"><![CDATA[
.edge:hover path { stroke: red; }
.edge:hover polygon { stroke: red; fill: red; }
.edge path { stroke: white; }
.edge polygon { stroke: white; fill: white; }
.node polygon { fill: white; }
]]></style>
<script type="text/javascript"><![CDATA[
var edges = document.getElementsByTagName('g');
if (edges && edges.length) {
  for (var i=0;i<edges.length;i++) {
    if (edges[i].id.substr(0,4)=='edge') {
      edges[i].setAttribute('class','edge');
    }
  }
}
]]></script>
        <defs>
                <circle id="rim" cx="0" cy="0" r="7"/>
                <circle id="rim2" cx="0" cy="0" r="3.5"/>
                <g id="zoomPlus">
                        <use xlink:href="#rim" fill="#404040">
                                <set attributeName="fill" to="#808080" begin="zoomplus.mouseover" end="zoomplus.mouseout"/>
                        </use>
                        <path d="M-4,0h8M0,-4v8" fill="none" stroke="white" stroke-width="1.5" pointer-events="none"/>
                </g>
                <g id="zoomMin">
                        <use xlink:href="#rim" fill="#404040">
                                <set attributeName="fill" to="#808080" begin="zoomminus.mouseover" end="zoomminus.mouseout"/>
                        </use>
                        <path d="M-4,0h8" fill="none" stroke="white" stroke-width="1.5" pointer-events="none"/>
                </g>
                <g id="dirArrow">
                        <path fill="none" stroke="white" stroke-width="1.5" d="M0,-3.0v7 M-2.5,-0.5L0,-3.0L2.5,-0.5"/>
                </g>
               <g id="resetDef">
                       <use xlink:href="#rim2" fill="#404040">
                               <set attributeName="fill" to="#808080" begin="reset.mouseover" end="reset.mouseout"/>
                       </use>
               </g>
        </defs>

<script type="text/javascript">
var viewWidth = 1174;
var viewHeight = 806;
var sectionId = 'dynsection-6';
</script>
<script xlink:href="svgpan.js"/>
<svg id="graph" class="graph">
<g id="viewport">
<title>vili::LinkAttribute::get</title>
<!-- Node53 -->
<g id="node1" class="node"><title>Node53</title>
<polygon fill="#bfbfbf" stroke="black" points="0,-659 0,-678 107,-678 107,-659 0,-659"/>
<text text-anchor="middle" x="53.5" y="-666" font-family="Helvetica,sans-Serif" font-size="10.00">vili::LinkAttribute::get</text>
</g>
<!-- Node54 -->
<g id="node2" class="node"><title>Node54</title>
<g id="a_node2"><a xlink:href="classvili_1_1_link_attribute.html#aaa8d1c4b32f97291174af382bd319636" target="_top" xlink:title="vili::LinkAttribute\l::getPath">
<polygon fill="white" stroke="black" points="277,-744.5 277,-774.5 365,-774.5 365,-744.5 277,-744.5"/>
<text text-anchor="start" x="285" y="-762.5" font-family="Helvetica,sans-Serif" font-size="10.00">vili::LinkAttribute</text>
<text text-anchor="middle" x="321" y="-751.5" font-family="Helvetica,sans-Serif" font-size="10.00">::getPath</text>
</a>
</g>
</g>
<!-- Node53&#45;&gt;Node54 -->
<g id="edge1" class="edge"><title>Node53&#45;&gt;Node54</title>
<path fill="none" stroke="midnightblue" d="M60.2854,-678.26C72.5768,-697.908 103.435,-741.785 143,-758.5 181.904,-774.936 230.049,-774.012 266.301,-769.632"/>
<polygon fill="midnightblue" stroke="midnightblue" points="267.22,-773.04 276.669,-768.247 266.294,-766.102 267.22,-773.04"/>
</g>
<!-- Node55 -->
<g id="node3" class="node"><title>Node55</title>
<g id="a_node3"><a xlink:href="classvili_1_1_link_attribute.html#a34a9f7a668c2eb5333932ae31842536b" target="_top" xlink:title="vili::LinkAttribute\l::getFullPath">
<polygon fill="white" stroke="black" points="277,-685.5 277,-715.5 365,-715.5 365,-685.5 277,-685.5"/>
<text text-anchor="start" x="285" y="-703.5" font-family="Helvetica,sans-Serif" font-size="10.00">vili::LinkAttribute</text>
<text text-anchor="middle" x="321" y="-692.5" font-family="Helvetica,sans-Serif" font-size="10.00">::getFullPath</text>
</a>
</g>
</g>
<!-- Node53&#45;&gt;Node55 -->
<g id="edge2" class="edge"><title>Node53&#45;&gt;Node55</title>
<path fill="none" stroke="midnightblue" d="M107.272,-674.86C153.527,-680.435 220.436,-688.5 266.814,-694.09"/>
<polygon fill="midnightblue" stroke="midnightblue" points="266.619,-697.591 276.966,-695.313 267.457,-690.642 266.619,-697.591"/>
</g>
<!-- Node75 -->
<g id="node23" class="node"><title>Node75</title>
<g id="a_node23"><a xlink:href="classvili_1_1_link_attribute.html#adae9f0b175b458735495aa2f0146c509" target="_top" xlink:title="vili::LinkAttribute\l::apply">
<polygon fill="white" stroke="black" points="143,-226.5 143,-256.5 231,-256.5 231,-226.5 143,-226.5"/>
<text text-anchor="start" x="151" y="-244.5" font-family="Helvetica,sans-Serif" font-size="10.00">vili::LinkAttribute</text>
<text text-anchor="middle" x="187" y="-233.5" font-family="Helvetica,sans-Serif" font-size="10.00">::apply</text>
</a>
</g>
</g>
<!-- Node53&#45;&gt;Node75 -->
<g id="edge24" class="edge"><title>Node53&#45;&gt;Node75</title>
<path fill="none" stroke="midnightblue" d="M57.4936,-658.779C73.9015,-605.5 153.1,-348.333 178.29,-266.536"/>
<polygon fill="midnightblue" stroke="midnightblue" points="181.683,-267.41 181.281,-256.823 174.993,-265.35 181.683,-267.41"/>
</g>
<!-- Node87 -->
<g id="node35" class="node"><title>Node87</title>
<g id="a_node35"><a xlink:href="classvili_1_1_link_attribute.html#af81f90685c7df43ba5dd96bac6ec3008" target="_top" xlink:title="vili::LinkAttribute\l::copy">
<polygon fill="white" stroke="black" points="570,-147.5 570,-177.5 658,-177.5 658,-147.5 570,-147.5"/>
<text text-anchor="start" x="578" y="-165.5" font-family="Helvetica,sans-Serif" font-size="10.00">vili::LinkAttribute</text>
<text text-anchor="middle" x="614" y="-154.5" font-family="Helvetica,sans-Serif" font-size="10.00">::copy</text>
</a>
</g>
</g>
<!-- Node53&#45;&gt;Node87 -->
<g id="edge57" class="edge"><title>Node53&#45;&gt;Node87</title>
<path fill="none" stroke="midnightblue" d="M54.5969,-658.699C55.4486,-608.886 63.6996,-379.775 143,-216.5 179.898,-140.528 193.534,-114.164 267,-72.5 366.441,-16.1051 420.23,2.57198 523,-47.5 561.532,-66.2739 588.423,-110.408 602.243,-138.217"/>
<polygon fill="midnightblue" stroke="midnightblue" points="599.116,-139.79 606.584,-147.305 605.432,-136.773 599.116,-139.79"/>
</g>
<!-- Node88 -->
<g id="node36" class="node"><title>Node88</title>
<g id="a_node36"><a xlink:href="classvili_1_1_link_attribute.html#a6b473daf48eb44f716bfc45ef9b70874" target="_top" xlink:title="vili::LinkAttribute\l::operator==">
<polygon fill="white" stroke="black" points="143,-631.5 143,-661.5 231,-661.5 231,-631.5 143,-631.5"/>
<text text-anchor="start" x="151" y="-649.5" font-family="Helvetica,sans-Serif" font-size="10.00">vili::LinkAttribute</text>
<text text-anchor="middle" x="187" y="-638.5" font-family="Helvetica,sans-Serif" font-size="10.00">::operator==</text>
</a>
</g>
</g>
<!-- Node53&#45;&gt;Node88 -->
<g id="edge55" class="edge"><title>Node53&#45;&gt;Node88</title>
<path fill="none" stroke="midnightblue" d="M107.228,-659.679C115.661,-658.268 124.391,-656.807 132.834,-655.395"/>
<polygon fill="midnightblue" stroke="midnightblue" points="133.665,-658.804 142.951,-653.702 132.51,-651.9 133.665,-658.804"/>
</g>
<!-- Node89 -->
<g id="node37" class="node"><title>Node89</title>
<g id="a_node37"><a xlink:href="classvili_1_1_link_attribute.html#a00cca78c34f07d31d7832b50a7271098" target="_top" xlink:title="vili::LinkAttribute\l::write">
<polygon fill="white" stroke="black" points="143,-719.5 143,-749.5 231,-749.5 231,-719.5 143,-719.5"/>
<text text-anchor="start" x="151" y="-737.5" font-family="Helvetica,sans-Serif" font-size="10.00">vili::LinkAttribute</text>
<text text-anchor="middle" x="187" y="-726.5" font-family="Helvetica,sans-Serif" font-size="10.00">::write</text>
</a>
</g>
</g>
<!-- Node53&#45;&gt;Node89 -->
<g id="edge58" class="edge"><title>Node53&#45;&gt;Node89</title>
<path fill="none" stroke="midnightblue" d="M73.6212,-678.097C92.7598,-687.703 122.758,-702.759 146.948,-714.9"/>
<polygon fill="midnightblue" stroke="midnightblue" points="145.393,-718.035 155.9,-719.393 148.533,-711.779 145.393,-718.035"/>
</g>
<!-- Node56 -->
<g id="node4" class="node"><title>Node56</title>
<g id="a_node4"><a xlink:href="classvili_1_1_complex_attribute.html#a079cdf7cb1a71858137ad16b1d48a174" target="_top" xlink:title="vili::ComplexAttribute\l::contains">
<polygon fill="white" stroke="black" points="413,-685.5 413,-715.5 521,-715.5 521,-685.5 413,-685.5"/>
<text text-anchor="start" x="421" y="-703.5" font-family="Helvetica,sans-Serif" font-size="10.00">vili::ComplexAttribute</text>
<text text-anchor="middle" x="467" y="-692.5" font-family="Helvetica,sans-Serif" font-size="10.00">::contains</text>
</a>
</g>
</g>
<!-- Node55&#45;&gt;Node56 -->
<g id="edge3" class="edge"><title>Node55&#45;&gt;Node56</title>
<path fill="none" stroke="midnightblue" d="M365.205,-700.5C377.037,-700.5 390.11,-700.5 402.813,-700.5"/>
<polygon fill="midnightblue" stroke="midnightblue" points="402.889,-704 412.889,-700.5 402.889,-697 402.889,-704"/>
</g>
<!-- Node57 -->
<g id="node5" class="node"><title>Node57</title>
<g id="a_node5"><a xlink:href="classvili_1_1_complex_attribute.html#a7031eabef8547fe00efb455c75b5e28e" target="_top" xlink:title="vili::ComplexAttribute\l::getBaseAttribute">
<polygon fill="white" stroke="black" points="560,-600.5 560,-630.5 668,-630.5 668,-600.5 560,-600.5"/>
<text text-anchor="start" x="568" y="-618.5" font-family="Helvetica,sans-Serif" font-size="10.00">vili::ComplexAttribute</text>
<text text-anchor="middle" x="614" y="-607.5" font-family="Helvetica,sans-Serif" font-size="10.00">::getBaseAttribute</text>
</a>
</g>
</g>
<!-- Node55&#45;&gt;Node57 -->
<g id="edge4" class="edge"><title>Node55&#45;&gt;Node57</title>
<path fill="none" stroke="midnightblue" d="M356.26,-715.526C397.86,-731.385 469.133,-750.745 523,-724.5 546.338,-713.129 542.548,-698.583 559,-678.5 570.052,-665.009 582.727,-650.189 593.019,-638.314"/>
<polygon fill="midnightblue" stroke="midnightblue" points="595.792,-640.458 599.714,-630.615 590.51,-635.864 595.792,-640.458"/>
</g>
<!-- Node68 -->
<g id="node16" class="node"><title>Node68</title>
<g id="a_node16"><a xlink:href="classvili_1_1_base_attribute.html#a637dd7d2977f7a453f06065d5d441495" target="_top" xlink:title="vili::BaseAttribute::get">
<polygon fill="white" stroke="black" points="411,-773 411,-792 523,-792 523,-773 411,-773"/>
<text text-anchor="middle" x="467" y="-780" font-family="Helvetica,sans-Serif" font-size="10.00">vili::BaseAttribute::get</text>
</a>
</g>
</g>
<!-- Node55&#45;&gt;Node68 -->
<g id="edge15" class="edge"><title>Node55&#45;&gt;Node68</title>
<path fill="none" stroke="midnightblue" d="M345.803,-715.644C354.954,-721.499 365.485,-728.277 375,-734.5 391.093,-745.025 394.122,-749.285 411,-758.5 417.664,-762.138 424.991,-765.65 432.063,-768.812"/>
<polygon fill="midnightblue" stroke="midnightblue" points="430.896,-772.121 441.463,-772.887 433.68,-765.698 430.896,-772.121"/>
</g>
<!-- Node58 -->
<g id="node6" class="node"><title>Node58</title>
<g id="a_node6"><a xlink:href="classaube_1_1_error_handler.html#a7c8d44a3e7f019646d289950abc5301b" target="_top" xlink:title="aube::ErrorHandler\l::Raise">
<polygon fill="white" stroke="black" points="874.5,-330.5 874.5,-360.5 972.5,-360.5 972.5,-330.5 874.5,-330.5"/>
<text text-anchor="start" x="882.5" y="-348.5" font-family="Helvetica,sans-Serif" font-size="10.00">aube::ErrorHandler</text>
<text text-anchor="middle" x="923.5" y="-337.5" font-family="Helvetica,sans-Serif" font-size="10.00">::Raise</text>
</a>
</g>
</g>
<!-- Node57&#45;&gt;Node58 -->
<g id="edge5" class="edge"><title>Node57&#45;&gt;Node58</title>
<path fill="none" stroke="midnightblue" d="M616.955,-600.465C622.776,-561.966 643.586,-459.097 705,-405.5 717.196,-394.856 804.323,-372.943 864.531,-358.75"/>
<polygon fill="midnightblue" stroke="midnightblue" points="865.381,-362.146 874.318,-356.455 863.783,-355.331 865.381,-362.146"/>
</g>
<!-- Node63 -->
<g id="node11" class="node"><title>Node63</title>
<g id="a_node11"><a xlink:href="classvili_1_1_attribute.html#a14b2534c1250d36bb0c02f7e5c25b40b" target="_top" xlink:title="vili::Attribute::getNodePath">
<polygon fill="white" stroke="black" points="857.5,-565 857.5,-584 989.5,-584 989.5,-565 857.5,-565"/>
<text text-anchor="middle" x="923.5" y="-572" font-family="Helvetica,sans-Serif" font-size="10.00">vili::Attribute::getNodePath</text>
</a>
</g>
</g>
<!-- Node57&#45;&gt;Node63 -->
<g id="edge10" class="edge"><title>Node57&#45;&gt;Node63</title>
<path fill="none" stroke="midnightblue" d="M668.404,-613.044C709.266,-610.673 766.92,-606.265 817,-598.5 836.577,-595.465 857.93,-590.857 876.273,-586.487"/>
<polygon fill="midnightblue" stroke="midnightblue" points="877.231,-589.856 886.123,-584.096 875.58,-583.054 877.231,-589.856"/>
</g>
<!-- Node59 -->
<g id="node7" class="node"><title>Node59</title>
<g id="a_node7"><a xlink:href="classaube_1_1_error_message.html#a3a39b6fcd8fdb12eaf6383123535b8ca" target="_top" xlink:title="aube::ErrorMessage\l::getFile">
<polygon fill="white" stroke="black" points="1046,-306.5 1046,-336.5 1150,-336.5 1150,-306.5 1046,-306.5"/>
<text text-anchor="start" x="1054" y="-324.5" font-family="Helvetica,sans-Serif" font-size="10.00">aube::ErrorMessage</text>
<text text-anchor="middle" x="1098" y="-313.5" font-family="Helvetica,sans-Serif" font-size="10.00">::getFile</text>
</a>
</g>
</g>
<!-- Node58&#45;&gt;Node59 -->
<g id="edge6" class="edge"><title>Node58&#45;&gt;Node59</title>
<path fill="none" stroke="midnightblue" d="M972.551,-338.815C992.17,-336.085 1015.09,-332.896 1035.88,-330.003"/>
<polygon fill="midnightblue" stroke="midnightblue" points="1036.47,-333.455 1045.89,-328.611 1035.5,-326.522 1036.47,-333.455"/>
</g>
<!-- Node60 -->
<g id="node8" class="node"><title>Node60</title>
<g id="a_node8"><a xlink:href="classaube_1_1_error_message.html#a9184cc96589578f434351c105b0cd5f7" target="_top" xlink:title="aube::ErrorMessage\l::getLocation">
<polygon fill="white" stroke="black" points="1046,-257.5 1046,-287.5 1150,-287.5 1150,-257.5 1046,-257.5"/>
<text text-anchor="start" x="1054" y="-275.5" font-family="Helvetica,sans-Serif" font-size="10.00">aube::ErrorMessage</text>
<text text-anchor="middle" x="1098" y="-264.5" font-family="Helvetica,sans-Serif" font-size="10.00">::getLocation</text>
</a>
</g>
</g>
<!-- Node58&#45;&gt;Node60 -->
<g id="edge7" class="edge"><title>Node58&#45;&gt;Node60</title>
<path fill="none" stroke="midnightblue" d="M955.103,-330.388C975.989,-320.298 1004.4,-307.003 1030,-296.5 1034.41,-294.69 1039.02,-292.88 1043.65,-291.111"/>
<polygon fill="midnightblue" stroke="midnightblue" points="1045.03,-294.333 1053.17,-287.553 1042.58,-287.776 1045.03,-294.333"/>
</g>
<!-- Node61 -->
<g id="node9" class="node"><title>Node61</title>
<g id="a_node9"><a xlink:href="classaube_1_1_error_message.html#a07927cb3e2d0712c459cc9e2b5f52696" target="_top" xlink:title="aube::ErrorMessage\l::getMessage">
<polygon fill="white" stroke="black" points="1046,-404.5 1046,-434.5 1150,-434.5 1150,-404.5 1046,-404.5"/>
<text text-anchor="start" x="1054" y="-422.5" font-family="Helvetica,sans-Serif" font-size="10.00">aube::ErrorMessage</text>
<text text-anchor="middle" x="1098" y="-411.5" font-family="Helvetica,sans-Serif" font-size="10.00">::getMessage</text>
</a>
</g>
</g>
<!-- Node58&#45;&gt;Node61 -->
<g id="edge8" class="edge"><title>Node58&#45;&gt;Node61</title>
<path fill="none" stroke="midnightblue" d="M955.148,-360.503C976.054,-370.546 1004.47,-383.829 1030,-394.5 1035.01,-396.595 1040.27,-398.704 1045.54,-400.761"/>
<polygon fill="midnightblue" stroke="midnightblue" points="1044.4,-404.073 1054.99,-404.394 1046.91,-397.539 1044.4,-404.073"/>
</g>
<!-- Node62 -->
<g id="node10" class="node"><title>Node62</title>
<g id="a_node10"><a xlink:href="classaube_1_1_error_message.html#a77c2f9b7e93542c958173b52da267989" target="_top" xlink:title="aube::ErrorMessage\l::getHints">
<polygon fill="white" stroke="black" points="1046,-355.5 1046,-385.5 1150,-385.5 1150,-355.5 1046,-355.5"/>
<text text-anchor="start" x="1054" y="-373.5" font-family="Helvetica,sans-Serif" font-size="10.00">aube::ErrorMessage</text>
<text text-anchor="middle" x="1098" y="-362.5" font-family="Helvetica,sans-Serif" font-size="10.00">::getHints</text>
</a>
</g>
</g>
<!-- Node58&#45;&gt;Node62 -->
<g id="edge9" class="edge"><title>Node58&#45;&gt;Node62</title>
<path fill="none" stroke="midnightblue" d="M972.551,-352.464C992.17,-355.307 1015.09,-358.629 1035.88,-361.642"/>
<polygon fill="midnightblue" stroke="midnightblue" points="1035.49,-365.122 1045.89,-363.093 1036.5,-358.195 1035.49,-365.122"/>
</g>
<!-- Node64 -->
<g id="node12" class="node"><title>Node64</title>
<g id="a_node12"><a xlink:href="classvili_1_1_attribute.html#a1ed7aaea237378cc2b3ab767a864ced8" target="_top" xlink:title="vili::Attribute::getParent">
<polygon fill="white" stroke="black" points="1039,-521 1039,-540 1157,-540 1157,-521 1039,-521"/>
<text text-anchor="middle" x="1098" y="-528" font-family="Helvetica,sans-Serif" font-size="10.00">vili::Attribute::getParent</text>
</a>
</g>
</g>
<!-- Node63&#45;&gt;Node64 -->
<g id="edge11" class="edge"><title>Node63&#45;&gt;Node64</title>
<path fill="none" stroke="midnightblue" d="M961.93,-564.953C987.699,-558.38 1022.14,-549.595 1049.79,-542.542"/>
<polygon fill="midnightblue" stroke="midnightblue" points="1050.82,-545.892 1059.64,-540.029 1049.09,-539.109 1050.82,-545.892"/>
</g>
<!-- Node65 -->
<g id="node13" class="node"><title>Node65</title>
<g id="a_node13"><a xlink:href="classvili_1_1_attribute.html#a4af867485d90f3ce77332995e5dcfc5f" target="_top" xlink:title="vili::Attribute::getID">
<polygon fill="white" stroke="black" points="1049,-647 1049,-666 1147,-666 1147,-647 1049,-647"/>
<text text-anchor="middle" x="1098" y="-654" font-family="Helvetica,sans-Serif" font-size="10.00">vili::Attribute::getID</text>
</a>
</g>
</g>
<!-- Node63&#45;&gt;Node65 -->
<g id="edge12" class="edge"><title>Node63&#45;&gt;Node65</title>
<path fill="none" stroke="midnightblue" d="M937.876,-584.064C957.328,-597.599 994.938,-622.372 1030,-637.5 1035.4,-639.832 1041.18,-641.964 1046.98,-643.888"/>
<polygon fill="midnightblue" stroke="midnightblue" points="1046.13,-647.29 1056.72,-646.928 1048.22,-640.608 1046.13,-647.29"/>
</g>
<!-- Node66 -->
<g id="node14" class="node"><title>Node66</title>
<g id="a_node14"><a xlink:href="classvili_1_1_attribute.html#a1ec7ebd0bd596dd848151d37bba8c1b4" target="_top" xlink:title="vili::Attribute::getAnnotation">
<polygon fill="white" stroke="black" points="1030,-609 1030,-628 1166,-628 1166,-609 1030,-609"/>
<text text-anchor="middle" x="1098" y="-616" font-family="Helvetica,sans-Serif" font-size="10.00">vili::Attribute::getAnnotation</text>
</a>
</g>
</g>
<!-- Node63&#45;&gt;Node66 -->
<g id="edge13" class="edge"><title>Node63&#45;&gt;Node66</title>
<path fill="none" stroke="midnightblue" d="M961.93,-584.047C987.699,-590.62 1022.14,-599.405 1049.79,-606.458"/>
<polygon fill="midnightblue" stroke="midnightblue" points="1049.09,-609.891 1059.64,-608.971 1050.82,-603.108 1049.09,-609.891"/>
</g>
<!-- Node67 -->
<g id="node15" class="node"><title>Node67</title>
<g id="a_node15"><a xlink:href="namespacevili_1_1_functions_1_1_vector.html#a10836e1fe04648534cfc59d9de9acd72" target="_top" xlink:title="vili::Functions::Vector\l::join">
<polygon fill="white" stroke="black" points="1043,-559.5 1043,-589.5 1153,-589.5 1153,-559.5 1043,-559.5"/>
<text text-anchor="start" x="1051" y="-577.5" font-family="Helvetica,sans-Serif" font-size="10.00">vili::Functions::Vector</text>
<text text-anchor="middle" x="1098" y="-566.5" font-family="Helvetica,sans-Serif" font-size="10.00">::join</text>
</a>
</g>
</g>
<!-- Node63&#45;&gt;Node67 -->
<g id="edge14" class="edge"><title>Node63&#45;&gt;Node67</title>
<path fill="none" stroke="midnightblue" d="M989.715,-574.5C1003.84,-574.5 1018.77,-574.5 1032.85,-574.5"/>
<polygon fill="midnightblue" stroke="midnightblue" points="1032.94,-578 1042.94,-574.5 1032.94,-571 1032.94,-578"/>
</g>
<!-- Node69 -->
<g id="node17" class="node"><title>Node69</title>
<g id="a_node17"><a xlink:href="classvili_1_1_base_attribute.html#a27b7f17214e2b9708f4f8fb9847aaa95" target="_top" xlink:title="vili::BaseAttribute\l::copy">
<polygon fill="white" stroke="black" points="568,-688.5 568,-718.5 660,-718.5 660,-688.5 568,-688.5"/>
<text text-anchor="start" x="576" y="-706.5" font-family="Helvetica,sans-Serif" font-size="10.00">vili::BaseAttribute</text>
<text text-anchor="middle" x="614" y="-695.5" font-family="Helvetica,sans-Serif" font-size="10.00">::copy</text>
</a>
</g>
</g>
<!-- Node68&#45;&gt;Node69 -->
<g id="edge16" class="edge"><title>Node68&#45;&gt;Node69</title>
<path fill="none" stroke="midnightblue" d="M491.886,-772.92C501.672,-768.779 513.02,-763.696 523,-758.5 543.055,-748.059 564.702,-734.895 581.739,-724.063"/>
<polygon fill="midnightblue" stroke="midnightblue" points="583.668,-726.984 590.195,-718.638 579.889,-721.092 583.668,-726.984"/>
</g>
<!-- Node73 -->
<g id="node21" class="node"><title>Node73</title>
<g id="a_node21"><a xlink:href="classvili_1_1_base_attribute.html#a7317c3254137e3886900536d9fb5ba3f" target="_top" xlink:title="vili::BaseAttribute\l::write">
<polygon fill="white" stroke="black" points="568,-767.5 568,-797.5 660,-797.5 660,-767.5 568,-767.5"/>
<text text-anchor="start" x="576" y="-785.5" font-family="Helvetica,sans-Serif" font-size="10.00">vili::BaseAttribute</text>
<text text-anchor="middle" x="614" y="-774.5" font-family="Helvetica,sans-Serif" font-size="10.00">::write</text>
</a>
</g>
</g>
<!-- Node68&#45;&gt;Node73 -->
<g id="edge22" class="edge"><title>Node68&#45;&gt;Node73</title>
<path fill="none" stroke="midnightblue" d="M523.232,-782.5C534.507,-782.5 546.373,-782.5 557.652,-782.5"/>
<polygon fill="midnightblue" stroke="midnightblue" points="557.811,-786 567.811,-782.5 557.811,-779 557.811,-786"/>
</g>
<!-- Node70 -->
<g id="node18" class="node"><title>Node70</title>
<g id="a_node18"><a xlink:href="classvili_1_1_attribute.html#a3a59cd36c4317ab0af2139a9db0f4c9b" target="_top" xlink:title="vili::Attribute::getType">
<polygon fill="white" stroke="black" points="706,-339 706,-358 816,-358 816,-339 706,-339"/>
<text text-anchor="middle" x="761" y="-346" font-family="Helvetica,sans-Serif" font-size="10.00">vili::Attribute::getType</text>
</a>
</g>
</g>
<!-- Node69&#45;&gt;Node70 -->
<g id="edge17" class="edge"><title>Node69&#45;&gt;Node70</title>
<path fill="none" stroke="midnightblue" d="M631.988,-688.412C644.332,-676.425 660.335,-658.557 669,-639.5 712.554,-543.713 658.277,-499.781 705,-405.5 712.938,-389.482 726.997,-375.034 738.913,-364.691"/>
<polygon fill="midnightblue" stroke="midnightblue" points="741.256,-367.296 746.719,-358.218 736.787,-361.907 741.256,-367.296"/>
</g>
<!-- Node71 -->
<g id="node19" class="node"><title>Node71</title>
<g id="a_node19"><a xlink:href="classvili_1_1_base_attribute.html#aa9d584a49371506524beee1672ccd976" target="_top" xlink:title="vili::BaseAttribute::set">
<polygon fill="white" stroke="black" points="705,-688 705,-707 817,-707 817,-688 705,-688"/>
<text text-anchor="middle" x="761" y="-695" font-family="Helvetica,sans-Serif" font-size="10.00">vili::BaseAttribute::set</text>
</a>
</g>
</g>
<!-- Node69&#45;&gt;Node71 -->
<g id="edge18" class="edge"><title>Node69&#45;&gt;Node71</title>
<path fill="none" stroke="midnightblue" d="M660.084,-701.634C671.079,-701.179 683.061,-700.684 694.786,-700.199"/>
<polygon fill="midnightblue" stroke="midnightblue" points="695.146,-703.687 704.993,-699.776 694.857,-696.693 695.146,-703.687"/>
</g>
<!-- Node71&#45;&gt;Node58 -->
<g id="edge19" class="edge"><title>Node71&#45;&gt;Node58</title>
<path fill="none" stroke="midnightblue" d="M767.835,-687.856C778.306,-670.369 800.714,-632.121 817,-598.5 856.732,-516.475 896.061,-415.582 913.354,-369.958"/>
<polygon fill="midnightblue" stroke="midnightblue" points="916.634,-371.178 916.889,-360.587 910.084,-368.707 916.634,-371.178"/>
</g>
<!-- Node71&#45;&gt;Node63 -->
<g id="edge20" class="edge"><title>Node71&#45;&gt;Node63</title>
<path fill="none" stroke="midnightblue" d="M788.968,-687.894C798.21,-684.049 808.387,-679.174 817,-673.5 853.108,-649.712 888.36,-613.149 907.58,-591.75"/>
<polygon fill="midnightblue" stroke="midnightblue" points="910.348,-593.904 914.351,-584.095 905.104,-589.266 910.348,-593.904"/>
</g>
<!-- Node72 -->
<g id="node20" class="node"><title>Node72</title>
<g id="a_node20"><a xlink:href="namespacevili_1_1_types.html#ac195a27b2ff3164cfb8aeba0222fad03" target="_top" xlink:title="vili::Types::dataTypeToString">
<polygon fill="white" stroke="black" points="853,-688 853,-707 994,-707 994,-688 853,-688"/>
<text text-anchor="middle" x="923.5" y="-695" font-family="Helvetica,sans-Serif" font-size="10.00">vili::Types::dataTypeToString</text>
</a>
</g>
</g>
<!-- Node71&#45;&gt;Node72 -->
<g id="edge21" class="edge"><title>Node71&#45;&gt;Node72</title>
<path fill="none" stroke="midnightblue" d="M817.235,-697.5C825.512,-697.5 834.184,-697.5 842.846,-697.5"/>
<polygon fill="midnightblue" stroke="midnightblue" points="842.987,-701 852.987,-697.5 842.987,-694 842.987,-701"/>
</g>
<!-- Node74 -->
<g id="node22" class="node"><title>Node74</title>
<g id="a_node22"><a xlink:href="classvili_1_1_base_attribute.html#a020cdacac377615d95728677256ecc4d" target="_top" xlink:title="vili::BaseAttribute\l::returnData">
<polygon fill="white" stroke="black" points="715,-767.5 715,-797.5 807,-797.5 807,-767.5 715,-767.5"/>
<text text-anchor="start" x="723" y="-785.5" font-family="Helvetica,sans-Serif" font-size="10.00">vili::BaseAttribute</text>
<text text-anchor="middle" x="761" y="-774.5" font-family="Helvetica,sans-Serif" font-size="10.00">::returnData</text>
</a>
</g>
</g>
<!-- Node73&#45;&gt;Node74 -->
<g id="edge23" class="edge"><title>Node73&#45;&gt;Node74</title>
<path fill="none" stroke="midnightblue" d="M660.084,-782.5C674.269,-782.5 690.096,-782.5 704.895,-782.5"/>
<polygon fill="midnightblue" stroke="midnightblue" points="704.944,-786 714.944,-782.5 704.944,-779 704.944,-786"/>
</g>
<!-- Node75&#45;&gt;Node70 -->
<g id="edge50" class="edge"><title>Node75&#45;&gt;Node70</title>
<path fill="none" stroke="midnightblue" d="M231.197,-248.292C295.101,-258.466 418.539,-278.602 523,-298.5 586.633,-310.621 659.499,-326.259 707.446,-336.792"/>
<polygon fill="midnightblue" stroke="midnightblue" points="706.769,-340.227 717.287,-338.96 708.274,-333.391 706.769,-340.227"/>
</g>
<!-- Node76 -->
<g id="node24" class="node"><title>Node76</title>
<g id="a_node24"><a xlink:href="classvili_1_1_complex_attribute.html#a8f1ac32c86502ab3b6c38d82ff09174c" target="_top" xlink:title="vili::ComplexAttribute\l::deleteLinkAttribute">
<polygon fill="white" stroke="black" points="267,-82.5 267,-112.5 375,-112.5 375,-82.5 267,-82.5"/>
<text text-anchor="start" x="275" y="-100.5" font-family="Helvetica,sans-Serif" font-size="10.00">vili::ComplexAttribute</text>
<text text-anchor="middle" x="321" y="-89.5" font-family="Helvetica,sans-Serif" font-size="10.00">::deleteLinkAttribute</text>
</a>
</g>
</g>
<!-- Node75&#45;&gt;Node76 -->
<g id="edge25" class="edge"><title>Node75&#45;&gt;Node76</title>
<path fill="none" stroke="midnightblue" d="M200.888,-226.304C216.324,-208.225 243.095,-177.251 267,-151.5 276.732,-141.017 287.773,-129.682 297.25,-120.116"/>
<polygon fill="midnightblue" stroke="midnightblue" points="299.885,-122.43 304.46,-112.874 294.924,-117.492 299.885,-122.43"/>
</g>
<!-- Node80 -->
<g id="node28" class="node"><title>Node80</title>
<g id="a_node28"><a xlink:href="classvili_1_1_link_attribute.html#a9394a299c1f4ac3aca74adbbfab8be86" target="_top" xlink:title="vili::LinkAttribute\l::getTarget">
<polygon fill="white" stroke="black" points="277,-458.5 277,-488.5 365,-488.5 365,-458.5 277,-458.5"/>
<text text-anchor="start" x="285" y="-476.5" font-family="Helvetica,sans-Serif" font-size="10.00">vili::LinkAttribute</text>
<text text-anchor="middle" x="321" y="-465.5" font-family="Helvetica,sans-Serif" font-size="10.00">::getTarget</text>
</a>
</g>
</g>
<!-- Node75&#45;&gt;Node80 -->
<g id="edge30" class="edge"><title>Node75&#45;&gt;Node80</title>
<path fill="none" stroke="midnightblue" d="M196.661,-256.722C219.084,-296.132 279.172,-401.742 306.335,-449.482"/>
<polygon fill="midnightblue" stroke="midnightblue" points="303.32,-451.261 311.307,-458.222 309.404,-447.799 303.32,-451.261"/>
</g>
<!-- Node75&#45;&gt;Node87 -->
<g id="edge51" class="edge"><title>Node75&#45;&gt;Node87</title>
<path fill="none" stroke="midnightblue" d="M231.326,-230.091C276.071,-218.618 348.042,-201.02 411,-189.5 461.212,-180.312 518.985,-172.905 559.85,-168.189"/>
<polygon fill="midnightblue" stroke="midnightblue" points="560.32,-171.658 569.859,-167.049 559.528,-164.703 560.32,-171.658"/>
</g>
<!-- Node77 -->
<g id="node25" class="node"><title>Node77</title>
<g id="a_node25"><a xlink:href="namespacevili_1_1_functions_1_1_vector.html#aa9f0dd6b1c4be1e3d86846944329d9f2" target="_top" xlink:title="Check if a given item is in the given std::vector. ">
<polygon fill="white" stroke="black" points="412,-106.5 412,-136.5 522,-136.5 522,-106.5 412,-106.5"/>
<text text-anchor="start" x="420" y="-124.5" font-family="Helvetica,sans-Serif" font-size="10.00">vili::Functions::Vector</text>
<text text-anchor="middle" x="467" y="-113.5" font-family="Helvetica,sans-Serif" font-size="10.00">::isInList</text>
</a>
</g>
</g>
<!-- Node76&#45;&gt;Node77 -->
<g id="edge26" class="edge"><title>Node76&#45;&gt;Node77</title>
<path fill="none" stroke="midnightblue" d="M375.211,-106.369C383.826,-107.804 392.827,-109.305 401.672,-110.779"/>
<polygon fill="midnightblue" stroke="midnightblue" points="401.124,-114.235 411.563,-112.427 402.274,-107.331 401.124,-114.235"/>
</g>
<!-- Node78 -->
<g id="node26" class="node"><title>Node78</title>
<g id="a_node26"><a xlink:href="classvili_1_1_complex_attribute.html#a6225afe489577c1e02e21c6a31387a1a" target="_top" xlink:title="vili::ComplexAttribute\l::getAll">
<polygon fill="white" stroke="black" points="413,-57.5 413,-87.5 521,-87.5 521,-57.5 413,-57.5"/>
<text text-anchor="start" x="421" y="-75.5" font-family="Helvetica,sans-Serif" font-size="10.00">vili::ComplexAttribute</text>
<text text-anchor="middle" x="467" y="-64.5" font-family="Helvetica,sans-Serif" font-size="10.00">::getAll</text>
</a>
</g>
</g>
<!-- Node76&#45;&gt;Node78 -->
<g id="edge27" class="edge"><title>Node76&#45;&gt;Node78</title>
<path fill="none" stroke="midnightblue" d="M375.211,-88.262C384.059,-86.7258 393.314,-85.1191 402.389,-83.5436"/>
<polygon fill="midnightblue" stroke="midnightblue" points="403.273,-86.9426 412.527,-81.7835 402.075,-80.0457 403.273,-86.9426"/>
</g>
<!-- Node79 -->
<g id="node27" class="node"><title>Node79</title>
<g id="a_node27"><a xlink:href="namespacevili_1_1_functions_1_1_vector.html#a9f11b4d9b535b580a613a064d18b9caa" target="_top" xlink:title="Get the index of an item in a std::vector. ">
<polygon fill="white" stroke="black" points="559,-0.5 559,-30.5 669,-30.5 669,-0.5 559,-0.5"/>
<text text-anchor="start" x="567" y="-18.5" font-family="Helvetica,sans-Serif" font-size="10.00">vili::Functions::Vector</text>
<text text-anchor="middle" x="614" y="-7.5" font-family="Helvetica,sans-Serif" font-size="10.00">::indexOfElement</text>
</a>
</g>
</g>
<!-- Node76&#45;&gt;Node79 -->
<g id="edge28" class="edge"><title>Node76&#45;&gt;Node79</title>
<path fill="none" stroke="midnightblue" d="M343.637,-82.4437C361.048,-71.0627 386.559,-55.9944 411,-47.5 455.523,-32.0264 508.188,-23.9959 548.579,-19.8499"/>
<polygon fill="midnightblue" stroke="midnightblue" points="548.958,-23.3298 558.571,-18.8774 548.279,-16.3627 548.958,-23.3298"/>
</g>
<!-- Node79&#45;&gt;Node58 -->
<g id="edge29" class="edge"><title>Node79&#45;&gt;Node58</title>
<path fill="none" stroke="midnightblue" d="M655.289,-30.5111C699.723,-48.7857 771.003,-83.406 817,-132.5 870.174,-189.253 902.233,-277.882 915.448,-320.697"/>
<polygon fill="midnightblue" stroke="midnightblue" points="912.107,-321.738 918.334,-330.309 918.811,-319.725 912.107,-321.738"/>
</g>
<!-- Node80&#45;&gt;Node56 -->
<g id="edge31" class="edge"><title>Node80&#45;&gt;Node56</title>
<path fill="none" stroke="midnightblue" d="M325.327,-488.68C333.836,-524.397 359.442,-614.922 411,-670.5 414.122,-673.865 417.709,-676.936 421.524,-679.719"/>
<polygon fill="midnightblue" stroke="midnightblue" points="419.858,-682.811 430.144,-685.351 423.687,-676.951 419.858,-682.811"/>
</g>
<!-- Node80&#45;&gt;Node57 -->
<g id="edge32" class="edge"><title>Node80&#45;&gt;Node57</title>
<path fill="none" stroke="midnightblue" d="M328.123,-488.571C339.805,-515.152 368.004,-569.877 411,-594.5 452.833,-618.458 507.602,-622.815 549.555,-621.674"/>
<polygon fill="midnightblue" stroke="midnightblue" points="549.798,-625.167 559.657,-621.287 549.531,-618.172 549.798,-625.167"/>
</g>
<!-- Node80&#45;&gt;Node58 -->
<g id="edge43" class="edge"><title>Node80&#45;&gt;Node58</title>
<path fill="none" stroke="midnightblue" d="M323.031,-458.32C326.676,-418.052 342.734,-308.463 411,-262.5 560.811,-161.634 646.939,-218.701 817,-279.5 846.015,-289.873 875.447,-309.174 895.824,-324.235"/>
<polygon fill="midnightblue" stroke="midnightblue" points="893.886,-327.157 903.975,-330.392 898.105,-321.572 893.886,-327.157"/>
</g>
<!-- Node80&#45;&gt;Node63 -->
<g id="edge44" class="edge"><title>Node80&#45;&gt;Node63</title>
<path fill="none" stroke="midnightblue" d="M326.199,-488.938C335.574,-520.142 361.387,-590.464 411,-622.5 568.324,-724.087 811.661,-626.747 894.09,-588.453"/>
<polygon fill="midnightblue" stroke="midnightblue" points="895.778,-591.527 903.328,-584.093 892.791,-585.196 895.778,-591.527"/>
</g>
<!-- Node80&#45;&gt;Node64 -->
<g id="edge34" class="edge"><title>Node80&#45;&gt;Node64</title>
<path fill="none" stroke="midnightblue" d="M342.327,-488.518C359.605,-500.307 385.585,-515.808 411,-522.5 525.94,-552.765 878.624,-540.702 1028.49,-533.915"/>
<polygon fill="midnightblue" stroke="midnightblue" points="1029.09,-537.391 1038.92,-533.436 1028.77,-530.398 1029.09,-537.391"/>
</g>
<!-- Node80&#45;&gt;Node68 -->
<g id="edge33" class="edge"><title>Node80&#45;&gt;Node68</title>
<path fill="none" stroke="midnightblue" d="M325.037,-488.598C333.666,-529.152 360.992,-642.899 411,-724.5 420.662,-740.266 435.167,-755.333 446.855,-766.158"/>
<polygon fill="midnightblue" stroke="midnightblue" points="444.623,-768.857 454.403,-772.93 449.297,-763.647 444.623,-768.857"/>
</g>
<!-- Node80&#45;&gt;Node70 -->
<g id="edge36" class="edge"><title>Node80&#45;&gt;Node70</title>
<path fill="none" stroke="midnightblue" d="M336.876,-458.359C353.427,-442.484 381.717,-418.129 411,-405.5 504.493,-365.18 623.32,-353.179 695.419,-349.727"/>
<polygon fill="midnightblue" stroke="midnightblue" points="695.872,-353.211 705.709,-349.277 695.566,-346.217 695.872,-353.211"/>
</g>
<!-- Node81 -->
<g id="node29" class="node"><title>Node81</title>
<g id="a_node29"><a xlink:href="namespacevili_1_1_functions_1_1_string.html#a9133ec632cc286cede9c5403c5b593b2" target="_top" xlink:title="Splits a std::string using a delimited. ">
<polygon fill="white" stroke="black" points="413.5,-308.5 413.5,-338.5 520.5,-338.5 520.5,-308.5 413.5,-308.5"/>
<text text-anchor="start" x="421.5" y="-326.5" font-family="Helvetica,sans-Serif" font-size="10.00">vili::Functions::String</text>
<text text-anchor="middle" x="467" y="-315.5" font-family="Helvetica,sans-Serif" font-size="10.00">::split</text>
</a>
</g>
</g>
<!-- Node80&#45;&gt;Node81 -->
<g id="edge35" class="edge"><title>Node80&#45;&gt;Node81</title>
<path fill="none" stroke="midnightblue" d="M330.386,-458.197C344.441,-433.638 374.798,-384.996 411,-353.5 414.95,-350.063 419.36,-346.858 423.916,-343.919"/>
<polygon fill="midnightblue" stroke="midnightblue" points="426.002,-346.749 432.777,-338.604 422.401,-340.746 426.002,-346.749"/>
</g>
<!-- Node82 -->
<g id="node30" class="node"><title>Node82</title>
<g id="a_node30"><a xlink:href="classvili_1_1_complex_attribute.html#a593e840a2edb136819e66e62994ebfed" target="_top" xlink:title="vili::ComplexAttribute\l::getComplexAttribute">
<polygon fill="white" stroke="black" points="705.5,-559.5 705.5,-589.5 816.5,-589.5 816.5,-559.5 705.5,-559.5"/>
<text text-anchor="start" x="713.5" y="-577.5" font-family="Helvetica,sans-Serif" font-size="10.00">vili::ComplexAttribute</text>
<text text-anchor="middle" x="761" y="-566.5" font-family="Helvetica,sans-Serif" font-size="10.00">::getComplexAttribute</text>
</a>
</g>
</g>
<!-- Node80&#45;&gt;Node82 -->
<g id="edge37" class="edge"><title>Node80&#45;&gt;Node82</title>
<path fill="none" stroke="midnightblue" d="M332.868,-488.835C347.869,-508.58 376.96,-542.067 411,-556.5 503.636,-595.778 622.716,-591.72 695.1,-583.99"/>
<polygon fill="midnightblue" stroke="midnightblue" points="695.886,-587.423 705.432,-582.827 695.104,-580.467 695.886,-587.423"/>
</g>
<!-- Node83 -->
<g id="node31" class="node"><title>Node83</title>
<g id="a_node31"><a xlink:href="classvili_1_1_complex_attribute.html#ae3a592ac76f931c89a565b299f3841d2" target="_top" xlink:title="vili::ComplexAttribute\l::getListAttribute">
<polygon fill="white" stroke="black" points="707,-289.5 707,-319.5 815,-319.5 815,-289.5 707,-289.5"/>
<text text-anchor="start" x="715" y="-307.5" font-family="Helvetica,sans-Serif" font-size="10.00">vili::ComplexAttribute</text>
<text text-anchor="middle" x="761" y="-296.5" font-family="Helvetica,sans-Serif" font-size="10.00">::getListAttribute</text>
</a>
</g>
</g>
<!-- Node80&#45;&gt;Node83 -->
<g id="edge40" class="edge"><title>Node80&#45;&gt;Node83</title>
<path fill="none" stroke="midnightblue" d="M324.327,-458.494C330.72,-423.082 352.162,-334.587 411,-298.5 501.656,-242.898 632.03,-266.35 705.063,-286.598"/>
<polygon fill="midnightblue" stroke="midnightblue" points="704.401,-290.048 714.977,-289.425 706.32,-283.317 704.401,-290.048"/>
</g>
<!-- Node84 -->
<g id="node32" class="node"><title>Node84</title>
<g id="a_node32"><a xlink:href="namespacevili_1_1_functions_1_1_string.html#a47cfebfa3355133cfbf43f9f2e435bf4" target="_top" xlink:title="Get if the string is an integer. ">
<polygon fill="white" stroke="black" points="413.5,-483.5 413.5,-513.5 520.5,-513.5 520.5,-483.5 413.5,-483.5"/>
<text text-anchor="start" x="421.5" y="-501.5" font-family="Helvetica,sans-Serif" font-size="10.00">vili::Functions::String</text>
<text text-anchor="middle" x="467" y="-490.5" font-family="Helvetica,sans-Serif" font-size="10.00">::isStringInt</text>
</a>
</g>
</g>
<!-- Node80&#45;&gt;Node84 -->
<g id="edge45" class="edge"><title>Node80&#45;&gt;Node84</title>
<path fill="none" stroke="midnightblue" d="M365.205,-481.001C377.167,-483.078 390.4,-485.375 403.234,-487.603"/>
<polygon fill="midnightblue" stroke="midnightblue" points="402.958,-491.108 413.409,-489.37 404.156,-484.211 402.958,-491.108"/>
</g>
<!-- Node85 -->
<g id="node33" class="node"><title>Node85</title>
<g id="a_node33"><a xlink:href="classvili_1_1_list_attribute.html#aa36c767c486107aef798de216e00c763" target="_top" xlink:title="vili::ListAttribute\l::size">
<polygon fill="white" stroke="black" points="424,-434.5 424,-464.5 510,-464.5 510,-434.5 424,-434.5"/>
<text text-anchor="start" x="432" y="-452.5" font-family="Helvetica,sans-Serif" font-size="10.00">vili::ListAttribute</text>
<text text-anchor="middle" x="467" y="-441.5" font-family="Helvetica,sans-Serif" font-size="10.00">::size</text>
</a>
</g>
</g>
<!-- Node80&#45;&gt;Node85 -->
<g id="edge46" class="edge"><title>Node80&#45;&gt;Node85</title>
<path fill="none" stroke="midnightblue" d="M365.205,-466.299C380.427,-463.762 397.706,-460.882 413.604,-458.233"/>
<polygon fill="midnightblue" stroke="midnightblue" points="414.528,-461.627 423.817,-456.531 413.377,-454.722 414.528,-461.627"/>
</g>
<!-- Node86 -->
<g id="node34" class="node"><title>Node86</title>
<g id="a_node34"><a xlink:href="classvili_1_1_list_attribute.html#ad541b2709368be3dc486f4075345f526" target="_top" xlink:title="vili::ListAttribute::get">
<polygon fill="white" stroke="black" points="708.5,-415 708.5,-434 813.5,-434 813.5,-415 708.5,-415"/>
<text text-anchor="middle" x="761" y="-422" font-family="Helvetica,sans-Serif" font-size="10.00">vili::ListAttribute::get</text>
</a>
</g>
</g>
<!-- Node80&#45;&gt;Node86 -->
<g id="edge47" class="edge"><title>Node80&#45;&gt;Node86</title>
<path fill="none" stroke="midnightblue" d="M342.307,-458.405C359.573,-446.569 385.546,-431.044 411,-424.5 509.02,-399.3 627.708,-406.985 698.363,-415.37"/>
<polygon fill="midnightblue" stroke="midnightblue" points="698.078,-418.861 708.43,-416.608 698.932,-411.914 698.078,-418.861"/>
</g>
<!-- Node82&#45;&gt;Node58 -->
<g id="edge38" class="edge"><title>Node82&#45;&gt;Node58</title>
<path fill="none" stroke="midnightblue" d="M772.531,-559.475C799.852,-520.494 873.162,-415.895 906.09,-368.913"/>
<polygon fill="midnightblue" stroke="midnightblue" points="909.057,-370.778 911.93,-360.581 903.325,-366.761 909.057,-370.778"/>
</g>
<!-- Node82&#45;&gt;Node63 -->
<g id="edge39" class="edge"><title>Node82&#45;&gt;Node63</title>
<path fill="none" stroke="midnightblue" d="M816.786,-574.5C826.594,-574.5 836.968,-574.5 847.232,-574.5"/>
<polygon fill="midnightblue" stroke="midnightblue" points="847.435,-578 857.435,-574.5 847.435,-571 847.435,-578"/>
</g>
<!-- Node83&#45;&gt;Node58 -->
<g id="edge41" class="edge"><title>Node83&#45;&gt;Node58</title>
<path fill="none" stroke="midnightblue" d="M815.444,-318.152C831.227,-322.184 848.573,-326.615 864.622,-330.715"/>
<polygon fill="midnightblue" stroke="midnightblue" points="863.866,-334.134 874.421,-333.218 865.599,-327.352 863.866,-334.134"/>
</g>
<!-- Node83&#45;&gt;Node63 -->
<g id="edge42" class="edge"><title>Node83&#45;&gt;Node63</title>
<path fill="none" stroke="midnightblue" d="M804.118,-319.57C808.82,-322.39 813.256,-325.68 817,-329.5 882.149,-395.966 910.027,-509.064 919.002,-554.617"/>
<polygon fill="midnightblue" stroke="midnightblue" points="915.605,-555.49 920.888,-564.674 922.485,-554.2 915.605,-555.49"/>
</g>
<!-- Node86&#45;&gt;Node58 -->
<g id="edge48" class="edge"><title>Node86&#45;&gt;Node58</title>
<path fill="none" stroke="midnightblue" d="M784.905,-414.925C794.841,-410.663 806.567,-405.488 817,-400.5 840.27,-389.373 865.941,-376.015 886.134,-365.25"/>
<polygon fill="midnightblue" stroke="midnightblue" points="887.834,-368.309 894.998,-360.503 884.53,-362.138 887.834,-368.309"/>
</g>
<!-- Node86&#45;&gt;Node63 -->
<g id="edge49" class="edge"><title>Node86&#45;&gt;Node63</title>
<path fill="none" stroke="midnightblue" d="M772.531,-434.342C799.405,-459.458 870.776,-526.16 904.442,-557.624"/>
<polygon fill="midnightblue" stroke="midnightblue" points="902.443,-560.546 912.139,-564.817 907.223,-555.432 902.443,-560.546"/>
</g>
<!-- Node87&#45;&gt;Node58 -->
<g id="edge53" class="edge"><title>Node87&#45;&gt;Node58</title>
<path fill="none" stroke="midnightblue" d="M658.105,-148.039C701.403,-136.287 768.485,-125.874 817,-154.5 878.658,-190.881 906.776,-277.637 917.272,-320.565"/>
<polygon fill="midnightblue" stroke="midnightblue" points="913.902,-321.527 919.57,-330.478 920.721,-319.946 913.902,-321.527"/>
</g>
<!-- Node87&#45;&gt;Node63 -->
<g id="edge54" class="edge"><title>Node87&#45;&gt;Node63</title>
<path fill="none" stroke="midnightblue" d="M658.03,-177.186C703.52,-194.781 774.456,-228.436 817,-279.5 826.359,-290.734 894.447,-491.281 915.986,-555.14"/>
<polygon fill="midnightblue" stroke="midnightblue" points="912.727,-556.428 919.237,-564.787 919.36,-554.193 912.727,-556.428"/>
</g>
<!-- Node87&#45;&gt;Node70 -->
<g id="edge52" class="edge"><title>Node87&#45;&gt;Node70</title>
<path fill="none" stroke="midnightblue" d="M619.195,-177.676C628.883,-209.995 655.833,-286.122 705,-328.5 707.501,-330.656 710.254,-332.587 713.154,-334.315"/>
<polygon fill="midnightblue" stroke="midnightblue" points="711.691,-337.498 722.191,-338.914 714.866,-331.259 711.691,-337.498"/>
</g>
<!-- Node88&#45;&gt;Node55 -->
<g id="edge56" class="edge"><title>Node88&#45;&gt;Node55</title>
<path fill="none" stroke="midnightblue" d="M224.769,-661.542C239.805,-667.693 257.376,-674.881 273.303,-681.397"/>
<polygon fill="midnightblue" stroke="midnightblue" points="272.389,-684.804 282.97,-685.351 275.04,-678.326 272.389,-684.804"/>
</g>
<!-- Node89&#45;&gt;Node54 -->
<g id="edge59" class="edge"><title>Node89&#45;&gt;Node54</title>
<path fill="none" stroke="midnightblue" d="M231.222,-742.686C242.504,-744.823 254.798,-747.151 266.542,-749.375"/>
<polygon fill="midnightblue" stroke="midnightblue" points="266.204,-752.874 276.681,-751.296 267.507,-745.996 266.204,-752.874"/>
</g>
</g>
</svg>
        <g id="navigator" transform="translate(0 0)" fill="#404254">
                <rect fill="#f2f5e9" fill-opacity="0.5" stroke="#606060" stroke-width=".5" x="0" y="0" width="60" height="60"/>
                <use id="zoomplus" xlink:href="#zoomPlus" x="17" y="9" onmousedown="handleZoom(evt,'in')"/>
                <use id="zoomminus" xlink:href="#zoomMin" x="42" y="9" onmousedown="handleZoom(evt,'out')"/>
                <use id="reset" xlink:href="#resetDef" x="30" y="36" onmousedown="handleReset()"/>
                <g id="arrowUp" xlink:href="#dirArrow" transform="translate(30 24)" onmousedown="handlePan(0,-1)">
                  <use xlink:href="#rim" fill="#404040">
                        <set attributeName="fill" to="#808080" begin="arrowUp.mouseover" end="arrowUp.mouseout"/>
                  </use>
                  <path fill="none" stroke="white" stroke-width="1.5" d="M0,-3.0v7 M-2.5,-0.5L0,-3.0L2.5,-0.5"/>
                </g>
                <g id="arrowRight" xlink:href="#dirArrow" transform="rotate(90) translate(36 -43)" onmousedown="handlePan(1,0)">
                  <use xlink:href="#rim" fill="#404040">
                        <set attributeName="fill" to="#808080" begin="arrowRight.mouseover" end="arrowRight.mouseout"/>
                  </use>
                  <path fill="none" stroke="white" stroke-width="1.5" d="M0,-3.0v7 M-2.5,-0.5L0,-3.0L2.5,-0.5"/>
                </g>
                <g id="arrowDown" xlink:href="#dirArrow" transform="rotate(180) translate(-30 -48)" onmousedown="handlePan(0,1)">
                  <use xlink:href="#rim" fill="#404040">
                        <set attributeName="fill" to="#808080" begin="arrowDown.mouseover" end="arrowDown.mouseout"/>
                  </use>
                  <path fill="none" stroke="white" stroke-width="1.5" d="M0,-3.0v7 M-2.5,-0.5L0,-3.0L2.5,-0.5"/>
                </g>
                <g id="arrowLeft" xlink:href="#dirArrow" transform="rotate(270) translate(-36 17)" onmousedown="handlePan(-1,0)">
                  <use xlink:href="#rim" fill="#404040">
                        <set attributeName="fill" to="#808080" begin="arrowLeft.mouseover" end="arrowLeft.mouseout"/>
                  </use>
                  <path fill="none" stroke="white" stroke-width="1.5" d="M0,-3.0v7 M-2.5,-0.5L0,-3.0L2.5,-0.5"/>
                </g>
        </g>
        <svg viewBox="0 0 15 15" width="100%" height="30px" preserveAspectRatio="xMaxYMin meet">
         <g id="arrow_out" transform="scale(0.3 0.3)">
          <a xlink:href="classvili_1_1_link_attribute_a85cc15907c4a7a7442f12050bc4af479_cgraph_org.svg" target="_base">
           <rect id="button" ry="5" rx="5" y="6" x="6" height="38" width="38"
                fill="#f2f5e9" fill-opacity="0.5" stroke="#606060" stroke-width="1.0"/>
           <path id="arrow"
             d="M 11.500037,31.436501 C 11.940474,20.09759 22.043105,11.32322 32.158766,21.979434 L 37.068811,17.246167 C 37.068811,17.246167 37.088388,32 37.088388,32 L 22.160133,31.978069 C 22.160133,31.978069 26.997745,27.140456 26.997745,27.140456 C 18.528582,18.264221 13.291696,25.230495 11.500037,31.436501 z"
             style="fill:#404040;"/>
          </a>
         </g>
        </svg>
</svg>
