<?xml version="1.0" encoding="UTF-8" standalone="no"?>
<!DOCTYPE svg PUBLIC "-//W3C//DTD SVG 1.1//EN"
 "http://www.w3.org/Graphics/SVG/1.1/DTD/svg11.dtd">
<!-- Generated by graphviz version 2.38.0 (20140413.2041)
 -->
<!-- Title: obe::Bindings::BindingTree::walkTo Pages: 1 -->
<svg width="738pt" height="815pt"
 viewBox="0.00 0.00 738.00 814.97" xmlns="http://www.w3.org/2000/svg" xmlns:xlink="http://www.w3.org/1999/xlink">
<g id="graph0" class="graph" transform="scale(1 1) rotate(0) translate(4 810.972)">
<title>obe::Bindings::BindingTree::walkTo</title>
<!-- Node87 -->
<g id="node1" class="node"><title>Node87</title>
<polygon fill="#bfbfbf" stroke="black" points="0,-384.472 0,-414.472 133,-414.472 133,-384.472 0,-384.472"/>
<text text-anchor="start" x="8" y="-402.472" font-family="Helvetica,sans-Serif" font-size="10.00">obe::Bindings::BindingTree</text>
<text text-anchor="middle" x="66.5" y="-391.472" font-family="Helvetica,sans-Serif" font-size="10.00">::walkTo</text>
</g>
<!-- Node87&#45;&gt;Node87 -->
<g id="edge37" class="edge"><title>Node87&#45;&gt;Node87</title>
<path fill="none" stroke="midnightblue" d="M39.1361,-424.93C42.5323,-429.651 51.6536,-432.972 66.5,-432.972 90.8633,-432.972 99.8092,-424.028 93.3377,-414.631"/>
<polygon fill="midnightblue" stroke="midnightblue" points="42.6473,-424.796 39.6623,-414.631 35.6565,-424.439 42.6473,-424.796"/>
</g>
<!-- Node88 -->
<g id="node2" class="node"><title>Node88</title>
<g id="a_node2"><a xlink:href="namespaceobe_1_1_bindings.html#ad571e5338f682c5657773d5b96de5a40" target="_top" xlink:title="Loads a Library in the Lua VM. ">
<polygon fill="white" stroke="black" points="169,-389.972 169,-408.972 272,-408.972 272,-389.972 169,-389.972"/>
<text text-anchor="middle" x="220.5" y="-396.972" font-family="Helvetica,sans-Serif" font-size="10.00">obe::Bindings::Load</text>
</a>
</g>
</g>
<!-- Node87&#45;&gt;Node88 -->
<g id="edge1" class="edge"><title>Node87&#45;&gt;Node88</title>
<path fill="none" stroke="midnightblue" d="M143.359,-399.472C151.963,-399.472 160.57,-399.472 168.738,-399.472"/>
<polygon fill="midnightblue" stroke="midnightblue" points="143.285,-395.972 133.285,-399.472 143.285,-402.972 143.285,-395.972"/>
</g>
<!-- Node89 -->
<g id="node3" class="node"><title>Node89</title>
<g id="a_node3"><a xlink:href="namespaceobe_1_1_bindings_1_1_collision_bindings.html#a48f290ff49a763532bdf5bc65070d2d2" target="_top" xlink:title="obe::Bindings::Collision\lBindings::LoadPolygonalCollider">
<polygon fill="white" stroke="black" points="314.5,-776.472 314.5,-806.472 470.5,-806.472 470.5,-776.472 314.5,-776.472"/>
<text text-anchor="start" x="322.5" y="-794.472" font-family="Helvetica,sans-Serif" font-size="10.00">obe::Bindings::Collision</text>
<text text-anchor="middle" x="392.5" y="-783.472" font-family="Helvetica,sans-Serif" font-size="10.00">Bindings::LoadPolygonalCollider</text>
</a>
</g>
</g>
<!-- Node88&#45;&gt;Node89 -->
<g id="edge2" class="edge"><title>Node88&#45;&gt;Node89</title>
<path fill="none" stroke="midnightblue" d="M223.546,-419.399C231.022,-488.445 259.015,-716.025 308,-767.472 311.224,-770.858 314.892,-773.776 318.849,-776.29"/>
<polygon fill="midnightblue" stroke="midnightblue" points="226.986,-418.649 222.454,-409.073 220.025,-419.385 226.986,-418.649"/>
</g>
<!-- Node92 -->
<g id="node6" class="node"><title>Node92</title>
<g id="a_node6"><a xlink:href="namespaceobe_1_1_bindings_1_1_debug_bindings.html#a19f27507c4824eb9d0532cbd007e86be" target="_top" xlink:title="obe::Bindings::DebugBindings\l::LoadConsoleStream">
<polygon fill="white" stroke="black" points="319,-727.472 319,-757.472 466,-757.472 466,-727.472 319,-727.472"/>
<text text-anchor="start" x="327" y="-745.472" font-family="Helvetica,sans-Serif" font-size="10.00">obe::Bindings::DebugBindings</text>
<text text-anchor="middle" x="392.5" y="-734.472" font-family="Helvetica,sans-Serif" font-size="10.00">::LoadConsoleStream</text>
</a>
</g>
</g>
<!-- Node88&#45;&gt;Node92 -->
<g id="edge5" class="edge"><title>Node88&#45;&gt;Node92</title>
<path fill="none" stroke="midnightblue" d="M220.66,-419.414C219.458,-474.998 223.978,-633.172 308,-718.472 311.387,-721.91 315.232,-724.864 319.368,-727.401"/>
<polygon fill="midnightblue" stroke="midnightblue" points="224.166,-419.276 220.977,-409.173 217.169,-419.06 224.166,-419.276"/>
</g>
<!-- Node93 -->
<g id="node7" class="node"><title>Node93</title>
<g id="a_node7"><a xlink:href="namespaceobe_1_1_bindings_1_1_editor_bindings.html#acd9ed61c6eb605b4227e6d8071610311" target="_top" xlink:title="obe::Bindings::EditorBindings\l::LoadEditorGrid">
<polygon fill="white" stroke="black" points="320,-678.472 320,-708.472 465,-708.472 465,-678.472 320,-678.472"/>
<text text-anchor="start" x="328" y="-696.472" font-family="Helvetica,sans-Serif" font-size="10.00">obe::Bindings::EditorBindings</text>
<text text-anchor="middle" x="392.5" y="-685.472" font-family="Helvetica,sans-Serif" font-size="10.00">::LoadEditorGrid</text>
</a>
</g>
</g>
<!-- Node88&#45;&gt;Node93 -->
<g id="edge7" class="edge"><title>Node88&#45;&gt;Node93</title>
<path fill="none" stroke="midnightblue" d="M221.82,-419.275C223.725,-468.851 235.724,-599.343 308,-669.472 311.572,-672.938 315.611,-675.909 319.937,-678.456"/>
<polygon fill="midnightblue" stroke="midnightblue" points="225.31,-418.882 221.531,-408.985 218.313,-419.079 225.31,-418.882"/>
</g>
<!-- Node94 -->
<g id="node8" class="node"><title>Node94</title>
<g id="a_node8"><a xlink:href="namespaceobe_1_1_bindings_1_1_graphics_bindings.html#a93b97087ade5cb2fd2956ea6a4bc10d3" target="_top" xlink:title="obe::Bindings::GraphicsBindings\l::LoadLevelSprite">
<polygon fill="white" stroke="black" points="313.5,-629.472 313.5,-659.472 471.5,-659.472 471.5,-629.472 313.5,-629.472"/>
<text text-anchor="start" x="321.5" y="-647.472" font-family="Helvetica,sans-Serif" font-size="10.00">obe::Bindings::GraphicsBindings</text>
<text text-anchor="middle" x="392.5" y="-636.472" font-family="Helvetica,sans-Serif" font-size="10.00">::LoadLevelSprite</text>
</a>
</g>
</g>
<!-- Node88&#45;&gt;Node94 -->
<g id="edge9" class="edge"><title>Node88&#45;&gt;Node94</title>
<path fill="none" stroke="midnightblue" d="M223.424,-419.121C228.701,-462.136 247.324,-565.202 308,-620.472 311.791,-623.925 316.048,-626.885 320.581,-629.42"/>
<polygon fill="midnightblue" stroke="midnightblue" points="226.894,-418.655 222.309,-409.104 219.937,-419.43 226.894,-418.655"/>
</g>
<!-- Node95 -->
<g id="node9" class="node"><title>Node95</title>
<g id="a_node9"><a xlink:href="namespaceobe_1_1_bindings_1_1_input_bindings.html#a3898ecb1ad8534de564c8153802dc789" target="_top" xlink:title="obe::Bindings::InputBindings\l::LoadInputAction">
<polygon fill="white" stroke="black" points="322.5,-580.472 322.5,-610.472 462.5,-610.472 462.5,-580.472 322.5,-580.472"/>
<text text-anchor="start" x="330.5" y="-598.472" font-family="Helvetica,sans-Serif" font-size="10.00">obe::Bindings::InputBindings</text>
<text text-anchor="middle" x="392.5" y="-587.472" font-family="Helvetica,sans-Serif" font-size="10.00">::LoadInputAction</text>
</a>
</g>
</g>
<!-- Node88&#45;&gt;Node95 -->
<g id="edge11" class="edge"><title>Node88&#45;&gt;Node95</title>
<path fill="none" stroke="midnightblue" d="M225.98,-419.566C235.047,-455.512 259.014,-530.848 308,-571.472 312.296,-575.034 317.094,-578.068 322.16,-580.652"/>
<polygon fill="midnightblue" stroke="midnightblue" points="229.273,-418.288 223.546,-409.374 222.464,-419.913 229.273,-418.288"/>
</g>
<!-- Node96 -->
<g id="node10" class="node"><title>Node96</title>
<g id="a_node10"><a xlink:href="namespaceobe_1_1_bindings_1_1_script_bindings.html#a04868f6a764f6509ebe9359f40603aad" target="_top" xlink:title="obe::Bindings::ScriptBindings\l::LoadGameObject">
<polygon fill="white" stroke="black" points="320,-531.472 320,-561.472 465,-561.472 465,-531.472 320,-531.472"/>
<text text-anchor="start" x="328" y="-549.472" font-family="Helvetica,sans-Serif" font-size="10.00">obe::Bindings::ScriptBindings</text>
<text text-anchor="middle" x="392.5" y="-538.472" font-family="Helvetica,sans-Serif" font-size="10.00">::LoadGameObject</text>
</a>
</g>
</g>
<!-- Node88&#45;&gt;Node96 -->
<g id="edge13" class="edge"><title>Node88&#45;&gt;Node96</title>
<path fill="none" stroke="midnightblue" d="M229.723,-418.347C242.509,-445.474 269.724,-495.211 308,-522.472 312.791,-525.884 318.061,-528.814 323.552,-531.329"/>
<polygon fill="midnightblue" stroke="midnightblue" points="232.866,-416.803 225.537,-409.152 226.495,-419.703 232.866,-416.803"/>
</g>
<!-- Node97 -->
<g id="node11" class="node"><title>Node97</title>
<g id="a_node11"><a xlink:href="namespaceobe_1_1_bindings_1_1_s_f_m_l_bindings.html#a9a30d0a65a60512bf4e2a666e6892e0a" target="_top" xlink:title="obe::Bindings::SFMLBindings\l::LoadSfShape">
<polygon fill="white" stroke="black" points="319.5,-482.472 319.5,-512.472 465.5,-512.472 465.5,-482.472 319.5,-482.472"/>
<text text-anchor="start" x="327.5" y="-500.472" font-family="Helvetica,sans-Serif" font-size="10.00">obe::Bindings::SFMLBindings</text>
<text text-anchor="middle" x="392.5" y="-489.472" font-family="Helvetica,sans-Serif" font-size="10.00">::LoadSfShape</text>
</a>
</g>
</g>
<!-- Node88&#45;&gt;Node97 -->
<g id="edge15" class="edge"><title>Node88&#45;&gt;Node97</title>
<path fill="none" stroke="midnightblue" d="M237.17,-416.612C253.381,-433.375 280.184,-458.5 308,-473.472 314.242,-476.832 321.007,-479.767 327.892,-482.32"/>
<polygon fill="midnightblue" stroke="midnightblue" points="239.518,-414.001 230.105,-409.137 234.43,-418.809 239.518,-414.001"/>
</g>
<!-- Node98 -->
<g id="node12" class="node"><title>Node98</title>
<g id="a_node12"><a xlink:href="namespaceobe_1_1_bindings_1_1_s_f_m_l_bindings.html#a2e473bbf5a61c747247a85a6371582a8" target="_top" xlink:title="obe::Bindings::SFMLBindings\l::LoadSfSprite">
<polygon fill="white" stroke="black" points="319.5,-433.472 319.5,-463.472 465.5,-463.472 465.5,-433.472 319.5,-433.472"/>
<text text-anchor="start" x="327.5" y="-451.472" font-family="Helvetica,sans-Serif" font-size="10.00">obe::Bindings::SFMLBindings</text>
<text text-anchor="middle" x="392.5" y="-440.472" font-family="Helvetica,sans-Serif" font-size="10.00">::LoadSfSprite</text>
</a>
</g>
</g>
<!-- Node88&#45;&gt;Node98 -->
<g id="edge16" class="edge"><title>Node88&#45;&gt;Node98</title>
<path fill="none" stroke="midnightblue" d="M264.194,-411.825C278.155,-415.86 293.738,-420.361 308,-424.472 318,-427.354 328.676,-430.426 338.936,-433.376"/>
<polygon fill="midnightblue" stroke="midnightblue" points="264.935,-408.396 254.357,-408.98 262.991,-415.12 264.935,-408.396"/>
</g>
<!-- Node99 -->
<g id="node13" class="node"><title>Node99</title>
<g id="a_node13"><a xlink:href="namespaceobe_1_1_bindings_1_1_transform_bindings.html#a383561644e3b30fae710789a82b9507b" target="_top" xlink:title="obe::Bindings::Transform\lBindings::LoadProtectedUnitVector">
<polygon fill="white" stroke="black" points="308,-384.472 308,-414.472 477,-414.472 477,-384.472 308,-384.472"/>
<text text-anchor="start" x="316" y="-402.472" font-family="Helvetica,sans-Serif" font-size="10.00">obe::Bindings::Transform</text>
<text text-anchor="middle" x="392.5" y="-391.472" font-family="Helvetica,sans-Serif" font-size="10.00">Bindings::LoadProtectedUnitVector</text>
</a>
</g>
</g>
<!-- Node88&#45;&gt;Node99 -->
<g id="edge17" class="edge"><title>Node88&#45;&gt;Node99</title>
<path fill="none" stroke="midnightblue" d="M282.3,-399.472C290.557,-399.472 299.146,-399.472 307.719,-399.472"/>
<polygon fill="midnightblue" stroke="midnightblue" points="282.045,-395.972 272.045,-399.472 282.045,-402.972 282.045,-395.972"/>
</g>
<!-- Node100 -->
<g id="node14" class="node"><title>Node100</title>
<g id="a_node14"><a xlink:href="namespaceobe_1_1_bindings_1_1_vili_bindings.html#a3ca38993e9db633bf1d82a0ce00fc828" target="_top" xlink:title="obe::Bindings::ViliBindings\l::LoadViliContainerNode">
<polygon fill="white" stroke="black" points="326,-335.472 326,-365.472 459,-365.472 459,-335.472 326,-335.472"/>
<text text-anchor="start" x="334" y="-353.472" font-family="Helvetica,sans-Serif" font-size="10.00">obe::Bindings::ViliBindings</text>
<text text-anchor="middle" x="392.5" y="-342.472" font-family="Helvetica,sans-Serif" font-size="10.00">::LoadViliContainerNode</text>
</a>
</g>
</g>
<!-- Node88&#45;&gt;Node100 -->
<g id="edge19" class="edge"><title>Node88&#45;&gt;Node100</title>
<path fill="none" stroke="midnightblue" d="M264.401,-387.106C287.163,-380.545 315.313,-372.431 339.331,-365.509"/>
<polygon fill="midnightblue" stroke="midnightblue" points="263.321,-383.775 254.681,-389.908 265.259,-390.501 263.321,-383.775"/>
</g>
<!-- Node101 -->
<g id="node15" class="node"><title>Node101</title>
<g id="a_node15"><a xlink:href="namespaceobe_1_1_bindings_1_1_vili_bindings.html#ae4c87ab5a464ebb9aa3b3dc0fdc45678" target="_top" xlink:title="obe::Bindings::ViliBindings\l::LoadViliDataNode">
<polygon fill="white" stroke="black" points="326,-286.472 326,-316.472 459,-316.472 459,-286.472 326,-286.472"/>
<text text-anchor="start" x="334" y="-304.472" font-family="Helvetica,sans-Serif" font-size="10.00">obe::Bindings::ViliBindings</text>
<text text-anchor="middle" x="392.5" y="-293.472" font-family="Helvetica,sans-Serif" font-size="10.00">::LoadViliDataNode</text>
</a>
</g>
</g>
<!-- Node88&#45;&gt;Node101 -->
<g id="edge21" class="edge"><title>Node88&#45;&gt;Node101</title>
<path fill="none" stroke="midnightblue" d="M237.779,-382.103C254.101,-365.629 280.671,-341.258 308,-326.472 315.054,-322.655 322.766,-319.348 330.561,-316.502"/>
<polygon fill="midnightblue" stroke="midnightblue" points="235.077,-379.862 230.632,-389.48 240.104,-384.734 235.077,-379.862"/>
</g>
<!-- Node102 -->
<g id="node16" class="node"><title>Node102</title>
<g id="a_node16"><a xlink:href="namespaceobe_1_1_bindings_1_1_vili_bindings.html#af5e34049e0220ae5eb0801dc909a93ec" target="_top" xlink:title="obe::Bindings::ViliBindings\l::LoadViliLinkNode">
<polygon fill="white" stroke="black" points="326,-237.472 326,-267.472 459,-267.472 459,-237.472 326,-237.472"/>
<text text-anchor="start" x="334" y="-255.472" font-family="Helvetica,sans-Serif" font-size="10.00">obe::Bindings::ViliBindings</text>
<text text-anchor="middle" x="392.5" y="-244.472" font-family="Helvetica,sans-Serif" font-size="10.00">::LoadViliLinkNode</text>
</a>
</g>
</g>
<!-- Node88&#45;&gt;Node102 -->
<g id="edge23" class="edge"><title>Node88&#45;&gt;Node102</title>
<path fill="none" stroke="midnightblue" d="M229.804,-380.805C242.69,-353.968 270.03,-304.721 308,-277.472 313.409,-273.59 319.426,-270.304 325.681,-267.523"/>
<polygon fill="midnightblue" stroke="midnightblue" points="226.618,-379.357 225.581,-389.901 232.967,-382.305 226.618,-379.357"/>
</g>
<!-- Node103 -->
<g id="node17" class="node"><title>Node103</title>
<g id="a_node17"><a xlink:href="namespaceobe_1_1_bindings_1_1_vili_bindings.html#a6d86abb590ae4b39f859a3f86f43c7be" target="_top" xlink:title="obe::Bindings::ViliBindings\l::LoadViliArrayNode">
<polygon fill="white" stroke="black" points="326,-188.472 326,-218.472 459,-218.472 459,-188.472 326,-188.472"/>
<text text-anchor="start" x="334" y="-206.472" font-family="Helvetica,sans-Serif" font-size="10.00">obe::Bindings::ViliBindings</text>
<text text-anchor="middle" x="392.5" y="-195.472" font-family="Helvetica,sans-Serif" font-size="10.00">::LoadViliArrayNode</text>
</a>
</g>
</g>
<!-- Node88&#45;&gt;Node103 -->
<g id="edge25" class="edge"><title>Node88&#45;&gt;Node103</title>
<path fill="none" stroke="midnightblue" d="M226.059,-379.545C235.253,-343.891 259.418,-269.118 308,-228.472 313.339,-224.005 319.455,-220.336 325.897,-217.323"/>
<polygon fill="midnightblue" stroke="midnightblue" points="222.563,-379.109 223.588,-389.654 229.362,-380.771 222.563,-379.109"/>
</g>
<!-- Node104 -->
<g id="node18" class="node"><title>Node104</title>
<g id="a_node18"><a xlink:href="namespaceobe_1_1_bindings_1_1_vili_bindings.html#a1e41fb34d5eef62ebd8c29b99f499276" target="_top" xlink:title="obe::Bindings::ViliBindings\l::LoadViliComplexNode">
<polygon fill="white" stroke="black" points="326,-139.472 326,-169.472 459,-169.472 459,-139.472 326,-139.472"/>
<text text-anchor="start" x="334" y="-157.472" font-family="Helvetica,sans-Serif" font-size="10.00">obe::Bindings::ViliBindings</text>
<text text-anchor="middle" x="392.5" y="-146.472" font-family="Helvetica,sans-Serif" font-size="10.00">::LoadViliComplexNode</text>
</a>
</g>
</g>
<!-- Node88&#45;&gt;Node104 -->
<g id="edge27" class="edge"><title>Node88&#45;&gt;Node104</title>
<path fill="none" stroke="midnightblue" d="M223.424,-379.823C228.701,-336.808 247.324,-233.741 308,-178.472 313.241,-173.698 319.372,-169.868 325.89,-166.796"/>
<polygon fill="midnightblue" stroke="midnightblue" points="219.937,-379.513 222.309,-389.839 226.894,-380.288 219.937,-379.513"/>
</g>
<!-- Node105 -->
<g id="node19" class="node"><title>Node105</title>
<g id="a_node19"><a xlink:href="namespaceobe_1_1_modes.html#a1e38c0d9a2ca0230f0de79c298f53ab9" target="_top" xlink:title="A mode that will start the Toolkit. ">
<polygon fill="white" stroke="black" points="319.5,-100.972 319.5,-119.972 465.5,-119.972 465.5,-100.972 319.5,-100.972"/>
<text text-anchor="middle" x="392.5" y="-107.972" font-family="Helvetica,sans-Serif" font-size="10.00">obe::Modes::startToolkitMode</text>
</a>
</g>
</g>
<!-- Node88&#45;&gt;Node105 -->
<g id="edge29" class="edge"><title>Node88&#45;&gt;Node105</title>
<path fill="none" stroke="midnightblue" d="M221.577,-379.736C222.9,-329.823 233.627,-197.688 308,-129.472 312.163,-125.653 316.931,-122.549 322.031,-120.033"/>
<polygon fill="midnightblue" stroke="midnightblue" points="218.076,-379.779 221.413,-389.834 225.075,-379.893 218.076,-379.779"/>
</g>
<!-- Node107 -->
<g id="node21" class="node"><title>Node107</title>
<g id="a_node21"><a xlink:href="namespaceobe_1_1_scene.html#ae5cbcc3278d9115d603e5024dec9136e" target="_top" xlink:title="obe::Scene::loadWorldScript\lEngineBaseLib">
<polygon fill="white" stroke="black" points="322,-51.4718 322,-81.4718 463,-81.4718 463,-51.4718 322,-51.4718"/>
<text text-anchor="start" x="330" y="-69.4718" font-family="Helvetica,sans-Serif" font-size="10.00">obe::Scene::loadWorldScript</text>
<text text-anchor="middle" x="392.5" y="-58.4718" font-family="Helvetica,sans-Serif" font-size="10.00">EngineBaseLib</text>
</a>
</g>
</g>
<!-- Node88&#45;&gt;Node107 -->
<g id="edge33" class="edge"><title>Node88&#45;&gt;Node107</title>
<path fill="none" stroke="midnightblue" d="M220.94,-379.546C220.542,-325.338 227.108,-173.76 308,-91.4718 312.031,-87.3711 316.705,-83.9369 321.743,-81.0618"/>
<polygon fill="midnightblue" stroke="midnightblue" points="217.445,-379.901 221.113,-389.84 224.444,-379.783 217.445,-379.901"/>
</g>
<!-- Node109 -->
<g id="node23" class="node"><title>Node109</title>
<g id="a_node23"><a xlink:href="namespaceobe_1_1_script.html#aee6606178e25a578119fd378d21ca29f" target="_top" xlink:title="Initialize the Lua VM. ">
<polygon fill="white" stroke="black" points="515.5,-12.9718 515.5,-31.9718 653.5,-31.9718 653.5,-12.9718 515.5,-12.9718"/>
<text text-anchor="middle" x="584.5" y="-19.9718" font-family="Helvetica,sans-Serif" font-size="10.00">obe::Script::InitScriptEngine</text>
</a>
</g>
</g>
<!-- Node88&#45;&gt;Node109 -->
<g id="edge35" class="edge"><title>Node88&#45;&gt;Node109</title>
<path fill="none" stroke="midnightblue" d="M223.268,-379.7C229.82,-311.251 255.124,-86.1256 308,-41.4718 375.947,15.9094 490.078,0.108815 547.786,-12.9456"/>
<polygon fill="midnightblue" stroke="midnightblue" points="219.756,-379.661 222.317,-389.941 226.726,-380.308 219.756,-379.661"/>
</g>
<!-- Node90 -->
<g id="node4" class="node"><title>Node90</title>
<g id="a_node4"><a xlink:href="namespaceobe_1_1_bindings.html#a41d33207a0199f125c75a0f70a4a3ba8" target="_top" xlink:title="To call when the engine starts, indexes all Lua bindings. ">
<polygon fill="white" stroke="black" points="513,-389.972 513,-408.972 656,-408.972 656,-389.972 513,-389.972"/>
<text text-anchor="middle" x="584.5" y="-396.972" font-family="Helvetica,sans-Serif" font-size="10.00">obe::Bindings::IndexBindings</text>
</a>
</g>
</g>
<!-- Node89&#45;&gt;Node90 -->
<g id="edge3" class="edge"><title>Node89&#45;&gt;Node90</title>
<path fill="none" stroke="midnightblue" d="M474.014,-770.237C475.043,-769.352 476.039,-768.431 477,-767.472 583.385,-661.281 584.936,-455.78 583.838,-409.074"/>
<polygon fill="midnightblue" stroke="midnightblue" points="471.626,-767.645 465.566,-776.335 475.723,-773.32 471.626,-767.645"/>
</g>
<!-- Node91 -->
<g id="node5" class="node"><title>Node91</title>
<g id="a_node5"><a xlink:href="_ob_engine_8cpp.html#a3c04138a5bfe5d72780bb7e82a18e627" target="_top" xlink:title="main">
<polygon fill="white" stroke="black" points="692,-119.972 692,-138.972 730,-138.972 730,-119.972 692,-119.972"/>
<text text-anchor="middle" x="711" y="-126.972" font-family="Helvetica,sans-Serif" font-size="10.00">main</text>
</a>
</g>
</g>
<!-- Node90&#45;&gt;Node91 -->
<g id="edge4" class="edge"><title>Node90&#45;&gt;Node91</title>
<path fill="none" stroke="midnightblue" d="M594.199,-380.607C618.623,-327.639 687.238,-178.836 705.492,-139.248"/>
<polygon fill="midnightblue" stroke="midnightblue" points="590.94,-379.316 589.931,-389.862 597.297,-382.247 590.94,-379.316"/>
</g>
<!-- Node92&#45;&gt;Node90 -->
<g id="edge6" class="edge"><title>Node92&#45;&gt;Node90</title>
<path fill="none" stroke="midnightblue" d="M473.502,-721.56C474.709,-720.577 475.877,-719.548 477,-718.472 571.206,-628.172 582.095,-452.399 583.341,-409.224"/>
<polygon fill="midnightblue" stroke="midnightblue" points="471.264,-718.851 465.015,-727.406 475.236,-724.615 471.264,-718.851"/>
</g>
<!-- Node93&#45;&gt;Node90 -->
<g id="edge8" class="edge"><title>Node93&#45;&gt;Node90</title>
<path fill="none" stroke="midnightblue" d="M472.929,-672.856C474.335,-671.784 475.695,-670.657 477,-669.472 559.426,-594.589 578.908,-447.777 582.694,-409.033"/>
<polygon fill="midnightblue" stroke="midnightblue" points="470.875,-670.017 464.409,-678.409 474.698,-675.881 470.875,-670.017"/>
</g>
<!-- Node94&#45;&gt;Node90 -->
<g id="edge10" class="edge"><title>Node94&#45;&gt;Node90</title>
<path fill="none" stroke="midnightblue" d="M472.278,-624.102C473.909,-622.957 475.487,-621.748 477,-620.472 547.64,-560.875 575.046,-443.52 581.756,-409.147"/>
<polygon fill="midnightblue" stroke="midnightblue" points="470.447,-621.119 463.723,-629.306 474.086,-627.099 470.447,-621.119"/>
</g>
<!-- Node95&#45;&gt;Node90 -->
<g id="edge12" class="edge"><title>Node95&#45;&gt;Node90</title>
<path fill="none" stroke="midnightblue" d="M471.208,-575.447C473.208,-574.201 475.144,-572.877 477,-571.472 536.359,-526.521 570.441,-438.064 580.404,-408.985"/>
<polygon fill="midnightblue" stroke="midnightblue" points="469.185,-572.564 462.086,-580.429 472.54,-578.707 469.185,-572.564"/>
</g>
<!-- Node96&#45;&gt;Node90 -->
<g id="edge14" class="edge"><title>Node96&#45;&gt;Node90</title>
<path fill="none" stroke="midnightblue" d="M468.928,-527.102C471.712,-525.665 474.414,-524.124 477,-522.472 525.321,-491.6 563.975,-432.347 577.909,-409.135"/>
<polygon fill="midnightblue" stroke="midnightblue" points="467.393,-523.956 459.803,-531.348 470.346,-530.303 467.393,-523.956"/>
</g>
<!-- Node99&#45;&gt;Node90 -->
<g id="edge18" class="edge"><title>Node99&#45;&gt;Node90</title>
<path fill="none" stroke="midnightblue" d="M487.234,-399.472C495.876,-399.472 504.532,-399.472 512.916,-399.472"/>
<polygon fill="midnightblue" stroke="midnightblue" points="487.113,-395.972 477.113,-399.472 487.113,-402.972 487.113,-395.972"/>
</g>
<!-- Node100&#45;&gt;Node90 -->
<g id="edge20" class="edge"><title>Node100&#45;&gt;Node90</title>
<path fill="none" stroke="midnightblue" d="M461.75,-368.073C490.357,-375.451 522.487,-383.737 546.555,-389.944"/>
<polygon fill="midnightblue" stroke="midnightblue" points="462.355,-364.615 451.797,-365.506 460.607,-371.393 462.355,-364.615"/>
</g>
<!-- Node101&#45;&gt;Node90 -->
<g id="edge22" class="edge"><title>Node101&#45;&gt;Node90</title>
<path fill="none" stroke="midnightblue" d="M461.786,-319.985C467.009,-321.985 472.136,-324.147 477,-326.472 514.415,-344.356 553.371,-374.515 572.102,-389.868"/>
<polygon fill="midnightblue" stroke="midnightblue" points="462.912,-316.671 452.317,-316.562 460.532,-323.254 462.912,-316.671"/>
</g>
<!-- Node102&#45;&gt;Node90 -->
<g id="edge24" class="edge"><title>Node102&#45;&gt;Node90</title>
<path fill="none" stroke="midnightblue" d="M467.01,-271.807C470.472,-273.542 473.823,-275.426 477,-277.472 524.989,-308.368 563.837,-366.978 577.866,-389.922"/>
<polygon fill="midnightblue" stroke="midnightblue" points="468.185,-268.497 457.633,-267.555 465.294,-274.872 468.185,-268.497"/>
</g>
<!-- Node103&#45;&gt;Node90 -->
<g id="edge26" class="edge"><title>Node103&#45;&gt;Node90</title>
<path fill="none" stroke="midnightblue" d="M468.144,-222.605C471.239,-224.39 474.21,-226.34 477,-228.472 535.643,-273.27 569.966,-360.388 580.221,-389.631"/>
<polygon fill="midnightblue" stroke="midnightblue" points="469.636,-219.437 459.139,-218.001 466.449,-225.67 469.636,-219.437"/>
</g>
<!-- Node104&#45;&gt;Node90 -->
<g id="edge28" class="edge"><title>Node104&#45;&gt;Node90</title>
<path fill="none" stroke="midnightblue" d="M468.229,-172.194C471.321,-174.079 474.266,-176.165 477,-178.472 547.64,-238.069 575.046,-355.423 581.756,-389.797"/>
<polygon fill="midnightblue" stroke="midnightblue" points="469.65,-168.986 459.175,-167.393 466.37,-175.17 469.65,-168.986"/>
</g>
<!-- Node105&#45;&gt;Node91 -->
<g id="edge32" class="edge"><title>Node105&#45;&gt;Node91</title>
<path fill="none" stroke="midnightblue" d="M452.01,-121.662C471.349,-124.854 493.027,-127.894 513,-129.472 578.633,-134.657 656.951,-132.044 691.765,-130.429"/>
<polygon fill="midnightblue" stroke="midnightblue" points="452.576,-118.208 442.131,-119.985 451.404,-125.109 452.576,-118.208"/>
</g>
<!-- Node106 -->
<g id="node20" class="node"><title>Node106</title>
<g id="a_node20"><a xlink:href="namespaceobe_1_1_modes.html#a6a8b08eee511d4895c4da96d4ba223a6" target="_top" xlink:title="Starts the development Menu where you can starts other menus from. ">
<polygon fill="white" stroke="black" points="518,-100.972 518,-119.972 651,-119.972 651,-100.972 518,-100.972"/>
<text text-anchor="middle" x="584.5" y="-107.972" font-family="Helvetica,sans-Serif" font-size="10.00">obe::Modes::startDevMenu</text>
</a>
</g>
</g>
<!-- Node105&#45;&gt;Node106 -->
<g id="edge30" class="edge"><title>Node105&#45;&gt;Node106</title>
<path fill="none" stroke="midnightblue" d="M475.731,-110.472C489.758,-110.472 504.163,-110.472 517.693,-110.472"/>
<polygon fill="midnightblue" stroke="midnightblue" points="475.602,-106.972 465.602,-110.472 475.602,-113.972 475.602,-106.972"/>
</g>
<!-- Node106&#45;&gt;Node91 -->
<g id="edge31" class="edge"><title>Node106&#45;&gt;Node91</title>
<path fill="none" stroke="midnightblue" d="M658.187,-121.565C670.642,-123.465 682.523,-125.279 691.759,-126.688"/>
<polygon fill="midnightblue" stroke="midnightblue" points="658.528,-118.076 648.115,-120.027 657.472,-124.996 658.528,-118.076"/>
</g>
<!-- Node108 -->
<g id="node22" class="node"><title>Node108</title>
<g id="a_node22"><a xlink:href="classobe_1_1_scene_1_1_scene.html#a6671ed54f3898e54a2814d58ec8ffec5" target="_top" xlink:title="Creates a new Scene. ">
<polygon fill="white" stroke="black" points="531.5,-51.4718 531.5,-81.4718 637.5,-81.4718 637.5,-51.4718 531.5,-51.4718"/>
<text text-anchor="start" x="539.5" y="-69.4718" font-family="Helvetica,sans-Serif" font-size="10.00">obe::Scene::Scene::</text>
<text text-anchor="middle" x="584.5" y="-58.4718" font-family="Helvetica,sans-Serif" font-size="10.00">Scene</text>
</a>
</g>
</g>
<!-- Node107&#45;&gt;Node108 -->
<g id="edge34" class="edge"><title>Node107&#45;&gt;Node108</title>
<path fill="none" stroke="midnightblue" d="M473.333,-66.4718C492.958,-66.4718 513.469,-66.4718 531.399,-66.4718"/>
<polygon fill="midnightblue" stroke="midnightblue" points="473.17,-62.9719 463.17,-66.4718 473.17,-69.9719 473.17,-62.9719"/>
</g>
<!-- Node109&#45;&gt;Node91 -->
<g id="edge36" class="edge"><title>Node109&#45;&gt;Node91</title>
<path fill="none" stroke="midnightblue" d="M648.015,-36.3842C650.811,-37.9073 653.492,-39.5971 656,-41.4718 683.711,-62.1825 700.331,-101.682 706.833,-119.869"/>
<polygon fill="midnightblue" stroke="midnightblue" points="649.301,-33.1221 638.759,-32.0645 646.34,-39.4653 649.301,-33.1221"/>
</g>
</g>
</svg>
