<?xml version="1.0" encoding="UTF-8" standalone="no"?>
<!DOCTYPE svg PUBLIC "-//W3C//DTD SVG 1.1//EN"
 "http://www.w3.org/Graphics/SVG/1.1/DTD/svg11.dtd">
<!-- Generated by graphviz version 2.38.0 (20140413.2041)
 -->
<!-- Title: obe::Coord::Rect::setX Pages: 1 -->
<svg width="649pt" height="47pt"
 viewBox="0.00 0.00 649.00 47.00" xmlns="http://www.w3.org/2000/svg" xmlns:xlink="http://www.w3.org/1999/xlink">
<g id="graph0" class="graph" transform="scale(1 1) rotate(0) translate(4 43)">
<title>obe::Coord::Rect::setX</title>
<!-- Node61 -->
<g id="node1" class="node"><title>Node61</title>
<polygon fill="#bfbfbf" stroke="black" points="0,-0.5 0,-19.5 115,-19.5 115,-0.5 0,-0.5"/>
<text text-anchor="middle" x="57.5" y="-7.5" font-family="Helvetica,sans-Serif" font-size="10.00">obe::Coord::Rect::setX</text>
</g>
<!-- Node62 -->
<g id="node2" class="node"><title>Node62</title>
<g id="a_node2"><a xlink:href="classobe_1_1_coord_1_1_rect.html#a98ad75675d1ca85f18f38345b70f04b9" target="_top" xlink:title="Transform the UnitVector passed by reference using the given Referencial. ">
<polygon fill="white" stroke="black" points="151,-0.5 151,-19.5 302,-19.5 302,-0.5 151,-0.5"/>
<text text-anchor="middle" x="226.5" y="-7.5" font-family="Helvetica,sans-Serif" font-size="10.00">obe::Coord::Rect::transformRef</text>
</a>
</g>
</g>
<!-- Node61&#45;&gt;Node62 -->
<g id="edge1" class="edge"><title>Node61&#45;&gt;Node62</title>
<path fill="none" stroke="midnightblue" d="M115.039,-10C123.336,-10 132.031,-10 140.745,-10"/>
<polygon fill="midnightblue" stroke="midnightblue" points="140.959,-13.5001 150.959,-10 140.959,-6.5001 140.959,-13.5001"/>
</g>
<!-- Node63 -->
<g id="node3" class="node"><title>Node63</title>
<g id="a_node3"><a xlink:href="classobe_1_1_coord_1_1_unit_vector.html#acea93bdd4b43fc77793af83c45b893ea" target="_top" xlink:title="obe::Coord::UnitVector::add">
<polygon fill="white" stroke="black" points="338,-19.5 338,-38.5 475,-38.5 475,-19.5 338,-19.5"/>
<text text-anchor="middle" x="406.5" y="-26.5" font-family="Helvetica,sans-Serif" font-size="10.00">obe::Coord::UnitVector::add</text>
</a>
</g>
</g>
<!-- Node62&#45;&gt;Node63 -->
<g id="edge2" class="edge"><title>Node62&#45;&gt;Node63</title>
<path fill="none" stroke="midnightblue" d="M302.214,-17.9751C310.602,-18.8704 319.162,-19.7842 327.589,-20.6836"/>
<polygon fill="midnightblue" stroke="midnightblue" points="327.464,-24.1902 337.779,-21.7714 328.207,-17.2297 327.464,-24.1902"/>
</g>
<!-- Node64 -->
<g id="node4" class="node"><title>Node64</title>
<g id="a_node4"><a xlink:href="classobe_1_1_coord_1_1_unit_vector.html#ade7438051851d9ceda0b495fd4a620be" target="_top" xlink:title="Return an UnitVector with the converted values (x, y) to the Unit you want. ">
<polygon fill="white" stroke="black" points="511,-0.5 511,-19.5 641,-19.5 641,-0.5 511,-0.5"/>
<text text-anchor="middle" x="576" y="-7.5" font-family="Helvetica,sans-Serif" font-size="10.00">obe::Coord::UnitVector::to</text>
</a>
</g>
</g>
<!-- Node62&#45;&gt;Node64 -->
<g id="edge4" class="edge"><title>Node62&#45;&gt;Node64</title>
<path fill="none" stroke="midnightblue" d="M302.047,-10C360.651,-10 441.897,-10 500.49,-10"/>
<polygon fill="midnightblue" stroke="midnightblue" points="500.789,-13.5001 510.789,-10 500.789,-6.5001 500.789,-13.5001"/>
</g>
<!-- Node63&#45;&gt;Node64 -->
<g id="edge3" class="edge"><title>Node63&#45;&gt;Node64</title>
<path fill="none" stroke="midnightblue" d="M475.146,-21.3267C483.63,-20.3644 492.342,-19.3761 500.918,-18.4033"/>
<polygon fill="midnightblue" stroke="midnightblue" points="501.359,-21.8759 510.901,-17.271 500.57,-14.9205 501.359,-21.8759"/>
</g>
</g>
</svg>
