<?xml version="1.0" encoding="UTF-8" standalone="no"?>
<!DOCTYPE svg PUBLIC "-//W3C//DTD SVG 1.1//EN"
 "http://www.w3.org/Graphics/SVG/1.1/DTD/svg11.dtd">
<!-- Generated by graphviz version 2.38.0 (20140413.2041)
 -->
<!-- Title: obe::Input::KeyClass::isAlphaNumeric Pages: 1 -->
<svg width="258pt" height="137pt"
 viewBox="0.00 0.00 258.00 137.00" xmlns="http://www.w3.org/2000/svg" xmlns:xlink="http://www.w3.org/1999/xlink">
<g id="graph0" class="graph" transform="scale(1 1) rotate(0) translate(4 133)">
<title>obe::Input::KeyClass::isAlphaNumeric</title>
<!-- Node15 -->
<g id="node1" class="node"><title>Node15</title>
<polygon fill="#bfbfbf" stroke="black" points="0,-49.5 0,-79.5 107,-79.5 107,-49.5 0,-49.5"/>
<text text-anchor="start" x="8" y="-67.5" font-family="Helvetica,sans-Serif" font-size="10.00">obe::Input::KeyClass</text>
<text text-anchor="middle" x="53.5" y="-56.5" font-family="Helvetica,sans-Serif" font-size="10.00">::isAlphaNumeric</text>
</g>
<!-- Node16 -->
<g id="node2" class="node"><title>Node16</title>
<g id="a_node2"><a xlink:href="classobe_1_1_input_1_1_key_class.html#a111baf487007975713a38ea213a3b82e" target="_top" xlink:title="Get if the key is a letter. ">
<polygon fill="white" stroke="black" points="143,-98.5 143,-128.5 250,-128.5 250,-98.5 143,-98.5"/>
<text text-anchor="start" x="151" y="-116.5" font-family="Helvetica,sans-Serif" font-size="10.00">obe::Input::KeyClass</text>
<text text-anchor="middle" x="196.5" y="-105.5" font-family="Helvetica,sans-Serif" font-size="10.00">::isAlpha</text>
</a>
</g>
</g>
<!-- Node15&#45;&gt;Node16 -->
<g id="edge1" class="edge"><title>Node15&#45;&gt;Node16</title>
<path fill="none" stroke="midnightblue" d="M97.9552,-79.6014C112.027,-84.4917 127.793,-89.9707 142.479,-95.0744"/>
<polygon fill="midnightblue" stroke="midnightblue" points="141.351,-98.3875 151.946,-98.3641 143.649,-91.7753 141.351,-98.3875"/>
</g>
<!-- Node17 -->
<g id="node3" class="node"><title>Node17</title>
<g id="a_node3"><a xlink:href="classobe_1_1_input_1_1_key_class.html#a79ccdee963c18c9a46ca510309f15f04" target="_top" xlink:title="Get if the key is a number. ">
<polygon fill="white" stroke="black" points="143,-49.5 143,-79.5 250,-79.5 250,-49.5 143,-49.5"/>
<text text-anchor="start" x="151" y="-67.5" font-family="Helvetica,sans-Serif" font-size="10.00">obe::Input::KeyClass</text>
<text text-anchor="middle" x="196.5" y="-56.5" font-family="Helvetica,sans-Serif" font-size="10.00">::isNumeric</text>
</a>
</g>
</g>
<!-- Node15&#45;&gt;Node17 -->
<g id="edge2" class="edge"><title>Node15&#45;&gt;Node17</title>
<path fill="none" stroke="midnightblue" d="M107.003,-64.5C115.445,-64.5 124.255,-64.5 132.905,-64.5"/>
<polygon fill="midnightblue" stroke="midnightblue" points="132.953,-68.0001 142.953,-64.5 132.953,-61.0001 132.953,-68.0001"/>
</g>
<!-- Node18 -->
<g id="node4" class="node"><title>Node18</title>
<g id="a_node4"><a xlink:href="classobe_1_1_input_1_1_key_class.html#ac0e6972335570de125c502e97ad0b5a2" target="_top" xlink:title="Get if the key is a number from the NumPad. ">
<polygon fill="white" stroke="black" points="143,-0.5 143,-30.5 250,-30.5 250,-0.5 143,-0.5"/>
<text text-anchor="start" x="151" y="-18.5" font-family="Helvetica,sans-Serif" font-size="10.00">obe::Input::KeyClass</text>
<text text-anchor="middle" x="196.5" y="-7.5" font-family="Helvetica,sans-Serif" font-size="10.00">::isNumericNP</text>
</a>
</g>
</g>
<!-- Node15&#45;&gt;Node18 -->
<g id="edge3" class="edge"><title>Node15&#45;&gt;Node18</title>
<path fill="none" stroke="midnightblue" d="M97.9552,-49.3986C112.027,-44.5083 127.793,-39.0293 142.479,-33.9256"/>
<polygon fill="midnightblue" stroke="midnightblue" points="143.649,-37.2247 151.946,-30.6359 141.351,-30.6125 143.649,-37.2247"/>
</g>
</g>
</svg>
