<?xml version="1.0" encoding="UTF-8" standalone="no"?>
<!DOCTYPE svg PUBLIC "-//W3C//DTD SVG 1.1//EN"
 "http://www.w3.org/Graphics/SVG/1.1/DTD/svg11.dtd">
<!-- Generated by graphviz version 2.38.0 (20140413.2041)
 -->
<!-- Title: obe::Collision::PolygonalCollider::setPosition Pages: 1 -->
<!--zoomable 190 -->
<svg id="main" version="1.1" xmlns="http://www.w3.org/2000/svg" xmlns:xlink="http://www.w3.org/1999/xlink" xml:space="preserve" onload="init(evt)">
<style type="text/css"><![CDATA[
.edge:hover path { stroke: red; }
.edge:hover polygon { stroke: red; fill: red; }
.edge path { stroke: white; }
.edge polygon { stroke: white; fill: white; }
.node polygon { fill: white; }
]]></style>
<script type="text/javascript"><![CDATA[
var edges = document.getElementsByTagName('g');
if (edges && edges.length) {
  for (var i=0;i<edges.length;i++) {
    if (edges[i].id.substr(0,4)=='edge') {
      edges[i].setAttribute('class','edge');
    }
  }
}
]]></script>
        <defs>
                <circle id="rim" cx="0" cy="0" r="7"/>
                <circle id="rim2" cx="0" cy="0" r="3.5"/>
                <g id="zoomPlus">
                        <use xlink:href="#rim" fill="#404040">
                                <set attributeName="fill" to="#808080" begin="zoomplus.mouseover" end="zoomplus.mouseout"/>
                        </use>
                        <path d="M-4,0h8M0,-4v8" fill="none" stroke="white" stroke-width="1.5" pointer-events="none"/>
                </g>
                <g id="zoomMin">
                        <use xlink:href="#rim" fill="#404040">
                                <set attributeName="fill" to="#808080" begin="zoomminus.mouseover" end="zoomminus.mouseout"/>
                        </use>
                        <path d="M-4,0h8" fill="none" stroke="white" stroke-width="1.5" pointer-events="none"/>
                </g>
                <g id="dirArrow">
                        <path fill="none" stroke="white" stroke-width="1.5" d="M0,-3.0v7 M-2.5,-0.5L0,-3.0L2.5,-0.5"/>
                </g>
               <g id="resetDef">
                       <use xlink:href="#rim2" fill="#404040">
                               <set attributeName="fill" to="#808080" begin="reset.mouseover" end="reset.mouseout"/>
                       </use>
               </g>
        </defs>

<script type="text/javascript">
var viewWidth = 1220;
var viewHeight = 190;
var sectionId = 'dynsection-67';
</script>
<script xlink:href="svgpan.js"/>
<svg id="graph" class="graph">
<g id="viewport">
<title>obe::Collision::PolygonalCollider::setPosition</title>
<!-- Node607 -->
<g id="node1" class="node"><title>Node607</title>
<polygon fill="#bfbfbf" stroke="black" points="0,-112.5 0,-142.5 124,-142.5 124,-112.5 0,-112.5"/>
<text text-anchor="start" x="8" y="-130.5" font-family="Helvetica,sans-Serif" font-size="10.00">obe::Collision::Polygonal</text>
<text text-anchor="middle" x="62" y="-119.5" font-family="Helvetica,sans-Serif" font-size="10.00">Collider::setPosition</text>
</g>
<!-- Node608 -->
<g id="node2" class="node"><title>Node608</title>
<g id="a_node2"><a xlink:href="namespaceobe_1_1_bindings_1_1_collision_bindings.html#afa4c96728348503721dd7ddbc50da7c6" target="_top" xlink:title="obe::Bindings::Collision\lBindings::LoadPolygonalCollider">
<polygon fill="none" stroke="black" points="160,-137.5 160,-167.5 316,-167.5 316,-137.5 160,-137.5"/>
<text text-anchor="start" x="168" y="-155.5" font-family="Helvetica,sans-Serif" font-size="10.00">obe::Bindings::Collision</text>
<text text-anchor="middle" x="238" y="-144.5" font-family="Helvetica,sans-Serif" font-size="10.00">Bindings::LoadPolygonalCollider</text>
</a>
</g>
</g>
<!-- Node607&#45;&gt;Node608 -->
<g id="edge1" class="edge"><title>Node607&#45;&gt;Node608</title>
<path fill="none" stroke="midnightblue" d="M134.415,-137.761C142.768,-138.961 151.319,-140.189 159.746,-141.4"/>
<polygon fill="midnightblue" stroke="midnightblue" points="134.742,-134.272 124.346,-136.314 133.746,-141.201 134.742,-134.272"/>
</g>
<!-- Node609 -->
<g id="node3" class="node"><title>Node609</title>
<g id="a_node3"><a xlink:href="namespaceobe_1_1_script_1_1_core_lib.html#a07d6c11bbb082bc45bdba50d97965c00" target="_top" xlink:title="obe::Script::CoreLib\l::loadCollision">
<polygon fill="none" stroke="black" points="186.5,-88.5 186.5,-118.5 289.5,-118.5 289.5,-88.5 186.5,-88.5"/>
<text text-anchor="start" x="194.5" y="-106.5" font-family="Helvetica,sans-Serif" font-size="10.00">obe::Script::CoreLib</text>
<text text-anchor="middle" x="238" y="-95.5" font-family="Helvetica,sans-Serif" font-size="10.00">::loadCollision</text>
</a>
</g>
</g>
<!-- Node607&#45;&gt;Node609 -->
<g id="edge2" class="edge"><title>Node607&#45;&gt;Node609</title>
<path fill="none" stroke="midnightblue" d="M134.457,-117.644C151.835,-115.247 170.068,-112.732 186.26,-110.499"/>
<polygon fill="midnightblue" stroke="midnightblue" points="133.774,-114.205 124.346,-119.038 134.73,-121.139 133.774,-114.205"/>
</g>
<!-- Node610 -->
<g id="node4" class="node"><title>Node610</title>
<g id="a_node4"><a xlink:href="namespaceobe_1_1_script.html#abdb81ec0976f1097cef6711415b8fac3" target="_top" xlink:title="obe::Script::loadCoreLib">
<polygon fill="none" stroke="black" points="352,-94 352,-113 473,-113 473,-94 352,-94"/>
<text text-anchor="middle" x="412.5" y="-101" font-family="Helvetica,sans-Serif" font-size="10.00">obe::Script::loadCoreLib</text>
</a>
</g>
</g>
<!-- Node609&#45;&gt;Node610 -->
<g id="edge3" class="edge"><title>Node609&#45;&gt;Node610</title>
<path fill="none" stroke="midnightblue" d="M300.099,-97.0118C316.936,-96.6518 335.174,-96.6631 351.924,-97.0455"/>
<polygon fill="midnightblue" stroke="midnightblue" points="299.727,-93.5204 289.823,-97.2839 299.912,-100.518 299.727,-93.5204"/>
</g>
<!-- Node610&#45;&gt;Node609 -->
<g id="edge17" class="edge"><title>Node610&#45;&gt;Node609</title>
<path fill="none" stroke="midnightblue" d="M341.816,-110.138C324.428,-110.376 306.106,-110.235 289.823,-109.716"/>
<polygon fill="midnightblue" stroke="midnightblue" points="341.989,-113.636 351.924,-109.955 341.862,-106.637 341.989,-113.636"/>
</g>
<!-- Node611 -->
<g id="node5" class="node"><title>Node611</title>
<g id="a_node5"><a xlink:href="namespaceobe_1_1_script.html#a4e6ee77032cf7f66544f9b08464a60b7" target="_top" xlink:title="obe::Script::loadLib">
<polygon fill="none" stroke="black" points="509,-94 509,-113 610,-113 610,-94 509,-94"/>
<text text-anchor="middle" x="559.5" y="-101" font-family="Helvetica,sans-Serif" font-size="10.00">obe::Script::loadLib</text>
</a>
</g>
</g>
<!-- Node610&#45;&gt;Node611 -->
<g id="edge4" class="edge"><title>Node610&#45;&gt;Node611</title>
<path fill="none" stroke="midnightblue" d="M483.401,-103.5C492.037,-103.5 500.723,-103.5 508.967,-103.5"/>
<polygon fill="midnightblue" stroke="midnightblue" points="483.314,-100 473.314,-103.5 483.314,-107 483.314,-100"/>
</g>
<!-- Node612 -->
<g id="node6" class="node"><title>Node612</title>
<g id="a_node6"><a xlink:href="namespaceobe_1_1_modes.html#a1e38c0d9a2ca0230f0de79c298f53ab9" target="_top" xlink:title="A mode that will start the Toolkit. ">
<polygon fill="none" stroke="black" points="823,-143 823,-162 969,-162 969,-143 823,-143"/>
<text text-anchor="middle" x="896" y="-150" font-family="Helvetica,sans-Serif" font-size="10.00">obe::Modes::startToolkitMode</text>
</a>
</g>
</g>
<!-- Node611&#45;&gt;Node612 -->
<g id="edge5" class="edge"><title>Node611&#45;&gt;Node612</title>
<path fill="none" stroke="midnightblue" d="M578.108,-119.839C594.345,-133.706 619.828,-152.576 646,-160.5 715.752,-181.619 801.556,-171.471 852.063,-162.067"/>
<polygon fill="midnightblue" stroke="midnightblue" points="580.319,-117.122 570.506,-113.128 575.687,-122.37 580.319,-117.122"/>
</g>
<!-- Node615 -->
<g id="node9" class="node"><title>Node615</title>
<g id="a_node9"><a xlink:href="classobe_1_1_scene_1_1_world.html#a32964e659e18cb32094d9f8ceea30aa3" target="_top" xlink:title="obe::Scene::World::\lWorld">
<polygon fill="none" stroke="black" points="844,-77.5 844,-107.5 948,-107.5 948,-77.5 844,-77.5"/>
<text text-anchor="start" x="852" y="-95.5" font-family="Helvetica,sans-Serif" font-size="10.00">obe::Scene::World::</text>
<text text-anchor="middle" x="896" y="-84.5" font-family="Helvetica,sans-Serif" font-size="10.00">World</text>
</a>
</g>
</g>
<!-- Node611&#45;&gt;Node615 -->
<g id="edge9" class="edge"><title>Node611&#45;&gt;Node615</title>
<path fill="none" stroke="midnightblue" d="M620.51,-101.527C684.218,-99.4315 783.826,-96.156 843.912,-94.18"/>
<polygon fill="midnightblue" stroke="midnightblue" points="620.096,-98.0382 610.217,-101.865 620.327,-105.034 620.096,-98.0382"/>
</g>
<!-- Node616 -->
<g id="node10" class="node"><title>Node616</title>
<g id="a_node10"><a xlink:href="namespaceobe_1_1_scene.html#ae5cbcc3278d9115d603e5024dec9136e" target="_top" xlink:title="obe::Scene::loadWorldScript\lEngineBaseLib">
<polygon fill="none" stroke="black" points="646,-44.5 646,-74.5 787,-74.5 787,-44.5 646,-44.5"/>
<text text-anchor="start" x="654" y="-62.5" font-family="Helvetica,sans-Serif" font-size="10.00">obe::Scene::loadWorldScript</text>
<text text-anchor="middle" x="716.5" y="-51.5" font-family="Helvetica,sans-Serif" font-size="10.00">EngineBaseLib</text>
</a>
</g>
</g>
<!-- Node611&#45;&gt;Node616 -->
<g id="edge10" class="edge"><title>Node611&#45;&gt;Node616</title>
<path fill="none" stroke="midnightblue" d="M603.871,-91.1882C622.04,-86.0306 643.336,-79.9852 662.429,-74.5654"/>
<polygon fill="midnightblue" stroke="midnightblue" points="602.797,-87.8548 594.133,-93.9527 604.708,-94.5887 602.797,-87.8548"/>
</g>
<!-- Node617 -->
<g id="node11" class="node"><title>Node617</title>
<g id="a_node11"><a xlink:href="namespaceobe_1_1_script.html#a5e992c0efb0543e7c934bc1065f08b01" target="_top" xlink:title="obe::Script::loadLibBridge">
<polygon fill="none" stroke="black" points="652.5,-6 652.5,-25 780.5,-25 780.5,-6 652.5,-6"/>
<text text-anchor="middle" x="716.5" y="-13" font-family="Helvetica,sans-Serif" font-size="10.00">obe::Script::loadLibBridge</text>
</a>
</g>
</g>
<!-- Node611&#45;&gt;Node617 -->
<g id="edge12" class="edge"><title>Node611&#45;&gt;Node617</title>
<path fill="none" stroke="midnightblue" d="M577.106,-86.5505C593.326,-70.9112 619.393,-48.1137 646,-34.5 653.461,-30.6825 661.777,-27.5618 669.99,-25.0347"/>
<polygon fill="midnightblue" stroke="midnightblue" points="574.228,-84.4735 569.571,-93.9898 579.146,-89.455 574.228,-84.4735"/>
</g>
<!-- Node620 -->
<g id="node14" class="node"><title>Node620</title>
<g id="a_node14"><a xlink:href="namespaceobe_1_1_script.html#aad6ef67388e6d16eb01853f208da410f" target="_top" xlink:title="obe::Script::loadBaseLib">
<polygon fill="none" stroke="black" points="655,-132 655,-151 778,-151 778,-132 655,-132"/>
<text text-anchor="middle" x="716.5" y="-139" font-family="Helvetica,sans-Serif" font-size="10.00">obe::Script::loadBaseLib</text>
</a>
</g>
</g>
<!-- Node611&#45;&gt;Node620 -->
<g id="edge15" class="edge"><title>Node611&#45;&gt;Node620</title>
<path fill="none" stroke="midnightblue" d="M609.611,-115.54C631.265,-120.849 656.35,-126.999 676.668,-131.98"/>
<polygon fill="midnightblue" stroke="midnightblue" points="610.159,-112.071 599.613,-113.089 608.492,-118.87 610.159,-112.071"/>
</g>
<!-- Node613 -->
<g id="node7" class="node"><title>Node613</title>
<g id="a_node7"><a xlink:href="namespaceobe_1_1_modes.html#a6a8b08eee511d4895c4da96d4ba223a6" target="_top" xlink:title="Starts the development Menu where you can starts other menus from. ">
<polygon fill="none" stroke="black" points="1005,-162 1005,-181 1138,-181 1138,-162 1005,-162"/>
<text text-anchor="middle" x="1071.5" y="-169" font-family="Helvetica,sans-Serif" font-size="10.00">obe::Modes::startDevMenu</text>
</a>
</g>
</g>
<!-- Node612&#45;&gt;Node613 -->
<g id="edge6" class="edge"><title>Node612&#45;&gt;Node613</title>
<path fill="none" stroke="midnightblue" d="M979.118,-161.493C987.716,-162.434 996.375,-163.383 1004.76,-164.3"/>
<polygon fill="midnightblue" stroke="midnightblue" points="979.394,-158.002 969.072,-160.393 978.632,-164.961 979.394,-158.002"/>
</g>
<!-- Node614 -->
<g id="node8" class="node"><title>Node614</title>
<g id="a_node8"><a xlink:href="_ob_engine_8cpp.html#a3c04138a5bfe5d72780bb7e82a18e627" target="_top" xlink:title="main">
<polygon fill="none" stroke="black" points="1174,-143 1174,-162 1212,-162 1212,-143 1174,-143"/>
<text text-anchor="middle" x="1193" y="-150" font-family="Helvetica,sans-Serif" font-size="10.00">main</text>
</a>
</g>
</g>
<!-- Node612&#45;&gt;Node614 -->
<g id="edge8" class="edge"><title>Node612&#45;&gt;Node614</title>
<path fill="none" stroke="midnightblue" d="M979.308,-152.5C1046.39,-152.5 1135.99,-152.5 1173.87,-152.5"/>
<polygon fill="midnightblue" stroke="midnightblue" points="979.165,-149 969.165,-152.5 979.165,-156 979.165,-149"/>
</g>
<!-- Node613&#45;&gt;Node614 -->
<g id="edge7" class="edge"><title>Node613&#45;&gt;Node614</title>
<path fill="none" stroke="midnightblue" d="M1142.82,-160.319C1154.35,-158.487 1165.33,-156.741 1173.98,-155.365"/>
<polygon fill="midnightblue" stroke="midnightblue" points="1141.93,-156.917 1132.6,-161.944 1143.03,-163.831 1141.93,-156.917"/>
</g>
<!-- Node616&#45;&gt;Node615 -->
<g id="edge11" class="edge"><title>Node616&#45;&gt;Node615</title>
<path fill="none" stroke="midnightblue" d="M796.998,-74.2799C812.939,-77.2436 829.283,-80.2821 843.941,-83.0074"/>
<polygon fill="midnightblue" stroke="midnightblue" points="797.615,-70.8346 787.143,-72.4478 796.335,-77.7167 797.615,-70.8346"/>
</g>
<!-- Node618 -->
<g id="node12" class="node"><title>Node618</title>
<g id="a_node12"><a xlink:href="namespaceobe_1_1_script.html#a5dc8321da50fd4b5dc2935e4d8c93a4e" target="_top" xlink:title="obe::Script::loadScrGame\lObject">
<polygon fill="none" stroke="black" points="831.5,-0.5 831.5,-30.5 960.5,-30.5 960.5,-0.5 831.5,-0.5"/>
<text text-anchor="start" x="839.5" y="-18.5" font-family="Helvetica,sans-Serif" font-size="10.00">obe::Script::loadScrGame</text>
<text text-anchor="middle" x="896" y="-7.5" font-family="Helvetica,sans-Serif" font-size="10.00">Object</text>
</a>
</g>
</g>
<!-- Node617&#45;&gt;Node618 -->
<g id="edge13" class="edge"><title>Node617&#45;&gt;Node618</title>
<path fill="none" stroke="midnightblue" d="M790.737,-15.5C804.171,-15.5 818.096,-15.5 831.226,-15.5"/>
<polygon fill="midnightblue" stroke="midnightblue" points="790.58,-12.0001 780.58,-15.5 790.58,-19.0001 790.58,-12.0001"/>
</g>
<!-- Node619 -->
<g id="node13" class="node"><title>Node619</title>
<g id="a_node13"><a xlink:href="classobe_1_1_script_1_1_game_object.html#aadeac0036d2fe21d523acfd4e9011a23" target="_top" xlink:title="obe::Script::GameObject\l::loadGameObject">
<polygon fill="none" stroke="black" points="1009,-0.5 1009,-30.5 1134,-30.5 1134,-0.5 1009,-0.5"/>
<text text-anchor="start" x="1017" y="-18.5" font-family="Helvetica,sans-Serif" font-size="10.00">obe::Script::GameObject</text>
<text text-anchor="middle" x="1071.5" y="-7.5" font-family="Helvetica,sans-Serif" font-size="10.00">::loadGameObject</text>
</a>
</g>
</g>
<!-- Node618&#45;&gt;Node619 -->
<g id="edge14" class="edge"><title>Node618&#45;&gt;Node619</title>
<path fill="none" stroke="midnightblue" d="M970.721,-15.5C983.445,-15.5 996.552,-15.5 1008.91,-15.5"/>
<polygon fill="midnightblue" stroke="midnightblue" points="970.62,-12.0001 960.62,-15.5 970.62,-19.0001 970.62,-12.0001"/>
</g>
<!-- Node620&#45;&gt;Node612 -->
<g id="edge16" class="edge"><title>Node620&#45;&gt;Node612</title>
<path fill="none" stroke="midnightblue" d="M788.346,-145.89C799.662,-146.592 811.384,-147.318 822.733,-148.021"/>
<polygon fill="midnightblue" stroke="midnightblue" points="788.286,-142.38 778.089,-145.255 787.853,-149.367 788.286,-142.38"/>
</g>
</g>
</svg>
        <g id="navigator" transform="translate(0 0)" fill="#404254">
                <rect fill="#f2f5e9" fill-opacity="0.5" stroke="#606060" stroke-width=".5" x="0" y="0" width="60" height="60"/>
                <use id="zoomplus" xlink:href="#zoomPlus" x="17" y="9" onmousedown="handleZoom(evt,'in')"/>
                <use id="zoomminus" xlink:href="#zoomMin" x="42" y="9" onmousedown="handleZoom(evt,'out')"/>
                <use id="reset" xlink:href="#resetDef" x="30" y="36" onmousedown="handleReset()"/>
                <g id="arrowUp" xlink:href="#dirArrow" transform="translate(30 24)" onmousedown="handlePan(0,-1)">
                  <use xlink:href="#rim" fill="#404040">
                        <set attributeName="fill" to="#808080" begin="arrowUp.mouseover" end="arrowUp.mouseout"/>
                  </use>
                  <path fill="none" stroke="white" stroke-width="1.5" d="M0,-3.0v7 M-2.5,-0.5L0,-3.0L2.5,-0.5"/>
                </g>
                <g id="arrowRight" xlink:href="#dirArrow" transform="rotate(90) translate(36 -43)" onmousedown="handlePan(1,0)">
                  <use xlink:href="#rim" fill="#404040">
                        <set attributeName="fill" to="#808080" begin="arrowRight.mouseover" end="arrowRight.mouseout"/>
                  </use>
                  <path fill="none" stroke="white" stroke-width="1.5" d="M0,-3.0v7 M-2.5,-0.5L0,-3.0L2.5,-0.5"/>
                </g>
                <g id="arrowDown" xlink:href="#dirArrow" transform="rotate(180) translate(-30 -48)" onmousedown="handlePan(0,1)">
                  <use xlink:href="#rim" fill="#404040">
                        <set attributeName="fill" to="#808080" begin="arrowDown.mouseover" end="arrowDown.mouseout"/>
                  </use>
                  <path fill="none" stroke="white" stroke-width="1.5" d="M0,-3.0v7 M-2.5,-0.5L0,-3.0L2.5,-0.5"/>
                </g>
                <g id="arrowLeft" xlink:href="#dirArrow" transform="rotate(270) translate(-36 17)" onmousedown="handlePan(-1,0)">
                  <use xlink:href="#rim" fill="#404040">
                        <set attributeName="fill" to="#808080" begin="arrowLeft.mouseover" end="arrowLeft.mouseout"/>
                  </use>
                  <path fill="none" stroke="white" stroke-width="1.5" d="M0,-3.0v7 M-2.5,-0.5L0,-3.0L2.5,-0.5"/>
                </g>
        </g>
        <svg viewBox="0 0 15 15" width="100%" height="30px" preserveAspectRatio="xMaxYMin meet">
         <g id="arrow_out" transform="scale(0.3 0.3)">
          <a xlink:href="classobe_1_1_collision_1_1_polygonal_collider_aa8a996e3ff7e8f8b09e0266d4903772a_icgraph_org.svg" target="_base">
           <rect id="button" ry="5" rx="5" y="6" x="6" height="38" width="38"
                fill="#f2f5e9" fill-opacity="0.5" stroke="#606060" stroke-width="1.0"/>
           <path id="arrow"
             d="M 11.500037,31.436501 C 11.940474,20.09759 22.043105,11.32322 32.158766,21.979434 L 37.068811,17.246167 C 37.068811,17.246167 37.088388,32 37.088388,32 L 22.160133,31.978069 C 22.160133,31.978069 26.997745,27.140456 26.997745,27.140456 C 18.528582,18.264221 13.291696,25.230495 11.500037,31.436501 z"
             style="fill:#404040;"/>
          </a>
         </g>
        </svg>
</svg>
