<?xml version="1.0" encoding="UTF-8" standalone="no"?>
<!DOCTYPE svg PUBLIC "-//W3C//DTD SVG 1.1//EN"
 "http://www.w3.org/Graphics/SVG/1.1/DTD/svg11.dtd">
<!-- Generated by graphviz version 2.38.0 (20140413.2041)
 -->
<!-- Title: vili::Attribute::setAnnotation Pages: 1 -->
<!--zoomable 258 -->
<svg id="main" version="1.1" xmlns="http://www.w3.org/2000/svg" xmlns:xlink="http://www.w3.org/1999/xlink" xml:space="preserve" onload="init(evt)">
<style type="text/css"><![CDATA[
.edge:hover path { stroke: red; }
.edge:hover polygon { stroke: red; fill: red; }
.edge path { stroke: white; }
.edge polygon { stroke: white; fill: white; }
]]></style>
<script type="text/javascript"><![CDATA[
var edges = document.getElementsByTagName('g');
if (edges && edges.length) {
  for (var i=0;i<edges.length;i++) {
    if (edges[i].id.substr(0,4)=='edge') {
      edges[i].setAttribute('class','edge');
    }
  }
}
]]></script>
        <defs>
                <circle id="rim" cx="0" cy="0" r="7"/>
                <circle id="rim2" cx="0" cy="0" r="3.5"/>
                <g id="zoomPlus">
                        <use xlink:href="#rim" fill="#404040">
                                <set attributeName="fill" to="#808080" begin="zoomplus.mouseover" end="zoomplus.mouseout"/>
                        </use>
                        <path d="M-4,0h8M0,-4v8" fill="none" stroke="white" stroke-width="1.5" pointer-events="none"/>
                </g>
                <g id="zoomMin">
                        <use xlink:href="#rim" fill="#404040">
                                <set attributeName="fill" to="#808080" begin="zoomminus.mouseover" end="zoomminus.mouseout"/>
                        </use>
                        <path d="M-4,0h8" fill="none" stroke="white" stroke-width="1.5" pointer-events="none"/>
                </g>
                <g id="dirArrow">
                        <path fill="none" stroke="white" stroke-width="1.5" d="M0,-3.0v7 M-2.5,-0.5L0,-3.0L2.5,-0.5"/>
                </g>
               <g id="resetDef">
                       <use xlink:href="#rim2" fill="#404040">
                               <set attributeName="fill" to="#808080" begin="reset.mouseover" end="reset.mouseout"/>
                       </use>
               </g>
        </defs>

<script type="text/javascript">
var viewWidth = 1696;
var viewHeight = 258;
var sectionId = 'dynsection-15';
</script>
<script xlink:href="svgpan.js"/>
<svg id="graph" class="graph">
<g id="viewport">
<title>vili::Attribute::setAnnotation</title>
<!-- Node558 -->
<g id="node1" class="node"><title>Node558</title>
<polygon fill="#bfbfbf" stroke="black" points="0,-73.5 0,-92.5 136,-92.5 136,-73.5 0,-73.5"/>
<text text-anchor="middle" x="68" y="-80.5" font-family="Helvetica,sans-Serif" font-size="10.00">vili::Attribute::setAnnotation</text>
</g>
<!-- Node559 -->
<g id="node2" class="node"><title>Node559</title>
<g id="a_node2"><a xlink:href="classvili_1_1_data_parser.html#aee1cbc0386d83924c07150644621160f" target="_top" xlink:title="vili::DataParser::parseFile">
<polygon fill="none" stroke="black" points="333,-95.5 333,-114.5 461,-114.5 461,-95.5 333,-95.5"/>
<text text-anchor="middle" x="397" y="-102.5" font-family="Helvetica,sans-Serif" font-size="10.00">vili::DataParser::parseFile</text>
</a>
</g>
</g>
<!-- Node558&#45;&gt;Node559 -->
<g id="edge1" class="edge"><title>Node558&#45;&gt;Node559</title>
<path fill="none" stroke="midnightblue" d="M146.388,-88.2065C203.291,-92.0349 279.667,-97.1733 332.889,-100.754"/>
<polygon fill="midnightblue" stroke="midnightblue" points="146.571,-84.711 136.358,-87.5317 146.101,-91.6952 146.571,-84.711"/>
</g>
<!-- Node577 -->
<g id="node20" class="node"><title>Node577</title>
<g id="a_node20"><a xlink:href="classvili_1_1_data_parser.html#a9608c9c66d1526081a5ab86045a20f1b" target="_top" xlink:title="vili::DataParser::generate\lTemplate">
<polygon fill="none" stroke="black" points="172,-112 172,-142 297,-142 297,-112 172,-112"/>
<text text-anchor="start" x="180" y="-130" font-family="Helvetica,sans-Serif" font-size="10.00">vili::DataParser::generate</text>
<text text-anchor="middle" x="234.5" y="-119" font-family="Helvetica,sans-Serif" font-size="10.00">Template</text>
</a>
</g>
</g>
<!-- Node558&#45;&gt;Node577 -->
<g id="edge26" class="edge"><title>Node558&#45;&gt;Node577</title>
<path fill="none" stroke="midnightblue" d="M114.494,-95.1687C133.893,-100.357 156.726,-106.465 177.176,-111.935"/>
<polygon fill="midnightblue" stroke="midnightblue" points="115.259,-91.7502 104.694,-92.5473 113.45,-98.5125 115.259,-91.7502"/>
</g>
<!-- Node578 -->
<g id="node21" class="node"><title>Node578</title>
<g id="a_node21"><a xlink:href="classvili_1_1_attribute.html#a5670413931810cd6d44a9e237d63c0b0" target="_top" xlink:title="vili::Attribute::~Attribute">
<polygon fill="none" stroke="black" points="175,-35.5 175,-54.5 294,-54.5 294,-35.5 175,-35.5"/>
<text text-anchor="middle" x="234.5" y="-42.5" font-family="Helvetica,sans-Serif" font-size="10.00">vili::Attribute::~Attribute</text>
</a>
</g>
</g>
<!-- Node558&#45;&gt;Node578 -->
<g id="edge28" class="edge"><title>Node558&#45;&gt;Node578</title>
<path fill="none" stroke="midnightblue" d="M120.497,-71.1039C143.62,-65.7626 170.53,-59.5463 192.288,-54.5201"/>
<polygon fill="midnightblue" stroke="midnightblue" points="119.466,-67.75 110.51,-73.411 121.042,-74.5704 119.466,-67.75"/>
</g>
<!-- Node560 -->
<g id="node3" class="node"><title>Node560</title>
<g id="a_node3"><a xlink:href="classvili_1_1_data_parser.html#aa24d18e75c36a9a848b2d2a0f14a5819" target="_top" xlink:title="vili::DataParser::DataParser">
<polygon fill="none" stroke="black" points="497,-152.5 497,-171.5 634,-171.5 634,-152.5 497,-152.5"/>
<text text-anchor="middle" x="565.5" y="-159.5" font-family="Helvetica,sans-Serif" font-size="10.00">vili::DataParser::DataParser</text>
</a>
</g>
</g>
<!-- Node559&#45;&gt;Node560 -->
<g id="edge2" class="edge"><title>Node559&#45;&gt;Node560</title>
<path fill="none" stroke="midnightblue" d="M430.463,-118.328C449.658,-125.99 474.532,-135.543 497,-143 507.052,-146.336 518.068,-149.599 528.231,-152.453"/>
<polygon fill="midnightblue" stroke="midnightblue" points="431.57,-115.001 420.986,-114.515 428.957,-121.495 431.57,-115.001"/>
</g>
<!-- Node561 -->
<g id="node4" class="node"><title>Node561</title>
<g id="a_node4"><a xlink:href="classvili_1_1_data_parser.html#a17e30ec4a5e111082ffea7ca82eb89d9" target="_top" xlink:title="vili::DataParser::includeFile">
<polygon fill="none" stroke="black" points="498.5,-76.5 498.5,-95.5 632.5,-95.5 632.5,-76.5 498.5,-76.5"/>
<text text-anchor="middle" x="565.5" y="-83.5" font-family="Helvetica,sans-Serif" font-size="10.00">vili::DataParser::includeFile</text>
</a>
</g>
</g>
<!-- Node559&#45;&gt;Node561 -->
<g id="edge3" class="edge"><title>Node559&#45;&gt;Node561</title>
<path fill="none" stroke="midnightblue" d="M442.752,-93.8306C459.854,-91.2222 479.734,-88.7674 498.411,-86.9208"/>
<polygon fill="midnightblue" stroke="midnightblue" points="441.821,-90.435 432.499,-95.4705 442.926,-97.3471 441.821,-90.435"/>
</g>
<!-- Node566 -->
<g id="node9" class="node"><title>Node566</title>
<g id="a_node9"><a xlink:href="namespaceobe_1_1_system.html#ab44a678f8f4dc351d966f90283ba67e1" target="_top" xlink:title="Function called to Mount all Paths using &#39;Mount.vili&#39; file. ">
<polygon fill="none" stroke="black" points="500,-114.5 500,-133.5 631,-133.5 631,-114.5 500,-114.5"/>
<text text-anchor="middle" x="565.5" y="-121.5" font-family="Helvetica,sans-Serif" font-size="10.00">obe::System::MountPaths</text>
</a>
</g>
</g>
<!-- Node559&#45;&gt;Node566 -->
<g id="edge10" class="edge"><title>Node559&#45;&gt;Node566</title>
<path fill="none" stroke="midnightblue" d="M471.567,-113.395C480.999,-114.471 490.599,-115.567 499.874,-116.625"/>
<polygon fill="midnightblue" stroke="midnightblue" points="471.754,-109.894 461.421,-112.237 470.96,-116.849 471.754,-109.894"/>
</g>
<!-- Node561&#45;&gt;Node559 -->
<g id="edge4" class="edge"><title>Node561&#45;&gt;Node559</title>
<path fill="none" stroke="midnightblue" d="M520.206,-97.0995C502.187,-99.8586 481.026,-102.451 461.421,-104.34"/>
<polygon fill="midnightblue" stroke="midnightblue" points="520.819,-100.546 530.138,-95.5064 519.71,-93.6343 520.819,-100.546"/>
</g>
<!-- Node562 -->
<g id="node5" class="node"><title>Node562</title>
<g id="a_node5"><a xlink:href="namespaceobe_1_1_modes.html#aba069f9abc42724d76690602326d6b7d" target="_top" xlink:title="obe::Modes::createLevel">
<polygon fill="none" stroke="black" points="670,-35.5 670,-54.5 792,-54.5 792,-35.5 670,-35.5"/>
<text text-anchor="middle" x="731" y="-42.5" font-family="Helvetica,sans-Serif" font-size="10.00">obe::Modes::createLevel</text>
</a>
</g>
</g>
<!-- Node561&#45;&gt;Node562 -->
<g id="edge5" class="edge"><title>Node561&#45;&gt;Node562</title>
<path fill="none" stroke="midnightblue" d="M614.331,-74.0058C639.073,-67.8013 668.855,-60.3331 692.002,-54.5286"/>
<polygon fill="midnightblue" stroke="midnightblue" points="613.269,-70.6634 604.421,-76.4907 614.972,-77.4532 613.269,-70.6634"/>
</g>
<!-- Node563 -->
<g id="node6" class="node"><title>Node563</title>
<g id="a_node6"><a xlink:href="namespaceobe_1_1_modes.html#a3f3265818dfb12925bf614e517346f73" target="_top" xlink:title="obe::Modes::chooseMapMenu">
<polygon fill="none" stroke="black" points="1297,-0.5 1297,-19.5 1445,-19.5 1445,-0.5 1297,-0.5"/>
<text text-anchor="middle" x="1371" y="-7.5" font-family="Helvetica,sans-Serif" font-size="10.00">obe::Modes::chooseMapMenu</text>
</a>
</g>
</g>
<!-- Node562&#45;&gt;Node563 -->
<g id="edge6" class="edge"><title>Node562&#45;&gt;Node563</title>
<path fill="none" stroke="midnightblue" d="M802.34,-41.1412C924.126,-34.4602 1173.07,-20.8036 1296.81,-14.0153"/>
<polygon fill="midnightblue" stroke="midnightblue" points="801.815,-37.6647 792.021,-41.7073 802.198,-44.6542 801.815,-37.6647"/>
</g>
<!-- Node564 -->
<g id="node7" class="node"><title>Node564</title>
<g id="a_node7"><a xlink:href="namespaceobe_1_1_modes.html#a6a8b08eee511d4895c4da96d4ba223a6" target="_top" xlink:title="obe::Modes::startDevMenu">
<polygon fill="none" stroke="black" points="1481,-37.5 1481,-56.5 1614,-56.5 1614,-37.5 1481,-37.5"/>
<text text-anchor="middle" x="1547.5" y="-44.5" font-family="Helvetica,sans-Serif" font-size="10.00">obe::Modes::startDevMenu</text>
</a>
</g>
</g>
<!-- Node563&#45;&gt;Node564 -->
<g id="edge7" class="edge"><title>Node563&#45;&gt;Node564</title>
<path fill="none" stroke="midnightblue" d="M1426.95,-21.652C1450.92,-26.7345 1478.68,-32.6199 1501.41,-37.4396"/>
<polygon fill="midnightblue" stroke="midnightblue" points="1427.45,-18.1788 1416.94,-19.5284 1425.99,-25.0266 1427.45,-18.1788"/>
</g>
<!-- Node565 -->
<g id="node8" class="node"><title>Node565</title>
<g id="a_node8"><a xlink:href="_ob_engine_8cpp.html#a3c04138a5bfe5d72780bb7e82a18e627" target="_top" xlink:title="main">
<polygon fill="none" stroke="black" points="1650,-56.5 1650,-75.5 1688,-75.5 1688,-56.5 1650,-56.5"/>
<text text-anchor="middle" x="1669" y="-63.5" font-family="Helvetica,sans-Serif" font-size="10.00">main</text>
</a>
</g>
</g>
<!-- Node563&#45;&gt;Node565 -->
<g id="edge9" class="edge"><title>Node563&#45;&gt;Node565</title>
<path fill="none" stroke="midnightblue" d="M1455.33,-5.36999C1503.07,-5.35278 1563.37,-9.87885 1614,-28 1631.05,-34.1038 1647.63,-47.1482 1657.82,-56.2409"/>
<polygon fill="midnightblue" stroke="midnightblue" points="1455.01,-1.87211 1445.03,-5.44358 1455.06,-8.87193 1455.01,-1.87211"/>
</g>
<!-- Node564&#45;&gt;Node565 -->
<g id="edge8" class="edge"><title>Node564&#45;&gt;Node565</title>
<path fill="none" stroke="midnightblue" d="M1618.82,-58.1808C1630.35,-60.0131 1641.33,-61.7591 1649.98,-63.1346"/>
<polygon fill="midnightblue" stroke="midnightblue" points="1619.03,-54.6694 1608.6,-56.5557 1617.93,-61.5826 1619.03,-54.6694"/>
</g>
<!-- Node566&#45;&gt;Node565 -->
<g id="edge11" class="edge"><title>Node566&#45;&gt;Node565</title>
<path fill="none" stroke="midnightblue" d="M613.539,-136.424C620.445,-138.483 627.438,-140.702 634,-143 749.417,-183.424 765.208,-250 887.5,-250 887.5,-250 887.5,-250 1372,-250 1487.71,-250 1525.43,-228.456 1614,-154 1640.34,-131.854 1657.55,-93.4271 1664.5,-75.5977"/>
<polygon fill="midnightblue" stroke="midnightblue" points="614.123,-132.949 603.544,-133.528 612.176,-139.673 614.123,-132.949"/>
</g>
<!-- Node567 -->
<g id="node10" class="node"><title>Node567</title>
<g id="a_node10"><a xlink:href="namespaceobe_1_1_script_1_1_core_lib.html#a474d9f2d7938ff05a78649907b8a77d3" target="_top" xlink:title="obe::Script::CoreLib\l::loadPath">
<polygon fill="none" stroke="black" points="679.5,-109 679.5,-139 782.5,-139 782.5,-109 679.5,-109"/>
<text text-anchor="start" x="687.5" y="-127" font-family="Helvetica,sans-Serif" font-size="10.00">obe::Script::CoreLib</text>
<text text-anchor="middle" x="731" y="-116" font-family="Helvetica,sans-Serif" font-size="10.00">::loadPath</text>
</a>
</g>
</g>
<!-- Node566&#45;&gt;Node567 -->
<g id="edge12" class="edge"><title>Node566&#45;&gt;Node567</title>
<path fill="none" stroke="midnightblue" d="M641.385,-124C654.278,-124 667.4,-124 679.457,-124"/>
<polygon fill="midnightblue" stroke="midnightblue" points="641.12,-120.5 631.12,-124 641.119,-127.5 641.12,-120.5"/>
</g>
<!-- Node568 -->
<g id="node11" class="node"><title>Node568</title>
<g id="a_node11"><a xlink:href="namespaceobe_1_1_script.html#a633c629c5a54da2b5d4930730983121c" target="_top" xlink:title="obe::Script::loadCoreLib">
<polygon fill="none" stroke="black" points="828,-114.5 828,-133.5 949,-133.5 949,-114.5 828,-114.5"/>
<text text-anchor="middle" x="888.5" y="-121.5" font-family="Helvetica,sans-Serif" font-size="10.00">obe::Script::loadCoreLib</text>
</a>
</g>
</g>
<!-- Node567&#45;&gt;Node568 -->
<g id="edge13" class="edge"><title>Node567&#45;&gt;Node568</title>
<path fill="none" stroke="midnightblue" d="M793.205,-124C804.592,-124 816.476,-124 827.817,-124"/>
<polygon fill="midnightblue" stroke="midnightblue" points="792.917,-120.5 782.917,-124 792.916,-127.5 792.917,-120.5"/>
</g>
<!-- Node569 -->
<g id="node12" class="node"><title>Node569</title>
<g id="a_node12"><a xlink:href="namespaceobe_1_1_script.html#a4e6ee77032cf7f66544f9b08464a60b7" target="_top" xlink:title="obe::Script::loadLib">
<polygon fill="none" stroke="black" points="985,-114.5 985,-133.5 1086,-133.5 1086,-114.5 985,-114.5"/>
<text text-anchor="middle" x="1035.5" y="-121.5" font-family="Helvetica,sans-Serif" font-size="10.00">obe::Script::loadLib</text>
</a>
</g>
</g>
<!-- Node568&#45;&gt;Node569 -->
<g id="edge14" class="edge"><title>Node568&#45;&gt;Node569</title>
<path fill="none" stroke="midnightblue" d="M959.401,-124C968.037,-124 976.723,-124 984.967,-124"/>
<polygon fill="midnightblue" stroke="midnightblue" points="959.314,-120.5 949.314,-124 959.314,-127.5 959.314,-120.5"/>
</g>
<!-- Node570 -->
<g id="node13" class="node"><title>Node570</title>
<g id="a_node13"><a xlink:href="namespaceobe_1_1_script.html#a5e992c0efb0543e7c934bc1065f08b01" target="_top" xlink:title="obe::Script::loadLibBridge">
<polygon fill="none" stroke="black" points="1127.5,-114.5 1127.5,-133.5 1255.5,-133.5 1255.5,-114.5 1127.5,-114.5"/>
<text text-anchor="middle" x="1191.5" y="-121.5" font-family="Helvetica,sans-Serif" font-size="10.00">obe::Script::loadLibBridge</text>
</a>
</g>
</g>
<!-- Node569&#45;&gt;Node570 -->
<g id="edge15" class="edge"><title>Node569&#45;&gt;Node570</title>
<path fill="none" stroke="midnightblue" d="M1096.17,-124C1106.44,-124 1117.14,-124 1127.49,-124"/>
<polygon fill="midnightblue" stroke="midnightblue" points="1096.07,-120.5 1086.07,-124 1096.07,-127.5 1096.07,-120.5"/>
</g>
<!-- Node573 -->
<g id="node16" class="node"><title>Node573</title>
<g id="a_node16"><a xlink:href="namespaceobe_1_1_script.html#aad6ef67388e6d16eb01853f208da410f" target="_top" xlink:title="obe::Script::loadBaseLib">
<polygon fill="none" stroke="black" points="1130,-76.5 1130,-95.5 1253,-95.5 1253,-76.5 1130,-76.5"/>
<text text-anchor="middle" x="1191.5" y="-83.5" font-family="Helvetica,sans-Serif" font-size="10.00">obe::Script::loadBaseLib</text>
</a>
</g>
</g>
<!-- Node569&#45;&gt;Node573 -->
<g id="edge18" class="edge"><title>Node569&#45;&gt;Node573</title>
<path fill="none" stroke="midnightblue" d="M1085.29,-111.96C1106.81,-106.651 1131.73,-100.501 1151.92,-95.5201"/>
<polygon fill="midnightblue" stroke="midnightblue" points="1084.23,-108.617 1075.36,-114.411 1085.91,-115.413 1084.23,-108.617"/>
</g>
<!-- Node574 -->
<g id="node17" class="node"><title>Node574</title>
<g id="a_node17"><a xlink:href="namespaceobe_1_1_modes.html#a1e38c0d9a2ca0230f0de79c298f53ab9" target="_top" xlink:title="A mode that will start the Toolkit. ">
<polygon fill="none" stroke="black" points="1298,-55.5 1298,-74.5 1444,-74.5 1444,-55.5 1298,-55.5"/>
<text text-anchor="middle" x="1371" y="-62.5" font-family="Helvetica,sans-Serif" font-size="10.00">obe::Modes::startToolkitMode</text>
</a>
</g>
</g>
<!-- Node569&#45;&gt;Node574 -->
<g id="edge22" class="edge"><title>Node569&#45;&gt;Node574</title>
<path fill="none" stroke="midnightblue" d="M1054.12,-107.712C1070.37,-93.8787 1095.86,-75.0297 1122,-67 1181.78,-48.6356 1253.56,-50.4667 1304.48,-55.488"/>
<polygon fill="midnightblue" stroke="midnightblue" points="1051.71,-105.172 1046.52,-114.405 1056.34,-110.428 1051.71,-105.172"/>
</g>
<!-- Node575 -->
<g id="node18" class="node"><title>Node575</title>
<g id="a_node18"><a xlink:href="classobe_1_1_world_1_1_world.html#a5bd621e3fd9293d949ad0c669cee6838" target="_top" xlink:title="obe::World::World::\lWorld">
<polygon fill="none" stroke="black" points="1320.5,-175 1320.5,-205 1421.5,-205 1421.5,-175 1320.5,-175"/>
<text text-anchor="start" x="1328.5" y="-193" font-family="Helvetica,sans-Serif" font-size="10.00">obe::World::World::</text>
<text text-anchor="middle" x="1371" y="-182" font-family="Helvetica,sans-Serif" font-size="10.00">World</text>
</a>
</g>
</g>
<!-- Node569&#45;&gt;Node575 -->
<g id="edge23" class="edge"><title>Node569&#45;&gt;Node575</title>
<path fill="none" stroke="midnightblue" d="M1051.21,-141.322C1066.79,-158.209 1093.1,-182.792 1122,-193 1187.57,-216.158 1269.11,-208.903 1320.37,-200.391"/>
<polygon fill="midnightblue" stroke="midnightblue" points="1053.72,-138.883 1044.46,-133.747 1048.5,-143.541 1053.72,-138.883"/>
</g>
<!-- Node576 -->
<g id="node19" class="node"><title>Node576</title>
<g id="a_node19"><a xlink:href="namespaceobe_1_1_world.html#afc958184e59524fdf9dc6ba98a1e9a37" target="_top" xlink:title="obe::World::loadWorldScript\lEngineBaseLib">
<polygon fill="none" stroke="black" points="1122,-153 1122,-183 1261,-183 1261,-153 1122,-153"/>
<text text-anchor="start" x="1130" y="-171" font-family="Helvetica,sans-Serif" font-size="10.00">obe::World::loadWorldScript</text>
<text text-anchor="middle" x="1191.5" y="-160" font-family="Helvetica,sans-Serif" font-size="10.00">EngineBaseLib</text>
</a>
</g>
</g>
<!-- Node569&#45;&gt;Node576 -->
<g id="edge24" class="edge"><title>Node569&#45;&gt;Node576</title>
<path fill="none" stroke="midnightblue" d="M1079.59,-136.312C1097.64,-141.469 1118.8,-147.515 1137.77,-152.935"/>
<polygon fill="midnightblue" stroke="midnightblue" points="1080.49,-132.929 1069.92,-133.547 1078.57,-139.66 1080.49,-132.929"/>
</g>
<!-- Node571 -->
<g id="node14" class="node"><title>Node571</title>
<g id="a_node14"><a xlink:href="namespaceobe_1_1_script.html#a5dc8321da50fd4b5dc2935e4d8c93a4e" target="_top" xlink:title="obe::Script::loadScrGame\lObject">
<polygon fill="none" stroke="black" points="1306.5,-112 1306.5,-142 1435.5,-142 1435.5,-112 1306.5,-112"/>
<text text-anchor="start" x="1314.5" y="-130" font-family="Helvetica,sans-Serif" font-size="10.00">obe::Script::loadScrGame</text>
<text text-anchor="middle" x="1371" y="-119" font-family="Helvetica,sans-Serif" font-size="10.00">Object</text>
</a>
</g>
</g>
<!-- Node570&#45;&gt;Node571 -->
<g id="edge16" class="edge"><title>Node570&#45;&gt;Node571</title>
<path fill="none" stroke="midnightblue" d="M1265.74,-125.238C1279.17,-125.465 1293.1,-125.7 1306.23,-125.922"/>
<polygon fill="midnightblue" stroke="midnightblue" points="1265.64,-121.736 1255.58,-125.066 1265.52,-128.735 1265.64,-121.736"/>
</g>
<!-- Node572 -->
<g id="node15" class="node"><title>Node572</title>
<g id="a_node15"><a xlink:href="classobe_1_1_script_1_1_game_object.html#aa0d58bd1ef0fa2fe9f7567729b2d291e" target="_top" xlink:title="obe::Script::GameObject\l::loadGameObject">
<polygon fill="none" stroke="black" points="1485,-114 1485,-144 1610,-144 1610,-114 1485,-114"/>
<text text-anchor="start" x="1493" y="-132" font-family="Helvetica,sans-Serif" font-size="10.00">obe::Script::GameObject</text>
<text text-anchor="middle" x="1547.5" y="-121" font-family="Helvetica,sans-Serif" font-size="10.00">::loadGameObject</text>
</a>
</g>
</g>
<!-- Node571&#45;&gt;Node572 -->
<g id="edge17" class="edge"><title>Node571&#45;&gt;Node572</title>
<path fill="none" stroke="midnightblue" d="M1446.21,-127.851C1459.09,-127.998 1472.35,-128.15 1484.85,-128.293"/>
<polygon fill="midnightblue" stroke="midnightblue" points="1446.03,-124.348 1435.99,-127.733 1445.95,-131.348 1446.03,-124.348"/>
</g>
<!-- Node573&#45;&gt;Node574 -->
<g id="edge19" class="edge"><title>Node573&#45;&gt;Node574</title>
<path fill="none" stroke="midnightblue" d="M1263.35,-77.6183C1274.66,-76.2794 1286.38,-74.8926 1297.73,-73.5499"/>
<polygon fill="midnightblue" stroke="midnightblue" points="1262.61,-74.181 1253.09,-78.8317 1263.43,-81.1325 1262.61,-74.181"/>
</g>
<!-- Node574&#45;&gt;Node564 -->
<g id="edge20" class="edge"><title>Node574&#45;&gt;Node564</title>
<path fill="none" stroke="midnightblue" d="M1454.23,-56.5182C1463.12,-55.6008 1472.08,-54.6763 1480.74,-53.7828"/>
<polygon fill="midnightblue" stroke="midnightblue" points="1453.82,-53.0411 1444.24,-57.5488 1454.54,-60.0041 1453.82,-53.0411"/>
</g>
<!-- Node574&#45;&gt;Node565 -->
<g id="edge21" class="edge"><title>Node574&#45;&gt;Node565</title>
<path fill="none" stroke="midnightblue" d="M1454.27,-65.8351C1463.29,-65.9028 1472.34,-65.9603 1481,-66 1543.01,-66.2844 1616.58,-66.1444 1649.95,-66.055"/>
<polygon fill="midnightblue" stroke="midnightblue" points="1454.14,-62.3341 1444.12,-65.7549 1454.09,-69.3339 1454.14,-62.3341"/>
</g>
<!-- Node576&#45;&gt;Node575 -->
<g id="edge25" class="edge"><title>Node576&#45;&gt;Node575</title>
<path fill="none" stroke="midnightblue" d="M1271.39,-177.778C1288,-179.837 1305.09,-181.954 1320.27,-183.836"/>
<polygon fill="midnightblue" stroke="midnightblue" points="1271.48,-174.262 1261.13,-176.506 1270.62,-181.209 1271.48,-174.262"/>
</g>
<!-- Node577&#45;&gt;Node559 -->
<g id="edge27" class="edge"><title>Node577&#45;&gt;Node559</title>
<path fill="none" stroke="midnightblue" d="M307.125,-117.182C315.742,-116.001 324.494,-114.801 332.976,-113.639"/>
<polygon fill="midnightblue" stroke="midnightblue" points="306.526,-113.731 297.094,-118.557 307.477,-120.667 306.526,-113.731"/>
</g>
</g>
</svg>
        <g id="navigator" transform="translate(0 0)" fill="#404254">
                <rect fill="#f2f5e9" fill-opacity="0.5" stroke="#606060" stroke-width=".5" x="0" y="0" width="60" height="60"/>
                <use id="zoomplus" xlink:href="#zoomPlus" x="17" y="9" onmousedown="handleZoom(evt,'in')"/>
                <use id="zoomminus" xlink:href="#zoomMin" x="42" y="9" onmousedown="handleZoom(evt,'out')"/>
                <use id="reset" xlink:href="#resetDef" x="30" y="36" onmousedown="handleReset()"/>
                <g id="arrowUp" xlink:href="#dirArrow" transform="translate(30 24)" onmousedown="handlePan(0,-1)">
                  <use xlink:href="#rim" fill="#404040">
                        <set attributeName="fill" to="#808080" begin="arrowUp.mouseover" end="arrowUp.mouseout"/>
                  </use>
                  <path fill="none" stroke="white" stroke-width="1.5" d="M0,-3.0v7 M-2.5,-0.5L0,-3.0L2.5,-0.5"/>
                </g>
                <g id="arrowRight" xlink:href="#dirArrow" transform="rotate(90) translate(36 -43)" onmousedown="handlePan(1,0)">
                  <use xlink:href="#rim" fill="#404040">
                        <set attributeName="fill" to="#808080" begin="arrowRight.mouseover" end="arrowRight.mouseout"/>
                  </use>
                  <path fill="none" stroke="white" stroke-width="1.5" d="M0,-3.0v7 M-2.5,-0.5L0,-3.0L2.5,-0.5"/>
                </g>
                <g id="arrowDown" xlink:href="#dirArrow" transform="rotate(180) translate(-30 -48)" onmousedown="handlePan(0,1)">
                  <use xlink:href="#rim" fill="#404040">
                        <set attributeName="fill" to="#808080" begin="arrowDown.mouseover" end="arrowDown.mouseout"/>
                  </use>
                  <path fill="none" stroke="white" stroke-width="1.5" d="M0,-3.0v7 M-2.5,-0.5L0,-3.0L2.5,-0.5"/>
                </g>
                <g id="arrowLeft" xlink:href="#dirArrow" transform="rotate(270) translate(-36 17)" onmousedown="handlePan(-1,0)">
                  <use xlink:href="#rim" fill="#404040">
                        <set attributeName="fill" to="#808080" begin="arrowLeft.mouseover" end="arrowLeft.mouseout"/>
                  </use>
                  <path fill="none" stroke="white" stroke-width="1.5" d="M0,-3.0v7 M-2.5,-0.5L0,-3.0L2.5,-0.5"/>
                </g>
        </g>
        <svg viewBox="0 0 15 15" width="100%" height="30px" preserveAspectRatio="xMaxYMin meet">
         <g id="arrow_out" transform="scale(0.3 0.3)">
          <a xlink:href="classvili_1_1_attribute_a490ff36ab123ac9563f6da00bf6dc0e8_icgraph_org.svg" target="_base">
           <rect id="button" ry="5" rx="5" y="6" x="6" height="38" width="38"
                fill="#f2f5e9" fill-opacity="0.5" stroke="#606060" stroke-width="1.0"/>
           <path id="arrow"
             d="M 11.500037,31.436501 C 11.940474,20.09759 22.043105,11.32322 32.158766,21.979434 L 37.068811,17.246167 C 37.068811,17.246167 37.088388,32 37.088388,32 L 22.160133,31.978069 C 22.160133,31.978069 26.997745,27.140456 26.997745,27.140456 C 18.528582,18.264221 13.291696,25.230495 11.500037,31.436501 z"
             style="fill:#404040;"/>
          </a>
         </g>
        </svg>
</svg>
