<?xml version="1.0" encoding="UTF-8" standalone="no"?>
<!DOCTYPE svg PUBLIC "-//W3C//DTD SVG 1.1//EN"
 "http://www.w3.org/Graphics/SVG/1.1/DTD/svg11.dtd">
<!-- Generated by graphviz version 2.38.0 (20140413.2041)
 -->
<!-- Title: vili::ComplexNode::heritage Pages: 1 -->
<svg width="569pt" height="399pt"
 viewBox="0.00 0.00 569.00 398.50" xmlns="http://www.w3.org/2000/svg" xmlns:xlink="http://www.w3.org/1999/xlink">
<g id="graph0" class="graph" transform="scale(1 1) rotate(0) translate(4 394.5)">
<title>vili::ComplexNode::heritage</title>
<!-- Node966 -->
<g id="node1" class="node"><title>Node966</title>
<polygon fill="#bfbfbf" stroke="black" points="0,-71 0,-101 100,-101 100,-71 0,-71"/>
<text text-anchor="start" x="8" y="-89" font-family="Helvetica,sans-Serif" font-size="10.00">vili::ComplexNode::</text>
<text text-anchor="middle" x="50" y="-78" font-family="Helvetica,sans-Serif" font-size="10.00">heritage</text>
</g>
<!-- Node967 -->
<g id="node2" class="node"><title>Node967</title>
<g id="a_node2"><a xlink:href="classvili_1_1_complex_node.html#a550584eb0dc76bbcb50e35182ac308cd" target="_top" xlink:title="Get all the Node Ids of the given Type contained in the ComplexNode. ">
<polygon fill="white" stroke="black" points="142.5,-153 142.5,-183 242.5,-183 242.5,-153 142.5,-153"/>
<text text-anchor="start" x="150.5" y="-171" font-family="Helvetica,sans-Serif" font-size="10.00">vili::ComplexNode::</text>
<text text-anchor="middle" x="192.5" y="-160" font-family="Helvetica,sans-Serif" font-size="10.00">getAll</text>
</a>
</g>
</g>
<!-- Node966&#45;&gt;Node967 -->
<g id="edge1" class="edge"><title>Node966&#45;&gt;Node967</title>
<path fill="none" stroke="midnightblue" d="M71.3456,-101.058C88.1938,-113.176 113.011,-130.232 136,-143 139.436,-144.908 143.044,-146.789 146.703,-148.611"/>
<polygon fill="midnightblue" stroke="midnightblue" points="145.302,-151.821 155.832,-153 148.335,-145.513 145.302,-151.821"/>
</g>
<!-- Node968 -->
<g id="node3" class="node"><title>Node968</title>
<g id="a_node3"><a xlink:href="classvili_1_1_complex_node.html#adcc73a585ffb995e8e9a668830c10c8c" target="_top" xlink:title="Get raw non&#45;casted Node pointer by id. ">
<polygon fill="white" stroke="black" points="136,-114.5 136,-133.5 249,-133.5 249,-114.5 136,-114.5"/>
<text text-anchor="middle" x="192.5" y="-121.5" font-family="Helvetica,sans-Serif" font-size="10.00">vili::ComplexNode::get</text>
</a>
</g>
</g>
<!-- Node966&#45;&gt;Node968 -->
<g id="edge2" class="edge"><title>Node966&#45;&gt;Node968</title>
<path fill="none" stroke="midnightblue" d="M100.14,-99.2906C115.185,-103.36 131.655,-107.814 146.416,-111.806"/>
<polygon fill="midnightblue" stroke="midnightblue" points="145.757,-115.254 156.324,-114.486 147.584,-108.497 145.757,-115.254"/>
</g>
<!-- Node976 -->
<g id="node11" class="node"><title>Node976</title>
<g id="a_node11"><a xlink:href="classvili_1_1_node.html#ab03908ab3d62e3bfddaf9e7306fdf3b3" target="_top" xlink:title="Gets the id of the Node. ">
<polygon fill="white" stroke="black" points="458.5,-48.5 458.5,-67.5 541.5,-67.5 541.5,-48.5 458.5,-48.5"/>
<text text-anchor="middle" x="500" y="-55.5" font-family="Helvetica,sans-Serif" font-size="10.00">vili::Node::getId</text>
</a>
</g>
</g>
<!-- Node966&#45;&gt;Node976 -->
<g id="edge15" class="edge"><title>Node966&#45;&gt;Node976</title>
<path fill="none" stroke="midnightblue" d="M100.225,-82.9234C185.847,-77.5721 361.331,-66.6043 448.105,-61.1809"/>
<polygon fill="midnightblue" stroke="midnightblue" points="448.473,-64.6648 458.236,-60.5478 448.037,-57.6785 448.473,-64.6648"/>
</g>
<!-- Node979 -->
<g id="node14" class="node"><title>Node979</title>
<g id="a_node14"><a xlink:href="classvili_1_1_node.html#acb14e48c6734307180af119401103894" target="_top" xlink:title="Copies the Node into a new ContainerNode (Abstract method, must be implemented by derived nodes) ...">
<polygon fill="white" stroke="black" points="151,-38.5 151,-57.5 234,-57.5 234,-38.5 151,-38.5"/>
<text text-anchor="middle" x="192.5" y="-45.5" font-family="Helvetica,sans-Serif" font-size="10.00">vili::Node::copy</text>
</a>
</g>
</g>
<!-- Node966&#45;&gt;Node979 -->
<g id="edge13" class="edge"><title>Node966&#45;&gt;Node979</title>
<path fill="none" stroke="midnightblue" d="M100.14,-72.7094C115.185,-68.6403 131.655,-64.186 146.416,-60.1936"/>
<polygon fill="midnightblue" stroke="midnightblue" points="147.584,-63.5034 156.324,-57.5139 145.757,-56.7462 147.584,-63.5034"/>
</g>
<!-- Node980 -->
<g id="node15" class="node"><title>Node980</title>
<g id="a_node15"><a xlink:href="classvili_1_1_node.html#a7bb541d854deec79487aed0a4184de8e" target="_top" xlink:title="Sets if the Node should be visible or not (Visible means it exists in the dumped file) ...">
<polygon fill="white" stroke="black" points="140.5,-0.5 140.5,-19.5 244.5,-19.5 244.5,-0.5 140.5,-0.5"/>
<text text-anchor="middle" x="192.5" y="-7.5" font-family="Helvetica,sans-Serif" font-size="10.00">vili::Node::setVisible</text>
</a>
</g>
</g>
<!-- Node966&#45;&gt;Node980 -->
<g id="edge14" class="edge"><title>Node966&#45;&gt;Node980</title>
<path fill="none" stroke="midnightblue" d="M70.3693,-70.8644C87.0435,-58.3732 112.122,-40.8385 136,-29 140.28,-26.878 144.855,-24.8958 149.473,-23.0733"/>
<polygon fill="midnightblue" stroke="midnightblue" points="150.774,-26.3237 158.932,-19.5633 148.339,-19.761 150.774,-26.3237"/>
</g>
<!-- Node969 -->
<g id="node4" class="node"><title>Node969</title>
<g id="a_node4"><a xlink:href="classaube_1_1_error_handler.html#a7c8d44a3e7f019646d289950abc5301b" target="_top" xlink:title="Raises an Error loaded in the Aube Error Database (AED) ">
<polygon fill="white" stroke="black" points="295,-262 295,-292 393,-292 393,-262 295,-262"/>
<text text-anchor="start" x="303" y="-280" font-family="Helvetica,sans-Serif" font-size="10.00">aube::ErrorHandler</text>
<text text-anchor="middle" x="344" y="-269" font-family="Helvetica,sans-Serif" font-size="10.00">::Raise</text>
</a>
</g>
</g>
<!-- Node968&#45;&gt;Node969 -->
<g id="edge3" class="edge"><title>Node968&#45;&gt;Node969</title>
<path fill="none" stroke="midnightblue" d="M230.077,-133.572C236.753,-136.293 243.377,-139.719 249,-144 287.606,-173.391 316.692,-223.14 331.674,-252.748"/>
<polygon fill="midnightblue" stroke="midnightblue" points="328.651,-254.532 336.208,-261.958 334.932,-251.441 328.651,-254.532"/>
</g>
<!-- Node974 -->
<g id="node9" class="node"><title>Node974</title>
<g id="a_node9"><a xlink:href="classvili_1_1_node.html#a5a6ad518f51d824e06ae7be0328f4864" target="_top" xlink:title="Get the Node Path (Example : GrandParent/Parent/Node) ">
<polygon fill="white" stroke="black" points="285,-114.5 285,-133.5 403,-133.5 403,-114.5 285,-114.5"/>
<text text-anchor="middle" x="344" y="-121.5" font-family="Helvetica,sans-Serif" font-size="10.00">vili::Node::getNodePath</text>
</a>
</g>
</g>
<!-- Node968&#45;&gt;Node974 -->
<g id="edge8" class="edge"><title>Node968&#45;&gt;Node974</title>
<path fill="none" stroke="midnightblue" d="M249.168,-124C257.431,-124 266.027,-124 274.515,-124"/>
<polygon fill="midnightblue" stroke="midnightblue" points="274.785,-127.5 284.785,-124 274.785,-120.5 274.785,-127.5"/>
</g>
<!-- Node970 -->
<g id="node5" class="node"><title>Node970</title>
<g id="a_node5"><a xlink:href="classaube_1_1_error_message.html#a3a39b6fcd8fdb12eaf6383123535b8ca" target="_top" xlink:title="Gets the File where is located the ErrorMessage when raised. ">
<polygon fill="white" stroke="black" points="448,-360 448,-390 552,-390 552,-360 448,-360"/>
<text text-anchor="start" x="456" y="-378" font-family="Helvetica,sans-Serif" font-size="10.00">aube::ErrorMessage</text>
<text text-anchor="middle" x="500" y="-367" font-family="Helvetica,sans-Serif" font-size="10.00">::getFile</text>
</a>
</g>
</g>
<!-- Node969&#45;&gt;Node970 -->
<g id="edge4" class="edge"><title>Node969&#45;&gt;Node970</title>
<path fill="none" stroke="midnightblue" d="M361.266,-292.202C379.222,-308.387 409.503,-333.966 439,-351 441.817,-352.627 444.767,-354.193 447.781,-355.692"/>
<polygon fill="midnightblue" stroke="midnightblue" points="446.415,-358.917 456.957,-359.978 449.377,-352.575 446.415,-358.917"/>
</g>
<!-- Node971 -->
<g id="node6" class="node"><title>Node971</title>
<g id="a_node6"><a xlink:href="classaube_1_1_error_message.html#a9184cc96589578f434351c105b0cd5f7" target="_top" xlink:title="Gets the location of the error in the code. ">
<polygon fill="white" stroke="black" points="448,-311 448,-341 552,-341 552,-311 448,-311"/>
<text text-anchor="start" x="456" y="-329" font-family="Helvetica,sans-Serif" font-size="10.00">aube::ErrorMessage</text>
<text text-anchor="middle" x="500" y="-318" font-family="Helvetica,sans-Serif" font-size="10.00">::getLocation</text>
</a>
</g>
</g>
<!-- Node969&#45;&gt;Node971 -->
<g id="edge5" class="edge"><title>Node969&#45;&gt;Node971</title>
<path fill="none" stroke="midnightblue" d="M392.462,-292.101C408.05,-297.062 425.543,-302.627 441.778,-307.793"/>
<polygon fill="midnightblue" stroke="midnightblue" points="441.105,-311.252 451.695,-310.948 443.227,-304.581 441.105,-311.252"/>
</g>
<!-- Node972 -->
<g id="node7" class="node"><title>Node972</title>
<g id="a_node7"><a xlink:href="classaube_1_1_error_message.html#a07927cb3e2d0712c459cc9e2b5f52696" target="_top" xlink:title="Gets the message displayed by the ErrorMessage when raised. ">
<polygon fill="white" stroke="black" points="448,-262 448,-292 552,-292 552,-262 448,-262"/>
<text text-anchor="start" x="456" y="-280" font-family="Helvetica,sans-Serif" font-size="10.00">aube::ErrorMessage</text>
<text text-anchor="middle" x="500" y="-269" font-family="Helvetica,sans-Serif" font-size="10.00">::getMessage</text>
</a>
</g>
</g>
<!-- Node969&#45;&gt;Node972 -->
<g id="edge6" class="edge"><title>Node969&#45;&gt;Node972</title>
<path fill="none" stroke="midnightblue" d="M393.304,-277C407.423,-277 423.044,-277 437.848,-277"/>
<polygon fill="midnightblue" stroke="midnightblue" points="437.938,-280.5 447.938,-277 437.938,-273.5 437.938,-280.5"/>
</g>
<!-- Node973 -->
<g id="node8" class="node"><title>Node973</title>
<g id="a_node8"><a xlink:href="classaube_1_1_error_message.html#a77c2f9b7e93542c958173b52da267989" target="_top" xlink:title="Gets hints that can help the error resolution. ">
<polygon fill="white" stroke="black" points="448,-213 448,-243 552,-243 552,-213 448,-213"/>
<text text-anchor="start" x="456" y="-231" font-family="Helvetica,sans-Serif" font-size="10.00">aube::ErrorMessage</text>
<text text-anchor="middle" x="500" y="-220" font-family="Helvetica,sans-Serif" font-size="10.00">::getHints</text>
</a>
</g>
</g>
<!-- Node969&#45;&gt;Node973 -->
<g id="edge7" class="edge"><title>Node969&#45;&gt;Node973</title>
<path fill="none" stroke="midnightblue" d="M392.462,-261.899C408.05,-256.938 425.543,-251.373 441.778,-246.207"/>
<polygon fill="midnightblue" stroke="midnightblue" points="443.227,-249.419 451.695,-243.052 441.105,-242.748 443.227,-249.419"/>
</g>
<!-- Node975 -->
<g id="node10" class="node"><title>Node975</title>
<g id="a_node10"><a xlink:href="classvili_1_1_node.html#a58273048e22a9ebd74e576fd8905f709" target="_top" xlink:title="vili::Node::getParent">
<polygon fill="white" stroke="black" points="448,-174.5 448,-193.5 552,-193.5 552,-174.5 448,-174.5"/>
<text text-anchor="middle" x="500" y="-181.5" font-family="Helvetica,sans-Serif" font-size="10.00">vili::Node::getParent</text>
</a>
</g>
</g>
<!-- Node974&#45;&gt;Node975 -->
<g id="edge9" class="edge"><title>Node974&#45;&gt;Node975</title>
<path fill="none" stroke="midnightblue" d="M365.284,-133.582C384.153,-142.319 413.163,-155.305 439,-165 444.702,-167.139 450.765,-169.248 456.761,-171.238"/>
<polygon fill="midnightblue" stroke="midnightblue" points="456.123,-174.71 466.715,-174.458 458.278,-168.05 456.123,-174.71"/>
</g>
<!-- Node974&#45;&gt;Node976 -->
<g id="edge10" class="edge"><title>Node974&#45;&gt;Node976</title>
<path fill="none" stroke="midnightblue" d="M370.51,-114.445C380.769,-110.345 392.606,-105.285 403,-100 419.714,-91.5004 421.996,-85.9045 439,-78 444.422,-75.4796 450.252,-73.1265 456.071,-70.9836"/>
<polygon fill="midnightblue" stroke="midnightblue" points="457.499,-74.1919 465.78,-67.5832 455.185,-67.5854 457.499,-74.1919"/>
</g>
<!-- Node977 -->
<g id="node12" class="node"><title>Node977</title>
<g id="a_node12"><a xlink:href="classvili_1_1_node.html#ad3c91cfe2721eaf9841721d1ec8ee0d8" target="_top" xlink:title="Gets the Node annotation. ">
<polygon fill="white" stroke="black" points="439,-136.5 439,-155.5 561,-155.5 561,-136.5 439,-136.5"/>
<text text-anchor="middle" x="500" y="-143.5" font-family="Helvetica,sans-Serif" font-size="10.00">vili::Node::getAnnotation</text>
</a>
</g>
</g>
<!-- Node974&#45;&gt;Node977 -->
<g id="edge11" class="edge"><title>Node974&#45;&gt;Node977</title>
<path fill="none" stroke="midnightblue" d="M403.221,-132.317C411.608,-133.515 420.312,-134.759 428.9,-135.986"/>
<polygon fill="midnightblue" stroke="midnightblue" points="428.509,-139.465 438.903,-137.415 429.499,-132.536 428.509,-139.465"/>
</g>
<!-- Node978 -->
<g id="node13" class="node"><title>Node978</title>
<g id="a_node13"><a xlink:href="namespacevili_1_1_functions_1_1_vector.html#a10836e1fe04648534cfc59d9de9acd72" target="_top" xlink:title="vili::Functions::Vector\l::join">
<polygon fill="white" stroke="black" points="445,-87 445,-117 555,-117 555,-87 445,-87"/>
<text text-anchor="start" x="453" y="-105" font-family="Helvetica,sans-Serif" font-size="10.00">vili::Functions::Vector</text>
<text text-anchor="middle" x="500" y="-94" font-family="Helvetica,sans-Serif" font-size="10.00">::join</text>
</a>
</g>
</g>
<!-- Node974&#45;&gt;Node978 -->
<g id="edge12" class="edge"><title>Node974&#45;&gt;Node978</title>
<path fill="none" stroke="midnightblue" d="M403.221,-115.683C413.548,-114.207 424.356,-112.663 434.837,-111.166"/>
<polygon fill="midnightblue" stroke="midnightblue" points="435.355,-114.628 444.76,-109.749 434.365,-107.698 435.355,-114.628"/>
</g>
</g>
</svg>
