<?xml version="1.0" encoding="UTF-8" standalone="no"?>
<!DOCTYPE svg PUBLIC "-//W3C//DTD SVG 1.1//EN"
 "http://www.w3.org/Graphics/SVG/1.1/DTD/svg11.dtd">
<!-- Generated by graphviz version 2.38.0 (20140413.2041)
 -->
<!-- Title: obe::Graphics::LevelSprite::setLayer Pages: 1 -->
<!--zoomable 236 -->
<svg id="main" version="1.1" xmlns="http://www.w3.org/2000/svg" xmlns:xlink="http://www.w3.org/1999/xlink" xml:space="preserve" onload="init(evt)">
<style type="text/css"><![CDATA[
.edge:hover path { stroke: red; }
.edge:hover polygon { stroke: red; fill: red; }
.edge path { stroke: white; }
.edge polygon { stroke: white; fill: white; }
.node polygon { fill: white; }
]]></style>
<script type="text/javascript"><![CDATA[
var edges = document.getElementsByTagName('g');
if (edges && edges.length) {
  for (var i=0;i<edges.length;i++) {
    if (edges[i].id.substr(0,4)=='edge') {
      edges[i].setAttribute('class','edge');
    }
  }
}
]]></script>
        <defs>
                <circle id="rim" cx="0" cy="0" r="7"/>
                <circle id="rim2" cx="0" cy="0" r="3.5"/>
                <g id="zoomPlus">
                        <use xlink:href="#rim" fill="#404040">
                                <set attributeName="fill" to="#808080" begin="zoomplus.mouseover" end="zoomplus.mouseout"/>
                        </use>
                        <path d="M-4,0h8M0,-4v8" fill="none" stroke="white" stroke-width="1.5" pointer-events="none"/>
                </g>
                <g id="zoomMin">
                        <use xlink:href="#rim" fill="#404040">
                                <set attributeName="fill" to="#808080" begin="zoomminus.mouseover" end="zoomminus.mouseout"/>
                        </use>
                        <path d="M-4,0h8" fill="none" stroke="white" stroke-width="1.5" pointer-events="none"/>
                </g>
                <g id="dirArrow">
                        <path fill="none" stroke="white" stroke-width="1.5" d="M0,-3.0v7 M-2.5,-0.5L0,-3.0L2.5,-0.5"/>
                </g>
               <g id="resetDef">
                       <use xlink:href="#rim2" fill="#404040">
                               <set attributeName="fill" to="#808080" begin="reset.mouseover" end="reset.mouseout"/>
                       </use>
               </g>
        </defs>

<script type="text/javascript">
var viewWidth = 1100;
var viewHeight = 236;
var sectionId = 'dynsection-32';
</script>
<script xlink:href="svgpan.js"/>
<svg id="graph" class="graph">
<g id="viewport">
<title>obe::Graphics::LevelSprite::setLayer</title>
<!-- Node253 -->
<g id="node1" class="node"><title>Node253</title>
<polygon fill="#bfbfbf" stroke="black" points="0,-113.272 0,-143.272 131,-143.272 131,-113.272 0,-113.272"/>
<text text-anchor="start" x="8" y="-131.272" font-family="Helvetica,sans-Serif" font-size="10.00">obe::Graphics::LevelSprite</text>
<text text-anchor="middle" x="65.5" y="-120.272" font-family="Helvetica,sans-Serif" font-size="10.00">::setLayer</text>
</g>
<!-- Node254 -->
<g id="node2" class="node"><title>Node254</title>
<g id="a_node2"><a xlink:href="namespaceobe_1_1_bindings_1_1_graphics_bindings.html#a93b97087ade5cb2fd2956ea6a4bc10d3" target="_top" xlink:title="obe::Bindings::GraphicsBindings\l::LoadLevelSprite">
<polygon fill="none" stroke="black" points="334,-197.272 334,-227.272 492,-227.272 492,-197.272 334,-197.272"/>
<text text-anchor="start" x="342" y="-215.272" font-family="Helvetica,sans-Serif" font-size="10.00">obe::Bindings::GraphicsBindings</text>
<text text-anchor="middle" x="413" y="-204.272" font-family="Helvetica,sans-Serif" font-size="10.00">::LoadLevelSprite</text>
</a>
</g>
</g>
<!-- Node253&#45;&gt;Node254 -->
<g id="edge1" class="edge"><title>Node253&#45;&gt;Node254</title>
<path fill="none" stroke="midnightblue" d="M138.072,-145.673C200.677,-160.893 290.659,-182.77 350.185,-197.243"/>
<polygon fill="midnightblue" stroke="midnightblue" points="138.812,-142.251 128.268,-143.289 137.159,-149.053 138.812,-142.251"/>
</g>
<!-- Node257 -->
<g id="node5" class="node"><title>Node257</title>
<g id="a_node5"><a xlink:href="namespaceobe_1_1_editor.html#a4513c77341144adcdbdf7114e1f6f605" target="_top" xlink:title="obe::Editor::connectSprite\lLayerActions">
<polygon fill="none" stroke="black" points="167.5,-53.2716 167.5,-83.2716 297.5,-83.2716 297.5,-53.2716 167.5,-53.2716"/>
<text text-anchor="start" x="175.5" y="-71.2716" font-family="Helvetica,sans-Serif" font-size="10.00">obe::Editor::connectSprite</text>
<text text-anchor="middle" x="232.5" y="-60.2716" font-family="Helvetica,sans-Serif" font-size="10.00">LayerActions</text>
</a>
</g>
</g>
<!-- Node253&#45;&gt;Node257 -->
<g id="edge4" class="edge"><title>Node253&#45;&gt;Node257</title>
<path fill="none" stroke="midnightblue" d="M117.842,-109.602C141.104,-101.143 168.24,-91.2751 190.163,-83.3033"/>
<polygon fill="midnightblue" stroke="midnightblue" points="116.338,-106.424 108.136,-113.131 118.731,-113.003 116.338,-106.424"/>
</g>
<!-- Node260 -->
<g id="node8" class="node"><title>Node260</title>
<g id="a_node8"><a xlink:href="classobe_1_1_graphics_1_1_level_sprite.html#ac4a8697938de0df0fa4f8997ff74251e" target="_top" xlink:title="Configures the LevelSprite with the given ComplexNode. ">
<polygon fill="none" stroke="black" points="167,-113.272 167,-143.272 298,-143.272 298,-113.272 167,-113.272"/>
<text text-anchor="start" x="175" y="-131.272" font-family="Helvetica,sans-Serif" font-size="10.00">obe::Graphics::LevelSprite</text>
<text text-anchor="middle" x="232.5" y="-120.272" font-family="Helvetica,sans-Serif" font-size="10.00">::configure</text>
</a>
</g>
</g>
<!-- Node253&#45;&gt;Node260 -->
<g id="edge9" class="edge"><title>Node253&#45;&gt;Node260</title>
<path fill="none" stroke="midnightblue" d="M141.239,-128.272C149.821,-128.272 158.516,-128.272 166.948,-128.272"/>
<polygon fill="midnightblue" stroke="midnightblue" points="141.239,-124.772 131.239,-128.272 141.239,-131.772 141.239,-124.772"/>
</g>
<!-- Node255 -->
<g id="node3" class="node"><title>Node255</title>
<g id="a_node3"><a xlink:href="namespaceobe_1_1_bindings.html#a41d33207a0199f125c75a0f70a4a3ba8" target="_top" xlink:title="To call when the engine starts, indexes all Lua bindings. ">
<polygon fill="none" stroke="black" points="875,-172.772 875,-191.772 1018,-191.772 1018,-172.772 875,-172.772"/>
<text text-anchor="middle" x="946.5" y="-179.772" font-family="Helvetica,sans-Serif" font-size="10.00">obe::Bindings::IndexBindings</text>
</a>
</g>
</g>
<!-- Node254&#45;&gt;Node255 -->
<g id="edge2" class="edge"><title>Node254&#45;&gt;Node255</title>
<path fill="none" stroke="midnightblue" d="M502.268,-216.336C588.473,-219.056 723.222,-219.983 839,-206.272 863.468,-203.374 890.549,-197.23 911.28,-191.884"/>
<polygon fill="midnightblue" stroke="midnightblue" points="502.371,-212.837 492.261,-216.005 502.14,-219.833 502.371,-212.837"/>
</g>
<!-- Node256 -->
<g id="node4" class="node"><title>Node256</title>
<g id="a_node4"><a xlink:href="_ob_engine_8cpp.html#a3c04138a5bfe5d72780bb7e82a18e627" target="_top" xlink:title="main">
<polygon fill="none" stroke="black" points="1054,-84.7716 1054,-103.772 1092,-103.772 1092,-84.7716 1054,-84.7716"/>
<text text-anchor="middle" x="1073" y="-91.7716" font-family="Helvetica,sans-Serif" font-size="10.00">main</text>
</a>
</g>
</g>
<!-- Node255&#45;&gt;Node256 -->
<g id="edge3" class="edge"><title>Node255&#45;&gt;Node256</title>
<path fill="none" stroke="midnightblue" d="M986.898,-168.925C997.473,-164.448 1008.58,-158.88 1018,-152.272 1037.6,-138.524 1055.5,-116.67 1064.96,-104.08"/>
<polygon fill="midnightblue" stroke="midnightblue" points="985.382,-165.761 977.399,-172.727 987.984,-172.26 985.382,-165.761"/>
</g>
<!-- Node258 -->
<g id="node6" class="node"><title>Node258</title>
<g id="a_node6"><a xlink:href="namespaceobe_1_1_editor.html#a9009207671e71dccb68a31ea2362e9ef" target="_top" xlink:title="Starts the map edition. ">
<polygon fill="none" stroke="black" points="540,-38.7716 540,-57.7716 644,-57.7716 644,-38.7716 540,-38.7716"/>
<text text-anchor="middle" x="592" y="-45.7716" font-family="Helvetica,sans-Serif" font-size="10.00">obe::Editor::editMap</text>
</a>
</g>
</g>
<!-- Node257&#45;&gt;Node258 -->
<g id="edge5" class="edge"><title>Node257&#45;&gt;Node258</title>
<path fill="none" stroke="midnightblue" d="M307.832,-64.1132C377.301,-60.2268 479.171,-54.5278 539.912,-51.1297"/>
<polygon fill="midnightblue" stroke="midnightblue" points="307.616,-60.6197 297.827,-64.6729 308.007,-67.6088 307.616,-60.6197"/>
</g>
<!-- Node258&#45;&gt;Node256 -->
<g id="edge8" class="edge"><title>Node258&#45;&gt;Node256</title>
<path fill="none" stroke="midnightblue" d="M631.046,-35.7552C708.198,-12.6623 886.861,29.0439 1018,-31.2716 1042.08,-42.3474 1059.44,-70.0476 1067.3,-84.7529"/>
<polygon fill="midnightblue" stroke="midnightblue" points="629.82,-32.47 621.282,-38.7422 631.868,-39.1638 629.82,-32.47"/>
</g>
<!-- Node259 -->
<g id="node7" class="node"><title>Node259</title>
<g id="a_node7"><a xlink:href="namespaceobe_1_1_modes.html#a6a8b08eee511d4895c4da96d4ba223a6" target="_top" xlink:title="Starts the development Menu where you can starts other menus from. ">
<polygon fill="none" stroke="black" points="880,-40.7716 880,-59.7716 1013,-59.7716 1013,-40.7716 880,-40.7716"/>
<text text-anchor="middle" x="946.5" y="-47.7716" font-family="Helvetica,sans-Serif" font-size="10.00">obe::Modes::startDevMenu</text>
</a>
</g>
</g>
<!-- Node258&#45;&gt;Node259 -->
<g id="edge6" class="edge"><title>Node258&#45;&gt;Node259</title>
<path fill="none" stroke="midnightblue" d="M654.45,-48.6203C717.488,-48.9779 815.205,-49.5323 879.763,-49.8986"/>
<polygon fill="midnightblue" stroke="midnightblue" points="654.276,-45.1193 644.257,-48.5624 654.236,-52.1192 654.276,-45.1193"/>
</g>
<!-- Node259&#45;&gt;Node256 -->
<g id="edge7" class="edge"><title>Node259&#45;&gt;Node256</title>
<path fill="none" stroke="midnightblue" d="M997.735,-62.6798C1004.6,-64.7038 1011.52,-66.9163 1018,-69.2716 1030.23,-73.7157 1043.51,-79.8414 1053.83,-84.9167"/>
<polygon fill="midnightblue" stroke="midnightblue" points="998.338,-59.2129 987.763,-59.8545 996.43,-65.9478 998.338,-59.2129"/>
</g>
<!-- Node261 -->
<g id="node9" class="node"><title>Node261</title>
<g id="a_node9"><a xlink:href="classobe_1_1_scene_1_1_scene.html#a385bccf95deb10358169dffe5547e567" target="_top" xlink:title="Loads the Scene from a .map.vili file. ">
<polygon fill="none" stroke="black" points="360,-124.272 360,-154.272 466,-154.272 466,-124.272 360,-124.272"/>
<text text-anchor="start" x="368" y="-142.272" font-family="Helvetica,sans-Serif" font-size="10.00">obe::Scene::Scene::</text>
<text text-anchor="middle" x="413" y="-131.272" font-family="Helvetica,sans-Serif" font-size="10.00">loadFromFile</text>
</a>
</g>
</g>
<!-- Node260&#45;&gt;Node261 -->
<g id="edge10" class="edge"><title>Node260&#45;&gt;Node261</title>
<path fill="none" stroke="midnightblue" d="M308.291,-132.881C325.619,-133.948 343.695,-135.062 359.81,-136.055"/>
<polygon fill="midnightblue" stroke="midnightblue" points="308.391,-129.38 298.195,-132.258 307.961,-136.367 308.391,-129.38"/>
</g>
<!-- Node268 -->
<g id="node16" class="node"><title>Node268</title>
<g id="a_node16"><a xlink:href="classobe_1_1_script_1_1_game_object.html#a1cfdaac0ab4bd6ce11b4ccba4b2f0a52" target="_top" xlink:title="Loads the GameObject through the GameObject Definition File. ">
<polygon fill="none" stroke="black" points="350.5,-75.2716 350.5,-105.272 475.5,-105.272 475.5,-75.2716 350.5,-75.2716"/>
<text text-anchor="start" x="358.5" y="-93.2716" font-family="Helvetica,sans-Serif" font-size="10.00">obe::Script::GameObject</text>
<text text-anchor="middle" x="413" y="-82.2716" font-family="Helvetica,sans-Serif" font-size="10.00">::loadGameObject</text>
</a>
</g>
</g>
<!-- Node260&#45;&gt;Node268 -->
<g id="edge21" class="edge"><title>Node260&#45;&gt;Node268</title>
<path fill="none" stroke="midnightblue" d="M308.26,-112.356C322.228,-109.383 336.683,-106.305 350.206,-103.427"/>
<polygon fill="midnightblue" stroke="midnightblue" points="307.247,-108.993 298.195,-114.499 308.705,-115.84 307.247,-108.993"/>
</g>
<!-- Node261&#45;&gt;Node258 -->
<g id="edge11" class="edge"><title>Node261&#45;&gt;Node258</title>
<path fill="none" stroke="midnightblue" d="M475.721,-122.852C481.408,-120.352 486.931,-117.505 492,-114.272 511.888,-101.586 508.735,-88.8841 528,-75.2716 538.204,-68.0614 550.636,-62.2236 561.752,-57.8454"/>
<polygon fill="midnightblue" stroke="midnightblue" points="474.018,-119.765 466.044,-126.74 476.628,-126.26 474.018,-119.765"/>
</g>
<!-- Node262 -->
<g id="node10" class="node"><title>Node262</title>
<g id="a_node10"><a xlink:href="classobe_1_1_scene_1_1_scene.html#a99bd0a38bd93c1ca105c34bb04776f47" target="_top" xlink:title="Updates all elements in the Scene. ">
<polygon fill="none" stroke="black" points="539,-124.272 539,-154.272 645,-154.272 645,-124.272 539,-124.272"/>
<text text-anchor="start" x="547" y="-142.272" font-family="Helvetica,sans-Serif" font-size="10.00">obe::Scene::Scene::</text>
<text text-anchor="middle" x="592" y="-131.272" font-family="Helvetica,sans-Serif" font-size="10.00">update</text>
</a>
</g>
</g>
<!-- Node261&#45;&gt;Node262 -->
<g id="edge12" class="edge"><title>Node261&#45;&gt;Node262</title>
<path fill="none" stroke="midnightblue" d="M476.32,-139.272C496.783,-139.272 519.297,-139.272 538.919,-139.272"/>
<polygon fill="midnightblue" stroke="midnightblue" points="476.149,-135.772 466.149,-139.272 476.148,-142.772 476.149,-135.772"/>
</g>
<!-- Node265 -->
<g id="node13" class="node"><title>Node265</title>
<g id="a_node13"><a xlink:href="namespaceobe_1_1_scene.html#ac23b5fc14866394c89a820ce6badc130" target="_top" xlink:title="obe::Scene::loadWorldLib">
<polygon fill="none" stroke="black" points="528,-84.7716 528,-103.772 656,-103.772 656,-84.7716 528,-84.7716"/>
<text text-anchor="middle" x="592" y="-91.7716" font-family="Helvetica,sans-Serif" font-size="10.00">obe::Scene::loadWorldLib</text>
</a>
</g>
</g>
<!-- Node261&#45;&gt;Node265 -->
<g id="edge18" class="edge"><title>Node261&#45;&gt;Node265</title>
<path fill="none" stroke="midnightblue" d="M475.885,-123.538C501.771,-116.957 531.006,-109.524 553.537,-103.796"/>
<polygon fill="midnightblue" stroke="midnightblue" points="474.978,-120.157 466.149,-126.014 476.703,-126.942 474.978,-120.157"/>
</g>
<!-- Node263 -->
<g id="node11" class="node"><title>Node263</title>
<g id="a_node11"><a xlink:href="namespaceobe_1_1_bindings_1_1_scene_bindings.html#af7c6cb8cc46286eba7ddbe55ffe7d296" target="_top" xlink:title="obe::Bindings::SceneBindings\l::LoadScene">
<polygon fill="none" stroke="black" points="692,-167.272 692,-197.272 839,-197.272 839,-167.272 692,-167.272"/>
<text text-anchor="start" x="700" y="-185.272" font-family="Helvetica,sans-Serif" font-size="10.00">obe::Bindings::SceneBindings</text>
<text text-anchor="middle" x="765.5" y="-174.272" font-family="Helvetica,sans-Serif" font-size="10.00">::LoadScene</text>
</a>
</g>
</g>
<!-- Node262&#45;&gt;Node263 -->
<g id="edge13" class="edge"><title>Node262&#45;&gt;Node263</title>
<path fill="none" stroke="midnightblue" d="M655.238,-154.876C671.344,-158.915 688.649,-163.254 704.631,-167.261"/>
<polygon fill="midnightblue" stroke="midnightblue" points="655.939,-151.444 645.388,-152.407 654.236,-158.234 655.939,-151.444"/>
</g>
<!-- Node264 -->
<g id="node12" class="node"><title>Node264</title>
<g id="a_node12"><a xlink:href="namespaceobe_1_1_modes.html#a5f4a1008892030350b06282b8dee1a89" target="_top" xlink:title="Start the game by loading the boot.lua file in one of the MountedPaths. ">
<polygon fill="none" stroke="black" points="706,-128.772 706,-147.772 825,-147.772 825,-128.772 706,-128.772"/>
<text text-anchor="middle" x="765.5" y="-135.772" font-family="Helvetica,sans-Serif" font-size="10.00">obe::Modes::startGame</text>
</a>
</g>
</g>
<!-- Node262&#45;&gt;Node264 -->
<g id="edge15" class="edge"><title>Node262&#45;&gt;Node264</title>
<path fill="none" stroke="midnightblue" d="M655.449,-138.907C671.905,-138.812 689.599,-138.708 705.847,-138.614"/>
<polygon fill="midnightblue" stroke="midnightblue" points="655.367,-135.408 645.388,-138.966 655.408,-142.408 655.367,-135.408"/>
</g>
<!-- Node263&#45;&gt;Node255 -->
<g id="edge14" class="edge"><title>Node263&#45;&gt;Node255</title>
<path fill="none" stroke="midnightblue" d="M849.102,-182.272C857.716,-182.272 866.416,-182.272 874.88,-182.272"/>
<polygon fill="midnightblue" stroke="midnightblue" points="849.048,-178.772 839.048,-182.272 849.048,-185.772 849.048,-178.772"/>
</g>
<!-- Node264&#45;&gt;Node256 -->
<g id="edge17" class="edge"><title>Node264&#45;&gt;Node256</title>
<path fill="none" stroke="midnightblue" d="M835.368,-139.025C886.494,-138.093 957.532,-133.634 1018,-118.272 1030.73,-115.038 1044.23,-109.038 1054.55,-103.847"/>
<polygon fill="midnightblue" stroke="midnightblue" points="835.044,-135.53 825.094,-139.17 835.143,-142.529 835.044,-135.53"/>
</g>
<!-- Node264&#45;&gt;Node259 -->
<g id="edge16" class="edge"><title>Node264&#45;&gt;Node259</title>
<path fill="none" stroke="midnightblue" d="M827.215,-124.936C831.355,-123.006 835.332,-120.798 839,-118.272 861.255,-102.942 852.7,-84.5348 875,-69.2716 880.649,-65.4054 887.051,-62.3248 893.638,-59.8705"/>
<polygon fill="midnightblue" stroke="midnightblue" points="825.878,-121.702 817.952,-128.732 828.532,-128.179 825.878,-121.702"/>
</g>
<!-- Node266 -->
<g id="node14" class="node"><title>Node266</title>
<g id="a_node14"><a xlink:href="namespaceobe_1_1_scene.html#ae5cbcc3278d9115d603e5024dec9136e" target="_top" xlink:title="obe::Scene::loadWorldScript\lEngineBaseLib">
<polygon fill="none" stroke="black" points="695,-79.2716 695,-109.272 836,-109.272 836,-79.2716 695,-79.2716"/>
<text text-anchor="start" x="703" y="-97.2716" font-family="Helvetica,sans-Serif" font-size="10.00">obe::Scene::loadWorldScript</text>
<text text-anchor="middle" x="765.5" y="-86.2716" font-family="Helvetica,sans-Serif" font-size="10.00">EngineBaseLib</text>
</a>
</g>
</g>
<!-- Node265&#45;&gt;Node266 -->
<g id="edge19" class="edge"><title>Node265&#45;&gt;Node266</title>
<path fill="none" stroke="midnightblue" d="M666.456,-94.2716C675.841,-94.2716 685.427,-94.2716 694.751,-94.2716"/>
<polygon fill="midnightblue" stroke="midnightblue" points="666.373,-90.7717 656.373,-94.2716 666.373,-97.7717 666.373,-90.7717"/>
</g>
<!-- Node267 -->
<g id="node15" class="node"><title>Node267</title>
<g id="a_node15"><a xlink:href="classobe_1_1_scene_1_1_scene.html#a6671ed54f3898e54a2814d58ec8ffec5" target="_top" xlink:title="Creates a new Scene. ">
<polygon fill="none" stroke="black" points="893.5,-79.2716 893.5,-109.272 999.5,-109.272 999.5,-79.2716 893.5,-79.2716"/>
<text text-anchor="start" x="901.5" y="-97.2716" font-family="Helvetica,sans-Serif" font-size="10.00">obe::Scene::Scene::</text>
<text text-anchor="middle" x="946.5" y="-86.2716" font-family="Helvetica,sans-Serif" font-size="10.00">Scene</text>
</a>
</g>
</g>
<!-- Node266&#45;&gt;Node267 -->
<g id="edge20" class="edge"><title>Node266&#45;&gt;Node267</title>
<path fill="none" stroke="midnightblue" d="M846.585,-94.2716C862.48,-94.2716 878.776,-94.2716 893.436,-94.2716"/>
<polygon fill="midnightblue" stroke="midnightblue" points="846.219,-90.7717 836.219,-94.2716 846.219,-97.7717 846.219,-90.7717"/>
</g>
</g>
</svg>
        <g id="navigator" transform="translate(0 0)" fill="#404254">
                <rect fill="#f2f5e9" fill-opacity="0.5" stroke="#606060" stroke-width=".5" x="0" y="0" width="60" height="60"/>
                <use id="zoomplus" xlink:href="#zoomPlus" x="17" y="9" onmousedown="handleZoom(evt,'in')"/>
                <use id="zoomminus" xlink:href="#zoomMin" x="42" y="9" onmousedown="handleZoom(evt,'out')"/>
                <use id="reset" xlink:href="#resetDef" x="30" y="36" onmousedown="handleReset()"/>
                <g id="arrowUp" xlink:href="#dirArrow" transform="translate(30 24)" onmousedown="handlePan(0,-1)">
                  <use xlink:href="#rim" fill="#404040">
                        <set attributeName="fill" to="#808080" begin="arrowUp.mouseover" end="arrowUp.mouseout"/>
                  </use>
                  <path fill="none" stroke="white" stroke-width="1.5" d="M0,-3.0v7 M-2.5,-0.5L0,-3.0L2.5,-0.5"/>
                </g>
                <g id="arrowRight" xlink:href="#dirArrow" transform="rotate(90) translate(36 -43)" onmousedown="handlePan(1,0)">
                  <use xlink:href="#rim" fill="#404040">
                        <set attributeName="fill" to="#808080" begin="arrowRight.mouseover" end="arrowRight.mouseout"/>
                  </use>
                  <path fill="none" stroke="white" stroke-width="1.5" d="M0,-3.0v7 M-2.5,-0.5L0,-3.0L2.5,-0.5"/>
                </g>
                <g id="arrowDown" xlink:href="#dirArrow" transform="rotate(180) translate(-30 -48)" onmousedown="handlePan(0,1)">
                  <use xlink:href="#rim" fill="#404040">
                        <set attributeName="fill" to="#808080" begin="arrowDown.mouseover" end="arrowDown.mouseout"/>
                  </use>
                  <path fill="none" stroke="white" stroke-width="1.5" d="M0,-3.0v7 M-2.5,-0.5L0,-3.0L2.5,-0.5"/>
                </g>
                <g id="arrowLeft" xlink:href="#dirArrow" transform="rotate(270) translate(-36 17)" onmousedown="handlePan(-1,0)">
                  <use xlink:href="#rim" fill="#404040">
                        <set attributeName="fill" to="#808080" begin="arrowLeft.mouseover" end="arrowLeft.mouseout"/>
                  </use>
                  <path fill="none" stroke="white" stroke-width="1.5" d="M0,-3.0v7 M-2.5,-0.5L0,-3.0L2.5,-0.5"/>
                </g>
        </g>
        <svg viewBox="0 0 15 15" width="100%" height="30px" preserveAspectRatio="xMaxYMin meet">
         <g id="arrow_out" transform="scale(0.3 0.3)">
          <a xlink:href="classobe_1_1_graphics_1_1_level_sprite_ab7409d0f3b9575ecfea03dceab194601_icgraph_org.svg" target="_base">
           <rect id="button" ry="5" rx="5" y="6" x="6" height="38" width="38"
                fill="#f2f5e9" fill-opacity="0.5" stroke="#606060" stroke-width="1.0"/>
           <path id="arrow"
             d="M 11.500037,31.436501 C 11.940474,20.09759 22.043105,11.32322 32.158766,21.979434 L 37.068811,17.246167 C 37.068811,17.246167 37.088388,32 37.088388,32 L 22.160133,31.978069 C 22.160133,31.978069 26.997745,27.140456 26.997745,27.140456 C 18.528582,18.264221 13.291696,25.230495 11.500037,31.436501 z"
             style="fill:#404040;"/>
          </a>
         </g>
        </svg>
</svg>
