<?xml version="1.0" encoding="UTF-8" standalone="no"?>
<!DOCTYPE svg PUBLIC "-//W3C//DTD SVG 1.1//EN"
 "http://www.w3.org/Graphics/SVG/1.1/DTD/svg11.dtd">
<!-- Generated by graphviz version 2.38.0 (20140413.2041)
 -->
<!-- Title: ziputils::zipper::close Pages: 1 -->
<svg width="260pt" height="78pt"
 viewBox="0.00 0.00 260.00 77.50" xmlns="http://www.w3.org/2000/svg" xmlns:xlink="http://www.w3.org/1999/xlink">
<g id="graph0" class="graph" transform="scale(1 1) rotate(0) translate(4 73.5)">
<title>ziputils::zipper::close</title>
<!-- Node20 -->
<g id="node1" class="node"><title>Node20</title>
<polygon fill="#bfbfbf" stroke="black" points="0,-22.5 0,-41.5 109,-41.5 109,-22.5 0,-22.5"/>
<text text-anchor="middle" x="54.5" y="-29.5" font-family="Helvetica,sans-Serif" font-size="10.00">ziputils::zipper::close</text>
</g>
<!-- Node21 -->
<g id="node2" class="node"><title>Node21</title>
<g id="a_node2"><a xlink:href="classziputils_1_1zipper.html#acf3a9aac7000e7508b08fc86f8727954" target="_top" xlink:title="ziputils::zipper::\l~zipper">
<polygon fill="white" stroke="black" points="155.5,-39 155.5,-69 241.5,-69 241.5,-39 155.5,-39"/>
<text text-anchor="start" x="163.5" y="-57" font-family="Helvetica,sans-Serif" font-size="10.00">ziputils::zipper::</text>
<text text-anchor="middle" x="198.5" y="-46" font-family="Helvetica,sans-Serif" font-size="10.00">~zipper</text>
</a>
</g>
</g>
<!-- Node20&#45;&gt;Node21 -->
<g id="edge1" class="edge"><title>Node20&#45;&gt;Node21</title>
<path fill="none" stroke="midnightblue" d="M119.314,-41.8867C131.491,-43.7732 143.953,-45.7039 155.247,-47.4537"/>
<polygon fill="midnightblue" stroke="midnightblue" points="119.602,-38.3896 109.184,-40.3173 118.53,-45.3071 119.602,-38.3896"/>
</g>
<!-- Node22 -->
<g id="node3" class="node"><title>Node22</title>
<g id="a_node3"><a xlink:href="classziputils_1_1zipper.html#a13953a5320cb837212e4ce59420f1cae" target="_top" xlink:title="ziputils::zipper::open">
<polygon fill="white" stroke="black" points="145,-0.5 145,-19.5 252,-19.5 252,-0.5 145,-0.5"/>
<text text-anchor="middle" x="198.5" y="-7.5" font-family="Helvetica,sans-Serif" font-size="10.00">ziputils::zipper::open</text>
</a>
</g>
</g>
<!-- Node20&#45;&gt;Node22 -->
<g id="edge2" class="edge"><title>Node20&#45;&gt;Node22</title>
<path fill="none" stroke="midnightblue" d="M119.118,-22.1437C127.662,-20.8199 136.351,-19.4738 144.681,-18.1832"/>
<polygon fill="midnightblue" stroke="midnightblue" points="118.53,-18.6929 109.184,-23.6827 119.602,-25.6104 118.53,-18.6929"/>
</g>
</g>
</svg>
