<?xml version="1.0" encoding="UTF-8" standalone="no"?>
<!DOCTYPE svg PUBLIC "-//W3C//DTD SVG 1.1//EN"
 "http://www.w3.org/Graphics/SVG/1.1/DTD/svg11.dtd">
<!-- Generated by graphviz version 2.38.0 (20140413.2041)
 -->
<!-- Title: obe::Sound::SoundWrapper::load Pages: 1 -->
<svg width="586pt" height="200pt"
 viewBox="0.00 0.00 586.00 199.50" xmlns="http://www.w3.org/2000/svg" xmlns:xlink="http://www.w3.org/1999/xlink">
<g id="graph0" class="graph" transform="scale(1 1) rotate(0) translate(4 195.5)">
<title>obe::Sound::SoundWrapper::load</title>
<!-- Node15 -->
<g id="node1" class="node"><title>Node15</title>
<polygon fill="#bfbfbf" stroke="black" points="0,-97.5 0,-127.5 137,-127.5 137,-97.5 0,-97.5"/>
<text text-anchor="start" x="8" y="-115.5" font-family="Helvetica,sans-Serif" font-size="10.00">obe::Sound::SoundWrapper</text>
<text text-anchor="middle" x="68.5" y="-104.5" font-family="Helvetica,sans-Serif" font-size="10.00">::load</text>
</g>
<!-- Node16 -->
<g id="node2" class="node"><title>Node16</title>
<g id="a_node2"><a xlink:href="namespaceobe_1_1_script_1_1_core_lib.html#a90640a9a9da1a14786a445076cf66f5b" target="_top" xlink:title="obe::Script::CoreLib\l::loadSound">
<polygon fill="white" stroke="black" points="173.5,-122.5 173.5,-152.5 276.5,-152.5 276.5,-122.5 173.5,-122.5"/>
<text text-anchor="start" x="181.5" y="-140.5" font-family="Helvetica,sans-Serif" font-size="10.00">obe::Script::CoreLib</text>
<text text-anchor="middle" x="225" y="-129.5" font-family="Helvetica,sans-Serif" font-size="10.00">::loadSound</text>
</a>
</g>
</g>
<!-- Node15&#45;&gt;Node16 -->
<g id="edge1" class="edge"><title>Node15&#45;&gt;Node16</title>
<path fill="none" stroke="midnightblue" d="M137.266,-123.465C146.007,-124.88 154.913,-126.321 163.526,-127.715"/>
<polygon fill="midnightblue" stroke="midnightblue" points="163.045,-131.182 173.476,-129.325 164.164,-124.272 163.045,-131.182"/>
</g>
<!-- Node24 -->
<g id="node10" class="node"><title>Node24</title>
<g id="a_node10"><a xlink:href="classobe_1_1_system_1_1_path.html#a096ad4fa7397aa42fd73661b08f50e2a" target="_top" xlink:title="obe::System::Path::\lloadResource">
<polygon fill="white" stroke="black" points="173,-73.5 173,-103.5 277,-103.5 277,-73.5 173,-73.5"/>
<text text-anchor="start" x="181" y="-91.5" font-family="Helvetica,sans-Serif" font-size="10.00">obe::System::Path::</text>
<text text-anchor="middle" x="225" y="-80.5" font-family="Helvetica,sans-Serif" font-size="10.00">loadResource</text>
</a>
</g>
</g>
<!-- Node15&#45;&gt;Node24 -->
<g id="edge9" class="edge"><title>Node15&#45;&gt;Node24</title>
<path fill="none" stroke="midnightblue" d="M137.266,-101.973C145.682,-100.666 154.25,-99.335 162.563,-98.0437"/>
<polygon fill="midnightblue" stroke="midnightblue" points="163.204,-101.486 172.549,-96.4924 162.13,-94.569 163.204,-101.486"/>
</g>
<!-- Node17 -->
<g id="node3" class="node"><title>Node17</title>
<g id="a_node3"><a xlink:href="namespaceobe_1_1_script.html#a9582bae7b61bf604c2a68a8a016356ec" target="_top" xlink:title="obe::Script::registerLib">
<polygon fill="white" stroke="black" points="318,-172 318,-191 433,-191 433,-172 318,-172"/>
<text text-anchor="middle" x="375.5" y="-179" font-family="Helvetica,sans-Serif" font-size="10.00">obe::Script::registerLib</text>
</a>
</g>
</g>
<!-- Node16&#45;&gt;Node17 -->
<g id="edge2" class="edge"><title>Node16&#45;&gt;Node17</title>
<path fill="none" stroke="midnightblue" d="M276.69,-152.519C294.811,-157.888 315.021,-163.877 332.345,-169.01"/>
<polygon fill="midnightblue" stroke="midnightblue" points="331.591,-172.437 342.173,-171.922 333.58,-165.725 331.591,-172.437"/>
</g>
<!-- Node18 -->
<g id="node4" class="node"><title>Node18</title>
<g id="a_node4"><a xlink:href="namespaceobe_1_1_utils_1_1_vector.html#a964ff22524706c50e054f29d98b8ba6d" target="_top" xlink:title="Join all elements of a std::string into a std::string using a separator. ">
<polygon fill="white" stroke="black" points="329.5,-122.5 329.5,-152.5 421.5,-152.5 421.5,-122.5 329.5,-122.5"/>
<text text-anchor="start" x="337.5" y="-140.5" font-family="Helvetica,sans-Serif" font-size="10.00">obe::Utils::Vector</text>
<text text-anchor="middle" x="375.5" y="-129.5" font-family="Helvetica,sans-Serif" font-size="10.00">::join</text>
</a>
</g>
</g>
<!-- Node16&#45;&gt;Node18 -->
<g id="edge3" class="edge"><title>Node16&#45;&gt;Node18</title>
<path fill="none" stroke="midnightblue" d="M276.69,-137.5C290.215,-137.5 304.903,-137.5 318.687,-137.5"/>
<polygon fill="midnightblue" stroke="midnightblue" points="319.017,-141 329.017,-137.5 319.017,-134 319.017,-141"/>
</g>
<!-- Node19 -->
<g id="node5" class="node"><title>Node19</title>
<g id="a_node5"><a xlink:href="classaube_1_1_error_handler.html#a7c8d44a3e7f019646d289950abc5301b" target="_top" xlink:title="aube::ErrorHandler\l::Raise">
<polygon fill="white" stroke="black" points="326.5,-73.5 326.5,-103.5 424.5,-103.5 424.5,-73.5 326.5,-73.5"/>
<text text-anchor="start" x="334.5" y="-91.5" font-family="Helvetica,sans-Serif" font-size="10.00">aube::ErrorHandler</text>
<text text-anchor="middle" x="375.5" y="-80.5" font-family="Helvetica,sans-Serif" font-size="10.00">::Raise</text>
</a>
</g>
</g>
<!-- Node16&#45;&gt;Node19 -->
<g id="edge4" class="edge"><title>Node16&#45;&gt;Node19</title>
<path fill="none" stroke="midnightblue" d="M271.767,-122.399C286.799,-117.438 303.667,-111.873 319.321,-106.707"/>
<polygon fill="midnightblue" stroke="midnightblue" points="320.485,-110.009 328.885,-103.552 318.291,-103.361 320.485,-110.009"/>
</g>
<!-- Node20 -->
<g id="node6" class="node"><title>Node20</title>
<g id="a_node6"><a xlink:href="classaube_1_1_error_message.html#a3a39b6fcd8fdb12eaf6383123535b8ca" target="_top" xlink:title="aube::ErrorMessage\l::getFile">
<polygon fill="white" stroke="black" points="474,-147.5 474,-177.5 578,-177.5 578,-147.5 474,-147.5"/>
<text text-anchor="start" x="482" y="-165.5" font-family="Helvetica,sans-Serif" font-size="10.00">aube::ErrorMessage</text>
<text text-anchor="middle" x="526" y="-154.5" font-family="Helvetica,sans-Serif" font-size="10.00">::getFile</text>
</a>
</g>
</g>
<!-- Node19&#45;&gt;Node20 -->
<g id="edge5" class="edge"><title>Node19&#45;&gt;Node20</title>
<path fill="none" stroke="midnightblue" d="M417.119,-103.523C424.206,-106.563 431.413,-109.931 438,-113.5 455.127,-122.78 457.128,-128.763 474,-138.5 476.503,-139.944 479.107,-141.375 481.756,-142.776"/>
<polygon fill="midnightblue" stroke="midnightblue" points="480.35,-145.987 490.85,-147.399 483.522,-139.747 480.35,-145.987"/>
</g>
<!-- Node21 -->
<g id="node7" class="node"><title>Node21</title>
<g id="a_node7"><a xlink:href="classaube_1_1_error_message.html#a9184cc96589578f434351c105b0cd5f7" target="_top" xlink:title="aube::ErrorMessage\l::getLocation">
<polygon fill="white" stroke="black" points="474,-98.5 474,-128.5 578,-128.5 578,-98.5 474,-98.5"/>
<text text-anchor="start" x="482" y="-116.5" font-family="Helvetica,sans-Serif" font-size="10.00">aube::ErrorMessage</text>
<text text-anchor="middle" x="526" y="-105.5" font-family="Helvetica,sans-Serif" font-size="10.00">::getLocation</text>
</a>
</g>
</g>
<!-- Node19&#45;&gt;Node21 -->
<g id="edge6" class="edge"><title>Node19&#45;&gt;Node21</title>
<path fill="none" stroke="midnightblue" d="M424.714,-96.6168C437.266,-98.73 450.956,-101.035 464.072,-103.243"/>
<polygon fill="midnightblue" stroke="midnightblue" points="463.519,-106.699 473.961,-104.908 464.681,-99.796 463.519,-106.699"/>
</g>
<!-- Node22 -->
<g id="node8" class="node"><title>Node22</title>
<g id="a_node8"><a xlink:href="classaube_1_1_error_message.html#a07927cb3e2d0712c459cc9e2b5f52696" target="_top" xlink:title="aube::ErrorMessage\l::getMessage">
<polygon fill="white" stroke="black" points="474,-49.5 474,-79.5 578,-79.5 578,-49.5 474,-49.5"/>
<text text-anchor="start" x="482" y="-67.5" font-family="Helvetica,sans-Serif" font-size="10.00">aube::ErrorMessage</text>
<text text-anchor="middle" x="526" y="-56.5" font-family="Helvetica,sans-Serif" font-size="10.00">::getMessage</text>
</a>
</g>
</g>
<!-- Node19&#45;&gt;Node22 -->
<g id="edge7" class="edge"><title>Node19&#45;&gt;Node22</title>
<path fill="none" stroke="midnightblue" d="M424.714,-80.7079C437.266,-78.6792 450.956,-76.4668 464.072,-74.347"/>
<polygon fill="midnightblue" stroke="midnightblue" points="464.648,-77.7994 473.961,-72.7487 463.531,-70.8891 464.648,-77.7994"/>
</g>
<!-- Node23 -->
<g id="node9" class="node"><title>Node23</title>
<g id="a_node9"><a xlink:href="classaube_1_1_error_message.html#a77c2f9b7e93542c958173b52da267989" target="_top" xlink:title="aube::ErrorMessage\l::getHints">
<polygon fill="white" stroke="black" points="474,-0.5 474,-30.5 578,-30.5 578,-0.5 474,-0.5"/>
<text text-anchor="start" x="482" y="-18.5" font-family="Helvetica,sans-Serif" font-size="10.00">aube::ErrorMessage</text>
<text text-anchor="middle" x="526" y="-7.5" font-family="Helvetica,sans-Serif" font-size="10.00">::getHints</text>
</a>
</g>
</g>
<!-- Node19&#45;&gt;Node23 -->
<g id="edge8" class="edge"><title>Node19&#45;&gt;Node23</title>
<path fill="none" stroke="midnightblue" d="M417.063,-73.372C424.156,-70.3437 431.38,-67.0062 438,-63.5 454.994,-54.5001 457.254,-48.9532 474,-39.5 476.642,-38.0087 479.391,-36.5267 482.184,-35.0735"/>
<polygon fill="midnightblue" stroke="midnightblue" points="483.81,-38.1737 491.172,-30.5546 480.665,-31.9197 483.81,-38.1737"/>
</g>
<!-- Node24&#45;&gt;Node19 -->
<g id="edge11" class="edge"><title>Node24&#45;&gt;Node19</title>
<path fill="none" stroke="midnightblue" d="M277.105,-88.5C289.683,-88.5 303.246,-88.5 316.138,-88.5"/>
<polygon fill="midnightblue" stroke="midnightblue" points="316.302,-92.0001 326.302,-88.5 316.302,-85.0001 316.302,-92.0001"/>
</g>
<!-- Node25 -->
<g id="node11" class="node"><title>Node25</title>
<g id="a_node11"><a xlink:href="namespaceobe_1_1_utils_1_1_file.html#a1095626f5495edc7b8692073dd25cceb" target="_top" xlink:title="Check if the file at the given path exists. ">
<polygon fill="white" stroke="black" points="313,-35 313,-54 438,-54 438,-35 313,-35"/>
<text text-anchor="middle" x="375.5" y="-42" font-family="Helvetica,sans-Serif" font-size="10.00">obe::Utils::File::fileExists</text>
</a>
</g>
</g>
<!-- Node24&#45;&gt;Node25 -->
<g id="edge10" class="edge"><title>Node24&#45;&gt;Node25</title>
<path fill="none" stroke="midnightblue" d="M276.69,-73.4808C294.811,-68.1115 315.021,-62.1234 332.345,-56.9905"/>
<polygon fill="midnightblue" stroke="midnightblue" points="333.58,-60.275 342.173,-54.0783 331.591,-53.5634 333.58,-60.275"/>
</g>
</g>
</svg>
