<?xml version="1.0" encoding="UTF-8" standalone="no"?>
<!DOCTYPE svg PUBLIC "-//W3C//DTD SVG 1.1//EN"
 "http://www.w3.org/Graphics/SVG/1.1/DTD/svg11.dtd">
<!-- Generated by graphviz version 2.38.0 (20140413.2041)
 -->
<!-- Title: vili::ViliParser::hasFlag Pages: 1 -->
<svg width="546pt" height="39pt"
 viewBox="0.00 0.00 546.00 39.00" xmlns="http://www.w3.org/2000/svg" xmlns:xlink="http://www.w3.org/1999/xlink">
<g id="graph0" class="graph" transform="scale(1 1) rotate(0) translate(4 35)">
<title>vili::ViliParser::hasFlag</title>
<!-- Node261 -->
<g id="node1" class="node"><title>Node261</title>
<polygon fill="#bfbfbf" stroke="black" points="0,-6 0,-25 116,-25 116,-6 0,-6"/>
<text text-anchor="middle" x="58" y="-13" font-family="Helvetica,sans-Serif" font-size="10.00">vili::ViliParser::hasFlag</text>
</g>
<!-- Node262 -->
<g id="node2" class="node"><title>Node262</title>
<g id="a_node2"><a xlink:href="namespaceobe_1_1_bindings_1_1_vili_bindings.html#a2a6e6e94c5f087a6db0ede8023deb0c8" target="_top" xlink:title="obe::Bindings::ViliBindings\l::LoadViliViliParser">
<polygon fill="white" stroke="black" points="152,-0.5 152,-30.5 285,-30.5 285,-0.5 152,-0.5"/>
<text text-anchor="start" x="160" y="-18.5" font-family="Helvetica,sans-Serif" font-size="10.00">obe::Bindings::ViliBindings</text>
<text text-anchor="middle" x="218.5" y="-7.5" font-family="Helvetica,sans-Serif" font-size="10.00">::LoadViliViliParser</text>
</a>
</g>
</g>
<!-- Node261&#45;&gt;Node262 -->
<g id="edge1" class="edge"><title>Node261&#45;&gt;Node262</title>
<path fill="none" stroke="midnightblue" d="M126.362,-15.5C134.77,-15.5 143.361,-15.5 151.745,-15.5"/>
<polygon fill="midnightblue" stroke="midnightblue" points="126.222,-12.0001 116.222,-15.5 126.222,-19.0001 126.222,-12.0001"/>
</g>
<!-- Node263 -->
<g id="node3" class="node"><title>Node263</title>
<g id="a_node3"><a xlink:href="namespaceobe_1_1_bindings.html#a41d33207a0199f125c75a0f70a4a3ba8" target="_top" xlink:title="To call when the engine starts, indexes all Lua bindings. ">
<polygon fill="white" stroke="black" points="321,-6 321,-25 464,-25 464,-6 321,-6"/>
<text text-anchor="middle" x="392.5" y="-13" font-family="Helvetica,sans-Serif" font-size="10.00">obe::Bindings::IndexBindings</text>
</a>
</g>
</g>
<!-- Node262&#45;&gt;Node263 -->
<g id="edge2" class="edge"><title>Node262&#45;&gt;Node263</title>
<path fill="none" stroke="midnightblue" d="M295.254,-15.5C303.721,-15.5 312.321,-15.5 320.722,-15.5"/>
<polygon fill="midnightblue" stroke="midnightblue" points="295.017,-12.0001 285.016,-15.5 295.016,-19.0001 295.017,-12.0001"/>
</g>
<!-- Node264 -->
<g id="node4" class="node"><title>Node264</title>
<g id="a_node4"><a xlink:href="_ob_engine_8cpp.html#a3c04138a5bfe5d72780bb7e82a18e627" target="_top" xlink:title="main">
<polygon fill="white" stroke="black" points="500,-6 500,-25 538,-25 538,-6 500,-6"/>
<text text-anchor="middle" x="519" y="-13" font-family="Helvetica,sans-Serif" font-size="10.00">main</text>
</a>
</g>
</g>
<!-- Node263&#45;&gt;Node264 -->
<g id="edge3" class="edge"><title>Node263&#45;&gt;Node264</title>
<path fill="none" stroke="midnightblue" d="M474.161,-15.5C483.623,-15.5 492.462,-15.5 499.688,-15.5"/>
<polygon fill="midnightblue" stroke="midnightblue" points="474.117,-12.0001 464.117,-15.5 474.117,-19.0001 474.117,-12.0001"/>
</g>
</g>
</svg>
