<?xml version="1.0" encoding="UTF-8" standalone="no"?>
<!DOCTYPE svg PUBLIC "-//W3C//DTD SVG 1.1//EN"
 "http://www.w3.org/Graphics/SVG/1.1/DTD/svg11.dtd">
<!-- Generated by graphviz version 2.38.0 (20140413.2041)
 -->
<!-- Title: obe::Transform::UnitBasedObject::resetUnit Pages: 1 -->
<!--zoomable 195 -->
<svg id="main" version="1.1" xmlns="http://www.w3.org/2000/svg" xmlns:xlink="http://www.w3.org/1999/xlink" xml:space="preserve" onload="init(evt)">
<style type="text/css"><![CDATA[
.edge:hover path { stroke: red; }
.edge:hover polygon { stroke: red; fill: red; }
.edge path { stroke: white; }
.edge polygon { stroke: white; fill: white; }
.node polygon { fill: white; }
]]></style>
<script type="text/javascript"><![CDATA[
var edges = document.getElementsByTagName('g');
if (edges && edges.length) {
  for (var i=0;i<edges.length;i++) {
    if (edges[i].id.substr(0,4)=='edge') {
      edges[i].setAttribute('class','edge');
    }
  }
}
]]></script>
        <defs>
                <circle id="rim" cx="0" cy="0" r="7"/>
                <circle id="rim2" cx="0" cy="0" r="3.5"/>
                <g id="zoomPlus">
                        <use xlink:href="#rim" fill="#404040">
                                <set attributeName="fill" to="#808080" begin="zoomplus.mouseover" end="zoomplus.mouseout"/>
                        </use>
                        <path d="M-4,0h8M0,-4v8" fill="none" stroke="white" stroke-width="1.5" pointer-events="none"/>
                </g>
                <g id="zoomMin">
                        <use xlink:href="#rim" fill="#404040">
                                <set attributeName="fill" to="#808080" begin="zoomminus.mouseover" end="zoomminus.mouseout"/>
                        </use>
                        <path d="M-4,0h8" fill="none" stroke="white" stroke-width="1.5" pointer-events="none"/>
                </g>
                <g id="dirArrow">
                        <path fill="none" stroke="white" stroke-width="1.5" d="M0,-3.0v7 M-2.5,-0.5L0,-3.0L2.5,-0.5"/>
                </g>
               <g id="resetDef">
                       <use xlink:href="#rim2" fill="#404040">
                               <set attributeName="fill" to="#808080" begin="reset.mouseover" end="reset.mouseout"/>
                       </use>
               </g>
        </defs>

<script type="text/javascript">
var viewWidth = 1260;
var viewHeight = 195;
var sectionId = 'dynsection-2';
</script>
<script xlink:href="svgpan.js"/>
<svg id="graph" class="graph">
<g id="viewport">
<title>obe::Transform::UnitBasedObject::resetUnit</title>
<!-- Node8 -->
<g id="node1" class="node"><title>Node8</title>
<polygon fill="#bfbfbf" stroke="black" points="0,-28.5 0,-58.5 132,-58.5 132,-28.5 0,-28.5"/>
<text text-anchor="start" x="8" y="-46.5" font-family="Helvetica,sans-Serif" font-size="10.00">obe::Transform::UnitBased</text>
<text text-anchor="middle" x="66" y="-35.5" font-family="Helvetica,sans-Serif" font-size="10.00">Object::resetUnit</text>
</g>
<!-- Node9 -->
<g id="node2" class="node"><title>Node9</title>
<g id="a_node2"><a xlink:href="classobe_1_1_transform_1_1_unit_based_object.html#ac4427aced4e62a7ef95323316483e43b" target="_top" xlink:title="Set the unit the Object should work with. ">
<polygon fill="none" stroke="black" points="168,-28.5 168,-58.5 300,-58.5 300,-28.5 168,-28.5"/>
<text text-anchor="start" x="176" y="-46.5" font-family="Helvetica,sans-Serif" font-size="10.00">obe::Transform::UnitBased</text>
<text text-anchor="middle" x="234" y="-35.5" font-family="Helvetica,sans-Serif" font-size="10.00">Object::setWorkingUnit</text>
</a>
</g>
</g>
<!-- Node8&#45;&gt;Node9 -->
<g id="edge1" class="edge"><title>Node8&#45;&gt;Node9</title>
<path fill="none" stroke="midnightblue" d="M142.393,-43.5C150.869,-43.5 159.452,-43.5 167.784,-43.5"/>
<polygon fill="midnightblue" stroke="midnightblue" points="142.131,-40.0001 132.131,-43.5 142.131,-47.0001 142.131,-40.0001"/>
</g>
<!-- Node10 -->
<g id="node3" class="node"><title>Node10</title>
<g id="a_node3"><a xlink:href="namespaceobe_1_1_bindings_1_1_transform_bindings.html#aa3cdba7960fc15ef04cab357ab11e768" target="_top" xlink:title="obe::Bindings::Transform\lBindings::LoadUnitBasedObject">
<polygon fill="none" stroke="black" points="336,-0.5 336,-30.5 491,-30.5 491,-0.5 336,-0.5"/>
<text text-anchor="start" x="344" y="-18.5" font-family="Helvetica,sans-Serif" font-size="10.00">obe::Bindings::Transform</text>
<text text-anchor="middle" x="413.5" y="-7.5" font-family="Helvetica,sans-Serif" font-size="10.00">Bindings::LoadUnitBasedObject</text>
</a>
</g>
</g>
<!-- Node9&#45;&gt;Node10 -->
<g id="edge2" class="edge"><title>Node9&#45;&gt;Node10</title>
<path fill="none" stroke="midnightblue" d="M310.058,-31.6599C318.637,-30.3066 327.391,-28.9257 335.989,-27.5694"/>
<polygon fill="midnightblue" stroke="midnightblue" points="309.419,-28.2173 300.087,-33.2328 310.51,-35.1318 309.419,-28.2173"/>
</g>
<!-- Node13 -->
<g id="node6" class="node"><title>Node13</title>
<g id="a_node6"><a xlink:href="classobe_1_1_graphics_1_1_level_sprite.html#ac4a8697938de0df0fa4f8997ff74251e" target="_top" xlink:title="Configures the LevelSprite with the given ComplexNode. ">
<polygon fill="none" stroke="black" points="348,-56.5 348,-86.5 479,-86.5 479,-56.5 348,-56.5"/>
<text text-anchor="start" x="356" y="-74.5" font-family="Helvetica,sans-Serif" font-size="10.00">obe::Graphics::LevelSprite</text>
<text text-anchor="middle" x="413.5" y="-63.5" font-family="Helvetica,sans-Serif" font-size="10.00">::configure</text>
</a>
</g>
</g>
<!-- Node9&#45;&gt;Node13 -->
<g id="edge5" class="edge"><title>Node9&#45;&gt;Node13</title>
<path fill="none" stroke="midnightblue" d="M310.036,-55.3367C322.567,-57.3134 335.472,-59.349 347.718,-61.2809"/>
<polygon fill="midnightblue" stroke="midnightblue" points="310.51,-51.8682 300.087,-53.7672 309.419,-58.7827 310.51,-51.8682"/>
</g>
<!-- Node11 -->
<g id="node4" class="node"><title>Node11</title>
<g id="a_node4"><a xlink:href="namespaceobe_1_1_bindings.html#a41d33207a0199f125c75a0f70a4a3ba8" target="_top" xlink:title="To call when the engine starts, indexes all Lua bindings. ">
<polygon fill="none" stroke="black" points="1035,-4 1035,-23 1178,-23 1178,-4 1035,-4"/>
<text text-anchor="middle" x="1106.5" y="-11" font-family="Helvetica,sans-Serif" font-size="10.00">obe::Bindings::IndexBindings</text>
</a>
</g>
</g>
<!-- Node10&#45;&gt;Node11 -->
<g id="edge3" class="edge"><title>Node10&#45;&gt;Node11</title>
<path fill="none" stroke="midnightblue" d="M501.224,-15.249C639.515,-14.8487 907.351,-14.0735 1034.8,-13.7046"/>
<polygon fill="midnightblue" stroke="midnightblue" points="501.079,-11.7493 491.089,-15.2783 501.099,-18.7493 501.079,-11.7493"/>
</g>
<!-- Node12 -->
<g id="node5" class="node"><title>Node12</title>
<g id="a_node5"><a xlink:href="_ob_engine_8cpp.html#a3c04138a5bfe5d72780bb7e82a18e627" target="_top" xlink:title="main">
<polygon fill="none" stroke="black" points="1214,-61 1214,-80 1252,-80 1252,-61 1214,-61"/>
<text text-anchor="middle" x="1233" y="-68" font-family="Helvetica,sans-Serif" font-size="10.00">main</text>
</a>
</g>
</g>
<!-- Node11&#45;&gt;Node12 -->
<g id="edge4" class="edge"><title>Node11&#45;&gt;Node12</title>
<path fill="none" stroke="midnightblue" d="M1149.96,-26.2632C1159.35,-29.5496 1169.14,-33.3457 1178,-37.5 1192.33,-44.2151 1207.62,-53.8171 1218.26,-60.9335"/>
<polygon fill="midnightblue" stroke="midnightblue" points="1150.97,-22.9102 1140.38,-23.0293 1148.73,-29.5428 1150.97,-22.9102"/>
</g>
<!-- Node14 -->
<g id="node7" class="node"><title>Node14</title>
<g id="a_node7"><a xlink:href="classobe_1_1_scene_1_1_scene.html#a385bccf95deb10358169dffe5547e567" target="_top" xlink:title="Loads the Scene from a .map.vili file. ">
<polygon fill="none" stroke="black" points="536.5,-109.5 536.5,-139.5 642.5,-139.5 642.5,-109.5 536.5,-109.5"/>
<text text-anchor="start" x="544.5" y="-127.5" font-family="Helvetica,sans-Serif" font-size="10.00">obe::Scene::Scene::</text>
<text text-anchor="middle" x="589.5" y="-116.5" font-family="Helvetica,sans-Serif" font-size="10.00">loadFromFile</text>
</a>
</g>
</g>
<!-- Node13&#45;&gt;Node14 -->
<g id="edge6" class="edge"><title>Node13&#45;&gt;Node14</title>
<path fill="none" stroke="midnightblue" d="M473.482,-89.4659C494.777,-95.9522 518.579,-103.202 538.98,-109.416"/>
<polygon fill="midnightblue" stroke="midnightblue" points="474.482,-86.1117 463.896,-86.5459 472.442,-92.8079 474.482,-86.1117"/>
</g>
<!-- Node23 -->
<g id="node16" class="node"><title>Node23</title>
<g id="a_node16"><a xlink:href="classobe_1_1_script_1_1_game_object.html#a1cfdaac0ab4bd6ce11b4ccba4b2f0a52" target="_top" xlink:title="Loads the GameObject through the GameObject Definition File. ">
<polygon fill="none" stroke="black" points="527,-56.5 527,-86.5 652,-86.5 652,-56.5 527,-56.5"/>
<text text-anchor="start" x="535" y="-74.5" font-family="Helvetica,sans-Serif" font-size="10.00">obe::Script::GameObject</text>
<text text-anchor="middle" x="589.5" y="-63.5" font-family="Helvetica,sans-Serif" font-size="10.00">::loadGameObject</text>
</a>
</g>
</g>
<!-- Node13&#45;&gt;Node23 -->
<g id="edge20" class="edge"><title>Node13&#45;&gt;Node23</title>
<path fill="none" stroke="midnightblue" d="M489.623,-71.5C502.042,-71.5 514.79,-71.5 526.829,-71.5"/>
<polygon fill="midnightblue" stroke="midnightblue" points="489.291,-68.0001 479.291,-71.5 489.291,-75.0001 489.291,-68.0001"/>
</g>
<!-- Node15 -->
<g id="node8" class="node"><title>Node15</title>
<g id="a_node8"><a xlink:href="namespaceobe_1_1_editor.html#a9009207671e71dccb68a31ea2362e9ef" target="_top" xlink:title="Starts the map edition. ">
<polygon fill="none" stroke="black" points="873.5,-80 873.5,-99 977.5,-99 977.5,-80 873.5,-80"/>
<text text-anchor="middle" x="925.5" y="-87" font-family="Helvetica,sans-Serif" font-size="10.00">obe::Editor::editMap</text>
</a>
</g>
</g>
<!-- Node14&#45;&gt;Node15 -->
<g id="edge7" class="edge"><title>Node14&#45;&gt;Node15</title>
<path fill="none" stroke="midnightblue" d="M652.682,-108.844C664.354,-106.369 676.502,-104.102 688,-102.5 751.332,-93.6773 824.985,-90.7763 873.053,-89.8583"/>
<polygon fill="midnightblue" stroke="midnightblue" points="651.593,-105.5 642.576,-111.062 653.094,-112.337 651.593,-105.5"/>
</g>
<!-- Node17 -->
<g id="node10" class="node"><title>Node17</title>
<g id="a_node10"><a xlink:href="classobe_1_1_scene_1_1_scene.html#a99bd0a38bd93c1ca105c34bb04776f47" target="_top" xlink:title="Updates all elements in the Scene. ">
<polygon fill="none" stroke="black" points="699,-112.5 699,-142.5 805,-142.5 805,-112.5 699,-112.5"/>
<text text-anchor="start" x="707" y="-130.5" font-family="Helvetica,sans-Serif" font-size="10.00">obe::Scene::Scene::</text>
<text text-anchor="middle" x="752" y="-119.5" font-family="Helvetica,sans-Serif" font-size="10.00">update</text>
</a>
</g>
</g>
<!-- Node14&#45;&gt;Node17 -->
<g id="edge11" class="edge"><title>Node14&#45;&gt;Node17</title>
<path fill="none" stroke="midnightblue" d="M652.953,-125.667C668.141,-125.951 684.225,-126.252 698.877,-126.526"/>
<polygon fill="midnightblue" stroke="midnightblue" points="652.673,-122.162 642.61,-125.474 652.543,-129.16 652.673,-122.162"/>
</g>
<!-- Node20 -->
<g id="node13" class="node"><title>Node20</title>
<g id="a_node13"><a xlink:href="namespaceobe_1_1_scene.html#ac23b5fc14866394c89a820ce6badc130" target="_top" xlink:title="obe::Scene::loadWorldLib">
<polygon fill="none" stroke="black" points="688,-162 688,-181 816,-181 816,-162 688,-162"/>
<text text-anchor="middle" x="752" y="-169" font-family="Helvetica,sans-Serif" font-size="10.00">obe::Scene::loadWorldLib</text>
</a>
</g>
</g>
<!-- Node14&#45;&gt;Node20 -->
<g id="edge17" class="edge"><title>Node14&#45;&gt;Node20</title>
<path fill="none" stroke="midnightblue" d="M651.333,-142.314C674.126,-148.989 699.142,-156.314 718.41,-161.957"/>
<polygon fill="midnightblue" stroke="midnightblue" points="652.305,-138.952 641.724,-139.5 650.338,-145.67 652.305,-138.952"/>
</g>
<!-- Node15&#45;&gt;Node12 -->
<g id="edge10" class="edge"><title>Node15&#45;&gt;Node12</title>
<path fill="none" stroke="midnightblue" d="M980.55,-78.1358C997.86,-75.0075 1017.16,-72.05 1035,-70.5 1100.59,-64.8004 1178.93,-67.6725 1213.76,-69.448"/>
<polygon fill="midnightblue" stroke="midnightblue" points="979.804,-74.7146 970.615,-79.9881 981.087,-81.596 979.804,-74.7146"/>
</g>
<!-- Node16 -->
<g id="node9" class="node"><title>Node16</title>
<g id="a_node9"><a xlink:href="namespaceobe_1_1_modes.html#a6a8b08eee511d4895c4da96d4ba223a6" target="_top" xlink:title="Starts the development Menu where you can starts other menus from. ">
<polygon fill="none" stroke="black" points="1040,-80 1040,-99 1173,-99 1173,-80 1040,-80"/>
<text text-anchor="middle" x="1106.5" y="-87" font-family="Helvetica,sans-Serif" font-size="10.00">obe::Modes::startDevMenu</text>
</a>
</g>
</g>
<!-- Node15&#45;&gt;Node16 -->
<g id="edge8" class="edge"><title>Node15&#45;&gt;Node16</title>
<path fill="none" stroke="midnightblue" d="M987.991,-89.5C1004.71,-89.5 1022.87,-89.5 1039.81,-89.5"/>
<polygon fill="midnightblue" stroke="midnightblue" points="987.794,-86.0001 977.794,-89.5 987.794,-93.0001 987.794,-86.0001"/>
</g>
<!-- Node16&#45;&gt;Node12 -->
<g id="edge9" class="edge"><title>Node16&#45;&gt;Node12</title>
<path fill="none" stroke="midnightblue" d="M1180.19,-78.4072C1192.64,-76.5064 1204.52,-74.6932 1213.76,-73.2837"/>
<polygon fill="midnightblue" stroke="midnightblue" points="1179.47,-74.9757 1170.11,-79.9443 1180.53,-81.8956 1179.47,-74.9757"/>
</g>
<!-- Node18 -->
<g id="node11" class="node"><title>Node18</title>
<g id="a_node11"><a xlink:href="namespaceobe_1_1_bindings_1_1_scene_bindings.html#af7c6cb8cc46286eba7ddbe55ffe7d296" target="_top" xlink:title="obe::Bindings::SceneBindings\l::LoadScene">
<polygon fill="none" stroke="black" points="852,-30.5 852,-60.5 999,-60.5 999,-30.5 852,-30.5"/>
<text text-anchor="start" x="860" y="-48.5" font-family="Helvetica,sans-Serif" font-size="10.00">obe::Bindings::SceneBindings</text>
<text text-anchor="middle" x="925.5" y="-37.5" font-family="Helvetica,sans-Serif" font-size="10.00">::LoadScene</text>
</a>
</g>
</g>
<!-- Node17&#45;&gt;Node18 -->
<g id="edge12" class="edge"><title>Node17&#45;&gt;Node18</title>
<path fill="none" stroke="midnightblue" d="M784.893,-107.06C803.903,-95.4088 828.782,-81.0704 852,-70.5 859.755,-66.9693 868.164,-63.6414 876.415,-60.6357"/>
<polygon fill="midnightblue" stroke="midnightblue" points="782.987,-104.124 776.332,-112.368 786.676,-110.073 782.987,-104.124"/>
</g>
<!-- Node19 -->
<g id="node12" class="node"><title>Node19</title>
<g id="a_node12"><a xlink:href="namespaceobe_1_1_modes.html#a5f4a1008892030350b06282b8dee1a89" target="_top" xlink:title="Start the game by loading the boot.lua file in one of the MountedPaths. ">
<polygon fill="none" stroke="black" points="866,-118 866,-137 985,-137 985,-118 866,-118"/>
<text text-anchor="middle" x="925.5" y="-125" font-family="Helvetica,sans-Serif" font-size="10.00">obe::Modes::startGame</text>
</a>
</g>
</g>
<!-- Node17&#45;&gt;Node19 -->
<g id="edge14" class="edge"><title>Node17&#45;&gt;Node19</title>
<path fill="none" stroke="midnightblue" d="M815.449,-127.5C831.905,-127.5 849.599,-127.5 865.847,-127.5"/>
<polygon fill="midnightblue" stroke="midnightblue" points="815.388,-124 805.388,-127.5 815.387,-131 815.388,-124"/>
</g>
<!-- Node18&#45;&gt;Node11 -->
<g id="edge13" class="edge"><title>Node18&#45;&gt;Node11</title>
<path fill="none" stroke="midnightblue" d="M1009.1,-30.7332C1023.71,-28.1219 1038.56,-25.4666 1052.09,-23.0476"/>
<polygon fill="midnightblue" stroke="midnightblue" points="1008.28,-27.3252 999.048,-32.5305 1009.51,-34.216 1008.28,-27.3252"/>
</g>
<!-- Node19&#45;&gt;Node12 -->
<g id="edge16" class="edge"><title>Node19&#45;&gt;Node12</title>
<path fill="none" stroke="midnightblue" d="M995.32,-132.007C1047.05,-133.108 1118.88,-129.7 1178,-108.5 1195.05,-102.386 1211.62,-89.3442 1221.81,-80.2548"/>
<polygon fill="midnightblue" stroke="midnightblue" points="995.344,-128.506 985.252,-131.73 995.152,-135.503 995.344,-128.506"/>
</g>
<!-- Node19&#45;&gt;Node16 -->
<g id="edge15" class="edge"><title>Node19&#45;&gt;Node16</title>
<path fill="none" stroke="midnightblue" d="M981.524,-115.819C1006.91,-110.43 1036.66,-104.114 1060.66,-99.0201"/>
<polygon fill="midnightblue" stroke="midnightblue" points="980.724,-112.411 971.669,-117.911 982.178,-119.258 980.724,-112.411"/>
</g>
<!-- Node21 -->
<g id="node14" class="node"><title>Node21</title>
<g id="a_node14"><a xlink:href="namespaceobe_1_1_scene.html#ae5cbcc3278d9115d603e5024dec9136e" target="_top" xlink:title="obe::Scene::loadWorldScript\lEngineBaseLib">
<polygon fill="none" stroke="black" points="855,-156.5 855,-186.5 996,-186.5 996,-156.5 855,-156.5"/>
<text text-anchor="start" x="863" y="-174.5" font-family="Helvetica,sans-Serif" font-size="10.00">obe::Scene::loadWorldScript</text>
<text text-anchor="middle" x="925.5" y="-163.5" font-family="Helvetica,sans-Serif" font-size="10.00">EngineBaseLib</text>
</a>
</g>
</g>
<!-- Node20&#45;&gt;Node21 -->
<g id="edge18" class="edge"><title>Node20&#45;&gt;Node21</title>
<path fill="none" stroke="midnightblue" d="M826.456,-171.5C835.841,-171.5 845.427,-171.5 854.751,-171.5"/>
<polygon fill="midnightblue" stroke="midnightblue" points="826.373,-168 816.373,-171.5 826.373,-175 826.373,-168"/>
</g>
<!-- Node22 -->
<g id="node15" class="node"><title>Node22</title>
<g id="a_node15"><a xlink:href="classobe_1_1_scene_1_1_scene.html#a6671ed54f3898e54a2814d58ec8ffec5" target="_top" xlink:title="Creates a new Scene. ">
<polygon fill="none" stroke="black" points="1053.5,-156.5 1053.5,-186.5 1159.5,-186.5 1159.5,-156.5 1053.5,-156.5"/>
<text text-anchor="start" x="1061.5" y="-174.5" font-family="Helvetica,sans-Serif" font-size="10.00">obe::Scene::Scene::</text>
<text text-anchor="middle" x="1106.5" y="-163.5" font-family="Helvetica,sans-Serif" font-size="10.00">Scene</text>
</a>
</g>
</g>
<!-- Node21&#45;&gt;Node22 -->
<g id="edge19" class="edge"><title>Node21&#45;&gt;Node22</title>
<path fill="none" stroke="midnightblue" d="M1006.58,-171.5C1022.48,-171.5 1038.78,-171.5 1053.44,-171.5"/>
<polygon fill="midnightblue" stroke="midnightblue" points="1006.22,-168 996.219,-171.5 1006.22,-175 1006.22,-168"/>
</g>
</g>
</svg>
        <g id="navigator" transform="translate(0 0)" fill="#404254">
                <rect fill="#f2f5e9" fill-opacity="0.5" stroke="#606060" stroke-width=".5" x="0" y="0" width="60" height="60"/>
                <use id="zoomplus" xlink:href="#zoomPlus" x="17" y="9" onmousedown="handleZoom(evt,'in')"/>
                <use id="zoomminus" xlink:href="#zoomMin" x="42" y="9" onmousedown="handleZoom(evt,'out')"/>
                <use id="reset" xlink:href="#resetDef" x="30" y="36" onmousedown="handleReset()"/>
                <g id="arrowUp" xlink:href="#dirArrow" transform="translate(30 24)" onmousedown="handlePan(0,-1)">
                  <use xlink:href="#rim" fill="#404040">
                        <set attributeName="fill" to="#808080" begin="arrowUp.mouseover" end="arrowUp.mouseout"/>
                  </use>
                  <path fill="none" stroke="white" stroke-width="1.5" d="M0,-3.0v7 M-2.5,-0.5L0,-3.0L2.5,-0.5"/>
                </g>
                <g id="arrowRight" xlink:href="#dirArrow" transform="rotate(90) translate(36 -43)" onmousedown="handlePan(1,0)">
                  <use xlink:href="#rim" fill="#404040">
                        <set attributeName="fill" to="#808080" begin="arrowRight.mouseover" end="arrowRight.mouseout"/>
                  </use>
                  <path fill="none" stroke="white" stroke-width="1.5" d="M0,-3.0v7 M-2.5,-0.5L0,-3.0L2.5,-0.5"/>
                </g>
                <g id="arrowDown" xlink:href="#dirArrow" transform="rotate(180) translate(-30 -48)" onmousedown="handlePan(0,1)">
                  <use xlink:href="#rim" fill="#404040">
                        <set attributeName="fill" to="#808080" begin="arrowDown.mouseover" end="arrowDown.mouseout"/>
                  </use>
                  <path fill="none" stroke="white" stroke-width="1.5" d="M0,-3.0v7 M-2.5,-0.5L0,-3.0L2.5,-0.5"/>
                </g>
                <g id="arrowLeft" xlink:href="#dirArrow" transform="rotate(270) translate(-36 17)" onmousedown="handlePan(-1,0)">
                  <use xlink:href="#rim" fill="#404040">
                        <set attributeName="fill" to="#808080" begin="arrowLeft.mouseover" end="arrowLeft.mouseout"/>
                  </use>
                  <path fill="none" stroke="white" stroke-width="1.5" d="M0,-3.0v7 M-2.5,-0.5L0,-3.0L2.5,-0.5"/>
                </g>
        </g>
        <svg viewBox="0 0 15 15" width="100%" height="30px" preserveAspectRatio="xMaxYMin meet">
         <g id="arrow_out" transform="scale(0.3 0.3)">
          <a xlink:href="classobe_1_1_transform_1_1_unit_based_object_a7ee27f24d754cd17cd835c1725f005b3_icgraph_org.svg" target="_base">
           <rect id="button" ry="5" rx="5" y="6" x="6" height="38" width="38"
                fill="#f2f5e9" fill-opacity="0.5" stroke="#606060" stroke-width="1.0"/>
           <path id="arrow"
             d="M 11.500037,31.436501 C 11.940474,20.09759 22.043105,11.32322 32.158766,21.979434 L 37.068811,17.246167 C 37.068811,17.246167 37.088388,32 37.088388,32 L 22.160133,31.978069 C 22.160133,31.978069 26.997745,27.140456 26.997745,27.140456 C 18.528582,18.264221 13.291696,25.230495 11.500037,31.436501 z"
             style="fill:#404040;"/>
          </a>
         </g>
        </svg>
</svg>
