<?xml version="1.0" encoding="UTF-8" standalone="no"?>
<!DOCTYPE svg PUBLIC "-//W3C//DTD SVG 1.1//EN"
 "http://www.w3.org/Graphics/SVG/1.1/DTD/svg11.dtd">
<!-- Generated by graphviz version 2.38.0 (20140413.2041)
 -->
<!-- Title: obe::Script::GameObjectDatabase::ApplyRequirements Pages: 1 -->
<!--zoomable 529 -->
<svg id="main" version="1.1" xmlns="http://www.w3.org/2000/svg" xmlns:xlink="http://www.w3.org/1999/xlink" xml:space="preserve" onload="init(evt)">
<style type="text/css"><![CDATA[
.edge:hover path { stroke: red; }
.edge:hover polygon { stroke: red; fill: red; }
.edge path { stroke: white; }
.edge polygon { stroke: white; fill: white; }
.node polygon { fill: white; }
]]></style>
<script type="text/javascript"><![CDATA[
var edges = document.getElementsByTagName('g');
if (edges && edges.length) {
  for (var i=0;i<edges.length;i++) {
    if (edges[i].id.substr(0,4)=='edge') {
      edges[i].setAttribute('class','edge');
    }
  }
}
]]></script>
        <defs>
                <circle id="rim" cx="0" cy="0" r="7"/>
                <circle id="rim2" cx="0" cy="0" r="3.5"/>
                <g id="zoomPlus">
                        <use xlink:href="#rim" fill="#404040">
                                <set attributeName="fill" to="#808080" begin="zoomplus.mouseover" end="zoomplus.mouseout"/>
                        </use>
                        <path d="M-4,0h8M0,-4v8" fill="none" stroke="white" stroke-width="1.5" pointer-events="none"/>
                </g>
                <g id="zoomMin">
                        <use xlink:href="#rim" fill="#404040">
                                <set attributeName="fill" to="#808080" begin="zoomminus.mouseover" end="zoomminus.mouseout"/>
                        </use>
                        <path d="M-4,0h8" fill="none" stroke="white" stroke-width="1.5" pointer-events="none"/>
                </g>
                <g id="dirArrow">
                        <path fill="none" stroke="white" stroke-width="1.5" d="M0,-3.0v7 M-2.5,-0.5L0,-3.0L2.5,-0.5"/>
                </g>
               <g id="resetDef">
                       <use xlink:href="#rim2" fill="#404040">
                               <set attributeName="fill" to="#808080" begin="reset.mouseover" end="reset.mouseout"/>
                       </use>
               </g>
        </defs>

<script type="text/javascript">
var viewWidth = 1473;
var viewHeight = 529;
var sectionId = 'dynsection-0';
</script>
<script xlink:href="svgpan.js"/>
<svg id="graph" class="graph">
<g id="viewport">
<title>obe::Script::GameObjectDatabase::ApplyRequirements</title>
<!-- Node0 -->
<g id="node1" class="node"><title>Node0</title>
<polygon fill="#bfbfbf" stroke="black" points="0,-334.753 0,-364.753 166,-364.753 166,-334.753 0,-334.753"/>
<text text-anchor="start" x="8" y="-352.753" font-family="Helvetica,sans-Serif" font-size="10.00">obe::Script::GameObjectDatabase</text>
<text text-anchor="middle" x="83" y="-341.753" font-family="Helvetica,sans-Serif" font-size="10.00">::ApplyRequirements</text>
</g>
<!-- Node1 -->
<g id="node2" class="node"><title>Node1</title>
<g id="a_node2"><a xlink:href="classvili_1_1_complex_node.html#a550584eb0dc76bbcb50e35182ac308cd" target="_top" xlink:title="Get all the Node Ids of the given Type contained in the ComplexNode. ">
<polygon fill="none" stroke="black" points="543,-461.753 543,-491.753 643,-491.753 643,-461.753 543,-461.753"/>
<text text-anchor="start" x="551" y="-479.753" font-family="Helvetica,sans-Serif" font-size="10.00">vili::ComplexNode::</text>
<text text-anchor="middle" x="593" y="-468.753" font-family="Helvetica,sans-Serif" font-size="10.00">getAll</text>
</a>
</g>
</g>
<!-- Node0&#45;&gt;Node1 -->
<g id="edge1" class="edge"><title>Node0&#45;&gt;Node1</title>
<path fill="none" stroke="midnightblue" d="M144.269,-364.821C242.377,-389.348 435.423,-437.609 532.822,-461.959"/>
<polygon fill="midnightblue" stroke="midnightblue" points="532.245,-465.422 542.795,-464.452 533.942,-458.631 532.245,-465.422"/>
</g>
<!-- Node2 -->
<g id="node3" class="node"><title>Node2</title>
<g id="a_node3"><a xlink:href="classobe_1_1_script_1_1_game_object.html#aebae20d22f51415b021ba6600fc39ec6" target="_top" xlink:title="Gets the id (index) of the GameObject Lua environement. ">
<polygon fill="none" stroke="black" points="202,-216.753 202,-246.753 327,-246.753 327,-216.753 202,-216.753"/>
<text text-anchor="start" x="210" y="-234.753" font-family="Helvetica,sans-Serif" font-size="10.00">obe::Script::GameObject</text>
<text text-anchor="middle" x="264.5" y="-223.753" font-family="Helvetica,sans-Serif" font-size="10.00">::getEnvIndex</text>
</a>
</g>
</g>
<!-- Node0&#45;&gt;Node2 -->
<g id="edge2" class="edge"><title>Node0&#45;&gt;Node2</title>
<path fill="none" stroke="midnightblue" d="M100.113,-334.606C121.889,-314.735 162.542,-279.702 202,-256.753 205.378,-254.789 208.94,-252.906 212.578,-251.118"/>
<polygon fill="midnightblue" stroke="midnightblue" points="214.12,-254.261 221.717,-246.875 211.173,-247.911 214.12,-254.261"/>
</g>
<!-- Node3 -->
<g id="node4" class="node"><title>Node3</title>
<g id="a_node4"><a xlink:href="namespaceobe_1_1_script_1_1_data_bridge.html#a7861dbbae848d140daac164976c457dd" target="_top" xlink:title="obe::Script::DataBridge\l::dataToLua">
<polygon fill="none" stroke="black" points="205.5,-265.753 205.5,-295.753 323.5,-295.753 323.5,-265.753 205.5,-265.753"/>
<text text-anchor="start" x="213.5" y="-283.753" font-family="Helvetica,sans-Serif" font-size="10.00">obe::Script::DataBridge</text>
<text text-anchor="middle" x="264.5" y="-272.753" font-family="Helvetica,sans-Serif" font-size="10.00">::dataToLua</text>
</a>
</g>
</g>
<!-- Node0&#45;&gt;Node3 -->
<g id="edge3" class="edge"><title>Node0&#45;&gt;Node3</title>
<path fill="none" stroke="midnightblue" d="M123.392,-334.611C150.281,-324.275 186.085,-310.512 214.769,-299.486"/>
<polygon fill="midnightblue" stroke="midnightblue" points="216.122,-302.715 224.2,-295.86 213.61,-296.182 216.122,-302.715"/>
</g>
<!-- Node30 -->
<g id="node31" class="node"><title>Node30</title>
<g id="a_node31"><a xlink:href="classvili_1_1_complex_node.html#adcc73a585ffb995e8e9a668830c10c8c" target="_top" xlink:title="Get raw non&#45;casted Node pointer by id. ">
<polygon fill="none" stroke="black" points="1010.5,-456.253 1010.5,-475.253 1123.5,-475.253 1123.5,-456.253 1010.5,-456.253"/>
<text text-anchor="middle" x="1067" y="-463.253" font-family="Helvetica,sans-Serif" font-size="10.00">vili::ComplexNode::get</text>
</a>
</g>
</g>
<!-- Node0&#45;&gt;Node30 -->
<g id="edge48" class="edge"><title>Node0&#45;&gt;Node30</title>
<path fill="none" stroke="midnightblue" d="M100.405,-364.928C147.428,-406.779 288.272,-520.753 427.5,-520.753 427.5,-520.753 427.5,-520.753 761.5,-520.753 856.773,-520.753 966.183,-494.356 1024.42,-478.137"/>
<polygon fill="midnightblue" stroke="midnightblue" points="1025.67,-481.421 1034.34,-475.334 1023.76,-474.685 1025.67,-481.421"/>
</g>
<!-- Node4 -->
<g id="node5" class="node"><title>Node4</title>
<g id="a_node5"><a xlink:href="classvili_1_1_node.html#a9d438d0731569aeeb9cae121796c1d41" target="_top" xlink:title="Returns the ClassType of the Node (All Types in vili::NodeType) ">
<polygon fill="none" stroke="black" points="1019,-270.253 1019,-289.253 1115,-289.253 1115,-270.253 1019,-270.253"/>
<text text-anchor="middle" x="1067" y="-277.253" font-family="Helvetica,sans-Serif" font-size="10.00">vili::Node::getType</text>
</a>
</g>
</g>
<!-- Node3&#45;&gt;Node4 -->
<g id="edge4" class="edge"><title>Node3&#45;&gt;Node4</title>
<path fill="none" stroke="midnightblue" d="M323.715,-280.681C471.809,-280.496 861.546,-280.009 1008.67,-279.825"/>
<polygon fill="midnightblue" stroke="midnightblue" points="1008.84,-283.325 1018.84,-279.812 1008.83,-276.325 1008.84,-283.325"/>
</g>
<!-- Node5 -->
<g id="node6" class="node"><title>Node5</title>
<g id="a_node6"><a xlink:href="namespaceobe_1_1_script_1_1_data_bridge.html#af67023e03c74b22bf57d33b902d40709" target="_top" xlink:title="Adds a converted Vili ListAttribute to a Lua Table. &#160;&#160;Index of the List will start at 0 (unlike defau...">
<polygon fill="none" stroke="black" points="534,-139.753 534,-169.753 652,-169.753 652,-139.753 534,-139.753"/>
<text text-anchor="start" x="542" y="-157.753" font-family="Helvetica,sans-Serif" font-size="10.00">obe::Script::DataBridge</text>
<text text-anchor="middle" x="593" y="-146.753" font-family="Helvetica,sans-Serif" font-size="10.00">::arrayNodeToLuaTable</text>
</a>
</g>
</g>
<!-- Node3&#45;&gt;Node5 -->
<g id="edge5" class="edge"><title>Node3&#45;&gt;Node5</title>
<path fill="none" stroke="midnightblue" d="M308.913,-265.642C315.12,-262.959 321.319,-259.98 327,-256.753 344.625,-246.742 345.085,-238.236 363,-228.753 414.196,-201.656 477.103,-182.205 524.022,-170.066"/>
<polygon fill="midnightblue" stroke="midnightblue" points="524.951,-173.441 533.781,-167.587 523.227,-166.657 524.951,-173.441"/>
</g>
<!-- Node24 -->
<g id="node25" class="node"><title>Node24</title>
<g id="a_node25"><a xlink:href="namespaceobe_1_1_script_1_1_data_bridge.html#ade4cfeb90d28b7ccfe24a6d607fd979c" target="_top" xlink:title="Adds a converted Vili ComplexAttribute to a Lua Table The key of the newly converted element in the t...">
<polygon fill="none" stroke="black" points="363,-303.753 363,-333.753 494,-333.753 494,-303.753 363,-303.753"/>
<text text-anchor="start" x="371" y="-321.753" font-family="Helvetica,sans-Serif" font-size="10.00">obe::Script::DataBridge</text>
<text text-anchor="middle" x="428.5" y="-310.753" font-family="Helvetica,sans-Serif" font-size="10.00">::complexNodeToLuaTable</text>
</a>
</g>
</g>
<!-- Node3&#45;&gt;Node24 -->
<g id="edge28" class="edge"><title>Node3&#45;&gt;Node24</title>
<path fill="none" stroke="midnightblue" d="M323.528,-294.365C333.197,-296.633 343.342,-299.013 353.347,-301.359"/>
<polygon fill="midnightblue" stroke="midnightblue" points="352.747,-304.814 363.282,-303.69 354.346,-297.999 352.747,-304.814"/>
</g>
<!-- Node26 -->
<g id="node27" class="node"><title>Node26</title>
<g id="a_node27"><a xlink:href="namespaceobe_1_1_script_1_1_data_bridge.html#a6562bae55ed86f92737628638fd835fc" target="_top" xlink:title="Add a Vili BaseAttribute in a Lua Table The key of the newly converted element in the table will be t...">
<polygon fill="none" stroke="black" points="530,-63.7533 530,-93.7533 656,-93.7533 656,-63.7533 530,-63.7533"/>
<text text-anchor="start" x="538" y="-81.7533" font-family="Helvetica,sans-Serif" font-size="10.00">obe::Script::DataBridge</text>
<text text-anchor="middle" x="593" y="-70.7533" font-family="Helvetica,sans-Serif" font-size="10.00">::dataNodeToLuaElement</text>
</a>
</g>
</g>
<!-- Node3&#45;&gt;Node26 -->
<g id="edge47" class="edge"><title>Node3&#45;&gt;Node26</title>
<path fill="none" stroke="midnightblue" d="M314.991,-265.643C319.346,-263.108 323.443,-260.165 327,-256.753 355.724,-229.201 334.621,-202.661 363,-174.753 406.079,-132.389 470.629,-107.637 520.226,-93.9111"/>
<polygon fill="midnightblue" stroke="midnightblue" points="521.181,-97.2787 529.936,-91.3109 519.371,-90.517 521.181,-97.2787"/>
</g>
<!-- Node6 -->
<g id="node7" class="node"><title>Node6</title>
<g id="a_node7"><a xlink:href="classvili_1_1_node.html#ab03908ab3d62e3bfddaf9e7306fdf3b3" target="_top" xlink:title="Gets the id of the Node. ">
<polygon fill="none" stroke="black" points="1362.5,-126.253 1362.5,-145.253 1445.5,-145.253 1445.5,-126.253 1362.5,-126.253"/>
<text text-anchor="middle" x="1404" y="-133.253" font-family="Helvetica,sans-Serif" font-size="10.00">vili::Node::getId</text>
</a>
</g>
</g>
<!-- Node5&#45;&gt;Node6 -->
<g id="edge6" class="edge"><title>Node5&#45;&gt;Node6</title>
<path fill="none" stroke="midnightblue" d="M652.127,-142.424C665.2,-139.947 679.04,-137.555 692,-135.753 790.742,-122.024 815.808,-116.753 915.5,-116.753 915.5,-116.753 915.5,-116.753 1068,-116.753 1168.91,-116.753 1286.65,-125.454 1352.24,-131.079"/>
<polygon fill="midnightblue" stroke="midnightblue" points="1352.04,-134.575 1362.3,-131.954 1352.64,-127.602 1352.04,-134.575"/>
</g>
<!-- Node7 -->
<g id="node8" class="node"><title>Node7</title>
<g id="a_node8"><a xlink:href="classvili_1_1_array_node.html#a550ab855eda9d07c47477cf7fddf2c4b" target="_top" xlink:title="Gets the size of the ArrayNode (Amount of contained Nodes) ">
<polygon fill="none" stroke="black" points="709,-145.253 709,-164.253 812,-164.253 812,-145.253 709,-145.253"/>
<text text-anchor="middle" x="760.5" y="-152.253" font-family="Helvetica,sans-Serif" font-size="10.00">vili::ArrayNode::size</text>
</a>
</g>
</g>
<!-- Node5&#45;&gt;Node7 -->
<g id="edge7" class="edge"><title>Node5&#45;&gt;Node7</title>
<path fill="none" stroke="midnightblue" d="M652.349,-154.753C667.321,-154.753 683.463,-154.753 698.561,-154.753"/>
<polygon fill="midnightblue" stroke="midnightblue" points="698.82,-158.253 708.82,-154.753 698.82,-151.253 698.82,-158.253"/>
</g>
<!-- Node8 -->
<g id="node9" class="node"><title>Node8</title>
<g id="a_node9"><a xlink:href="classvili_1_1_array_node.html#aba67c18c26c9a7c78973cae023e6f374" target="_top" xlink:title="Access a contained DataNode. ">
<polygon fill="none" stroke="black" points="1018,-232.253 1018,-251.253 1116,-251.253 1116,-232.253 1018,-232.253"/>
<text text-anchor="middle" x="1067" y="-239.253" font-family="Helvetica,sans-Serif" font-size="10.00">vili::ArrayNode::get</text>
</a>
</g>
</g>
<!-- Node5&#45;&gt;Node8 -->
<g id="edge8" class="edge"><title>Node5&#45;&gt;Node8</title>
<path fill="none" stroke="midnightblue" d="M652.219,-168.04C706.966,-180.286 791.298,-198.514 865,-211.753 912.919,-220.361 967.578,-228.405 1007.79,-233.993"/>
<polygon fill="midnightblue" stroke="midnightblue" points="1007.56,-237.495 1017.95,-235.395 1008.52,-230.561 1007.56,-237.495"/>
</g>
<!-- Node17 -->
<g id="node18" class="node"><title>Node17</title>
<g id="a_node18"><a xlink:href="classvili_1_1_data_node.html#a777d51d2bb2567be96e63abac9b9f57f" target="_top" xlink:title="Gets the vili::DataType of the contained Data. ">
<polygon fill="none" stroke="black" points="692,-69.2533 692,-88.2533 829,-88.2533 829,-69.2533 692,-69.2533"/>
<text text-anchor="middle" x="760.5" y="-76.2533" font-family="Helvetica,sans-Serif" font-size="10.00">vili::DataNode::getDataType</text>
</a>
</g>
</g>
<!-- Node5&#45;&gt;Node17 -->
<g id="edge18" class="edge"><title>Node5&#45;&gt;Node17</title>
<path fill="none" stroke="midnightblue" d="M620.101,-139.558C639.554,-128.568 666.968,-113.774 692,-102.753 700.955,-98.8107 710.781,-95.0247 720.097,-91.6714"/>
<polygon fill="midnightblue" stroke="midnightblue" points="721.288,-94.9627 729.562,-88.3452 718.967,-88.3586 721.288,-94.9627"/>
</g>
<!-- Node18 -->
<g id="node19" class="node"><title>Node18</title>
<g id="a_node19"><a xlink:href="classvili_1_1_data_node.html#a623be71b43a8906703721f18c89ef178" target="_top" xlink:title="Template method (overloaded by Template specialisation) to get the contained Data. ">
<polygon fill="none" stroke="black" points="713,-31.2533 713,-50.2533 808,-50.2533 808,-31.2533 713,-31.2533"/>
<text text-anchor="middle" x="760.5" y="-38.2533" font-family="Helvetica,sans-Serif" font-size="10.00">vili::DataNode::get</text>
</a>
</g>
</g>
<!-- Node5&#45;&gt;Node18 -->
<g id="edge19" class="edge"><title>Node5&#45;&gt;Node18</title>
<path fill="none" stroke="midnightblue" d="M613.756,-139.654C626.331,-129.694 642.695,-116.071 656,-102.753 673.617,-85.1212 671.071,-73.2889 692,-59.7533 695.565,-57.4476 699.412,-55.4175 703.397,-53.6307"/>
<polygon fill="midnightblue" stroke="midnightblue" points="704.863,-56.815 712.879,-49.8879 702.293,-50.3038 704.863,-56.815"/>
</g>
<!-- Node9 -->
<g id="node10" class="node"><title>Node9</title>
<g id="a_node10"><a xlink:href="classaube_1_1_error_handler.html#a7c8d44a3e7f019646d289950abc5301b" target="_top" xlink:title="Raises an Error loaded in the Aube Error Database (AED) ">
<polygon fill="none" stroke="black" points="1187.5,-357.753 1187.5,-387.753 1285.5,-387.753 1285.5,-357.753 1187.5,-357.753"/>
<text text-anchor="start" x="1195.5" y="-375.753" font-family="Helvetica,sans-Serif" font-size="10.00">aube::ErrorHandler</text>
<text text-anchor="middle" x="1236.5" y="-364.753" font-family="Helvetica,sans-Serif" font-size="10.00">::Raise</text>
</a>
</g>
</g>
<!-- Node8&#45;&gt;Node9 -->
<g id="edge9" class="edge"><title>Node8&#45;&gt;Node9</title>
<path fill="none" stroke="midnightblue" d="M1109.99,-251.364C1116.95,-253.859 1123.88,-256.949 1130,-260.753 1130.65,-261.155 1183.92,-317.829 1214.5,-350.392"/>
<polygon fill="midnightblue" stroke="midnightblue" points="1211.99,-352.825 1221.38,-357.718 1217.09,-348.032 1211.99,-352.825"/>
</g>
<!-- Node13 -->
<g id="node14" class="node"><title>Node13</title>
<g id="a_node14"><a xlink:href="classvili_1_1_node.html#a5a6ad518f51d824e06ae7be0328f4864" target="_top" xlink:title="Get the Node Path (Example : GrandParent/Parent/Node) ">
<polygon fill="none" stroke="black" points="1177.5,-270.253 1177.5,-289.253 1295.5,-289.253 1295.5,-270.253 1177.5,-270.253"/>
<text text-anchor="middle" x="1236.5" y="-277.253" font-family="Helvetica,sans-Serif" font-size="10.00">vili::Node::getNodePath</text>
</a>
</g>
</g>
<!-- Node8&#45;&gt;Node13 -->
<g id="edge13" class="edge"><title>Node8&#45;&gt;Node13</title>
<path fill="none" stroke="midnightblue" d="M1110.27,-251.342C1132.57,-256.402 1160.12,-262.653 1183.7,-268.002"/>
<polygon fill="midnightblue" stroke="midnightblue" points="1183.01,-271.434 1193.54,-270.233 1184.56,-264.608 1183.01,-271.434"/>
</g>
<!-- Node10 -->
<g id="node11" class="node"><title>Node10</title>
<g id="a_node11"><a xlink:href="classaube_1_1_error_message.html#a9184cc96589578f434351c105b0cd5f7" target="_top" xlink:title="Gets the location of the error in the code. ">
<polygon fill="none" stroke="black" points="1352,-428.753 1352,-458.753 1456,-458.753 1456,-428.753 1352,-428.753"/>
<text text-anchor="start" x="1360" y="-446.753" font-family="Helvetica,sans-Serif" font-size="10.00">aube::ErrorMessage</text>
<text text-anchor="middle" x="1404" y="-435.753" font-family="Helvetica,sans-Serif" font-size="10.00">::getLocation</text>
</a>
</g>
</g>
<!-- Node9&#45;&gt;Node10 -->
<g id="edge10" class="edge"><title>Node9&#45;&gt;Node10</title>
<path fill="none" stroke="midnightblue" d="M1270.62,-387.901C1291.33,-397.277 1318.62,-409.451 1343,-419.753 1347.06,-421.47 1351.29,-423.226 1355.54,-424.967"/>
<polygon fill="midnightblue" stroke="midnightblue" points="1354.24,-428.216 1364.82,-428.738 1356.87,-421.731 1354.24,-428.216"/>
</g>
<!-- Node11 -->
<g id="node12" class="node"><title>Node11</title>
<g id="a_node12"><a xlink:href="classaube_1_1_error_message.html#a07927cb3e2d0712c459cc9e2b5f52696" target="_top" xlink:title="Gets the message displayed by the ErrorMessage when raised. ">
<polygon fill="none" stroke="black" points="1352,-379.753 1352,-409.753 1456,-409.753 1456,-379.753 1352,-379.753"/>
<text text-anchor="start" x="1360" y="-397.753" font-family="Helvetica,sans-Serif" font-size="10.00">aube::ErrorMessage</text>
<text text-anchor="middle" x="1404" y="-386.753" font-family="Helvetica,sans-Serif" font-size="10.00">::getMessage</text>
</a>
</g>
</g>
<!-- Node9&#45;&gt;Node11 -->
<g id="edge11" class="edge"><title>Node9&#45;&gt;Node11</title>
<path fill="none" stroke="midnightblue" d="M1285.81,-379.176C1303.28,-381.498 1323.24,-384.151 1341.68,-386.602"/>
<polygon fill="midnightblue" stroke="midnightblue" points="1341.37,-390.091 1351.74,-387.939 1342.29,-383.152 1341.37,-390.091"/>
</g>
<!-- Node12 -->
<g id="node13" class="node"><title>Node12</title>
<g id="a_node13"><a xlink:href="classaube_1_1_error_message.html#a77c2f9b7e93542c958173b52da267989" target="_top" xlink:title="Gets hints that can help the error resolution. ">
<polygon fill="none" stroke="black" points="1352,-330.753 1352,-360.753 1456,-360.753 1456,-330.753 1352,-330.753"/>
<text text-anchor="start" x="1360" y="-348.753" font-family="Helvetica,sans-Serif" font-size="10.00">aube::ErrorMessage</text>
<text text-anchor="middle" x="1404" y="-337.753" font-family="Helvetica,sans-Serif" font-size="10.00">::getHints</text>
</a>
</g>
</g>
<!-- Node9&#45;&gt;Node12 -->
<g id="edge12" class="edge"><title>Node9&#45;&gt;Node12</title>
<path fill="none" stroke="midnightblue" d="M1285.81,-364.871C1303.28,-362.021 1323.24,-358.765 1341.68,-355.757"/>
<polygon fill="midnightblue" stroke="midnightblue" points="1342.43,-359.18 1351.74,-354.116 1341.31,-352.272 1342.43,-359.18"/>
</g>
<!-- Node13&#45;&gt;Node6 -->
<g id="edge15" class="edge"><title>Node13&#45;&gt;Node6</title>
<path fill="none" stroke="midnightblue" d="M1249.45,-270.247C1263.42,-259.071 1287.15,-239.873 1307,-222.753 1334.87,-198.72 1366.33,-169.867 1385.41,-152.174"/>
<polygon fill="midnightblue" stroke="midnightblue" points="1387.84,-154.694 1392.78,-145.321 1383.07,-149.567 1387.84,-154.694"/>
</g>
<!-- Node14 -->
<g id="node15" class="node"><title>Node14</title>
<g id="a_node15"><a xlink:href="classvili_1_1_node.html#a58273048e22a9ebd74e576fd8905f709" target="_top" xlink:title="vili::Node::getParent">
<polygon fill="none" stroke="black" points="1352,-204.253 1352,-223.253 1456,-223.253 1456,-204.253 1352,-204.253"/>
<text text-anchor="middle" x="1404" y="-211.253" font-family="Helvetica,sans-Serif" font-size="10.00">vili::Node::getParent</text>
</a>
</g>
</g>
<!-- Node13&#45;&gt;Node14 -->
<g id="edge14" class="edge"><title>Node13&#45;&gt;Node14</title>
<path fill="none" stroke="midnightblue" d="M1257.89,-270.213C1278.98,-260.502 1312.97,-245.28 1343,-233.753 1349.41,-231.295 1356.26,-228.845 1362.96,-226.546"/>
<polygon fill="midnightblue" stroke="midnightblue" points="1364.24,-229.81 1372.6,-223.303 1362,-223.175 1364.24,-229.81"/>
</g>
<!-- Node15 -->
<g id="node16" class="node"><title>Node15</title>
<g id="a_node16"><a xlink:href="classvili_1_1_node.html#ad3c91cfe2721eaf9841721d1ec8ee0d8" target="_top" xlink:title="Gets the Node annotation. ">
<polygon fill="none" stroke="black" points="1343,-292.253 1343,-311.253 1465,-311.253 1465,-292.253 1343,-292.253"/>
<text text-anchor="middle" x="1404" y="-299.253" font-family="Helvetica,sans-Serif" font-size="10.00">vili::Node::getAnnotation</text>
</a>
</g>
</g>
<!-- Node13&#45;&gt;Node15 -->
<g id="edge16" class="edge"><title>Node13&#45;&gt;Node15</title>
<path fill="none" stroke="midnightblue" d="M1295.85,-287.51C1307.77,-289.095 1320.44,-290.778 1332.73,-292.412"/>
<polygon fill="midnightblue" stroke="midnightblue" points="1332.57,-295.921 1342.94,-293.77 1333.49,-288.982 1332.57,-295.921"/>
</g>
<!-- Node16 -->
<g id="node17" class="node"><title>Node16</title>
<g id="a_node17"><a xlink:href="namespacevili_1_1_functions_1_1_vector.html#a10836e1fe04648534cfc59d9de9acd72" target="_top" xlink:title="vili::Functions::Vector\l::join">
<polygon fill="none" stroke="black" points="1349,-242.753 1349,-272.753 1459,-272.753 1459,-242.753 1349,-242.753"/>
<text text-anchor="start" x="1357" y="-260.753" font-family="Helvetica,sans-Serif" font-size="10.00">vili::Functions::Vector</text>
<text text-anchor="middle" x="1404" y="-249.753" font-family="Helvetica,sans-Serif" font-size="10.00">::join</text>
</a>
</g>
</g>
<!-- Node13&#45;&gt;Node16 -->
<g id="edge17" class="edge"><title>Node13&#45;&gt;Node16</title>
<path fill="none" stroke="midnightblue" d="M1295.85,-271.997C1309.7,-270.155 1324.56,-268.18 1338.66,-266.306"/>
<polygon fill="midnightblue" stroke="midnightblue" points="1339.32,-269.749 1348.78,-264.961 1338.4,-262.81 1339.32,-269.749"/>
</g>
<!-- Node19 -->
<g id="node20" class="node"><title>Node19</title>
<g id="a_node20"><a xlink:href="classvili_1_1_data_node.html#a7f30e8836aedbe34f8936b5d30da5413" target="_top" xlink:title="Copies the DataNode into a new ContainerNode. ">
<polygon fill="none" stroke="black" points="865,-183.253 865,-202.253 968,-202.253 968,-183.253 865,-183.253"/>
<text text-anchor="middle" x="916.5" y="-190.253" font-family="Helvetica,sans-Serif" font-size="10.00">vili::DataNode::copy</text>
</a>
</g>
</g>
<!-- Node18&#45;&gt;Node19 -->
<g id="edge20" class="edge"><title>Node18&#45;&gt;Node19</title>
<path fill="none" stroke="midnightblue" d="M808.214,-49.1179C815.597,-51.7497 822.822,-55.2083 829,-59.7533 869.509,-89.5544 896.234,-144.498 908.232,-173.562"/>
<polygon fill="midnightblue" stroke="midnightblue" points="905.039,-175.004 911.984,-183.005 911.544,-172.419 905.039,-175.004"/>
</g>
<!-- Node22 -->
<g id="node23" class="node"><title>Node22</title>
<g id="a_node23"><a xlink:href="classvili_1_1_data_node.html#ac00a0ebfb6c627d51262dd140a5dff14" target="_top" xlink:title="Writes the DataNode to a file. ">
<polygon fill="none" stroke="black" points="865.5,-31.2533 865.5,-50.2533 967.5,-50.2533 967.5,-31.2533 865.5,-31.2533"/>
<text text-anchor="middle" x="916.5" y="-38.2533" font-family="Helvetica,sans-Serif" font-size="10.00">vili::DataNode::write</text>
</a>
</g>
</g>
<!-- Node18&#45;&gt;Node22 -->
<g id="edge26" class="edge"><title>Node18&#45;&gt;Node22</title>
<path fill="none" stroke="midnightblue" d="M808.123,-40.7533C822.938,-40.7533 839.539,-40.7533 855.176,-40.7533"/>
<polygon fill="midnightblue" stroke="midnightblue" points="855.284,-44.2534 865.284,-40.7533 855.284,-37.2534 855.284,-44.2534"/>
</g>
<!-- Node19&#45;&gt;Node4 -->
<g id="edge21" class="edge"><title>Node19&#45;&gt;Node4</title>
<path fill="none" stroke="midnightblue" d="M927.282,-202.476C942.469,-217.071 973.192,-244.644 1004,-260.753 1008.26,-262.983 1012.83,-264.999 1017.49,-266.808"/>
<polygon fill="midnightblue" stroke="midnightblue" points="1016.49,-270.169 1027.09,-270.238 1018.85,-263.577 1016.49,-270.169"/>
</g>
<!-- Node20 -->
<g id="node21" class="node"><title>Node20</title>
<g id="a_node21"><a xlink:href="classvili_1_1_data_node.html#a27dadd644c19ee34b95fa998764b225f" target="_top" xlink:title="Sets an Int value. ">
<polygon fill="none" stroke="black" points="1019.5,-194.253 1019.5,-213.253 1114.5,-213.253 1114.5,-194.253 1019.5,-194.253"/>
<text text-anchor="middle" x="1067" y="-201.253" font-family="Helvetica,sans-Serif" font-size="10.00">vili::DataNode::set</text>
</a>
</g>
</g>
<!-- Node19&#45;&gt;Node20 -->
<g id="edge22" class="edge"><title>Node19&#45;&gt;Node20</title>
<path fill="none" stroke="midnightblue" d="M968.19,-196.508C981.313,-197.48 995.532,-198.533 1008.96,-199.528"/>
<polygon fill="midnightblue" stroke="midnightblue" points="1008.8,-203.026 1019.04,-200.275 1009.32,-196.045 1008.8,-203.026"/>
</g>
<!-- Node20&#45;&gt;Node9 -->
<g id="edge23" class="edge"><title>Node20&#45;&gt;Node9</title>
<path fill="none" stroke="midnightblue" d="M1114.61,-213.286C1120.18,-215.75 1125.49,-218.851 1130,-222.753 1158.27,-247.198 1144.95,-267.868 1166,-298.753 1178.9,-317.678 1196.61,-336.456 1210.92,-350.36"/>
<polygon fill="midnightblue" stroke="midnightblue" points="1208.82,-353.19 1218.47,-357.554 1213.65,-348.122 1208.82,-353.19"/>
</g>
<!-- Node20&#45;&gt;Node13 -->
<g id="edge24" class="edge"><title>Node20&#45;&gt;Node13</title>
<path fill="none" stroke="midnightblue" d="M1103.51,-213.315C1112.29,-216.038 1121.59,-219.233 1130,-222.753 1158.81,-234.811 1190.09,-252.312 1211.04,-264.735"/>
<polygon fill="midnightblue" stroke="midnightblue" points="1209.52,-267.905 1219.9,-270.048 1213.12,-261.903 1209.52,-267.905"/>
</g>
<!-- Node21 -->
<g id="node22" class="node"><title>Node21</title>
<g id="a_node22"><a xlink:href="namespacevili_1_1_types.html#ac195a27b2ff3164cfb8aeba0222fad03" target="_top" xlink:title="Converts a DataType to its name (in a std::string) ">
<polygon fill="none" stroke="black" points="1166,-194.253 1166,-213.253 1307,-213.253 1307,-194.253 1166,-194.253"/>
<text text-anchor="middle" x="1236.5" y="-201.253" font-family="Helvetica,sans-Serif" font-size="10.00">vili::Types::dataTypeToString</text>
</a>
</g>
</g>
<!-- Node20&#45;&gt;Node21 -->
<g id="edge25" class="edge"><title>Node20&#45;&gt;Node21</title>
<path fill="none" stroke="midnightblue" d="M1114.66,-203.753C1127.43,-203.753 1141.65,-203.753 1155.72,-203.753"/>
<polygon fill="midnightblue" stroke="midnightblue" points="1155.91,-207.253 1165.91,-203.753 1155.91,-200.253 1155.91,-207.253"/>
</g>
<!-- Node23 -->
<g id="node24" class="node"><title>Node23</title>
<g id="a_node24"><a xlink:href="classvili_1_1_data_node.html#acb68076f90b2344cba37afd31b8b2156" target="_top" xlink:title="Gets a dumpable representation of the contained data. ">
<polygon fill="none" stroke="black" points="1004,-31.2533 1004,-50.2533 1130,-50.2533 1130,-31.2533 1004,-31.2533"/>
<text text-anchor="middle" x="1067" y="-38.2533" font-family="Helvetica,sans-Serif" font-size="10.00">vili::DataNode::dumpData</text>
</a>
</g>
</g>
<!-- Node22&#45;&gt;Node23 -->
<g id="edge27" class="edge"><title>Node22&#45;&gt;Node23</title>
<path fill="none" stroke="midnightblue" d="M967.775,-40.7533C976.121,-40.7533 984.92,-40.7533 993.683,-40.7533"/>
<polygon fill="midnightblue" stroke="midnightblue" points="993.923,-44.2534 1003.92,-40.7533 993.923,-37.2534 993.923,-44.2534"/>
</g>
<!-- Node24&#45;&gt;Node1 -->
<g id="edge30" class="edge"><title>Node24&#45;&gt;Node1</title>
<path fill="none" stroke="midnightblue" d="M440.961,-334.136C464.944,-366.209 519.107,-437.982 530,-446.753 534.594,-450.453 539.72,-453.84 545.002,-456.899"/>
<polygon fill="midnightblue" stroke="midnightblue" points="543.508,-460.07 553.972,-461.733 546.829,-453.908 543.508,-460.07"/>
</g>
<!-- Node24&#45;&gt;Node5 -->
<g id="edge43" class="edge"><title>Node24&#45;&gt;Node5</title>
<path fill="none" stroke="midnightblue" d="M444.496,-303.619C473.277,-274.573 536.374,-210.893 569.955,-177.002"/>
<polygon fill="midnightblue" stroke="midnightblue" points="572.488,-179.419 577.04,-169.852 567.515,-174.492 572.488,-179.419"/>
</g>
<!-- Node24&#45;&gt;Node6 -->
<g id="edge29" class="edge"><title>Node24&#45;&gt;Node6</title>
<path fill="none" stroke="midnightblue" d="M464.529,-303.72C537.462,-273.181 711.605,-204.203 865,-173.753 957.384,-155.414 1236.82,-142.431 1352.26,-137.712"/>
<polygon fill="midnightblue" stroke="midnightblue" points="1352.4,-141.209 1362.26,-137.307 1352.12,-134.215 1352.4,-141.209"/>
</g>
<!-- Node25 -->
<g id="node26" class="node"><title>Node25</title>
<g id="a_node26"><a xlink:href="classvili_1_1_complex_node.html#a2015d537e212d025e28b38a8bb887594" target="_top" xlink:title="Get the type of a contained Node. ">
<polygon fill="none" stroke="black" points="866.5,-297.753 866.5,-327.753 966.5,-327.753 966.5,-297.753 866.5,-297.753"/>
<text text-anchor="start" x="874.5" y="-315.753" font-family="Helvetica,sans-Serif" font-size="10.00">vili::ComplexNode::</text>
<text text-anchor="middle" x="916.5" y="-304.753" font-family="Helvetica,sans-Serif" font-size="10.00">getNodeType</text>
</a>
</g>
</g>
<!-- Node24&#45;&gt;Node25 -->
<g id="edge31" class="edge"><title>Node24&#45;&gt;Node25</title>
<path fill="none" stroke="midnightblue" d="M494.037,-317.957C588.763,-316.787 764.125,-314.622 855.934,-313.489"/>
<polygon fill="midnightblue" stroke="midnightblue" points="856.211,-316.986 866.167,-313.362 856.125,-309.986 856.211,-316.986"/>
</g>
<!-- Node24&#45;&gt;Node26 -->
<g id="edge33" class="edge"><title>Node24&#45;&gt;Node26</title>
<path fill="none" stroke="midnightblue" d="M435.166,-303.585C448.246,-269.865 483.06,-187.142 530,-129.753 539.001,-118.749 550.672,-108.417 561.456,-99.9695"/>
<polygon fill="midnightblue" stroke="midnightblue" points="563.614,-102.725 569.471,-93.8964 559.387,-97.1459 563.614,-102.725"/>
</g>
<!-- Node27 -->
<g id="node28" class="node"><title>Node27</title>
<g id="a_node28"><a xlink:href="classvili_1_1_complex_node.html#a2a280e0b84d7b5b22a49b0938977ab0b" target="_top" xlink:title="Get a DataNode contained in the ComplexNode. ">
<polygon fill="none" stroke="black" points="1017,-308.753 1017,-338.753 1117,-338.753 1117,-308.753 1017,-308.753"/>
<text text-anchor="start" x="1025" y="-326.753" font-family="Helvetica,sans-Serif" font-size="10.00">vili::ComplexNode::</text>
<text text-anchor="middle" x="1067" y="-315.753" font-family="Helvetica,sans-Serif" font-size="10.00">getDataNode</text>
</a>
</g>
</g>
<!-- Node24&#45;&gt;Node27 -->
<g id="edge37" class="edge"><title>Node24&#45;&gt;Node27</title>
<path fill="none" stroke="midnightblue" d="M494.034,-326.638C505.976,-327.864 518.354,-328.978 530,-329.753 724.269,-342.681 773.791,-351.555 968,-337.753 980.58,-336.859 994.001,-335.327 1006.75,-333.597"/>
<polygon fill="midnightblue" stroke="midnightblue" points="1007.38,-337.042 1016.79,-332.175 1006.4,-330.111 1007.38,-337.042"/>
</g>
<!-- Node28 -->
<g id="node29" class="node"><title>Node28</title>
<g id="a_node29"><a xlink:href="classvili_1_1_complex_node.html#aa9274f5ba9c9dbe1a0c90d54380a003a" target="_top" xlink:title="Get a ComplexNode contained in the ComplexNode. ">
<polygon fill="none" stroke="black" points="1017,-406.753 1017,-436.753 1117,-436.753 1117,-406.753 1017,-406.753"/>
<text text-anchor="start" x="1025" y="-424.753" font-family="Helvetica,sans-Serif" font-size="10.00">vili::ComplexNode::</text>
<text text-anchor="middle" x="1067" y="-413.753" font-family="Helvetica,sans-Serif" font-size="10.00">getComplexNode</text>
</a>
</g>
</g>
<!-- Node24&#45;&gt;Node28 -->
<g id="edge40" class="edge"><title>Node24&#45;&gt;Node28</title>
<path fill="none" stroke="midnightblue" d="M453.671,-333.92C473.418,-345.523 502.469,-360.834 530,-368.753 697.945,-417.066 906.336,-423.086 1006.62,-422.814"/>
<polygon fill="midnightblue" stroke="midnightblue" points="1006.87,-426.313 1016.85,-422.763 1006.83,-419.313 1006.87,-426.313"/>
</g>
<!-- Node29 -->
<g id="node30" class="node"><title>Node29</title>
<g id="a_node30"><a xlink:href="classvili_1_1_complex_node.html#abfafad10954568b678b208b7fefb074a" target="_top" xlink:title="Get a ArrayNode contained in the ComplexNode. ">
<polygon fill="none" stroke="black" points="1017,-357.753 1017,-387.753 1117,-387.753 1117,-357.753 1017,-357.753"/>
<text text-anchor="start" x="1025" y="-375.753" font-family="Helvetica,sans-Serif" font-size="10.00">vili::ComplexNode::</text>
<text text-anchor="middle" x="1067" y="-364.753" font-family="Helvetica,sans-Serif" font-size="10.00">getArrayNode</text>
</a>
</g>
</g>
<!-- Node24&#45;&gt;Node29 -->
<g id="edge44" class="edge"><title>Node24&#45;&gt;Node29</title>
<path fill="none" stroke="midnightblue" d="M473.527,-333.787C490.917,-339.109 511.201,-344.561 530,-347.753 701.196,-376.825 907.263,-376.815 1006.65,-374.661"/>
<polygon fill="midnightblue" stroke="midnightblue" points="1006.88,-378.157 1016.8,-374.425 1006.72,-371.158 1006.88,-378.157"/>
</g>
<!-- Node25&#45;&gt;Node4 -->
<g id="edge32" class="edge"><title>Node25&#45;&gt;Node4</title>
<path fill="none" stroke="midnightblue" d="M966.536,-301.856C981.505,-298.53 998.026,-294.859 1013.23,-291.48"/>
<polygon fill="midnightblue" stroke="midnightblue" points="1014,-294.894 1023,-289.308 1012.48,-288.061 1014,-294.894"/>
</g>
<!-- Node26&#45;&gt;Node6 -->
<g id="edge35" class="edge"><title>Node26&#45;&gt;Node6</title>
<path fill="none" stroke="midnightblue" d="M613.775,-63.6873C632.734,-50.1415 662.72,-30.9973 692,-21.7533 787.066,8.26001 815.808,-2.75334 915.5,-2.75334 915.5,-2.75334 915.5,-2.75334 1068,-2.75334 1194.33,-2.75334 1329.74,-85.4625 1381.35,-120.434"/>
<polygon fill="midnightblue" stroke="midnightblue" points="1379.5,-123.407 1389.72,-126.188 1383.46,-117.639 1379.5,-123.407"/>
</g>
<!-- Node26&#45;&gt;Node17 -->
<g id="edge34" class="edge"><title>Node26&#45;&gt;Node17</title>
<path fill="none" stroke="midnightblue" d="M656.097,-78.7533C664.469,-78.7533 673.143,-78.7533 681.745,-78.7533"/>
<polygon fill="midnightblue" stroke="midnightblue" points="681.787,-82.2534 691.787,-78.7533 681.787,-75.2534 681.787,-82.2534"/>
</g>
<!-- Node26&#45;&gt;Node18 -->
<g id="edge36" class="edge"><title>Node26&#45;&gt;Node18</title>
<path fill="none" stroke="midnightblue" d="M656.097,-64.4954C673.111,-60.5888 691.37,-56.3965 707.738,-52.6382"/>
<polygon fill="midnightblue" stroke="midnightblue" points="708.694,-56.0099 717.657,-50.3608 707.128,-49.1874 708.694,-56.0099"/>
</g>
<!-- Node27&#45;&gt;Node9 -->
<g id="edge38" class="edge"><title>Node27&#45;&gt;Node9</title>
<path fill="none" stroke="midnightblue" d="M1117.35,-338.19C1136.25,-343.72 1157.99,-350.079 1177.62,-355.822"/>
<polygon fill="midnightblue" stroke="midnightblue" points="1176.79,-359.224 1187.37,-358.673 1178.75,-352.506 1176.79,-359.224"/>
</g>
<!-- Node27&#45;&gt;Node13 -->
<g id="edge39" class="edge"><title>Node27&#45;&gt;Node13</title>
<path fill="none" stroke="midnightblue" d="M1117.35,-310.79C1140.11,-304.811 1166.98,-297.753 1189.33,-291.88"/>
<polygon fill="midnightblue" stroke="midnightblue" points="1190.48,-295.199 1199.26,-289.274 1188.7,-288.429 1190.48,-295.199"/>
</g>
<!-- Node28&#45;&gt;Node9 -->
<g id="edge41" class="edge"><title>Node28&#45;&gt;Node9</title>
<path fill="none" stroke="midnightblue" d="M1117.35,-407.317C1136.25,-401.786 1157.99,-395.428 1177.62,-389.685"/>
<polygon fill="midnightblue" stroke="midnightblue" points="1178.75,-393.001 1187.37,-386.834 1176.79,-386.282 1178.75,-393.001"/>
</g>
<!-- Node28&#45;&gt;Node13 -->
<g id="edge42" class="edge"><title>Node28&#45;&gt;Node13</title>
<path fill="none" stroke="midnightblue" d="M1115.57,-406.637C1120.67,-404.069 1125.6,-401.121 1130,-397.753 1151.46,-381.329 1148.36,-369.224 1166,-348.753 1182.3,-329.845 1202.76,-309.931 1217.25,-296.383"/>
<polygon fill="midnightblue" stroke="midnightblue" points="1219.66,-298.92 1224.62,-289.558 1214.9,-293.784 1219.66,-298.92"/>
</g>
<!-- Node29&#45;&gt;Node9 -->
<g id="edge45" class="edge"><title>Node29&#45;&gt;Node9</title>
<path fill="none" stroke="midnightblue" d="M1117.35,-372.753C1136.17,-372.753 1157.79,-372.753 1177.35,-372.753"/>
<polygon fill="midnightblue" stroke="midnightblue" points="1177.37,-376.253 1187.37,-372.753 1177.37,-369.253 1177.37,-376.253"/>
</g>
<!-- Node29&#45;&gt;Node13 -->
<g id="edge46" class="edge"><title>Node29&#45;&gt;Node13</title>
<path fill="none" stroke="midnightblue" d="M1110.54,-357.652C1117.16,-354.915 1123.84,-351.916 1130,-348.753 1160.84,-332.924 1193.9,-310.272 1214.63,-295.297"/>
<polygon fill="midnightblue" stroke="midnightblue" points="1216.7,-298.116 1222.71,-289.392 1212.57,-292.463 1216.7,-298.116"/>
</g>
<!-- Node30&#45;&gt;Node9 -->
<g id="edge49" class="edge"><title>Node30&#45;&gt;Node9</title>
<path fill="none" stroke="midnightblue" d="M1105.78,-456.249C1113.95,-453.626 1122.41,-450.46 1130,-446.753 1159.15,-432.509 1189.13,-410.656 1209.64,-394.386"/>
<polygon fill="midnightblue" stroke="midnightblue" points="1211.96,-397.012 1217.56,-388.014 1207.57,-391.56 1211.96,-397.012"/>
</g>
<!-- Node30&#45;&gt;Node13 -->
<g id="edge50" class="edge"><title>Node30&#45;&gt;Node13</title>
<path fill="none" stroke="midnightblue" d="M1115.89,-456.162C1121.06,-453.706 1125.91,-450.623 1130,-446.753 1163.7,-414.852 1140.94,-387.806 1166,-348.753 1179.25,-328.107 1199.64,-308.816 1214.91,-295.91"/>
<polygon fill="midnightblue" stroke="midnightblue" points="1217.29,-298.484 1222.8,-289.43 1212.85,-293.078 1217.29,-298.484"/>
</g>
</g>
</svg>
        <g id="navigator" transform="translate(0 0)" fill="#404254">
                <rect fill="#f2f5e9" fill-opacity="0.5" stroke="#606060" stroke-width=".5" x="0" y="0" width="60" height="60"/>
                <use id="zoomplus" xlink:href="#zoomPlus" x="17" y="9" onmousedown="handleZoom(evt,'in')"/>
                <use id="zoomminus" xlink:href="#zoomMin" x="42" y="9" onmousedown="handleZoom(evt,'out')"/>
                <use id="reset" xlink:href="#resetDef" x="30" y="36" onmousedown="handleReset()"/>
                <g id="arrowUp" xlink:href="#dirArrow" transform="translate(30 24)" onmousedown="handlePan(0,-1)">
                  <use xlink:href="#rim" fill="#404040">
                        <set attributeName="fill" to="#808080" begin="arrowUp.mouseover" end="arrowUp.mouseout"/>
                  </use>
                  <path fill="none" stroke="white" stroke-width="1.5" d="M0,-3.0v7 M-2.5,-0.5L0,-3.0L2.5,-0.5"/>
                </g>
                <g id="arrowRight" xlink:href="#dirArrow" transform="rotate(90) translate(36 -43)" onmousedown="handlePan(1,0)">
                  <use xlink:href="#rim" fill="#404040">
                        <set attributeName="fill" to="#808080" begin="arrowRight.mouseover" end="arrowRight.mouseout"/>
                  </use>
                  <path fill="none" stroke="white" stroke-width="1.5" d="M0,-3.0v7 M-2.5,-0.5L0,-3.0L2.5,-0.5"/>
                </g>
                <g id="arrowDown" xlink:href="#dirArrow" transform="rotate(180) translate(-30 -48)" onmousedown="handlePan(0,1)">
                  <use xlink:href="#rim" fill="#404040">
                        <set attributeName="fill" to="#808080" begin="arrowDown.mouseover" end="arrowDown.mouseout"/>
                  </use>
                  <path fill="none" stroke="white" stroke-width="1.5" d="M0,-3.0v7 M-2.5,-0.5L0,-3.0L2.5,-0.5"/>
                </g>
                <g id="arrowLeft" xlink:href="#dirArrow" transform="rotate(270) translate(-36 17)" onmousedown="handlePan(-1,0)">
                  <use xlink:href="#rim" fill="#404040">
                        <set attributeName="fill" to="#808080" begin="arrowLeft.mouseover" end="arrowLeft.mouseout"/>
                  </use>
                  <path fill="none" stroke="white" stroke-width="1.5" d="M0,-3.0v7 M-2.5,-0.5L0,-3.0L2.5,-0.5"/>
                </g>
        </g>
        <svg viewBox="0 0 15 15" width="100%" height="30px" preserveAspectRatio="xMaxYMin meet">
         <g id="arrow_out" transform="scale(0.3 0.3)">
          <a xlink:href="classobe_1_1_script_1_1_game_object_database_af02e95fef12a2aebd29cb9c4b64a89db_cgraph_org.svg" target="_base">
           <rect id="button" ry="5" rx="5" y="6" x="6" height="38" width="38"
                fill="#f2f5e9" fill-opacity="0.5" stroke="#606060" stroke-width="1.0"/>
           <path id="arrow"
             d="M 11.500037,31.436501 C 11.940474,20.09759 22.043105,11.32322 32.158766,21.979434 L 37.068811,17.246167 C 37.068811,17.246167 37.088388,32 37.088388,32 L 22.160133,31.978069 C 22.160133,31.978069 26.997745,27.140456 26.997745,27.140456 C 18.528582,18.264221 13.291696,25.230495 11.500037,31.436501 z"
             style="fill:#404040;"/>
          </a>
         </g>
        </svg>
</svg>
