<?xml version="1.0" encoding="UTF-8" standalone="no"?>
<!DOCTYPE svg PUBLIC "-//W3C//DTD SVG 1.1//EN"
 "http://www.w3.org/Graphics/SVG/1.1/DTD/svg11.dtd">
<!-- Generated by graphviz version 2.38.0 (20140413.2041)
 -->
<!-- Title: obe::Script::Trigger::Trigger Pages: 1 -->
<!--zoomable 197 -->
<svg id="main" version="1.1" xmlns="http://www.w3.org/2000/svg" xmlns:xlink="http://www.w3.org/1999/xlink" xml:space="preserve" onload="init(evt)">
<style type="text/css"><![CDATA[
.edge:hover path { stroke: red; }
.edge:hover polygon { stroke: red; fill: red; }
.edge path { stroke: white; }
.edge polygon { stroke: white; fill: white; }
.node polygon { fill: white; }
]]></style>
<script type="text/javascript"><![CDATA[
var edges = document.getElementsByTagName('g');
if (edges && edges.length) {
  for (var i=0;i<edges.length;i++) {
    if (edges[i].id.substr(0,4)=='edge') {
      edges[i].setAttribute('class','edge');
    }
  }
}
]]></script>
        <defs>
                <circle id="rim" cx="0" cy="0" r="7"/>
                <circle id="rim2" cx="0" cy="0" r="3.5"/>
                <g id="zoomPlus">
                        <use xlink:href="#rim" fill="#404040">
                                <set attributeName="fill" to="#808080" begin="zoomplus.mouseover" end="zoomplus.mouseout"/>
                        </use>
                        <path d="M-4,0h8M0,-4v8" fill="none" stroke="white" stroke-width="1.5" pointer-events="none"/>
                </g>
                <g id="zoomMin">
                        <use xlink:href="#rim" fill="#404040">
                                <set attributeName="fill" to="#808080" begin="zoomminus.mouseover" end="zoomminus.mouseout"/>
                        </use>
                        <path d="M-4,0h8" fill="none" stroke="white" stroke-width="1.5" pointer-events="none"/>
                </g>
                <g id="dirArrow">
                        <path fill="none" stroke="white" stroke-width="1.5" d="M0,-3.0v7 M-2.5,-0.5L0,-3.0L2.5,-0.5"/>
                </g>
               <g id="resetDef">
                       <use xlink:href="#rim2" fill="#404040">
                               <set attributeName="fill" to="#808080" begin="reset.mouseover" end="reset.mouseout"/>
                       </use>
               </g>
        </defs>

<script type="text/javascript">
var viewWidth = 1275;
var viewHeight = 197;
var sectionId = 'dynsection-1';
</script>
<script xlink:href="svgpan.js"/>
<svg id="graph" class="graph">
<g id="viewport">
<title>obe::Script::Trigger::Trigger</title>
<!-- Node3 -->
<g id="node1" class="node"><title>Node3</title>
<polygon fill="#bfbfbf" stroke="black" points="0,-82.5 0,-112.5 99,-112.5 99,-82.5 0,-82.5"/>
<text text-anchor="start" x="8" y="-100.5" font-family="Helvetica,sans-Serif" font-size="10.00">obe::Script::Trigger</text>
<text text-anchor="middle" x="49.5" y="-89.5" font-family="Helvetica,sans-Serif" font-size="10.00">::Trigger</text>
</g>
<!-- Node4 -->
<g id="node2" class="node"><title>Node4</title>
<g id="a_node2"><a xlink:href="classobe_1_1_script_1_1_trigger.html#aefbeb063bf11316ecdec3b366657a0a9" target="_top" xlink:title="obe::Script::Trigger\l::getNamespace">
<polygon fill="white" stroke="black" points="135,-82.5 135,-112.5 234,-112.5 234,-82.5 135,-82.5"/>
<text text-anchor="start" x="143" y="-100.5" font-family="Helvetica,sans-Serif" font-size="10.00">obe::Script::Trigger</text>
<text text-anchor="middle" x="184.5" y="-89.5" font-family="Helvetica,sans-Serif" font-size="10.00">::getNamespace</text>
</a>
</g>
</g>
<!-- Node3&#45;&gt;Node4 -->
<g id="edge1" class="edge"><title>Node3&#45;&gt;Node4</title>
<path fill="none" stroke="midnightblue" d="M109.455,-97.5C117.902,-97.5 126.515,-97.5 134.737,-97.5"/>
<polygon fill="midnightblue" stroke="midnightblue" points="109.269,-94.0001 99.2691,-97.5 109.269,-101 109.269,-94.0001"/>
</g>
<!-- Node5 -->
<g id="node3" class="node"><title>Node5</title>
<g id="a_node3"><a xlink:href="namespaceobe_1_1_script_1_1_core_lib.html#a94684c4b34b9c53b5bcf31d052cf6faf" target="_top" xlink:title="obe::Script::CoreLib\l::loadTrigger">
<polygon fill="white" stroke="black" points="270,-82.5 270,-112.5 373,-112.5 373,-82.5 270,-82.5"/>
<text text-anchor="start" x="278" y="-100.5" font-family="Helvetica,sans-Serif" font-size="10.00">obe::Script::CoreLib</text>
<text text-anchor="middle" x="321.5" y="-89.5" font-family="Helvetica,sans-Serif" font-size="10.00">::loadTrigger</text>
</a>
</g>
</g>
<!-- Node4&#45;&gt;Node5 -->
<g id="edge2" class="edge"><title>Node4&#45;&gt;Node5</title>
<path fill="none" stroke="midnightblue" d="M244.355,-97.5C252.752,-97.5 261.33,-97.5 269.558,-97.5"/>
<polygon fill="midnightblue" stroke="midnightblue" points="244.238,-94.0001 234.238,-97.5 244.238,-101 244.238,-94.0001"/>
</g>
<!-- Node6 -->
<g id="node4" class="node"><title>Node6</title>
<g id="a_node4"><a xlink:href="namespaceobe_1_1_script.html#a633c629c5a54da2b5d4930730983121c" target="_top" xlink:title="obe::Script::loadCoreLib">
<polygon fill="white" stroke="black" points="409,-88 409,-107 530,-107 530,-88 409,-88"/>
<text text-anchor="middle" x="469.5" y="-95" font-family="Helvetica,sans-Serif" font-size="10.00">obe::Script::loadCoreLib</text>
</a>
</g>
</g>
<!-- Node5&#45;&gt;Node6 -->
<g id="edge3" class="edge"><title>Node5&#45;&gt;Node6</title>
<path fill="none" stroke="midnightblue" d="M383.328,-97.5C391.785,-97.5 400.467,-97.5 408.902,-97.5"/>
<polygon fill="midnightblue" stroke="midnightblue" points="383.154,-94.0001 373.154,-97.5 383.154,-101 383.154,-94.0001"/>
</g>
<!-- Node7 -->
<g id="node5" class="node"><title>Node7</title>
<g id="a_node5"><a xlink:href="namespaceobe_1_1_script.html#a4e6ee77032cf7f66544f9b08464a60b7" target="_top" xlink:title="obe::Script::loadLib">
<polygon fill="white" stroke="black" points="566,-88 566,-107 667,-107 667,-88 566,-88"/>
<text text-anchor="middle" x="616.5" y="-95" font-family="Helvetica,sans-Serif" font-size="10.00">obe::Script::loadLib</text>
</a>
</g>
</g>
<!-- Node6&#45;&gt;Node7 -->
<g id="edge4" class="edge"><title>Node6&#45;&gt;Node7</title>
<path fill="none" stroke="midnightblue" d="M540.401,-97.5C549.037,-97.5 557.723,-97.5 565.967,-97.5"/>
<polygon fill="midnightblue" stroke="midnightblue" points="540.314,-94.0001 530.314,-97.5 540.314,-101 540.314,-94.0001"/>
</g>
<!-- Node8 -->
<g id="node6" class="node"><title>Node8</title>
<g id="a_node6"><a xlink:href="namespaceobe_1_1_script.html#a5e992c0efb0543e7c934bc1065f08b01" target="_top" xlink:title="obe::Script::loadLibBridge">
<polygon fill="white" stroke="black" points="708.5,-164 708.5,-183 836.5,-183 836.5,-164 708.5,-164"/>
<text text-anchor="middle" x="772.5" y="-171" font-family="Helvetica,sans-Serif" font-size="10.00">obe::Script::loadLibBridge</text>
</a>
</g>
</g>
<!-- Node7&#45;&gt;Node8 -->
<g id="edge5" class="edge"><title>Node7&#45;&gt;Node8</title>
<path fill="none" stroke="midnightblue" d="M637.149,-113.245C653.824,-125.936 678.827,-143.434 703,-154.5 711.08,-158.198 720.033,-161.319 728.729,-163.895"/>
<polygon fill="midnightblue" stroke="midnightblue" points="639.283,-110.471 629.237,-107.105 634.992,-116.001 639.283,-110.471"/>
</g>
<!-- Node11 -->
<g id="node9" class="node"><title>Node11</title>
<g id="a_node9"><a xlink:href="namespaceobe_1_1_script.html#aad6ef67388e6d16eb01853f208da410f" target="_top" xlink:title="obe::Script::loadBaseLib">
<polygon fill="white" stroke="black" points="711,-126 711,-145 834,-145 834,-126 711,-126"/>
<text text-anchor="middle" x="772.5" y="-133" font-family="Helvetica,sans-Serif" font-size="10.00">obe::Script::loadBaseLib</text>
</a>
</g>
</g>
<!-- Node7&#45;&gt;Node11 -->
<g id="edge8" class="edge"><title>Node7&#45;&gt;Node11</title>
<path fill="none" stroke="midnightblue" d="M666.294,-109.54C687.808,-114.849 712.732,-120.999 732.919,-125.98"/>
<polygon fill="midnightblue" stroke="midnightblue" points="666.908,-106.087 656.361,-107.089 665.231,-112.883 666.908,-106.087"/>
</g>
<!-- Node12 -->
<g id="node10" class="node"><title>Node12</title>
<g id="a_node10"><a xlink:href="namespaceobe_1_1_modes.html#a1e38c0d9a2ca0230f0de79c298f53ab9" target="_top" xlink:title="A mode that will start the Toolkit. ">
<polygon fill="white" stroke="black" points="878,-96 878,-115 1024,-115 1024,-96 878,-96"/>
<text text-anchor="middle" x="951" y="-103" font-family="Helvetica,sans-Serif" font-size="10.00">obe::Modes::startToolkitMode</text>
</a>
</g>
</g>
<!-- Node7&#45;&gt;Node12 -->
<g id="edge13" class="edge"><title>Node7&#45;&gt;Node12</title>
<path fill="none" stroke="midnightblue" d="M677.437,-98.9421C733.645,-100.294 817.783,-102.319 877.692,-103.76"/>
<polygon fill="midnightblue" stroke="midnightblue" points="677.36,-95.4393 667.279,-98.6977 677.191,-102.437 677.36,-95.4393"/>
</g>
<!-- Node15 -->
<g id="node13" class="node"><title>Node15</title>
<g id="a_node13"><a xlink:href="classobe_1_1_world_1_1_world.html#a5bd621e3fd9293d949ad0c669cee6838" target="_top" xlink:title="obe::World::World::\lWorld">
<polygon fill="white" stroke="black" points="900.5,-27.5 900.5,-57.5 1001.5,-57.5 1001.5,-27.5 900.5,-27.5"/>
<text text-anchor="start" x="908.5" y="-45.5" font-family="Helvetica,sans-Serif" font-size="10.00">obe::World::World::</text>
<text text-anchor="middle" x="951" y="-34.5" font-family="Helvetica,sans-Serif" font-size="10.00">World</text>
</a>
</g>
</g>
<!-- Node7&#45;&gt;Node15 -->
<g id="edge14" class="edge"><title>Node7&#45;&gt;Node15</title>
<path fill="none" stroke="midnightblue" d="M677.189,-87.6266C740.947,-77.0802 840.845,-60.5558 900.425,-50.7004"/>
<polygon fill="midnightblue" stroke="midnightblue" points="676.573,-84.1808 667.279,-89.2659 677.716,-91.087 676.573,-84.1808"/>
</g>
<!-- Node16 -->
<g id="node14" class="node"><title>Node16</title>
<g id="a_node14"><a xlink:href="namespaceobe_1_1_world.html#afc958184e59524fdf9dc6ba98a1e9a37" target="_top" xlink:title="obe::World::loadWorldScript\lEngineBaseLib">
<polygon fill="white" stroke="black" points="703,-0.5 703,-30.5 842,-30.5 842,-0.5 703,-0.5"/>
<text text-anchor="start" x="711" y="-18.5" font-family="Helvetica,sans-Serif" font-size="10.00">obe::World::loadWorldScript</text>
<text text-anchor="middle" x="772.5" y="-7.5" font-family="Helvetica,sans-Serif" font-size="10.00">EngineBaseLib</text>
</a>
</g>
</g>
<!-- Node7&#45;&gt;Node16 -->
<g id="edge15" class="edge"><title>Node7&#45;&gt;Node16</title>
<path fill="none" stroke="midnightblue" d="M640.637,-82.2687C657.569,-71.4107 681.282,-56.7959 703,-45.5 713.021,-40.2881 724.142,-35.1539 734.458,-30.6464"/>
<polygon fill="midnightblue" stroke="midnightblue" points="638.477,-79.4976 631.983,-87.8694 642.28,-85.3741 638.477,-79.4976"/>
</g>
<!-- Node9 -->
<g id="node7" class="node"><title>Node9</title>
<g id="a_node7"><a xlink:href="namespaceobe_1_1_script.html#a5dc8321da50fd4b5dc2935e4d8c93a4e" target="_top" xlink:title="obe::Script::loadScrGame\lObject">
<polygon fill="white" stroke="black" points="886.5,-158.5 886.5,-188.5 1015.5,-188.5 1015.5,-158.5 886.5,-158.5"/>
<text text-anchor="start" x="894.5" y="-176.5" font-family="Helvetica,sans-Serif" font-size="10.00">obe::Script::loadScrGame</text>
<text text-anchor="middle" x="951" y="-165.5" font-family="Helvetica,sans-Serif" font-size="10.00">Object</text>
</a>
</g>
</g>
<!-- Node8&#45;&gt;Node9 -->
<g id="edge6" class="edge"><title>Node8&#45;&gt;Node9</title>
<path fill="none" stroke="midnightblue" d="M847.065,-173.5C860.107,-173.5 873.589,-173.5 886.329,-173.5"/>
<polygon fill="midnightblue" stroke="midnightblue" points="846.722,-170 836.722,-173.5 846.722,-177 846.722,-170"/>
</g>
<!-- Node10 -->
<g id="node8" class="node"><title>Node10</title>
<g id="a_node8"><a xlink:href="classobe_1_1_script_1_1_game_object.html#aa0d58bd1ef0fa2fe9f7567729b2d291e" target="_top" xlink:title="obe::Script::GameObject\l::loadGameObject">
<polygon fill="white" stroke="black" points="1064,-158.5 1064,-188.5 1189,-188.5 1189,-158.5 1064,-158.5"/>
<text text-anchor="start" x="1072" y="-176.5" font-family="Helvetica,sans-Serif" font-size="10.00">obe::Script::GameObject</text>
<text text-anchor="middle" x="1126.5" y="-165.5" font-family="Helvetica,sans-Serif" font-size="10.00">::loadGameObject</text>
</a>
</g>
</g>
<!-- Node9&#45;&gt;Node10 -->
<g id="edge7" class="edge"><title>Node9&#45;&gt;Node10</title>
<path fill="none" stroke="midnightblue" d="M1025.72,-173.5C1038.44,-173.5 1051.55,-173.5 1063.91,-173.5"/>
<polygon fill="midnightblue" stroke="midnightblue" points="1025.62,-170 1015.62,-173.5 1025.62,-177 1025.62,-170"/>
</g>
<!-- Node11&#45;&gt;Node12 -->
<g id="edge9" class="edge"><title>Node11&#45;&gt;Node12</title>
<path fill="none" stroke="midnightblue" d="M840.102,-124.18C857.829,-121.166 876.798,-117.942 893.901,-115.035"/>
<polygon fill="midnightblue" stroke="midnightblue" points="839.103,-120.799 829.831,-125.925 840.276,-127.7 839.103,-120.799"/>
</g>
<!-- Node13 -->
<g id="node11" class="node"><title>Node13</title>
<g id="a_node11"><a xlink:href="namespaceobe_1_1_modes.html#a6a8b08eee511d4895c4da96d4ba223a6" target="_top" xlink:title="obe::Modes::startDevMenu">
<polygon fill="white" stroke="black" points="1060,-104 1060,-123 1193,-123 1193,-104 1060,-104"/>
<text text-anchor="middle" x="1126.5" y="-111" font-family="Helvetica,sans-Serif" font-size="10.00">obe::Modes::startDevMenu</text>
</a>
</g>
</g>
<!-- Node12&#45;&gt;Node13 -->
<g id="edge10" class="edge"><title>Node12&#45;&gt;Node13</title>
<path fill="none" stroke="midnightblue" d="M1034.12,-109.286C1042.72,-109.683 1051.37,-110.082 1059.76,-110.469"/>
<polygon fill="midnightblue" stroke="midnightblue" points="1034.22,-105.788 1024.07,-108.823 1033.9,-112.78 1034.22,-105.788"/>
</g>
<!-- Node14 -->
<g id="node12" class="node"><title>Node14</title>
<g id="a_node12"><a xlink:href="_ob_engine_8cpp.html#a3c04138a5bfe5d72780bb7e82a18e627" target="_top" xlink:title="main">
<polygon fill="white" stroke="black" points="1229,-85 1229,-104 1267,-104 1267,-85 1229,-85"/>
<text text-anchor="middle" x="1248" y="-92" font-family="Helvetica,sans-Serif" font-size="10.00">main</text>
</a>
</g>
</g>
<!-- Node12&#45;&gt;Node14 -->
<g id="edge12" class="edge"><title>Node12&#45;&gt;Node14</title>
<path fill="none" stroke="midnightblue" d="M1034.37,-96.2384C1043.01,-95.5273 1051.68,-94.9226 1060,-94.5 1121.93,-91.3544 1195.54,-92.9026 1228.93,-93.8916"/>
<polygon fill="midnightblue" stroke="midnightblue" points="1033.91,-92.765 1024.25,-97.1177 1034.51,-99.7387 1033.91,-92.765"/>
</g>
<!-- Node13&#45;&gt;Node14 -->
<g id="edge11" class="edge"><title>Node13&#45;&gt;Node14</title>
<path fill="none" stroke="midnightblue" d="M1197.82,-102.319C1209.35,-100.487 1220.33,-98.7409 1228.98,-97.3654"/>
<polygon fill="midnightblue" stroke="midnightblue" points="1196.93,-98.9174 1187.6,-103.944 1198.03,-105.831 1196.93,-98.9174"/>
</g>
<!-- Node16&#45;&gt;Node15 -->
<g id="edge16" class="edge"><title>Node16&#45;&gt;Node15</title>
<path fill="none" stroke="midnightblue" d="M852.323,-27.558C868.633,-30.0528 885.376,-32.6142 900.292,-34.8959"/>
<polygon fill="midnightblue" stroke="midnightblue" points="852.659,-24.0687 842.245,-26.0162 851.601,-30.9882 852.659,-24.0687"/>
</g>
</g>
</svg>
        <g id="navigator" transform="translate(0 0)" fill="#404254">
                <rect fill="#f2f5e9" fill-opacity="0.5" stroke="#606060" stroke-width=".5" x="0" y="0" width="60" height="60"/>
                <use id="zoomplus" xlink:href="#zoomPlus" x="17" y="9" onmousedown="handleZoom(evt,'in')"/>
                <use id="zoomminus" xlink:href="#zoomMin" x="42" y="9" onmousedown="handleZoom(evt,'out')"/>
                <use id="reset" xlink:href="#resetDef" x="30" y="36" onmousedown="handleReset()"/>
                <g id="arrowUp" xlink:href="#dirArrow" transform="translate(30 24)" onmousedown="handlePan(0,-1)">
                  <use xlink:href="#rim" fill="#404040">
                        <set attributeName="fill" to="#808080" begin="arrowUp.mouseover" end="arrowUp.mouseout"/>
                  </use>
                  <path fill="none" stroke="white" stroke-width="1.5" d="M0,-3.0v7 M-2.5,-0.5L0,-3.0L2.5,-0.5"/>
                </g>
                <g id="arrowRight" xlink:href="#dirArrow" transform="rotate(90) translate(36 -43)" onmousedown="handlePan(1,0)">
                  <use xlink:href="#rim" fill="#404040">
                        <set attributeName="fill" to="#808080" begin="arrowRight.mouseover" end="arrowRight.mouseout"/>
                  </use>
                  <path fill="none" stroke="white" stroke-width="1.5" d="M0,-3.0v7 M-2.5,-0.5L0,-3.0L2.5,-0.5"/>
                </g>
                <g id="arrowDown" xlink:href="#dirArrow" transform="rotate(180) translate(-30 -48)" onmousedown="handlePan(0,1)">
                  <use xlink:href="#rim" fill="#404040">
                        <set attributeName="fill" to="#808080" begin="arrowDown.mouseover" end="arrowDown.mouseout"/>
                  </use>
                  <path fill="none" stroke="white" stroke-width="1.5" d="M0,-3.0v7 M-2.5,-0.5L0,-3.0L2.5,-0.5"/>
                </g>
                <g id="arrowLeft" xlink:href="#dirArrow" transform="rotate(270) translate(-36 17)" onmousedown="handlePan(-1,0)">
                  <use xlink:href="#rim" fill="#404040">
                        <set attributeName="fill" to="#808080" begin="arrowLeft.mouseover" end="arrowLeft.mouseout"/>
                  </use>
                  <path fill="none" stroke="white" stroke-width="1.5" d="M0,-3.0v7 M-2.5,-0.5L0,-3.0L2.5,-0.5"/>
                </g>
        </g>
        <svg viewBox="0 0 15 15" width="100%" height="30px" preserveAspectRatio="xMaxYMin meet">
         <g id="arrow_out" transform="scale(0.3 0.3)">
          <a xlink:href="classobe_1_1_script_1_1_trigger_a7a7b82c51ea5050632847ca44e960830_icgraph_org.svg" target="_base">
           <rect id="button" ry="5" rx="5" y="6" x="6" height="38" width="38"
                fill="#f2f5e9" fill-opacity="0.5" stroke="#606060" stroke-width="1.0"/>
           <path id="arrow"
             d="M 11.500037,31.436501 C 11.940474,20.09759 22.043105,11.32322 32.158766,21.979434 L 37.068811,17.246167 C 37.068811,17.246167 37.088388,32 37.088388,32 L 22.160133,31.978069 C 22.160133,31.978069 26.997745,27.140456 26.997745,27.140456 C 18.528582,18.264221 13.291696,25.230495 11.500037,31.436501 z"
             style="fill:#404040;"/>
          </a>
         </g>
        </svg>
</svg>
