<?xml version="1.0" encoding="UTF-8" standalone="no"?>
<!DOCTYPE svg PUBLIC "-//W3C//DTD SVG 1.1//EN"
 "http://www.w3.org/Graphics/SVG/1.1/DTD/svg11.dtd">
<!-- Generated by graphviz version 2.38.0 (20140413.2041)
 -->
<!-- Title: obe::World::World::loadFromFile Pages: 1 -->
<svg width="583pt" height="181pt"
 viewBox="0.00 0.00 583.00 180.50" xmlns="http://www.w3.org/2000/svg" xmlns:xlink="http://www.w3.org/1999/xlink">
<g id="graph0" class="graph" transform="scale(1 1) rotate(0) translate(4 176.5)">
<title>obe::World::World::loadFromFile</title>
<!-- Node1134 -->
<g id="node1" class="node"><title>Node1134</title>
<polygon fill="#bfbfbf" stroke="black" points="0,-79.5 0,-109.5 101,-109.5 101,-79.5 0,-79.5"/>
<text text-anchor="start" x="8" y="-97.5" font-family="Helvetica,sans-Serif" font-size="10.00">obe::World::World::</text>
<text text-anchor="middle" x="50.5" y="-86.5" font-family="Helvetica,sans-Serif" font-size="10.00">loadFromFile</text>
</g>
<!-- Node1135 -->
<g id="node2" class="node"><title>Node1135</title>
<g id="a_node2"><a xlink:href="namespaceobe_1_1_editor.html#a508e767d732debdb65e63c7bffa50623" target="_top" xlink:title="obe::Editor::editMap">
<polygon fill="white" stroke="black" points="148,-123 148,-142 252,-142 252,-123 148,-123"/>
<text text-anchor="middle" x="200" y="-130" font-family="Helvetica,sans-Serif" font-size="10.00">obe::Editor::editMap</text>
</a>
</g>
</g>
<!-- Node1134&#45;&gt;Node1135 -->
<g id="edge1" class="edge"><title>Node1134&#45;&gt;Node1135</title>
<path fill="none" stroke="midnightblue" d="M111.014,-109.832C128.24,-114.27 146.543,-118.986 161.968,-122.96"/>
<polygon fill="midnightblue" stroke="midnightblue" points="111.583,-106.365 101.026,-107.259 109.836,-113.143 111.583,-106.365"/>
</g>
<!-- Node1138 -->
<g id="node5" class="node"><title>Node1138</title>
<g id="a_node5"><a xlink:href="namespaceobe_1_1_world.html#af739dc1887d2fa99eeded5b208cf66f5" target="_top" xlink:title="obe::World::loadWorldLib">
<polygon fill="white" stroke="black" points="137,-47 137,-66 263,-66 263,-47 137,-47"/>
<text text-anchor="middle" x="200" y="-54" font-family="Helvetica,sans-Serif" font-size="10.00">obe::World::loadWorldLib</text>
</a>
</g>
</g>
<!-- Node1134&#45;&gt;Node1138 -->
<g id="edge5" class="edge"><title>Node1134&#45;&gt;Node1138</title>
<path fill="none" stroke="midnightblue" d="M111.014,-79.1677C128.24,-74.7298 146.543,-70.0144 161.968,-66.0403"/>
<polygon fill="midnightblue" stroke="midnightblue" points="109.836,-75.8566 101.026,-81.7408 111.583,-82.6353 109.836,-75.8566"/>
</g>
<!-- Node1136 -->
<g id="node3" class="node"><title>Node1136</title>
<g id="a_node3"><a xlink:href="namespaceobe_1_1_modes.html#a6a8b08eee511d4895c4da96d4ba223a6" target="_top" xlink:title="obe::Modes::startDevMenu">
<polygon fill="white" stroke="black" points="302,-153 302,-172 435,-172 435,-153 302,-153"/>
<text text-anchor="middle" x="368.5" y="-160" font-family="Helvetica,sans-Serif" font-size="10.00">obe::Modes::startDevMenu</text>
</a>
</g>
</g>
<!-- Node1135&#45;&gt;Node1136 -->
<g id="edge2" class="edge"><title>Node1135&#45;&gt;Node1136</title>
<path fill="none" stroke="midnightblue" d="M262.253,-143.537C279.441,-146.633 297.975,-149.973 314.63,-152.974"/>
<polygon fill="midnightblue" stroke="midnightblue" points="262.776,-140.075 252.314,-141.746 261.535,-146.964 262.776,-140.075"/>
</g>
<!-- Node1137 -->
<g id="node4" class="node"><title>Node1137</title>
<g id="a_node4"><a xlink:href="_ob_engine_8cpp.html#a3c04138a5bfe5d72780bb7e82a18e627" target="_top" xlink:title="main">
<polygon fill="white" stroke="black" points="505.5,-134 505.5,-153 543.5,-153 543.5,-134 505.5,-134"/>
<text text-anchor="middle" x="524.5" y="-141" font-family="Helvetica,sans-Serif" font-size="10.00">main</text>
</a>
</g>
</g>
<!-- Node1135&#45;&gt;Node1137 -->
<g id="edge4" class="edge"><title>Node1135&#45;&gt;Node1137</title>
<path fill="none" stroke="midnightblue" d="M262.326,-134.592C337.109,-137.142 459.222,-141.308 505.21,-142.876"/>
<polygon fill="midnightblue" stroke="midnightblue" points="262.215,-131.086 252.101,-134.243 261.976,-138.082 262.215,-131.086"/>
</g>
<!-- Node1136&#45;&gt;Node1137 -->
<g id="edge3" class="edge"><title>Node1136&#45;&gt;Node1137</title>
<path fill="none" stroke="midnightblue" d="M445.481,-153.126C467.811,-150.371 490.256,-147.602 505.301,-145.745"/>
<polygon fill="midnightblue" stroke="midnightblue" points="444.753,-149.689 435.257,-154.387 445.61,-156.636 444.753,-149.689"/>
</g>
<!-- Node1139 -->
<g id="node6" class="node"><title>Node1139</title>
<g id="a_node6"><a xlink:href="classobe_1_1_world_1_1_world.html#a4985b41c5ed027948d823d7155abf779" target="_top" xlink:title="obe::World::World::\lcreateGameObject">
<polygon fill="white" stroke="black" points="318,-49.5 318,-79.5 419,-79.5 419,-49.5 318,-49.5"/>
<text text-anchor="start" x="326" y="-67.5" font-family="Helvetica,sans-Serif" font-size="10.00">obe::World::World::</text>
<text text-anchor="middle" x="368.5" y="-56.5" font-family="Helvetica,sans-Serif" font-size="10.00">createGameObject</text>
</a>
</g>
</g>
<!-- Node1138&#45;&gt;Node1139 -->
<g id="edge6" class="edge"><title>Node1138&#45;&gt;Node1139</title>
<path fill="none" stroke="midnightblue" d="M273.715,-53.2921C288.652,-53.8722 304.049,-54.7684 317.94,-55.8861"/>
<polygon fill="midnightblue" stroke="midnightblue" points="273.586,-49.7857 263.472,-52.9421 273.347,-56.7816 273.586,-49.7857"/>
</g>
<!-- Node1140 -->
<g id="node7" class="node"><title>Node1140</title>
<g id="a_node7"><a xlink:href="namespaceobe_1_1_world.html#afc958184e59524fdf9dc6ba98a1e9a37" target="_top" xlink:title="obe::World::loadWorldScript\lEngineBaseLib">
<polygon fill="white" stroke="black" points="299,-0.5 299,-30.5 438,-30.5 438,-0.5 299,-0.5"/>
<text text-anchor="start" x="307" y="-18.5" font-family="Helvetica,sans-Serif" font-size="10.00">obe::World::loadWorldScript</text>
<text text-anchor="middle" x="368.5" y="-7.5" font-family="Helvetica,sans-Serif" font-size="10.00">EngineBaseLib</text>
</a>
</g>
</g>
<!-- Node1138&#45;&gt;Node1140 -->
<g id="edge9" class="edge"><title>Node1138&#45;&gt;Node1140</title>
<path fill="none" stroke="midnightblue" d="M249.712,-44.5049C267.406,-40.1477 287.631,-35.1673 306.27,-30.5777"/>
<polygon fill="midnightblue" stroke="midnightblue" points="248.49,-41.2011 239.617,-46.9907 250.164,-47.9981 248.49,-41.2011"/>
</g>
<!-- Node1139&#45;&gt;Node1134 -->
<g id="edge7" class="edge"><title>Node1139&#45;&gt;Node1134</title>
<path fill="none" stroke="midnightblue" d="M307.85,-70.9379C293.189,-72.4764 277.531,-74.0826 263,-75.5 207.594,-80.9044 143.966,-86.5437 101.091,-90.2605"/>
<polygon fill="midnightblue" stroke="midnightblue" points="308.237,-74.4166 317.815,-69.8868 307.503,-67.4552 308.237,-74.4166"/>
</g>
<!-- Node1139&#45;&gt;Node1138 -->
<g id="edge8" class="edge"><title>Node1139&#45;&gt;Node1138</title>
<path fill="none" stroke="midnightblue" d="M307.584,-68.1298C293.095,-67.7408 277.581,-67.0094 262.998,-66.0295"/>
<polygon fill="midnightblue" stroke="midnightblue" points="307.852,-71.6362 317.925,-68.3511 308.002,-64.6378 307.852,-71.6362"/>
</g>
<!-- Node1141 -->
<g id="node8" class="node"><title>Node1141</title>
<g id="a_node8"><a xlink:href="classobe_1_1_world_1_1_world.html#a5bd621e3fd9293d949ad0c669cee6838" target="_top" xlink:title="obe::World::World::\lWorld">
<polygon fill="white" stroke="black" points="474,-0.5 474,-30.5 575,-30.5 575,-0.5 474,-0.5"/>
<text text-anchor="start" x="482" y="-18.5" font-family="Helvetica,sans-Serif" font-size="10.00">obe::World::World::</text>
<text text-anchor="middle" x="524.5" y="-7.5" font-family="Helvetica,sans-Serif" font-size="10.00">World</text>
</a>
</g>
</g>
<!-- Node1140&#45;&gt;Node1141 -->
<g id="edge10" class="edge"><title>Node1140&#45;&gt;Node1141</title>
<path fill="none" stroke="midnightblue" d="M448.429,-15.5C456.988,-15.5 465.515,-15.5 473.587,-15.5"/>
<polygon fill="midnightblue" stroke="midnightblue" points="448.392,-12.0001 438.392,-15.5 448.392,-19.0001 448.392,-12.0001"/>
</g>
</g>
</svg>
