<?xml version="1.0" encoding="UTF-8" standalone="no"?>
<!DOCTYPE svg PUBLIC "-//W3C//DTD SVG 1.1//EN"
 "http://www.w3.org/Graphics/SVG/1.1/DTD/svg11.dtd">
<!-- Generated by graphviz version 2.38.0 (20140413.2041)
 -->
<!-- Title: vili::NodeIterator::terminate Pages: 1 -->
<!--zoomable 261 -->
<svg id="main" version="1.1" xmlns="http://www.w3.org/2000/svg" xmlns:xlink="http://www.w3.org/1999/xlink" xml:space="preserve" onload="init(evt)">
<style type="text/css"><![CDATA[
.edge:hover path { stroke: red; }
.edge:hover polygon { stroke: red; fill: red; }
.edge path { stroke: white; }
.edge polygon { stroke: white; fill: white; }
.node polygon { fill: white; }
]]></style>
<script type="text/javascript"><![CDATA[
var edges = document.getElementsByTagName('g');
if (edges && edges.length) {
  for (var i=0;i<edges.length;i++) {
    if (edges[i].id.substr(0,4)=='edge') {
      edges[i].setAttribute('class','edge');
    }
  }
}
]]></script>
        <defs>
                <circle id="rim" cx="0" cy="0" r="7"/>
                <circle id="rim2" cx="0" cy="0" r="3.5"/>
                <g id="zoomPlus">
                        <use xlink:href="#rim" fill="#404040">
                                <set attributeName="fill" to="#808080" begin="zoomplus.mouseover" end="zoomplus.mouseout"/>
                        </use>
                        <path d="M-4,0h8M0,-4v8" fill="none" stroke="white" stroke-width="1.5" pointer-events="none"/>
                </g>
                <g id="zoomMin">
                        <use xlink:href="#rim" fill="#404040">
                                <set attributeName="fill" to="#808080" begin="zoomminus.mouseover" end="zoomminus.mouseout"/>
                        </use>
                        <path d="M-4,0h8" fill="none" stroke="white" stroke-width="1.5" pointer-events="none"/>
                </g>
                <g id="dirArrow">
                        <path fill="none" stroke="white" stroke-width="1.5" d="M0,-3.0v7 M-2.5,-0.5L0,-3.0L2.5,-0.5"/>
                </g>
               <g id="resetDef">
                       <use xlink:href="#rim2" fill="#404040">
                               <set attributeName="fill" to="#808080" begin="reset.mouseover" end="reset.mouseout"/>
                       </use>
               </g>
        </defs>

<script type="text/javascript">
var viewWidth = 1489;
var viewHeight = 261;
var sectionId = 'dynsection-14';
</script>
<script xlink:href="svgpan.js"/>
<svg id="graph" class="graph">
<g id="viewport">
<title>vili::NodeIterator::terminate</title>
<!-- Node143 -->
<g id="node1" class="node"><title>Node143</title>
<polygon fill="#bfbfbf" stroke="black" points="0,-33 0,-63 86,-63 86,-33 0,-33"/>
<text text-anchor="start" x="8" y="-51" font-family="Helvetica,sans-Serif" font-size="10.00">vili::NodeIterator</text>
<text text-anchor="middle" x="43" y="-40" font-family="Helvetica,sans-Serif" font-size="10.00">::terminate</text>
</g>
<!-- Node144 -->
<g id="node2" class="node"><title>Node144</title>
<g id="a_node2"><a xlink:href="classvili_1_1_data_parser.html#aee1cbc0386d83924c07150644621160f" target="_top" xlink:title="vili::DataParser::parseFile">
<polygon fill="none" stroke="black" points="122,-38.5 122,-57.5 250,-57.5 250,-38.5 122,-38.5"/>
<text text-anchor="middle" x="186" y="-45.5" font-family="Helvetica,sans-Serif" font-size="10.00">vili::DataParser::parseFile</text>
</a>
</g>
</g>
<!-- Node143&#45;&gt;Node144 -->
<g id="edge1" class="edge"><title>Node143&#45;&gt;Node144</title>
<path fill="none" stroke="midnightblue" d="M96.5375,-48C104.794,-48 113.403,-48 121.869,-48"/>
<polygon fill="midnightblue" stroke="midnightblue" points="96.3047,-44.5001 86.3046,-48 96.3046,-51.5001 96.3047,-44.5001"/>
</g>
<!-- Node145 -->
<g id="node3" class="node"><title>Node145</title>
<g id="a_node3"><a xlink:href="classvili_1_1_data_parser.html#aa24d18e75c36a9a848b2d2a0f14a5819" target="_top" xlink:title="vili::DataParser::DataParser">
<polygon fill="none" stroke="black" points="286,-95.5 286,-114.5 423,-114.5 423,-95.5 286,-95.5"/>
<text text-anchor="middle" x="354.5" y="-102.5" font-family="Helvetica,sans-Serif" font-size="10.00">vili::DataParser::DataParser</text>
</a>
</g>
</g>
<!-- Node144&#45;&gt;Node145 -->
<g id="edge2" class="edge"><title>Node144&#45;&gt;Node145</title>
<path fill="none" stroke="midnightblue" d="M219.463,-61.3282C238.658,-68.9904 263.532,-78.5434 286,-86 296.052,-89.3362 307.068,-92.5991 317.231,-95.4534"/>
<polygon fill="midnightblue" stroke="midnightblue" points="220.57,-58.0008 209.986,-57.5148 217.957,-64.4948 220.57,-58.0008"/>
</g>
<!-- Node146 -->
<g id="node4" class="node"><title>Node146</title>
<g id="a_node4"><a xlink:href="classvili_1_1_data_parser.html#a17e30ec4a5e111082ffea7ca82eb89d9" target="_top" xlink:title="vili::DataParser::includeFile">
<polygon fill="none" stroke="black" points="287.5,-19.5 287.5,-38.5 421.5,-38.5 421.5,-19.5 287.5,-19.5"/>
<text text-anchor="middle" x="354.5" y="-26.5" font-family="Helvetica,sans-Serif" font-size="10.00">vili::DataParser::includeFile</text>
</a>
</g>
</g>
<!-- Node144&#45;&gt;Node146 -->
<g id="edge3" class="edge"><title>Node144&#45;&gt;Node146</title>
<path fill="none" stroke="midnightblue" d="M231.752,-36.8306C248.854,-34.2222 268.734,-31.7674 287.411,-29.9208"/>
<polygon fill="midnightblue" stroke="midnightblue" points="230.821,-33.435 221.499,-38.4705 231.926,-40.3471 230.821,-33.435"/>
</g>
<!-- Node151 -->
<g id="node9" class="node"><title>Node151</title>
<g id="a_node9"><a xlink:href="namespaceobe_1_1_system.html#ab44a678f8f4dc351d966f90283ba67e1" target="_top" xlink:title="Function called to Mount all Paths using &#39;Mount.vili&#39; file. ">
<polygon fill="none" stroke="black" points="289,-57.5 289,-76.5 420,-76.5 420,-57.5 289,-57.5"/>
<text text-anchor="middle" x="354.5" y="-64.5" font-family="Helvetica,sans-Serif" font-size="10.00">obe::System::MountPaths</text>
</a>
</g>
</g>
<!-- Node144&#45;&gt;Node151 -->
<g id="edge10" class="edge"><title>Node144&#45;&gt;Node151</title>
<path fill="none" stroke="midnightblue" d="M260.567,-56.395C269.999,-57.4714 279.599,-58.5669 288.874,-59.6253"/>
<polygon fill="midnightblue" stroke="midnightblue" points="260.754,-52.8937 250.421,-55.2373 259.96,-59.8486 260.754,-52.8937"/>
</g>
<!-- Node146&#45;&gt;Node144 -->
<g id="edge4" class="edge"><title>Node146&#45;&gt;Node144</title>
<path fill="none" stroke="midnightblue" d="M309.206,-40.0995C291.187,-42.8586 270.026,-45.4508 250.421,-47.3396"/>
<polygon fill="midnightblue" stroke="midnightblue" points="309.819,-43.5459 319.138,-38.5064 308.71,-36.6343 309.819,-43.5459"/>
</g>
<!-- Node147 -->
<g id="node5" class="node"><title>Node147</title>
<g id="a_node5"><a xlink:href="namespaceobe_1_1_modes.html#aba069f9abc42724d76690602326d6b7d" target="_top" xlink:title="obe::Modes::createLevel">
<polygon fill="none" stroke="black" points="459,-0.5 459,-19.5 581,-19.5 581,-0.5 459,-0.5"/>
<text text-anchor="middle" x="520" y="-7.5" font-family="Helvetica,sans-Serif" font-size="10.00">obe::Modes::createLevel</text>
</a>
</g>
</g>
<!-- Node146&#45;&gt;Node147 -->
<g id="edge5" class="edge"><title>Node146&#45;&gt;Node147</title>
<path fill="none" stroke="midnightblue" d="M431.723,-20.1423C440.806,-19.0867 449.981,-18.0205 458.796,-16.9962"/>
<polygon fill="midnightblue" stroke="midnightblue" points="431.06,-16.6957 421.53,-21.3267 431.868,-23.6489 431.06,-16.6957"/>
</g>
<!-- Node148 -->
<g id="node6" class="node"><title>Node148</title>
<g id="a_node6"><a xlink:href="namespaceobe_1_1_modes.html#a3f3265818dfb12925bf614e517346f73" target="_top" xlink:title="Starts the menu used to chose a map to edit. ">
<polygon fill="none" stroke="black" points="1090,-1.5 1090,-20.5 1238,-20.5 1238,-1.5 1090,-1.5"/>
<text text-anchor="middle" x="1164" y="-8.5" font-family="Helvetica,sans-Serif" font-size="10.00">obe::Modes::chooseMapMenu</text>
</a>
</g>
</g>
<!-- Node147&#45;&gt;Node148 -->
<g id="edge6" class="edge"><title>Node147&#45;&gt;Node148</title>
<path fill="none" stroke="midnightblue" d="M591.124,-10.1092C713.573,-10.3 965.18,-10.6919 1089.77,-10.8859"/>
<polygon fill="midnightblue" stroke="midnightblue" points="591.115,-6.60931 581.109,-10.0936 591.104,-13.6093 591.115,-6.60931"/>
</g>
<!-- Node149 -->
<g id="node7" class="node"><title>Node149</title>
<g id="a_node7"><a xlink:href="namespaceobe_1_1_modes.html#a6a8b08eee511d4895c4da96d4ba223a6" target="_top" xlink:title="Starts the development Menu where you can starts other menus from. ">
<polygon fill="none" stroke="black" points="1274,-39.5 1274,-58.5 1407,-58.5 1407,-39.5 1274,-39.5"/>
<text text-anchor="middle" x="1340.5" y="-46.5" font-family="Helvetica,sans-Serif" font-size="10.00">obe::Modes::startDevMenu</text>
</a>
</g>
</g>
<!-- Node148&#45;&gt;Node149 -->
<g id="edge7" class="edge"><title>Node148&#45;&gt;Node149</title>
<path fill="none" stroke="midnightblue" d="M1218.97,-22.7526C1243.64,-28.1258 1272.49,-34.4086 1295.78,-39.4799"/>
<polygon fill="midnightblue" stroke="midnightblue" points="1219.55,-19.297 1209.03,-20.589 1218.06,-26.1367 1219.55,-19.297"/>
</g>
<!-- Node150 -->
<g id="node8" class="node"><title>Node150</title>
<g id="a_node8"><a xlink:href="_ob_engine_8cpp.html#a3c04138a5bfe5d72780bb7e82a18e627" target="_top" xlink:title="main">
<polygon fill="none" stroke="black" points="1443,-58.5 1443,-77.5 1481,-77.5 1481,-58.5 1443,-58.5"/>
<text text-anchor="middle" x="1462" y="-65.5" font-family="Helvetica,sans-Serif" font-size="10.00">main</text>
</a>
</g>
</g>
<!-- Node148&#45;&gt;Node150 -->
<g id="edge9" class="edge"><title>Node148&#45;&gt;Node150</title>
<path fill="none" stroke="midnightblue" d="M1248.35,-6.7894C1296.09,-6.99422 1356.39,-11.7692 1407,-30 1424.04,-36.1389 1440.62,-49.175 1450.81,-58.2562"/>
<polygon fill="midnightblue" stroke="midnightblue" points="1248.04,-3.29004 1238.05,-6.81461 1248.06,-10.29 1248.04,-3.29004"/>
</g>
<!-- Node149&#45;&gt;Node150 -->
<g id="edge8" class="edge"><title>Node149&#45;&gt;Node150</title>
<path fill="none" stroke="midnightblue" d="M1411.82,-60.1808C1423.35,-62.0131 1434.33,-63.7591 1442.98,-65.1346"/>
<polygon fill="midnightblue" stroke="midnightblue" points="1412.03,-56.6694 1401.6,-58.5557 1410.93,-63.5826 1412.03,-56.6694"/>
</g>
<!-- Node151&#45;&gt;Node150 -->
<g id="edge11" class="edge"><title>Node151&#45;&gt;Node150</title>
<path fill="none" stroke="midnightblue" d="M405.89,-79.5963C411.738,-81.5231 417.554,-83.6602 423,-86 543.49,-137.768 545.36,-237 676.5,-237 676.5,-237 676.5,-237 1165,-237 1272.92,-237 1321.27,-282.552 1407,-217 1452.68,-182.071 1459.77,-104.863 1460.83,-77.6908"/>
<polygon fill="midnightblue" stroke="midnightblue" points="406.665,-76.1722 396.077,-76.5535 404.592,-82.8582 406.665,-76.1722"/>
</g>
<!-- Node152 -->
<g id="node10" class="node"><title>Node152</title>
<g id="a_node10"><a xlink:href="namespaceobe_1_1_script_1_1_core_lib.html#a474d9f2d7938ff05a78649907b8a77d3" target="_top" xlink:title="obe::Script::CoreLib\l::loadPath">
<polygon fill="none" stroke="black" points="468.5,-52 468.5,-82 571.5,-82 571.5,-52 468.5,-52"/>
<text text-anchor="start" x="476.5" y="-70" font-family="Helvetica,sans-Serif" font-size="10.00">obe::Script::CoreLib</text>
<text text-anchor="middle" x="520" y="-59" font-family="Helvetica,sans-Serif" font-size="10.00">::loadPath</text>
</a>
</g>
</g>
<!-- Node151&#45;&gt;Node152 -->
<g id="edge12" class="edge"><title>Node151&#45;&gt;Node152</title>
<path fill="none" stroke="midnightblue" d="M430.385,-67C443.278,-67 456.4,-67 468.457,-67"/>
<polygon fill="midnightblue" stroke="midnightblue" points="430.12,-63.5001 420.12,-67 430.119,-70.5001 430.12,-63.5001"/>
</g>
<!-- Node153 -->
<g id="node11" class="node"><title>Node153</title>
<g id="a_node11"><a xlink:href="namespaceobe_1_1_script.html#abdb81ec0976f1097cef6711415b8fac3" target="_top" xlink:title="obe::Script::loadCoreLib">
<polygon fill="none" stroke="black" points="617,-57.5 617,-76.5 738,-76.5 738,-57.5 617,-57.5"/>
<text text-anchor="middle" x="677.5" y="-64.5" font-family="Helvetica,sans-Serif" font-size="10.00">obe::Script::loadCoreLib</text>
</a>
</g>
</g>
<!-- Node152&#45;&gt;Node153 -->
<g id="edge13" class="edge"><title>Node152&#45;&gt;Node153</title>
<path fill="none" stroke="midnightblue" d="M582.205,-67C593.592,-67 605.476,-67 616.817,-67"/>
<polygon fill="midnightblue" stroke="midnightblue" points="581.917,-63.5001 571.917,-67 581.916,-70.5001 581.917,-63.5001"/>
</g>
<!-- Node154 -->
<g id="node12" class="node"><title>Node154</title>
<g id="a_node12"><a xlink:href="namespaceobe_1_1_script.html#a4e6ee77032cf7f66544f9b08464a60b7" target="_top" xlink:title="obe::Script::loadLib">
<polygon fill="none" stroke="black" points="775,-101.5 775,-120.5 876,-120.5 876,-101.5 775,-101.5"/>
<text text-anchor="middle" x="825.5" y="-108.5" font-family="Helvetica,sans-Serif" font-size="10.00">obe::Script::loadLib</text>
</a>
</g>
</g>
<!-- Node153&#45;&gt;Node154 -->
<g id="edge14" class="edge"><title>Node153&#45;&gt;Node154</title>
<path fill="none" stroke="midnightblue" d="M719.761,-79.4347C742.959,-86.426 771.468,-95.0177 792.882,-101.471"/>
<polygon fill="midnightblue" stroke="midnightblue" points="720.764,-76.0818 710.18,-76.5473 718.745,-82.7841 720.764,-76.0818"/>
</g>
<!-- Node162 -->
<g id="node20" class="node"><title>Node162</title>
<g id="a_node20"><a xlink:href="namespaceobe_1_1_script_1_1_core_lib.html#a07d6c11bbb082bc45bdba50d97965c00" target="_top" xlink:title="obe::Script::CoreLib\l::loadCollision">
<polygon fill="none" stroke="black" points="774,-52 774,-82 877,-82 877,-52 774,-52"/>
<text text-anchor="start" x="782" y="-70" font-family="Helvetica,sans-Serif" font-size="10.00">obe::Script::CoreLib</text>
<text text-anchor="middle" x="825.5" y="-59" font-family="Helvetica,sans-Serif" font-size="10.00">::loadCollision</text>
</a>
</g>
</g>
<!-- Node153&#45;&gt;Node162 -->
<g id="edge26" class="edge"><title>Node153&#45;&gt;Node162</title>
<path fill="none" stroke="midnightblue" d="M748.356,-60.2556C756.966,-60.2251 765.634,-60.3199 773.88,-60.5402"/>
<polygon fill="midnightblue" stroke="midnightblue" points="748.272,-56.7561 738.305,-60.349 748.337,-63.7558 748.272,-56.7561"/>
</g>
<!-- Node155 -->
<g id="node13" class="node"><title>Node155</title>
<g id="a_node13"><a xlink:href="namespaceobe_1_1_modes.html#a1e38c0d9a2ca0230f0de79c298f53ab9" target="_top" xlink:title="A mode that will start the Toolkit. ">
<polygon fill="none" stroke="black" points="1091,-52.5 1091,-71.5 1237,-71.5 1237,-52.5 1091,-52.5"/>
<text text-anchor="middle" x="1164" y="-59.5" font-family="Helvetica,sans-Serif" font-size="10.00">obe::Modes::startToolkitMode</text>
</a>
</g>
</g>
<!-- Node154&#45;&gt;Node155 -->
<g id="edge15" class="edge"><title>Node154&#45;&gt;Node155</title>
<path fill="none" stroke="midnightblue" d="M886.119,-102.318C945.44,-93.6803 1036.23,-80.4593 1097.53,-71.534"/>
<polygon fill="midnightblue" stroke="midnightblue" points="885.543,-98.8654 876.152,-103.77 886.552,-105.792 885.543,-98.8654"/>
</g>
<!-- Node156 -->
<g id="node14" class="node"><title>Node156</title>
<g id="a_node14"><a xlink:href="classobe_1_1_scene_1_1_world.html#a32964e659e18cb32094d9f8ceea30aa3" target="_top" xlink:title="obe::Scene::World::\lWorld">
<polygon fill="none" stroke="black" points="1112,-107 1112,-137 1216,-137 1216,-107 1112,-107"/>
<text text-anchor="start" x="1120" y="-125" font-family="Helvetica,sans-Serif" font-size="10.00">obe::Scene::World::</text>
<text text-anchor="middle" x="1164" y="-114" font-family="Helvetica,sans-Serif" font-size="10.00">World</text>
</a>
</g>
</g>
<!-- Node154&#45;&gt;Node156 -->
<g id="edge18" class="edge"><title>Node154&#45;&gt;Node156</title>
<path fill="none" stroke="midnightblue" d="M886.51,-112.962C950.639,-115.058 1051.22,-118.346 1111.76,-120.325"/>
<polygon fill="midnightblue" stroke="midnightblue" points="886.261,-109.452 876.152,-112.623 886.032,-116.448 886.261,-109.452"/>
</g>
<!-- Node157 -->
<g id="node15" class="node"><title>Node157</title>
<g id="a_node15"><a xlink:href="namespaceobe_1_1_scene.html#ae5cbcc3278d9115d603e5024dec9136e" target="_top" xlink:title="obe::Scene::loadWorldScript\lEngineBaseLib">
<polygon fill="none" stroke="black" points="913,-140 913,-170 1054,-170 1054,-140 913,-140"/>
<text text-anchor="start" x="921" y="-158" font-family="Helvetica,sans-Serif" font-size="10.00">obe::Scene::loadWorldScript</text>
<text text-anchor="middle" x="983.5" y="-147" font-family="Helvetica,sans-Serif" font-size="10.00">EngineBaseLib</text>
</a>
</g>
</g>
<!-- Node154&#45;&gt;Node157 -->
<g id="edge19" class="edge"><title>Node154&#45;&gt;Node157</title>
<path fill="none" stroke="midnightblue" d="M870.151,-123.312C888.437,-128.469 909.871,-134.515 929.086,-139.935"/>
<polygon fill="midnightblue" stroke="midnightblue" points="870.924,-119.893 860.35,-120.547 869.024,-126.631 870.924,-119.893"/>
</g>
<!-- Node158 -->
<g id="node16" class="node"><title>Node158</title>
<g id="a_node16"><a xlink:href="namespaceobe_1_1_script.html#a5e992c0efb0543e7c934bc1065f08b01" target="_top" xlink:title="obe::Script::loadLibBridge">
<polygon fill="none" stroke="black" points="919.5,-189.5 919.5,-208.5 1047.5,-208.5 1047.5,-189.5 919.5,-189.5"/>
<text text-anchor="middle" x="983.5" y="-196.5" font-family="Helvetica,sans-Serif" font-size="10.00">obe::Script::loadLibBridge</text>
</a>
</g>
</g>
<!-- Node154&#45;&gt;Node158 -->
<g id="edge21" class="edge"><title>Node154&#45;&gt;Node158</title>
<path fill="none" stroke="midnightblue" d="M843.695,-127.853C860.212,-143.186 886.503,-165.433 913,-179 921.27,-183.234 930.566,-186.692 939.604,-189.468"/>
<polygon fill="midnightblue" stroke="midnightblue" points="845.662,-124.894 835.999,-120.548 840.843,-129.971 845.662,-124.894"/>
</g>
<!-- Node161 -->
<g id="node19" class="node"><title>Node161</title>
<g id="a_node19"><a xlink:href="namespaceobe_1_1_script.html#aad6ef67388e6d16eb01853f208da410f" target="_top" xlink:title="obe::Script::loadBaseLib">
<polygon fill="none" stroke="black" points="922,-25.5 922,-44.5 1045,-44.5 1045,-25.5 922,-25.5"/>
<text text-anchor="middle" x="983.5" y="-32.5" font-family="Helvetica,sans-Serif" font-size="10.00">obe::Script::loadBaseLib</text>
</a>
</g>
</g>
<!-- Node154&#45;&gt;Node161 -->
<g id="edge24" class="edge"><title>Node154&#45;&gt;Node161</title>
<path fill="none" stroke="midnightblue" d="M864.864,-97.4717C869.065,-95.5052 873.193,-93.3437 877,-91 895.229,-79.7767 894.525,-69.8142 913,-59 923.245,-53.0029 935.219,-48.1957 946.313,-44.5053"/>
<polygon fill="midnightblue" stroke="midnightblue" points="863.437,-94.2756 855.65,-101.46 866.217,-100.7 863.437,-94.2756"/>
</g>
<!-- Node155&#45;&gt;Node149 -->
<g id="edge16" class="edge"><title>Node155&#45;&gt;Node149</title>
<path fill="none" stroke="midnightblue" d="M1247.23,-55.8742C1256.12,-55.2117 1265.08,-54.544 1273.74,-53.8987"/>
<polygon fill="midnightblue" stroke="midnightblue" points="1246.95,-52.3852 1237.24,-56.6186 1247.47,-59.3659 1246.95,-52.3852"/>
</g>
<!-- Node155&#45;&gt;Node150 -->
<g id="edge17" class="edge"><title>Node155&#45;&gt;Node150</title>
<path fill="none" stroke="midnightblue" d="M1247.25,-67.0106C1256.27,-67.4165 1265.33,-67.7615 1274,-68 1335.99,-69.7047 1409.57,-68.8657 1442.94,-68.3297"/>
<polygon fill="midnightblue" stroke="midnightblue" points="1247.25,-63.5068 1237.09,-66.529 1246.92,-70.499 1247.25,-63.5068"/>
</g>
<!-- Node157&#45;&gt;Node156 -->
<g id="edge20" class="edge"><title>Node157&#45;&gt;Node156</title>
<path fill="none" stroke="midnightblue" d="M1064.06,-140.291C1080.31,-137.288 1096.98,-134.205 1111.91,-131.446"/>
<polygon fill="midnightblue" stroke="midnightblue" points="1063.22,-136.887 1054.02,-142.147 1064.49,-143.771 1063.22,-136.887"/>
</g>
<!-- Node159 -->
<g id="node17" class="node"><title>Node159</title>
<g id="a_node17"><a xlink:href="namespaceobe_1_1_script.html#a5dc8321da50fd4b5dc2935e4d8c93a4e" target="_top" xlink:title="obe::Script::loadScrGame\lObject">
<polygon fill="none" stroke="black" points="1099.5,-178 1099.5,-208 1228.5,-208 1228.5,-178 1099.5,-178"/>
<text text-anchor="start" x="1107.5" y="-196" font-family="Helvetica,sans-Serif" font-size="10.00">obe::Script::loadScrGame</text>
<text text-anchor="middle" x="1164" y="-185" font-family="Helvetica,sans-Serif" font-size="10.00">Object</text>
</a>
</g>
</g>
<!-- Node158&#45;&gt;Node159 -->
<g id="edge22" class="edge"><title>Node158&#45;&gt;Node159</title>
<path fill="none" stroke="midnightblue" d="M1058.03,-196.528C1071.73,-196.068 1085.93,-195.591 1099.3,-195.141"/>
<polygon fill="midnightblue" stroke="midnightblue" points="1057.56,-193.042 1047.68,-196.876 1057.8,-200.038 1057.56,-193.042"/>
</g>
<!-- Node160 -->
<g id="node18" class="node"><title>Node160</title>
<g id="a_node18"><a xlink:href="classobe_1_1_script_1_1_game_object.html#aadeac0036d2fe21d523acfd4e9011a23" target="_top" xlink:title="obe::Script::GameObject\l::loadGameObject">
<polygon fill="none" stroke="black" points="1278,-178 1278,-208 1403,-208 1403,-178 1278,-178"/>
<text text-anchor="start" x="1286" y="-196" font-family="Helvetica,sans-Serif" font-size="10.00">obe::Script::GameObject</text>
<text text-anchor="middle" x="1340.5" y="-185" font-family="Helvetica,sans-Serif" font-size="10.00">::loadGameObject</text>
</a>
</g>
</g>
<!-- Node159&#45;&gt;Node160 -->
<g id="edge23" class="edge"><title>Node159&#45;&gt;Node160</title>
<path fill="none" stroke="midnightblue" d="M1239.21,-193C1252.09,-193 1265.35,-193 1277.85,-193"/>
<polygon fill="midnightblue" stroke="midnightblue" points="1238.99,-189.5 1228.99,-193 1238.99,-196.5 1238.99,-189.5"/>
</g>
<!-- Node161&#45;&gt;Node155 -->
<g id="edge25" class="edge"><title>Node161&#45;&gt;Node155</title>
<path fill="none" stroke="midnightblue" d="M1055.47,-45.7345C1070.15,-47.956 1085.53,-50.2819 1099.91,-52.4574"/>
<polygon fill="midnightblue" stroke="midnightblue" points="1055.84,-42.2514 1045.43,-44.2164 1054.79,-49.1727 1055.84,-42.2514"/>
</g>
<!-- Node162&#45;&gt;Node153 -->
<g id="edge27" class="edge"><title>Node162&#45;&gt;Node153</title>
<path fill="none" stroke="midnightblue" d="M763.757,-73.6647C755.342,-73.7828 746.703,-73.7783 738.305,-73.651"/>
<polygon fill="midnightblue" stroke="midnightblue" points="763.953,-77.1616 773.88,-73.4598 763.811,-70.163 763.953,-77.1616"/>
</g>
</g>
</svg>
        <g id="navigator" transform="translate(0 0)" fill="#404254">
                <rect fill="#f2f5e9" fill-opacity="0.5" stroke="#606060" stroke-width=".5" x="0" y="0" width="60" height="60"/>
                <use id="zoomplus" xlink:href="#zoomPlus" x="17" y="9" onmousedown="handleZoom(evt,'in')"/>
                <use id="zoomminus" xlink:href="#zoomMin" x="42" y="9" onmousedown="handleZoom(evt,'out')"/>
                <use id="reset" xlink:href="#resetDef" x="30" y="36" onmousedown="handleReset()"/>
                <g id="arrowUp" xlink:href="#dirArrow" transform="translate(30 24)" onmousedown="handlePan(0,-1)">
                  <use xlink:href="#rim" fill="#404040">
                        <set attributeName="fill" to="#808080" begin="arrowUp.mouseover" end="arrowUp.mouseout"/>
                  </use>
                  <path fill="none" stroke="white" stroke-width="1.5" d="M0,-3.0v7 M-2.5,-0.5L0,-3.0L2.5,-0.5"/>
                </g>
                <g id="arrowRight" xlink:href="#dirArrow" transform="rotate(90) translate(36 -43)" onmousedown="handlePan(1,0)">
                  <use xlink:href="#rim" fill="#404040">
                        <set attributeName="fill" to="#808080" begin="arrowRight.mouseover" end="arrowRight.mouseout"/>
                  </use>
                  <path fill="none" stroke="white" stroke-width="1.5" d="M0,-3.0v7 M-2.5,-0.5L0,-3.0L2.5,-0.5"/>
                </g>
                <g id="arrowDown" xlink:href="#dirArrow" transform="rotate(180) translate(-30 -48)" onmousedown="handlePan(0,1)">
                  <use xlink:href="#rim" fill="#404040">
                        <set attributeName="fill" to="#808080" begin="arrowDown.mouseover" end="arrowDown.mouseout"/>
                  </use>
                  <path fill="none" stroke="white" stroke-width="1.5" d="M0,-3.0v7 M-2.5,-0.5L0,-3.0L2.5,-0.5"/>
                </g>
                <g id="arrowLeft" xlink:href="#dirArrow" transform="rotate(270) translate(-36 17)" onmousedown="handlePan(-1,0)">
                  <use xlink:href="#rim" fill="#404040">
                        <set attributeName="fill" to="#808080" begin="arrowLeft.mouseover" end="arrowLeft.mouseout"/>
                  </use>
                  <path fill="none" stroke="white" stroke-width="1.5" d="M0,-3.0v7 M-2.5,-0.5L0,-3.0L2.5,-0.5"/>
                </g>
        </g>
        <svg viewBox="0 0 15 15" width="100%" height="30px" preserveAspectRatio="xMaxYMin meet">
         <g id="arrow_out" transform="scale(0.3 0.3)">
          <a xlink:href="classvili_1_1_node_iterator_a044fe7a2f1d6faf89bce55e2a2f74356_icgraph_org.svg" target="_base">
           <rect id="button" ry="5" rx="5" y="6" x="6" height="38" width="38"
                fill="#f2f5e9" fill-opacity="0.5" stroke="#606060" stroke-width="1.0"/>
           <path id="arrow"
             d="M 11.500037,31.436501 C 11.940474,20.09759 22.043105,11.32322 32.158766,21.979434 L 37.068811,17.246167 C 37.068811,17.246167 37.088388,32 37.088388,32 L 22.160133,31.978069 C 22.160133,31.978069 26.997745,27.140456 26.997745,27.140456 C 18.528582,18.264221 13.291696,25.230495 11.500037,31.436501 z"
             style="fill:#404040;"/>
          </a>
         </g>
        </svg>
</svg>
