<?xml version="1.0" encoding="UTF-8" standalone="no"?>
<!DOCTYPE svg PUBLIC "-//W3C//DTD SVG 1.1//EN"
 "http://www.w3.org/Graphics/SVG/1.1/DTD/svg11.dtd">
<!-- Generated by graphviz version 2.38.0 (20140413.2041)
 -->
<!-- Title: vili::ComplexNode::createComplexNode Pages: 1 -->
<!--zoomable 350 -->
<svg id="main" version="1.1" xmlns="http://www.w3.org/2000/svg" xmlns:xlink="http://www.w3.org/1999/xlink" xml:space="preserve" onload="init(evt)">
<style type="text/css"><![CDATA[
.edge:hover path { stroke: red; }
.edge:hover polygon { stroke: red; fill: red; }
.edge path { stroke: white; }
.edge polygon { stroke: white; fill: white; }
.node polygon { fill: white; }
]]></style>
<script type="text/javascript"><![CDATA[
var edges = document.getElementsByTagName('g');
if (edges && edges.length) {
  for (var i=0;i<edges.length;i++) {
    if (edges[i].id.substr(0,4)=='edge') {
      edges[i].setAttribute('class','edge');
    }
  }
}
]]></script>
        <defs>
                <circle id="rim" cx="0" cy="0" r="7"/>
                <circle id="rim2" cx="0" cy="0" r="3.5"/>
                <g id="zoomPlus">
                        <use xlink:href="#rim" fill="#404040">
                                <set attributeName="fill" to="#808080" begin="zoomplus.mouseover" end="zoomplus.mouseout"/>
                        </use>
                        <path d="M-4,0h8M0,-4v8" fill="none" stroke="white" stroke-width="1.5" pointer-events="none"/>
                </g>
                <g id="zoomMin">
                        <use xlink:href="#rim" fill="#404040">
                                <set attributeName="fill" to="#808080" begin="zoomminus.mouseover" end="zoomminus.mouseout"/>
                        </use>
                        <path d="M-4,0h8" fill="none" stroke="white" stroke-width="1.5" pointer-events="none"/>
                </g>
                <g id="dirArrow">
                        <path fill="none" stroke="white" stroke-width="1.5" d="M0,-3.0v7 M-2.5,-0.5L0,-3.0L2.5,-0.5"/>
                </g>
               <g id="resetDef">
                       <use xlink:href="#rim2" fill="#404040">
                               <set attributeName="fill" to="#808080" begin="reset.mouseover" end="reset.mouseout"/>
                       </use>
               </g>
        </defs>

<script type="text/javascript">
var viewWidth = 570;
var viewHeight = 350;
var sectionId = 'dynsection-17';
</script>
<script xlink:href="svgpan.js"/>
<svg id="graph" class="graph">
<g id="viewport">
<title>vili::ComplexNode::createComplexNode</title>
<!-- Node340 -->
<g id="node1" class="node"><title>Node340</title>
<polygon fill="#bfbfbf" stroke="black" points="0,-171.5 0,-201.5 104,-201.5 104,-171.5 0,-171.5"/>
<text text-anchor="start" x="8" y="-189.5" font-family="Helvetica,sans-Serif" font-size="10.00">vili::ComplexNode::</text>
<text text-anchor="middle" x="52" y="-178.5" font-family="Helvetica,sans-Serif" font-size="10.00">createComplexNode</text>
</g>
<!-- Node341 -->
<g id="node2" class="node"><title>Node341</title>
<g id="a_node2"><a xlink:href="namespacevili_1_1_functions_1_1_vector.html#aa9f0dd6b1c4be1e3d86846944329d9f2" target="_top" xlink:title="Check if a given item is in the given std::vector. ">
<polygon fill="none" stroke="black" points="140,-196.5 140,-226.5 250,-226.5 250,-196.5 140,-196.5"/>
<text text-anchor="start" x="148" y="-214.5" font-family="Helvetica,sans-Serif" font-size="10.00">vili::Functions::Vector</text>
<text text-anchor="middle" x="195" y="-203.5" font-family="Helvetica,sans-Serif" font-size="10.00">::isInList</text>
</a>
</g>
</g>
<!-- Node340&#45;&gt;Node341 -->
<g id="edge1" class="edge"><title>Node340&#45;&gt;Node341</title>
<path fill="none" stroke="midnightblue" d="M104.303,-195.596C112.566,-197.061 121.21,-198.594 129.731,-200.105"/>
<polygon fill="midnightblue" stroke="midnightblue" points="129.191,-203.563 139.648,-201.863 130.413,-196.671 129.191,-203.563"/>
</g>
<!-- Node342 -->
<g id="node3" class="node"><title>Node342</title>
<g id="a_node3"><a xlink:href="classvili_1_1_complex_node.html#aa9274f5ba9c9dbe1a0c90d54380a003a" target="_top" xlink:title="Get a ComplexNode contained in the ComplexNode. ">
<polygon fill="none" stroke="black" points="145,-147.5 145,-177.5 245,-177.5 245,-147.5 145,-147.5"/>
<text text-anchor="start" x="153" y="-165.5" font-family="Helvetica,sans-Serif" font-size="10.00">vili::ComplexNode::</text>
<text text-anchor="middle" x="195" y="-154.5" font-family="Helvetica,sans-Serif" font-size="10.00">getComplexNode</text>
</a>
</g>
</g>
<!-- Node340&#45;&gt;Node342 -->
<g id="edge2" class="edge"><title>Node340&#45;&gt;Node342</title>
<path fill="none" stroke="midnightblue" d="M104.303,-177.768C114.224,-176.079 124.695,-174.297 134.843,-172.569"/>
<polygon fill="midnightblue" stroke="midnightblue" points="135.581,-175.994 144.852,-170.866 134.407,-169.093 135.581,-175.994"/>
</g>
<!-- Node343 -->
<g id="node4" class="node"><title>Node343</title>
<g id="a_node4"><a xlink:href="classaube_1_1_error_handler.html#a7c8d44a3e7f019646d289950abc5301b" target="_top" xlink:title="Raises an Error loaded in the Aube Error Database (AED) ">
<polygon fill="none" stroke="black" points="296,-213.5 296,-243.5 394,-243.5 394,-213.5 296,-213.5"/>
<text text-anchor="start" x="304" y="-231.5" font-family="Helvetica,sans-Serif" font-size="10.00">aube::ErrorHandler</text>
<text text-anchor="middle" x="345" y="-220.5" font-family="Helvetica,sans-Serif" font-size="10.00">::Raise</text>
</a>
</g>
</g>
<!-- Node342&#45;&gt;Node343 -->
<g id="edge3" class="edge"><title>Node342&#45;&gt;Node343</title>
<path fill="none" stroke="midnightblue" d="M229.954,-177.642C251.012,-187.032 278.261,-199.184 300.843,-209.254"/>
<polygon fill="midnightblue" stroke="midnightblue" points="299.645,-212.552 310.204,-213.429 302.496,-206.159 299.645,-212.552"/>
</g>
<!-- Node348 -->
<g id="node9" class="node"><title>Node348</title>
<g id="a_node9"><a xlink:href="classvili_1_1_node.html#a5a6ad518f51d824e06ae7be0328f4864" target="_top" xlink:title="Get the Node Path (Example : GrandParent/Parent/Node) ">
<polygon fill="none" stroke="black" points="286,-88 286,-107 404,-107 404,-88 286,-88"/>
<text text-anchor="middle" x="345" y="-95" font-family="Helvetica,sans-Serif" font-size="10.00">vili::Node::getNodePath</text>
</a>
</g>
</g>
<!-- Node342&#45;&gt;Node348 -->
<g id="edge8" class="edge"><title>Node342&#45;&gt;Node348</title>
<path fill="none" stroke="midnightblue" d="M230.326,-147.424C255.243,-136.481 288.681,-121.796 312.834,-111.188"/>
<polygon fill="midnightblue" stroke="midnightblue" points="314.493,-114.282 322.242,-107.056 311.678,-107.873 314.493,-114.282"/>
</g>
<!-- Node344 -->
<g id="node5" class="node"><title>Node344</title>
<g id="a_node5"><a xlink:href="classaube_1_1_error_message.html#a3a39b6fcd8fdb12eaf6383123535b8ca" target="_top" xlink:title="Gets the File where is located the ErrorMessage when raised. ">
<polygon fill="none" stroke="black" points="449,-311.5 449,-341.5 553,-341.5 553,-311.5 449,-311.5"/>
<text text-anchor="start" x="457" y="-329.5" font-family="Helvetica,sans-Serif" font-size="10.00">aube::ErrorMessage</text>
<text text-anchor="middle" x="501" y="-318.5" font-family="Helvetica,sans-Serif" font-size="10.00">::getFile</text>
</a>
</g>
</g>
<!-- Node343&#45;&gt;Node344 -->
<g id="edge4" class="edge"><title>Node343&#45;&gt;Node344</title>
<path fill="none" stroke="midnightblue" d="M362.266,-243.702C380.222,-259.887 410.503,-285.466 440,-302.5 442.817,-304.127 445.767,-305.693 448.781,-307.192"/>
<polygon fill="midnightblue" stroke="midnightblue" points="447.415,-310.417 457.957,-311.478 450.377,-304.075 447.415,-310.417"/>
</g>
<!-- Node345 -->
<g id="node6" class="node"><title>Node345</title>
<g id="a_node6"><a xlink:href="classaube_1_1_error_message.html#a9184cc96589578f434351c105b0cd5f7" target="_top" xlink:title="Gets the location of the error in the code. ">
<polygon fill="none" stroke="black" points="449,-262.5 449,-292.5 553,-292.5 553,-262.5 449,-262.5"/>
<text text-anchor="start" x="457" y="-280.5" font-family="Helvetica,sans-Serif" font-size="10.00">aube::ErrorMessage</text>
<text text-anchor="middle" x="501" y="-269.5" font-family="Helvetica,sans-Serif" font-size="10.00">::getLocation</text>
</a>
</g>
</g>
<!-- Node343&#45;&gt;Node345 -->
<g id="edge5" class="edge"><title>Node343&#45;&gt;Node345</title>
<path fill="none" stroke="midnightblue" d="M393.462,-243.601C409.05,-248.562 426.543,-254.127 442.778,-259.293"/>
<polygon fill="midnightblue" stroke="midnightblue" points="442.105,-262.752 452.695,-262.448 444.227,-256.081 442.105,-262.752"/>
</g>
<!-- Node346 -->
<g id="node7" class="node"><title>Node346</title>
<g id="a_node7"><a xlink:href="classaube_1_1_error_message.html#a07927cb3e2d0712c459cc9e2b5f52696" target="_top" xlink:title="Gets the message displayed by the ErrorMessage when raised. ">
<polygon fill="none" stroke="black" points="449,-213.5 449,-243.5 553,-243.5 553,-213.5 449,-213.5"/>
<text text-anchor="start" x="457" y="-231.5" font-family="Helvetica,sans-Serif" font-size="10.00">aube::ErrorMessage</text>
<text text-anchor="middle" x="501" y="-220.5" font-family="Helvetica,sans-Serif" font-size="10.00">::getMessage</text>
</a>
</g>
</g>
<!-- Node343&#45;&gt;Node346 -->
<g id="edge6" class="edge"><title>Node343&#45;&gt;Node346</title>
<path fill="none" stroke="midnightblue" d="M394.304,-228.5C408.423,-228.5 424.044,-228.5 438.848,-228.5"/>
<polygon fill="midnightblue" stroke="midnightblue" points="438.938,-232 448.938,-228.5 438.938,-225 438.938,-232"/>
</g>
<!-- Node347 -->
<g id="node8" class="node"><title>Node347</title>
<g id="a_node8"><a xlink:href="classaube_1_1_error_message.html#a77c2f9b7e93542c958173b52da267989" target="_top" xlink:title="Gets hints that can help the error resolution. ">
<polygon fill="none" stroke="black" points="449,-164.5 449,-194.5 553,-194.5 553,-164.5 449,-164.5"/>
<text text-anchor="start" x="457" y="-182.5" font-family="Helvetica,sans-Serif" font-size="10.00">aube::ErrorMessage</text>
<text text-anchor="middle" x="501" y="-171.5" font-family="Helvetica,sans-Serif" font-size="10.00">::getHints</text>
</a>
</g>
</g>
<!-- Node343&#45;&gt;Node347 -->
<g id="edge7" class="edge"><title>Node343&#45;&gt;Node347</title>
<path fill="none" stroke="midnightblue" d="M393.462,-213.399C409.05,-208.438 426.543,-202.873 442.778,-197.707"/>
<polygon fill="midnightblue" stroke="midnightblue" points="444.227,-200.919 452.695,-194.552 442.105,-194.248 444.227,-200.919"/>
</g>
<!-- Node349 -->
<g id="node10" class="node"><title>Node349</title>
<g id="a_node10"><a xlink:href="classvili_1_1_node.html#a58273048e22a9ebd74e576fd8905f709" target="_top" xlink:title="vili::Node::getParent">
<polygon fill="none" stroke="black" points="449,-126 449,-145 553,-145 553,-126 449,-126"/>
<text text-anchor="middle" x="501" y="-133" font-family="Helvetica,sans-Serif" font-size="10.00">vili::Node::getParent</text>
</a>
</g>
</g>
<!-- Node348&#45;&gt;Node349 -->
<g id="edge9" class="edge"><title>Node348&#45;&gt;Node349</title>
<path fill="none" stroke="midnightblue" d="M384.861,-107.089C405.091,-112.081 430.021,-118.232 451.504,-123.533"/>
<polygon fill="midnightblue" stroke="midnightblue" points="450.871,-126.982 461.419,-125.98 452.548,-120.186 450.871,-126.982"/>
</g>
<!-- Node350 -->
<g id="node11" class="node"><title>Node350</title>
<g id="a_node11"><a xlink:href="classvili_1_1_node.html#ab03908ab3d62e3bfddaf9e7306fdf3b3" target="_top" xlink:title="Gets the id of the Node. ">
<polygon fill="none" stroke="black" points="459.5,-88 459.5,-107 542.5,-107 542.5,-88 459.5,-88"/>
<text text-anchor="middle" x="501" y="-95" font-family="Helvetica,sans-Serif" font-size="10.00">vili::Node::getId</text>
</a>
</g>
</g>
<!-- Node348&#45;&gt;Node350 -->
<g id="edge10" class="edge"><title>Node348&#45;&gt;Node350</title>
<path fill="none" stroke="midnightblue" d="M404.221,-97.5C419.025,-97.5 434.816,-97.5 449.218,-97.5"/>
<polygon fill="midnightblue" stroke="midnightblue" points="449.425,-101 459.425,-97.5 449.425,-94.0001 449.425,-101"/>
</g>
<!-- Node351 -->
<g id="node12" class="node"><title>Node351</title>
<g id="a_node12"><a xlink:href="classvili_1_1_node.html#ad3c91cfe2721eaf9841721d1ec8ee0d8" target="_top" xlink:title="Gets the Node annotation. ">
<polygon fill="none" stroke="black" points="440,-50 440,-69 562,-69 562,-50 440,-50"/>
<text text-anchor="middle" x="501" y="-57" font-family="Helvetica,sans-Serif" font-size="10.00">vili::Node::getAnnotation</text>
</a>
</g>
</g>
<!-- Node348&#45;&gt;Node351 -->
<g id="edge11" class="edge"><title>Node348&#45;&gt;Node351</title>
<path fill="none" stroke="midnightblue" d="M384.861,-87.911C405.091,-82.9191 430.021,-76.7676 451.504,-71.4666"/>
<polygon fill="midnightblue" stroke="midnightblue" points="452.548,-74.8139 461.419,-69.0201 450.871,-68.0177 452.548,-74.8139"/>
</g>
<!-- Node352 -->
<g id="node13" class="node"><title>Node352</title>
<g id="a_node13"><a xlink:href="namespacevili_1_1_functions_1_1_vector.html#a10836e1fe04648534cfc59d9de9acd72" target="_top" xlink:title="vili::Functions::Vector\l::join">
<polygon fill="none" stroke="black" points="446,-0.5 446,-30.5 556,-30.5 556,-0.5 446,-0.5"/>
<text text-anchor="start" x="454" y="-18.5" font-family="Helvetica,sans-Serif" font-size="10.00">vili::Functions::Vector</text>
<text text-anchor="middle" x="501" y="-7.5" font-family="Helvetica,sans-Serif" font-size="10.00">::join</text>
</a>
</g>
</g>
<!-- Node348&#45;&gt;Node352 -->
<g id="edge12" class="edge"><title>Node348&#45;&gt;Node352</title>
<path fill="none" stroke="midnightblue" d="M360.267,-87.9179C378.36,-75.986 410.732,-55.3652 440,-40.5 443.955,-38.4911 448.111,-36.5096 452.312,-34.5945"/>
<polygon fill="midnightblue" stroke="midnightblue" points="453.79,-37.7679 461.521,-30.5232 450.959,-31.3657 453.79,-37.7679"/>
</g>
</g>
</svg>
        <g id="navigator" transform="translate(0 0)" fill="#404254">
                <rect fill="#f2f5e9" fill-opacity="0.5" stroke="#606060" stroke-width=".5" x="0" y="0" width="60" height="60"/>
                <use id="zoomplus" xlink:href="#zoomPlus" x="17" y="9" onmousedown="handleZoom(evt,'in')"/>
                <use id="zoomminus" xlink:href="#zoomMin" x="42" y="9" onmousedown="handleZoom(evt,'out')"/>
                <use id="reset" xlink:href="#resetDef" x="30" y="36" onmousedown="handleReset()"/>
                <g id="arrowUp" xlink:href="#dirArrow" transform="translate(30 24)" onmousedown="handlePan(0,-1)">
                  <use xlink:href="#rim" fill="#404040">
                        <set attributeName="fill" to="#808080" begin="arrowUp.mouseover" end="arrowUp.mouseout"/>
                  </use>
                  <path fill="none" stroke="white" stroke-width="1.5" d="M0,-3.0v7 M-2.5,-0.5L0,-3.0L2.5,-0.5"/>
                </g>
                <g id="arrowRight" xlink:href="#dirArrow" transform="rotate(90) translate(36 -43)" onmousedown="handlePan(1,0)">
                  <use xlink:href="#rim" fill="#404040">
                        <set attributeName="fill" to="#808080" begin="arrowRight.mouseover" end="arrowRight.mouseout"/>
                  </use>
                  <path fill="none" stroke="white" stroke-width="1.5" d="M0,-3.0v7 M-2.5,-0.5L0,-3.0L2.5,-0.5"/>
                </g>
                <g id="arrowDown" xlink:href="#dirArrow" transform="rotate(180) translate(-30 -48)" onmousedown="handlePan(0,1)">
                  <use xlink:href="#rim" fill="#404040">
                        <set attributeName="fill" to="#808080" begin="arrowDown.mouseover" end="arrowDown.mouseout"/>
                  </use>
                  <path fill="none" stroke="white" stroke-width="1.5" d="M0,-3.0v7 M-2.5,-0.5L0,-3.0L2.5,-0.5"/>
                </g>
                <g id="arrowLeft" xlink:href="#dirArrow" transform="rotate(270) translate(-36 17)" onmousedown="handlePan(-1,0)">
                  <use xlink:href="#rim" fill="#404040">
                        <set attributeName="fill" to="#808080" begin="arrowLeft.mouseover" end="arrowLeft.mouseout"/>
                  </use>
                  <path fill="none" stroke="white" stroke-width="1.5" d="M0,-3.0v7 M-2.5,-0.5L0,-3.0L2.5,-0.5"/>
                </g>
        </g>
        <svg viewBox="0 0 15 15" width="100%" height="30px" preserveAspectRatio="xMaxYMin meet">
         <g id="arrow_out" transform="scale(0.3 0.3)">
          <a xlink:href="classvili_1_1_complex_node_aa6146d2b1da881ab97605bb700f5d7c4_cgraph_org.svg" target="_base">
           <rect id="button" ry="5" rx="5" y="6" x="6" height="38" width="38"
                fill="#f2f5e9" fill-opacity="0.5" stroke="#606060" stroke-width="1.0"/>
           <path id="arrow"
             d="M 11.500037,31.436501 C 11.940474,20.09759 22.043105,11.32322 32.158766,21.979434 L 37.068811,17.246167 C 37.068811,17.246167 37.088388,32 37.088388,32 L 22.160133,31.978069 C 22.160133,31.978069 26.997745,27.140456 26.997745,27.140456 C 18.528582,18.264221 13.291696,25.230495 11.500037,31.436501 z"
             style="fill:#404040;"/>
          </a>
         </g>
        </svg>
</svg>
