<?xml version="1.0" encoding="UTF-8" standalone="no"?>
<!DOCTYPE svg PUBLIC "-//W3C//DTD SVG 1.1//EN"
 "http://www.w3.org/Graphics/SVG/1.1/DTD/svg11.dtd">
<!-- Generated by graphviz version 2.38.0 (20140413.2041)
 -->
<!-- Title: vili::ComplexAttribute::deleteComplexAttribute Pages: 1 -->
<!--zoomable 210 -->
<svg id="main" version="1.1" xmlns="http://www.w3.org/2000/svg" xmlns:xlink="http://www.w3.org/1999/xlink" xml:space="preserve" onload="init(evt)">
<style type="text/css"><![CDATA[
.edge:hover path { stroke: red; }
.edge:hover polygon { stroke: red; fill: red; }
.edge path { stroke: white; }
.edge polygon { stroke: white; fill: white; }
.node polygon { fill: white; }
]]></style>
<script type="text/javascript"><![CDATA[
var edges = document.getElementsByTagName('g');
if (edges && edges.length) {
  for (var i=0;i<edges.length;i++) {
    if (edges[i].id.substr(0,4)=='edge') {
      edges[i].setAttribute('class','edge');
    }
  }
}
]]></script>
        <defs>
                <circle id="rim" cx="0" cy="0" r="7"/>
                <circle id="rim2" cx="0" cy="0" r="3.5"/>
                <g id="zoomPlus">
                        <use xlink:href="#rim" fill="#404040">
                                <set attributeName="fill" to="#808080" begin="zoomplus.mouseover" end="zoomplus.mouseout"/>
                        </use>
                        <path d="M-4,0h8M0,-4v8" fill="none" stroke="white" stroke-width="1.5" pointer-events="none"/>
                </g>
                <g id="zoomMin">
                        <use xlink:href="#rim" fill="#404040">
                                <set attributeName="fill" to="#808080" begin="zoomminus.mouseover" end="zoomminus.mouseout"/>
                        </use>
                        <path d="M-4,0h8" fill="none" stroke="white" stroke-width="1.5" pointer-events="none"/>
                </g>
                <g id="dirArrow">
                        <path fill="none" stroke="white" stroke-width="1.5" d="M0,-3.0v7 M-2.5,-0.5L0,-3.0L2.5,-0.5"/>
                </g>
               <g id="resetDef">
                       <use xlink:href="#rim2" fill="#404040">
                               <set attributeName="fill" to="#808080" begin="reset.mouseover" end="reset.mouseout"/>
                       </use>
               </g>
        </defs>

<script type="text/javascript">
var viewWidth = 552;
var viewHeight = 210;
var sectionId = 'dynsection-35';
</script>
<script xlink:href="svgpan.js"/>
<svg id="graph" class="graph">
<g id="viewport">
<title>vili::ComplexAttribute::deleteComplexAttribute</title>
<!-- Node649 -->
<g id="node1" class="node"><title>Node649</title>
<polygon fill="#bfbfbf" stroke="black" points="0,-122.5 0,-152.5 124,-152.5 124,-122.5 0,-122.5"/>
<text text-anchor="start" x="8" y="-140.5" font-family="Helvetica,sans-Serif" font-size="10.00">vili::ComplexAttribute</text>
<text text-anchor="middle" x="62" y="-129.5" font-family="Helvetica,sans-Serif" font-size="10.00">::deleteComplexAttribute</text>
</g>
<!-- Node650 -->
<g id="node2" class="node"><title>Node650</title>
<g id="a_node2"><a xlink:href="namespacevili_1_1_functions_1_1_vector.html#aa9f0dd6b1c4be1e3d86846944329d9f2" target="_top" xlink:title="Check if a given item is in the given std::vector. ">
<polygon fill="none" stroke="black" points="160,-171.5 160,-201.5 270,-201.5 270,-171.5 160,-171.5"/>
<text text-anchor="start" x="168" y="-189.5" font-family="Helvetica,sans-Serif" font-size="10.00">vili::Functions::Vector</text>
<text text-anchor="middle" x="215" y="-178.5" font-family="Helvetica,sans-Serif" font-size="10.00">::isInList</text>
</a>
</g>
</g>
<!-- Node649&#45;&gt;Node650 -->
<g id="edge1" class="edge"><title>Node649&#45;&gt;Node650</title>
<path fill="none" stroke="midnightblue" d="M109.537,-152.601C124.822,-157.562 141.974,-163.127 157.892,-168.293"/>
<polygon fill="midnightblue" stroke="midnightblue" points="157.025,-171.691 167.617,-171.448 159.185,-165.033 157.025,-171.691"/>
</g>
<!-- Node651 -->
<g id="node3" class="node"><title>Node651</title>
<g id="a_node3"><a xlink:href="classvili_1_1_complex_attribute.html#a6225afe489577c1e02e21c6a31387a1a" target="_top" xlink:title="vili::ComplexAttribute\l::getAll">
<polygon fill="none" stroke="black" points="161,-122.5 161,-152.5 269,-152.5 269,-122.5 161,-122.5"/>
<text text-anchor="start" x="169" y="-140.5" font-family="Helvetica,sans-Serif" font-size="10.00">vili::ComplexAttribute</text>
<text text-anchor="middle" x="215" y="-129.5" font-family="Helvetica,sans-Serif" font-size="10.00">::getAll</text>
</a>
</g>
</g>
<!-- Node649&#45;&gt;Node651 -->
<g id="edge2" class="edge"><title>Node649&#45;&gt;Node651</title>
<path fill="none" stroke="midnightblue" d="M124.417,-137.5C133.103,-137.5 142.046,-137.5 150.766,-137.5"/>
<polygon fill="midnightblue" stroke="midnightblue" points="150.869,-141 160.869,-137.5 150.869,-134 150.869,-141"/>
</g>
<!-- Node652 -->
<g id="node4" class="node"><title>Node652</title>
<g id="a_node4"><a xlink:href="namespacevili_1_1_functions_1_1_vector.html#a9f11b4d9b535b580a613a064d18b9caa" target="_top" xlink:title="Get the index of an item in a std::vector. ">
<polygon fill="none" stroke="black" points="160,-73.5 160,-103.5 270,-103.5 270,-73.5 160,-73.5"/>
<text text-anchor="start" x="168" y="-91.5" font-family="Helvetica,sans-Serif" font-size="10.00">vili::Functions::Vector</text>
<text text-anchor="middle" x="215" y="-80.5" font-family="Helvetica,sans-Serif" font-size="10.00">::indexOfElement</text>
</a>
</g>
</g>
<!-- Node649&#45;&gt;Node652 -->
<g id="edge3" class="edge"><title>Node649&#45;&gt;Node652</title>
<path fill="none" stroke="midnightblue" d="M109.537,-122.399C124.822,-117.438 141.974,-111.873 157.892,-106.707"/>
<polygon fill="midnightblue" stroke="midnightblue" points="159.185,-109.967 167.617,-103.552 157.025,-103.309 159.185,-109.967"/>
</g>
<!-- Node653 -->
<g id="node5" class="node"><title>Node653</title>
<g id="a_node5"><a xlink:href="classaube_1_1_error_handler.html#a7c8d44a3e7f019646d289950abc5301b" target="_top" xlink:title="aube::ErrorHandler\l::Raise">
<polygon fill="none" stroke="black" points="306,-73.5 306,-103.5 404,-103.5 404,-73.5 306,-73.5"/>
<text text-anchor="start" x="314" y="-91.5" font-family="Helvetica,sans-Serif" font-size="10.00">aube::ErrorHandler</text>
<text text-anchor="middle" x="355" y="-80.5" font-family="Helvetica,sans-Serif" font-size="10.00">::Raise</text>
</a>
</g>
</g>
<!-- Node652&#45;&gt;Node653 -->
<g id="edge4" class="edge"><title>Node652&#45;&gt;Node653</title>
<path fill="none" stroke="midnightblue" d="M270.145,-88.5C278.52,-88.5 287.201,-88.5 295.663,-88.5"/>
<polygon fill="midnightblue" stroke="midnightblue" points="295.84,-92.0001 305.84,-88.5 295.84,-85.0001 295.84,-92.0001"/>
</g>
<!-- Node654 -->
<g id="node6" class="node"><title>Node654</title>
<g id="a_node6"><a xlink:href="classaube_1_1_error_message.html#a3a39b6fcd8fdb12eaf6383123535b8ca" target="_top" xlink:title="aube::ErrorMessage\l::getFile">
<polygon fill="none" stroke="black" points="440,-147.5 440,-177.5 544,-177.5 544,-147.5 440,-147.5"/>
<text text-anchor="start" x="448" y="-165.5" font-family="Helvetica,sans-Serif" font-size="10.00">aube::ErrorMessage</text>
<text text-anchor="middle" x="492" y="-154.5" font-family="Helvetica,sans-Serif" font-size="10.00">::getFile</text>
</a>
</g>
</g>
<!-- Node653&#45;&gt;Node654 -->
<g id="edge5" class="edge"><title>Node653&#45;&gt;Node654</title>
<path fill="none" stroke="midnightblue" d="M379.905,-103.572C396.524,-113.84 419.318,-127.511 440,-138.5 442.852,-140.015 445.816,-141.538 448.816,-143.043"/>
<polygon fill="midnightblue" stroke="midnightblue" points="447.327,-146.211 457.847,-147.471 450.409,-139.926 447.327,-146.211"/>
</g>
<!-- Node655 -->
<g id="node7" class="node"><title>Node655</title>
<g id="a_node7"><a xlink:href="classaube_1_1_error_message.html#a9184cc96589578f434351c105b0cd5f7" target="_top" xlink:title="aube::ErrorMessage\l::getLocation">
<polygon fill="none" stroke="black" points="440,-98.5 440,-128.5 544,-128.5 544,-98.5 440,-98.5"/>
<text text-anchor="start" x="448" y="-116.5" font-family="Helvetica,sans-Serif" font-size="10.00">aube::ErrorMessage</text>
<text text-anchor="middle" x="492" y="-105.5" font-family="Helvetica,sans-Serif" font-size="10.00">::getLocation</text>
</a>
</g>
</g>
<!-- Node653&#45;&gt;Node655 -->
<g id="edge6" class="edge"><title>Node653&#45;&gt;Node655</title>
<path fill="none" stroke="midnightblue" d="M404.357,-97.455C412.622,-98.9856 421.306,-100.594 429.852,-102.176"/>
<polygon fill="midnightblue" stroke="midnightblue" points="429.318,-105.637 439.788,-104.016 430.592,-98.7538 429.318,-105.637"/>
</g>
<!-- Node656 -->
<g id="node8" class="node"><title>Node656</title>
<g id="a_node8"><a xlink:href="classaube_1_1_error_message.html#a07927cb3e2d0712c459cc9e2b5f52696" target="_top" xlink:title="aube::ErrorMessage\l::getMessage">
<polygon fill="none" stroke="black" points="440,-49.5 440,-79.5 544,-79.5 544,-49.5 440,-49.5"/>
<text text-anchor="start" x="448" y="-67.5" font-family="Helvetica,sans-Serif" font-size="10.00">aube::ErrorMessage</text>
<text text-anchor="middle" x="492" y="-56.5" font-family="Helvetica,sans-Serif" font-size="10.00">::getMessage</text>
</a>
</g>
</g>
<!-- Node653&#45;&gt;Node656 -->
<g id="edge7" class="edge"><title>Node653&#45;&gt;Node656</title>
<path fill="none" stroke="midnightblue" d="M404.357,-79.9032C412.622,-78.4338 421.306,-76.8901 429.852,-75.3708"/>
<polygon fill="midnightblue" stroke="midnightblue" points="430.555,-78.8008 439.788,-73.6044 429.33,-71.9088 430.555,-78.8008"/>
</g>
<!-- Node657 -->
<g id="node9" class="node"><title>Node657</title>
<g id="a_node9"><a xlink:href="classaube_1_1_error_message.html#a77c2f9b7e93542c958173b52da267989" target="_top" xlink:title="aube::ErrorMessage\l::getHints">
<polygon fill="none" stroke="black" points="440,-0.5 440,-30.5 544,-30.5 544,-0.5 440,-0.5"/>
<text text-anchor="start" x="448" y="-18.5" font-family="Helvetica,sans-Serif" font-size="10.00">aube::ErrorMessage</text>
<text text-anchor="middle" x="492" y="-7.5" font-family="Helvetica,sans-Serif" font-size="10.00">::getHints</text>
</a>
</g>
</g>
<!-- Node653&#45;&gt;Node657 -->
<g id="edge8" class="edge"><title>Node653&#45;&gt;Node657</title>
<path fill="none" stroke="midnightblue" d="M381.5,-73.3689C398.032,-63.6992 420.114,-51.042 440,-40.5 443.332,-38.7334 446.808,-36.9366 450.308,-35.158"/>
<polygon fill="midnightblue" stroke="midnightblue" points="452.182,-38.1343 459.555,-30.526 449.046,-31.8757 452.182,-38.1343"/>
</g>
</g>
</svg>
        <g id="navigator" transform="translate(0 0)" fill="#404254">
                <rect fill="#f2f5e9" fill-opacity="0.5" stroke="#606060" stroke-width=".5" x="0" y="0" width="60" height="60"/>
                <use id="zoomplus" xlink:href="#zoomPlus" x="17" y="9" onmousedown="handleZoom(evt,'in')"/>
                <use id="zoomminus" xlink:href="#zoomMin" x="42" y="9" onmousedown="handleZoom(evt,'out')"/>
                <use id="reset" xlink:href="#resetDef" x="30" y="36" onmousedown="handleReset()"/>
                <g id="arrowUp" xlink:href="#dirArrow" transform="translate(30 24)" onmousedown="handlePan(0,-1)">
                  <use xlink:href="#rim" fill="#404040">
                        <set attributeName="fill" to="#808080" begin="arrowUp.mouseover" end="arrowUp.mouseout"/>
                  </use>
                  <path fill="none" stroke="white" stroke-width="1.5" d="M0,-3.0v7 M-2.5,-0.5L0,-3.0L2.5,-0.5"/>
                </g>
                <g id="arrowRight" xlink:href="#dirArrow" transform="rotate(90) translate(36 -43)" onmousedown="handlePan(1,0)">
                  <use xlink:href="#rim" fill="#404040">
                        <set attributeName="fill" to="#808080" begin="arrowRight.mouseover" end="arrowRight.mouseout"/>
                  </use>
                  <path fill="none" stroke="white" stroke-width="1.5" d="M0,-3.0v7 M-2.5,-0.5L0,-3.0L2.5,-0.5"/>
                </g>
                <g id="arrowDown" xlink:href="#dirArrow" transform="rotate(180) translate(-30 -48)" onmousedown="handlePan(0,1)">
                  <use xlink:href="#rim" fill="#404040">
                        <set attributeName="fill" to="#808080" begin="arrowDown.mouseover" end="arrowDown.mouseout"/>
                  </use>
                  <path fill="none" stroke="white" stroke-width="1.5" d="M0,-3.0v7 M-2.5,-0.5L0,-3.0L2.5,-0.5"/>
                </g>
                <g id="arrowLeft" xlink:href="#dirArrow" transform="rotate(270) translate(-36 17)" onmousedown="handlePan(-1,0)">
                  <use xlink:href="#rim" fill="#404040">
                        <set attributeName="fill" to="#808080" begin="arrowLeft.mouseover" end="arrowLeft.mouseout"/>
                  </use>
                  <path fill="none" stroke="white" stroke-width="1.5" d="M0,-3.0v7 M-2.5,-0.5L0,-3.0L2.5,-0.5"/>
                </g>
        </g>
        <svg viewBox="0 0 15 15" width="100%" height="30px" preserveAspectRatio="xMaxYMin meet">
         <g id="arrow_out" transform="scale(0.3 0.3)">
          <a xlink:href="classvili_1_1_complex_attribute_a5463ea425c7591cbc567d8ebd2648a8b_cgraph_org.svg" target="_base">
           <rect id="button" ry="5" rx="5" y="6" x="6" height="38" width="38"
                fill="#f2f5e9" fill-opacity="0.5" stroke="#606060" stroke-width="1.0"/>
           <path id="arrow"
             d="M 11.500037,31.436501 C 11.940474,20.09759 22.043105,11.32322 32.158766,21.979434 L 37.068811,17.246167 C 37.068811,17.246167 37.088388,32 37.088388,32 L 22.160133,31.978069 C 22.160133,31.978069 26.997745,27.140456 26.997745,27.140456 C 18.528582,18.264221 13.291696,25.230495 11.500037,31.436501 z"
             style="fill:#404040;"/>
          </a>
         </g>
        </svg>
</svg>
