<?xml version="1.0" encoding="UTF-8" standalone="no"?>
<!DOCTYPE svg PUBLIC "-//W3C//DTD SVG 1.1//EN"
 "http://www.w3.org/Graphics/SVG/1.1/DTD/svg11.dtd">
<!-- Generated by graphviz version 2.38.0 (20140413.2041)
 -->
<!-- Title: vili::DataNode::get Pages: 1 -->
<svg width="438pt" height="350pt"
 viewBox="0.00 0.00 438.00 350.00" xmlns="http://www.w3.org/2000/svg" xmlns:xlink="http://www.w3.org/1999/xlink">
<g id="graph0" class="graph" transform="scale(1 1) rotate(0) translate(4 346)">
<title>vili::DataNode::get</title>
<!-- Node274 -->
<g id="node1" class="node"><title>Node274</title>
<polygon fill="#bfbfbf" stroke="black" points="0,-88 0,-107 95,-107 95,-88 0,-88"/>
<text text-anchor="middle" x="47.5" y="-95" font-family="Helvetica,sans-Serif" font-size="10.00">vili::DataNode::get</text>
</g>
<!-- Node275 -->
<g id="node2" class="node"><title>Node275</title>
<g id="a_node2"><a xlink:href="classaube_1_1_error_handler.html#a7c8d44a3e7f019646d289950abc5301b" target="_top" xlink:title="Raises an Error loaded in the Aube Error Database (AED) ">
<polygon fill="white" stroke="black" points="152.5,-213.5 152.5,-243.5 250.5,-243.5 250.5,-213.5 152.5,-213.5"/>
<text text-anchor="start" x="160.5" y="-231.5" font-family="Helvetica,sans-Serif" font-size="10.00">aube::ErrorHandler</text>
<text text-anchor="middle" x="201.5" y="-220.5" font-family="Helvetica,sans-Serif" font-size="10.00">::Raise</text>
</a>
</g>
</g>
<!-- Node274&#45;&gt;Node275 -->
<g id="edge1" class="edge"><title>Node274&#45;&gt;Node275</title>
<path fill="none" stroke="midnightblue" d="M59.9247,-107.346C84.2382,-128.301 141.609,-177.745 175.06,-206.575"/>
<polygon fill="midnightblue" stroke="midnightblue" points="173.155,-209.553 183.015,-213.431 177.725,-204.251 173.155,-209.553"/>
</g>
<!-- Node280 -->
<g id="node7" class="node"><title>Node280</title>
<g id="a_node7"><a xlink:href="classvili_1_1_node.html#a5a6ad518f51d824e06ae7be0328f4864" target="_top" xlink:title="Get the Node Path (Example : GrandParent/Parent/Node) ">
<polygon fill="white" stroke="black" points="142.5,-88 142.5,-107 260.5,-107 260.5,-88 142.5,-88"/>
<text text-anchor="middle" x="201.5" y="-95" font-family="Helvetica,sans-Serif" font-size="10.00">vili::Node::getNodePath</text>
</a>
</g>
</g>
<!-- Node274&#45;&gt;Node280 -->
<g id="edge6" class="edge"><title>Node274&#45;&gt;Node280</title>
<path fill="none" stroke="midnightblue" d="M95.3453,-97.5C106.93,-97.5 119.581,-97.5 131.964,-97.5"/>
<polygon fill="midnightblue" stroke="midnightblue" points="132.274,-101 142.274,-97.5 132.274,-94.0001 132.274,-101"/>
</g>
<!-- Node285 -->
<g id="node12" class="node"><title>Node285</title>
<g id="a_node12"><a xlink:href="namespacevili_1_1_types.html#ac195a27b2ff3164cfb8aeba0222fad03" target="_top" xlink:title="Converts a DataType to its name (in a std::string) ">
<polygon fill="white" stroke="black" points="131,-50 131,-69 272,-69 272,-50 131,-50"/>
<text text-anchor="middle" x="201.5" y="-57" font-family="Helvetica,sans-Serif" font-size="10.00">vili::Types::dataTypeToString</text>
</a>
</g>
</g>
<!-- Node274&#45;&gt;Node285 -->
<g id="edge11" class="edge"><title>Node274&#45;&gt;Node285</title>
<path fill="none" stroke="midnightblue" d="M86.856,-87.911C106.824,-82.9191 131.43,-76.7676 152.633,-71.4666"/>
<polygon fill="midnightblue" stroke="midnightblue" points="153.567,-74.841 162.42,-69.0201 151.869,-68.05 153.567,-74.841"/>
</g>
<!-- Node276 -->
<g id="node3" class="node"><title>Node276</title>
<g id="a_node3"><a xlink:href="classaube_1_1_error_message.html#a3a39b6fcd8fdb12eaf6383123535b8ca" target="_top" xlink:title="Gets the File where is located the ErrorMessage when raised. ">
<polygon fill="white" stroke="black" points="317,-311.5 317,-341.5 421,-341.5 421,-311.5 317,-311.5"/>
<text text-anchor="start" x="325" y="-329.5" font-family="Helvetica,sans-Serif" font-size="10.00">aube::ErrorMessage</text>
<text text-anchor="middle" x="369" y="-318.5" font-family="Helvetica,sans-Serif" font-size="10.00">::getFile</text>
</a>
</g>
</g>
<!-- Node275&#45;&gt;Node276 -->
<g id="edge2" class="edge"><title>Node275&#45;&gt;Node276</title>
<path fill="none" stroke="midnightblue" d="M221.081,-243.536C241.51,-259.578 275.732,-285.035 308,-302.5 311.052,-304.152 314.243,-305.755 317.495,-307.298"/>
<polygon fill="midnightblue" stroke="midnightblue" points="316.198,-310.552 326.753,-311.472 319.075,-304.171 316.198,-310.552"/>
</g>
<!-- Node277 -->
<g id="node4" class="node"><title>Node277</title>
<g id="a_node4"><a xlink:href="classaube_1_1_error_message.html#a9184cc96589578f434351c105b0cd5f7" target="_top" xlink:title="Gets the location of the error in the code. ">
<polygon fill="white" stroke="black" points="317,-262.5 317,-292.5 421,-292.5 421,-262.5 317,-262.5"/>
<text text-anchor="start" x="325" y="-280.5" font-family="Helvetica,sans-Serif" font-size="10.00">aube::ErrorMessage</text>
<text text-anchor="middle" x="369" y="-269.5" font-family="Helvetica,sans-Serif" font-size="10.00">::getLocation</text>
</a>
</g>
</g>
<!-- Node275&#45;&gt;Node277 -->
<g id="edge3" class="edge"><title>Node275&#45;&gt;Node277</title>
<path fill="none" stroke="midnightblue" d="M250.814,-242.805C268.607,-248.073 288.986,-254.106 307.706,-259.648"/>
<polygon fill="midnightblue" stroke="midnightblue" points="306.739,-263.012 317.321,-262.495 308.726,-256.3 306.739,-263.012"/>
</g>
<!-- Node278 -->
<g id="node5" class="node"><title>Node278</title>
<g id="a_node5"><a xlink:href="classaube_1_1_error_message.html#a07927cb3e2d0712c459cc9e2b5f52696" target="_top" xlink:title="Gets the message displayed by the ErrorMessage when raised. ">
<polygon fill="white" stroke="black" points="317,-213.5 317,-243.5 421,-243.5 421,-213.5 317,-213.5"/>
<text text-anchor="start" x="325" y="-231.5" font-family="Helvetica,sans-Serif" font-size="10.00">aube::ErrorMessage</text>
<text text-anchor="middle" x="369" y="-220.5" font-family="Helvetica,sans-Serif" font-size="10.00">::getMessage</text>
</a>
</g>
</g>
<!-- Node275&#45;&gt;Node278 -->
<g id="edge4" class="edge"><title>Node275&#45;&gt;Node278</title>
<path fill="none" stroke="midnightblue" d="M250.814,-228.5C268.283,-228.5 288.244,-228.5 306.681,-228.5"/>
<polygon fill="midnightblue" stroke="midnightblue" points="306.741,-232 316.741,-228.5 306.741,-225 306.741,-232"/>
</g>
<!-- Node279 -->
<g id="node6" class="node"><title>Node279</title>
<g id="a_node6"><a xlink:href="classaube_1_1_error_message.html#a77c2f9b7e93542c958173b52da267989" target="_top" xlink:title="Gets hints that can help the error resolution. ">
<polygon fill="white" stroke="black" points="317,-164.5 317,-194.5 421,-194.5 421,-164.5 317,-164.5"/>
<text text-anchor="start" x="325" y="-182.5" font-family="Helvetica,sans-Serif" font-size="10.00">aube::ErrorMessage</text>
<text text-anchor="middle" x="369" y="-171.5" font-family="Helvetica,sans-Serif" font-size="10.00">::getHints</text>
</a>
</g>
</g>
<!-- Node275&#45;&gt;Node279 -->
<g id="edge5" class="edge"><title>Node275&#45;&gt;Node279</title>
<path fill="none" stroke="midnightblue" d="M250.814,-214.195C268.607,-208.927 288.986,-202.894 307.706,-197.352"/>
<polygon fill="midnightblue" stroke="midnightblue" points="308.726,-200.7 317.321,-194.505 306.739,-193.988 308.726,-200.7"/>
</g>
<!-- Node281 -->
<g id="node8" class="node"><title>Node281</title>
<g id="a_node8"><a xlink:href="classvili_1_1_node.html#a58273048e22a9ebd74e576fd8905f709" target="_top" xlink:title="vili::Node::getParent">
<polygon fill="white" stroke="black" points="317,-126 317,-145 421,-145 421,-126 317,-126"/>
<text text-anchor="middle" x="369" y="-133" font-family="Helvetica,sans-Serif" font-size="10.00">vili::Node::getParent</text>
</a>
</g>
</g>
<!-- Node280&#45;&gt;Node281 -->
<g id="edge7" class="edge"><title>Node280&#45;&gt;Node281</title>
<path fill="none" stroke="midnightblue" d="M244.263,-107.089C266.201,-112.126 293.28,-118.344 316.508,-123.677"/>
<polygon fill="midnightblue" stroke="midnightblue" points="316.008,-127.153 326.538,-125.98 317.575,-120.331 316.008,-127.153"/>
</g>
<!-- Node282 -->
<g id="node9" class="node"><title>Node282</title>
<g id="a_node9"><a xlink:href="classvili_1_1_node.html#ab03908ab3d62e3bfddaf9e7306fdf3b3" target="_top" xlink:title="Gets the id of the Node. ">
<polygon fill="white" stroke="black" points="327.5,-88 327.5,-107 410.5,-107 410.5,-88 327.5,-88"/>
<text text-anchor="middle" x="369" y="-95" font-family="Helvetica,sans-Serif" font-size="10.00">vili::Node::getId</text>
</a>
</g>
</g>
<!-- Node280&#45;&gt;Node282 -->
<g id="edge8" class="edge"><title>Node280&#45;&gt;Node282</title>
<path fill="none" stroke="midnightblue" d="M260.849,-97.5C279.209,-97.5 299.328,-97.5 317.126,-97.5"/>
<polygon fill="midnightblue" stroke="midnightblue" points="317.306,-101 327.305,-97.5 317.305,-94.0001 317.306,-101"/>
</g>
<!-- Node283 -->
<g id="node10" class="node"><title>Node283</title>
<g id="a_node10"><a xlink:href="classvili_1_1_node.html#ad3c91cfe2721eaf9841721d1ec8ee0d8" target="_top" xlink:title="Gets the Node annotation. ">
<polygon fill="white" stroke="black" points="308,-50 308,-69 430,-69 430,-50 308,-50"/>
<text text-anchor="middle" x="369" y="-57" font-family="Helvetica,sans-Serif" font-size="10.00">vili::Node::getAnnotation</text>
</a>
</g>
</g>
<!-- Node280&#45;&gt;Node283 -->
<g id="edge9" class="edge"><title>Node280&#45;&gt;Node283</title>
<path fill="none" stroke="midnightblue" d="M244.263,-87.911C266.201,-82.8739 293.28,-76.6562 316.508,-71.3229"/>
<polygon fill="midnightblue" stroke="midnightblue" points="317.575,-74.6692 326.538,-69.0201 316.008,-67.8467 317.575,-74.6692"/>
</g>
<!-- Node284 -->
<g id="node11" class="node"><title>Node284</title>
<g id="a_node11"><a xlink:href="namespacevili_1_1_functions_1_1_vector.html#a10836e1fe04648534cfc59d9de9acd72" target="_top" xlink:title="vili::Functions::Vector\l::join">
<polygon fill="white" stroke="black" points="314,-0.5 314,-30.5 424,-30.5 424,-0.5 314,-0.5"/>
<text text-anchor="start" x="322" y="-18.5" font-family="Helvetica,sans-Serif" font-size="10.00">vili::Functions::Vector</text>
<text text-anchor="middle" x="369" y="-7.5" font-family="Helvetica,sans-Serif" font-size="10.00">::join</text>
</a>
</g>
</g>
<!-- Node280&#45;&gt;Node284 -->
<g id="edge10" class="edge"><title>Node280&#45;&gt;Node284</title>
<path fill="none" stroke="midnightblue" d="M251.014,-87.9235C258.323,-85.4488 265.561,-82.3564 272,-78.5 291.958,-66.5461 288.847,-53.7052 308,-40.5 310.694,-38.6424 313.548,-36.8849 316.491,-35.2286"/>
<polygon fill="midnightblue" stroke="midnightblue" points="318.238,-38.2655 325.514,-30.5645 315.024,-32.047 318.238,-38.2655"/>
</g>
</g>
</svg>
