<?xml version="1.0" encoding="UTF-8" standalone="no"?>
<!DOCTYPE svg PUBLIC "-//W3C//DTD SVG 1.1//EN"
 "http://www.w3.org/Graphics/SVG/1.1/DTD/svg11.dtd">
<!-- Generated by graphviz version 2.38.0 (20140413.2041)
 -->
<!-- Title: vili::DataParser::generateTemplate Pages: 1 -->
<!--zoomable 261 -->
<svg id="main" version="1.1" xmlns="http://www.w3.org/2000/svg" xmlns:xlink="http://www.w3.org/1999/xlink" xml:space="preserve" onload="init(evt)">
<style type="text/css"><![CDATA[
.edge:hover path { stroke: red; }
.edge:hover polygon { stroke: red; fill: red; }
.edge path { stroke: white; }
.edge polygon { stroke: white; fill: white; }
.node polygon { fill: white; }
]]></style>
<script type="text/javascript"><![CDATA[
var edges = document.getElementsByTagName('g');
if (edges && edges.length) {
  for (var i=0;i<edges.length;i++) {
    if (edges[i].id.substr(0,4)=='edge') {
      edges[i].setAttribute('class','edge');
    }
  }
}
]]></script>
        <defs>
                <circle id="rim" cx="0" cy="0" r="7"/>
                <circle id="rim2" cx="0" cy="0" r="3.5"/>
                <g id="zoomPlus">
                        <use xlink:href="#rim" fill="#404040">
                                <set attributeName="fill" to="#808080" begin="zoomplus.mouseover" end="zoomplus.mouseout"/>
                        </use>
                        <path d="M-4,0h8M0,-4v8" fill="none" stroke="white" stroke-width="1.5" pointer-events="none"/>
                </g>
                <g id="zoomMin">
                        <use xlink:href="#rim" fill="#404040">
                                <set attributeName="fill" to="#808080" begin="zoomminus.mouseover" end="zoomminus.mouseout"/>
                        </use>
                        <path d="M-4,0h8" fill="none" stroke="white" stroke-width="1.5" pointer-events="none"/>
                </g>
                <g id="dirArrow">
                        <path fill="none" stroke="white" stroke-width="1.5" d="M0,-3.0v7 M-2.5,-0.5L0,-3.0L2.5,-0.5"/>
                </g>
               <g id="resetDef">
                       <use xlink:href="#rim2" fill="#404040">
                               <set attributeName="fill" to="#808080" begin="reset.mouseover" end="reset.mouseout"/>
                       </use>
               </g>
        </defs>

<script type="text/javascript">
var viewWidth = 1528;
var viewHeight = 261;
var sectionId = 'dynsection-5';
</script>
<script xlink:href="svgpan.js"/>
<svg id="graph" class="graph">
<g id="viewport">
<title>vili::DataParser::generateTemplate</title>
<!-- Node185 -->
<g id="node1" class="node"><title>Node185</title>
<polygon fill="#bfbfbf" stroke="black" points="0,-33 0,-63 125,-63 125,-33 0,-33"/>
<text text-anchor="start" x="8" y="-51" font-family="Helvetica,sans-Serif" font-size="10.00">vili::DataParser::generate</text>
<text text-anchor="middle" x="62.5" y="-40" font-family="Helvetica,sans-Serif" font-size="10.00">Template</text>
</g>
<!-- Node186 -->
<g id="node2" class="node"><title>Node186</title>
<g id="a_node2"><a xlink:href="classvili_1_1_data_parser.html#aee1cbc0386d83924c07150644621160f" target="_top" xlink:title="vili::DataParser::parseFile">
<polygon fill="white" stroke="black" points="161,-38.5 161,-57.5 289,-57.5 289,-38.5 161,-38.5"/>
<text text-anchor="middle" x="225" y="-45.5" font-family="Helvetica,sans-Serif" font-size="10.00">vili::DataParser::parseFile</text>
</a>
</g>
</g>
<!-- Node185&#45;&gt;Node186 -->
<g id="edge1" class="edge"><title>Node185&#45;&gt;Node186</title>
<path fill="none" stroke="midnightblue" d="M135.125,-48C143.742,-48 152.494,-48 160.976,-48"/>
<polygon fill="midnightblue" stroke="midnightblue" points="135.095,-44.5001 125.094,-48 135.094,-51.5001 135.095,-44.5001"/>
</g>
<!-- Node187 -->
<g id="node3" class="node"><title>Node187</title>
<g id="a_node3"><a xlink:href="classvili_1_1_data_parser.html#aa24d18e75c36a9a848b2d2a0f14a5819" target="_top" xlink:title="vili::DataParser::DataParser">
<polygon fill="white" stroke="black" points="325,-95.5 325,-114.5 462,-114.5 462,-95.5 325,-95.5"/>
<text text-anchor="middle" x="393.5" y="-102.5" font-family="Helvetica,sans-Serif" font-size="10.00">vili::DataParser::DataParser</text>
</a>
</g>
</g>
<!-- Node186&#45;&gt;Node187 -->
<g id="edge2" class="edge"><title>Node186&#45;&gt;Node187</title>
<path fill="none" stroke="midnightblue" d="M258.463,-61.3282C277.658,-68.9904 302.532,-78.5434 325,-86 335.052,-89.3362 346.068,-92.5991 356.231,-95.4534"/>
<polygon fill="midnightblue" stroke="midnightblue" points="259.57,-58.0008 248.986,-57.5148 256.957,-64.4948 259.57,-58.0008"/>
</g>
<!-- Node188 -->
<g id="node4" class="node"><title>Node188</title>
<g id="a_node4"><a xlink:href="classvili_1_1_data_parser.html#a17e30ec4a5e111082ffea7ca82eb89d9" target="_top" xlink:title="vili::DataParser::includeFile">
<polygon fill="white" stroke="black" points="326.5,-19.5 326.5,-38.5 460.5,-38.5 460.5,-19.5 326.5,-19.5"/>
<text text-anchor="middle" x="393.5" y="-26.5" font-family="Helvetica,sans-Serif" font-size="10.00">vili::DataParser::includeFile</text>
</a>
</g>
</g>
<!-- Node186&#45;&gt;Node188 -->
<g id="edge3" class="edge"><title>Node186&#45;&gt;Node188</title>
<path fill="none" stroke="midnightblue" d="M270.752,-36.8306C287.854,-34.2222 307.734,-31.7674 326.411,-29.9208"/>
<polygon fill="midnightblue" stroke="midnightblue" points="269.821,-33.435 260.499,-38.4705 270.926,-40.3471 269.821,-33.435"/>
</g>
<!-- Node193 -->
<g id="node9" class="node"><title>Node193</title>
<g id="a_node9"><a xlink:href="namespaceobe_1_1_system.html#ab44a678f8f4dc351d966f90283ba67e1" target="_top" xlink:title="Function called to Mount all Paths using &#39;Mount.vili&#39; file. ">
<polygon fill="white" stroke="black" points="328,-57.5 328,-76.5 459,-76.5 459,-57.5 328,-57.5"/>
<text text-anchor="middle" x="393.5" y="-64.5" font-family="Helvetica,sans-Serif" font-size="10.00">obe::System::MountPaths</text>
</a>
</g>
</g>
<!-- Node186&#45;&gt;Node193 -->
<g id="edge10" class="edge"><title>Node186&#45;&gt;Node193</title>
<path fill="none" stroke="midnightblue" d="M299.567,-56.395C308.999,-57.4714 318.599,-58.5669 327.874,-59.6253"/>
<polygon fill="midnightblue" stroke="midnightblue" points="299.754,-52.8937 289.421,-55.2373 298.96,-59.8486 299.754,-52.8937"/>
</g>
<!-- Node188&#45;&gt;Node186 -->
<g id="edge4" class="edge"><title>Node188&#45;&gt;Node186</title>
<path fill="none" stroke="midnightblue" d="M348.206,-40.0995C330.187,-42.8586 309.026,-45.4508 289.421,-47.3396"/>
<polygon fill="midnightblue" stroke="midnightblue" points="348.819,-43.5459 358.138,-38.5064 347.71,-36.6343 348.819,-43.5459"/>
</g>
<!-- Node189 -->
<g id="node5" class="node"><title>Node189</title>
<g id="a_node5"><a xlink:href="namespaceobe_1_1_modes.html#aba069f9abc42724d76690602326d6b7d" target="_top" xlink:title="obe::Modes::createLevel">
<polygon fill="white" stroke="black" points="498,-0.5 498,-19.5 620,-19.5 620,-0.5 498,-0.5"/>
<text text-anchor="middle" x="559" y="-7.5" font-family="Helvetica,sans-Serif" font-size="10.00">obe::Modes::createLevel</text>
</a>
</g>
</g>
<!-- Node188&#45;&gt;Node189 -->
<g id="edge5" class="edge"><title>Node188&#45;&gt;Node189</title>
<path fill="none" stroke="midnightblue" d="M470.723,-20.1423C479.806,-19.0867 488.981,-18.0205 497.796,-16.9962"/>
<polygon fill="midnightblue" stroke="midnightblue" points="470.06,-16.6957 460.53,-21.3267 470.868,-23.6489 470.06,-16.6957"/>
</g>
<!-- Node190 -->
<g id="node6" class="node"><title>Node190</title>
<g id="a_node6"><a xlink:href="namespaceobe_1_1_modes.html#a3f3265818dfb12925bf614e517346f73" target="_top" xlink:title="Starts the menu used to chose a map to edit. ">
<polygon fill="white" stroke="black" points="1129,-1.5 1129,-20.5 1277,-20.5 1277,-1.5 1129,-1.5"/>
<text text-anchor="middle" x="1203" y="-8.5" font-family="Helvetica,sans-Serif" font-size="10.00">obe::Modes::chooseMapMenu</text>
</a>
</g>
</g>
<!-- Node189&#45;&gt;Node190 -->
<g id="edge6" class="edge"><title>Node189&#45;&gt;Node190</title>
<path fill="none" stroke="midnightblue" d="M630.124,-10.1092C752.573,-10.3 1004.18,-10.6919 1128.77,-10.8859"/>
<polygon fill="midnightblue" stroke="midnightblue" points="630.115,-6.60931 620.109,-10.0936 630.104,-13.6093 630.115,-6.60931"/>
</g>
<!-- Node191 -->
<g id="node7" class="node"><title>Node191</title>
<g id="a_node7"><a xlink:href="namespaceobe_1_1_modes.html#a6a8b08eee511d4895c4da96d4ba223a6" target="_top" xlink:title="Starts the development Menu where you can starts other menus from. ">
<polygon fill="white" stroke="black" points="1313,-39.5 1313,-58.5 1446,-58.5 1446,-39.5 1313,-39.5"/>
<text text-anchor="middle" x="1379.5" y="-46.5" font-family="Helvetica,sans-Serif" font-size="10.00">obe::Modes::startDevMenu</text>
</a>
</g>
</g>
<!-- Node190&#45;&gt;Node191 -->
<g id="edge7" class="edge"><title>Node190&#45;&gt;Node191</title>
<path fill="none" stroke="midnightblue" d="M1257.97,-22.7526C1282.64,-28.1258 1311.49,-34.4086 1334.78,-39.4799"/>
<polygon fill="midnightblue" stroke="midnightblue" points="1258.55,-19.297 1248.03,-20.589 1257.06,-26.1367 1258.55,-19.297"/>
</g>
<!-- Node192 -->
<g id="node8" class="node"><title>Node192</title>
<g id="a_node8"><a xlink:href="_ob_engine_8cpp.html#a3c04138a5bfe5d72780bb7e82a18e627" target="_top" xlink:title="main">
<polygon fill="white" stroke="black" points="1482,-58.5 1482,-77.5 1520,-77.5 1520,-58.5 1482,-58.5"/>
<text text-anchor="middle" x="1501" y="-65.5" font-family="Helvetica,sans-Serif" font-size="10.00">main</text>
</a>
</g>
</g>
<!-- Node190&#45;&gt;Node192 -->
<g id="edge9" class="edge"><title>Node190&#45;&gt;Node192</title>
<path fill="none" stroke="midnightblue" d="M1287.35,-6.7894C1335.09,-6.99422 1395.39,-11.7692 1446,-30 1463.04,-36.1389 1479.62,-49.175 1489.81,-58.2562"/>
<polygon fill="midnightblue" stroke="midnightblue" points="1287.04,-3.29004 1277.05,-6.81461 1287.06,-10.29 1287.04,-3.29004"/>
</g>
<!-- Node191&#45;&gt;Node192 -->
<g id="edge8" class="edge"><title>Node191&#45;&gt;Node192</title>
<path fill="none" stroke="midnightblue" d="M1450.82,-60.1808C1462.35,-62.0131 1473.33,-63.7591 1481.98,-65.1346"/>
<polygon fill="midnightblue" stroke="midnightblue" points="1451.03,-56.6694 1440.6,-58.5557 1449.93,-63.5826 1451.03,-56.6694"/>
</g>
<!-- Node193&#45;&gt;Node192 -->
<g id="edge11" class="edge"><title>Node193&#45;&gt;Node192</title>
<path fill="none" stroke="midnightblue" d="M444.89,-79.5963C450.738,-81.5231 456.554,-83.6602 462,-86 582.49,-137.768 584.36,-237 715.5,-237 715.5,-237 715.5,-237 1204,-237 1311.92,-237 1360.27,-282.552 1446,-217 1491.68,-182.071 1498.77,-104.863 1499.83,-77.6908"/>
<polygon fill="midnightblue" stroke="midnightblue" points="445.665,-76.1722 435.077,-76.5535 443.592,-82.8582 445.665,-76.1722"/>
</g>
<!-- Node194 -->
<g id="node10" class="node"><title>Node194</title>
<g id="a_node10"><a xlink:href="namespaceobe_1_1_script_1_1_core_lib.html#a474d9f2d7938ff05a78649907b8a77d3" target="_top" xlink:title="obe::Script::CoreLib\l::loadPath">
<polygon fill="white" stroke="black" points="507.5,-52 507.5,-82 610.5,-82 610.5,-52 507.5,-52"/>
<text text-anchor="start" x="515.5" y="-70" font-family="Helvetica,sans-Serif" font-size="10.00">obe::Script::CoreLib</text>
<text text-anchor="middle" x="559" y="-59" font-family="Helvetica,sans-Serif" font-size="10.00">::loadPath</text>
</a>
</g>
</g>
<!-- Node193&#45;&gt;Node194 -->
<g id="edge12" class="edge"><title>Node193&#45;&gt;Node194</title>
<path fill="none" stroke="midnightblue" d="M469.385,-67C482.278,-67 495.4,-67 507.457,-67"/>
<polygon fill="midnightblue" stroke="midnightblue" points="469.12,-63.5001 459.12,-67 469.119,-70.5001 469.12,-63.5001"/>
</g>
<!-- Node195 -->
<g id="node11" class="node"><title>Node195</title>
<g id="a_node11"><a xlink:href="namespaceobe_1_1_script.html#abdb81ec0976f1097cef6711415b8fac3" target="_top" xlink:title="obe::Script::loadCoreLib">
<polygon fill="white" stroke="black" points="656,-57.5 656,-76.5 777,-76.5 777,-57.5 656,-57.5"/>
<text text-anchor="middle" x="716.5" y="-64.5" font-family="Helvetica,sans-Serif" font-size="10.00">obe::Script::loadCoreLib</text>
</a>
</g>
</g>
<!-- Node194&#45;&gt;Node195 -->
<g id="edge13" class="edge"><title>Node194&#45;&gt;Node195</title>
<path fill="none" stroke="midnightblue" d="M621.205,-67C632.592,-67 644.476,-67 655.817,-67"/>
<polygon fill="midnightblue" stroke="midnightblue" points="620.917,-63.5001 610.917,-67 620.916,-70.5001 620.917,-63.5001"/>
</g>
<!-- Node196 -->
<g id="node12" class="node"><title>Node196</title>
<g id="a_node12"><a xlink:href="namespaceobe_1_1_script.html#a4e6ee77032cf7f66544f9b08464a60b7" target="_top" xlink:title="obe::Script::loadLib">
<polygon fill="white" stroke="black" points="814,-101.5 814,-120.5 915,-120.5 915,-101.5 814,-101.5"/>
<text text-anchor="middle" x="864.5" y="-108.5" font-family="Helvetica,sans-Serif" font-size="10.00">obe::Script::loadLib</text>
</a>
</g>
</g>
<!-- Node195&#45;&gt;Node196 -->
<g id="edge14" class="edge"><title>Node195&#45;&gt;Node196</title>
<path fill="none" stroke="midnightblue" d="M758.761,-79.4347C781.959,-86.426 810.468,-95.0177 831.882,-101.471"/>
<polygon fill="midnightblue" stroke="midnightblue" points="759.764,-76.0818 749.18,-76.5473 757.745,-82.7841 759.764,-76.0818"/>
</g>
<!-- Node204 -->
<g id="node20" class="node"><title>Node204</title>
<g id="a_node20"><a xlink:href="namespaceobe_1_1_script_1_1_core_lib.html#a07d6c11bbb082bc45bdba50d97965c00" target="_top" xlink:title="obe::Script::CoreLib\l::loadCollision">
<polygon fill="white" stroke="black" points="813,-52 813,-82 916,-82 916,-52 813,-52"/>
<text text-anchor="start" x="821" y="-70" font-family="Helvetica,sans-Serif" font-size="10.00">obe::Script::CoreLib</text>
<text text-anchor="middle" x="864.5" y="-59" font-family="Helvetica,sans-Serif" font-size="10.00">::loadCollision</text>
</a>
</g>
</g>
<!-- Node195&#45;&gt;Node204 -->
<g id="edge26" class="edge"><title>Node195&#45;&gt;Node204</title>
<path fill="none" stroke="midnightblue" d="M787.356,-60.2556C795.966,-60.2251 804.634,-60.3199 812.88,-60.5402"/>
<polygon fill="midnightblue" stroke="midnightblue" points="787.272,-56.7561 777.305,-60.349 787.337,-63.7558 787.272,-56.7561"/>
</g>
<!-- Node197 -->
<g id="node13" class="node"><title>Node197</title>
<g id="a_node13"><a xlink:href="namespaceobe_1_1_modes.html#a1e38c0d9a2ca0230f0de79c298f53ab9" target="_top" xlink:title="A mode that will start the Toolkit. ">
<polygon fill="white" stroke="black" points="1130,-52.5 1130,-71.5 1276,-71.5 1276,-52.5 1130,-52.5"/>
<text text-anchor="middle" x="1203" y="-59.5" font-family="Helvetica,sans-Serif" font-size="10.00">obe::Modes::startToolkitMode</text>
</a>
</g>
</g>
<!-- Node196&#45;&gt;Node197 -->
<g id="edge15" class="edge"><title>Node196&#45;&gt;Node197</title>
<path fill="none" stroke="midnightblue" d="M925.119,-102.318C984.44,-93.6803 1075.23,-80.4593 1136.53,-71.534"/>
<polygon fill="midnightblue" stroke="midnightblue" points="924.543,-98.8654 915.152,-103.77 925.552,-105.792 924.543,-98.8654"/>
</g>
<!-- Node198 -->
<g id="node14" class="node"><title>Node198</title>
<g id="a_node14"><a xlink:href="classobe_1_1_scene_1_1_world.html#a32964e659e18cb32094d9f8ceea30aa3" target="_top" xlink:title="obe::Scene::World::\lWorld">
<polygon fill="white" stroke="black" points="1151,-107 1151,-137 1255,-137 1255,-107 1151,-107"/>
<text text-anchor="start" x="1159" y="-125" font-family="Helvetica,sans-Serif" font-size="10.00">obe::Scene::World::</text>
<text text-anchor="middle" x="1203" y="-114" font-family="Helvetica,sans-Serif" font-size="10.00">World</text>
</a>
</g>
</g>
<!-- Node196&#45;&gt;Node198 -->
<g id="edge18" class="edge"><title>Node196&#45;&gt;Node198</title>
<path fill="none" stroke="midnightblue" d="M925.51,-112.962C989.639,-115.058 1090.22,-118.346 1150.76,-120.325"/>
<polygon fill="midnightblue" stroke="midnightblue" points="925.261,-109.452 915.152,-112.623 925.032,-116.448 925.261,-109.452"/>
</g>
<!-- Node199 -->
<g id="node15" class="node"><title>Node199</title>
<g id="a_node15"><a xlink:href="namespaceobe_1_1_scene.html#ae5cbcc3278d9115d603e5024dec9136e" target="_top" xlink:title="obe::Scene::loadWorldScript\lEngineBaseLib">
<polygon fill="white" stroke="black" points="952,-140 952,-170 1093,-170 1093,-140 952,-140"/>
<text text-anchor="start" x="960" y="-158" font-family="Helvetica,sans-Serif" font-size="10.00">obe::Scene::loadWorldScript</text>
<text text-anchor="middle" x="1022.5" y="-147" font-family="Helvetica,sans-Serif" font-size="10.00">EngineBaseLib</text>
</a>
</g>
</g>
<!-- Node196&#45;&gt;Node199 -->
<g id="edge19" class="edge"><title>Node196&#45;&gt;Node199</title>
<path fill="none" stroke="midnightblue" d="M909.151,-123.312C927.437,-128.469 948.871,-134.515 968.086,-139.935"/>
<polygon fill="midnightblue" stroke="midnightblue" points="909.924,-119.893 899.35,-120.547 908.024,-126.631 909.924,-119.893"/>
</g>
<!-- Node200 -->
<g id="node16" class="node"><title>Node200</title>
<g id="a_node16"><a xlink:href="namespaceobe_1_1_script.html#a5e992c0efb0543e7c934bc1065f08b01" target="_top" xlink:title="obe::Script::loadLibBridge">
<polygon fill="white" stroke="black" points="958.5,-189.5 958.5,-208.5 1086.5,-208.5 1086.5,-189.5 958.5,-189.5"/>
<text text-anchor="middle" x="1022.5" y="-196.5" font-family="Helvetica,sans-Serif" font-size="10.00">obe::Script::loadLibBridge</text>
</a>
</g>
</g>
<!-- Node196&#45;&gt;Node200 -->
<g id="edge21" class="edge"><title>Node196&#45;&gt;Node200</title>
<path fill="none" stroke="midnightblue" d="M882.695,-127.853C899.212,-143.186 925.503,-165.433 952,-179 960.27,-183.234 969.566,-186.692 978.604,-189.468"/>
<polygon fill="midnightblue" stroke="midnightblue" points="884.662,-124.894 874.999,-120.548 879.843,-129.971 884.662,-124.894"/>
</g>
<!-- Node203 -->
<g id="node19" class="node"><title>Node203</title>
<g id="a_node19"><a xlink:href="namespaceobe_1_1_script.html#aad6ef67388e6d16eb01853f208da410f" target="_top" xlink:title="obe::Script::loadBaseLib">
<polygon fill="white" stroke="black" points="961,-25.5 961,-44.5 1084,-44.5 1084,-25.5 961,-25.5"/>
<text text-anchor="middle" x="1022.5" y="-32.5" font-family="Helvetica,sans-Serif" font-size="10.00">obe::Script::loadBaseLib</text>
</a>
</g>
</g>
<!-- Node196&#45;&gt;Node203 -->
<g id="edge24" class="edge"><title>Node196&#45;&gt;Node203</title>
<path fill="none" stroke="midnightblue" d="M903.864,-97.4717C908.065,-95.5052 912.193,-93.3437 916,-91 934.229,-79.7767 933.525,-69.8142 952,-59 962.245,-53.0029 974.219,-48.1957 985.313,-44.5053"/>
<polygon fill="midnightblue" stroke="midnightblue" points="902.437,-94.2756 894.65,-101.46 905.217,-100.7 902.437,-94.2756"/>
</g>
<!-- Node197&#45;&gt;Node191 -->
<g id="edge16" class="edge"><title>Node197&#45;&gt;Node191</title>
<path fill="none" stroke="midnightblue" d="M1286.23,-55.8742C1295.12,-55.2117 1304.08,-54.544 1312.74,-53.8987"/>
<polygon fill="midnightblue" stroke="midnightblue" points="1285.95,-52.3852 1276.24,-56.6186 1286.47,-59.3659 1285.95,-52.3852"/>
</g>
<!-- Node197&#45;&gt;Node192 -->
<g id="edge17" class="edge"><title>Node197&#45;&gt;Node192</title>
<path fill="none" stroke="midnightblue" d="M1286.25,-67.0106C1295.27,-67.4165 1304.33,-67.7615 1313,-68 1374.99,-69.7047 1448.57,-68.8657 1481.94,-68.3297"/>
<polygon fill="midnightblue" stroke="midnightblue" points="1286.25,-63.5068 1276.09,-66.529 1285.92,-70.499 1286.25,-63.5068"/>
</g>
<!-- Node199&#45;&gt;Node198 -->
<g id="edge20" class="edge"><title>Node199&#45;&gt;Node198</title>
<path fill="none" stroke="midnightblue" d="M1103.06,-140.291C1119.31,-137.288 1135.98,-134.205 1150.91,-131.446"/>
<polygon fill="midnightblue" stroke="midnightblue" points="1102.22,-136.887 1093.02,-142.147 1103.49,-143.771 1102.22,-136.887"/>
</g>
<!-- Node201 -->
<g id="node17" class="node"><title>Node201</title>
<g id="a_node17"><a xlink:href="namespaceobe_1_1_script.html#a5dc8321da50fd4b5dc2935e4d8c93a4e" target="_top" xlink:title="obe::Script::loadScrGame\lObject">
<polygon fill="white" stroke="black" points="1138.5,-178 1138.5,-208 1267.5,-208 1267.5,-178 1138.5,-178"/>
<text text-anchor="start" x="1146.5" y="-196" font-family="Helvetica,sans-Serif" font-size="10.00">obe::Script::loadScrGame</text>
<text text-anchor="middle" x="1203" y="-185" font-family="Helvetica,sans-Serif" font-size="10.00">Object</text>
</a>
</g>
</g>
<!-- Node200&#45;&gt;Node201 -->
<g id="edge22" class="edge"><title>Node200&#45;&gt;Node201</title>
<path fill="none" stroke="midnightblue" d="M1097.03,-196.528C1110.73,-196.068 1124.93,-195.591 1138.3,-195.141"/>
<polygon fill="midnightblue" stroke="midnightblue" points="1096.56,-193.042 1086.68,-196.876 1096.8,-200.038 1096.56,-193.042"/>
</g>
<!-- Node202 -->
<g id="node18" class="node"><title>Node202</title>
<g id="a_node18"><a xlink:href="classobe_1_1_script_1_1_game_object.html#aadeac0036d2fe21d523acfd4e9011a23" target="_top" xlink:title="obe::Script::GameObject\l::loadGameObject">
<polygon fill="white" stroke="black" points="1317,-178 1317,-208 1442,-208 1442,-178 1317,-178"/>
<text text-anchor="start" x="1325" y="-196" font-family="Helvetica,sans-Serif" font-size="10.00">obe::Script::GameObject</text>
<text text-anchor="middle" x="1379.5" y="-185" font-family="Helvetica,sans-Serif" font-size="10.00">::loadGameObject</text>
</a>
</g>
</g>
<!-- Node201&#45;&gt;Node202 -->
<g id="edge23" class="edge"><title>Node201&#45;&gt;Node202</title>
<path fill="none" stroke="midnightblue" d="M1278.21,-193C1291.09,-193 1304.35,-193 1316.85,-193"/>
<polygon fill="midnightblue" stroke="midnightblue" points="1277.99,-189.5 1267.99,-193 1277.99,-196.5 1277.99,-189.5"/>
</g>
<!-- Node203&#45;&gt;Node197 -->
<g id="edge25" class="edge"><title>Node203&#45;&gt;Node197</title>
<path fill="none" stroke="midnightblue" d="M1094.47,-45.7345C1109.15,-47.956 1124.53,-50.2819 1138.91,-52.4574"/>
<polygon fill="midnightblue" stroke="midnightblue" points="1094.84,-42.2514 1084.43,-44.2164 1093.79,-49.1727 1094.84,-42.2514"/>
</g>
<!-- Node204&#45;&gt;Node195 -->
<g id="edge27" class="edge"><title>Node204&#45;&gt;Node195</title>
<path fill="none" stroke="midnightblue" d="M802.757,-73.6647C794.342,-73.7828 785.703,-73.7783 777.305,-73.651"/>
<polygon fill="midnightblue" stroke="midnightblue" points="802.953,-77.1616 812.88,-73.4598 802.811,-70.163 802.953,-77.1616"/>
</g>
</g>
</svg>
        <g id="navigator" transform="translate(0 0)" fill="#404254">
                <rect fill="#f2f5e9" fill-opacity="0.5" stroke="#606060" stroke-width=".5" x="0" y="0" width="60" height="60"/>
                <use id="zoomplus" xlink:href="#zoomPlus" x="17" y="9" onmousedown="handleZoom(evt,'in')"/>
                <use id="zoomminus" xlink:href="#zoomMin" x="42" y="9" onmousedown="handleZoom(evt,'out')"/>
                <use id="reset" xlink:href="#resetDef" x="30" y="36" onmousedown="handleReset()"/>
                <g id="arrowUp" xlink:href="#dirArrow" transform="translate(30 24)" onmousedown="handlePan(0,-1)">
                  <use xlink:href="#rim" fill="#404040">
                        <set attributeName="fill" to="#808080" begin="arrowUp.mouseover" end="arrowUp.mouseout"/>
                  </use>
                  <path fill="none" stroke="white" stroke-width="1.5" d="M0,-3.0v7 M-2.5,-0.5L0,-3.0L2.5,-0.5"/>
                </g>
                <g id="arrowRight" xlink:href="#dirArrow" transform="rotate(90) translate(36 -43)" onmousedown="handlePan(1,0)">
                  <use xlink:href="#rim" fill="#404040">
                        <set attributeName="fill" to="#808080" begin="arrowRight.mouseover" end="arrowRight.mouseout"/>
                  </use>
                  <path fill="none" stroke="white" stroke-width="1.5" d="M0,-3.0v7 M-2.5,-0.5L0,-3.0L2.5,-0.5"/>
                </g>
                <g id="arrowDown" xlink:href="#dirArrow" transform="rotate(180) translate(-30 -48)" onmousedown="handlePan(0,1)">
                  <use xlink:href="#rim" fill="#404040">
                        <set attributeName="fill" to="#808080" begin="arrowDown.mouseover" end="arrowDown.mouseout"/>
                  </use>
                  <path fill="none" stroke="white" stroke-width="1.5" d="M0,-3.0v7 M-2.5,-0.5L0,-3.0L2.5,-0.5"/>
                </g>
                <g id="arrowLeft" xlink:href="#dirArrow" transform="rotate(270) translate(-36 17)" onmousedown="handlePan(-1,0)">
                  <use xlink:href="#rim" fill="#404040">
                        <set attributeName="fill" to="#808080" begin="arrowLeft.mouseover" end="arrowLeft.mouseout"/>
                  </use>
                  <path fill="none" stroke="white" stroke-width="1.5" d="M0,-3.0v7 M-2.5,-0.5L0,-3.0L2.5,-0.5"/>
                </g>
        </g>
        <svg viewBox="0 0 15 15" width="100%" height="30px" preserveAspectRatio="xMaxYMin meet">
         <g id="arrow_out" transform="scale(0.3 0.3)">
          <a xlink:href="classvili_1_1_data_parser_a9608c9c66d1526081a5ab86045a20f1b_icgraph_org.svg" target="_base">
           <rect id="button" ry="5" rx="5" y="6" x="6" height="38" width="38"
                fill="#f2f5e9" fill-opacity="0.5" stroke="#606060" stroke-width="1.0"/>
           <path id="arrow"
             d="M 11.500037,31.436501 C 11.940474,20.09759 22.043105,11.32322 32.158766,21.979434 L 37.068811,17.246167 C 37.068811,17.246167 37.088388,32 37.088388,32 L 22.160133,31.978069 C 22.160133,31.978069 26.997745,27.140456 26.997745,27.140456 C 18.528582,18.264221 13.291696,25.230495 11.500037,31.436501 z"
             style="fill:#404040;"/>
          </a>
         </g>
        </svg>
</svg>
