<?xml version="1.0" encoding="UTF-8" standalone="no"?>
<!DOCTYPE svg PUBLIC "-//W3C//DTD SVG 1.1//EN"
 "http://www.w3.org/Graphics/SVG/1.1/DTD/svg11.dtd">
<!-- Generated by graphviz version 2.38.0 (20140413.2041)
 -->
<!-- Title: obe::Debug::Console::Stream Pages: 1 -->
<svg width="254pt" height="95pt"
 viewBox="0.00 0.00 254.00 95.00" xmlns="http://www.w3.org/2000/svg" xmlns:xlink="http://www.w3.org/1999/xlink">
<g id="graph0" class="graph" transform="scale(1 1) rotate(0) translate(4 91)">
<title>obe::Debug::Console::Stream</title>
<!-- Node0 -->
<g id="node1" class="node"><title>Node0</title>
<polygon fill="#bfbfbf" stroke="black" points="70.5,-0.5 70.5,-30.5 177.5,-30.5 177.5,-0.5 70.5,-0.5"/>
<text text-anchor="start" x="78.5" y="-18.5" font-family="Helvetica,sans-Serif" font-size="10.00">obe::Debug::Console</text>
<text text-anchor="middle" x="124" y="-7.5" font-family="Helvetica,sans-Serif" font-size="10.00">::Stream</text>
</g>
<!-- Node1 -->
<g id="node2" class="node"><title>Node1</title>
<g id="a_node2"><a xlink:href="classobe_1_1_types_1_1_identifiable.html" target="_top" xlink:title="A Base class that does carry an unique identifier for a given category (Sprites / Colliders etc...">
<polygon fill="white" stroke="black" points="0,-67.5 0,-86.5 116,-86.5 116,-67.5 0,-67.5"/>
<text text-anchor="middle" x="58" y="-74.5" font-family="Helvetica,sans-Serif" font-size="10.00">obe::Types::Identifiable</text>
</a>
</g>
</g>
<!-- Node1&#45;&gt;Node0 -->
<g id="edge1" class="edge"><title>Node1&#45;&gt;Node0</title>
<path fill="none" stroke="midnightblue" d="M75.0314,-60.6459C85.3477,-51.3456 98.4075,-39.572 108.445,-30.523"/>
<polygon fill="midnightblue" stroke="midnightblue" points="72.54,-58.1796 67.4562,-67.4751 77.2271,-63.3788 72.54,-58.1796"/>
</g>
<!-- Node2 -->
<g id="node3" class="node"><title>Node2</title>
<g id="a_node3"><a xlink:href="classobe_1_1_types_1_1_togglable.html" target="_top" xlink:title="A Base Class that you can enable or disable. ">
<polygon fill="white" stroke="black" points="134,-67.5 134,-86.5 246,-86.5 246,-67.5 134,-67.5"/>
<text text-anchor="middle" x="190" y="-74.5" font-family="Helvetica,sans-Serif" font-size="10.00">obe::Types::Togglable</text>
</a>
</g>
</g>
<!-- Node2&#45;&gt;Node0 -->
<g id="edge2" class="edge"><title>Node2&#45;&gt;Node0</title>
<path fill="none" stroke="midnightblue" d="M172.969,-60.6459C162.652,-51.3456 149.592,-39.572 139.555,-30.523"/>
<polygon fill="midnightblue" stroke="midnightblue" points="170.773,-63.3788 180.544,-67.4751 175.46,-58.1796 170.773,-63.3788"/>
</g>
</g>
</svg>
