<?xml version="1.0" encoding="UTF-8" standalone="no"?>
<!DOCTYPE svg PUBLIC "-//W3C//DTD SVG 1.1//EN"
 "http://www.w3.org/Graphics/SVG/1.1/DTD/svg11.dtd">
<!-- Generated by graphviz version 2.38.0 (20140413.2041)
 -->
<!-- Title: vili::DataNode Pages: 1 -->
<svg width="200pt" height="95pt"
 viewBox="0.00 0.00 199.50 95.00" xmlns="http://www.w3.org/2000/svg" xmlns:xlink="http://www.w3.org/1999/xlink">
<g id="graph0" class="graph" transform="scale(1 1) rotate(0) translate(4 91)">
<title>vili::DataNode</title>
<!-- Node2 -->
<g id="node1" class="node"><title>Node2</title>
<polygon fill="#bfbfbf" stroke="black" points="0,-0.5 0,-19.5 76,-19.5 76,-0.5 0,-0.5"/>
<text text-anchor="middle" x="38" y="-7.5" font-family="Helvetica,sans-Serif" font-size="10.00">vili::DataNode</text>
</g>
<!-- Node3 -->
<g id="node2" class="node"><title>Node3</title>
<g id="a_node2"><a xlink:href="classvili_1_1_node.html" target="_top" xlink:title="Base Class for every Node in the Tree. ">
<polygon fill="white" stroke="black" points="82,-67.5 82,-86.5 138,-86.5 138,-67.5 82,-67.5"/>
<text text-anchor="middle" x="110" y="-74.5" font-family="Helvetica,sans-Serif" font-size="10.00">vili::Node</text>
</a>
</g>
</g>
<!-- Node3&#45;&gt;Node2 -->
<g id="edge1" class="edge"><title>Node3&#45;&gt;Node2</title>
<path fill="none" stroke="midnightblue" d="M92.6717,-60.3564C78.5168,-47.5777 59.0368,-29.9915 47.5564,-19.6273"/>
<polygon fill="midnightblue" stroke="midnightblue" points="90.5217,-63.1307 100.29,-67.2338 95.2124,-57.9348 90.5217,-63.1307"/>
</g>
<!-- Node4 -->
<g id="node3" class="node"><title>Node4</title>
<g id="a_node3"><a xlink:href="classvili_1_1_container_node.html" target="_top" xlink:title="Abstract base class for ArrayNode and ComplexNode (A ContainerNode can contains other nodes) ...">
<polygon fill="white" stroke="black" points="94.5,-0.5 94.5,-19.5 191.5,-19.5 191.5,-0.5 94.5,-0.5"/>
<text text-anchor="middle" x="143" y="-7.5" font-family="Helvetica,sans-Serif" font-size="10.00">vili::ContainerNode</text>
</a>
</g>
</g>
<!-- Node3&#45;&gt;Node4 -->
<g id="edge3" class="edge"><title>Node3&#45;&gt;Node4</title>
<path fill="none" stroke="midnightblue" d="M115.713,-57.5421C117.96,-51.1942 120.778,-44.1425 124,-38 127.408,-31.5029 132.158,-24.7529 136.056,-19.6272"/>
<polygon fill="midnightblue" stroke="midnightblue" points="112.311,-56.6828 112.501,-67.2759 118.959,-58.8765 112.311,-56.6828"/>
</g>
<!-- Node4&#45;&gt;Node3 -->
<g id="edge2" class="edge"><title>Node4&#45;&gt;Node3</title>
<path fill="none" stroke="#9a32cd" stroke-dasharray="5,2" d="M134.034,-28.6594C127.688,-41.1598 119.448,-57.3903 114.451,-67.2338"/>
<polygon fill="#9a32cd" stroke="#9a32cd" points="137.214,-30.1284 138.62,-19.6273 130.972,-26.9595 137.214,-30.1284"/>
<text text-anchor="middle" x="151" y="-41" font-family="Helvetica,sans-Serif" font-size="10.00"> m_parent</text>
</g>
</g>
</svg>
