<?xml version="1.0" encoding="UTF-8" standalone="no"?>
<!DOCTYPE svg PUBLIC "-//W3C//DTD SVG 1.1//EN"
 "http://www.w3.org/Graphics/SVG/1.1/DTD/svg11.dtd">
<!-- Generated by graphviz version 2.38.0 (20140413.2041)
 -->
<!-- Title: ziputils::unzipper::~unzipper Pages: 1 -->
<svg width="350pt" height="39pt"
 viewBox="0.00 0.00 350.00 39.00" xmlns="http://www.w3.org/2000/svg" xmlns:xlink="http://www.w3.org/1999/xlink">
<g id="graph0" class="graph" transform="scale(1 1) rotate(0) translate(4 35)">
<title>ziputils::unzipper::~unzipper</title>
<!-- Node2 -->
<g id="node1" class="node"><title>Node2</title>
<polygon fill="#bfbfbf" stroke="black" points="0,-0.5 0,-30.5 90,-30.5 90,-0.5 0,-0.5"/>
<text text-anchor="start" x="8" y="-18.5" font-family="Helvetica,sans-Serif" font-size="10.00">ziputils::unzipper</text>
<text text-anchor="middle" x="45" y="-7.5" font-family="Helvetica,sans-Serif" font-size="10.00">::~unzipper</text>
</g>
<!-- Node3 -->
<g id="node2" class="node"><title>Node3</title>
<g id="a_node2"><a xlink:href="classziputils_1_1unzipper.html#a56435155ae2a240e55610ecfe8d080a0" target="_top" xlink:title="ziputils::unzipper\l::close">
<polygon fill="none" stroke="black" points="126,-0.5 126,-30.5 216,-30.5 216,-0.5 126,-0.5"/>
<text text-anchor="start" x="134" y="-18.5" font-family="Helvetica,sans-Serif" font-size="10.00">ziputils::unzipper</text>
<text text-anchor="middle" x="171" y="-7.5" font-family="Helvetica,sans-Serif" font-size="10.00">::close</text>
</a>
</g>
</g>
<!-- Node2&#45;&gt;Node3 -->
<g id="edge1" class="edge"><title>Node2&#45;&gt;Node3</title>
<path fill="none" stroke="midnightblue" d="M90.0669,-15.5C98.2822,-15.5 106.957,-15.5 115.443,-15.5"/>
<polygon fill="midnightblue" stroke="midnightblue" points="115.657,-19.0001 125.657,-15.5 115.657,-12.0001 115.657,-19.0001"/>
</g>
<!-- Node4 -->
<g id="node3" class="node"><title>Node4</title>
<g id="a_node3"><a xlink:href="classziputils_1_1unzipper.html#a2be7f7ee69a951bc2c05d346b11e7082" target="_top" xlink:title="ziputils::unzipper\l::closeEntry">
<polygon fill="none" stroke="black" points="252,-0.5 252,-30.5 342,-30.5 342,-0.5 252,-0.5"/>
<text text-anchor="start" x="260" y="-18.5" font-family="Helvetica,sans-Serif" font-size="10.00">ziputils::unzipper</text>
<text text-anchor="middle" x="297" y="-7.5" font-family="Helvetica,sans-Serif" font-size="10.00">::closeEntry</text>
</a>
</g>
</g>
<!-- Node3&#45;&gt;Node4 -->
<g id="edge2" class="edge"><title>Node3&#45;&gt;Node4</title>
<path fill="none" stroke="midnightblue" d="M216.067,-15.5C224.282,-15.5 232.957,-15.5 241.443,-15.5"/>
<polygon fill="midnightblue" stroke="midnightblue" points="241.657,-19.0001 251.657,-15.5 241.657,-12.0001 241.657,-19.0001"/>
</g>
</g>
</svg>
