<?xml version="1.0" encoding="UTF-8" standalone="no"?>
<!DOCTYPE svg PUBLIC "-//W3C//DTD SVG 1.1//EN"
 "http://www.w3.org/Graphics/SVG/1.1/DTD/svg11.dtd">
<!-- Generated by graphviz version 2.38.0 (20140413.2041)
 -->
<!-- Title: obe::Time::FPSCounter::loadFont Pages: 1 -->
<svg width="525pt" height="66pt"
 viewBox="0.00 0.00 525.00 66.00" xmlns="http://www.w3.org/2000/svg" xmlns:xlink="http://www.w3.org/1999/xlink">
<g id="graph0" class="graph" transform="scale(1 1) rotate(0) translate(4 62)">
<title>obe::Time::FPSCounter::loadFont</title>
<!-- Node6 -->
<g id="node1" class="node"><title>Node6</title>
<polygon fill="#bfbfbf" stroke="black" points="0,-14 0,-44 119,-44 119,-14 0,-14"/>
<text text-anchor="start" x="8" y="-32" font-family="Helvetica,sans-Serif" font-size="10.00">obe::Time::FPSCounter</text>
<text text-anchor="middle" x="59.5" y="-21" font-family="Helvetica,sans-Serif" font-size="10.00">::loadFont</text>
</g>
<!-- Node7 -->
<g id="node2" class="node"><title>Node7</title>
<g id="a_node2"><a xlink:href="namespaceobe_1_1_editor.html#a9009207671e71dccb68a31ea2362e9ef" target="_top" xlink:title="Starts the map edition. ">
<polygon fill="none" stroke="black" points="162.5,-38.5 162.5,-57.5 266.5,-57.5 266.5,-38.5 162.5,-38.5"/>
<text text-anchor="middle" x="214.5" y="-45.5" font-family="Helvetica,sans-Serif" font-size="10.00">obe::Editor::editMap</text>
</a>
</g>
</g>
<!-- Node6&#45;&gt;Node7 -->
<g id="edge1" class="edge"><title>Node6&#45;&gt;Node7</title>
<path fill="none" stroke="midnightblue" d="M129.286,-37.542C140.346,-38.9155 151.623,-40.316 162.181,-41.627"/>
<polygon fill="midnightblue" stroke="midnightblue" points="129.571,-34.0507 119.216,-36.2916 128.709,-40.9973 129.571,-34.0507"/>
</g>
<!-- Node10 -->
<g id="node5" class="node"><title>Node10</title>
<g id="a_node5"><a xlink:href="namespaceobe_1_1_modes.html#a5f4a1008892030350b06282b8dee1a89" target="_top" xlink:title="Start the game by loading the boot.lua file in one of the MountedPaths. ">
<polygon fill="none" stroke="black" points="155,-0.5 155,-19.5 274,-19.5 274,-0.5 155,-0.5"/>
<text text-anchor="middle" x="214.5" y="-7.5" font-family="Helvetica,sans-Serif" font-size="10.00">obe::Modes::startGame</text>
</a>
</g>
</g>
<!-- Node6&#45;&gt;Node10 -->
<g id="edge5" class="edge"><title>Node6&#45;&gt;Node10</title>
<path fill="none" stroke="midnightblue" d="M129.213,-20.467C137.803,-19.4003 146.525,-18.3171 154.941,-17.272"/>
<polygon fill="midnightblue" stroke="midnightblue" points="128.709,-17.0027 119.216,-21.7084 129.571,-23.9493 128.709,-17.0027"/>
</g>
<!-- Node8 -->
<g id="node3" class="node"><title>Node8</title>
<g id="a_node3"><a xlink:href="namespaceobe_1_1_modes.html#a6a8b08eee511d4895c4da96d4ba223a6" target="_top" xlink:title="Starts the development Menu where you can starts other menus from. ">
<polygon fill="none" stroke="black" points="310,-19.5 310,-38.5 443,-38.5 443,-19.5 310,-19.5"/>
<text text-anchor="middle" x="376.5" y="-26.5" font-family="Helvetica,sans-Serif" font-size="10.00">obe::Modes::startDevMenu</text>
</a>
</g>
</g>
<!-- Node7&#45;&gt;Node8 -->
<g id="edge2" class="edge"><title>Node7&#45;&gt;Node8</title>
<path fill="none" stroke="midnightblue" d="M276.804,-40.7201C287.669,-39.4299 299.022,-38.0818 309.997,-36.7785"/>
<polygon fill="midnightblue" stroke="midnightblue" points="276.082,-37.2812 266.565,-41.936 276.908,-44.2323 276.082,-37.2812"/>
</g>
<!-- Node9 -->
<g id="node4" class="node"><title>Node9</title>
<g id="a_node4"><a xlink:href="_ob_engine_8cpp.html#a3c04138a5bfe5d72780bb7e82a18e627" target="_top" xlink:title="main">
<polygon fill="none" stroke="black" points="479,-19.5 479,-38.5 517,-38.5 517,-19.5 479,-19.5"/>
<text text-anchor="middle" x="498" y="-26.5" font-family="Helvetica,sans-Serif" font-size="10.00">main</text>
</a>
</g>
</g>
<!-- Node7&#45;&gt;Node9 -->
<g id="edge4" class="edge"><title>Node7&#45;&gt;Node9</title>
<path fill="none" stroke="midnightblue" d="M276.638,-53.5478C322.709,-56.3918 387.259,-57.5202 443,-48 455.344,-45.8918 468.618,-41.2561 478.917,-37.0917"/>
<polygon fill="midnightblue" stroke="midnightblue" points="276.723,-50.0459 266.514,-52.877 276.26,-57.0306 276.723,-50.0459"/>
</g>
<!-- Node8&#45;&gt;Node9 -->
<g id="edge3" class="edge"><title>Node8&#45;&gt;Node9</title>
<path fill="none" stroke="midnightblue" d="M453.438,-29C462.719,-29 471.436,-29 478.598,-29"/>
<polygon fill="midnightblue" stroke="midnightblue" points="453.193,-25.5001 443.193,-29 453.193,-32.5001 453.193,-25.5001"/>
</g>
<!-- Node10&#45;&gt;Node8 -->
<g id="edge6" class="edge"><title>Node10&#45;&gt;Node8</title>
<path fill="none" stroke="midnightblue" d="M284.36,-18.1771C292.804,-19.1798 301.417,-20.2026 309.812,-21.1996"/>
<polygon fill="midnightblue" stroke="midnightblue" points="284.513,-14.6707 274.17,-16.967 283.687,-21.6219 284.513,-14.6707"/>
</g>
<!-- Node10&#45;&gt;Node9 -->
<g id="edge7" class="edge"><title>Node10&#45;&gt;Node9</title>
<path fill="none" stroke="midnightblue" d="M284.431,-3.99845C329.808,-1.51611 390.336,-1.00527 443,-10 455.344,-12.1082 468.618,-16.7439 478.917,-20.9083"/>
<polygon fill="midnightblue" stroke="midnightblue" points="284.181,-0.507043 274.405,-4.59225 284.595,-7.4948 284.181,-0.507043"/>
</g>
</g>
</svg>
