<?xml version="1.0" encoding="UTF-8" standalone="no"?>
<!DOCTYPE svg PUBLIC "-//W3C//DTD SVG 1.1//EN"
 "http://www.w3.org/Graphics/SVG/1.1/DTD/svg11.dtd">
<!-- Generated by graphviz version 2.38.0 (20140413.2041)
 -->
<!-- Title: obe::Light::DynamicPointLight::updateLight Pages: 1 -->
<svg width="304pt" height="137pt"
 viewBox="0.00 0.00 304.00 137.00" xmlns="http://www.w3.org/2000/svg" xmlns:xlink="http://www.w3.org/1999/xlink">
<g id="graph0" class="graph" transform="scale(1 1) rotate(0) translate(4 133)">
<title>obe::Light::DynamicPointLight::updateLight</title>
<!-- Node125 -->
<g id="node1" class="node"><title>Node125</title>
<polygon fill="#bfbfbf" stroke="black" points="0,-49.5 0,-79.5 126,-79.5 126,-49.5 0,-49.5"/>
<text text-anchor="start" x="8" y="-67.5" font-family="Helvetica,sans-Serif" font-size="10.00">obe::Light::DynamicPoint</text>
<text text-anchor="middle" x="63" y="-56.5" font-family="Helvetica,sans-Serif" font-size="10.00">Light::updateLight</text>
</g>
<!-- Node126 -->
<g id="node2" class="node"><title>Node126</title>
<g id="a_node2"><a xlink:href="classobe_1_1_math_1_1_math_exp_object.html#a23884daf889588527a08bd39720afdcb" target="_top" xlink:title="obe::Math::MathExpObject\l::processAllExp">
<polygon fill="white" stroke="black" points="162,-98.5 162,-128.5 296,-128.5 296,-98.5 162,-98.5"/>
<text text-anchor="start" x="170" y="-116.5" font-family="Helvetica,sans-Serif" font-size="10.00">obe::Math::MathExpObject</text>
<text text-anchor="middle" x="229" y="-105.5" font-family="Helvetica,sans-Serif" font-size="10.00">::processAllExp</text>
</a>
</g>
</g>
<!-- Node125&#45;&gt;Node126 -->
<g id="edge1" class="edge"><title>Node125&#45;&gt;Node126</title>
<path fill="none" stroke="midnightblue" d="M114.544,-79.6014C131.458,-84.6551 150.477,-90.3376 168.039,-95.5848"/>
<polygon fill="midnightblue" stroke="midnightblue" points="167.04,-98.9391 177.623,-98.4484 169.044,-92.2321 167.04,-98.9391"/>
</g>
<!-- Node127 -->
<g id="node3" class="node"><title>Node127</title>
<g id="a_node3"><a xlink:href="classobe_1_1_light_1_1_point_light.html#a70ee7d2c2c02cedd02536f6d8c53a70a" target="_top" xlink:title="obe::Light::PointLight\l::checkColors">
<polygon fill="white" stroke="black" points="174.5,-49.5 174.5,-79.5 283.5,-79.5 283.5,-49.5 174.5,-49.5"/>
<text text-anchor="start" x="182.5" y="-67.5" font-family="Helvetica,sans-Serif" font-size="10.00">obe::Light::PointLight</text>
<text text-anchor="middle" x="229" y="-56.5" font-family="Helvetica,sans-Serif" font-size="10.00">::checkColors</text>
</a>
</g>
</g>
<!-- Node125&#45;&gt;Node127 -->
<g id="edge2" class="edge"><title>Node125&#45;&gt;Node127</title>
<path fill="none" stroke="midnightblue" d="M126.001,-64.5C138.474,-64.5 151.603,-64.5 164.137,-64.5"/>
<polygon fill="midnightblue" stroke="midnightblue" points="164.499,-68.0001 174.499,-64.5 164.499,-61.0001 164.499,-68.0001"/>
</g>
<!-- Node128 -->
<g id="node4" class="node"><title>Node128</title>
<g id="a_node4"><a xlink:href="classobe_1_1_light_1_1_point_light.html#a3fc3675cafe3bd519265a0c6a9692e94" target="_top" xlink:title="obe::Light::PointLight\l::updateShader">
<polygon fill="white" stroke="black" points="174.5,-0.5 174.5,-30.5 283.5,-30.5 283.5,-0.5 174.5,-0.5"/>
<text text-anchor="start" x="182.5" y="-18.5" font-family="Helvetica,sans-Serif" font-size="10.00">obe::Light::PointLight</text>
<text text-anchor="middle" x="229" y="-7.5" font-family="Helvetica,sans-Serif" font-size="10.00">::updateShader</text>
</a>
</g>
</g>
<!-- Node125&#45;&gt;Node128 -->
<g id="edge3" class="edge"><title>Node125&#45;&gt;Node128</title>
<path fill="none" stroke="midnightblue" d="M114.544,-49.3986C131.458,-44.3449 150.477,-38.6624 168.039,-33.4152"/>
<polygon fill="midnightblue" stroke="midnightblue" points="169.044,-36.7679 177.623,-30.5516 167.04,-30.0609 169.044,-36.7679"/>
</g>
</g>
</svg>
