<?xml version="1.0" encoding="UTF-8" standalone="no"?>
<!DOCTYPE svg PUBLIC "-//W3C//DTD SVG 1.1//EN"
 "http://www.w3.org/Graphics/SVG/1.1/DTD/svg11.dtd">
<!-- Generated by graphviz version 2.38.0 (20140413.2041)
 -->
<!-- Title: vili::DataParser::getTemplate Pages: 1 -->
<svg width="734pt" height="47pt"
 viewBox="0.00 0.00 734.00 47.00" xmlns="http://www.w3.org/2000/svg" xmlns:xlink="http://www.w3.org/1999/xlink">
<g id="graph0" class="graph" transform="scale(1 1) rotate(0) translate(4 43)">
<title>vili::DataParser::getTemplate</title>
<!-- Node269 -->
<g id="node1" class="node"><title>Node269</title>
<polygon fill="#bfbfbf" stroke="black" points="0,-0.5 0,-19.5 141,-19.5 141,-0.5 0,-0.5"/>
<text text-anchor="middle" x="70.5" y="-7.5" font-family="Helvetica,sans-Serif" font-size="10.00">vili::DataParser::getTemplate</text>
</g>
<!-- Node270 -->
<g id="node2" class="node"><title>Node270</title>
<g id="a_node2"><a xlink:href="namespaceobe_1_1_modes.html#aba069f9abc42724d76690602326d6b7d" target="_top" xlink:title="obe::Modes::createLevel">
<polygon fill="none" stroke="black" points="177,-0.5 177,-19.5 299,-19.5 299,-0.5 177,-0.5"/>
<text text-anchor="middle" x="238" y="-7.5" font-family="Helvetica,sans-Serif" font-size="10.00">obe::Modes::createLevel</text>
</a>
</g>
</g>
<!-- Node269&#45;&gt;Node270 -->
<g id="edge1" class="edge"><title>Node269&#45;&gt;Node270</title>
<path fill="none" stroke="midnightblue" d="M151.26,-10C159.858,-10 168.501,-10 176.814,-10"/>
<polygon fill="midnightblue" stroke="midnightblue" points="151.207,-6.5001 141.207,-10 151.207,-13.5001 151.207,-6.5001"/>
</g>
<!-- Node271 -->
<g id="node3" class="node"><title>Node271</title>
<g id="a_node3"><a xlink:href="namespaceobe_1_1_modes.html#a3f3265818dfb12925bf614e517346f73" target="_top" xlink:title="obe::Modes::chooseMapMenu">
<polygon fill="none" stroke="black" points="335,-0.5 335,-19.5 483,-19.5 483,-0.5 335,-0.5"/>
<text text-anchor="middle" x="409" y="-7.5" font-family="Helvetica,sans-Serif" font-size="10.00">obe::Modes::chooseMapMenu</text>
</a>
</g>
</g>
<!-- Node270&#45;&gt;Node271 -->
<g id="edge2" class="edge"><title>Node270&#45;&gt;Node271</title>
<path fill="none" stroke="midnightblue" d="M309.241,-10C317.687,-10 326.328,-10 334.815,-10"/>
<polygon fill="midnightblue" stroke="midnightblue" points="309.059,-6.5001 299.059,-10 309.059,-13.5001 309.059,-6.5001"/>
</g>
<!-- Node272 -->
<g id="node4" class="node"><title>Node272</title>
<g id="a_node4"><a xlink:href="namespaceobe_1_1_modes.html#a6a8b08eee511d4895c4da96d4ba223a6" target="_top" xlink:title="obe::Modes::startDevMenu">
<polygon fill="none" stroke="black" points="519,-19.5 519,-38.5 652,-38.5 652,-19.5 519,-19.5"/>
<text text-anchor="middle" x="585.5" y="-26.5" font-family="Helvetica,sans-Serif" font-size="10.00">obe::Modes::startDevMenu</text>
</a>
</g>
</g>
<!-- Node271&#45;&gt;Node272 -->
<g id="edge3" class="edge"><title>Node271&#45;&gt;Node272</title>
<path fill="none" stroke="midnightblue" d="M493.303,-19.0703C501.909,-20.0072 510.565,-20.9498 518.937,-21.8614"/>
<polygon fill="midnightblue" stroke="midnightblue" points="493.565,-15.5782 483.245,-17.9751 492.808,-22.5371 493.565,-15.5782"/>
</g>
<!-- Node273 -->
<g id="node5" class="node"><title>Node273</title>
<g id="a_node5"><a xlink:href="_ob_engine_8cpp.html#a3c04138a5bfe5d72780bb7e82a18e627" target="_top" xlink:title="main">
<polygon fill="none" stroke="black" points="688,-0.5 688,-19.5 726,-19.5 726,-0.5 688,-0.5"/>
<text text-anchor="middle" x="707" y="-7.5" font-family="Helvetica,sans-Serif" font-size="10.00">main</text>
</a>
</g>
</g>
<!-- Node271&#45;&gt;Node273 -->
<g id="edge5" class="edge"><title>Node271&#45;&gt;Node273</title>
<path fill="none" stroke="midnightblue" d="M493.345,-10C560.628,-10 650.101,-10 687.912,-10"/>
<polygon fill="midnightblue" stroke="midnightblue" points="493.169,-6.5001 483.169,-10 493.169,-13.5001 493.169,-6.5001"/>
</g>
<!-- Node272&#45;&gt;Node273 -->
<g id="edge4" class="edge"><title>Node272&#45;&gt;Node273</title>
<path fill="none" stroke="midnightblue" d="M656.822,-17.8192C668.345,-15.9869 679.327,-14.2409 687.978,-12.8654"/>
<polygon fill="midnightblue" stroke="midnightblue" points="655.926,-14.4174 646.6,-19.4443 657.026,-21.3306 655.926,-14.4174"/>
</g>
</g>
</svg>
