<?xml version="1.0" encoding="UTF-8" standalone="no"?>
<!DOCTYPE svg PUBLIC "-//W3C//DTD SVG 1.1//EN"
 "http://www.w3.org/Graphics/SVG/1.1/DTD/svg11.dtd">
<!-- Generated by graphviz version 2.38.0 (20140413.2041)
 -->
<!-- Title: vili::NodeIterator::last Pages: 1 -->
<svg width="516pt" height="78pt"
 viewBox="0.00 0.00 516.00 77.50" xmlns="http://www.w3.org/2000/svg" xmlns:xlink="http://www.w3.org/1999/xlink">
<g id="graph0" class="graph" transform="scale(1 1) rotate(0) translate(4 73.5)">
<title>vili::NodeIterator::last</title>
<!-- Node75 -->
<g id="node1" class="node"><title>Node75</title>
<polygon fill="#bfbfbf" stroke="black" points="0,-22.5 0,-52.5 86,-52.5 86,-22.5 0,-22.5"/>
<text text-anchor="start" x="8" y="-40.5" font-family="Helvetica,sans-Serif" font-size="10.00">vili::NodeIterator</text>
<text text-anchor="middle" x="43" y="-29.5" font-family="Helvetica,sans-Serif" font-size="10.00">::last</text>
</g>
<!-- Node76 -->
<g id="node2" class="node"><title>Node76</title>
<g id="a_node2"><a xlink:href="classvili_1_1_complex_node.html#a2f5462c74969b0b8c73f26df867a8e45" target="_top" xlink:title="Walks through the tree using a NodeIterator. ">
<polygon fill="white" stroke="black" points="129,-50 129,-69 248,-69 248,-50 129,-50"/>
<text text-anchor="middle" x="188.5" y="-57" font-family="Helvetica,sans-Serif" font-size="10.00">vili::ComplexNode::walk</text>
</a>
</g>
</g>
<!-- Node75&#45;&gt;Node76 -->
<g id="edge1" class="edge"><title>Node75&#45;&gt;Node76</title>
<path fill="none" stroke="midnightblue" d="M96.2043,-45.5035C106.788,-47.126 117.986,-48.8428 128.777,-50.4972"/>
<polygon fill="midnightblue" stroke="midnightblue" points="96.6935,-42.0376 86.2786,-43.9817 95.6327,-48.9568 96.6935,-42.0376"/>
</g>
<!-- Node77 -->
<g id="node3" class="node"><title>Node77</title>
<g id="a_node3"><a xlink:href="namespaceobe_1_1_bindings_1_1_vili_bindings.html#a33437743e1c96c57875cc5ba90e09204" target="_top" xlink:title="obe::Bindings::ViliBindings\l::LoadViliNodeIterator">
<polygon fill="white" stroke="black" points="122,-0.5 122,-30.5 255,-30.5 255,-0.5 122,-0.5"/>
<text text-anchor="start" x="130" y="-18.5" font-family="Helvetica,sans-Serif" font-size="10.00">obe::Bindings::ViliBindings</text>
<text text-anchor="middle" x="188.5" y="-7.5" font-family="Helvetica,sans-Serif" font-size="10.00">::LoadViliNodeIterator</text>
</a>
</g>
</g>
<!-- Node75&#45;&gt;Node77 -->
<g id="edge2" class="edge"><title>Node75&#45;&gt;Node77</title>
<path fill="none" stroke="midnightblue" d="M96.2125,-29.4953C104.538,-28.2189 113.244,-26.8842 121.833,-25.5674"/>
<polygon fill="midnightblue" stroke="midnightblue" points="95.6327,-26.0432 86.2786,-31.0183 96.6935,-32.9624 95.6327,-26.0432"/>
</g>
<!-- Node78 -->
<g id="node4" class="node"><title>Node78</title>
<g id="a_node4"><a xlink:href="namespaceobe_1_1_bindings.html#a41d33207a0199f125c75a0f70a4a3ba8" target="_top" xlink:title="To call when the engine starts, indexes all Lua bindings. ">
<polygon fill="white" stroke="black" points="291,-6 291,-25 434,-25 434,-6 291,-6"/>
<text text-anchor="middle" x="362.5" y="-13" font-family="Helvetica,sans-Serif" font-size="10.00">obe::Bindings::IndexBindings</text>
</a>
</g>
</g>
<!-- Node77&#45;&gt;Node78 -->
<g id="edge3" class="edge"><title>Node77&#45;&gt;Node78</title>
<path fill="none" stroke="midnightblue" d="M265.254,-15.5C273.721,-15.5 282.321,-15.5 290.722,-15.5"/>
<polygon fill="midnightblue" stroke="midnightblue" points="265.017,-12.0001 255.016,-15.5 265.016,-19.0001 265.017,-12.0001"/>
</g>
<!-- Node79 -->
<g id="node5" class="node"><title>Node79</title>
<g id="a_node5"><a xlink:href="_ob_engine_8cpp.html#a3c04138a5bfe5d72780bb7e82a18e627" target="_top" xlink:title="main">
<polygon fill="white" stroke="black" points="470,-6 470,-25 508,-25 508,-6 470,-6"/>
<text text-anchor="middle" x="489" y="-13" font-family="Helvetica,sans-Serif" font-size="10.00">main</text>
</a>
</g>
</g>
<!-- Node78&#45;&gt;Node79 -->
<g id="edge4" class="edge"><title>Node78&#45;&gt;Node79</title>
<path fill="none" stroke="midnightblue" d="M444.161,-15.5C453.623,-15.5 462.462,-15.5 469.688,-15.5"/>
<polygon fill="midnightblue" stroke="midnightblue" points="444.117,-12.0001 434.117,-15.5 444.117,-19.0001 444.117,-12.0001"/>
</g>
</g>
</svg>
