<?xml version="1.0" encoding="UTF-8" standalone="no"?>
<!DOCTYPE svg PUBLIC "-//W3C//DTD SVG 1.1//EN"
 "http://www.w3.org/Graphics/SVG/1.1/DTD/svg11.dtd">
<!-- Generated by graphviz version 2.38.0 (20140413.2041)
 -->
<!-- Title: obe::World::World::getCollisionPointByPos Pages: 1 -->
<!--zoomable 163 -->
<svg id="main" version="1.1" xmlns="http://www.w3.org/2000/svg" xmlns:xlink="http://www.w3.org/1999/xlink" xml:space="preserve" onload="init(evt)">
<style type="text/css"><![CDATA[
.edge:hover path { stroke: red; }
.edge:hover polygon { stroke: red; fill: red; }
.edge path { stroke: white; }
.edge polygon { stroke: white; fill: white; }
]]></style>
<script type="text/javascript"><![CDATA[
var edges = document.getElementsByTagName('g');
if (edges && edges.length) {
  for (var i=0;i<edges.length;i++) {
    if (edges[i].id.substr(0,4)=='edge') {
      edges[i].setAttribute('class','edge');
    }
  }
}
]]></script>
        <defs>
                <circle id="rim" cx="0" cy="0" r="7"/>
                <circle id="rim2" cx="0" cy="0" r="3.5"/>
                <g id="zoomPlus">
                        <use xlink:href="#rim" fill="#404040">
                                <set attributeName="fill" to="#808080" begin="zoomplus.mouseover" end="zoomplus.mouseout"/>
                        </use>
                        <path d="M-4,0h8M0,-4v8" fill="none" stroke="white" stroke-width="1.5" pointer-events="none"/>
                </g>
                <g id="zoomMin">
                        <use xlink:href="#rim" fill="#404040">
                                <set attributeName="fill" to="#808080" begin="zoomminus.mouseover" end="zoomminus.mouseout"/>
                        </use>
                        <path d="M-4,0h8" fill="none" stroke="white" stroke-width="1.5" pointer-events="none"/>
                </g>
                <g id="dirArrow">
                        <path fill="none" stroke="white" stroke-width="1.5" d="M0,-3.0v7 M-2.5,-0.5L0,-3.0L2.5,-0.5"/>
                </g>
               <g id="resetDef">
                       <use xlink:href="#rim2" fill="#404040">
                               <set attributeName="fill" to="#808080" begin="reset.mouseover" end="reset.mouseout"/>
                       </use>
               </g>
        </defs>

<script type="text/javascript">
var viewWidth = 984;
var viewHeight = 163;
var sectionId = 'dynsection-33';
</script>
<script xlink:href="svgpan.js"/>
<svg id="graph" class="graph">
<g id="viewport">
<title>obe::World::World::getCollisionPointByPos</title>
<!-- Node928 -->
<g id="node1" class="node"><title>Node928</title>
<polygon fill="#bfbfbf" stroke="black" points="0,-110.5 0,-140.5 119,-140.5 119,-110.5 0,-110.5"/>
<text text-anchor="start" x="8" y="-128.5" font-family="Helvetica,sans-Serif" font-size="10.00">obe::World::World::</text>
<text text-anchor="middle" x="59.5" y="-117.5" font-family="Helvetica,sans-Serif" font-size="10.00">getCollisionPointByPos</text>
</g>
<!-- Node929 -->
<g id="node2" class="node"><title>Node929</title>
<g id="a_node2"><a xlink:href="namespaceobe_1_1_editor.html#a508e767d732debdb65e63c7bffa50623" target="_top" xlink:title="obe::Editor::editMap">
<polygon fill="none" stroke="black" points="629,-116 629,-135 733,-135 733,-116 629,-116"/>
<text text-anchor="middle" x="681" y="-123" font-family="Helvetica,sans-Serif" font-size="10.00">obe::Editor::editMap</text>
</a>
</g>
</g>
<!-- Node928&#45;&gt;Node929 -->
<g id="edge1" class="edge"><title>Node928&#45;&gt;Node929</title>
<path fill="none" stroke="midnightblue" d="M129.325,-126.892C230.806,-128.718 426.555,-131.369 593,-128.5 604.635,-128.299 617.142,-127.948 628.944,-127.555"/>
<polygon fill="midnightblue" stroke="midnightblue" points="129.271,-123.391 119.208,-126.708 129.143,-130.39 129.271,-123.391"/>
</g>
<!-- Node932 -->
<g id="node5" class="node"><title>Node932</title>
<g id="a_node5"><a xlink:href="namespaceobe_1_1_world.html#af739dc1887d2fa99eeded5b208cf66f5" target="_top" xlink:title="obe::World::loadWorldLib">
<polygon fill="none" stroke="black" points="155,-94 155,-113 281,-113 281,-94 155,-94"/>
<text text-anchor="middle" x="218" y="-101" font-family="Helvetica,sans-Serif" font-size="10.00">obe::World::loadWorldLib</text>
</a>
</g>
</g>
<!-- Node928&#45;&gt;Node932 -->
<g id="edge5" class="edge"><title>Node928&#45;&gt;Node932</title>
<path fill="none" stroke="midnightblue" d="M129.147,-115.85C137.685,-114.65 146.379,-113.428 154.812,-112.242"/>
<polygon fill="midnightblue" stroke="midnightblue" points="128.635,-112.387 119.22,-117.245 129.61,-119.319 128.635,-112.387"/>
</g>
<!-- Node930 -->
<g id="node3" class="node"><title>Node930</title>
<g id="a_node3"><a xlink:href="namespaceobe_1_1_modes.html#a6a8b08eee511d4895c4da96d4ba223a6" target="_top" xlink:title="obe::Modes::startDevMenu">
<polygon fill="none" stroke="black" points="769,-135 769,-154 902,-154 902,-135 769,-135"/>
<text text-anchor="middle" x="835.5" y="-142" font-family="Helvetica,sans-Serif" font-size="10.00">obe::Modes::startDevMenu</text>
</a>
</g>
</g>
<!-- Node929&#45;&gt;Node930 -->
<g id="edge2" class="edge"><title>Node929&#45;&gt;Node930</title>
<path fill="none" stroke="midnightblue" d="M743.292,-133.136C751.688,-134.182 760.336,-135.26 768.806,-136.315"/>
<polygon fill="midnightblue" stroke="midnightblue" points="743.561,-129.643 733.205,-131.88 742.695,-136.589 743.561,-129.643"/>
</g>
<!-- Node931 -->
<g id="node4" class="node"><title>Node931</title>
<g id="a_node4"><a xlink:href="_ob_engine_8cpp.html#a3c04138a5bfe5d72780bb7e82a18e627" target="_top" xlink:title="main">
<polygon fill="none" stroke="black" points="938,-116 938,-135 976,-135 976,-116 938,-116"/>
<text text-anchor="middle" x="957" y="-123" font-family="Helvetica,sans-Serif" font-size="10.00">main</text>
</a>
</g>
</g>
<!-- Node929&#45;&gt;Node931 -->
<g id="edge4" class="edge"><title>Node929&#45;&gt;Node931</title>
<path fill="none" stroke="midnightblue" d="M743.356,-125.5C805.863,-125.5 898.971,-125.5 937.885,-125.5"/>
<polygon fill="midnightblue" stroke="midnightblue" points="743.216,-122 733.216,-125.5 743.216,-129 743.216,-122"/>
</g>
<!-- Node930&#45;&gt;Node931 -->
<g id="edge3" class="edge"><title>Node930&#45;&gt;Node931</title>
<path fill="none" stroke="midnightblue" d="M906.822,-133.319C918.345,-131.487 929.327,-129.741 937.978,-128.365"/>
<polygon fill="midnightblue" stroke="midnightblue" points="905.926,-129.917 896.6,-134.944 907.026,-136.831 905.926,-129.917"/>
</g>
<!-- Node933 -->
<g id="node6" class="node"><title>Node933</title>
<g id="a_node6"><a xlink:href="classobe_1_1_world_1_1_world.html#a4985b41c5ed027948d823d7155abf779" target="_top" xlink:title="obe::World::World::\lcreateGameObject">
<polygon fill="none" stroke="black" points="336,-88.5 336,-118.5 437,-118.5 437,-88.5 336,-88.5"/>
<text text-anchor="start" x="344" y="-106.5" font-family="Helvetica,sans-Serif" font-size="10.00">obe::World::World::</text>
<text text-anchor="middle" x="386.5" y="-95.5" font-family="Helvetica,sans-Serif" font-size="10.00">createGameObject</text>
</a>
</g>
</g>
<!-- Node932&#45;&gt;Node933 -->
<g id="edge6" class="edge"><title>Node932&#45;&gt;Node933</title>
<path fill="none" stroke="midnightblue" d="M291.715,-96.7983C306.652,-96.6607 322.049,-96.8171 335.94,-97.2674"/>
<polygon fill="midnightblue" stroke="midnightblue" points="291.423,-93.3019 281.472,-96.9404 291.52,-100.301 291.423,-93.3019"/>
</g>
<!-- Node935 -->
<g id="node8" class="node"><title>Node935</title>
<g id="a_node8"><a xlink:href="namespaceobe_1_1_world.html#afc958184e59524fdf9dc6ba98a1e9a37" target="_top" xlink:title="obe::World::loadWorldScript\lEngineBaseLib">
<polygon fill="none" stroke="black" points="317,-0.5 317,-30.5 456,-30.5 456,-0.5 317,-0.5"/>
<text text-anchor="start" x="325" y="-18.5" font-family="Helvetica,sans-Serif" font-size="10.00">obe::World::loadWorldScript</text>
<text text-anchor="middle" x="386.5" y="-7.5" font-family="Helvetica,sans-Serif" font-size="10.00">EngineBaseLib</text>
</a>
</g>
</g>
<!-- Node932&#45;&gt;Node935 -->
<g id="edge11" class="edge"><title>Node932&#45;&gt;Node935</title>
<path fill="none" stroke="midnightblue" d="M242.514,-88.4869C262.087,-76.2585 290.875,-58.8889 317,-45.5 327.167,-40.2892 338.439,-35.1159 348.854,-30.5701"/>
<polygon fill="midnightblue" stroke="midnightblue" points="240.554,-85.5848 233.955,-93.8736 244.283,-91.5091 240.554,-85.5848"/>
</g>
<!-- Node933&#45;&gt;Node932 -->
<g id="edge10" class="edge"><title>Node933&#45;&gt;Node932</title>
<path fill="none" stroke="midnightblue" d="M325.689,-110.006C311.327,-110.312 295.951,-110.33 281.472,-110.06"/>
<polygon fill="midnightblue" stroke="midnightblue" points="326.037,-113.498 335.94,-109.733 325.85,-106.501 326.037,-113.498"/>
</g>
<!-- Node934 -->
<g id="node7" class="node"><title>Node934</title>
<g id="a_node7"><a xlink:href="classobe_1_1_world_1_1_world.html#afb1d1ba4e0ae0ab5f741f413b793ba7e" target="_top" xlink:title="obe::World::World::\lloadFromFile">
<polygon fill="none" stroke="black" points="492,-88.5 492,-118.5 593,-118.5 593,-88.5 492,-88.5"/>
<text text-anchor="start" x="500" y="-106.5" font-family="Helvetica,sans-Serif" font-size="10.00">obe::World::World::</text>
<text text-anchor="middle" x="542.5" y="-95.5" font-family="Helvetica,sans-Serif" font-size="10.00">loadFromFile</text>
</a>
</g>
</g>
<!-- Node933&#45;&gt;Node934 -->
<g id="edge7" class="edge"><title>Node933&#45;&gt;Node934</title>
<path fill="none" stroke="midnightblue" d="M447.117,-103.5C461.873,-103.5 477.526,-103.5 491.755,-103.5"/>
<polygon fill="midnightblue" stroke="midnightblue" points="447.074,-100 437.074,-103.5 447.074,-107 447.074,-100"/>
</g>
<!-- Node934&#45;&gt;Node929 -->
<g id="edge8" class="edge"><title>Node934&#45;&gt;Node929</title>
<path fill="none" stroke="midnightblue" d="M603.093,-113.105C611.649,-114.484 620.39,-115.893 628.766,-117.242"/>
<polygon fill="midnightblue" stroke="midnightblue" points="603.595,-109.641 593.166,-111.505 602.481,-116.551 603.595,-109.641"/>
</g>
<!-- Node934&#45;&gt;Node932 -->
<g id="edge9" class="edge"><title>Node934&#45;&gt;Node932</title>
<path fill="none" stroke="midnightblue" d="M489.204,-85.6664C478.352,-82.6876 466.901,-80.061 456,-78.5 394.846,-69.7427 378.297,-70.8048 317,-78.5 293.654,-81.4308 267.898,-88.1431 248.651,-93.8751"/>
<polygon fill="midnightblue" stroke="midnightblue" points="488.391,-89.0744 498.969,-88.4805 490.329,-82.3481 488.391,-89.0744"/>
</g>
<!-- Node936 -->
<g id="node9" class="node"><title>Node936</title>
<g id="a_node9"><a xlink:href="classobe_1_1_world_1_1_world.html#a5bd621e3fd9293d949ad0c669cee6838" target="_top" xlink:title="obe::World::World::\lWorld">
<polygon fill="none" stroke="black" points="492,-0.5 492,-30.5 593,-30.5 593,-0.5 492,-0.5"/>
<text text-anchor="start" x="500" y="-18.5" font-family="Helvetica,sans-Serif" font-size="10.00">obe::World::World::</text>
<text text-anchor="middle" x="542.5" y="-7.5" font-family="Helvetica,sans-Serif" font-size="10.00">World</text>
</a>
</g>
</g>
<!-- Node935&#45;&gt;Node936 -->
<g id="edge12" class="edge"><title>Node935&#45;&gt;Node936</title>
<path fill="none" stroke="midnightblue" d="M466.429,-15.5C474.988,-15.5 483.515,-15.5 491.587,-15.5"/>
<polygon fill="midnightblue" stroke="midnightblue" points="466.392,-12.0001 456.392,-15.5 466.392,-19.0001 466.392,-12.0001"/>
</g>
</g>
</svg>
        <g id="navigator" transform="translate(0 0)" fill="#404254">
                <rect fill="#f2f5e9" fill-opacity="0.5" stroke="#606060" stroke-width=".5" x="0" y="0" width="60" height="60"/>
                <use id="zoomplus" xlink:href="#zoomPlus" x="17" y="9" onmousedown="handleZoom(evt,'in')"/>
                <use id="zoomminus" xlink:href="#zoomMin" x="42" y="9" onmousedown="handleZoom(evt,'out')"/>
                <use id="reset" xlink:href="#resetDef" x="30" y="36" onmousedown="handleReset()"/>
                <g id="arrowUp" xlink:href="#dirArrow" transform="translate(30 24)" onmousedown="handlePan(0,-1)">
                  <use xlink:href="#rim" fill="#404040">
                        <set attributeName="fill" to="#808080" begin="arrowUp.mouseover" end="arrowUp.mouseout"/>
                  </use>
                  <path fill="none" stroke="white" stroke-width="1.5" d="M0,-3.0v7 M-2.5,-0.5L0,-3.0L2.5,-0.5"/>
                </g>
                <g id="arrowRight" xlink:href="#dirArrow" transform="rotate(90) translate(36 -43)" onmousedown="handlePan(1,0)">
                  <use xlink:href="#rim" fill="#404040">
                        <set attributeName="fill" to="#808080" begin="arrowRight.mouseover" end="arrowRight.mouseout"/>
                  </use>
                  <path fill="none" stroke="white" stroke-width="1.5" d="M0,-3.0v7 M-2.5,-0.5L0,-3.0L2.5,-0.5"/>
                </g>
                <g id="arrowDown" xlink:href="#dirArrow" transform="rotate(180) translate(-30 -48)" onmousedown="handlePan(0,1)">
                  <use xlink:href="#rim" fill="#404040">
                        <set attributeName="fill" to="#808080" begin="arrowDown.mouseover" end="arrowDown.mouseout"/>
                  </use>
                  <path fill="none" stroke="white" stroke-width="1.5" d="M0,-3.0v7 M-2.5,-0.5L0,-3.0L2.5,-0.5"/>
                </g>
                <g id="arrowLeft" xlink:href="#dirArrow" transform="rotate(270) translate(-36 17)" onmousedown="handlePan(-1,0)">
                  <use xlink:href="#rim" fill="#404040">
                        <set attributeName="fill" to="#808080" begin="arrowLeft.mouseover" end="arrowLeft.mouseout"/>
                  </use>
                  <path fill="none" stroke="white" stroke-width="1.5" d="M0,-3.0v7 M-2.5,-0.5L0,-3.0L2.5,-0.5"/>
                </g>
        </g>
        <svg viewBox="0 0 15 15" width="100%" height="30px" preserveAspectRatio="xMaxYMin meet">
         <g id="arrow_out" transform="scale(0.3 0.3)">
          <a xlink:href="classobe_1_1_world_1_1_world_aa1240b18bed46ec9309d98883678a771_icgraph_org.svg" target="_base">
           <rect id="button" ry="5" rx="5" y="6" x="6" height="38" width="38"
                fill="#f2f5e9" fill-opacity="0.5" stroke="#606060" stroke-width="1.0"/>
           <path id="arrow"
             d="M 11.500037,31.436501 C 11.940474,20.09759 22.043105,11.32322 32.158766,21.979434 L 37.068811,17.246167 C 37.068811,17.246167 37.088388,32 37.088388,32 L 22.160133,31.978069 C 22.160133,31.978069 26.997745,27.140456 26.997745,27.140456 C 18.528582,18.264221 13.291696,25.230495 11.500037,31.436501 z"
             style="fill:#404040;"/>
          </a>
         </g>
        </svg>
</svg>
