<?xml version="1.0" encoding="UTF-8" standalone="no"?>
<!DOCTYPE svg PUBLIC "-//W3C//DTD SVG 1.1//EN"
 "http://www.w3.org/Graphics/SVG/1.1/DTD/svg11.dtd">
<!-- Generated by graphviz version 2.38.0 (20140413.2041)
 -->
<!-- Title: obe::World::World::display Pages: 1 -->
<svg width="586pt" height="323pt"
 viewBox="0.00 0.00 586.00 323.00" xmlns="http://www.w3.org/2000/svg" xmlns:xlink="http://www.w3.org/1999/xlink">
<g id="graph0" class="graph" transform="scale(1 1) rotate(0) translate(4 319)">
<title>obe::World::World::display</title>
<!-- Node802 -->
<g id="node1" class="node"><title>Node802</title>
<polygon fill="#bfbfbf" stroke="black" points="0,-240.5 0,-270.5 101,-270.5 101,-240.5 0,-240.5"/>
<text text-anchor="start" x="8" y="-258.5" font-family="Helvetica,sans-Serif" font-size="10.00">obe::World::World::</text>
<text text-anchor="middle" x="50.5" y="-247.5" font-family="Helvetica,sans-Serif" font-size="10.00">display</text>
</g>
<!-- Node803 -->
<g id="node2" class="node"><title>Node803</title>
<g id="a_node2"><a xlink:href="classobe_1_1_world_1_1_world.html#a3af1510498970793db80def9e435e07c" target="_top" xlink:title="obe::World::World::\ldisplaySprites">
<polygon fill="none" stroke="black" points="137,-171.5 137,-201.5 238,-201.5 238,-171.5 137,-171.5"/>
<text text-anchor="start" x="145" y="-189.5" font-family="Helvetica,sans-Serif" font-size="10.00">obe::World::World::</text>
<text text-anchor="middle" x="187.5" y="-178.5" font-family="Helvetica,sans-Serif" font-size="10.00">displaySprites</text>
</a>
</g>
</g>
<!-- Node802&#45;&gt;Node803 -->
<g id="edge1" class="edge"><title>Node802&#45;&gt;Node803</title>
<path fill="none" stroke="midnightblue" d="M81.1263,-240.358C100.733,-230.336 126.644,-217.093 147.865,-206.247"/>
<polygon fill="midnightblue" stroke="midnightblue" points="149.631,-209.275 156.943,-201.607 146.446,-203.042 149.631,-209.275"/>
</g>
<!-- Node804 -->
<g id="node3" class="node"><title>Node804</title>
<g id="a_node3"><a xlink:href="classobe_1_1_world_1_1_camera.html#ac6aeaacfd052c856ae2710c63190f2ef" target="_top" xlink:title="obe::World::Camera\l::getPosition">
<polygon fill="none" stroke="black" points="289,-284.5 289,-314.5 393,-314.5 393,-284.5 289,-284.5"/>
<text text-anchor="start" x="297" y="-302.5" font-family="Helvetica,sans-Serif" font-size="10.00">obe::World::Camera</text>
<text text-anchor="middle" x="341" y="-291.5" font-family="Helvetica,sans-Serif" font-size="10.00">::getPosition</text>
</a>
</g>
</g>
<!-- Node802&#45;&gt;Node804 -->
<g id="edge10" class="edge"><title>Node802&#45;&gt;Node804</title>
<path fill="none" stroke="midnightblue" d="M101.211,-263.774C112.942,-265.689 125.407,-267.694 137,-269.5 184.541,-276.905 238.419,-284.846 278.717,-290.697"/>
<polygon fill="midnightblue" stroke="midnightblue" points="278.258,-294.167 288.657,-292.138 279.262,-287.24 278.258,-294.167"/>
</g>
<!-- Node805 -->
<g id="node4" class="node"><title>Node805</title>
<g id="a_node4"><a xlink:href="classobe_1_1_coord_1_1_unit_vector.html#ade7438051851d9ceda0b495fd4a620be" target="_top" xlink:title="Return an UnitVector with the converted values (x, y) to the Unit you want. ">
<polygon fill="none" stroke="black" points="276,-246 276,-265 406,-265 406,-246 276,-246"/>
<text text-anchor="middle" x="341" y="-253" font-family="Helvetica,sans-Serif" font-size="10.00">obe::Coord::UnitVector::to</text>
</a>
</g>
</g>
<!-- Node802&#45;&gt;Node805 -->
<g id="edge11" class="edge"><title>Node802&#45;&gt;Node805</title>
<path fill="none" stroke="midnightblue" d="M101.095,-255.5C146.406,-255.5 214.026,-255.5 265.773,-255.5"/>
<polygon fill="midnightblue" stroke="midnightblue" points="265.9,-259 275.9,-255.5 265.9,-252 265.9,-259"/>
</g>
<!-- Node803&#45;&gt;Node804 -->
<g id="edge2" class="edge"><title>Node803&#45;&gt;Node804</title>
<path fill="none" stroke="midnightblue" d="M199.66,-201.541C214.652,-220.815 243.016,-254.159 274,-274.5 276.958,-276.442 280.088,-278.263 283.314,-279.968"/>
<polygon fill="midnightblue" stroke="midnightblue" points="282.07,-283.254 292.596,-284.461 285.12,-276.953 282.07,-283.254"/>
</g>
<!-- Node803&#45;&gt;Node805 -->
<g id="edge3" class="edge"><title>Node803&#45;&gt;Node805</title>
<path fill="none" stroke="midnightblue" d="M210.912,-201.695C227.703,-212.553 251.555,-226.885 274,-236.5 279.407,-238.816 285.18,-240.945 290.978,-242.873"/>
<polygon fill="midnightblue" stroke="midnightblue" points="290.11,-246.269 300.699,-245.925 292.207,-239.59 290.11,-246.269"/>
</g>
<!-- Node806 -->
<g id="node5" class="node"><title>Node806</title>
<g id="a_node5"><a xlink:href="namespaceobe_1_1_functions_1_1_vector.html#a8adc81831e6ac5c91887cf1c1089561a" target="_top" xlink:title="obe::Functions::Vector\l::isInList">
<polygon fill="none" stroke="black" points="283,-147.5 283,-177.5 399,-177.5 399,-147.5 283,-147.5"/>
<text text-anchor="start" x="291" y="-165.5" font-family="Helvetica,sans-Serif" font-size="10.00">obe::Functions::Vector</text>
<text text-anchor="middle" x="341" y="-154.5" font-family="Helvetica,sans-Serif" font-size="10.00">::isInList</text>
</a>
</g>
</g>
<!-- Node803&#45;&gt;Node806 -->
<g id="edge4" class="edge"><title>Node803&#45;&gt;Node806</title>
<path fill="none" stroke="midnightblue" d="M238.107,-178.642C249.186,-176.886 261.117,-174.996 272.774,-173.15"/>
<polygon fill="midnightblue" stroke="midnightblue" points="273.591,-176.564 282.92,-171.542 272.496,-169.65 273.591,-176.564"/>
</g>
<!-- Node807 -->
<g id="node6" class="node"><title>Node807</title>
<g id="a_node6"><a xlink:href="classobe_1_1_light_1_1_point_light.html#a3950f14e83735eb132e12aa4e945215b" target="_top" xlink:title="obe::Light::PointLight\l::setPosition">
<polygon fill="none" stroke="black" points="286.5,-98.5 286.5,-128.5 395.5,-128.5 395.5,-98.5 286.5,-98.5"/>
<text text-anchor="start" x="294.5" y="-116.5" font-family="Helvetica,sans-Serif" font-size="10.00">obe::Light::PointLight</text>
<text text-anchor="middle" x="341" y="-105.5" font-family="Helvetica,sans-Serif" font-size="10.00">::setPosition</text>
</a>
</g>
</g>
<!-- Node803&#45;&gt;Node807 -->
<g id="edge5" class="edge"><title>Node803&#45;&gt;Node807</title>
<path fill="none" stroke="midnightblue" d="M213.05,-171.423C229.868,-161.42 252.868,-148.366 274,-138.5 278.417,-136.438 283.054,-134.413 287.738,-132.463"/>
<polygon fill="midnightblue" stroke="midnightblue" points="289.396,-135.568 297.359,-128.58 286.776,-129.077 289.396,-135.568"/>
</g>
<!-- Node808 -->
<g id="node7" class="node"><title>Node808</title>
<g id="a_node7"><a xlink:href="classsfe_1_1_complex_transformable.html#a40b68d7103eccdb9db72d5145c62a855" target="_top" xlink:title="sfe::ComplexTransformable\l::setPosition">
<polygon fill="none" stroke="black" points="274,-49.5 274,-79.5 408,-79.5 408,-49.5 274,-49.5"/>
<text text-anchor="start" x="282" y="-67.5" font-family="Helvetica,sans-Serif" font-size="10.00">sfe::ComplexTransformable</text>
<text text-anchor="middle" x="341" y="-56.5" font-family="Helvetica,sans-Serif" font-size="10.00">::setPosition</text>
</a>
</g>
</g>
<!-- Node803&#45;&gt;Node808 -->
<g id="edge6" class="edge"><title>Node803&#45;&gt;Node808</title>
<path fill="none" stroke="midnightblue" d="M198.006,-171.439C212.147,-150.163 240.668,-111.357 274,-88.5 276.156,-87.0218 278.413,-85.6229 280.74,-84.3003"/>
<polygon fill="midnightblue" stroke="midnightblue" points="282.681,-87.239 289.993,-79.5715 279.495,-81.0059 282.681,-87.239"/>
</g>
<!-- Node809 -->
<g id="node8" class="node"><title>Node809</title>
<g id="a_node8"><a xlink:href="classsfe_1_1_complex_transformable.html#a3d258b8e4acf6b2ddc06bc24e363186d" target="_top" xlink:title="sfe::ComplexTransformable\l::scale">
<polygon fill="none" stroke="black" points="274,-0.5 274,-30.5 408,-30.5 408,-0.5 274,-0.5"/>
<text text-anchor="start" x="282" y="-18.5" font-family="Helvetica,sans-Serif" font-size="10.00">sfe::ComplexTransformable</text>
<text text-anchor="middle" x="341" y="-7.5" font-family="Helvetica,sans-Serif" font-size="10.00">::scale</text>
</a>
</g>
</g>
<!-- Node803&#45;&gt;Node809 -->
<g id="edge7" class="edge"><title>Node803&#45;&gt;Node809</title>
<path fill="none" stroke="midnightblue" d="M193.384,-171.274C203.615,-141.715 230.06,-76.2395 274,-39.5 275.543,-38.2096 277.162,-36.9858 278.84,-35.8254"/>
<polygon fill="midnightblue" stroke="midnightblue" points="280.875,-38.6858 287.646,-30.5371 277.271,-32.6847 280.875,-38.6858"/>
</g>
<!-- Node811 -->
<g id="node10" class="node"><title>Node811</title>
<g id="a_node10"><a xlink:href="classobe_1_1_world_1_1_camera.html#a0ddb719b521d16accf713cf8640f7b6e" target="_top" xlink:title="obe::World::Camera\l::getHeight">
<polygon fill="none" stroke="black" points="289,-196.5 289,-226.5 393,-226.5 393,-196.5 289,-196.5"/>
<text text-anchor="start" x="297" y="-214.5" font-family="Helvetica,sans-Serif" font-size="10.00">obe::World::Camera</text>
<text text-anchor="middle" x="341" y="-203.5" font-family="Helvetica,sans-Serif" font-size="10.00">::getHeight</text>
</a>
</g>
</g>
<!-- Node803&#45;&gt;Node811 -->
<g id="edge9" class="edge"><title>Node803&#45;&gt;Node811</title>
<path fill="none" stroke="midnightblue" d="M238.107,-194.686C251.104,-196.831 265.271,-199.169 278.796,-201.4"/>
<polygon fill="midnightblue" stroke="midnightblue" points="278.546,-204.906 288.983,-203.081 279.686,-198 278.546,-204.906"/>
</g>
<!-- Node810 -->
<g id="node9" class="node"><title>Node810</title>
<g id="a_node9"><a xlink:href="classsfe_1_1_complex_transformable.html#a21f61e1055bb10404eb58b7ed2ec0a04" target="_top" xlink:title="sfe::ComplexTransformable\l::setScale">
<polygon fill="none" stroke="black" points="444,-0.5 444,-30.5 578,-30.5 578,-0.5 444,-0.5"/>
<text text-anchor="start" x="452" y="-18.5" font-family="Helvetica,sans-Serif" font-size="10.00">sfe::ComplexTransformable</text>
<text text-anchor="middle" x="511" y="-7.5" font-family="Helvetica,sans-Serif" font-size="10.00">::setScale</text>
</a>
</g>
</g>
<!-- Node809&#45;&gt;Node810 -->
<g id="edge8" class="edge"><title>Node809&#45;&gt;Node810</title>
<path fill="none" stroke="midnightblue" d="M408.398,-15.5C416.679,-15.5 425.199,-15.5 433.616,-15.5"/>
<polygon fill="midnightblue" stroke="midnightblue" points="433.809,-19.0001 443.809,-15.5 433.809,-12.0001 433.809,-19.0001"/>
</g>
</g>
</svg>
