<?xml version="1.0" encoding="UTF-8" standalone="no"?>
<!DOCTYPE svg PUBLIC "-//W3C//DTD SVG 1.1//EN"
 "http://www.w3.org/Graphics/SVG/1.1/DTD/svg11.dtd">
<!-- Generated by graphviz version 2.38.0 (20140413.2041)
 -->
<!-- Title: obe::Animation::AnimationGroup::removeTextureByIndex Pages: 1 -->
<!--zoomable 197 -->
<svg id="main" version="1.1" xmlns="http://www.w3.org/2000/svg" xmlns:xlink="http://www.w3.org/1999/xlink" xml:space="preserve" onload="init(evt)">
<style type="text/css"><![CDATA[
.edge:hover path { stroke: red; }
.edge:hover polygon { stroke: red; fill: red; }
.edge path { stroke: white; }
.edge polygon { stroke: white; fill: white; }
]]></style>
<script type="text/javascript"><![CDATA[
var edges = document.getElementsByTagName('g');
if (edges && edges.length) {
  for (var i=0;i<edges.length;i++) {
    if (edges[i].id.substr(0,4)=='edge') {
      edges[i].setAttribute('class','edge');
    }
  }
}
]]></script>
        <defs>
                <circle id="rim" cx="0" cy="0" r="7"/>
                <circle id="rim2" cx="0" cy="0" r="3.5"/>
                <g id="zoomPlus">
                        <use xlink:href="#rim" fill="#404040">
                                <set attributeName="fill" to="#808080" begin="zoomplus.mouseover" end="zoomplus.mouseout"/>
                        </use>
                        <path d="M-4,0h8M0,-4v8" fill="none" stroke="white" stroke-width="1.5" pointer-events="none"/>
                </g>
                <g id="zoomMin">
                        <use xlink:href="#rim" fill="#404040">
                                <set attributeName="fill" to="#808080" begin="zoomminus.mouseover" end="zoomminus.mouseout"/>
                        </use>
                        <path d="M-4,0h8" fill="none" stroke="white" stroke-width="1.5" pointer-events="none"/>
                </g>
                <g id="dirArrow">
                        <path fill="none" stroke="white" stroke-width="1.5" d="M0,-3.0v7 M-2.5,-0.5L0,-3.0L2.5,-0.5"/>
                </g>
               <g id="resetDef">
                       <use xlink:href="#rim2" fill="#404040">
                               <set attributeName="fill" to="#808080" begin="reset.mouseover" end="reset.mouseout"/>
                       </use>
               </g>
        </defs>

<script type="text/javascript">
var viewWidth = 1188;
var viewHeight = 197;
var sectionId = 'dynsection-11';
</script>
<script xlink:href="svgpan.js"/>
<svg id="graph" class="graph">
<g id="viewport">
<title>obe::Animation::AnimationGroup::removeTextureByIndex</title>
<!-- Node139 -->
<g id="node1" class="node"><title>Node139</title>
<polygon fill="#bfbfbf" stroke="black" points="0,-82.5 0,-112.5 147,-112.5 147,-82.5 0,-82.5"/>
<text text-anchor="start" x="8" y="-100.5" font-family="Helvetica,sans-Serif" font-size="10.00">obe::Animation::Animation</text>
<text text-anchor="middle" x="73.5" y="-89.5" font-family="Helvetica,sans-Serif" font-size="10.00">Group::removeTextureByIndex</text>
</g>
<!-- Node140 -->
<g id="node2" class="node"><title>Node140</title>
<g id="a_node2"><a xlink:href="namespaceobe_1_1_script_1_1_core_lib.html#ad3e8d674e535b8a534a3bed6f311d701" target="_top" xlink:title="obe::Script::CoreLib\l::loadAnimation">
<polygon fill="none" stroke="black" points="183,-82.5 183,-112.5 286,-112.5 286,-82.5 183,-82.5"/>
<text text-anchor="start" x="191" y="-100.5" font-family="Helvetica,sans-Serif" font-size="10.00">obe::Script::CoreLib</text>
<text text-anchor="middle" x="234.5" y="-89.5" font-family="Helvetica,sans-Serif" font-size="10.00">::loadAnimation</text>
</a>
</g>
</g>
<!-- Node139&#45;&gt;Node140 -->
<g id="edge1" class="edge"><title>Node139&#45;&gt;Node140</title>
<path fill="none" stroke="midnightblue" d="M157.275,-97.5C166.011,-97.5 174.694,-97.5 182.901,-97.5"/>
<polygon fill="midnightblue" stroke="midnightblue" points="157.021,-94.0001 147.021,-97.5 157.021,-101 157.021,-94.0001"/>
</g>
<!-- Node141 -->
<g id="node3" class="node"><title>Node141</title>
<g id="a_node3"><a xlink:href="namespaceobe_1_1_script.html#a633c629c5a54da2b5d4930730983121c" target="_top" xlink:title="obe::Script::loadCoreLib">
<polygon fill="none" stroke="black" points="322,-88 322,-107 443,-107 443,-88 322,-88"/>
<text text-anchor="middle" x="382.5" y="-95" font-family="Helvetica,sans-Serif" font-size="10.00">obe::Script::loadCoreLib</text>
</a>
</g>
</g>
<!-- Node140&#45;&gt;Node141 -->
<g id="edge2" class="edge"><title>Node140&#45;&gt;Node141</title>
<path fill="none" stroke="midnightblue" d="M296.328,-97.5C304.785,-97.5 313.467,-97.5 321.902,-97.5"/>
<polygon fill="midnightblue" stroke="midnightblue" points="296.154,-94.0001 286.154,-97.5 296.154,-101 296.154,-94.0001"/>
</g>
<!-- Node142 -->
<g id="node4" class="node"><title>Node142</title>
<g id="a_node4"><a xlink:href="namespaceobe_1_1_script.html#a4e6ee77032cf7f66544f9b08464a60b7" target="_top" xlink:title="obe::Script::loadLib">
<polygon fill="none" stroke="black" points="479,-88 479,-107 580,-107 580,-88 479,-88"/>
<text text-anchor="middle" x="529.5" y="-95" font-family="Helvetica,sans-Serif" font-size="10.00">obe::Script::loadLib</text>
</a>
</g>
</g>
<!-- Node141&#45;&gt;Node142 -->
<g id="edge3" class="edge"><title>Node141&#45;&gt;Node142</title>
<path fill="none" stroke="midnightblue" d="M453.401,-97.5C462.037,-97.5 470.723,-97.5 478.967,-97.5"/>
<polygon fill="midnightblue" stroke="midnightblue" points="453.314,-94.0001 443.314,-97.5 453.314,-101 453.314,-94.0001"/>
</g>
<!-- Node143 -->
<g id="node5" class="node"><title>Node143</title>
<g id="a_node5"><a xlink:href="namespaceobe_1_1_script.html#a5e992c0efb0543e7c934bc1065f08b01" target="_top" xlink:title="obe::Script::loadLibBridge">
<polygon fill="none" stroke="black" points="621.5,-164 621.5,-183 749.5,-183 749.5,-164 621.5,-164"/>
<text text-anchor="middle" x="685.5" y="-171" font-family="Helvetica,sans-Serif" font-size="10.00">obe::Script::loadLibBridge</text>
</a>
</g>
</g>
<!-- Node142&#45;&gt;Node143 -->
<g id="edge4" class="edge"><title>Node142&#45;&gt;Node143</title>
<path fill="none" stroke="midnightblue" d="M550.149,-113.245C566.824,-125.936 591.827,-143.434 616,-154.5 624.08,-158.198 633.033,-161.319 641.729,-163.895"/>
<polygon fill="midnightblue" stroke="midnightblue" points="552.283,-110.471 542.237,-107.105 547.992,-116.001 552.283,-110.471"/>
</g>
<!-- Node146 -->
<g id="node8" class="node"><title>Node146</title>
<g id="a_node8"><a xlink:href="namespaceobe_1_1_script.html#aad6ef67388e6d16eb01853f208da410f" target="_top" xlink:title="obe::Script::loadBaseLib">
<polygon fill="none" stroke="black" points="624,-126 624,-145 747,-145 747,-126 624,-126"/>
<text text-anchor="middle" x="685.5" y="-133" font-family="Helvetica,sans-Serif" font-size="10.00">obe::Script::loadBaseLib</text>
</a>
</g>
</g>
<!-- Node142&#45;&gt;Node146 -->
<g id="edge7" class="edge"><title>Node142&#45;&gt;Node146</title>
<path fill="none" stroke="midnightblue" d="M579.294,-109.54C600.808,-114.849 625.732,-120.999 645.919,-125.98"/>
<polygon fill="midnightblue" stroke="midnightblue" points="579.908,-106.087 569.361,-107.089 578.231,-112.883 579.908,-106.087"/>
</g>
<!-- Node147 -->
<g id="node9" class="node"><title>Node147</title>
<g id="a_node9"><a xlink:href="namespaceobe_1_1_modes.html#a1e38c0d9a2ca0230f0de79c298f53ab9" target="_top" xlink:title="A mode that will start the Toolkit. ">
<polygon fill="none" stroke="black" points="791,-96 791,-115 937,-115 937,-96 791,-96"/>
<text text-anchor="middle" x="864" y="-103" font-family="Helvetica,sans-Serif" font-size="10.00">obe::Modes::startToolkitMode</text>
</a>
</g>
</g>
<!-- Node142&#45;&gt;Node147 -->
<g id="edge12" class="edge"><title>Node142&#45;&gt;Node147</title>
<path fill="none" stroke="midnightblue" d="M590.437,-98.9421C646.645,-100.294 730.783,-102.319 790.692,-103.76"/>
<polygon fill="midnightblue" stroke="midnightblue" points="590.36,-95.4393 580.279,-98.6977 590.191,-102.437 590.36,-95.4393"/>
</g>
<!-- Node150 -->
<g id="node12" class="node"><title>Node150</title>
<g id="a_node12"><a xlink:href="classobe_1_1_world_1_1_world.html#a5bd621e3fd9293d949ad0c669cee6838" target="_top" xlink:title="obe::World::World::\lWorld">
<polygon fill="none" stroke="black" points="813.5,-27.5 813.5,-57.5 914.5,-57.5 914.5,-27.5 813.5,-27.5"/>
<text text-anchor="start" x="821.5" y="-45.5" font-family="Helvetica,sans-Serif" font-size="10.00">obe::World::World::</text>
<text text-anchor="middle" x="864" y="-34.5" font-family="Helvetica,sans-Serif" font-size="10.00">World</text>
</a>
</g>
</g>
<!-- Node142&#45;&gt;Node150 -->
<g id="edge13" class="edge"><title>Node142&#45;&gt;Node150</title>
<path fill="none" stroke="midnightblue" d="M590.189,-87.6266C653.947,-77.0802 753.845,-60.5558 813.425,-50.7004"/>
<polygon fill="midnightblue" stroke="midnightblue" points="589.573,-84.1808 580.279,-89.2659 590.716,-91.087 589.573,-84.1808"/>
</g>
<!-- Node151 -->
<g id="node13" class="node"><title>Node151</title>
<g id="a_node13"><a xlink:href="namespaceobe_1_1_world.html#afc958184e59524fdf9dc6ba98a1e9a37" target="_top" xlink:title="obe::World::loadWorldScript\lEngineBaseLib">
<polygon fill="none" stroke="black" points="616,-0.5 616,-30.5 755,-30.5 755,-0.5 616,-0.5"/>
<text text-anchor="start" x="624" y="-18.5" font-family="Helvetica,sans-Serif" font-size="10.00">obe::World::loadWorldScript</text>
<text text-anchor="middle" x="685.5" y="-7.5" font-family="Helvetica,sans-Serif" font-size="10.00">EngineBaseLib</text>
</a>
</g>
</g>
<!-- Node142&#45;&gt;Node151 -->
<g id="edge14" class="edge"><title>Node142&#45;&gt;Node151</title>
<path fill="none" stroke="midnightblue" d="M553.637,-82.2687C570.569,-71.4107 594.282,-56.7959 616,-45.5 626.021,-40.2881 637.142,-35.1539 647.458,-30.6464"/>
<polygon fill="midnightblue" stroke="midnightblue" points="551.477,-79.4976 544.983,-87.8694 555.28,-85.3741 551.477,-79.4976"/>
</g>
<!-- Node144 -->
<g id="node6" class="node"><title>Node144</title>
<g id="a_node6"><a xlink:href="namespaceobe_1_1_script.html#a5dc8321da50fd4b5dc2935e4d8c93a4e" target="_top" xlink:title="obe::Script::loadScrGame\lObject">
<polygon fill="none" stroke="black" points="799.5,-158.5 799.5,-188.5 928.5,-188.5 928.5,-158.5 799.5,-158.5"/>
<text text-anchor="start" x="807.5" y="-176.5" font-family="Helvetica,sans-Serif" font-size="10.00">obe::Script::loadScrGame</text>
<text text-anchor="middle" x="864" y="-165.5" font-family="Helvetica,sans-Serif" font-size="10.00">Object</text>
</a>
</g>
</g>
<!-- Node143&#45;&gt;Node144 -->
<g id="edge5" class="edge"><title>Node143&#45;&gt;Node144</title>
<path fill="none" stroke="midnightblue" d="M760.065,-173.5C773.107,-173.5 786.589,-173.5 799.329,-173.5"/>
<polygon fill="midnightblue" stroke="midnightblue" points="759.722,-170 749.722,-173.5 759.722,-177 759.722,-170"/>
</g>
<!-- Node145 -->
<g id="node7" class="node"><title>Node145</title>
<g id="a_node7"><a xlink:href="classobe_1_1_script_1_1_game_object.html#aa0d58bd1ef0fa2fe9f7567729b2d291e" target="_top" xlink:title="obe::Script::GameObject\l::loadGameObject">
<polygon fill="none" stroke="black" points="977,-158.5 977,-188.5 1102,-188.5 1102,-158.5 977,-158.5"/>
<text text-anchor="start" x="985" y="-176.5" font-family="Helvetica,sans-Serif" font-size="10.00">obe::Script::GameObject</text>
<text text-anchor="middle" x="1039.5" y="-165.5" font-family="Helvetica,sans-Serif" font-size="10.00">::loadGameObject</text>
</a>
</g>
</g>
<!-- Node144&#45;&gt;Node145 -->
<g id="edge6" class="edge"><title>Node144&#45;&gt;Node145</title>
<path fill="none" stroke="midnightblue" d="M938.721,-173.5C951.445,-173.5 964.552,-173.5 976.913,-173.5"/>
<polygon fill="midnightblue" stroke="midnightblue" points="938.62,-170 928.62,-173.5 938.62,-177 938.62,-170"/>
</g>
<!-- Node146&#45;&gt;Node147 -->
<g id="edge8" class="edge"><title>Node146&#45;&gt;Node147</title>
<path fill="none" stroke="midnightblue" d="M753.102,-124.18C770.829,-121.166 789.798,-117.942 806.901,-115.035"/>
<polygon fill="midnightblue" stroke="midnightblue" points="752.103,-120.799 742.831,-125.925 753.276,-127.7 752.103,-120.799"/>
</g>
<!-- Node148 -->
<g id="node10" class="node"><title>Node148</title>
<g id="a_node10"><a xlink:href="namespaceobe_1_1_modes.html#a6a8b08eee511d4895c4da96d4ba223a6" target="_top" xlink:title="obe::Modes::startDevMenu">
<polygon fill="none" stroke="black" points="973,-104 973,-123 1106,-123 1106,-104 973,-104"/>
<text text-anchor="middle" x="1039.5" y="-111" font-family="Helvetica,sans-Serif" font-size="10.00">obe::Modes::startDevMenu</text>
</a>
</g>
</g>
<!-- Node147&#45;&gt;Node148 -->
<g id="edge9" class="edge"><title>Node147&#45;&gt;Node148</title>
<path fill="none" stroke="midnightblue" d="M947.118,-109.286C955.716,-109.683 964.375,-110.082 972.755,-110.469"/>
<polygon fill="midnightblue" stroke="midnightblue" points="947.223,-105.788 937.072,-108.823 946.9,-112.78 947.223,-105.788"/>
</g>
<!-- Node149 -->
<g id="node11" class="node"><title>Node149</title>
<g id="a_node11"><a xlink:href="_ob_engine_8cpp.html#a3c04138a5bfe5d72780bb7e82a18e627" target="_top" xlink:title="main">
<polygon fill="none" stroke="black" points="1142,-85 1142,-104 1180,-104 1180,-85 1142,-85"/>
<text text-anchor="middle" x="1161" y="-92" font-family="Helvetica,sans-Serif" font-size="10.00">main</text>
</a>
</g>
</g>
<!-- Node147&#45;&gt;Node149 -->
<g id="edge11" class="edge"><title>Node147&#45;&gt;Node149</title>
<path fill="none" stroke="midnightblue" d="M947.367,-96.2384C956.013,-95.5273 964.68,-94.9226 973,-94.5 1034.93,-91.3544 1108.54,-92.9026 1141.93,-93.8916"/>
<polygon fill="midnightblue" stroke="midnightblue" points="946.909,-92.765 937.249,-97.1177 947.515,-99.7387 946.909,-92.765"/>
</g>
<!-- Node148&#45;&gt;Node149 -->
<g id="edge10" class="edge"><title>Node148&#45;&gt;Node149</title>
<path fill="none" stroke="midnightblue" d="M1110.82,-102.319C1122.35,-100.487 1133.33,-98.7409 1141.98,-97.3654"/>
<polygon fill="midnightblue" stroke="midnightblue" points="1109.93,-98.9174 1100.6,-103.944 1111.03,-105.831 1109.93,-98.9174"/>
</g>
<!-- Node151&#45;&gt;Node150 -->
<g id="edge15" class="edge"><title>Node151&#45;&gt;Node150</title>
<path fill="none" stroke="midnightblue" d="M765.323,-27.558C781.633,-30.0528 798.376,-32.6142 813.292,-34.8959"/>
<polygon fill="midnightblue" stroke="midnightblue" points="765.659,-24.0687 755.245,-26.0162 764.601,-30.9882 765.659,-24.0687"/>
</g>
</g>
</svg>
        <g id="navigator" transform="translate(0 0)" fill="#404254">
                <rect fill="#f2f5e9" fill-opacity="0.5" stroke="#606060" stroke-width=".5" x="0" y="0" width="60" height="60"/>
                <use id="zoomplus" xlink:href="#zoomPlus" x="17" y="9" onmousedown="handleZoom(evt,'in')"/>
                <use id="zoomminus" xlink:href="#zoomMin" x="42" y="9" onmousedown="handleZoom(evt,'out')"/>
                <use id="reset" xlink:href="#resetDef" x="30" y="36" onmousedown="handleReset()"/>
                <g id="arrowUp" xlink:href="#dirArrow" transform="translate(30 24)" onmousedown="handlePan(0,-1)">
                  <use xlink:href="#rim" fill="#404040">
                        <set attributeName="fill" to="#808080" begin="arrowUp.mouseover" end="arrowUp.mouseout"/>
                  </use>
                  <path fill="none" stroke="white" stroke-width="1.5" d="M0,-3.0v7 M-2.5,-0.5L0,-3.0L2.5,-0.5"/>
                </g>
                <g id="arrowRight" xlink:href="#dirArrow" transform="rotate(90) translate(36 -43)" onmousedown="handlePan(1,0)">
                  <use xlink:href="#rim" fill="#404040">
                        <set attributeName="fill" to="#808080" begin="arrowRight.mouseover" end="arrowRight.mouseout"/>
                  </use>
                  <path fill="none" stroke="white" stroke-width="1.5" d="M0,-3.0v7 M-2.5,-0.5L0,-3.0L2.5,-0.5"/>
                </g>
                <g id="arrowDown" xlink:href="#dirArrow" transform="rotate(180) translate(-30 -48)" onmousedown="handlePan(0,1)">
                  <use xlink:href="#rim" fill="#404040">
                        <set attributeName="fill" to="#808080" begin="arrowDown.mouseover" end="arrowDown.mouseout"/>
                  </use>
                  <path fill="none" stroke="white" stroke-width="1.5" d="M0,-3.0v7 M-2.5,-0.5L0,-3.0L2.5,-0.5"/>
                </g>
                <g id="arrowLeft" xlink:href="#dirArrow" transform="rotate(270) translate(-36 17)" onmousedown="handlePan(-1,0)">
                  <use xlink:href="#rim" fill="#404040">
                        <set attributeName="fill" to="#808080" begin="arrowLeft.mouseover" end="arrowLeft.mouseout"/>
                  </use>
                  <path fill="none" stroke="white" stroke-width="1.5" d="M0,-3.0v7 M-2.5,-0.5L0,-3.0L2.5,-0.5"/>
                </g>
        </g>
        <svg viewBox="0 0 15 15" width="100%" height="30px" preserveAspectRatio="xMaxYMin meet">
         <g id="arrow_out" transform="scale(0.3 0.3)">
          <a xlink:href="classobe_1_1_animation_1_1_animation_group_a0f76d691aa6fd17851817ee5ce305a11_icgraph_org.svg" target="_base">
           <rect id="button" ry="5" rx="5" y="6" x="6" height="38" width="38"
                fill="#f2f5e9" fill-opacity="0.5" stroke="#606060" stroke-width="1.0"/>
           <path id="arrow"
             d="M 11.500037,31.436501 C 11.940474,20.09759 22.043105,11.32322 32.158766,21.979434 L 37.068811,17.246167 C 37.068811,17.246167 37.088388,32 37.088388,32 L 22.160133,31.978069 C 22.160133,31.978069 26.997745,27.140456 26.997745,27.140456 C 18.528582,18.264221 13.291696,25.230495 11.500037,31.436501 z"
             style="fill:#404040;"/>
          </a>
         </g>
        </svg>
</svg>
