<?xml version="1.0" encoding="UTF-8" standalone="no"?>
<!DOCTYPE svg PUBLIC "-//W3C//DTD SVG 1.1//EN"
 "http://www.w3.org/Graphics/SVG/1.1/DTD/svg11.dtd">
<!-- Generated by graphviz version 2.38.0 (20140413.2041)
 -->
<!-- Title: obe::Triggers::TriggerGroup::pushParameter Pages: 1 -->
<!--zoomable 340 -->
<svg id="main" version="1.1" xmlns="http://www.w3.org/2000/svg" xmlns:xlink="http://www.w3.org/1999/xlink" xml:space="preserve" onload="init(evt)">
<style type="text/css"><![CDATA[
.edge:hover path { stroke: red; }
.edge:hover polygon { stroke: red; fill: red; }
.edge path { stroke: white; }
.edge polygon { stroke: white; fill: white; }
.node polygon { fill: white; }
]]></style>
<script type="text/javascript"><![CDATA[
var edges = document.getElementsByTagName('g');
if (edges && edges.length) {
  for (var i=0;i<edges.length;i++) {
    if (edges[i].id.substr(0,4)=='edge') {
      edges[i].setAttribute('class','edge');
    }
  }
}
]]></script>
        <defs>
                <circle id="rim" cx="0" cy="0" r="7"/>
                <circle id="rim2" cx="0" cy="0" r="3.5"/>
                <g id="zoomPlus">
                        <use xlink:href="#rim" fill="#404040">
                                <set attributeName="fill" to="#808080" begin="zoomplus.mouseover" end="zoomplus.mouseout"/>
                        </use>
                        <path d="M-4,0h8M0,-4v8" fill="none" stroke="white" stroke-width="1.5" pointer-events="none"/>
                </g>
                <g id="zoomMin">
                        <use xlink:href="#rim" fill="#404040">
                                <set attributeName="fill" to="#808080" begin="zoomminus.mouseover" end="zoomminus.mouseout"/>
                        </use>
                        <path d="M-4,0h8" fill="none" stroke="white" stroke-width="1.5" pointer-events="none"/>
                </g>
                <g id="dirArrow">
                        <path fill="none" stroke="white" stroke-width="1.5" d="M0,-3.0v7 M-2.5,-0.5L0,-3.0L2.5,-0.5"/>
                </g>
               <g id="resetDef">
                       <use xlink:href="#rim2" fill="#404040">
                               <set attributeName="fill" to="#808080" begin="reset.mouseover" end="reset.mouseout"/>
                       </use>
               </g>
        </defs>

<script type="text/javascript">
var viewWidth = 1367;
var viewHeight = 340;
var sectionId = 'dynsection-16';
</script>
<script xlink:href="svgpan.js"/>
<svg id="graph" class="graph">
<g id="viewport">
<title>obe::Triggers::TriggerGroup::pushParameter</title>
<!-- Node233 -->
<g id="node1" class="node"><title>Node233</title>
<polygon fill="#bfbfbf" stroke="black" points="0,-193.5 0,-223.5 134,-223.5 134,-193.5 0,-193.5"/>
<text text-anchor="start" x="8" y="-211.5" font-family="Helvetica,sans-Serif" font-size="10.00">obe::Triggers::TriggerGroup</text>
<text text-anchor="middle" x="67" y="-200.5" font-family="Helvetica,sans-Serif" font-size="10.00">::pushParameter</text>
</g>
<!-- Node234 -->
<g id="node2" class="node"><title>Node234</title>
<g id="a_node2"><a xlink:href="classobe_1_1_debug_1_1_console.html#a5fa21f5269b39878cd509d48a734f9b5" target="_top" xlink:title="Creates a new Stream to use in the Console. ">
<polygon fill="none" stroke="black" points="190.5,-144.5 190.5,-174.5 297.5,-174.5 297.5,-144.5 190.5,-144.5"/>
<text text-anchor="start" x="198.5" y="-162.5" font-family="Helvetica,sans-Serif" font-size="10.00">obe::Debug::Console</text>
<text text-anchor="middle" x="244" y="-151.5" font-family="Helvetica,sans-Serif" font-size="10.00">::createStream</text>
</a>
</g>
</g>
<!-- Node233&#45;&gt;Node234 -->
<g id="edge1" class="edge"><title>Node233&#45;&gt;Node234</title>
<path fill="none" stroke="midnightblue" d="M131.568,-190.701C150.901,-185.288 171.923,-179.402 190.445,-174.215"/>
<polygon fill="midnightblue" stroke="midnightblue" points="130.62,-187.332 121.934,-193.399 132.507,-194.073 130.62,-187.332"/>
</g>
<!-- Node250 -->
<g id="node18" class="node"><title>Node250</title>
<g id="a_node18"><a xlink:href="classobe_1_1_input_1_1_key_binder.html#a462fa05e33c310cbc05c5e303b70d56f" target="_top" xlink:title="obe::Input::KeyBinder\l::handleTriggers">
<polygon fill="none" stroke="black" points="189,-242.5 189,-272.5 299,-272.5 299,-242.5 189,-242.5"/>
<text text-anchor="start" x="197" y="-260.5" font-family="Helvetica,sans-Serif" font-size="10.00">obe::Input::KeyBinder</text>
<text text-anchor="middle" x="244" y="-249.5" font-family="Helvetica,sans-Serif" font-size="10.00">::handleTriggers</text>
</a>
</g>
</g>
<!-- Node233&#45;&gt;Node250 -->
<g id="edge23" class="edge"><title>Node233&#45;&gt;Node250</title>
<path fill="none" stroke="midnightblue" d="M131.647,-226.321C150.542,-231.612 171.043,-237.352 189.244,-242.448"/>
<polygon fill="midnightblue" stroke="midnightblue" points="132.507,-222.927 121.934,-223.601 130.62,-229.668 132.507,-222.927"/>
</g>
<!-- Node252 -->
<g id="node20" class="node"><title>Node252</title>
<g id="a_node20"><a xlink:href="classobe_1_1_network_1_1_network_handler.html#a2614539df148bb0fb53c77b728394dff" target="_top" xlink:title="obe::Network::NetworkHandler\l::handleTriggers">
<polygon fill="none" stroke="black" points="170,-193.5 170,-223.5 318,-223.5 318,-193.5 170,-193.5"/>
<text text-anchor="start" x="178" y="-211.5" font-family="Helvetica,sans-Serif" font-size="10.00">obe::Network::NetworkHandler</text>
<text text-anchor="middle" x="244" y="-200.5" font-family="Helvetica,sans-Serif" font-size="10.00">::handleTriggers</text>
</a>
</g>
</g>
<!-- Node233&#45;&gt;Node252 -->
<g id="edge28" class="edge"><title>Node233&#45;&gt;Node252</title>
<path fill="none" stroke="midnightblue" d="M144.345,-208.5C152.769,-208.5 161.334,-208.5 169.719,-208.5"/>
<polygon fill="midnightblue" stroke="midnightblue" points="144.16,-205 134.16,-208.5 144.16,-212 144.16,-205"/>
</g>
<!-- Node253 -->
<g id="node21" class="node"><title>Node253</title>
<g id="a_node21"><a xlink:href="namespaceobe_1_1_script_1_1_core_lib.html#a94684c4b34b9c53b5bcf31d052cf6faf" target="_top" xlink:title="obe::Script::CoreLib\l::loadTrigger">
<polygon fill="none" stroke="black" points="356,-49.5 356,-79.5 459,-79.5 459,-49.5 356,-49.5"/>
<text text-anchor="start" x="364" y="-67.5" font-family="Helvetica,sans-Serif" font-size="10.00">obe::Script::CoreLib</text>
<text text-anchor="middle" x="407.5" y="-56.5" font-family="Helvetica,sans-Serif" font-size="10.00">::loadTrigger</text>
</a>
</g>
</g>
<!-- Node233&#45;&gt;Node253 -->
<g id="edge30" class="edge"><title>Node233&#45;&gt;Node253</title>
<path fill="none" stroke="midnightblue" d="M92.7471,-186.818C112.499,-170.472 141.493,-148.542 170,-134.5 230.692,-104.604 306.555,-84.9466 355.743,-74.2773"/>
<polygon fill="midnightblue" stroke="midnightblue" points="90.2734,-184.326 84.8763,-193.443 94.7809,-189.681 90.2734,-184.326"/>
</g>
<!-- Node254 -->
<g id="node22" class="node"><title>Node254</title>
<g id="a_node22"><a xlink:href="classobe_1_1_system_1_1_cursor.html#a3c1d2d899a2186435cdff92e31d50f1c" target="_top" xlink:title="Handles the internal Cursor Triggers. ">
<polygon fill="none" stroke="black" points="190.5,-291.5 190.5,-321.5 297.5,-321.5 297.5,-291.5 190.5,-291.5"/>
<text text-anchor="start" x="198.5" y="-309.5" font-family="Helvetica,sans-Serif" font-size="10.00">obe::System::Cursor</text>
<text text-anchor="middle" x="244" y="-298.5" font-family="Helvetica,sans-Serif" font-size="10.00">::handleTriggers</text>
</a>
</g>
</g>
<!-- Node233&#45;&gt;Node254 -->
<g id="edge32" class="edge"><title>Node233&#45;&gt;Node254</title>
<path fill="none" stroke="midnightblue" d="M93.6862,-230.114C113.533,-245.988 142.219,-267.193 170,-281.5 177.146,-285.18 184.952,-288.508 192.717,-291.448"/>
<polygon fill="midnightblue" stroke="midnightblue" points="95.7202,-227.257 85.75,-223.672 91.3088,-232.692 95.7202,-227.257"/>
</g>
<!-- Node235 -->
<g id="node3" class="node"><title>Node235</title>
<g id="a_node3"><a xlink:href="classobe_1_1_debug_1_1_console.html#a6120ea12f472acf98bd67f65864e1dc3" target="_top" xlink:title="Creates a new Console. ">
<polygon fill="none" stroke="black" points="354,-147.5 354,-177.5 461,-177.5 461,-147.5 354,-147.5"/>
<text text-anchor="start" x="362" y="-165.5" font-family="Helvetica,sans-Serif" font-size="10.00">obe::Debug::Console</text>
<text text-anchor="middle" x="407.5" y="-154.5" font-family="Helvetica,sans-Serif" font-size="10.00">::Console</text>
</a>
</g>
</g>
<!-- Node234&#45;&gt;Node235 -->
<g id="edge2" class="edge"><title>Node234&#45;&gt;Node235</title>
<path fill="none" stroke="midnightblue" d="M308.165,-160.673C323.257,-160.954 339.211,-161.25 353.776,-161.521"/>
<polygon fill="midnightblue" stroke="midnightblue" points="307.944,-157.169 297.881,-160.482 307.814,-164.168 307.944,-157.169"/>
</g>
<!-- Node236 -->
<g id="node4" class="node"><title>Node236</title>
<g id="a_node4"><a xlink:href="namespaceobe_1_1_editor.html#a9009207671e71dccb68a31ea2362e9ef" target="_top" xlink:title="Starts the map edition. ">
<polygon fill="none" stroke="black" points="355.5,-208 355.5,-227 459.5,-227 459.5,-208 355.5,-208"/>
<text text-anchor="middle" x="407.5" y="-215" font-family="Helvetica,sans-Serif" font-size="10.00">obe::Editor::editMap</text>
</a>
</g>
</g>
<!-- Node234&#45;&gt;Node236 -->
<g id="edge3" class="edge"><title>Node234&#45;&gt;Node236</title>
<path fill="none" stroke="midnightblue" d="M301.734,-177.849C307.243,-179.722 312.737,-181.625 318,-183.5 340.017,-191.343 364.839,-200.946 382.579,-207.944"/>
<polygon fill="midnightblue" stroke="midnightblue" points="302.442,-174.395 291.848,-174.524 300.211,-181.029 302.442,-174.395"/>
</g>
<!-- Node239 -->
<g id="node7" class="node"><title>Node239</title>
<g id="a_node7"><a xlink:href="namespaceobe_1_1_script_1_1_core_lib.html#ad0a0a4d8fdd1cdfe5d7177c1267e4d16" target="_top" xlink:title="obe::Script::CoreLib\l::loadConsole">
<polygon fill="none" stroke="black" points="356,-98.5 356,-128.5 459,-128.5 459,-98.5 356,-98.5"/>
<text text-anchor="start" x="364" y="-116.5" font-family="Helvetica,sans-Serif" font-size="10.00">obe::Script::CoreLib</text>
<text text-anchor="middle" x="407.5" y="-105.5" font-family="Helvetica,sans-Serif" font-size="10.00">::loadConsole</text>
</a>
</g>
</g>
<!-- Node234&#45;&gt;Node239 -->
<g id="edge7" class="edge"><title>Node234&#45;&gt;Node239</title>
<path fill="none" stroke="midnightblue" d="M307.687,-141.645C323.681,-137.089 340.672,-132.25 355.971,-127.892"/>
<polygon fill="midnightblue" stroke="midnightblue" points="306.54,-138.332 297.881,-144.438 308.457,-145.065 306.54,-138.332"/>
</g>
<!-- Node237 -->
<g id="node5" class="node"><title>Node237</title>
<g id="a_node5"><a xlink:href="namespaceobe_1_1_modes.html#a6a8b08eee511d4895c4da96d4ba223a6" target="_top" xlink:title="Starts the development Menu where you can starts other menus from. ">
<polygon fill="none" stroke="black" points="1152,-208 1152,-227 1285,-227 1285,-208 1152,-208"/>
<text text-anchor="middle" x="1218.5" y="-215" font-family="Helvetica,sans-Serif" font-size="10.00">obe::Modes::startDevMenu</text>
</a>
</g>
</g>
<!-- Node236&#45;&gt;Node237 -->
<g id="edge4" class="edge"><title>Node236&#45;&gt;Node237</title>
<path fill="none" stroke="midnightblue" d="M469.608,-217.5C529.46,-217.5 623.252,-217.5 704.5,-217.5 704.5,-217.5 704.5,-217.5 864.5,-217.5 964.701,-217.5 1080.9,-217.5 1151.79,-217.5"/>
<polygon fill="midnightblue" stroke="midnightblue" points="469.57,-214 459.57,-217.5 469.57,-221 469.57,-214"/>
</g>
<!-- Node238 -->
<g id="node6" class="node"><title>Node238</title>
<g id="a_node6"><a xlink:href="_ob_engine_8cpp.html#a3c04138a5bfe5d72780bb7e82a18e627" target="_top" xlink:title="main">
<polygon fill="none" stroke="black" points="1321,-227 1321,-246 1359,-246 1359,-227 1321,-227"/>
<text text-anchor="middle" x="1340" y="-234" font-family="Helvetica,sans-Serif" font-size="10.00">main</text>
</a>
</g>
</g>
<!-- Node236&#45;&gt;Node238 -->
<g id="edge6" class="edge"><title>Node236&#45;&gt;Node238</title>
<path fill="none" stroke="midnightblue" d="M464.059,-228.936C523.341,-240.126 620.137,-255.5 704.5,-255.5 704.5,-255.5 704.5,-255.5 1044,-255.5 1148.95,-255.5 1274.47,-243.376 1320.73,-238.497"/>
<polygon fill="midnightblue" stroke="midnightblue" points="464.637,-225.483 454.157,-227.04 463.32,-232.358 464.637,-225.483"/>
</g>
<!-- Node237&#45;&gt;Node238 -->
<g id="edge5" class="edge"><title>Node237&#45;&gt;Node238</title>
<path fill="none" stroke="midnightblue" d="M1289.82,-228.681C1301.35,-230.513 1312.33,-232.259 1320.98,-233.635"/>
<polygon fill="midnightblue" stroke="midnightblue" points="1290.03,-225.169 1279.6,-227.056 1288.93,-232.083 1290.03,-225.169"/>
</g>
<!-- Node240 -->
<g id="node8" class="node"><title>Node240</title>
<g id="a_node8"><a xlink:href="namespaceobe_1_1_script.html#abdb81ec0976f1097cef6711415b8fac3" target="_top" xlink:title="obe::Script::loadCoreLib">
<polygon fill="none" stroke="black" points="497,-55 497,-74 618,-74 618,-55 497,-55"/>
<text text-anchor="middle" x="557.5" y="-62" font-family="Helvetica,sans-Serif" font-size="10.00">obe::Script::loadCoreLib</text>
</a>
</g>
</g>
<!-- Node239&#45;&gt;Node240 -->
<g id="edge8" class="edge"><title>Node239&#45;&gt;Node240</title>
<path fill="none" stroke="midnightblue" d="M463.874,-95.1667C485.531,-87.9963 509.466,-80.0722 527.578,-74.0754"/>
<polygon fill="midnightblue" stroke="midnightblue" points="462.506,-91.9328 454.113,-98.3986 464.706,-98.5781 462.506,-91.9328"/>
</g>
<!-- Node241 -->
<g id="node9" class="node"><title>Node241</title>
<g id="a_node9"><a xlink:href="namespaceobe_1_1_script.html#a4e6ee77032cf7f66544f9b08464a60b7" target="_top" xlink:title="obe::Script::loadLib">
<polygon fill="none" stroke="black" points="655,-91 655,-110 756,-110 756,-91 655,-91"/>
<text text-anchor="middle" x="705.5" y="-98" font-family="Helvetica,sans-Serif" font-size="10.00">obe::Script::loadLib</text>
</a>
</g>
</g>
<!-- Node240&#45;&gt;Node241 -->
<g id="edge9" class="edge"><title>Node240&#45;&gt;Node241</title>
<path fill="none" stroke="midnightblue" d="M606.982,-76.4543C626.112,-81.1714 647.783,-86.5151 665.83,-90.9651"/>
<polygon fill="midnightblue" stroke="midnightblue" points="607.789,-73.0487 597.242,-74.0528 606.113,-79.8452 607.789,-73.0487"/>
</g>
<!-- Node249 -->
<g id="node17" class="node"><title>Node249</title>
<g id="a_node17"><a xlink:href="namespaceobe_1_1_script_1_1_core_lib.html#a07d6c11bbb082bc45bdba50d97965c00" target="_top" xlink:title="obe::Script::CoreLib\l::loadCollision">
<polygon fill="none" stroke="black" points="654,-41.5 654,-71.5 757,-71.5 757,-41.5 654,-41.5"/>
<text text-anchor="start" x="662" y="-59.5" font-family="Helvetica,sans-Serif" font-size="10.00">obe::Script::CoreLib</text>
<text text-anchor="middle" x="705.5" y="-48.5" font-family="Helvetica,sans-Serif" font-size="10.00">::loadCollision</text>
</a>
</g>
</g>
<!-- Node240&#45;&gt;Node249 -->
<g id="edge21" class="edge"><title>Node240&#45;&gt;Node249</title>
<path fill="none" stroke="midnightblue" d="M623.097,-54.2503C633.437,-53.5852 644.004,-53.0903 653.955,-52.8118"/>
<polygon fill="midnightblue" stroke="midnightblue" points="622.595,-50.777 612.865,-54.9705 623.086,-57.7597 622.595,-50.777"/>
</g>
<!-- Node242 -->
<g id="node10" class="node"><title>Node242</title>
<g id="a_node10"><a xlink:href="namespaceobe_1_1_modes.html#a1e38c0d9a2ca0230f0de79c298f53ab9" target="_top" xlink:title="A mode that will start the Toolkit. ">
<polygon fill="none" stroke="black" points="970,-92 970,-111 1116,-111 1116,-92 970,-92"/>
<text text-anchor="middle" x="1043" y="-99" font-family="Helvetica,sans-Serif" font-size="10.00">obe::Modes::startToolkitMode</text>
</a>
</g>
</g>
<!-- Node241&#45;&gt;Node242 -->
<g id="edge10" class="edge"><title>Node241&#45;&gt;Node242</title>
<path fill="none" stroke="midnightblue" d="M738.935,-87.3339C754.923,-81.5369 774.665,-75.3936 793,-72.5 854.901,-62.7309 871.872,-64.3039 934,-72.5 961.909,-76.1818 992.85,-84.9965 1014.44,-91.9483"/>
<polygon fill="midnightblue" stroke="midnightblue" points="737.646,-84.0789 729.511,-90.8664 740.104,-90.6335 737.646,-84.0789"/>
</g>
<!-- Node243 -->
<g id="node11" class="node"><title>Node243</title>
<g id="a_node11"><a xlink:href="classobe_1_1_scene_1_1_world.html#a32964e659e18cb32094d9f8ceea30aa3" target="_top" xlink:title="obe::Scene::World::\lWorld">
<polygon fill="none" stroke="black" points="991,-149.5 991,-179.5 1095,-179.5 1095,-149.5 991,-149.5"/>
<text text-anchor="start" x="999" y="-167.5" font-family="Helvetica,sans-Serif" font-size="10.00">obe::Scene::World::</text>
<text text-anchor="middle" x="1043" y="-156.5" font-family="Helvetica,sans-Serif" font-size="10.00">World</text>
</a>
</g>
</g>
<!-- Node241&#45;&gt;Node243 -->
<g id="edge13" class="edge"><title>Node241&#45;&gt;Node243</title>
<path fill="none" stroke="midnightblue" d="M724.284,-117.277C740.69,-131.541 766.459,-151.018 793,-159.5 858.691,-180.495 939.184,-177.269 990.533,-171.854"/>
<polygon fill="midnightblue" stroke="midnightblue" points="726.382,-114.457 716.604,-110.379 721.705,-119.665 726.382,-114.457"/>
</g>
<!-- Node244 -->
<g id="node12" class="node"><title>Node244</title>
<g id="a_node12"><a xlink:href="namespaceobe_1_1_scene.html#ae5cbcc3278d9115d603e5024dec9136e" target="_top" xlink:title="obe::Scene::loadWorldScript\lEngineBaseLib">
<polygon fill="none" stroke="black" points="793,-120.5 793,-150.5 934,-150.5 934,-120.5 793,-120.5"/>
<text text-anchor="start" x="801" y="-138.5" font-family="Helvetica,sans-Serif" font-size="10.00">obe::Scene::loadWorldScript</text>
<text text-anchor="middle" x="863.5" y="-127.5" font-family="Helvetica,sans-Serif" font-size="10.00">EngineBaseLib</text>
</a>
</g>
</g>
<!-- Node241&#45;&gt;Node244 -->
<g id="edge14" class="edge"><title>Node241&#45;&gt;Node244</title>
<path fill="none" stroke="midnightblue" d="M759.158,-112.314C770.857,-114.939 783.409,-117.755 795.592,-120.489"/>
<polygon fill="midnightblue" stroke="midnightblue" points="759.651,-108.838 749.128,-110.064 758.119,-115.668 759.651,-108.838"/>
</g>
<!-- Node245 -->
<g id="node13" class="node"><title>Node245</title>
<g id="a_node13"><a xlink:href="namespaceobe_1_1_script.html#a5e992c0efb0543e7c934bc1065f08b01" target="_top" xlink:title="obe::Script::loadLibBridge">
<polygon fill="none" stroke="black" points="799.5,-6 799.5,-25 927.5,-25 927.5,-6 799.5,-6"/>
<text text-anchor="middle" x="863.5" y="-13" font-family="Helvetica,sans-Serif" font-size="10.00">obe::Script::loadLibBridge</text>
</a>
</g>
</g>
<!-- Node241&#45;&gt;Node245 -->
<g id="edge16" class="edge"><title>Node241&#45;&gt;Node245</title>
<path fill="none" stroke="midnightblue" d="M746.552,-86.7343C750.209,-84.8623 753.754,-82.7867 757,-80.5 776.825,-66.5354 772.868,-53.0192 793,-39.5 802.114,-33.3797 812.947,-28.663 823.317,-25.0976"/>
<polygon fill="midnightblue" stroke="midnightblue" points="744.958,-83.6146 737.336,-90.9726 747.883,-89.9743 744.958,-83.6146"/>
</g>
<!-- Node248 -->
<g id="node16" class="node"><title>Node248</title>
<g id="a_node16"><a xlink:href="namespaceobe_1_1_script.html#aad6ef67388e6d16eb01853f208da410f" target="_top" xlink:title="obe::Script::loadBaseLib">
<polygon fill="none" stroke="black" points="802,-82 802,-101 925,-101 925,-82 802,-82"/>
<text text-anchor="middle" x="863.5" y="-89" font-family="Helvetica,sans-Serif" font-size="10.00">obe::Script::loadBaseLib</text>
</a>
</g>
</g>
<!-- Node241&#45;&gt;Node248 -->
<g id="edge19" class="edge"><title>Node241&#45;&gt;Node248</title>
<path fill="none" stroke="midnightblue" d="M766.372,-97.0459C778.046,-96.3724 790.294,-95.6658 801.988,-94.9911"/>
<polygon fill="midnightblue" stroke="midnightblue" points="766.07,-93.5574 756.288,-97.6276 766.473,-100.546 766.07,-93.5574"/>
</g>
<!-- Node242&#45;&gt;Node237 -->
<g id="edge11" class="edge"><title>Node242&#45;&gt;Node237</title>
<path fill="none" stroke="midnightblue" d="M1073.55,-115.669C1086.83,-122.392 1102.5,-130.84 1116,-139.5 1150.6,-161.701 1188.2,-192.549 1206.39,-207.952"/>
<polygon fill="midnightblue" stroke="midnightblue" points="1074.89,-112.426 1064.38,-111.101 1071.77,-118.692 1074.89,-112.426"/>
</g>
<!-- Node242&#45;&gt;Node238 -->
<g id="edge12" class="edge"><title>Node242&#45;&gt;Node238</title>
<path fill="none" stroke="midnightblue" d="M1083.48,-114.238C1132.27,-130.685 1217.16,-161.621 1285,-198.5 1300.31,-206.822 1316.48,-218.658 1327.08,-226.902"/>
<polygon fill="midnightblue" stroke="midnightblue" points="1084.52,-110.896 1073.92,-111.048 1082.3,-117.535 1084.52,-110.896"/>
</g>
<!-- Node244&#45;&gt;Node243 -->
<g id="edge15" class="edge"><title>Node244&#45;&gt;Node243</title>
<path fill="none" stroke="midnightblue" d="M944.449,-148.562C960.247,-151.143 976.421,-153.786 990.941,-156.158"/>
<polygon fill="midnightblue" stroke="midnightblue" points="944.577,-145.037 934.143,-146.878 943.448,-151.945 944.577,-145.037"/>
</g>
<!-- Node246 -->
<g id="node14" class="node"><title>Node246</title>
<g id="a_node14"><a xlink:href="namespaceobe_1_1_script.html#a5dc8321da50fd4b5dc2935e4d8c93a4e" target="_top" xlink:title="obe::Script::loadScrGame\lObject">
<polygon fill="none" stroke="black" points="978.5,-0.5 978.5,-30.5 1107.5,-30.5 1107.5,-0.5 978.5,-0.5"/>
<text text-anchor="start" x="986.5" y="-18.5" font-family="Helvetica,sans-Serif" font-size="10.00">obe::Script::loadScrGame</text>
<text text-anchor="middle" x="1043" y="-7.5" font-family="Helvetica,sans-Serif" font-size="10.00">Object</text>
</a>
</g>
</g>
<!-- Node245&#45;&gt;Node246 -->
<g id="edge17" class="edge"><title>Node245&#45;&gt;Node246</title>
<path fill="none" stroke="midnightblue" d="M937.737,-15.5C951.171,-15.5 965.096,-15.5 978.226,-15.5"/>
<polygon fill="midnightblue" stroke="midnightblue" points="937.58,-12.0001 927.58,-15.5 937.58,-19.0001 937.58,-12.0001"/>
</g>
<!-- Node247 -->
<g id="node15" class="node"><title>Node247</title>
<g id="a_node15"><a xlink:href="classobe_1_1_script_1_1_game_object.html#aadeac0036d2fe21d523acfd4e9011a23" target="_top" xlink:title="obe::Script::GameObject\l::loadGameObject">
<polygon fill="none" stroke="black" points="1156,-0.5 1156,-30.5 1281,-30.5 1281,-0.5 1156,-0.5"/>
<text text-anchor="start" x="1164" y="-18.5" font-family="Helvetica,sans-Serif" font-size="10.00">obe::Script::GameObject</text>
<text text-anchor="middle" x="1218.5" y="-7.5" font-family="Helvetica,sans-Serif" font-size="10.00">::loadGameObject</text>
</a>
</g>
</g>
<!-- Node246&#45;&gt;Node247 -->
<g id="edge18" class="edge"><title>Node246&#45;&gt;Node247</title>
<path fill="none" stroke="midnightblue" d="M1117.72,-15.5C1130.44,-15.5 1143.55,-15.5 1155.91,-15.5"/>
<polygon fill="midnightblue" stroke="midnightblue" points="1117.62,-12.0001 1107.62,-15.5 1117.62,-19.0001 1117.62,-12.0001"/>
</g>
<!-- Node248&#45;&gt;Node242 -->
<g id="edge20" class="edge"><title>Node248&#45;&gt;Node242</title>
<path fill="none" stroke="midnightblue" d="M935.346,-95.4913C946.662,-96.1288 958.384,-96.7892 969.733,-97.4286"/>
<polygon fill="midnightblue" stroke="midnightblue" points="935.27,-91.9816 925.089,-94.9135 934.876,-98.9705 935.27,-91.9816"/>
</g>
<!-- Node249&#45;&gt;Node240 -->
<g id="edge22" class="edge"><title>Node249&#45;&gt;Node240</title>
<path fill="none" stroke="midnightblue" d="M643.757,-66.4931C635.342,-67.0723 626.703,-67.5411 618.305,-67.874"/>
<polygon fill="midnightblue" stroke="midnightblue" points="644.17,-69.9721 653.88,-65.7335 643.646,-62.9917 644.17,-69.9721"/>
</g>
<!-- Node250&#45;&gt;Node236 -->
<g id="edge24" class="edge"><title>Node250&#45;&gt;Node236</title>
<path fill="none" stroke="midnightblue" d="M309.17,-241.606C329.076,-236.676 350.385,-231.398 367.975,-227.042"/>
<polygon fill="midnightblue" stroke="midnightblue" points="308.092,-238.268 299.226,-244.069 309.775,-245.062 308.092,-238.268"/>
</g>
<!-- Node251 -->
<g id="node19" class="node"><title>Node251</title>
<g id="a_node19"><a xlink:href="namespaceobe_1_1_modes.html#a5f4a1008892030350b06282b8dee1a89" target="_top" xlink:title="Start the game by loading the boot.lua file in one of the MountedPaths. ">
<polygon fill="none" stroke="black" points="498,-289 498,-308 617,-308 617,-289 498,-289"/>
<text text-anchor="middle" x="557.5" y="-296" font-family="Helvetica,sans-Serif" font-size="10.00">obe::Modes::startGame</text>
</a>
</g>
</g>
<!-- Node250&#45;&gt;Node251 -->
<g id="edge25" class="edge"><title>Node250&#45;&gt;Node251</title>
<path fill="none" stroke="midnightblue" d="M309.32,-265.966C364.755,-273.262 444.111,-283.707 497.835,-290.778"/>
<polygon fill="midnightblue" stroke="midnightblue" points="309.63,-262.477 299.259,-264.642 308.717,-269.417 309.63,-262.477"/>
</g>
<!-- Node251&#45;&gt;Node237 -->
<g id="edge26" class="edge"><title>Node251&#45;&gt;Node237</title>
<path fill="none" stroke="midnightblue" d="M627.311,-290.622C732.627,-278.476 940.094,-254.2 1116,-231.5 1127.56,-230.009 1139.84,-228.364 1151.73,-226.742"/>
<polygon fill="midnightblue" stroke="midnightblue" points="626.669,-287.173 617.135,-291.794 627.47,-294.127 626.669,-287.173"/>
</g>
<!-- Node251&#45;&gt;Node238 -->
<g id="edge27" class="edge"><title>Node251&#45;&gt;Node238</title>
<path fill="none" stroke="midnightblue" d="M622.879,-309.574C684.262,-319.162 779.399,-331.5 862.5,-331.5 862.5,-331.5 862.5,-331.5 1044,-331.5 1154.6,-331.5 1183.14,-312.587 1285,-269.5 1299.77,-263.251 1315.26,-253.396 1325.84,-246.081"/>
<polygon fill="midnightblue" stroke="midnightblue" points="623.373,-306.109 612.949,-308.001 622.278,-313.022 623.373,-306.109"/>
</g>
<!-- Node252&#45;&gt;Node236 -->
<g id="edge29" class="edge"><title>Node252&#45;&gt;Node236</title>
<path fill="none" stroke="midnightblue" d="M328.194,-213.136C337.42,-213.65 346.603,-214.162 355.262,-214.645"/>
<polygon fill="midnightblue" stroke="midnightblue" points="328.369,-209.641 318.19,-212.579 327.979,-216.63 328.369,-209.641"/>
</g>
<!-- Node253&#45;&gt;Node240 -->
<g id="edge31" class="edge"><title>Node253&#45;&gt;Node240</title>
<path fill="none" stroke="midnightblue" d="M469.16,-64.5C478.274,-64.5 487.667,-64.5 496.762,-64.5"/>
<polygon fill="midnightblue" stroke="midnightblue" points="469.019,-61.0001 459.019,-64.5 469.019,-68.0001 469.019,-61.0001"/>
</g>
<!-- Node254&#45;&gt;Node251 -->
<g id="edge33" class="edge"><title>Node254&#45;&gt;Node251</title>
<path fill="none" stroke="midnightblue" d="M307.903,-304.885C363.391,-303.459 443.639,-301.399 497.822,-300.007"/>
<polygon fill="midnightblue" stroke="midnightblue" points="307.749,-301.387 297.842,-305.143 307.928,-308.385 307.749,-301.387"/>
</g>
</g>
</svg>
        <g id="navigator" transform="translate(0 0)" fill="#404254">
                <rect fill="#f2f5e9" fill-opacity="0.5" stroke="#606060" stroke-width=".5" x="0" y="0" width="60" height="60"/>
                <use id="zoomplus" xlink:href="#zoomPlus" x="17" y="9" onmousedown="handleZoom(evt,'in')"/>
                <use id="zoomminus" xlink:href="#zoomMin" x="42" y="9" onmousedown="handleZoom(evt,'out')"/>
                <use id="reset" xlink:href="#resetDef" x="30" y="36" onmousedown="handleReset()"/>
                <g id="arrowUp" xlink:href="#dirArrow" transform="translate(30 24)" onmousedown="handlePan(0,-1)">
                  <use xlink:href="#rim" fill="#404040">
                        <set attributeName="fill" to="#808080" begin="arrowUp.mouseover" end="arrowUp.mouseout"/>
                  </use>
                  <path fill="none" stroke="white" stroke-width="1.5" d="M0,-3.0v7 M-2.5,-0.5L0,-3.0L2.5,-0.5"/>
                </g>
                <g id="arrowRight" xlink:href="#dirArrow" transform="rotate(90) translate(36 -43)" onmousedown="handlePan(1,0)">
                  <use xlink:href="#rim" fill="#404040">
                        <set attributeName="fill" to="#808080" begin="arrowRight.mouseover" end="arrowRight.mouseout"/>
                  </use>
                  <path fill="none" stroke="white" stroke-width="1.5" d="M0,-3.0v7 M-2.5,-0.5L0,-3.0L2.5,-0.5"/>
                </g>
                <g id="arrowDown" xlink:href="#dirArrow" transform="rotate(180) translate(-30 -48)" onmousedown="handlePan(0,1)">
                  <use xlink:href="#rim" fill="#404040">
                        <set attributeName="fill" to="#808080" begin="arrowDown.mouseover" end="arrowDown.mouseout"/>
                  </use>
                  <path fill="none" stroke="white" stroke-width="1.5" d="M0,-3.0v7 M-2.5,-0.5L0,-3.0L2.5,-0.5"/>
                </g>
                <g id="arrowLeft" xlink:href="#dirArrow" transform="rotate(270) translate(-36 17)" onmousedown="handlePan(-1,0)">
                  <use xlink:href="#rim" fill="#404040">
                        <set attributeName="fill" to="#808080" begin="arrowLeft.mouseover" end="arrowLeft.mouseout"/>
                  </use>
                  <path fill="none" stroke="white" stroke-width="1.5" d="M0,-3.0v7 M-2.5,-0.5L0,-3.0L2.5,-0.5"/>
                </g>
        </g>
        <svg viewBox="0 0 15 15" width="100%" height="30px" preserveAspectRatio="xMaxYMin meet">
         <g id="arrow_out" transform="scale(0.3 0.3)">
          <a xlink:href="classobe_1_1_triggers_1_1_trigger_group_a49dc453c0968342bd7ffae88abcb19b7_icgraph_org.svg" target="_base">
           <rect id="button" ry="5" rx="5" y="6" x="6" height="38" width="38"
                fill="#f2f5e9" fill-opacity="0.5" stroke="#606060" stroke-width="1.0"/>
           <path id="arrow"
             d="M 11.500037,31.436501 C 11.940474,20.09759 22.043105,11.32322 32.158766,21.979434 L 37.068811,17.246167 C 37.068811,17.246167 37.088388,32 37.088388,32 L 22.160133,31.978069 C 22.160133,31.978069 26.997745,27.140456 26.997745,27.140456 C 18.528582,18.264221 13.291696,25.230495 11.500037,31.436501 z"
             style="fill:#404040;"/>
          </a>
         </g>
        </svg>
</svg>
