<?xml version="1.0" encoding="UTF-8" standalone="no"?>
<!DOCTYPE svg PUBLIC "-//W3C//DTD SVG 1.1//EN"
 "http://www.w3.org/Graphics/SVG/1.1/DTD/svg11.dtd">
<!-- Generated by graphviz version 2.38.0 (20140413.2041)
 -->
<!-- Title: obe::Animation::Animation::getTexture Pages: 1 -->
<svg width="716pt" height="132pt"
 viewBox="0.00 0.00 716.00 132.00" xmlns="http://www.w3.org/2000/svg" xmlns:xlink="http://www.w3.org/1999/xlink">
<g id="graph0" class="graph" transform="scale(1 1) rotate(0) translate(4 128)">
<title>obe::Animation::Animation::getTexture</title>
<!-- Node96 -->
<g id="node1" class="node"><title>Node96</title>
<polygon fill="#bfbfbf" stroke="black" points="0,-44.5 0,-74.5 131,-74.5 131,-44.5 0,-44.5"/>
<text text-anchor="start" x="8" y="-62.5" font-family="Helvetica,sans-Serif" font-size="10.00">obe::Animation::Animation</text>
<text text-anchor="middle" x="65.5" y="-51.5" font-family="Helvetica,sans-Serif" font-size="10.00">::getTexture</text>
</g>
<!-- Node97 -->
<g id="node2" class="node"><title>Node97</title>
<g id="a_node2"><a xlink:href="classobe_1_1_animation_1_1_animator.html#ada6c0858d3fd693de9ae05350f56ef23" target="_top" xlink:title="Get the current sf::Sprite of the current Animation. ">
<polygon fill="white" stroke="black" points="167,-93.5 167,-123.5 294,-123.5 294,-93.5 167,-93.5"/>
<text text-anchor="start" x="175" y="-111.5" font-family="Helvetica,sans-Serif" font-size="10.00">obe::Animation::Animator</text>
<text text-anchor="middle" x="230.5" y="-100.5" font-family="Helvetica,sans-Serif" font-size="10.00">::getTexture</text>
</a>
</g>
</g>
<!-- Node96&#45;&gt;Node97 -->
<g id="edge1" class="edge"><title>Node96&#45;&gt;Node97</title>
<path fill="none" stroke="midnightblue" d="M126.753,-77.6129C144.082,-82.8222 162.789,-88.4457 179.43,-93.4484"/>
<polygon fill="midnightblue" stroke="midnightblue" points="127.32,-74.1285 116.735,-74.6014 125.304,-80.8322 127.32,-74.1285"/>
</g>
<!-- Node101 -->
<g id="node6" class="node"><title>Node101</title>
<g id="a_node6"><a xlink:href="classobe_1_1_animation_1_1_animator.html#ad710964804f5673b13e3628590f93665" target="_top" xlink:title="Return if the Texture changed since the last call to getTexture() ">
<polygon fill="white" stroke="black" points="167,-44.5 167,-74.5 294,-74.5 294,-44.5 167,-44.5"/>
<text text-anchor="start" x="175" y="-62.5" font-family="Helvetica,sans-Serif" font-size="10.00">obe::Animation::Animator</text>
<text text-anchor="middle" x="230.5" y="-51.5" font-family="Helvetica,sans-Serif" font-size="10.00">::textureChanged</text>
</a>
</g>
</g>
<!-- Node96&#45;&gt;Node101 -->
<g id="edge5" class="edge"><title>Node96&#45;&gt;Node101</title>
<path fill="none" stroke="midnightblue" d="M141.648,-59.5C150.115,-59.5 158.674,-59.5 166.957,-59.5"/>
<polygon fill="midnightblue" stroke="midnightblue" points="141.39,-56.0001 131.39,-59.5 141.39,-63.0001 141.39,-56.0001"/>
</g>
<!-- Node102 -->
<g id="node7" class="node"><title>Node102</title>
<g id="a_node7"><a xlink:href="namespaceobe_1_1_bindings_1_1_animation_bindings.html#a07a26af93fe2b9216dbcb210661ddd4f" target="_top" xlink:title="obe::Bindings::Animation\lBindings::LoadAnimation">
<polygon fill="white" stroke="black" points="330,-0.5 330,-30.5 455,-30.5 455,-0.5 330,-0.5"/>
<text text-anchor="start" x="338" y="-18.5" font-family="Helvetica,sans-Serif" font-size="10.00">obe::Bindings::Animation</text>
<text text-anchor="middle" x="392.5" y="-7.5" font-family="Helvetica,sans-Serif" font-size="10.00">Bindings::LoadAnimation</text>
</a>
</g>
</g>
<!-- Node96&#45;&gt;Node102 -->
<g id="edge7" class="edge"><title>Node96&#45;&gt;Node102</title>
<path fill="none" stroke="midnightblue" d="M130.206,-42.0328C142.351,-39.1643 155.013,-36.4852 167,-34.5 221.604,-25.4571 284.433,-20.606 329.713,-18.0756"/>
<polygon fill="midnightblue" stroke="midnightblue" points="129.043,-38.7135 120.153,-44.4758 130.696,-45.5156 129.043,-38.7135"/>
</g>
<!-- Node98 -->
<g id="node3" class="node"><title>Node98</title>
<g id="a_node3"><a xlink:href="namespaceobe_1_1_bindings_1_1_animation_bindings.html#ab0eea6adc605854faee6aefa85a9ad10" target="_top" xlink:title="obe::Bindings::Animation\lBindings::LoadAnimator">
<polygon fill="white" stroke="black" points="330,-49.5 330,-79.5 455,-79.5 455,-49.5 330,-49.5"/>
<text text-anchor="start" x="338" y="-67.5" font-family="Helvetica,sans-Serif" font-size="10.00">obe::Bindings::Animation</text>
<text text-anchor="middle" x="392.5" y="-56.5" font-family="Helvetica,sans-Serif" font-size="10.00">Bindings::LoadAnimator</text>
</a>
</g>
</g>
<!-- Node97&#45;&gt;Node98 -->
<g id="edge2" class="edge"><title>Node97&#45;&gt;Node98</title>
<path fill="none" stroke="midnightblue" d="M295.874,-90.7971C309.461,-87.0608 323.673,-83.1525 336.859,-79.5262"/>
<polygon fill="midnightblue" stroke="midnightblue" points="294.829,-87.4544 286.115,-93.4808 296.686,-94.2038 294.829,-87.4544"/>
</g>
<!-- Node99 -->
<g id="node4" class="node"><title>Node99</title>
<g id="a_node4"><a xlink:href="namespaceobe_1_1_bindings.html#a41d33207a0199f125c75a0f70a4a3ba8" target="_top" xlink:title="To call when the engine starts, indexes all Lua bindings. ">
<polygon fill="white" stroke="black" points="491,-30 491,-49 634,-49 634,-30 491,-30"/>
<text text-anchor="middle" x="562.5" y="-37" font-family="Helvetica,sans-Serif" font-size="10.00">obe::Bindings::IndexBindings</text>
</a>
</g>
</g>
<!-- Node98&#45;&gt;Node99 -->
<g id="edge3" class="edge"><title>Node98&#45;&gt;Node99</title>
<path fill="none" stroke="midnightblue" d="M465.304,-53.8149C476.055,-52.215 487.078,-50.5746 497.649,-49.0016"/>
<polygon fill="midnightblue" stroke="midnightblue" points="464.479,-50.399 455.103,-55.3329 465.509,-57.3228 464.479,-50.399"/>
</g>
<!-- Node100 -->
<g id="node5" class="node"><title>Node100</title>
<g id="a_node5"><a xlink:href="_ob_engine_8cpp.html#a3c04138a5bfe5d72780bb7e82a18e627" target="_top" xlink:title="main">
<polygon fill="white" stroke="black" points="670,-30 670,-49 708,-49 708,-30 670,-30"/>
<text text-anchor="middle" x="689" y="-37" font-family="Helvetica,sans-Serif" font-size="10.00">main</text>
</a>
</g>
</g>
<!-- Node99&#45;&gt;Node100 -->
<g id="edge4" class="edge"><title>Node99&#45;&gt;Node100</title>
<path fill="none" stroke="midnightblue" d="M644.161,-39.5C653.623,-39.5 662.462,-39.5 669.688,-39.5"/>
<polygon fill="midnightblue" stroke="midnightblue" points="644.117,-36.0001 634.117,-39.5 644.117,-43.0001 644.117,-36.0001"/>
</g>
<!-- Node101&#45;&gt;Node98 -->
<g id="edge6" class="edge"><title>Node101&#45;&gt;Node98</title>
<path fill="none" stroke="midnightblue" d="M304.275,-61.7742C312.855,-62.0424 321.548,-62.314 329.953,-62.5766"/>
<polygon fill="midnightblue" stroke="midnightblue" points="304.381,-58.2759 294.277,-61.4618 304.163,-65.2725 304.381,-58.2759"/>
</g>
<!-- Node102&#45;&gt;Node99 -->
<g id="edge8" class="edge"><title>Node102&#45;&gt;Node99</title>
<path fill="none" stroke="midnightblue" d="M465.227,-25.7468C475.044,-27.1492 485.09,-28.5842 494.812,-29.9731"/>
<polygon fill="midnightblue" stroke="midnightblue" points="465.498,-22.2499 455.103,-24.3004 464.508,-29.1796 465.498,-22.2499"/>
</g>
</g>
</svg>
