<?xml version="1.0" encoding="UTF-8" standalone="no"?>
<!DOCTYPE svg PUBLIC "-//W3C//DTD SVG 1.1//EN"
 "http://www.w3.org/Graphics/SVG/1.1/DTD/svg11.dtd">
<!-- Generated by graphviz version 2.38.0 (20140413.2041)
 -->
<!-- Title: vili::ViliParser::addFlag Pages: 1 -->
<svg width="730pt" height="110pt"
 viewBox="0.00 0.00 730.00 109.50" xmlns="http://www.w3.org/2000/svg" xmlns:xlink="http://www.w3.org/1999/xlink">
<g id="graph0" class="graph" transform="scale(1 1) rotate(0) translate(4 105.5)">
<title>vili::ViliParser::addFlag</title>
<!-- Node74 -->
<g id="node1" class="node"><title>Node74</title>
<polygon fill="#bfbfbf" stroke="black" points="0,-54.5 0,-73.5 116,-73.5 116,-54.5 0,-54.5"/>
<text text-anchor="middle" x="58" y="-61.5" font-family="Helvetica,sans-Serif" font-size="10.00">vili::ViliParser::addFlag</text>
</g>
<!-- Node75 -->
<g id="node2" class="node"><title>Node75</title>
<g id="a_node2"><a xlink:href="namespaceobe_1_1_bindings_1_1_vili_bindings.html#a2a6e6e94c5f087a6db0ede8023deb0c8" target="_top" xlink:title="obe::Bindings::ViliBindings\l::LoadViliViliParser">
<polygon fill="white" stroke="black" points="152,-71 152,-101 285,-101 285,-71 152,-71"/>
<text text-anchor="start" x="160" y="-89" font-family="Helvetica,sans-Serif" font-size="10.00">obe::Bindings::ViliBindings</text>
<text text-anchor="middle" x="218.5" y="-78" font-family="Helvetica,sans-Serif" font-size="10.00">::LoadViliViliParser</text>
</a>
</g>
</g>
<!-- Node74&#45;&gt;Node75 -->
<g id="edge1" class="edge"><title>Node74&#45;&gt;Node75</title>
<path fill="none" stroke="midnightblue" d="M126.362,-73.3499C134.77,-74.517 143.361,-75.7094 151.745,-76.8731"/>
<polygon fill="midnightblue" stroke="midnightblue" points="126.608,-69.8507 116.222,-71.9425 125.646,-76.7842 126.608,-69.8507"/>
</g>
<!-- Node78 -->
<g id="node5" class="node"><title>Node78</title>
<g id="a_node5"><a xlink:href="namespaceobe_1_1_modes.html#aba069f9abc42724d76690602326d6b7d" target="_top" xlink:title="obe::Modes::createLevel">
<polygon fill="white" stroke="black" points="157.5,-32.5 157.5,-51.5 279.5,-51.5 279.5,-32.5 157.5,-32.5"/>
<text text-anchor="middle" x="218.5" y="-39.5" font-family="Helvetica,sans-Serif" font-size="10.00">obe::Modes::createLevel</text>
</a>
</g>
</g>
<!-- Node74&#45;&gt;Node78 -->
<g id="edge4" class="edge"><title>Node74&#45;&gt;Node78</title>
<path fill="none" stroke="midnightblue" d="M126.409,-54.6436C136.713,-53.2134 147.29,-51.7452 157.423,-50.3388"/>
<polygon fill="midnightblue" stroke="midnightblue" points="125.646,-51.2158 116.222,-56.0575 126.608,-58.1493 125.646,-51.2158"/>
</g>
<!-- Node76 -->
<g id="node3" class="node"><title>Node76</title>
<g id="a_node3"><a xlink:href="namespaceobe_1_1_bindings.html#a41d33207a0199f125c75a0f70a4a3ba8" target="_top" xlink:title="To call when the engine starts, indexes all Lua bindings. ">
<polygon fill="white" stroke="black" points="505,-76.5 505,-95.5 648,-95.5 648,-76.5 505,-76.5"/>
<text text-anchor="middle" x="576.5" y="-83.5" font-family="Helvetica,sans-Serif" font-size="10.00">obe::Bindings::IndexBindings</text>
</a>
</g>
</g>
<!-- Node75&#45;&gt;Node76 -->
<g id="edge2" class="edge"><title>Node75&#45;&gt;Node76</title>
<path fill="none" stroke="midnightblue" d="M295.33,-86C357.369,-86 444.444,-86 504.991,-86"/>
<polygon fill="midnightblue" stroke="midnightblue" points="295.211,-82.5001 285.211,-86 295.211,-89.5001 295.211,-82.5001"/>
</g>
<!-- Node77 -->
<g id="node4" class="node"><title>Node77</title>
<g id="a_node4"><a xlink:href="_ob_engine_8cpp.html#a3c04138a5bfe5d72780bb7e82a18e627" target="_top" xlink:title="main">
<polygon fill="white" stroke="black" points="684,-38.5 684,-57.5 722,-57.5 722,-38.5 684,-38.5"/>
<text text-anchor="middle" x="703" y="-45.5" font-family="Helvetica,sans-Serif" font-size="10.00">main</text>
</a>
</g>
</g>
<!-- Node76&#45;&gt;Node77 -->
<g id="edge3" class="edge"><title>Node76&#45;&gt;Node77</title>
<path fill="none" stroke="midnightblue" d="M618.704,-73.4237C640.716,-66.7052 666.707,-58.772 683.73,-53.5764"/>
<polygon fill="midnightblue" stroke="midnightblue" points="617.459,-70.1441 608.917,-76.411 619.503,-76.8392 617.459,-70.1441"/>
</g>
<!-- Node79 -->
<g id="node6" class="node"><title>Node79</title>
<g id="a_node6"><a xlink:href="namespaceobe_1_1_modes.html#a3f3265818dfb12925bf614e517346f73" target="_top" xlink:title="Starts the menu used to chose a map to edit. ">
<polygon fill="white" stroke="black" points="321,-32.5 321,-51.5 469,-51.5 469,-32.5 321,-32.5"/>
<text text-anchor="middle" x="395" y="-39.5" font-family="Helvetica,sans-Serif" font-size="10.00">obe::Modes::chooseMapMenu</text>
</a>
</g>
</g>
<!-- Node78&#45;&gt;Node79 -->
<g id="edge5" class="edge"><title>Node78&#45;&gt;Node79</title>
<path fill="none" stroke="midnightblue" d="M289.689,-42C299.956,-42 310.551,-42 320.875,-42"/>
<polygon fill="midnightblue" stroke="midnightblue" points="289.553,-38.5001 279.553,-42 289.553,-45.5001 289.553,-38.5001"/>
</g>
<!-- Node79&#45;&gt;Node77 -->
<g id="edge8" class="edge"><title>Node79&#45;&gt;Node77</title>
<path fill="none" stroke="midnightblue" d="M479.464,-43.6366C549.678,-45.0133 644.709,-46.8766 683.928,-47.6456"/>
<polygon fill="midnightblue" stroke="midnightblue" points="479.361,-40.134 469.295,-43.4371 479.224,-47.1326 479.361,-40.134"/>
</g>
<!-- Node80 -->
<g id="node7" class="node"><title>Node80</title>
<g id="a_node7"><a xlink:href="namespaceobe_1_1_modes.html#a6a8b08eee511d4895c4da96d4ba223a6" target="_top" xlink:title="Starts the development Menu where you can starts other menus from. ">
<polygon fill="white" stroke="black" points="510,-0.5 510,-19.5 643,-19.5 643,-0.5 510,-0.5"/>
<text text-anchor="middle" x="576.5" y="-7.5" font-family="Helvetica,sans-Serif" font-size="10.00">obe::Modes::startDevMenu</text>
</a>
</g>
</g>
<!-- Node79&#45;&gt;Node80 -->
<g id="edge6" class="edge"><title>Node79&#45;&gt;Node80</title>
<path fill="none" stroke="midnightblue" d="M459.254,-30.7235C479.763,-27.0673 502.3,-23.0496 522.026,-19.533"/>
<polygon fill="midnightblue" stroke="midnightblue" points="458.6,-27.2848 449.37,-32.4856 459.829,-34.1761 458.6,-27.2848"/>
</g>
<!-- Node80&#45;&gt;Node77 -->
<g id="edge7" class="edge"><title>Node80&#45;&gt;Node77</title>
<path fill="none" stroke="midnightblue" d="M618.704,-22.5763C640.716,-29.2948 666.707,-37.228 683.73,-42.4236"/>
<polygon fill="midnightblue" stroke="midnightblue" points="619.503,-19.1608 608.917,-19.589 617.459,-25.8559 619.503,-19.1608"/>
</g>
</g>
</svg>
