<?xml version="1.0" encoding="UTF-8" standalone="no"?>
<!DOCTYPE svg PUBLIC "-//W3C//DTD SVG 1.1//EN"
 "http://www.w3.org/Graphics/SVG/1.1/DTD/svg11.dtd">
<!-- Generated by graphviz version 2.38.0 (20140413.2041)
 -->
<!-- Title: obe::Graphics::LevelSprite::load Pages: 1 -->
<svg width="580pt" height="186pt"
 viewBox="0.00 0.00 580.00 186.00" xmlns="http://www.w3.org/2000/svg" xmlns:xlink="http://www.w3.org/1999/xlink">
<g id="graph0" class="graph" transform="scale(1 1) rotate(0) translate(4 182)">
<title>obe::Graphics::LevelSprite::load</title>
<!-- Node129 -->
<g id="node1" class="node"><title>Node129</title>
<polygon fill="#bfbfbf" stroke="black" points="0,-95.5 0,-125.5 131,-125.5 131,-95.5 0,-95.5"/>
<text text-anchor="start" x="8" y="-113.5" font-family="Helvetica,sans-Serif" font-size="10.00">obe::Graphics::LevelSprite</text>
<text text-anchor="middle" x="65.5" y="-102.5" font-family="Helvetica,sans-Serif" font-size="10.00">::load</text>
</g>
<!-- Node130 -->
<g id="node2" class="node"><title>Node130</title>
<g id="a_node2"><a xlink:href="classobe_1_1_system_1_1_path.html#a096ad4fa7397aa42fd73661b08f50e2a" target="_top" xlink:title="obe::System::Path::\lloadResource">
<polygon fill="white" stroke="black" points="167,-95.5 167,-125.5 271,-125.5 271,-95.5 167,-95.5"/>
<text text-anchor="start" x="175" y="-113.5" font-family="Helvetica,sans-Serif" font-size="10.00">obe::System::Path::</text>
<text text-anchor="middle" x="219" y="-102.5" font-family="Helvetica,sans-Serif" font-size="10.00">loadResource</text>
</a>
</g>
</g>
<!-- Node129&#45;&gt;Node130 -->
<g id="edge1" class="edge"><title>Node129&#45;&gt;Node130</title>
<path fill="none" stroke="midnightblue" d="M131.189,-110.5C139.651,-110.5 148.302,-110.5 156.705,-110.5"/>
<polygon fill="midnightblue" stroke="midnightblue" points="156.805,-114 166.805,-110.5 156.805,-107 156.805,-114"/>
</g>
<!-- Node131 -->
<g id="node3" class="node"><title>Node131</title>
<g id="a_node3"><a xlink:href="namespaceobe_1_1_utils_1_1_file.html#a1095626f5495edc7b8692073dd25cceb" target="_top" xlink:title="Check if the file at the given path exists. ">
<polygon fill="white" stroke="black" points="307,-123 307,-142 432,-142 432,-123 307,-123"/>
<text text-anchor="middle" x="369.5" y="-130" font-family="Helvetica,sans-Serif" font-size="10.00">obe::Utils::File::fileExists</text>
</a>
</g>
</g>
<!-- Node130&#45;&gt;Node131 -->
<g id="edge2" class="edge"><title>Node130&#45;&gt;Node131</title>
<path fill="none" stroke="midnightblue" d="M271.105,-118.071C279.367,-119.295 288.053,-120.582 296.695,-121.862"/>
<polygon fill="midnightblue" stroke="midnightblue" points="296.386,-125.355 306.791,-123.358 297.412,-118.43 296.386,-125.355"/>
</g>
<!-- Node132 -->
<g id="node4" class="node"><title>Node132</title>
<g id="a_node4"><a xlink:href="classaube_1_1_error_handler.html#a7c8d44a3e7f019646d289950abc5301b" target="_top" xlink:title="Raises an Error loaded in the Aube Error Database (AED) ">
<polygon fill="white" stroke="black" points="320.5,-73.5 320.5,-103.5 418.5,-103.5 418.5,-73.5 320.5,-73.5"/>
<text text-anchor="start" x="328.5" y="-91.5" font-family="Helvetica,sans-Serif" font-size="10.00">aube::ErrorHandler</text>
<text text-anchor="middle" x="369.5" y="-80.5" font-family="Helvetica,sans-Serif" font-size="10.00">::Raise</text>
</a>
</g>
</g>
<!-- Node130&#45;&gt;Node132 -->
<g id="edge3" class="edge"><title>Node130&#45;&gt;Node132</title>
<path fill="none" stroke="midnightblue" d="M271.105,-102.929C283.683,-101.065 297.246,-99.0561 310.138,-97.1462"/>
<polygon fill="midnightblue" stroke="midnightblue" points="310.923,-100.568 320.302,-95.6404 309.897,-93.6438 310.923,-100.568"/>
</g>
<!-- Node133 -->
<g id="node5" class="node"><title>Node133</title>
<g id="a_node5"><a xlink:href="classaube_1_1_error_message.html#a3a39b6fcd8fdb12eaf6383123535b8ca" target="_top" xlink:title="Gets the File where is located the ErrorMessage when raised. ">
<polygon fill="white" stroke="black" points="468,-147.5 468,-177.5 572,-177.5 572,-147.5 468,-147.5"/>
<text text-anchor="start" x="476" y="-165.5" font-family="Helvetica,sans-Serif" font-size="10.00">aube::ErrorMessage</text>
<text text-anchor="middle" x="520" y="-154.5" font-family="Helvetica,sans-Serif" font-size="10.00">::getFile</text>
</a>
</g>
</g>
<!-- Node132&#45;&gt;Node133 -->
<g id="edge4" class="edge"><title>Node132&#45;&gt;Node133</title>
<path fill="none" stroke="midnightblue" d="M411.119,-103.523C418.206,-106.563 425.413,-109.931 432,-113.5 449.127,-122.78 451.128,-128.763 468,-138.5 470.503,-139.944 473.107,-141.375 475.756,-142.776"/>
<polygon fill="midnightblue" stroke="midnightblue" points="474.35,-145.987 484.85,-147.399 477.522,-139.747 474.35,-145.987"/>
</g>
<!-- Node134 -->
<g id="node6" class="node"><title>Node134</title>
<g id="a_node6"><a xlink:href="classaube_1_1_error_message.html#a9184cc96589578f434351c105b0cd5f7" target="_top" xlink:title="Gets the location of the error in the code. ">
<polygon fill="white" stroke="black" points="468,-98.5 468,-128.5 572,-128.5 572,-98.5 468,-98.5"/>
<text text-anchor="start" x="476" y="-116.5" font-family="Helvetica,sans-Serif" font-size="10.00">aube::ErrorMessage</text>
<text text-anchor="middle" x="520" y="-105.5" font-family="Helvetica,sans-Serif" font-size="10.00">::getLocation</text>
</a>
</g>
</g>
<!-- Node132&#45;&gt;Node134 -->
<g id="edge5" class="edge"><title>Node132&#45;&gt;Node134</title>
<path fill="none" stroke="midnightblue" d="M418.714,-96.6168C431.266,-98.73 444.956,-101.035 458.072,-103.243"/>
<polygon fill="midnightblue" stroke="midnightblue" points="457.519,-106.699 467.961,-104.908 458.681,-99.796 457.519,-106.699"/>
</g>
<!-- Node135 -->
<g id="node7" class="node"><title>Node135</title>
<g id="a_node7"><a xlink:href="classaube_1_1_error_message.html#a07927cb3e2d0712c459cc9e2b5f52696" target="_top" xlink:title="Gets the message displayed by the ErrorMessage when raised. ">
<polygon fill="white" stroke="black" points="468,-49.5 468,-79.5 572,-79.5 572,-49.5 468,-49.5"/>
<text text-anchor="start" x="476" y="-67.5" font-family="Helvetica,sans-Serif" font-size="10.00">aube::ErrorMessage</text>
<text text-anchor="middle" x="520" y="-56.5" font-family="Helvetica,sans-Serif" font-size="10.00">::getMessage</text>
</a>
</g>
</g>
<!-- Node132&#45;&gt;Node135 -->
<g id="edge6" class="edge"><title>Node132&#45;&gt;Node135</title>
<path fill="none" stroke="midnightblue" d="M418.714,-80.7079C431.266,-78.6792 444.956,-76.4668 458.072,-74.347"/>
<polygon fill="midnightblue" stroke="midnightblue" points="458.648,-77.7994 467.961,-72.7487 457.531,-70.8891 458.648,-77.7994"/>
</g>
<!-- Node136 -->
<g id="node8" class="node"><title>Node136</title>
<g id="a_node8"><a xlink:href="classaube_1_1_error_message.html#a77c2f9b7e93542c958173b52da267989" target="_top" xlink:title="Gets hints that can help the error resolution. ">
<polygon fill="white" stroke="black" points="468,-0.5 468,-30.5 572,-30.5 572,-0.5 468,-0.5"/>
<text text-anchor="start" x="476" y="-18.5" font-family="Helvetica,sans-Serif" font-size="10.00">aube::ErrorMessage</text>
<text text-anchor="middle" x="520" y="-7.5" font-family="Helvetica,sans-Serif" font-size="10.00">::getHints</text>
</a>
</g>
</g>
<!-- Node132&#45;&gt;Node136 -->
<g id="edge7" class="edge"><title>Node132&#45;&gt;Node136</title>
<path fill="none" stroke="midnightblue" d="M401.232,-73.3537C420.423,-63.8996 445.647,-51.481 468,-40.5 471.582,-38.7405 475.305,-36.9125 479.037,-35.0817"/>
<polygon fill="midnightblue" stroke="midnightblue" points="480.814,-38.1083 488.251,-30.5624 477.732,-31.8235 480.814,-38.1083"/>
</g>
</g>
</svg>
