<?xml version="1.0" encoding="UTF-8" standalone="no"?>
<!DOCTYPE svg PUBLIC "-//W3C//DTD SVG 1.1//EN"
 "http://www.w3.org/Graphics/SVG/1.1/DTD/svg11.dtd">
<!-- Generated by graphviz version 2.38.0 (20140413.2041)
 -->
<!-- Title: obe::Collision::PolygonalCollider::getAllTags Pages: 1 -->
<!--zoomable 197 -->
<svg id="main" version="1.1" xmlns="http://www.w3.org/2000/svg" xmlns:xlink="http://www.w3.org/1999/xlink" xml:space="preserve" onload="init(evt)">
<style type="text/css"><![CDATA[
.edge:hover path { stroke: red; }
.edge:hover polygon { stroke: red; fill: red; }
.edge path { stroke: white; }
.edge polygon { stroke: white; fill: white; }
.node polygon { fill: white; }
]]></style>
<script type="text/javascript"><![CDATA[
var edges = document.getElementsByTagName('g');
if (edges && edges.length) {
  for (var i=0;i<edges.length;i++) {
    if (edges[i].id.substr(0,4)=='edge') {
      edges[i].setAttribute('class','edge');
    }
  }
}
]]></script>
        <defs>
                <circle id="rim" cx="0" cy="0" r="7"/>
                <circle id="rim2" cx="0" cy="0" r="3.5"/>
                <g id="zoomPlus">
                        <use xlink:href="#rim" fill="#404040">
                                <set attributeName="fill" to="#808080" begin="zoomplus.mouseover" end="zoomplus.mouseout"/>
                        </use>
                        <path d="M-4,0h8M0,-4v8" fill="none" stroke="white" stroke-width="1.5" pointer-events="none"/>
                </g>
                <g id="zoomMin">
                        <use xlink:href="#rim" fill="#404040">
                                <set attributeName="fill" to="#808080" begin="zoomminus.mouseover" end="zoomminus.mouseout"/>
                        </use>
                        <path d="M-4,0h8" fill="none" stroke="white" stroke-width="1.5" pointer-events="none"/>
                </g>
                <g id="dirArrow">
                        <path fill="none" stroke="white" stroke-width="1.5" d="M0,-3.0v7 M-2.5,-0.5L0,-3.0L2.5,-0.5"/>
                </g>
               <g id="resetDef">
                       <use xlink:href="#rim2" fill="#404040">
                               <set attributeName="fill" to="#808080" begin="reset.mouseover" end="reset.mouseout"/>
                       </use>
               </g>
        </defs>

<script type="text/javascript">
var viewWidth = 1695;
var viewHeight = 197;
var sectionId = 'dynsection-30';
</script>
<script xlink:href="svgpan.js"/>
<svg id="graph" class="graph">
<g id="viewport">
<title>obe::Collision::PolygonalCollider::getAllTags</title>
<!-- Node308 -->
<g id="node1" class="node"><title>Node308</title>
<polygon fill="#bfbfbf" stroke="black" points="0,-63.5 0,-93.5 124,-93.5 124,-63.5 0,-63.5"/>
<text text-anchor="start" x="8" y="-81.5" font-family="Helvetica,sans-Serif" font-size="10.00">obe::Collision::Polygonal</text>
<text text-anchor="middle" x="62" y="-70.5" font-family="Helvetica,sans-Serif" font-size="10.00">Collider::getAllTags</text>
</g>
<!-- Node309 -->
<g id="node2" class="node"><title>Node309</title>
<g id="a_node2"><a xlink:href="classobe_1_1_collision_1_1_polygonal_collider.html#a77d1bcd6dee0f06683bfbffefca58206" target="_top" xlink:title="obe::Collision::Polygonal\lCollider::doesCollide">
<polygon fill="white" stroke="black" points="160,-63.5 160,-93.5 284,-93.5 284,-63.5 160,-63.5"/>
<text text-anchor="start" x="168" y="-81.5" font-family="Helvetica,sans-Serif" font-size="10.00">obe::Collision::Polygonal</text>
<text text-anchor="middle" x="222" y="-70.5" font-family="Helvetica,sans-Serif" font-size="10.00">Collider::doesCollide</text>
</a>
</g>
</g>
<!-- Node308&#45;&gt;Node309 -->
<g id="edge1" class="edge"><title>Node308&#45;&gt;Node309</title>
<path fill="none" stroke="midnightblue" d="M134.366,-78.5C142.863,-78.5 151.478,-78.5 159.815,-78.5"/>
<polygon fill="midnightblue" stroke="midnightblue" points="134.087,-75.0001 124.087,-78.5 134.087,-82.0001 134.087,-75.0001"/>
</g>
<!-- Node310 -->
<g id="node3" class="node"><title>Node310</title>
<g id="a_node3"><a xlink:href="classobe_1_1_collision_1_1_polygonal_collider.html#af37dad690ea1c82c605761b1d6218d14" target="_top" xlink:title="obe::Collision::Polygonal\lCollider::testAllColliders">
<polygon fill="white" stroke="black" points="334,-107.5 334,-137.5 458,-137.5 458,-107.5 334,-107.5"/>
<text text-anchor="start" x="342" y="-125.5" font-family="Helvetica,sans-Serif" font-size="10.00">obe::Collision::Polygonal</text>
<text text-anchor="middle" x="396" y="-114.5" font-family="Helvetica,sans-Serif" font-size="10.00">Collider::testAllColliders</text>
</a>
</g>
</g>
<!-- Node309&#45;&gt;Node310 -->
<g id="edge2" class="edge"><title>Node309&#45;&gt;Node310</title>
<path fill="none" stroke="midnightblue" d="M291.777,-96.0941C306.511,-99.8632 321.948,-103.812 336.261,-107.474"/>
<polygon fill="midnightblue" stroke="midnightblue" points="292.267,-92.6068 281.712,-93.5192 290.532,-99.3885 292.267,-92.6068"/>
</g>
<!-- Node312 -->
<g id="node5" class="node"><title>Node312</title>
<g id="a_node5"><a xlink:href="namespaceobe_1_1_script_1_1_core_lib.html#a07d6c11bbb082bc45bdba50d97965c00" target="_top" xlink:title="obe::Script::CoreLib\l::loadCollision">
<polygon fill="white" stroke="black" points="690,-82.5 690,-112.5 793,-112.5 793,-82.5 690,-82.5"/>
<text text-anchor="start" x="698" y="-100.5" font-family="Helvetica,sans-Serif" font-size="10.00">obe::Script::CoreLib</text>
<text text-anchor="middle" x="741.5" y="-89.5" font-family="Helvetica,sans-Serif" font-size="10.00">::loadCollision</text>
</a>
</g>
</g>
<!-- Node309&#45;&gt;Node312 -->
<g id="edge23" class="edge"><title>Node309&#45;&gt;Node312</title>
<path fill="none" stroke="midnightblue" d="M294.438,-81.1228C400.603,-85.0207 597.418,-92.2467 689.946,-95.6439"/>
<polygon fill="midnightblue" stroke="midnightblue" points="294.262,-77.6141 284.141,-80.7448 294.006,-84.6094 294.262,-77.6141"/>
</g>
<!-- Node324 -->
<g id="node17" class="node"><title>Node324</title>
<g id="a_node17"><a xlink:href="classobe_1_1_collision_1_1_polygonal_collider.html#ab7fc1d109efbb78e3eca2a9427038986" target="_top" xlink:title="obe::Collision::Polygonal\lCollider::getAllCollidedColliders">
<polygon fill="white" stroke="black" points="320,-17.5 320,-47.5 472,-47.5 472,-17.5 320,-17.5"/>
<text text-anchor="start" x="328" y="-35.5" font-family="Helvetica,sans-Serif" font-size="10.00">obe::Collision::Polygonal</text>
<text text-anchor="middle" x="396" y="-24.5" font-family="Helvetica,sans-Serif" font-size="10.00">Collider::getAllCollidedColliders</text>
</a>
</g>
</g>
<!-- Node309&#45;&gt;Node324 -->
<g id="edge20" class="edge"><title>Node309&#45;&gt;Node324</title>
<path fill="none" stroke="midnightblue" d="M289.345,-60.7566C305.691,-56.385 323.038,-51.7457 338.848,-47.5174"/>
<polygon fill="midnightblue" stroke="midnightblue" points="288.075,-57.473 279.319,-63.4379 289.884,-64.2354 288.075,-57.473"/>
</g>
<!-- Node311 -->
<g id="node4" class="node"><title>Node311</title>
<g id="a_node4"><a xlink:href="classobe_1_1_collision_1_1_polygonal_collider.html#a6b5ab1cbbddae72504f9a62fd6f7176e" target="_top" xlink:title="obe::Collision::Polygonal\lCollider::doesCollideWithTags">
<polygon fill="white" stroke="black" points="508,-145.5 508,-175.5 654,-175.5 654,-145.5 508,-145.5"/>
<text text-anchor="start" x="516" y="-163.5" font-family="Helvetica,sans-Serif" font-size="10.00">obe::Collision::Polygonal</text>
<text text-anchor="middle" x="581" y="-152.5" font-family="Helvetica,sans-Serif" font-size="10.00">Collider::doesCollideWithTags</text>
</a>
</g>
</g>
<!-- Node310&#45;&gt;Node311 -->
<g id="edge3" class="edge"><title>Node310&#45;&gt;Node311</title>
<path fill="none" stroke="midnightblue" d="M468.03,-137.249C481.07,-139.957 494.695,-142.786 507.77,-145.501"/>
<polygon fill="midnightblue" stroke="midnightblue" points="468.694,-133.813 458.191,-135.206 467.27,-140.666 468.694,-133.813"/>
</g>
<!-- Node310&#45;&gt;Node312 -->
<g id="edge19" class="edge"><title>Node310&#45;&gt;Node312</title>
<path fill="none" stroke="midnightblue" d="M468.358,-117.307C534.509,-112.492 631.276,-105.449 689.83,-101.188"/>
<polygon fill="midnightblue" stroke="midnightblue" points="467.735,-113.843 458.015,-118.059 468.243,-120.824 467.735,-113.843"/>
</g>
<!-- Node311&#45;&gt;Node312 -->
<g id="edge4" class="edge"><title>Node311&#45;&gt;Node312</title>
<path fill="none" stroke="midnightblue" d="M629.355,-141.677C652.753,-132.377 680.602,-121.308 702.571,-112.576"/>
<polygon fill="midnightblue" stroke="midnightblue" points="627.965,-138.464 619.965,-145.41 630.55,-144.969 627.965,-138.464"/>
</g>
<!-- Node313 -->
<g id="node6" class="node"><title>Node313</title>
<g id="a_node6"><a xlink:href="namespaceobe_1_1_script.html#a633c629c5a54da2b5d4930730983121c" target="_top" xlink:title="obe::Script::loadCoreLib">
<polygon fill="white" stroke="black" points="829,-88 829,-107 950,-107 950,-88 829,-88"/>
<text text-anchor="middle" x="889.5" y="-95" font-family="Helvetica,sans-Serif" font-size="10.00">obe::Script::loadCoreLib</text>
</a>
</g>
</g>
<!-- Node312&#45;&gt;Node313 -->
<g id="edge5" class="edge"><title>Node312&#45;&gt;Node313</title>
<path fill="none" stroke="midnightblue" d="M803.328,-97.5C811.785,-97.5 820.467,-97.5 828.902,-97.5"/>
<polygon fill="midnightblue" stroke="midnightblue" points="803.154,-94.0001 793.154,-97.5 803.154,-101 803.154,-94.0001"/>
</g>
<!-- Node314 -->
<g id="node7" class="node"><title>Node314</title>
<g id="a_node7"><a xlink:href="namespaceobe_1_1_script.html#a4e6ee77032cf7f66544f9b08464a60b7" target="_top" xlink:title="obe::Script::loadLib">
<polygon fill="white" stroke="black" points="986,-88 986,-107 1087,-107 1087,-88 986,-88"/>
<text text-anchor="middle" x="1036.5" y="-95" font-family="Helvetica,sans-Serif" font-size="10.00">obe::Script::loadLib</text>
</a>
</g>
</g>
<!-- Node313&#45;&gt;Node314 -->
<g id="edge6" class="edge"><title>Node313&#45;&gt;Node314</title>
<path fill="none" stroke="midnightblue" d="M960.401,-97.5C969.037,-97.5 977.723,-97.5 985.967,-97.5"/>
<polygon fill="midnightblue" stroke="midnightblue" points="960.314,-94.0001 950.314,-97.5 960.314,-101 960.314,-94.0001"/>
</g>
<!-- Node315 -->
<g id="node8" class="node"><title>Node315</title>
<g id="a_node8"><a xlink:href="namespaceobe_1_1_script.html#a5e992c0efb0543e7c934bc1065f08b01" target="_top" xlink:title="obe::Script::loadLibBridge">
<polygon fill="white" stroke="black" points="1128.5,-164 1128.5,-183 1256.5,-183 1256.5,-164 1128.5,-164"/>
<text text-anchor="middle" x="1192.5" y="-171" font-family="Helvetica,sans-Serif" font-size="10.00">obe::Script::loadLibBridge</text>
</a>
</g>
</g>
<!-- Node314&#45;&gt;Node315 -->
<g id="edge7" class="edge"><title>Node314&#45;&gt;Node315</title>
<path fill="none" stroke="midnightblue" d="M1057.15,-113.245C1073.82,-125.936 1098.83,-143.434 1123,-154.5 1131.08,-158.198 1140.03,-161.319 1148.73,-163.895"/>
<polygon fill="midnightblue" stroke="midnightblue" points="1059.28,-110.471 1049.24,-107.105 1054.99,-116.001 1059.28,-110.471"/>
</g>
<!-- Node318 -->
<g id="node11" class="node"><title>Node318</title>
<g id="a_node11"><a xlink:href="namespaceobe_1_1_script.html#aad6ef67388e6d16eb01853f208da410f" target="_top" xlink:title="obe::Script::loadBaseLib">
<polygon fill="white" stroke="black" points="1131,-126 1131,-145 1254,-145 1254,-126 1131,-126"/>
<text text-anchor="middle" x="1192.5" y="-133" font-family="Helvetica,sans-Serif" font-size="10.00">obe::Script::loadBaseLib</text>
</a>
</g>
</g>
<!-- Node314&#45;&gt;Node318 -->
<g id="edge10" class="edge"><title>Node314&#45;&gt;Node318</title>
<path fill="none" stroke="midnightblue" d="M1086.29,-109.54C1107.81,-114.849 1132.73,-120.999 1152.92,-125.98"/>
<polygon fill="midnightblue" stroke="midnightblue" points="1086.91,-106.087 1076.36,-107.089 1085.23,-112.883 1086.91,-106.087"/>
</g>
<!-- Node319 -->
<g id="node12" class="node"><title>Node319</title>
<g id="a_node12"><a xlink:href="namespaceobe_1_1_modes.html#a1e38c0d9a2ca0230f0de79c298f53ab9" target="_top" xlink:title="A mode that will start the Toolkit. ">
<polygon fill="white" stroke="black" points="1298,-96 1298,-115 1444,-115 1444,-96 1298,-96"/>
<text text-anchor="middle" x="1371" y="-103" font-family="Helvetica,sans-Serif" font-size="10.00">obe::Modes::startToolkitMode</text>
</a>
</g>
</g>
<!-- Node314&#45;&gt;Node319 -->
<g id="edge15" class="edge"><title>Node314&#45;&gt;Node319</title>
<path fill="none" stroke="midnightblue" d="M1097.44,-98.9421C1153.64,-100.294 1237.78,-102.319 1297.69,-103.76"/>
<polygon fill="midnightblue" stroke="midnightblue" points="1097.36,-95.4393 1087.28,-98.6977 1097.19,-102.437 1097.36,-95.4393"/>
</g>
<!-- Node322 -->
<g id="node15" class="node"><title>Node322</title>
<g id="a_node15"><a xlink:href="classobe_1_1_world_1_1_world.html#a5bd621e3fd9293d949ad0c669cee6838" target="_top" xlink:title="obe::World::World::\lWorld">
<polygon fill="white" stroke="black" points="1320.5,-27.5 1320.5,-57.5 1421.5,-57.5 1421.5,-27.5 1320.5,-27.5"/>
<text text-anchor="start" x="1328.5" y="-45.5" font-family="Helvetica,sans-Serif" font-size="10.00">obe::World::World::</text>
<text text-anchor="middle" x="1371" y="-34.5" font-family="Helvetica,sans-Serif" font-size="10.00">World</text>
</a>
</g>
</g>
<!-- Node314&#45;&gt;Node322 -->
<g id="edge16" class="edge"><title>Node314&#45;&gt;Node322</title>
<path fill="none" stroke="midnightblue" d="M1097.19,-87.6266C1160.95,-77.0802 1260.84,-60.5558 1320.42,-50.7004"/>
<polygon fill="midnightblue" stroke="midnightblue" points="1096.57,-84.1808 1087.28,-89.2659 1097.72,-91.087 1096.57,-84.1808"/>
</g>
<!-- Node323 -->
<g id="node16" class="node"><title>Node323</title>
<g id="a_node16"><a xlink:href="namespaceobe_1_1_world.html#afc958184e59524fdf9dc6ba98a1e9a37" target="_top" xlink:title="obe::World::loadWorldScript\lEngineBaseLib">
<polygon fill="white" stroke="black" points="1123,-0.5 1123,-30.5 1262,-30.5 1262,-0.5 1123,-0.5"/>
<text text-anchor="start" x="1131" y="-18.5" font-family="Helvetica,sans-Serif" font-size="10.00">obe::World::loadWorldScript</text>
<text text-anchor="middle" x="1192.5" y="-7.5" font-family="Helvetica,sans-Serif" font-size="10.00">EngineBaseLib</text>
</a>
</g>
</g>
<!-- Node314&#45;&gt;Node323 -->
<g id="edge17" class="edge"><title>Node314&#45;&gt;Node323</title>
<path fill="none" stroke="midnightblue" d="M1060.64,-82.2687C1077.57,-71.4107 1101.28,-56.7959 1123,-45.5 1133.02,-40.2881 1144.14,-35.1539 1154.46,-30.6464"/>
<polygon fill="midnightblue" stroke="midnightblue" points="1058.48,-79.4976 1051.98,-87.8694 1062.28,-85.3741 1058.48,-79.4976"/>
</g>
<!-- Node316 -->
<g id="node9" class="node"><title>Node316</title>
<g id="a_node9"><a xlink:href="namespaceobe_1_1_script.html#a5dc8321da50fd4b5dc2935e4d8c93a4e" target="_top" xlink:title="obe::Script::loadScrGame\lObject">
<polygon fill="white" stroke="black" points="1306.5,-158.5 1306.5,-188.5 1435.5,-188.5 1435.5,-158.5 1306.5,-158.5"/>
<text text-anchor="start" x="1314.5" y="-176.5" font-family="Helvetica,sans-Serif" font-size="10.00">obe::Script::loadScrGame</text>
<text text-anchor="middle" x="1371" y="-165.5" font-family="Helvetica,sans-Serif" font-size="10.00">Object</text>
</a>
</g>
</g>
<!-- Node315&#45;&gt;Node316 -->
<g id="edge8" class="edge"><title>Node315&#45;&gt;Node316</title>
<path fill="none" stroke="midnightblue" d="M1267.06,-173.5C1280.11,-173.5 1293.59,-173.5 1306.33,-173.5"/>
<polygon fill="midnightblue" stroke="midnightblue" points="1266.72,-170 1256.72,-173.5 1266.72,-177 1266.72,-170"/>
</g>
<!-- Node317 -->
<g id="node10" class="node"><title>Node317</title>
<g id="a_node10"><a xlink:href="classobe_1_1_script_1_1_game_object.html#aa0d58bd1ef0fa2fe9f7567729b2d291e" target="_top" xlink:title="obe::Script::GameObject\l::loadGameObject">
<polygon fill="white" stroke="black" points="1484,-158.5 1484,-188.5 1609,-188.5 1609,-158.5 1484,-158.5"/>
<text text-anchor="start" x="1492" y="-176.5" font-family="Helvetica,sans-Serif" font-size="10.00">obe::Script::GameObject</text>
<text text-anchor="middle" x="1546.5" y="-165.5" font-family="Helvetica,sans-Serif" font-size="10.00">::loadGameObject</text>
</a>
</g>
</g>
<!-- Node316&#45;&gt;Node317 -->
<g id="edge9" class="edge"><title>Node316&#45;&gt;Node317</title>
<path fill="none" stroke="midnightblue" d="M1445.72,-173.5C1458.44,-173.5 1471.55,-173.5 1483.91,-173.5"/>
<polygon fill="midnightblue" stroke="midnightblue" points="1445.62,-170 1435.62,-173.5 1445.62,-177 1445.62,-170"/>
</g>
<!-- Node318&#45;&gt;Node319 -->
<g id="edge11" class="edge"><title>Node318&#45;&gt;Node319</title>
<path fill="none" stroke="midnightblue" d="M1260.1,-124.18C1277.83,-121.166 1296.8,-117.942 1313.9,-115.035"/>
<polygon fill="midnightblue" stroke="midnightblue" points="1259.1,-120.799 1249.83,-125.925 1260.28,-127.7 1259.1,-120.799"/>
</g>
<!-- Node320 -->
<g id="node13" class="node"><title>Node320</title>
<g id="a_node13"><a xlink:href="namespaceobe_1_1_modes.html#a6a8b08eee511d4895c4da96d4ba223a6" target="_top" xlink:title="obe::Modes::startDevMenu">
<polygon fill="white" stroke="black" points="1480,-104 1480,-123 1613,-123 1613,-104 1480,-104"/>
<text text-anchor="middle" x="1546.5" y="-111" font-family="Helvetica,sans-Serif" font-size="10.00">obe::Modes::startDevMenu</text>
</a>
</g>
</g>
<!-- Node319&#45;&gt;Node320 -->
<g id="edge12" class="edge"><title>Node319&#45;&gt;Node320</title>
<path fill="none" stroke="midnightblue" d="M1454.12,-109.286C1462.72,-109.683 1471.37,-110.082 1479.76,-110.469"/>
<polygon fill="midnightblue" stroke="midnightblue" points="1454.22,-105.788 1444.07,-108.823 1453.9,-112.78 1454.22,-105.788"/>
</g>
<!-- Node321 -->
<g id="node14" class="node"><title>Node321</title>
<g id="a_node14"><a xlink:href="_ob_engine_8cpp.html#a3c04138a5bfe5d72780bb7e82a18e627" target="_top" xlink:title="main">
<polygon fill="white" stroke="black" points="1649,-85 1649,-104 1687,-104 1687,-85 1649,-85"/>
<text text-anchor="middle" x="1668" y="-92" font-family="Helvetica,sans-Serif" font-size="10.00">main</text>
</a>
</g>
</g>
<!-- Node319&#45;&gt;Node321 -->
<g id="edge14" class="edge"><title>Node319&#45;&gt;Node321</title>
<path fill="none" stroke="midnightblue" d="M1454.37,-96.2384C1463.01,-95.5273 1471.68,-94.9226 1480,-94.5 1541.93,-91.3544 1615.54,-92.9026 1648.93,-93.8916"/>
<polygon fill="midnightblue" stroke="midnightblue" points="1453.91,-92.765 1444.25,-97.1177 1454.51,-99.7387 1453.91,-92.765"/>
</g>
<!-- Node320&#45;&gt;Node321 -->
<g id="edge13" class="edge"><title>Node320&#45;&gt;Node321</title>
<path fill="none" stroke="midnightblue" d="M1617.82,-102.319C1629.35,-100.487 1640.33,-98.7409 1648.98,-97.3654"/>
<polygon fill="midnightblue" stroke="midnightblue" points="1616.93,-98.9174 1607.6,-103.944 1618.03,-105.831 1616.93,-98.9174"/>
</g>
<!-- Node323&#45;&gt;Node322 -->
<g id="edge18" class="edge"><title>Node323&#45;&gt;Node322</title>
<path fill="none" stroke="midnightblue" d="M1272.32,-27.558C1288.63,-30.0528 1305.38,-32.6142 1320.29,-34.8959"/>
<polygon fill="midnightblue" stroke="midnightblue" points="1272.66,-24.0687 1262.24,-26.0162 1271.6,-30.9882 1272.66,-24.0687"/>
</g>
<!-- Node325 -->
<g id="node18" class="node"><title>Node325</title>
<g id="a_node18"><a xlink:href="classobe_1_1_collision_1_1_polygonal_collider.html#a630d6b76f8b33c836dbc302d3e7a499f" target="_top" xlink:title="obe::Collision::Polygonal\lCollider::getCollidedColliders\lWithTags">
<polygon fill="white" stroke="black" points="511,-9 511,-50 651,-50 651,-9 511,-9"/>
<text text-anchor="start" x="519" y="-38" font-family="Helvetica,sans-Serif" font-size="10.00">obe::Collision::Polygonal</text>
<text text-anchor="start" x="519" y="-27" font-family="Helvetica,sans-Serif" font-size="10.00">Collider::getCollidedColliders</text>
<text text-anchor="middle" x="581" y="-16" font-family="Helvetica,sans-Serif" font-size="10.00">WithTags</text>
</a>
</g>
</g>
<!-- Node324&#45;&gt;Node325 -->
<g id="edge21" class="edge"><title>Node324&#45;&gt;Node325</title>
<path fill="none" stroke="midnightblue" d="M482.511,-31.0982C492.04,-30.942 501.656,-30.7843 510.943,-30.6321"/>
<polygon fill="midnightblue" stroke="midnightblue" points="482.167,-27.6033 472.225,-31.2668 482.281,-34.6023 482.167,-27.6033"/>
</g>
<!-- Node325&#45;&gt;Node312 -->
<g id="edge22" class="edge"><title>Node325&#45;&gt;Node312</title>
<path fill="none" stroke="midnightblue" d="M639.27,-54.0699C661.337,-63.5375 685.874,-74.0644 705.264,-82.3829"/>
<polygon fill="midnightblue" stroke="midnightblue" points="640.555,-50.813 629.985,-50.0868 637.795,-57.246 640.555,-50.813"/>
</g>
</g>
</svg>
        <g id="navigator" transform="translate(0 0)" fill="#404254">
                <rect fill="#f2f5e9" fill-opacity="0.5" stroke="#606060" stroke-width=".5" x="0" y="0" width="60" height="60"/>
                <use id="zoomplus" xlink:href="#zoomPlus" x="17" y="9" onmousedown="handleZoom(evt,'in')"/>
                <use id="zoomminus" xlink:href="#zoomMin" x="42" y="9" onmousedown="handleZoom(evt,'out')"/>
                <use id="reset" xlink:href="#resetDef" x="30" y="36" onmousedown="handleReset()"/>
                <g id="arrowUp" xlink:href="#dirArrow" transform="translate(30 24)" onmousedown="handlePan(0,-1)">
                  <use xlink:href="#rim" fill="#404040">
                        <set attributeName="fill" to="#808080" begin="arrowUp.mouseover" end="arrowUp.mouseout"/>
                  </use>
                  <path fill="none" stroke="white" stroke-width="1.5" d="M0,-3.0v7 M-2.5,-0.5L0,-3.0L2.5,-0.5"/>
                </g>
                <g id="arrowRight" xlink:href="#dirArrow" transform="rotate(90) translate(36 -43)" onmousedown="handlePan(1,0)">
                  <use xlink:href="#rim" fill="#404040">
                        <set attributeName="fill" to="#808080" begin="arrowRight.mouseover" end="arrowRight.mouseout"/>
                  </use>
                  <path fill="none" stroke="white" stroke-width="1.5" d="M0,-3.0v7 M-2.5,-0.5L0,-3.0L2.5,-0.5"/>
                </g>
                <g id="arrowDown" xlink:href="#dirArrow" transform="rotate(180) translate(-30 -48)" onmousedown="handlePan(0,1)">
                  <use xlink:href="#rim" fill="#404040">
                        <set attributeName="fill" to="#808080" begin="arrowDown.mouseover" end="arrowDown.mouseout"/>
                  </use>
                  <path fill="none" stroke="white" stroke-width="1.5" d="M0,-3.0v7 M-2.5,-0.5L0,-3.0L2.5,-0.5"/>
                </g>
                <g id="arrowLeft" xlink:href="#dirArrow" transform="rotate(270) translate(-36 17)" onmousedown="handlePan(-1,0)">
                  <use xlink:href="#rim" fill="#404040">
                        <set attributeName="fill" to="#808080" begin="arrowLeft.mouseover" end="arrowLeft.mouseout"/>
                  </use>
                  <path fill="none" stroke="white" stroke-width="1.5" d="M0,-3.0v7 M-2.5,-0.5L0,-3.0L2.5,-0.5"/>
                </g>
        </g>
        <svg viewBox="0 0 15 15" width="100%" height="30px" preserveAspectRatio="xMaxYMin meet">
         <g id="arrow_out" transform="scale(0.3 0.3)">
          <a xlink:href="classobe_1_1_collision_1_1_polygonal_collider_a8a4211aadf7a5e8bced2fe87651e0212_icgraph_org.svg" target="_base">
           <rect id="button" ry="5" rx="5" y="6" x="6" height="38" width="38"
                fill="#f2f5e9" fill-opacity="0.5" stroke="#606060" stroke-width="1.0"/>
           <path id="arrow"
             d="M 11.500037,31.436501 C 11.940474,20.09759 22.043105,11.32322 32.158766,21.979434 L 37.068811,17.246167 C 37.068811,17.246167 37.088388,32 37.088388,32 L 22.160133,31.978069 C 22.160133,31.978069 26.997745,27.140456 26.997745,27.140456 C 18.528582,18.264221 13.291696,25.230495 11.500037,31.436501 z"
             style="fill:#404040;"/>
          </a>
         </g>
        </svg>
</svg>
