<?xml version="1.0" encoding="UTF-8" standalone="no"?>
<!DOCTYPE svg PUBLIC "-//W3C//DTD SVG 1.1//EN"
 "http://www.w3.org/Graphics/SVG/1.1/DTD/svg11.dtd">
<!-- Generated by graphviz version 2.38.0 (20140413.2041)
 -->
<!-- Title: vili::DataNode::operator double Pages: 1 -->
<svg width="437pt" height="350pt"
 viewBox="0.00 0.00 437.00 350.00" xmlns="http://www.w3.org/2000/svg" xmlns:xlink="http://www.w3.org/1999/xlink">
<g id="graph0" class="graph" transform="scale(1 1) rotate(0) translate(4 346)">
<title>vili::DataNode::operator double</title>
<!-- Node344 -->
<g id="node1" class="node"><title>Node344</title>
<polygon fill="#bfbfbf" stroke="black" points="0,-147.5 0,-177.5 117,-177.5 117,-147.5 0,-147.5"/>
<text text-anchor="start" x="8" y="-165.5" font-family="Helvetica,sans-Serif" font-size="10.00">vili::DataNode::operator</text>
<text text-anchor="middle" x="58.5" y="-154.5" font-family="Helvetica,sans-Serif" font-size="10.00"> double</text>
</g>
<!-- Node345 -->
<g id="node2" class="node"><title>Node345</title>
<g id="a_node2"><a xlink:href="classaube_1_1_error_handler.html#a7c8d44a3e7f019646d289950abc5301b" target="_top" xlink:title="Raises an Error loaded in the Aube Error Database (AED) ">
<polygon fill="white" stroke="black" points="163,-213.5 163,-243.5 261,-243.5 261,-213.5 163,-213.5"/>
<text text-anchor="start" x="171" y="-231.5" font-family="Helvetica,sans-Serif" font-size="10.00">aube::ErrorHandler</text>
<text text-anchor="middle" x="212" y="-220.5" font-family="Helvetica,sans-Serif" font-size="10.00">::Raise</text>
</a>
</g>
</g>
<!-- Node344&#45;&gt;Node345 -->
<g id="edge1" class="edge"><title>Node344&#45;&gt;Node345</title>
<path fill="none" stroke="midnightblue" d="M94.2572,-177.642C115.909,-187.074 143.956,-199.293 167.132,-209.389"/>
<polygon fill="midnightblue" stroke="midnightblue" points="165.839,-212.644 176.405,-213.429 168.635,-206.226 165.839,-212.644"/>
</g>
<!-- Node350 -->
<g id="node7" class="node"><title>Node350</title>
<g id="a_node7"><a xlink:href="classvili_1_1_node.html#a5a6ad518f51d824e06ae7be0328f4864" target="_top" xlink:title="Get the Node Path (Example : GrandParent/Parent/Node) ">
<polygon fill="white" stroke="black" points="153,-88 153,-107 271,-107 271,-88 153,-88"/>
<text text-anchor="middle" x="212" y="-95" font-family="Helvetica,sans-Serif" font-size="10.00">vili::Node::getNodePath</text>
</a>
</g>
</g>
<!-- Node344&#45;&gt;Node350 -->
<g id="edge6" class="edge"><title>Node344&#45;&gt;Node350</title>
<path fill="none" stroke="midnightblue" d="M94.6379,-147.424C120.258,-136.432 154.677,-121.665 179.426,-111.047"/>
<polygon fill="midnightblue" stroke="midnightblue" points="180.917,-114.215 188.727,-107.056 178.157,-107.782 180.917,-114.215"/>
</g>
<!-- Node346 -->
<g id="node3" class="node"><title>Node346</title>
<g id="a_node3"><a xlink:href="classaube_1_1_error_message.html#a3a39b6fcd8fdb12eaf6383123535b8ca" target="_top" xlink:title="Gets the File where is located the ErrorMessage when raised. ">
<polygon fill="white" stroke="black" points="316,-311.5 316,-341.5 420,-341.5 420,-311.5 316,-311.5"/>
<text text-anchor="start" x="324" y="-329.5" font-family="Helvetica,sans-Serif" font-size="10.00">aube::ErrorMessage</text>
<text text-anchor="middle" x="368" y="-318.5" font-family="Helvetica,sans-Serif" font-size="10.00">::getFile</text>
</a>
</g>
</g>
<!-- Node345&#45;&gt;Node346 -->
<g id="edge2" class="edge"><title>Node345&#45;&gt;Node346</title>
<path fill="none" stroke="midnightblue" d="M229.266,-243.702C247.222,-259.887 277.503,-285.466 307,-302.5 309.817,-304.127 312.767,-305.693 315.781,-307.192"/>
<polygon fill="midnightblue" stroke="midnightblue" points="314.415,-310.417 324.957,-311.478 317.377,-304.075 314.415,-310.417"/>
</g>
<!-- Node347 -->
<g id="node4" class="node"><title>Node347</title>
<g id="a_node4"><a xlink:href="classaube_1_1_error_message.html#a9184cc96589578f434351c105b0cd5f7" target="_top" xlink:title="Gets the location of the error in the code. ">
<polygon fill="white" stroke="black" points="316,-262.5 316,-292.5 420,-292.5 420,-262.5 316,-262.5"/>
<text text-anchor="start" x="324" y="-280.5" font-family="Helvetica,sans-Serif" font-size="10.00">aube::ErrorMessage</text>
<text text-anchor="middle" x="368" y="-269.5" font-family="Helvetica,sans-Serif" font-size="10.00">::getLocation</text>
</a>
</g>
</g>
<!-- Node345&#45;&gt;Node347 -->
<g id="edge3" class="edge"><title>Node345&#45;&gt;Node347</title>
<path fill="none" stroke="midnightblue" d="M260.462,-243.601C276.05,-248.562 293.543,-254.127 309.778,-259.293"/>
<polygon fill="midnightblue" stroke="midnightblue" points="309.105,-262.752 319.695,-262.448 311.227,-256.081 309.105,-262.752"/>
</g>
<!-- Node348 -->
<g id="node5" class="node"><title>Node348</title>
<g id="a_node5"><a xlink:href="classaube_1_1_error_message.html#a07927cb3e2d0712c459cc9e2b5f52696" target="_top" xlink:title="Gets the message displayed by the ErrorMessage when raised. ">
<polygon fill="white" stroke="black" points="316,-213.5 316,-243.5 420,-243.5 420,-213.5 316,-213.5"/>
<text text-anchor="start" x="324" y="-231.5" font-family="Helvetica,sans-Serif" font-size="10.00">aube::ErrorMessage</text>
<text text-anchor="middle" x="368" y="-220.5" font-family="Helvetica,sans-Serif" font-size="10.00">::getMessage</text>
</a>
</g>
</g>
<!-- Node345&#45;&gt;Node348 -->
<g id="edge4" class="edge"><title>Node345&#45;&gt;Node348</title>
<path fill="none" stroke="midnightblue" d="M261.304,-228.5C275.423,-228.5 291.044,-228.5 305.848,-228.5"/>
<polygon fill="midnightblue" stroke="midnightblue" points="305.938,-232 315.938,-228.5 305.938,-225 305.938,-232"/>
</g>
<!-- Node349 -->
<g id="node6" class="node"><title>Node349</title>
<g id="a_node6"><a xlink:href="classaube_1_1_error_message.html#a77c2f9b7e93542c958173b52da267989" target="_top" xlink:title="Gets hints that can help the error resolution. ">
<polygon fill="white" stroke="black" points="316,-164.5 316,-194.5 420,-194.5 420,-164.5 316,-164.5"/>
<text text-anchor="start" x="324" y="-182.5" font-family="Helvetica,sans-Serif" font-size="10.00">aube::ErrorMessage</text>
<text text-anchor="middle" x="368" y="-171.5" font-family="Helvetica,sans-Serif" font-size="10.00">::getHints</text>
</a>
</g>
</g>
<!-- Node345&#45;&gt;Node349 -->
<g id="edge5" class="edge"><title>Node345&#45;&gt;Node349</title>
<path fill="none" stroke="midnightblue" d="M260.462,-213.399C276.05,-208.438 293.543,-202.873 309.778,-197.707"/>
<polygon fill="midnightblue" stroke="midnightblue" points="311.227,-200.919 319.695,-194.552 309.105,-194.248 311.227,-200.919"/>
</g>
<!-- Node351 -->
<g id="node8" class="node"><title>Node351</title>
<g id="a_node8"><a xlink:href="classvili_1_1_node.html#a58273048e22a9ebd74e576fd8905f709" target="_top" xlink:title="vili::Node::getParent">
<polygon fill="white" stroke="black" points="316,-126 316,-145 420,-145 420,-126 316,-126"/>
<text text-anchor="middle" x="368" y="-133" font-family="Helvetica,sans-Serif" font-size="10.00">vili::Node::getParent</text>
</a>
</g>
</g>
<!-- Node350&#45;&gt;Node351 -->
<g id="edge7" class="edge"><title>Node350&#45;&gt;Node351</title>
<path fill="none" stroke="midnightblue" d="M251.861,-107.089C272.091,-112.081 297.021,-118.232 318.504,-123.533"/>
<polygon fill="midnightblue" stroke="midnightblue" points="317.871,-126.982 328.419,-125.98 319.548,-120.186 317.871,-126.982"/>
</g>
<!-- Node352 -->
<g id="node9" class="node"><title>Node352</title>
<g id="a_node9"><a xlink:href="classvili_1_1_node.html#ab03908ab3d62e3bfddaf9e7306fdf3b3" target="_top" xlink:title="Gets the id of the Node. ">
<polygon fill="white" stroke="black" points="326.5,-88 326.5,-107 409.5,-107 409.5,-88 326.5,-88"/>
<text text-anchor="middle" x="368" y="-95" font-family="Helvetica,sans-Serif" font-size="10.00">vili::Node::getId</text>
</a>
</g>
</g>
<!-- Node350&#45;&gt;Node352 -->
<g id="edge8" class="edge"><title>Node350&#45;&gt;Node352</title>
<path fill="none" stroke="midnightblue" d="M271.221,-97.5C286.025,-97.5 301.816,-97.5 316.218,-97.5"/>
<polygon fill="midnightblue" stroke="midnightblue" points="316.425,-101 326.425,-97.5 316.425,-94.0001 316.425,-101"/>
</g>
<!-- Node353 -->
<g id="node10" class="node"><title>Node353</title>
<g id="a_node10"><a xlink:href="classvili_1_1_node.html#ad3c91cfe2721eaf9841721d1ec8ee0d8" target="_top" xlink:title="Gets the Node annotation. ">
<polygon fill="white" stroke="black" points="307,-50 307,-69 429,-69 429,-50 307,-50"/>
<text text-anchor="middle" x="368" y="-57" font-family="Helvetica,sans-Serif" font-size="10.00">vili::Node::getAnnotation</text>
</a>
</g>
</g>
<!-- Node350&#45;&gt;Node353 -->
<g id="edge9" class="edge"><title>Node350&#45;&gt;Node353</title>
<path fill="none" stroke="midnightblue" d="M251.861,-87.911C272.091,-82.9191 297.021,-76.7676 318.504,-71.4666"/>
<polygon fill="midnightblue" stroke="midnightblue" points="319.548,-74.8139 328.419,-69.0201 317.871,-68.0177 319.548,-74.8139"/>
</g>
<!-- Node354 -->
<g id="node11" class="node"><title>Node354</title>
<g id="a_node11"><a xlink:href="namespacevili_1_1_functions_1_1_vector.html#a10836e1fe04648534cfc59d9de9acd72" target="_top" xlink:title="vili::Functions::Vector\l::join">
<polygon fill="white" stroke="black" points="313,-0.5 313,-30.5 423,-30.5 423,-0.5 313,-0.5"/>
<text text-anchor="start" x="321" y="-18.5" font-family="Helvetica,sans-Serif" font-size="10.00">vili::Functions::Vector</text>
<text text-anchor="middle" x="368" y="-7.5" font-family="Helvetica,sans-Serif" font-size="10.00">::join</text>
</a>
</g>
</g>
<!-- Node350&#45;&gt;Node354 -->
<g id="edge10" class="edge"><title>Node350&#45;&gt;Node354</title>
<path fill="none" stroke="midnightblue" d="M227.267,-87.9179C245.36,-75.986 277.732,-55.3652 307,-40.5 310.955,-38.4911 315.111,-36.5096 319.312,-34.5945"/>
<polygon fill="midnightblue" stroke="midnightblue" points="320.79,-37.7679 328.521,-30.5232 317.959,-31.3657 320.79,-37.7679"/>
</g>
</g>
</svg>
