<?xml version="1.0" encoding="UTF-8" standalone="no"?>
<!DOCTYPE svg PUBLIC "-//W3C//DTD SVG 1.1//EN"
 "http://www.w3.org/Graphics/SVG/1.1/DTD/svg11.dtd">
<!-- Generated by graphviz version 2.38.0 (20140413.2041)
 -->
<!-- Title: obe::Transform::Rect::getPosition Pages: 1 -->
<svg width="890pt" height="439pt"
 viewBox="0.00 0.00 890.00 439.00" xmlns="http://www.w3.org/2000/svg" xmlns:xlink="http://www.w3.org/1999/xlink">
<g id="graph0" class="graph" transform="scale(1 1) rotate(0) translate(4 435)">
<title>obe::Transform::Rect::getPosition</title>
<!-- Node21 -->
<g id="node1" class="node"><title>Node21</title>
<polygon fill="#bfbfbf" stroke="black" points="0,-192.5 0,-222.5 107,-222.5 107,-192.5 0,-192.5"/>
<text text-anchor="start" x="8" y="-210.5" font-family="Helvetica,sans-Serif" font-size="10.00">obe::Transform::Rect</text>
<text text-anchor="middle" x="53.5" y="-199.5" font-family="Helvetica,sans-Serif" font-size="10.00">::getPosition</text>
</g>
<!-- Node22 -->
<g id="node2" class="node"><title>Node22</title>
<g id="a_node2"><a xlink:href="namespaceobe_1_1_editor.html#ab6bfdaa8e8de8a30a00d270cd9d70d12" target="_top" xlink:title="obe::Editor::connectSprite\lActions">
<polygon fill="white" stroke="black" points="324,-265.5 324,-295.5 454,-295.5 454,-265.5 324,-265.5"/>
<text text-anchor="start" x="332" y="-283.5" font-family="Helvetica,sans-Serif" font-size="10.00">obe::Editor::connectSprite</text>
<text text-anchor="middle" x="389" y="-272.5" font-family="Helvetica,sans-Serif" font-size="10.00">Actions</text>
</a>
</g>
</g>
<!-- Node21&#45;&gt;Node22 -->
<g id="edge1" class="edge"><title>Node21&#45;&gt;Node22</title>
<path fill="none" stroke="midnightblue" d="M61.2938,-232.219C72.1685,-266.384 97.0839,-326.732 143,-352.5 193.773,-380.994 218.072,-368.683 274,-352.5 312.226,-341.439 349.955,-313.318 370.99,-295.672"/>
<polygon fill="midnightblue" stroke="midnightblue" points="64.6069,-231.083 58.362,-222.524 57.9065,-233.11 64.6069,-231.083"/>
</g>
<!-- Node26 -->
<g id="node6" class="node"><title>Node26</title>
<g id="a_node6"><a xlink:href="classobe_1_1_graphics_1_1_level_sprite.html#a59dce80854f354af694926f8ccb714e2" target="_top" xlink:title="Get the HandlePoint of the LevelSprite at the given Position(x, y) ">
<polygon fill="white" stroke="black" points="143,-214.5 143,-244.5 274,-244.5 274,-214.5 143,-214.5"/>
<text text-anchor="start" x="151" y="-232.5" font-family="Helvetica,sans-Serif" font-size="10.00">obe::Graphics::LevelSprite</text>
<text text-anchor="middle" x="208.5" y="-221.5" font-family="Helvetica,sans-Serif" font-size="10.00">::getHandlePoint</text>
</a>
</g>
</g>
<!-- Node21&#45;&gt;Node26 -->
<g id="edge6" class="edge"><title>Node21&#45;&gt;Node26</title>
<path fill="none" stroke="midnightblue" d="M117.295,-216.529C125.726,-217.742 134.386,-218.987 142.848,-220.204"/>
<polygon fill="midnightblue" stroke="midnightblue" points="117.55,-213.03 107.154,-215.071 116.554,-219.959 117.55,-213.03"/>
</g>
<!-- Node29 -->
<g id="node9" class="node"><title>Node29</title>
<g id="a_node9"><a xlink:href="classobe_1_1_transform_1_1_rect.html#a405a68aa67b39a999dd35e27f09949dd" target="_top" xlink:title="Set the size of the Rect. ">
<polygon fill="white" stroke="black" points="155,-312.5 155,-342.5 262,-342.5 262,-312.5 155,-312.5"/>
<text text-anchor="start" x="163" y="-330.5" font-family="Helvetica,sans-Serif" font-size="10.00">obe::Transform::Rect</text>
<text text-anchor="middle" x="208.5" y="-319.5" font-family="Helvetica,sans-Serif" font-size="10.00">::setSize</text>
</a>
</g>
</g>
<!-- Node21&#45;&gt;Node29 -->
<g id="edge11" class="edge"><title>Node21&#45;&gt;Node29</title>
<path fill="none" stroke="midnightblue" d="M70.8829,-230.796C87.0466,-252.276 113.554,-283.736 143,-303.5 147.96,-306.829 153.443,-309.774 159.056,-312.356"/>
<polygon fill="midnightblue" stroke="midnightblue" points="73.556,-228.523 64.8104,-222.543 67.9177,-232.672 73.556,-228.523"/>
</g>
<!-- Node30 -->
<g id="node10" class="node"><title>Node30</title>
<g id="a_node10"><a xlink:href="classobe_1_1_transform_1_1_rect.html#a8ce9778fe854024a56442d27443e92d2" target="_top" xlink:title="Scales the Rect (Relative to the current size) ">
<polygon fill="white" stroke="black" points="335.5,-118.5 335.5,-148.5 442.5,-148.5 442.5,-118.5 335.5,-118.5"/>
<text text-anchor="start" x="343.5" y="-136.5" font-family="Helvetica,sans-Serif" font-size="10.00">obe::Transform::Rect</text>
<text text-anchor="middle" x="389" y="-125.5" font-family="Helvetica,sans-Serif" font-size="10.00">::scale</text>
</a>
</g>
</g>
<!-- Node21&#45;&gt;Node30 -->
<g id="edge12" class="edge"><title>Node21&#45;&gt;Node30</title>
<path fill="none" stroke="midnightblue" d="M117.386,-193.245C125.991,-191.307 134.713,-189.35 143,-187.5 209.315,-172.699 285.786,-155.884 335.411,-145.006"/>
<polygon fill="midnightblue" stroke="midnightblue" points="116.356,-189.889 107.371,-195.503 117.896,-196.718 116.356,-189.889"/>
</g>
<!-- Node32 -->
<g id="node12" class="node"><title>Node32</title>
<g id="a_node12"><a xlink:href="classobe_1_1_transform_1_1_rect.html#a69ac4ab4d8187fc542c271dda07629b3" target="_top" xlink:title="Set the Width of the Rect. ">
<polygon fill="white" stroke="black" points="155,-88.5 155,-118.5 262,-118.5 262,-88.5 155,-88.5"/>
<text text-anchor="start" x="163" y="-106.5" font-family="Helvetica,sans-Serif" font-size="10.00">obe::Transform::Rect</text>
<text text-anchor="middle" x="208.5" y="-95.5" font-family="Helvetica,sans-Serif" font-size="10.00">::setWidth</text>
</a>
</g>
</g>
<!-- Node21&#45;&gt;Node32 -->
<g id="edge15" class="edge"><title>Node21&#45;&gt;Node32</title>
<path fill="none" stroke="midnightblue" d="M77.4729,-185.401C94.6143,-169.656 119.103,-148.679 143,-133.5 151.653,-128.004 161.475,-122.918 170.798,-118.555"/>
<polygon fill="midnightblue" stroke="midnightblue" points="75.0755,-182.851 70.1426,-192.227 79.8461,-187.974 75.0755,-182.851"/>
</g>
<!-- Node33 -->
<g id="node13" class="node"><title>Node33</title>
<g id="a_node13"><a xlink:href="classobe_1_1_transform_1_1_rect.html#acdc5c857f16cdeac3f24a86c52b9b330" target="_top" xlink:title="Set the Position of a specific Referencial of the Rect (The opposite Point won&#39;t move) ...">
<polygon fill="white" stroke="black" points="335.5,-58.5 335.5,-88.5 442.5,-88.5 442.5,-58.5 335.5,-58.5"/>
<text text-anchor="start" x="343.5" y="-76.5" font-family="Helvetica,sans-Serif" font-size="10.00">obe::Transform::Rect</text>
<text text-anchor="middle" x="389" y="-65.5" font-family="Helvetica,sans-Serif" font-size="10.00">::setPointPosition</text>
</a>
</g>
</g>
<!-- Node21&#45;&gt;Node33 -->
<g id="edge25" class="edge"><title>Node21&#45;&gt;Node33</title>
<path fill="none" stroke="midnightblue" d="M63.2517,-182.863C75.6535,-152.119 101.557,-100.869 143,-78.5 202.714,-46.2687 283.124,-52.2597 335.262,-61.3562"/>
<polygon fill="midnightblue" stroke="midnightblue" points="59.8941,-181.842 59.5605,-192.431 66.4251,-184.361 59.8941,-181.842"/>
</g>
<!-- Node35 -->
<g id="node15" class="node"><title>Node35</title>
<g id="a_node15"><a xlink:href="classobe_1_1_transform_1_1_rect.html#afa80d81d169dc5889af23eb1373f6763" target="_top" xlink:title="Set the Height of the Rect. ">
<polygon fill="white" stroke="black" points="155,-0.5 155,-30.5 262,-30.5 262,-0.5 155,-0.5"/>
<text text-anchor="start" x="163" y="-18.5" font-family="Helvetica,sans-Serif" font-size="10.00">obe::Transform::Rect</text>
<text text-anchor="middle" x="208.5" y="-7.5" font-family="Helvetica,sans-Serif" font-size="10.00">::setHeight</text>
</a>
</g>
</g>
<!-- Node21&#45;&gt;Node35 -->
<g id="edge19" class="edge"><title>Node21&#45;&gt;Node35</title>
<path fill="none" stroke="midnightblue" d="M62.6277,-182.192C74.9636,-147.328 101.468,-84.4307 143,-45.5 149.307,-39.5878 156.988,-34.6659 164.819,-30.6346"/>
<polygon fill="midnightblue" stroke="midnightblue" points="59.1791,-181.459 59.2532,-192.054 65.8022,-183.725 59.1791,-181.459"/>
</g>
<!-- Node36 -->
<g id="node16" class="node"><title>Node36</title>
<g id="a_node16"><a xlink:href="classobe_1_1_transform_1_1_rect.html#aa5658231fbee45974225e8deb6300382" target="_top" xlink:title="Get the x Coordinate of the Rect Position. ">
<polygon fill="white" stroke="black" points="155,-263.5 155,-293.5 262,-293.5 262,-263.5 155,-263.5"/>
<text text-anchor="start" x="163" y="-281.5" font-family="Helvetica,sans-Serif" font-size="10.00">obe::Transform::Rect</text>
<text text-anchor="middle" x="208.5" y="-270.5" font-family="Helvetica,sans-Serif" font-size="10.00">::getX</text>
</a>
</g>
</g>
<!-- Node21&#45;&gt;Node36 -->
<g id="edge21" class="edge"><title>Node21&#45;&gt;Node36</title>
<path fill="none" stroke="midnightblue" d="M90.5798,-227.394C106.46,-235.852 125.457,-245.57 143,-253.5 150.551,-256.913 158.717,-260.303 166.619,-263.434"/>
<polygon fill="midnightblue" stroke="midnightblue" points="92.0904,-224.233 81.6248,-222.583 88.7776,-230.399 92.0904,-224.233"/>
</g>
<!-- Node37 -->
<g id="node17" class="node"><title>Node37</title>
<g id="a_node17"><a xlink:href="classobe_1_1_transform_1_1_rect.html#a4de6d77d9447ad737e4f2e0e956e4919" target="_top" xlink:title="Get the y Coordinate of the Rect Position. ">
<polygon fill="white" stroke="black" points="155,-400.5 155,-430.5 262,-430.5 262,-400.5 155,-400.5"/>
<text text-anchor="start" x="163" y="-418.5" font-family="Helvetica,sans-Serif" font-size="10.00">obe::Transform::Rect</text>
<text text-anchor="middle" x="208.5" y="-407.5" font-family="Helvetica,sans-Serif" font-size="10.00">::getY</text>
</a>
</g>
</g>
<!-- Node21&#45;&gt;Node37 -->
<g id="edge23" class="edge"><title>Node21&#45;&gt;Node37</title>
<path fill="none" stroke="midnightblue" d="M61.0669,-232.313C72.1596,-269.913 97.9233,-341.582 143,-385.5 149.104,-391.447 156.603,-396.367 164.302,-400.382"/>
<polygon fill="midnightblue" stroke="midnightblue" points="64.4246,-231.325 58.3233,-222.663 57.6914,-233.239 64.4246,-231.325"/>
</g>
<!-- Node38 -->
<g id="node18" class="node"><title>Node38</title>
<g id="a_node18"><a xlink:href="classobe_1_1_transform_1_1_rect.html#aa3551afe1e97403b12bc56ff772636f8" target="_top" xlink:title="Check if two Rects intersects. ">
<polygon fill="white" stroke="black" points="335.5,-167.5 335.5,-197.5 442.5,-197.5 442.5,-167.5 335.5,-167.5"/>
<text text-anchor="start" x="343.5" y="-185.5" font-family="Helvetica,sans-Serif" font-size="10.00">obe::Transform::Rect</text>
<text text-anchor="middle" x="389" y="-174.5" font-family="Helvetica,sans-Serif" font-size="10.00">::intersects</text>
</a>
</g>
</g>
<!-- Node21&#45;&gt;Node38 -->
<g id="edge26" class="edge"><title>Node21&#45;&gt;Node38</title>
<path fill="none" stroke="midnightblue" d="M117.552,-202.773C180.569,-198.05 276.351,-190.869 335.403,-186.443"/>
<polygon fill="midnightblue" stroke="midnightblue" points="117.054,-199.301 107.344,-203.539 117.578,-206.281 117.054,-199.301"/>
</g>
<!-- Node23 -->
<g id="node3" class="node"><title>Node23</title>
<g id="a_node3"><a xlink:href="namespaceobe_1_1_editor.html#a9009207671e71dccb68a31ea2362e9ef" target="_top" xlink:title="Starts the map edition. ">
<polygon fill="white" stroke="black" points="514.5,-271 514.5,-290 618.5,-290 618.5,-271 514.5,-271"/>
<text text-anchor="middle" x="566.5" y="-278" font-family="Helvetica,sans-Serif" font-size="10.00">obe::Editor::editMap</text>
</a>
</g>
</g>
<!-- Node22&#45;&gt;Node23 -->
<g id="edge2" class="edge"><title>Node22&#45;&gt;Node23</title>
<path fill="none" stroke="midnightblue" d="M464.671,-280.5C481.414,-280.5 498.806,-280.5 514.336,-280.5"/>
<polygon fill="midnightblue" stroke="midnightblue" points="464.353,-277 454.353,-280.5 464.353,-284 464.353,-277"/>
</g>
<!-- Node24 -->
<g id="node4" class="node"><title>Node24</title>
<g id="a_node4"><a xlink:href="namespaceobe_1_1_modes.html#a6a8b08eee511d4895c4da96d4ba223a6" target="_top" xlink:title="Starts the development Menu where you can starts other menus from. ">
<polygon fill="white" stroke="black" points="670,-278 670,-297 803,-297 803,-278 670,-278"/>
<text text-anchor="middle" x="736.5" y="-285" font-family="Helvetica,sans-Serif" font-size="10.00">obe::Modes::startDevMenu</text>
</a>
</g>
</g>
<!-- Node23&#45;&gt;Node24 -->
<g id="edge3" class="edge"><title>Node23&#45;&gt;Node24</title>
<path fill="none" stroke="midnightblue" d="M628.849,-283.056C642.209,-283.613 656.395,-284.204 669.912,-284.767"/>
<polygon fill="midnightblue" stroke="midnightblue" points="628.955,-279.558 618.818,-282.638 628.664,-286.552 628.955,-279.558"/>
</g>
<!-- Node25 -->
<g id="node5" class="node"><title>Node25</title>
<g id="a_node5"><a xlink:href="_ob_engine_8cpp.html#a3c04138a5bfe5d72780bb7e82a18e627" target="_top" xlink:title="main">
<polygon fill="white" stroke="black" points="844,-240 844,-259 882,-259 882,-240 844,-240"/>
<text text-anchor="middle" x="863" y="-247" font-family="Helvetica,sans-Serif" font-size="10.00">main</text>
</a>
</g>
</g>
<!-- Node23&#45;&gt;Node25 -->
<g id="edge5" class="edge"><title>Node23&#45;&gt;Node25</title>
<path fill="none" stroke="midnightblue" d="M628.567,-272.734C640.635,-271.27 653.212,-269.794 665,-268.5 730.748,-261.285 809.008,-254.177 843.786,-251.095"/>
<polygon fill="midnightblue" stroke="midnightblue" points="628.079,-269.267 618.578,-273.957 628.93,-276.216 628.079,-269.267"/>
</g>
<!-- Node24&#45;&gt;Node25 -->
<g id="edge4" class="edge"><title>Node24&#45;&gt;Node25</title>
<path fill="none" stroke="midnightblue" d="M778.704,-274.924C800.716,-268.205 826.707,-260.272 843.73,-255.076"/>
<polygon fill="midnightblue" stroke="midnightblue" points="777.459,-271.644 768.917,-277.911 779.503,-278.339 777.459,-271.644"/>
</g>
<!-- Node26&#45;&gt;Node22 -->
<g id="edge10" class="edge"><title>Node26&#45;&gt;Node22</title>
<path fill="none" stroke="midnightblue" d="M271.784,-247.295C292.569,-253.234 315.509,-259.788 335.477,-265.494"/>
<polygon fill="midnightblue" stroke="midnightblue" points="272.667,-243.908 262.09,-244.526 270.744,-250.638 272.667,-243.908"/>
</g>
<!-- Node27 -->
<g id="node7" class="node"><title>Node27</title>
<g id="a_node7"><a xlink:href="namespaceobe_1_1_bindings_1_1_graphics_bindings.html#a93b97087ade5cb2fd2956ea6a4bc10d3" target="_top" xlink:title="obe::Bindings::GraphicsBindings\l::LoadLevelSprite">
<polygon fill="white" stroke="black" points="310,-216.5 310,-246.5 468,-246.5 468,-216.5 310,-216.5"/>
<text text-anchor="start" x="318" y="-234.5" font-family="Helvetica,sans-Serif" font-size="10.00">obe::Bindings::GraphicsBindings</text>
<text text-anchor="middle" x="389" y="-223.5" font-family="Helvetica,sans-Serif" font-size="10.00">::LoadLevelSprite</text>
</a>
</g>
</g>
<!-- Node26&#45;&gt;Node27 -->
<g id="edge7" class="edge"><title>Node26&#45;&gt;Node27</title>
<path fill="none" stroke="midnightblue" d="M284.36,-230.339C292.783,-230.433 301.381,-230.529 309.843,-230.624"/>
<polygon fill="midnightblue" stroke="midnightblue" points="284.234,-226.837 274.195,-230.225 284.155,-233.837 284.234,-226.837"/>
</g>
<!-- Node28 -->
<g id="node8" class="node"><title>Node28</title>
<g id="a_node8"><a xlink:href="namespaceobe_1_1_bindings.html#a41d33207a0199f125c75a0f70a4a3ba8" target="_top" xlink:title="To call when the engine starts, indexes all Lua bindings. ">
<polygon fill="white" stroke="black" points="665,-202 665,-221 808,-221 808,-202 665,-202"/>
<text text-anchor="middle" x="736.5" y="-209" font-family="Helvetica,sans-Serif" font-size="10.00">obe::Bindings::IndexBindings</text>
</a>
</g>
</g>
<!-- Node27&#45;&gt;Node28 -->
<g id="edge8" class="edge"><title>Node27&#45;&gt;Node28</title>
<path fill="none" stroke="midnightblue" d="M478.626,-226.37C536.446,-223.023 610.9,-218.713 664.751,-215.595"/>
<polygon fill="midnightblue" stroke="midnightblue" points="478.18,-222.89 468.399,-226.962 478.585,-229.878 478.18,-222.89"/>
</g>
<!-- Node28&#45;&gt;Node25 -->
<g id="edge9" class="edge"><title>Node28&#45;&gt;Node25</title>
<path fill="none" stroke="midnightblue" d="M778.704,-224.076C800.716,-230.795 826.707,-238.728 843.73,-243.924"/>
<polygon fill="midnightblue" stroke="midnightblue" points="779.503,-220.661 768.917,-221.089 777.459,-227.356 779.503,-220.661"/>
</g>
<!-- Node31 -->
<g id="node11" class="node"><title>Node31</title>
<g id="a_node11"><a xlink:href="namespaceobe_1_1_bindings_1_1_transform_bindings.html#a7d8def267651cd36bcbd088923f53600" target="_top" xlink:title="obe::Bindings::Transform\lBindings::LoadRect">
<polygon fill="white" stroke="black" points="504,-138.5 504,-168.5 629,-168.5 629,-138.5 504,-138.5"/>
<text text-anchor="start" x="512" y="-156.5" font-family="Helvetica,sans-Serif" font-size="10.00">obe::Bindings::Transform</text>
<text text-anchor="middle" x="566.5" y="-145.5" font-family="Helvetica,sans-Serif" font-size="10.00">Bindings::LoadRect</text>
</a>
</g>
</g>
<!-- Node30&#45;&gt;Node31 -->
<g id="edge13" class="edge"><title>Node30&#45;&gt;Node31</title>
<path fill="none" stroke="midnightblue" d="M452.815,-140.658C469.441,-142.553 487.369,-144.596 503.928,-146.483"/>
<polygon fill="midnightblue" stroke="midnightblue" points="452.988,-137.156 442.656,-139.501 452.195,-144.111 452.988,-137.156"/>
</g>
<!-- Node31&#45;&gt;Node28 -->
<g id="edge14" class="edge"><title>Node31&#45;&gt;Node28</title>
<path fill="none" stroke="midnightblue" d="M620.767,-171.89C649.68,-181.872 684.228,-193.799 707.807,-201.939"/>
<polygon fill="midnightblue" stroke="midnightblue" points="621.796,-168.542 611.201,-168.587 619.512,-175.159 621.796,-168.542"/>
</g>
<!-- Node32&#45;&gt;Node33 -->
<g id="edge16" class="edge"><title>Node32&#45;&gt;Node33</title>
<path fill="none" stroke="midnightblue" d="M272.066,-92.9847C292.777,-89.5039 315.599,-85.6682 335.477,-82.3273"/>
<polygon fill="midnightblue" stroke="midnightblue" points="271.372,-89.5522 262.09,-94.6613 272.532,-96.4554 271.372,-89.5522"/>
</g>
<!-- Node33&#45;&gt;Node31 -->
<g id="edge17" class="edge"><title>Node33&#45;&gt;Node31</title>
<path fill="none" stroke="midnightblue" d="M433.115,-92.7483C444.472,-97.8455 456.707,-103.36 468,-108.5 489.719,-118.385 514.094,-129.635 533.04,-138.414"/>
<polygon fill="midnightblue" stroke="midnightblue" points="434.378,-89.4789 423.821,-88.5823 431.515,-95.8666 434.378,-89.4789"/>
</g>
<!-- Node34 -->
<g id="node14" class="node"><title>Node34</title>
<g id="a_node14"><a xlink:href="classobe_1_1_transform_1_1_rect.html#a8f10de323814de2ddad0d39c0d4c8150" target="_top" xlink:title="Set the Position of a specific Referencial of the Rect (The opposite Point won&#39;t move) ...">
<polygon fill="white" stroke="black" points="513,-58.5 513,-88.5 620,-88.5 620,-58.5 513,-58.5"/>
<text text-anchor="start" x="521" y="-76.5" font-family="Helvetica,sans-Serif" font-size="10.00">obe::Transform::Rect</text>
<text text-anchor="middle" x="566.5" y="-65.5" font-family="Helvetica,sans-Serif" font-size="10.00">::setPointPosition</text>
</a>
</g>
</g>
<!-- Node33&#45;&gt;Node34 -->
<g id="edge18" class="edge"><title>Node33&#45;&gt;Node34</title>
<path fill="none" stroke="midnightblue" d="M452.761,-73.5C472.45,-73.5 493.969,-73.5 512.881,-73.5"/>
<polygon fill="midnightblue" stroke="midnightblue" points="452.656,-70.0001 442.656,-73.5 452.656,-77.0001 452.656,-70.0001"/>
</g>
<!-- Node35&#45;&gt;Node33 -->
<g id="edge20" class="edge"><title>Node35&#45;&gt;Node33</title>
<path fill="none" stroke="midnightblue" d="M265.479,-33.6893C290.025,-41.6649 318.488,-50.9136 341.8,-58.4881"/>
<polygon fill="midnightblue" stroke="midnightblue" points="266.525,-30.349 255.933,-30.5874 264.362,-37.0064 266.525,-30.349"/>
</g>
<!-- Node36&#45;&gt;Node22 -->
<g id="edge22" class="edge"><title>Node36&#45;&gt;Node22</title>
<path fill="none" stroke="midnightblue" d="M272.282,-279.203C288.97,-279.39 307.015,-279.593 323.778,-279.78"/>
<polygon fill="midnightblue" stroke="midnightblue" points="272.129,-275.702 262.09,-279.089 272.051,-282.701 272.129,-275.702"/>
</g>
<!-- Node37&#45;&gt;Node22 -->
<g id="edge24" class="edge"><title>Node37&#45;&gt;Node22</title>
<path fill="none" stroke="midnightblue" d="M256.105,-395.945C262.289,-392.743 268.415,-389.238 274,-385.5 314.25,-358.56 354.258,-317.594 374.466,-295.645"/>
<polygon fill="midnightblue" stroke="midnightblue" points="254.478,-392.845 247.06,-400.41 257.576,-399.122 254.478,-392.845"/>
</g>
<!-- Node38&#45;&gt;Node31 -->
<g id="edge27" class="edge"><title>Node38&#45;&gt;Node31</title>
<path fill="none" stroke="midnightblue" d="M452.815,-172.12C469.441,-169.373 487.369,-166.411 503.928,-163.674"/>
<polygon fill="midnightblue" stroke="midnightblue" points="451.951,-168.715 442.656,-173.799 453.093,-175.622 451.951,-168.715"/>
</g>
</g>
</svg>
