<?xml version="1.0" encoding="UTF-8" standalone="no"?>
<!DOCTYPE svg PUBLIC "-//W3C//DTD SVG 1.1//EN"
 "http://www.w3.org/Graphics/SVG/1.1/DTD/svg11.dtd">
<!-- Generated by graphviz version 2.38.0 (20140413.2041)
 -->
<!-- Title: obe::Input::KeyBinder::handleTriggers Pages: 1 -->
<!--zoomable 284 -->
<svg id="main" version="1.1" xmlns="http://www.w3.org/2000/svg" xmlns:xlink="http://www.w3.org/1999/xlink" xml:space="preserve" onload="init(evt)">
<style type="text/css"><![CDATA[
.edge:hover path { stroke: red; }
.edge:hover polygon { stroke: red; fill: red; }
.edge path { stroke: white; }
.edge polygon { stroke: white; fill: white; }
.node polygon { fill: white; }
]]></style>
<script type="text/javascript"><![CDATA[
var edges = document.getElementsByTagName('g');
if (edges && edges.length) {
  for (var i=0;i<edges.length;i++) {
    if (edges[i].id.substr(0,4)=='edge') {
      edges[i].setAttribute('class','edge');
    }
  }
}
]]></script>
        <defs>
                <circle id="rim" cx="0" cy="0" r="7"/>
                <circle id="rim2" cx="0" cy="0" r="3.5"/>
                <g id="zoomPlus">
                        <use xlink:href="#rim" fill="#404040">
                                <set attributeName="fill" to="#808080" begin="zoomplus.mouseover" end="zoomplus.mouseout"/>
                        </use>
                        <path d="M-4,0h8M0,-4v8" fill="none" stroke="white" stroke-width="1.5" pointer-events="none"/>
                </g>
                <g id="zoomMin">
                        <use xlink:href="#rim" fill="#404040">
                                <set attributeName="fill" to="#808080" begin="zoomminus.mouseover" end="zoomminus.mouseout"/>
                        </use>
                        <path d="M-4,0h8" fill="none" stroke="white" stroke-width="1.5" pointer-events="none"/>
                </g>
                <g id="dirArrow">
                        <path fill="none" stroke="white" stroke-width="1.5" d="M0,-3.0v7 M-2.5,-0.5L0,-3.0L2.5,-0.5"/>
                </g>
               <g id="resetDef">
                       <use xlink:href="#rim2" fill="#404040">
                               <set attributeName="fill" to="#808080" begin="reset.mouseover" end="reset.mouseout"/>
                       </use>
               </g>
        </defs>

<script type="text/javascript">
var viewWidth = 732;
var viewHeight = 284;
var sectionId = 'dynsection-2';
</script>
<script xlink:href="svgpan.js"/>
<svg id="graph" class="graph">
<g id="viewport">
<title>obe::Input::KeyBinder::handleTriggers</title>
<!-- Node18 -->
<g id="node1" class="node"><title>Node18</title>
<polygon fill="#bfbfbf" stroke="black" points="0,-147.5 0,-177.5 110,-177.5 110,-147.5 0,-147.5"/>
<text text-anchor="start" x="8" y="-165.5" font-family="Helvetica,sans-Serif" font-size="10.00">obe::Input::KeyBinder</text>
<text text-anchor="middle" x="55" y="-154.5" font-family="Helvetica,sans-Serif" font-size="10.00">::handleTriggers</text>
</g>
<!-- Node19 -->
<g id="node2" class="node"><title>Node19</title>
<g id="a_node2"><a xlink:href="classobe_1_1_input_1_1_key_binder.html#a877650096bdc9ffce3d10574b895890d" target="_top" xlink:title="obe::Input::KeyBinder\l::isActionToggled">
<polygon fill="white" stroke="black" points="158,-245.5 158,-275.5 268,-275.5 268,-245.5 158,-245.5"/>
<text text-anchor="start" x="166" y="-263.5" font-family="Helvetica,sans-Serif" font-size="10.00">obe::Input::KeyBinder</text>
<text text-anchor="middle" x="213" y="-252.5" font-family="Helvetica,sans-Serif" font-size="10.00">::isActionToggled</text>
</a>
</g>
</g>
<!-- Node18&#45;&gt;Node19 -->
<g id="edge1" class="edge"><title>Node18&#45;&gt;Node19</title>
<path fill="none" stroke="midnightblue" d="M71.0421,-177.634C88.0015,-194 117.009,-219.96 146,-236.5 149.003,-238.213 152.151,-239.842 155.375,-241.383"/>
<polygon fill="midnightblue" stroke="midnightblue" points="154.043,-244.621 164.602,-245.493 156.892,-238.227 154.043,-244.621"/>
</g>
<!-- Node20 -->
<g id="node3" class="node"><title>Node20</title>
<g id="a_node3"><a xlink:href="classobe_1_1_input_1_1_key_binder.html#a8355051ab052cc8fce0f86453dec990e" target="_top" xlink:title="obe::Input::KeyBinder\l::isActionPressed">
<polygon fill="white" stroke="black" points="158,-196.5 158,-226.5 268,-226.5 268,-196.5 158,-196.5"/>
<text text-anchor="start" x="166" y="-214.5" font-family="Helvetica,sans-Serif" font-size="10.00">obe::Input::KeyBinder</text>
<text text-anchor="middle" x="213" y="-203.5" font-family="Helvetica,sans-Serif" font-size="10.00">::isActionPressed</text>
</a>
</g>
</g>
<!-- Node18&#45;&gt;Node20 -->
<g id="edge2" class="edge"><title>Node18&#45;&gt;Node20</title>
<path fill="none" stroke="midnightblue" d="M104.078,-177.601C120.018,-182.608 137.924,-188.232 154.5,-193.439"/>
<polygon fill="midnightblue" stroke="midnightblue" points="153.491,-196.791 164.081,-196.448 155.589,-190.113 153.491,-196.791"/>
</g>
<!-- Node21 -->
<g id="node4" class="node"><title>Node21</title>
<g id="a_node4"><a xlink:href="classobe_1_1_input_1_1_key_binder.html#ad81ea459187e3ae401e839a91a94e8a7" target="_top" xlink:title="obe::Input::KeyBinder\l::isActionReleased">
<polygon fill="white" stroke="black" points="158,-147.5 158,-177.5 268,-177.5 268,-147.5 158,-147.5"/>
<text text-anchor="start" x="166" y="-165.5" font-family="Helvetica,sans-Serif" font-size="10.00">obe::Input::KeyBinder</text>
<text text-anchor="middle" x="213" y="-154.5" font-family="Helvetica,sans-Serif" font-size="10.00">::isActionReleased</text>
</a>
</g>
</g>
<!-- Node18&#45;&gt;Node21 -->
<g id="edge3" class="edge"><title>Node18&#45;&gt;Node21</title>
<path fill="none" stroke="midnightblue" d="M110.123,-162.5C122.224,-162.5 135.172,-162.5 147.641,-162.5"/>
<polygon fill="midnightblue" stroke="midnightblue" points="147.972,-166 157.972,-162.5 147.972,-159 147.972,-166"/>
</g>
<!-- Node22 -->
<g id="node5" class="node"><title>Node22</title>
<g id="a_node5"><a xlink:href="classobe_1_1_triggers_1_1_trigger_group.html#a49dc453c0968342bd7ffae88abcb19b7" target="_top" xlink:title="Pushes a Parameter to a Trigger. ">
<polygon fill="white" stroke="black" points="146,-49.5 146,-79.5 280,-79.5 280,-49.5 146,-49.5"/>
<text text-anchor="start" x="154" y="-67.5" font-family="Helvetica,sans-Serif" font-size="10.00">obe::Triggers::TriggerGroup</text>
<text text-anchor="middle" x="213" y="-56.5" font-family="Helvetica,sans-Serif" font-size="10.00">::pushParameter</text>
</a>
</g>
</g>
<!-- Node18&#45;&gt;Node22 -->
<g id="edge4" class="edge"><title>Node18&#45;&gt;Node22</title>
<path fill="none" stroke="midnightblue" d="M71.4335,-147.364C88.5048,-131.279 117.396,-105.945 146,-89.5 149.585,-87.4388 153.372,-85.4866 157.245,-83.6505"/>
<polygon fill="midnightblue" stroke="midnightblue" points="158.674,-86.8457 166.385,-79.5801 155.826,-80.4512 158.674,-86.8457"/>
</g>
<!-- Node32 -->
<g id="node15" class="node"><title>Node32</title>
<g id="a_node15"><a xlink:href="classobe_1_1_triggers_1_1_trigger_group.html#a277ee82edb3296d3113f3df0c2d2568b" target="_top" xlink:title="Enables a Trigger. ">
<polygon fill="white" stroke="black" points="146,-98.5 146,-128.5 280,-128.5 280,-98.5 146,-98.5"/>
<text text-anchor="start" x="154" y="-116.5" font-family="Helvetica,sans-Serif" font-size="10.00">obe::Triggers::TriggerGroup</text>
<text text-anchor="middle" x="213" y="-105.5" font-family="Helvetica,sans-Serif" font-size="10.00">::enableTrigger</text>
</a>
</g>
</g>
<!-- Node18&#45;&gt;Node32 -->
<g id="edge14" class="edge"><title>Node18&#45;&gt;Node32</title>
<path fill="none" stroke="midnightblue" d="M104.078,-147.399C120.018,-142.392 137.924,-136.768 154.5,-131.561"/>
<polygon fill="midnightblue" stroke="midnightblue" points="155.589,-134.887 164.081,-128.552 153.491,-128.209 155.589,-134.887"/>
</g>
<!-- Node23 -->
<g id="node6" class="node"><title>Node23</title>
<g id="a_node6"><a xlink:href="classobe_1_1_triggers_1_1_trigger_group.html#aa634130b4aeb886549f0a20d993b5c92" target="_top" xlink:title="Get a Trigger contained in the TriggerGroup. ">
<polygon fill="white" stroke="black" points="316,-98.5 316,-128.5 450,-128.5 450,-98.5 316,-98.5"/>
<text text-anchor="start" x="324" y="-116.5" font-family="Helvetica,sans-Serif" font-size="10.00">obe::Triggers::TriggerGroup</text>
<text text-anchor="middle" x="383" y="-105.5" font-family="Helvetica,sans-Serif" font-size="10.00">::getTrigger</text>
</a>
</g>
</g>
<!-- Node22&#45;&gt;Node23 -->
<g id="edge5" class="edge"><title>Node22&#45;&gt;Node23</title>
<path fill="none" stroke="midnightblue" d="M265.776,-79.6014C283.103,-84.6551 302.586,-90.3376 320.577,-95.5848"/>
<polygon fill="midnightblue" stroke="midnightblue" points="319.815,-99.0084 330.395,-98.4484 321.775,-92.2884 319.815,-99.0084"/>
</g>
<!-- Node29 -->
<g id="node12" class="node"><title>Node29</title>
<g id="a_node12"><a xlink:href="classobe_1_1_triggers_1_1_trigger.html#a3ad25b0fc614ad94c16a424464083607" target="_top" xlink:title="Pushes a parameter to the Trigger. ">
<polygon fill="white" stroke="black" points="329,-49.5 329,-79.5 437,-79.5 437,-49.5 329,-49.5"/>
<text text-anchor="start" x="337" y="-67.5" font-family="Helvetica,sans-Serif" font-size="10.00">obe::Triggers::Trigger</text>
<text text-anchor="middle" x="383" y="-56.5" font-family="Helvetica,sans-Serif" font-size="10.00">::pushParameter</text>
</a>
</g>
</g>
<!-- Node22&#45;&gt;Node29 -->
<g id="edge11" class="edge"><title>Node22&#45;&gt;Node29</title>
<path fill="none" stroke="midnightblue" d="M280.398,-64.5C292.937,-64.5 306.025,-64.5 318.473,-64.5"/>
<polygon fill="midnightblue" stroke="midnightblue" points="318.754,-68.0001 328.754,-64.5 318.754,-61.0001 318.754,-68.0001"/>
</g>
<!-- Node24 -->
<g id="node7" class="node"><title>Node24</title>
<g id="a_node7"><a xlink:href="classaube_1_1_error_handler.html#a7c8d44a3e7f019646d289950abc5301b" target="_top" xlink:title="aube::ErrorHandler\l::Raise">
<polygon fill="white" stroke="black" points="486,-98.5 486,-128.5 584,-128.5 584,-98.5 486,-98.5"/>
<text text-anchor="start" x="494" y="-116.5" font-family="Helvetica,sans-Serif" font-size="10.00">aube::ErrorHandler</text>
<text text-anchor="middle" x="535" y="-105.5" font-family="Helvetica,sans-Serif" font-size="10.00">::Raise</text>
</a>
</g>
</g>
<!-- Node23&#45;&gt;Node24 -->
<g id="edge6" class="edge"><title>Node23&#45;&gt;Node24</title>
<path fill="none" stroke="midnightblue" d="M450.229,-113.5C458.71,-113.5 467.342,-113.5 475.685,-113.5"/>
<polygon fill="midnightblue" stroke="midnightblue" points="475.688,-117 485.688,-113.5 475.687,-110 475.688,-117"/>
</g>
<!-- Node25 -->
<g id="node8" class="node"><title>Node25</title>
<g id="a_node8"><a xlink:href="classaube_1_1_error_message.html#a3a39b6fcd8fdb12eaf6383123535b8ca" target="_top" xlink:title="aube::ErrorMessage\l::getFile">
<polygon fill="white" stroke="black" points="620,-171.5 620,-201.5 724,-201.5 724,-171.5 620,-171.5"/>
<text text-anchor="start" x="628" y="-189.5" font-family="Helvetica,sans-Serif" font-size="10.00">aube::ErrorMessage</text>
<text text-anchor="middle" x="672" y="-178.5" font-family="Helvetica,sans-Serif" font-size="10.00">::getFile</text>
</a>
</g>
</g>
<!-- Node24&#45;&gt;Node25 -->
<g id="edge7" class="edge"><title>Node24&#45;&gt;Node25</title>
<path fill="none" stroke="midnightblue" d="M560.67,-128.664C577.239,-138.655 599.676,-151.816 620,-162.5 622.858,-164.003 625.827,-165.516 628.831,-167.014"/>
<polygon fill="midnightblue" stroke="midnightblue" points="627.347,-170.185 637.869,-171.429 630.42,-163.895 627.347,-170.185"/>
</g>
<!-- Node26 -->
<g id="node9" class="node"><title>Node26</title>
<g id="a_node9"><a xlink:href="classaube_1_1_error_message.html#a9184cc96589578f434351c105b0cd5f7" target="_top" xlink:title="aube::ErrorMessage\l::getLocation">
<polygon fill="white" stroke="black" points="620,-122.5 620,-152.5 724,-152.5 724,-122.5 620,-122.5"/>
<text text-anchor="start" x="628" y="-140.5" font-family="Helvetica,sans-Serif" font-size="10.00">aube::ErrorMessage</text>
<text text-anchor="middle" x="672" y="-129.5" font-family="Helvetica,sans-Serif" font-size="10.00">::getLocation</text>
</a>
</g>
</g>
<!-- Node24&#45;&gt;Node26 -->
<g id="edge8" class="edge"><title>Node24&#45;&gt;Node26</title>
<path fill="none" stroke="midnightblue" d="M584.357,-122.097C592.622,-123.566 601.306,-125.11 609.852,-126.629"/>
<polygon fill="midnightblue" stroke="midnightblue" points="609.33,-130.091 619.788,-128.396 610.555,-123.199 609.33,-130.091"/>
</g>
<!-- Node27 -->
<g id="node10" class="node"><title>Node27</title>
<g id="a_node10"><a xlink:href="classaube_1_1_error_message.html#a07927cb3e2d0712c459cc9e2b5f52696" target="_top" xlink:title="aube::ErrorMessage\l::getMessage">
<polygon fill="white" stroke="black" points="620,-73.5 620,-103.5 724,-103.5 724,-73.5 620,-73.5"/>
<text text-anchor="start" x="628" y="-91.5" font-family="Helvetica,sans-Serif" font-size="10.00">aube::ErrorMessage</text>
<text text-anchor="middle" x="672" y="-80.5" font-family="Helvetica,sans-Serif" font-size="10.00">::getMessage</text>
</a>
</g>
</g>
<!-- Node24&#45;&gt;Node27 -->
<g id="edge9" class="edge"><title>Node24&#45;&gt;Node27</title>
<path fill="none" stroke="midnightblue" d="M584.357,-104.545C592.622,-103.014 601.306,-101.406 609.852,-99.8238"/>
<polygon fill="midnightblue" stroke="midnightblue" points="610.592,-103.246 619.788,-97.9837 609.318,-96.3632 610.592,-103.246"/>
</g>
<!-- Node28 -->
<g id="node11" class="node"><title>Node28</title>
<g id="a_node11"><a xlink:href="classaube_1_1_error_message.html#a77c2f9b7e93542c958173b52da267989" target="_top" xlink:title="aube::ErrorMessage\l::getHints">
<polygon fill="white" stroke="black" points="620,-24.5 620,-54.5 724,-54.5 724,-24.5 620,-24.5"/>
<text text-anchor="start" x="628" y="-42.5" font-family="Helvetica,sans-Serif" font-size="10.00">aube::ErrorMessage</text>
<text text-anchor="middle" x="672" y="-31.5" font-family="Helvetica,sans-Serif" font-size="10.00">::getHints</text>
</a>
</g>
</g>
<!-- Node24&#45;&gt;Node28 -->
<g id="edge10" class="edge"><title>Node24&#45;&gt;Node28</title>
<path fill="none" stroke="midnightblue" d="M567.845,-98.3829C573.307,-95.5626 578.871,-92.5417 584,-89.5 600.755,-79.5632 603.206,-74.3708 620,-64.5 623.025,-62.7223 626.193,-60.9558 629.408,-59.2318"/>
<polygon fill="midnightblue" stroke="midnightblue" points="631.242,-62.2233 638.507,-54.5116 628.019,-56.0096 631.242,-62.2233"/>
</g>
<!-- Node30 -->
<g id="node13" class="node"><title>Node30</title>
<g id="a_node13"><a xlink:href="namespaceobe_1_1_utils_1_1_string.html#a074d624ca5936545dc32c0b5e423050d" target="_top" xlink:title="Splits a std::string using a delimited. ">
<polygon fill="white" stroke="black" points="490.5,-49.5 490.5,-79.5 579.5,-79.5 579.5,-49.5 490.5,-49.5"/>
<text text-anchor="start" x="498.5" y="-67.5" font-family="Helvetica,sans-Serif" font-size="10.00">obe::Utils::String</text>
<text text-anchor="middle" x="535" y="-56.5" font-family="Helvetica,sans-Serif" font-size="10.00">::split</text>
</a>
</g>
</g>
<!-- Node29&#45;&gt;Node30 -->
<g id="edge12" class="edge"><title>Node29&#45;&gt;Node30</title>
<path fill="none" stroke="midnightblue" d="M437.307,-64.5C451.13,-64.5 466.029,-64.5 479.893,-64.5"/>
<polygon fill="midnightblue" stroke="midnightblue" points="480.258,-68.0001 490.258,-64.5 480.258,-61.0001 480.258,-68.0001"/>
</g>
<!-- Node31 -->
<g id="node14" class="node"><title>Node31</title>
<g id="a_node14"><a xlink:href="namespaceobe_1_1_utils_1_1_vector.html#a964ff22524706c50e054f29d98b8ba6d" target="_top" xlink:title="Join all elements of a std::string into a std::string using a separator. ">
<polygon fill="white" stroke="black" points="489,-0.5 489,-30.5 581,-30.5 581,-0.5 489,-0.5"/>
<text text-anchor="start" x="497" y="-18.5" font-family="Helvetica,sans-Serif" font-size="10.00">obe::Utils::Vector</text>
<text text-anchor="middle" x="535" y="-7.5" font-family="Helvetica,sans-Serif" font-size="10.00">::join</text>
</a>
</g>
</g>
<!-- Node29&#45;&gt;Node31 -->
<g id="edge13" class="edge"><title>Node29&#45;&gt;Node31</title>
<path fill="none" stroke="midnightblue" d="M430.229,-49.3986C445.698,-44.3453 463.092,-38.6634 479.153,-33.4165"/>
<polygon fill="midnightblue" stroke="midnightblue" points="480.534,-36.6476 488.953,-30.2154 478.36,-29.9936 480.534,-36.6476"/>
</g>
<!-- Node32&#45;&gt;Node23 -->
<g id="edge15" class="edge"><title>Node32&#45;&gt;Node23</title>
<path fill="none" stroke="midnightblue" d="M280.398,-113.5C288.679,-113.5 297.199,-113.5 305.616,-113.5"/>
<polygon fill="midnightblue" stroke="midnightblue" points="305.809,-117 315.809,-113.5 305.809,-110 305.809,-117"/>
</g>
</g>
</svg>
        <g id="navigator" transform="translate(0 0)" fill="#404254">
                <rect fill="#f2f5e9" fill-opacity="0.5" stroke="#606060" stroke-width=".5" x="0" y="0" width="60" height="60"/>
                <use id="zoomplus" xlink:href="#zoomPlus" x="17" y="9" onmousedown="handleZoom(evt,'in')"/>
                <use id="zoomminus" xlink:href="#zoomMin" x="42" y="9" onmousedown="handleZoom(evt,'out')"/>
                <use id="reset" xlink:href="#resetDef" x="30" y="36" onmousedown="handleReset()"/>
                <g id="arrowUp" xlink:href="#dirArrow" transform="translate(30 24)" onmousedown="handlePan(0,-1)">
                  <use xlink:href="#rim" fill="#404040">
                        <set attributeName="fill" to="#808080" begin="arrowUp.mouseover" end="arrowUp.mouseout"/>
                  </use>
                  <path fill="none" stroke="white" stroke-width="1.5" d="M0,-3.0v7 M-2.5,-0.5L0,-3.0L2.5,-0.5"/>
                </g>
                <g id="arrowRight" xlink:href="#dirArrow" transform="rotate(90) translate(36 -43)" onmousedown="handlePan(1,0)">
                  <use xlink:href="#rim" fill="#404040">
                        <set attributeName="fill" to="#808080" begin="arrowRight.mouseover" end="arrowRight.mouseout"/>
                  </use>
                  <path fill="none" stroke="white" stroke-width="1.5" d="M0,-3.0v7 M-2.5,-0.5L0,-3.0L2.5,-0.5"/>
                </g>
                <g id="arrowDown" xlink:href="#dirArrow" transform="rotate(180) translate(-30 -48)" onmousedown="handlePan(0,1)">
                  <use xlink:href="#rim" fill="#404040">
                        <set attributeName="fill" to="#808080" begin="arrowDown.mouseover" end="arrowDown.mouseout"/>
                  </use>
                  <path fill="none" stroke="white" stroke-width="1.5" d="M0,-3.0v7 M-2.5,-0.5L0,-3.0L2.5,-0.5"/>
                </g>
                <g id="arrowLeft" xlink:href="#dirArrow" transform="rotate(270) translate(-36 17)" onmousedown="handlePan(-1,0)">
                  <use xlink:href="#rim" fill="#404040">
                        <set attributeName="fill" to="#808080" begin="arrowLeft.mouseover" end="arrowLeft.mouseout"/>
                  </use>
                  <path fill="none" stroke="white" stroke-width="1.5" d="M0,-3.0v7 M-2.5,-0.5L0,-3.0L2.5,-0.5"/>
                </g>
        </g>
        <svg viewBox="0 0 15 15" width="100%" height="30px" preserveAspectRatio="xMaxYMin meet">
         <g id="arrow_out" transform="scale(0.3 0.3)">
          <a xlink:href="classobe_1_1_input_1_1_key_binder_a462fa05e33c310cbc05c5e303b70d56f_cgraph_org.svg" target="_base">
           <rect id="button" ry="5" rx="5" y="6" x="6" height="38" width="38"
                fill="#f2f5e9" fill-opacity="0.5" stroke="#606060" stroke-width="1.0"/>
           <path id="arrow"
             d="M 11.500037,31.436501 C 11.940474,20.09759 22.043105,11.32322 32.158766,21.979434 L 37.068811,17.246167 C 37.068811,17.246167 37.088388,32 37.088388,32 L 22.160133,31.978069 C 22.160133,31.978069 26.997745,27.140456 26.997745,27.140456 C 18.528582,18.264221 13.291696,25.230495 11.500037,31.436501 z"
             style="fill:#404040;"/>
          </a>
         </g>
        </svg>
</svg>
