<?xml version="1.0" encoding="UTF-8" standalone="no"?>
<!DOCTYPE svg PUBLIC "-//W3C//DTD SVG 1.1//EN"
 "http://www.w3.org/Graphics/SVG/1.1/DTD/svg11.dtd">
<!-- Generated by graphviz version 2.38.0 (20140413.2041)
 -->
<!-- Title: obe::Console::Console::Message::setMessage Pages: 1 -->
<!--zoomable 197 -->
<svg id="main" version="1.1" xmlns="http://www.w3.org/2000/svg" xmlns:xlink="http://www.w3.org/1999/xlink" xml:space="preserve" onload="init(evt)">
<style type="text/css"><![CDATA[
.edge:hover path { stroke: red; }
.edge:hover polygon { stroke: red; fill: red; }
.edge path { stroke: white; }
.edge polygon { stroke: white; fill: white; }
]]></style>
<script type="text/javascript"><![CDATA[
var edges = document.getElementsByTagName('g');
if (edges && edges.length) {
  for (var i=0;i<edges.length;i++) {
    if (edges[i].id.substr(0,4)=='edge') {
      edges[i].setAttribute('class','edge');
    }
  }
}
]]></script>
        <defs>
                <circle id="rim" cx="0" cy="0" r="7"/>
                <circle id="rim2" cx="0" cy="0" r="3.5"/>
                <g id="zoomPlus">
                        <use xlink:href="#rim" fill="#404040">
                                <set attributeName="fill" to="#808080" begin="zoomplus.mouseover" end="zoomplus.mouseout"/>
                        </use>
                        <path d="M-4,0h8M0,-4v8" fill="none" stroke="white" stroke-width="1.5" pointer-events="none"/>
                </g>
                <g id="zoomMin">
                        <use xlink:href="#rim" fill="#404040">
                                <set attributeName="fill" to="#808080" begin="zoomminus.mouseover" end="zoomminus.mouseout"/>
                        </use>
                        <path d="M-4,0h8" fill="none" stroke="white" stroke-width="1.5" pointer-events="none"/>
                </g>
                <g id="dirArrow">
                        <path fill="none" stroke="white" stroke-width="1.5" d="M0,-3.0v7 M-2.5,-0.5L0,-3.0L2.5,-0.5"/>
                </g>
               <g id="resetDef">
                       <use xlink:href="#rim2" fill="#404040">
                               <set attributeName="fill" to="#808080" begin="reset.mouseover" end="reset.mouseout"/>
                       </use>
               </g>
        </defs>

<script type="text/javascript">
var viewWidth = 1163;
var viewHeight = 197;
var sectionId = 'dynsection-10';
</script>
<script xlink:href="svgpan.js"/>
<svg id="graph" class="graph">
<g id="viewport">
<title>obe::Console::Console::Message::setMessage</title>
<!-- Node132 -->
<g id="node1" class="node"><title>Node132</title>
<polygon fill="#bfbfbf" stroke="black" points="0,-82.5 0,-112.5 122,-112.5 122,-82.5 0,-82.5"/>
<text text-anchor="start" x="8" y="-100.5" font-family="Helvetica,sans-Serif" font-size="10.00">obe::Console::Console</text>
<text text-anchor="middle" x="61" y="-89.5" font-family="Helvetica,sans-Serif" font-size="10.00">::Message::setMessage</text>
</g>
<!-- Node133 -->
<g id="node2" class="node"><title>Node133</title>
<g id="a_node2"><a xlink:href="namespaceobe_1_1_script_1_1_core_lib.html#ad0a0a4d8fdd1cdfe5d7177c1267e4d16" target="_top" xlink:title="obe::Script::CoreLib\l::loadConsole">
<polygon fill="none" stroke="black" points="158,-82.5 158,-112.5 261,-112.5 261,-82.5 158,-82.5"/>
<text text-anchor="start" x="166" y="-100.5" font-family="Helvetica,sans-Serif" font-size="10.00">obe::Script::CoreLib</text>
<text text-anchor="middle" x="209.5" y="-89.5" font-family="Helvetica,sans-Serif" font-size="10.00">::loadConsole</text>
</a>
</g>
</g>
<!-- Node132&#45;&gt;Node133 -->
<g id="edge1" class="edge"><title>Node132&#45;&gt;Node133</title>
<path fill="none" stroke="midnightblue" d="M132.095,-97.5C140.734,-97.5 149.432,-97.5 157.706,-97.5"/>
<polygon fill="midnightblue" stroke="midnightblue" points="132.01,-94.0001 122.01,-97.5 132.01,-101 132.01,-94.0001"/>
</g>
<!-- Node134 -->
<g id="node3" class="node"><title>Node134</title>
<g id="a_node3"><a xlink:href="namespaceobe_1_1_script.html#a633c629c5a54da2b5d4930730983121c" target="_top" xlink:title="obe::Script::loadCoreLib">
<polygon fill="none" stroke="black" points="297,-88 297,-107 418,-107 418,-88 297,-88"/>
<text text-anchor="middle" x="357.5" y="-95" font-family="Helvetica,sans-Serif" font-size="10.00">obe::Script::loadCoreLib</text>
</a>
</g>
</g>
<!-- Node133&#45;&gt;Node134 -->
<g id="edge2" class="edge"><title>Node133&#45;&gt;Node134</title>
<path fill="none" stroke="midnightblue" d="M271.328,-97.5C279.785,-97.5 288.467,-97.5 296.902,-97.5"/>
<polygon fill="midnightblue" stroke="midnightblue" points="271.154,-94.0001 261.154,-97.5 271.154,-101 271.154,-94.0001"/>
</g>
<!-- Node135 -->
<g id="node4" class="node"><title>Node135</title>
<g id="a_node4"><a xlink:href="namespaceobe_1_1_script.html#a4e6ee77032cf7f66544f9b08464a60b7" target="_top" xlink:title="obe::Script::loadLib">
<polygon fill="none" stroke="black" points="454,-88 454,-107 555,-107 555,-88 454,-88"/>
<text text-anchor="middle" x="504.5" y="-95" font-family="Helvetica,sans-Serif" font-size="10.00">obe::Script::loadLib</text>
</a>
</g>
</g>
<!-- Node134&#45;&gt;Node135 -->
<g id="edge3" class="edge"><title>Node134&#45;&gt;Node135</title>
<path fill="none" stroke="midnightblue" d="M428.401,-97.5C437.037,-97.5 445.723,-97.5 453.967,-97.5"/>
<polygon fill="midnightblue" stroke="midnightblue" points="428.314,-94.0001 418.314,-97.5 428.314,-101 428.314,-94.0001"/>
</g>
<!-- Node136 -->
<g id="node5" class="node"><title>Node136</title>
<g id="a_node5"><a xlink:href="namespaceobe_1_1_script.html#a5e992c0efb0543e7c934bc1065f08b01" target="_top" xlink:title="obe::Script::loadLibBridge">
<polygon fill="none" stroke="black" points="596.5,-164 596.5,-183 724.5,-183 724.5,-164 596.5,-164"/>
<text text-anchor="middle" x="660.5" y="-171" font-family="Helvetica,sans-Serif" font-size="10.00">obe::Script::loadLibBridge</text>
</a>
</g>
</g>
<!-- Node135&#45;&gt;Node136 -->
<g id="edge4" class="edge"><title>Node135&#45;&gt;Node136</title>
<path fill="none" stroke="midnightblue" d="M525.149,-113.245C541.824,-125.936 566.827,-143.434 591,-154.5 599.08,-158.198 608.033,-161.319 616.729,-163.895"/>
<polygon fill="midnightblue" stroke="midnightblue" points="527.283,-110.471 517.237,-107.105 522.992,-116.001 527.283,-110.471"/>
</g>
<!-- Node139 -->
<g id="node8" class="node"><title>Node139</title>
<g id="a_node8"><a xlink:href="namespaceobe_1_1_script.html#aad6ef67388e6d16eb01853f208da410f" target="_top" xlink:title="obe::Script::loadBaseLib">
<polygon fill="none" stroke="black" points="599,-126 599,-145 722,-145 722,-126 599,-126"/>
<text text-anchor="middle" x="660.5" y="-133" font-family="Helvetica,sans-Serif" font-size="10.00">obe::Script::loadBaseLib</text>
</a>
</g>
</g>
<!-- Node135&#45;&gt;Node139 -->
<g id="edge7" class="edge"><title>Node135&#45;&gt;Node139</title>
<path fill="none" stroke="midnightblue" d="M554.294,-109.54C575.808,-114.849 600.732,-120.999 620.919,-125.98"/>
<polygon fill="midnightblue" stroke="midnightblue" points="554.908,-106.087 544.361,-107.089 553.231,-112.883 554.908,-106.087"/>
</g>
<!-- Node140 -->
<g id="node9" class="node"><title>Node140</title>
<g id="a_node9"><a xlink:href="namespaceobe_1_1_modes.html#a1e38c0d9a2ca0230f0de79c298f53ab9" target="_top" xlink:title="A mode that will start the Toolkit. ">
<polygon fill="none" stroke="black" points="766,-96 766,-115 912,-115 912,-96 766,-96"/>
<text text-anchor="middle" x="839" y="-103" font-family="Helvetica,sans-Serif" font-size="10.00">obe::Modes::startToolkitMode</text>
</a>
</g>
</g>
<!-- Node135&#45;&gt;Node140 -->
<g id="edge12" class="edge"><title>Node135&#45;&gt;Node140</title>
<path fill="none" stroke="midnightblue" d="M565.437,-98.9421C621.645,-100.294 705.783,-102.319 765.692,-103.76"/>
<polygon fill="midnightblue" stroke="midnightblue" points="565.36,-95.4393 555.279,-98.6977 565.191,-102.437 565.36,-95.4393"/>
</g>
<!-- Node143 -->
<g id="node12" class="node"><title>Node143</title>
<g id="a_node12"><a xlink:href="classobe_1_1_world_1_1_world.html#a5bd621e3fd9293d949ad0c669cee6838" target="_top" xlink:title="obe::World::World::\lWorld">
<polygon fill="none" stroke="black" points="788.5,-27.5 788.5,-57.5 889.5,-57.5 889.5,-27.5 788.5,-27.5"/>
<text text-anchor="start" x="796.5" y="-45.5" font-family="Helvetica,sans-Serif" font-size="10.00">obe::World::World::</text>
<text text-anchor="middle" x="839" y="-34.5" font-family="Helvetica,sans-Serif" font-size="10.00">World</text>
</a>
</g>
</g>
<!-- Node135&#45;&gt;Node143 -->
<g id="edge13" class="edge"><title>Node135&#45;&gt;Node143</title>
<path fill="none" stroke="midnightblue" d="M565.189,-87.6266C628.947,-77.0802 728.845,-60.5558 788.425,-50.7004"/>
<polygon fill="midnightblue" stroke="midnightblue" points="564.573,-84.1808 555.279,-89.2659 565.716,-91.087 564.573,-84.1808"/>
</g>
<!-- Node144 -->
<g id="node13" class="node"><title>Node144</title>
<g id="a_node13"><a xlink:href="namespaceobe_1_1_world.html#afc958184e59524fdf9dc6ba98a1e9a37" target="_top" xlink:title="obe::World::loadWorldScript\lEngineBaseLib">
<polygon fill="none" stroke="black" points="591,-0.5 591,-30.5 730,-30.5 730,-0.5 591,-0.5"/>
<text text-anchor="start" x="599" y="-18.5" font-family="Helvetica,sans-Serif" font-size="10.00">obe::World::loadWorldScript</text>
<text text-anchor="middle" x="660.5" y="-7.5" font-family="Helvetica,sans-Serif" font-size="10.00">EngineBaseLib</text>
</a>
</g>
</g>
<!-- Node135&#45;&gt;Node144 -->
<g id="edge14" class="edge"><title>Node135&#45;&gt;Node144</title>
<path fill="none" stroke="midnightblue" d="M528.637,-82.2687C545.569,-71.4107 569.282,-56.7959 591,-45.5 601.021,-40.2881 612.142,-35.1539 622.458,-30.6464"/>
<polygon fill="midnightblue" stroke="midnightblue" points="526.477,-79.4976 519.983,-87.8694 530.28,-85.3741 526.477,-79.4976"/>
</g>
<!-- Node137 -->
<g id="node6" class="node"><title>Node137</title>
<g id="a_node6"><a xlink:href="namespaceobe_1_1_script.html#a5dc8321da50fd4b5dc2935e4d8c93a4e" target="_top" xlink:title="obe::Script::loadScrGame\lObject">
<polygon fill="none" stroke="black" points="774.5,-158.5 774.5,-188.5 903.5,-188.5 903.5,-158.5 774.5,-158.5"/>
<text text-anchor="start" x="782.5" y="-176.5" font-family="Helvetica,sans-Serif" font-size="10.00">obe::Script::loadScrGame</text>
<text text-anchor="middle" x="839" y="-165.5" font-family="Helvetica,sans-Serif" font-size="10.00">Object</text>
</a>
</g>
</g>
<!-- Node136&#45;&gt;Node137 -->
<g id="edge5" class="edge"><title>Node136&#45;&gt;Node137</title>
<path fill="none" stroke="midnightblue" d="M735.065,-173.5C748.107,-173.5 761.589,-173.5 774.329,-173.5"/>
<polygon fill="midnightblue" stroke="midnightblue" points="734.722,-170 724.722,-173.5 734.722,-177 734.722,-170"/>
</g>
<!-- Node138 -->
<g id="node7" class="node"><title>Node138</title>
<g id="a_node7"><a xlink:href="classobe_1_1_script_1_1_game_object.html#aa0d58bd1ef0fa2fe9f7567729b2d291e" target="_top" xlink:title="obe::Script::GameObject\l::loadGameObject">
<polygon fill="none" stroke="black" points="952,-158.5 952,-188.5 1077,-188.5 1077,-158.5 952,-158.5"/>
<text text-anchor="start" x="960" y="-176.5" font-family="Helvetica,sans-Serif" font-size="10.00">obe::Script::GameObject</text>
<text text-anchor="middle" x="1014.5" y="-165.5" font-family="Helvetica,sans-Serif" font-size="10.00">::loadGameObject</text>
</a>
</g>
</g>
<!-- Node137&#45;&gt;Node138 -->
<g id="edge6" class="edge"><title>Node137&#45;&gt;Node138</title>
<path fill="none" stroke="midnightblue" d="M913.721,-173.5C926.445,-173.5 939.552,-173.5 951.913,-173.5"/>
<polygon fill="midnightblue" stroke="midnightblue" points="913.62,-170 903.62,-173.5 913.62,-177 913.62,-170"/>
</g>
<!-- Node139&#45;&gt;Node140 -->
<g id="edge8" class="edge"><title>Node139&#45;&gt;Node140</title>
<path fill="none" stroke="midnightblue" d="M728.102,-124.18C745.829,-121.166 764.798,-117.942 781.901,-115.035"/>
<polygon fill="midnightblue" stroke="midnightblue" points="727.103,-120.799 717.831,-125.925 728.276,-127.7 727.103,-120.799"/>
</g>
<!-- Node141 -->
<g id="node10" class="node"><title>Node141</title>
<g id="a_node10"><a xlink:href="namespaceobe_1_1_modes.html#a6a8b08eee511d4895c4da96d4ba223a6" target="_top" xlink:title="obe::Modes::startDevMenu">
<polygon fill="none" stroke="black" points="948,-104 948,-123 1081,-123 1081,-104 948,-104"/>
<text text-anchor="middle" x="1014.5" y="-111" font-family="Helvetica,sans-Serif" font-size="10.00">obe::Modes::startDevMenu</text>
</a>
</g>
</g>
<!-- Node140&#45;&gt;Node141 -->
<g id="edge9" class="edge"><title>Node140&#45;&gt;Node141</title>
<path fill="none" stroke="midnightblue" d="M922.118,-109.286C930.716,-109.683 939.375,-110.082 947.755,-110.469"/>
<polygon fill="midnightblue" stroke="midnightblue" points="922.223,-105.788 912.072,-108.823 921.9,-112.78 922.223,-105.788"/>
</g>
<!-- Node142 -->
<g id="node11" class="node"><title>Node142</title>
<g id="a_node11"><a xlink:href="_ob_engine_8cpp.html#a3c04138a5bfe5d72780bb7e82a18e627" target="_top" xlink:title="main">
<polygon fill="none" stroke="black" points="1117,-85 1117,-104 1155,-104 1155,-85 1117,-85"/>
<text text-anchor="middle" x="1136" y="-92" font-family="Helvetica,sans-Serif" font-size="10.00">main</text>
</a>
</g>
</g>
<!-- Node140&#45;&gt;Node142 -->
<g id="edge11" class="edge"><title>Node140&#45;&gt;Node142</title>
<path fill="none" stroke="midnightblue" d="M922.367,-96.2384C931.013,-95.5273 939.68,-94.9226 948,-94.5 1009.93,-91.3544 1083.54,-92.9026 1116.93,-93.8916"/>
<polygon fill="midnightblue" stroke="midnightblue" points="921.909,-92.765 912.249,-97.1177 922.515,-99.7387 921.909,-92.765"/>
</g>
<!-- Node141&#45;&gt;Node142 -->
<g id="edge10" class="edge"><title>Node141&#45;&gt;Node142</title>
<path fill="none" stroke="midnightblue" d="M1085.82,-102.319C1097.35,-100.487 1108.33,-98.7409 1116.98,-97.3654"/>
<polygon fill="midnightblue" stroke="midnightblue" points="1084.93,-98.9174 1075.6,-103.944 1086.03,-105.831 1084.93,-98.9174"/>
</g>
<!-- Node144&#45;&gt;Node143 -->
<g id="edge15" class="edge"><title>Node144&#45;&gt;Node143</title>
<path fill="none" stroke="midnightblue" d="M740.323,-27.558C756.633,-30.0528 773.376,-32.6142 788.292,-34.8959"/>
<polygon fill="midnightblue" stroke="midnightblue" points="740.659,-24.0687 730.245,-26.0162 739.601,-30.9882 740.659,-24.0687"/>
</g>
</g>
</svg>
        <g id="navigator" transform="translate(0 0)" fill="#404254">
                <rect fill="#f2f5e9" fill-opacity="0.5" stroke="#606060" stroke-width=".5" x="0" y="0" width="60" height="60"/>
                <use id="zoomplus" xlink:href="#zoomPlus" x="17" y="9" onmousedown="handleZoom(evt,'in')"/>
                <use id="zoomminus" xlink:href="#zoomMin" x="42" y="9" onmousedown="handleZoom(evt,'out')"/>
                <use id="reset" xlink:href="#resetDef" x="30" y="36" onmousedown="handleReset()"/>
                <g id="arrowUp" xlink:href="#dirArrow" transform="translate(30 24)" onmousedown="handlePan(0,-1)">
                  <use xlink:href="#rim" fill="#404040">
                        <set attributeName="fill" to="#808080" begin="arrowUp.mouseover" end="arrowUp.mouseout"/>
                  </use>
                  <path fill="none" stroke="white" stroke-width="1.5" d="M0,-3.0v7 M-2.5,-0.5L0,-3.0L2.5,-0.5"/>
                </g>
                <g id="arrowRight" xlink:href="#dirArrow" transform="rotate(90) translate(36 -43)" onmousedown="handlePan(1,0)">
                  <use xlink:href="#rim" fill="#404040">
                        <set attributeName="fill" to="#808080" begin="arrowRight.mouseover" end="arrowRight.mouseout"/>
                  </use>
                  <path fill="none" stroke="white" stroke-width="1.5" d="M0,-3.0v7 M-2.5,-0.5L0,-3.0L2.5,-0.5"/>
                </g>
                <g id="arrowDown" xlink:href="#dirArrow" transform="rotate(180) translate(-30 -48)" onmousedown="handlePan(0,1)">
                  <use xlink:href="#rim" fill="#404040">
                        <set attributeName="fill" to="#808080" begin="arrowDown.mouseover" end="arrowDown.mouseout"/>
                  </use>
                  <path fill="none" stroke="white" stroke-width="1.5" d="M0,-3.0v7 M-2.5,-0.5L0,-3.0L2.5,-0.5"/>
                </g>
                <g id="arrowLeft" xlink:href="#dirArrow" transform="rotate(270) translate(-36 17)" onmousedown="handlePan(-1,0)">
                  <use xlink:href="#rim" fill="#404040">
                        <set attributeName="fill" to="#808080" begin="arrowLeft.mouseover" end="arrowLeft.mouseout"/>
                  </use>
                  <path fill="none" stroke="white" stroke-width="1.5" d="M0,-3.0v7 M-2.5,-0.5L0,-3.0L2.5,-0.5"/>
                </g>
        </g>
        <svg viewBox="0 0 15 15" width="100%" height="30px" preserveAspectRatio="xMaxYMin meet">
         <g id="arrow_out" transform="scale(0.3 0.3)">
          <a xlink:href="classobe_1_1_console_1_1_console_1_1_message_ae59a031e6e421200536666e580231195_icgraph_org.svg" target="_base">
           <rect id="button" ry="5" rx="5" y="6" x="6" height="38" width="38"
                fill="#f2f5e9" fill-opacity="0.5" stroke="#606060" stroke-width="1.0"/>
           <path id="arrow"
             d="M 11.500037,31.436501 C 11.940474,20.09759 22.043105,11.32322 32.158766,21.979434 L 37.068811,17.246167 C 37.068811,17.246167 37.088388,32 37.088388,32 L 22.160133,31.978069 C 22.160133,31.978069 26.997745,27.140456 26.997745,27.140456 C 18.528582,18.264221 13.291696,25.230495 11.500037,31.436501 z"
             style="fill:#404040;"/>
          </a>
         </g>
        </svg>
</svg>
