<?xml version="1.0" encoding="UTF-8" standalone="no"?>
<!DOCTYPE svg PUBLIC "-//W3C//DTD SVG 1.1//EN"
 "http://www.w3.org/Graphics/SVG/1.1/DTD/svg11.dtd">
<!-- Generated by graphviz version 2.38.0 (20140413.2041)
 -->
<!-- Title: obe::Animation::Animation::getPriority Pages: 1 -->
<svg width="1550pt" height="351pt"
 viewBox="0.00 0.00 1550.00 350.70" xmlns="http://www.w3.org/2000/svg" xmlns:xlink="http://www.w3.org/1999/xlink">
<g id="graph0" class="graph" transform="scale(1 1) rotate(0) translate(4 346.695)">
<title>obe::Animation::Animation::getPriority</title>
<!-- Node183 -->
<g id="node1" class="node"><title>Node183</title>
<polygon fill="#bfbfbf" stroke="black" points="0,-142.195 0,-172.195 131,-172.195 131,-142.195 0,-142.195"/>
<text text-anchor="start" x="8" y="-160.195" font-family="Helvetica,sans-Serif" font-size="10.00">obe::Animation::Animation</text>
<text text-anchor="middle" x="65.5" y="-149.195" font-family="Helvetica,sans-Serif" font-size="10.00">::getPriority</text>
</g>
<!-- Node184 -->
<g id="node2" class="node"><title>Node184</title>
<g id="a_node2"><a xlink:href="classobe_1_1_animation_1_1_animator.html#ac335331eb08fe4d3151505780a3a30fa" target="_top" xlink:title="Set the Animation to play by name. ">
<polygon fill="white" stroke="black" points="167,-142.195 167,-172.195 294,-172.195 294,-142.195 167,-142.195"/>
<text text-anchor="start" x="175" y="-160.195" font-family="Helvetica,sans-Serif" font-size="10.00">obe::Animation::Animator</text>
<text text-anchor="middle" x="230.5" y="-149.195" font-family="Helvetica,sans-Serif" font-size="10.00">::setKey</text>
</a>
</g>
</g>
<!-- Node183&#45;&gt;Node184 -->
<g id="edge1" class="edge"><title>Node183&#45;&gt;Node184</title>
<path fill="none" stroke="midnightblue" d="M141.648,-157.195C150.115,-157.195 158.674,-157.195 166.957,-157.195"/>
<polygon fill="midnightblue" stroke="midnightblue" points="141.39,-153.696 131.39,-157.195 141.39,-160.696 141.39,-153.696"/>
</g>
<!-- Node188 -->
<g id="node6" class="node"><title>Node188</title>
<g id="a_node6"><a xlink:href="namespaceobe_1_1_script_1_1_core_lib.html#ad3e8d674e535b8a534a3bed6f311d701" target="_top" xlink:title="obe::Script::CoreLib\l::loadAnimation">
<polygon fill="white" stroke="black" points="341,-265.195 341,-295.195 444,-295.195 444,-265.195 341,-265.195"/>
<text text-anchor="start" x="349" y="-283.195" font-family="Helvetica,sans-Serif" font-size="10.00">obe::Script::CoreLib</text>
<text text-anchor="middle" x="392.5" y="-272.195" font-family="Helvetica,sans-Serif" font-size="10.00">::loadAnimation</text>
</a>
</g>
</g>
<!-- Node183&#45;&gt;Node188 -->
<g id="edge37" class="edge"><title>Node183&#45;&gt;Node188</title>
<path fill="none" stroke="midnightblue" d="M115.914,-175.897C180.526,-200.35 292.447,-242.708 351.832,-265.182"/>
<polygon fill="midnightblue" stroke="midnightblue" points="116.943,-172.544 106.351,-172.278 114.465,-179.091 116.943,-172.544"/>
</g>
<!-- Node207 -->
<g id="node25" class="node"><title>Node207</title>
<g id="a_node25"><a xlink:href="namespaceobe_1_1_bindings_1_1_animation_bindings.html#a90425c1ca7642b03ad5d515f5b40bd00" target="_top" xlink:title="obe::Bindings::Animation\lBindings::LoadAnimation">
<polygon fill="white" stroke="black" points="168,-47.1955 168,-77.1955 293,-77.1955 293,-47.1955 168,-47.1955"/>
<text text-anchor="start" x="176" y="-65.1955" font-family="Helvetica,sans-Serif" font-size="10.00">obe::Bindings::Animation</text>
<text text-anchor="middle" x="230.5" y="-54.1955" font-family="Helvetica,sans-Serif" font-size="10.00">Bindings::LoadAnimation</text>
</a>
</g>
</g>
<!-- Node183&#45;&gt;Node207 -->
<g id="edge35" class="edge"><title>Node183&#45;&gt;Node207</title>
<path fill="none" stroke="midnightblue" d="M100.982,-137.099C131.632,-119.235 175.768,-93.5119 203.524,-77.3351"/>
<polygon fill="midnightblue" stroke="midnightblue" points="99.2051,-134.083 92.3278,-142.142 102.73,-140.131 99.2051,-134.083"/>
</g>
<!-- Node185 -->
<g id="node3" class="node"><title>Node185</title>
<g id="a_node3"><a xlink:href="namespaceobe_1_1_bindings_1_1_animation_bindings.html#a23ff7695a9fedd64589a2eca1ee9f811" target="_top" xlink:title="obe::Bindings::Animation\lBindings::LoadAnimator">
<polygon fill="white" stroke="black" points="330,-69.1955 330,-99.1955 455,-99.1955 455,-69.1955 330,-69.1955"/>
<text text-anchor="start" x="338" y="-87.1955" font-family="Helvetica,sans-Serif" font-size="10.00">obe::Bindings::Animation</text>
<text text-anchor="middle" x="392.5" y="-76.1955" font-family="Helvetica,sans-Serif" font-size="10.00">Bindings::LoadAnimator</text>
</a>
</g>
</g>
<!-- Node184&#45;&gt;Node185 -->
<g id="edge2" class="edge"><title>Node184&#45;&gt;Node185</title>
<path fill="none" stroke="midnightblue" d="M269.168,-137.467C287.365,-128.192 309.625,-117.217 330,-108.195 336.812,-105.179 344.129,-102.147 351.257,-99.3024"/>
<polygon fill="midnightblue" stroke="midnightblue" points="267.354,-134.464 260.054,-142.143 270.549,-140.692 267.354,-134.464"/>
</g>
<!-- Node184&#45;&gt;Node188 -->
<g id="edge5" class="edge"><title>Node184&#45;&gt;Node188</title>
<path fill="none" stroke="midnightblue" d="M249.415,-180.081C267.672,-202.111 297.81,-235.106 330,-256.195 335.081,-259.524 340.694,-262.504 346.402,-265.135"/>
<polygon fill="midnightblue" stroke="midnightblue" points="252.047,-177.769 243.02,-172.222 246.617,-182.187 252.047,-177.769"/>
</g>
<!-- Node200 -->
<g id="node18" class="node"><title>Node200</title>
<g id="a_node18"><a xlink:href="classobe_1_1_system_1_1_cursor.html#a97cc621e093c133754f6b7c834bb809c" target="_top" xlink:title="Creates a Cursor. ">
<polygon fill="white" stroke="black" points="339,-20.1955 339,-50.1955 446,-50.1955 446,-20.1955 339,-20.1955"/>
<text text-anchor="start" x="347" y="-38.1955" font-family="Helvetica,sans-Serif" font-size="10.00">obe::System::Cursor</text>
<text text-anchor="middle" x="392.5" y="-27.1955" font-family="Helvetica,sans-Serif" font-size="10.00">::Cursor</text>
</a>
</g>
</g>
<!-- Node184&#45;&gt;Node200 -->
<g id="edge22" class="edge"><title>Node184&#45;&gt;Node200</title>
<path fill="none" stroke="midnightblue" d="M249.77,-134.186C268.092,-112.388 298.099,-79.9802 330,-59.1955 335.09,-55.8794 340.708,-52.9078 346.417,-50.28"/>
<polygon fill="midnightblue" stroke="midnightblue" points="247.008,-132.034 243.341,-141.974 252.406,-136.491 247.008,-132.034"/>
</g>
<!-- Node201 -->
<g id="node19" class="node"><title>Node201</title>
<g id="a_node19"><a xlink:href="classobe_1_1_system_1_1_cursor.html#a0cfe32fec562dea5a86478ff862f45fc" target="_top" xlink:title="Sets the root path to the Cursor Animator. ">
<polygon fill="white" stroke="black" points="338.5,-216.195 338.5,-246.195 446.5,-246.195 446.5,-216.195 338.5,-216.195"/>
<text text-anchor="start" x="346.5" y="-234.195" font-family="Helvetica,sans-Serif" font-size="10.00">obe::System::Cursor</text>
<text text-anchor="middle" x="392.5" y="-223.195" font-family="Helvetica,sans-Serif" font-size="10.00">::selectAnimatorPath</text>
</a>
</g>
</g>
<!-- Node184&#45;&gt;Node201 -->
<g id="edge23" class="edge"><title>Node184&#45;&gt;Node201</title>
<path fill="none" stroke="midnightblue" d="M268.478,-177.046C286.783,-186.593 309.336,-197.945 330,-207.195 336.8,-210.239 344.111,-213.285 351.236,-216.135"/>
<polygon fill="midnightblue" stroke="midnightblue" points="270.074,-173.931 259.594,-172.38 266.82,-180.128 270.074,-173.931"/>
</g>
<!-- Node204 -->
<g id="node22" class="node"><title>Node204</title>
<g id="a_node22"><a xlink:href="classobe_1_1_system_1_1_cursor.html#a67db8dd4690b8826ba4ac45b5b8c1f2a" target="_top" xlink:title="Sets the Animation Key (CLIC, HOLD, IDLE, RELEASE) ">
<polygon fill="white" stroke="black" points="337.5,-167.195 337.5,-197.195 447.5,-197.195 447.5,-167.195 337.5,-167.195"/>
<text text-anchor="start" x="345.5" y="-185.195" font-family="Helvetica,sans-Serif" font-size="10.00">obe::System::Cursor</text>
<text text-anchor="middle" x="392.5" y="-174.195" font-family="Helvetica,sans-Serif" font-size="10.00">::selectAnimationKey</text>
</a>
</g>
</g>
<!-- Node184&#45;&gt;Node204 -->
<g id="edge27" class="edge"><title>Node184&#45;&gt;Node204</title>
<path fill="none" stroke="midnightblue" d="M304.412,-168.588C315.532,-170.326 326.836,-172.092 337.456,-173.751"/>
<polygon fill="midnightblue" stroke="midnightblue" points="304.697,-165.09 294.277,-167.004 303.617,-172.006 304.697,-165.09"/>
</g>
<!-- Node205 -->
<g id="node23" class="node"><title>Node205</title>
<g id="a_node23"><a xlink:href="classobe_1_1_system_1_1_cursor.html#aa2612f2e00886a203572adb91dfa4f46" target="_top" xlink:title="Updates the Cursor. ">
<polygon fill="white" stroke="black" points="339,-118.195 339,-148.195 446,-148.195 446,-118.195 339,-118.195"/>
<text text-anchor="start" x="347" y="-136.195" font-family="Helvetica,sans-Serif" font-size="10.00">obe::System::Cursor</text>
<text text-anchor="middle" x="392.5" y="-125.195" font-family="Helvetica,sans-Serif" font-size="10.00">::update</text>
</a>
</g>
</g>
<!-- Node184&#45;&gt;Node205 -->
<g id="edge30" class="edge"><title>Node184&#45;&gt;Node205</title>
<path fill="none" stroke="midnightblue" d="M304.435,-146.255C316.083,-144.508 327.931,-142.731 338.983,-141.073"/>
<polygon fill="midnightblue" stroke="midnightblue" points="303.647,-142.834 294.277,-147.779 304.686,-149.757 303.647,-142.834"/>
</g>
<!-- Node186 -->
<g id="node4" class="node"><title>Node186</title>
<g id="a_node4"><a xlink:href="namespaceobe_1_1_bindings.html#a41d33207a0199f125c75a0f70a4a3ba8" target="_top" xlink:title="obe::Bindings::IndexBindings">
<polygon fill="white" stroke="black" points="496,-61.6955 496,-80.6955 639,-80.6955 639,-61.6955 496,-61.6955"/>
<text text-anchor="middle" x="567.5" y="-68.6955" font-family="Helvetica,sans-Serif" font-size="10.00">obe::Bindings::IndexBindings</text>
</a>
</g>
</g>
<!-- Node185&#45;&gt;Node186 -->
<g id="edge3" class="edge"><title>Node185&#45;&gt;Node186</title>
<path fill="none" stroke="midnightblue" d="M465.732,-78.7677C475.692,-78.0192 485.913,-77.2512 495.845,-76.5048"/>
<polygon fill="midnightblue" stroke="midnightblue" points="465.178,-75.2993 455.468,-79.5389 465.703,-82.2796 465.178,-75.2993"/>
</g>
<!-- Node187 -->
<g id="node5" class="node"><title>Node187</title>
<g id="a_node5"><a xlink:href="_ob_engine_8cpp.html#a3c04138a5bfe5d72780bb7e82a18e627" target="_top" xlink:title="main">
<polygon fill="white" stroke="black" points="1504,-118.695 1504,-137.695 1542,-137.695 1542,-118.695 1504,-118.695"/>
<text text-anchor="middle" x="1523" y="-125.695" font-family="Helvetica,sans-Serif" font-size="10.00">main</text>
</a>
</g>
</g>
<!-- Node186&#45;&gt;Node187 -->
<g id="edge4" class="edge"><title>Node186&#45;&gt;Node187</title>
<path fill="none" stroke="midnightblue" d="M649.239,-71.1955C713.728,-71.1955 806.411,-71.1955 887.5,-71.1955 887.5,-71.1955 887.5,-71.1955 1227,-71.1955 1333.67,-71.1955 1458.17,-107.569 1503.94,-122.203"/>
<polygon fill="midnightblue" stroke="midnightblue" points="649.137,-67.6956 639.137,-71.1955 649.137,-74.6956 649.137,-67.6956"/>
</g>
<!-- Node189 -->
<g id="node7" class="node"><title>Node189</title>
<g id="a_node7"><a xlink:href="namespaceobe_1_1_script.html#abdb81ec0976f1097cef6711415b8fac3" target="_top" xlink:title="obe::Script::loadCoreLib">
<polygon fill="white" stroke="black" points="680,-270.695 680,-289.695 801,-289.695 801,-270.695 680,-270.695"/>
<text text-anchor="middle" x="740.5" y="-277.695" font-family="Helvetica,sans-Serif" font-size="10.00">obe::Script::loadCoreLib</text>
</a>
</g>
</g>
<!-- Node188&#45;&gt;Node189 -->
<g id="edge6" class="edge"><title>Node188&#45;&gt;Node189</title>
<path fill="none" stroke="midnightblue" d="M454.454,-280.195C518.004,-280.195 616.955,-280.195 679.97,-280.195"/>
<polygon fill="midnightblue" stroke="midnightblue" points="454.182,-276.696 444.182,-280.195 454.182,-283.696 454.182,-276.696"/>
</g>
<!-- Node190 -->
<g id="node8" class="node"><title>Node190</title>
<g id="a_node8"><a xlink:href="namespaceobe_1_1_script.html#a4e6ee77032cf7f66544f9b08464a60b7" target="_top" xlink:title="obe::Script::loadLib">
<polygon fill="white" stroke="black" points="838,-230.695 838,-249.695 939,-249.695 939,-230.695 838,-230.695"/>
<text text-anchor="middle" x="888.5" y="-237.695" font-family="Helvetica,sans-Serif" font-size="10.00">obe::Script::loadLib</text>
</a>
</g>
</g>
<!-- Node189&#45;&gt;Node190 -->
<g id="edge7" class="edge"><title>Node189&#45;&gt;Node190</title>
<path fill="none" stroke="midnightblue" d="M786.311,-267.919C807.703,-262.058 832.91,-255.152 852.815,-249.698"/>
<polygon fill="midnightblue" stroke="midnightblue" points="785.19,-264.596 776.471,-270.614 787.04,-271.348 785.19,-264.596"/>
</g>
<!-- Node199 -->
<g id="node17" class="node"><title>Node199</title>
<g id="a_node17"><a xlink:href="namespaceobe_1_1_script_1_1_core_lib.html#a07d6c11bbb082bc45bdba50d97965c00" target="_top" xlink:title="obe::Script::CoreLib\l::loadCollision">
<polygon fill="white" stroke="black" points="837,-269.195 837,-299.195 940,-299.195 940,-269.195 837,-269.195"/>
<text text-anchor="start" x="845" y="-287.195" font-family="Helvetica,sans-Serif" font-size="10.00">obe::Script::CoreLib</text>
<text text-anchor="middle" x="888.5" y="-276.195" font-family="Helvetica,sans-Serif" font-size="10.00">::loadCollision</text>
</a>
</g>
</g>
<!-- Node189&#45;&gt;Node199 -->
<g id="edge20" class="edge"><title>Node189&#45;&gt;Node199</title>
<path fill="none" stroke="midnightblue" d="M811.356,-275.365C819.966,-275.57 828.634,-275.903 836.88,-276.349"/>
<polygon fill="midnightblue" stroke="midnightblue" points="811.367,-271.865 801.305,-275.183 811.24,-278.863 811.367,-271.865"/>
</g>
<!-- Node191 -->
<g id="node9" class="node"><title>Node191</title>
<g id="a_node9"><a xlink:href="namespaceobe_1_1_modes.html#a1e38c0d9a2ca0230f0de79c298f53ab9" target="_top" xlink:title="A mode that will start the Toolkit. ">
<polygon fill="white" stroke="black" points="1153,-164.695 1153,-183.695 1299,-183.695 1299,-164.695 1153,-164.695"/>
<text text-anchor="middle" x="1226" y="-171.695" font-family="Helvetica,sans-Serif" font-size="10.00">obe::Modes::startToolkitMode</text>
</a>
</g>
</g>
<!-- Node190&#45;&gt;Node191 -->
<g id="edge8" class="edge"><title>Node190&#45;&gt;Node191</title>
<path fill="none" stroke="midnightblue" d="M907.361,-223.777C923.818,-209.803 949.618,-190.687 976,-182.195 1033.43,-163.71 1102.21,-162.995 1152.92,-166.173"/>
<polygon fill="midnightblue" stroke="midnightblue" points="904.867,-221.308 899.653,-230.532 909.481,-226.573 904.867,-221.308"/>
</g>
<!-- Node193 -->
<g id="node11" class="node"><title>Node193</title>
<g id="a_node11"><a xlink:href="classobe_1_1_scene_1_1_world.html#a32964e659e18cb32094d9f8ceea30aa3" target="_top" xlink:title="obe::Scene::World::\lWorld">
<polygon fill="white" stroke="black" points="1174,-246.195 1174,-276.195 1278,-276.195 1278,-246.195 1174,-246.195"/>
<text text-anchor="start" x="1182" y="-264.195" font-family="Helvetica,sans-Serif" font-size="10.00">obe::Scene::World::</text>
<text text-anchor="middle" x="1226" y="-253.195" font-family="Helvetica,sans-Serif" font-size="10.00">World</text>
</a>
</g>
</g>
<!-- Node190&#45;&gt;Node193 -->
<g id="edge12" class="edge"><title>Node190&#45;&gt;Node193</title>
<path fill="none" stroke="midnightblue" d="M923.557,-253.308C943.069,-260.562 965.675,-268.456 976,-270.195 1043.61,-281.587 1122.95,-275.423 1173.58,-269.075"/>
<polygon fill="midnightblue" stroke="midnightblue" points="924.598,-249.961 914.006,-249.72 922.135,-256.513 924.598,-249.961"/>
</g>
<!-- Node194 -->
<g id="node12" class="node"><title>Node194</title>
<g id="a_node12"><a xlink:href="namespaceobe_1_1_scene.html#ae5cbcc3278d9115d603e5024dec9136e" target="_top" xlink:title="obe::Scene::loadWorldScript\lEngineBaseLib">
<polygon fill="white" stroke="black" points="976,-230.195 976,-260.195 1117,-260.195 1117,-230.195 976,-230.195"/>
<text text-anchor="start" x="984" y="-248.195" font-family="Helvetica,sans-Serif" font-size="10.00">obe::Scene::loadWorldScript</text>
<text text-anchor="middle" x="1046.5" y="-237.195" font-family="Helvetica,sans-Serif" font-size="10.00">EngineBaseLib</text>
</a>
</g>
</g>
<!-- Node190&#45;&gt;Node194 -->
<g id="edge13" class="edge"><title>Node190&#45;&gt;Node194</title>
<path fill="none" stroke="midnightblue" d="M949.348,-242.114C958.066,-242.393 967.105,-242.683 975.995,-242.968"/>
<polygon fill="midnightblue" stroke="midnightblue" points="949.395,-238.614 939.288,-241.791 949.171,-245.61 949.395,-238.614"/>
</g>
<!-- Node195 -->
<g id="node13" class="node"><title>Node195</title>
<g id="a_node13"><a xlink:href="namespaceobe_1_1_script.html#a5e992c0efb0543e7c934bc1065f08b01" target="_top" xlink:title="obe::Script::loadLibBridge">
<polygon fill="white" stroke="black" points="982.5,-317.695 982.5,-336.695 1110.5,-336.695 1110.5,-317.695 982.5,-317.695"/>
<text text-anchor="middle" x="1046.5" y="-324.695" font-family="Helvetica,sans-Serif" font-size="10.00">obe::Script::loadLibBridge</text>
</a>
</g>
</g>
<!-- Node190&#45;&gt;Node195 -->
<g id="edge15" class="edge"><title>Node190&#45;&gt;Node195</title>
<path fill="none" stroke="midnightblue" d="M929.751,-253.955C933.346,-255.824 936.823,-257.901 940,-260.195 960.207,-274.788 955.473,-289.058 976,-303.195 984.936,-309.35 995.6,-314.064 1005.86,-317.614"/>
<polygon fill="midnightblue" stroke="midnightblue" points="931.216,-250.777 920.673,-249.731 928.263,-257.123 931.216,-250.777"/>
</g>
<!-- Node198 -->
<g id="node16" class="node"><title>Node198</title>
<g id="a_node16"><a xlink:href="namespaceobe_1_1_script.html#aad6ef67388e6d16eb01853f208da410f" target="_top" xlink:title="obe::Script::loadBaseLib">
<polygon fill="white" stroke="black" points="985,-191.695 985,-210.695 1108,-210.695 1108,-191.695 985,-191.695"/>
<text text-anchor="middle" x="1046.5" y="-198.695" font-family="Helvetica,sans-Serif" font-size="10.00">obe::Script::loadBaseLib</text>
</a>
</g>
</g>
<!-- Node190&#45;&gt;Node198 -->
<g id="edge18" class="edge"><title>Node190&#45;&gt;Node198</title>
<path fill="none" stroke="midnightblue" d="M937.366,-228.229C959.877,-222.601 986.346,-215.984 1007.46,-210.705"/>
<polygon fill="midnightblue" stroke="midnightblue" points="936.514,-224.834 927.662,-230.655 938.212,-231.625 936.514,-224.834"/>
</g>
<!-- Node191&#45;&gt;Node187 -->
<g id="edge11" class="edge"><title>Node191&#45;&gt;Node187</title>
<path fill="none" stroke="midnightblue" d="M1309.28,-182.954C1356.84,-185.217 1417.15,-183.227 1468,-166.195 1485.39,-160.37 1502.14,-146.983 1512.25,-137.761"/>
<polygon fill="midnightblue" stroke="midnightblue" points="1309.2,-179.445 1299.02,-182.391 1308.82,-186.434 1309.2,-179.445"/>
</g>
<!-- Node192 -->
<g id="node10" class="node"><title>Node192</title>
<g id="a_node10"><a xlink:href="namespaceobe_1_1_modes.html#a6a8b08eee511d4895c4da96d4ba223a6" target="_top" xlink:title="Starts the development Menu where you can starts other menus from. ">
<polygon fill="white" stroke="black" points="1335,-137.695 1335,-156.695 1468,-156.695 1468,-137.695 1335,-137.695"/>
<text text-anchor="middle" x="1401.5" y="-144.695" font-family="Helvetica,sans-Serif" font-size="10.00">obe::Modes::startDevMenu</text>
</a>
</g>
</g>
<!-- Node191&#45;&gt;Node192 -->
<g id="edge9" class="edge"><title>Node191&#45;&gt;Node192</title>
<path fill="none" stroke="midnightblue" d="M1298.42,-163.081C1311.99,-160.969 1326.08,-158.777 1339.3,-156.72"/>
<polygon fill="midnightblue" stroke="midnightblue" points="1297.51,-159.68 1288.17,-164.676 1298.59,-166.597 1297.51,-159.68"/>
</g>
<!-- Node192&#45;&gt;Node187 -->
<g id="edge10" class="edge"><title>Node192&#45;&gt;Node187</title>
<path fill="none" stroke="midnightblue" d="M1472.82,-136.015C1484.35,-134.182 1495.33,-132.436 1503.98,-131.061"/>
<polygon fill="midnightblue" stroke="midnightblue" points="1471.93,-132.613 1462.6,-137.64 1473.03,-139.526 1471.93,-132.613"/>
</g>
<!-- Node194&#45;&gt;Node193 -->
<g id="edge14" class="edge"><title>Node194&#45;&gt;Node193</title>
<path fill="none" stroke="midnightblue" d="M1127.45,-252.402C1143.25,-253.826 1159.42,-255.284 1173.94,-256.593"/>
<polygon fill="midnightblue" stroke="midnightblue" points="1127.42,-248.885 1117.14,-251.473 1126.79,-255.857 1127.42,-248.885"/>
</g>
<!-- Node196 -->
<g id="node14" class="node"><title>Node196</title>
<g id="a_node14"><a xlink:href="namespaceobe_1_1_script.html#a5dc8321da50fd4b5dc2935e4d8c93a4e" target="_top" xlink:title="obe::Script::loadScrGame\lObject">
<polygon fill="white" stroke="black" points="1161.5,-312.195 1161.5,-342.195 1290.5,-342.195 1290.5,-312.195 1161.5,-312.195"/>
<text text-anchor="start" x="1169.5" y="-330.195" font-family="Helvetica,sans-Serif" font-size="10.00">obe::Script::loadScrGame</text>
<text text-anchor="middle" x="1226" y="-319.195" font-family="Helvetica,sans-Serif" font-size="10.00">Object</text>
</a>
</g>
</g>
<!-- Node195&#45;&gt;Node196 -->
<g id="edge16" class="edge"><title>Node195&#45;&gt;Node196</title>
<path fill="none" stroke="midnightblue" d="M1120.74,-327.195C1134.17,-327.195 1148.1,-327.195 1161.23,-327.195"/>
<polygon fill="midnightblue" stroke="midnightblue" points="1120.58,-323.696 1110.58,-327.195 1120.58,-330.696 1120.58,-323.696"/>
</g>
<!-- Node197 -->
<g id="node15" class="node"><title>Node197</title>
<g id="a_node15"><a xlink:href="classobe_1_1_script_1_1_game_object.html#aadeac0036d2fe21d523acfd4e9011a23" target="_top" xlink:title="obe::Script::GameObject\l::loadGameObject">
<polygon fill="white" stroke="black" points="1339,-312.195 1339,-342.195 1464,-342.195 1464,-312.195 1339,-312.195"/>
<text text-anchor="start" x="1347" y="-330.195" font-family="Helvetica,sans-Serif" font-size="10.00">obe::Script::GameObject</text>
<text text-anchor="middle" x="1401.5" y="-319.195" font-family="Helvetica,sans-Serif" font-size="10.00">::loadGameObject</text>
</a>
</g>
</g>
<!-- Node196&#45;&gt;Node197 -->
<g id="edge17" class="edge"><title>Node196&#45;&gt;Node197</title>
<path fill="none" stroke="midnightblue" d="M1300.72,-327.195C1313.44,-327.195 1326.55,-327.195 1338.91,-327.195"/>
<polygon fill="midnightblue" stroke="midnightblue" points="1300.62,-323.696 1290.62,-327.195 1300.62,-330.696 1300.62,-323.696"/>
</g>
<!-- Node198&#45;&gt;Node191 -->
<g id="edge19" class="edge"><title>Node198&#45;&gt;Node191</title>
<path fill="none" stroke="midnightblue" d="M1118.07,-190.461C1132.67,-188.239 1147.96,-185.914 1162.27,-183.738"/>
<polygon fill="midnightblue" stroke="midnightblue" points="1117.45,-187.015 1108.09,-191.979 1118.5,-193.935 1117.45,-187.015"/>
</g>
<!-- Node199&#45;&gt;Node189 -->
<g id="edge21" class="edge"><title>Node199&#45;&gt;Node189</title>
<path fill="none" stroke="midnightblue" d="M826.757,-289.196C818.342,-289.084 809.703,-288.842 801.305,-288.485"/>
<polygon fill="midnightblue" stroke="midnightblue" points="826.855,-292.697 836.88,-289.268 826.905,-285.697 826.855,-292.697"/>
</g>
<!-- Node202 -->
<g id="node20" class="node"><title>Node202</title>
<g id="a_node20"><a xlink:href="namespaceobe_1_1_bindings_1_1_system_bindings.html#a58371d483e59e8389a76ffe9d03ea71c" target="_top" xlink:title="obe::Bindings::SystemBindings\l::BindCursor">
<polygon fill="white" stroke="black" points="491,-167.195 491,-197.195 644,-197.195 644,-167.195 491,-167.195"/>
<text text-anchor="start" x="499" y="-185.195" font-family="Helvetica,sans-Serif" font-size="10.00">obe::Bindings::SystemBindings</text>
<text text-anchor="middle" x="567.5" y="-174.195" font-family="Helvetica,sans-Serif" font-size="10.00">::BindCursor</text>
</a>
</g>
</g>
<!-- Node201&#45;&gt;Node202 -->
<g id="edge24" class="edge"><title>Node201&#45;&gt;Node202</title>
<path fill="none" stroke="midnightblue" d="M456.677,-213.301C475.285,-208.031 495.448,-202.32 513.359,-197.247"/>
<polygon fill="midnightblue" stroke="midnightblue" points="455.485,-210.001 446.817,-216.094 457.393,-216.736 455.485,-210.001"/>
</g>
<!-- Node203 -->
<g id="node21" class="node"><title>Node203</title>
<g id="a_node21"><a xlink:href="namespaceobe_1_1_script_1_1_core_lib.html#adc976091c779b7a03984d210b9285983" target="_top" xlink:title="obe::Script::CoreLib\l::loadCursor">
<polygon fill="white" stroke="black" points="516,-216.195 516,-246.195 619,-246.195 619,-216.195 516,-216.195"/>
<text text-anchor="start" x="524" y="-234.195" font-family="Helvetica,sans-Serif" font-size="10.00">obe::Script::CoreLib</text>
<text text-anchor="middle" x="567.5" y="-223.195" font-family="Helvetica,sans-Serif" font-size="10.00">::loadCursor</text>
</a>
</g>
</g>
<!-- Node201&#45;&gt;Node203 -->
<g id="edge25" class="edge"><title>Node201&#45;&gt;Node203</title>
<path fill="none" stroke="midnightblue" d="M457.054,-231.195C476.382,-231.195 497.358,-231.195 515.726,-231.195"/>
<polygon fill="midnightblue" stroke="midnightblue" points="456.817,-227.696 446.817,-231.195 456.817,-234.696 456.817,-227.696"/>
</g>
<!-- Node203&#45;&gt;Node189 -->
<g id="edge26" class="edge"><title>Node203&#45;&gt;Node189</title>
<path fill="none" stroke="midnightblue" d="M629.086,-248.557C654.995,-255.981 684.249,-264.363 706.132,-270.634"/>
<polygon fill="midnightblue" stroke="midnightblue" points="629.92,-245.155 619.343,-245.764 627.992,-251.884 629.92,-245.155"/>
</g>
<!-- Node204&#45;&gt;Node202 -->
<g id="edge28" class="edge"><title>Node204&#45;&gt;Node202</title>
<path fill="none" stroke="midnightblue" d="M457.896,-182.195C468.645,-182.195 479.882,-182.195 490.881,-182.195"/>
<polygon fill="midnightblue" stroke="midnightblue" points="457.764,-178.696 447.764,-182.195 457.764,-185.696 457.764,-178.696"/>
</g>
<!-- Node204&#45;&gt;Node203 -->
<g id="edge29" class="edge"><title>Node204&#45;&gt;Node203</title>
<path fill="none" stroke="midnightblue" d="M456.52,-200.045C475.995,-205.561 497.188,-211.564 515.726,-216.814"/>
<polygon fill="midnightblue" stroke="midnightblue" points="457.393,-196.655 446.817,-197.297 455.485,-203.39 457.393,-196.655"/>
</g>
<!-- Node205&#45;&gt;Node202 -->
<g id="edge31" class="edge"><title>Node205&#45;&gt;Node202</title>
<path fill="none" stroke="midnightblue" d="M456.007,-150.9C474.807,-156.225 495.25,-162.015 513.382,-167.15"/>
<polygon fill="midnightblue" stroke="midnightblue" points="456.921,-147.521 446.346,-148.163 455.013,-154.256 456.921,-147.521"/>
</g>
<!-- Node206 -->
<g id="node24" class="node"><title>Node206</title>
<g id="a_node24"><a xlink:href="namespaceobe_1_1_modes.html#a5f4a1008892030350b06282b8dee1a89" target="_top" xlink:title="Start the game by loading the boot.lua file in one of the MountedPaths. ">
<polygon fill="white" stroke="black" points="1166.5,-115.695 1166.5,-134.695 1285.5,-134.695 1285.5,-115.695 1166.5,-115.695"/>
<text text-anchor="middle" x="1226" y="-122.695" font-family="Helvetica,sans-Serif" font-size="10.00">obe::Modes::startGame</text>
</a>
</g>
</g>
<!-- Node205&#45;&gt;Node206 -->
<g id="edge32" class="edge"><title>Node205&#45;&gt;Node206</title>
<path fill="none" stroke="midnightblue" d="M456.56,-130.862C525.905,-128.501 640.628,-125.195 739.5,-125.195 739.5,-125.195 739.5,-125.195 889.5,-125.195 986.48,-125.195 1099.23,-125.195 1166.21,-125.195"/>
<polygon fill="midnightblue" stroke="midnightblue" points="456.121,-127.375 446.248,-131.218 456.363,-134.371 456.121,-127.375"/>
</g>
<!-- Node206&#45;&gt;Node187 -->
<g id="edge34" class="edge"><title>Node206&#45;&gt;Node187</title>
<path fill="none" stroke="midnightblue" d="M1295.85,-125.896C1363.9,-126.588 1463.51,-127.601 1503.95,-128.012"/>
<polygon fill="midnightblue" stroke="midnightblue" points="1295.67,-122.394 1285.64,-125.792 1295.6,-129.393 1295.67,-122.394"/>
</g>
<!-- Node206&#45;&gt;Node192 -->
<g id="edge33" class="edge"><title>Node206&#45;&gt;Node192</title>
<path fill="none" stroke="midnightblue" d="M1295.92,-133.934C1308.79,-135.566 1322.2,-137.267 1334.96,-138.885"/>
<polygon fill="midnightblue" stroke="midnightblue" points="1296.1,-130.43 1285.74,-132.644 1295.22,-137.374 1296.1,-130.43"/>
</g>
<!-- Node207&#45;&gt;Node186 -->
<g id="edge36" class="edge"><title>Node207&#45;&gt;Node186</title>
<path fill="none" stroke="midnightblue" d="M260.968,-41.7564C279.778,-29.9843 305.208,-16.3378 330,-10.1955 383.925,3.16483 401.176,3.5654 455,-10.1955 494.121,-20.1973 534.288,-47.0707 554.014,-61.5837"/>
<polygon fill="midnightblue" stroke="midnightblue" points="259.071,-38.8149 252.558,-47.1712 262.861,-44.7004 259.071,-38.8149"/>
</g>
</g>
</svg>
