<?xml version="1.0" encoding="UTF-8" standalone="no"?>
<!DOCTYPE svg PUBLIC "-//W3C//DTD SVG 1.1//EN"
 "http://www.w3.org/Graphics/SVG/1.1/DTD/svg11.dtd">
<!-- Generated by graphviz version 2.38.0 (20140413.2041)
 -->
<!-- Title: obe::Scene::World::enableShowCollision Pages: 1 -->
<!--zoomable 163 -->
<svg id="main" version="1.1" xmlns="http://www.w3.org/2000/svg" xmlns:xlink="http://www.w3.org/1999/xlink" xml:space="preserve" onload="init(evt)">
<style type="text/css"><![CDATA[
.edge:hover path { stroke: red; }
.edge:hover polygon { stroke: red; fill: red; }
.edge path { stroke: white; }
.edge polygon { stroke: white; fill: white; }
.node polygon { fill: white; }
]]></style>
<script type="text/javascript"><![CDATA[
var edges = document.getElementsByTagName('g');
if (edges && edges.length) {
  for (var i=0;i<edges.length;i++) {
    if (edges[i].id.substr(0,4)=='edge') {
      edges[i].setAttribute('class','edge');
    }
  }
}
]]></script>
        <defs>
                <circle id="rim" cx="0" cy="0" r="7"/>
                <circle id="rim2" cx="0" cy="0" r="3.5"/>
                <g id="zoomPlus">
                        <use xlink:href="#rim" fill="#404040">
                                <set attributeName="fill" to="#808080" begin="zoomplus.mouseover" end="zoomplus.mouseout"/>
                        </use>
                        <path d="M-4,0h8M0,-4v8" fill="none" stroke="white" stroke-width="1.5" pointer-events="none"/>
                </g>
                <g id="zoomMin">
                        <use xlink:href="#rim" fill="#404040">
                                <set attributeName="fill" to="#808080" begin="zoomminus.mouseover" end="zoomminus.mouseout"/>
                        </use>
                        <path d="M-4,0h8" fill="none" stroke="white" stroke-width="1.5" pointer-events="none"/>
                </g>
                <g id="dirArrow">
                        <path fill="none" stroke="white" stroke-width="1.5" d="M0,-3.0v7 M-2.5,-0.5L0,-3.0L2.5,-0.5"/>
                </g>
               <g id="resetDef">
                       <use xlink:href="#rim2" fill="#404040">
                               <set attributeName="fill" to="#808080" begin="reset.mouseover" end="reset.mouseout"/>
                       </use>
               </g>
        </defs>

<script type="text/javascript">
var viewWidth = 978;
var viewHeight = 163;
var sectionId = 'dynsection-21';
</script>
<script xlink:href="svgpan.js"/>
<svg id="graph" class="graph">
<g id="viewport">
<title>obe::Scene::World::enableShowCollision</title>
<!-- Node656 -->
<g id="node1" class="node"><title>Node656</title>
<polygon fill="#bfbfbf" stroke="black" points="0,-110.5 0,-140.5 106,-140.5 106,-110.5 0,-110.5"/>
<text text-anchor="start" x="8" y="-128.5" font-family="Helvetica,sans-Serif" font-size="10.00">obe::Scene::World::</text>
<text text-anchor="middle" x="53" y="-117.5" font-family="Helvetica,sans-Serif" font-size="10.00">enableShowCollision</text>
</g>
<!-- Node657 -->
<g id="node2" class="node"><title>Node657</title>
<g id="a_node2"><a xlink:href="namespaceobe_1_1_editor.html#a9009207671e71dccb68a31ea2362e9ef" target="_top" xlink:title="Starts the map edition. ">
<polygon fill="none" stroke="black" points="623,-116 623,-135 727,-135 727,-116 623,-116"/>
<text text-anchor="middle" x="675" y="-123" font-family="Helvetica,sans-Serif" font-size="10.00">obe::Editor::editMap</text>
</a>
</g>
</g>
<!-- Node656&#45;&gt;Node657 -->
<g id="edge1" class="edge"><title>Node656&#45;&gt;Node657</title>
<path fill="none" stroke="midnightblue" d="M116.387,-126.775C215.915,-128.601 416.769,-131.434 587,-128.5 598.635,-128.299 611.142,-127.948 622.944,-127.555"/>
<polygon fill="midnightblue" stroke="midnightblue" points="116.27,-123.272 106.207,-126.585 116.14,-130.271 116.27,-123.272"/>
</g>
<!-- Node660 -->
<g id="node5" class="node"><title>Node660</title>
<g id="a_node5"><a xlink:href="namespaceobe_1_1_scene.html#ac23b5fc14866394c89a820ce6badc130" target="_top" xlink:title="obe::Scene::loadWorldLib">
<polygon fill="none" stroke="black" points="142,-94 142,-113 270,-113 270,-94 142,-94"/>
<text text-anchor="middle" x="206" y="-101" font-family="Helvetica,sans-Serif" font-size="10.00">obe::Scene::loadWorldLib</text>
</a>
</g>
</g>
<!-- Node656&#45;&gt;Node660 -->
<g id="edge5" class="edge"><title>Node656&#45;&gt;Node660</title>
<path fill="none" stroke="midnightblue" d="M116.454,-116.401C124.818,-115.182 133.403,-113.931 141.781,-112.711"/>
<polygon fill="midnightblue" stroke="midnightblue" points="115.78,-112.962 106.389,-117.867 116.789,-119.889 115.78,-112.962"/>
</g>
<!-- Node658 -->
<g id="node3" class="node"><title>Node658</title>
<g id="a_node3"><a xlink:href="namespaceobe_1_1_modes.html#a6a8b08eee511d4895c4da96d4ba223a6" target="_top" xlink:title="Starts the development Menu where you can starts other menus from. ">
<polygon fill="none" stroke="black" points="763,-135 763,-154 896,-154 896,-135 763,-135"/>
<text text-anchor="middle" x="829.5" y="-142" font-family="Helvetica,sans-Serif" font-size="10.00">obe::Modes::startDevMenu</text>
</a>
</g>
</g>
<!-- Node657&#45;&gt;Node658 -->
<g id="edge2" class="edge"><title>Node657&#45;&gt;Node658</title>
<path fill="none" stroke="midnightblue" d="M737.292,-133.136C745.688,-134.182 754.336,-135.26 762.806,-136.315"/>
<polygon fill="midnightblue" stroke="midnightblue" points="737.561,-129.643 727.205,-131.88 736.695,-136.589 737.561,-129.643"/>
</g>
<!-- Node659 -->
<g id="node4" class="node"><title>Node659</title>
<g id="a_node4"><a xlink:href="_ob_engine_8cpp.html#a3c04138a5bfe5d72780bb7e82a18e627" target="_top" xlink:title="main">
<polygon fill="none" stroke="black" points="932,-116 932,-135 970,-135 970,-116 932,-116"/>
<text text-anchor="middle" x="951" y="-123" font-family="Helvetica,sans-Serif" font-size="10.00">main</text>
</a>
</g>
</g>
<!-- Node657&#45;&gt;Node659 -->
<g id="edge4" class="edge"><title>Node657&#45;&gt;Node659</title>
<path fill="none" stroke="midnightblue" d="M737.356,-125.5C799.863,-125.5 892.971,-125.5 931.885,-125.5"/>
<polygon fill="midnightblue" stroke="midnightblue" points="737.216,-122 727.216,-125.5 737.216,-129 737.216,-122"/>
</g>
<!-- Node658&#45;&gt;Node659 -->
<g id="edge3" class="edge"><title>Node658&#45;&gt;Node659</title>
<path fill="none" stroke="midnightblue" d="M900.822,-133.319C912.345,-131.487 923.327,-129.741 931.978,-128.365"/>
<polygon fill="midnightblue" stroke="midnightblue" points="899.926,-129.917 890.6,-134.944 901.026,-136.831 899.926,-129.917"/>
</g>
<!-- Node661 -->
<g id="node6" class="node"><title>Node661</title>
<g id="a_node6"><a xlink:href="classobe_1_1_scene_1_1_world.html#a896573e186dc6efbe2e5def53533908f" target="_top" xlink:title="obe::Scene::World::\lcreateGameObject">
<polygon fill="none" stroke="black" points="324.5,-88.5 324.5,-118.5 428.5,-118.5 428.5,-88.5 324.5,-88.5"/>
<text text-anchor="start" x="332.5" y="-106.5" font-family="Helvetica,sans-Serif" font-size="10.00">obe::Scene::World::</text>
<text text-anchor="middle" x="376.5" y="-95.5" font-family="Helvetica,sans-Serif" font-size="10.00">createGameObject</text>
</a>
</g>
</g>
<!-- Node660&#45;&gt;Node661 -->
<g id="edge6" class="edge"><title>Node660&#45;&gt;Node661</title>
<path fill="none" stroke="midnightblue" d="M280.374,-96.8002C295.176,-96.6628 310.433,-96.8073 324.277,-97.2339"/>
<polygon fill="midnightblue" stroke="midnightblue" points="280.173,-93.3026 270.223,-96.9404 280.27,-100.302 280.173,-93.3026"/>
</g>
<!-- Node663 -->
<g id="node8" class="node"><title>Node663</title>
<g id="a_node8"><a xlink:href="namespaceobe_1_1_scene.html#ae5cbcc3278d9115d603e5024dec9136e" target="_top" xlink:title="obe::Scene::loadWorldScript\lEngineBaseLib">
<polygon fill="none" stroke="black" points="306,-0.5 306,-30.5 447,-30.5 447,-0.5 306,-0.5"/>
<text text-anchor="start" x="314" y="-18.5" font-family="Helvetica,sans-Serif" font-size="10.00">obe::Scene::loadWorldScript</text>
<text text-anchor="middle" x="376.5" y="-7.5" font-family="Helvetica,sans-Serif" font-size="10.00">EngineBaseLib</text>
</a>
</g>
</g>
<!-- Node660&#45;&gt;Node663 -->
<g id="edge11" class="edge"><title>Node660&#45;&gt;Node663</title>
<path fill="none" stroke="midnightblue" d="M230.756,-88.4726C250.53,-76.2358 279.612,-58.8618 306,-45.5 316.318,-40.2755 327.754,-35.0979 338.322,-30.5524"/>
<polygon fill="midnightblue" stroke="midnightblue" points="228.743,-85.6028 222.109,-93.8635 232.446,-91.5429 228.743,-85.6028"/>
</g>
<!-- Node661&#45;&gt;Node660 -->
<g id="edge10" class="edge"><title>Node661&#45;&gt;Node660</title>
<path fill="none" stroke="midnightblue" d="M314.074,-110.025C299.798,-110.313 284.575,-110.325 270.223,-110.06"/>
<polygon fill="midnightblue" stroke="midnightblue" points="314.369,-113.519 324.277,-109.766 314.191,-106.521 314.369,-113.519"/>
</g>
<!-- Node662 -->
<g id="node7" class="node"><title>Node662</title>
<g id="a_node7"><a xlink:href="classobe_1_1_scene_1_1_world.html#a362d242e7751481b0086ca9ed131920f" target="_top" xlink:title="obe::Scene::World::\lloadFromFile">
<polygon fill="none" stroke="black" points="483,-88.5 483,-118.5 587,-118.5 587,-88.5 483,-88.5"/>
<text text-anchor="start" x="491" y="-106.5" font-family="Helvetica,sans-Serif" font-size="10.00">obe::Scene::World::</text>
<text text-anchor="middle" x="535" y="-95.5" font-family="Helvetica,sans-Serif" font-size="10.00">loadFromFile</text>
</a>
</g>
</g>
<!-- Node661&#45;&gt;Node662 -->
<g id="edge7" class="edge"><title>Node661&#45;&gt;Node662</title>
<path fill="none" stroke="midnightblue" d="M439.131,-103.5C453.631,-103.5 468.93,-103.5 482.908,-103.5"/>
<polygon fill="midnightblue" stroke="midnightblue" points="438.744,-100 428.744,-103.5 438.744,-107 438.744,-100"/>
</g>
<!-- Node662&#45;&gt;Node657 -->
<g id="edge8" class="edge"><title>Node662&#45;&gt;Node657</title>
<path fill="none" stroke="midnightblue" d="M597.496,-113.304C605.872,-114.639 614.398,-115.998 622.571,-117.301"/>
<polygon fill="midnightblue" stroke="midnightblue" points="597.812,-109.81 587.386,-111.692 596.71,-116.723 597.812,-109.81"/>
</g>
<!-- Node662&#45;&gt;Node660 -->
<g id="edge9" class="edge"><title>Node662&#45;&gt;Node660</title>
<path fill="none" stroke="midnightblue" d="M480.769,-85.6656C469.728,-82.6869 458.081,-80.0605 447,-78.5 384.946,-69.761 368.188,-70.7693 306,-78.5 282.427,-81.4304 256.407,-88.1427 236.961,-93.8748"/>
<polygon fill="midnightblue" stroke="midnightblue" points="480.129,-89.1221 490.705,-88.4797 482.037,-82.387 480.129,-89.1221"/>
</g>
<!-- Node664 -->
<g id="node9" class="node"><title>Node664</title>
<g id="a_node9"><a xlink:href="classobe_1_1_scene_1_1_world.html#a32964e659e18cb32094d9f8ceea30aa3" target="_top" xlink:title="obe::Scene::World::\lWorld">
<polygon fill="none" stroke="black" points="483,-0.5 483,-30.5 587,-30.5 587,-0.5 483,-0.5"/>
<text text-anchor="start" x="491" y="-18.5" font-family="Helvetica,sans-Serif" font-size="10.00">obe::Scene::World::</text>
<text text-anchor="middle" x="535" y="-7.5" font-family="Helvetica,sans-Serif" font-size="10.00">World</text>
</a>
</g>
</g>
<!-- Node663&#45;&gt;Node664 -->
<g id="edge12" class="edge"><title>Node663&#45;&gt;Node664</title>
<path fill="none" stroke="midnightblue" d="M457.289,-15.5C466.02,-15.5 474.725,-15.5 482.969,-15.5"/>
<polygon fill="midnightblue" stroke="midnightblue" points="457.055,-12.0001 447.055,-15.5 457.055,-19.0001 457.055,-12.0001"/>
</g>
</g>
</svg>
        <g id="navigator" transform="translate(0 0)" fill="#404254">
                <rect fill="#f2f5e9" fill-opacity="0.5" stroke="#606060" stroke-width=".5" x="0" y="0" width="60" height="60"/>
                <use id="zoomplus" xlink:href="#zoomPlus" x="17" y="9" onmousedown="handleZoom(evt,'in')"/>
                <use id="zoomminus" xlink:href="#zoomMin" x="42" y="9" onmousedown="handleZoom(evt,'out')"/>
                <use id="reset" xlink:href="#resetDef" x="30" y="36" onmousedown="handleReset()"/>
                <g id="arrowUp" xlink:href="#dirArrow" transform="translate(30 24)" onmousedown="handlePan(0,-1)">
                  <use xlink:href="#rim" fill="#404040">
                        <set attributeName="fill" to="#808080" begin="arrowUp.mouseover" end="arrowUp.mouseout"/>
                  </use>
                  <path fill="none" stroke="white" stroke-width="1.5" d="M0,-3.0v7 M-2.5,-0.5L0,-3.0L2.5,-0.5"/>
                </g>
                <g id="arrowRight" xlink:href="#dirArrow" transform="rotate(90) translate(36 -43)" onmousedown="handlePan(1,0)">
                  <use xlink:href="#rim" fill="#404040">
                        <set attributeName="fill" to="#808080" begin="arrowRight.mouseover" end="arrowRight.mouseout"/>
                  </use>
                  <path fill="none" stroke="white" stroke-width="1.5" d="M0,-3.0v7 M-2.5,-0.5L0,-3.0L2.5,-0.5"/>
                </g>
                <g id="arrowDown" xlink:href="#dirArrow" transform="rotate(180) translate(-30 -48)" onmousedown="handlePan(0,1)">
                  <use xlink:href="#rim" fill="#404040">
                        <set attributeName="fill" to="#808080" begin="arrowDown.mouseover" end="arrowDown.mouseout"/>
                  </use>
                  <path fill="none" stroke="white" stroke-width="1.5" d="M0,-3.0v7 M-2.5,-0.5L0,-3.0L2.5,-0.5"/>
                </g>
                <g id="arrowLeft" xlink:href="#dirArrow" transform="rotate(270) translate(-36 17)" onmousedown="handlePan(-1,0)">
                  <use xlink:href="#rim" fill="#404040">
                        <set attributeName="fill" to="#808080" begin="arrowLeft.mouseover" end="arrowLeft.mouseout"/>
                  </use>
                  <path fill="none" stroke="white" stroke-width="1.5" d="M0,-3.0v7 M-2.5,-0.5L0,-3.0L2.5,-0.5"/>
                </g>
        </g>
        <svg viewBox="0 0 15 15" width="100%" height="30px" preserveAspectRatio="xMaxYMin meet">
         <g id="arrow_out" transform="scale(0.3 0.3)">
          <a xlink:href="classobe_1_1_scene_1_1_world_a6a7bc6347725af4a0c2c80bc72e8c061_icgraph_org.svg" target="_base">
           <rect id="button" ry="5" rx="5" y="6" x="6" height="38" width="38"
                fill="#f2f5e9" fill-opacity="0.5" stroke="#606060" stroke-width="1.0"/>
           <path id="arrow"
             d="M 11.500037,31.436501 C 11.940474,20.09759 22.043105,11.32322 32.158766,21.979434 L 37.068811,17.246167 C 37.068811,17.246167 37.088388,32 37.088388,32 L 22.160133,31.978069 C 22.160133,31.978069 26.997745,27.140456 26.997745,27.140456 C 18.528582,18.264221 13.291696,25.230495 11.500037,31.436501 z"
             style="fill:#404040;"/>
          </a>
         </g>
        </svg>
</svg>
