<?xml version="1.0" encoding="UTF-8" standalone="no"?>
<!DOCTYPE svg PUBLIC "-//W3C//DTD SVG 1.1//EN"
 "http://www.w3.org/Graphics/SVG/1.1/DTD/svg11.dtd">
<!-- Generated by graphviz version 2.38.0 (20140413.2041)
 -->
<!-- Title: obe::Collision::PolygonalCollider::getCollidedCollidersWithTags Pages: 1 -->
<svg width="876pt" height="323pt"
 viewBox="0.00 0.00 876.00 322.50" xmlns="http://www.w3.org/2000/svg" xmlns:xlink="http://www.w3.org/1999/xlink">
<g id="graph0" class="graph" transform="scale(1 1) rotate(0) translate(4 318.5)">
<title>obe::Collision::PolygonalCollider::getCollidedCollidersWithTags</title>
<!-- Node314 -->
<g id="node1" class="node"><title>Node314</title>
<polygon fill="#bfbfbf" stroke="black" points="0,-179.5 0,-220.5 140,-220.5 140,-179.5 0,-179.5"/>
<text text-anchor="start" x="8" y="-208.5" font-family="Helvetica,sans-Serif" font-size="10.00">obe::Collision::Polygonal</text>
<text text-anchor="start" x="8" y="-197.5" font-family="Helvetica,sans-Serif" font-size="10.00">Collider::getCollidedColliders</text>
<text text-anchor="middle" x="70" y="-186.5" font-family="Helvetica,sans-Serif" font-size="10.00">WithTags</text>
</g>
<!-- Node315 -->
<g id="node2" class="node"><title>Node315</title>
<g id="a_node2"><a xlink:href="classobe_1_1_collision_1_1_polygonal_collider.html#aabf77866c60bc6bfc0f2e58113b8bfcb" target="_top" xlink:title="Clears Tags of the Collider. ">
<polygon fill="none" stroke="black" points="190,-210 190,-240 314,-240 314,-210 190,-210"/>
<text text-anchor="start" x="198" y="-228" font-family="Helvetica,sans-Serif" font-size="10.00">obe::Collision::Polygonal</text>
<text text-anchor="middle" x="252" y="-217" font-family="Helvetica,sans-Serif" font-size="10.00">Collider::clearTags</text>
</a>
</g>
</g>
<!-- Node314&#45;&gt;Node315 -->
<g id="edge1" class="edge"><title>Node314&#45;&gt;Node315</title>
<path fill="none" stroke="midnightblue" d="M140.078,-209.594C152.986,-211.387 166.502,-213.264 179.481,-215.067"/>
<polygon fill="midnightblue" stroke="midnightblue" points="179.368,-218.585 189.754,-216.494 180.331,-211.651 179.368,-218.585"/>
</g>
<!-- Node316 -->
<g id="node3" class="node"><title>Node316</title>
<g id="a_node3"><a xlink:href="classobe_1_1_collision_1_1_polygonal_collider.html#ab7fc1d109efbb78e3eca2a9427038986" target="_top" xlink:title="obe::Collision::Polygonal\lCollider::getAllCollidedColliders">
<polygon fill="none" stroke="black" points="176,-161 176,-191 328,-191 328,-161 176,-161"/>
<text text-anchor="start" x="184" y="-179" font-family="Helvetica,sans-Serif" font-size="10.00">obe::Collision::Polygonal</text>
<text text-anchor="middle" x="252" y="-168" font-family="Helvetica,sans-Serif" font-size="10.00">Collider::getAllCollidedColliders</text>
</a>
</g>
</g>
<!-- Node314&#45;&gt;Node316 -->
<g id="edge2" class="edge"><title>Node314&#45;&gt;Node316</title>
<path fill="none" stroke="midnightblue" d="M140.078,-190.79C148.486,-189.668 157.153,-188.513 165.761,-187.365"/>
<polygon fill="midnightblue" stroke="midnightblue" points="166.371,-190.815 175.821,-186.024 165.446,-183.876 166.371,-190.815"/>
</g>
<!-- Node317 -->
<g id="node4" class="node"><title>Node317</title>
<g id="a_node4"><a xlink:href="classobe_1_1_collision_1_1_polygonal_collider.html#a77d1bcd6dee0f06683bfbffefca58206" target="_top" xlink:title="obe::Collision::Polygonal\lCollider::doesCollide">
<polygon fill="none" stroke="black" points="364,-161 364,-191 488,-191 488,-161 364,-161"/>
<text text-anchor="start" x="372" y="-179" font-family="Helvetica,sans-Serif" font-size="10.00">obe::Collision::Polygonal</text>
<text text-anchor="middle" x="426" y="-168" font-family="Helvetica,sans-Serif" font-size="10.00">Collider::doesCollide</text>
</a>
</g>
</g>
<!-- Node316&#45;&gt;Node317 -->
<g id="edge3" class="edge"><title>Node316&#45;&gt;Node317</title>
<path fill="none" stroke="midnightblue" d="M328.191,-176C336.675,-176 345.3,-176 353.731,-176"/>
<polygon fill="midnightblue" stroke="midnightblue" points="353.896,-179.5 363.896,-176 353.896,-172.5 353.896,-179.5"/>
</g>
<!-- Node318 -->
<g id="node5" class="node"><title>Node318</title>
<g id="a_node5"><a xlink:href="classobe_1_1_collision_1_1_polygonal_collider.html#a33cdd3d9e22ca7661bff0e39b9056a49" target="_top" xlink:title="Check if the Collider contains one of the Tag in parameter. ">
<polygon fill="none" stroke="black" points="537,-284 537,-314 667,-314 667,-284 537,-284"/>
<text text-anchor="start" x="545" y="-302" font-family="Helvetica,sans-Serif" font-size="10.00">obe::Collision::Polygonal</text>
<text text-anchor="middle" x="602" y="-291" font-family="Helvetica,sans-Serif" font-size="10.00">Collider::doesHaveAnyTag</text>
</a>
</g>
</g>
<!-- Node317&#45;&gt;Node318 -->
<g id="edge4" class="edge"><title>Node317&#45;&gt;Node318</title>
<path fill="none" stroke="midnightblue" d="M437.801,-191.021C454.105,-212.639 487.05,-252.403 524,-275 526.807,-276.717 529.748,-278.321 532.774,-279.818"/>
<polygon fill="midnightblue" stroke="midnightblue" points="531.504,-283.084 542.06,-283.995 534.376,-276.701 531.504,-283.084"/>
</g>
<!-- Node320 -->
<g id="node7" class="node"><title>Node320</title>
<g id="a_node7"><a xlink:href="classobe_1_1_collision_1_1_polygonal_collider.html#ab00569a98c8d2f5c106983f04f61a9ac" target="_top" xlink:title="Gets all the Tags from one of the Lists. ">
<polygon fill="none" stroke="black" points="540,-235 540,-265 664,-265 664,-235 540,-235"/>
<text text-anchor="start" x="548" y="-253" font-family="Helvetica,sans-Serif" font-size="10.00">obe::Collision::Polygonal</text>
<text text-anchor="middle" x="602" y="-242" font-family="Helvetica,sans-Serif" font-size="10.00">Collider::getAllTags</text>
</a>
</g>
</g>
<!-- Node317&#45;&gt;Node320 -->
<g id="edge6" class="edge"><title>Node317&#45;&gt;Node320</title>
<path fill="none" stroke="midnightblue" d="M453.173,-191.07C472.367,-201.728 499.283,-215.867 524,-226 528.737,-227.942 533.692,-229.819 538.705,-231.609"/>
<polygon fill="midnightblue" stroke="midnightblue" points="537.782,-234.993 548.377,-234.941 540.062,-228.375 537.782,-234.993"/>
</g>
<!-- Node321 -->
<g id="node8" class="node"><title>Node321</title>
<g id="a_node8"><a xlink:href="classobe_1_1_collision_1_1_polygonal_collider.html#aa5b7c9f68e408e8ab1c09804377c89d5" target="_top" xlink:title="Get all the Points of the Polygon. ">
<polygon fill="none" stroke="black" points="540,-186 540,-216 664,-216 664,-186 540,-186"/>
<text text-anchor="start" x="548" y="-204" font-family="Helvetica,sans-Serif" font-size="10.00">obe::Collision::Polygonal</text>
<text text-anchor="middle" x="602" y="-193" font-family="Helvetica,sans-Serif" font-size="10.00">Collider::getAllPoints</text>
</a>
</g>
</g>
<!-- Node317&#45;&gt;Node321 -->
<g id="edge7" class="edge"><title>Node317&#45;&gt;Node321</title>
<path fill="none" stroke="midnightblue" d="M488.346,-184.814C501.809,-186.748 516.173,-188.812 529.98,-190.796"/>
<polygon fill="midnightblue" stroke="midnightblue" points="529.519,-194.266 539.915,-192.223 530.514,-187.337 529.519,-194.266"/>
</g>
<!-- Node322 -->
<g id="node9" class="node"><title>Node322</title>
<g id="a_node9"><a xlink:href="classobe_1_1_collision_1_1_polygonal_collider.html#aa6af540369863706dbe5a91b8fcb3a72" target="_top" xlink:title="Removes all Highlights. ">
<polygon fill="none" stroke="black" points="540,-137 540,-167 664,-167 664,-137 540,-137"/>
<text text-anchor="start" x="548" y="-155" font-family="Helvetica,sans-Serif" font-size="10.00">obe::Collision::Polygonal</text>
<text text-anchor="middle" x="602" y="-144" font-family="Helvetica,sans-Serif" font-size="10.00">Collider::clearHighlights</text>
</a>
</g>
</g>
<!-- Node317&#45;&gt;Node322 -->
<g id="edge8" class="edge"><title>Node317&#45;&gt;Node322</title>
<path fill="none" stroke="midnightblue" d="M488.346,-167.538C501.809,-165.681 516.173,-163.7 529.98,-161.796"/>
<polygon fill="midnightblue" stroke="midnightblue" points="530.487,-165.259 539.915,-160.426 529.531,-158.325 530.487,-165.259"/>
</g>
<!-- Node323 -->
<g id="node10" class="node"><title>Node323</title>
<g id="a_node10"><a xlink:href="classobe_1_1_collision_1_1_polygonal_collider.html#ac19d98c42e5b577d9644b1f724049803" target="_top" xlink:title="Highlight a Side of the Polygon (Changes its color when the Polygon is drawn) ">
<polygon fill="none" stroke="black" points="540,-88 540,-118 664,-118 664,-88 540,-88"/>
<text text-anchor="start" x="548" y="-106" font-family="Helvetica,sans-Serif" font-size="10.00">obe::Collision::Polygonal</text>
<text text-anchor="middle" x="602" y="-95" font-family="Helvetica,sans-Serif" font-size="10.00">Collider::highlightLine</text>
</a>
</g>
</g>
<!-- Node317&#45;&gt;Node323 -->
<g id="edge9" class="edge"><title>Node317&#45;&gt;Node323</title>
<path fill="none" stroke="midnightblue" d="M454.033,-160.821C473.186,-150.448 499.694,-136.848 524,-127 528.745,-125.078 533.705,-123.215 538.722,-121.433"/>
<polygon fill="midnightblue" stroke="midnightblue" points="540.076,-124.67 548.4,-118.115 537.805,-118.048 540.076,-124.67"/>
</g>
<!-- Node324 -->
<g id="node11" class="node"><title>Node324</title>
<g id="a_node11"><a xlink:href="classobe_1_1_collision_1_1_polygonal_collider.html#adf3d1cd440bafc922498e6ce862e2aff" target="_top" xlink:title="Get if the Position (x, y) is on one of the side of the Polygon. ">
<polygon fill="none" stroke="black" points="524,-39 524,-69 680,-69 680,-39 524,-39"/>
<text text-anchor="start" x="532" y="-57" font-family="Helvetica,sans-Serif" font-size="10.00">obe::Collision::Polygonal</text>
<text text-anchor="middle" x="602" y="-46" font-family="Helvetica,sans-Serif" font-size="10.00">Collider::getSideContainingPoint</text>
</a>
</g>
</g>
<!-- Node317&#45;&gt;Node324 -->
<g id="edge10" class="edge"><title>Node317&#45;&gt;Node324</title>
<path fill="none" stroke="midnightblue" d="M438.111,-160.778C454.551,-139.306 487.387,-100.263 524,-78 526.812,-76.2904 529.756,-74.6924 532.785,-73.1999"/>
<polygon fill="midnightblue" stroke="midnightblue" points="534.384,-76.3184 542.077,-69.0331 531.52,-69.9311 534.384,-76.3184"/>
</g>
<!-- Node319 -->
<g id="node6" class="node"><title>Node319</title>
<g id="a_node6"><a xlink:href="namespaceobe_1_1_utils_1_1_vector.html#a636b7f465d67c2bf42a297f221af9cfe" target="_top" xlink:title="Check if a given item is in the given std::vector. ">
<polygon fill="none" stroke="black" points="746,-284 746,-314 838,-314 838,-284 746,-284"/>
<text text-anchor="start" x="754" y="-302" font-family="Helvetica,sans-Serif" font-size="10.00">obe::Utils::Vector</text>
<text text-anchor="middle" x="792" y="-291" font-family="Helvetica,sans-Serif" font-size="10.00">::isInList</text>
</a>
</g>
</g>
<!-- Node318&#45;&gt;Node319 -->
<g id="edge5" class="edge"><title>Node318&#45;&gt;Node319</title>
<path fill="none" stroke="midnightblue" d="M667.173,-299C689.386,-299 714.079,-299 735.533,-299"/>
<polygon fill="midnightblue" stroke="midnightblue" points="735.78,-302.5 745.78,-299 735.78,-295.5 735.78,-302.5"/>
</g>
<!-- Node325 -->
<g id="node12" class="node"><title>Node325</title>
<g id="a_node12"><a xlink:href="classobe_1_1_collision_1_1_polygonal_collider.html#abee3a2723d3e9ba81c23179fbc006c6a" target="_top" xlink:title="Get the distance between a Point of the Polygon and the given Position(x, y) ">
<polygon fill="none" stroke="black" points="716,-88 716,-118 868,-118 868,-88 716,-88"/>
<text text-anchor="start" x="724" y="-106" font-family="Helvetica,sans-Serif" font-size="10.00">obe::Collision::Polygonal</text>
<text text-anchor="middle" x="792" y="-95" font-family="Helvetica,sans-Serif" font-size="10.00">Collider::getDistanceFromPoint</text>
</a>
</g>
</g>
<!-- Node324&#45;&gt;Node325 -->
<g id="edge11" class="edge"><title>Node324&#45;&gt;Node325</title>
<path fill="none" stroke="midnightblue" d="M660.684,-69.0346C680.534,-74.2083 702.937,-80.0475 723.499,-85.4066"/>
<polygon fill="midnightblue" stroke="midnightblue" points="722.866,-88.8585 733.425,-87.9938 724.631,-82.0848 722.866,-88.8585"/>
</g>
<!-- Node326 -->
<g id="node13" class="node"><title>Node326</title>
<g id="a_node13"><a xlink:href="classobe_1_1_collision_1_1_polygonal_collider.html#ae45f352630947b803382a66b6d23b39d" target="_top" xlink:title="obe::Collision::Polygonal\lCollider::getPointPosition">
<polygon fill="none" stroke="black" points="729,-39 729,-69 855,-69 855,-39 729,-39"/>
<text text-anchor="start" x="737" y="-57" font-family="Helvetica,sans-Serif" font-size="10.00">obe::Collision::Polygonal</text>
<text text-anchor="middle" x="792" y="-46" font-family="Helvetica,sans-Serif" font-size="10.00">Collider::getPointPosition</text>
</a>
</g>
</g>
<!-- Node324&#45;&gt;Node326 -->
<g id="edge12" class="edge"><title>Node324&#45;&gt;Node326</title>
<path fill="none" stroke="midnightblue" d="M680.009,-54C692.811,-54 706.049,-54 718.728,-54"/>
<polygon fill="midnightblue" stroke="midnightblue" points="718.758,-57.5001 728.758,-54 718.758,-50.5001 718.758,-57.5001"/>
</g>
<!-- Node327 -->
<g id="node14" class="node"><title>Node327</title>
<g id="a_node14"><a xlink:href="namespaceobe_1_1_utils_1_1_math.html#a24f8d3bc663fb3e51ddb114f09adf202" target="_top" xlink:title="Check if the given value is between the lower bound and the upper bound. ">
<polygon fill="none" stroke="black" points="723.5,-0.5 723.5,-19.5 860.5,-19.5 860.5,-0.5 723.5,-0.5"/>
<text text-anchor="middle" x="792" y="-7.5" font-family="Helvetica,sans-Serif" font-size="10.00">obe::Utils::Math::isBetween</text>
</a>
</g>
</g>
<!-- Node324&#45;&gt;Node327 -->
<g id="edge13" class="edge"><title>Node324&#45;&gt;Node327</title>
<path fill="none" stroke="midnightblue" d="M667.173,-38.9808C691.064,-33.3892 717.823,-27.1265 740.336,-21.8574"/>
<polygon fill="midnightblue" stroke="midnightblue" points="741.417,-25.1992 750.356,-19.5124 739.822,-18.3834 741.417,-25.1992"/>
</g>
</g>
</svg>
