<?xml version="1.0" encoding="UTF-8" standalone="no"?>
<!DOCTYPE svg PUBLIC "-//W3C//DTD SVG 1.1//EN"
 "http://www.w3.org/Graphics/SVG/1.1/DTD/svg11.dtd">
<!-- Generated by graphviz version 2.38.0 (20140413.2041)
 -->
<!-- Title: obe::Scene::Scene::clearWorld Pages: 1 -->
<svg width="856pt" height="192pt"
 viewBox="0.00 0.00 856.00 191.50" xmlns="http://www.w3.org/2000/svg" xmlns:xlink="http://www.w3.org/1999/xlink">
<g id="graph0" class="graph" transform="scale(1 1) rotate(0) translate(4 187.5)">
<title>obe::Scene::Scene::clearWorld</title>
<!-- Node106 -->
<g id="node1" class="node"><title>Node106</title>
<polygon fill="#bfbfbf" stroke="black" points="0,-34 0,-64 106,-64 106,-34 0,-34"/>
<text text-anchor="start" x="8" y="-52" font-family="Helvetica,sans-Serif" font-size="10.00">obe::Scene::Scene::</text>
<text text-anchor="middle" x="53" y="-41" font-family="Helvetica,sans-Serif" font-size="10.00">clearWorld</text>
</g>
<!-- Node107 -->
<g id="node2" class="node"><title>Node107</title>
<g id="a_node2"><a xlink:href="namespaceobe_1_1_bindings_1_1_scene_bindings.html#af7c6cb8cc46286eba7ddbe55ffe7d296" target="_top" xlink:title="obe::Bindings::SceneBindings\l::LoadScene">
<polygon fill="white" stroke="black" points="448,-1 448,-31 595,-31 595,-1 448,-1"/>
<text text-anchor="start" x="456" y="-19" font-family="Helvetica,sans-Serif" font-size="10.00">obe::Bindings::SceneBindings</text>
<text text-anchor="middle" x="521.5" y="-8" font-family="Helvetica,sans-Serif" font-size="10.00">::LoadScene</text>
</a>
</g>
</g>
<!-- Node106&#45;&gt;Node107 -->
<g id="edge1" class="edge"><title>Node106&#45;&gt;Node107</title>
<path fill="none" stroke="midnightblue" d="M116.279,-44.5944C202.151,-38.5198 356.608,-27.5937 447.705,-21.1495"/>
<polygon fill="midnightblue" stroke="midnightblue" points="115.884,-41.1135 106.156,-45.3105 116.378,-48.0961 115.884,-41.1135"/>
</g>
<!-- Node110 -->
<g id="node5" class="node"><title>Node110</title>
<g id="a_node5"><a xlink:href="classobe_1_1_scene_1_1_scene.html#a385bccf95deb10358169dffe5547e567" target="_top" xlink:title="Loads the Scene from a .map.vili file. ">
<polygon fill="white" stroke="black" points="142,-67 142,-97 248,-97 248,-67 142,-67"/>
<text text-anchor="start" x="150" y="-85" font-family="Helvetica,sans-Serif" font-size="10.00">obe::Scene::Scene::</text>
<text text-anchor="middle" x="195" y="-74" font-family="Helvetica,sans-Serif" font-size="10.00">loadFromFile</text>
</a>
</g>
</g>
<!-- Node106&#45;&gt;Node110 -->
<g id="edge4" class="edge"><title>Node106&#45;&gt;Node110</title>
<path fill="none" stroke="midnightblue" d="M116.107,-63.6395C124.695,-65.6637 133.443,-67.7258 141.826,-69.7018"/>
<polygon fill="midnightblue" stroke="midnightblue" points="116.667,-60.1757 106.131,-61.288 115.061,-66.989 116.667,-60.1757"/>
</g>
<!-- Node108 -->
<g id="node3" class="node"><title>Node108</title>
<g id="a_node3"><a xlink:href="namespaceobe_1_1_bindings.html#a41d33207a0199f125c75a0f70a4a3ba8" target="_top" xlink:title="To call when the engine starts, indexes all Lua bindings. ">
<polygon fill="white" stroke="black" points="631,-0.5 631,-19.5 774,-19.5 774,-0.5 631,-0.5"/>
<text text-anchor="middle" x="702.5" y="-7.5" font-family="Helvetica,sans-Serif" font-size="10.00">obe::Bindings::IndexBindings</text>
</a>
</g>
</g>
<!-- Node107&#45;&gt;Node108 -->
<g id="edge2" class="edge"><title>Node107&#45;&gt;Node108</title>
<path fill="none" stroke="midnightblue" d="M605.102,-13.2312C613.716,-12.9425 622.416,-12.6509 630.88,-12.3672"/>
<polygon fill="midnightblue" stroke="midnightblue" points="604.925,-9.73508 595.048,-13.5682 605.16,-16.7312 604.925,-9.73508"/>
</g>
<!-- Node109 -->
<g id="node4" class="node"><title>Node109</title>
<g id="a_node4"><a xlink:href="_ob_engine_8cpp.html#a3c04138a5bfe5d72780bb7e82a18e627" target="_top" xlink:title="main">
<polygon fill="white" stroke="black" points="810,-57.5 810,-76.5 848,-76.5 848,-57.5 810,-57.5"/>
<text text-anchor="middle" x="829" y="-64.5" font-family="Helvetica,sans-Serif" font-size="10.00">main</text>
</a>
</g>
</g>
<!-- Node108&#45;&gt;Node109 -->
<g id="edge3" class="edge"><title>Node108&#45;&gt;Node109</title>
<path fill="none" stroke="midnightblue" d="M745.963,-22.7632C755.351,-26.0496 765.137,-29.8457 774,-34 788.326,-40.7151 803.621,-50.3171 814.262,-57.4335"/>
<polygon fill="midnightblue" stroke="midnightblue" points="746.973,-19.4102 736.379,-19.5293 744.735,-26.0428 746.973,-19.4102"/>
</g>
<!-- Node111 -->
<g id="node6" class="node"><title>Node111</title>
<g id="a_node6"><a xlink:href="namespaceobe_1_1_editor.html#a9009207671e71dccb68a31ea2362e9ef" target="_top" xlink:title="Starts the map edition. ">
<polygon fill="white" stroke="black" points="469.5,-94.5 469.5,-113.5 573.5,-113.5 573.5,-94.5 469.5,-94.5"/>
<text text-anchor="middle" x="521.5" y="-101.5" font-family="Helvetica,sans-Serif" font-size="10.00">obe::Editor::editMap</text>
</a>
</g>
</g>
<!-- Node110&#45;&gt;Node111 -->
<g id="edge5" class="edge"><title>Node110&#45;&gt;Node111</title>
<path fill="none" stroke="midnightblue" d="M258.453,-86.2341C319.771,-90.3912 412.179,-96.6562 469.296,-100.529"/>
<polygon fill="midnightblue" stroke="midnightblue" points="258.35,-82.7192 248.137,-85.5347 257.877,-89.7032 258.35,-82.7192"/>
</g>
<!-- Node113 -->
<g id="node8" class="node"><title>Node113</title>
<g id="a_node8"><a xlink:href="classobe_1_1_scene_1_1_scene.html#a99bd0a38bd93c1ca105c34bb04776f47" target="_top" xlink:title="Updates all elements in the Scene. ">
<polygon fill="white" stroke="black" points="295,-45 295,-75 401,-75 401,-45 295,-45"/>
<text text-anchor="start" x="303" y="-63" font-family="Helvetica,sans-Serif" font-size="10.00">obe::Scene::Scene::</text>
<text text-anchor="middle" x="348" y="-52" font-family="Helvetica,sans-Serif" font-size="10.00">update</text>
</a>
</g>
</g>
<!-- Node110&#45;&gt;Node113 -->
<g id="edge9" class="edge"><title>Node110&#45;&gt;Node113</title>
<path fill="none" stroke="midnightblue" d="M258.45,-72.9014C270.591,-71.1324 283.197,-69.2958 294.959,-67.5821"/>
<polygon fill="midnightblue" stroke="midnightblue" points="257.78,-69.462 248.389,-74.3672 258.789,-76.3888 257.78,-69.462"/>
</g>
<!-- Node115 -->
<g id="node10" class="node"><title>Node115</title>
<g id="a_node10"><a xlink:href="namespaceobe_1_1_scene.html#ac23b5fc14866394c89a820ce6badc130" target="_top" xlink:title="obe::Scene::loadWorldLib">
<polygon fill="white" stroke="black" points="284,-141.5 284,-160.5 412,-160.5 412,-141.5 284,-141.5"/>
<text text-anchor="middle" x="348" y="-148.5" font-family="Helvetica,sans-Serif" font-size="10.00">obe::Scene::loadWorldLib</text>
</a>
</g>
</g>
<!-- Node110&#45;&gt;Node115 -->
<g id="edge14" class="edge"><title>Node110&#45;&gt;Node115</title>
<path fill="none" stroke="midnightblue" d="M238.495,-101.418C267.067,-114.474 303.492,-131.119 326.026,-141.416"/>
<polygon fill="midnightblue" stroke="midnightblue" points="239.688,-98.1152 229.138,-97.1423 236.778,-104.482 239.688,-98.1152"/>
</g>
<!-- Node111&#45;&gt;Node109 -->
<g id="edge8" class="edge"><title>Node111&#45;&gt;Node109</title>
<path fill="none" stroke="midnightblue" d="M584.033,-114.54C635.945,-121.027 711.559,-124.768 774,-105 791.486,-99.464 808.209,-86.0043 818.291,-76.688"/>
<polygon fill="midnightblue" stroke="midnightblue" points="584.35,-111.051 573.978,-113.212 583.433,-117.991 584.35,-111.051"/>
</g>
<!-- Node112 -->
<g id="node7" class="node"><title>Node112</title>
<g id="a_node7"><a xlink:href="namespaceobe_1_1_modes.html#a6a8b08eee511d4895c4da96d4ba223a6" target="_top" xlink:title="Starts the development Menu where you can starts other menus from. ">
<polygon fill="white" stroke="black" points="636,-76.5 636,-95.5 769,-95.5 769,-76.5 636,-76.5"/>
<text text-anchor="middle" x="702.5" y="-83.5" font-family="Helvetica,sans-Serif" font-size="10.00">obe::Modes::startDevMenu</text>
</a>
</g>
</g>
<!-- Node111&#45;&gt;Node112 -->
<g id="edge6" class="edge"><title>Node111&#45;&gt;Node112</title>
<path fill="none" stroke="midnightblue" d="M583.991,-97.8166C600.706,-96.1357 618.871,-94.3091 635.809,-92.6058"/>
<polygon fill="midnightblue" stroke="midnightblue" points="583.394,-94.3589 573.794,-98.8419 584.094,-101.324 583.394,-94.3589"/>
</g>
<!-- Node112&#45;&gt;Node109 -->
<g id="edge7" class="edge"><title>Node112&#45;&gt;Node109</title>
<path fill="none" stroke="midnightblue" d="M776.187,-74.9072C788.642,-73.0064 800.523,-71.1932 809.759,-69.7837"/>
<polygon fill="midnightblue" stroke="midnightblue" points="775.472,-71.4757 766.115,-76.4443 776.528,-78.3956 775.472,-71.4757"/>
</g>
<!-- Node113&#45;&gt;Node107 -->
<g id="edge10" class="edge"><title>Node113&#45;&gt;Node107</title>
<path fill="none" stroke="midnightblue" d="M411.449,-43.978C427.905,-39.7562 445.599,-35.2166 461.847,-31.0481"/>
<polygon fill="midnightblue" stroke="midnightblue" points="410.204,-40.6841 401.388,-46.5595 411.944,-47.4645 410.204,-40.6841"/>
</g>
<!-- Node114 -->
<g id="node9" class="node"><title>Node114</title>
<g id="a_node9"><a xlink:href="namespaceobe_1_1_modes.html#a5f4a1008892030350b06282b8dee1a89" target="_top" xlink:title="Start the game by loading the boot.lua file in one of the MountedPaths. ">
<polygon fill="white" stroke="black" points="462,-50.5 462,-69.5 581,-69.5 581,-50.5 462,-50.5"/>
<text text-anchor="middle" x="521.5" y="-57.5" font-family="Helvetica,sans-Serif" font-size="10.00">obe::Modes::startGame</text>
</a>
</g>
</g>
<!-- Node113&#45;&gt;Node114 -->
<g id="edge11" class="edge"><title>Node113&#45;&gt;Node114</title>
<path fill="none" stroke="midnightblue" d="M411.449,-60C427.905,-60 445.599,-60 461.847,-60"/>
<polygon fill="midnightblue" stroke="midnightblue" points="411.388,-56.5001 401.388,-60 411.387,-63.5001 411.388,-56.5001"/>
</g>
<!-- Node114&#45;&gt;Node109 -->
<g id="edge13" class="edge"><title>Node114&#45;&gt;Node109</title>
<path fill="none" stroke="midnightblue" d="M591.236,-61.575C662.133,-63.1994 768.079,-65.627 809.998,-66.5875"/>
<polygon fill="midnightblue" stroke="midnightblue" points="591.12,-58.0715 581.042,-61.3414 590.959,-65.0696 591.12,-58.0715"/>
</g>
<!-- Node114&#45;&gt;Node112 -->
<g id="edge12" class="edge"><title>Node114&#45;&gt;Node112</title>
<path fill="none" stroke="midnightblue" d="M591.145,-69.9708C605.853,-72.1071 621.356,-74.3589 635.943,-76.4777"/>
<polygon fill="midnightblue" stroke="midnightblue" points="591.511,-66.4872 581.111,-68.5134 590.504,-73.4145 591.511,-66.4872"/>
</g>
<!-- Node116 -->
<g id="node11" class="node"><title>Node116</title>
<g id="a_node11"><a xlink:href="namespaceobe_1_1_scene.html#ae5cbcc3278d9115d603e5024dec9136e" target="_top" xlink:title="obe::Scene::loadWorldScript\lEngineBaseLib">
<polygon fill="white" stroke="black" points="451,-146 451,-176 592,-176 592,-146 451,-146"/>
<text text-anchor="start" x="459" y="-164" font-family="Helvetica,sans-Serif" font-size="10.00">obe::Scene::loadWorldScript</text>
<text text-anchor="middle" x="521.5" y="-153" font-family="Helvetica,sans-Serif" font-size="10.00">EngineBaseLib</text>
</a>
</g>
</g>
<!-- Node115&#45;&gt;Node116 -->
<g id="edge15" class="edge"><title>Node115&#45;&gt;Node116</title>
<path fill="none" stroke="midnightblue" d="M422.456,-155.283C431.841,-155.83 441.427,-156.389 450.751,-156.933"/>
<polygon fill="midnightblue" stroke="midnightblue" points="422.56,-151.783 412.373,-154.695 422.152,-158.771 422.56,-151.783"/>
</g>
<!-- Node117 -->
<g id="node12" class="node"><title>Node117</title>
<g id="a_node12"><a xlink:href="classobe_1_1_scene_1_1_scene.html#a6671ed54f3898e54a2814d58ec8ffec5" target="_top" xlink:title="Creates a new Scene. ">
<polygon fill="white" stroke="black" points="649.5,-153 649.5,-183 755.5,-183 755.5,-153 649.5,-153"/>
<text text-anchor="start" x="657.5" y="-171" font-family="Helvetica,sans-Serif" font-size="10.00">obe::Scene::Scene::</text>
<text text-anchor="middle" x="702.5" y="-160" font-family="Helvetica,sans-Serif" font-size="10.00">Scene</text>
</a>
</g>
</g>
<!-- Node116&#45;&gt;Node117 -->
<g id="edge16" class="edge"><title>Node116&#45;&gt;Node117</title>
<path fill="none" stroke="midnightblue" d="M602.585,-164.132C618.48,-164.753 634.776,-165.391 649.436,-165.964"/>
<polygon fill="midnightblue" stroke="midnightblue" points="602.348,-160.62 592.219,-163.726 602.074,-167.615 602.348,-160.62"/>
</g>
</g>
</svg>
