<?xml version="1.0" encoding="UTF-8" standalone="no"?>
<!DOCTYPE svg PUBLIC "-//W3C//DTD SVG 1.1//EN"
 "http://www.w3.org/Graphics/SVG/1.1/DTD/svg11.dtd">
<!-- Generated by graphviz version 2.38.0 (20140413.2041)
 -->
<!-- Title: obe::System::Path::add Pages: 1 -->
<svg width="1625pt" height="553pt"
 viewBox="0.00 0.00 1625.00 553.00" xmlns="http://www.w3.org/2000/svg" xmlns:xlink="http://www.w3.org/1999/xlink">
<g id="graph0" class="graph" transform="scale(1 1) rotate(0) translate(4 549)">
<title>obe::System::Path::add</title>
<!-- Node46 -->
<g id="node1" class="node"><title>Node46</title>
<polygon fill="#bfbfbf" stroke="black" points="0,-208 0,-227 120,-227 120,-208 0,-208"/>
<text text-anchor="middle" x="60" y="-215" font-family="Helvetica,sans-Serif" font-size="10.00">obe::System::Path::add</text>
</g>
<!-- Node47 -->
<g id="node2" class="node"><title>Node47</title>
<g id="a_node2"><a xlink:href="classobe_1_1_animation_1_1_animation.html#a672d106427b224e31b2dfe1489d8c075" target="_top" xlink:title="Configure an Animation using the Animation configuration file (Vili file) ">
<polygon fill="white" stroke="black" points="172,-514.5 172,-544.5 303,-544.5 303,-514.5 172,-514.5"/>
<text text-anchor="start" x="180" y="-532.5" font-family="Helvetica,sans-Serif" font-size="10.00">obe::Animation::Animation</text>
<text text-anchor="middle" x="237.5" y="-521.5" font-family="Helvetica,sans-Serif" font-size="10.00">::loadAnimation</text>
</a>
</g>
</g>
<!-- Node46&#45;&gt;Node47 -->
<g id="edge1" class="edge"><title>Node46&#45;&gt;Node47</title>
<path fill="none" stroke="midnightblue" d="M62.0089,-237.195C65.6418,-287.709 82.1351,-423.249 156,-499.5 161.915,-505.606 169.187,-510.48 176.918,-514.369"/>
<polygon fill="midnightblue" stroke="midnightblue" points="65.4892,-236.769 61.373,-227.006 58.5028,-237.205 65.4892,-236.769"/>
</g>
<!-- Node51 -->
<g id="node6" class="node"><title>Node51</title>
<g id="a_node6"><a xlink:href="classobe_1_1_animation_1_1_animator.html#a04c9d6baabb9a1b193cd26ab0b3e4766" target="_top" xlink:title="Loads the Animator (Using the Animator root path). &#160;It will also load all the Animation contained in ...">
<polygon fill="white" stroke="black" points="174,-328.5 174,-358.5 301,-358.5 301,-328.5 174,-328.5"/>
<text text-anchor="start" x="182" y="-346.5" font-family="Helvetica,sans-Serif" font-size="10.00">obe::Animation::Animator</text>
<text text-anchor="middle" x="237.5" y="-335.5" font-family="Helvetica,sans-Serif" font-size="10.00">::loadAnimator</text>
</a>
</g>
</g>
<!-- Node46&#45;&gt;Node51 -->
<g id="edge5" class="edge"><title>Node46&#45;&gt;Node51</title>
<path fill="none" stroke="midnightblue" d="M82.8041,-233.154C116.814,-257.571 182.055,-304.411 215.54,-328.451"/>
<polygon fill="midnightblue" stroke="midnightblue" points="84.6443,-230.167 74.4798,-227.178 80.5618,-235.853 84.6443,-230.167"/>
</g>
<!-- Node69 -->
<g id="node24" class="node"><title>Node69</title>
<g id="a_node24"><a xlink:href="namespaceobe_1_1_bindings_1_1_system_bindings.html#a57b79e64c32fad2b6c10de38088a2d95" target="_top" xlink:title="obe::Bindings::SystemBindings\l::BindPath">
<polygon fill="white" stroke="black" points="161,-0.5 161,-30.5 314,-30.5 314,-0.5 161,-0.5"/>
<text text-anchor="start" x="169" y="-18.5" font-family="Helvetica,sans-Serif" font-size="10.00">obe::Bindings::SystemBindings</text>
<text text-anchor="middle" x="237.5" y="-7.5" font-family="Helvetica,sans-Serif" font-size="10.00">::BindPath</text>
</a>
</g>
</g>
<!-- Node46&#45;&gt;Node69 -->
<g id="edge30" class="edge"><title>Node46&#45;&gt;Node69</title>
<path fill="none" stroke="midnightblue" d="M66.6799,-198.214C77.9915,-163.02 106.593,-88.0912 156,-45.5 163.004,-39.4623 171.337,-34.5895 179.945,-30.6714"/>
<polygon fill="midnightblue" stroke="midnightblue" points="63.3321,-197.193 63.7206,-207.781 70.0195,-199.262 63.3321,-197.193"/>
</g>
<!-- Node70 -->
<g id="node25" class="node"><title>Node70</title>
<g id="a_node25"><a xlink:href="namespaceobe_1_1_editor.html#a75bc94b8c9152749d28e9e3927522e4a" target="_top" xlink:title="obe::Editor::loadSpriteFolder">
<polygon fill="white" stroke="black" points="525.5,-82 525.5,-101 665.5,-101 665.5,-82 525.5,-82"/>
<text text-anchor="middle" x="595.5" y="-89" font-family="Helvetica,sans-Serif" font-size="10.00">obe::Editor::loadSpriteFolder</text>
</a>
</g>
</g>
<!-- Node46&#45;&gt;Node70 -->
<g id="edge31" class="edge"><title>Node46&#45;&gt;Node70</title>
<path fill="none" stroke="midnightblue" d="M74.3596,-200.174C91.0298,-180 121.569,-147.529 156,-132.5 277.757,-79.3541 436.233,-79.463 525.497,-85.0191"/>
<polygon fill="midnightblue" stroke="midnightblue" points="71.6238,-197.991 68.0935,-207.98 77.0827,-202.373 71.6238,-197.991"/>
</g>
<!-- Node73 -->
<g id="node28" class="node"><title>Node73</title>
<g id="a_node28"><a xlink:href="namespaceobe_1_1_modes.html#a906551a475a12bc7acee6673e997ff89" target="_top" xlink:title="obe::Modes::chooseMapAddMaps">
<polygon fill="white" stroke="black" points="708,-476 708,-495 873,-495 873,-476 708,-476"/>
<text text-anchor="middle" x="790.5" y="-483" font-family="Helvetica,sans-Serif" font-size="10.00">obe::Modes::chooseMapAddMaps</text>
</a>
</g>
</g>
<!-- Node46&#45;&gt;Node73 -->
<g id="edge36" class="edge"><title>Node46&#45;&gt;Node73</title>
<path fill="none" stroke="midnightblue" d="M68.8302,-236.558C82.4536,-267.715 113.209,-329.942 156,-368.5 229.24,-434.495 259.493,-442.047 355,-466.5 474.961,-497.214 619.541,-496.373 707.965,-491.802"/>
<polygon fill="midnightblue" stroke="midnightblue" points="72.0105,-235.093 64.8742,-227.262 65.5695,-237.834 72.0105,-235.093"/>
</g>
<!-- Node75 -->
<g id="node30" class="node"><title>Node75</title>
<g id="a_node30"><a xlink:href="classobe_1_1_scene_1_1_world.html#a362d242e7751481b0086ca9ed131920f" target="_top" xlink:title="obe::Scene::World::\lloadFromFile">
<polygon fill="white" stroke="black" points="185.5,-174.5 185.5,-204.5 289.5,-204.5 289.5,-174.5 185.5,-174.5"/>
<text text-anchor="start" x="193.5" y="-192.5" font-family="Helvetica,sans-Serif" font-size="10.00">obe::Scene::World::</text>
<text text-anchor="middle" x="237.5" y="-181.5" font-family="Helvetica,sans-Serif" font-size="10.00">loadFromFile</text>
</a>
</g>
</g>
<!-- Node46&#45;&gt;Node75 -->
<g id="edge40" class="edge"><title>Node46&#45;&gt;Node75</title>
<path fill="none" stroke="midnightblue" d="M130.456,-206.419C148.772,-203.497 168.2,-200.397 185.355,-197.66"/>
<polygon fill="midnightblue" stroke="midnightblue" points="129.74,-202.989 120.416,-208.02 130.843,-209.901 129.74,-202.989"/>
</g>
<!-- Node77 -->
<g id="node32" class="node"><title>Node77</title>
<g id="a_node32"><a xlink:href="classobe_1_1_scene_1_1_world.html#a896573e186dc6efbe2e5def53533908f" target="_top" xlink:title="obe::Scene::World::\lcreateGameObject">
<polygon fill="white" stroke="black" points="543.5,-136.5 543.5,-166.5 647.5,-166.5 647.5,-136.5 543.5,-136.5"/>
<text text-anchor="start" x="551.5" y="-154.5" font-family="Helvetica,sans-Serif" font-size="10.00">obe::Scene::World::</text>
<text text-anchor="middle" x="595.5" y="-143.5" font-family="Helvetica,sans-Serif" font-size="10.00">createGameObject</text>
</a>
</g>
</g>
<!-- Node46&#45;&gt;Node77 -->
<g id="edge47" class="edge"><title>Node46&#45;&gt;Node77</title>
<path fill="none" stroke="midnightblue" d="M82.3512,-202.299C100.893,-189.929 128.947,-173.151 156,-164.5 290.386,-121.527 459.898,-133.94 543.329,-144.083"/>
<polygon fill="midnightblue" stroke="midnightblue" points="80.3424,-199.433 74.0589,-207.963 84.2906,-205.213 80.3424,-199.433"/>
</g>
<!-- Node78 -->
<g id="node33" class="node"><title>Node78</title>
<g id="a_node33"><a xlink:href="classobe_1_1_script_1_1_game_object_requires.html#a439844dbf0fdccf94e58a40db468ea25" target="_top" xlink:title="obe::Script::GameObjectRequires\l::getRequiresForObjectType">
<polygon fill="white" stroke="black" points="156,-231.5 156,-261.5 319,-261.5 319,-231.5 156,-231.5"/>
<text text-anchor="start" x="164" y="-249.5" font-family="Helvetica,sans-Serif" font-size="10.00">obe::Script::GameObjectRequires</text>
<text text-anchor="middle" x="237.5" y="-238.5" font-family="Helvetica,sans-Serif" font-size="10.00">::getRequiresForObjectType</text>
</a>
</g>
</g>
<!-- Node46&#45;&gt;Node78 -->
<g id="edge48" class="edge"><title>Node46&#45;&gt;Node78</title>
<path fill="none" stroke="midnightblue" d="M129.063,-228.747C137.803,-230.191 146.817,-231.681 155.735,-233.154"/>
<polygon fill="midnightblue" stroke="midnightblue" points="129.388,-225.253 118.952,-227.076 128.247,-232.16 129.388,-225.253"/>
</g>
<!-- Node48 -->
<g id="node3" class="node"><title>Node48</title>
<g id="a_node3"><a xlink:href="namespaceobe_1_1_bindings_1_1_animation_bindings.html#a90425c1ca7642b03ad5d515f5b40bd00" target="_top" xlink:title="obe::Bindings::Animation\lBindings::LoadAnimation">
<polygon fill="white" stroke="black" points="356.5,-514.5 356.5,-544.5 481.5,-544.5 481.5,-514.5 356.5,-514.5"/>
<text text-anchor="start" x="364.5" y="-532.5" font-family="Helvetica,sans-Serif" font-size="10.00">obe::Bindings::Animation</text>
<text text-anchor="middle" x="419" y="-521.5" font-family="Helvetica,sans-Serif" font-size="10.00">Bindings::LoadAnimation</text>
</a>
</g>
</g>
<!-- Node47&#45;&gt;Node48 -->
<g id="edge2" class="edge"><title>Node47&#45;&gt;Node48</title>
<path fill="none" stroke="midnightblue" d="M313.374,-529.5C327.708,-529.5 342.563,-529.5 356.421,-529.5"/>
<polygon fill="midnightblue" stroke="midnightblue" points="313.05,-526 303.05,-529.5 313.05,-533 313.05,-526"/>
</g>
<!-- Node49 -->
<g id="node4" class="node"><title>Node49</title>
<g id="a_node4"><a xlink:href="namespaceobe_1_1_bindings.html#a41d33207a0199f125c75a0f70a4a3ba8" target="_top" xlink:title="obe::Bindings::IndexBindings">
<polygon fill="white" stroke="black" points="524,-514 524,-533 667,-533 667,-514 524,-514"/>
<text text-anchor="middle" x="595.5" y="-521" font-family="Helvetica,sans-Serif" font-size="10.00">obe::Bindings::IndexBindings</text>
</a>
</g>
</g>
<!-- Node48&#45;&gt;Node49 -->
<g id="edge3" class="edge"><title>Node48&#45;&gt;Node49</title>
<path fill="none" stroke="midnightblue" d="M491.646,-527.037C502.331,-526.669 513.339,-526.291 524,-525.924"/>
<polygon fill="midnightblue" stroke="midnightblue" points="491.396,-523.543 481.522,-527.385 491.637,-530.539 491.396,-523.543"/>
</g>
<!-- Node50 -->
<g id="node5" class="node"><title>Node50</title>
<g id="a_node5"><a xlink:href="_ob_engine_8cpp.html#a3c04138a5bfe5d72780bb7e82a18e627" target="_top" xlink:title="main">
<polygon fill="white" stroke="black" points="1579,-388 1579,-407 1617,-407 1617,-388 1579,-388"/>
<text text-anchor="middle" x="1598" y="-395" font-family="Helvetica,sans-Serif" font-size="10.00">main</text>
</a>
</g>
</g>
<!-- Node49&#45;&gt;Node50 -->
<g id="edge4" class="edge"><title>Node49&#45;&gt;Node50</title>
<path fill="none" stroke="midnightblue" d="M677.34,-523.5C751.003,-523.5 862.81,-523.5 960,-523.5 960,-523.5 960,-523.5 1301,-523.5 1409.33,-523.5 1453.05,-554.862 1543,-494.5 1574.53,-473.342 1589.51,-427.306 1594.74,-407.21"/>
<polygon fill="midnightblue" stroke="midnightblue" points="677.205,-520 667.205,-523.5 677.205,-527 677.205,-520"/>
</g>
<!-- Node52 -->
<g id="node7" class="node"><title>Node52</title>
<g id="a_node7"><a xlink:href="namespaceobe_1_1_bindings_1_1_animation_bindings.html#a23ff7695a9fedd64589a2eca1ee9f811" target="_top" xlink:title="obe::Bindings::Animation\lBindings::LoadAnimator">
<polygon fill="white" stroke="black" points="356.5,-426.5 356.5,-456.5 481.5,-456.5 481.5,-426.5 356.5,-426.5"/>
<text text-anchor="start" x="364.5" y="-444.5" font-family="Helvetica,sans-Serif" font-size="10.00">obe::Bindings::Animation</text>
<text text-anchor="middle" x="419" y="-433.5" font-family="Helvetica,sans-Serif" font-size="10.00">Bindings::LoadAnimator</text>
</a>
</g>
</g>
<!-- Node51&#45;&gt;Node52 -->
<g id="edge6" class="edge"><title>Node51&#45;&gt;Node52</title>
<path fill="none" stroke="midnightblue" d="M267.92,-364.539C290.907,-380.39 324.044,-401.972 355,-417.5 361.277,-420.649 368.073,-423.64 374.798,-426.374"/>
<polygon fill="midnightblue" stroke="midnightblue" points="269.839,-361.61 259.632,-358.769 265.839,-367.355 269.839,-361.61"/>
</g>
<!-- Node53 -->
<g id="node8" class="node"><title>Node53</title>
<g id="a_node8"><a xlink:href="namespaceobe_1_1_script_1_1_core_lib.html#ad3e8d674e535b8a534a3bed6f311d701" target="_top" xlink:title="obe::Script::CoreLib\l::loadAnimation">
<polygon fill="white" stroke="black" points="544,-316.5 544,-346.5 647,-346.5 647,-316.5 544,-316.5"/>
<text text-anchor="start" x="552" y="-334.5" font-family="Helvetica,sans-Serif" font-size="10.00">obe::Script::CoreLib</text>
<text text-anchor="middle" x="595.5" y="-323.5" font-family="Helvetica,sans-Serif" font-size="10.00">::loadAnimation</text>
</a>
</g>
</g>
<!-- Node51&#45;&gt;Node53 -->
<g id="edge8" class="edge"><title>Node51&#45;&gt;Node53</title>
<path fill="none" stroke="midnightblue" d="M309.924,-326.404C324.739,-323.53 340.311,-320.997 355,-319.5 420.025,-312.872 495.372,-318.887 543.924,-324.53"/>
<polygon fill="midnightblue" stroke="midnightblue" points="308.922,-323.035 299.808,-328.439 310.302,-329.898 308.922,-323.035"/>
</g>
<!-- Node65 -->
<g id="node20" class="node"><title>Node65</title>
<g id="a_node20"><a xlink:href="classobe_1_1_system_1_1_cursor.html#a97cc621e093c133754f6b7c834bb809c" target="_top" xlink:title="Creates a Cursor. ">
<polygon fill="white" stroke="black" points="365.5,-328.5 365.5,-358.5 472.5,-358.5 472.5,-328.5 365.5,-328.5"/>
<text text-anchor="start" x="373.5" y="-346.5" font-family="Helvetica,sans-Serif" font-size="10.00">obe::System::Cursor</text>
<text text-anchor="middle" x="419" y="-335.5" font-family="Helvetica,sans-Serif" font-size="10.00">::Cursor</text>
</a>
</g>
</g>
<!-- Node51&#45;&gt;Node65 -->
<g id="edge25" class="edge"><title>Node51&#45;&gt;Node65</title>
<path fill="none" stroke="midnightblue" d="M311.238,-343.5C329.304,-343.5 348.324,-343.5 365.224,-343.5"/>
<polygon fill="midnightblue" stroke="midnightblue" points="311.028,-340 301.028,-343.5 311.028,-347 311.028,-340"/>
</g>
<!-- Node66 -->
<g id="node21" class="node"><title>Node66</title>
<g id="a_node21"><a xlink:href="classobe_1_1_system_1_1_cursor.html#a0cfe32fec562dea5a86478ff862f45fc" target="_top" xlink:title="Sets the root path to the Cursor Animator. ">
<polygon fill="white" stroke="black" points="365,-377.5 365,-407.5 473,-407.5 473,-377.5 365,-377.5"/>
<text text-anchor="start" x="373" y="-395.5" font-family="Helvetica,sans-Serif" font-size="10.00">obe::System::Cursor</text>
<text text-anchor="middle" x="419" y="-384.5" font-family="Helvetica,sans-Serif" font-size="10.00">::selectAnimatorPath</text>
</a>
</g>
</g>
<!-- Node51&#45;&gt;Node66 -->
<g id="edge26" class="edge"><title>Node51&#45;&gt;Node66</title>
<path fill="none" stroke="midnightblue" d="M303.521,-361.249C323.615,-366.735 345.502,-372.71 364.707,-377.952"/>
<polygon fill="midnightblue" stroke="midnightblue" points="304.389,-357.859 293.821,-358.601 302.546,-364.611 304.389,-357.859"/>
</g>
<!-- Node52&#45;&gt;Node49 -->
<g id="edge7" class="edge"><title>Node52&#45;&gt;Node49</title>
<path fill="none" stroke="midnightblue" d="M461.166,-460.845C496.713,-477.548 546.572,-500.978 574.146,-513.936"/>
<polygon fill="midnightblue" stroke="midnightblue" points="462.545,-457.625 452.006,-456.54 459.568,-463.961 462.545,-457.625"/>
</g>
<!-- Node54 -->
<g id="node9" class="node"><title>Node54</title>
<g id="a_node9"><a xlink:href="namespaceobe_1_1_script.html#abdb81ec0976f1097cef6711415b8fac3" target="_top" xlink:title="obe::Script::loadCoreLib">
<polygon fill="white" stroke="black" points="730,-403 730,-422 851,-422 851,-403 730,-403"/>
<text text-anchor="middle" x="790.5" y="-410" font-family="Helvetica,sans-Serif" font-size="10.00">obe::Script::loadCoreLib</text>
</a>
</g>
</g>
<!-- Node53&#45;&gt;Node54 -->
<g id="edge9" class="edge"><title>Node53&#45;&gt;Node54</title>
<path fill="none" stroke="midnightblue" d="M654.916,-350.033C660.724,-352.117 666.501,-354.289 672,-356.5 707.853,-370.914 748.235,-391.058 771.099,-402.846"/>
<polygon fill="midnightblue" stroke="midnightblue" points="655.752,-346.617 645.157,-346.616 653.439,-353.224 655.752,-346.617"/>
</g>
<!-- Node55 -->
<g id="node10" class="node"><title>Node55</title>
<g id="a_node10"><a xlink:href="namespaceobe_1_1_script.html#a4e6ee77032cf7f66544f9b08464a60b7" target="_top" xlink:title="obe::Script::loadLib">
<polygon fill="white" stroke="black" points="910.5,-359 910.5,-378 1011.5,-378 1011.5,-359 910.5,-359"/>
<text text-anchor="middle" x="961" y="-366" font-family="Helvetica,sans-Serif" font-size="10.00">obe::Script::loadLib</text>
</a>
</g>
</g>
<!-- Node54&#45;&gt;Node55 -->
<g id="edge10" class="edge"><title>Node54&#45;&gt;Node55</title>
<path fill="none" stroke="midnightblue" d="M838.047,-400.345C865.01,-393.305 898.464,-384.569 923.509,-378.029"/>
<polygon fill="midnightblue" stroke="midnightblue" points="836.853,-397.04 828.062,-402.953 838.622,-403.812 836.853,-397.04"/>
</g>
<!-- Node64 -->
<g id="node19" class="node"><title>Node64</title>
<g id="a_node19"><a xlink:href="namespaceobe_1_1_script_1_1_core_lib.html#a07d6c11bbb082bc45bdba50d97965c00" target="_top" xlink:title="obe::Script::CoreLib\l::loadCollision">
<polygon fill="white" stroke="black" points="909.5,-397.5 909.5,-427.5 1012.5,-427.5 1012.5,-397.5 909.5,-397.5"/>
<text text-anchor="start" x="917.5" y="-415.5" font-family="Helvetica,sans-Serif" font-size="10.00">obe::Script::CoreLib</text>
<text text-anchor="middle" x="961" y="-404.5" font-family="Helvetica,sans-Serif" font-size="10.00">::loadCollision</text>
</a>
</g>
</g>
<!-- Node54&#45;&gt;Node64 -->
<g id="edge23" class="edge"><title>Node54&#45;&gt;Node64</title>
<path fill="none" stroke="midnightblue" d="M861.728,-405.834C877.663,-405.642 894.286,-405.78 909.23,-406.248"/>
<polygon fill="midnightblue" stroke="midnightblue" points="861.321,-402.34 851.381,-406.007 861.439,-409.339 861.321,-402.34"/>
</g>
<!-- Node56 -->
<g id="node11" class="node"><title>Node56</title>
<g id="a_node11"><a xlink:href="namespaceobe_1_1_modes.html#a1e38c0d9a2ca0230f0de79c298f53ab9" target="_top" xlink:title="A mode that will start the Toolkit. ">
<polygon fill="white" stroke="black" points="1227,-374 1227,-393 1373,-393 1373,-374 1227,-374"/>
<text text-anchor="middle" x="1300" y="-381" font-family="Helvetica,sans-Serif" font-size="10.00">obe::Modes::startToolkitMode</text>
</a>
</g>
</g>
<!-- Node55&#45;&gt;Node56 -->
<g id="edge11" class="edge"><title>Node55&#45;&gt;Node56</title>
<path fill="none" stroke="midnightblue" d="M1007.19,-380.298C1020.55,-383.262 1035.28,-386.019 1049,-387.5 1108.67,-393.939 1176.8,-392.257 1226.85,-389.347"/>
<polygon fill="midnightblue" stroke="midnightblue" points="1007.8,-376.848 997.273,-378.008 1006.23,-383.668 1007.8,-376.848"/>
</g>
<!-- Node58 -->
<g id="node13" class="node"><title>Node58</title>
<g id="a_node13"><a xlink:href="classobe_1_1_scene_1_1_world.html#a32964e659e18cb32094d9f8ceea30aa3" target="_top" xlink:title="obe::Scene::World::\lWorld">
<polygon fill="white" stroke="black" points="1248,-293.5 1248,-323.5 1352,-323.5 1352,-293.5 1248,-293.5"/>
<text text-anchor="start" x="1256" y="-311.5" font-family="Helvetica,sans-Serif" font-size="10.00">obe::Scene::World::</text>
<text text-anchor="middle" x="1300" y="-300.5" font-family="Helvetica,sans-Serif" font-size="10.00">World</text>
</a>
</g>
</g>
<!-- Node55&#45;&gt;Node58 -->
<g id="edge15" class="edge"><title>Node55&#45;&gt;Node58</title>
<path fill="none" stroke="midnightblue" d="M1013.53,-356.78C1025.17,-354.262 1037.49,-351.699 1049,-349.5 1117.47,-336.417 1196.99,-323.818 1247.63,-316.119"/>
<polygon fill="midnightblue" stroke="midnightblue" points="1012.53,-353.415 1003.51,-358.971 1014.02,-360.253 1012.53,-353.415"/>
</g>
<!-- Node59 -->
<g id="node14" class="node"><title>Node59</title>
<g id="a_node14"><a xlink:href="namespaceobe_1_1_scene.html#ae5cbcc3278d9115d603e5024dec9136e" target="_top" xlink:title="obe::Scene::loadWorldScript\lEngineBaseLib">
<polygon fill="white" stroke="black" points="1049,-271.5 1049,-301.5 1190,-301.5 1190,-271.5 1049,-271.5"/>
<text text-anchor="start" x="1057" y="-289.5" font-family="Helvetica,sans-Serif" font-size="10.00">obe::Scene::loadWorldScript</text>
<text text-anchor="middle" x="1119.5" y="-278.5" font-family="Helvetica,sans-Serif" font-size="10.00">EngineBaseLib</text>
</a>
</g>
</g>
<!-- Node55&#45;&gt;Node59 -->
<g id="edge16" class="edge"><title>Node55&#45;&gt;Node59</title>
<path fill="none" stroke="midnightblue" d="M985.56,-353.27C1002.8,-342.412 1026.93,-327.798 1049,-316.5 1059.18,-311.29 1070.46,-306.157 1080.93,-301.649"/>
<polygon fill="midnightblue" stroke="midnightblue" points="983.311,-350.552 976.75,-358.87 987.066,-356.459 983.311,-350.552"/>
</g>
<!-- Node60 -->
<g id="node15" class="node"><title>Node60</title>
<g id="a_node15"><a xlink:href="namespaceobe_1_1_script.html#a5e992c0efb0543e7c934bc1065f08b01" target="_top" xlink:title="obe::Script::loadLibBridge">
<polygon fill="white" stroke="black" points="1055.5,-435 1055.5,-454 1183.5,-454 1183.5,-435 1055.5,-435"/>
<text text-anchor="middle" x="1119.5" y="-442" font-family="Helvetica,sans-Serif" font-size="10.00">obe::Script::loadLibBridge</text>
</a>
</g>
</g>
<!-- Node55&#45;&gt;Node60 -->
<g id="edge18" class="edge"><title>Node55&#45;&gt;Node60</title>
<path fill="none" stroke="midnightblue" d="M1000.75,-382.001C1004.99,-383.973 1009.16,-386.143 1013,-388.5 1031.25,-399.693 1030.53,-409.686 1049,-420.5 1059.25,-426.497 1071.22,-431.304 1082.31,-434.995"/>
<polygon fill="midnightblue" stroke="midnightblue" points="1002.01,-378.735 991.441,-378.007 999.25,-385.168 1002.01,-378.735"/>
</g>
<!-- Node63 -->
<g id="node18" class="node"><title>Node63</title>
<g id="a_node18"><a xlink:href="namespaceobe_1_1_script.html#aad6ef67388e6d16eb01853f208da410f" target="_top" xlink:title="obe::Script::loadBaseLib">
<polygon fill="white" stroke="black" points="1058,-359 1058,-378 1181,-378 1181,-359 1058,-359"/>
<text text-anchor="middle" x="1119.5" y="-366" font-family="Helvetica,sans-Serif" font-size="10.00">obe::Script::loadBaseLib</text>
</a>
</g>
</g>
<!-- Node55&#45;&gt;Node63 -->
<g id="edge21" class="edge"><title>Node55&#45;&gt;Node63</title>
<path fill="none" stroke="midnightblue" d="M1021.71,-368.5C1033.52,-368.5 1045.93,-368.5 1057.77,-368.5"/>
<polygon fill="midnightblue" stroke="midnightblue" points="1021.52,-365 1011.52,-368.5 1021.52,-372 1021.52,-365"/>
</g>
<!-- Node56&#45;&gt;Node50 -->
<g id="edge14" class="edge"><title>Node56&#45;&gt;Node50</title>
<path fill="none" stroke="midnightblue" d="M1383.16,-374.14C1430.26,-370.678 1490.32,-369.503 1543,-378.5 1555.34,-380.608 1568.62,-385.244 1578.92,-389.408"/>
<polygon fill="midnightblue" stroke="midnightblue" points="1382.7,-370.665 1373,-374.936 1383.25,-377.644 1382.7,-370.665"/>
</g>
<!-- Node57 -->
<g id="node12" class="node"><title>Node57</title>
<g id="a_node12"><a xlink:href="namespaceobe_1_1_modes.html#a6a8b08eee511d4895c4da96d4ba223a6" target="_top" xlink:title="Starts the development Menu where you can starts other menus from. ">
<polygon fill="white" stroke="black" points="1410,-388 1410,-407 1543,-407 1543,-388 1410,-388"/>
<text text-anchor="middle" x="1476.5" y="-395" font-family="Helvetica,sans-Serif" font-size="10.00">obe::Modes::startDevMenu</text>
</a>
</g>
</g>
<!-- Node56&#45;&gt;Node57 -->
<g id="edge12" class="edge"><title>Node56&#45;&gt;Node57</title>
<path fill="none" stroke="midnightblue" d="M1383.23,-390.097C1392.12,-390.81 1401.08,-391.53 1409.74,-392.224"/>
<polygon fill="midnightblue" stroke="midnightblue" points="1383.48,-386.606 1373.24,-389.295 1382.92,-393.584 1383.48,-386.606"/>
</g>
<!-- Node57&#45;&gt;Node50 -->
<g id="edge13" class="edge"><title>Node57&#45;&gt;Node50</title>
<path fill="none" stroke="midnightblue" d="M1553.44,-397.5C1562.72,-397.5 1571.44,-397.5 1578.6,-397.5"/>
<polygon fill="midnightblue" stroke="midnightblue" points="1553.19,-394 1543.19,-397.5 1553.19,-401 1553.19,-394"/>
</g>
<!-- Node59&#45;&gt;Node58 -->
<g id="edge17" class="edge"><title>Node59&#45;&gt;Node58</title>
<path fill="none" stroke="midnightblue" d="M1200.06,-296.306C1216.31,-298.308 1232.98,-300.363 1247.91,-302.203"/>
<polygon fill="midnightblue" stroke="midnightblue" points="1200.38,-292.818 1190.02,-295.069 1199.52,-299.766 1200.38,-292.818"/>
</g>
<!-- Node61 -->
<g id="node16" class="node"><title>Node61</title>
<g id="a_node16"><a xlink:href="namespaceobe_1_1_script.html#a5dc8321da50fd4b5dc2935e4d8c93a4e" target="_top" xlink:title="obe::Script::loadScrGame\lObject">
<polygon fill="white" stroke="black" points="1235.5,-426.5 1235.5,-456.5 1364.5,-456.5 1364.5,-426.5 1235.5,-426.5"/>
<text text-anchor="start" x="1243.5" y="-444.5" font-family="Helvetica,sans-Serif" font-size="10.00">obe::Script::loadScrGame</text>
<text text-anchor="middle" x="1300" y="-433.5" font-family="Helvetica,sans-Serif" font-size="10.00">Object</text>
</a>
</g>
</g>
<!-- Node60&#45;&gt;Node61 -->
<g id="edge19" class="edge"><title>Node60&#45;&gt;Node61</title>
<path fill="none" stroke="midnightblue" d="M1194.03,-443.264C1207.73,-443.034 1221.93,-442.795 1235.3,-442.571"/>
<polygon fill="midnightblue" stroke="midnightblue" points="1193.62,-439.77 1183.68,-443.438 1193.74,-446.769 1193.62,-439.77"/>
</g>
<!-- Node62 -->
<g id="node17" class="node"><title>Node62</title>
<g id="a_node17"><a xlink:href="classobe_1_1_script_1_1_game_object.html#aadeac0036d2fe21d523acfd4e9011a23" target="_top" xlink:title="obe::Script::GameObject\l::loadGameObject">
<polygon fill="white" stroke="black" points="1414,-426.5 1414,-456.5 1539,-456.5 1539,-426.5 1414,-426.5"/>
<text text-anchor="start" x="1422" y="-444.5" font-family="Helvetica,sans-Serif" font-size="10.00">obe::Script::GameObject</text>
<text text-anchor="middle" x="1476.5" y="-433.5" font-family="Helvetica,sans-Serif" font-size="10.00">::loadGameObject</text>
</a>
</g>
</g>
<!-- Node61&#45;&gt;Node62 -->
<g id="edge20" class="edge"><title>Node61&#45;&gt;Node62</title>
<path fill="none" stroke="midnightblue" d="M1375.21,-441.5C1388.09,-441.5 1401.35,-441.5 1413.85,-441.5"/>
<polygon fill="midnightblue" stroke="midnightblue" points="1374.99,-438 1364.99,-441.5 1374.99,-445 1374.99,-438"/>
</g>
<!-- Node63&#45;&gt;Node56 -->
<g id="edge22" class="edge"><title>Node63&#45;&gt;Node56</title>
<path fill="none" stroke="midnightblue" d="M1191.54,-374.47C1203.19,-375.449 1215.27,-376.464 1226.95,-377.445"/>
<polygon fill="midnightblue" stroke="midnightblue" points="1191.69,-370.97 1181.43,-373.62 1191.1,-377.945 1191.69,-370.97"/>
</g>
<!-- Node64&#45;&gt;Node54 -->
<g id="edge24" class="edge"><title>Node64&#45;&gt;Node54</title>
<path fill="none" stroke="midnightblue" d="M899.193,-419.012C883.627,-419.336 866.9,-419.329 851.381,-418.993"/>
<polygon fill="midnightblue" stroke="midnightblue" points="899.324,-422.51 909.23,-418.752 899.143,-415.512 899.324,-422.51"/>
</g>
<!-- Node67 -->
<g id="node22" class="node"><title>Node67</title>
<g id="a_node22"><a xlink:href="namespaceobe_1_1_bindings_1_1_system_bindings.html#a58371d483e59e8389a76ffe9d03ea71c" target="_top" xlink:title="obe::Bindings::SystemBindings\l::BindCursor">
<polygon fill="white" stroke="black" points="519,-365.5 519,-395.5 672,-395.5 672,-365.5 519,-365.5"/>
<text text-anchor="start" x="527" y="-383.5" font-family="Helvetica,sans-Serif" font-size="10.00">obe::Bindings::SystemBindings</text>
<text text-anchor="middle" x="595.5" y="-372.5" font-family="Helvetica,sans-Serif" font-size="10.00">::BindCursor</text>
</a>
</g>
</g>
<!-- Node66&#45;&gt;Node67 -->
<g id="edge27" class="edge"><title>Node66&#45;&gt;Node67</title>
<path fill="none" stroke="midnightblue" d="M483.595,-388.127C495.008,-387.342 507.004,-386.517 518.719,-385.711"/>
<polygon fill="midnightblue" stroke="midnightblue" points="483.04,-384.656 473.304,-388.834 483.521,-391.64 483.04,-384.656"/>
</g>
<!-- Node68 -->
<g id="node23" class="node"><title>Node68</title>
<g id="a_node23"><a xlink:href="namespaceobe_1_1_script_1_1_core_lib.html#adc976091c779b7a03984d210b9285983" target="_top" xlink:title="obe::Script::CoreLib\l::loadCursor">
<polygon fill="white" stroke="black" points="544,-414.5 544,-444.5 647,-444.5 647,-414.5 544,-414.5"/>
<text text-anchor="start" x="552" y="-432.5" font-family="Helvetica,sans-Serif" font-size="10.00">obe::Script::CoreLib</text>
<text text-anchor="middle" x="595.5" y="-421.5" font-family="Helvetica,sans-Serif" font-size="10.00">::loadCursor</text>
</a>
</g>
</g>
<!-- Node66&#45;&gt;Node68 -->
<g id="edge28" class="edge"><title>Node66&#45;&gt;Node68</title>
<path fill="none" stroke="midnightblue" d="M483.239,-405.909C503.192,-410.139 524.961,-414.755 543.91,-418.773"/>
<polygon fill="midnightblue" stroke="midnightblue" points="483.812,-402.453 473.304,-403.802 482.36,-409.3 483.812,-402.453"/>
</g>
<!-- Node68&#45;&gt;Node54 -->
<g id="edge29" class="edge"><title>Node68&#45;&gt;Node54</title>
<path fill="none" stroke="midnightblue" d="M657.265,-424.148C680.44,-422.106 706.816,-419.783 729.883,-417.751"/>
<polygon fill="midnightblue" stroke="midnightblue" points="656.863,-420.669 647.208,-425.033 657.477,-427.642 656.863,-420.669"/>
</g>
<!-- Node71 -->
<g id="node26" class="node"><title>Node71</title>
<g id="a_node26"><a xlink:href="namespaceobe_1_1_editor_1_1_g_u_i.html#a5d2864942020d4f1bdfe7cf9e7d667bc" target="_top" xlink:title="obe::Editor::GUI::buildEditor\lSpritesMenu">
<polygon fill="white" stroke="black" points="721.5,-114.5 721.5,-144.5 859.5,-144.5 859.5,-114.5 721.5,-114.5"/>
<text text-anchor="start" x="729.5" y="-132.5" font-family="Helvetica,sans-Serif" font-size="10.00">obe::Editor::GUI::buildEditor</text>
<text text-anchor="middle" x="790.5" y="-121.5" font-family="Helvetica,sans-Serif" font-size="10.00">SpritesMenu</text>
</a>
</g>
</g>
<!-- Node70&#45;&gt;Node71 -->
<g id="edge32" class="edge"><title>Node70&#45;&gt;Node71</title>
<path fill="none" stroke="midnightblue" d="M655.223,-103.062C676.139,-107.18 699.868,-111.852 721.498,-116.111"/>
<polygon fill="midnightblue" stroke="midnightblue" points="655.69,-99.5868 645.202,-101.089 654.338,-106.455 655.69,-99.5868"/>
</g>
<!-- Node72 -->
<g id="node27" class="node"><title>Node72</title>
<g id="a_node27"><a xlink:href="namespaceobe_1_1_editor.html#a9009207671e71dccb68a31ea2362e9ef" target="_top" xlink:title="Starts the map edition. ">
<polygon fill="white" stroke="black" points="909,-202 909,-221 1013,-221 1013,-202 909,-202"/>
<text text-anchor="middle" x="961" y="-209" font-family="Helvetica,sans-Serif" font-size="10.00">obe::Editor::editMap</text>
</a>
</g>
</g>
<!-- Node71&#45;&gt;Node72 -->
<g id="edge33" class="edge"><title>Node71&#45;&gt;Node72</title>
<path fill="none" stroke="midnightblue" d="M831.69,-149.058C865.984,-165.748 913.833,-189.033 940.346,-201.936"/>
<polygon fill="midnightblue" stroke="midnightblue" points="832.929,-145.769 822.405,-144.54 829.866,-152.063 832.929,-145.769"/>
</g>
<!-- Node72&#45;&gt;Node50 -->
<g id="edge35" class="edge"><title>Node72&#45;&gt;Node50</title>
<path fill="none" stroke="midnightblue" d="M1023.17,-205.167C1105.79,-198.982 1256.26,-196.186 1374,-241.5 1466.6,-277.138 1557.34,-359.282 1586.96,-387.652"/>
<polygon fill="midnightblue" stroke="midnightblue" points="1022.88,-201.678 1013.19,-205.955 1023.44,-208.656 1022.88,-201.678"/>
</g>
<!-- Node72&#45;&gt;Node57 -->
<g id="edge34" class="edge"><title>Node72&#45;&gt;Node57</title>
<path fill="none" stroke="midnightblue" d="M1023.29,-217.421C1122.89,-227.856 1314.74,-251.574 1374,-284.5 1420.56,-310.372 1456.84,-365.771 1470.07,-387.991"/>
<polygon fill="midnightblue" stroke="midnightblue" points="1023.37,-213.911 1013.07,-216.363 1022.65,-220.874 1023.37,-213.911"/>
</g>
<!-- Node74 -->
<g id="node29" class="node"><title>Node74</title>
<g id="a_node29"><a xlink:href="namespaceobe_1_1_modes.html#a3f3265818dfb12925bf614e517346f73" target="_top" xlink:title="Starts the menu used to chose a map to edit. ">
<polygon fill="white" stroke="black" points="1226,-476 1226,-495 1374,-495 1374,-476 1226,-476"/>
<text text-anchor="middle" x="1300" y="-483" font-family="Helvetica,sans-Serif" font-size="10.00">obe::Modes::chooseMapMenu</text>
</a>
</g>
</g>
<!-- Node73&#45;&gt;Node74 -->
<g id="edge37" class="edge"><title>Node73&#45;&gt;Node74</title>
<path fill="none" stroke="midnightblue" d="M883.257,-485.5C981.523,-485.5 1135.49,-485.5 1225.9,-485.5"/>
<polygon fill="midnightblue" stroke="midnightblue" points="883.039,-482 873.039,-485.5 883.039,-489 883.039,-482"/>
</g>
<!-- Node74&#45;&gt;Node50 -->
<g id="edge39" class="edge"><title>Node74&#45;&gt;Node50</title>
<path fill="none" stroke="midnightblue" d="M1384.34,-495.06C1433.29,-496.886 1494.81,-492.361 1543,-466.5 1567.93,-453.121 1585.14,-422.759 1592.69,-407.155"/>
<polygon fill="midnightblue" stroke="midnightblue" points="1384.25,-491.552 1374.1,-494.58 1383.92,-498.544 1384.25,-491.552"/>
</g>
<!-- Node74&#45;&gt;Node57 -->
<g id="edge38" class="edge"><title>Node74&#45;&gt;Node57</title>
<path fill="none" stroke="midnightblue" d="M1364.29,-472.057C1367.68,-470.414 1370.95,-468.569 1374,-466.5 1396.37,-451.333 1387.96,-433.13 1410,-417.5 1416.11,-413.167 1423.18,-409.756 1430.37,-407.075"/>
<polygon fill="midnightblue" stroke="midnightblue" points="1362.92,-468.837 1355.07,-475.954 1365.65,-475.285 1362.92,-468.837"/>
</g>
<!-- Node75&#45;&gt;Node72 -->
<g id="edge41" class="edge"><title>Node75&#45;&gt;Node72</title>
<path fill="none" stroke="midnightblue" d="M299.621,-191.364C439.24,-195.621 779.485,-205.996 908.896,-209.942"/>
<polygon fill="midnightblue" stroke="midnightblue" points="299.624,-187.862 289.522,-191.056 299.411,-194.859 299.624,-187.862"/>
</g>
<!-- Node76 -->
<g id="node31" class="node"><title>Node76</title>
<g id="a_node31"><a xlink:href="namespaceobe_1_1_scene.html#ac23b5fc14866394c89a820ce6badc130" target="_top" xlink:title="obe::Scene::loadWorldLib">
<polygon fill="white" stroke="black" points="355,-164 355,-183 483,-183 483,-164 355,-164"/>
<text text-anchor="middle" x="419" y="-171" font-family="Helvetica,sans-Serif" font-size="10.00">obe::Scene::loadWorldLib</text>
</a>
</g>
</g>
<!-- Node75&#45;&gt;Node76 -->
<g id="edge42" class="edge"><title>Node75&#45;&gt;Node76</title>
<path fill="none" stroke="midnightblue" d="M300.114,-184.008C317.755,-182.435 337.01,-180.719 354.748,-179.138"/>
<polygon fill="midnightblue" stroke="midnightblue" points="299.587,-180.541 289.937,-184.915 300.209,-187.513 299.587,-180.541"/>
</g>
<!-- Node76&#45;&gt;Node59 -->
<g id="edge46" class="edge"><title>Node76&#45;&gt;Node59</title>
<path fill="none" stroke="midnightblue" d="M489.063,-184.673C622.649,-206.284 915.037,-253.585 1048.98,-275.254"/>
<polygon fill="midnightblue" stroke="midnightblue" points="489.382,-181.179 478.952,-183.037 488.264,-188.089 489.382,-181.179"/>
</g>
<!-- Node76&#45;&gt;Node77 -->
<g id="edge43" class="edge"><title>Node76&#45;&gt;Node77</title>
<path fill="none" stroke="midnightblue" d="M462.824,-162.198C487.135,-158.117 517.723,-154.159 543.298,-151.746"/>
<polygon fill="midnightblue" stroke="midnightblue" points="462.068,-158.777 452.822,-163.951 463.276,-165.672 462.068,-158.777"/>
</g>
<!-- Node77&#45;&gt;Node75 -->
<g id="edge44" class="edge"><title>Node77&#45;&gt;Node75</title>
<path fill="none" stroke="midnightblue" d="M533.19,-147.592C484.572,-145.615 415.054,-145.289 355,-154.5 329.011,-158.486 300.746,-166.873 278.566,-174.438"/>
<polygon fill="midnightblue" stroke="midnightblue" points="533.091,-151.091 543.236,-148.036 533.4,-144.098 533.091,-151.091"/>
</g>
<!-- Node77&#45;&gt;Node76 -->
<g id="edge45" class="edge"><title>Node77&#45;&gt;Node76</title>
<path fill="none" stroke="midnightblue" d="M533.009,-165.734C516.963,-168.101 499.64,-170.298 483.492,-172.018"/>
<polygon fill="midnightblue" stroke="midnightblue" points="533.986,-169.125 543.344,-164.158 532.93,-162.206 533.986,-169.125"/>
</g>
<!-- Node79 -->
<g id="node34" class="node"><title>Node79</title>
<g id="a_node34"><a xlink:href="namespaceobe_1_1_editor.html#ab548dfe02b4323438bcf9caedd01d696" target="_top" xlink:title="obe::Editor::buildRequires\lObjectTab">
<polygon fill="white" stroke="black" points="355,-240.5 355,-270.5 483,-270.5 483,-240.5 355,-240.5"/>
<text text-anchor="start" x="363" y="-258.5" font-family="Helvetica,sans-Serif" font-size="10.00">obe::Editor::buildRequires</text>
<text text-anchor="middle" x="419" y="-247.5" font-family="Helvetica,sans-Serif" font-size="10.00">ObjectTab</text>
</a>
</g>
</g>
<!-- Node78&#45;&gt;Node79 -->
<g id="edge49" class="edge"><title>Node78&#45;&gt;Node79</title>
<path fill="none" stroke="midnightblue" d="M329.239,-251.05C337.921,-251.485 346.59,-251.92 354.922,-252.337"/>
<polygon fill="midnightblue" stroke="midnightblue" points="329.224,-247.545 319.061,-250.539 328.874,-254.536 329.224,-247.545"/>
</g>
<!-- Node80 -->
<g id="node35" class="node"><title>Node80</title>
<g id="a_node35"><a xlink:href="namespaceobe_1_1_editor.html#a24423ada9fd467ae78ebf9d21e64db0b" target="_top" xlink:title="obe::Editor::buildObjectTab">
<polygon fill="white" stroke="black" points="528.5,-278 528.5,-297 662.5,-297 662.5,-278 528.5,-278"/>
<text text-anchor="middle" x="595.5" y="-285" font-family="Helvetica,sans-Serif" font-size="10.00">obe::Editor::buildObjectTab</text>
</a>
</g>
</g>
<!-- Node79&#45;&gt;Node80 -->
<g id="edge50" class="edge"><title>Node79&#45;&gt;Node80</title>
<path fill="none" stroke="midnightblue" d="M493.62,-269.001C510.058,-272.015 527.158,-275.151 542.507,-277.965"/>
<polygon fill="midnightblue" stroke="midnightblue" points="493.959,-265.504 483.492,-267.143 492.697,-272.39 493.959,-265.504"/>
</g>
<!-- Node81 -->
<g id="node36" class="node"><title>Node81</title>
<g id="a_node36"><a xlink:href="namespaceobe_1_1_editor_1_1_g_u_i.html#ac209e33d93d1c6b719ed4c5206994ffc" target="_top" xlink:title="obe::Editor::GUI::buildEditor\lObjectsMenu">
<polygon fill="white" stroke="black" points="721.5,-278.5 721.5,-308.5 859.5,-308.5 859.5,-278.5 721.5,-278.5"/>
<text text-anchor="start" x="729.5" y="-296.5" font-family="Helvetica,sans-Serif" font-size="10.00">obe::Editor::GUI::buildEditor</text>
<text text-anchor="middle" x="790.5" y="-285.5" font-family="Helvetica,sans-Serif" font-size="10.00">ObjectsMenu</text>
</a>
</g>
</g>
<!-- Node80&#45;&gt;Node81 -->
<g id="edge51" class="edge"><title>Node80&#45;&gt;Node81</title>
<path fill="none" stroke="midnightblue" d="M673.034,-289.879C689.034,-290.377 705.8,-290.898 721.467,-291.385"/>
<polygon fill="midnightblue" stroke="midnightblue" points="672.754,-286.369 662.65,-289.556 672.536,-293.366 672.754,-286.369"/>
</g>
<!-- Node81&#45;&gt;Node72 -->
<g id="edge52" class="edge"><title>Node81&#45;&gt;Node72</title>
<path fill="none" stroke="midnightblue" d="M831.69,-273.942C865.984,-257.252 913.833,-233.967 940.346,-221.064"/>
<polygon fill="midnightblue" stroke="midnightblue" points="829.866,-270.937 822.405,-278.46 832.929,-277.231 829.866,-270.937"/>
</g>
</g>
</svg>
