<?xml version="1.0" encoding="UTF-8" standalone="no"?>
<!DOCTYPE svg PUBLIC "-//W3C//DTD SVG 1.1//EN"
 "http://www.w3.org/Graphics/SVG/1.1/DTD/svg11.dtd">
<!-- Generated by graphviz version 2.38.0 (20140413.2041)
 -->
<!-- Title: obe::Animation::Animation::getAllAnimationGroupName Pages: 1 -->
<!--zoomable 116 -->
<svg id="main" version="1.1" xmlns="http://www.w3.org/2000/svg" xmlns:xlink="http://www.w3.org/1999/xlink" xml:space="preserve" onload="init(evt)">
<style type="text/css"><![CDATA[
.edge:hover path { stroke: red; }
.edge:hover polygon { stroke: red; fill: red; }
.edge path { stroke: white; }
.edge polygon { stroke: white; fill: white; }
.node polygon { fill: white; }
]]></style>
<script type="text/javascript"><![CDATA[
var edges = document.getElementsByTagName('g');
if (edges && edges.length) {
  for (var i=0;i<edges.length;i++) {
    if (edges[i].id.substr(0,4)=='edge') {
      edges[i].setAttribute('class','edge');
    }
  }
}
]]></script>
        <defs>
                <circle id="rim" cx="0" cy="0" r="7"/>
                <circle id="rim2" cx="0" cy="0" r="3.5"/>
                <g id="zoomPlus">
                        <use xlink:href="#rim" fill="#404040">
                                <set attributeName="fill" to="#808080" begin="zoomplus.mouseover" end="zoomplus.mouseout"/>
                        </use>
                        <path d="M-4,0h8M0,-4v8" fill="none" stroke="white" stroke-width="1.5" pointer-events="none"/>
                </g>
                <g id="zoomMin">
                        <use xlink:href="#rim" fill="#404040">
                                <set attributeName="fill" to="#808080" begin="zoomminus.mouseover" end="zoomminus.mouseout"/>
                        </use>
                        <path d="M-4,0h8" fill="none" stroke="white" stroke-width="1.5" pointer-events="none"/>
                </g>
                <g id="dirArrow">
                        <path fill="none" stroke="white" stroke-width="1.5" d="M0,-3.0v7 M-2.5,-0.5L0,-3.0L2.5,-0.5"/>
                </g>
               <g id="resetDef">
                       <use xlink:href="#rim2" fill="#404040">
                               <set attributeName="fill" to="#808080" begin="reset.mouseover" end="reset.mouseout"/>
                       </use>
               </g>
        </defs>

<script type="text/javascript">
var viewWidth = 1212;
var viewHeight = 116;
var sectionId = 'dynsection-2';
</script>
<script xlink:href="svgpan.js"/>
<svg id="graph" class="graph">
<g id="viewport">
<title>obe::Animation::Animation::getAllAnimationGroupName</title>
<!-- Node28 -->
<g id="node1" class="node"><title>Node28</title>
<polygon fill="#bfbfbf" stroke="black" points="0,-41.5 0,-71.5 143,-71.5 143,-41.5 0,-41.5"/>
<text text-anchor="start" x="8" y="-59.5" font-family="Helvetica,sans-Serif" font-size="10.00">obe::Animation::Animation</text>
<text text-anchor="middle" x="71.5" y="-48.5" font-family="Helvetica,sans-Serif" font-size="10.00">::getAllAnimationGroupName</text>
</g>
<!-- Node29 -->
<g id="node2" class="node"><title>Node29</title>
<g id="a_node2"><a xlink:href="namespaceobe_1_1_bindings_1_1_animation_bindings.html#a07a26af93fe2b9216dbcb210661ddd4f" target="_top" xlink:title="obe::Bindings::Animation\lBindings::LoadAnimation">
<polygon fill="none" stroke="black" points="179,-74.5 179,-104.5 304,-104.5 304,-74.5 179,-74.5"/>
<text text-anchor="start" x="187" y="-92.5" font-family="Helvetica,sans-Serif" font-size="10.00">obe::Bindings::Animation</text>
<text text-anchor="middle" x="241.5" y="-81.5" font-family="Helvetica,sans-Serif" font-size="10.00">Bindings::LoadAnimation</text>
</a>
</g>
</g>
<!-- Node28&#45;&gt;Node29 -->
<g id="edge1" class="edge"><title>Node28&#45;&gt;Node29</title>
<path fill="none" stroke="midnightblue" d="M153.311,-72.3737C161.909,-74.0626 170.552,-75.7602 178.878,-77.3957"/>
<polygon fill="midnightblue" stroke="midnightblue" points="153.747,-68.8925 143.26,-70.3993 152.398,-75.7612 153.747,-68.8925"/>
</g>
<!-- Node32 -->
<g id="node5" class="node"><title>Node32</title>
<g id="a_node5"><a xlink:href="namespaceobe_1_1_script_1_1_core_lib.html#ad3e8d674e535b8a534a3bed6f311d701" target="_top" xlink:title="obe::Script::CoreLib\l::loadAnimation">
<polygon fill="none" stroke="black" points="190,-9.5 190,-39.5 293,-39.5 293,-9.5 190,-9.5"/>
<text text-anchor="start" x="198" y="-27.5" font-family="Helvetica,sans-Serif" font-size="10.00">obe::Script::CoreLib</text>
<text text-anchor="middle" x="241.5" y="-16.5" font-family="Helvetica,sans-Serif" font-size="10.00">::loadAnimation</text>
</a>
</g>
</g>
<!-- Node28&#45;&gt;Node32 -->
<g id="edge4" class="edge"><title>Node28&#45;&gt;Node32</title>
<path fill="none" stroke="midnightblue" d="M153.254,-41.1183C165.768,-38.7347 178.378,-36.3328 189.971,-34.1246"/>
<polygon fill="midnightblue" stroke="midnightblue" points="152.429,-37.7125 143.26,-43.0219 153.739,-44.5888 152.429,-37.7125"/>
</g>
<!-- Node30 -->
<g id="node3" class="node"><title>Node30</title>
<g id="a_node3"><a xlink:href="namespaceobe_1_1_bindings.html#a41d33207a0199f125c75a0f70a4a3ba8" target="_top" xlink:title="obe::Bindings::IndexBindings">
<polygon fill="none" stroke="black" points="636,-88 636,-107 779,-107 779,-88 636,-88"/>
<text text-anchor="middle" x="707.5" y="-95" font-family="Helvetica,sans-Serif" font-size="10.00">obe::Bindings::IndexBindings</text>
</a>
</g>
</g>
<!-- Node29&#45;&gt;Node30 -->
<g id="edge2" class="edge"><title>Node29&#45;&gt;Node30</title>
<path fill="none" stroke="midnightblue" d="M314.227,-90.7367C401.769,-92.246 548.857,-94.782 635.889,-96.2826"/>
<polygon fill="midnightblue" stroke="midnightblue" points="314.175,-87.2353 304.116,-90.5623 314.054,-94.2343 314.175,-87.2353"/>
</g>
<!-- Node31 -->
<g id="node4" class="node"><title>Node31</title>
<g id="a_node4"><a xlink:href="_ob_engine_8cpp.html#a3c04138a5bfe5d72780bb7e82a18e627" target="_top" xlink:title="main">
<polygon fill="none" stroke="black" points="1166,-50 1166,-69 1204,-69 1204,-50 1166,-50"/>
<text text-anchor="middle" x="1185" y="-57" font-family="Helvetica,sans-Serif" font-size="10.00">main</text>
</a>
</g>
</g>
<!-- Node30&#45;&gt;Node31 -->
<g id="edge3" class="edge"><title>Node30&#45;&gt;Node31</title>
<path fill="none" stroke="midnightblue" d="M789.172,-92.9012C874.095,-87.7478 1011.63,-78.5161 1130,-66.5 1141.85,-65.2971 1155.12,-63.5825 1165.53,-62.1514"/>
<polygon fill="midnightblue" stroke="midnightblue" points="788.852,-89.414 779.081,-93.5093 789.274,-96.4013 788.852,-89.414"/>
</g>
<!-- Node33 -->
<g id="node6" class="node"><title>Node33</title>
<g id="a_node6"><a xlink:href="namespaceobe_1_1_script.html#abdb81ec0976f1097cef6711415b8fac3" target="_top" xlink:title="obe::Script::loadCoreLib">
<polygon fill="none" stroke="black" points="340,-10 340,-29 461,-29 461,-10 340,-10"/>
<text text-anchor="middle" x="400.5" y="-17" font-family="Helvetica,sans-Serif" font-size="10.00">obe::Script::loadCoreLib</text>
</a>
</g>
</g>
<!-- Node32&#45;&gt;Node33 -->
<g id="edge5" class="edge"><title>Node32&#45;&gt;Node33</title>
<path fill="none" stroke="midnightblue" d="M303.362,-22.5617C315.309,-22.1812 327.832,-21.7824 339.743,-21.4031"/>
<polygon fill="midnightblue" stroke="midnightblue" points="302.923,-19.0738 293.04,-22.8904 303.146,-26.0703 302.923,-19.0738"/>
</g>
<!-- Node34 -->
<g id="node7" class="node"><title>Node34</title>
<g id="a_node7"><a xlink:href="namespaceobe_1_1_script.html#a4e6ee77032cf7f66544f9b08464a60b7" target="_top" xlink:title="obe::Script::loadLib">
<polygon fill="none" stroke="black" points="498,-50 498,-69 599,-69 599,-50 498,-50"/>
<text text-anchor="middle" x="548.5" y="-57" font-family="Helvetica,sans-Serif" font-size="10.00">obe::Script::loadLib</text>
</a>
</g>
</g>
<!-- Node33&#45;&gt;Node34 -->
<g id="edge6" class="edge"><title>Node33&#45;&gt;Node34</title>
<path fill="none" stroke="midnightblue" d="M446.311,-31.777C467.703,-37.6378 492.91,-44.544 512.815,-49.9972"/>
<polygon fill="midnightblue" stroke="midnightblue" points="447.04,-28.3478 436.471,-29.081 445.19,-35.099 447.04,-28.3478"/>
</g>
<!-- Node38 -->
<g id="node11" class="node"><title>Node38</title>
<g id="a_node11"><a xlink:href="namespaceobe_1_1_script_1_1_core_lib.html#a07d6c11bbb082bc45bdba50d97965c00" target="_top" xlink:title="obe::Script::CoreLib\l::loadCollision">
<polygon fill="none" stroke="black" points="497,-0.5 497,-30.5 600,-30.5 600,-0.5 497,-0.5"/>
<text text-anchor="start" x="505" y="-18.5" font-family="Helvetica,sans-Serif" font-size="10.00">obe::Script::CoreLib</text>
<text text-anchor="middle" x="548.5" y="-7.5" font-family="Helvetica,sans-Serif" font-size="10.00">::loadCollision</text>
</a>
</g>
</g>
<!-- Node33&#45;&gt;Node38 -->
<g id="edge13" class="edge"><title>Node33&#45;&gt;Node38</title>
<path fill="none" stroke="midnightblue" d="M471.356,-10.8417C479.966,-10.5753 488.634,-10.4327 496.88,-10.4271"/>
<polygon fill="midnightblue" stroke="midnightblue" points="471.17,-7.34608 461.305,-11.2105 471.427,-14.3414 471.17,-7.34608"/>
</g>
<!-- Node35 -->
<g id="node8" class="node"><title>Node35</title>
<g id="a_node8"><a xlink:href="namespaceobe_1_1_modes.html#a1e38c0d9a2ca0230f0de79c298f53ab9" target="_top" xlink:title="A mode that will start the Toolkit. ">
<polygon fill="none" stroke="black" points="815,-31 815,-50 961,-50 961,-31 815,-31"/>
<text text-anchor="middle" x="888" y="-38" font-family="Helvetica,sans-Serif" font-size="10.00">obe::Modes::startToolkitMode</text>
</a>
</g>
</g>
<!-- Node34&#45;&gt;Node35 -->
<g id="edge7" class="edge"><title>Node34&#45;&gt;Node35</title>
<path fill="none" stroke="midnightblue" d="M609.315,-56.1326C666.754,-52.899 753.599,-48.01 814.847,-44.562"/>
<polygon fill="midnightblue" stroke="midnightblue" points="609.087,-52.6399 599.299,-56.6965 609.48,-59.6288 609.087,-52.6399"/>
</g>
<!-- Node37 -->
<g id="node10" class="node"><title>Node37</title>
<g id="a_node10"><a xlink:href="namespaceobe_1_1_script.html#aad6ef67388e6d16eb01853f208da410f" target="_top" xlink:title="obe::Script::loadBaseLib">
<polygon fill="none" stroke="black" points="646,-12 646,-31 769,-31 769,-12 646,-12"/>
<text text-anchor="middle" x="707.5" y="-19" font-family="Helvetica,sans-Serif" font-size="10.00">obe::Script::loadBaseLib</text>
</a>
</g>
</g>
<!-- Node34&#45;&gt;Node37 -->
<g id="edge11" class="edge"><title>Node34&#45;&gt;Node37</title>
<path fill="none" stroke="midnightblue" d="M598.947,-47.532C620.948,-42.2069 646.494,-36.0238 667.167,-31.0201"/>
<polygon fill="midnightblue" stroke="midnightblue" points="598.014,-44.1567 589.118,-49.911 599.66,-50.9602 598.014,-44.1567"/>
</g>
<!-- Node35&#45;&gt;Node31 -->
<g id="edge10" class="edge"><title>Node35&#45;&gt;Node31</title>
<path fill="none" stroke="midnightblue" d="M971.308,-45.8012C1038.39,-50.1217 1127.99,-55.8927 1165.87,-58.3326"/>
<polygon fill="midnightblue" stroke="midnightblue" points="971.369,-42.298 961.165,-45.1479 970.919,-49.2835 971.369,-42.298"/>
</g>
<!-- Node36 -->
<g id="node9" class="node"><title>Node36</title>
<g id="a_node9"><a xlink:href="namespaceobe_1_1_modes.html#a6a8b08eee511d4895c4da96d4ba223a6" target="_top" xlink:title="Starts the development Menu where you can starts other menus from. ">
<polygon fill="none" stroke="black" points="997,-12 997,-31 1130,-31 1130,-12 997,-12"/>
<text text-anchor="middle" x="1063.5" y="-19" font-family="Helvetica,sans-Serif" font-size="10.00">obe::Modes::startDevMenu</text>
</a>
</g>
</g>
<!-- Node35&#45;&gt;Node36 -->
<g id="edge8" class="edge"><title>Node35&#45;&gt;Node36</title>
<path fill="none" stroke="midnightblue" d="M971.118,-31.5073C979.716,-30.5657 988.375,-29.6175 996.755,-28.6997"/>
<polygon fill="midnightblue" stroke="midnightblue" points="970.632,-28.0395 961.072,-32.6074 971.394,-34.9979 970.632,-28.0395"/>
</g>
<!-- Node36&#45;&gt;Node31 -->
<g id="edge9" class="edge"><title>Node36&#45;&gt;Node31</title>
<path fill="none" stroke="midnightblue" d="M1104.21,-34.1283C1125.01,-40.7412 1149.47,-48.5187 1165.77,-53.7028"/>
<polygon fill="midnightblue" stroke="midnightblue" points="1105.25,-30.784 1094.65,-31.089 1103.12,-37.4549 1105.25,-30.784"/>
</g>
<!-- Node37&#45;&gt;Node35 -->
<g id="edge12" class="edge"><title>Node37&#45;&gt;Node35</title>
<path fill="none" stroke="midnightblue" d="M779.538,-29.0614C791.19,-30.3017 803.274,-31.588 814.951,-32.8309"/>
<polygon fill="midnightblue" stroke="midnightblue" points="779.745,-25.5638 769.43,-27.9856 779.004,-32.5245 779.745,-25.5638"/>
</g>
<!-- Node38&#45;&gt;Node33 -->
<g id="edge14" class="edge"><title>Node38&#45;&gt;Node33</title>
<path fill="none" stroke="midnightblue" d="M486.757,-23.8289C478.342,-24.1776 469.703,-24.4097 461.305,-24.5125"/>
<polygon fill="midnightblue" stroke="midnightblue" points="487.058,-27.3186 496.88,-23.3466 486.724,-20.3266 487.058,-27.3186"/>
</g>
</g>
</svg>
        <g id="navigator" transform="translate(0 0)" fill="#404254">
                <rect fill="#f2f5e9" fill-opacity="0.5" stroke="#606060" stroke-width=".5" x="0" y="0" width="60" height="60"/>
                <use id="zoomplus" xlink:href="#zoomPlus" x="17" y="9" onmousedown="handleZoom(evt,'in')"/>
                <use id="zoomminus" xlink:href="#zoomMin" x="42" y="9" onmousedown="handleZoom(evt,'out')"/>
                <use id="reset" xlink:href="#resetDef" x="30" y="36" onmousedown="handleReset()"/>
                <g id="arrowUp" xlink:href="#dirArrow" transform="translate(30 24)" onmousedown="handlePan(0,-1)">
                  <use xlink:href="#rim" fill="#404040">
                        <set attributeName="fill" to="#808080" begin="arrowUp.mouseover" end="arrowUp.mouseout"/>
                  </use>
                  <path fill="none" stroke="white" stroke-width="1.5" d="M0,-3.0v7 M-2.5,-0.5L0,-3.0L2.5,-0.5"/>
                </g>
                <g id="arrowRight" xlink:href="#dirArrow" transform="rotate(90) translate(36 -43)" onmousedown="handlePan(1,0)">
                  <use xlink:href="#rim" fill="#404040">
                        <set attributeName="fill" to="#808080" begin="arrowRight.mouseover" end="arrowRight.mouseout"/>
                  </use>
                  <path fill="none" stroke="white" stroke-width="1.5" d="M0,-3.0v7 M-2.5,-0.5L0,-3.0L2.5,-0.5"/>
                </g>
                <g id="arrowDown" xlink:href="#dirArrow" transform="rotate(180) translate(-30 -48)" onmousedown="handlePan(0,1)">
                  <use xlink:href="#rim" fill="#404040">
                        <set attributeName="fill" to="#808080" begin="arrowDown.mouseover" end="arrowDown.mouseout"/>
                  </use>
                  <path fill="none" stroke="white" stroke-width="1.5" d="M0,-3.0v7 M-2.5,-0.5L0,-3.0L2.5,-0.5"/>
                </g>
                <g id="arrowLeft" xlink:href="#dirArrow" transform="rotate(270) translate(-36 17)" onmousedown="handlePan(-1,0)">
                  <use xlink:href="#rim" fill="#404040">
                        <set attributeName="fill" to="#808080" begin="arrowLeft.mouseover" end="arrowLeft.mouseout"/>
                  </use>
                  <path fill="none" stroke="white" stroke-width="1.5" d="M0,-3.0v7 M-2.5,-0.5L0,-3.0L2.5,-0.5"/>
                </g>
        </g>
        <svg viewBox="0 0 15 15" width="100%" height="30px" preserveAspectRatio="xMaxYMin meet">
         <g id="arrow_out" transform="scale(0.3 0.3)">
          <a xlink:href="classobe_1_1_animation_1_1_animation_af20197e3c6b2bbd227708b59b23f007d_icgraph_org.svg" target="_base">
           <rect id="button" ry="5" rx="5" y="6" x="6" height="38" width="38"
                fill="#f2f5e9" fill-opacity="0.5" stroke="#606060" stroke-width="1.0"/>
           <path id="arrow"
             d="M 11.500037,31.436501 C 11.940474,20.09759 22.043105,11.32322 32.158766,21.979434 L 37.068811,17.246167 C 37.068811,17.246167 37.088388,32 37.088388,32 L 22.160133,31.978069 C 22.160133,31.978069 26.997745,27.140456 26.997745,27.140456 C 18.528582,18.264221 13.291696,25.230495 11.500037,31.436501 z"
             style="fill:#404040;"/>
          </a>
         </g>
        </svg>
</svg>
