<?xml version="1.0" encoding="UTF-8" standalone="no"?>
<!DOCTYPE svg PUBLIC "-//W3C//DTD SVG 1.1//EN"
 "http://www.w3.org/Graphics/SVG/1.1/DTD/svg11.dtd">
<!-- Generated by graphviz version 2.38.0 (20140413.2041)
 -->
<!-- Title: obe::Types::Selectable::isSelected Pages: 1 -->
<svg width="1186pt" height="97pt"
 viewBox="0.00 0.00 1186.00 96.50" xmlns="http://www.w3.org/2000/svg" xmlns:xlink="http://www.w3.org/1999/xlink">
<g id="graph0" class="graph" transform="scale(1 1) rotate(0) translate(4 92.5)">
<title>obe::Types::Selectable::isSelected</title>
<!-- Node3 -->
<g id="node1" class="node"><title>Node3</title>
<polygon fill="#bfbfbf" stroke="black" points="0,-24.5 0,-54.5 116,-54.5 116,-24.5 0,-24.5"/>
<text text-anchor="start" x="8" y="-42.5" font-family="Helvetica,sans-Serif" font-size="10.00">obe::Types::Selectable</text>
<text text-anchor="middle" x="58" y="-31.5" font-family="Helvetica,sans-Serif" font-size="10.00">::isSelected</text>
</g>
<!-- Node4 -->
<g id="node2" class="node"><title>Node4</title>
<g id="a_node2"><a xlink:href="namespaceobe_1_1_bindings_1_1_types_bindings.html#a216e7bb5f99d1a26b7f421277595da06" target="_top" xlink:title="obe::Bindings::TypesBindings\l::LoadSelectable">
<polygon fill="white" stroke="black" points="152,-49.5 152,-79.5 298,-79.5 298,-49.5 152,-49.5"/>
<text text-anchor="start" x="160" y="-67.5" font-family="Helvetica,sans-Serif" font-size="10.00">obe::Bindings::TypesBindings</text>
<text text-anchor="middle" x="225" y="-56.5" font-family="Helvetica,sans-Serif" font-size="10.00">::LoadSelectable</text>
</a>
</g>
</g>
<!-- Node3&#45;&gt;Node4 -->
<g id="edge1" class="edge"><title>Node3&#45;&gt;Node4</title>
<path fill="none" stroke="midnightblue" d="M126.33,-49.7015C134.704,-50.9704 143.295,-52.272 151.74,-53.5515"/>
<polygon fill="midnightblue" stroke="midnightblue" points="126.657,-46.2113 116.246,-48.1736 125.609,-53.1323 126.657,-46.2113"/>
</g>
<!-- Node5 -->
<g id="node3" class="node"><title>Node5</title>
<g id="a_node3"><a xlink:href="namespaceobe_1_1_script_1_1_core_lib.html#a0d760984dbfe9e6ea73ad803f6b0e0cd" target="_top" xlink:title="obe::Script::CoreLib\l::loadSelectable">
<polygon fill="white" stroke="black" points="173.5,-0.5 173.5,-30.5 276.5,-30.5 276.5,-0.5 173.5,-0.5"/>
<text text-anchor="start" x="181.5" y="-18.5" font-family="Helvetica,sans-Serif" font-size="10.00">obe::Script::CoreLib</text>
<text text-anchor="middle" x="225" y="-7.5" font-family="Helvetica,sans-Serif" font-size="10.00">::loadSelectable</text>
</a>
</g>
</g>
<!-- Node3&#45;&gt;Node5 -->
<g id="edge2" class="edge"><title>Node3&#45;&gt;Node5</title>
<path fill="none" stroke="midnightblue" d="M126.44,-29.6906C142.155,-27.4047 158.626,-25.0089 173.465,-22.8506"/>
<polygon fill="midnightblue" stroke="midnightblue" points="125.638,-26.2703 116.246,-31.1733 126.646,-33.1974 125.638,-26.2703"/>
</g>
<!-- Node6 -->
<g id="node4" class="node"><title>Node6</title>
<g id="a_node4"><a xlink:href="namespaceobe_1_1_script.html#abdb81ec0976f1097cef6711415b8fac3" target="_top" xlink:title="obe::Script::loadCoreLib">
<polygon fill="white" stroke="black" points="334,-6 334,-25 455,-25 455,-6 334,-6"/>
<text text-anchor="middle" x="394.5" y="-13" font-family="Helvetica,sans-Serif" font-size="10.00">obe::Script::loadCoreLib</text>
</a>
</g>
</g>
<!-- Node5&#45;&gt;Node6 -->
<g id="edge3" class="edge"><title>Node5&#45;&gt;Node6</title>
<path fill="none" stroke="midnightblue" d="M287.067,-15.5C302.317,-15.5 318.652,-15.5 333.833,-15.5"/>
<polygon fill="midnightblue" stroke="midnightblue" points="286.71,-12.0001 276.71,-15.5 286.71,-19.0001 286.71,-12.0001"/>
</g>
<!-- Node7 -->
<g id="node5" class="node"><title>Node7</title>
<g id="a_node5"><a xlink:href="namespaceobe_1_1_script.html#a4e6ee77032cf7f66544f9b08464a60b7" target="_top" xlink:title="obe::Script::loadLib">
<polygon fill="white" stroke="black" points="492,-50 492,-69 593,-69 593,-50 492,-50"/>
<text text-anchor="middle" x="542.5" y="-57" font-family="Helvetica,sans-Serif" font-size="10.00">obe::Script::loadLib</text>
</a>
</g>
</g>
<!-- Node6&#45;&gt;Node7 -->
<g id="edge4" class="edge"><title>Node6&#45;&gt;Node7</title>
<path fill="none" stroke="midnightblue" d="M436.761,-27.9347C459.959,-34.926 488.468,-43.5177 509.882,-49.9713"/>
<polygon fill="midnightblue" stroke="midnightblue" points="437.764,-24.5818 427.18,-25.0473 435.745,-31.2841 437.764,-24.5818"/>
</g>
<!-- Node12 -->
<g id="node10" class="node"><title>Node12</title>
<g id="a_node10"><a xlink:href="namespaceobe_1_1_script_1_1_core_lib.html#a07d6c11bbb082bc45bdba50d97965c00" target="_top" xlink:title="obe::Script::CoreLib\l::loadCollision">
<polygon fill="white" stroke="black" points="491,-0.5 491,-30.5 594,-30.5 594,-0.5 491,-0.5"/>
<text text-anchor="start" x="499" y="-18.5" font-family="Helvetica,sans-Serif" font-size="10.00">obe::Script::CoreLib</text>
<text text-anchor="middle" x="542.5" y="-7.5" font-family="Helvetica,sans-Serif" font-size="10.00">::loadCollision</text>
</a>
</g>
</g>
<!-- Node6&#45;&gt;Node12 -->
<g id="edge11" class="edge"><title>Node6&#45;&gt;Node12</title>
<path fill="none" stroke="midnightblue" d="M465.356,-8.75557C473.966,-8.72506 482.634,-8.81994 490.88,-9.04021"/>
<polygon fill="midnightblue" stroke="midnightblue" points="465.272,-5.2561 455.305,-8.84898 465.337,-12.2558 465.272,-5.2561"/>
</g>
<!-- Node8 -->
<g id="node6" class="node"><title>Node8</title>
<g id="a_node6"><a xlink:href="namespaceobe_1_1_modes.html#a1e38c0d9a2ca0230f0de79c298f53ab9" target="_top" xlink:title="A mode that will start the Toolkit. ">
<polygon fill="white" stroke="black" points="789,-50 789,-69 935,-69 935,-50 789,-50"/>
<text text-anchor="middle" x="862" y="-57" font-family="Helvetica,sans-Serif" font-size="10.00">obe::Modes::startToolkitMode</text>
</a>
</g>
</g>
<!-- Node7&#45;&gt;Node8 -->
<g id="edge5" class="edge"><title>Node7&#45;&gt;Node8</title>
<path fill="none" stroke="midnightblue" d="M603.301,-59.5C655.934,-59.5 732.702,-59.5 788.756,-59.5"/>
<polygon fill="midnightblue" stroke="midnightblue" points="603.109,-56.0001 593.109,-59.5 603.109,-63.0001 603.109,-56.0001"/>
</g>
<!-- Node11 -->
<g id="node9" class="node"><title>Node11</title>
<g id="a_node9"><a xlink:href="namespaceobe_1_1_script.html#aad6ef67388e6d16eb01853f208da410f" target="_top" xlink:title="obe::Script::loadBaseLib">
<polygon fill="white" stroke="black" points="630,-31 630,-50 753,-50 753,-31 630,-31"/>
<text text-anchor="middle" x="691.5" y="-38" font-family="Helvetica,sans-Serif" font-size="10.00">obe::Script::loadBaseLib</text>
</a>
</g>
</g>
<!-- Node7&#45;&gt;Node11 -->
<g id="edge9" class="edge"><title>Node7&#45;&gt;Node11</title>
<path fill="none" stroke="midnightblue" d="M603.361,-51.7629C612.089,-50.6348 621.083,-49.4722 629.828,-48.342"/>
<polygon fill="midnightblue" stroke="midnightblue" points="602.736,-48.3144 593.267,-53.0675 603.634,-55.2567 602.736,-48.3144"/>
</g>
<!-- Node9 -->
<g id="node7" class="node"><title>Node9</title>
<g id="a_node7"><a xlink:href="namespaceobe_1_1_modes.html#a6a8b08eee511d4895c4da96d4ba223a6" target="_top" xlink:title="Starts the development Menu where you can starts other menus from. ">
<polygon fill="white" stroke="black" points="971,-69 971,-88 1104,-88 1104,-69 971,-69"/>
<text text-anchor="middle" x="1037.5" y="-76" font-family="Helvetica,sans-Serif" font-size="10.00">obe::Modes::startDevMenu</text>
</a>
</g>
</g>
<!-- Node8&#45;&gt;Node9 -->
<g id="edge6" class="edge"><title>Node8&#45;&gt;Node9</title>
<path fill="none" stroke="midnightblue" d="M945.118,-68.4927C953.716,-69.4343 962.375,-70.3825 970.755,-71.3003"/>
<polygon fill="midnightblue" stroke="midnightblue" points="945.394,-65.0021 935.072,-67.3926 944.632,-71.9605 945.394,-65.0021"/>
</g>
<!-- Node10 -->
<g id="node8" class="node"><title>Node10</title>
<g id="a_node8"><a xlink:href="_ob_engine_8cpp.html#a3c04138a5bfe5d72780bb7e82a18e627" target="_top" xlink:title="main">
<polygon fill="white" stroke="black" points="1140,-50 1140,-69 1178,-69 1178,-50 1140,-50"/>
<text text-anchor="middle" x="1159" y="-57" font-family="Helvetica,sans-Serif" font-size="10.00">main</text>
</a>
</g>
</g>
<!-- Node8&#45;&gt;Node10 -->
<g id="edge8" class="edge"><title>Node8&#45;&gt;Node10</title>
<path fill="none" stroke="midnightblue" d="M945.308,-59.5C1012.39,-59.5 1101.99,-59.5 1139.87,-59.5"/>
<polygon fill="midnightblue" stroke="midnightblue" points="945.165,-56.0001 935.165,-59.5 945.165,-63.0001 945.165,-56.0001"/>
</g>
<!-- Node9&#45;&gt;Node10 -->
<g id="edge7" class="edge"><title>Node9&#45;&gt;Node10</title>
<path fill="none" stroke="midnightblue" d="M1108.82,-67.3192C1120.35,-65.4869 1131.33,-63.7409 1139.98,-62.3654"/>
<polygon fill="midnightblue" stroke="midnightblue" points="1107.93,-63.9174 1098.6,-68.9443 1109.03,-70.8306 1107.93,-63.9174"/>
</g>
<!-- Node11&#45;&gt;Node8 -->
<g id="edge10" class="edge"><title>Node11&#45;&gt;Node8</title>
<path fill="none" stroke="midnightblue" d="M763.441,-48.4993C771.82,-49.4441 780.38,-50.4093 788.777,-51.3562"/>
<polygon fill="midnightblue" stroke="midnightblue" points="763.662,-45.0021 753.332,-47.3594 762.877,-51.958 763.662,-45.0021"/>
</g>
<!-- Node12&#45;&gt;Node6 -->
<g id="edge12" class="edge"><title>Node12&#45;&gt;Node6</title>
<path fill="none" stroke="midnightblue" d="M480.757,-22.1647C472.342,-22.2828 463.703,-22.2783 455.305,-22.151"/>
<polygon fill="midnightblue" stroke="midnightblue" points="480.953,-25.6616 490.88,-21.9598 480.811,-18.663 480.953,-25.6616"/>
</g>
</g>
</svg>
