<?xml version="1.0" encoding="UTF-8" standalone="no"?>
<!DOCTYPE svg PUBLIC "-//W3C//DTD SVG 1.1//EN"
 "http://www.w3.org/Graphics/SVG/1.1/DTD/svg11.dtd">
<!-- Generated by graphviz version 2.38.0 (20140413.2041)
 -->
<!-- Title: vili::Attribute::setParent Pages: 1 -->
<!--zoomable 181 -->
<svg id="main" version="1.1" xmlns="http://www.w3.org/2000/svg" xmlns:xlink="http://www.w3.org/1999/xlink" xml:space="preserve" onload="init(evt)">
<style type="text/css"><![CDATA[
.edge:hover path { stroke: red; }
.edge:hover polygon { stroke: red; fill: red; }
.edge path { stroke: white; }
.edge polygon { stroke: white; fill: white; }
.node polygon { fill: white; }
]]></style>
<script type="text/javascript"><![CDATA[
var edges = document.getElementsByTagName('g');
if (edges && edges.length) {
  for (var i=0;i<edges.length;i++) {
    if (edges[i].id.substr(0,4)=='edge') {
      edges[i].setAttribute('class','edge');
    }
  }
}
]]></script>
        <defs>
                <circle id="rim" cx="0" cy="0" r="7"/>
                <circle id="rim2" cx="0" cy="0" r="3.5"/>
                <g id="zoomPlus">
                        <use xlink:href="#rim" fill="#404040">
                                <set attributeName="fill" to="#808080" begin="zoomplus.mouseover" end="zoomplus.mouseout"/>
                        </use>
                        <path d="M-4,0h8M0,-4v8" fill="none" stroke="white" stroke-width="1.5" pointer-events="none"/>
                </g>
                <g id="zoomMin">
                        <use xlink:href="#rim" fill="#404040">
                                <set attributeName="fill" to="#808080" begin="zoomminus.mouseover" end="zoomminus.mouseout"/>
                        </use>
                        <path d="M-4,0h8" fill="none" stroke="white" stroke-width="1.5" pointer-events="none"/>
                </g>
                <g id="dirArrow">
                        <path fill="none" stroke="white" stroke-width="1.5" d="M0,-3.0v7 M-2.5,-0.5L0,-3.0L2.5,-0.5"/>
                </g>
               <g id="resetDef">
                       <use xlink:href="#rim2" fill="#404040">
                               <set attributeName="fill" to="#808080" begin="reset.mouseover" end="reset.mouseout"/>
                       </use>
               </g>
        </defs>

<script type="text/javascript">
var viewWidth = 755;
var viewHeight = 181;
var sectionId = 'dynsection-19';
</script>
<script xlink:href="svgpan.js"/>
<svg id="graph" class="graph">
<g id="viewport">
<title>vili::Attribute::setParent</title>
<!-- Node615 -->
<g id="node1" class="node"><title>Node615</title>
<polygon fill="#bfbfbf" stroke="black" points="0,-107 0,-126 118,-126 118,-107 0,-107"/>
<text text-anchor="middle" x="59" y="-114" font-family="Helvetica,sans-Serif" font-size="10.00">vili::Attribute::setParent</text>
</g>
<!-- Node616 -->
<g id="node2" class="node"><title>Node616</title>
<g id="a_node2"><a xlink:href="classvili_1_1_attribute.html#a5670413931810cd6d44a9e237d63c0b0" target="_top" xlink:title="vili::Attribute::~Attribute">
<polygon fill="none" stroke="black" points="154,-129 154,-148 273,-148 273,-129 154,-129"/>
<text text-anchor="middle" x="213.5" y="-136" font-family="Helvetica,sans-Serif" font-size="10.00">vili::Attribute::~Attribute</text>
</a>
</g>
</g>
<!-- Node615&#45;&gt;Node616 -->
<g id="edge1" class="edge"><title>Node615&#45;&gt;Node616</title>
<path fill="none" stroke="midnightblue" d="M128.078,-126.321C136.664,-127.56 145.391,-128.819 153.815,-130.034"/>
<polygon fill="midnightblue" stroke="midnightblue" points="128.486,-122.844 118.089,-124.88 127.487,-129.772 128.486,-122.844"/>
</g>
<!-- Node617 -->
<g id="node3" class="node"><title>Node617</title>
<g id="a_node3"><a xlink:href="classobe_1_1_world_1_1_world.html#afb1d1ba4e0ae0ab5f741f413b793ba7e" target="_top" xlink:title="obe::World::World::\lloadFromFile">
<polygon fill="none" stroke="black" points="163,-79.5 163,-109.5 264,-109.5 264,-79.5 163,-79.5"/>
<text text-anchor="start" x="171" y="-97.5" font-family="Helvetica,sans-Serif" font-size="10.00">obe::World::World::</text>
<text text-anchor="middle" x="213.5" y="-86.5" font-family="Helvetica,sans-Serif" font-size="10.00">loadFromFile</text>
</a>
</g>
</g>
<!-- Node615&#45;&gt;Node617 -->
<g id="edge2" class="edge"><title>Node615&#45;&gt;Node617</title>
<path fill="none" stroke="midnightblue" d="M128.162,-106.667C139.73,-104.998 151.549,-103.293 162.538,-101.708"/>
<polygon fill="midnightblue" stroke="midnightblue" points="127.487,-103.228 118.089,-108.12 128.486,-110.156 127.487,-103.228"/>
</g>
<!-- Node618 -->
<g id="node4" class="node"><title>Node618</title>
<g id="a_node4"><a xlink:href="namespaceobe_1_1_editor.html#a508e767d732debdb65e63c7bffa50623" target="_top" xlink:title="obe::Editor::editMap">
<polygon fill="none" stroke="black" points="320,-123 320,-142 424,-142 424,-123 320,-123"/>
<text text-anchor="middle" x="372" y="-130" font-family="Helvetica,sans-Serif" font-size="10.00">obe::Editor::editMap</text>
</a>
</g>
</g>
<!-- Node617&#45;&gt;Node618 -->
<g id="edge3" class="edge"><title>Node617&#45;&gt;Node618</title>
<path fill="none" stroke="midnightblue" d="M273.95,-108.935C293.279,-113.629 314.235,-118.717 331.71,-122.96"/>
<polygon fill="midnightblue" stroke="midnightblue" points="274.561,-105.482 264.018,-106.523 272.909,-112.284 274.561,-105.482"/>
</g>
<!-- Node621 -->
<g id="node7" class="node"><title>Node621</title>
<g id="a_node7"><a xlink:href="namespaceobe_1_1_world.html#af739dc1887d2fa99eeded5b208cf66f5" target="_top" xlink:title="obe::World::loadWorldLib">
<polygon fill="none" stroke="black" points="309,-47 309,-66 435,-66 435,-47 309,-47"/>
<text text-anchor="middle" x="372" y="-54" font-family="Helvetica,sans-Serif" font-size="10.00">obe::World::loadWorldLib</text>
</a>
</g>
</g>
<!-- Node617&#45;&gt;Node621 -->
<g id="edge7" class="edge"><title>Node617&#45;&gt;Node621</title>
<path fill="none" stroke="midnightblue" d="M273.95,-80.0648C293.279,-75.3715 314.235,-70.2832 331.71,-66.04"/>
<polygon fill="midnightblue" stroke="midnightblue" points="272.909,-76.7158 264.018,-82.4766 274.561,-83.5181 272.909,-76.7158"/>
</g>
<!-- Node619 -->
<g id="node5" class="node"><title>Node619</title>
<g id="a_node5"><a xlink:href="namespaceobe_1_1_modes.html#a6a8b08eee511d4895c4da96d4ba223a6" target="_top" xlink:title="obe::Modes::startDevMenu">
<polygon fill="none" stroke="black" points="474,-153 474,-172 607,-172 607,-153 474,-153"/>
<text text-anchor="middle" x="540.5" y="-160" font-family="Helvetica,sans-Serif" font-size="10.00">obe::Modes::startDevMenu</text>
</a>
</g>
</g>
<!-- Node618&#45;&gt;Node619 -->
<g id="edge4" class="edge"><title>Node618&#45;&gt;Node619</title>
<path fill="none" stroke="midnightblue" d="M434.253,-143.537C451.441,-146.633 469.975,-149.973 486.63,-152.974"/>
<polygon fill="midnightblue" stroke="midnightblue" points="434.776,-140.075 424.314,-141.746 433.535,-146.964 434.776,-140.075"/>
</g>
<!-- Node620 -->
<g id="node6" class="node"><title>Node620</title>
<g id="a_node6"><a xlink:href="_ob_engine_8cpp.html#a3c04138a5bfe5d72780bb7e82a18e627" target="_top" xlink:title="main">
<polygon fill="none" stroke="black" points="677.5,-134 677.5,-153 715.5,-153 715.5,-134 677.5,-134"/>
<text text-anchor="middle" x="696.5" y="-141" font-family="Helvetica,sans-Serif" font-size="10.00">main</text>
</a>
</g>
</g>
<!-- Node618&#45;&gt;Node620 -->
<g id="edge6" class="edge"><title>Node618&#45;&gt;Node620</title>
<path fill="none" stroke="midnightblue" d="M434.326,-134.592C509.109,-137.142 631.222,-141.308 677.21,-142.876"/>
<polygon fill="midnightblue" stroke="midnightblue" points="434.215,-131.086 424.101,-134.243 433.976,-138.082 434.215,-131.086"/>
</g>
<!-- Node619&#45;&gt;Node620 -->
<g id="edge5" class="edge"><title>Node619&#45;&gt;Node620</title>
<path fill="none" stroke="midnightblue" d="M617.481,-153.126C639.811,-150.371 662.256,-147.602 677.301,-145.745"/>
<polygon fill="midnightblue" stroke="midnightblue" points="616.753,-149.689 607.257,-154.387 617.61,-156.636 616.753,-149.689"/>
</g>
<!-- Node622 -->
<g id="node8" class="node"><title>Node622</title>
<g id="a_node8"><a xlink:href="classobe_1_1_world_1_1_world.html#a4985b41c5ed027948d823d7155abf779" target="_top" xlink:title="obe::World::World::\lcreateGameObject">
<polygon fill="none" stroke="black" points="490,-49.5 490,-79.5 591,-79.5 591,-49.5 490,-49.5"/>
<text text-anchor="start" x="498" y="-67.5" font-family="Helvetica,sans-Serif" font-size="10.00">obe::World::World::</text>
<text text-anchor="middle" x="540.5" y="-56.5" font-family="Helvetica,sans-Serif" font-size="10.00">createGameObject</text>
</a>
</g>
</g>
<!-- Node621&#45;&gt;Node622 -->
<g id="edge8" class="edge"><title>Node621&#45;&gt;Node622</title>
<path fill="none" stroke="midnightblue" d="M445.715,-53.2921C460.652,-53.8722 476.049,-54.7684 489.94,-55.8861"/>
<polygon fill="midnightblue" stroke="midnightblue" points="445.586,-49.7857 435.472,-52.9421 445.347,-56.7816 445.586,-49.7857"/>
</g>
<!-- Node623 -->
<g id="node9" class="node"><title>Node623</title>
<g id="a_node9"><a xlink:href="namespaceobe_1_1_world.html#afc958184e59524fdf9dc6ba98a1e9a37" target="_top" xlink:title="obe::World::loadWorldScript\lEngineBaseLib">
<polygon fill="none" stroke="black" points="471,-0.5 471,-30.5 610,-30.5 610,-0.5 471,-0.5"/>
<text text-anchor="start" x="479" y="-18.5" font-family="Helvetica,sans-Serif" font-size="10.00">obe::World::loadWorldScript</text>
<text text-anchor="middle" x="540.5" y="-7.5" font-family="Helvetica,sans-Serif" font-size="10.00">EngineBaseLib</text>
</a>
</g>
</g>
<!-- Node621&#45;&gt;Node623 -->
<g id="edge11" class="edge"><title>Node621&#45;&gt;Node623</title>
<path fill="none" stroke="midnightblue" d="M421.712,-44.5049C439.406,-40.1477 459.631,-35.1673 478.27,-30.5777"/>
<polygon fill="midnightblue" stroke="midnightblue" points="420.49,-41.2011 411.617,-46.9907 422.164,-47.9981 420.49,-41.2011"/>
</g>
<!-- Node622&#45;&gt;Node617 -->
<g id="edge9" class="edge"><title>Node622&#45;&gt;Node617</title>
<path fill="none" stroke="midnightblue" d="M479.854,-70.9754C465.193,-72.5127 449.533,-74.1091 435,-75.5 376.289,-81.1191 308.709,-86.8307 264.004,-90.5037"/>
<polygon fill="midnightblue" stroke="midnightblue" points="480.241,-74.4541 489.818,-69.9237 479.506,-67.4927 480.241,-74.4541"/>
</g>
<!-- Node622&#45;&gt;Node621 -->
<g id="edge10" class="edge"><title>Node622&#45;&gt;Node621</title>
<path fill="none" stroke="midnightblue" d="M479.584,-68.1298C465.095,-67.7408 449.581,-67.0094 434.998,-66.0295"/>
<polygon fill="midnightblue" stroke="midnightblue" points="479.852,-71.6362 489.925,-68.3511 480.002,-64.6378 479.852,-71.6362"/>
</g>
<!-- Node624 -->
<g id="node10" class="node"><title>Node624</title>
<g id="a_node10"><a xlink:href="classobe_1_1_world_1_1_world.html#a5bd621e3fd9293d949ad0c669cee6838" target="_top" xlink:title="obe::World::World::\lWorld">
<polygon fill="none" stroke="black" points="646,-0.5 646,-30.5 747,-30.5 747,-0.5 646,-0.5"/>
<text text-anchor="start" x="654" y="-18.5" font-family="Helvetica,sans-Serif" font-size="10.00">obe::World::World::</text>
<text text-anchor="middle" x="696.5" y="-7.5" font-family="Helvetica,sans-Serif" font-size="10.00">World</text>
</a>
</g>
</g>
<!-- Node623&#45;&gt;Node624 -->
<g id="edge12" class="edge"><title>Node623&#45;&gt;Node624</title>
<path fill="none" stroke="midnightblue" d="M620.429,-15.5C628.988,-15.5 637.515,-15.5 645.587,-15.5"/>
<polygon fill="midnightblue" stroke="midnightblue" points="620.392,-12.0001 610.392,-15.5 620.392,-19.0001 620.392,-12.0001"/>
</g>
</g>
</svg>
        <g id="navigator" transform="translate(0 0)" fill="#404254">
                <rect fill="#f2f5e9" fill-opacity="0.5" stroke="#606060" stroke-width=".5" x="0" y="0" width="60" height="60"/>
                <use id="zoomplus" xlink:href="#zoomPlus" x="17" y="9" onmousedown="handleZoom(evt,'in')"/>
                <use id="zoomminus" xlink:href="#zoomMin" x="42" y="9" onmousedown="handleZoom(evt,'out')"/>
                <use id="reset" xlink:href="#resetDef" x="30" y="36" onmousedown="handleReset()"/>
                <g id="arrowUp" xlink:href="#dirArrow" transform="translate(30 24)" onmousedown="handlePan(0,-1)">
                  <use xlink:href="#rim" fill="#404040">
                        <set attributeName="fill" to="#808080" begin="arrowUp.mouseover" end="arrowUp.mouseout"/>
                  </use>
                  <path fill="none" stroke="white" stroke-width="1.5" d="M0,-3.0v7 M-2.5,-0.5L0,-3.0L2.5,-0.5"/>
                </g>
                <g id="arrowRight" xlink:href="#dirArrow" transform="rotate(90) translate(36 -43)" onmousedown="handlePan(1,0)">
                  <use xlink:href="#rim" fill="#404040">
                        <set attributeName="fill" to="#808080" begin="arrowRight.mouseover" end="arrowRight.mouseout"/>
                  </use>
                  <path fill="none" stroke="white" stroke-width="1.5" d="M0,-3.0v7 M-2.5,-0.5L0,-3.0L2.5,-0.5"/>
                </g>
                <g id="arrowDown" xlink:href="#dirArrow" transform="rotate(180) translate(-30 -48)" onmousedown="handlePan(0,1)">
                  <use xlink:href="#rim" fill="#404040">
                        <set attributeName="fill" to="#808080" begin="arrowDown.mouseover" end="arrowDown.mouseout"/>
                  </use>
                  <path fill="none" stroke="white" stroke-width="1.5" d="M0,-3.0v7 M-2.5,-0.5L0,-3.0L2.5,-0.5"/>
                </g>
                <g id="arrowLeft" xlink:href="#dirArrow" transform="rotate(270) translate(-36 17)" onmousedown="handlePan(-1,0)">
                  <use xlink:href="#rim" fill="#404040">
                        <set attributeName="fill" to="#808080" begin="arrowLeft.mouseover" end="arrowLeft.mouseout"/>
                  </use>
                  <path fill="none" stroke="white" stroke-width="1.5" d="M0,-3.0v7 M-2.5,-0.5L0,-3.0L2.5,-0.5"/>
                </g>
        </g>
        <svg viewBox="0 0 15 15" width="100%" height="30px" preserveAspectRatio="xMaxYMin meet">
         <g id="arrow_out" transform="scale(0.3 0.3)">
          <a xlink:href="classvili_1_1_attribute_a0669bd5af7169dba160c189885ae341d_icgraph_org.svg" target="_base">
           <rect id="button" ry="5" rx="5" y="6" x="6" height="38" width="38"
                fill="#f2f5e9" fill-opacity="0.5" stroke="#606060" stroke-width="1.0"/>
           <path id="arrow"
             d="M 11.500037,31.436501 C 11.940474,20.09759 22.043105,11.32322 32.158766,21.979434 L 37.068811,17.246167 C 37.068811,17.246167 37.088388,32 37.088388,32 L 22.160133,31.978069 C 22.160133,31.978069 26.997745,27.140456 26.997745,27.140456 C 18.528582,18.264221 13.291696,25.230495 11.500037,31.436501 z"
             style="fill:#404040;"/>
          </a>
         </g>
        </svg>
</svg>
