<?xml version="1.0" encoding="UTF-8" standalone="no"?>
<!DOCTYPE svg PUBLIC "-//W3C//DTD SVG 1.1//EN"
 "http://www.w3.org/Graphics/SVG/1.1/DTD/svg11.dtd">
<!-- Generated by graphviz version 2.38.0 (20140413.2041)
 -->
<!-- Title: vili::LinkNode::getTarget Pages: 1 -->
<!--zoomable 592 -->
<svg id="main" version="1.1" xmlns="http://www.w3.org/2000/svg" xmlns:xlink="http://www.w3.org/1999/xlink" xml:space="preserve" onload="init(evt)">
<style type="text/css"><![CDATA[
.edge:hover path { stroke: red; }
.edge:hover polygon { stroke: red; fill: red; }
.edge path { stroke: white; }
.edge polygon { stroke: white; fill: white; }
.node polygon { fill: white; }
]]></style>
<script type="text/javascript"><![CDATA[
var edges = document.getElementsByTagName('g');
if (edges && edges.length) {
  for (var i=0;i<edges.length;i++) {
    if (edges[i].id.substr(0,4)=='edge') {
      edges[i].setAttribute('class','edge');
    }
  }
}
]]></script>
        <defs>
                <circle id="rim" cx="0" cy="0" r="7"/>
                <circle id="rim2" cx="0" cy="0" r="3.5"/>
                <g id="zoomPlus">
                        <use xlink:href="#rim" fill="#404040">
                                <set attributeName="fill" to="#808080" begin="zoomplus.mouseover" end="zoomplus.mouseout"/>
                        </use>
                        <path d="M-4,0h8M0,-4v8" fill="none" stroke="white" stroke-width="1.5" pointer-events="none"/>
                </g>
                <g id="zoomMin">
                        <use xlink:href="#rim" fill="#404040">
                                <set attributeName="fill" to="#808080" begin="zoomminus.mouseover" end="zoomminus.mouseout"/>
                        </use>
                        <path d="M-4,0h8" fill="none" stroke="white" stroke-width="1.5" pointer-events="none"/>
                </g>
                <g id="dirArrow">
                        <path fill="none" stroke="white" stroke-width="1.5" d="M0,-3.0v7 M-2.5,-0.5L0,-3.0L2.5,-0.5"/>
                </g>
               <g id="resetDef">
                       <use xlink:href="#rim2" fill="#404040">
                               <set attributeName="fill" to="#808080" begin="reset.mouseover" end="reset.mouseout"/>
                       </use>
               </g>
        </defs>

<script type="text/javascript">
var viewWidth = 907;
var viewHeight = 592;
var sectionId = 'dynsection-14';
</script>
<script xlink:href="svgpan.js"/>
<svg id="graph" class="graph">
<g id="viewport">
<title>vili::LinkNode::getTarget</title>
<!-- Node208 -->
<g id="node1" class="node"><title>Node208</title>
<polygon fill="#bfbfbf" stroke="black" points="0,-257.5 0,-276.5 120,-276.5 120,-257.5 0,-257.5"/>
<text text-anchor="middle" x="60" y="-264.5" font-family="Helvetica,sans-Serif" font-size="10.00">vili::LinkNode::getTarget</text>
</g>
<!-- Node209 -->
<g id="node2" class="node"><title>Node209</title>
<g id="a_node2"><a xlink:href="classvili_1_1_complex_node.html#a69e5169f4f0b1aa72d9a3d7c0ee91e6f" target="_top" xlink:title="Checks if the ComplexNode contains a Node with the given Id. ">
<polygon fill="none" stroke="black" points="159.5,-553 159.5,-583 259.5,-583 259.5,-553 159.5,-553"/>
<text text-anchor="start" x="167.5" y="-571" font-family="Helvetica,sans-Serif" font-size="10.00">vili::ComplexNode::</text>
<text text-anchor="middle" x="209.5" y="-560" font-family="Helvetica,sans-Serif" font-size="10.00">contains</text>
</a>
</g>
</g>
<!-- Node208&#45;&gt;Node209 -->
<g id="edge1" class="edge"><title>Node208&#45;&gt;Node209</title>
<path fill="none" stroke="midnightblue" d="M61.9435,-276.57C66.0993,-314.155 85.8107,-453.716 156,-538 158.759,-541.312 161.983,-544.334 165.453,-547.073"/>
<polygon fill="midnightblue" stroke="midnightblue" points="163.685,-550.107 173.89,-552.955 167.688,-544.365 163.685,-550.107"/>
</g>
<!-- Node210 -->
<g id="node3" class="node"><title>Node210</title>
<g id="a_node3"><a xlink:href="classvili_1_1_complex_node.html#a2a280e0b84d7b5b22a49b0938977ab0b" target="_top" xlink:title="Get a DataNode contained in the ComplexNode. ">
<polygon fill="none" stroke="black" points="451,-465 451,-495 551,-495 551,-465 451,-465"/>
<text text-anchor="start" x="459" y="-483" font-family="Helvetica,sans-Serif" font-size="10.00">vili::ComplexNode::</text>
<text text-anchor="middle" x="501" y="-472" font-family="Helvetica,sans-Serif" font-size="10.00">getDataNode</text>
</a>
</g>
</g>
<!-- Node208&#45;&gt;Node210 -->
<g id="edge2" class="edge"><title>Node208&#45;&gt;Node210</title>
<path fill="none" stroke="midnightblue" d="M64.909,-276.54C75.5507,-301.268 107.527,-367.813 156,-401 242.624,-460.308 367.374,-475.616 440.422,-479.254"/>
<polygon fill="midnightblue" stroke="midnightblue" points="440.67,-482.769 450.814,-479.71 440.977,-475.775 440.67,-482.769"/>
</g>
<!-- Node211 -->
<g id="node4" class="node"><title>Node211</title>
<g id="a_node4"><a xlink:href="classaube_1_1_error_handler.html#a7c8d44a3e7f019646d289950abc5301b" target="_top" xlink:title="Raises an Error loaded in the Aube Error Database (AED) ">
<polygon fill="none" stroke="black" points="621.5,-407 621.5,-437 719.5,-437 719.5,-407 621.5,-407"/>
<text text-anchor="start" x="629.5" y="-425" font-family="Helvetica,sans-Serif" font-size="10.00">aube::ErrorHandler</text>
<text text-anchor="middle" x="670.5" y="-414" font-family="Helvetica,sans-Serif" font-size="10.00">::Raise</text>
</a>
</g>
</g>
<!-- Node208&#45;&gt;Node211 -->
<g id="edge31" class="edge"><title>Node208&#45;&gt;Node211</title>
<path fill="none" stroke="midnightblue" d="M63.5825,-276.885C71.7728,-306.26 99.9921,-393.789 156,-439 207.641,-480.686 234.351,-466.997 299,-482 414.16,-508.726 452.285,-543.677 564,-505 598.369,-493.101 630.041,-464.864 649.532,-444.631"/>
<polygon fill="midnightblue" stroke="midnightblue" points="652.101,-447.009 656.386,-437.319 646.994,-442.221 652.101,-447.009"/>
</g>
<!-- Node216 -->
<g id="node9" class="node"><title>Node216</title>
<g id="a_node9"><a xlink:href="classvili_1_1_node.html#a5a6ad518f51d824e06ae7be0328f4864" target="_top" xlink:title="Get the Node Path (Example : GrandParent/Parent/Node) ">
<polygon fill="none" stroke="black" points="611.5,-257.5 611.5,-276.5 729.5,-276.5 729.5,-257.5 611.5,-257.5"/>
<text text-anchor="middle" x="670.5" y="-264.5" font-family="Helvetica,sans-Serif" font-size="10.00">vili::Node::getNodePath</text>
</a>
</g>
</g>
<!-- Node208&#45;&gt;Node216 -->
<g id="edge32" class="edge"><title>Node208&#45;&gt;Node216</title>
<path fill="none" stroke="midnightblue" d="M85.0467,-257.464C158.29,-229.793 384.564,-154.501 564,-204 596.962,-213.093 630.005,-235.496 650.106,-250.977"/>
<polygon fill="midnightblue" stroke="midnightblue" points="648.124,-253.871 658.138,-257.33 652.466,-248.381 648.124,-253.871"/>
</g>
<!-- Node217 -->
<g id="node10" class="node"><title>Node217</title>
<g id="a_node10"><a xlink:href="classvili_1_1_node.html#a58273048e22a9ebd74e576fd8905f709" target="_top" xlink:title="vili::Node::getParent">
<polygon fill="none" stroke="black" points="786,-153.5 786,-172.5 890,-172.5 890,-153.5 786,-153.5"/>
<text text-anchor="middle" x="838" y="-160.5" font-family="Helvetica,sans-Serif" font-size="10.00">vili::Node::getParent</text>
</a>
</g>
</g>
<!-- Node208&#45;&gt;Node217 -->
<g id="edge22" class="edge"><title>Node208&#45;&gt;Node217</title>
<path fill="none" stroke="midnightblue" d="M72.573,-257.435C89.7794,-243.641 123.572,-218.159 156,-203 237.105,-165.087 259.971,-147 349.5,-147 349.5,-147 349.5,-147 502,-147 597.813,-147 708.864,-153.611 775.977,-158.334"/>
<polygon fill="midnightblue" stroke="midnightblue" points="775.733,-161.825 785.957,-159.045 776.231,-154.843 775.733,-161.825"/>
</g>
<!-- Node221 -->
<g id="node14" class="node"><title>Node221</title>
<g id="a_node14"><a xlink:href="classvili_1_1_data_node.html#a623be71b43a8906703721f18c89ef178" target="_top" xlink:title="Template method (overloaded by Template specialisation) to get the contained Data. ">
<polygon fill="none" stroke="black" points="162,-337.5 162,-356.5 257,-356.5 257,-337.5 162,-337.5"/>
<text text-anchor="middle" x="209.5" y="-344.5" font-family="Helvetica,sans-Serif" font-size="10.00">vili::DataNode::get</text>
</a>
</g>
</g>
<!-- Node208&#45;&gt;Node221 -->
<g id="edge13" class="edge"><title>Node208&#45;&gt;Node221</title>
<path fill="none" stroke="midnightblue" d="M77.723,-276.555C96.6256,-287.303 128.367,-305.192 156,-320 163.922,-324.245 172.576,-328.75 180.532,-332.838"/>
<polygon fill="midnightblue" stroke="midnightblue" points="178.968,-335.97 189.465,-337.406 182.155,-329.737 178.968,-335.97"/>
</g>
<!-- Node223 -->
<g id="node16" class="node"><title>Node223</title>
<g id="a_node16"><a xlink:href="classvili_1_1_node.html#a9d438d0731569aeeb9cae121796c1d41" target="_top" xlink:title="Returns the ClassType of the Node (All Types in vili::NodeType) ">
<polygon fill="none" stroke="black" points="453,-301.5 453,-320.5 549,-320.5 549,-301.5 453,-301.5"/>
<text text-anchor="middle" x="501" y="-308.5" font-family="Helvetica,sans-Serif" font-size="10.00">vili::Node::getType</text>
</a>
</g>
</g>
<!-- Node208&#45;&gt;Node223 -->
<g id="edge24" class="edge"><title>Node208&#45;&gt;Node223</title>
<path fill="none" stroke="midnightblue" d="M120.22,-276.281C132.055,-277.98 144.409,-279.642 156,-281 256.667,-292.797 374.41,-302.097 442.765,-307.052"/>
<polygon fill="midnightblue" stroke="midnightblue" points="442.667,-310.554 452.893,-307.781 443.169,-303.572 442.667,-310.554"/>
</g>
<!-- Node228 -->
<g id="node21" class="node"><title>Node228</title>
<g id="a_node21"><a xlink:href="namespacevili_1_1_functions_1_1_string.html#a9133ec632cc286cede9c5403c5b593b2" target="_top" xlink:title="Splits a std::string using a delimited. ">
<polygon fill="none" stroke="black" points="156,-88 156,-118 263,-118 263,-88 156,-88"/>
<text text-anchor="start" x="164" y="-106" font-family="Helvetica,sans-Serif" font-size="10.00">vili::Functions::String</text>
<text text-anchor="middle" x="209.5" y="-95" font-family="Helvetica,sans-Serif" font-size="10.00">::split</text>
</a>
</g>
</g>
<!-- Node208&#45;&gt;Node228 -->
<g id="edge23" class="edge"><title>Node208&#45;&gt;Node228</title>
<path fill="none" stroke="midnightblue" d="M65.8326,-257.497C78.1676,-233.968 112.907,-172.081 156,-133 159.791,-129.562 164.042,-126.346 168.44,-123.391"/>
<polygon fill="midnightblue" stroke="midnightblue" points="170.373,-126.31 176.998,-118.042 166.663,-120.374 170.373,-126.31"/>
</g>
<!-- Node229 -->
<g id="node22" class="node"><title>Node229</title>
<g id="a_node22"><a xlink:href="classvili_1_1_complex_node.html#aa9274f5ba9c9dbe1a0c90d54380a003a" target="_top" xlink:title="Get a ComplexNode contained in the ComplexNode. ">
<polygon fill="none" stroke="black" points="451,-416 451,-446 551,-446 551,-416 451,-416"/>
<text text-anchor="start" x="459" y="-434" font-family="Helvetica,sans-Serif" font-size="10.00">vili::ComplexNode::</text>
<text text-anchor="middle" x="501" y="-423" font-family="Helvetica,sans-Serif" font-size="10.00">getComplexNode</text>
</a>
</g>
</g>
<!-- Node208&#45;&gt;Node229 -->
<g id="edge25" class="edge"><title>Node208&#45;&gt;Node229</title>
<path fill="none" stroke="midnightblue" d="M67.3836,-276.532C81.1476,-296.325 115.657,-342.029 156,-366 245.145,-418.969 368.256,-430.206 440.467,-431.809"/>
<polygon fill="midnightblue" stroke="midnightblue" points="440.685,-435.313 450.742,-431.979 440.801,-428.314 440.685,-435.313"/>
</g>
<!-- Node230 -->
<g id="node23" class="node"><title>Node230</title>
<g id="a_node23"><a xlink:href="classvili_1_1_complex_node.html#abfafad10954568b678b208b7fefb074a" target="_top" xlink:title="Get a ArrayNode contained in the ComplexNode. ">
<polygon fill="none" stroke="black" points="451,-252 451,-282 551,-282 551,-252 451,-252"/>
<text text-anchor="start" x="459" y="-270" font-family="Helvetica,sans-Serif" font-size="10.00">vili::ComplexNode::</text>
<text text-anchor="middle" x="501" y="-259" font-family="Helvetica,sans-Serif" font-size="10.00">getArrayNode</text>
</a>
</g>
</g>
<!-- Node208&#45;&gt;Node230 -->
<g id="edge28" class="edge"><title>Node208&#45;&gt;Node230</title>
<path fill="none" stroke="midnightblue" d="M120.205,-267C204.119,-267 356.756,-267 440.714,-267"/>
<polygon fill="midnightblue" stroke="midnightblue" points="440.851,-270.5 450.851,-267 440.851,-263.5 440.851,-270.5"/>
</g>
<!-- Node231 -->
<g id="node24" class="node"><title>Node231</title>
<g id="a_node24"><a xlink:href="namespacevili_1_1_functions_1_1_string.html#a47cfebfa3355133cfbf43f9f2e435bf4" target="_top" xlink:title="Get if the string is an integer. ">
<polygon fill="none" stroke="black" points="156,-39 156,-69 263,-69 263,-39 156,-39"/>
<text text-anchor="start" x="164" y="-57" font-family="Helvetica,sans-Serif" font-size="10.00">vili::Functions::String</text>
<text text-anchor="middle" x="209.5" y="-46" font-family="Helvetica,sans-Serif" font-size="10.00">::isStringInt</text>
</a>
</g>
</g>
<!-- Node208&#45;&gt;Node231 -->
<g id="edge33" class="edge"><title>Node208&#45;&gt;Node231</title>
<path fill="none" stroke="midnightblue" d="M63.4242,-257.476C71.515,-227.432 100.279,-133.428 156,-79 157.462,-77.5715 159.022,-76.2126 160.654,-74.9212"/>
<polygon fill="midnightblue" stroke="midnightblue" points="163.019,-77.5446 169.307,-69.0171 159.074,-71.7625 163.019,-77.5446"/>
</g>
<!-- Node232 -->
<g id="node25" class="node"><title>Node232</title>
<g id="a_node25"><a xlink:href="classvili_1_1_array_node.html#a550ab855eda9d07c47477cf7fddf2c4b" target="_top" xlink:title="Gets the size of the ArrayNode (Amount of contained Nodes) ">
<polygon fill="none" stroke="black" points="158,-0.5 158,-19.5 261,-19.5 261,-0.5 158,-0.5"/>
<text text-anchor="middle" x="209.5" y="-7.5" font-family="Helvetica,sans-Serif" font-size="10.00">vili::ArrayNode::size</text>
</a>
</g>
</g>
<!-- Node208&#45;&gt;Node232 -->
<g id="edge34" class="edge"><title>Node208&#45;&gt;Node232</title>
<path fill="none" stroke="midnightblue" d="M62.0518,-257.284C66.4216,-221.614 86.313,-96.4554 156,-29 157.613,-27.4389 159.363,-26.0047 161.214,-24.6874"/>
<polygon fill="midnightblue" stroke="midnightblue" points="162.988,-27.704 169.846,-19.6276 159.449,-21.665 162.988,-27.704"/>
</g>
<!-- Node233 -->
<g id="node26" class="node"><title>Node233</title>
<g id="a_node26"><a xlink:href="classvili_1_1_array_node.html#aba67c18c26c9a7c78973cae023e6f374" target="_top" xlink:title="Access a contained DataNode. ">
<polygon fill="none" stroke="black" points="452,-213.5 452,-232.5 550,-232.5 550,-213.5 452,-213.5"/>
<text text-anchor="middle" x="501" y="-220.5" font-family="Helvetica,sans-Serif" font-size="10.00">vili::ArrayNode::get</text>
</a>
</g>
</g>
<!-- Node208&#45;&gt;Node233 -->
<g id="edge35" class="edge"><title>Node208&#45;&gt;Node233</title>
<path fill="none" stroke="midnightblue" d="M120.205,-261.066C204.456,-252.622 357.984,-237.234 441.722,-228.841"/>
<polygon fill="midnightblue" stroke="midnightblue" points="442.225,-232.308 451.826,-227.828 441.527,-225.343 442.225,-232.308"/>
</g>
<!-- Node210&#45;&gt;Node211 -->
<g id="edge3" class="edge"><title>Node210&#45;&gt;Node211</title>
<path fill="none" stroke="midnightblue" d="M545.571,-464.913C567.284,-457.394 593.719,-448.241 616.588,-440.322"/>
<polygon fill="midnightblue" stroke="midnightblue" points="617.842,-443.591 626.147,-437.012 615.552,-436.977 617.842,-443.591"/>
</g>
<!-- Node210&#45;&gt;Node216 -->
<g id="edge8" class="edge"><title>Node210&#45;&gt;Node216</title>
<path fill="none" stroke="midnightblue" d="M551.185,-466.141C555.938,-463.351 560.343,-460.007 564,-456 603.266,-412.986 569.243,-379.457 600,-330 611.862,-310.925 631.117,-294.117 646.355,-282.669"/>
<polygon fill="midnightblue" stroke="midnightblue" points="648.729,-285.272 654.777,-276.572 644.624,-279.602 648.729,-285.272"/>
</g>
<!-- Node212 -->
<g id="node5" class="node"><title>Node212</title>
<g id="a_node5"><a xlink:href="classaube_1_1_error_message.html#a3a39b6fcd8fdb12eaf6383123535b8ca" target="_top" xlink:title="Gets the File where is located the ErrorMessage when raised. ">
<polygon fill="none" stroke="black" points="786,-497 786,-527 890,-527 890,-497 786,-497"/>
<text text-anchor="start" x="794" y="-515" font-family="Helvetica,sans-Serif" font-size="10.00">aube::ErrorMessage</text>
<text text-anchor="middle" x="838" y="-504" font-family="Helvetica,sans-Serif" font-size="10.00">::getFile</text>
</a>
</g>
</g>
<!-- Node211&#45;&gt;Node212 -->
<g id="edge4" class="edge"><title>Node211&#45;&gt;Node212</title>
<path fill="none" stroke="midnightblue" d="M693.06,-437.088C713.927,-451.301 746.755,-472.645 777,-488 780.295,-489.673 783.735,-491.312 787.229,-492.9"/>
<polygon fill="midnightblue" stroke="midnightblue" points="785.974,-496.171 796.539,-496.966 788.776,-489.756 785.974,-496.171"/>
</g>
<!-- Node213 -->
<g id="node6" class="node"><title>Node213</title>
<g id="a_node6"><a xlink:href="classaube_1_1_error_message.html#a9184cc96589578f434351c105b0cd5f7" target="_top" xlink:title="Gets the location of the error in the code. ">
<polygon fill="none" stroke="black" points="786,-448 786,-478 890,-478 890,-448 786,-448"/>
<text text-anchor="start" x="794" y="-466" font-family="Helvetica,sans-Serif" font-size="10.00">aube::ErrorMessage</text>
<text text-anchor="middle" x="838" y="-455" font-family="Helvetica,sans-Serif" font-size="10.00">::getLocation</text>
</a>
</g>
</g>
<!-- Node211&#45;&gt;Node213 -->
<g id="edge5" class="edge"><title>Node211&#45;&gt;Node213</title>
<path fill="none" stroke="midnightblue" d="M719.814,-433.969C737.364,-438.317 757.429,-443.288 775.937,-447.872"/>
<polygon fill="midnightblue" stroke="midnightblue" points="775.193,-451.294 785.741,-450.301 776.876,-444.499 775.193,-451.294"/>
</g>
<!-- Node214 -->
<g id="node7" class="node"><title>Node214</title>
<g id="a_node7"><a xlink:href="classaube_1_1_error_message.html#a07927cb3e2d0712c459cc9e2b5f52696" target="_top" xlink:title="Gets the message displayed by the ErrorMessage when raised. ">
<polygon fill="none" stroke="black" points="786,-399 786,-429 890,-429 890,-399 786,-399"/>
<text text-anchor="start" x="794" y="-417" font-family="Helvetica,sans-Serif" font-size="10.00">aube::ErrorMessage</text>
<text text-anchor="middle" x="838" y="-406" font-family="Helvetica,sans-Serif" font-size="10.00">::getMessage</text>
</a>
</g>
</g>
<!-- Node211&#45;&gt;Node214 -->
<g id="edge6" class="edge"><title>Node211&#45;&gt;Node214</title>
<path fill="none" stroke="midnightblue" d="M719.814,-419.665C737.283,-418.82 757.244,-417.855 775.681,-416.964"/>
<polygon fill="midnightblue" stroke="midnightblue" points="775.921,-420.457 785.741,-416.478 775.583,-413.465 775.921,-420.457"/>
</g>
<!-- Node215 -->
<g id="node8" class="node"><title>Node215</title>
<g id="a_node8"><a xlink:href="classaube_1_1_error_message.html#a77c2f9b7e93542c958173b52da267989" target="_top" xlink:title="Gets hints that can help the error resolution. ">
<polygon fill="none" stroke="black" points="786,-350 786,-380 890,-380 890,-350 786,-350"/>
<text text-anchor="start" x="794" y="-368" font-family="Helvetica,sans-Serif" font-size="10.00">aube::ErrorMessage</text>
<text text-anchor="middle" x="838" y="-357" font-family="Helvetica,sans-Serif" font-size="10.00">::getHints</text>
</a>
</g>
</g>
<!-- Node211&#45;&gt;Node215 -->
<g id="edge7" class="edge"><title>Node211&#45;&gt;Node215</title>
<path fill="none" stroke="midnightblue" d="M715.416,-406.875C736.354,-399.663 761.582,-390.975 783.617,-383.386"/>
<polygon fill="midnightblue" stroke="midnightblue" points="784.851,-386.663 793.166,-380.097 782.571,-380.044 784.851,-386.663"/>
</g>
<!-- Node216&#45;&gt;Node217 -->
<g id="edge9" class="edge"><title>Node216&#45;&gt;Node217</title>
<path fill="none" stroke="midnightblue" d="M686.083,-257.39C706.353,-244.081 744.249,-219.373 777,-199 788.329,-191.953 800.98,-184.327 811.735,-177.915"/>
<polygon fill="midnightblue" stroke="midnightblue" points="813.807,-180.755 820.616,-172.638 810.231,-174.737 813.807,-180.755"/>
</g>
<!-- Node218 -->
<g id="node11" class="node"><title>Node218</title>
<g id="a_node11"><a xlink:href="classvili_1_1_node.html#ab03908ab3d62e3bfddaf9e7306fdf3b3" target="_top" xlink:title="Gets the id of the Node. ">
<polygon fill="none" stroke="black" points="796.5,-295.5 796.5,-314.5 879.5,-314.5 879.5,-295.5 796.5,-295.5"/>
<text text-anchor="middle" x="838" y="-302.5" font-family="Helvetica,sans-Serif" font-size="10.00">vili::Node::getId</text>
</a>
</g>
</g>
<!-- Node216&#45;&gt;Node218 -->
<g id="edge10" class="edge"><title>Node216&#45;&gt;Node218</title>
<path fill="none" stroke="midnightblue" d="M713.263,-276.589C735.55,-281.706 763.145,-288.042 786.616,-293.431"/>
<polygon fill="midnightblue" stroke="midnightblue" points="785.865,-296.85 796.395,-295.677 787.432,-290.028 785.865,-296.85"/>
</g>
<!-- Node219 -->
<g id="node12" class="node"><title>Node219</title>
<g id="a_node12"><a xlink:href="classvili_1_1_node.html#ad3c91cfe2721eaf9841721d1ec8ee0d8" target="_top" xlink:title="Gets the Node annotation. ">
<polygon fill="none" stroke="black" points="777,-257.5 777,-276.5 899,-276.5 899,-257.5 777,-257.5"/>
<text text-anchor="middle" x="838" y="-264.5" font-family="Helvetica,sans-Serif" font-size="10.00">vili::Node::getAnnotation</text>
</a>
</g>
</g>
<!-- Node216&#45;&gt;Node219 -->
<g id="edge11" class="edge"><title>Node216&#45;&gt;Node219</title>
<path fill="none" stroke="midnightblue" d="M729.849,-267C741.773,-267 754.439,-267 766.729,-267"/>
<polygon fill="midnightblue" stroke="midnightblue" points="766.94,-270.5 776.94,-267 766.94,-263.5 766.94,-270.5"/>
</g>
<!-- Node220 -->
<g id="node13" class="node"><title>Node220</title>
<g id="a_node13"><a xlink:href="namespacevili_1_1_functions_1_1_vector.html#a10836e1fe04648534cfc59d9de9acd72" target="_top" xlink:title="vili::Functions::Vector\l::join">
<polygon fill="none" stroke="black" points="783,-208 783,-238 893,-238 893,-208 783,-208"/>
<text text-anchor="start" x="791" y="-226" font-family="Helvetica,sans-Serif" font-size="10.00">vili::Functions::Vector</text>
<text text-anchor="middle" x="838" y="-215" font-family="Helvetica,sans-Serif" font-size="10.00">::join</text>
</a>
</g>
</g>
<!-- Node216&#45;&gt;Node220 -->
<g id="edge12" class="edge"><title>Node216&#45;&gt;Node220</title>
<path fill="none" stroke="midnightblue" d="M707.411,-257.453C726.624,-252.345 750.859,-245.901 773.159,-239.973"/>
<polygon fill="midnightblue" stroke="midnightblue" points="774.144,-243.333 782.909,-237.381 772.346,-236.568 774.144,-243.333"/>
</g>
<!-- Node222 -->
<g id="node15" class="node"><title>Node222</title>
<g id="a_node15"><a xlink:href="classvili_1_1_data_node.html#a7f30e8836aedbe34f8936b5d30da5413" target="_top" xlink:title="Copies the DataNode into a new ContainerNode. ">
<polygon fill="none" stroke="black" points="299,-337.5 299,-356.5 402,-356.5 402,-337.5 299,-337.5"/>
<text text-anchor="middle" x="350.5" y="-344.5" font-family="Helvetica,sans-Serif" font-size="10.00">vili::DataNode::copy</text>
</a>
</g>
</g>
<!-- Node221&#45;&gt;Node222 -->
<g id="edge14" class="edge"><title>Node221&#45;&gt;Node222</title>
<path fill="none" stroke="midnightblue" d="M257.172,-347C267.332,-347 278.225,-347 288.838,-347"/>
<polygon fill="midnightblue" stroke="midnightblue" points="288.895,-350.5 298.895,-347 288.895,-343.5 288.895,-350.5"/>
</g>
<!-- Node226 -->
<g id="node19" class="node"><title>Node226</title>
<g id="a_node19"><a xlink:href="classvili_1_1_data_node.html#ac00a0ebfb6c627d51262dd140a5dff14" target="_top" xlink:title="Writes the DataNode to a file. ">
<polygon fill="none" stroke="black" points="299.5,-376.5 299.5,-395.5 401.5,-395.5 401.5,-376.5 299.5,-376.5"/>
<text text-anchor="middle" x="350.5" y="-383.5" font-family="Helvetica,sans-Serif" font-size="10.00">vili::DataNode::write</text>
</a>
</g>
</g>
<!-- Node221&#45;&gt;Node226 -->
<g id="edge20" class="edge"><title>Node221&#45;&gt;Node226</title>
<path fill="none" stroke="midnightblue" d="M244.503,-356.54C262.93,-361.711 285.907,-368.157 305.665,-373.701"/>
<polygon fill="midnightblue" stroke="midnightblue" points="304.792,-377.091 315.366,-376.423 306.683,-370.351 304.792,-377.091"/>
</g>
<!-- Node222&#45;&gt;Node223 -->
<g id="edge15" class="edge"><title>Node222&#45;&gt;Node223</title>
<path fill="none" stroke="midnightblue" d="M390.905,-337.447C409.271,-332.995 431.316,-327.651 450.766,-322.935"/>
<polygon fill="midnightblue" stroke="midnightblue" points="451.774,-326.292 460.668,-320.535 450.125,-319.49 451.774,-326.292"/>
</g>
<!-- Node224 -->
<g id="node17" class="node"><title>Node224</title>
<g id="a_node17"><a xlink:href="classvili_1_1_data_node.html#a27dadd644c19ee34b95fa998764b225f" target="_top" xlink:title="Sets an Int value. ">
<polygon fill="none" stroke="black" points="453.5,-339.5 453.5,-358.5 548.5,-358.5 548.5,-339.5 453.5,-339.5"/>
<text text-anchor="middle" x="501" y="-346.5" font-family="Helvetica,sans-Serif" font-size="10.00">vili::DataNode::set</text>
</a>
</g>
</g>
<!-- Node222&#45;&gt;Node224 -->
<g id="edge16" class="edge"><title>Node222&#45;&gt;Node224</title>
<path fill="none" stroke="midnightblue" d="M402.19,-347.683C415.313,-347.859 429.532,-348.051 442.956,-348.232"/>
<polygon fill="midnightblue" stroke="midnightblue" points="442.99,-351.732 453.036,-348.367 443.084,-344.733 442.99,-351.732"/>
</g>
<!-- Node224&#45;&gt;Node211 -->
<g id="edge17" class="edge"><title>Node224&#45;&gt;Node211</title>
<path fill="none" stroke="midnightblue" d="M537.135,-358.593C546.009,-361.335 555.445,-364.531 564,-368 588.142,-377.789 614.209,-391.104 634.392,-402.062"/>
<polygon fill="midnightblue" stroke="midnightblue" points="632.773,-405.166 643.224,-406.91 636.142,-399.03 632.773,-405.166"/>
</g>
<!-- Node224&#45;&gt;Node216 -->
<g id="edge18" class="edge"><title>Node224&#45;&gt;Node216</title>
<path fill="none" stroke="midnightblue" d="M538.274,-339.487C546.855,-336.8 555.871,-333.609 564,-330 594.232,-316.577 626.545,-296.303 647.327,-282.401"/>
<polygon fill="midnightblue" stroke="midnightblue" points="649.438,-285.198 655.752,-276.69 645.51,-279.404 649.438,-285.198"/>
</g>
<!-- Node225 -->
<g id="node18" class="node"><title>Node225</title>
<g id="a_node18"><a xlink:href="namespacevili_1_1_types.html#ac195a27b2ff3164cfb8aeba0222fad03" target="_top" xlink:title="Converts a DataType to its name (in a std::string) ">
<polygon fill="none" stroke="black" points="600,-339.5 600,-358.5 741,-358.5 741,-339.5 600,-339.5"/>
<text text-anchor="middle" x="670.5" y="-346.5" font-family="Helvetica,sans-Serif" font-size="10.00">vili::Types::dataTypeToString</text>
</a>
</g>
</g>
<!-- Node224&#45;&gt;Node225 -->
<g id="edge19" class="edge"><title>Node224&#45;&gt;Node225</title>
<path fill="none" stroke="midnightblue" d="M548.658,-349C561.433,-349 575.65,-349 589.718,-349"/>
<polygon fill="midnightblue" stroke="midnightblue" points="589.913,-352.5 599.913,-349 589.912,-345.5 589.913,-352.5"/>
</g>
<!-- Node227 -->
<g id="node20" class="node"><title>Node227</title>
<g id="a_node20"><a xlink:href="classvili_1_1_data_node.html#acb68076f90b2344cba37afd31b8b2156" target="_top" xlink:title="Gets a dumpable representation of the contained data. ">
<polygon fill="none" stroke="black" points="438,-377.5 438,-396.5 564,-396.5 564,-377.5 438,-377.5"/>
<text text-anchor="middle" x="501" y="-384.5" font-family="Helvetica,sans-Serif" font-size="10.00">vili::DataNode::dumpData</text>
</a>
</g>
</g>
<!-- Node226&#45;&gt;Node227 -->
<g id="edge21" class="edge"><title>Node226&#45;&gt;Node227</title>
<path fill="none" stroke="midnightblue" d="M401.775,-386.339C410.121,-386.395 418.92,-386.454 427.683,-386.513"/>
<polygon fill="midnightblue" stroke="midnightblue" points="427.9,-390.014 437.923,-386.582 427.947,-383.015 427.9,-390.014"/>
</g>
<!-- Node229&#45;&gt;Node211 -->
<g id="edge26" class="edge"><title>Node229&#45;&gt;Node211</title>
<path fill="none" stroke="midnightblue" d="M551.35,-428.348C570.168,-427.337 591.791,-426.175 611.352,-425.124"/>
<polygon fill="midnightblue" stroke="midnightblue" points="611.57,-428.618 621.368,-424.586 611.195,-421.628 611.57,-428.618"/>
</g>
<!-- Node229&#45;&gt;Node216 -->
<g id="edge27" class="edge"><title>Node229&#45;&gt;Node216</title>
<path fill="none" stroke="midnightblue" d="M550.25,-415.875C555.233,-413.088 559.946,-409.821 564,-406 591.198,-380.364 577.728,-360.015 600,-330 613.548,-311.743 632.987,-294.663 647.864,-282.906"/>
<polygon fill="midnightblue" stroke="midnightblue" points="650.228,-285.503 656.017,-276.63 645.958,-279.956 650.228,-285.503"/>
</g>
<!-- Node230&#45;&gt;Node211 -->
<g id="edge29" class="edge"><title>Node230&#45;&gt;Node211</title>
<path fill="none" stroke="midnightblue" d="M550.25,-282.125C555.233,-284.912 559.946,-288.179 564,-292 591.198,-317.636 576.606,-338.851 600,-368 610.102,-380.587 623.699,-391.98 636.188,-401.022"/>
<polygon fill="midnightblue" stroke="midnightblue" points="634.396,-404.039 644.6,-406.891 638.402,-398.299 634.396,-404.039"/>
</g>
<!-- Node230&#45;&gt;Node216 -->
<g id="edge30" class="edge"><title>Node230&#45;&gt;Node216</title>
<path fill="none" stroke="midnightblue" d="M551.35,-267C566.933,-267 584.44,-267 601.106,-267"/>
<polygon fill="midnightblue" stroke="midnightblue" points="601.35,-270.5 611.35,-267 601.35,-263.5 601.35,-270.5"/>
</g>
<!-- Node233&#45;&gt;Node211 -->
<g id="edge36" class="edge"><title>Node233&#45;&gt;Node211</title>
<path fill="none" stroke="midnightblue" d="M548.95,-232.513C554.535,-235.188 559.75,-238.614 564,-243 604.229,-284.522 567.579,-320.132 600,-368 608.842,-381.055 621.848,-392.359 634.224,-401.202"/>
<polygon fill="midnightblue" stroke="midnightblue" points="632.396,-404.192 642.633,-406.923 636.333,-398.404 632.396,-404.192"/>
</g>
<!-- Node233&#45;&gt;Node216 -->
<g id="edge37" class="edge"><title>Node233&#45;&gt;Node216</title>
<path fill="none" stroke="midnightblue" d="M538.345,-232.547C563.258,-239.092 596.515,-247.828 623.306,-254.865"/>
<polygon fill="midnightblue" stroke="midnightblue" points="622.665,-258.316 633.226,-257.471 624.443,-251.545 622.665,-258.316"/>
</g>
</g>
</svg>
        <g id="navigator" transform="translate(0 0)" fill="#404254">
                <rect fill="#f2f5e9" fill-opacity="0.5" stroke="#606060" stroke-width=".5" x="0" y="0" width="60" height="60"/>
                <use id="zoomplus" xlink:href="#zoomPlus" x="17" y="9" onmousedown="handleZoom(evt,'in')"/>
                <use id="zoomminus" xlink:href="#zoomMin" x="42" y="9" onmousedown="handleZoom(evt,'out')"/>
                <use id="reset" xlink:href="#resetDef" x="30" y="36" onmousedown="handleReset()"/>
                <g id="arrowUp" xlink:href="#dirArrow" transform="translate(30 24)" onmousedown="handlePan(0,-1)">
                  <use xlink:href="#rim" fill="#404040">
                        <set attributeName="fill" to="#808080" begin="arrowUp.mouseover" end="arrowUp.mouseout"/>
                  </use>
                  <path fill="none" stroke="white" stroke-width="1.5" d="M0,-3.0v7 M-2.5,-0.5L0,-3.0L2.5,-0.5"/>
                </g>
                <g id="arrowRight" xlink:href="#dirArrow" transform="rotate(90) translate(36 -43)" onmousedown="handlePan(1,0)">
                  <use xlink:href="#rim" fill="#404040">
                        <set attributeName="fill" to="#808080" begin="arrowRight.mouseover" end="arrowRight.mouseout"/>
                  </use>
                  <path fill="none" stroke="white" stroke-width="1.5" d="M0,-3.0v7 M-2.5,-0.5L0,-3.0L2.5,-0.5"/>
                </g>
                <g id="arrowDown" xlink:href="#dirArrow" transform="rotate(180) translate(-30 -48)" onmousedown="handlePan(0,1)">
                  <use xlink:href="#rim" fill="#404040">
                        <set attributeName="fill" to="#808080" begin="arrowDown.mouseover" end="arrowDown.mouseout"/>
                  </use>
                  <path fill="none" stroke="white" stroke-width="1.5" d="M0,-3.0v7 M-2.5,-0.5L0,-3.0L2.5,-0.5"/>
                </g>
                <g id="arrowLeft" xlink:href="#dirArrow" transform="rotate(270) translate(-36 17)" onmousedown="handlePan(-1,0)">
                  <use xlink:href="#rim" fill="#404040">
                        <set attributeName="fill" to="#808080" begin="arrowLeft.mouseover" end="arrowLeft.mouseout"/>
                  </use>
                  <path fill="none" stroke="white" stroke-width="1.5" d="M0,-3.0v7 M-2.5,-0.5L0,-3.0L2.5,-0.5"/>
                </g>
        </g>
        <svg viewBox="0 0 15 15" width="100%" height="30px" preserveAspectRatio="xMaxYMin meet">
         <g id="arrow_out" transform="scale(0.3 0.3)">
          <a xlink:href="classvili_1_1_link_node_a7d237573208ae570b0711ffa537488b8_cgraph_org.svg" target="_base">
           <rect id="button" ry="5" rx="5" y="6" x="6" height="38" width="38"
                fill="#f2f5e9" fill-opacity="0.5" stroke="#606060" stroke-width="1.0"/>
           <path id="arrow"
             d="M 11.500037,31.436501 C 11.940474,20.09759 22.043105,11.32322 32.158766,21.979434 L 37.068811,17.246167 C 37.068811,17.246167 37.088388,32 37.088388,32 L 22.160133,31.978069 C 22.160133,31.978069 26.997745,27.140456 26.997745,27.140456 C 18.528582,18.264221 13.291696,25.230495 11.500037,31.436501 z"
             style="fill:#404040;"/>
          </a>
         </g>
        </svg>
</svg>
