<?xml version="1.0" encoding="UTF-8" standalone="no"?>
<!DOCTYPE svg PUBLIC "-//W3C//DTD SVG 1.1//EN"
 "http://www.w3.org/Graphics/SVG/1.1/DTD/svg11.dtd">
<!-- Generated by graphviz version 2.38.0 (20140413.2041)
 -->
<!-- Title: vili::ComplexAttribute::getLinkAttribute Pages: 1 -->
<svg width="456pt" height="350pt"
 viewBox="0.00 0.00 456.00 350.00" xmlns="http://www.w3.org/2000/svg" xmlns:xlink="http://www.w3.org/1999/xlink">
<g id="graph0" class="graph" transform="scale(1 1) rotate(0) translate(4 346)">
<title>vili::ComplexAttribute::getLinkAttribute</title>
<!-- Node971 -->
<g id="node1" class="node"><title>Node971</title>
<polygon fill="#bfbfbf" stroke="black" points="0,-147.5 0,-177.5 108,-177.5 108,-147.5 0,-147.5"/>
<text text-anchor="start" x="8" y="-165.5" font-family="Helvetica,sans-Serif" font-size="10.00">vili::ComplexAttribute</text>
<text text-anchor="middle" x="54" y="-154.5" font-family="Helvetica,sans-Serif" font-size="10.00">::getLinkAttribute</text>
</g>
<!-- Node972 -->
<g id="node2" class="node"><title>Node972</title>
<g id="a_node2"><a xlink:href="classaube_1_1_error_handler.html#a7c8d44a3e7f019646d289950abc5301b" target="_top" xlink:title="aube::ErrorHandler\l::Raise">
<polygon fill="none" stroke="black" points="161,-213.5 161,-243.5 259,-243.5 259,-213.5 161,-213.5"/>
<text text-anchor="start" x="169" y="-231.5" font-family="Helvetica,sans-Serif" font-size="10.00">aube::ErrorHandler</text>
<text text-anchor="middle" x="210" y="-220.5" font-family="Helvetica,sans-Serif" font-size="10.00">::Raise</text>
</a>
</g>
</g>
<!-- Node971&#45;&gt;Node972 -->
<g id="edge1" class="edge"><title>Node971&#45;&gt;Node972</title>
<path fill="none" stroke="midnightblue" d="M90.3307,-177.642C112.34,-187.074 140.849,-199.293 164.408,-209.389"/>
<polygon fill="midnightblue" stroke="midnightblue" points="163.263,-212.706 173.834,-213.429 166.021,-206.272 163.263,-212.706"/>
</g>
<!-- Node977 -->
<g id="node7" class="node"><title>Node977</title>
<g id="a_node7"><a xlink:href="classvili_1_1_attribute.html#a14b2534c1250d36bb0c02f7e5c25b40b" target="_top" xlink:title="vili::Attribute::getNodePath">
<polygon fill="none" stroke="black" points="144,-88 144,-107 276,-107 276,-88 144,-88"/>
<text text-anchor="middle" x="210" y="-95" font-family="Helvetica,sans-Serif" font-size="10.00">vili::Attribute::getNodePath</text>
</a>
</g>
</g>
<!-- Node971&#45;&gt;Node977 -->
<g id="edge6" class="edge"><title>Node971&#45;&gt;Node977</title>
<path fill="none" stroke="midnightblue" d="M90.7178,-147.424C116.76,-136.432 151.748,-121.665 176.905,-111.047"/>
<polygon fill="midnightblue" stroke="midnightblue" points="178.508,-114.169 186.36,-107.056 175.786,-107.72 178.508,-114.169"/>
</g>
<!-- Node973 -->
<g id="node3" class="node"><title>Node973</title>
<g id="a_node3"><a xlink:href="classaube_1_1_error_message.html#a3a39b6fcd8fdb12eaf6383123535b8ca" target="_top" xlink:title="aube::ErrorMessage\l::getFile">
<polygon fill="none" stroke="black" points="328,-311.5 328,-341.5 432,-341.5 432,-311.5 328,-311.5"/>
<text text-anchor="start" x="336" y="-329.5" font-family="Helvetica,sans-Serif" font-size="10.00">aube::ErrorMessage</text>
<text text-anchor="middle" x="380" y="-318.5" font-family="Helvetica,sans-Serif" font-size="10.00">::getFile</text>
</a>
</g>
</g>
<!-- Node972&#45;&gt;Node973 -->
<g id="edge2" class="edge"><title>Node972&#45;&gt;Node973</title>
<path fill="none" stroke="midnightblue" d="M228.205,-243.527C247.522,-259.8 280.322,-285.679 312,-302.5 315.247,-304.224 318.643,-305.871 322.112,-307.437"/>
<polygon fill="midnightblue" stroke="midnightblue" points="320.833,-310.696 331.405,-311.385 323.57,-304.253 320.833,-310.696"/>
</g>
<!-- Node974 -->
<g id="node4" class="node"><title>Node974</title>
<g id="a_node4"><a xlink:href="classaube_1_1_error_message.html#a9184cc96589578f434351c105b0cd5f7" target="_top" xlink:title="aube::ErrorMessage\l::getLocation">
<polygon fill="none" stroke="black" points="328,-262.5 328,-292.5 432,-292.5 432,-262.5 328,-262.5"/>
<text text-anchor="start" x="336" y="-280.5" font-family="Helvetica,sans-Serif" font-size="10.00">aube::ErrorMessage</text>
<text text-anchor="middle" x="380" y="-269.5" font-family="Helvetica,sans-Serif" font-size="10.00">::getLocation</text>
</a>
</g>
</g>
<!-- Node972&#45;&gt;Node974 -->
<g id="edge3" class="edge"><title>Node972&#45;&gt;Node974</title>
<path fill="none" stroke="midnightblue" d="M259.142,-242.541C277.556,-247.912 298.801,-254.108 318.242,-259.779"/>
<polygon fill="midnightblue" stroke="midnightblue" points="317.339,-263.161 327.919,-262.601 319.299,-256.441 317.339,-263.161"/>
</g>
<!-- Node975 -->
<g id="node5" class="node"><title>Node975</title>
<g id="a_node5"><a xlink:href="classaube_1_1_error_message.html#a07927cb3e2d0712c459cc9e2b5f52696" target="_top" xlink:title="aube::ErrorMessage\l::getMessage">
<polygon fill="none" stroke="black" points="328,-213.5 328,-243.5 432,-243.5 432,-213.5 328,-213.5"/>
<text text-anchor="start" x="336" y="-231.5" font-family="Helvetica,sans-Serif" font-size="10.00">aube::ErrorMessage</text>
<text text-anchor="middle" x="380" y="-220.5" font-family="Helvetica,sans-Serif" font-size="10.00">::getMessage</text>
</a>
</g>
</g>
<!-- Node972&#45;&gt;Node975 -->
<g id="edge4" class="edge"><title>Node972&#45;&gt;Node975</title>
<path fill="none" stroke="midnightblue" d="M259.142,-228.5C277.388,-228.5 298.413,-228.5 317.709,-228.5"/>
<polygon fill="midnightblue" stroke="midnightblue" points="317.919,-232 327.919,-228.5 317.919,-225 317.919,-232"/>
</g>
<!-- Node976 -->
<g id="node6" class="node"><title>Node976</title>
<g id="a_node6"><a xlink:href="classaube_1_1_error_message.html#a77c2f9b7e93542c958173b52da267989" target="_top" xlink:title="aube::ErrorMessage\l::getHints">
<polygon fill="none" stroke="black" points="328,-164.5 328,-194.5 432,-194.5 432,-164.5 328,-164.5"/>
<text text-anchor="start" x="336" y="-182.5" font-family="Helvetica,sans-Serif" font-size="10.00">aube::ErrorMessage</text>
<text text-anchor="middle" x="380" y="-171.5" font-family="Helvetica,sans-Serif" font-size="10.00">::getHints</text>
</a>
</g>
</g>
<!-- Node972&#45;&gt;Node976 -->
<g id="edge5" class="edge"><title>Node972&#45;&gt;Node976</title>
<path fill="none" stroke="midnightblue" d="M259.142,-214.459C277.556,-209.088 298.801,-202.892 318.242,-197.221"/>
<polygon fill="midnightblue" stroke="midnightblue" points="319.299,-200.559 327.919,-194.399 317.339,-193.839 319.299,-200.559"/>
</g>
<!-- Node978 -->
<g id="node8" class="node"><title>Node978</title>
<g id="a_node8"><a xlink:href="classvili_1_1_attribute.html#a1ed7aaea237378cc2b3ab767a864ced8" target="_top" xlink:title="vili::Attribute::getParent">
<polygon fill="none" stroke="black" points="321,-126 321,-145 439,-145 439,-126 321,-126"/>
<text text-anchor="middle" x="380" y="-133" font-family="Helvetica,sans-Serif" font-size="10.00">vili::Attribute::getParent</text>
</a>
</g>
</g>
<!-- Node977&#45;&gt;Node978 -->
<g id="edge7" class="edge"><title>Node977&#45;&gt;Node978</title>
<path fill="none" stroke="midnightblue" d="M253.393,-107.089C275.763,-112.149 303.398,-118.4 327.047,-123.749"/>
<polygon fill="midnightblue" stroke="midnightblue" points="326.386,-127.187 336.911,-125.98 327.93,-120.36 326.386,-127.187"/>
</g>
<!-- Node979 -->
<g id="node9" class="node"><title>Node979</title>
<g id="a_node9"><a xlink:href="classvili_1_1_attribute.html#a4af867485d90f3ce77332995e5dcfc5f" target="_top" xlink:title="vili::Attribute::getID">
<polygon fill="none" stroke="black" points="331,-88 331,-107 429,-107 429,-88 331,-88"/>
<text text-anchor="middle" x="380" y="-95" font-family="Helvetica,sans-Serif" font-size="10.00">vili::Attribute::getID</text>
</a>
</g>
</g>
<!-- Node977&#45;&gt;Node979 -->
<g id="edge8" class="edge"><title>Node977&#45;&gt;Node979</title>
<path fill="none" stroke="midnightblue" d="M276.434,-97.5C291.039,-97.5 306.433,-97.5 320.726,-97.5"/>
<polygon fill="midnightblue" stroke="midnightblue" points="320.912,-101 330.912,-97.5 320.912,-94.0001 320.912,-101"/>
</g>
<!-- Node980 -->
<g id="node10" class="node"><title>Node980</title>
<g id="a_node10"><a xlink:href="classvili_1_1_attribute.html#a1ec7ebd0bd596dd848151d37bba8c1b4" target="_top" xlink:title="vili::Attribute::getAnnotation">
<polygon fill="none" stroke="black" points="312,-50 312,-69 448,-69 448,-50 312,-50"/>
<text text-anchor="middle" x="380" y="-57" font-family="Helvetica,sans-Serif" font-size="10.00">vili::Attribute::getAnnotation</text>
</a>
</g>
</g>
<!-- Node977&#45;&gt;Node980 -->
<g id="edge9" class="edge"><title>Node977&#45;&gt;Node980</title>
<path fill="none" stroke="midnightblue" d="M253.393,-87.911C275.763,-82.8513 303.398,-76.6004 327.047,-71.2512"/>
<polygon fill="midnightblue" stroke="midnightblue" points="327.93,-74.6401 336.911,-69.0201 326.386,-67.8125 327.93,-74.6401"/>
</g>
<!-- Node981 -->
<g id="node11" class="node"><title>Node981</title>
<g id="a_node11"><a xlink:href="namespacevili_1_1_functions_1_1_vector.html#a10836e1fe04648534cfc59d9de9acd72" target="_top" xlink:title="vili::Functions::Vector\l::join">
<polygon fill="none" stroke="black" points="325,-0.5 325,-30.5 435,-30.5 435,-0.5 325,-0.5"/>
<text text-anchor="start" x="333" y="-18.5" font-family="Helvetica,sans-Serif" font-size="10.00">vili::Functions::Vector</text>
<text text-anchor="middle" x="380" y="-7.5" font-family="Helvetica,sans-Serif" font-size="10.00">::join</text>
</a>
</g>
</g>
<!-- Node977&#45;&gt;Node981 -->
<g id="edge10" class="edge"><title>Node977&#45;&gt;Node981</title>
<path fill="none" stroke="midnightblue" d="M226.345,-87.835C245.801,-75.8176 280.601,-55.1086 312,-40.5 316.596,-38.3618 321.43,-36.2697 326.309,-34.2634"/>
<polygon fill="midnightblue" stroke="midnightblue" points="327.705,-37.4751 335.698,-30.5214 325.113,-30.9726 327.705,-37.4751"/>
</g>
</g>
</svg>
