<?xml version="1.0" encoding="UTF-8" standalone="no"?>
<!DOCTYPE svg PUBLIC "-//W3C//DTD SVG 1.1//EN"
 "http://www.w3.org/Graphics/SVG/1.1/DTD/svg11.dtd">
<!-- Generated by graphviz version 2.38.0 (20140413.2041)
 -->
<!-- Title: vili::ContainerNode Pages: 1 -->
<svg width="105pt" height="95pt"
 viewBox="0.00 0.00 105.00 95.00" xmlns="http://www.w3.org/2000/svg" xmlns:xlink="http://www.w3.org/1999/xlink">
<g id="graph0" class="graph" transform="scale(1 1) rotate(0) translate(4 91)">
<title>vili::ContainerNode</title>
<!-- Node4 -->
<g id="node1" class="node"><title>Node4</title>
<polygon fill="#bfbfbf" stroke="black" points="0,-67.5 0,-86.5 97,-86.5 97,-67.5 0,-67.5"/>
<text text-anchor="middle" x="48.5" y="-74.5" font-family="Helvetica,sans-Serif" font-size="10.00">vili::ContainerNode</text>
</g>
<!-- Node5 -->
<g id="node2" class="node"><title>Node5</title>
<g id="a_node2"><a xlink:href="classvili_1_1_node.html" target="_top" xlink:title="Base Class for every Node in the Tree. ">
<polygon fill="white" stroke="black" points="20.5,-0.5 20.5,-19.5 76.5,-19.5 76.5,-0.5 20.5,-0.5"/>
<text text-anchor="middle" x="48.5" y="-7.5" font-family="Helvetica,sans-Serif" font-size="10.00">vili::Node</text>
</a>
</g>
</g>
<!-- Node4&#45;&gt;Node5 -->
<g id="edge2" class="edge"><title>Node4&#45;&gt;Node5</title>
<path fill="none" stroke="#9a32cd" stroke-dasharray="5,2" d="M25.584,-61.0891C21.9004,-57.5918 18.6096,-53.5403 16.5,-49 11.1938,-37.5803 22.3482,-26.8265 32.9137,-19.6933"/>
<polygon fill="#9a32cd" stroke="#9a32cd" points="23.4741,-63.8843 33.4445,-67.4679 27.885,-58.4488 23.4741,-63.8843"/>
<text text-anchor="middle" x="38.5" y="-41" font-family="Helvetica,sans-Serif" font-size="10.00"> m_parent</text>
</g>
<!-- Node5&#45;&gt;Node4 -->
<g id="edge1" class="edge"><title>Node5&#45;&gt;Node4</title>
<path fill="none" stroke="midnightblue" d="M60.9869,-28.0411C64.2764,-34.4771 66.4321,-41.9497 64.5,-49 62.7143,-55.5162 58.9046,-62.0545 55.4506,-67.0647"/>
<polygon fill="midnightblue" stroke="midnightblue" points="63.9475,-26.1741 55.7002,-19.5234 58,-29.8656 63.9475,-26.1741"/>
</g>
</g>
</svg>
