<?xml version="1.0" encoding="UTF-8" standalone="no"?>
<!DOCTYPE svg PUBLIC "-//W3C//DTD SVG 1.1//EN"
 "http://www.w3.org/Graphics/SVG/1.1/DTD/svg11.dtd">
<!-- Generated by graphviz version 2.38.0 (20140413.2041)
 -->
<!-- Title: obe::Animation::Animation::applyParameters Pages: 1 -->
<svg width="919pt" height="315pt"
 viewBox="0.00 0.00 919.00 315.00" xmlns="http://www.w3.org/2000/svg" xmlns:xlink="http://www.w3.org/1999/xlink">
<g id="graph0" class="graph" transform="scale(1 1) rotate(0) translate(4 311)">
<title>obe::Animation::Animation::applyParameters</title>
<!-- Node0 -->
<g id="node1" class="node"><title>Node0</title>
<polygon fill="#bfbfbf" stroke="black" points="0,-164 0,-194 131,-194 131,-164 0,-164"/>
<text text-anchor="start" x="8" y="-182" font-family="Helvetica,sans-Serif" font-size="10.00">obe::Animation::Animation</text>
<text text-anchor="middle" x="65.5" y="-171" font-family="Helvetica,sans-Serif" font-size="10.00">::applyParameters</text>
</g>
<!-- Node1 -->
<g id="node2" class="node"><title>Node1</title>
<g id="a_node2"><a xlink:href="classvili_1_1_complex_node.html#a69e5169f4f0b1aa72d9a3d7c0ee91e6f" target="_top" xlink:title="Checks if the ComplexNode contains a Node with the given Id. ">
<polygon fill="white" stroke="black" points="171,-208 171,-238 271,-238 271,-208 171,-208"/>
<text text-anchor="start" x="179" y="-226" font-family="Helvetica,sans-Serif" font-size="10.00">vili::ComplexNode::</text>
<text text-anchor="middle" x="221" y="-215" font-family="Helvetica,sans-Serif" font-size="10.00">contains</text>
</a>
</g>
</g>
<!-- Node0&#45;&gt;Node1 -->
<g id="edge1" class="edge"><title>Node0&#45;&gt;Node1</title>
<path fill="none" stroke="midnightblue" d="M118.897,-194.019C132.455,-197.906 147.144,-202.116 161.015,-206.092"/>
<polygon fill="midnightblue" stroke="midnightblue" points="160.365,-209.547 170.942,-208.938 162.293,-202.818 160.365,-209.547"/>
</g>
<!-- Node2 -->
<g id="node3" class="node"><title>Node2</title>
<g id="a_node3"><a xlink:href="classvili_1_1_complex_node.html#ab3a269cf4b6899b75bbd789f83b255d5" target="_top" xlink:title="Access a ComplexNode in the tree using a path with slash&#45;separation (.at(&quot;NodeA/NodeB/NodeC&quot;) for exa...">
<polygon fill="white" stroke="black" points="167,-169.5 167,-188.5 275,-188.5 275,-169.5 167,-169.5"/>
<text text-anchor="middle" x="221" y="-176.5" font-family="Helvetica,sans-Serif" font-size="10.00">vili::ComplexNode::at</text>
</a>
</g>
</g>
<!-- Node0&#45;&gt;Node2 -->
<g id="edge2" class="edge"><title>Node0&#45;&gt;Node2</title>
<path fill="none" stroke="midnightblue" d="M131.153,-179C139.541,-179 148.127,-179 156.496,-179"/>
<polygon fill="midnightblue" stroke="midnightblue" points="156.569,-182.5 166.569,-179 156.569,-175.5 156.569,-182.5"/>
</g>
<!-- Node15 -->
<g id="node16" class="node"><title>Node15</title>
<g id="a_node16"><a xlink:href="classvili_1_1_data_node.html#a623be71b43a8906703721f18c89ef178" target="_top" xlink:title="Template method (overloaded by Template specialisation) to get the contained Data. ">
<polygon fill="white" stroke="black" points="173.5,-67.5 173.5,-86.5 268.5,-86.5 268.5,-67.5 173.5,-67.5"/>
<text text-anchor="middle" x="221" y="-74.5" font-family="Helvetica,sans-Serif" font-size="10.00">vili::DataNode::get</text>
</a>
</g>
</g>
<!-- Node0&#45;&gt;Node15 -->
<g id="edge18" class="edge"><title>Node0&#45;&gt;Node15</title>
<path fill="none" stroke="midnightblue" d="M89.1495,-163.95C118.046,-144.748 167.76,-111.713 196.881,-92.3627"/>
<polygon fill="midnightblue" stroke="midnightblue" points="199.167,-95.0455 205.559,-86.5959 195.293,-89.2153 199.167,-95.0455"/>
</g>
<!-- Node3 -->
<g id="node4" class="node"><title>Node3</title>
<g id="a_node4"><a xlink:href="namespacevili_1_1_functions_1_1_string.html#ad7421099a2ab911f64f06d89abc7d7cf" target="_top" xlink:title="vili::Functions::String\l::extract">
<polygon fill="white" stroke="black" points="459.5,-241 459.5,-271 566.5,-271 566.5,-241 459.5,-241"/>
<text text-anchor="start" x="467.5" y="-259" font-family="Helvetica,sans-Serif" font-size="10.00">vili::Functions::String</text>
<text text-anchor="middle" x="513" y="-248" font-family="Helvetica,sans-Serif" font-size="10.00">::extract</text>
</a>
</g>
</g>
<!-- Node2&#45;&gt;Node3 -->
<g id="edge3" class="edge"><title>Node2&#45;&gt;Node3</title>
<path fill="none" stroke="midnightblue" d="M255.343,-188.542C272.033,-193.274 292.56,-199.026 311,-204 357.358,-216.506 409.896,-230.077 449.629,-240.218"/>
<polygon fill="midnightblue" stroke="midnightblue" points="448.889,-243.641 459.443,-242.72 450.618,-236.858 448.889,-243.641"/>
</g>
<!-- Node4 -->
<g id="node5" class="node"><title>Node4</title>
<g id="a_node5"><a xlink:href="classvili_1_1_complex_node.html#af863182abb35759cf98a0a39bde589fa" target="_top" xlink:title="vili::ComplexNode::\lgetPath">
<polygon fill="white" stroke="black" points="312.5,-164 312.5,-194 412.5,-194 412.5,-164 312.5,-164"/>
<text text-anchor="start" x="320.5" y="-182" font-family="Helvetica,sans-Serif" font-size="10.00">vili::ComplexNode::</text>
<text text-anchor="middle" x="362.5" y="-171" font-family="Helvetica,sans-Serif" font-size="10.00">getPath</text>
</a>
</g>
</g>
<!-- Node2&#45;&gt;Node4 -->
<g id="edge4" class="edge"><title>Node2&#45;&gt;Node4</title>
<path fill="none" stroke="midnightblue" d="M275.137,-179C283.976,-179 293.193,-179 302.174,-179"/>
<polygon fill="midnightblue" stroke="midnightblue" points="302.181,-182.5 312.181,-179 302.181,-175.5 302.181,-182.5"/>
</g>
<!-- Node4&#45;&gt;Node3 -->
<g id="edge5" class="edge"><title>Node4&#45;&gt;Node3</title>
<path fill="none" stroke="midnightblue" d="M390.596,-194.148C407.559,-203.525 429.929,-215.699 450,-226 456.656,-229.416 463.761,-232.954 470.699,-236.351"/>
<polygon fill="midnightblue" stroke="midnightblue" points="469.474,-239.647 479.998,-240.87 472.534,-233.351 469.474,-239.647"/>
</g>
<!-- Node5 -->
<g id="node6" class="node"><title>Node5</title>
<g id="a_node6"><a xlink:href="classvili_1_1_complex_node.html#aa9274f5ba9c9dbe1a0c90d54380a003a" target="_top" xlink:title="Get a ComplexNode contained in the ComplexNode. ">
<polygon fill="white" stroke="black" points="463,-153 463,-183 563,-183 563,-153 463,-153"/>
<text text-anchor="start" x="471" y="-171" font-family="Helvetica,sans-Serif" font-size="10.00">vili::ComplexNode::</text>
<text text-anchor="middle" x="513" y="-160" font-family="Helvetica,sans-Serif" font-size="10.00">getComplexNode</text>
</a>
</g>
</g>
<!-- Node4&#45;&gt;Node5 -->
<g id="edge6" class="edge"><title>Node4&#45;&gt;Node5</title>
<path fill="none" stroke="midnightblue" d="M412.536,-175.368C425.394,-174.415 439.398,-173.378 452.729,-172.39"/>
<polygon fill="midnightblue" stroke="midnightblue" points="453.048,-175.877 462.762,-171.647 452.531,-168.896 453.048,-175.877"/>
</g>
<!-- Node6 -->
<g id="node7" class="node"><title>Node6</title>
<g id="a_node7"><a xlink:href="classaube_1_1_error_handler.html#a7c8d44a3e7f019646d289950abc5301b" target="_top" xlink:title="Raises an Error loaded in the Aube Error Database (AED) ">
<polygon fill="white" stroke="black" points="633.5,-109 633.5,-139 731.5,-139 731.5,-109 633.5,-109"/>
<text text-anchor="start" x="641.5" y="-127" font-family="Helvetica,sans-Serif" font-size="10.00">aube::ErrorHandler</text>
<text text-anchor="middle" x="682.5" y="-116" font-family="Helvetica,sans-Serif" font-size="10.00">::Raise</text>
</a>
</g>
</g>
<!-- Node4&#45;&gt;Node6 -->
<g id="edge16" class="edge"><title>Node4&#45;&gt;Node6</title>
<path fill="none" stroke="midnightblue" d="M393.143,-163.951C409.492,-156.353 430.399,-147.758 450,-143 507.867,-128.953 576.001,-124.79 623.304,-123.781"/>
<polygon fill="midnightblue" stroke="midnightblue" points="623.43,-127.28 633.368,-123.608 623.309,-120.281 623.43,-127.28"/>
</g>
<!-- Node10 -->
<g id="node11" class="node"><title>Node10</title>
<g id="a_node11"><a xlink:href="classvili_1_1_node.html#a5a6ad518f51d824e06ae7be0328f4864" target="_top" xlink:title="Get the Node Path (Example : GrandParent/Parent/Node) ">
<polygon fill="white" stroke="black" points="623.5,-199.5 623.5,-218.5 741.5,-218.5 741.5,-199.5 623.5,-199.5"/>
<text text-anchor="middle" x="682.5" y="-206.5" font-family="Helvetica,sans-Serif" font-size="10.00">vili::Node::getNodePath</text>
</a>
</g>
</g>
<!-- Node4&#45;&gt;Node10 -->
<g id="edge17" class="edge"><title>Node4&#45;&gt;Node10</title>
<path fill="none" stroke="midnightblue" d="M412.794,-187.777C424.929,-189.717 437.91,-191.607 450,-193 504.696,-199.303 566.968,-203.436 613.141,-205.92"/>
<polygon fill="midnightblue" stroke="midnightblue" points="613.16,-209.426 623.33,-206.455 613.528,-202.435 613.16,-209.426"/>
</g>
<!-- Node5&#45;&gt;Node6 -->
<g id="edge7" class="edge"><title>Node5&#45;&gt;Node6</title>
<path fill="none" stroke="midnightblue" d="M563.35,-155.037C582.254,-150.071 603.989,-144.361 623.621,-139.204"/>
<polygon fill="midnightblue" stroke="midnightblue" points="624.585,-142.57 633.368,-136.644 622.807,-135.799 624.585,-142.57"/>
</g>
<!-- Node5&#45;&gt;Node10 -->
<g id="edge11" class="edge"><title>Node5&#45;&gt;Node10</title>
<path fill="none" stroke="midnightblue" d="M563.35,-180.08C585.275,-185.446 611.007,-191.745 632.85,-197.092"/>
<polygon fill="midnightblue" stroke="midnightblue" points="632.04,-200.497 642.585,-199.475 633.704,-193.697 632.04,-200.497"/>
</g>
<!-- Node7 -->
<g id="node8" class="node"><title>Node7</title>
<g id="a_node8"><a xlink:href="classaube_1_1_error_message.html#a9184cc96589578f434351c105b0cd5f7" target="_top" xlink:title="Gets the location of the error in the code. ">
<polygon fill="white" stroke="black" points="798,-63 798,-93 902,-93 902,-63 798,-63"/>
<text text-anchor="start" x="806" y="-81" font-family="Helvetica,sans-Serif" font-size="10.00">aube::ErrorMessage</text>
<text text-anchor="middle" x="850" y="-70" font-family="Helvetica,sans-Serif" font-size="10.00">::getLocation</text>
</a>
</g>
</g>
<!-- Node6&#45;&gt;Node7 -->
<g id="edge8" class="edge"><title>Node6&#45;&gt;Node7</title>
<path fill="none" stroke="midnightblue" d="M731.814,-110.571C749.364,-105.693 769.429,-100.116 787.937,-94.9723"/>
<polygon fill="midnightblue" stroke="midnightblue" points="789.043,-98.2975 797.741,-92.2473 787.169,-91.5531 789.043,-98.2975"/>
</g>
<!-- Node8 -->
<g id="node9" class="node"><title>Node8</title>
<g id="a_node9"><a xlink:href="classaube_1_1_error_message.html#a07927cb3e2d0712c459cc9e2b5f52696" target="_top" xlink:title="Gets the message displayed by the ErrorMessage when raised. ">
<polygon fill="white" stroke="black" points="798,-14 798,-44 902,-44 902,-14 798,-14"/>
<text text-anchor="start" x="806" y="-32" font-family="Helvetica,sans-Serif" font-size="10.00">aube::ErrorMessage</text>
<text text-anchor="middle" x="850" y="-21" font-family="Helvetica,sans-Serif" font-size="10.00">::getMessage</text>
</a>
</g>
</g>
<!-- Node6&#45;&gt;Node8 -->
<g id="edge9" class="edge"><title>Node6&#45;&gt;Node8</title>
<path fill="none" stroke="midnightblue" d="M731.646,-110.714C739.159,-107.527 746.557,-103.658 753,-99 774.038,-83.7887 768.233,-68.5793 789,-53 790.823,-51.6324 792.734,-50.3308 794.709,-49.0932"/>
<polygon fill="midnightblue" stroke="midnightblue" points="796.669,-52.0071 803.689,-44.0718 793.253,-45.8974 796.669,-52.0071"/>
</g>
<!-- Node9 -->
<g id="node10" class="node"><title>Node9</title>
<g id="a_node10"><a xlink:href="classaube_1_1_error_message.html#a77c2f9b7e93542c958173b52da267989" target="_top" xlink:title="Gets hints that can help the error resolution. ">
<polygon fill="white" stroke="black" points="798,-112 798,-142 902,-142 902,-112 798,-112"/>
<text text-anchor="start" x="806" y="-130" font-family="Helvetica,sans-Serif" font-size="10.00">aube::ErrorMessage</text>
<text text-anchor="middle" x="850" y="-119" font-family="Helvetica,sans-Serif" font-size="10.00">::getHints</text>
</a>
</g>
</g>
<!-- Node6&#45;&gt;Node9 -->
<g id="edge10" class="edge"><title>Node6&#45;&gt;Node9</title>
<path fill="none" stroke="midnightblue" d="M731.814,-124.876C749.283,-125.192 769.244,-125.554 787.681,-125.888"/>
<polygon fill="midnightblue" stroke="midnightblue" points="787.679,-129.389 797.741,-126.071 787.806,-122.39 787.679,-129.389"/>
</g>
<!-- Node11 -->
<g id="node12" class="node"><title>Node11</title>
<g id="a_node12"><a xlink:href="classvili_1_1_node.html#a58273048e22a9ebd74e576fd8905f709" target="_top" xlink:title="vili::Node::getParent">
<polygon fill="white" stroke="black" points="798,-199.5 798,-218.5 902,-218.5 902,-199.5 798,-199.5"/>
<text text-anchor="middle" x="850" y="-206.5" font-family="Helvetica,sans-Serif" font-size="10.00">vili::Node::getParent</text>
</a>
</g>
</g>
<!-- Node10&#45;&gt;Node11 -->
<g id="edge12" class="edge"><title>Node10&#45;&gt;Node11</title>
<path fill="none" stroke="midnightblue" d="M741.849,-209C756.669,-209 772.637,-209 787.603,-209"/>
<polygon fill="midnightblue" stroke="midnightblue" points="787.779,-212.5 797.779,-209 787.779,-205.5 787.779,-212.5"/>
</g>
<!-- Node12 -->
<g id="node13" class="node"><title>Node12</title>
<g id="a_node13"><a xlink:href="classvili_1_1_node.html#ab03908ab3d62e3bfddaf9e7306fdf3b3" target="_top" xlink:title="Gets the id of the Node. ">
<polygon fill="white" stroke="black" points="808.5,-161.5 808.5,-180.5 891.5,-180.5 891.5,-161.5 808.5,-161.5"/>
<text text-anchor="middle" x="850" y="-168.5" font-family="Helvetica,sans-Serif" font-size="10.00">vili::Node::getId</text>
</a>
</g>
</g>
<!-- Node10&#45;&gt;Node12 -->
<g id="edge13" class="edge"><title>Node10&#45;&gt;Node12</title>
<path fill="none" stroke="midnightblue" d="M725.263,-199.411C747.55,-194.294 775.145,-187.958 798.616,-182.569"/>
<polygon fill="midnightblue" stroke="midnightblue" points="799.432,-185.972 808.395,-180.323 797.865,-179.15 799.432,-185.972"/>
</g>
<!-- Node13 -->
<g id="node14" class="node"><title>Node13</title>
<g id="a_node14"><a xlink:href="classvili_1_1_node.html#ad3c91cfe2721eaf9841721d1ec8ee0d8" target="_top" xlink:title="Gets the Node annotation. ">
<polygon fill="white" stroke="black" points="789,-287.5 789,-306.5 911,-306.5 911,-287.5 789,-287.5"/>
<text text-anchor="middle" x="850" y="-294.5" font-family="Helvetica,sans-Serif" font-size="10.00">vili::Node::getAnnotation</text>
</a>
</g>
</g>
<!-- Node10&#45;&gt;Node13 -->
<g id="edge14" class="edge"><title>Node10&#45;&gt;Node13</title>
<path fill="none" stroke="midnightblue" d="M695.828,-218.684C714.872,-233.256 753.012,-260.928 789,-278 793.632,-280.197 798.582,-282.228 803.577,-284.078"/>
<polygon fill="midnightblue" stroke="midnightblue" points="802.574,-287.434 813.168,-287.412 804.872,-280.822 802.574,-287.434"/>
</g>
<!-- Node14 -->
<g id="node15" class="node"><title>Node14</title>
<g id="a_node15"><a xlink:href="namespacevili_1_1_functions_1_1_vector.html#a10836e1fe04648534cfc59d9de9acd72" target="_top" xlink:title="vili::Functions::Vector\l::join">
<polygon fill="white" stroke="black" points="795,-238 795,-268 905,-268 905,-238 795,-238"/>
<text text-anchor="start" x="803" y="-256" font-family="Helvetica,sans-Serif" font-size="10.00">vili::Functions::Vector</text>
<text text-anchor="middle" x="850" y="-245" font-family="Helvetica,sans-Serif" font-size="10.00">::join</text>
</a>
</g>
</g>
<!-- Node10&#45;&gt;Node14 -->
<g id="edge15" class="edge"><title>Node10&#45;&gt;Node14</title>
<path fill="none" stroke="midnightblue" d="M719.411,-218.547C738.624,-223.655 762.859,-230.099 785.159,-236.027"/>
<polygon fill="midnightblue" stroke="midnightblue" points="784.346,-239.432 794.909,-238.619 786.144,-232.667 784.346,-239.432"/>
</g>
<!-- Node16 -->
<g id="node17" class="node"><title>Node16</title>
<g id="a_node17"><a xlink:href="classvili_1_1_data_node.html#a7f30e8836aedbe34f8936b5d30da5413" target="_top" xlink:title="Copies the DataNode into a new ContainerNode. ">
<polygon fill="white" stroke="black" points="311,-67.5 311,-86.5 414,-86.5 414,-67.5 311,-67.5"/>
<text text-anchor="middle" x="362.5" y="-74.5" font-family="Helvetica,sans-Serif" font-size="10.00">vili::DataNode::copy</text>
</a>
</g>
</g>
<!-- Node15&#45;&gt;Node16 -->
<g id="edge19" class="edge"><title>Node15&#45;&gt;Node16</title>
<path fill="none" stroke="midnightblue" d="M268.84,-77C279.037,-77 289.969,-77 300.62,-77"/>
<polygon fill="midnightblue" stroke="midnightblue" points="300.713,-80.5001 310.713,-77 300.713,-73.5001 300.713,-80.5001"/>
</g>
<!-- Node20 -->
<g id="node21" class="node"><title>Node20</title>
<g id="a_node21"><a xlink:href="classvili_1_1_data_node.html#ac00a0ebfb6c627d51262dd140a5dff14" target="_top" xlink:title="Writes the DataNode to a file. ">
<polygon fill="white" stroke="black" points="311.5,-10.5 311.5,-29.5 413.5,-29.5 413.5,-10.5 311.5,-10.5"/>
<text text-anchor="middle" x="362.5" y="-17.5" font-family="Helvetica,sans-Serif" font-size="10.00">vili::DataNode::write</text>
</a>
</g>
</g>
<!-- Node15&#45;&gt;Node20 -->
<g id="edge25" class="edge"><title>Node15&#45;&gt;Node20</title>
<path fill="none" stroke="midnightblue" d="M245.349,-67.4595C268.183,-58.1295 303.159,-43.8384 328.765,-33.3758"/>
<polygon fill="midnightblue" stroke="midnightblue" points="330.141,-36.5941 338.075,-29.5716 327.494,-30.1142 330.141,-36.5941"/>
</g>
<!-- Node17 -->
<g id="node18" class="node"><title>Node17</title>
<g id="a_node18"><a xlink:href="classvili_1_1_node.html#a9d438d0731569aeeb9cae121796c1d41" target="_top" xlink:title="Returns the ClassType of the Node (All Types in vili::NodeType) ">
<polygon fill="white" stroke="black" points="465,-38.5 465,-57.5 561,-57.5 561,-38.5 465,-38.5"/>
<text text-anchor="middle" x="513" y="-45.5" font-family="Helvetica,sans-Serif" font-size="10.00">vili::Node::getType</text>
</a>
</g>
</g>
<!-- Node16&#45;&gt;Node17 -->
<g id="edge20" class="edge"><title>Node16&#45;&gt;Node17</title>
<path fill="none" stroke="midnightblue" d="M412.536,-67.4239C426.064,-64.782 440.86,-61.8927 454.807,-59.1691"/>
<polygon fill="midnightblue" stroke="midnightblue" points="455.638,-62.5729 464.782,-57.2211 454.296,-55.7027 455.638,-62.5729"/>
</g>
<!-- Node18 -->
<g id="node19" class="node"><title>Node18</title>
<g id="a_node19"><a xlink:href="classvili_1_1_data_node.html#a27dadd644c19ee34b95fa998764b225f" target="_top" xlink:title="Sets an Int value. ">
<polygon fill="white" stroke="black" points="465.5,-76.5 465.5,-95.5 560.5,-95.5 560.5,-76.5 465.5,-76.5"/>
<text text-anchor="middle" x="513" y="-83.5" font-family="Helvetica,sans-Serif" font-size="10.00">vili::DataNode::set</text>
</a>
</g>
</g>
<!-- Node16&#45;&gt;Node18 -->
<g id="edge21" class="edge"><title>Node16&#45;&gt;Node18</title>
<path fill="none" stroke="midnightblue" d="M414.19,-80.0721C427.313,-80.8675 441.532,-81.7292 454.956,-82.5428"/>
<polygon fill="midnightblue" stroke="midnightblue" points="454.843,-86.0422 465.036,-83.1537 455.266,-79.0551 454.843,-86.0422"/>
</g>
<!-- Node18&#45;&gt;Node6 -->
<g id="edge22" class="edge"><title>Node18&#45;&gt;Node6</title>
<path fill="none" stroke="midnightblue" d="M556.267,-95.589C576.606,-100.203 601.311,-105.808 623.386,-110.816"/>
<polygon fill="midnightblue" stroke="midnightblue" points="622.792,-114.27 633.319,-113.069 624.341,-107.444 622.792,-114.27"/>
</g>
<!-- Node18&#45;&gt;Node10 -->
<g id="edge23" class="edge"><title>Node18&#45;&gt;Node10</title>
<path fill="none" stroke="midnightblue" d="M527.143,-95.6516C556.009,-116.848 625.158,-167.627 660.27,-193.41"/>
<polygon fill="midnightblue" stroke="midnightblue" points="658.286,-196.295 668.418,-199.393 662.429,-190.653 658.286,-196.295"/>
</g>
<!-- Node19 -->
<g id="node20" class="node"><title>Node19</title>
<g id="a_node20"><a xlink:href="namespacevili_1_1_types.html#ac195a27b2ff3164cfb8aeba0222fad03" target="_top" xlink:title="Converts a DataType to its name (in a std::string) ">
<polygon fill="white" stroke="black" points="612,-70.5 612,-89.5 753,-89.5 753,-70.5 612,-70.5"/>
<text text-anchor="middle" x="682.5" y="-77.5" font-family="Helvetica,sans-Serif" font-size="10.00">vili::Types::dataTypeToString</text>
</a>
</g>
</g>
<!-- Node18&#45;&gt;Node19 -->
<g id="edge24" class="edge"><title>Node18&#45;&gt;Node19</title>
<path fill="none" stroke="midnightblue" d="M560.658,-84.3287C573.433,-83.8711 587.65,-83.3618 601.718,-82.8579"/>
<polygon fill="midnightblue" stroke="midnightblue" points="602.044,-86.3485 611.913,-82.4927 601.794,-79.353 602.044,-86.3485"/>
</g>
<!-- Node21 -->
<g id="node22" class="node"><title>Node21</title>
<g id="a_node22"><a xlink:href="classvili_1_1_data_node.html#acb68076f90b2344cba37afd31b8b2156" target="_top" xlink:title="Gets a dumpable representation of the contained data. ">
<polygon fill="white" stroke="black" points="450,-0.5 450,-19.5 576,-19.5 576,-0.5 450,-0.5"/>
<text text-anchor="middle" x="513" y="-7.5" font-family="Helvetica,sans-Serif" font-size="10.00">vili::DataNode::dumpData</text>
</a>
</g>
</g>
<!-- Node20&#45;&gt;Node21 -->
<g id="edge26" class="edge"><title>Node20&#45;&gt;Node21</title>
<path fill="none" stroke="midnightblue" d="M413.775,-16.6145C422.121,-16.0524 430.92,-15.4599 439.683,-14.8699"/>
<polygon fill="midnightblue" stroke="midnightblue" points="440.181,-18.3443 449.923,-14.1802 439.711,-11.3601 440.181,-18.3443"/>
</g>
</g>
</svg>
