<?xml version="1.0" encoding="UTF-8" standalone="no"?>
<!DOCTYPE svg PUBLIC "-//W3C//DTD SVG 1.1//EN"
 "http://www.w3.org/Graphics/SVG/1.1/DTD/svg11.dtd">
<!-- Generated by graphviz version 2.38.0 (20140413.2041)
 -->
<!-- Title: vili::NodeConstraintManager::checkAllConstraints Pages: 1 -->
<svg width="1391pt" height="823pt"
 viewBox="0.00 0.00 1391.00 822.82" xmlns="http://www.w3.org/2000/svg" xmlns:xlink="http://www.w3.org/1999/xlink">
<g id="graph0" class="graph" transform="scale(1 1) rotate(0) translate(4 818.82)">
<title>vili::NodeConstraintManager::checkAllConstraints</title>
<!-- Node17 -->
<g id="node1" class="node"><title>Node17</title>
<polygon fill="#bfbfbf" stroke="black" points="0,-228 0,-258 137,-258 137,-228 0,-228"/>
<text text-anchor="start" x="8" y="-246" font-family="Helvetica,sans-Serif" font-size="10.00">vili::NodeConstraintManager</text>
<text text-anchor="middle" x="68.5" y="-235" font-family="Helvetica,sans-Serif" font-size="10.00">::checkAllConstraints</text>
</g>
<!-- Node18 -->
<g id="node2" class="node"><title>Node18</title>
<g id="a_node2"><a xlink:href="classvili_1_1_link_node.html#ab2e7abc29a9e7f39a49cf836772c8d34" target="_top" xlink:title="Gets the Node the LinkNode is pointing to and casts it. ">
<polygon fill="white" stroke="black" points="173,-476.5 173,-495.5 266,-495.5 266,-476.5 173,-476.5"/>
<text text-anchor="middle" x="219.5" y="-483.5" font-family="Helvetica,sans-Serif" font-size="10.00">vili::LinkNode::get</text>
</a>
</g>
</g>
<!-- Node17&#45;&gt;Node18 -->
<g id="edge1" class="edge"><title>Node17&#45;&gt;Node18</title>
<path fill="none" stroke="midnightblue" d="M78.8206,-258.201C104.992,-300.882 179.079,-421.71 207.35,-467.816"/>
<polygon fill="midnightblue" stroke="midnightblue" points="204.442,-469.769 212.653,-476.465 210.41,-466.11 204.442,-469.769"/>
</g>
<!-- Node30 -->
<g id="node14" class="node"><title>Node30</title>
<g id="a_node14"><a xlink:href="classvili_1_1_node.html#ad3c91cfe2721eaf9841721d1ec8ee0d8" target="_top" xlink:title="Gets the Node annotation. ">
<polygon fill="white" stroke="black" points="1261,-96.5 1261,-115.5 1383,-115.5 1383,-96.5 1261,-96.5"/>
<text text-anchor="middle" x="1322" y="-103.5" font-family="Helvetica,sans-Serif" font-size="10.00">vili::Node::getAnnotation</text>
</a>
</g>
</g>
<!-- Node17&#45;&gt;Node30 -->
<g id="edge60" class="edge"><title>Node17&#45;&gt;Node30</title>
<path fill="none" stroke="midnightblue" d="M77.9283,-227.799C108.665,-174.601 220.513,-0 364.5,-0 364.5,-0 364.5,-0 986,-0 1105.98,-0 1239.35,-62.5738 1294.71,-91.5677"/>
<polygon fill="midnightblue" stroke="midnightblue" points="1293.34,-94.8054 1303.82,-96.4063 1296.63,-88.6237 1293.34,-94.8054"/>
</g>
<!-- Node19 -->
<g id="node3" class="node"><title>Node19</title>
<g id="a_node3"><a xlink:href="classvili_1_1_link_node.html#a9437df80cb82806b8130b604d990b130" target="_top" xlink:title="Gets the path of the pointed Node. ">
<polygon fill="white" stroke="black" points="473,-514.5 473,-533.5 586,-533.5 586,-514.5 473,-514.5"/>
<text text-anchor="middle" x="529.5" y="-521.5" font-family="Helvetica,sans-Serif" font-size="10.00">vili::LinkNode::getPath</text>
</a>
</g>
</g>
<!-- Node18&#45;&gt;Node19 -->
<g id="edge2" class="edge"><title>Node18&#45;&gt;Node19</title>
<path fill="none" stroke="midnightblue" d="M256.387,-495.553C270.513,-499.001 286.931,-502.624 302,-505 355.815,-513.484 417.46,-518.343 462.839,-521.02"/>
<polygon fill="midnightblue" stroke="midnightblue" points="462.662,-524.515 472.845,-521.59 463.061,-517.527 462.662,-524.515"/>
</g>
<!-- Node20 -->
<g id="node4" class="node"><title>Node20</title>
<g id="a_node4"><a xlink:href="classvili_1_1_link_node.html#a6fa5dac3440bd4c62e5933704b73721e" target="_top" xlink:title="Gets the path of the pointed Node (Without using linkroot) ">
<polygon fill="white" stroke="black" points="465,-727.5 465,-746.5 594,-746.5 594,-727.5 465,-727.5"/>
<text text-anchor="middle" x="529.5" y="-734.5" font-family="Helvetica,sans-Serif" font-size="10.00">vili::LinkNode::getFullPath</text>
</a>
</g>
</g>
<!-- Node18&#45;&gt;Node20 -->
<g id="edge3" class="edge"><title>Node18&#45;&gt;Node20</title>
<path fill="none" stroke="midnightblue" d="M222.691,-495.563C229.507,-523.235 252.884,-604.255 302,-649 347.514,-690.464 414.749,-713.252 464.145,-725.182"/>
<polygon fill="midnightblue" stroke="midnightblue" points="463.555,-728.638 474.088,-727.495 465.141,-721.82 463.555,-728.638"/>
</g>
<!-- Node39 -->
<g id="node23" class="node"><title>Node39</title>
<g id="a_node23"><a xlink:href="classvili_1_1_link_node.html#a4912faf06362f3c85c9eac8b3bab2e62" target="_top" xlink:title="Transforms the LinkNode to a copy of the pointed Node. ">
<polygon fill="white" stroke="black" points="314,-280.5 314,-299.5 417,-299.5 417,-280.5 314,-280.5"/>
<text text-anchor="middle" x="365.5" y="-287.5" font-family="Helvetica,sans-Serif" font-size="10.00">vili::LinkNode::apply</text>
</a>
</g>
</g>
<!-- Node18&#45;&gt;Node39 -->
<g id="edge24" class="edge"><title>Node18&#45;&gt;Node39</title>
<path fill="none" stroke="midnightblue" d="M227.641,-476.28C250.433,-445.257 321.68,-348.283 351.339,-307.913"/>
<polygon fill="midnightblue" stroke="midnightblue" points="354.216,-309.909 357.316,-299.778 348.575,-305.765 354.216,-309.909"/>
</g>
<!-- Node51 -->
<g id="node35" class="node"><title>Node51</title>
<g id="a_node35"><a xlink:href="classvili_1_1_link_node.html#a4b4a339604e69b5bb5bafa70e455430b" target="_top" xlink:title="Copies the LinkNode into a new ContainerNode. ">
<polygon fill="white" stroke="black" points="780.5,-204.5 780.5,-223.5 881.5,-223.5 881.5,-204.5 780.5,-204.5"/>
<text text-anchor="middle" x="831" y="-211.5" font-family="Helvetica,sans-Serif" font-size="10.00">vili::LinkNode::copy</text>
</a>
</g>
</g>
<!-- Node18&#45;&gt;Node51 -->
<g id="edge57" class="edge"><title>Node18&#45;&gt;Node51</title>
<path fill="none" stroke="midnightblue" d="M222.478,-476.239C229.269,-444.407 253.909,-341.602 302,-271 357.086,-190.127 382.035,-174.882 465,-123 571.57,-56.3556 637.049,15.1097 740,-57 778.348,-83.8598 751.559,-116.067 776,-156 785.57,-171.636 799.808,-186.709 811.261,-197.568"/>
<polygon fill="midnightblue" stroke="midnightblue" points="808.925,-200.174 818.654,-204.368 813.663,-195.022 808.925,-200.174"/>
</g>
<!-- Node52 -->
<g id="node36" class="node"><title>Node52</title>
<g id="a_node36"><a xlink:href="classvili_1_1_link_node.html#af281e3dde3051015b52bc7eedb05826c" target="_top" xlink:title="Compares if two LinkNode are pointing to the same Node. ">
<polygon fill="white" stroke="black" points="302,-620.5 302,-639.5 429,-639.5 429,-620.5 302,-620.5"/>
<text text-anchor="middle" x="365.5" y="-627.5" font-family="Helvetica,sans-Serif" font-size="10.00">vili::LinkNode::operator==</text>
</a>
</g>
</g>
<!-- Node18&#45;&gt;Node52 -->
<g id="edge55" class="edge"><title>Node18&#45;&gt;Node52</title>
<path fill="none" stroke="midnightblue" d="M230.398,-495.898C254.663,-520.163 317.332,-582.832 347.619,-613.119"/>
<polygon fill="midnightblue" stroke="midnightblue" points="345.366,-615.816 354.912,-620.412 350.316,-610.866 345.366,-615.816"/>
</g>
<!-- Node53 -->
<g id="node37" class="node"><title>Node53</title>
<g id="a_node37"><a xlink:href="classvili_1_1_link_node.html#ad3db3793a84a416a3299c120e8b775d4" target="_top" xlink:title="Writes the LinkNode to a file. ">
<polygon fill="white" stroke="black" points="315.5,-476.5 315.5,-495.5 415.5,-495.5 415.5,-476.5 315.5,-476.5"/>
<text text-anchor="middle" x="365.5" y="-483.5" font-family="Helvetica,sans-Serif" font-size="10.00">vili::LinkNode::write</text>
</a>
</g>
</g>
<!-- Node18&#45;&gt;Node53 -->
<g id="edge58" class="edge"><title>Node18&#45;&gt;Node53</title>
<path fill="none" stroke="midnightblue" d="M266.063,-486C278.481,-486 292.117,-486 305.179,-486"/>
<polygon fill="midnightblue" stroke="midnightblue" points="305.497,-489.5 315.497,-486 305.497,-482.5 305.497,-489.5"/>
</g>
<!-- Node21 -->
<g id="node5" class="node"><title>Node21</title>
<g id="a_node5"><a xlink:href="classvili_1_1_complex_node.html#a69e5169f4f0b1aa72d9a3d7c0ee91e6f" target="_top" xlink:title="Checks if the ComplexNode contains a Node with the given Id. ">
<polygon fill="white" stroke="black" points="635,-722 635,-752 735,-752 735,-722 635,-722"/>
<text text-anchor="start" x="643" y="-740" font-family="Helvetica,sans-Serif" font-size="10.00">vili::ComplexNode::</text>
<text text-anchor="middle" x="685" y="-729" font-family="Helvetica,sans-Serif" font-size="10.00">contains</text>
</a>
</g>
</g>
<!-- Node20&#45;&gt;Node21 -->
<g id="edge4" class="edge"><title>Node20&#45;&gt;Node21</title>
<path fill="none" stroke="midnightblue" d="M594.264,-737C604.29,-737 614.621,-737 624.545,-737"/>
<polygon fill="midnightblue" stroke="midnightblue" points="624.709,-740.5 634.709,-737 624.709,-733.5 624.709,-740.5"/>
</g>
<!-- Node22 -->
<g id="node6" class="node"><title>Node22</title>
<g id="a_node6"><a xlink:href="classvili_1_1_complex_node.html#a2a280e0b84d7b5b22a49b0938977ab0b" target="_top" xlink:title="Get a DataNode contained in the ComplexNode. ">
<polygon fill="white" stroke="black" points="781,-634 781,-664 881,-664 881,-634 781,-634"/>
<text text-anchor="start" x="789" y="-652" font-family="Helvetica,sans-Serif" font-size="10.00">vili::ComplexNode::</text>
<text text-anchor="middle" x="831" y="-641" font-family="Helvetica,sans-Serif" font-size="10.00">getDataNode</text>
</a>
</g>
</g>
<!-- Node20&#45;&gt;Node22 -->
<g id="edge5" class="edge"><title>Node20&#45;&gt;Node22</title>
<path fill="none" stroke="midnightblue" d="M541.11,-746.661C558.274,-761.561 593.868,-789.523 630,-800 676.955,-813.615 697.492,-824.15 740,-800 764.715,-785.959 801.117,-712.397 819.11,-673.372"/>
<polygon fill="midnightblue" stroke="midnightblue" points="822.407,-674.579 823.371,-664.028 816.038,-671.675 822.407,-674.579"/>
</g>
<!-- Node32 -->
<g id="node16" class="node"><title>Node32</title>
<g id="a_node16"><a xlink:href="classvili_1_1_data_node.html#a623be71b43a8906703721f18c89ef178" target="_top" xlink:title="Template method (overloaded by Template specialisation) to get the contained Data. ">
<polygon fill="white" stroke="black" points="637.5,-771.5 637.5,-790.5 732.5,-790.5 732.5,-771.5 637.5,-771.5"/>
<text text-anchor="middle" x="685" y="-778.5" font-family="Helvetica,sans-Serif" font-size="10.00">vili::DataNode::get</text>
</a>
</g>
</g>
<!-- Node20&#45;&gt;Node32 -->
<g id="edge15" class="edge"><title>Node20&#45;&gt;Node32</title>
<path fill="none" stroke="midnightblue" d="M563.807,-746.547C586.436,-753.034 616.579,-761.674 641.016,-768.679"/>
<polygon fill="midnightblue" stroke="midnightblue" points="640.18,-772.08 650.758,-771.471 642.109,-765.351 640.18,-772.08"/>
</g>
<!-- Node23 -->
<g id="node7" class="node"><title>Node23</title>
<g id="a_node7"><a xlink:href="classaube_1_1_error_handler.html#a7c8d44a3e7f019646d289950abc5301b" target="_top" xlink:title="Raises an Error loaded in the Aube Error Database (AED) ">
<polygon fill="white" stroke="black" points="1105.5,-329 1105.5,-359 1203.5,-359 1203.5,-329 1105.5,-329"/>
<text text-anchor="start" x="1113.5" y="-347" font-family="Helvetica,sans-Serif" font-size="10.00">aube::ErrorHandler</text>
<text text-anchor="middle" x="1154.5" y="-336" font-family="Helvetica,sans-Serif" font-size="10.00">::Raise</text>
</a>
</g>
</g>
<!-- Node22&#45;&gt;Node23 -->
<g id="edge6" class="edge"><title>Node22&#45;&gt;Node23</title>
<path fill="none" stroke="midnightblue" d="M875.343,-633.956C879.39,-631.161 883.067,-627.869 886,-624 946.648,-543.995 853.956,-474.818 922,-401 933.833,-388.163 1030.63,-367.487 1095.25,-354.882"/>
<polygon fill="midnightblue" stroke="midnightblue" points="1096.18,-358.268 1105.33,-352.93 1094.85,-351.395 1096.18,-358.268"/>
</g>
<!-- Node27 -->
<g id="node11" class="node"><title>Node27</title>
<g id="a_node11"><a xlink:href="classvili_1_1_node.html#a5a6ad518f51d824e06ae7be0328f4864" target="_top" xlink:title="Get the Node Path (Example : GrandParent/Parent/Node) ">
<polygon fill="white" stroke="black" points="1095.5,-497.5 1095.5,-516.5 1213.5,-516.5 1213.5,-497.5 1095.5,-497.5"/>
<text text-anchor="middle" x="1154.5" y="-504.5" font-family="Helvetica,sans-Serif" font-size="10.00">vili::Node::getNodePath</text>
</a>
</g>
</g>
<!-- Node22&#45;&gt;Node27 -->
<g id="edge10" class="edge"><title>Node22&#45;&gt;Node27</title>
<path fill="none" stroke="midnightblue" d="M881.168,-652.892C926.9,-654.371 995.66,-650.992 1048,-624 1050.93,-622.49 1109.27,-556.91 1137.91,-524.609"/>
<polygon fill="midnightblue" stroke="midnightblue" points="1140.8,-526.622 1144.81,-516.816 1135.56,-521.979 1140.8,-526.622"/>
</g>
<!-- Node24 -->
<g id="node8" class="node"><title>Node24</title>
<g id="a_node8"><a xlink:href="classaube_1_1_error_message.html#a9184cc96589578f434351c105b0cd5f7" target="_top" xlink:title="Gets the location of the error in the code. ">
<polygon fill="white" stroke="black" points="1270,-378 1270,-408 1374,-408 1374,-378 1270,-378"/>
<text text-anchor="start" x="1278" y="-396" font-family="Helvetica,sans-Serif" font-size="10.00">aube::ErrorMessage</text>
<text text-anchor="middle" x="1322" y="-385" font-family="Helvetica,sans-Serif" font-size="10.00">::getLocation</text>
</a>
</g>
</g>
<!-- Node23&#45;&gt;Node24 -->
<g id="edge7" class="edge"><title>Node23&#45;&gt;Node24</title>
<path fill="none" stroke="midnightblue" d="M1203.81,-358.305C1221.61,-363.573 1241.99,-369.606 1260.71,-375.148"/>
<polygon fill="midnightblue" stroke="midnightblue" points="1259.74,-378.512 1270.32,-377.995 1261.73,-371.8 1259.74,-378.512"/>
</g>
<!-- Node25 -->
<g id="node9" class="node"><title>Node25</title>
<g id="a_node9"><a xlink:href="classaube_1_1_error_message.html#a07927cb3e2d0712c459cc9e2b5f52696" target="_top" xlink:title="Gets the message displayed by the ErrorMessage when raised. ">
<polygon fill="white" stroke="black" points="1270,-329 1270,-359 1374,-359 1374,-329 1270,-329"/>
<text text-anchor="start" x="1278" y="-347" font-family="Helvetica,sans-Serif" font-size="10.00">aube::ErrorMessage</text>
<text text-anchor="middle" x="1322" y="-336" font-family="Helvetica,sans-Serif" font-size="10.00">::getMessage</text>
</a>
</g>
</g>
<!-- Node23&#45;&gt;Node25 -->
<g id="edge8" class="edge"><title>Node23&#45;&gt;Node25</title>
<path fill="none" stroke="midnightblue" d="M1203.81,-344C1221.28,-344 1241.24,-344 1259.68,-344"/>
<polygon fill="midnightblue" stroke="midnightblue" points="1259.74,-347.5 1269.74,-344 1259.74,-340.5 1259.74,-347.5"/>
</g>
<!-- Node26 -->
<g id="node10" class="node"><title>Node26</title>
<g id="a_node10"><a xlink:href="classaube_1_1_error_message.html#a77c2f9b7e93542c958173b52da267989" target="_top" xlink:title="Gets hints that can help the error resolution. ">
<polygon fill="white" stroke="black" points="1270,-280 1270,-310 1374,-310 1374,-280 1270,-280"/>
<text text-anchor="start" x="1278" y="-298" font-family="Helvetica,sans-Serif" font-size="10.00">aube::ErrorMessage</text>
<text text-anchor="middle" x="1322" y="-287" font-family="Helvetica,sans-Serif" font-size="10.00">::getHints</text>
</a>
</g>
</g>
<!-- Node23&#45;&gt;Node26 -->
<g id="edge9" class="edge"><title>Node23&#45;&gt;Node26</title>
<path fill="none" stroke="midnightblue" d="M1203.81,-329.695C1221.61,-324.427 1241.99,-318.394 1260.71,-312.852"/>
<polygon fill="midnightblue" stroke="midnightblue" points="1261.73,-316.2 1270.32,-310.005 1259.74,-309.488 1261.73,-316.2"/>
</g>
<!-- Node28 -->
<g id="node12" class="node"><title>Node28</title>
<g id="a_node12"><a xlink:href="classvili_1_1_node.html#a58273048e22a9ebd74e576fd8905f709" target="_top" xlink:title="vili::Node::getParent">
<polygon fill="white" stroke="black" points="1270,-623.5 1270,-642.5 1374,-642.5 1374,-623.5 1270,-623.5"/>
<text text-anchor="middle" x="1322" y="-630.5" font-family="Helvetica,sans-Serif" font-size="10.00">vili::Node::getParent</text>
</a>
</g>
</g>
<!-- Node27&#45;&gt;Node28 -->
<g id="edge11" class="edge"><title>Node27&#45;&gt;Node28</title>
<path fill="none" stroke="midnightblue" d="M1168.21,-516.678C1196.68,-538.352 1265.78,-590.957 1300.44,-617.351"/>
<polygon fill="midnightblue" stroke="midnightblue" points="1298.39,-620.189 1308.47,-623.462 1302.64,-614.619 1298.39,-620.189"/>
</g>
<!-- Node29 -->
<g id="node13" class="node"><title>Node29</title>
<g id="a_node13"><a xlink:href="classvili_1_1_node.html#ab03908ab3d62e3bfddaf9e7306fdf3b3" target="_top" xlink:title="Gets the id of the Node. ">
<polygon fill="white" stroke="black" points="1280.5,-475.5 1280.5,-494.5 1363.5,-494.5 1363.5,-475.5 1280.5,-475.5"/>
<text text-anchor="middle" x="1322" y="-482.5" font-family="Helvetica,sans-Serif" font-size="10.00">vili::Node::getId</text>
</a>
</g>
</g>
<!-- Node27&#45;&gt;Node29 -->
<g id="edge12" class="edge"><title>Node27&#45;&gt;Node29</title>
<path fill="none" stroke="midnightblue" d="M1213.85,-499.244C1232.21,-496.803 1252.33,-494.129 1270.13,-491.763"/>
<polygon fill="midnightblue" stroke="midnightblue" points="1270.85,-495.197 1280.31,-490.41 1269.93,-488.258 1270.85,-495.197"/>
</g>
<!-- Node27&#45;&gt;Node30 -->
<g id="edge13" class="edge"><title>Node27&#45;&gt;Node30</title>
<path fill="none" stroke="midnightblue" d="M1160.77,-497.404C1172.92,-475.084 1203.51,-417.791 1225,-368 1226.28,-365.036 1292.03,-185.244 1313.96,-125.249"/>
<polygon fill="midnightblue" stroke="midnightblue" points="1317.38,-126.104 1317.52,-115.51 1310.8,-123.7 1317.38,-126.104"/>
</g>
<!-- Node31 -->
<g id="node15" class="node"><title>Node31</title>
<g id="a_node15"><a xlink:href="namespacevili_1_1_functions_1_1_vector.html#a10836e1fe04648534cfc59d9de9acd72" target="_top" xlink:title="vili::Functions::Vector\l::join">
<polygon fill="white" stroke="black" points="1267,-514 1267,-544 1377,-544 1377,-514 1267,-514"/>
<text text-anchor="start" x="1275" y="-532" font-family="Helvetica,sans-Serif" font-size="10.00">vili::Functions::Vector</text>
<text text-anchor="middle" x="1322" y="-521" font-family="Helvetica,sans-Serif" font-size="10.00">::join</text>
</a>
</g>
</g>
<!-- Node27&#45;&gt;Node31 -->
<g id="edge14" class="edge"><title>Node27&#45;&gt;Node31</title>
<path fill="none" stroke="midnightblue" d="M1213.85,-514.756C1227.7,-516.598 1242.56,-518.573 1256.66,-520.448"/>
<polygon fill="midnightblue" stroke="midnightblue" points="1256.4,-523.944 1266.78,-521.792 1257.32,-517.005 1256.4,-523.944"/>
</g>
<!-- Node33 -->
<g id="node17" class="node"><title>Node33</title>
<g id="a_node17"><a xlink:href="classvili_1_1_data_node.html#a7f30e8836aedbe34f8936b5d30da5413" target="_top" xlink:title="Copies the DataNode into a new ContainerNode. ">
<polygon fill="white" stroke="black" points="779.5,-595.5 779.5,-614.5 882.5,-614.5 882.5,-595.5 779.5,-595.5"/>
<text text-anchor="middle" x="831" y="-602.5" font-family="Helvetica,sans-Serif" font-size="10.00">vili::DataNode::copy</text>
</a>
</g>
</g>
<!-- Node32&#45;&gt;Node33 -->
<g id="edge16" class="edge"><title>Node32&#45;&gt;Node33</title>
<path fill="none" stroke="midnightblue" d="M725.679,-771.46C731.034,-768.787 736.038,-765.37 740,-761 782.289,-714.362 733.331,-670.29 776,-624 777.227,-622.669 778.553,-621.431 779.958,-620.279"/>
<polygon fill="midnightblue" stroke="midnightblue" points="782.24,-622.97 788.72,-614.588 778.427,-617.1 782.24,-622.97"/>
</g>
<!-- Node37 -->
<g id="node21" class="node"><title>Node37</title>
<g id="a_node21"><a xlink:href="classvili_1_1_data_node.html#ac00a0ebfb6c627d51262dd140a5dff14" target="_top" xlink:title="Writes the DataNode to a file. ">
<polygon fill="white" stroke="black" points="780,-771.5 780,-790.5 882,-790.5 882,-771.5 780,-771.5"/>
<text text-anchor="middle" x="831" y="-778.5" font-family="Helvetica,sans-Serif" font-size="10.00">vili::DataNode::write</text>
</a>
</g>
</g>
<!-- Node32&#45;&gt;Node37 -->
<g id="edge22" class="edge"><title>Node32&#45;&gt;Node37</title>
<path fill="none" stroke="midnightblue" d="M732.753,-781C744.494,-781 757.26,-781 769.564,-781"/>
<polygon fill="midnightblue" stroke="midnightblue" points="769.758,-784.5 779.758,-781 769.758,-777.5 769.758,-784.5"/>
</g>
<!-- Node34 -->
<g id="node18" class="node"><title>Node34</title>
<g id="a_node18"><a xlink:href="classvili_1_1_node.html#a9d438d0731569aeeb9cae121796c1d41" target="_top" xlink:title="Returns the ClassType of the Node (All Types in vili::NodeType) ">
<polygon fill="white" stroke="black" points="937,-334.5 937,-353.5 1033,-353.5 1033,-334.5 937,-334.5"/>
<text text-anchor="middle" x="985" y="-341.5" font-family="Helvetica,sans-Serif" font-size="10.00">vili::Node::getType</text>
</a>
</g>
</g>
<!-- Node33&#45;&gt;Node34 -->
<g id="edge17" class="edge"><title>Node33&#45;&gt;Node34</title>
<path fill="none" stroke="midnightblue" d="M835.555,-595.317C851.715,-551.342 917.647,-372.381 922,-368 925.915,-364.06 930.549,-360.753 935.494,-357.98"/>
<polygon fill="midnightblue" stroke="midnightblue" points="937.17,-361.057 944.641,-353.545 934.116,-354.759 937.17,-361.057"/>
</g>
<!-- Node35 -->
<g id="node19" class="node"><title>Node35</title>
<g id="a_node19"><a xlink:href="classvili_1_1_data_node.html#a27dadd644c19ee34b95fa998764b225f" target="_top" xlink:title="Sets an Int value. ">
<polygon fill="white" stroke="black" points="937.5,-595.5 937.5,-614.5 1032.5,-614.5 1032.5,-595.5 937.5,-595.5"/>
<text text-anchor="middle" x="985" y="-602.5" font-family="Helvetica,sans-Serif" font-size="10.00">vili::DataNode::set</text>
</a>
</g>
</g>
<!-- Node33&#45;&gt;Node35 -->
<g id="edge18" class="edge"><title>Node33&#45;&gt;Node35</title>
<path fill="none" stroke="midnightblue" d="M882.614,-605C896.86,-605 912.451,-605 927.041,-605"/>
<polygon fill="midnightblue" stroke="midnightblue" points="927.454,-608.5 937.454,-605 927.454,-601.5 927.454,-608.5"/>
</g>
<!-- Node35&#45;&gt;Node23 -->
<g id="edge19" class="edge"><title>Node35&#45;&gt;Node23</title>
<path fill="none" stroke="midnightblue" d="M995.031,-595.408C1007.68,-581.724 1031.02,-555.529 1048,-531 1086.4,-475.532 1123.23,-405.028 1141.52,-368.472"/>
<polygon fill="midnightblue" stroke="midnightblue" points="1144.86,-369.615 1146.18,-359.102 1138.59,-366.502 1144.86,-369.615"/>
</g>
<!-- Node35&#45;&gt;Node27 -->
<g id="edge20" class="edge"><title>Node35&#45;&gt;Node27</title>
<path fill="none" stroke="midnightblue" d="M1015.04,-595.415C1025.66,-591.483 1037.62,-586.546 1048,-581 1079.77,-564.032 1113.31,-539.138 1133.82,-522.998"/>
<polygon fill="midnightblue" stroke="midnightblue" points="1136.13,-525.634 1141.78,-516.666 1131.77,-520.158 1136.13,-525.634"/>
</g>
<!-- Node36 -->
<g id="node20" class="node"><title>Node36</title>
<g id="a_node20"><a xlink:href="namespacevili_1_1_types.html#ac195a27b2ff3164cfb8aeba0222fad03" target="_top" xlink:title="Converts a DataType to its name (in a std::string) ">
<polygon fill="white" stroke="black" points="1084,-595.5 1084,-614.5 1225,-614.5 1225,-595.5 1084,-595.5"/>
<text text-anchor="middle" x="1154.5" y="-602.5" font-family="Helvetica,sans-Serif" font-size="10.00">vili::Types::dataTypeToString</text>
</a>
</g>
</g>
<!-- Node35&#45;&gt;Node36 -->
<g id="edge21" class="edge"><title>Node35&#45;&gt;Node36</title>
<path fill="none" stroke="midnightblue" d="M1032.66,-605C1045.43,-605 1059.65,-605 1073.72,-605"/>
<polygon fill="midnightblue" stroke="midnightblue" points="1073.91,-608.5 1083.91,-605 1073.91,-601.5 1073.91,-608.5"/>
</g>
<!-- Node38 -->
<g id="node22" class="node"><title>Node38</title>
<g id="a_node22"><a xlink:href="classvili_1_1_data_node.html#acb68076f90b2344cba37afd31b8b2156" target="_top" xlink:title="Gets a dumpable representation of the contained data. ">
<polygon fill="white" stroke="black" points="922,-771.5 922,-790.5 1048,-790.5 1048,-771.5 922,-771.5"/>
<text text-anchor="middle" x="985" y="-778.5" font-family="Helvetica,sans-Serif" font-size="10.00">vili::DataNode::dumpData</text>
</a>
</g>
</g>
<!-- Node37&#45;&gt;Node38 -->
<g id="edge23" class="edge"><title>Node37&#45;&gt;Node38</title>
<path fill="none" stroke="midnightblue" d="M882.192,-781C891.626,-781 901.663,-781 911.616,-781"/>
<polygon fill="midnightblue" stroke="midnightblue" points="911.93,-784.5 921.93,-781 911.93,-777.5 911.93,-784.5"/>
</g>
<!-- Node39&#45;&gt;Node34 -->
<g id="edge50" class="edge"><title>Node39&#45;&gt;Node34</title>
<path fill="none" stroke="midnightblue" d="M417.033,-294.419C530.805,-304.368 806.467,-328.475 926.524,-338.974"/>
<polygon fill="midnightblue" stroke="midnightblue" points="926.35,-342.472 936.617,-339.856 926.96,-335.498 926.35,-342.472"/>
</g>
<!-- Node40 -->
<g id="node24" class="node"><title>Node40</title>
<g id="a_node24"><a xlink:href="classvili_1_1_complex_node.html#a85a665e4380f90e3445ad71c296a42ee" target="_top" xlink:title="Removes a child Node from the ComplexNode. ">
<polygon fill="white" stroke="black" points="479.5,-133 479.5,-163 579.5,-163 579.5,-133 479.5,-133"/>
<text text-anchor="start" x="487.5" y="-151" font-family="Helvetica,sans-Serif" font-size="10.00">vili::ComplexNode::</text>
<text text-anchor="middle" x="529.5" y="-140" font-family="Helvetica,sans-Serif" font-size="10.00">removeNode</text>
</a>
</g>
</g>
<!-- Node39&#45;&gt;Node40 -->
<g id="edge25" class="edge"><title>Node39&#45;&gt;Node40</title>
<path fill="none" stroke="midnightblue" d="M376.686,-280.354C394.383,-263.675 432.067,-228.493 465,-200 476.793,-189.797 490.107,-178.815 501.488,-169.584"/>
<polygon fill="midnightblue" stroke="midnightblue" points="503.802,-172.213 509.383,-163.208 499.404,-166.767 503.802,-172.213"/>
</g>
<!-- Node44 -->
<g id="node28" class="node"><title>Node44</title>
<g id="a_node28"><a xlink:href="classvili_1_1_link_node.html#a7d237573208ae570b0711ffa537488b8" target="_top" xlink:title="Get the Node the LinkNode is pointing to. ">
<polygon fill="white" stroke="black" points="469.5,-476.5 469.5,-495.5 589.5,-495.5 589.5,-476.5 469.5,-476.5"/>
<text text-anchor="middle" x="529.5" y="-483.5" font-family="Helvetica,sans-Serif" font-size="10.00">vili::LinkNode::getTarget</text>
</a>
</g>
</g>
<!-- Node39&#45;&gt;Node44 -->
<g id="edge30" class="edge"><title>Node39&#45;&gt;Node44</title>
<path fill="none" stroke="midnightblue" d="M374.534,-299.72C400.229,-330.808 480.665,-428.125 513.904,-468.34"/>
<polygon fill="midnightblue" stroke="midnightblue" points="511.349,-470.744 520.418,-476.222 516.745,-466.284 511.349,-470.744"/>
</g>
<!-- Node39&#45;&gt;Node51 -->
<g id="edge51" class="edge"><title>Node39&#45;&gt;Node51</title>
<path fill="none" stroke="midnightblue" d="M409.684,-280.438C461.732,-269.154 551.938,-250.368 630,-238 676.867,-230.574 730.239,-224.278 770.054,-220"/>
<polygon fill="midnightblue" stroke="midnightblue" points="770.556,-223.466 780.13,-218.929 769.816,-216.505 770.556,-223.466"/>
</g>
<!-- Node41 -->
<g id="node25" class="node"><title>Node41</title>
<g id="a_node25"><a xlink:href="namespacevili_1_1_functions_1_1_vector.html#aa9f0dd6b1c4be1e3d86846944329d9f2" target="_top" xlink:title="Check if a given item is in the given std::vector. ">
<polygon fill="white" stroke="black" points="630,-67 630,-97 740,-97 740,-67 630,-67"/>
<text text-anchor="start" x="638" y="-85" font-family="Helvetica,sans-Serif" font-size="10.00">vili::Functions::Vector</text>
<text text-anchor="middle" x="685" y="-74" font-family="Helvetica,sans-Serif" font-size="10.00">::isInList</text>
</a>
</g>
</g>
<!-- Node40&#45;&gt;Node41 -->
<g id="edge26" class="edge"><title>Node40&#45;&gt;Node41</title>
<path fill="none" stroke="midnightblue" d="M565.716,-132.858C587.654,-123.426 616.071,-111.207 639.553,-101.111"/>
<polygon fill="midnightblue" stroke="midnightblue" points="641.144,-104.237 648.948,-97.0713 638.379,-97.806 641.144,-104.237"/>
</g>
<!-- Node42 -->
<g id="node26" class="node"><title>Node42</title>
<g id="a_node26"><a xlink:href="classvili_1_1_complex_node.html#a550584eb0dc76bbcb50e35182ac308cd" target="_top" xlink:title="Get all the Node Ids of the given Type contained in the ComplexNode. ">
<polygon fill="white" stroke="black" points="635,-155 635,-185 735,-185 735,-155 635,-155"/>
<text text-anchor="start" x="643" y="-173" font-family="Helvetica,sans-Serif" font-size="10.00">vili::ComplexNode::</text>
<text text-anchor="middle" x="685" y="-162" font-family="Helvetica,sans-Serif" font-size="10.00">getAll</text>
</a>
</g>
</g>
<!-- Node40&#45;&gt;Node42 -->
<g id="edge27" class="edge"><title>Node40&#45;&gt;Node42</title>
<path fill="none" stroke="midnightblue" d="M579.913,-155.082C594.226,-157.133 609.999,-159.394 624.843,-161.521"/>
<polygon fill="midnightblue" stroke="midnightblue" points="624.546,-165.015 634.942,-162.969 625.54,-158.085 624.546,-165.015"/>
</g>
<!-- Node43 -->
<g id="node27" class="node"><title>Node43</title>
<g id="a_node27"><a xlink:href="namespacevili_1_1_functions_1_1_vector.html#a9f11b4d9b535b580a613a064d18b9caa" target="_top" xlink:title="Get the index of an item in a std::vector. ">
<polygon fill="white" stroke="black" points="776,-117 776,-147 886,-147 886,-117 776,-117"/>
<text text-anchor="start" x="784" y="-135" font-family="Helvetica,sans-Serif" font-size="10.00">vili::Functions::Vector</text>
<text text-anchor="middle" x="831" y="-124" font-family="Helvetica,sans-Serif" font-size="10.00">::indexOfElement</text>
</a>
</g>
</g>
<!-- Node40&#45;&gt;Node43 -->
<g id="edge28" class="edge"><title>Node40&#45;&gt;Node43</title>
<path fill="none" stroke="midnightblue" d="M579.621,-145.376C630.395,-142.663 709.895,-138.416 765.659,-135.437"/>
<polygon fill="midnightblue" stroke="midnightblue" points="765.983,-138.925 775.782,-134.896 765.61,-131.935 765.983,-138.925"/>
</g>
<!-- Node43&#45;&gt;Node23 -->
<g id="edge29" class="edge"><title>Node43&#45;&gt;Node23</title>
<path fill="none" stroke="midnightblue" d="M886.267,-132.793C932.936,-135.942 1000.1,-146.602 1048,-180 1098.51,-215.223 1130.51,-283.19 1144.8,-319.586"/>
<polygon fill="midnightblue" stroke="midnightblue" points="1141.53,-320.855 1148.36,-328.96 1148.08,-318.369 1141.53,-320.855"/>
</g>
<!-- Node44&#45;&gt;Node21 -->
<g id="edge31" class="edge"><title>Node44&#45;&gt;Node21</title>
<path fill="none" stroke="midnightblue" d="M581.78,-495.569C586.357,-498.042 590.554,-501.135 594,-505 654.692,-573.063 577.012,-632.782 630,-707 632.317,-710.246 635.101,-713.182 638.166,-715.829"/>
<polygon fill="midnightblue" stroke="midnightblue" points="636.144,-718.687 646.262,-721.828 640.311,-713.062 636.144,-718.687"/>
</g>
<!-- Node44&#45;&gt;Node22 -->
<g id="edge32" class="edge"><title>Node44&#45;&gt;Node22</title>
<path fill="none" stroke="midnightblue" d="M580.766,-495.62C585.654,-498.076 590.2,-501.152 594,-505 634.926,-546.438 585.124,-593.877 630,-631 668.628,-662.954 726.965,-664.69 770.681,-660.073"/>
<polygon fill="midnightblue" stroke="midnightblue" points="771.099,-663.548 780.614,-658.889 770.271,-656.597 771.099,-663.548"/>
</g>
<!-- Node44&#45;&gt;Node23 -->
<g id="edge43" class="edge"><title>Node44&#45;&gt;Node23</title>
<path fill="none" stroke="midnightblue" d="M532.978,-476.304C541.092,-446.738 569.864,-357.346 630,-318 785.886,-216.007 867.397,-241.331 1048,-287 1075.78,-294.024 1104.18,-309.971 1124.51,-323.216"/>
<polygon fill="midnightblue" stroke="midnightblue" points="1122.72,-326.229 1132.98,-328.881 1126.61,-320.411 1122.72,-326.229"/>
</g>
<!-- Node44&#45;&gt;Node27 -->
<g id="edge44" class="edge"><title>Node44&#45;&gt;Node27</title>
<path fill="none" stroke="midnightblue" d="M578.518,-495.585C584.113,-498.041 589.44,-501.125 594,-505 621.87,-528.684 598.993,-559.603 630,-579 689.772,-616.392 868.132,-565.432 1048,-531 1066.51,-527.457 1086.71,-523.006 1104.44,-518.902"/>
<polygon fill="midnightblue" stroke="midnightblue" points="1105.62,-522.221 1114.56,-516.535 1104.02,-515.405 1105.62,-522.221"/>
</g>
<!-- Node44&#45;&gt;Node28 -->
<g id="edge34" class="edge"><title>Node44&#45;&gt;Node28</title>
<path fill="none" stroke="midnightblue" d="M581.275,-495.586C586.008,-498.053 590.379,-501.139 594,-505 642.681,-556.897 578.001,-612.429 630,-661 695.785,-722.448 739.981,-693 830,-693 830,-693 830,-693 986,-693 1093.18,-693 1216.67,-662.873 1279.54,-645.315"/>
<polygon fill="midnightblue" stroke="midnightblue" points="1280.8,-648.598 1289.47,-642.507 1278.89,-641.862 1280.8,-648.598"/>
</g>
<!-- Node44&#45;&gt;Node32 -->
<g id="edge33" class="edge"><title>Node44&#45;&gt;Node32</title>
<path fill="none" stroke="midnightblue" d="M582.228,-495.609C586.659,-498.079 590.7,-501.16 594,-505 668.884,-592.142 557.941,-671.507 630,-761 631.317,-762.635 632.781,-764.137 634.359,-765.516"/>
<polygon fill="midnightblue" stroke="midnightblue" points="632.816,-768.699 643.051,-771.437 636.757,-762.914 632.816,-768.699"/>
</g>
<!-- Node44&#45;&gt;Node34 -->
<g id="edge36" class="edge"><title>Node44&#45;&gt;Node34</title>
<path fill="none" stroke="midnightblue" d="M563.257,-476.494C604.572,-464.426 677.743,-442.789 740,-423 821.303,-397.157 840.574,-387.454 922,-362 927.967,-360.135 934.278,-358.228 940.499,-356.385"/>
<polygon fill="midnightblue" stroke="midnightblue" points="941.527,-359.732 950.138,-353.56 939.557,-353.014 941.527,-359.732"/>
</g>
<!-- Node45 -->
<g id="node29" class="node"><title>Node45</title>
<g id="a_node29"><a xlink:href="namespacevili_1_1_functions_1_1_string.html#a9133ec632cc286cede9c5403c5b593b2" target="_top" xlink:title="Splits a std::string using a delimited. ">
<polygon fill="white" stroke="black" points="631.5,-520 631.5,-550 738.5,-550 738.5,-520 631.5,-520"/>
<text text-anchor="start" x="639.5" y="-538" font-family="Helvetica,sans-Serif" font-size="10.00">vili::Functions::String</text>
<text text-anchor="middle" x="685" y="-527" font-family="Helvetica,sans-Serif" font-size="10.00">::split</text>
</a>
</g>
</g>
<!-- Node44&#45;&gt;Node45 -->
<g id="edge35" class="edge"><title>Node44&#45;&gt;Node45</title>
<path fill="none" stroke="midnightblue" d="M563.19,-495.57C573.106,-498.53 584.016,-501.843 594,-505 605.655,-508.685 618.117,-512.755 629.938,-516.677"/>
<polygon fill="midnightblue" stroke="midnightblue" points="629.092,-520.084 639.685,-519.925 631.305,-513.443 629.092,-520.084"/>
</g>
<!-- Node46 -->
<g id="node30" class="node"><title>Node46</title>
<g id="a_node30"><a xlink:href="classvili_1_1_complex_node.html#aa9274f5ba9c9dbe1a0c90d54380a003a" target="_top" xlink:title="Get a ComplexNode contained in the ComplexNode. ">
<polygon fill="white" stroke="black" points="935,-492 935,-522 1035,-522 1035,-492 935,-492"/>
<text text-anchor="start" x="943" y="-510" font-family="Helvetica,sans-Serif" font-size="10.00">vili::ComplexNode::</text>
<text text-anchor="middle" x="985" y="-499" font-family="Helvetica,sans-Serif" font-size="10.00">getComplexNode</text>
</a>
</g>
</g>
<!-- Node44&#45;&gt;Node46 -->
<g id="edge37" class="edge"><title>Node44&#45;&gt;Node46</title>
<path fill="none" stroke="midnightblue" d="M576.398,-495.524C582.653,-497.995 588.726,-501.1 594,-505 617.192,-522.151 604.569,-545.39 630,-559 673.104,-582.069 691.38,-564.123 740,-559 758.206,-557.082 858.79,-535.016 925.001,-520.252"/>
<polygon fill="midnightblue" stroke="midnightblue" points="925.913,-523.635 934.91,-518.04 924.388,-516.803 925.913,-523.635"/>
</g>
<!-- Node47 -->
<g id="node31" class="node"><title>Node47</title>
<g id="a_node31"><a xlink:href="classvili_1_1_complex_node.html#abfafad10954568b678b208b7fefb074a" target="_top" xlink:title="Get a ArrayNode contained in the ComplexNode. ">
<polygon fill="white" stroke="black" points="935,-411 935,-441 1035,-441 1035,-411 935,-411"/>
<text text-anchor="start" x="943" y="-429" font-family="Helvetica,sans-Serif" font-size="10.00">vili::ComplexNode::</text>
<text text-anchor="middle" x="985" y="-418" font-family="Helvetica,sans-Serif" font-size="10.00">getArrayNode</text>
</a>
</g>
</g>
<!-- Node44&#45;&gt;Node47 -->
<g id="edge40" class="edge"><title>Node44&#45;&gt;Node47</title>
<path fill="none" stroke="midnightblue" d="M536.182,-476.344C549.403,-454.962 584.589,-404.009 630,-385 734.439,-341.281 870.458,-381.018 939.538,-407.235"/>
<polygon fill="midnightblue" stroke="midnightblue" points="938.644,-410.642 949.233,-410.993 941.174,-404.115 938.644,-410.642"/>
</g>
<!-- Node48 -->
<g id="node32" class="node"><title>Node48</title>
<g id="a_node32"><a xlink:href="namespacevili_1_1_functions_1_1_string.html#a47cfebfa3355133cfbf43f9f2e435bf4" target="_top" xlink:title="Get if the string is an integer. ">
<polygon fill="white" stroke="black" points="631.5,-471 631.5,-501 738.5,-501 738.5,-471 631.5,-471"/>
<text text-anchor="start" x="639.5" y="-489" font-family="Helvetica,sans-Serif" font-size="10.00">vili::Functions::String</text>
<text text-anchor="middle" x="685" y="-478" font-family="Helvetica,sans-Serif" font-size="10.00">::isStringInt</text>
</a>
</g>
</g>
<!-- Node44&#45;&gt;Node48 -->
<g id="edge45" class="edge"><title>Node44&#45;&gt;Node48</title>
<path fill="none" stroke="midnightblue" d="M589.847,-486C600.097,-486 610.785,-486 621.125,-486"/>
<polygon fill="midnightblue" stroke="midnightblue" points="621.32,-489.5 631.32,-486 621.32,-482.5 621.32,-489.5"/>
</g>
<!-- Node49 -->
<g id="node33" class="node"><title>Node49</title>
<g id="a_node33"><a xlink:href="classvili_1_1_array_node.html#a550ab855eda9d07c47477cf7fddf2c4b" target="_top" xlink:title="Gets the size of the ArrayNode (Amount of contained Nodes) ">
<polygon fill="white" stroke="black" points="633.5,-394.5 633.5,-413.5 736.5,-413.5 736.5,-394.5 633.5,-394.5"/>
<text text-anchor="middle" x="685" y="-401.5" font-family="Helvetica,sans-Serif" font-size="10.00">vili::ArrayNode::size</text>
</a>
</g>
</g>
<!-- Node44&#45;&gt;Node49 -->
<g id="edge46" class="edge"><title>Node44&#45;&gt;Node49</title>
<path fill="none" stroke="midnightblue" d="M545.719,-476.425C564.993,-464.464 599.385,-443.667 630,-428 636.844,-424.498 644.308,-420.989 651.443,-417.779"/>
<polygon fill="midnightblue" stroke="midnightblue" points="653.145,-420.853 660.88,-413.613 650.318,-414.45 653.145,-420.853"/>
</g>
<!-- Node50 -->
<g id="node34" class="node"><title>Node50</title>
<g id="a_node34"><a xlink:href="classvili_1_1_array_node.html#aba67c18c26c9a7c78973cae023e6f374" target="_top" xlink:title="Access a contained DataNode. ">
<polygon fill="white" stroke="black" points="936,-296.5 936,-315.5 1034,-315.5 1034,-296.5 936,-296.5"/>
<text text-anchor="middle" x="985" y="-303.5" font-family="Helvetica,sans-Serif" font-size="10.00">vili::ArrayNode::get</text>
</a>
</g>
</g>
<!-- Node44&#45;&gt;Node50 -->
<g id="edge47" class="edge"><title>Node44&#45;&gt;Node50</title>
<path fill="none" stroke="midnightblue" d="M535.12,-476.228C547.031,-452.221 581.297,-390.258 630,-362 723.038,-308.019 851.845,-301.406 925.689,-302.804"/>
<polygon fill="midnightblue" stroke="midnightblue" points="925.651,-306.304 935.734,-303.05 925.823,-299.306 925.651,-306.304"/>
</g>
<!-- Node46&#45;&gt;Node23 -->
<g id="edge38" class="edge"><title>Node46&#45;&gt;Node23</title>
<path fill="none" stroke="midnightblue" d="M1002.76,-491.956C1015.35,-480.577 1032.93,-464.489 1048,-450 1077.34,-421.797 1110.31,-388.391 1131.45,-366.727"/>
<polygon fill="midnightblue" stroke="midnightblue" points="1134.21,-368.913 1138.68,-359.308 1129.2,-364.028 1134.21,-368.913"/>
</g>
<!-- Node46&#45;&gt;Node27 -->
<g id="edge39" class="edge"><title>Node46&#45;&gt;Node27</title>
<path fill="none" stroke="midnightblue" d="M1035.35,-507C1050.93,-507 1068.44,-507 1085.11,-507"/>
<polygon fill="midnightblue" stroke="midnightblue" points="1085.35,-510.5 1095.35,-507 1085.35,-503.5 1085.35,-510.5"/>
</g>
<!-- Node47&#45;&gt;Node23 -->
<g id="edge41" class="edge"><title>Node47&#45;&gt;Node23</title>
<path fill="none" stroke="midnightblue" d="M1017.24,-410.936C1027.09,-406.174 1038.01,-400.88 1048,-396 1069.86,-385.324 1094.22,-373.324 1114.02,-363.543"/>
<polygon fill="midnightblue" stroke="midnightblue" points="1115.64,-366.645 1123.06,-359.077 1112.54,-360.37 1115.64,-366.645"/>
</g>
<!-- Node47&#45;&gt;Node27 -->
<g id="edge42" class="edge"><title>Node47&#45;&gt;Node27</title>
<path fill="none" stroke="midnightblue" d="M1017.11,-441.046C1047.85,-455.908 1094.48,-478.46 1124.47,-492.962"/>
<polygon fill="midnightblue" stroke="midnightblue" points="1123.05,-496.165 1133.58,-497.368 1126.1,-489.863 1123.05,-496.165"/>
</g>
<!-- Node50&#45;&gt;Node23 -->
<g id="edge48" class="edge"><title>Node50&#45;&gt;Node23</title>
<path fill="none" stroke="midnightblue" d="M1028.27,-315.589C1048.61,-320.203 1073.31,-325.808 1095.39,-330.816"/>
<polygon fill="midnightblue" stroke="midnightblue" points="1094.79,-334.27 1105.32,-333.069 1096.34,-327.444 1094.79,-334.27"/>
</g>
<!-- Node50&#45;&gt;Node27 -->
<g id="edge49" class="edge"><title>Node50&#45;&gt;Node27</title>
<path fill="none" stroke="midnightblue" d="M1031.68,-315.622C1037.53,-318.074 1043.15,-321.148 1048,-325 1076.66,-347.774 1125.13,-446.487 1144.81,-488.24"/>
<polygon fill="midnightblue" stroke="midnightblue" points="1141.65,-489.757 1149.06,-497.331 1147.99,-486.79 1141.65,-489.757"/>
</g>
<!-- Node51&#45;&gt;Node23 -->
<g id="edge53" class="edge"><title>Node51&#45;&gt;Node23</title>
<path fill="none" stroke="midnightblue" d="M857.295,-204.457C899.421,-190.222 985.491,-168.307 1048,-200 1097.56,-225.129 1129.45,-285.697 1144.11,-319.734"/>
<polygon fill="midnightblue" stroke="midnightblue" points="1140.88,-321.085 1147.95,-328.979 1147.35,-318.401 1140.88,-321.085"/>
</g>
<!-- Node51&#45;&gt;Node27 -->
<g id="edge54" class="edge"><title>Node51&#45;&gt;Node27</title>
<path fill="none" stroke="midnightblue" d="M881.5,-219.236C929.431,-226.706 1001.49,-244.597 1048,-287 1077.11,-313.542 1067.19,-332.373 1084,-368 1104.52,-411.488 1130.16,-461.797 1143.84,-488.35"/>
<polygon fill="midnightblue" stroke="midnightblue" points="1140.76,-490.021 1148.46,-497.3 1146.98,-486.809 1140.76,-490.021"/>
</g>
<!-- Node51&#45;&gt;Node34 -->
<g id="edge52" class="edge"><title>Node51&#45;&gt;Node34</title>
<path fill="none" stroke="midnightblue" d="M837.131,-223.628C849.072,-245.112 880.865,-297.253 922,-325 924.936,-326.98 928.086,-328.761 931.353,-330.36"/>
<polygon fill="midnightblue" stroke="midnightblue" points="930.223,-333.684 940.793,-334.407 932.981,-327.25 930.223,-333.684"/>
</g>
<!-- Node52&#45;&gt;Node20 -->
<g id="edge56" class="edge"><title>Node52&#45;&gt;Node20</title>
<path fill="none" stroke="midnightblue" d="M381.162,-639.684C409.355,-658.305 471.325,-699.236 505.223,-721.625"/>
<polygon fill="midnightblue" stroke="midnightblue" points="503.715,-724.824 513.988,-727.415 507.572,-718.983 503.715,-724.824"/>
</g>
<!-- Node53&#45;&gt;Node19 -->
<g id="edge59" class="edge"><title>Node53&#45;&gt;Node19</title>
<path fill="none" stroke="midnightblue" d="M407.379,-495.589C428.853,-500.626 455.36,-506.844 478.097,-512.177"/>
<polygon fill="midnightblue" stroke="midnightblue" points="477.379,-515.604 487.915,-514.48 478.978,-508.789 477.379,-515.604"/>
</g>
</g>
</svg>
