<?xml version="1.0" encoding="UTF-8" standalone="no"?>
<!DOCTYPE svg PUBLIC "-//W3C//DTD SVG 1.1//EN"
 "http://www.w3.org/Graphics/SVG/1.1/DTD/svg11.dtd">
<!-- Generated by graphviz version 2.38.0 (20140413.2041)
 -->
<!-- Title: obe::System::Path::loadResource Pages: 1 -->
<svg width="413pt" height="137pt"
 viewBox="0.00 0.00 413.00 137.00" xmlns="http://www.w3.org/2000/svg" xmlns:xlink="http://www.w3.org/1999/xlink">
<g id="graph0" class="graph" transform="scale(1 1) rotate(0) translate(4 133)">
<title>obe::System::Path::loadResource</title>
<!-- Node92 -->
<g id="node1" class="node"><title>Node92</title>
<polygon fill="#bfbfbf" stroke="black" points="0,-71.5 0,-101.5 104,-101.5 104,-71.5 0,-71.5"/>
<text text-anchor="start" x="8" y="-89.5" font-family="Helvetica,sans-Serif" font-size="10.00">obe::System::Path::</text>
<text text-anchor="middle" x="52" y="-78.5" font-family="Helvetica,sans-Serif" font-size="10.00">loadResource</text>
</g>
<!-- Node93 -->
<g id="node2" class="node"><title>Node93</title>
<g id="a_node2"><a xlink:href="namespaceobe_1_1_utils_1_1_file.html#a1095626f5495edc7b8692073dd25cceb" target="_top" xlink:title="Check if the file at the given path exists. ">
<polygon fill="white" stroke="black" points="140,-99 140,-118 265,-118 265,-99 140,-99"/>
<text text-anchor="middle" x="202.5" y="-106" font-family="Helvetica,sans-Serif" font-size="10.00">obe::Utils::File::fileExists</text>
</a>
</g>
</g>
<!-- Node92&#45;&gt;Node93 -->
<g id="edge1" class="edge"><title>Node92&#45;&gt;Node93</title>
<path fill="none" stroke="midnightblue" d="M104.105,-94.0712C112.367,-95.2951 121.053,-96.5819 129.695,-97.8622"/>
<polygon fill="midnightblue" stroke="midnightblue" points="129.386,-101.355 139.791,-99.3579 130.412,-94.4301 129.386,-101.355"/>
</g>
<!-- Node94 -->
<g id="node3" class="node"><title>Node94</title>
<g id="a_node3"><a xlink:href="classaube_1_1_error_handler.html#a7c8d44a3e7f019646d289950abc5301b" target="_top" xlink:title="Raises an Error loaded in the Aube Error Database (AED) ">
<polygon fill="white" stroke="black" points="153.5,-49.5 153.5,-79.5 251.5,-79.5 251.5,-49.5 153.5,-49.5"/>
<text text-anchor="start" x="161.5" y="-67.5" font-family="Helvetica,sans-Serif" font-size="10.00">aube::ErrorHandler</text>
<text text-anchor="middle" x="202.5" y="-56.5" font-family="Helvetica,sans-Serif" font-size="10.00">::Raise</text>
</a>
</g>
</g>
<!-- Node92&#45;&gt;Node94 -->
<g id="edge2" class="edge"><title>Node92&#45;&gt;Node94</title>
<path fill="none" stroke="midnightblue" d="M104.105,-78.9288C116.683,-77.0654 130.246,-75.0561 143.138,-73.1462"/>
<polygon fill="midnightblue" stroke="midnightblue" points="143.923,-76.5682 153.302,-71.6404 142.897,-69.6438 143.923,-76.5682"/>
</g>
<!-- Node95 -->
<g id="node4" class="node"><title>Node95</title>
<g id="a_node4"><a xlink:href="classaube_1_1_error_message.html#a9184cc96589578f434351c105b0cd5f7" target="_top" xlink:title="Gets the location of the error in the code. ">
<polygon fill="white" stroke="black" points="301,-98.5 301,-128.5 405,-128.5 405,-98.5 301,-98.5"/>
<text text-anchor="start" x="309" y="-116.5" font-family="Helvetica,sans-Serif" font-size="10.00">aube::ErrorMessage</text>
<text text-anchor="middle" x="353" y="-105.5" font-family="Helvetica,sans-Serif" font-size="10.00">::getLocation</text>
</a>
</g>
</g>
<!-- Node94&#45;&gt;Node95 -->
<g id="edge3" class="edge"><title>Node94&#45;&gt;Node95</title>
<path fill="none" stroke="midnightblue" d="M249.267,-79.6014C264.299,-84.5615 281.167,-90.1274 296.821,-95.2929"/>
<polygon fill="midnightblue" stroke="midnightblue" points="295.791,-98.6386 306.385,-98.4484 297.985,-91.9911 295.791,-98.6386"/>
</g>
<!-- Node96 -->
<g id="node5" class="node"><title>Node96</title>
<g id="a_node5"><a xlink:href="classaube_1_1_error_message.html#a07927cb3e2d0712c459cc9e2b5f52696" target="_top" xlink:title="Gets the message displayed by the ErrorMessage when raised. ">
<polygon fill="white" stroke="black" points="301,-49.5 301,-79.5 405,-79.5 405,-49.5 301,-49.5"/>
<text text-anchor="start" x="309" y="-67.5" font-family="Helvetica,sans-Serif" font-size="10.00">aube::ErrorMessage</text>
<text text-anchor="middle" x="353" y="-56.5" font-family="Helvetica,sans-Serif" font-size="10.00">::getMessage</text>
</a>
</g>
</g>
<!-- Node94&#45;&gt;Node96 -->
<g id="edge4" class="edge"><title>Node94&#45;&gt;Node96</title>
<path fill="none" stroke="midnightblue" d="M251.714,-64.5C264.143,-64.5 277.687,-64.5 290.686,-64.5"/>
<polygon fill="midnightblue" stroke="midnightblue" points="290.961,-68.0001 300.961,-64.5 290.961,-61.0001 290.961,-68.0001"/>
</g>
<!-- Node97 -->
<g id="node6" class="node"><title>Node97</title>
<g id="a_node6"><a xlink:href="classaube_1_1_error_message.html#a77c2f9b7e93542c958173b52da267989" target="_top" xlink:title="Gets hints that can help the error resolution. ">
<polygon fill="white" stroke="black" points="301,-0.5 301,-30.5 405,-30.5 405,-0.5 301,-0.5"/>
<text text-anchor="start" x="309" y="-18.5" font-family="Helvetica,sans-Serif" font-size="10.00">aube::ErrorMessage</text>
<text text-anchor="middle" x="353" y="-7.5" font-family="Helvetica,sans-Serif" font-size="10.00">::getHints</text>
</a>
</g>
</g>
<!-- Node94&#45;&gt;Node97 -->
<g id="edge5" class="edge"><title>Node94&#45;&gt;Node97</title>
<path fill="none" stroke="midnightblue" d="M249.267,-49.3986C264.299,-44.4385 281.167,-38.8726 296.821,-33.7071"/>
<polygon fill="midnightblue" stroke="midnightblue" points="297.985,-37.0089 306.385,-30.5516 295.791,-30.3614 297.985,-37.0089"/>
</g>
</g>
</svg>
