<?xml version="1.0" encoding="UTF-8" standalone="no"?>
<!DOCTYPE svg PUBLIC "-//W3C//DTD SVG 1.1//EN"
 "http://www.w3.org/Graphics/SVG/1.1/DTD/svg11.dtd">
<!-- Generated by graphviz version 2.38.0 (20140413.2041)
 -->
<!-- Title: obe::Scene::Scene::dump Pages: 1 -->
<svg width="682pt" height="53pt"
 viewBox="0.00 0.00 682.00 52.50" xmlns="http://www.w3.org/2000/svg" xmlns:xlink="http://www.w3.org/1999/xlink">
<g id="graph0" class="graph" transform="scale(1 1) rotate(0) translate(4 48.5)">
<title>obe::Scene::Scene::dump</title>
<!-- Node256 -->
<g id="node1" class="node"><title>Node256</title>
<polygon fill="#bfbfbf" stroke="black" points="0,-6 0,-25 130,-25 130,-6 0,-6"/>
<text text-anchor="middle" x="65" y="-13" font-family="Helvetica,sans-Serif" font-size="10.00">obe::Scene::Scene::dump</text>
</g>
<!-- Node257 -->
<g id="node2" class="node"><title>Node257</title>
<g id="a_node2"><a xlink:href="namespaceobe_1_1_editor.html#ac84a3ef3300fd334ad4e8adbfa050578" target="_top" xlink:title="obe::Editor::connectSave\lActions">
<polygon fill="white" stroke="black" points="166,-0.5 166,-30.5 291,-30.5 291,-0.5 166,-0.5"/>
<text text-anchor="start" x="174" y="-18.5" font-family="Helvetica,sans-Serif" font-size="10.00">obe::Editor::connectSave</text>
<text text-anchor="middle" x="228.5" y="-7.5" font-family="Helvetica,sans-Serif" font-size="10.00">Actions</text>
</a>
</g>
</g>
<!-- Node256&#45;&gt;Node257 -->
<g id="edge1" class="edge"><title>Node256&#45;&gt;Node257</title>
<path fill="none" stroke="midnightblue" d="M140.534,-15.5C148.987,-15.5 157.532,-15.5 165.795,-15.5"/>
<polygon fill="midnightblue" stroke="midnightblue" points="140.293,-12.0001 130.293,-15.5 140.293,-19.0001 140.293,-12.0001"/>
</g>
<!-- Node258 -->
<g id="node3" class="node"><title>Node258</title>
<g id="a_node3"><a xlink:href="namespaceobe_1_1_editor.html#a9009207671e71dccb68a31ea2362e9ef" target="_top" xlink:title="Starts the map edition. ">
<polygon fill="white" stroke="black" points="327,-6 327,-25 431,-25 431,-6 327,-6"/>
<text text-anchor="middle" x="379" y="-13" font-family="Helvetica,sans-Serif" font-size="10.00">obe::Editor::editMap</text>
</a>
</g>
</g>
<!-- Node257&#45;&gt;Node258 -->
<g id="edge2" class="edge"><title>Node257&#45;&gt;Node258</title>
<path fill="none" stroke="midnightblue" d="M301.214,-15.5C309.797,-15.5 318.424,-15.5 326.638,-15.5"/>
<polygon fill="midnightblue" stroke="midnightblue" points="301.187,-12.0001 291.187,-15.5 301.187,-19.0001 301.187,-12.0001"/>
</g>
<!-- Node259 -->
<g id="node4" class="node"><title>Node259</title>
<g id="a_node4"><a xlink:href="namespaceobe_1_1_modes.html#a6a8b08eee511d4895c4da96d4ba223a6" target="_top" xlink:title="Starts the development Menu where you can starts other menus from. ">
<polygon fill="white" stroke="black" points="467,-25 467,-44 600,-44 600,-25 467,-25"/>
<text text-anchor="middle" x="533.5" y="-32" font-family="Helvetica,sans-Serif" font-size="10.00">obe::Modes::startDevMenu</text>
</a>
</g>
</g>
<!-- Node258&#45;&gt;Node259 -->
<g id="edge3" class="edge"><title>Node258&#45;&gt;Node259</title>
<path fill="none" stroke="midnightblue" d="M441.292,-23.1364C449.688,-24.1824 458.336,-25.2599 466.806,-26.3152"/>
<polygon fill="midnightblue" stroke="midnightblue" points="441.561,-19.6429 431.205,-21.8796 440.695,-26.5892 441.561,-19.6429"/>
</g>
<!-- Node260 -->
<g id="node5" class="node"><title>Node260</title>
<g id="a_node5"><a xlink:href="_ob_engine_8cpp.html#a3c04138a5bfe5d72780bb7e82a18e627" target="_top" xlink:title="main">
<polygon fill="white" stroke="black" points="636,-6 636,-25 674,-25 674,-6 636,-6"/>
<text text-anchor="middle" x="655" y="-13" font-family="Helvetica,sans-Serif" font-size="10.00">main</text>
</a>
</g>
</g>
<!-- Node258&#45;&gt;Node260 -->
<g id="edge5" class="edge"><title>Node258&#45;&gt;Node260</title>
<path fill="none" stroke="midnightblue" d="M441.356,-15.5C503.863,-15.5 596.971,-15.5 635.885,-15.5"/>
<polygon fill="midnightblue" stroke="midnightblue" points="441.216,-12.0001 431.216,-15.5 441.216,-19.0001 441.216,-12.0001"/>
</g>
<!-- Node259&#45;&gt;Node260 -->
<g id="edge4" class="edge"><title>Node259&#45;&gt;Node260</title>
<path fill="none" stroke="midnightblue" d="M604.822,-23.3192C616.345,-21.4869 627.327,-19.7409 635.978,-18.3654"/>
<polygon fill="midnightblue" stroke="midnightblue" points="603.926,-19.9174 594.6,-24.9443 605.026,-26.8306 603.926,-19.9174"/>
</g>
</g>
</svg>
