<?xml version="1.0" encoding="UTF-8" standalone="no"?>
<!DOCTYPE svg PUBLIC "-//W3C//DTD SVG 1.1//EN"
 "http://www.w3.org/Graphics/SVG/1.1/DTD/svg11.dtd">
<!-- Generated by graphviz version 2.38.0 (20140413.2041)
 -->
<!-- Title: E:/Dev/ObEngine/Git/include/Input Pages: 1 -->
<svg width="149pt" height="295pt"
 viewBox="0.00 0.00 148.69 295.00" xmlns="http://www.w3.org/2000/svg" xmlns:xlink="http://www.w3.org/1999/xlink">
<g id="graph0" class="graph" transform="scale(1 1) rotate(0) translate(4 291)">
<title>E:/Dev/ObEngine/Git/include/Input</title>
<g id="clust1" class="cluster"><title>clusterdir_0a1a91c36bfdfd5095813f1c67b0e889</title>
<g id="a_clust1"><a xlink:href="dir_0a1a91c36bfdfd5095813f1c67b0e889.html" target="_top" xlink:title="include">
<polygon fill="#ddddee" stroke="black" points="53,-208 53,-279 123,-279 123,-208 53,-208"/>
<text text-anchor="middle" x="88" y="-267" font-family="Helvetica,sans-Serif" font-size="10.00">include</text>
</a>
</g>
</g>
<!-- dir_91254fc473f277d90cae1509ec085ea1 -->
<g id="node1" class="node"><title>dir_91254fc473f277d90cae1509ec085ea1</title>
<g id="a_node1"><a xlink:href="dir_91254fc473f277d90cae1509ec085ea1.html" target="_top" xlink:title="Input">
<polygon fill="#eeeeff" stroke="black" points="115,-252 61,-252 61,-216 115,-216 115,-252"/>
<text text-anchor="middle" x="88" y="-231.5" font-family="Helvetica,sans-Serif" font-size="10.00">Input</text>
</a>
</g>
</g>
<!-- dir_de4c5433647090b39823efd6f91fcf21 -->
<g id="node2" class="node"><title>dir_de4c5433647090b39823efd6f91fcf21</title>
<g id="a_node2"><a xlink:href="dir_de4c5433647090b39823efd6f91fcf21.html" target="_top" xlink:title="Time">
<polygon fill="white" stroke="black" points="54,-108 0,-108 0,-72 54,-72 54,-108"/>
<text text-anchor="middle" x="27" y="-87.5" font-family="Helvetica,sans-Serif" font-size="10.00">Time</text>
</a>
</g>
</g>
<!-- dir_91254fc473f277d90cae1509ec085ea1&#45;&gt;dir_de4c5433647090b39823efd6f91fcf21 -->
<g id="edge4" class="edge"><title>dir_91254fc473f277d90cae1509ec085ea1&#45;&gt;dir_de4c5433647090b39823efd6f91fcf21</title>
<path fill="none" stroke="black" d="M60.9901,-218.074C47.4948,-209.005 32.4801,-196.068 25,-180 16.0577,-160.791 17.2666,-136.632 20.3188,-118.333"/>
<polygon fill="black" stroke="black" points="23.793,-118.803 22.266,-108.318 16.9217,-117.467 23.793,-118.803"/>
<g id="a_edge4&#45;headlabel"><a xlink:href="dir_000019_000026.html" target="_top" xlink:title="1">
<text text-anchor="middle" x="25.8941" y="-120.373" font-family="Helvetica,sans-Serif" font-size="10.00">1</text>
</a>
</g>
</g>
<!-- dir_26b38e12a45010c0645109de49e4bdba -->
<g id="node3" class="node"><title>dir_26b38e12a45010c0645109de49e4bdba</title>
<g id="a_node3"><a xlink:href="dir_26b38e12a45010c0645109de49e4bdba.html" target="_top" xlink:title="Types">
<polygon fill="white" stroke="black" points="126,-108 72,-108 72,-72 126,-72 126,-108"/>
<text text-anchor="middle" x="99" y="-87.5" font-family="Helvetica,sans-Serif" font-size="10.00">Types</text>
</a>
</g>
</g>
<!-- dir_91254fc473f277d90cae1509ec085ea1&#45;&gt;dir_26b38e12a45010c0645109de49e4bdba -->
<g id="edge5" class="edge"><title>dir_91254fc473f277d90cae1509ec085ea1&#45;&gt;dir_26b38e12a45010c0645109de49e4bdba</title>
<path fill="none" stroke="black" d="M91.5552,-215.899C93.5422,-205.557 95.845,-192.078 97,-180 98.9738,-159.36 99.4281,-135.911 99.4134,-118.265"/>
<polygon fill="black" stroke="black" points="102.913,-118.084 99.3531,-108.105 95.9126,-118.126 102.913,-118.084"/>
<g id="a_edge5&#45;headlabel"><a xlink:href="dir_000019_000029.html" target="_top" xlink:title="1">
<text text-anchor="middle" x="105.773" y="-119.162" font-family="Helvetica,sans-Serif" font-size="10.00">1</text>
</a>
</g>
</g>
<!-- dir_1c1adf6a079c2fa2f8269b32ca49b342 -->
<g id="node4" class="node"><title>dir_1c1adf6a079c2fa2f8269b32ca49b342</title>
<g id="a_node4"><a xlink:href="dir_1c1adf6a079c2fa2f8269b32ca49b342.html" target="_top" xlink:title="extlibs">
<polygon fill="white" stroke="red" points="117,-36 63,-36 63,-0 117,-0 117,-36"/>
<text text-anchor="middle" x="90" y="-15.5" font-family="Helvetica,sans-Serif" font-size="10.00">extlibs</text>
</a>
</g>
</g>
<!-- dir_91254fc473f277d90cae1509ec085ea1&#45;&gt;dir_1c1adf6a079c2fa2f8269b32ca49b342 -->
<g id="edge6" class="edge"><title>dir_91254fc473f277d90cae1509ec085ea1&#45;&gt;dir_1c1adf6a079c2fa2f8269b32ca49b342</title>
<path fill="none" stroke="black" d="M100.181,-215.833C119.679,-186.127 153.872,-123.386 135,-72 131.216,-61.6962 124.442,-52.0249 117.28,-43.837"/>
<polygon fill="black" stroke="black" points="119.769,-41.3751 110.379,-36.469 114.66,-46.1603 119.769,-41.3751"/>
<g id="a_edge6&#45;headlabel"><a xlink:href="dir_000019_000001.html" target="_top" xlink:title="1">
<text text-anchor="middle" x="124.299" y="-39.5577" font-family="Helvetica,sans-Serif" font-size="10.00">1</text>
</a>
</g>
</g>
<!-- dir_384823e3dc1eb558aac2203b5e206c0d -->
<g id="node5" class="node"><title>dir_384823e3dc1eb558aac2203b5e206c0d</title>
<g id="a_node5"><a xlink:href="dir_384823e3dc1eb558aac2203b5e206c0d.html" target="_top" xlink:title="Triggers">
<polygon fill="white" stroke="black" points="88,-180 34,-180 34,-144 88,-144 88,-180"/>
<text text-anchor="middle" x="61" y="-159.5" font-family="Helvetica,sans-Serif" font-size="10.00">Triggers</text>
</a>
</g>
</g>
<!-- dir_91254fc473f277d90cae1509ec085ea1&#45;&gt;dir_384823e3dc1eb558aac2203b5e206c0d -->
<g id="edge7" class="edge"><title>dir_91254fc473f277d90cae1509ec085ea1&#45;&gt;dir_384823e3dc1eb558aac2203b5e206c0d</title>
<path fill="none" stroke="black" d="M81.3258,-215.697C78.2851,-207.813 74.6173,-198.304 71.2393,-189.546"/>
<polygon fill="black" stroke="black" points="74.4617,-188.175 67.5974,-180.104 67.9307,-190.694 74.4617,-188.175"/>
<g id="a_edge7&#45;headlabel"><a xlink:href="dir_000019_000028.html" target="_top" xlink:title="2">
<text text-anchor="middle" x="78.4043" y="-188.007" font-family="Helvetica,sans-Serif" font-size="10.00">2</text>
</a>
</g>
</g>
<!-- dir_de4c5433647090b39823efd6f91fcf21&#45;&gt;dir_1c1adf6a079c2fa2f8269b32ca49b342 -->
<g id="edge1" class="edge"><title>dir_de4c5433647090b39823efd6f91fcf21&#45;&gt;dir_1c1adf6a079c2fa2f8269b32ca49b342</title>
<path fill="none" stroke="black" d="M42.573,-71.6966C50.2022,-63.2198 59.5228,-52.8636 67.8757,-43.5826"/>
<polygon fill="black" stroke="black" points="70.518,-45.8787 74.6061,-36.1043 65.3149,-41.1959 70.518,-45.8787"/>
<g id="a_edge1&#45;headlabel"><a xlink:href="dir_000026_000001.html" target="_top" xlink:title="1">
<text text-anchor="middle" x="70.2237" y="-47.9499" font-family="Helvetica,sans-Serif" font-size="10.00">1</text>
</a>
</g>
</g>
<!-- dir_384823e3dc1eb558aac2203b5e206c0d&#45;&gt;dir_de4c5433647090b39823efd6f91fcf21 -->
<g id="edge2" class="edge"><title>dir_384823e3dc1eb558aac2203b5e206c0d&#45;&gt;dir_de4c5433647090b39823efd6f91fcf21</title>
<path fill="none" stroke="black" d="M52.5955,-143.697C48.7252,-135.728 44.0483,-126.1 39.7569,-117.264"/>
<polygon fill="black" stroke="black" points="42.8252,-115.57 35.3078,-108.104 36.5286,-118.629 42.8252,-115.57"/>
<g id="a_edge2&#45;headlabel"><a xlink:href="dir_000028_000026.html" target="_top" xlink:title="2">
<text text-anchor="middle" x="46.9496" y="-115.063" font-family="Helvetica,sans-Serif" font-size="10.00">2</text>
</a>
</g>
</g>
<!-- dir_384823e3dc1eb558aac2203b5e206c0d&#45;&gt;dir_26b38e12a45010c0645109de49e4bdba -->
<g id="edge3" class="edge"><title>dir_384823e3dc1eb558aac2203b5e206c0d&#45;&gt;dir_26b38e12a45010c0645109de49e4bdba</title>
<path fill="none" stroke="black" d="M70.3933,-143.697C74.7649,-135.644 80.0573,-125.894 84.8953,-116.982"/>
<polygon fill="black" stroke="black" points="88.0198,-118.563 89.7148,-108.104 81.8678,-115.223 88.0198,-118.563"/>
<g id="a_edge3&#45;headlabel"><a xlink:href="dir_000028_000029.html" target="_top" xlink:title="1">
<text text-anchor="middle" x="88.8002" y="-120.576" font-family="Helvetica,sans-Serif" font-size="10.00">1</text>
</a>
</g>
</g>
</g>
</svg>
