<?xml version="1.0" encoding="UTF-8" standalone="no"?>
<!DOCTYPE svg PUBLIC "-//W3C//DTD SVG 1.1//EN"
 "http://www.w3.org/Graphics/SVG/1.1/DTD/svg11.dtd">
<!-- Generated by graphviz version 2.38.0 (20140413.2041)
 -->
<!-- Title: _tinydir_file_cmp Pages: 1 -->
<svg width="381pt" height="28pt"
 viewBox="0.00 0.00 381.00 28.00" xmlns="http://www.w3.org/2000/svg" xmlns:xlink="http://www.w3.org/1999/xlink">
<g id="graph0" class="graph" transform="scale(1 1) rotate(0) translate(4 24)">
<title>_tinydir_file_cmp</title>
<!-- Node1 -->
<g id="node1" class="node"><title>Node1</title>
<polygon fill="#bfbfbf" stroke="black" points="0,-0.5 0,-19.5 89,-19.5 89,-0.5 0,-0.5"/>
<text text-anchor="middle" x="44.5" y="-7.5" font-family="Helvetica,sans-Serif" font-size="10.00">_tinydir_file_cmp</text>
</g>
<!-- Node2 -->
<g id="node2" class="node"><title>Node2</title>
<g id="a_node2"><a xlink:href="include_2elzip_2tinydir_8h.html#a3e73e8c3eca3a48021a229df6d84670e" target="_top" xlink:title="tinydir_open_sorted">
<polygon fill="white" stroke="black" points="125,-0.5 125,-19.5 226,-19.5 226,-0.5 125,-0.5"/>
<text text-anchor="middle" x="175.5" y="-7.5" font-family="Helvetica,sans-Serif" font-size="10.00">tinydir_open_sorted</text>
</a>
</g>
</g>
<!-- Node1&#45;&gt;Node2 -->
<g id="edge1" class="edge"><title>Node1&#45;&gt;Node2</title>
<path fill="none" stroke="midnightblue" d="M99.2657,-10C107.674,-10 116.333,-10 124.648,-10"/>
<polygon fill="midnightblue" stroke="midnightblue" points="99.1735,-6.5001 89.1735,-10 99.1735,-13.5001 99.1735,-6.5001"/>
</g>
<!-- Node3 -->
<g id="node3" class="node"><title>Node3</title>
<g id="a_node3"><a xlink:href="include_2elzip_2tinydir_8h.html#acac889a2227f4855963fd543cf9215f8" target="_top" xlink:title="tinydir_open_subdir_n">
<polygon fill="white" stroke="black" points="262,-0.5 262,-19.5 373,-19.5 373,-0.5 262,-0.5"/>
<text text-anchor="middle" x="317.5" y="-7.5" font-family="Helvetica,sans-Serif" font-size="10.00">tinydir_open_subdir_n</text>
</a>
</g>
</g>
<!-- Node2&#45;&gt;Node3 -->
<g id="edge2" class="edge"><title>Node2&#45;&gt;Node3</title>
<path fill="none" stroke="midnightblue" d="M236.369,-10C244.771,-10 253.372,-10 261.674,-10"/>
<polygon fill="midnightblue" stroke="midnightblue" points="236.253,-6.5001 226.253,-10 236.253,-13.5001 236.253,-6.5001"/>
</g>
</g>
</svg>
