<?xml version="1.0" encoding="UTF-8" standalone="no"?>
<!DOCTYPE svg PUBLIC "-//W3C//DTD SVG 1.1//EN"
 "http://www.w3.org/Graphics/SVG/1.1/DTD/svg11.dtd">
<!-- Generated by graphviz version 2.38.0 (20140413.2041)
 -->
<!-- Title: Graphical Class Hierarchy Pages: 1 -->
<svg width="307pt" height="154pt"
 viewBox="0.00 0.00 307.00 153.50" xmlns="http://www.w3.org/2000/svg" xmlns:xlink="http://www.w3.org/1999/xlink">
<g id="graph0" class="graph" transform="scale(1 1) rotate(0) translate(4 149.5)">
<title>Graphical Class Hierarchy</title>
<!-- Node34 -->
<g id="node1" class="node"><title>Node34</title>
<g id="a_node1"><a xlink:href="classobe_1_1_types_1_1_identifiable.html" target="_top" xlink:title="obe::Types::Identifiable">
<polygon fill="none" stroke="black" points="8,-38.5 8,-57.5 124,-57.5 124,-38.5 8,-38.5"/>
<text text-anchor="middle" x="66" y="-45.5" font-family="Helvetica,sans-Serif" font-size="10.00">obe::Types::Identifiable</text>
</a>
</g>
</g>
<!-- Node1 -->
<g id="node2" class="node"><title>Node1</title>
<g id="a_node2"><a xlink:href="classobe_1_1_collision_1_1_polygonal_collider.html" target="_top" xlink:title="Class used for all Collisions in the engine, it&#39;s a Polygon containing n points. ">
<polygon fill="none" stroke="black" points="171.5,-115 171.5,-145 295.5,-145 295.5,-115 171.5,-115"/>
<text text-anchor="start" x="179.5" y="-133" font-family="Helvetica,sans-Serif" font-size="10.00">obe::Collision::Polygonal</text>
<text text-anchor="middle" x="233.5" y="-122" font-family="Helvetica,sans-Serif" font-size="10.00">Collider</text>
</a>
</g>
</g>
<!-- Node34&#45;&gt;Node1 -->
<g id="edge1" class="edge"><title>Node34&#45;&gt;Node1</title>
<path fill="none" stroke="midnightblue" d="M120.691,-61.1716C124.628,-62.8932 128.445,-64.828 132,-67 151.853,-79.1283 148.683,-92.0354 168,-105 173.584,-108.748 179.812,-112.052 186.134,-114.928"/>
<polygon fill="midnightblue" stroke="midnightblue" points="121.939,-57.9016 111.35,-57.5302 119.396,-64.4235 121.939,-57.9016"/>
</g>
<!-- Node2 -->
<g id="node3" class="node"><title>Node2</title>
<g id="a_node3"><a xlink:href="classobe_1_1_graphics_1_1_level_sprite.html" target="_top" xlink:title="obe::Graphics::LevelSprite">
<polygon fill="none" stroke="black" points="168,-76.5 168,-95.5 299,-95.5 299,-76.5 168,-76.5"/>
<text text-anchor="middle" x="233.5" y="-83.5" font-family="Helvetica,sans-Serif" font-size="10.00">obe::Graphics::LevelSprite</text>
</a>
</g>
</g>
<!-- Node34&#45;&gt;Node2 -->
<g id="edge2" class="edge"><title>Node34&#45;&gt;Node2</title>
<path fill="none" stroke="midnightblue" d="M118.811,-59.8961C142.073,-65.2374 169.147,-71.4537 191.038,-76.4799"/>
<polygon fill="midnightblue" stroke="midnightblue" points="119.292,-56.4157 108.763,-57.589 117.726,-63.2382 119.292,-56.4157"/>
</g>
<!-- Node35 -->
<g id="node4" class="node"><title>Node35</title>
<g id="a_node4"><a xlink:href="classobe_1_1_script_1_1_game_object.html" target="_top" xlink:title="obe::Script::GameObject">
<polygon fill="none" stroke="black" points="171,-38.5 171,-57.5 296,-57.5 296,-38.5 171,-38.5"/>
<text text-anchor="middle" x="233.5" y="-45.5" font-family="Helvetica,sans-Serif" font-size="10.00">obe::Script::GameObject</text>
</a>
</g>
</g>
<!-- Node34&#45;&gt;Node35 -->
<g id="edge3" class="edge"><title>Node34&#45;&gt;Node35</title>
<path fill="none" stroke="midnightblue" d="M134.437,-48C146.517,-48 159.048,-48 170.952,-48"/>
<polygon fill="midnightblue" stroke="midnightblue" points="134.419,-44.5001 124.419,-48 134.419,-51.5001 134.419,-44.5001"/>
</g>
<!-- Node22 -->
<g id="node5" class="node"><title>Node22</title>
<g id="a_node5"><a xlink:href="classobe_1_1_transform_1_1_rect.html" target="_top" xlink:title="obe::Transform::Rect">
<polygon fill="none" stroke="black" points="12.5,-0.5 12.5,-19.5 119.5,-19.5 119.5,-0.5 12.5,-0.5"/>
<text text-anchor="middle" x="66" y="-7.5" font-family="Helvetica,sans-Serif" font-size="10.00">obe::Transform::Rect</text>
</a>
</g>
</g>
<!-- Node22&#45;&gt;Node2 -->
<g id="edge4" class="edge"><title>Node22&#45;&gt;Node2</title>
<path fill="none" stroke="midnightblue" d="M120.691,-23.1716C124.628,-24.8932 128.445,-26.828 132,-29 151.853,-41.1283 148.16,-54.851 168,-67 174.272,-70.8406 181.363,-73.9415 188.491,-76.4343"/>
<polygon fill="midnightblue" stroke="midnightblue" points="121.939,-19.9016 111.35,-19.5302 119.396,-26.4235 121.939,-19.9016"/>
</g>
<!-- Node23 -->
<g id="node6" class="node"><title>Node23</title>
<g id="a_node6"><a xlink:href="classobe_1_1_scene_1_1_camera.html" target="_top" xlink:title="The Camera that views the Scene (World) ">
<polygon fill="none" stroke="black" points="180.5,-0.5 180.5,-19.5 286.5,-19.5 286.5,-0.5 180.5,-0.5"/>
<text text-anchor="middle" x="233.5" y="-7.5" font-family="Helvetica,sans-Serif" font-size="10.00">obe::Scene::Camera</text>
</a>
</g>
</g>
<!-- Node22&#45;&gt;Node23 -->
<g id="edge5" class="edge"><title>Node22&#45;&gt;Node23</title>
<path fill="none" stroke="#8b1a1a" d="M130.018,-10C146.674,-10 164.462,-10 180.464,-10"/>
<polygon fill="#8b1a1a" stroke="#8b1a1a" points="129.82,-6.5001 119.82,-10 129.82,-13.5001 129.82,-6.5001"/>
</g>
<!-- Node18 -->
<g id="node7" class="node"><title>Node18</title>
<g id="a_node7"><a xlink:href="classobe_1_1_types_1_1_selectable.html" target="_top" xlink:title="obe::Types::Selectable">
<polygon fill="none" stroke="black" points="8,-76.5 8,-95.5 124,-95.5 124,-76.5 8,-76.5"/>
<text text-anchor="middle" x="66" y="-83.5" font-family="Helvetica,sans-Serif" font-size="10.00">obe::Types::Selectable</text>
</a>
</g>
</g>
<!-- Node18&#45;&gt;Node1 -->
<g id="edge6" class="edge"><title>Node18&#45;&gt;Node1</title>
<path fill="none" stroke="midnightblue" d="M112.771,-98.1687C132.287,-103.357 155.259,-109.465 175.834,-114.935"/>
<polygon fill="midnightblue" stroke="midnightblue" points="113.475,-94.7343 102.911,-95.5473 111.676,-101.499 113.475,-94.7343"/>
</g>
<!-- Node18&#45;&gt;Node2 -->
<g id="edge7" class="edge"><title>Node18&#45;&gt;Node2</title>
<path fill="none" stroke="midnightblue" d="M134.757,-86C145.681,-86 156.966,-86 167.815,-86"/>
<polygon fill="midnightblue" stroke="midnightblue" points="134.419,-82.5001 124.419,-86 134.419,-89.5001 134.419,-82.5001"/>
</g>
<!-- Node0 -->
<g id="node8" class="node"><title>Node0</title>
<g id="a_node8"><a xlink:href="classobe_1_1_transform_1_1_unit_based_object.html" target="_top" xlink:title="Classes that works with Units should herit from this Class. ">
<polygon fill="none" stroke="black" points="0,-115 0,-145 132,-145 132,-115 0,-115"/>
<text text-anchor="start" x="8" y="-133" font-family="Helvetica,sans-Serif" font-size="10.00">obe::Transform::UnitBased</text>
<text text-anchor="middle" x="66" y="-122" font-family="Helvetica,sans-Serif" font-size="10.00">Object</text>
</a>
</g>
</g>
<!-- Node0&#45;&gt;Node1 -->
<g id="edge8" class="edge"><title>Node0&#45;&gt;Node1</title>
<path fill="none" stroke="midnightblue" d="M142.427,-130C152.107,-130 161.922,-130 171.337,-130"/>
<polygon fill="midnightblue" stroke="midnightblue" points="142.41,-126.5 132.41,-130 142.41,-133.5 142.41,-126.5"/>
</g>
<!-- Node0&#45;&gt;Node2 -->
<g id="edge9" class="edge"><title>Node0&#45;&gt;Node2</title>
<path fill="none" stroke="midnightblue" d="M133.273,-112.381C154.846,-106.645 177.976,-100.496 196.473,-95.5783"/>
<polygon fill="midnightblue" stroke="midnightblue" points="132.258,-109.029 123.493,-114.981 134.056,-115.794 132.258,-109.029"/>
</g>
</g>
</svg>
