<?xml version="1.0" encoding="UTF-8" standalone="no"?>
<!DOCTYPE svg PUBLIC "-//W3C//DTD SVG 1.1//EN"
 "http://www.w3.org/Graphics/SVG/1.1/DTD/svg11.dtd">
<!-- Generated by graphviz version 2.38.0 (20140413.2041)
 -->
<!-- Title: Graphical Class Hierarchy Pages: 1 -->
<svg width="334pt" height="306pt"
 viewBox="0.00 0.00 334.00 305.50" xmlns="http://www.w3.org/2000/svg" xmlns:xlink="http://www.w3.org/1999/xlink">
<g id="graph0" class="graph" transform="scale(1 1) rotate(0) translate(4 301.5)">
<title>Graphical Class Hierarchy</title>
<!-- Node52 -->
<g id="node1" class="node"><title>Node52</title>
<g id="a_node1"><a xlink:href="classobe_1_1_types_1_1_identifiable.html" target="_top" xlink:title="A Base class that does carry an unique identifier for a given category (Sprites / Colliders etc...">
<polygon fill="white" stroke="black" points="8,-152.5 8,-171.5 124,-171.5 124,-152.5 8,-152.5"/>
<text text-anchor="middle" x="66" y="-159.5" font-family="Helvetica,sans-Serif" font-size="10.00">obe::Types::Identifiable</text>
</a>
</g>
</g>
<!-- Node53 -->
<g id="node2" class="node"><title>Node53</title>
<g id="a_node2"><a xlink:href="classobe_1_1_bindings_1_1_binding_tree.html" target="_top" xlink:title="obe::Bindings::BindingTree">
<polygon fill="white" stroke="black" points="180.5,-190.5 180.5,-209.5 313.5,-209.5 313.5,-190.5 180.5,-190.5"/>
<text text-anchor="middle" x="247" y="-197.5" font-family="Helvetica,sans-Serif" font-size="10.00">obe::Bindings::BindingTree</text>
</a>
</g>
</g>
<!-- Node52&#45;&gt;Node53 -->
<g id="edge1" class="edge"><title>Node52&#45;&gt;Node53</title>
<path fill="none" stroke="midnightblue" d="M122.024,-173.681C147.408,-179.07 177.161,-185.386 201.156,-190.48"/>
<polygon fill="midnightblue" stroke="midnightblue" points="122.678,-170.242 112.169,-171.589 121.224,-177.089 122.678,-170.242"/>
</g>
<!-- Node1 -->
<g id="node3" class="node"><title>Node1</title>
<g id="a_node3"><a xlink:href="classobe_1_1_collision_1_1_polygonal_collider.html" target="_top" xlink:title="Class used for all Collisions in the engine, it&#39;s a Polygon containing n points . ...">
<polygon fill="white" stroke="black" points="185,-267 185,-297 309,-297 309,-267 185,-267"/>
<text text-anchor="start" x="193" y="-285" font-family="Helvetica,sans-Serif" font-size="10.00">obe::Collision::Polygonal</text>
<text text-anchor="middle" x="247" y="-274" font-family="Helvetica,sans-Serif" font-size="10.00">Collider</text>
</a>
</g>
</g>
<!-- Node52&#45;&gt;Node1 -->
<g id="edge2" class="edge"><title>Node52&#45;&gt;Node1</title>
<path fill="none" stroke="midnightblue" d="M86.7118,-178.46C99.8219,-189.606 117.273,-204.829 132,-219 148.764,-235.131 148.305,-244.617 168,-257 174.019,-260.785 180.663,-264.044 187.457,-266.84"/>
<polygon fill="midnightblue" stroke="midnightblue" points="88.6944,-175.553 78.7957,-171.776 84.1785,-180.901 88.6944,-175.553"/>
</g>
<!-- Node15 -->
<g id="node4" class="node"><title>Node15</title>
<g id="a_node4"><a xlink:href="classobe_1_1_debug_1_1_console_stream.html" target="_top" xlink:title="A Stream is a bridge to push Message to the Console . ">
<polygon fill="white" stroke="black" points="177.5,-38.5 177.5,-57.5 316.5,-57.5 316.5,-38.5 177.5,-38.5"/>
<text text-anchor="middle" x="247" y="-45.5" font-family="Helvetica,sans-Serif" font-size="10.00">obe::Debug::ConsoleStream</text>
</a>
</g>
</g>
<!-- Node52&#45;&gt;Node15 -->
<g id="edge3" class="edge"><title>Node52&#45;&gt;Node15</title>
<path fill="none" stroke="midnightblue" d="M80.6477,-144.502C98.4185,-122.948 131.546,-86.767 168,-67 175.106,-63.1467 182.996,-60.0641 190.95,-57.6008"/>
<polygon fill="midnightblue" stroke="midnightblue" points="77.7554,-142.513 74.2084,-152.497 83.207,-146.904 77.7554,-142.513"/>
</g>
<!-- Node2 -->
<g id="node5" class="node"><title>Node2</title>
<g id="a_node5"><a xlink:href="classobe_1_1_graphics_1_1_level_sprite.html" target="_top" xlink:title="An element meant to be displayed in a Scene . ">
<polygon fill="white" stroke="black" points="181.5,-228.5 181.5,-247.5 312.5,-247.5 312.5,-228.5 181.5,-228.5"/>
<text text-anchor="middle" x="247" y="-235.5" font-family="Helvetica,sans-Serif" font-size="10.00">obe::Graphics::LevelSprite</text>
</a>
</g>
</g>
<!-- Node52&#45;&gt;Node2 -->
<g id="edge4" class="edge"><title>Node52&#45;&gt;Node2</title>
<path fill="none" stroke="midnightblue" d="M89.7359,-177.243C109.637,-189.985 139.711,-207.82 168,-219 177.462,-222.74 187.871,-225.891 197.916,-228.487"/>
<polygon fill="midnightblue" stroke="midnightblue" points="91.3844,-174.14 81.0938,-171.619 87.5663,-180.007 91.3844,-174.14"/>
</g>
<!-- Node54 -->
<g id="node6" class="node"><title>Node54</title>
<g id="a_node6"><a xlink:href="classobe_1_1_input_1_1_input_action.html" target="_top" xlink:title="Action triggered by one or more Keyboard key(s) . ">
<polygon fill="white" stroke="black" points="190,-152.5 190,-171.5 304,-171.5 304,-152.5 190,-152.5"/>
<text text-anchor="middle" x="247" y="-159.5" font-family="Helvetica,sans-Serif" font-size="10.00">obe::Input::InputAction</text>
</a>
</g>
</g>
<!-- Node52&#45;&gt;Node54 -->
<g id="edge5" class="edge"><title>Node52&#45;&gt;Node54</title>
<path fill="none" stroke="midnightblue" d="M134.14,-162C152.446,-162 172.085,-162 189.719,-162"/>
<polygon fill="midnightblue" stroke="midnightblue" points="134.129,-158.5 124.129,-162 134.129,-165.5 134.129,-158.5"/>
</g>
<!-- Node55 -->
<g id="node7" class="node"><title>Node55</title>
<g id="a_node7"><a xlink:href="classobe_1_1_script_1_1_game_object.html" target="_top" xlink:title="obe::Script::GameObject">
<polygon fill="white" stroke="black" points="184.5,-114.5 184.5,-133.5 309.5,-133.5 309.5,-114.5 184.5,-114.5"/>
<text text-anchor="middle" x="247" y="-121.5" font-family="Helvetica,sans-Serif" font-size="10.00">obe::Script::GameObject</text>
</a>
</g>
</g>
<!-- Node52&#45;&gt;Node55 -->
<g id="edge6" class="edge"><title>Node52&#45;&gt;Node55</title>
<path fill="none" stroke="midnightblue" d="M122.024,-150.319C147.408,-144.93 177.161,-138.614 201.156,-133.52"/>
<polygon fill="midnightblue" stroke="midnightblue" points="121.224,-146.911 112.169,-152.411 122.678,-153.758 121.224,-146.911"/>
</g>
<!-- Node56 -->
<g id="node8" class="node"><title>Node56</title>
<g id="a_node8"><a xlink:href="classobe_1_1_types_1_1_protected_identifiable.html" target="_top" xlink:title="Exactly like Identifiable class except you can&#39;t change the Id after creation. ">
<polygon fill="white" stroke="black" points="168,-76.5 168,-95.5 326,-95.5 326,-76.5 168,-76.5"/>
<text text-anchor="middle" x="247" y="-83.5" font-family="Helvetica,sans-Serif" font-size="10.00">obe::Types::ProtectedIdentifiable</text>
</a>
</g>
</g>
<!-- Node52&#45;&gt;Node56 -->
<g id="edge7" class="edge"><title>Node52&#45;&gt;Node56</title>
<path fill="none" stroke="darkgreen" d="M89.7359,-146.757C109.637,-134.015 139.711,-116.18 168,-105 177.462,-101.26 187.871,-98.1086 197.916,-95.5134"/>
<polygon fill="darkgreen" stroke="darkgreen" points="87.5663,-143.993 81.0938,-152.381 91.3844,-149.86 87.5663,-143.993"/>
</g>
<!-- Node27 -->
<g id="node9" class="node"><title>Node27</title>
<g id="a_node9"><a xlink:href="classobe_1_1_transform_1_1_rect.html" target="_top" xlink:title="A Class that does represent a Rectangle with various methods to manipulate it . ">
<polygon fill="white" stroke="black" points="12.5,-0.5 12.5,-19.5 119.5,-19.5 119.5,-0.5 12.5,-0.5"/>
<text text-anchor="middle" x="66" y="-7.5" font-family="Helvetica,sans-Serif" font-size="10.00">obe::Transform::Rect</text>
</a>
</g>
</g>
<!-- Node27&#45;&gt;Node2 -->
<g id="edge8" class="edge"><title>Node27&#45;&gt;Node2</title>
<path fill="none" stroke="midnightblue" d="M128.173,-25.311C129.525,-26.4554 130.805,-27.683 132,-29 189.752,-92.6523 108.817,-156.676 168,-219 171.839,-223.043 176.383,-226.286 181.317,-228.881"/>
<polygon fill="midnightblue" stroke="midnightblue" points="129.995,-22.3187 119.748,-19.627 126.08,-28.1215 129.995,-22.3187"/>
</g>
<!-- Node28 -->
<g id="node10" class="node"><title>Node28</title>
<g id="a_node10"><a xlink:href="classobe_1_1_scene_1_1_camera.html" target="_top" xlink:title="The Camera that views the Scene . ">
<polygon fill="white" stroke="black" points="194,-0.5 194,-19.5 300,-19.5 300,-0.5 194,-0.5"/>
<text text-anchor="middle" x="247" y="-7.5" font-family="Helvetica,sans-Serif" font-size="10.00">obe::Scene::Camera</text>
</a>
</g>
</g>
<!-- Node27&#45;&gt;Node28 -->
<g id="edge9" class="edge"><title>Node27&#45;&gt;Node28</title>
<path fill="none" stroke="#8b1a1a" d="M129.832,-10C150.792,-10 173.899,-10 193.948,-10"/>
<polygon fill="#8b1a1a" stroke="#8b1a1a" points="129.738,-6.5001 119.738,-10 129.738,-13.5001 129.738,-6.5001"/>
</g>
<!-- Node22 -->
<g id="node11" class="node"><title>Node22</title>
<g id="a_node11"><a xlink:href="classobe_1_1_types_1_1_selectable.html" target="_top" xlink:title="A Base Class that you can select or unselect . ">
<polygon fill="white" stroke="black" points="8,-228.5 8,-247.5 124,-247.5 124,-228.5 8,-228.5"/>
<text text-anchor="middle" x="66" y="-235.5" font-family="Helvetica,sans-Serif" font-size="10.00">obe::Types::Selectable</text>
</a>
</g>
</g>
<!-- Node22&#45;&gt;Node1 -->
<g id="edge10" class="edge"><title>Node22&#45;&gt;Node1</title>
<path fill="none" stroke="midnightblue" d="M115.635,-249.955C136.929,-255.189 162.152,-261.389 184.711,-266.935"/>
<polygon fill="midnightblue" stroke="midnightblue" points="116.387,-246.536 105.84,-247.547 114.716,-253.333 116.387,-246.536"/>
</g>
<!-- Node22&#45;&gt;Node2 -->
<g id="edge11" class="edge"><title>Node22&#45;&gt;Node2</title>
<path fill="none" stroke="midnightblue" d="M134.567,-238C149.89,-238 166.128,-238 181.327,-238"/>
<polygon fill="midnightblue" stroke="midnightblue" points="134.129,-234.5 124.129,-238 134.129,-241.5 134.129,-234.5"/>
</g>
<!-- Node14 -->
<g id="node12" class="node"><title>Node14</title>
<g id="a_node12"><a xlink:href="classobe_1_1_types_1_1_togglable.html" target="_top" xlink:title="A Base Class that you can enable or disable . ">
<polygon fill="white" stroke="black" points="10,-38.5 10,-57.5 122,-57.5 122,-38.5 10,-38.5"/>
<text text-anchor="middle" x="66" y="-45.5" font-family="Helvetica,sans-Serif" font-size="10.00">obe::Types::Togglable</text>
</a>
</g>
</g>
<!-- Node14&#45;&gt;Node15 -->
<g id="edge12" class="edge"><title>Node14&#45;&gt;Node15</title>
<path fill="none" stroke="midnightblue" d="M132.185,-48C146.906,-48 162.576,-48 177.432,-48"/>
<polygon fill="midnightblue" stroke="midnightblue" points="132.167,-44.5001 122.166,-48 132.166,-51.5001 132.167,-44.5001"/>
</g>
<!-- Node0 -->
<g id="node13" class="node"><title>Node0</title>
<g id="a_node13"><a xlink:href="classobe_1_1_transform_1_1_unit_based_object.html" target="_top" xlink:title="Classes that works with Units should herit from this Class . ">
<polygon fill="white" stroke="black" points="0,-267 0,-297 132,-297 132,-267 0,-267"/>
<text text-anchor="start" x="8" y="-285" font-family="Helvetica,sans-Serif" font-size="10.00">obe::Transform::UnitBased</text>
<text text-anchor="middle" x="66" y="-274" font-family="Helvetica,sans-Serif" font-size="10.00">Object</text>
</a>
</g>
</g>
<!-- Node0&#45;&gt;Node1 -->
<g id="edge13" class="edge"><title>Node0&#45;&gt;Node1</title>
<path fill="none" stroke="midnightblue" d="M142.331,-282C156.489,-282 171.131,-282 184.793,-282"/>
<polygon fill="midnightblue" stroke="midnightblue" points="142.13,-278.5 132.129,-282 142.129,-285.5 142.13,-278.5"/>
</g>
<!-- Node0&#45;&gt;Node2 -->
<g id="edge14" class="edge"><title>Node0&#45;&gt;Node2</title>
<path fill="none" stroke="midnightblue" d="M138.088,-264.526C161.692,-258.724 187.083,-252.482 207.302,-247.512"/>
<polygon fill="midnightblue" stroke="midnightblue" points="136.976,-261.195 128.101,-266.981 138.647,-267.992 136.976,-261.195"/>
</g>
</g>
</svg>
