<?xml version="1.0" encoding="UTF-8" standalone="no"?>
<!DOCTYPE svg PUBLIC "-//W3C//DTD SVG 1.1//EN"
 "http://www.w3.org/Graphics/SVG/1.1/DTD/svg11.dtd">
<!-- Generated by graphviz version 2.38.0 (20140413.2041)
 -->
<!-- Title: obe::Bindings::SystemBindings::LoadSCursor Pages: 1 -->
<svg width="962pt" height="683pt"
 viewBox="0.00 0.00 962.00 683.00" xmlns="http://www.w3.org/2000/svg" xmlns:xlink="http://www.w3.org/1999/xlink">
<g id="graph0" class="graph" transform="scale(1 1) rotate(0) translate(4 679)">
<title>obe::Bindings::SystemBindings::LoadSCursor</title>
<!-- Node77 -->
<g id="node1" class="node"><title>Node77</title>
<polygon fill="#bfbfbf" stroke="black" points="0,-291.5 0,-321.5 153,-321.5 153,-291.5 0,-291.5"/>
<text text-anchor="start" x="8" y="-309.5" font-family="Helvetica,sans-Serif" font-size="10.00">obe::Bindings::SystemBindings</text>
<text text-anchor="middle" x="76.5" y="-298.5" font-family="Helvetica,sans-Serif" font-size="10.00">::LoadSCursor</text>
</g>
<!-- Node78 -->
<g id="node2" class="node"><title>Node78</title>
<g id="a_node2"><a xlink:href="classobe_1_1_system_1_1_cursor.html#a74d6631529346dc12cc2ac7eca55b333" target="_top" xlink:title="Displays the Cursor. ">
<polygon fill="white" stroke="black" points="190.5,-561.5 190.5,-591.5 297.5,-591.5 297.5,-561.5 190.5,-561.5"/>
<text text-anchor="start" x="198.5" y="-579.5" font-family="Helvetica,sans-Serif" font-size="10.00">obe::System::Cursor</text>
<text text-anchor="middle" x="244" y="-568.5" font-family="Helvetica,sans-Serif" font-size="10.00">::display</text>
</a>
</g>
</g>
<!-- Node77&#45;&gt;Node78 -->
<g id="edge1" class="edge"><title>Node77&#45;&gt;Node78</title>
<path fill="none" stroke="midnightblue" d="M80.4253,-321.651C89.2901,-363.76 119.616,-483.622 189,-552.5 190.069,-553.562 191.194,-554.58 192.363,-555.558"/>
<polygon fill="midnightblue" stroke="midnightblue" points="190.453,-558.493 200.635,-561.422 194.502,-552.783 190.453,-558.493"/>
</g>
<!-- Node79 -->
<g id="node3" class="node"><title>Node79</title>
<g id="a_node3"><a xlink:href="classobe_1_1_system_1_1_cursor.html#af9f0b09cbf47bcfa51061550b33e0da2" target="_top" xlink:title="Gets the x Coordinate of the raw (System) position of the Cursor (Unconstrained) ">
<polygon fill="white" stroke="black" points="190.5,-512.5 190.5,-542.5 297.5,-542.5 297.5,-512.5 190.5,-512.5"/>
<text text-anchor="start" x="198.5" y="-530.5" font-family="Helvetica,sans-Serif" font-size="10.00">obe::System::Cursor</text>
<text text-anchor="middle" x="244" y="-519.5" font-family="Helvetica,sans-Serif" font-size="10.00">::getRawX</text>
</a>
</g>
</g>
<!-- Node77&#45;&gt;Node79 -->
<g id="edge2" class="edge"><title>Node77&#45;&gt;Node79</title>
<path fill="none" stroke="midnightblue" d="M82.3526,-321.708C94.6031,-357.881 130.07,-450.016 189,-503.5 190.28,-504.661 191.625,-505.774 193.021,-506.839"/>
<polygon fill="midnightblue" stroke="midnightblue" points="191.207,-509.835 201.479,-512.428 195.066,-503.995 191.207,-509.835"/>
</g>
<!-- Node80 -->
<g id="node4" class="node"><title>Node80</title>
<g id="a_node4"><a xlink:href="classobe_1_1_system_1_1_cursor.html#adfe66fe1c349afbd672e071a1086aa0b" target="_top" xlink:title="Gets the y Coordinate of the raw (System) position of the Cursor (Unconstrained) ">
<polygon fill="white" stroke="black" points="190.5,-463.5 190.5,-493.5 297.5,-493.5 297.5,-463.5 190.5,-463.5"/>
<text text-anchor="start" x="198.5" y="-481.5" font-family="Helvetica,sans-Serif" font-size="10.00">obe::System::Cursor</text>
<text text-anchor="middle" x="244" y="-470.5" font-family="Helvetica,sans-Serif" font-size="10.00">::getRawY</text>
</a>
</g>
</g>
<!-- Node77&#45;&gt;Node80 -->
<g id="edge3" class="edge"><title>Node77&#45;&gt;Node80</title>
<path fill="none" stroke="midnightblue" d="M85.3558,-321.504C101.304,-350.694 140.147,-415.662 189,-454.5 190.566,-455.745 192.207,-456.939 193.902,-458.084"/>
<polygon fill="midnightblue" stroke="midnightblue" points="192.36,-461.241 202.734,-463.393 195.966,-455.241 192.36,-461.241"/>
</g>
<!-- Node81 -->
<g id="node5" class="node"><title>Node81</title>
<g id="a_node5"><a xlink:href="classobe_1_1_system_1_1_cursor.html#a2c4a8e489367d629ad3dd29334009f2d" target="_top" xlink:title="Gets the x Coordinate of the Cursor Position (Constrained) ">
<polygon fill="white" stroke="black" points="190.5,-414.5 190.5,-444.5 297.5,-444.5 297.5,-414.5 190.5,-414.5"/>
<text text-anchor="start" x="198.5" y="-432.5" font-family="Helvetica,sans-Serif" font-size="10.00">obe::System::Cursor</text>
<text text-anchor="middle" x="244" y="-421.5" font-family="Helvetica,sans-Serif" font-size="10.00">::getX</text>
</a>
</g>
</g>
<!-- Node77&#45;&gt;Node81 -->
<g id="edge4" class="edge"><title>Node77&#45;&gt;Node81</title>
<path fill="none" stroke="midnightblue" d="M91.4563,-321.523C111.487,-342.434 150.26,-380.551 189,-405.5 191.267,-406.96 193.637,-408.373 196.066,-409.733"/>
<polygon fill="midnightblue" stroke="midnightblue" points="194.553,-412.892 205.037,-414.419 197.794,-406.687 194.553,-412.892"/>
</g>
<!-- Node82 -->
<g id="node6" class="node"><title>Node82</title>
<g id="a_node6"><a xlink:href="classobe_1_1_system_1_1_cursor.html#a4433008ac41fce6663ed2df0c16ac68b" target="_top" xlink:title="Gets the y Coordinate of the Cursor Position (Constrained) ">
<polygon fill="white" stroke="black" points="190.5,-365.5 190.5,-395.5 297.5,-395.5 297.5,-365.5 190.5,-365.5"/>
<text text-anchor="start" x="198.5" y="-383.5" font-family="Helvetica,sans-Serif" font-size="10.00">obe::System::Cursor</text>
<text text-anchor="middle" x="244" y="-372.5" font-family="Helvetica,sans-Serif" font-size="10.00">::getY</text>
</a>
</g>
</g>
<!-- Node77&#45;&gt;Node82 -->
<g id="edge5" class="edge"><title>Node77&#45;&gt;Node82</title>
<path fill="none" stroke="midnightblue" d="M111.154,-321.626C133.271,-331.559 162.848,-344.825 189,-356.5 192.434,-358.033 195.992,-359.619 199.567,-361.212"/>
<polygon fill="midnightblue" stroke="midnightblue" points="198.442,-364.542 209.001,-365.41 201.288,-358.147 198.442,-364.542"/>
</g>
<!-- Node83 -->
<g id="node7" class="node"><title>Node83</title>
<g id="a_node7"><a xlink:href="classobe_1_1_system_1_1_cursor.html#a67db8dd4690b8826ba4ac45b5b8c1f2a" target="_top" xlink:title="Sets the Animation Key (CLIC, HOLD, IDLE, RELEASE) ">
<polygon fill="white" stroke="black" points="189,-316.5 189,-346.5 299,-346.5 299,-316.5 189,-316.5"/>
<text text-anchor="start" x="197" y="-334.5" font-family="Helvetica,sans-Serif" font-size="10.00">obe::System::Cursor</text>
<text text-anchor="middle" x="244" y="-323.5" font-family="Helvetica,sans-Serif" font-size="10.00">::selectAnimationKey</text>
</a>
</g>
</g>
<!-- Node77&#45;&gt;Node83 -->
<g id="edge6" class="edge"><title>Node77&#45;&gt;Node83</title>
<path fill="none" stroke="midnightblue" d="M153.469,-317.976C161.926,-319.253 170.479,-320.545 178.77,-321.798"/>
<polygon fill="midnightblue" stroke="midnightblue" points="178.32,-325.269 188.73,-323.302 179.365,-318.348 178.32,-325.269"/>
</g>
<!-- Node93 -->
<g id="node17" class="node"><title>Node93</title>
<g id="a_node17"><a xlink:href="classobe_1_1_system_1_1_cursor.html#a0cfe32fec562dea5a86478ff862f45fc" target="_top" xlink:title="Sets the root path to the Cursor Animator. ">
<polygon fill="white" stroke="black" points="190,-267.5 190,-297.5 298,-297.5 298,-267.5 190,-267.5"/>
<text text-anchor="start" x="198" y="-285.5" font-family="Helvetica,sans-Serif" font-size="10.00">obe::System::Cursor</text>
<text text-anchor="middle" x="244" y="-274.5" font-family="Helvetica,sans-Serif" font-size="10.00">::selectAnimatorPath</text>
</a>
</g>
</g>
<!-- Node77&#45;&gt;Node93 -->
<g id="edge16" class="edge"><title>Node77&#45;&gt;Node93</title>
<path fill="none" stroke="midnightblue" d="M153.469,-295.483C162.264,-294.208 171.161,-292.918 179.761,-291.671"/>
<polygon fill="midnightblue" stroke="midnightblue" points="180.301,-295.129 189.695,-290.23 179.296,-288.201 180.301,-295.129"/>
</g>
<!-- Node114 -->
<g id="node38" class="node"><title>Node114</title>
<g id="a_node38"><a xlink:href="classobe_1_1_system_1_1_cursor.html#a81d607a3df3bd976946d28e939a494f5" target="_top" xlink:title="Sets the Cursor&#39;s constraint. ">
<polygon fill="white" stroke="black" points="190.5,-169.5 190.5,-199.5 297.5,-199.5 297.5,-169.5 190.5,-169.5"/>
<text text-anchor="start" x="198.5" y="-187.5" font-family="Helvetica,sans-Serif" font-size="10.00">obe::System::Cursor</text>
<text text-anchor="middle" x="244" y="-176.5" font-family="Helvetica,sans-Serif" font-size="10.00">::setConstraint</text>
</a>
</g>
</g>
<!-- Node77&#45;&gt;Node114 -->
<g id="edge42" class="edge"><title>Node77&#45;&gt;Node114</title>
<path fill="none" stroke="midnightblue" d="M92.2567,-291.195C112.611,-270.691 151.099,-234.05 189,-209.5 191.775,-207.703 194.699,-205.964 197.693,-204.298"/>
<polygon fill="midnightblue" stroke="midnightblue" points="199.567,-207.268 206.802,-199.528 196.32,-201.066 199.567,-207.268"/>
</g>
<!-- Node115 -->
<g id="node39" class="node"><title>Node115</title>
<g id="a_node39"><a xlink:href="classobe_1_1_system_1_1_cursor.html#a3c16f612f7606a7a0b9815a27798cdfa" target="_top" xlink:title="Sets the Position of the Cursor. ">
<polygon fill="white" stroke="black" points="190.5,-120.5 190.5,-150.5 297.5,-150.5 297.5,-120.5 190.5,-120.5"/>
<text text-anchor="start" x="198.5" y="-138.5" font-family="Helvetica,sans-Serif" font-size="10.00">obe::System::Cursor</text>
<text text-anchor="middle" x="244" y="-127.5" font-family="Helvetica,sans-Serif" font-size="10.00">::setPosition</text>
</a>
</g>
</g>
<!-- Node77&#45;&gt;Node115 -->
<g id="edge43" class="edge"><title>Node77&#45;&gt;Node115</title>
<path fill="none" stroke="midnightblue" d="M85.6309,-291.149C101.777,-261.947 140.545,-197.893 189,-159.5 190.568,-158.258 192.21,-157.065 193.907,-155.922"/>
<polygon fill="midnightblue" stroke="midnightblue" points="195.97,-158.766 202.745,-150.62 192.369,-152.764 195.97,-158.766"/>
</g>
<!-- Node116 -->
<g id="node40" class="node"><title>Node116</title>
<g id="a_node40"><a xlink:href="classobe_1_1_system_1_1_cursor.html#a1f0d7ac1b4026a2499fd30a017c4af9d" target="_top" xlink:title="Sets the x Coordinate of the Cursor Position. ">
<polygon fill="white" stroke="black" points="190.5,-71.5 190.5,-101.5 297.5,-101.5 297.5,-71.5 190.5,-71.5"/>
<text text-anchor="start" x="198.5" y="-89.5" font-family="Helvetica,sans-Serif" font-size="10.00">obe::System::Cursor</text>
<text text-anchor="middle" x="244" y="-78.5" font-family="Helvetica,sans-Serif" font-size="10.00">::setX</text>
</a>
</g>
</g>
<!-- Node77&#45;&gt;Node116 -->
<g id="edge44" class="edge"><title>Node77&#45;&gt;Node116</title>
<path fill="none" stroke="midnightblue" d="M82.3746,-291.37C94.6734,-255.38 130.239,-163.714 189,-110.5 190.281,-109.34 191.627,-108.229 193.024,-107.165"/>
<polygon fill="midnightblue" stroke="midnightblue" points="195.068,-110.009 201.487,-101.58 191.212,-104.167 195.068,-110.009"/>
</g>
<!-- Node117 -->
<g id="node41" class="node"><title>Node117</title>
<g id="a_node41"><a xlink:href="classobe_1_1_system_1_1_cursor.html#a1ae765f913fe4ce91081811bad4aeb9e" target="_top" xlink:title="Sets the y Coordinate of the Cursor Position. ">
<polygon fill="white" stroke="black" points="190.5,-22.5 190.5,-52.5 297.5,-52.5 297.5,-22.5 190.5,-22.5"/>
<text text-anchor="start" x="198.5" y="-40.5" font-family="Helvetica,sans-Serif" font-size="10.00">obe::System::Cursor</text>
<text text-anchor="middle" x="244" y="-29.5" font-family="Helvetica,sans-Serif" font-size="10.00">::setY</text>
</a>
</g>
</g>
<!-- Node77&#45;&gt;Node117 -->
<g id="edge45" class="edge"><title>Node77&#45;&gt;Node117</title>
<path fill="none" stroke="midnightblue" d="M80.444,-291.41C89.3574,-249.471 119.797,-130.092 189,-61.5 190.07,-60.4392 191.195,-59.4212 192.366,-58.4445"/>
<polygon fill="midnightblue" stroke="midnightblue" points="194.503,-61.2195 200.64,-52.5828 190.457,-55.5075 194.503,-61.2195"/>
</g>
<!-- Node118 -->
<g id="node42" class="node"><title>Node118</title>
<g id="a_node42"><a xlink:href="classobe_1_1_system_1_1_cursor.html#aa2612f2e00886a203572adb91dfa4f46" target="_top" xlink:title="Updates the Cursor. ">
<polygon fill="white" stroke="black" points="190.5,-218.5 190.5,-248.5 297.5,-248.5 297.5,-218.5 190.5,-218.5"/>
<text text-anchor="start" x="198.5" y="-236.5" font-family="Helvetica,sans-Serif" font-size="10.00">obe::System::Cursor</text>
<text text-anchor="middle" x="244" y="-225.5" font-family="Helvetica,sans-Serif" font-size="10.00">::update</text>
</a>
</g>
</g>
<!-- Node77&#45;&gt;Node118 -->
<g id="edge46" class="edge"><title>Node77&#45;&gt;Node118</title>
<path fill="none" stroke="midnightblue" d="M111.792,-291.374C137.2,-280.167 172.019,-264.809 199.404,-252.73"/>
<polygon fill="midnightblue" stroke="midnightblue" points="201.015,-255.844 208.752,-248.606 198.19,-249.44 201.015,-255.844"/>
</g>
<!-- Node84 -->
<g id="node8" class="node"><title>Node84</title>
<g id="a_node8"><a xlink:href="classobe_1_1_animation_1_1_animator.html#ac335331eb08fe4d3151505780a3a30fa" target="_top" xlink:title="Set the Animation to play by name. ">
<polygon fill="white" stroke="black" points="335,-492.5 335,-522.5 462,-522.5 462,-492.5 335,-492.5"/>
<text text-anchor="start" x="343" y="-510.5" font-family="Helvetica,sans-Serif" font-size="10.00">obe::Animation::Animator</text>
<text text-anchor="middle" x="398.5" y="-499.5" font-family="Helvetica,sans-Serif" font-size="10.00">::setKey</text>
</a>
</g>
</g>
<!-- Node83&#45;&gt;Node84 -->
<g id="edge7" class="edge"><title>Node83&#45;&gt;Node84</title>
<path fill="none" stroke="midnightblue" d="M286.392,-346.62C291.002,-349.431 295.344,-352.706 299,-356.5 327.751,-386.339 312.253,-407.866 335,-442.5 345.391,-458.321 359.908,-473.697 372.336,-485.518"/>
<polygon fill="midnightblue" stroke="midnightblue" points="370.036,-488.159 379.748,-492.392 374.795,-483.026 370.036,-488.159"/>
</g>
<!-- Node85 -->
<g id="node9" class="node"><title>Node85</title>
<g id="a_node9"><a xlink:href="classaube_1_1_error_handler.html#a7c8d44a3e7f019646d289950abc5301b" target="_top" xlink:title="Raises an Error loaded in the Aube Error Database (AED) ">
<polygon fill="white" stroke="black" points="690.5,-273.5 690.5,-303.5 788.5,-303.5 788.5,-273.5 690.5,-273.5"/>
<text text-anchor="start" x="698.5" y="-291.5" font-family="Helvetica,sans-Serif" font-size="10.00">aube::ErrorHandler</text>
<text text-anchor="middle" x="739.5" y="-280.5" font-family="Helvetica,sans-Serif" font-size="10.00">::Raise</text>
</a>
</g>
</g>
<!-- Node84&#45;&gt;Node85 -->
<g id="edge8" class="edge"><title>Node84&#45;&gt;Node85</title>
<path fill="none" stroke="midnightblue" d="M441.732,-522.571C492.333,-537.658 576.803,-552.983 629,-509.5 697.049,-452.811 607.114,-380.534 665,-313.5 669.439,-308.359 674.978,-304.274 681.013,-301.027"/>
<polygon fill="midnightblue" stroke="midnightblue" points="682.505,-304.194 690.137,-296.846 679.588,-297.83 682.505,-304.194"/>
</g>
<!-- Node90 -->
<g id="node14" class="node"><title>Node90</title>
<g id="a_node14"><a xlink:href="classobe_1_1_system_1_1_path.html#aab439649ec875cd45a99a18e9c9beda8" target="_top" xlink:title="Get the current path in string form. ">
<polygon fill="white" stroke="black" points="511.5,-431.5 511.5,-461.5 615.5,-461.5 615.5,-431.5 511.5,-431.5"/>
<text text-anchor="start" x="519.5" y="-449.5" font-family="Helvetica,sans-Serif" font-size="10.00">obe::System::Path::</text>
<text text-anchor="middle" x="563.5" y="-438.5" font-family="Helvetica,sans-Serif" font-size="10.00">toString</text>
</a>
</g>
</g>
<!-- Node84&#45;&gt;Node90 -->
<g id="edge13" class="edge"><title>Node84&#45;&gt;Node90</title>
<path fill="none" stroke="midnightblue" d="M439.792,-492.421C461.916,-484.142 489.537,-473.805 512.968,-465.036"/>
<polygon fill="midnightblue" stroke="midnightblue" points="514.25,-468.294 522.389,-461.511 511.797,-461.738 514.25,-468.294"/>
</g>
<!-- Node91 -->
<g id="node15" class="node"><title>Node91</title>
<g id="a_node15"><a xlink:href="classobe_1_1_animation_1_1_animation.html#a9b0b22318eac4b384f9a7fbe3f3cbf4f" target="_top" xlink:title="Return whether the Animation is over or not. ">
<polygon fill="white" stroke="black" points="498,-644.5 498,-674.5 629,-674.5 629,-644.5 498,-644.5"/>
<text text-anchor="start" x="506" y="-662.5" font-family="Helvetica,sans-Serif" font-size="10.00">obe::Animation::Animation</text>
<text text-anchor="middle" x="563.5" y="-651.5" font-family="Helvetica,sans-Serif" font-size="10.00">::isAnimationOver</text>
</a>
</g>
</g>
<!-- Node84&#45;&gt;Node91 -->
<g id="edge14" class="edge"><title>Node84&#45;&gt;Node91</title>
<path fill="none" stroke="midnightblue" d="M407.445,-522.749C421.988,-549.265 455.352,-604.04 498,-635.5 499.875,-636.883 501.838,-638.195 503.866,-639.438"/>
<polygon fill="midnightblue" stroke="midnightblue" points="502.636,-642.753 513.093,-644.457 505.981,-636.604 502.636,-642.753"/>
</g>
<!-- Node92 -->
<g id="node16" class="node"><title>Node92</title>
<g id="a_node16"><a xlink:href="classobe_1_1_animation_1_1_animation.html#aa5c71967c0484463123b1a4cd7ad497c" target="_top" xlink:title="Returns the Animation priority. ">
<polygon fill="white" stroke="black" points="498,-595.5 498,-625.5 629,-625.5 629,-595.5 498,-595.5"/>
<text text-anchor="start" x="506" y="-613.5" font-family="Helvetica,sans-Serif" font-size="10.00">obe::Animation::Animation</text>
<text text-anchor="middle" x="563.5" y="-602.5" font-family="Helvetica,sans-Serif" font-size="10.00">::getPriority</text>
</a>
</g>
</g>
<!-- Node84&#45;&gt;Node92 -->
<g id="edge15" class="edge"><title>Node84&#45;&gt;Node92</title>
<path fill="none" stroke="midnightblue" d="M415.474,-522.667C434.099,-539.727 466.383,-567.407 498,-585.5 501.477,-587.49 505.143,-589.386 508.89,-591.178"/>
<polygon fill="midnightblue" stroke="midnightblue" points="507.753,-594.504 518.309,-595.415 510.625,-588.121 507.753,-594.504"/>
</g>
<!-- Node86 -->
<g id="node10" class="node"><title>Node86</title>
<g id="a_node10"><a xlink:href="classaube_1_1_error_message.html#a3a39b6fcd8fdb12eaf6383123535b8ca" target="_top" xlink:title="Gets the File where is located the ErrorMessage when raised. ">
<polygon fill="white" stroke="black" points="850,-214.5 850,-244.5 954,-244.5 954,-214.5 850,-214.5"/>
<text text-anchor="start" x="858" y="-232.5" font-family="Helvetica,sans-Serif" font-size="10.00">aube::ErrorMessage</text>
<text text-anchor="middle" x="902" y="-221.5" font-family="Helvetica,sans-Serif" font-size="10.00">::getFile</text>
</a>
</g>
</g>
<!-- Node85&#45;&gt;Node86 -->
<g id="edge9" class="edge"><title>Node85&#45;&gt;Node86</title>
<path fill="none" stroke="midnightblue" d="M781.416,-273.459C802.451,-265.727 828.276,-256.233 850.537,-248.05"/>
<polygon fill="midnightblue" stroke="midnightblue" points="851.98,-251.249 860.159,-244.513 849.565,-244.679 851.98,-251.249"/>
</g>
<!-- Node87 -->
<g id="node11" class="node"><title>Node87</title>
<g id="a_node11"><a xlink:href="classaube_1_1_error_message.html#a9184cc96589578f434351c105b0cd5f7" target="_top" xlink:title="Gets the location of the error in the code. ">
<polygon fill="white" stroke="black" points="850,-361.5 850,-391.5 954,-391.5 954,-361.5 850,-361.5"/>
<text text-anchor="start" x="858" y="-379.5" font-family="Helvetica,sans-Serif" font-size="10.00">aube::ErrorMessage</text>
<text text-anchor="middle" x="902" y="-368.5" font-family="Helvetica,sans-Serif" font-size="10.00">::getLocation</text>
</a>
</g>
</g>
<!-- Node85&#45;&gt;Node87 -->
<g id="edge10" class="edge"><title>Node85&#45;&gt;Node87</title>
<path fill="none" stroke="midnightblue" d="M788.766,-301.061C797.529,-304.397 806.317,-308.503 814,-313.5 833.775,-326.361 830.976,-338.553 850,-352.5 851.795,-353.816 853.674,-355.088 855.608,-356.313"/>
<polygon fill="midnightblue" stroke="midnightblue" points="853.939,-359.391 864.346,-361.376 857.448,-353.334 853.939,-359.391"/>
</g>
<!-- Node88 -->
<g id="node12" class="node"><title>Node88</title>
<g id="a_node12"><a xlink:href="classaube_1_1_error_message.html#a07927cb3e2d0712c459cc9e2b5f52696" target="_top" xlink:title="Gets the message displayed by the ErrorMessage when raised. ">
<polygon fill="white" stroke="black" points="850,-312.5 850,-342.5 954,-342.5 954,-312.5 850,-312.5"/>
<text text-anchor="start" x="858" y="-330.5" font-family="Helvetica,sans-Serif" font-size="10.00">aube::ErrorMessage</text>
<text text-anchor="middle" x="902" y="-319.5" font-family="Helvetica,sans-Serif" font-size="10.00">::getMessage</text>
</a>
</g>
</g>
<!-- Node85&#45;&gt;Node88 -->
<g id="edge11" class="edge"><title>Node85&#45;&gt;Node88</title>
<path fill="none" stroke="midnightblue" d="M788.655,-300.201C804.787,-304.121 822.991,-308.545 839.975,-312.671"/>
<polygon fill="midnightblue" stroke="midnightblue" points="839.265,-316.101 849.808,-315.061 840.917,-309.299 839.265,-316.101"/>
</g>
<!-- Node89 -->
<g id="node13" class="node"><title>Node89</title>
<g id="a_node13"><a xlink:href="classaube_1_1_error_message.html#a77c2f9b7e93542c958173b52da267989" target="_top" xlink:title="Gets hints that can help the error resolution. ">
<polygon fill="white" stroke="black" points="850,-263.5 850,-293.5 954,-293.5 954,-263.5 850,-263.5"/>
<text text-anchor="start" x="858" y="-281.5" font-family="Helvetica,sans-Serif" font-size="10.00">aube::ErrorMessage</text>
<text text-anchor="middle" x="902" y="-270.5" font-family="Helvetica,sans-Serif" font-size="10.00">::getHints</text>
</a>
</g>
</g>
<!-- Node85&#45;&gt;Node89 -->
<g id="edge12" class="edge"><title>Node85&#45;&gt;Node89</title>
<path fill="none" stroke="midnightblue" d="M788.655,-285.5C804.637,-284.504 822.651,-283.382 839.498,-282.332"/>
<polygon fill="midnightblue" stroke="midnightblue" points="840.045,-285.805 849.808,-281.69 839.61,-278.818 840.045,-285.805"/>
</g>
<!-- Node93&#45;&gt;Node84 -->
<g id="edge29" class="edge"><title>Node93&#45;&gt;Node84</title>
<path fill="none" stroke="midnightblue" d="M287.434,-297.502C291.755,-300.317 295.743,-303.625 299,-307.5 338.952,-355.038 304.513,-388.403 335,-442.5 344.166,-458.764 358.354,-473.98 370.897,-485.595"/>
<polygon fill="midnightblue" stroke="midnightblue" points="368.648,-488.28 378.434,-492.339 373.316,-483.063 368.648,-488.28"/>
</g>
<!-- Node94 -->
<g id="node18" class="node"><title>Node94</title>
<g id="a_node18"><a xlink:href="classobe_1_1_animation_1_1_animator.html#a882f333d9e80d1ba02c3a00141867eb2" target="_top" xlink:title="Clears the Animator of all Animation. ">
<polygon fill="white" stroke="black" points="335,-402.5 335,-432.5 462,-432.5 462,-402.5 335,-402.5"/>
<text text-anchor="start" x="343" y="-420.5" font-family="Helvetica,sans-Serif" font-size="10.00">obe::Animation::Animator</text>
<text text-anchor="middle" x="398.5" y="-409.5" font-family="Helvetica,sans-Serif" font-size="10.00">::clear</text>
</a>
</g>
</g>
<!-- Node93&#45;&gt;Node94 -->
<g id="edge17" class="edge"><title>Node93&#45;&gt;Node94</title>
<path fill="none" stroke="midnightblue" d="M286.392,-297.62C291.002,-300.431 295.344,-303.706 299,-307.5 327.751,-337.339 305.267,-364.64 335,-393.5 336.095,-394.563 337.241,-395.579 338.432,-396.552"/>
<polygon fill="midnightblue" stroke="midnightblue" points="336.62,-399.554 346.838,-402.354 340.596,-393.793 336.62,-399.554"/>
</g>
<!-- Node95 -->
<g id="node19" class="node"><title>Node95</title>
<g id="a_node19"><a xlink:href="classobe_1_1_animation_1_1_animator.html#a04c9d6baabb9a1b193cd26ab0b3e4766" target="_top" xlink:title="Loads the Animator (Using the Animator root path). &#160;It will also load all the Animation contained in ...">
<polygon fill="white" stroke="black" points="335,-353.5 335,-383.5 462,-383.5 462,-353.5 335,-353.5"/>
<text text-anchor="start" x="343" y="-371.5" font-family="Helvetica,sans-Serif" font-size="10.00">obe::Animation::Animator</text>
<text text-anchor="middle" x="398.5" y="-360.5" font-family="Helvetica,sans-Serif" font-size="10.00">::loadAnimator</text>
</a>
</g>
</g>
<!-- Node93&#45;&gt;Node95 -->
<g id="edge18" class="edge"><title>Node93&#45;&gt;Node95</title>
<path fill="none" stroke="midnightblue" d="M279.3,-297.62C285.908,-300.746 292.724,-304.12 299,-307.5 322.085,-319.933 347.2,-335.521 366.292,-347.827"/>
<polygon fill="midnightblue" stroke="midnightblue" points="364.584,-350.891 374.877,-353.401 368.396,-345.02 364.584,-350.891"/>
</g>
<!-- Node104 -->
<g id="node28" class="node"><title>Node104</title>
<g id="a_node28"><a xlink:href="classobe_1_1_animation_1_1_animator.html#ad84c05c7f7743a98d4e11ba674f07b6d" target="_top" xlink:title="Updates the Animator and the currently played Animation. ">
<polygon fill="white" stroke="black" points="335,-218.5 335,-248.5 462,-248.5 462,-218.5 335,-218.5"/>
<text text-anchor="start" x="343" y="-236.5" font-family="Helvetica,sans-Serif" font-size="10.00">obe::Animation::Animator</text>
<text text-anchor="middle" x="398.5" y="-225.5" font-family="Helvetica,sans-Serif" font-size="10.00">::update</text>
</a>
</g>
</g>
<!-- Node93&#45;&gt;Node104 -->
<g id="edge30" class="edge"><title>Node93&#45;&gt;Node104</title>
<path fill="none" stroke="midnightblue" d="M291.999,-267.399C307.436,-262.438 324.759,-256.873 340.835,-251.707"/>
<polygon fill="midnightblue" stroke="midnightblue" points="342.206,-254.943 350.656,-248.552 340.064,-248.279 342.206,-254.943"/>
</g>
<!-- Node112 -->
<g id="node36" class="node"><title>Node112</title>
<g id="a_node36"><a xlink:href="classobe_1_1_animation_1_1_animator.html#ada6c0858d3fd693de9ae05350f56ef23" target="_top" xlink:title="Get the current sf::Sprite of the current Animation. ">
<polygon fill="white" stroke="black" points="335,-169.5 335,-199.5 462,-199.5 462,-169.5 335,-169.5"/>
<text text-anchor="start" x="343" y="-187.5" font-family="Helvetica,sans-Serif" font-size="10.00">obe::Animation::Animator</text>
<text text-anchor="middle" x="398.5" y="-176.5" font-family="Helvetica,sans-Serif" font-size="10.00">::getTexture</text>
</a>
</g>
</g>
<!-- Node93&#45;&gt;Node112 -->
<g id="edge40" class="edge"><title>Node93&#45;&gt;Node112</title>
<path fill="none" stroke="midnightblue" d="M285.304,-267.441C290.148,-264.821 294.844,-261.845 299,-258.5 320.052,-241.556 313.632,-226.044 335,-209.5 337.296,-207.723 339.734,-206.055 342.267,-204.492"/>
<polygon fill="midnightblue" stroke="midnightblue" points="344.105,-207.475 351.166,-199.576 340.72,-201.348 344.105,-207.475"/>
</g>
<!-- Node95&#45;&gt;Node90 -->
<g id="edge23" class="edge"><title>Node95&#45;&gt;Node90</title>
<path fill="none" stroke="midnightblue" d="M442.003,-383.508C448.855,-386.489 455.746,-389.841 462,-393.5 479.734,-403.874 480.141,-412.342 498,-422.5 500.856,-424.125 503.843,-425.677 506.899,-427.154"/>
<polygon fill="midnightblue" stroke="midnightblue" points="505.661,-430.435 516.216,-431.356 508.539,-424.054 505.661,-430.435"/>
</g>
<!-- Node96 -->
<g id="node20" class="node"><title>Node96</title>
<g id="a_node20"><a xlink:href="classobe_1_1_system_1_1_path.html#a096ad4fa7397aa42fd73661b08f50e2a" target="_top" xlink:title="obe::System::Path::\lloadResource">
<polygon fill="white" stroke="black" points="511.5,-284.5 511.5,-314.5 615.5,-314.5 615.5,-284.5 511.5,-284.5"/>
<text text-anchor="start" x="519.5" y="-302.5" font-family="Helvetica,sans-Serif" font-size="10.00">obe::System::Path::</text>
<text text-anchor="middle" x="563.5" y="-291.5" font-family="Helvetica,sans-Serif" font-size="10.00">loadResource</text>
</a>
</g>
</g>
<!-- Node95&#45;&gt;Node96 -->
<g id="edge19" class="edge"><title>Node95&#45;&gt;Node96</title>
<path fill="none" stroke="midnightblue" d="M432.154,-353.418C451.247,-344.724 475.872,-333.724 498,-324.5 502.988,-322.421 508.216,-320.3 513.445,-318.216"/>
<polygon fill="midnightblue" stroke="midnightblue" points="514.788,-321.449 522.806,-314.524 512.219,-314.938 514.788,-321.449"/>
</g>
<!-- Node98 -->
<g id="node22" class="node"><title>Node98</title>
<g id="a_node22"><a xlink:href="namespaceobe_1_1_utils_1_1_vector.html#a636b7f465d67c2bf42a297f221af9cfe" target="_top" xlink:title="Check if a given item is in the given std::vector. ">
<polygon fill="white" stroke="black" points="517.5,-382.5 517.5,-412.5 609.5,-412.5 609.5,-382.5 517.5,-382.5"/>
<text text-anchor="start" x="525.5" y="-400.5" font-family="Helvetica,sans-Serif" font-size="10.00">obe::Utils::Vector</text>
<text text-anchor="middle" x="563.5" y="-389.5" font-family="Helvetica,sans-Serif" font-size="10.00">::isInList</text>
</a>
</g>
</g>
<!-- Node95&#45;&gt;Node98 -->
<g id="edge22" class="edge"><title>Node95&#45;&gt;Node98</title>
<path fill="none" stroke="midnightblue" d="M462.054,-379.629C477.008,-382.29 492.862,-385.11 507.449,-387.706"/>
<polygon fill="midnightblue" stroke="midnightblue" points="506.86,-391.156 517.319,-389.462 508.086,-384.264 506.86,-391.156"/>
</g>
<!-- Node99 -->
<g id="node23" class="node"><title>Node99</title>
<g id="a_node23"><a xlink:href="classvili_1_1_vili_parser.html#a19dd443cd86f2c4943beb5de092aa4c1" target="_top" xlink:title="Access a ComplexNode in the tree using a path with slash&#45;separation (.at(&quot;NodeA/NodeB/NodeC&quot;) for exa...">
<polygon fill="white" stroke="black" points="519,-481 519,-500 608,-500 608,-481 519,-481"/>
<text text-anchor="middle" x="563.5" y="-488" font-family="Helvetica,sans-Serif" font-size="10.00">vili::ViliParser::at</text>
</a>
</g>
</g>
<!-- Node95&#45;&gt;Node99 -->
<g id="edge24" class="edge"><title>Node95&#45;&gt;Node99</title>
<path fill="none" stroke="midnightblue" d="M448.175,-383.544C453.192,-386.345 457.932,-389.638 462,-393.5 489.689,-419.788 469.106,-446.542 498,-471.5 501.473,-474.5 505.4,-477.026 509.561,-479.154"/>
<polygon fill="midnightblue" stroke="midnightblue" points="508.386,-482.459 518.954,-483.205 511.158,-476.031 508.386,-482.459"/>
</g>
<!-- Node101 -->
<g id="node25" class="node"><title>Node101</title>
<g id="a_node25"><a xlink:href="classvili_1_1_complex_node.html#a550584eb0dc76bbcb50e35182ac308cd" target="_top" xlink:title="Get all the Node Ids of the given Type contained in the ComplexNode. ">
<polygon fill="white" stroke="black" points="513.5,-333.5 513.5,-363.5 613.5,-363.5 613.5,-333.5 513.5,-333.5"/>
<text text-anchor="start" x="521.5" y="-351.5" font-family="Helvetica,sans-Serif" font-size="10.00">vili::ComplexNode::</text>
<text text-anchor="middle" x="563.5" y="-340.5" font-family="Helvetica,sans-Serif" font-size="10.00">getAll</text>
</a>
</g>
</g>
<!-- Node95&#45;&gt;Node101 -->
<g id="edge26" class="edge"><title>Node95&#45;&gt;Node101</title>
<path fill="none" stroke="midnightblue" d="M462.054,-360.825C475.575,-359.166 489.834,-357.416 503.225,-355.773"/>
<polygon fill="midnightblue" stroke="midnightblue" points="503.771,-359.232 513.27,-354.541 502.918,-352.285 503.771,-359.232"/>
</g>
<!-- Node102 -->
<g id="node26" class="node"><title>Node102</title>
<g id="a_node26"><a xlink:href="classobe_1_1_system_1_1_path.html#ab3b53b3bb2e98d5e23c35692a52eb66c" target="_top" xlink:title="Returns a new Path which is the current one concatened with the given string. ">
<polygon fill="white" stroke="black" points="503.5,-557 503.5,-576 623.5,-576 623.5,-557 503.5,-557"/>
<text text-anchor="middle" x="563.5" y="-564" font-family="Helvetica,sans-Serif" font-size="10.00">obe::System::Path::add</text>
</a>
</g>
</g>
<!-- Node95&#45;&gt;Node102 -->
<g id="edge27" class="edge"><title>Node95&#45;&gt;Node102</title>
<path fill="none" stroke="midnightblue" d="M449.614,-383.58C454.188,-386.359 458.432,-389.636 462,-393.5 498.622,-433.159 468.689,-464.17 498,-509.5 508.65,-525.971 525.334,-540.535 539.065,-550.819"/>
<polygon fill="midnightblue" stroke="midnightblue" points="537.407,-553.938 547.569,-556.935 541.494,-548.255 537.407,-553.938"/>
</g>
<!-- Node96&#45;&gt;Node85 -->
<g id="edge21" class="edge"><title>Node96&#45;&gt;Node85</title>
<path fill="none" stroke="midnightblue" d="M615.765,-296.259C636.01,-294.979 659.379,-293.502 680.259,-292.182"/>
<polygon fill="midnightblue" stroke="midnightblue" points="680.525,-295.672 690.284,-291.548 680.083,-288.686 680.525,-295.672"/>
</g>
<!-- Node97 -->
<g id="node21" class="node"><title>Node97</title>
<g id="a_node21"><a xlink:href="namespaceobe_1_1_utils_1_1_file.html#a1095626f5495edc7b8692073dd25cceb" target="_top" xlink:title="Check if the file at the given path exists. ">
<polygon fill="white" stroke="black" points="677,-323 677,-342 802,-342 802,-323 677,-323"/>
<text text-anchor="middle" x="739.5" y="-330" font-family="Helvetica,sans-Serif" font-size="10.00">obe::Utils::File::fileExists</text>
</a>
</g>
</g>
<!-- Node96&#45;&gt;Node97 -->
<g id="edge20" class="edge"><title>Node96&#45;&gt;Node97</title>
<path fill="none" stroke="midnightblue" d="M615.765,-309.223C635.317,-312.931 657.784,-317.192 678.108,-321.046"/>
<polygon fill="midnightblue" stroke="midnightblue" points="677.724,-324.536 688.201,-322.961 679.029,-317.658 677.724,-324.536"/>
</g>
<!-- Node100 -->
<g id="node24" class="node"><title>Node100</title>
<g id="a_node24"><a xlink:href="namespacevili_1_1_functions_1_1_string.html#ad7421099a2ab911f64f06d89abc7d7cf" target="_top" xlink:title="vili::Functions::String\l::extract">
<polygon fill="white" stroke="black" points="686,-475.5 686,-505.5 793,-505.5 793,-475.5 686,-475.5"/>
<text text-anchor="start" x="694" y="-493.5" font-family="Helvetica,sans-Serif" font-size="10.00">vili::Functions::String</text>
<text text-anchor="middle" x="739.5" y="-482.5" font-family="Helvetica,sans-Serif" font-size="10.00">::extract</text>
</a>
</g>
</g>
<!-- Node99&#45;&gt;Node100 -->
<g id="edge25" class="edge"><title>Node99&#45;&gt;Node100</title>
<path fill="none" stroke="midnightblue" d="M608.408,-490.5C628.837,-490.5 653.507,-490.5 675.848,-490.5"/>
<polygon fill="midnightblue" stroke="midnightblue" points="675.925,-494 685.925,-490.5 675.925,-487 675.925,-494"/>
</g>
<!-- Node103 -->
<g id="node27" class="node"><title>Node103</title>
<g id="a_node27"><a xlink:href="classobe_1_1_system_1_1_path.html#afce5029aa92ba41d0f201f1ac67a21e0" target="_top" xlink:title="Default constructor of Path. ">
<polygon fill="white" stroke="black" points="677,-557 677,-576 802,-576 802,-557 677,-557"/>
<text text-anchor="middle" x="739.5" y="-564" font-family="Helvetica,sans-Serif" font-size="10.00">obe::System::Path::Path</text>
</a>
</g>
</g>
<!-- Node102&#45;&gt;Node103 -->
<g id="edge28" class="edge"><title>Node102&#45;&gt;Node103</title>
<path fill="none" stroke="midnightblue" d="M623.894,-566.5C637.6,-566.5 652.325,-566.5 666.502,-566.5"/>
<polygon fill="midnightblue" stroke="midnightblue" points="666.705,-570 676.705,-566.5 666.705,-563 666.705,-570"/>
</g>
<!-- Node104&#45;&gt;Node85 -->
<g id="edge31" class="edge"><title>Node104&#45;&gt;Node85</title>
<path fill="none" stroke="midnightblue" d="M462.073,-243.652C524.376,-253.76 619.256,-269.154 680.065,-279.019"/>
<polygon fill="midnightblue" stroke="midnightblue" points="679.832,-282.527 690.264,-280.674 680.954,-275.618 679.832,-282.527"/>
</g>
<!-- Node104&#45;&gt;Node90 -->
<g id="edge32" class="edge"><title>Node104&#45;&gt;Node90</title>
<path fill="none" stroke="midnightblue" d="M408.591,-248.73C421.125,-269.926 444.181,-309.646 462,-344.5 479.38,-378.496 469.993,-396.55 498,-422.5 499.479,-423.87 501.043,-425.164 502.675,-426.386"/>
<polygon fill="midnightblue" stroke="midnightblue" points="501.006,-429.473 511.316,-431.911 504.777,-423.575 501.006,-429.473"/>
</g>
<!-- Node105 -->
<g id="node29" class="node"><title>Node105</title>
<g id="a_node29"><a xlink:href="classobe_1_1_animation_1_1_animation.html#a43bee4799871d1c9e47ffe438f875782" target="_top" xlink:title="Get the Animation Status. ">
<polygon fill="white" stroke="black" points="498,-196.5 498,-226.5 629,-226.5 629,-196.5 498,-196.5"/>
<text text-anchor="start" x="506" y="-214.5" font-family="Helvetica,sans-Serif" font-size="10.00">obe::Animation::Animation</text>
<text text-anchor="middle" x="563.5" y="-203.5" font-family="Helvetica,sans-Serif" font-size="10.00">::getAnimationStatus</text>
</a>
</g>
</g>
<!-- Node104&#45;&gt;Node105 -->
<g id="edge33" class="edge"><title>Node104&#45;&gt;Node105</title>
<path fill="none" stroke="midnightblue" d="M462.054,-225.057C470.507,-223.916 479.248,-222.736 487.886,-221.571"/>
<polygon fill="midnightblue" stroke="midnightblue" points="488.512,-225.018 497.954,-220.212 487.575,-218.081 488.512,-225.018"/>
</g>
<!-- Node106 -->
<g id="node30" class="node"><title>Node106</title>
<g id="a_node30"><a xlink:href="classobe_1_1_animation_1_1_animation.html#a163d69319c82e90bfea4ea0b9768306e" target="_top" xlink:title="Resets the Animation (Unselect current AnimationGroup and restart AnimationCode) ">
<polygon fill="white" stroke="black" points="498,-98.5 498,-128.5 629,-128.5 629,-98.5 498,-98.5"/>
<text text-anchor="start" x="506" y="-116.5" font-family="Helvetica,sans-Serif" font-size="10.00">obe::Animation::Animation</text>
<text text-anchor="middle" x="563.5" y="-105.5" font-family="Helvetica,sans-Serif" font-size="10.00">::reset</text>
</a>
</g>
</g>
<!-- Node104&#45;&gt;Node106 -->
<g id="edge34" class="edge"><title>Node104&#45;&gt;Node106</title>
<path fill="none" stroke="midnightblue" d="M449.304,-218.454C453.881,-215.901 458.213,-212.937 462,-209.5 488.495,-185.458 471.38,-161.404 498,-137.5 499.314,-136.32 500.691,-135.196 502.12,-134.126"/>
<polygon fill="midnightblue" stroke="midnightblue" points="504.259,-136.912 510.787,-128.567 500.48,-131.02 504.259,-136.912"/>
</g>
<!-- Node107 -->
<g id="node31" class="node"><title>Node107</title>
<g id="a_node31"><a xlink:href="classobe_1_1_animation_1_1_animation.html#af197b177144ff76951ff7fb8745b5e44" target="_top" xlink:title="Get the name of the Animation to call when the AnimationStatus of the Animation is equal to Animation...">
<polygon fill="white" stroke="black" points="498,-49.5 498,-79.5 629,-79.5 629,-49.5 498,-49.5"/>
<text text-anchor="start" x="506" y="-67.5" font-family="Helvetica,sans-Serif" font-size="10.00">obe::Animation::Animation</text>
<text text-anchor="middle" x="563.5" y="-56.5" font-family="Helvetica,sans-Serif" font-size="10.00">::getCalledAnimation</text>
</a>
</g>
</g>
<!-- Node104&#45;&gt;Node107 -->
<g id="edge35" class="edge"><title>Node104&#45;&gt;Node107</title>
<path fill="none" stroke="midnightblue" d="M451.155,-218.363C455.145,-215.844 458.842,-212.912 462,-209.5 500.108,-168.32 459.678,-129.481 498,-88.5 498.895,-87.5428 499.832,-86.6235 500.805,-85.7407"/>
<polygon fill="midnightblue" stroke="midnightblue" points="503.003,-88.4674 508.895,-79.6623 498.798,-82.8711 503.003,-88.4674"/>
</g>
<!-- Node108 -->
<g id="node32" class="node"><title>Node108</title>
<g id="a_node32"><a xlink:href="classobe_1_1_animation_1_1_animation.html#aae247711ecb729409e436e7a40448088" target="_top" xlink:title="Updates the Animation (Updates the current AnimationGroup, executes the AnimationCode) ...">
<polygon fill="white" stroke="black" points="498,-147.5 498,-177.5 629,-177.5 629,-147.5 498,-147.5"/>
<text text-anchor="start" x="506" y="-165.5" font-family="Helvetica,sans-Serif" font-size="10.00">obe::Animation::Animation</text>
<text text-anchor="middle" x="563.5" y="-154.5" font-family="Helvetica,sans-Serif" font-size="10.00">::update</text>
</a>
</g>
</g>
<!-- Node104&#45;&gt;Node108 -->
<g id="edge36" class="edge"><title>Node104&#45;&gt;Node108</title>
<path fill="none" stroke="midnightblue" d="M442.362,-218.365C449.034,-215.632 455.775,-212.643 462,-209.5 478.949,-200.942 481.007,-194.969 498,-186.5 501.509,-184.751 505.178,-183.056 508.908,-181.431"/>
<polygon fill="midnightblue" stroke="midnightblue" points="510.366,-184.615 518.251,-177.539 507.674,-178.153 510.366,-184.615"/>
</g>
<!-- Node109 -->
<g id="node33" class="node"><title>Node109</title>
<g id="a_node33"><a xlink:href="namespaceobe_1_1_time.html#a8ae76b1e66dea054aced3ab86ecb6d3f" target="_top" xlink:title="Get the amount of milliseconds elapsed since Epoch. ">
<polygon fill="white" stroke="black" points="665,-195 665,-214 814,-214 814,-195 665,-195"/>
<text text-anchor="middle" x="739.5" y="-202" font-family="Helvetica,sans-Serif" font-size="10.00">obe::Time::getTickSinceEpoch</text>
</a>
</g>
</g>
<!-- Node108&#45;&gt;Node109 -->
<g id="edge37" class="edge"><title>Node108&#45;&gt;Node109</title>
<path fill="none" stroke="midnightblue" d="M626.827,-177.544C647.337,-182.495 669.843,-187.928 689.242,-192.61"/>
<polygon fill="midnightblue" stroke="midnightblue" points="688.535,-196.04 699.077,-194.984 690.177,-189.235 688.535,-196.04"/>
</g>
<!-- Node110 -->
<g id="node34" class="node"><title>Node110</title>
<g id="a_node34"><a xlink:href="namespaceobe_1_1_utils_1_1_string.html#ad9d5afbd60c8e3c6894ad5c782de001a" target="_top" xlink:title="Replace all the occurences of search to replace in the string subject in place. ">
<polygon fill="white" stroke="black" points="695,-145.5 695,-175.5 784,-175.5 784,-145.5 695,-145.5"/>
<text text-anchor="start" x="703" y="-163.5" font-family="Helvetica,sans-Serif" font-size="10.00">obe::Utils::String</text>
<text text-anchor="middle" x="739.5" y="-152.5" font-family="Helvetica,sans-Serif" font-size="10.00">::replaceInPlace</text>
</a>
</g>
</g>
<!-- Node108&#45;&gt;Node110 -->
<g id="edge38" class="edge"><title>Node108&#45;&gt;Node110</title>
<path fill="none" stroke="midnightblue" d="M629.291,-161.755C647.545,-161.545 667.197,-161.32 684.73,-161.118"/>
<polygon fill="midnightblue" stroke="midnightblue" points="684.823,-164.617 694.782,-161.003 684.742,-157.618 684.823,-164.617"/>
</g>
<!-- Node111 -->
<g id="node35" class="node"><title>Node111</title>
<g id="a_node35"><a xlink:href="namespaceobe_1_1_utils_1_1_string.html#ad648e63a60e1fce71a321037fbee4e30" target="_top" xlink:title="Replace all the occurences of search to replace in the string subject. ">
<polygon fill="white" stroke="black" points="857.5,-145.5 857.5,-175.5 946.5,-175.5 946.5,-145.5 857.5,-145.5"/>
<text text-anchor="start" x="865.5" y="-163.5" font-family="Helvetica,sans-Serif" font-size="10.00">obe::Utils::String</text>
<text text-anchor="middle" x="902" y="-152.5" font-family="Helvetica,sans-Serif" font-size="10.00">::replace</text>
</a>
</g>
</g>
<!-- Node110&#45;&gt;Node111 -->
<g id="edge39" class="edge"><title>Node110&#45;&gt;Node111</title>
<path fill="none" stroke="midnightblue" d="M784.357,-160.5C803.81,-160.5 826.883,-160.5 847.352,-160.5"/>
<polygon fill="midnightblue" stroke="midnightblue" points="847.474,-164 857.474,-160.5 847.474,-157 847.474,-164"/>
</g>
<!-- Node113 -->
<g id="node37" class="node"><title>Node113</title>
<g id="a_node37"><a xlink:href="classobe_1_1_animation_1_1_animation.html#a42881a9b7928324532448d43571d7771" target="_top" xlink:title="Get the sf::Texture containing the current texture in the Animation. ">
<polygon fill="white" stroke="black" points="498,-0.5 498,-30.5 629,-30.5 629,-0.5 498,-0.5"/>
<text text-anchor="start" x="506" y="-18.5" font-family="Helvetica,sans-Serif" font-size="10.00">obe::Animation::Animation</text>
<text text-anchor="middle" x="563.5" y="-7.5" font-family="Helvetica,sans-Serif" font-size="10.00">::getTexture</text>
</a>
</g>
</g>
<!-- Node112&#45;&gt;Node113 -->
<g id="edge41" class="edge"><title>Node112&#45;&gt;Node113</title>
<path fill="none" stroke="midnightblue" d="M409.46,-169.309C433.26,-133.085 491.909,-44.2778 498,-39.5 499.757,-38.122 501.601,-36.8172 503.51,-35.5824"/>
<polygon fill="midnightblue" stroke="midnightblue" points="505.279,-38.6028 512.229,-30.6061 501.809,-32.5232 505.279,-38.6028"/>
</g>
<!-- Node118&#45;&gt;Node104 -->
<g id="edge47" class="edge"><title>Node118&#45;&gt;Node104</title>
<path fill="none" stroke="midnightblue" d="M297.909,-233.5C306.597,-233.5 315.733,-233.5 324.801,-233.5"/>
<polygon fill="midnightblue" stroke="midnightblue" points="324.983,-237 334.983,-233.5 324.983,-230 324.983,-237"/>
</g>
<!-- Node118&#45;&gt;Node112 -->
<g id="edge50" class="edge"><title>Node118&#45;&gt;Node112</title>
<path fill="none" stroke="midnightblue" d="M291.999,-218.399C307.436,-213.438 324.759,-207.873 340.835,-202.707"/>
<polygon fill="midnightblue" stroke="midnightblue" points="342.206,-205.943 350.656,-199.552 340.064,-199.279 342.206,-205.943"/>
</g>
<!-- Node119 -->
<g id="node43" class="node"><title>Node119</title>
<g id="a_node43"><a xlink:href="classobe_1_1_animation_1_1_animator.html#ad710964804f5673b13e3628590f93665" target="_top" xlink:title="Return if the Texture changed since the last call to getTexture() ">
<polygon fill="white" stroke="black" points="335,-49.5 335,-79.5 462,-79.5 462,-49.5 335,-49.5"/>
<text text-anchor="start" x="343" y="-67.5" font-family="Helvetica,sans-Serif" font-size="10.00">obe::Animation::Animator</text>
<text text-anchor="middle" x="398.5" y="-56.5" font-family="Helvetica,sans-Serif" font-size="10.00">::textureChanged</text>
</a>
</g>
</g>
<!-- Node118&#45;&gt;Node119 -->
<g id="edge48" class="edge"><title>Node118&#45;&gt;Node119</title>
<path fill="none" stroke="midnightblue" d="M285.701,-218.433C290.427,-215.826 294.985,-212.855 299,-209.5 304.522,-204.885 355.679,-127.897 382.004,-88.0287"/>
<polygon fill="midnightblue" stroke="midnightblue" points="384.935,-89.9418 387.521,-79.6672 379.092,-86.087 384.935,-89.9418"/>
</g>
<!-- Node119&#45;&gt;Node113 -->
<g id="edge49" class="edge"><title>Node119&#45;&gt;Node113</title>
<path fill="none" stroke="midnightblue" d="M449.735,-49.3986C466.391,-44.3917 485.1,-38.7676 502.419,-33.561"/>
<polygon fill="midnightblue" stroke="midnightblue" points="503.861,-36.7823 512.43,-30.5516 501.846,-30.0787 503.861,-36.7823"/>
</g>
</g>
</svg>
