<?xml version="1.0" encoding="UTF-8" standalone="no"?>
<!DOCTYPE svg PUBLIC "-//W3C//DTD SVG 1.1//EN"
 "http://www.w3.org/Graphics/SVG/1.1/DTD/svg11.dtd">
<!-- Generated by graphviz version 2.38.0 (20140413.2041)
 -->
<!-- Title: obe::Script::DataBridge::complexNodeToLuaTable Pages: 1 -->
<!--zoomable 181 -->
<svg id="main" version="1.1" xmlns="http://www.w3.org/2000/svg" xmlns:xlink="http://www.w3.org/1999/xlink" xml:space="preserve" onload="init(evt)">
<style type="text/css"><![CDATA[
.edge:hover path { stroke: red; }
.edge:hover polygon { stroke: red; fill: red; }
.edge path { stroke: white; }
.edge polygon { stroke: white; fill: white; }
.node polygon { fill: white; }
]]></style>
<script type="text/javascript"><![CDATA[
var edges = document.getElementsByTagName('g');
if (edges && edges.length) {
  for (var i=0;i<edges.length;i++) {
    if (edges[i].id.substr(0,4)=='edge') {
      edges[i].setAttribute('class','edge');
    }
  }
}
]]></script>
        <defs>
                <circle id="rim" cx="0" cy="0" r="7"/>
                <circle id="rim2" cx="0" cy="0" r="3.5"/>
                <g id="zoomPlus">
                        <use xlink:href="#rim" fill="#404040">
                                <set attributeName="fill" to="#808080" begin="zoomplus.mouseover" end="zoomplus.mouseout"/>
                        </use>
                        <path d="M-4,0h8M0,-4v8" fill="none" stroke="white" stroke-width="1.5" pointer-events="none"/>
                </g>
                <g id="zoomMin">
                        <use xlink:href="#rim" fill="#404040">
                                <set attributeName="fill" to="#808080" begin="zoomminus.mouseover" end="zoomminus.mouseout"/>
                        </use>
                        <path d="M-4,0h8" fill="none" stroke="white" stroke-width="1.5" pointer-events="none"/>
                </g>
                <g id="dirArrow">
                        <path fill="none" stroke="white" stroke-width="1.5" d="M0,-3.0v7 M-2.5,-0.5L0,-3.0L2.5,-0.5"/>
                </g>
               <g id="resetDef">
                       <use xlink:href="#rim2" fill="#404040">
                               <set attributeName="fill" to="#808080" begin="reset.mouseover" end="reset.mouseout"/>
                       </use>
               </g>
        </defs>

<script type="text/javascript">
var viewWidth = 1594;
var viewHeight = 181;
var sectionId = 'dynsection-3';
</script>
<script xlink:href="svgpan.js"/>
<svg id="graph" class="graph">
<g id="viewport">
<title>obe::Script::DataBridge::complexNodeToLuaTable</title>
<!-- Node66 -->
<g id="node1" class="node"><title>Node66</title>
<polygon fill="#bfbfbf" stroke="black" points="0,-60.1113 0,-90.1113 131,-90.1113 131,-60.1113 0,-60.1113"/>
<text text-anchor="start" x="8" y="-78.1113" font-family="Helvetica,sans-Serif" font-size="10.00">obe::Script::DataBridge</text>
<text text-anchor="middle" x="65.5" y="-67.1113" font-family="Helvetica,sans-Serif" font-size="10.00">::complexNodeToLuaTable</text>
</g>
<!-- Node67 -->
<g id="node2" class="node"><title>Node67</title>
<g id="a_node2"><a xlink:href="namespaceobe_1_1_script_1_1_data_bridge.html#a7861dbbae848d140daac164976c457dd" target="_top" xlink:title="obe::Script::DataBridge\l::dataToLua">
<polygon fill="none" stroke="black" points="167,-60.1113 167,-90.1113 285,-90.1113 285,-60.1113 167,-60.1113"/>
<text text-anchor="start" x="175" y="-78.1113" font-family="Helvetica,sans-Serif" font-size="10.00">obe::Script::DataBridge</text>
<text text-anchor="middle" x="226" y="-67.1113" font-family="Helvetica,sans-Serif" font-size="10.00">::dataToLua</text>
</a>
</g>
</g>
<!-- Node66&#45;&gt;Node67 -->
<g id="edge1" class="edge"><title>Node66&#45;&gt;Node67</title>
<path fill="none" stroke="midnightblue" d="M141.665,-75.1113C150.105,-75.1113 158.608,-75.1113 166.788,-75.1113"/>
<polygon fill="midnightblue" stroke="midnightblue" points="141.425,-71.6114 131.425,-75.1113 141.425,-78.6114 141.425,-71.6114"/>
</g>
<!-- Node68 -->
<g id="node3" class="node"><title>Node68</title>
<g id="a_node3"><a xlink:href="classobe_1_1_script_1_1_game_object_database.html#af02e95fef12a2aebd29cb9c4b64a89db" target="_top" xlink:title="Applies the Requirements to a GameObject using a Requires ComplexNode. ">
<polygon fill="none" stroke="black" points="321,-60.1113 321,-90.1113 487,-90.1113 487,-60.1113 321,-60.1113"/>
<text text-anchor="start" x="329" y="-78.1113" font-family="Helvetica,sans-Serif" font-size="10.00">obe::Script::GameObjectDatabase</text>
<text text-anchor="middle" x="404" y="-67.1113" font-family="Helvetica,sans-Serif" font-size="10.00">::ApplyRequirements</text>
</a>
</g>
</g>
<!-- Node67&#45;&gt;Node68 -->
<g id="edge2" class="edge"><title>Node67&#45;&gt;Node68</title>
<path fill="none" stroke="midnightblue" d="M295.184,-75.1113C303.558,-75.1113 312.185,-75.1113 320.739,-75.1113"/>
<polygon fill="midnightblue" stroke="midnightblue" points="295.117,-71.6114 285.117,-75.1113 295.117,-78.6114 295.117,-71.6114"/>
</g>
<!-- Node69 -->
<g id="node4" class="node"><title>Node69</title>
<g id="a_node4"><a xlink:href="namespaceobe_1_1_editor.html#af8c2ea92f8d718d85f019f9a27a91262" target="_top" xlink:title="Builds an Object through Parameters. ">
<polygon fill="none" stroke="black" points="523,-38.1113 523,-68.1113 642,-68.1113 642,-38.1113 523,-38.1113"/>
<text text-anchor="start" x="531" y="-56.1113" font-family="Helvetica,sans-Serif" font-size="10.00">obe::Editor::buildObject</text>
<text text-anchor="middle" x="582.5" y="-45.1113" font-family="Helvetica,sans-Serif" font-size="10.00">ThroughRequire</text>
</a>
</g>
</g>
<!-- Node68&#45;&gt;Node69 -->
<g id="edge3" class="edge"><title>Node68&#45;&gt;Node69</title>
<path fill="none" stroke="midnightblue" d="M497.244,-63.6134C505.926,-62.5313 514.556,-61.4556 522.797,-60.4284"/>
<polygon fill="midnightblue" stroke="midnightblue" points="496.54,-60.174 487.049,-64.8841 497.406,-67.1203 496.54,-60.174"/>
</g>
<!-- Node76 -->
<g id="node11" class="node"><title>Node76</title>
<g id="a_node11"><a xlink:href="classobe_1_1_scene_1_1_scene.html#a385bccf95deb10358169dffe5547e567" target="_top" xlink:title="Loads the Scene from a .map.vili file. ">
<polygon fill="none" stroke="black" points="856,-82.1113 856,-112.111 962,-112.111 962,-82.1113 856,-82.1113"/>
<text text-anchor="start" x="864" y="-100.111" font-family="Helvetica,sans-Serif" font-size="10.00">obe::Scene::Scene::</text>
<text text-anchor="middle" x="909" y="-89.1113" font-family="Helvetica,sans-Serif" font-size="10.00">loadFromFile</text>
</a>
</g>
</g>
<!-- Node68&#45;&gt;Node76 -->
<g id="edge11" class="edge"><title>Node68&#45;&gt;Node76</title>
<path fill="none" stroke="midnightblue" d="M497.522,-79.1579C602.836,-83.7642 771.188,-91.1274 855.827,-94.8294"/>
<polygon fill="midnightblue" stroke="midnightblue" points="497.359,-75.6476 487.216,-78.7072 497.053,-82.6409 497.359,-75.6476"/>
</g>
<!-- Node70 -->
<g id="node5" class="node"><title>Node70</title>
<g id="a_node5"><a xlink:href="namespaceobe_1_1_editor.html#a28799f83f6d2fc2c4fe20479e69fb720" target="_top" xlink:title="Builds the RequiresPanel that will transmit Init parameters to the GameObject. ">
<polygon fill="none" stroke="black" points="678,-38.1113 678,-68.1113 806,-68.1113 806,-38.1113 678,-38.1113"/>
<text text-anchor="start" x="686" y="-56.1113" font-family="Helvetica,sans-Serif" font-size="10.00">obe::Editor::buildRequires</text>
<text text-anchor="middle" x="742" y="-45.1113" font-family="Helvetica,sans-Serif" font-size="10.00">ObjectTab</text>
</a>
</g>
</g>
<!-- Node69&#45;&gt;Node70 -->
<g id="edge4" class="edge"><title>Node69&#45;&gt;Node70</title>
<path fill="none" stroke="midnightblue" d="M652.365,-53.1113C660.826,-53.1113 669.443,-53.1113 677.814,-53.1113"/>
<polygon fill="midnightblue" stroke="midnightblue" points="652.147,-49.6114 642.147,-53.1113 652.147,-56.6114 652.147,-49.6114"/>
</g>
<!-- Node71 -->
<g id="node6" class="node"><title>Node71</title>
<g id="a_node6"><a xlink:href="namespaceobe_1_1_editor.html#a97c53e73ef3b12081baff754032596e9" target="_top" xlink:title="Builds the Editor Object Tab. ">
<polygon fill="none" stroke="black" points="842,-21.6113 842,-40.6113 976,-40.6113 976,-21.6113 842,-21.6113"/>
<text text-anchor="middle" x="909" y="-28.6113" font-family="Helvetica,sans-Serif" font-size="10.00">obe::Editor::buildObjectTab</text>
</a>
</g>
</g>
<!-- Node70&#45;&gt;Node71 -->
<g id="edge5" class="edge"><title>Node70&#45;&gt;Node71</title>
<path fill="none" stroke="midnightblue" d="M816.242,-43.3456C824.764,-42.2094 833.42,-41.0553 841.839,-39.9327"/>
<polygon fill="midnightblue" stroke="midnightblue" points="815.771,-39.8774 806.321,-44.6684 816.696,-46.816 815.771,-39.8774"/>
</g>
<!-- Node72 -->
<g id="node7" class="node"><title>Node72</title>
<g id="a_node7"><a xlink:href="namespaceobe_1_1_editor_1_1_g_u_i.html#a1daea0dffefb4df9eb22870d7477bcf0" target="_top" xlink:title="obe::Editor::GUI::buildEditor\lObjectsMenu">
<polygon fill="none" stroke="black" points="1012,-5.11127 1012,-35.1113 1150,-35.1113 1150,-5.11127 1012,-5.11127"/>
<text text-anchor="start" x="1020" y="-23.1113" font-family="Helvetica,sans-Serif" font-size="10.00">obe::Editor::GUI::buildEditor</text>
<text text-anchor="middle" x="1081" y="-12.1113" font-family="Helvetica,sans-Serif" font-size="10.00">ObjectsMenu</text>
</a>
</g>
</g>
<!-- Node71&#45;&gt;Node72 -->
<g id="edge6" class="edge"><title>Node71&#45;&gt;Node72</title>
<path fill="none" stroke="midnightblue" d="M986.421,-26.1664C994.854,-25.6207 1003.4,-25.0677 1011.73,-24.5291"/>
<polygon fill="midnightblue" stroke="midnightblue" points="985.966,-22.6884 976.213,-26.8269 986.418,-29.6738 985.966,-22.6884"/>
</g>
<!-- Node73 -->
<g id="node8" class="node"><title>Node73</title>
<g id="a_node8"><a xlink:href="namespaceobe_1_1_editor.html#a9009207671e71dccb68a31ea2362e9ef" target="_top" xlink:title="Starts the map edition. ">
<polygon fill="none" stroke="black" points="1207.5,-13.6113 1207.5,-32.6113 1311.5,-32.6113 1311.5,-13.6113 1207.5,-13.6113"/>
<text text-anchor="middle" x="1259.5" y="-20.6113" font-family="Helvetica,sans-Serif" font-size="10.00">obe::Editor::editMap</text>
</a>
</g>
</g>
<!-- Node72&#45;&gt;Node73 -->
<g id="edge7" class="edge"><title>Node72&#45;&gt;Node73</title>
<path fill="none" stroke="midnightblue" d="M1160.59,-21.4471C1176.48,-21.7171 1192.78,-21.9942 1207.42,-22.243"/>
<polygon fill="midnightblue" stroke="midnightblue" points="1160.3,-17.9417 1150.24,-21.2711 1160.18,-24.9407 1160.3,-17.9417"/>
</g>
<!-- Node74 -->
<g id="node9" class="node"><title>Node74</title>
<g id="a_node9"><a xlink:href="namespaceobe_1_1_modes.html#a6a8b08eee511d4895c4da96d4ba223a6" target="_top" xlink:title="Starts the development Menu where you can starts other menus from. ">
<polygon fill="none" stroke="black" points="1374,-22.6113 1374,-41.6113 1507,-41.6113 1507,-22.6113 1374,-22.6113"/>
<text text-anchor="middle" x="1440.5" y="-29.6113" font-family="Helvetica,sans-Serif" font-size="10.00">obe::Modes::startDevMenu</text>
</a>
</g>
</g>
<!-- Node73&#45;&gt;Node74 -->
<g id="edge8" class="edge"><title>Node73&#45;&gt;Node74</title>
<path fill="none" stroke="midnightblue" d="M1321.99,-26.203C1338.71,-27.0434 1356.87,-27.9567 1373.81,-28.8084"/>
<polygon fill="midnightblue" stroke="midnightblue" points="1321.96,-22.697 1311.79,-25.6903 1321.61,-29.6881 1321.96,-22.697"/>
</g>
<!-- Node75 -->
<g id="node10" class="node"><title>Node75</title>
<g id="a_node10"><a xlink:href="_ob_engine_8cpp.html#a3c04138a5bfe5d72780bb7e82a18e627" target="_top" xlink:title="main">
<polygon fill="none" stroke="black" points="1548,-41.6113 1548,-60.6113 1586,-60.6113 1586,-41.6113 1548,-41.6113"/>
<text text-anchor="middle" x="1567" y="-48.6113" font-family="Helvetica,sans-Serif" font-size="10.00">main</text>
</a>
</g>
</g>
<!-- Node73&#45;&gt;Node75 -->
<g id="edge10" class="edge"><title>Node73&#45;&gt;Node75</title>
<path fill="none" stroke="midnightblue" d="M1309.4,-11.5359C1361.05,-1.504 1444.24,8.34138 1512,-13.1113 1529.49,-18.6472 1546.21,-32.107 1556.29,-41.4233"/>
<polygon fill="midnightblue" stroke="midnightblue" points="1308.61,-8.12418 1299.5,-13.5355 1310,-14.9855 1308.61,-8.12418"/>
</g>
<!-- Node74&#45;&gt;Node75 -->
<g id="edge9" class="edge"><title>Node74&#45;&gt;Node75</title>
<path fill="none" stroke="midnightblue" d="M1514.19,-43.2041C1526.64,-45.1048 1538.52,-46.9181 1547.76,-48.3275"/>
<polygon fill="midnightblue" stroke="midnightblue" points="1514.53,-39.7157 1504.11,-41.6669 1513.47,-46.6356 1514.53,-39.7157"/>
</g>
<!-- Node76&#45;&gt;Node73 -->
<g id="edge12" class="edge"><title>Node76&#45;&gt;Node73</title>
<path fill="none" stroke="midnightblue" d="M972.108,-83.9233C1041.54,-69.1796 1152.28,-45.6653 1213.73,-32.6175"/>
<polygon fill="midnightblue" stroke="midnightblue" points="971.229,-80.5319 962.174,-86.0327 972.683,-87.3792 971.229,-80.5319"/>
</g>
<!-- Node77 -->
<g id="node12" class="node"><title>Node77</title>
<g id="a_node12"><a xlink:href="classobe_1_1_scene_1_1_scene.html#a99bd0a38bd93c1ca105c34bb04776f47" target="_top" xlink:title="Updates all elements in the Scene. ">
<polygon fill="none" stroke="black" points="1028,-93.1113 1028,-123.111 1134,-123.111 1134,-93.1113 1028,-93.1113"/>
<text text-anchor="start" x="1036" y="-111.111" font-family="Helvetica,sans-Serif" font-size="10.00">obe::Scene::Scene::</text>
<text text-anchor="middle" x="1081" y="-100.111" font-family="Helvetica,sans-Serif" font-size="10.00">update</text>
</a>
</g>
</g>
<!-- Node76&#45;&gt;Node77 -->
<g id="edge13" class="edge"><title>Node76&#45;&gt;Node77</title>
<path fill="none" stroke="midnightblue" d="M972.587,-101.161C990.731,-102.335 1010.34,-103.604 1027.78,-104.732"/>
<polygon fill="midnightblue" stroke="midnightblue" points="972.598,-97.6545 962.393,-100.501 972.146,-104.64 972.598,-97.6545"/>
</g>
<!-- Node81 -->
<g id="node16" class="node"><title>Node81</title>
<g id="a_node16"><a xlink:href="namespaceobe_1_1_scene.html#ac23b5fc14866394c89a820ce6badc130" target="_top" xlink:title="obe::Scene::loadWorldLib">
<polygon fill="none" stroke="black" points="1017,-145.611 1017,-164.611 1145,-164.611 1145,-145.611 1017,-145.611"/>
<text text-anchor="middle" x="1081" y="-152.611" font-family="Helvetica,sans-Serif" font-size="10.00">obe::Scene::loadWorldLib</text>
</a>
</g>
</g>
<!-- Node76&#45;&gt;Node81 -->
<g id="edge20" class="edge"><title>Node76&#45;&gt;Node81</title>
<path fill="none" stroke="midnightblue" d="M963.221,-115.423C978.925,-120.813 996.15,-126.711 1012,-132.111 1024.98,-136.532 1039.36,-141.4 1051.54,-145.515"/>
<polygon fill="midnightblue" stroke="midnightblue" points="964.26,-112.079 953.665,-112.141 961.986,-118.699 964.26,-112.079"/>
</g>
<!-- Node78 -->
<g id="node13" class="node"><title>Node78</title>
<g id="a_node13"><a xlink:href="namespaceobe_1_1_bindings_1_1_scene_bindings.html#af7c6cb8cc46286eba7ddbe55ffe7d296" target="_top" xlink:title="obe::Bindings::SceneBindings\l::LoadScene">
<polygon fill="none" stroke="black" points="1186,-93.1113 1186,-123.111 1333,-123.111 1333,-93.1113 1186,-93.1113"/>
<text text-anchor="start" x="1194" y="-111.111" font-family="Helvetica,sans-Serif" font-size="10.00">obe::Bindings::SceneBindings</text>
<text text-anchor="middle" x="1259.5" y="-100.111" font-family="Helvetica,sans-Serif" font-size="10.00">::LoadScene</text>
</a>
</g>
</g>
<!-- Node77&#45;&gt;Node78 -->
<g id="edge14" class="edge"><title>Node77&#45;&gt;Node78</title>
<path fill="none" stroke="midnightblue" d="M1144.14,-108.111C1157.65,-108.111 1172.07,-108.111 1185.95,-108.111"/>
<polygon fill="midnightblue" stroke="midnightblue" points="1144,-104.611 1134,-108.111 1144,-111.611 1144,-104.611"/>
</g>
<!-- Node80 -->
<g id="node15" class="node"><title>Node80</title>
<g id="a_node15"><a xlink:href="namespaceobe_1_1_modes.html#a5f4a1008892030350b06282b8dee1a89" target="_top" xlink:title="Start the game by loading the boot.lua file in one of the MountedPaths. ">
<polygon fill="none" stroke="black" points="1200,-54.6113 1200,-73.6113 1319,-73.6113 1319,-54.6113 1200,-54.6113"/>
<text text-anchor="middle" x="1259.5" y="-61.6113" font-family="Helvetica,sans-Serif" font-size="10.00">obe::Modes::startGame</text>
</a>
</g>
</g>
<!-- Node77&#45;&gt;Node80 -->
<g id="edge17" class="edge"><title>Node77&#45;&gt;Node80</title>
<path fill="none" stroke="midnightblue" d="M1143.94,-92.6703C1169.38,-86.3287 1198.03,-79.1869 1220.31,-73.6315"/>
<polygon fill="midnightblue" stroke="midnightblue" points="1142.86,-89.3328 1134,-95.1478 1144.55,-96.1249 1142.86,-89.3328"/>
</g>
<!-- Node79 -->
<g id="node14" class="node"><title>Node79</title>
<g id="a_node14"><a xlink:href="namespaceobe_1_1_bindings.html#a41d33207a0199f125c75a0f70a4a3ba8" target="_top" xlink:title="To call when the engine starts, indexes all Lua bindings. ">
<polygon fill="none" stroke="black" points="1369,-98.6113 1369,-117.611 1512,-117.611 1512,-98.6113 1369,-98.6113"/>
<text text-anchor="middle" x="1440.5" y="-105.611" font-family="Helvetica,sans-Serif" font-size="10.00">obe::Bindings::IndexBindings</text>
</a>
</g>
</g>
<!-- Node78&#45;&gt;Node79 -->
<g id="edge15" class="edge"><title>Node78&#45;&gt;Node79</title>
<path fill="none" stroke="midnightblue" d="M1343.1,-108.111C1351.72,-108.111 1360.42,-108.111 1368.88,-108.111"/>
<polygon fill="midnightblue" stroke="midnightblue" points="1343.05,-104.611 1333.05,-108.111 1343.05,-111.611 1343.05,-104.611"/>
</g>
<!-- Node79&#45;&gt;Node75 -->
<g id="edge16" class="edge"><title>Node79&#45;&gt;Node75</title>
<path fill="none" stroke="midnightblue" d="M1483.96,-95.3481C1493.35,-92.0616 1503.14,-88.2656 1512,-84.1113 1526.33,-77.3962 1541.62,-67.7942 1552.26,-60.6777"/>
<polygon fill="midnightblue" stroke="midnightblue" points="1482.73,-92.0685 1474.38,-98.582 1484.97,-98.7011 1482.73,-92.0685"/>
</g>
<!-- Node80&#45;&gt;Node74 -->
<g id="edge18" class="edge"><title>Node80&#45;&gt;Node74</title>
<path fill="none" stroke="midnightblue" d="M1323.58,-52.8348C1344.03,-49.1786 1366.5,-45.1609 1386.17,-41.6443"/>
<polygon fill="midnightblue" stroke="midnightblue" points="1322.95,-49.3916 1313.72,-54.5969 1324.18,-56.2823 1322.95,-49.3916"/>
</g>
<!-- Node80&#45;&gt;Node75 -->
<g id="edge19" class="edge"><title>Node80&#45;&gt;Node75</title>
<path fill="none" stroke="midnightblue" d="M1329.24,-61.1863C1400.13,-58.1694 1506.08,-53.6611 1548,-51.8773"/>
<polygon fill="midnightblue" stroke="midnightblue" points="1328.88,-57.698 1319.04,-61.6201 1329.18,-64.6917 1328.88,-57.698"/>
</g>
<!-- Node82 -->
<g id="node17" class="node"><title>Node82</title>
<g id="a_node17"><a xlink:href="namespaceobe_1_1_scene.html#ae5cbcc3278d9115d603e5024dec9136e" target="_top" xlink:title="obe::Scene::loadWorldScript\lEngineBaseLib">
<polygon fill="none" stroke="black" points="1189,-142.111 1189,-172.111 1330,-172.111 1330,-142.111 1189,-142.111"/>
<text text-anchor="start" x="1197" y="-160.111" font-family="Helvetica,sans-Serif" font-size="10.00">obe::Scene::loadWorldScript</text>
<text text-anchor="middle" x="1259.5" y="-149.111" font-family="Helvetica,sans-Serif" font-size="10.00">EngineBaseLib</text>
</a>
</g>
</g>
<!-- Node81&#45;&gt;Node82 -->
<g id="edge21" class="edge"><title>Node81&#45;&gt;Node82</title>
<path fill="none" stroke="midnightblue" d="M1155.3,-155.942C1166.4,-156.068 1177.82,-156.197 1188.84,-156.322"/>
<polygon fill="midnightblue" stroke="midnightblue" points="1155.26,-152.441 1145.22,-155.828 1155.18,-159.441 1155.26,-152.441"/>
</g>
<!-- Node83 -->
<g id="node18" class="node"><title>Node83</title>
<g id="a_node18"><a xlink:href="classobe_1_1_scene_1_1_scene.html#a6671ed54f3898e54a2814d58ec8ffec5" target="_top" xlink:title="Creates a new Scene. ">
<polygon fill="none" stroke="black" points="1387.5,-142.111 1387.5,-172.111 1493.5,-172.111 1493.5,-142.111 1387.5,-142.111"/>
<text text-anchor="start" x="1395.5" y="-160.111" font-family="Helvetica,sans-Serif" font-size="10.00">obe::Scene::Scene::</text>
<text text-anchor="middle" x="1440.5" y="-149.111" font-family="Helvetica,sans-Serif" font-size="10.00">Scene</text>
</a>
</g>
</g>
<!-- Node82&#45;&gt;Node83 -->
<g id="edge22" class="edge"><title>Node82&#45;&gt;Node83</title>
<path fill="none" stroke="midnightblue" d="M1340.58,-157.111C1356.48,-157.111 1372.78,-157.111 1387.44,-157.111"/>
<polygon fill="midnightblue" stroke="midnightblue" points="1340.22,-153.611 1330.22,-157.111 1340.22,-160.611 1340.22,-153.611"/>
</g>
</g>
</svg>
        <g id="navigator" transform="translate(0 0)" fill="#404254">
                <rect fill="#f2f5e9" fill-opacity="0.5" stroke="#606060" stroke-width=".5" x="0" y="0" width="60" height="60"/>
                <use id="zoomplus" xlink:href="#zoomPlus" x="17" y="9" onmousedown="handleZoom(evt,'in')"/>
                <use id="zoomminus" xlink:href="#zoomMin" x="42" y="9" onmousedown="handleZoom(evt,'out')"/>
                <use id="reset" xlink:href="#resetDef" x="30" y="36" onmousedown="handleReset()"/>
                <g id="arrowUp" xlink:href="#dirArrow" transform="translate(30 24)" onmousedown="handlePan(0,-1)">
                  <use xlink:href="#rim" fill="#404040">
                        <set attributeName="fill" to="#808080" begin="arrowUp.mouseover" end="arrowUp.mouseout"/>
                  </use>
                  <path fill="none" stroke="white" stroke-width="1.5" d="M0,-3.0v7 M-2.5,-0.5L0,-3.0L2.5,-0.5"/>
                </g>
                <g id="arrowRight" xlink:href="#dirArrow" transform="rotate(90) translate(36 -43)" onmousedown="handlePan(1,0)">
                  <use xlink:href="#rim" fill="#404040">
                        <set attributeName="fill" to="#808080" begin="arrowRight.mouseover" end="arrowRight.mouseout"/>
                  </use>
                  <path fill="none" stroke="white" stroke-width="1.5" d="M0,-3.0v7 M-2.5,-0.5L0,-3.0L2.5,-0.5"/>
                </g>
                <g id="arrowDown" xlink:href="#dirArrow" transform="rotate(180) translate(-30 -48)" onmousedown="handlePan(0,1)">
                  <use xlink:href="#rim" fill="#404040">
                        <set attributeName="fill" to="#808080" begin="arrowDown.mouseover" end="arrowDown.mouseout"/>
                  </use>
                  <path fill="none" stroke="white" stroke-width="1.5" d="M0,-3.0v7 M-2.5,-0.5L0,-3.0L2.5,-0.5"/>
                </g>
                <g id="arrowLeft" xlink:href="#dirArrow" transform="rotate(270) translate(-36 17)" onmousedown="handlePan(-1,0)">
                  <use xlink:href="#rim" fill="#404040">
                        <set attributeName="fill" to="#808080" begin="arrowLeft.mouseover" end="arrowLeft.mouseout"/>
                  </use>
                  <path fill="none" stroke="white" stroke-width="1.5" d="M0,-3.0v7 M-2.5,-0.5L0,-3.0L2.5,-0.5"/>
                </g>
        </g>
        <svg viewBox="0 0 15 15" width="100%" height="30px" preserveAspectRatio="xMaxYMin meet">
         <g id="arrow_out" transform="scale(0.3 0.3)">
          <a xlink:href="namespaceobe_1_1_script_1_1_data_bridge_ade4cfeb90d28b7ccfe24a6d607fd979c_icgraph_org.svg" target="_base">
           <rect id="button" ry="5" rx="5" y="6" x="6" height="38" width="38"
                fill="#f2f5e9" fill-opacity="0.5" stroke="#606060" stroke-width="1.0"/>
           <path id="arrow"
             d="M 11.500037,31.436501 C 11.940474,20.09759 22.043105,11.32322 32.158766,21.979434 L 37.068811,17.246167 C 37.068811,17.246167 37.088388,32 37.088388,32 L 22.160133,31.978069 C 22.160133,31.978069 26.997745,27.140456 26.997745,27.140456 C 18.528582,18.264221 13.291696,25.230495 11.500037,31.436501 z"
             style="fill:#404040;"/>
          </a>
         </g>
        </svg>
</svg>
