<?xml version="1.0" encoding="UTF-8" standalone="no"?>
<!DOCTYPE svg PUBLIC "-//W3C//DTD SVG 1.1//EN"
 "http://www.w3.org/Graphics/SVG/1.1/DTD/svg11.dtd">
<!-- Generated by graphviz version 2.38.0 (20140413.2041)
 -->
<!-- Title: obe::Functions::Vector::getSubVector Pages: 1 -->
<svg width="861pt" height="197pt"
 viewBox="0.00 0.00 861.00 197.00" xmlns="http://www.w3.org/2000/svg" xmlns:xlink="http://www.w3.org/1999/xlink">
<g id="graph0" class="graph" transform="scale(1 1) rotate(0) translate(4 193)">
<title>obe::Functions::Vector::getSubVector</title>
<!-- Node21 -->
<g id="node1" class="node"><title>Node21</title>
<polygon fill="#bfbfbf" stroke="black" points="0,-82.5 0,-112.5 116,-112.5 116,-82.5 0,-82.5"/>
<text text-anchor="start" x="8" y="-100.5" font-family="Helvetica,sans-Serif" font-size="10.00">obe::Functions::Vector</text>
<text text-anchor="middle" x="58" y="-89.5" font-family="Helvetica,sans-Serif" font-size="10.00">::getSubVector</text>
</g>
<!-- Node22 -->
<g id="node2" class="node"><title>Node22</title>
<g id="a_node2"><a xlink:href="namespaceobe_1_1_script.html#a4e6ee77032cf7f66544f9b08464a60b7" target="_top" xlink:title="obe::Script::loadLib">
<polygon fill="white" stroke="black" points="152,-88 152,-107 253,-107 253,-88 152,-88"/>
<text text-anchor="middle" x="202.5" y="-95" font-family="Helvetica,sans-Serif" font-size="10.00">obe::Script::loadLib</text>
</a>
</g>
</g>
<!-- Node21&#45;&gt;Node22 -->
<g id="edge1" class="edge"><title>Node21&#45;&gt;Node22</title>
<path fill="none" stroke="midnightblue" d="M126.166,-97.5C134.765,-97.5 143.443,-97.5 151.698,-97.5"/>
<polygon fill="midnightblue" stroke="midnightblue" points="126.139,-94.0001 116.139,-97.5 126.139,-101 126.139,-94.0001"/>
</g>
<!-- Node23 -->
<g id="node3" class="node"><title>Node23</title>
<g id="a_node3"><a xlink:href="namespaceobe_1_1_script.html#a5e992c0efb0543e7c934bc1065f08b01" target="_top" xlink:title="obe::Script::loadLibBridge">
<polygon fill="white" stroke="black" points="294.5,-164 294.5,-183 422.5,-183 422.5,-164 294.5,-164"/>
<text text-anchor="middle" x="358.5" y="-171" font-family="Helvetica,sans-Serif" font-size="10.00">obe::Script::loadLibBridge</text>
</a>
</g>
</g>
<!-- Node22&#45;&gt;Node23 -->
<g id="edge2" class="edge"><title>Node22&#45;&gt;Node23</title>
<path fill="none" stroke="midnightblue" d="M223.149,-113.245C239.824,-125.936 264.827,-143.434 289,-154.5 297.08,-158.198 306.033,-161.319 314.729,-163.895"/>
<polygon fill="midnightblue" stroke="midnightblue" points="225.283,-110.471 215.237,-107.105 220.992,-116.001 225.283,-110.471"/>
</g>
<!-- Node26 -->
<g id="node6" class="node"><title>Node26</title>
<g id="a_node6"><a xlink:href="namespaceobe_1_1_script.html#aad6ef67388e6d16eb01853f208da410f" target="_top" xlink:title="obe::Script::loadBaseLib">
<polygon fill="white" stroke="black" points="297,-126 297,-145 420,-145 420,-126 297,-126"/>
<text text-anchor="middle" x="358.5" y="-133" font-family="Helvetica,sans-Serif" font-size="10.00">obe::Script::loadBaseLib</text>
</a>
</g>
</g>
<!-- Node22&#45;&gt;Node26 -->
<g id="edge5" class="edge"><title>Node22&#45;&gt;Node26</title>
<path fill="none" stroke="midnightblue" d="M252.294,-109.54C273.808,-114.849 298.732,-120.999 318.919,-125.98"/>
<polygon fill="midnightblue" stroke="midnightblue" points="252.908,-106.087 242.361,-107.089 251.231,-112.883 252.908,-106.087"/>
</g>
<!-- Node27 -->
<g id="node7" class="node"><title>Node27</title>
<g id="a_node7"><a xlink:href="namespaceobe_1_1_modes.html#a1e38c0d9a2ca0230f0de79c298f53ab9" target="_top" xlink:title="A mode that will start the Toolkit. ">
<polygon fill="white" stroke="black" points="464,-96 464,-115 610,-115 610,-96 464,-96"/>
<text text-anchor="middle" x="537" y="-103" font-family="Helvetica,sans-Serif" font-size="10.00">obe::Modes::startToolkitMode</text>
</a>
</g>
</g>
<!-- Node22&#45;&gt;Node27 -->
<g id="edge10" class="edge"><title>Node22&#45;&gt;Node27</title>
<path fill="none" stroke="midnightblue" d="M263.437,-98.9421C319.645,-100.294 403.783,-102.319 463.692,-103.76"/>
<polygon fill="midnightblue" stroke="midnightblue" points="263.36,-95.4393 253.279,-98.6977 263.191,-102.437 263.36,-95.4393"/>
</g>
<!-- Node30 -->
<g id="node10" class="node"><title>Node30</title>
<g id="a_node10"><a xlink:href="classobe_1_1_world_1_1_world.html#a5bd621e3fd9293d949ad0c669cee6838" target="_top" xlink:title="obe::World::World::\lWorld">
<polygon fill="white" stroke="black" points="486.5,-27.5 486.5,-57.5 587.5,-57.5 587.5,-27.5 486.5,-27.5"/>
<text text-anchor="start" x="494.5" y="-45.5" font-family="Helvetica,sans-Serif" font-size="10.00">obe::World::World::</text>
<text text-anchor="middle" x="537" y="-34.5" font-family="Helvetica,sans-Serif" font-size="10.00">World</text>
</a>
</g>
</g>
<!-- Node22&#45;&gt;Node30 -->
<g id="edge11" class="edge"><title>Node22&#45;&gt;Node30</title>
<path fill="none" stroke="midnightblue" d="M263.189,-87.6266C326.947,-77.0802 426.845,-60.5558 486.425,-50.7004"/>
<polygon fill="midnightblue" stroke="midnightblue" points="262.573,-84.1808 253.279,-89.2659 263.716,-91.087 262.573,-84.1808"/>
</g>
<!-- Node31 -->
<g id="node11" class="node"><title>Node31</title>
<g id="a_node11"><a xlink:href="namespaceobe_1_1_world.html#afc958184e59524fdf9dc6ba98a1e9a37" target="_top" xlink:title="obe::World::loadWorldScript\lEngineBaseLib">
<polygon fill="white" stroke="black" points="289,-0.5 289,-30.5 428,-30.5 428,-0.5 289,-0.5"/>
<text text-anchor="start" x="297" y="-18.5" font-family="Helvetica,sans-Serif" font-size="10.00">obe::World::loadWorldScript</text>
<text text-anchor="middle" x="358.5" y="-7.5" font-family="Helvetica,sans-Serif" font-size="10.00">EngineBaseLib</text>
</a>
</g>
</g>
<!-- Node22&#45;&gt;Node31 -->
<g id="edge12" class="edge"><title>Node22&#45;&gt;Node31</title>
<path fill="none" stroke="midnightblue" d="M226.637,-82.2687C243.569,-71.4107 267.282,-56.7959 289,-45.5 299.021,-40.2881 310.142,-35.1539 320.458,-30.6464"/>
<polygon fill="midnightblue" stroke="midnightblue" points="224.477,-79.4976 217.983,-87.8694 228.28,-85.3741 224.477,-79.4976"/>
</g>
<!-- Node24 -->
<g id="node4" class="node"><title>Node24</title>
<g id="a_node4"><a xlink:href="namespaceobe_1_1_script.html#a5dc8321da50fd4b5dc2935e4d8c93a4e" target="_top" xlink:title="obe::Script::loadScrGame\lObject">
<polygon fill="white" stroke="black" points="472.5,-158.5 472.5,-188.5 601.5,-188.5 601.5,-158.5 472.5,-158.5"/>
<text text-anchor="start" x="480.5" y="-176.5" font-family="Helvetica,sans-Serif" font-size="10.00">obe::Script::loadScrGame</text>
<text text-anchor="middle" x="537" y="-165.5" font-family="Helvetica,sans-Serif" font-size="10.00">Object</text>
</a>
</g>
</g>
<!-- Node23&#45;&gt;Node24 -->
<g id="edge3" class="edge"><title>Node23&#45;&gt;Node24</title>
<path fill="none" stroke="midnightblue" d="M433.065,-173.5C446.107,-173.5 459.589,-173.5 472.329,-173.5"/>
<polygon fill="midnightblue" stroke="midnightblue" points="432.722,-170 422.722,-173.5 432.722,-177 432.722,-170"/>
</g>
<!-- Node25 -->
<g id="node5" class="node"><title>Node25</title>
<g id="a_node5"><a xlink:href="classobe_1_1_script_1_1_game_object.html#aa0d58bd1ef0fa2fe9f7567729b2d291e" target="_top" xlink:title="obe::Script::GameObject\l::loadGameObject">
<polygon fill="white" stroke="black" points="650,-158.5 650,-188.5 775,-188.5 775,-158.5 650,-158.5"/>
<text text-anchor="start" x="658" y="-176.5" font-family="Helvetica,sans-Serif" font-size="10.00">obe::Script::GameObject</text>
<text text-anchor="middle" x="712.5" y="-165.5" font-family="Helvetica,sans-Serif" font-size="10.00">::loadGameObject</text>
</a>
</g>
</g>
<!-- Node24&#45;&gt;Node25 -->
<g id="edge4" class="edge"><title>Node24&#45;&gt;Node25</title>
<path fill="none" stroke="midnightblue" d="M611.721,-173.5C624.445,-173.5 637.552,-173.5 649.913,-173.5"/>
<polygon fill="midnightblue" stroke="midnightblue" points="611.62,-170 601.62,-173.5 611.62,-177 611.62,-170"/>
</g>
<!-- Node26&#45;&gt;Node27 -->
<g id="edge6" class="edge"><title>Node26&#45;&gt;Node27</title>
<path fill="none" stroke="midnightblue" d="M426.102,-124.18C443.829,-121.166 462.798,-117.942 479.901,-115.035"/>
<polygon fill="midnightblue" stroke="midnightblue" points="425.103,-120.799 415.831,-125.925 426.276,-127.7 425.103,-120.799"/>
</g>
<!-- Node28 -->
<g id="node8" class="node"><title>Node28</title>
<g id="a_node8"><a xlink:href="namespaceobe_1_1_modes.html#a6a8b08eee511d4895c4da96d4ba223a6" target="_top" xlink:title="obe::Modes::startDevMenu">
<polygon fill="white" stroke="black" points="646,-104 646,-123 779,-123 779,-104 646,-104"/>
<text text-anchor="middle" x="712.5" y="-111" font-family="Helvetica,sans-Serif" font-size="10.00">obe::Modes::startDevMenu</text>
</a>
</g>
</g>
<!-- Node27&#45;&gt;Node28 -->
<g id="edge7" class="edge"><title>Node27&#45;&gt;Node28</title>
<path fill="none" stroke="midnightblue" d="M620.118,-109.286C628.716,-109.683 637.375,-110.082 645.755,-110.469"/>
<polygon fill="midnightblue" stroke="midnightblue" points="620.223,-105.788 610.072,-108.823 619.9,-112.78 620.223,-105.788"/>
</g>
<!-- Node29 -->
<g id="node9" class="node"><title>Node29</title>
<g id="a_node9"><a xlink:href="_ob_engine_8cpp.html#a3c04138a5bfe5d72780bb7e82a18e627" target="_top" xlink:title="main">
<polygon fill="white" stroke="black" points="815,-85 815,-104 853,-104 853,-85 815,-85"/>
<text text-anchor="middle" x="834" y="-92" font-family="Helvetica,sans-Serif" font-size="10.00">main</text>
</a>
</g>
</g>
<!-- Node27&#45;&gt;Node29 -->
<g id="edge9" class="edge"><title>Node27&#45;&gt;Node29</title>
<path fill="none" stroke="midnightblue" d="M620.367,-96.2384C629.013,-95.5273 637.68,-94.9226 646,-94.5 707.929,-91.3544 781.543,-92.9026 814.933,-93.8916"/>
<polygon fill="midnightblue" stroke="midnightblue" points="619.909,-92.765 610.249,-97.1177 620.515,-99.7387 619.909,-92.765"/>
</g>
<!-- Node28&#45;&gt;Node29 -->
<g id="edge8" class="edge"><title>Node28&#45;&gt;Node29</title>
<path fill="none" stroke="midnightblue" d="M783.822,-102.319C795.345,-100.487 806.327,-98.7409 814.978,-97.3654"/>
<polygon fill="midnightblue" stroke="midnightblue" points="782.926,-98.9174 773.6,-103.944 784.026,-105.831 782.926,-98.9174"/>
</g>
<!-- Node31&#45;&gt;Node30 -->
<g id="edge13" class="edge"><title>Node31&#45;&gt;Node30</title>
<path fill="none" stroke="midnightblue" d="M438.323,-27.558C454.633,-30.0528 471.376,-32.6142 486.292,-34.8959"/>
<polygon fill="midnightblue" stroke="midnightblue" points="438.659,-24.0687 428.245,-26.0162 437.601,-30.9882 438.659,-24.0687"/>
</g>
</g>
</svg>
