<?xml version="1.0" encoding="UTF-8" standalone="no"?>
<!DOCTYPE svg PUBLIC "-//W3C//DTD SVG 1.1//EN"
 "http://www.w3.org/Graphics/SVG/1.1/DTD/svg11.dtd">
<!-- Generated by graphviz version 2.38.0 (20140413.2041)
 -->
<!-- Title: obe::System::Package::GetPackageLocation Pages: 1 -->
<svg width="416pt" height="186pt"
 viewBox="0.00 0.00 416.00 186.00" xmlns="http://www.w3.org/2000/svg" xmlns:xlink="http://www.w3.org/1999/xlink">
<g id="graph0" class="graph" transform="scale(1 1) rotate(0) translate(4 182)">
<title>obe::System::Package::GetPackageLocation</title>
<!-- Node0 -->
<g id="node1" class="node"><title>Node0</title>
<polygon fill="#bfbfbf" stroke="black" points="0,-97.5 0,-127.5 116,-127.5 116,-97.5 0,-97.5"/>
<text text-anchor="start" x="8" y="-115.5" font-family="Helvetica,sans-Serif" font-size="10.00">obe::System::Package</text>
<text text-anchor="middle" x="58" y="-104.5" font-family="Helvetica,sans-Serif" font-size="10.00">::GetPackageLocation</text>
</g>
<!-- Node1 -->
<g id="node2" class="node"><title>Node1</title>
<g id="a_node2"><a xlink:href="namespaceobe_1_1_system_1_1_package.html#add24fafa3071d024fb622b4be0c083da" target="_top" xlink:title="Get if the Package exists or not. ">
<polygon fill="white" stroke="black" points="152,-134.5 152,-164.5 268,-164.5 268,-134.5 152,-134.5"/>
<text text-anchor="start" x="160" y="-152.5" font-family="Helvetica,sans-Serif" font-size="10.00">obe::System::Package</text>
<text text-anchor="middle" x="210" y="-141.5" font-family="Helvetica,sans-Serif" font-size="10.00">::PackageExists</text>
</a>
</g>
</g>
<!-- Node0&#45;&gt;Node1 -->
<g id="edge1" class="edge"><title>Node0&#45;&gt;Node1</title>
<path fill="none" stroke="midnightblue" d="M116.136,-126.594C124.468,-128.649 133.111,-130.781 141.622,-132.88"/>
<polygon fill="midnightblue" stroke="midnightblue" points="140.978,-136.326 151.525,-135.323 142.655,-129.53 140.978,-136.326"/>
</g>
<!-- Node3 -->
<g id="node4" class="node"><title>Node3</title>
<g id="a_node4"><a xlink:href="classaube_1_1_error_handler.html#a7c8d44a3e7f019646d289950abc5301b" target="_top" xlink:title="Raises an Error loaded in the Aube Error Database (AED) ">
<polygon fill="white" stroke="black" points="161,-61.5 161,-91.5 259,-91.5 259,-61.5 161,-61.5"/>
<text text-anchor="start" x="169" y="-79.5" font-family="Helvetica,sans-Serif" font-size="10.00">aube::ErrorHandler</text>
<text text-anchor="middle" x="210" y="-68.5" font-family="Helvetica,sans-Serif" font-size="10.00">::Raise</text>
</a>
</g>
</g>
<!-- Node0&#45;&gt;Node3 -->
<g id="edge3" class="edge"><title>Node0&#45;&gt;Node3</title>
<path fill="none" stroke="midnightblue" d="M116.136,-98.7872C127.535,-96.0517 139.517,-93.1758 150.946,-90.4329"/>
<polygon fill="midnightblue" stroke="midnightblue" points="151.911,-93.8007 160.818,-88.0636 150.278,-86.994 151.911,-93.8007"/>
</g>
<!-- Node2 -->
<g id="node3" class="node"><title>Node2</title>
<g id="a_node3"><a xlink:href="namespaceobe_1_1_utils_1_1_string.html#a3dd6c64630cb7a8525f6ce804bda8ee6" target="_top" xlink:title="Check if a string contains another one. ">
<polygon fill="white" stroke="black" points="311.5,-147.5 311.5,-177.5 400.5,-177.5 400.5,-147.5 311.5,-147.5"/>
<text text-anchor="start" x="319.5" y="-165.5" font-family="Helvetica,sans-Serif" font-size="10.00">obe::Utils::String</text>
<text text-anchor="middle" x="356" y="-154.5" font-family="Helvetica,sans-Serif" font-size="10.00">::contains</text>
</a>
</g>
</g>
<!-- Node1&#45;&gt;Node2 -->
<g id="edge2" class="edge"><title>Node1&#45;&gt;Node2</title>
<path fill="none" stroke="midnightblue" d="M268.326,-154.675C279.144,-155.652 290.423,-156.67 301.13,-157.637"/>
<polygon fill="midnightblue" stroke="midnightblue" points="300.912,-161.131 311.186,-158.545 301.541,-154.16 300.912,-161.131"/>
</g>
<!-- Node4 -->
<g id="node5" class="node"><title>Node4</title>
<g id="a_node5"><a xlink:href="classaube_1_1_error_message.html#a9184cc96589578f434351c105b0cd5f7" target="_top" xlink:title="Gets the location of the error in the code. ">
<polygon fill="white" stroke="black" points="304,-98.5 304,-128.5 408,-128.5 408,-98.5 304,-98.5"/>
<text text-anchor="start" x="312" y="-116.5" font-family="Helvetica,sans-Serif" font-size="10.00">aube::ErrorMessage</text>
<text text-anchor="middle" x="356" y="-105.5" font-family="Helvetica,sans-Serif" font-size="10.00">::getLocation</text>
</a>
</g>
</g>
<!-- Node3&#45;&gt;Node4 -->
<g id="edge4" class="edge"><title>Node3&#45;&gt;Node4</title>
<path fill="none" stroke="midnightblue" d="M259.351,-88.9234C270.346,-91.7487 282.17,-94.7868 293.627,-97.7305"/>
<polygon fill="midnightblue" stroke="midnightblue" points="293.014,-101.187 303.57,-100.285 294.756,-94.4068 293.014,-101.187"/>
</g>
<!-- Node5 -->
<g id="node6" class="node"><title>Node5</title>
<g id="a_node6"><a xlink:href="classaube_1_1_error_message.html#a07927cb3e2d0712c459cc9e2b5f52696" target="_top" xlink:title="Gets the message displayed by the ErrorMessage when raised. ">
<polygon fill="white" stroke="black" points="304,-49.5 304,-79.5 408,-79.5 408,-49.5 304,-49.5"/>
<text text-anchor="start" x="312" y="-67.5" font-family="Helvetica,sans-Serif" font-size="10.00">aube::ErrorMessage</text>
<text text-anchor="middle" x="356" y="-56.5" font-family="Helvetica,sans-Serif" font-size="10.00">::getMessage</text>
</a>
</g>
</g>
<!-- Node3&#45;&gt;Node5 -->
<g id="edge5" class="edge"><title>Node3&#45;&gt;Node5</title>
<path fill="none" stroke="midnightblue" d="M259.351,-72.4708C270.235,-71.5637 281.931,-70.5891 293.279,-69.6434"/>
<polygon fill="midnightblue" stroke="midnightblue" points="293.895,-73.1043 303.57,-68.7858 293.314,-66.1284 293.895,-73.1043"/>
</g>
<!-- Node6 -->
<g id="node7" class="node"><title>Node6</title>
<g id="a_node7"><a xlink:href="classaube_1_1_error_message.html#a77c2f9b7e93542c958173b52da267989" target="_top" xlink:title="Gets hints that can help the error resolution. ">
<polygon fill="white" stroke="black" points="304,-0.5 304,-30.5 408,-30.5 408,-0.5 304,-0.5"/>
<text text-anchor="start" x="312" y="-18.5" font-family="Helvetica,sans-Serif" font-size="10.00">aube::ErrorMessage</text>
<text text-anchor="middle" x="356" y="-7.5" font-family="Helvetica,sans-Serif" font-size="10.00">::getHints</text>
</a>
</g>
</g>
<!-- Node3&#45;&gt;Node6 -->
<g id="edge6" class="edge"><title>Node3&#45;&gt;Node6</title>
<path fill="none" stroke="midnightblue" d="M246.596,-61.4213C265.721,-53.3197 289.497,-43.248 309.904,-34.6031"/>
<polygon fill="midnightblue" stroke="midnightblue" points="311.472,-37.74 319.315,-30.6166 308.742,-31.2945 311.472,-37.74"/>
</g>
</g>
</svg>
