<?xml version="1.0" encoding="UTF-8" standalone="no"?>
<!DOCTYPE svg PUBLIC "-//W3C//DTD SVG 1.1//EN"
 "http://www.w3.org/Graphics/SVG/1.1/DTD/svg11.dtd">
<!-- Generated by graphviz version 2.38.0 (20140413.2041)
 -->
<!-- Title: obe::Utils::Math::randfloat Pages: 1 -->
<!--zoomable 190 -->
<svg id="main" version="1.1" xmlns="http://www.w3.org/2000/svg" xmlns:xlink="http://www.w3.org/1999/xlink" xml:space="preserve" onload="init(evt)">
<style type="text/css"><![CDATA[
.edge:hover path { stroke: red; }
.edge:hover polygon { stroke: red; fill: red; }
.edge path { stroke: white; }
.edge polygon { stroke: white; fill: white; }
.node polygon { fill: white; }
]]></style>
<script type="text/javascript"><![CDATA[
var edges = document.getElementsByTagName('g');
if (edges && edges.length) {
  for (var i=0;i<edges.length;i++) {
    if (edges[i].id.substr(0,4)=='edge') {
      edges[i].setAttribute('class','edge');
    }
  }
}
]]></script>
        <defs>
                <circle id="rim" cx="0" cy="0" r="7"/>
                <circle id="rim2" cx="0" cy="0" r="3.5"/>
                <g id="zoomPlus">
                        <use xlink:href="#rim" fill="#404040">
                                <set attributeName="fill" to="#808080" begin="zoomplus.mouseover" end="zoomplus.mouseout"/>
                        </use>
                        <path d="M-4,0h8M0,-4v8" fill="none" stroke="white" stroke-width="1.5" pointer-events="none"/>
                </g>
                <g id="zoomMin">
                        <use xlink:href="#rim" fill="#404040">
                                <set attributeName="fill" to="#808080" begin="zoomminus.mouseover" end="zoomminus.mouseout"/>
                        </use>
                        <path d="M-4,0h8" fill="none" stroke="white" stroke-width="1.5" pointer-events="none"/>
                </g>
                <g id="dirArrow">
                        <path fill="none" stroke="white" stroke-width="1.5" d="M0,-3.0v7 M-2.5,-0.5L0,-3.0L2.5,-0.5"/>
                </g>
               <g id="resetDef">
                       <use xlink:href="#rim2" fill="#404040">
                               <set attributeName="fill" to="#808080" begin="reset.mouseover" end="reset.mouseout"/>
                       </use>
               </g>
        </defs>

<script type="text/javascript">
var viewWidth = 1173;
var viewHeight = 190;
var sectionId = 'dynsection-3';
</script>
<script xlink:href="svgpan.js"/>
<svg id="graph" class="graph">
<g id="viewport">
<title>obe::Utils::Math::randfloat</title>
<!-- Node44 -->
<g id="node1" class="node"><title>Node44</title>
<polygon fill="#bfbfbf" stroke="black" points="0,-50 0,-69 128,-69 128,-50 0,-50"/>
<text text-anchor="middle" x="64" y="-57" font-family="Helvetica,sans-Serif" font-size="10.00">obe::Utils::Math::randfloat</text>
</g>
<!-- Node45 -->
<g id="node2" class="node"><title>Node45</title>
<g id="a_node2"><a xlink:href="namespaceobe_1_1_script_1_1_core_lib.html#a370267169d9423accfb45268eedd9fe0" target="_top" xlink:title="obe::Script::CoreLib\l::loadUtils">
<polygon fill="none" stroke="black" points="164,-44.5 164,-74.5 267,-74.5 267,-44.5 164,-44.5"/>
<text text-anchor="start" x="172" y="-62.5" font-family="Helvetica,sans-Serif" font-size="10.00">obe::Script::CoreLib</text>
<text text-anchor="middle" x="215.5" y="-51.5" font-family="Helvetica,sans-Serif" font-size="10.00">::loadUtils</text>
</a>
</g>
</g>
<!-- Node44&#45;&gt;Node45 -->
<g id="edge1" class="edge"><title>Node44&#45;&gt;Node45</title>
<path fill="none" stroke="midnightblue" d="M138.404,-59.5C146.956,-59.5 155.532,-59.5 163.684,-59.5"/>
<polygon fill="midnightblue" stroke="midnightblue" points="138.401,-56.0001 128.401,-59.5 138.401,-63.0001 138.401,-56.0001"/>
</g>
<!-- Node46 -->
<g id="node3" class="node"><title>Node46</title>
<g id="a_node3"><a xlink:href="namespaceobe_1_1_script.html#abdb81ec0976f1097cef6711415b8fac3" target="_top" xlink:title="obe::Script::loadCoreLib">
<polygon fill="none" stroke="black" points="303,-50 303,-69 424,-69 424,-50 303,-50"/>
<text text-anchor="middle" x="363.5" y="-57" font-family="Helvetica,sans-Serif" font-size="10.00">obe::Script::loadCoreLib</text>
</a>
</g>
</g>
<!-- Node45&#45;&gt;Node46 -->
<g id="edge2" class="edge"><title>Node45&#45;&gt;Node46</title>
<path fill="none" stroke="midnightblue" d="M277.328,-59.5C285.785,-59.5 294.467,-59.5 302.902,-59.5"/>
<polygon fill="midnightblue" stroke="midnightblue" points="277.154,-56.0001 267.154,-59.5 277.154,-63.0001 277.154,-56.0001"/>
</g>
<!-- Node47 -->
<g id="node4" class="node"><title>Node47</title>
<g id="a_node4"><a xlink:href="namespaceobe_1_1_script.html#a4e6ee77032cf7f66544f9b08464a60b7" target="_top" xlink:title="obe::Script::loadLib">
<polygon fill="none" stroke="black" points="461,-94 461,-113 562,-113 562,-94 461,-94"/>
<text text-anchor="middle" x="511.5" y="-101" font-family="Helvetica,sans-Serif" font-size="10.00">obe::Script::loadLib</text>
</a>
</g>
</g>
<!-- Node46&#45;&gt;Node47 -->
<g id="edge3" class="edge"><title>Node46&#45;&gt;Node47</title>
<path fill="none" stroke="midnightblue" d="M405.761,-71.9347C428.959,-78.926 457.468,-87.5177 478.882,-93.9713"/>
<polygon fill="midnightblue" stroke="midnightblue" points="406.764,-68.5818 396.18,-69.0473 404.745,-75.2841 406.764,-68.5818"/>
</g>
<!-- Node57 -->
<g id="node14" class="node"><title>Node57</title>
<g id="a_node14"><a xlink:href="namespaceobe_1_1_script_1_1_core_lib.html#a07d6c11bbb082bc45bdba50d97965c00" target="_top" xlink:title="obe::Script::CoreLib\l::loadCollision">
<polygon fill="none" stroke="black" points="460,-44.5 460,-74.5 563,-74.5 563,-44.5 460,-44.5"/>
<text text-anchor="start" x="468" y="-62.5" font-family="Helvetica,sans-Serif" font-size="10.00">obe::Script::CoreLib</text>
<text text-anchor="middle" x="511.5" y="-51.5" font-family="Helvetica,sans-Serif" font-size="10.00">::loadCollision</text>
</a>
</g>
</g>
<!-- Node46&#45;&gt;Node57 -->
<g id="edge16" class="edge"><title>Node46&#45;&gt;Node57</title>
<path fill="none" stroke="midnightblue" d="M434.356,-52.7556C442.966,-52.7251 451.634,-52.8199 459.88,-53.0402"/>
<polygon fill="midnightblue" stroke="midnightblue" points="434.272,-49.2561 424.305,-52.849 434.337,-56.2558 434.272,-49.2561"/>
</g>
<!-- Node48 -->
<g id="node5" class="node"><title>Node48</title>
<g id="a_node5"><a xlink:href="namespaceobe_1_1_modes.html#a1e38c0d9a2ca0230f0de79c298f53ab9" target="_top" xlink:title="A mode that will start the Toolkit. ">
<polygon fill="none" stroke="black" points="776,-143 776,-162 922,-162 922,-143 776,-143"/>
<text text-anchor="middle" x="849" y="-150" font-family="Helvetica,sans-Serif" font-size="10.00">obe::Modes::startToolkitMode</text>
</a>
</g>
</g>
<!-- Node47&#45;&gt;Node48 -->
<g id="edge4" class="edge"><title>Node47&#45;&gt;Node48</title>
<path fill="none" stroke="midnightblue" d="M530.349,-119.842C546.799,-133.711 572.594,-152.582 599,-160.5 668.808,-181.432 754.595,-171.343 805.083,-162.001"/>
<polygon fill="midnightblue" stroke="midnightblue" points="532.485,-117.06 522.646,-113.13 527.886,-122.338 532.485,-117.06"/>
</g>
<!-- Node51 -->
<g id="node8" class="node"><title>Node51</title>
<g id="a_node8"><a xlink:href="classobe_1_1_scene_1_1_world.html#a32964e659e18cb32094d9f8ceea30aa3" target="_top" xlink:title="obe::Scene::World::\lWorld">
<polygon fill="none" stroke="black" points="797,-77.5 797,-107.5 901,-107.5 901,-77.5 797,-77.5"/>
<text text-anchor="start" x="805" y="-95.5" font-family="Helvetica,sans-Serif" font-size="10.00">obe::Scene::World::</text>
<text text-anchor="middle" x="849" y="-84.5" font-family="Helvetica,sans-Serif" font-size="10.00">World</text>
</a>
</g>
</g>
<!-- Node47&#45;&gt;Node51 -->
<g id="edge8" class="edge"><title>Node47&#45;&gt;Node51</title>
<path fill="none" stroke="midnightblue" d="M572.331,-101.538C636.27,-99.442 736.555,-96.1539 796.916,-94.1749"/>
<polygon fill="midnightblue" stroke="midnightblue" points="571.884,-98.051 562.004,-101.877 572.114,-105.047 571.884,-98.051"/>
</g>
<!-- Node52 -->
<g id="node9" class="node"><title>Node52</title>
<g id="a_node9"><a xlink:href="namespaceobe_1_1_scene.html#ae5cbcc3278d9115d603e5024dec9136e" target="_top" xlink:title="obe::Scene::loadWorldScript\lEngineBaseLib">
<polygon fill="none" stroke="black" points="599,-44.5 599,-74.5 740,-74.5 740,-44.5 599,-44.5"/>
<text text-anchor="start" x="607" y="-62.5" font-family="Helvetica,sans-Serif" font-size="10.00">obe::Scene::loadWorldScript</text>
<text text-anchor="middle" x="669.5" y="-51.5" font-family="Helvetica,sans-Serif" font-size="10.00">EngineBaseLib</text>
</a>
</g>
</g>
<!-- Node47&#45;&gt;Node52 -->
<g id="edge9" class="edge"><title>Node47&#45;&gt;Node52</title>
<path fill="none" stroke="midnightblue" d="M556.151,-91.1882C574.437,-86.0306 595.871,-79.9852 615.086,-74.5654"/>
<polygon fill="midnightblue" stroke="midnightblue" points="555.024,-87.8694 546.35,-93.9527 556.924,-94.6066 555.024,-87.8694"/>
</g>
<!-- Node53 -->
<g id="node10" class="node"><title>Node53</title>
<g id="a_node10"><a xlink:href="namespaceobe_1_1_script.html#a5e992c0efb0543e7c934bc1065f08b01" target="_top" xlink:title="obe::Script::loadLibBridge">
<polygon fill="none" stroke="black" points="605.5,-6 605.5,-25 733.5,-25 733.5,-6 605.5,-6"/>
<text text-anchor="middle" x="669.5" y="-13" font-family="Helvetica,sans-Serif" font-size="10.00">obe::Script::loadLibBridge</text>
</a>
</g>
</g>
<!-- Node47&#45;&gt;Node53 -->
<g id="edge11" class="edge"><title>Node47&#45;&gt;Node53</title>
<path fill="none" stroke="midnightblue" d="M553.912,-89.4024C557.114,-87.6311 560.19,-85.6682 563,-83.5 584.396,-66.9928 576.727,-49.8035 599,-34.5 604.67,-30.604 611.112,-27.505 617.732,-25.0404"/>
<polygon fill="midnightblue" stroke="midnightblue" points="552.13,-86.3769 544.668,-93.8975 555.191,-92.6721 552.13,-86.3769"/>
</g>
<!-- Node56 -->
<g id="node13" class="node"><title>Node56</title>
<g id="a_node13"><a xlink:href="namespaceobe_1_1_script.html#aad6ef67388e6d16eb01853f208da410f" target="_top" xlink:title="obe::Script::loadBaseLib">
<polygon fill="none" stroke="black" points="608,-132 608,-151 731,-151 731,-132 608,-132"/>
<text text-anchor="middle" x="669.5" y="-139" font-family="Helvetica,sans-Serif" font-size="10.00">obe::Script::loadBaseLib</text>
</a>
</g>
</g>
<!-- Node47&#45;&gt;Node56 -->
<g id="edge14" class="edge"><title>Node47&#45;&gt;Node56</title>
<path fill="none" stroke="midnightblue" d="M561.632,-115.468C583.493,-120.793 608.876,-126.976 629.418,-131.98"/>
<polygon fill="midnightblue" stroke="midnightblue" points="562.41,-112.055 551.865,-113.089 560.753,-118.856 562.41,-112.055"/>
</g>
<!-- Node49 -->
<g id="node6" class="node"><title>Node49</title>
<g id="a_node6"><a xlink:href="namespaceobe_1_1_modes.html#a6a8b08eee511d4895c4da96d4ba223a6" target="_top" xlink:title="Starts the development Menu where you can starts other menus from. ">
<polygon fill="none" stroke="black" points="958,-162 958,-181 1091,-181 1091,-162 958,-162"/>
<text text-anchor="middle" x="1024.5" y="-169" font-family="Helvetica,sans-Serif" font-size="10.00">obe::Modes::startDevMenu</text>
</a>
</g>
</g>
<!-- Node48&#45;&gt;Node49 -->
<g id="edge5" class="edge"><title>Node48&#45;&gt;Node49</title>
<path fill="none" stroke="midnightblue" d="M932.118,-161.493C940.716,-162.434 949.375,-163.383 957.755,-164.3"/>
<polygon fill="midnightblue" stroke="midnightblue" points="932.394,-158.002 922.072,-160.393 931.632,-164.961 932.394,-158.002"/>
</g>
<!-- Node50 -->
<g id="node7" class="node"><title>Node50</title>
<g id="a_node7"><a xlink:href="_ob_engine_8cpp.html#a3c04138a5bfe5d72780bb7e82a18e627" target="_top" xlink:title="main">
<polygon fill="none" stroke="black" points="1127,-143 1127,-162 1165,-162 1165,-143 1127,-143"/>
<text text-anchor="middle" x="1146" y="-150" font-family="Helvetica,sans-Serif" font-size="10.00">main</text>
</a>
</g>
</g>
<!-- Node48&#45;&gt;Node50 -->
<g id="edge7" class="edge"><title>Node48&#45;&gt;Node50</title>
<path fill="none" stroke="midnightblue" d="M932.308,-152.5C999.39,-152.5 1088.99,-152.5 1126.87,-152.5"/>
<polygon fill="midnightblue" stroke="midnightblue" points="932.165,-149 922.165,-152.5 932.165,-156 932.165,-149"/>
</g>
<!-- Node49&#45;&gt;Node50 -->
<g id="edge6" class="edge"><title>Node49&#45;&gt;Node50</title>
<path fill="none" stroke="midnightblue" d="M1095.82,-160.319C1107.35,-158.487 1118.33,-156.741 1126.98,-155.365"/>
<polygon fill="midnightblue" stroke="midnightblue" points="1094.93,-156.917 1085.6,-161.944 1096.03,-163.831 1094.93,-156.917"/>
</g>
<!-- Node52&#45;&gt;Node51 -->
<g id="edge10" class="edge"><title>Node52&#45;&gt;Node51</title>
<path fill="none" stroke="midnightblue" d="M749.998,-74.2799C765.939,-77.2436 782.283,-80.2821 796.941,-83.0074"/>
<polygon fill="midnightblue" stroke="midnightblue" points="750.615,-70.8346 740.143,-72.4478 749.335,-77.7167 750.615,-70.8346"/>
</g>
<!-- Node54 -->
<g id="node11" class="node"><title>Node54</title>
<g id="a_node11"><a xlink:href="namespaceobe_1_1_script.html#a5dc8321da50fd4b5dc2935e4d8c93a4e" target="_top" xlink:title="obe::Script::loadScrGame\lObject">
<polygon fill="none" stroke="black" points="784.5,-0.5 784.5,-30.5 913.5,-30.5 913.5,-0.5 784.5,-0.5"/>
<text text-anchor="start" x="792.5" y="-18.5" font-family="Helvetica,sans-Serif" font-size="10.00">obe::Script::loadScrGame</text>
<text text-anchor="middle" x="849" y="-7.5" font-family="Helvetica,sans-Serif" font-size="10.00">Object</text>
</a>
</g>
</g>
<!-- Node53&#45;&gt;Node54 -->
<g id="edge12" class="edge"><title>Node53&#45;&gt;Node54</title>
<path fill="none" stroke="midnightblue" d="M743.737,-15.5C757.171,-15.5 771.096,-15.5 784.226,-15.5"/>
<polygon fill="midnightblue" stroke="midnightblue" points="743.58,-12.0001 733.58,-15.5 743.58,-19.0001 743.58,-12.0001"/>
</g>
<!-- Node55 -->
<g id="node12" class="node"><title>Node55</title>
<g id="a_node12"><a xlink:href="classobe_1_1_script_1_1_game_object.html#aadeac0036d2fe21d523acfd4e9011a23" target="_top" xlink:title="obe::Script::GameObject\l::loadGameObject">
<polygon fill="none" stroke="black" points="962,-0.5 962,-30.5 1087,-30.5 1087,-0.5 962,-0.5"/>
<text text-anchor="start" x="970" y="-18.5" font-family="Helvetica,sans-Serif" font-size="10.00">obe::Script::GameObject</text>
<text text-anchor="middle" x="1024.5" y="-7.5" font-family="Helvetica,sans-Serif" font-size="10.00">::loadGameObject</text>
</a>
</g>
</g>
<!-- Node54&#45;&gt;Node55 -->
<g id="edge13" class="edge"><title>Node54&#45;&gt;Node55</title>
<path fill="none" stroke="midnightblue" d="M923.721,-15.5C936.445,-15.5 949.552,-15.5 961.913,-15.5"/>
<polygon fill="midnightblue" stroke="midnightblue" points="923.62,-12.0001 913.62,-15.5 923.62,-19.0001 923.62,-12.0001"/>
</g>
<!-- Node56&#45;&gt;Node48 -->
<g id="edge15" class="edge"><title>Node56&#45;&gt;Node48</title>
<path fill="none" stroke="midnightblue" d="M741.346,-145.89C752.662,-146.592 764.384,-147.318 775.733,-148.021"/>
<polygon fill="midnightblue" stroke="midnightblue" points="741.286,-142.38 731.089,-145.255 740.853,-149.367 741.286,-142.38"/>
</g>
<!-- Node57&#45;&gt;Node46 -->
<g id="edge17" class="edge"><title>Node57&#45;&gt;Node46</title>
<path fill="none" stroke="midnightblue" d="M449.757,-66.1647C441.342,-66.2828 432.703,-66.2783 424.305,-66.151"/>
<polygon fill="midnightblue" stroke="midnightblue" points="449.953,-69.6616 459.88,-65.9598 449.811,-62.663 449.953,-69.6616"/>
</g>
</g>
</svg>
        <g id="navigator" transform="translate(0 0)" fill="#404254">
                <rect fill="#f2f5e9" fill-opacity="0.5" stroke="#606060" stroke-width=".5" x="0" y="0" width="60" height="60"/>
                <use id="zoomplus" xlink:href="#zoomPlus" x="17" y="9" onmousedown="handleZoom(evt,'in')"/>
                <use id="zoomminus" xlink:href="#zoomMin" x="42" y="9" onmousedown="handleZoom(evt,'out')"/>
                <use id="reset" xlink:href="#resetDef" x="30" y="36" onmousedown="handleReset()"/>
                <g id="arrowUp" xlink:href="#dirArrow" transform="translate(30 24)" onmousedown="handlePan(0,-1)">
                  <use xlink:href="#rim" fill="#404040">
                        <set attributeName="fill" to="#808080" begin="arrowUp.mouseover" end="arrowUp.mouseout"/>
                  </use>
                  <path fill="none" stroke="white" stroke-width="1.5" d="M0,-3.0v7 M-2.5,-0.5L0,-3.0L2.5,-0.5"/>
                </g>
                <g id="arrowRight" xlink:href="#dirArrow" transform="rotate(90) translate(36 -43)" onmousedown="handlePan(1,0)">
                  <use xlink:href="#rim" fill="#404040">
                        <set attributeName="fill" to="#808080" begin="arrowRight.mouseover" end="arrowRight.mouseout"/>
                  </use>
                  <path fill="none" stroke="white" stroke-width="1.5" d="M0,-3.0v7 M-2.5,-0.5L0,-3.0L2.5,-0.5"/>
                </g>
                <g id="arrowDown" xlink:href="#dirArrow" transform="rotate(180) translate(-30 -48)" onmousedown="handlePan(0,1)">
                  <use xlink:href="#rim" fill="#404040">
                        <set attributeName="fill" to="#808080" begin="arrowDown.mouseover" end="arrowDown.mouseout"/>
                  </use>
                  <path fill="none" stroke="white" stroke-width="1.5" d="M0,-3.0v7 M-2.5,-0.5L0,-3.0L2.5,-0.5"/>
                </g>
                <g id="arrowLeft" xlink:href="#dirArrow" transform="rotate(270) translate(-36 17)" onmousedown="handlePan(-1,0)">
                  <use xlink:href="#rim" fill="#404040">
                        <set attributeName="fill" to="#808080" begin="arrowLeft.mouseover" end="arrowLeft.mouseout"/>
                  </use>
                  <path fill="none" stroke="white" stroke-width="1.5" d="M0,-3.0v7 M-2.5,-0.5L0,-3.0L2.5,-0.5"/>
                </g>
        </g>
        <svg viewBox="0 0 15 15" width="100%" height="30px" preserveAspectRatio="xMaxYMin meet">
         <g id="arrow_out" transform="scale(0.3 0.3)">
          <a xlink:href="namespaceobe_1_1_utils_1_1_math_a3bbd8898660b36f9319be7b115c99216_icgraph_org.svg" target="_base">
           <rect id="button" ry="5" rx="5" y="6" x="6" height="38" width="38"
                fill="#f2f5e9" fill-opacity="0.5" stroke="#606060" stroke-width="1.0"/>
           <path id="arrow"
             d="M 11.500037,31.436501 C 11.940474,20.09759 22.043105,11.32322 32.158766,21.979434 L 37.068811,17.246167 C 37.068811,17.246167 37.088388,32 37.088388,32 L 22.160133,31.978069 C 22.160133,31.978069 26.997745,27.140456 26.997745,27.140456 C 18.528582,18.264221 13.291696,25.230495 11.500037,31.436501 z"
             style="fill:#404040;"/>
          </a>
         </g>
        </svg>
</svg>
