<?xml version="1.0" encoding="UTF-8" standalone="no"?>
<!DOCTYPE svg PUBLIC "-//W3C//DTD SVG 1.1//EN"
 "http://www.w3.org/Graphics/SVG/1.1/DTD/svg11.dtd">
<!-- Generated by graphviz version 2.38.0 (20140413.2041)
 -->
<!-- Title: obe::Transform::unitsToString Pages: 1 -->
<svg width="1186pt" height="163pt"
 viewBox="0.00 0.00 1186.00 162.50" xmlns="http://www.w3.org/2000/svg" xmlns:xlink="http://www.w3.org/1999/xlink">
<g id="graph0" class="graph" transform="scale(1 1) rotate(0) translate(4 158.5)">
<title>obe::Transform::unitsToString</title>
<!-- Node55 -->
<g id="node1" class="node"><title>Node55</title>
<polygon fill="#bfbfbf" stroke="black" points="0,-94 0,-113 144,-113 144,-94 0,-94"/>
<text text-anchor="middle" x="72" y="-101" font-family="Helvetica,sans-Serif" font-size="10.00">obe::Transform::unitsToString</text>
</g>
<!-- Node56 -->
<g id="node2" class="node"><title>Node56</title>
<g id="a_node2"><a xlink:href="classobe_1_1_scene_1_1_world.html#a9e5e57178b58edcba37810e6d3395220" target="_top" xlink:title="obe::Scene::World::\lsaveData">
<polygon fill="none" stroke="black" points="195,-110.5 195,-140.5 299,-140.5 299,-110.5 195,-110.5"/>
<text text-anchor="start" x="203" y="-128.5" font-family="Helvetica,sans-Serif" font-size="10.00">obe::Scene::World::</text>
<text text-anchor="middle" x="247" y="-117.5" font-family="Helvetica,sans-Serif" font-size="10.00">saveData</text>
</a>
</g>
</g>
<!-- Node55&#45;&gt;Node56 -->
<g id="edge1" class="edge"><title>Node55&#45;&gt;Node56</title>
<path fill="none" stroke="midnightblue" d="M154.361,-113.847C168.161,-115.601 182.135,-117.378 194.873,-118.998"/>
<polygon fill="midnightblue" stroke="midnightblue" points="154.726,-110.365 144.365,-112.575 153.843,-117.309 154.726,-110.365"/>
</g>
<!-- Node65 -->
<g id="node11" class="node"><title>Node65</title>
<g id="a_node11"><a xlink:href="namespaceobe_1_1_transform.html#a22f1149bf6765e0de4b5fd646de06f7b" target="_top" xlink:title="Display an UnitVector for debug purposes. ">
<polygon fill="none" stroke="black" points="180,-72 180,-91 314,-91 314,-72 180,-72"/>
<text text-anchor="middle" x="247" y="-79" font-family="Helvetica,sans-Serif" font-size="10.00">obe::Transform::operator&lt;&lt;</text>
</a>
</g>
</g>
<!-- Node55&#45;&gt;Node65 -->
<g id="edge14" class="edge"><title>Node55&#45;&gt;Node65</title>
<path fill="none" stroke="midnightblue" d="M154.331,-93.1574C162.864,-92.0723 171.464,-90.9786 179.798,-89.9188"/>
<polygon fill="midnightblue" stroke="midnightblue" points="153.843,-89.6911 144.365,-94.4247 154.726,-96.6352 153.843,-89.6911"/>
</g>
<!-- Node57 -->
<g id="node3" class="node"><title>Node57</title>
<g id="a_node3"><a xlink:href="namespaceobe_1_1_editor.html#a9009207671e71dccb68a31ea2362e9ef" target="_top" xlink:title="obe::Editor::editMap">
<polygon fill="none" stroke="black" points="831,-116 831,-135 935,-135 935,-116 831,-116"/>
<text text-anchor="middle" x="883" y="-123" font-family="Helvetica,sans-Serif" font-size="10.00">obe::Editor::editMap</text>
</a>
</g>
</g>
<!-- Node56&#45;&gt;Node57 -->
<g id="edge2" class="edge"><title>Node56&#45;&gt;Node57</title>
<path fill="none" stroke="midnightblue" d="M309.325,-126.744C410.499,-128.593 618.744,-131.538 795,-128.5 806.635,-128.299 819.142,-127.948 830.944,-127.555"/>
<polygon fill="midnightblue" stroke="midnightblue" points="309.349,-123.244 299.286,-126.558 309.219,-130.243 309.349,-123.244"/>
</g>
<!-- Node60 -->
<g id="node6" class="node"><title>Node60</title>
<g id="a_node6"><a xlink:href="namespaceobe_1_1_scene.html#ac23b5fc14866394c89a820ce6badc130" target="_top" xlink:title="obe::Scene::loadWorldLib">
<polygon fill="none" stroke="black" points="350,-94 350,-113 478,-113 478,-94 350,-94"/>
<text text-anchor="middle" x="414" y="-101" font-family="Helvetica,sans-Serif" font-size="10.00">obe::Scene::loadWorldLib</text>
</a>
</g>
</g>
<!-- Node56&#45;&gt;Node60 -->
<g id="edge6" class="edge"><title>Node56&#45;&gt;Node60</title>
<path fill="none" stroke="midnightblue" d="M309.247,-117.334C322.484,-115.569 336.504,-113.7 349.813,-111.925"/>
<polygon fill="midnightblue" stroke="midnightblue" points="308.752,-113.869 299.303,-118.66 309.677,-120.807 308.752,-113.869"/>
</g>
<!-- Node58 -->
<g id="node4" class="node"><title>Node58</title>
<g id="a_node4"><a xlink:href="namespaceobe_1_1_modes.html#a6a8b08eee511d4895c4da96d4ba223a6" target="_top" xlink:title="obe::Modes::startDevMenu">
<polygon fill="none" stroke="black" points="971,-135 971,-154 1104,-154 1104,-135 971,-135"/>
<text text-anchor="middle" x="1037.5" y="-142" font-family="Helvetica,sans-Serif" font-size="10.00">obe::Modes::startDevMenu</text>
</a>
</g>
</g>
<!-- Node57&#45;&gt;Node58 -->
<g id="edge3" class="edge"><title>Node57&#45;&gt;Node58</title>
<path fill="none" stroke="midnightblue" d="M945.292,-133.136C953.688,-134.182 962.336,-135.26 970.806,-136.315"/>
<polygon fill="midnightblue" stroke="midnightblue" points="945.561,-129.643 935.205,-131.88 944.695,-136.589 945.561,-129.643"/>
</g>
<!-- Node59 -->
<g id="node5" class="node"><title>Node59</title>
<g id="a_node5"><a xlink:href="_ob_engine_8cpp.html#a3c04138a5bfe5d72780bb7e82a18e627" target="_top" xlink:title="main">
<polygon fill="none" stroke="black" points="1140,-116 1140,-135 1178,-135 1178,-116 1140,-116"/>
<text text-anchor="middle" x="1159" y="-123" font-family="Helvetica,sans-Serif" font-size="10.00">main</text>
</a>
</g>
</g>
<!-- Node57&#45;&gt;Node59 -->
<g id="edge5" class="edge"><title>Node57&#45;&gt;Node59</title>
<path fill="none" stroke="midnightblue" d="M945.356,-125.5C1007.86,-125.5 1100.97,-125.5 1139.89,-125.5"/>
<polygon fill="midnightblue" stroke="midnightblue" points="945.216,-122 935.216,-125.5 945.216,-129 945.216,-122"/>
</g>
<!-- Node58&#45;&gt;Node59 -->
<g id="edge4" class="edge"><title>Node58&#45;&gt;Node59</title>
<path fill="none" stroke="midnightblue" d="M1108.82,-133.319C1120.35,-131.487 1131.33,-129.741 1139.98,-128.365"/>
<polygon fill="midnightblue" stroke="midnightblue" points="1107.93,-129.917 1098.6,-134.944 1109.03,-136.831 1107.93,-129.917"/>
</g>
<!-- Node61 -->
<g id="node7" class="node"><title>Node61</title>
<g id="a_node7"><a xlink:href="classobe_1_1_scene_1_1_world.html#a4d38ad643c98bec681e710345aaea681" target="_top" xlink:title="obe::Scene::World::\lcreateGameObject">
<polygon fill="none" stroke="black" points="532.5,-88.5 532.5,-118.5 636.5,-118.5 636.5,-88.5 532.5,-88.5"/>
<text text-anchor="start" x="540.5" y="-106.5" font-family="Helvetica,sans-Serif" font-size="10.00">obe::Scene::World::</text>
<text text-anchor="middle" x="584.5" y="-95.5" font-family="Helvetica,sans-Serif" font-size="10.00">createGameObject</text>
</a>
</g>
</g>
<!-- Node60&#45;&gt;Node61 -->
<g id="edge7" class="edge"><title>Node60&#45;&gt;Node61</title>
<path fill="none" stroke="midnightblue" d="M488.374,-96.8002C503.176,-96.6628 518.433,-96.8073 532.277,-97.2339"/>
<polygon fill="midnightblue" stroke="midnightblue" points="488.173,-93.3026 478.223,-96.9404 488.27,-100.302 488.173,-93.3026"/>
</g>
<!-- Node63 -->
<g id="node9" class="node"><title>Node63</title>
<g id="a_node9"><a xlink:href="namespaceobe_1_1_scene.html#ae5cbcc3278d9115d603e5024dec9136e" target="_top" xlink:title="obe::Scene::loadWorldScript\lEngineBaseLib">
<polygon fill="none" stroke="black" points="514,-0.5 514,-30.5 655,-30.5 655,-0.5 514,-0.5"/>
<text text-anchor="start" x="522" y="-18.5" font-family="Helvetica,sans-Serif" font-size="10.00">obe::Scene::loadWorldScript</text>
<text text-anchor="middle" x="584.5" y="-7.5" font-family="Helvetica,sans-Serif" font-size="10.00">EngineBaseLib</text>
</a>
</g>
</g>
<!-- Node60&#45;&gt;Node63 -->
<g id="edge12" class="edge"><title>Node60&#45;&gt;Node63</title>
<path fill="none" stroke="midnightblue" d="M438.756,-88.4726C458.53,-76.2358 487.612,-58.8618 514,-45.5 524.318,-40.2755 535.754,-35.0979 546.322,-30.5524"/>
<polygon fill="midnightblue" stroke="midnightblue" points="436.743,-85.6028 430.109,-93.8635 440.446,-91.5429 436.743,-85.6028"/>
</g>
<!-- Node61&#45;&gt;Node60 -->
<g id="edge11" class="edge"><title>Node61&#45;&gt;Node60</title>
<path fill="none" stroke="midnightblue" d="M522.074,-110.025C507.798,-110.313 492.575,-110.325 478.223,-110.06"/>
<polygon fill="midnightblue" stroke="midnightblue" points="522.369,-113.519 532.277,-109.766 522.191,-106.521 522.369,-113.519"/>
</g>
<!-- Node62 -->
<g id="node8" class="node"><title>Node62</title>
<g id="a_node8"><a xlink:href="classobe_1_1_scene_1_1_world.html#a362d242e7751481b0086ca9ed131920f" target="_top" xlink:title="obe::Scene::World::\lloadFromFile">
<polygon fill="none" stroke="black" points="691,-88.5 691,-118.5 795,-118.5 795,-88.5 691,-88.5"/>
<text text-anchor="start" x="699" y="-106.5" font-family="Helvetica,sans-Serif" font-size="10.00">obe::Scene::World::</text>
<text text-anchor="middle" x="743" y="-95.5" font-family="Helvetica,sans-Serif" font-size="10.00">loadFromFile</text>
</a>
</g>
</g>
<!-- Node61&#45;&gt;Node62 -->
<g id="edge8" class="edge"><title>Node61&#45;&gt;Node62</title>
<path fill="none" stroke="midnightblue" d="M647.131,-103.5C661.631,-103.5 676.93,-103.5 690.908,-103.5"/>
<polygon fill="midnightblue" stroke="midnightblue" points="646.744,-100 636.744,-103.5 646.744,-107 646.744,-100"/>
</g>
<!-- Node62&#45;&gt;Node57 -->
<g id="edge9" class="edge"><title>Node62&#45;&gt;Node57</title>
<path fill="none" stroke="midnightblue" d="M805.496,-113.304C813.872,-114.639 822.398,-115.998 830.571,-117.301"/>
<polygon fill="midnightblue" stroke="midnightblue" points="805.812,-109.81 795.386,-111.692 804.71,-116.723 805.812,-109.81"/>
</g>
<!-- Node62&#45;&gt;Node60 -->
<g id="edge10" class="edge"><title>Node62&#45;&gt;Node60</title>
<path fill="none" stroke="midnightblue" d="M686.623,-85.8375C676.218,-83.2022 665.354,-80.902 655,-79.5 592.9,-71.0915 576.224,-72.0654 514,-79.5 490.996,-82.2486 465.611,-88.4687 446.306,-93.8877"/>
<polygon fill="midnightblue" stroke="midnightblue" points="685.862,-89.2569 696.426,-88.4484 687.664,-82.4927 685.862,-89.2569"/>
</g>
<!-- Node64 -->
<g id="node10" class="node"><title>Node64</title>
<g id="a_node10"><a xlink:href="classobe_1_1_scene_1_1_world.html#a32964e659e18cb32094d9f8ceea30aa3" target="_top" xlink:title="obe::Scene::World::\lWorld">
<polygon fill="none" stroke="black" points="691,-0.5 691,-30.5 795,-30.5 795,-0.5 691,-0.5"/>
<text text-anchor="start" x="699" y="-18.5" font-family="Helvetica,sans-Serif" font-size="10.00">obe::Scene::World::</text>
<text text-anchor="middle" x="743" y="-7.5" font-family="Helvetica,sans-Serif" font-size="10.00">World</text>
</a>
</g>
</g>
<!-- Node63&#45;&gt;Node64 -->
<g id="edge13" class="edge"><title>Node63&#45;&gt;Node64</title>
<path fill="none" stroke="midnightblue" d="M665.289,-15.5C674.02,-15.5 682.725,-15.5 690.969,-15.5"/>
<polygon fill="midnightblue" stroke="midnightblue" points="665.055,-12.0001 655.055,-15.5 665.055,-19.0001 665.055,-12.0001"/>
</g>
</g>
</svg>
