<?xml version="1.0" encoding="UTF-8" standalone="no"?>
<!DOCTYPE svg PUBLIC "-//W3C//DTD SVG 1.1//EN"
 "http://www.w3.org/Graphics/SVG/1.1/DTD/svg11.dtd">
<!-- Generated by graphviz version 2.38.0 (20140413.2041)
 -->
<!-- Title: obe::System::Package::GetPackageLocation Pages: 1 -->
<svg width="425pt" height="235pt"
 viewBox="0.00 0.00 425.00 235.00" xmlns="http://www.w3.org/2000/svg" xmlns:xlink="http://www.w3.org/1999/xlink">
<g id="graph0" class="graph" transform="scale(1 1) rotate(0) translate(4 231)">
<title>obe::System::Package::GetPackageLocation</title>
<!-- Node0 -->
<g id="node1" class="node"><title>Node0</title>
<polygon fill="#bfbfbf" stroke="black" points="0,-134.5 0,-164.5 116,-164.5 116,-134.5 0,-134.5"/>
<text text-anchor="start" x="8" y="-152.5" font-family="Helvetica,sans-Serif" font-size="10.00">obe::System::Package</text>
<text text-anchor="middle" x="58" y="-141.5" font-family="Helvetica,sans-Serif" font-size="10.00">::GetPackageLocation</text>
</g>
<!-- Node1 -->
<g id="node2" class="node"><title>Node1</title>
<g id="a_node2"><a xlink:href="namespaceobe_1_1_system_1_1_package.html#add24fafa3071d024fb622b4be0c083da" target="_top" xlink:title="Get if the Package exists or not. ">
<polygon fill="none" stroke="black" points="152,-171.5 152,-201.5 268,-201.5 268,-171.5 152,-171.5"/>
<text text-anchor="start" x="160" y="-189.5" font-family="Helvetica,sans-Serif" font-size="10.00">obe::System::Package</text>
<text text-anchor="middle" x="210" y="-178.5" font-family="Helvetica,sans-Serif" font-size="10.00">::PackageExists</text>
</a>
</g>
</g>
<!-- Node0&#45;&gt;Node1 -->
<g id="edge1" class="edge"><title>Node0&#45;&gt;Node1</title>
<path fill="none" stroke="midnightblue" d="M116.136,-163.594C124.468,-165.649 133.111,-167.781 141.622,-169.88"/>
<polygon fill="midnightblue" stroke="midnightblue" points="140.978,-173.326 151.525,-172.323 142.655,-166.53 140.978,-173.326"/>
</g>
<!-- Node3 -->
<g id="node4" class="node"><title>Node3</title>
<g id="a_node4"><a xlink:href="classaube_1_1_error_handler.html#a7c8d44a3e7f019646d289950abc5301b" target="_top" xlink:title="aube::ErrorHandler\l::Raise">
<polygon fill="none" stroke="black" points="161,-98.5 161,-128.5 259,-128.5 259,-98.5 161,-98.5"/>
<text text-anchor="start" x="169" y="-116.5" font-family="Helvetica,sans-Serif" font-size="10.00">aube::ErrorHandler</text>
<text text-anchor="middle" x="210" y="-105.5" font-family="Helvetica,sans-Serif" font-size="10.00">::Raise</text>
</a>
</g>
</g>
<!-- Node0&#45;&gt;Node3 -->
<g id="edge3" class="edge"><title>Node0&#45;&gt;Node3</title>
<path fill="none" stroke="midnightblue" d="M116.136,-135.787C127.535,-133.052 139.517,-130.176 150.946,-127.433"/>
<polygon fill="midnightblue" stroke="midnightblue" points="151.911,-130.801 160.818,-125.064 150.278,-123.994 151.911,-130.801"/>
</g>
<!-- Node2 -->
<g id="node3" class="node"><title>Node2</title>
<g id="a_node3"><a xlink:href="namespaceobe_1_1_functions_1_1_string.html#a8c72a872b7b6032c3c47def34355ea34" target="_top" xlink:title="obe::Functions::String\l::contains">
<polygon fill="none" stroke="black" points="304,-196.5 304,-226.5 417,-226.5 417,-196.5 304,-196.5"/>
<text text-anchor="start" x="312" y="-214.5" font-family="Helvetica,sans-Serif" font-size="10.00">obe::Functions::String</text>
<text text-anchor="middle" x="360.5" y="-203.5" font-family="Helvetica,sans-Serif" font-size="10.00">::contains</text>
</a>
</g>
</g>
<!-- Node1&#45;&gt;Node2 -->
<g id="edge2" class="edge"><title>Node1&#45;&gt;Node2</title>
<path fill="none" stroke="midnightblue" d="M268.414,-196.166C276.653,-197.553 285.185,-198.989 293.573,-200.401"/>
<polygon fill="midnightblue" stroke="midnightblue" points="293.262,-203.898 303.704,-202.107 294.424,-196.995 293.262,-203.898"/>
</g>
<!-- Node4 -->
<g id="node5" class="node"><title>Node4</title>
<g id="a_node5"><a xlink:href="classaube_1_1_error_message.html#a3a39b6fcd8fdb12eaf6383123535b8ca" target="_top" xlink:title="aube::ErrorMessage\l::getFile">
<polygon fill="none" stroke="black" points="308.5,-147.5 308.5,-177.5 412.5,-177.5 412.5,-147.5 308.5,-147.5"/>
<text text-anchor="start" x="316.5" y="-165.5" font-family="Helvetica,sans-Serif" font-size="10.00">aube::ErrorMessage</text>
<text text-anchor="middle" x="360.5" y="-154.5" font-family="Helvetica,sans-Serif" font-size="10.00">::getFile</text>
</a>
</g>
</g>
<!-- Node3&#45;&gt;Node4 -->
<g id="edge4" class="edge"><title>Node3&#45;&gt;Node4</title>
<path fill="none" stroke="midnightblue" d="M256.767,-128.601C271.799,-133.562 288.667,-139.127 304.321,-144.293"/>
<polygon fill="midnightblue" stroke="midnightblue" points="303.291,-147.639 313.885,-147.448 305.485,-140.991 303.291,-147.639"/>
</g>
<!-- Node5 -->
<g id="node6" class="node"><title>Node5</title>
<g id="a_node6"><a xlink:href="classaube_1_1_error_message.html#a9184cc96589578f434351c105b0cd5f7" target="_top" xlink:title="aube::ErrorMessage\l::getLocation">
<polygon fill="none" stroke="black" points="308.5,-98.5 308.5,-128.5 412.5,-128.5 412.5,-98.5 308.5,-98.5"/>
<text text-anchor="start" x="316.5" y="-116.5" font-family="Helvetica,sans-Serif" font-size="10.00">aube::ErrorMessage</text>
<text text-anchor="middle" x="360.5" y="-105.5" font-family="Helvetica,sans-Serif" font-size="10.00">::getLocation</text>
</a>
</g>
</g>
<!-- Node3&#45;&gt;Node5 -->
<g id="edge5" class="edge"><title>Node3&#45;&gt;Node5</title>
<path fill="none" stroke="midnightblue" d="M259.214,-113.5C271.643,-113.5 285.187,-113.5 298.186,-113.5"/>
<polygon fill="midnightblue" stroke="midnightblue" points="298.461,-117 308.461,-113.5 298.461,-110 298.461,-117"/>
</g>
<!-- Node6 -->
<g id="node7" class="node"><title>Node6</title>
<g id="a_node7"><a xlink:href="classaube_1_1_error_message.html#a07927cb3e2d0712c459cc9e2b5f52696" target="_top" xlink:title="aube::ErrorMessage\l::getMessage">
<polygon fill="none" stroke="black" points="308.5,-49.5 308.5,-79.5 412.5,-79.5 412.5,-49.5 308.5,-49.5"/>
<text text-anchor="start" x="316.5" y="-67.5" font-family="Helvetica,sans-Serif" font-size="10.00">aube::ErrorMessage</text>
<text text-anchor="middle" x="360.5" y="-56.5" font-family="Helvetica,sans-Serif" font-size="10.00">::getMessage</text>
</a>
</g>
</g>
<!-- Node3&#45;&gt;Node6 -->
<g id="edge6" class="edge"><title>Node3&#45;&gt;Node6</title>
<path fill="none" stroke="midnightblue" d="M256.767,-98.3986C271.799,-93.4385 288.667,-87.8726 304.321,-82.7071"/>
<polygon fill="midnightblue" stroke="midnightblue" points="305.485,-86.0089 313.885,-79.5516 303.291,-79.3614 305.485,-86.0089"/>
</g>
<!-- Node7 -->
<g id="node8" class="node"><title>Node7</title>
<g id="a_node8"><a xlink:href="classaube_1_1_error_message.html#a77c2f9b7e93542c958173b52da267989" target="_top" xlink:title="aube::ErrorMessage\l::getHints">
<polygon fill="none" stroke="black" points="308.5,-0.5 308.5,-30.5 412.5,-30.5 412.5,-0.5 308.5,-0.5"/>
<text text-anchor="start" x="316.5" y="-18.5" font-family="Helvetica,sans-Serif" font-size="10.00">aube::ErrorMessage</text>
<text text-anchor="middle" x="360.5" y="-7.5" font-family="Helvetica,sans-Serif" font-size="10.00">::getHints</text>
</a>
</g>
</g>
<!-- Node3&#45;&gt;Node7 -->
<g id="edge7" class="edge"><title>Node3&#45;&gt;Node7</title>
<path fill="none" stroke="midnightblue" d="M227.571,-98.4575C245.502,-82.6837 275.379,-57.8265 304,-40.5 307.122,-38.6102 310.411,-36.7753 313.766,-35.015"/>
<polygon fill="midnightblue" stroke="midnightblue" points="315.345,-38.139 322.73,-30.5427 312.219,-31.8753 315.345,-38.139"/>
</g>
</g>
</svg>
