<?xml version="1.0" encoding="UTF-8" standalone="no"?>
<!DOCTYPE svg PUBLIC "-//W3C//DTD SVG 1.1//EN"
 "http://www.w3.org/Graphics/SVG/1.1/DTD/svg11.dtd">
<!-- Generated by graphviz version 2.38.0 (20140413.2041)
 -->
<!-- Title: obe::Bindings::AnimationBindings::LoadAnimator Pages: 1 -->
<!--zoomable 661 -->
<svg id="main" version="1.1" xmlns="http://www.w3.org/2000/svg" xmlns:xlink="http://www.w3.org/1999/xlink" xml:space="preserve" onload="init(evt)">
<style type="text/css"><![CDATA[
.edge:hover path { stroke: red; }
.edge:hover polygon { stroke: red; fill: red; }
.edge path { stroke: white; }
.edge polygon { stroke: white; fill: white; }
.node polygon { fill: white; }
]]></style>
<script type="text/javascript"><![CDATA[
var edges = document.getElementsByTagName('g');
if (edges && edges.length) {
  for (var i=0;i<edges.length;i++) {
    if (edges[i].id.substr(0,4)=='edge') {
      edges[i].setAttribute('class','edge');
    }
  }
}
]]></script>
        <defs>
                <circle id="rim" cx="0" cy="0" r="7"/>
                <circle id="rim2" cx="0" cy="0" r="3.5"/>
                <g id="zoomPlus">
                        <use xlink:href="#rim" fill="#404040">
                                <set attributeName="fill" to="#808080" begin="zoomplus.mouseover" end="zoomplus.mouseout"/>
                        </use>
                        <path d="M-4,0h8M0,-4v8" fill="none" stroke="white" stroke-width="1.5" pointer-events="none"/>
                </g>
                <g id="zoomMin">
                        <use xlink:href="#rim" fill="#404040">
                                <set attributeName="fill" to="#808080" begin="zoomminus.mouseover" end="zoomminus.mouseout"/>
                        </use>
                        <path d="M-4,0h8" fill="none" stroke="white" stroke-width="1.5" pointer-events="none"/>
                </g>
                <g id="dirArrow">
                        <path fill="none" stroke="white" stroke-width="1.5" d="M0,-3.0v7 M-2.5,-0.5L0,-3.0L2.5,-0.5"/>
                </g>
               <g id="resetDef">
                       <use xlink:href="#rim2" fill="#404040">
                               <set attributeName="fill" to="#808080" begin="reset.mouseover" end="reset.mouseout"/>
                       </use>
               </g>
        </defs>

<script type="text/javascript">
var viewWidth = 940;
var viewHeight = 661;
var sectionId = 'dynsection-4';
</script>
<script xlink:href="svgpan.js"/>
<svg id="graph" class="graph">
<g id="viewport">
<title>obe::Bindings::AnimationBindings::LoadAnimator</title>
<!-- Node87 -->
<g id="node1" class="node"><title>Node87</title>
<polygon fill="#bfbfbf" stroke="black" points="0,-294.5 0,-324.5 125,-324.5 125,-294.5 0,-294.5"/>
<text text-anchor="start" x="8" y="-312.5" font-family="Helvetica,sans-Serif" font-size="10.00">obe::Bindings::Animation</text>
<text text-anchor="middle" x="62.5" y="-301.5" font-family="Helvetica,sans-Serif" font-size="10.00">Bindings::LoadAnimator</text>
</g>
<!-- Node88 -->
<g id="node2" class="node"><title>Node88</title>
<g id="a_node2"><a xlink:href="classobe_1_1_animation_1_1_animator.html#a882f333d9e80d1ba02c3a00141867eb2" target="_top" xlink:title="Clears the Animator of all Animation. ">
<polygon fill="white" stroke="black" points="161,-557.5 161,-587.5 288,-587.5 288,-557.5 161,-557.5"/>
<text text-anchor="start" x="169" y="-575.5" font-family="Helvetica,sans-Serif" font-size="10.00">obe::Animation::Animator</text>
<text text-anchor="middle" x="224.5" y="-564.5" font-family="Helvetica,sans-Serif" font-size="10.00">::clear</text>
</a>
</g>
</g>
<!-- Node87&#45;&gt;Node88 -->
<g id="edge1" class="edge"><title>Node87&#45;&gt;Node88</title>
<path fill="none" stroke="midnightblue" d="M65.5426,-324.566C71.9051,-365.858 95.0542,-482.099 161,-547.5 162.463,-548.95 164.02,-550.32 165.652,-551.612"/>
<polygon fill="midnightblue" stroke="midnightblue" points="164.092,-554.781 174.345,-557.452 167.996,-548.97 164.092,-554.781"/>
</g>
<!-- Node89 -->
<g id="node3" class="node"><title>Node89</title>
<g id="a_node3"><a xlink:href="classobe_1_1_animation_1_1_animator.html#aef879d34e09310ab19a3f7f244d57b96" target="_top" xlink:title="Get the name of all contained Animation. ">
<polygon fill="white" stroke="black" points="161,-508.5 161,-538.5 288,-538.5 288,-508.5 161,-508.5"/>
<text text-anchor="start" x="169" y="-526.5" font-family="Helvetica,sans-Serif" font-size="10.00">obe::Animation::Animator</text>
<text text-anchor="middle" x="224.5" y="-515.5" font-family="Helvetica,sans-Serif" font-size="10.00">::getAllAnimationName</text>
</a>
</g>
</g>
<!-- Node87&#45;&gt;Node89 -->
<g id="edge2" class="edge"><title>Node87&#45;&gt;Node89</title>
<path fill="none" stroke="midnightblue" d="M67.8915,-324.613C78.5318,-358.856 108.737,-443.274 161,-493.5 164.755,-497.108 169.025,-500.354 173.531,-503.256"/>
<polygon fill="midnightblue" stroke="midnightblue" points="172.005,-506.418 182.409,-508.42 175.524,-500.367 172.005,-506.418"/>
</g>
<!-- Node90 -->
<g id="node4" class="node"><title>Node90</title>
<g id="a_node4"><a xlink:href="classobe_1_1_animation_1_1_animator.html#a6dc4d7317a42647f9353c48d66f2c9d0" target="_top" xlink:title="Get the contained Animation pointer by Animation name. ">
<polygon fill="white" stroke="black" points="326,-475.5 326,-505.5 453,-505.5 453,-475.5 326,-475.5"/>
<text text-anchor="start" x="334" y="-493.5" font-family="Helvetica,sans-Serif" font-size="10.00">obe::Animation::Animator</text>
<text text-anchor="middle" x="389.5" y="-482.5" font-family="Helvetica,sans-Serif" font-size="10.00">::getAnimation</text>
</a>
</g>
</g>
<!-- Node87&#45;&gt;Node90 -->
<g id="edge3" class="edge"><title>Node87&#45;&gt;Node90</title>
<path fill="none" stroke="midnightblue" d="M84.3022,-324.702C103.466,-338.164 133.077,-357.623 161,-370.5 214.739,-395.282 240.042,-375.83 288,-410.5 310.191,-426.543 302.9,-443.047 324,-460.5 328.511,-464.231 333.564,-467.61 338.802,-470.638"/>
<polygon fill="midnightblue" stroke="midnightblue" points="337.26,-473.782 347.731,-475.403 340.556,-467.607 337.26,-473.782"/>
</g>
<!-- Node97 -->
<g id="node11" class="node"><title>Node97</title>
<g id="a_node11"><a xlink:href="classobe_1_1_animation_1_1_animator.html#a55671134e7608fa71f46cc2ae3aa51a6" target="_top" xlink:title="Get the name of the currently played Animation. ">
<polygon fill="white" stroke="black" points="161,-245.5 161,-275.5 288,-275.5 288,-245.5 161,-245.5"/>
<text text-anchor="start" x="169" y="-263.5" font-family="Helvetica,sans-Serif" font-size="10.00">obe::Animation::Animator</text>
<text text-anchor="middle" x="224.5" y="-252.5" font-family="Helvetica,sans-Serif" font-size="10.00">::getKey</text>
</a>
</g>
</g>
<!-- Node87&#45;&gt;Node97 -->
<g id="edge10" class="edge"><title>Node87&#45;&gt;Node97</title>
<path fill="none" stroke="midnightblue" d="M112.811,-294.399C129.16,-289.392 147.524,-283.768 164.525,-278.561"/>
<polygon fill="midnightblue" stroke="midnightblue" points="165.815,-281.826 174.352,-275.552 163.765,-275.133 165.815,-281.826"/>
</g>
<!-- Node98 -->
<g id="node12" class="node"><title>Node98</title>
<g id="a_node12"><a xlink:href="classobe_1_1_animation_1_1_animator.html#a8c405521beb299e67916cdccdc0b8615" target="_top" xlink:title="Get the x Coordinate of the current offset of the current Sprite. ">
<polygon fill="white" stroke="black" points="161,-196.5 161,-226.5 288,-226.5 288,-196.5 161,-196.5"/>
<text text-anchor="start" x="169" y="-214.5" font-family="Helvetica,sans-Serif" font-size="10.00">obe::Animation::Animator</text>
<text text-anchor="middle" x="224.5" y="-203.5" font-family="Helvetica,sans-Serif" font-size="10.00">::getSpriteOffsetX</text>
</a>
</g>
</g>
<!-- Node87&#45;&gt;Node98 -->
<g id="edge11" class="edge"><title>Node87&#45;&gt;Node98</title>
<path fill="none" stroke="midnightblue" d="M80.4277,-294.265C99.0994,-278.053 130.549,-252.45 161,-235.5 163.894,-233.889 166.919,-232.339 170.009,-230.857"/>
<polygon fill="midnightblue" stroke="midnightblue" points="171.731,-233.919 179.41,-226.619 168.855,-227.538 171.731,-233.919"/>
</g>
<!-- Node100 -->
<g id="node14" class="node"><title>Node100</title>
<g id="a_node14"><a xlink:href="classobe_1_1_animation_1_1_animator.html#a4af612a762b60d30edc0ddca2d9b4832" target="_top" xlink:title="Get the y Coordinate of the current offset of the current Sprite. ">
<polygon fill="white" stroke="black" points="161,-147.5 161,-177.5 288,-177.5 288,-147.5 161,-147.5"/>
<text text-anchor="start" x="169" y="-165.5" font-family="Helvetica,sans-Serif" font-size="10.00">obe::Animation::Animator</text>
<text text-anchor="middle" x="224.5" y="-154.5" font-family="Helvetica,sans-Serif" font-size="10.00">::getSpriteOffsetY</text>
</a>
</g>
</g>
<!-- Node87&#45;&gt;Node100 -->
<g id="edge13" class="edge"><title>Node87&#45;&gt;Node100</title>
<path fill="none" stroke="midnightblue" d="M71.7442,-294.495C86.4845,-268.947 119.714,-216.829 161,-186.5 162.865,-185.13 164.817,-183.828 166.833,-182.592"/>
<polygon fill="midnightblue" stroke="midnightblue" points="168.899,-185.452 175.996,-177.585 165.542,-179.309 168.899,-185.452"/>
</g>
<!-- Node102 -->
<g id="node16" class="node"><title>Node102</title>
<g id="a_node16"><a xlink:href="classobe_1_1_animation_1_1_animator.html#ada6c0858d3fd693de9ae05350f56ef23" target="_top" xlink:title="Get the current sf::Sprite of the current Animation. ">
<polygon fill="white" stroke="black" points="161,-49.5 161,-79.5 288,-79.5 288,-49.5 161,-49.5"/>
<text text-anchor="start" x="169" y="-67.5" font-family="Helvetica,sans-Serif" font-size="10.00">obe::Animation::Animator</text>
<text text-anchor="middle" x="224.5" y="-56.5" font-family="Helvetica,sans-Serif" font-size="10.00">::getTexture</text>
</a>
</g>
</g>
<!-- Node87&#45;&gt;Node102 -->
<g id="edge15" class="edge"><title>Node87&#45;&gt;Node102</title>
<path fill="none" stroke="midnightblue" d="M66.0458,-294.32C73.4293,-254.874 98.4405,-148.076 161,-88.5 162.131,-87.4229 163.316,-86.3927 164.545,-85.4076"/>
<polygon fill="midnightblue" stroke="midnightblue" points="166.896,-88.0425 173.214,-79.5378 162.972,-82.246 166.896,-88.0425"/>
</g>
<!-- Node104 -->
<g id="node18" class="node"><title>Node104</title>
<g id="a_node18"><a xlink:href="classobe_1_1_animation_1_1_animator.html#a608b6df6159ee25a6f2e4afa7db2a162" target="_top" xlink:title="Calls Animation::getTextureAtIndex. ">
<polygon fill="white" stroke="black" points="161,-420.5 161,-450.5 288,-450.5 288,-420.5 161,-420.5"/>
<text text-anchor="start" x="169" y="-438.5" font-family="Helvetica,sans-Serif" font-size="10.00">obe::Animation::Animator</text>
<text text-anchor="middle" x="224.5" y="-427.5" font-family="Helvetica,sans-Serif" font-size="10.00">::getTextureAtKey</text>
</a>
</g>
</g>
<!-- Node87&#45;&gt;Node104 -->
<g id="edge17" class="edge"><title>Node87&#45;&gt;Node104</title>
<path fill="none" stroke="midnightblue" d="M76.0921,-324.723C93.5369,-345.1 126.793,-381.461 161,-405.5 166.235,-409.179 171.99,-412.623 177.824,-415.772"/>
<polygon fill="midnightblue" stroke="midnightblue" points="176.498,-419.025 186.994,-420.468 179.689,-412.794 176.498,-419.025"/>
</g>
<!-- Node106 -->
<g id="node20" class="node"><title>Node106</title>
<g id="a_node20"><a xlink:href="classobe_1_1_animation_1_1_animator.html#a04c9d6baabb9a1b193cd26ab0b3e4766" target="_top" xlink:title="Loads the Animator (Using the Animator root path). &#160;It will also load all the Animation contained in ...">
<polygon fill="white" stroke="black" points="161,-294.5 161,-324.5 288,-324.5 288,-294.5 161,-294.5"/>
<text text-anchor="start" x="169" y="-312.5" font-family="Helvetica,sans-Serif" font-size="10.00">obe::Animation::Animator</text>
<text text-anchor="middle" x="224.5" y="-301.5" font-family="Helvetica,sans-Serif" font-size="10.00">::loadAnimator</text>
</a>
</g>
</g>
<!-- Node87&#45;&gt;Node106 -->
<g id="edge20" class="edge"><title>Node87&#45;&gt;Node106</title>
<path fill="none" stroke="midnightblue" d="M125.36,-309.5C133.613,-309.5 142.137,-309.5 150.556,-309.5"/>
<polygon fill="midnightblue" stroke="midnightblue" points="150.748,-313 160.748,-309.5 150.748,-306 150.748,-313"/>
</g>
<!-- Node115 -->
<g id="node29" class="node"><title>Node115</title>
<g id="a_node29"><a xlink:href="classobe_1_1_animation_1_1_animator.html#ac335331eb08fe4d3151505780a3a30fa" target="_top" xlink:title="Set the Animation to play by name. ">
<polygon fill="white" stroke="black" points="326,-573.5 326,-603.5 453,-603.5 453,-573.5 326,-573.5"/>
<text text-anchor="start" x="334" y="-591.5" font-family="Helvetica,sans-Serif" font-size="10.00">obe::Animation::Animator</text>
<text text-anchor="middle" x="389.5" y="-580.5" font-family="Helvetica,sans-Serif" font-size="10.00">::setKey</text>
</a>
</g>
</g>
<!-- Node87&#45;&gt;Node115 -->
<g id="edge31" class="edge"><title>Node87&#45;&gt;Node115</title>
<path fill="none" stroke="midnightblue" d="M69.2328,-324.779C81.3847,-355.088 112.645,-423.031 161,-459.5 208.142,-495.054 242.142,-461.305 288,-498.5 313.648,-519.303 299.116,-541.79 324,-563.5 325.94,-565.193 328.007,-566.777 330.167,-568.259"/>
<polygon fill="midnightblue" stroke="midnightblue" points="328.506,-571.344 338.882,-573.485 332.106,-565.341 328.506,-571.344"/>
</g>
<!-- Node118 -->
<g id="node32" class="node"><title>Node118</title>
<g id="a_node32"><a xlink:href="classobe_1_1_animation_1_1_animator.html#a0d8e801b4cbfec51169e058521776d48" target="_top" xlink:title="Sets the path of the Animator root. ">
<polygon fill="white" stroke="black" points="161,-0.5 161,-30.5 288,-30.5 288,-0.5 161,-0.5"/>
<text text-anchor="start" x="169" y="-18.5" font-family="Helvetica,sans-Serif" font-size="10.00">obe::Animation::Animator</text>
<text text-anchor="middle" x="224.5" y="-7.5" font-family="Helvetica,sans-Serif" font-size="10.00">::setPath</text>
</a>
</g>
</g>
<!-- Node87&#45;&gt;Node118 -->
<g id="edge36" class="edge"><title>Node87&#45;&gt;Node118</title>
<path fill="none" stroke="midnightblue" d="M64.6557,-294.366C68.8874,-249.324 87.3934,-114.601 161,-39.5 161.938,-38.5428 162.919,-37.6231 163.936,-36.7395"/>
<polygon fill="midnightblue" stroke="midnightblue" points="166.304,-39.3461 172.354,-30.6487 162.201,-33.6748 166.304,-39.3461"/>
</g>
<!-- Node119 -->
<g id="node33" class="node"><title>Node119</title>
<g id="a_node33"><a xlink:href="classobe_1_1_animation_1_1_animator.html#ad710964804f5673b13e3628590f93665" target="_top" xlink:title="Return if the Texture changed since the last call to getTexture() ">
<polygon fill="white" stroke="black" points="161,-98.5 161,-128.5 288,-128.5 288,-98.5 161,-98.5"/>
<text text-anchor="start" x="169" y="-116.5" font-family="Helvetica,sans-Serif" font-size="10.00">obe::Animation::Animator</text>
<text text-anchor="middle" x="224.5" y="-105.5" font-family="Helvetica,sans-Serif" font-size="10.00">::textureChanged</text>
</a>
</g>
</g>
<!-- Node87&#45;&gt;Node119 -->
<g id="edge37" class="edge"><title>Node87&#45;&gt;Node119</title>
<path fill="none" stroke="midnightblue" d="M68.1499,-294.345C79.0338,-261.281 109.237,-182.07 161,-137.5 162.486,-136.22 164.048,-135.005 165.669,-133.851"/>
<polygon fill="midnightblue" stroke="midnightblue" points="167.528,-136.817 174.192,-128.581 163.846,-130.863 167.528,-136.817"/>
</g>
<!-- Node120 -->
<g id="node34" class="node"><title>Node120</title>
<g id="a_node34"><a xlink:href="classobe_1_1_animation_1_1_animator.html#ad84c05c7f7743a98d4e11ba674f07b6d" target="_top" xlink:title="Updates the Animator and the currently played Animation. ">
<polygon fill="white" stroke="black" points="326,-387.5 326,-417.5 453,-417.5 453,-387.5 326,-387.5"/>
<text text-anchor="start" x="334" y="-405.5" font-family="Helvetica,sans-Serif" font-size="10.00">obe::Animation::Animator</text>
<text text-anchor="middle" x="389.5" y="-394.5" font-family="Helvetica,sans-Serif" font-size="10.00">::update</text>
</a>
</g>
</g>
<!-- Node87&#45;&gt;Node120 -->
<g id="edge39" class="edge"><title>Node87&#45;&gt;Node120</title>
<path fill="none" stroke="midnightblue" d="M116.078,-324.545C173.428,-340.956 265.166,-367.207 326.116,-384.648"/>
<polygon fill="midnightblue" stroke="midnightblue" points="325.42,-388.09 335.997,-387.476 327.346,-381.36 325.42,-388.09"/>
</g>
<!-- Node91 -->
<g id="node5" class="node"><title>Node91</title>
<g id="a_node5"><a xlink:href="classaube_1_1_error_handler.html#a7c8d44a3e7f019646d289950abc5301b" target="_top" xlink:title="aube::ErrorHandler\l::Raise">
<polygon fill="white" stroke="black" points="507.5,-475.5 507.5,-505.5 605.5,-505.5 605.5,-475.5 507.5,-475.5"/>
<text text-anchor="start" x="515.5" y="-493.5" font-family="Helvetica,sans-Serif" font-size="10.00">aube::ErrorHandler</text>
<text text-anchor="middle" x="556.5" y="-482.5" font-family="Helvetica,sans-Serif" font-size="10.00">::Raise</text>
</a>
</g>
</g>
<!-- Node90&#45;&gt;Node91 -->
<g id="edge4" class="edge"><title>Node90&#45;&gt;Node91</title>
<path fill="none" stroke="midnightblue" d="M453.35,-490.5C467.787,-490.5 483.077,-490.5 497.307,-490.5"/>
<polygon fill="midnightblue" stroke="midnightblue" points="497.454,-494 507.454,-490.5 497.454,-487 497.454,-494"/>
</g>
<!-- Node96 -->
<g id="node10" class="node"><title>Node96</title>
<g id="a_node10"><a xlink:href="classobe_1_1_system_1_1_path.html#aab439649ec875cd45a99a18e9c9beda8" target="_top" xlink:title="Get the current path in string form. ">
<polygon fill="white" stroke="black" points="504.5,-524.5 504.5,-554.5 608.5,-554.5 608.5,-524.5 504.5,-524.5"/>
<text text-anchor="start" x="512.5" y="-542.5" font-family="Helvetica,sans-Serif" font-size="10.00">obe::System::Path::</text>
<text text-anchor="middle" x="556.5" y="-531.5" font-family="Helvetica,sans-Serif" font-size="10.00">toString</text>
</a>
</g>
</g>
<!-- Node90&#45;&gt;Node96 -->
<g id="edge9" class="edge"><title>Node90&#45;&gt;Node96</title>
<path fill="none" stroke="midnightblue" d="M441.352,-505.601C458.369,-510.655 477.504,-516.338 495.173,-521.585"/>
<polygon fill="midnightblue" stroke="midnightblue" points="494.233,-524.957 504.816,-524.448 496.226,-518.246 494.233,-524.957"/>
</g>
<!-- Node92 -->
<g id="node6" class="node"><title>Node92</title>
<g id="a_node6"><a xlink:href="classaube_1_1_error_message.html#a3a39b6fcd8fdb12eaf6383123535b8ca" target="_top" xlink:title="aube::ErrorMessage\l::getFile">
<polygon fill="white" stroke="black" points="680.5,-497.5 680.5,-527.5 784.5,-527.5 784.5,-497.5 680.5,-497.5"/>
<text text-anchor="start" x="688.5" y="-515.5" font-family="Helvetica,sans-Serif" font-size="10.00">aube::ErrorMessage</text>
<text text-anchor="middle" x="732.5" y="-504.5" font-family="Helvetica,sans-Serif" font-size="10.00">::getFile</text>
</a>
</g>
</g>
<!-- Node91&#45;&gt;Node92 -->
<g id="edge5" class="edge"><title>Node91&#45;&gt;Node92</title>
<path fill="none" stroke="midnightblue" d="M605.507,-496.57C625.476,-499.095 648.901,-502.056 670.099,-504.737"/>
<polygon fill="midnightblue" stroke="midnightblue" points="669.942,-508.245 680.302,-506.027 670.82,-501.3 669.942,-508.245"/>
</g>
<!-- Node93 -->
<g id="node7" class="node"><title>Node93</title>
<g id="a_node7"><a xlink:href="classaube_1_1_error_message.html#a9184cc96589578f434351c105b0cd5f7" target="_top" xlink:title="aube::ErrorMessage\l::getLocation">
<polygon fill="white" stroke="black" points="680.5,-448.5 680.5,-478.5 784.5,-478.5 784.5,-448.5 680.5,-448.5"/>
<text text-anchor="start" x="688.5" y="-466.5" font-family="Helvetica,sans-Serif" font-size="10.00">aube::ErrorMessage</text>
<text text-anchor="middle" x="732.5" y="-455.5" font-family="Helvetica,sans-Serif" font-size="10.00">::getLocation</text>
</a>
</g>
</g>
<!-- Node91&#45;&gt;Node93 -->
<g id="edge6" class="edge"><title>Node91&#45;&gt;Node93</title>
<path fill="none" stroke="midnightblue" d="M605.507,-483.051C625.567,-479.938 649.114,-476.284 670.388,-472.983"/>
<polygon fill="midnightblue" stroke="midnightblue" points="670.957,-476.437 680.302,-471.444 669.884,-469.519 670.957,-476.437"/>
</g>
<!-- Node94 -->
<g id="node8" class="node"><title>Node94</title>
<g id="a_node8"><a xlink:href="classaube_1_1_error_message.html#a07927cb3e2d0712c459cc9e2b5f52696" target="_top" xlink:title="aube::ErrorMessage\l::getMessage">
<polygon fill="white" stroke="black" points="680.5,-595.5 680.5,-625.5 784.5,-625.5 784.5,-595.5 680.5,-595.5"/>
<text text-anchor="start" x="688.5" y="-613.5" font-family="Helvetica,sans-Serif" font-size="10.00">aube::ErrorMessage</text>
<text text-anchor="middle" x="732.5" y="-602.5" font-family="Helvetica,sans-Serif" font-size="10.00">::getMessage</text>
</a>
</g>
</g>
<!-- Node91&#45;&gt;Node94 -->
<g id="edge7" class="edge"><title>Node91&#45;&gt;Node94</title>
<path fill="none" stroke="midnightblue" d="M605.612,-503.72C611.535,-506.651 617.187,-510.203 622,-514.5 648.391,-538.064 631.278,-562.312 658,-585.5 661.97,-588.945 666.437,-591.921 671.156,-594.49"/>
<polygon fill="midnightblue" stroke="midnightblue" points="669.947,-597.791 680.479,-598.946 672.966,-591.476 669.947,-597.791"/>
</g>
<!-- Node95 -->
<g id="node9" class="node"><title>Node95</title>
<g id="a_node9"><a xlink:href="classaube_1_1_error_message.html#a77c2f9b7e93542c958173b52da267989" target="_top" xlink:title="aube::ErrorMessage\l::getHints">
<polygon fill="white" stroke="black" points="680.5,-546.5 680.5,-576.5 784.5,-576.5 784.5,-546.5 680.5,-546.5"/>
<text text-anchor="start" x="688.5" y="-564.5" font-family="Helvetica,sans-Serif" font-size="10.00">aube::ErrorMessage</text>
<text text-anchor="middle" x="732.5" y="-553.5" font-family="Helvetica,sans-Serif" font-size="10.00">::getHints</text>
</a>
</g>
</g>
<!-- Node91&#45;&gt;Node95 -->
<g id="edge8" class="edge"><title>Node91&#45;&gt;Node95</title>
<path fill="none" stroke="midnightblue" d="M601.349,-505.516C608.351,-508.284 615.445,-511.314 622,-514.5 638.865,-522.696 641.021,-528.544 658,-536.5 662.686,-538.696 667.619,-540.795 672.62,-542.777"/>
<polygon fill="midnightblue" stroke="midnightblue" points="671.683,-546.165 682.274,-546.441 674.166,-539.621 671.683,-546.165"/>
</g>
<!-- Node99 -->
<g id="node13" class="node"><title>Node99</title>
<g id="a_node13"><a xlink:href="classobe_1_1_animation_1_1_animation.html#aaa25dfcaba92f38ae4e42435e4546902" target="_top" xlink:title="Get the x Coordinate of the Sprite Offset (0 if not defined) ">
<polygon fill="white" stroke="black" points="324,-113.5 324,-143.5 455,-143.5 455,-113.5 324,-113.5"/>
<text text-anchor="start" x="332" y="-131.5" font-family="Helvetica,sans-Serif" font-size="10.00">obe::Animation::Animation</text>
<text text-anchor="middle" x="389.5" y="-120.5" font-family="Helvetica,sans-Serif" font-size="10.00">::getSpriteOffsetX</text>
</a>
</g>
</g>
<!-- Node98&#45;&gt;Node99 -->
<g id="edge12" class="edge"><title>Node98&#45;&gt;Node99</title>
<path fill="none" stroke="midnightblue" d="M269.249,-196.468C275.738,-193.543 282.19,-190.213 288,-186.5 306.544,-174.649 305.313,-164.125 324,-152.5 326.604,-150.88 329.335,-149.343 332.141,-147.89"/>
<polygon fill="midnightblue" stroke="midnightblue" points="333.769,-150.991 341.292,-143.53 330.759,-144.671 333.769,-150.991"/>
</g>
<!-- Node101 -->
<g id="node15" class="node"><title>Node101</title>
<g id="a_node15"><a xlink:href="classobe_1_1_animation_1_1_animation.html#aeb91dbc957c76512391451810faa6970" target="_top" xlink:title="Get the y Coordinate of the Sprite Offset (0 if not defined) ">
<polygon fill="white" stroke="black" points="324,-64.5 324,-94.5 455,-94.5 455,-64.5 324,-64.5"/>
<text text-anchor="start" x="332" y="-82.5" font-family="Helvetica,sans-Serif" font-size="10.00">obe::Animation::Animation</text>
<text text-anchor="middle" x="389.5" y="-71.5" font-family="Helvetica,sans-Serif" font-size="10.00">::getSpriteOffsetY</text>
</a>
</g>
</g>
<!-- Node100&#45;&gt;Node101 -->
<g id="edge14" class="edge"><title>Node100&#45;&gt;Node101</title>
<path fill="none" stroke="midnightblue" d="M269.249,-147.468C275.738,-144.543 282.19,-141.213 288,-137.5 306.544,-125.649 305.313,-115.125 324,-103.5 326.604,-101.88 329.335,-100.343 332.141,-98.8896"/>
<polygon fill="midnightblue" stroke="midnightblue" points="333.769,-101.991 341.292,-94.5298 330.759,-95.671 333.769,-101.991"/>
</g>
<!-- Node103 -->
<g id="node17" class="node"><title>Node103</title>
<g id="a_node17"><a xlink:href="classobe_1_1_animation_1_1_animation.html#a42881a9b7928324532448d43571d7771" target="_top" xlink:title="Get the sf::Texture containing the current texture in the Animation. ">
<polygon fill="white" stroke="black" points="324,-15.5 324,-45.5 455,-45.5 455,-15.5 324,-15.5"/>
<text text-anchor="start" x="332" y="-33.5" font-family="Helvetica,sans-Serif" font-size="10.00">obe::Animation::Animation</text>
<text text-anchor="middle" x="389.5" y="-22.5" font-family="Helvetica,sans-Serif" font-size="10.00">::getTexture</text>
</a>
</g>
</g>
<!-- Node102&#45;&gt;Node103 -->
<g id="edge16" class="edge"><title>Node102&#45;&gt;Node103</title>
<path fill="none" stroke="midnightblue" d="M288.054,-51.452C296.507,-49.6887 305.248,-47.8654 313.886,-46.0638"/>
<polygon fill="midnightblue" stroke="midnightblue" points="314.879,-49.4319 323.954,-43.9636 313.45,-42.5794 314.879,-49.4319"/>
</g>
<!-- Node104&#45;&gt;Node90 -->
<g id="edge18" class="edge"><title>Node104&#45;&gt;Node90</title>
<path fill="none" stroke="midnightblue" d="M270.04,-450.529C289.896,-457.229 313.464,-465.181 334.329,-472.221"/>
<polygon fill="midnightblue" stroke="midnightblue" points="333.419,-475.608 344.013,-475.489 335.657,-468.976 333.419,-475.608"/>
</g>
<!-- Node105 -->
<g id="node19" class="node"><title>Node105</title>
<g id="a_node19"><a xlink:href="classobe_1_1_animation_1_1_animation.html#ac77e3e72abc60c235ec6052387d74d26" target="_top" xlink:title="Get the texture used in the Animation at the specified index. ">
<polygon fill="white" stroke="black" points="324,-524.5 324,-554.5 455,-554.5 455,-524.5 324,-524.5"/>
<text text-anchor="start" x="332" y="-542.5" font-family="Helvetica,sans-Serif" font-size="10.00">obe::Animation::Animation</text>
<text text-anchor="middle" x="389.5" y="-531.5" font-family="Helvetica,sans-Serif" font-size="10.00">::getTextureAtIndex</text>
</a>
</g>
</g>
<!-- Node104&#45;&gt;Node105 -->
<g id="edge19" class="edge"><title>Node104&#45;&gt;Node105</title>
<path fill="none" stroke="midnightblue" d="M264.629,-450.642C272.81,-454.777 281.051,-459.738 288,-465.5 308.801,-482.75 302.544,-498.071 324,-514.5 326.324,-516.28 328.791,-517.947 331.351,-519.507"/>
<polygon fill="midnightblue" stroke="midnightblue" points="329.893,-522.699 340.349,-524.408 333.241,-516.551 329.893,-522.699"/>
</g>
<!-- Node106&#45;&gt;Node96 -->
<g id="edge25" class="edge"><title>Node106&#45;&gt;Node96</title>
<path fill="none" stroke="midnightblue" d="M244.914,-324.671C258.005,-335.479 275.164,-350.817 288,-366.5 307.697,-390.565 299.43,-407.436 324,-426.5 371.995,-463.739 405.322,-430.538 455,-465.5 477.099,-481.053 469.544,-498.071 491,-514.5 493.324,-516.28 495.791,-517.947 498.351,-519.507"/>
<polygon fill="midnightblue" stroke="midnightblue" points="496.893,-522.699 507.349,-524.408 500.241,-516.551 496.893,-522.699"/>
</g>
<!-- Node107 -->
<g id="node21" class="node"><title>Node107</title>
<g id="a_node21"><a xlink:href="classobe_1_1_system_1_1_path.html#a096ad4fa7397aa42fd73661b08f50e2a" target="_top" xlink:title="obe::System::Path::\lloadResource">
<polygon fill="white" stroke="black" points="337.5,-338.5 337.5,-368.5 441.5,-368.5 441.5,-338.5 337.5,-338.5"/>
<text text-anchor="start" x="345.5" y="-356.5" font-family="Helvetica,sans-Serif" font-size="10.00">obe::System::Path::</text>
<text text-anchor="middle" x="389.5" y="-345.5" font-family="Helvetica,sans-Serif" font-size="10.00">loadResource</text>
</a>
</g>
</g>
<!-- Node106&#45;&gt;Node107 -->
<g id="edge21" class="edge"><title>Node106&#45;&gt;Node107</title>
<path fill="none" stroke="midnightblue" d="M281.139,-324.519C296.119,-328.563 312.399,-332.957 327.647,-337.073"/>
<polygon fill="midnightblue" stroke="midnightblue" points="326.927,-340.504 337.493,-339.731 328.751,-333.746 326.927,-340.504"/>
</g>
<!-- Node109 -->
<g id="node23" class="node"><title>Node109</title>
<g id="a_node23"><a xlink:href="namespaceobe_1_1_utils_1_1_vector.html#a636b7f465d67c2bf42a297f221af9cfe" target="_top" xlink:title="Check if a given item is in the given std::vector. ">
<polygon fill="white" stroke="black" points="343.5,-162.5 343.5,-192.5 435.5,-192.5 435.5,-162.5 343.5,-162.5"/>
<text text-anchor="start" x="351.5" y="-180.5" font-family="Helvetica,sans-Serif" font-size="10.00">obe::Utils::Vector</text>
<text text-anchor="middle" x="389.5" y="-169.5" font-family="Helvetica,sans-Serif" font-size="10.00">::isInList</text>
</a>
</g>
</g>
<!-- Node106&#45;&gt;Node109 -->
<g id="edge24" class="edge"><title>Node106&#45;&gt;Node109</title>
<path fill="none" stroke="midnightblue" d="M274.56,-294.355C279.447,-291.578 284.052,-288.319 288,-284.5 316.607,-256.827 295.245,-230.019 324,-202.5 327.124,-199.511 330.644,-196.868 334.388,-194.533"/>
<polygon fill="midnightblue" stroke="midnightblue" points="336.322,-197.466 343.449,-189.626 332.989,-191.311 336.322,-197.466"/>
</g>
<!-- Node110 -->
<g id="node24" class="node"><title>Node110</title>
<g id="a_node24"><a xlink:href="classvili_1_1_data_parser.html#ac2744d454c122cb1adff342be588bc8d" target="_top" xlink:title="vili::DataParser::at">
<polygon fill="white" stroke="black" points="341.5,-212 341.5,-231 437.5,-231 437.5,-212 341.5,-212"/>
<text text-anchor="middle" x="389.5" y="-219" font-family="Helvetica,sans-Serif" font-size="10.00">vili::DataParser::at</text>
</a>
</g>
</g>
<!-- Node106&#45;&gt;Node110 -->
<g id="edge26" class="edge"><title>Node106&#45;&gt;Node110</title>
<path fill="none" stroke="midnightblue" d="M270.999,-294.496C276.976,-291.623 282.817,-288.301 288,-284.5 308.375,-269.557 302.945,-254.469 324,-240.5 327.101,-238.443 330.429,-236.603 333.881,-234.959"/>
<polygon fill="midnightblue" stroke="midnightblue" points="335.357,-238.136 343.232,-231.049 332.656,-231.678 335.357,-238.136"/>
</g>
<!-- Node112 -->
<g id="node26" class="node"><title>Node112</title>
<g id="a_node26"><a xlink:href="classvili_1_1_complex_attribute.html#a6225afe489577c1e02e21c6a31387a1a" target="_top" xlink:title="vili::ComplexAttribute\l::getAll">
<polygon fill="white" stroke="black" points="335.5,-250.5 335.5,-280.5 443.5,-280.5 443.5,-250.5 335.5,-250.5"/>
<text text-anchor="start" x="343.5" y="-268.5" font-family="Helvetica,sans-Serif" font-size="10.00">vili::ComplexAttribute</text>
<text text-anchor="middle" x="389.5" y="-257.5" font-family="Helvetica,sans-Serif" font-size="10.00">::getAll</text>
</a>
</g>
</g>
<!-- Node106&#45;&gt;Node112 -->
<g id="edge28" class="edge"><title>Node106&#45;&gt;Node112</title>
<path fill="none" stroke="midnightblue" d="M281.139,-294.481C295.377,-290.638 310.789,-286.477 325.373,-282.54"/>
<polygon fill="midnightblue" stroke="midnightblue" points="326.57,-285.843 335.313,-279.857 324.746,-279.084 326.57,-285.843"/>
</g>
<!-- Node113 -->
<g id="node27" class="node"><title>Node113</title>
<g id="a_node27"><a xlink:href="classobe_1_1_system_1_1_path.html#ab3b53b3bb2e98d5e23c35692a52eb66c" target="_top" xlink:title="Returns a new Path which is the current one concatened with the given string. ">
<polygon fill="white" stroke="black" points="329.5,-300 329.5,-319 449.5,-319 449.5,-300 329.5,-300"/>
<text text-anchor="middle" x="389.5" y="-307" font-family="Helvetica,sans-Serif" font-size="10.00">obe::System::Path::add</text>
</a>
</g>
</g>
<!-- Node106&#45;&gt;Node113 -->
<g id="edge29" class="edge"><title>Node106&#45;&gt;Node113</title>
<path fill="none" stroke="midnightblue" d="M288.054,-309.5C298.221,-309.5 308.805,-309.5 319.124,-309.5"/>
<polygon fill="midnightblue" stroke="midnightblue" points="319.329,-313 329.329,-309.5 319.329,-306 319.329,-313"/>
</g>
<!-- Node107&#45;&gt;Node91 -->
<g id="edge23" class="edge"><title>Node107&#45;&gt;Node91</title>
<path fill="none" stroke="midnightblue" d="M441.53,-367.735C446.44,-370.452 451.052,-373.677 455,-377.5 485.356,-406.897 460.844,-435.898 491,-465.5 493.357,-467.814 495.952,-469.919 498.706,-471.833"/>
<polygon fill="midnightblue" stroke="midnightblue" points="496.993,-474.887 507.37,-477.023 500.59,-468.882 496.993,-474.887"/>
</g>
<!-- Node108 -->
<g id="node22" class="node"><title>Node108</title>
<g id="a_node22"><a xlink:href="namespaceobe_1_1_utils_1_1_file.html#a1095626f5495edc7b8692073dd25cceb" target="_top" xlink:title="Check if the file at the given path exists. ">
<polygon fill="white" stroke="black" points="494,-241 494,-260 619,-260 619,-241 494,-241"/>
<text text-anchor="middle" x="556.5" y="-248" font-family="Helvetica,sans-Serif" font-size="10.00">obe::Utils::File::fileExists</text>
</a>
</g>
</g>
<!-- Node107&#45;&gt;Node108 -->
<g id="edge22" class="edge"><title>Node107&#45;&gt;Node108</title>
<path fill="none" stroke="midnightblue" d="M439.631,-338.471C445.125,-335.652 450.393,-332.352 455,-328.5 478.567,-308.797 466.633,-288.205 491,-269.5 493.467,-267.606 496.119,-265.901 498.891,-264.365"/>
<polygon fill="midnightblue" stroke="midnightblue" points="500.533,-267.46 508.071,-260.015 497.536,-261.134 500.533,-267.46"/>
</g>
<!-- Node111 -->
<g id="node25" class="node"><title>Node111</title>
<g id="a_node25"><a xlink:href="namespacevili_1_1_functions_1_1_string.html#ad7421099a2ab911f64f06d89abc7d7cf" target="_top" xlink:title="vili::Functions::String\l::extract">
<polygon fill="white" stroke="black" points="503,-153.5 503,-183.5 610,-183.5 610,-153.5 503,-153.5"/>
<text text-anchor="start" x="511" y="-171.5" font-family="Helvetica,sans-Serif" font-size="10.00">vili::Functions::String</text>
<text text-anchor="middle" x="556.5" y="-160.5" font-family="Helvetica,sans-Serif" font-size="10.00">::extract</text>
</a>
</g>
</g>
<!-- Node110&#45;&gt;Node111 -->
<g id="edge27" class="edge"><title>Node110&#45;&gt;Node111</title>
<path fill="none" stroke="midnightblue" d="M421.699,-211.94C432.282,-208.667 444.166,-204.958 455,-201.5 469.854,-196.759 485.909,-191.533 500.735,-186.665"/>
<polygon fill="midnightblue" stroke="midnightblue" points="501.87,-189.976 510.276,-183.526 499.683,-183.327 501.87,-189.976"/>
</g>
<!-- Node114 -->
<g id="node28" class="node"><title>Node114</title>
<g id="a_node28"><a xlink:href="classobe_1_1_system_1_1_path.html#afce5029aa92ba41d0f201f1ac67a21e0" target="_top" xlink:title="Default constructor of Path. ">
<polygon fill="white" stroke="black" points="494,-203 494,-222 619,-222 619,-203 494,-203"/>
<text text-anchor="middle" x="556.5" y="-210" font-family="Helvetica,sans-Serif" font-size="10.00">obe::System::Path::Path</text>
</a>
</g>
</g>
<!-- Node113&#45;&gt;Node114 -->
<g id="edge30" class="edge"><title>Node113&#45;&gt;Node114</title>
<path fill="none" stroke="midnightblue" d="M435.909,-299.978C442.717,-297.298 449.342,-293.873 455,-289.5 479.005,-270.946 466.863,-249.883 491,-231.5 493.474,-229.616 496.132,-227.918 498.908,-226.388"/>
<polygon fill="midnightblue" stroke="midnightblue" points="500.549,-229.484 508.099,-222.051 497.561,-223.153 500.549,-229.484"/>
</g>
<!-- Node115&#45;&gt;Node91 -->
<g id="edge32" class="edge"><title>Node115&#45;&gt;Node91</title>
<path fill="none" stroke="midnightblue" d="M438.651,-573.408C444.436,-570.582 450.042,-567.297 455,-563.5 476.456,-547.071 469.433,-530.783 491,-514.5 493.324,-512.745 495.791,-511.107 498.351,-509.579"/>
<polygon fill="midnightblue" stroke="midnightblue" points="500.159,-512.582 507.349,-504.8 496.875,-506.4 500.159,-512.582"/>
</g>
<!-- Node115&#45;&gt;Node96 -->
<g id="edge33" class="edge"><title>Node115&#45;&gt;Node96</title>
<path fill="none" stroke="midnightblue" d="M441.352,-573.399C458.369,-568.345 477.504,-562.662 495.173,-557.415"/>
<polygon fill="midnightblue" stroke="midnightblue" points="496.226,-560.754 504.816,-554.552 494.233,-554.043 496.226,-560.754"/>
</g>
<!-- Node116 -->
<g id="node30" class="node"><title>Node116</title>
<g id="a_node30"><a xlink:href="classobe_1_1_animation_1_1_animation.html#a9b0b22318eac4b384f9a7fbe3f3cbf4f" target="_top" xlink:title="Return whether the Animation is over or not. ">
<polygon fill="white" stroke="black" points="491,-573.5 491,-603.5 622,-603.5 622,-573.5 491,-573.5"/>
<text text-anchor="start" x="499" y="-591.5" font-family="Helvetica,sans-Serif" font-size="10.00">obe::Animation::Animation</text>
<text text-anchor="middle" x="556.5" y="-580.5" font-family="Helvetica,sans-Serif" font-size="10.00">::isAnimationOver</text>
</a>
</g>
</g>
<!-- Node115&#45;&gt;Node116 -->
<g id="edge34" class="edge"><title>Node115&#45;&gt;Node116</title>
<path fill="none" stroke="midnightblue" d="M453.35,-588.5C462.283,-588.5 471.542,-588.5 480.675,-588.5"/>
<polygon fill="midnightblue" stroke="midnightblue" points="480.908,-592 490.908,-588.5 480.908,-585 480.908,-592"/>
</g>
<!-- Node117 -->
<g id="node31" class="node"><title>Node117</title>
<g id="a_node31"><a xlink:href="classobe_1_1_animation_1_1_animation.html#aa5c71967c0484463123b1a4cd7ad497c" target="_top" xlink:title="Returns the Animation priority. ">
<polygon fill="white" stroke="black" points="491,-622.5 491,-652.5 622,-652.5 622,-622.5 491,-622.5"/>
<text text-anchor="start" x="499" y="-640.5" font-family="Helvetica,sans-Serif" font-size="10.00">obe::Animation::Animation</text>
<text text-anchor="middle" x="556.5" y="-629.5" font-family="Helvetica,sans-Serif" font-size="10.00">::getPriority</text>
</a>
</g>
</g>
<!-- Node115&#45;&gt;Node117 -->
<g id="edge35" class="edge"><title>Node115&#45;&gt;Node117</title>
<path fill="none" stroke="midnightblue" d="M441.352,-603.601C458.369,-608.655 477.504,-614.338 495.173,-619.585"/>
<polygon fill="midnightblue" stroke="midnightblue" points="494.233,-622.957 504.816,-622.448 496.226,-616.246 494.233,-622.957"/>
</g>
<!-- Node119&#45;&gt;Node103 -->
<g id="edge38" class="edge"><title>Node119&#45;&gt;Node103</title>
<path fill="none" stroke="midnightblue" d="M269.249,-98.468C275.738,-95.5426 282.19,-92.2131 288,-88.5 306.544,-76.6485 305.313,-66.1254 324,-54.5 326.604,-52.8797 329.335,-51.3431 332.141,-49.8896"/>
<polygon fill="midnightblue" stroke="midnightblue" points="333.769,-52.9905 341.292,-45.5298 330.759,-46.671 333.769,-52.9905"/>
</g>
<!-- Node120&#45;&gt;Node91 -->
<g id="edge40" class="edge"><title>Node120&#45;&gt;Node91</title>
<path fill="none" stroke="midnightblue" d="M428.051,-417.604C437.168,-421.903 446.68,-426.946 455,-432.5 473.052,-444.552 472.563,-454.047 491,-465.5 494.143,-467.453 497.464,-469.297 500.875,-471.032"/>
<polygon fill="midnightblue" stroke="midnightblue" points="499.514,-474.26 510.051,-475.365 502.503,-467.93 499.514,-474.26"/>
</g>
<!-- Node120&#45;&gt;Node96 -->
<g id="edge41" class="edge"><title>Node120&#45;&gt;Node96</title>
<path fill="none" stroke="midnightblue" d="M434.262,-417.563C441.822,-421.568 449.126,-426.498 455,-432.5 482.838,-460.947 462.245,-486.981 491,-514.5 492.621,-516.052 494.35,-517.51 496.161,-518.881"/>
<polygon fill="midnightblue" stroke="midnightblue" points="494.265,-521.823 504.556,-524.342 498.083,-515.955 494.265,-521.823"/>
</g>
<!-- Node121 -->
<g id="node35" class="node"><title>Node121</title>
<g id="a_node35"><a xlink:href="classobe_1_1_animation_1_1_animation.html#a43bee4799871d1c9e47ffe438f875782" target="_top" xlink:title="Get the Animation Status. ">
<polygon fill="white" stroke="black" points="491,-377.5 491,-407.5 622,-407.5 622,-377.5 491,-377.5"/>
<text text-anchor="start" x="499" y="-395.5" font-family="Helvetica,sans-Serif" font-size="10.00">obe::Animation::Animation</text>
<text text-anchor="middle" x="556.5" y="-384.5" font-family="Helvetica,sans-Serif" font-size="10.00">::getAnimationStatus</text>
</a>
</g>
</g>
<!-- Node120&#45;&gt;Node121 -->
<g id="edge42" class="edge"><title>Node120&#45;&gt;Node121</title>
<path fill="none" stroke="midnightblue" d="M453.35,-398.691C462.283,-398.15 471.542,-397.588 480.675,-397.035"/>
<polygon fill="midnightblue" stroke="midnightblue" points="481.138,-400.513 490.908,-396.415 480.715,-393.526 481.138,-400.513"/>
</g>
<!-- Node122 -->
<g id="node36" class="node"><title>Node122</title>
<g id="a_node36"><a xlink:href="classobe_1_1_animation_1_1_animation.html#a163d69319c82e90bfea4ea0b9768306e" target="_top" xlink:title="Resets the Animation (Unselect current AnimationGroup and restart AnimationCode) ">
<polygon fill="white" stroke="black" points="491,-328.5 491,-358.5 622,-358.5 622,-328.5 491,-328.5"/>
<text text-anchor="start" x="499" y="-346.5" font-family="Helvetica,sans-Serif" font-size="10.00">obe::Animation::Animation</text>
<text text-anchor="middle" x="556.5" y="-335.5" font-family="Helvetica,sans-Serif" font-size="10.00">::reset</text>
</a>
</g>
</g>
<!-- Node120&#45;&gt;Node122 -->
<g id="edge43" class="edge"><title>Node120&#45;&gt;Node122</title>
<path fill="none" stroke="midnightblue" d="M432.563,-387.459C454.285,-379.692 480.975,-370.148 503.93,-361.94"/>
<polygon fill="midnightblue" stroke="midnightblue" points="505.276,-365.176 513.513,-358.513 502.919,-358.585 505.276,-365.176"/>
</g>
<!-- Node123 -->
<g id="node37" class="node"><title>Node123</title>
<g id="a_node37"><a xlink:href="classobe_1_1_animation_1_1_animation.html#af197b177144ff76951ff7fb8745b5e44" target="_top" xlink:title="Get the name of the Animation to call when the AnimationStatus of the Animation is equal to Animation...">
<polygon fill="white" stroke="black" points="491,-279.5 491,-309.5 622,-309.5 622,-279.5 491,-279.5"/>
<text text-anchor="start" x="499" y="-297.5" font-family="Helvetica,sans-Serif" font-size="10.00">obe::Animation::Animation</text>
<text text-anchor="middle" x="556.5" y="-286.5" font-family="Helvetica,sans-Serif" font-size="10.00">::getCalledAnimation</text>
</a>
</g>
</g>
<!-- Node120&#45;&gt;Node123 -->
<g id="edge44" class="edge"><title>Node120&#45;&gt;Node123</title>
<path fill="none" stroke="midnightblue" d="M439.631,-387.471C445.125,-384.652 450.393,-381.352 455,-377.5 478.567,-357.797 467.3,-338.043 491,-318.5 492.556,-317.217 494.186,-315.999 495.876,-314.843"/>
<polygon fill="midnightblue" stroke="midnightblue" points="497.934,-317.691 504.732,-309.565 494.35,-311.678 497.934,-317.691"/>
</g>
<!-- Node124 -->
<g id="node38" class="node"><title>Node124</title>
<g id="a_node38"><a xlink:href="classobe_1_1_animation_1_1_animation.html#aae247711ecb729409e436e7a40448088" target="_top" xlink:title="Updates the Animation (Updates the current AnimationGroup, executes the AnimationCode) ...">
<polygon fill="white" stroke="black" points="491,-426.5 491,-456.5 622,-456.5 622,-426.5 491,-426.5"/>
<text text-anchor="start" x="499" y="-444.5" font-family="Helvetica,sans-Serif" font-size="10.00">obe::Animation::Animation</text>
<text text-anchor="middle" x="556.5" y="-433.5" font-family="Helvetica,sans-Serif" font-size="10.00">::update</text>
</a>
</g>
</g>
<!-- Node120&#45;&gt;Node124 -->
<g id="edge45" class="edge"><title>Node120&#45;&gt;Node124</title>
<path fill="none" stroke="midnightblue" d="M453.35,-417.355C462.745,-419.576 472.502,-421.882 482.092,-424.149"/>
<polygon fill="midnightblue" stroke="midnightblue" points="481.467,-427.598 492.004,-426.492 483.078,-420.785 481.467,-427.598"/>
</g>
<!-- Node125 -->
<g id="node39" class="node"><title>Node125</title>
<g id="a_node39"><a xlink:href="namespaceobe_1_1_time.html#a8ae76b1e66dea054aced3ab86ecb6d3f" target="_top" xlink:title="Get the amount of milliseconds elapsed since Epoch. ">
<polygon fill="white" stroke="black" points="658,-410 658,-429 807,-429 807,-410 658,-410"/>
<text text-anchor="middle" x="732.5" y="-417" font-family="Helvetica,sans-Serif" font-size="10.00">obe::Time::getTickSinceEpoch</text>
</a>
</g>
</g>
<!-- Node124&#45;&gt;Node125 -->
<g id="edge46" class="edge"><title>Node124&#45;&gt;Node125</title>
<path fill="none" stroke="midnightblue" d="M622.291,-433.308C630.625,-432.254 639.25,-431.164 647.832,-430.079"/>
<polygon fill="midnightblue" stroke="midnightblue" points="648.384,-433.537 657.866,-428.81 647.506,-426.592 648.384,-433.537"/>
</g>
<!-- Node126 -->
<g id="node40" class="node"><title>Node126</title>
<g id="a_node40"><a xlink:href="namespaceobe_1_1_utils_1_1_string.html#ad9d5afbd60c8e3c6894ad5c782de001a" target="_top" xlink:title="Replace all the occurences of search to replace in the string subject in place. ">
<polygon fill="white" stroke="black" points="688,-360.5 688,-390.5 777,-390.5 777,-360.5 688,-360.5"/>
<text text-anchor="start" x="696" y="-378.5" font-family="Helvetica,sans-Serif" font-size="10.00">obe::Utils::String</text>
<text text-anchor="middle" x="732.5" y="-367.5" font-family="Helvetica,sans-Serif" font-size="10.00">::replaceInPlace</text>
</a>
</g>
</g>
<!-- Node124&#45;&gt;Node126 -->
<g id="edge47" class="edge"><title>Node124&#45;&gt;Node126</title>
<path fill="none" stroke="midnightblue" d="M597.189,-426.465C605.42,-423.249 614.016,-419.819 622,-416.5 638.168,-409.779 641.695,-406.881 658,-400.5 664.409,-397.992 671.186,-395.489 677.928,-393.09"/>
<polygon fill="midnightblue" stroke="midnightblue" points="679.451,-396.266 687.735,-389.661 677.14,-389.658 679.451,-396.266"/>
</g>
<!-- Node127 -->
<g id="node41" class="node"><title>Node127</title>
<g id="a_node41"><a xlink:href="namespaceobe_1_1_utils_1_1_string.html#ad648e63a60e1fce71a321037fbee4e30" target="_top" xlink:title="Replace all the occurences of search to replace in the string subject. ">
<polygon fill="white" stroke="black" points="843,-360.5 843,-390.5 932,-390.5 932,-360.5 843,-360.5"/>
<text text-anchor="start" x="851" y="-378.5" font-family="Helvetica,sans-Serif" font-size="10.00">obe::Utils::String</text>
<text text-anchor="middle" x="887.5" y="-367.5" font-family="Helvetica,sans-Serif" font-size="10.00">::replace</text>
</a>
</g>
</g>
<!-- Node126&#45;&gt;Node127 -->
<g id="edge48" class="edge"><title>Node126&#45;&gt;Node127</title>
<path fill="none" stroke="midnightblue" d="M777.344,-375.5C794.623,-375.5 814.639,-375.5 832.776,-375.5"/>
<polygon fill="midnightblue" stroke="midnightblue" points="832.915,-379 842.915,-375.5 832.915,-372 832.915,-379"/>
</g>
</g>
</svg>
        <g id="navigator" transform="translate(0 0)" fill="#404254">
                <rect fill="#f2f5e9" fill-opacity="0.5" stroke="#606060" stroke-width=".5" x="0" y="0" width="60" height="60"/>
                <use id="zoomplus" xlink:href="#zoomPlus" x="17" y="9" onmousedown="handleZoom(evt,'in')"/>
                <use id="zoomminus" xlink:href="#zoomMin" x="42" y="9" onmousedown="handleZoom(evt,'out')"/>
                <use id="reset" xlink:href="#resetDef" x="30" y="36" onmousedown="handleReset()"/>
                <g id="arrowUp" xlink:href="#dirArrow" transform="translate(30 24)" onmousedown="handlePan(0,-1)">
                  <use xlink:href="#rim" fill="#404040">
                        <set attributeName="fill" to="#808080" begin="arrowUp.mouseover" end="arrowUp.mouseout"/>
                  </use>
                  <path fill="none" stroke="white" stroke-width="1.5" d="M0,-3.0v7 M-2.5,-0.5L0,-3.0L2.5,-0.5"/>
                </g>
                <g id="arrowRight" xlink:href="#dirArrow" transform="rotate(90) translate(36 -43)" onmousedown="handlePan(1,0)">
                  <use xlink:href="#rim" fill="#404040">
                        <set attributeName="fill" to="#808080" begin="arrowRight.mouseover" end="arrowRight.mouseout"/>
                  </use>
                  <path fill="none" stroke="white" stroke-width="1.5" d="M0,-3.0v7 M-2.5,-0.5L0,-3.0L2.5,-0.5"/>
                </g>
                <g id="arrowDown" xlink:href="#dirArrow" transform="rotate(180) translate(-30 -48)" onmousedown="handlePan(0,1)">
                  <use xlink:href="#rim" fill="#404040">
                        <set attributeName="fill" to="#808080" begin="arrowDown.mouseover" end="arrowDown.mouseout"/>
                  </use>
                  <path fill="none" stroke="white" stroke-width="1.5" d="M0,-3.0v7 M-2.5,-0.5L0,-3.0L2.5,-0.5"/>
                </g>
                <g id="arrowLeft" xlink:href="#dirArrow" transform="rotate(270) translate(-36 17)" onmousedown="handlePan(-1,0)">
                  <use xlink:href="#rim" fill="#404040">
                        <set attributeName="fill" to="#808080" begin="arrowLeft.mouseover" end="arrowLeft.mouseout"/>
                  </use>
                  <path fill="none" stroke="white" stroke-width="1.5" d="M0,-3.0v7 M-2.5,-0.5L0,-3.0L2.5,-0.5"/>
                </g>
        </g>
        <svg viewBox="0 0 15 15" width="100%" height="30px" preserveAspectRatio="xMaxYMin meet">
         <g id="arrow_out" transform="scale(0.3 0.3)">
          <a xlink:href="namespaceobe_1_1_bindings_1_1_animation_bindings_a23ff7695a9fedd64589a2eca1ee9f811_cgraph_org.svg" target="_base">
           <rect id="button" ry="5" rx="5" y="6" x="6" height="38" width="38"
                fill="#f2f5e9" fill-opacity="0.5" stroke="#606060" stroke-width="1.0"/>
           <path id="arrow"
             d="M 11.500037,31.436501 C 11.940474,20.09759 22.043105,11.32322 32.158766,21.979434 L 37.068811,17.246167 C 37.068811,17.246167 37.088388,32 37.088388,32 L 22.160133,31.978069 C 22.160133,31.978069 26.997745,27.140456 26.997745,27.140456 C 18.528582,18.264221 13.291696,25.230495 11.500037,31.436501 z"
             style="fill:#404040;"/>
          </a>
         </g>
        </svg>
</svg>
