<?xml version="1.0" encoding="UTF-8" standalone="no"?>
<!DOCTYPE svg PUBLIC "-//W3C//DTD SVG 1.1//EN"
 "http://www.w3.org/Graphics/SVG/1.1/DTD/svg11.dtd">
<!-- Generated by graphviz version 2.38.0 (20140413.2041)
 -->
<!-- Title: obe::Editor::buildObjectThroughRequire Pages: 1 -->
<svg width="1018pt" height="53pt"
 viewBox="0.00 0.00 1018.00 52.50" xmlns="http://www.w3.org/2000/svg" xmlns:xlink="http://www.w3.org/1999/xlink">
<g id="graph0" class="graph" transform="scale(1 1) rotate(0) translate(4 48.5)">
<title>obe::Editor::buildObjectThroughRequire</title>
<!-- Node77 -->
<g id="node1" class="node"><title>Node77</title>
<polygon fill="#bfbfbf" stroke="black" points="0,-0.5 0,-30.5 119,-30.5 119,-0.5 0,-0.5"/>
<text text-anchor="start" x="8" y="-18.5" font-family="Helvetica,sans-Serif" font-size="10.00">obe::Editor::buildObject</text>
<text text-anchor="middle" x="59.5" y="-7.5" font-family="Helvetica,sans-Serif" font-size="10.00">ThroughRequire</text>
</g>
<!-- Node78 -->
<g id="node2" class="node"><title>Node78</title>
<g id="a_node2"><a xlink:href="namespaceobe_1_1_editor.html#ab548dfe02b4323438bcf9caedd01d696" target="_top" xlink:title="obe::Editor::buildRequires\lObjectTab">
<polygon fill="white" stroke="black" points="155,-0.5 155,-30.5 283,-30.5 283,-0.5 155,-0.5"/>
<text text-anchor="start" x="163" y="-18.5" font-family="Helvetica,sans-Serif" font-size="10.00">obe::Editor::buildRequires</text>
<text text-anchor="middle" x="219" y="-7.5" font-family="Helvetica,sans-Serif" font-size="10.00">ObjectTab</text>
</a>
</g>
</g>
<!-- Node77&#45;&gt;Node78 -->
<g id="edge1" class="edge"><title>Node77&#45;&gt;Node78</title>
<path fill="none" stroke="midnightblue" d="M129.365,-15.5C137.826,-15.5 146.443,-15.5 154.814,-15.5"/>
<polygon fill="midnightblue" stroke="midnightblue" points="129.147,-12.0001 119.147,-15.5 129.147,-19.0001 129.147,-12.0001"/>
</g>
<!-- Node79 -->
<g id="node3" class="node"><title>Node79</title>
<g id="a_node3"><a xlink:href="namespaceobe_1_1_editor.html#a24423ada9fd467ae78ebf9d21e64db0b" target="_top" xlink:title="obe::Editor::buildObjectTab">
<polygon fill="white" stroke="black" points="319,-6 319,-25 453,-25 453,-6 319,-6"/>
<text text-anchor="middle" x="386" y="-13" font-family="Helvetica,sans-Serif" font-size="10.00">obe::Editor::buildObjectTab</text>
</a>
</g>
</g>
<!-- Node78&#45;&gt;Node79 -->
<g id="edge2" class="edge"><title>Node78&#45;&gt;Node79</title>
<path fill="none" stroke="midnightblue" d="M293.52,-15.5C301.952,-15.5 310.511,-15.5 318.839,-15.5"/>
<polygon fill="midnightblue" stroke="midnightblue" points="293.321,-12.0001 283.321,-15.5 293.321,-19.0001 293.321,-12.0001"/>
</g>
<!-- Node80 -->
<g id="node4" class="node"><title>Node80</title>
<g id="a_node4"><a xlink:href="namespaceobe_1_1_editor_1_1_g_u_i.html#ac209e33d93d1c6b719ed4c5206994ffc" target="_top" xlink:title="obe::Editor::GUI::buildEditor\lObjectsMenu">
<polygon fill="white" stroke="black" points="489,-0.5 489,-30.5 627,-30.5 627,-0.5 489,-0.5"/>
<text text-anchor="start" x="497" y="-18.5" font-family="Helvetica,sans-Serif" font-size="10.00">obe::Editor::GUI::buildEditor</text>
<text text-anchor="middle" x="558" y="-7.5" font-family="Helvetica,sans-Serif" font-size="10.00">ObjectsMenu</text>
</a>
</g>
</g>
<!-- Node79&#45;&gt;Node80 -->
<g id="edge3" class="edge"><title>Node79&#45;&gt;Node80</title>
<path fill="none" stroke="midnightblue" d="M463.421,-15.5C471.854,-15.5 480.401,-15.5 488.725,-15.5"/>
<polygon fill="midnightblue" stroke="midnightblue" points="463.213,-12.0001 453.213,-15.5 463.213,-19.0001 463.213,-12.0001"/>
</g>
<!-- Node81 -->
<g id="node5" class="node"><title>Node81</title>
<g id="a_node5"><a xlink:href="namespaceobe_1_1_editor.html#a9009207671e71dccb68a31ea2362e9ef" target="_top" xlink:title="Starts the map edition. ">
<polygon fill="white" stroke="black" points="663,-6 663,-25 767,-25 767,-6 663,-6"/>
<text text-anchor="middle" x="715" y="-13" font-family="Helvetica,sans-Serif" font-size="10.00">obe::Editor::editMap</text>
</a>
</g>
</g>
<!-- Node80&#45;&gt;Node81 -->
<g id="edge4" class="edge"><title>Node80&#45;&gt;Node81</title>
<path fill="none" stroke="midnightblue" d="M637.47,-15.5C646.032,-15.5 654.578,-15.5 662.69,-15.5"/>
<polygon fill="midnightblue" stroke="midnightblue" points="637.436,-12.0001 627.436,-15.5 637.436,-19.0001 637.436,-12.0001"/>
</g>
<!-- Node82 -->
<g id="node6" class="node"><title>Node82</title>
<g id="a_node6"><a xlink:href="namespaceobe_1_1_modes.html#a6a8b08eee511d4895c4da96d4ba223a6" target="_top" xlink:title="Starts the development Menu where you can starts other menus from. ">
<polygon fill="white" stroke="black" points="803,-25 803,-44 936,-44 936,-25 803,-25"/>
<text text-anchor="middle" x="869.5" y="-32" font-family="Helvetica,sans-Serif" font-size="10.00">obe::Modes::startDevMenu</text>
</a>
</g>
</g>
<!-- Node81&#45;&gt;Node82 -->
<g id="edge5" class="edge"><title>Node81&#45;&gt;Node82</title>
<path fill="none" stroke="midnightblue" d="M777.292,-23.1364C785.688,-24.1824 794.336,-25.2599 802.806,-26.3152"/>
<polygon fill="midnightblue" stroke="midnightblue" points="777.561,-19.6429 767.205,-21.8796 776.695,-26.5892 777.561,-19.6429"/>
</g>
<!-- Node83 -->
<g id="node7" class="node"><title>Node83</title>
<g id="a_node7"><a xlink:href="_ob_engine_8cpp.html#a3c04138a5bfe5d72780bb7e82a18e627" target="_top" xlink:title="main">
<polygon fill="white" stroke="black" points="972,-6 972,-25 1010,-25 1010,-6 972,-6"/>
<text text-anchor="middle" x="991" y="-13" font-family="Helvetica,sans-Serif" font-size="10.00">main</text>
</a>
</g>
</g>
<!-- Node81&#45;&gt;Node83 -->
<g id="edge7" class="edge"><title>Node81&#45;&gt;Node83</title>
<path fill="none" stroke="midnightblue" d="M777.356,-15.5C839.863,-15.5 932.971,-15.5 971.885,-15.5"/>
<polygon fill="midnightblue" stroke="midnightblue" points="777.216,-12.0001 767.216,-15.5 777.216,-19.0001 777.216,-12.0001"/>
</g>
<!-- Node82&#45;&gt;Node83 -->
<g id="edge6" class="edge"><title>Node82&#45;&gt;Node83</title>
<path fill="none" stroke="midnightblue" d="M940.822,-23.3192C952.345,-21.4869 963.327,-19.7409 971.978,-18.3654"/>
<polygon fill="midnightblue" stroke="midnightblue" points="939.926,-19.9174 930.6,-24.9443 941.026,-26.8306 939.926,-19.9174"/>
</g>
</g>
</svg>
