<?xml version="1.0" encoding="UTF-8" standalone="no"?>
<!DOCTYPE svg PUBLIC "-//W3C//DTD SVG 1.1//EN"
 "http://www.w3.org/Graphics/SVG/1.1/DTD/svg11.dtd">
<!-- Generated by graphviz version 2.38.0 (20140413.2041)
 -->
<!-- Title: obe::System::Workspace::WorkspaceExists Pages: 1 -->
<!--zoomable 112 -->
<svg id="main" version="1.1" xmlns="http://www.w3.org/2000/svg" xmlns:xlink="http://www.w3.org/1999/xlink" xml:space="preserve" onload="init(evt)">
<style type="text/css"><![CDATA[
.edge:hover path { stroke: red; }
.edge:hover polygon { stroke: red; fill: red; }
.edge path { stroke: white; }
.edge polygon { stroke: white; fill: white; }
.node polygon { fill: white; }
]]></style>
<script type="text/javascript"><![CDATA[
var edges = document.getElementsByTagName('g');
if (edges && edges.length) {
  for (var i=0;i<edges.length;i++) {
    if (edges[i].id.substr(0,4)=='edge') {
      edges[i].setAttribute('class','edge');
    }
  }
}
]]></script>
        <defs>
                <circle id="rim" cx="0" cy="0" r="7"/>
                <circle id="rim2" cx="0" cy="0" r="3.5"/>
                <g id="zoomPlus">
                        <use xlink:href="#rim" fill="#404040">
                                <set attributeName="fill" to="#808080" begin="zoomplus.mouseover" end="zoomplus.mouseout"/>
                        </use>
                        <path d="M-4,0h8M0,-4v8" fill="none" stroke="white" stroke-width="1.5" pointer-events="none"/>
                </g>
                <g id="zoomMin">
                        <use xlink:href="#rim" fill="#404040">
                                <set attributeName="fill" to="#808080" begin="zoomminus.mouseover" end="zoomminus.mouseout"/>
                        </use>
                        <path d="M-4,0h8" fill="none" stroke="white" stroke-width="1.5" pointer-events="none"/>
                </g>
                <g id="dirArrow">
                        <path fill="none" stroke="white" stroke-width="1.5" d="M0,-3.0v7 M-2.5,-0.5L0,-3.0L2.5,-0.5"/>
                </g>
               <g id="resetDef">
                       <use xlink:href="#rim2" fill="#404040">
                               <set attributeName="fill" to="#808080" begin="reset.mouseover" end="reset.mouseout"/>
                       </use>
               </g>
        </defs>

<script type="text/javascript">
var viewWidth = 1095;
var viewHeight = 112;
var sectionId = 'dynsection-5';
</script>
<script xlink:href="svgpan.js"/>
<svg id="graph" class="graph">
<g id="viewport">
<title>obe::System::Workspace::WorkspaceExists</title>
<!-- Node31 -->
<g id="node1" class="node"><title>Node31</title>
<polygon fill="#bfbfbf" stroke="black" points="0,-59.0088 0,-89.0088 128,-89.0088 128,-59.0088 0,-59.0088"/>
<text text-anchor="start" x="8" y="-77.0088" font-family="Helvetica,sans-Serif" font-size="10.00">obe::System::Workspace</text>
<text text-anchor="middle" x="64" y="-66.0088" font-family="Helvetica,sans-Serif" font-size="10.00">::WorkspaceExists</text>
</g>
<!-- Node32 -->
<g id="node2" class="node"><title>Node32</title>
<g id="a_node2"><a xlink:href="namespaceobe_1_1_bindings_1_1_system_bindings.html#ac7023d60b42ec4e83d0bbb33f3e646a0" target="_top" xlink:title="obe::Bindings::SystemBindings\l::LoadWorkspace">
<polygon fill="none" stroke="black" points="492,-62.0088 492,-92.0088 645,-92.0088 645,-62.0088 492,-62.0088"/>
<text text-anchor="start" x="500" y="-80.0088" font-family="Helvetica,sans-Serif" font-size="10.00">obe::Bindings::SystemBindings</text>
<text text-anchor="middle" x="568.5" y="-69.0088" font-family="Helvetica,sans-Serif" font-size="10.00">::LoadWorkspace</text>
</a>
</g>
</g>
<!-- Node31&#45;&gt;Node32 -->
<g id="edge1" class="edge"><title>Node31&#45;&gt;Node32</title>
<path fill="none" stroke="midnightblue" d="M127.038,-91.4305C139.199,-94.1677 151.927,-96.5663 164,-98.0088 277.706,-111.595 410.478,-99.3134 491.76,-88.631"/>
<polygon fill="midnightblue" stroke="midnightblue" points="127.518,-87.9481 116.982,-89.0652 125.915,-94.7621 127.518,-87.9481"/>
</g>
<!-- Node35 -->
<g id="node5" class="node"><title>Node35</title>
<g id="a_node5"><a xlink:href="namespaceobe_1_1_system_1_1_workspace.html#aea9696cfbdae7d10f402823b9cbc69d6" target="_top" xlink:title="Get the Location of the Workspace identified by workspaceName. ">
<polygon fill="none" stroke="black" points="164,-59.0088 164,-89.0088 292,-89.0088 292,-59.0088 164,-59.0088"/>
<text text-anchor="start" x="172" y="-77.0088" font-family="Helvetica,sans-Serif" font-size="10.00">obe::System::Workspace</text>
<text text-anchor="middle" x="228" y="-66.0088" font-family="Helvetica,sans-Serif" font-size="10.00">::GetWorkspaceLocation</text>
</a>
</g>
</g>
<!-- Node31&#45;&gt;Node35 -->
<g id="edge4" class="edge"><title>Node31&#45;&gt;Node35</title>
<path fill="none" stroke="midnightblue" d="M138.374,-74.0088C146.865,-74.0088 155.469,-74.0088 163.808,-74.0088"/>
<polygon fill="midnightblue" stroke="midnightblue" points="138.097,-70.5089 128.097,-74.0088 138.097,-77.5089 138.097,-70.5089"/>
</g>
<!-- Node36 -->
<g id="node6" class="node"><title>Node36</title>
<g id="a_node6"><a xlink:href="namespaceobe_1_1_system_1_1_workspace.html#a7fbdad51c1fdbf60f1a244b102139253" target="_top" xlink:title="Load a new Workspace in the mounted paths. ">
<polygon fill="none" stroke="black" points="328,-18.0088 328,-48.0088 456,-48.0088 456,-18.0088 328,-18.0088"/>
<text text-anchor="start" x="336" y="-36.0088" font-family="Helvetica,sans-Serif" font-size="10.00">obe::System::Workspace</text>
<text text-anchor="middle" x="392" y="-25.0088" font-family="Helvetica,sans-Serif" font-size="10.00">::Load</text>
</a>
</g>
</g>
<!-- Node31&#45;&gt;Node36 -->
<g id="edge12" class="edge"><title>Node31&#45;&gt;Node36</title>
<path fill="none" stroke="midnightblue" d="M127.307,-56.4943C139.4,-53.6016 152.034,-50.9258 164,-49.0088 218.809,-40.2278 281.832,-36.2659 327.543,-34.4783"/>
<polygon fill="midnightblue" stroke="midnightblue" points="126.173,-53.1691 117.303,-58.9633 127.851,-59.9652 126.173,-53.1691"/>
</g>
<!-- Node33 -->
<g id="node3" class="node"><title>Node33</title>
<g id="a_node3"><a xlink:href="namespaceobe_1_1_bindings.html#a41d33207a0199f125c75a0f70a4a3ba8" target="_top" xlink:title="To call when the engine starts, indexes all Lua bindings. ">
<polygon fill="none" stroke="black" points="870,-23.5088 870,-42.5088 1013,-42.5088 1013,-23.5088 870,-23.5088"/>
<text text-anchor="middle" x="941.5" y="-30.5088" font-family="Helvetica,sans-Serif" font-size="10.00">obe::Bindings::IndexBindings</text>
</a>
</g>
</g>
<!-- Node32&#45;&gt;Node33 -->
<g id="edge2" class="edge"><title>Node32&#45;&gt;Node33</title>
<path fill="none" stroke="midnightblue" d="M655.248,-73.703C707.187,-70.913 774.65,-65.8912 834,-57.0088 857.618,-53.474 883.787,-47.6048 904.273,-42.5555"/>
<polygon fill="midnightblue" stroke="midnightblue" points="654.879,-70.2174 645.074,-74.2318 655.243,-77.2079 654.879,-70.2174"/>
</g>
<!-- Node34 -->
<g id="node4" class="node"><title>Node34</title>
<g id="a_node4"><a xlink:href="_ob_engine_8cpp.html#a3c04138a5bfe5d72780bb7e82a18e627" target="_top" xlink:title="main">
<polygon fill="none" stroke="black" points="1049,-1.50879 1049,-20.5088 1087,-20.5088 1087,-1.50879 1049,-1.50879"/>
<text text-anchor="middle" x="1068" y="-8.50879" font-family="Helvetica,sans-Serif" font-size="10.00">main</text>
</a>
</g>
</g>
<!-- Node33&#45;&gt;Node34 -->
<g id="edge3" class="edge"><title>Node33&#45;&gt;Node34</title>
<path fill="none" stroke="midnightblue" d="M1006.57,-21.6863C1022.11,-18.9407 1037.5,-16.2219 1048.86,-14.2149"/>
<polygon fill="midnightblue" stroke="midnightblue" points="1005.62,-18.3004 996.383,-23.4872 1006.84,-25.1936 1005.62,-18.3004"/>
</g>
<!-- Node35&#45;&gt;Node32 -->
<g id="edge5" class="edge"><title>Node35&#45;&gt;Node32</title>
<path fill="none" stroke="midnightblue" d="M302.474,-74.66C358.46,-75.1561 435.29,-75.8371 491.815,-76.338"/>
<polygon fill="midnightblue" stroke="midnightblue" points="302.303,-71.1584 292.272,-74.5695 302.241,-78.1581 302.303,-71.1584"/>
</g>
<!-- Node35&#45;&gt;Node36 -->
<g id="edge6" class="edge"><title>Node35&#45;&gt;Node36</title>
<path fill="none" stroke="midnightblue" d="M298.101,-56.5203C309.251,-53.6983 320.709,-50.7985 331.604,-48.041"/>
<polygon fill="midnightblue" stroke="midnightblue" points="297.239,-53.1281 288.403,-58.9747 298.956,-59.9142 297.239,-53.1281"/>
</g>
<!-- Node36&#45;&gt;Node32 -->
<g id="edge7" class="edge"><title>Node36&#45;&gt;Node32</title>
<path fill="none" stroke="midnightblue" d="M462.346,-50.4943C477.423,-54.2961 493.246,-58.2858 507.907,-61.9826"/>
<polygon fill="midnightblue" stroke="midnightblue" points="463.117,-47.0793 452.565,-48.028 461.406,-53.8668 463.117,-47.0793"/>
</g>
<!-- Node37 -->
<g id="node7" class="node"><title>Node37</title>
<g id="a_node7"><a xlink:href="namespaceobe_1_1_system.html#ab44a678f8f4dc351d966f90283ba67e1" target="_top" xlink:title="Function called to Mount all Paths using &#39;Mount.vili&#39; file. ">
<polygon fill="none" stroke="black" points="503,-23.5088 503,-42.5088 634,-42.5088 634,-23.5088 503,-23.5088"/>
<text text-anchor="middle" x="568.5" y="-30.5088" font-family="Helvetica,sans-Serif" font-size="10.00">obe::System::MountPaths</text>
</a>
</g>
</g>
<!-- Node36&#45;&gt;Node37 -->
<g id="edge8" class="edge"><title>Node36&#45;&gt;Node37</title>
<path fill="none" stroke="midnightblue" d="M466.531,-33.0088C478.608,-33.0088 491.045,-33.0088 502.884,-33.0088"/>
<polygon fill="midnightblue" stroke="midnightblue" points="466.492,-29.5089 456.492,-33.0088 466.492,-36.5089 466.492,-29.5089"/>
</g>
<!-- Node37&#45;&gt;Node34 -->
<g id="edge11" class="edge"><title>Node37&#45;&gt;Node34</title>
<path fill="none" stroke="midnightblue" d="M612.537,-21.0306C633.083,-15.9135 658.124,-10.5419 681,-8.00879 821.878,7.59101 993.445,-4.6331 1048.83,-9.35426"/>
<polygon fill="midnightblue" stroke="midnightblue" points="611.663,-17.6414 602.841,-23.5087 613.396,-24.4234 611.663,-17.6414"/>
</g>
<!-- Node38 -->
<g id="node8" class="node"><title>Node38</title>
<g id="a_node8"><a xlink:href="namespaceobe_1_1_bindings_1_1_system_bindings.html#a2cd44a60b6250b8e4279e7bd0ad077db" target="_top" xlink:title="obe::Bindings::SystemBindings\l::LoadMountablePath">
<polygon fill="none" stroke="black" points="681,-18.0088 681,-48.0088 834,-48.0088 834,-18.0088 681,-18.0088"/>
<text text-anchor="start" x="689" y="-36.0088" font-family="Helvetica,sans-Serif" font-size="10.00">obe::Bindings::SystemBindings</text>
<text text-anchor="middle" x="757.5" y="-25.0088" font-family="Helvetica,sans-Serif" font-size="10.00">::LoadMountablePath</text>
</a>
</g>
</g>
<!-- Node37&#45;&gt;Node38 -->
<g id="edge9" class="edge"><title>Node37&#45;&gt;Node38</title>
<path fill="none" stroke="midnightblue" d="M644.165,-33.0088C656.272,-33.0088 668.819,-33.0088 680.948,-33.0088"/>
<polygon fill="midnightblue" stroke="midnightblue" points="644.117,-29.5089 634.117,-33.0088 644.117,-36.5089 644.117,-29.5089"/>
</g>
<!-- Node38&#45;&gt;Node33 -->
<g id="edge10" class="edge"><title>Node38&#45;&gt;Node33</title>
<path fill="none" stroke="midnightblue" d="M844.14,-33.0088C852.731,-33.0088 861.386,-33.0088 869.797,-33.0088"/>
<polygon fill="midnightblue" stroke="midnightblue" points="844.103,-29.5089 834.103,-33.0088 844.103,-36.5089 844.103,-29.5089"/>
</g>
</g>
</svg>
        <g id="navigator" transform="translate(0 0)" fill="#404254">
                <rect fill="#f2f5e9" fill-opacity="0.5" stroke="#606060" stroke-width=".5" x="0" y="0" width="60" height="60"/>
                <use id="zoomplus" xlink:href="#zoomPlus" x="17" y="9" onmousedown="handleZoom(evt,'in')"/>
                <use id="zoomminus" xlink:href="#zoomMin" x="42" y="9" onmousedown="handleZoom(evt,'out')"/>
                <use id="reset" xlink:href="#resetDef" x="30" y="36" onmousedown="handleReset()"/>
                <g id="arrowUp" xlink:href="#dirArrow" transform="translate(30 24)" onmousedown="handlePan(0,-1)">
                  <use xlink:href="#rim" fill="#404040">
                        <set attributeName="fill" to="#808080" begin="arrowUp.mouseover" end="arrowUp.mouseout"/>
                  </use>
                  <path fill="none" stroke="white" stroke-width="1.5" d="M0,-3.0v7 M-2.5,-0.5L0,-3.0L2.5,-0.5"/>
                </g>
                <g id="arrowRight" xlink:href="#dirArrow" transform="rotate(90) translate(36 -43)" onmousedown="handlePan(1,0)">
                  <use xlink:href="#rim" fill="#404040">
                        <set attributeName="fill" to="#808080" begin="arrowRight.mouseover" end="arrowRight.mouseout"/>
                  </use>
                  <path fill="none" stroke="white" stroke-width="1.5" d="M0,-3.0v7 M-2.5,-0.5L0,-3.0L2.5,-0.5"/>
                </g>
                <g id="arrowDown" xlink:href="#dirArrow" transform="rotate(180) translate(-30 -48)" onmousedown="handlePan(0,1)">
                  <use xlink:href="#rim" fill="#404040">
                        <set attributeName="fill" to="#808080" begin="arrowDown.mouseover" end="arrowDown.mouseout"/>
                  </use>
                  <path fill="none" stroke="white" stroke-width="1.5" d="M0,-3.0v7 M-2.5,-0.5L0,-3.0L2.5,-0.5"/>
                </g>
                <g id="arrowLeft" xlink:href="#dirArrow" transform="rotate(270) translate(-36 17)" onmousedown="handlePan(-1,0)">
                  <use xlink:href="#rim" fill="#404040">
                        <set attributeName="fill" to="#808080" begin="arrowLeft.mouseover" end="arrowLeft.mouseout"/>
                  </use>
                  <path fill="none" stroke="white" stroke-width="1.5" d="M0,-3.0v7 M-2.5,-0.5L0,-3.0L2.5,-0.5"/>
                </g>
        </g>
        <svg viewBox="0 0 15 15" width="100%" height="30px" preserveAspectRatio="xMaxYMin meet">
         <g id="arrow_out" transform="scale(0.3 0.3)">
          <a xlink:href="namespaceobe_1_1_system_1_1_workspace_a274d78783ebcec1e8347e1465446d5e4_icgraph_org.svg" target="_base">
           <rect id="button" ry="5" rx="5" y="6" x="6" height="38" width="38"
                fill="#f2f5e9" fill-opacity="0.5" stroke="#606060" stroke-width="1.0"/>
           <path id="arrow"
             d="M 11.500037,31.436501 C 11.940474,20.09759 22.043105,11.32322 32.158766,21.979434 L 37.068811,17.246167 C 37.068811,17.246167 37.088388,32 37.088388,32 L 22.160133,31.978069 C 22.160133,31.978069 26.997745,27.140456 26.997745,27.140456 C 18.528582,18.264221 13.291696,25.230495 11.500037,31.436501 z"
             style="fill:#404040;"/>
          </a>
         </g>
        </svg>
</svg>
