<?xml version="1.0" encoding="UTF-8" standalone="no"?>
<!DOCTYPE svg PUBLIC "-//W3C//DTD SVG 1.1//EN"
 "http://www.w3.org/Graphics/SVG/1.1/DTD/svg11.dtd">
<!-- Generated by graphviz version 2.38.0 (20140413.2041)
 -->
<!-- Title: obe::tguif::bindRight Pages: 1 -->
<svg width="692pt" height="193pt"
 viewBox="0.00 0.00 692.00 192.52" xmlns="http://www.w3.org/2000/svg" xmlns:xlink="http://www.w3.org/1999/xlink">
<g id="graph0" class="graph" transform="scale(1 1) rotate(0) translate(4 188.516)">
<title>obe::tguif::bindRight</title>
<!-- Node16 -->
<g id="node1" class="node"><title>Node16</title>
<polygon fill="#bfbfbf" stroke="black" points="0,-99 0,-118 103,-118 103,-99 0,-99"/>
<text text-anchor="middle" x="51.5" y="-106" font-family="Helvetica,sans-Serif" font-size="10.00">obe::tguif::bindRight</text>
</g>
<!-- Node17 -->
<g id="node2" class="node"><title>Node17</title>
<g id="a_node2"><a xlink:href="namespaceobe_1_1_editor_1_1_g_u_i.html#a3b76d23529a5a026a7257e4dc31c72a7" target="_top" xlink:title="obe::Editor::GUI::buildToolbar">
<polygon fill="white" stroke="black" points="148,-137 148,-156 292,-156 292,-137 148,-137"/>
<text text-anchor="middle" x="220" y="-144" font-family="Helvetica,sans-Serif" font-size="10.00">obe::Editor::GUI::buildToolbar</text>
</a>
</g>
</g>
<!-- Node16&#45;&gt;Node17 -->
<g id="edge1" class="edge"><title>Node16&#45;&gt;Node17</title>
<path fill="none" stroke="midnightblue" d="M104.309,-120.324C127.783,-125.682 155.165,-131.931 177.287,-136.98"/>
<polygon fill="midnightblue" stroke="midnightblue" points="105.043,-116.902 94.515,-118.089 103.485,-123.726 105.043,-116.902"/>
</g>
<!-- Node19 -->
<g id="node4" class="node"><title>Node19</title>
<g id="a_node4"><a xlink:href="namespaceobe_1_1_modes.html#a6a8b08eee511d4895c4da96d4ba223a6" target="_top" xlink:title="Starts the development Menu where you can starts other menus from. ">
<polygon fill="white" stroke="black" points="477,-137 477,-156 610,-156 610,-137 477,-137"/>
<text text-anchor="middle" x="543.5" y="-144" font-family="Helvetica,sans-Serif" font-size="10.00">obe::Modes::startDevMenu</text>
</a>
</g>
</g>
<!-- Node16&#45;&gt;Node19 -->
<g id="edge12" class="edge"><title>Node16&#45;&gt;Node19</title>
<path fill="none" stroke="midnightblue" d="M70.3495,-124.842C86.7989,-138.711 112.594,-157.582 139,-165.5 269.655,-204.678 434.693,-173.356 506.449,-156.046"/>
<polygon fill="midnightblue" stroke="midnightblue" points="72.4846,-122.06 62.6457,-118.13 67.8861,-127.338 72.4846,-122.06"/>
</g>
<!-- Node21 -->
<g id="node6" class="node"><title>Node21</title>
<g id="a_node6"><a xlink:href="namespaceobe_1_1_editor_1_1_g_u_i.html#a0c6c58e70889e48936bbb88e355343bc" target="_top" xlink:title="obe::Editor::GUI::buildEditorMenu">
<polygon fill="white" stroke="black" points="139,-99 139,-118 301,-118 301,-99 139,-99"/>
<text text-anchor="middle" x="220" y="-106" font-family="Helvetica,sans-Serif" font-size="10.00">obe::Editor::GUI::buildEditorMenu</text>
</a>
</g>
</g>
<!-- Node16&#45;&gt;Node21 -->
<g id="edge6" class="edge"><title>Node16&#45;&gt;Node21</title>
<path fill="none" stroke="midnightblue" d="M113.544,-108.5C121.735,-108.5 130.235,-108.5 138.695,-108.5"/>
<polygon fill="midnightblue" stroke="midnightblue" points="113.36,-105 103.36,-108.5 113.36,-112 113.36,-105"/>
</g>
<!-- Node22 -->
<g id="node7" class="node"><title>Node22</title>
<g id="a_node7"><a xlink:href="namespaceobe_1_1_editor_1_1_g_u_i.html#ab6488bee9ef282bd00427197711429cc" target="_top" xlink:title="obe::Editor::GUI::buildEditor\lMapMenu">
<polygon fill="white" stroke="black" points="151,-49.5 151,-79.5 289,-79.5 289,-49.5 151,-49.5"/>
<text text-anchor="start" x="159" y="-67.5" font-family="Helvetica,sans-Serif" font-size="10.00">obe::Editor::GUI::buildEditor</text>
<text text-anchor="middle" x="220" y="-56.5" font-family="Helvetica,sans-Serif" font-size="10.00">MapMenu</text>
</a>
</g>
</g>
<!-- Node16&#45;&gt;Node22 -->
<g id="edge8" class="edge"><title>Node16&#45;&gt;Node22</title>
<path fill="none" stroke="midnightblue" d="M98.5475,-96.3313C118.182,-91.1426 141.292,-85.0354 161.991,-79.5654"/>
<polygon fill="midnightblue" stroke="midnightblue" points="97.4019,-93.0138 88.628,-98.9527 99.1904,-99.7815 97.4019,-93.0138"/>
</g>
<!-- Node23 -->
<g id="node8" class="node"><title>Node23</title>
<g id="a_node8"><a xlink:href="namespaceobe_1_1_editor_1_1_g_u_i.html#a0e86f334cbb96c0202f6cf5626aa81a1" target="_top" xlink:title="obe::Editor::GUI::buildEditor\lSettingsMenu">
<polygon fill="white" stroke="black" points="151,-0.5 151,-30.5 289,-30.5 289,-0.5 151,-0.5"/>
<text text-anchor="start" x="159" y="-18.5" font-family="Helvetica,sans-Serif" font-size="10.00">obe::Editor::GUI::buildEditor</text>
<text text-anchor="middle" x="220" y="-7.5" font-family="Helvetica,sans-Serif" font-size="10.00">SettingsMenu</text>
</a>
</g>
</g>
<!-- Node16&#45;&gt;Node23 -->
<g id="edge10" class="edge"><title>Node16&#45;&gt;Node23</title>
<path fill="none" stroke="midnightblue" d="M69.2325,-91.8799C85.7118,-76.3502 112.237,-53.5147 139,-39.5 145.423,-36.1366 152.389,-33.1715 159.44,-30.5775"/>
<polygon fill="midnightblue" stroke="midnightblue" points="66.7719,-89.3904 61.9926,-98.846 71.6254,-94.4346 66.7719,-89.3904"/>
</g>
<!-- Node18 -->
<g id="node3" class="node"><title>Node18</title>
<g id="a_node3"><a xlink:href="namespaceobe_1_1_editor.html#a9009207671e71dccb68a31ea2362e9ef" target="_top" xlink:title="Starts the map edition. ">
<polygon fill="white" stroke="black" points="337,-99 337,-118 441,-118 441,-99 337,-99"/>
<text text-anchor="middle" x="389" y="-106" font-family="Helvetica,sans-Serif" font-size="10.00">obe::Editor::editMap</text>
</a>
</g>
</g>
<!-- Node17&#45;&gt;Node18 -->
<g id="edge2" class="edge"><title>Node17&#45;&gt;Node18</title>
<path fill="none" stroke="midnightblue" d="M272.965,-134.676C296.509,-129.318 323.974,-123.069 346.162,-118.02"/>
<polygon fill="midnightblue" stroke="midnightblue" points="272.115,-131.279 263.141,-136.911 273.668,-138.105 272.115,-131.279"/>
</g>
<!-- Node18&#45;&gt;Node19 -->
<g id="edge3" class="edge"><title>Node18&#45;&gt;Node19</title>
<path fill="none" stroke="midnightblue" d="M438.318,-120.54C459.623,-125.849 484.304,-131.999 504.295,-136.98"/>
<polygon fill="midnightblue" stroke="midnightblue" points="439.032,-117.111 428.482,-118.089 437.339,-123.903 439.032,-117.111"/>
</g>
<!-- Node20 -->
<g id="node5" class="node"><title>Node20</title>
<g id="a_node5"><a xlink:href="_ob_engine_8cpp.html#a3c04138a5bfe5d72780bb7e82a18e627" target="_top" xlink:title="main">
<polygon fill="white" stroke="black" points="646,-118 646,-137 684,-137 684,-118 646,-118"/>
<text text-anchor="middle" x="665" y="-125" font-family="Helvetica,sans-Serif" font-size="10.00">main</text>
</a>
</g>
</g>
<!-- Node18&#45;&gt;Node20 -->
<g id="edge5" class="edge"><title>Node18&#45;&gt;Node20</title>
<path fill="none" stroke="midnightblue" d="M451.356,-112.755C513.863,-117.089 606.971,-123.545 645.885,-126.244"/>
<polygon fill="midnightblue" stroke="midnightblue" points="451.434,-109.252 441.216,-112.051 450.95,-116.235 451.434,-109.252"/>
</g>
<!-- Node19&#45;&gt;Node20 -->
<g id="edge4" class="edge"><title>Node19&#45;&gt;Node20</title>
<path fill="none" stroke="midnightblue" d="M614.822,-135.319C626.345,-133.487 637.327,-131.741 645.978,-130.365"/>
<polygon fill="midnightblue" stroke="midnightblue" points="613.926,-131.917 604.6,-136.944 615.026,-138.831 613.926,-131.917"/>
</g>
<!-- Node21&#45;&gt;Node18 -->
<g id="edge7" class="edge"><title>Node21&#45;&gt;Node18</title>
<path fill="none" stroke="midnightblue" d="M311.102,-108.5C319.964,-108.5 328.726,-108.5 336.985,-108.5"/>
<polygon fill="midnightblue" stroke="midnightblue" points="311.076,-105 301.076,-108.5 311.076,-112 311.076,-105"/>
</g>
<!-- Node22&#45;&gt;Node18 -->
<g id="edge9" class="edge"><title>Node22&#45;&gt;Node18</title>
<path fill="none" stroke="midnightblue" d="M287.874,-82.1194C309.642,-87.8547 332.981,-94.0041 351.646,-98.9217"/>
<polygon fill="midnightblue" stroke="midnightblue" points="288.567,-78.6826 278.005,-79.5192 286.783,-85.4516 288.567,-78.6826"/>
</g>
<!-- Node23&#45;&gt;Node18 -->
<g id="edge11" class="edge"><title>Node23&#45;&gt;Node18</title>
<path fill="none" stroke="midnightblue" d="M290.044,-34.3467C293.808,-35.9492 297.485,-37.6656 301,-39.5 332.276,-55.8218 363.294,-84.0676 378.441,-98.8494"/>
<polygon fill="midnightblue" stroke="midnightblue" points="291.137,-31.0154 280.551,-30.595 288.565,-37.5254 291.137,-31.0154"/>
</g>
</g>
</svg>
