<?xml version="1.0" encoding="UTF-8" standalone="no"?>
<!DOCTYPE svg PUBLIC "-//W3C//DTD SVG 1.1//EN"
 "http://www.w3.org/Graphics/SVG/1.1/DTD/svg11.dtd">
<!-- Generated by graphviz version 2.38.0 (20140413.2041)
 -->
<!-- Title: obe::Script::CoreLib::loadCursor Pages: 1 -->
<!--zoomable 858 -->
<svg id="main" version="1.1" xmlns="http://www.w3.org/2000/svg" xmlns:xlink="http://www.w3.org/1999/xlink" xml:space="preserve" onload="init(evt)">
<style type="text/css"><![CDATA[
.edge:hover path { stroke: red; }
.edge:hover polygon { stroke: red; fill: red; }
.edge path { stroke: white; }
.edge polygon { stroke: white; fill: white; }
.node polygon { fill: white; }
]]></style>
<script type="text/javascript"><![CDATA[
var edges = document.getElementsByTagName('g');
if (edges && edges.length) {
  for (var i=0;i<edges.length;i++) {
    if (edges[i].id.substr(0,4)=='edge') {
      edges[i].setAttribute('class','edge');
    }
  }
}
]]></script>
        <defs>
                <circle id="rim" cx="0" cy="0" r="7"/>
                <circle id="rim2" cx="0" cy="0" r="3.5"/>
                <g id="zoomPlus">
                        <use xlink:href="#rim" fill="#404040">
                                <set attributeName="fill" to="#808080" begin="zoomplus.mouseover" end="zoomplus.mouseout"/>
                        </use>
                        <path d="M-4,0h8M0,-4v8" fill="none" stroke="white" stroke-width="1.5" pointer-events="none"/>
                </g>
                <g id="zoomMin">
                        <use xlink:href="#rim" fill="#404040">
                                <set attributeName="fill" to="#808080" begin="zoomminus.mouseover" end="zoomminus.mouseout"/>
                        </use>
                        <path d="M-4,0h8" fill="none" stroke="white" stroke-width="1.5" pointer-events="none"/>
                </g>
                <g id="dirArrow">
                        <path fill="none" stroke="white" stroke-width="1.5" d="M0,-3.0v7 M-2.5,-0.5L0,-3.0L2.5,-0.5"/>
                </g>
               <g id="resetDef">
                       <use xlink:href="#rim2" fill="#404040">
                               <set attributeName="fill" to="#808080" begin="reset.mouseover" end="reset.mouseout"/>
                       </use>
               </g>
        </defs>

<script type="text/javascript">
var viewWidth = 917;
var viewHeight = 858;
var sectionId = 'dynsection-13';
</script>
<script xlink:href="svgpan.js"/>
<svg id="graph" class="graph">
<g id="viewport">
<title>obe::Script::CoreLib::loadCursor</title>
<!-- Node454 -->
<g id="node1" class="node"><title>Node454</title>
<polygon fill="#bfbfbf" stroke="black" points="0,-256.5 0,-286.5 103,-286.5 103,-256.5 0,-256.5"/>
<text text-anchor="start" x="8" y="-274.5" font-family="Helvetica,sans-Serif" font-size="10.00">obe::Script::CoreLib</text>
<text text-anchor="middle" x="51.5" y="-263.5" font-family="Helvetica,sans-Serif" font-size="10.00">::loadCursor</text>
</g>
<!-- Node455 -->
<g id="node2" class="node"><title>Node455</title>
<g id="a_node2"><a xlink:href="namespaceobe_1_1_script.html#a9582bae7b61bf604c2a68a8a016356ec" target="_top" xlink:title="obe::Script::registerLib">
<polygon fill="none" stroke="black" points="139,-478 139,-497 254,-497 254,-478 139,-478"/>
<text text-anchor="middle" x="196.5" y="-485" font-family="Helvetica,sans-Serif" font-size="10.00">obe::Script::registerLib</text>
</a>
</g>
</g>
<!-- Node454&#45;&gt;Node455 -->
<g id="edge1" class="edge"><title>Node454&#45;&gt;Node455</title>
<path fill="none" stroke="midnightblue" d="M54.892,-286.755C61.4386,-323.439 83.0416,-417.33 139,-468.5 140.737,-470.089 142.612,-471.545 144.586,-472.88"/>
<polygon fill="midnightblue" stroke="midnightblue" points="143.32,-476.181 153.759,-477.991 146.727,-470.066 143.32,-476.181"/>
</g>
<!-- Node456 -->
<g id="node3" class="node"><title>Node456</title>
<g id="a_node3"><a xlink:href="namespaceobe_1_1_utils_1_1_vector.html#a964ff22524706c50e054f29d98b8ba6d" target="_top" xlink:title="Join all elements of a std::string into a std::string using a separator. ">
<polygon fill="none" stroke="black" points="150.5,-428.5 150.5,-458.5 242.5,-458.5 242.5,-428.5 150.5,-428.5"/>
<text text-anchor="start" x="158.5" y="-446.5" font-family="Helvetica,sans-Serif" font-size="10.00">obe::Utils::Vector</text>
<text text-anchor="middle" x="196.5" y="-435.5" font-family="Helvetica,sans-Serif" font-size="10.00">::join</text>
</a>
</g>
</g>
<!-- Node454&#45;&gt;Node456 -->
<g id="edge2" class="edge"><title>Node454&#45;&gt;Node456</title>
<path fill="none" stroke="midnightblue" d="M57.6373,-286.625C68.3326,-316.029 95.6612,-381.352 139,-419.5 140.32,-420.662 141.704,-421.774 143.14,-422.837"/>
<polygon fill="midnightblue" stroke="midnightblue" points="141.513,-425.952 151.819,-428.409 145.294,-420.061 141.513,-425.952"/>
</g>
<!-- Node457 -->
<g id="node4" class="node"><title>Node457</title>
<g id="a_node4"><a xlink:href="classobe_1_1_system_1_1_cursor.html#a2c4a8e489367d629ad3dd29334009f2d" target="_top" xlink:title="Gets the x Coordinate of the Cursor Position (Constrained) ">
<polygon fill="none" stroke="black" points="143,-379.5 143,-409.5 250,-409.5 250,-379.5 143,-379.5"/>
<text text-anchor="start" x="151" y="-397.5" font-family="Helvetica,sans-Serif" font-size="10.00">obe::System::Cursor</text>
<text text-anchor="middle" x="196.5" y="-386.5" font-family="Helvetica,sans-Serif" font-size="10.00">::getX</text>
</a>
</g>
</g>
<!-- Node454&#45;&gt;Node457 -->
<g id="edge3" class="edge"><title>Node454&#45;&gt;Node457</title>
<path fill="none" stroke="midnightblue" d="M62.5359,-286.831C77.1356,-308.109 106.105,-346.658 139,-370.5 140.858,-371.847 142.803,-373.137 144.807,-374.37"/>
<polygon fill="midnightblue" stroke="midnightblue" points="143.448,-377.618 153.89,-379.413 146.846,-371.498 143.448,-377.618"/>
</g>
<!-- Node458 -->
<g id="node5" class="node"><title>Node458</title>
<g id="a_node5"><a xlink:href="classobe_1_1_system_1_1_cursor.html#a4433008ac41fce6663ed2df0c16ac68b" target="_top" xlink:title="Gets the y Coordinate of the Cursor Position (Constrained) ">
<polygon fill="none" stroke="black" points="143,-330.5 143,-360.5 250,-360.5 250,-330.5 143,-330.5"/>
<text text-anchor="start" x="151" y="-348.5" font-family="Helvetica,sans-Serif" font-size="10.00">obe::System::Cursor</text>
<text text-anchor="middle" x="196.5" y="-337.5" font-family="Helvetica,sans-Serif" font-size="10.00">::getY</text>
</a>
</g>
</g>
<!-- Node454&#45;&gt;Node458 -->
<g id="edge4" class="edge"><title>Node454&#45;&gt;Node458</title>
<path fill="none" stroke="midnightblue" d="M77.5024,-286.533C94.5881,-296.59 117.876,-309.876 139,-320.5 142.773,-322.398 146.722,-324.303 150.704,-326.169"/>
<polygon fill="midnightblue" stroke="midnightblue" points="149.438,-329.439 159.986,-330.428 152.357,-323.076 149.438,-329.439"/>
</g>
<!-- Node459 -->
<g id="node6" class="node"><title>Node459</title>
<g id="a_node6"><a xlink:href="classobe_1_1_system_1_1_cursor.html#a0cfe32fec562dea5a86478ff862f45fc" target="_top" xlink:title="Sets the root path to the Cursor Animator. ">
<polygon fill="none" stroke="black" points="142.5,-281.5 142.5,-311.5 250.5,-311.5 250.5,-281.5 142.5,-281.5"/>
<text text-anchor="start" x="150.5" y="-299.5" font-family="Helvetica,sans-Serif" font-size="10.00">obe::System::Cursor</text>
<text text-anchor="middle" x="196.5" y="-288.5" font-family="Helvetica,sans-Serif" font-size="10.00">::selectAnimatorPath</text>
</a>
</g>
</g>
<!-- Node454&#45;&gt;Node459 -->
<g id="edge5" class="edge"><title>Node454&#45;&gt;Node459</title>
<path fill="none" stroke="midnightblue" d="M103.319,-280.384C112.733,-282.03 122.67,-283.768 132.397,-285.468"/>
<polygon fill="midnightblue" stroke="midnightblue" points="131.973,-288.947 142.427,-287.221 133.179,-282.052 131.973,-288.947"/>
</g>
<!-- Node464 -->
<g id="node11" class="node"><title>Node464</title>
<g id="a_node11"><a xlink:href="classaube_1_1_error_handler.html#a7c8d44a3e7f019646d289950abc5301b" target="_top" xlink:title="Raises an Error loaded in the Aube Error Database (AED) ">
<polygon fill="none" stroke="black" points="645.5,-299.5 645.5,-329.5 743.5,-329.5 743.5,-299.5 645.5,-299.5"/>
<text text-anchor="start" x="653.5" y="-317.5" font-family="Helvetica,sans-Serif" font-size="10.00">aube::ErrorHandler</text>
<text text-anchor="middle" x="694.5" y="-306.5" font-family="Helvetica,sans-Serif" font-size="10.00">::Raise</text>
</a>
</g>
</g>
<!-- Node454&#45;&gt;Node464 -->
<g id="edge44" class="edge"><title>Node454&#45;&gt;Node464</title>
<path fill="none" stroke="midnightblue" d="M73.9237,-256.417C148.754,-205.743 403.714,-50.1262 584,-147.5 640.045,-177.77 672.045,-250.608 685.646,-289.322"/>
<polygon fill="midnightblue" stroke="midnightblue" points="682.489,-290.914 688.999,-299.273 689.123,-288.679 682.489,-290.914"/>
</g>
<!-- Node489 -->
<g id="node36" class="node"><title>Node489</title>
<g id="a_node36"><a xlink:href="classobe_1_1_system_1_1_cursor.html#a67db8dd4690b8826ba4ac45b5b8c1f2a" target="_top" xlink:title="Sets the Animation Key (CLIC, HOLD, IDLE, RELEASE) ">
<polygon fill="none" stroke="black" points="141.5,-232.5 141.5,-262.5 251.5,-262.5 251.5,-232.5 141.5,-232.5"/>
<text text-anchor="start" x="149.5" y="-250.5" font-family="Helvetica,sans-Serif" font-size="10.00">obe::System::Cursor</text>
<text text-anchor="middle" x="196.5" y="-239.5" font-family="Helvetica,sans-Serif" font-size="10.00">::selectAnimationKey</text>
</a>
</g>
</g>
<!-- Node454&#45;&gt;Node489 -->
<g id="edge39" class="edge"><title>Node454&#45;&gt;Node489</title>
<path fill="none" stroke="midnightblue" d="M103.319,-262.971C112.398,-261.447 121.964,-259.842 131.358,-258.265"/>
<polygon fill="midnightblue" stroke="midnightblue" points="132.171,-261.678 141.454,-256.571 131.012,-254.774 132.171,-261.678"/>
</g>
<!-- Node490 -->
<g id="node37" class="node"><title>Node490</title>
<g id="a_node37"><a xlink:href="classobe_1_1_system_1_1_cursor.html#a3c16f612f7606a7a0b9815a27798cdfa" target="_top" xlink:title="Sets the Position of the Cursor. ">
<polygon fill="none" stroke="black" points="143,-98.5 143,-128.5 250,-128.5 250,-98.5 143,-98.5"/>
<text text-anchor="start" x="151" y="-116.5" font-family="Helvetica,sans-Serif" font-size="10.00">obe::System::Cursor</text>
<text text-anchor="middle" x="196.5" y="-105.5" font-family="Helvetica,sans-Serif" font-size="10.00">::setPosition</text>
</a>
</g>
</g>
<!-- Node454&#45;&gt;Node490 -->
<g id="edge41" class="edge"><title>Node454&#45;&gt;Node490</title>
<path fill="none" stroke="midnightblue" d="M59.6304,-256.34C72.4303,-230.441 101.504,-177.212 139,-143.5 142.875,-140.016 147.228,-136.801 151.753,-133.874"/>
<polygon fill="midnightblue" stroke="midnightblue" points="153.792,-136.733 160.587,-128.604 150.206,-130.722 153.792,-136.733"/>
</g>
<!-- Node491 -->
<g id="node38" class="node"><title>Node491</title>
<g id="a_node38"><a xlink:href="classobe_1_1_system_1_1_cursor.html#a1f0d7ac1b4026a2499fd30a017c4af9d" target="_top" xlink:title="Sets the x Coordinate of the Cursor Position. ">
<polygon fill="none" stroke="black" points="143,-49.5 143,-79.5 250,-79.5 250,-49.5 143,-49.5"/>
<text text-anchor="start" x="151" y="-67.5" font-family="Helvetica,sans-Serif" font-size="10.00">obe::System::Cursor</text>
<text text-anchor="middle" x="196.5" y="-56.5" font-family="Helvetica,sans-Serif" font-size="10.00">::setX</text>
</a>
</g>
</g>
<!-- Node454&#45;&gt;Node491 -->
<g id="edge42" class="edge"><title>Node454&#45;&gt;Node491</title>
<path fill="none" stroke="midnightblue" d="M55.7703,-256.309C63.9117,-221.921 88.1953,-137.318 139,-88.5 140.105,-87.4385 141.263,-86.4206 142.467,-85.4446"/>
<polygon fill="midnightblue" stroke="midnightblue" points="144.705,-88.1529 150.953,-79.5967 140.733,-82.3889 144.705,-88.1529"/>
</g>
<!-- Node492 -->
<g id="node39" class="node"><title>Node492</title>
<g id="a_node39"><a xlink:href="classobe_1_1_system_1_1_cursor.html#a1ae765f913fe4ce91081811bad4aeb9e" target="_top" xlink:title="Sets the y Coordinate of the Cursor Position. ">
<polygon fill="none" stroke="black" points="143,-0.5 143,-30.5 250,-30.5 250,-0.5 143,-0.5"/>
<text text-anchor="start" x="151" y="-18.5" font-family="Helvetica,sans-Serif" font-size="10.00">obe::System::Cursor</text>
<text text-anchor="middle" x="196.5" y="-7.5" font-family="Helvetica,sans-Serif" font-size="10.00">::setY</text>
</a>
</g>
</g>
<!-- Node454&#45;&gt;Node492 -->
<g id="edge43" class="edge"><title>Node454&#45;&gt;Node492</title>
<path fill="none" stroke="midnightblue" d="M54.0352,-256.323C58.9034,-215.807 77.5057,-103.813 139,-39.5 139.911,-38.5468 140.867,-37.6296 141.86,-36.7473"/>
<polygon fill="midnightblue" stroke="midnightblue" points="144.148,-39.4082 150.101,-30.6439 139.982,-33.7829 144.148,-39.4082"/>
</g>
<!-- Node460 -->
<g id="node7" class="node"><title>Node460</title>
<g id="a_node7"><a xlink:href="classobe_1_1_animation_1_1_animator.html#a882f333d9e80d1ba02c3a00141867eb2" target="_top" xlink:title="Clears the Animator of all Animation. ">
<polygon fill="none" stroke="black" points="290,-416.5 290,-446.5 417,-446.5 417,-416.5 290,-416.5"/>
<text text-anchor="start" x="298" y="-434.5" font-family="Helvetica,sans-Serif" font-size="10.00">obe::Animation::Animator</text>
<text text-anchor="middle" x="353.5" y="-423.5" font-family="Helvetica,sans-Serif" font-size="10.00">::clear</text>
</a>
</g>
</g>
<!-- Node459&#45;&gt;Node460 -->
<g id="edge6" class="edge"><title>Node459&#45;&gt;Node460</title>
<path fill="none" stroke="midnightblue" d="M242.498,-311.593C246.69,-314.142 250.625,-317.093 254,-320.5 283.451,-350.228 260.032,-378.293 290,-407.5 291.092,-408.565 292.237,-409.583 293.426,-410.558"/>
<polygon fill="midnightblue" stroke="midnightblue" points="291.609,-413.557 301.824,-416.369 295.592,-407.801 291.609,-413.557"/>
</g>
<!-- Node461 -->
<g id="node8" class="node"><title>Node461</title>
<g id="a_node8"><a xlink:href="classobe_1_1_animation_1_1_animator.html#a04c9d6baabb9a1b193cd26ab0b3e4766" target="_top" xlink:title="Loads the Animator (Using the Animator root path). &#160;It will also load all the Animation contained in ...">
<polygon fill="none" stroke="black" points="290,-367.5 290,-397.5 417,-397.5 417,-367.5 290,-367.5"/>
<text text-anchor="start" x="298" y="-385.5" font-family="Helvetica,sans-Serif" font-size="10.00">obe::Animation::Animator</text>
<text text-anchor="middle" x="353.5" y="-374.5" font-family="Helvetica,sans-Serif" font-size="10.00">::loadAnimator</text>
</a>
</g>
</g>
<!-- Node459&#45;&gt;Node461 -->
<g id="edge7" class="edge"><title>Node459&#45;&gt;Node461</title>
<path fill="none" stroke="midnightblue" d="M235.273,-311.551C241.607,-314.356 248.05,-317.389 254,-320.5 277.759,-332.921 303.348,-349.121 322.489,-361.847"/>
<polygon fill="midnightblue" stroke="midnightblue" points="320.546,-364.758 330.8,-367.423 324.446,-358.945 320.546,-364.758"/>
</g>
<!-- Node476 -->
<g id="node23" class="node"><title>Node476</title>
<g id="a_node23"><a xlink:href="classobe_1_1_animation_1_1_animator.html#ac335331eb08fe4d3151505780a3a30fa" target="_top" xlink:title="Set the Animation to play by name. ">
<polygon fill="none" stroke="black" points="290,-244.5 290,-274.5 417,-274.5 417,-244.5 290,-244.5"/>
<text text-anchor="start" x="298" y="-262.5" font-family="Helvetica,sans-Serif" font-size="10.00">obe::Animation::Animator</text>
<text text-anchor="middle" x="353.5" y="-251.5" font-family="Helvetica,sans-Serif" font-size="10.00">::setKey</text>
</a>
</g>
</g>
<!-- Node459&#45;&gt;Node476 -->
<g id="edge22" class="edge"><title>Node459&#45;&gt;Node476</title>
<path fill="none" stroke="midnightblue" d="M250.842,-283.767C260.3,-281.509 270.291,-279.124 280.169,-276.766"/>
<polygon fill="midnightblue" stroke="midnightblue" points="281.072,-280.149 289.986,-274.423 279.447,-273.34 281.072,-280.149"/>
</g>
<!-- Node479 -->
<g id="node26" class="node"><title>Node479</title>
<g id="a_node26"><a xlink:href="classobe_1_1_animation_1_1_animator.html#ad84c05c7f7743a98d4e11ba674f07b6d" target="_top" xlink:title="Updates the Animator and the currently played Animation. ">
<polygon fill="none" stroke="black" points="290,-655.5 290,-685.5 417,-685.5 417,-655.5 290,-655.5"/>
<text text-anchor="start" x="298" y="-673.5" font-family="Helvetica,sans-Serif" font-size="10.00">obe::Animation::Animator</text>
<text text-anchor="middle" x="353.5" y="-662.5" font-family="Helvetica,sans-Serif" font-size="10.00">::update</text>
</a>
</g>
</g>
<!-- Node459&#45;&gt;Node479 -->
<g id="edge27" class="edge"><title>Node459&#45;&gt;Node479</title>
<path fill="none" stroke="midnightblue" d="M244.472,-311.527C248.07,-314.071 251.333,-317.039 254,-320.5 321.991,-408.717 252.129,-463.759 290,-568.5 300.519,-597.593 319.957,-627.363 334.374,-647.173"/>
<polygon fill="midnightblue" stroke="midnightblue" points="331.624,-649.341 340.399,-655.278 337.242,-645.165 331.624,-649.341"/>
</g>
<!-- Node487 -->
<g id="node34" class="node"><title>Node487</title>
<g id="a_node34"><a xlink:href="classobe_1_1_animation_1_1_animator.html#ada6c0858d3fd693de9ae05350f56ef23" target="_top" xlink:title="Get the current sf::Sprite of the current Animation. ">
<polygon fill="none" stroke="black" points="290,-528.5 290,-558.5 417,-558.5 417,-528.5 290,-528.5"/>
<text text-anchor="start" x="298" y="-546.5" font-family="Helvetica,sans-Serif" font-size="10.00">obe::Animation::Animator</text>
<text text-anchor="middle" x="353.5" y="-535.5" font-family="Helvetica,sans-Serif" font-size="10.00">::getTexture</text>
</a>
</g>
</g>
<!-- Node459&#45;&gt;Node487 -->
<g id="edge37" class="edge"><title>Node459&#45;&gt;Node487</title>
<path fill="none" stroke="midnightblue" d="M243.521,-311.503C247.412,-314.059 250.999,-317.037 254,-320.5 294.943,-367.756 263.319,-399.952 290,-456.5 301.016,-479.846 318.46,-503.452 332.123,-520.173"/>
<polygon fill="midnightblue" stroke="midnightblue" points="329.773,-522.819 338.869,-528.252 335.146,-518.332 329.773,-522.819"/>
</g>
<!-- Node462 -->
<g id="node9" class="node"><title>Node462</title>
<g id="a_node9"><a xlink:href="classobe_1_1_system_1_1_path.html#a096ad4fa7397aa42fd73661b08f50e2a" target="_top" xlink:title="obe::System::Path::\lloadResource">
<polygon fill="none" stroke="black" points="466.5,-392.5 466.5,-422.5 570.5,-422.5 570.5,-392.5 466.5,-392.5"/>
<text text-anchor="start" x="474.5" y="-410.5" font-family="Helvetica,sans-Serif" font-size="10.00">obe::System::Path::</text>
<text text-anchor="middle" x="518.5" y="-399.5" font-family="Helvetica,sans-Serif" font-size="10.00">loadResource</text>
</a>
</g>
</g>
<!-- Node461&#45;&gt;Node462 -->
<g id="edge8" class="edge"><title>Node461&#45;&gt;Node462</title>
<path fill="none" stroke="midnightblue" d="M417.054,-392.094C429.947,-394.072 443.51,-396.152 456.352,-398.122"/>
<polygon fill="midnightblue" stroke="midnightblue" points="456.056,-401.617 466.471,-399.673 457.117,-394.698 456.056,-401.617"/>
</g>
<!-- Node469 -->
<g id="node16" class="node"><title>Node469</title>
<g id="a_node16"><a xlink:href="namespaceobe_1_1_utils_1_1_vector.html#a636b7f465d67c2bf42a297f221af9cfe" target="_top" xlink:title="Check if a given item is in the given std::vector. ">
<polygon fill="none" stroke="black" points="472.5,-294.5 472.5,-324.5 564.5,-324.5 564.5,-294.5 472.5,-294.5"/>
<text text-anchor="start" x="480.5" y="-312.5" font-family="Helvetica,sans-Serif" font-size="10.00">obe::Utils::Vector</text>
<text text-anchor="middle" x="518.5" y="-301.5" font-family="Helvetica,sans-Serif" font-size="10.00">::isInList</text>
</a>
</g>
</g>
<!-- Node461&#45;&gt;Node469 -->
<g id="edge15" class="edge"><title>Node461&#45;&gt;Node469</title>
<path fill="none" stroke="midnightblue" d="M383,-367.324C402.469,-357.206 428.991,-343.904 453,-333.5 457.056,-331.742 461.287,-329.991 465.558,-328.282"/>
<polygon fill="midnightblue" stroke="midnightblue" points="466.881,-331.523 474.918,-324.619 464.33,-325.004 466.881,-331.523"/>
</g>
<!-- Node470 -->
<g id="node17" class="node"><title>Node470</title>
<g id="a_node17"><a xlink:href="classobe_1_1_system_1_1_path.html#aab439649ec875cd45a99a18e9c9beda8" target="_top" xlink:title="Get the current path in string form. ">
<polygon fill="none" stroke="black" points="466.5,-518.5 466.5,-548.5 570.5,-548.5 570.5,-518.5 466.5,-518.5"/>
<text text-anchor="start" x="474.5" y="-536.5" font-family="Helvetica,sans-Serif" font-size="10.00">obe::System::Path::</text>
<text text-anchor="middle" x="518.5" y="-525.5" font-family="Helvetica,sans-Serif" font-size="10.00">toString</text>
</a>
</g>
</g>
<!-- Node461&#45;&gt;Node470 -->
<g id="edge16" class="edge"><title>Node461&#45;&gt;Node470</title>
<path fill="none" stroke="midnightblue" d="M404.145,-397.55C408.866,-400.339 413.272,-403.627 417,-407.5 450.049,-441.833 419.767,-474.345 453,-508.5 454.445,-509.985 455.988,-511.383 457.609,-512.7"/>
<polygon fill="midnightblue" stroke="midnightblue" points="456.046,-515.871 466.276,-518.625 459.996,-510.092 456.046,-515.871"/>
</g>
<!-- Node471 -->
<g id="node18" class="node"><title>Node471</title>
<g id="a_node18"><a xlink:href="classvili_1_1_vili_parser.html#a19dd443cd86f2c4943beb5de092aa4c1" target="_top" xlink:title="Access a ComplexNode in the tree using a path with slash&#45;separation (.at(&quot;NodeA/NodeB/NodeC&quot;) for exa...">
<polygon fill="none" stroke="black" points="474,-480 474,-499 563,-499 563,-480 474,-480"/>
<text text-anchor="middle" x="518.5" y="-487" font-family="Helvetica,sans-Serif" font-size="10.00">vili::ViliParser::at</text>
</a>
</g>
</g>
<!-- Node461&#45;&gt;Node471 -->
<g id="edge17" class="edge"><title>Node461&#45;&gt;Node471</title>
<path fill="none" stroke="midnightblue" d="M402.216,-397.56C407.522,-400.373 412.592,-403.664 417,-407.5 441.328,-428.669 427.704,-450.498 453,-470.5 456.547,-473.305 460.497,-475.695 464.647,-477.734"/>
<polygon fill="midnightblue" stroke="midnightblue" points="463.399,-481.005 473.974,-481.656 466.112,-474.553 463.399,-481.005"/>
</g>
<!-- Node473 -->
<g id="node20" class="node"><title>Node473</title>
<g id="a_node20"><a xlink:href="classvili_1_1_complex_node.html#a550584eb0dc76bbcb50e35182ac308cd" target="_top" xlink:title="Get all the Node Ids of the given Type contained in the ComplexNode. ">
<polygon fill="none" stroke="black" points="468.5,-343.5 468.5,-373.5 568.5,-373.5 568.5,-343.5 468.5,-343.5"/>
<text text-anchor="start" x="476.5" y="-361.5" font-family="Helvetica,sans-Serif" font-size="10.00">vili::ComplexNode::</text>
<text text-anchor="middle" x="518.5" y="-350.5" font-family="Helvetica,sans-Serif" font-size="10.00">getAll</text>
</a>
</g>
</g>
<!-- Node461&#45;&gt;Node473 -->
<g id="edge19" class="edge"><title>Node461&#45;&gt;Node473</title>
<path fill="none" stroke="midnightblue" d="M417.054,-373.29C430.575,-371.299 444.834,-369.199 458.225,-367.228"/>
<polygon fill="midnightblue" stroke="midnightblue" points="458.886,-370.668 468.27,-365.749 457.867,-363.743 458.886,-370.668"/>
</g>
<!-- Node474 -->
<g id="node21" class="node"><title>Node474</title>
<g id="a_node21"><a xlink:href="classobe_1_1_system_1_1_path.html#ab3b53b3bb2e98d5e23c35692a52eb66c" target="_top" xlink:title="Returns a new Path which is the current one concatened with the given string. ">
<polygon fill="none" stroke="black" points="458.5,-442 458.5,-461 578.5,-461 578.5,-442 458.5,-442"/>
<text text-anchor="middle" x="518.5" y="-449" font-family="Helvetica,sans-Serif" font-size="10.00">obe::System::Path::add</text>
</a>
</g>
</g>
<!-- Node461&#45;&gt;Node474 -->
<g id="edge20" class="edge"><title>Node461&#45;&gt;Node474</title>
<path fill="none" stroke="midnightblue" d="M396.12,-397.612C403.215,-400.62 410.414,-403.955 417,-407.5 434.153,-416.732 435.432,-424.084 453,-432.5 457.683,-434.743 462.687,-436.781 467.757,-438.616"/>
<polygon fill="midnightblue" stroke="midnightblue" points="466.931,-442.031 477.525,-441.898 469.16,-435.395 466.931,-442.031"/>
</g>
<!-- Node463 -->
<g id="node10" class="node"><title>Node463</title>
<g id="a_node10"><a xlink:href="namespaceobe_1_1_utils_1_1_file.html#a1095626f5495edc7b8692073dd25cceb" target="_top" xlink:title="Check if the file at the given path exists. ">
<polygon fill="none" stroke="black" points="632,-398 632,-417 757,-417 757,-398 632,-398"/>
<text text-anchor="middle" x="694.5" y="-405" font-family="Helvetica,sans-Serif" font-size="10.00">obe::Utils::File::fileExists</text>
</a>
</g>
</g>
<!-- Node462&#45;&gt;Node463 -->
<g id="edge9" class="edge"><title>Node462&#45;&gt;Node463</title>
<path fill="none" stroke="midnightblue" d="M570.765,-407.5C586.621,-407.5 604.393,-407.5 621.385,-407.5"/>
<polygon fill="midnightblue" stroke="midnightblue" points="621.84,-411 631.84,-407.5 621.84,-404 621.84,-411"/>
</g>
<!-- Node462&#45;&gt;Node464 -->
<g id="edge10" class="edge"><title>Node462&#45;&gt;Node464</title>
<path fill="none" stroke="midnightblue" d="M563.731,-392.425C570.617,-389.684 577.574,-386.678 584,-383.5 612.324,-369.493 642.572,-350.054 664.083,-335.377"/>
<polygon fill="midnightblue" stroke="midnightblue" points="666.203,-338.167 672.449,-329.609 662.23,-332.404 666.203,-338.167"/>
</g>
<!-- Node465 -->
<g id="node12" class="node"><title>Node465</title>
<g id="a_node12"><a xlink:href="classaube_1_1_error_message.html#a3a39b6fcd8fdb12eaf6383123535b8ca" target="_top" xlink:title="Gets the File where is located the ErrorMessage when raised. ">
<polygon fill="none" stroke="black" points="805,-373.5 805,-403.5 909,-403.5 909,-373.5 805,-373.5"/>
<text text-anchor="start" x="813" y="-391.5" font-family="Helvetica,sans-Serif" font-size="10.00">aube::ErrorMessage</text>
<text text-anchor="middle" x="857" y="-380.5" font-family="Helvetica,sans-Serif" font-size="10.00">::getFile</text>
</a>
</g>
</g>
<!-- Node464&#45;&gt;Node465 -->
<g id="edge11" class="edge"><title>Node464&#45;&gt;Node465</title>
<path fill="none" stroke="midnightblue" d="M728.367,-329.654C753.225,-341.114 787.532,-356.932 814.319,-369.282"/>
<polygon fill="midnightblue" stroke="midnightblue" points="812.905,-372.485 823.452,-373.493 815.836,-366.128 812.905,-372.485"/>
</g>
<!-- Node466 -->
<g id="node13" class="node"><title>Node466</title>
<g id="a_node13"><a xlink:href="classaube_1_1_error_message.html#a9184cc96589578f434351c105b0cd5f7" target="_top" xlink:title="Gets the location of the error in the code. ">
<polygon fill="none" stroke="black" points="805,-324.5 805,-354.5 909,-354.5 909,-324.5 805,-324.5"/>
<text text-anchor="start" x="813" y="-342.5" font-family="Helvetica,sans-Serif" font-size="10.00">aube::ErrorMessage</text>
<text text-anchor="middle" x="857" y="-331.5" font-family="Helvetica,sans-Serif" font-size="10.00">::getLocation</text>
</a>
</g>
</g>
<!-- Node464&#45;&gt;Node466 -->
<g id="edge12" class="edge"><title>Node464&#45;&gt;Node466</title>
<path fill="none" stroke="midnightblue" d="M743.655,-322.001C759.637,-324.49 777.651,-327.296 794.498,-329.92"/>
<polygon fill="midnightblue" stroke="midnightblue" points="794.389,-333.445 804.808,-331.526 795.466,-326.529 794.389,-333.445"/>
</g>
<!-- Node467 -->
<g id="node14" class="node"><title>Node467</title>
<g id="a_node14"><a xlink:href="classaube_1_1_error_message.html#a07927cb3e2d0712c459cc9e2b5f52696" target="_top" xlink:title="Gets the message displayed by the ErrorMessage when raised. ">
<polygon fill="none" stroke="black" points="805,-275.5 805,-305.5 909,-305.5 909,-275.5 805,-275.5"/>
<text text-anchor="start" x="813" y="-293.5" font-family="Helvetica,sans-Serif" font-size="10.00">aube::ErrorMessage</text>
<text text-anchor="middle" x="857" y="-282.5" font-family="Helvetica,sans-Serif" font-size="10.00">::getMessage</text>
</a>
</g>
</g>
<!-- Node464&#45;&gt;Node467 -->
<g id="edge13" class="edge"><title>Node464&#45;&gt;Node467</title>
<path fill="none" stroke="midnightblue" d="M743.655,-307.299C759.637,-304.909 777.651,-302.216 794.498,-299.697"/>
<polygon fill="midnightblue" stroke="midnightblue" points="795.436,-303.095 804.808,-298.155 794.401,-296.172 795.436,-303.095"/>
</g>
<!-- Node468 -->
<g id="node15" class="node"><title>Node468</title>
<g id="a_node15"><a xlink:href="classaube_1_1_error_message.html#a77c2f9b7e93542c958173b52da267989" target="_top" xlink:title="Gets hints that can help the error resolution. ">
<polygon fill="none" stroke="black" points="805,-226.5 805,-256.5 909,-256.5 909,-226.5 805,-226.5"/>
<text text-anchor="start" x="813" y="-244.5" font-family="Helvetica,sans-Serif" font-size="10.00">aube::ErrorMessage</text>
<text text-anchor="middle" x="857" y="-233.5" font-family="Helvetica,sans-Serif" font-size="10.00">::getHints</text>
</a>
</g>
</g>
<!-- Node464&#45;&gt;Node468 -->
<g id="edge14" class="edge"><title>Node464&#45;&gt;Node468</title>
<path fill="none" stroke="midnightblue" d="M728.756,-299.374C753.289,-288.216 786.869,-272.943 813.372,-260.888"/>
<polygon fill="midnightblue" stroke="midnightblue" points="815.133,-263.932 822.787,-256.606 812.235,-257.561 815.133,-263.932"/>
</g>
<!-- Node472 -->
<g id="node19" class="node"><title>Node472</title>
<g id="a_node19"><a xlink:href="namespacevili_1_1_functions_1_1_string.html#ad7421099a2ab911f64f06d89abc7d7cf" target="_top" xlink:title="vili::Functions::String\l::extract">
<polygon fill="none" stroke="black" points="641,-477.5 641,-507.5 748,-507.5 748,-477.5 641,-477.5"/>
<text text-anchor="start" x="649" y="-495.5" font-family="Helvetica,sans-Serif" font-size="10.00">vili::Functions::String</text>
<text text-anchor="middle" x="694.5" y="-484.5" font-family="Helvetica,sans-Serif" font-size="10.00">::extract</text>
</a>
</g>
</g>
<!-- Node471&#45;&gt;Node472 -->
<g id="edge18" class="edge"><title>Node471&#45;&gt;Node472</title>
<path fill="none" stroke="midnightblue" d="M563.408,-490.257C583.837,-490.609 608.507,-491.035 630.848,-491.42"/>
<polygon fill="midnightblue" stroke="midnightblue" points="630.867,-494.921 640.925,-491.594 630.987,-487.922 630.867,-494.921"/>
</g>
<!-- Node475 -->
<g id="node22" class="node"><title>Node475</title>
<g id="a_node22"><a xlink:href="classobe_1_1_system_1_1_path.html#afce5029aa92ba41d0f201f1ac67a21e0" target="_top" xlink:title="Default constructor of Path. ">
<polygon fill="none" stroke="black" points="632,-439 632,-458 757,-458 757,-439 632,-439"/>
<text text-anchor="middle" x="694.5" y="-446" font-family="Helvetica,sans-Serif" font-size="10.00">obe::System::Path::Path</text>
</a>
</g>
</g>
<!-- Node474&#45;&gt;Node475 -->
<g id="edge21" class="edge"><title>Node474&#45;&gt;Node475</title>
<path fill="none" stroke="midnightblue" d="M578.894,-450.476C592.6,-450.24 607.325,-449.986 621.502,-449.741"/>
<polygon fill="midnightblue" stroke="midnightblue" points="621.767,-453.237 631.705,-449.565 621.646,-446.238 621.767,-453.237"/>
</g>
<!-- Node476&#45;&gt;Node464 -->
<g id="edge23" class="edge"><title>Node476&#45;&gt;Node464</title>
<path fill="none" stroke="midnightblue" d="M417.237,-263.631C463.593,-267.337 528.09,-273.866 584,-284.5 600.837,-287.703 618.87,-292.191 635.343,-296.721"/>
<polygon fill="midnightblue" stroke="midnightblue" points="634.8,-300.204 645.373,-299.537 636.691,-293.465 634.8,-300.204"/>
</g>
<!-- Node476&#45;&gt;Node470 -->
<g id="edge24" class="edge"><title>Node476&#45;&gt;Node470</title>
<path fill="none" stroke="midnightblue" d="M366.373,-274.733C380.412,-293.454 403.565,-326.664 417,-358.5 443.656,-421.665 407.881,-456.879 453,-508.5 454.541,-510.263 456.222,-511.903 458.012,-513.428"/>
<polygon fill="midnightblue" stroke="midnightblue" points="456.279,-516.489 466.466,-519.403 460.32,-510.773 456.279,-516.489"/>
</g>
<!-- Node477 -->
<g id="node24" class="node"><title>Node477</title>
<g id="a_node24"><a xlink:href="classobe_1_1_animation_1_1_animation.html#a9b0b22318eac4b384f9a7fbe3f3cbf4f" target="_top" xlink:title="Return whether the Animation is over or not. ">
<polygon fill="none" stroke="black" points="453,-157.5 453,-187.5 584,-187.5 584,-157.5 453,-157.5"/>
<text text-anchor="start" x="461" y="-175.5" font-family="Helvetica,sans-Serif" font-size="10.00">obe::Animation::Animation</text>
<text text-anchor="middle" x="518.5" y="-164.5" font-family="Helvetica,sans-Serif" font-size="10.00">::isAnimationOver</text>
</a>
</g>
</g>
<!-- Node476&#45;&gt;Node477 -->
<g id="edge25" class="edge"><title>Node476&#45;&gt;Node477</title>
<path fill="none" stroke="midnightblue" d="M375.25,-244.376C394.673,-230.676 424.843,-210.542 453,-196.5 456.508,-194.75 460.177,-193.055 463.907,-191.429"/>
<polygon fill="midnightblue" stroke="midnightblue" points="465.365,-194.613 473.25,-187.537 462.673,-188.151 465.365,-194.613"/>
</g>
<!-- Node478 -->
<g id="node25" class="node"><title>Node478</title>
<g id="a_node25"><a xlink:href="classobe_1_1_animation_1_1_animation.html#aa5c71967c0484463123b1a4cd7ad497c" target="_top" xlink:title="Returns the Animation priority. ">
<polygon fill="none" stroke="black" points="453,-206.5 453,-236.5 584,-236.5 584,-206.5 453,-206.5"/>
<text text-anchor="start" x="461" y="-224.5" font-family="Helvetica,sans-Serif" font-size="10.00">obe::Animation::Animation</text>
<text text-anchor="middle" x="518.5" y="-213.5" font-family="Helvetica,sans-Serif" font-size="10.00">::getPriority</text>
</a>
</g>
</g>
<!-- Node476&#45;&gt;Node478 -->
<g id="edge26" class="edge"><title>Node476&#45;&gt;Node478</title>
<path fill="none" stroke="midnightblue" d="M417.054,-244.917C425.599,-242.925 434.438,-240.864 443.167,-238.829"/>
<polygon fill="midnightblue" stroke="midnightblue" points="444.01,-242.227 452.954,-236.548 442.42,-235.409 444.01,-242.227"/>
</g>
<!-- Node479&#45;&gt;Node464 -->
<g id="edge28" class="edge"><title>Node479&#45;&gt;Node464</title>
<path fill="none" stroke="midnightblue" d="M415.449,-655.497C481.46,-638.991 578.204,-613.939 584,-607.5 649.993,-534.188 575.111,-476.333 620,-388.5 630.526,-367.904 648.847,-349.438 664.563,-336.104"/>
<polygon fill="midnightblue" stroke="midnightblue" points="666.969,-338.658 672.489,-329.615 662.534,-333.242 666.969,-338.658"/>
</g>
<!-- Node479&#45;&gt;Node470 -->
<g id="edge29" class="edge"><title>Node479&#45;&gt;Node470</title>
<path fill="none" stroke="midnightblue" d="M364.222,-655.379C380.142,-631.704 413.937,-585.779 453,-558.5 455.708,-556.609 458.578,-554.836 461.545,-553.177"/>
<polygon fill="midnightblue" stroke="midnightblue" points="463.339,-556.191 470.668,-548.54 460.167,-549.951 463.339,-556.191"/>
</g>
<!-- Node480 -->
<g id="node27" class="node"><title>Node480</title>
<g id="a_node27"><a xlink:href="classobe_1_1_animation_1_1_animation.html#a43bee4799871d1c9e47ffe438f875782" target="_top" xlink:title="Get the Animation Status. ">
<polygon fill="none" stroke="black" points="453,-753.5 453,-783.5 584,-783.5 584,-753.5 453,-753.5"/>
<text text-anchor="start" x="461" y="-771.5" font-family="Helvetica,sans-Serif" font-size="10.00">obe::Animation::Animation</text>
<text text-anchor="middle" x="518.5" y="-760.5" font-family="Helvetica,sans-Serif" font-size="10.00">::getAnimationStatus</text>
</a>
</g>
</g>
<!-- Node479&#45;&gt;Node480 -->
<g id="edge30" class="edge"><title>Node479&#45;&gt;Node480</title>
<path fill="none" stroke="midnightblue" d="M371.595,-685.783C390.453,-702.037 422.221,-727.675 453,-744.5 456.081,-746.184 459.305,-747.798 462.598,-749.336"/>
<polygon fill="midnightblue" stroke="midnightblue" points="461.438,-752.649 472.002,-753.461 464.251,-746.239 461.438,-752.649"/>
</g>
<!-- Node481 -->
<g id="node28" class="node"><title>Node481</title>
<g id="a_node28"><a xlink:href="classobe_1_1_animation_1_1_animation.html#a163d69319c82e90bfea4ea0b9768306e" target="_top" xlink:title="Resets the Animation (Unselect current AnimationGroup and restart AnimationCode) ">
<polygon fill="none" stroke="black" points="453,-704.5 453,-734.5 584,-734.5 584,-704.5 453,-704.5"/>
<text text-anchor="start" x="461" y="-722.5" font-family="Helvetica,sans-Serif" font-size="10.00">obe::Animation::Animation</text>
<text text-anchor="middle" x="518.5" y="-711.5" font-family="Helvetica,sans-Serif" font-size="10.00">::reset</text>
</a>
</g>
</g>
<!-- Node479&#45;&gt;Node481 -->
<g id="edge31" class="edge"><title>Node479&#45;&gt;Node481</title>
<path fill="none" stroke="midnightblue" d="M404.735,-685.601C421.391,-690.608 440.1,-696.232 457.419,-701.439"/>
<polygon fill="midnightblue" stroke="midnightblue" points="456.846,-704.921 467.43,-704.448 458.861,-698.218 456.846,-704.921"/>
</g>
<!-- Node482 -->
<g id="node29" class="node"><title>Node482</title>
<g id="a_node29"><a xlink:href="classobe_1_1_animation_1_1_animation.html#af197b177144ff76951ff7fb8745b5e44" target="_top" xlink:title="Get the name of the Animation to call when the AnimationStatus of the Animation is equal to Animation...">
<polygon fill="none" stroke="black" points="453,-655.5 453,-685.5 584,-685.5 584,-655.5 453,-655.5"/>
<text text-anchor="start" x="461" y="-673.5" font-family="Helvetica,sans-Serif" font-size="10.00">obe::Animation::Animation</text>
<text text-anchor="middle" x="518.5" y="-662.5" font-family="Helvetica,sans-Serif" font-size="10.00">::getCalledAnimation</text>
</a>
</g>
</g>
<!-- Node479&#45;&gt;Node482 -->
<g id="edge32" class="edge"><title>Node479&#45;&gt;Node482</title>
<path fill="none" stroke="midnightblue" d="M417.054,-670.5C425.507,-670.5 434.248,-670.5 442.886,-670.5"/>
<polygon fill="midnightblue" stroke="midnightblue" points="442.954,-674 452.954,-670.5 442.954,-667 442.954,-674"/>
</g>
<!-- Node483 -->
<g id="node30" class="node"><title>Node483</title>
<g id="a_node30"><a xlink:href="classobe_1_1_animation_1_1_animation.html#aae247711ecb729409e436e7a40448088" target="_top" xlink:title="Updates the Animation (Updates the current AnimationGroup, executes the AnimationCode) ...">
<polygon fill="none" stroke="black" points="453,-802.5 453,-832.5 584,-832.5 584,-802.5 453,-802.5"/>
<text text-anchor="start" x="461" y="-820.5" font-family="Helvetica,sans-Serif" font-size="10.00">obe::Animation::Animation</text>
<text text-anchor="middle" x="518.5" y="-809.5" font-family="Helvetica,sans-Serif" font-size="10.00">::update</text>
</a>
</g>
</g>
<!-- Node479&#45;&gt;Node483 -->
<g id="edge33" class="edge"><title>Node479&#45;&gt;Node483</title>
<path fill="none" stroke="midnightblue" d="M362.834,-685.547C377.734,-711.159 411.317,-763.37 453,-793.5 454.888,-794.865 456.863,-796.161 458.9,-797.391"/>
<polygon fill="midnightblue" stroke="midnightblue" points="457.692,-800.715 468.157,-802.369 461.007,-794.55 457.692,-800.715"/>
</g>
<!-- Node484 -->
<g id="node31" class="node"><title>Node484</title>
<g id="a_node31"><a xlink:href="namespaceobe_1_1_time.html#a8ae76b1e66dea054aced3ab86ecb6d3f" target="_top" xlink:title="Get the amount of milliseconds elapsed since Epoch. ">
<polygon fill="none" stroke="black" points="620,-830 620,-849 769,-849 769,-830 620,-830"/>
<text text-anchor="middle" x="694.5" y="-837" font-family="Helvetica,sans-Serif" font-size="10.00">obe::Time::getTickSinceEpoch</text>
</a>
</g>
</g>
<!-- Node483&#45;&gt;Node484 -->
<g id="edge34" class="edge"><title>Node483&#45;&gt;Node484</title>
<path fill="none" stroke="midnightblue" d="M584.291,-825.692C592.625,-826.746 601.25,-827.836 609.832,-828.921"/>
<polygon fill="midnightblue" stroke="midnightblue" points="609.506,-832.408 619.866,-830.19 610.384,-825.463 609.506,-832.408"/>
</g>
<!-- Node485 -->
<g id="node32" class="node"><title>Node485</title>
<g id="a_node32"><a xlink:href="namespaceobe_1_1_utils_1_1_string.html#ad9d5afbd60c8e3c6894ad5c782de001a" target="_top" xlink:title="Replace all the occurences of search to replace in the string subject in place. ">
<polygon fill="none" stroke="black" points="650,-780.5 650,-810.5 739,-810.5 739,-780.5 650,-780.5"/>
<text text-anchor="start" x="658" y="-798.5" font-family="Helvetica,sans-Serif" font-size="10.00">obe::Utils::String</text>
<text text-anchor="middle" x="694.5" y="-787.5" font-family="Helvetica,sans-Serif" font-size="10.00">::replaceInPlace</text>
</a>
</g>
</g>
<!-- Node483&#45;&gt;Node485 -->
<g id="edge35" class="edge"><title>Node483&#45;&gt;Node485</title>
<path fill="none" stroke="midnightblue" d="M584.291,-809.308C602.545,-807 622.197,-804.515 639.73,-802.298"/>
<polygon fill="midnightblue" stroke="midnightblue" points="640.3,-805.754 649.782,-801.028 639.422,-798.81 640.3,-805.754"/>
</g>
<!-- Node486 -->
<g id="node33" class="node"><title>Node486</title>
<g id="a_node33"><a xlink:href="namespaceobe_1_1_utils_1_1_string.html#ad648e63a60e1fce71a321037fbee4e30" target="_top" xlink:title="Replace all the occurences of search to replace in the string subject. ">
<polygon fill="none" stroke="black" points="812.5,-780.5 812.5,-810.5 901.5,-810.5 901.5,-780.5 812.5,-780.5"/>
<text text-anchor="start" x="820.5" y="-798.5" font-family="Helvetica,sans-Serif" font-size="10.00">obe::Utils::String</text>
<text text-anchor="middle" x="857" y="-787.5" font-family="Helvetica,sans-Serif" font-size="10.00">::replace</text>
</a>
</g>
</g>
<!-- Node485&#45;&gt;Node486 -->
<g id="edge36" class="edge"><title>Node485&#45;&gt;Node486</title>
<path fill="none" stroke="midnightblue" d="M739.357,-795.5C758.81,-795.5 781.883,-795.5 802.352,-795.5"/>
<polygon fill="midnightblue" stroke="midnightblue" points="802.474,-799 812.474,-795.5 802.474,-792 802.474,-799"/>
</g>
<!-- Node488 -->
<g id="node35" class="node"><title>Node488</title>
<g id="a_node35"><a xlink:href="classobe_1_1_animation_1_1_animation.html#a42881a9b7928324532448d43571d7771" target="_top" xlink:title="Get the sf::Texture containing the current texture in the Animation. ">
<polygon fill="none" stroke="black" points="453,-567.5 453,-597.5 584,-597.5 584,-567.5 453,-567.5"/>
<text text-anchor="start" x="461" y="-585.5" font-family="Helvetica,sans-Serif" font-size="10.00">obe::Animation::Animation</text>
<text text-anchor="middle" x="518.5" y="-574.5" font-family="Helvetica,sans-Serif" font-size="10.00">::getTexture</text>
</a>
</g>
</g>
<!-- Node487&#45;&gt;Node488 -->
<g id="edge38" class="edge"><title>Node487&#45;&gt;Node488</title>
<path fill="none" stroke="midnightblue" d="M417.054,-558.467C426.086,-560.628 435.448,-562.868 444.66,-565.072"/>
<polygon fill="midnightblue" stroke="midnightblue" points="444.035,-568.521 454.575,-567.444 445.664,-561.713 444.035,-568.521"/>
</g>
<!-- Node489&#45;&gt;Node476 -->
<g id="edge40" class="edge"><title>Node489&#45;&gt;Node476</title>
<path fill="none" stroke="midnightblue" d="M251.711,-251.697C260.751,-252.397 270.257,-253.133 279.67,-253.862"/>
<polygon fill="midnightblue" stroke="midnightblue" points="279.582,-257.365 289.822,-254.648 280.122,-250.386 279.582,-257.365"/>
</g>
</g>
</svg>
        <g id="navigator" transform="translate(0 0)" fill="#404254">
                <rect fill="#f2f5e9" fill-opacity="0.5" stroke="#606060" stroke-width=".5" x="0" y="0" width="60" height="60"/>
                <use id="zoomplus" xlink:href="#zoomPlus" x="17" y="9" onmousedown="handleZoom(evt,'in')"/>
                <use id="zoomminus" xlink:href="#zoomMin" x="42" y="9" onmousedown="handleZoom(evt,'out')"/>
                <use id="reset" xlink:href="#resetDef" x="30" y="36" onmousedown="handleReset()"/>
                <g id="arrowUp" xlink:href="#dirArrow" transform="translate(30 24)" onmousedown="handlePan(0,-1)">
                  <use xlink:href="#rim" fill="#404040">
                        <set attributeName="fill" to="#808080" begin="arrowUp.mouseover" end="arrowUp.mouseout"/>
                  </use>
                  <path fill="none" stroke="white" stroke-width="1.5" d="M0,-3.0v7 M-2.5,-0.5L0,-3.0L2.5,-0.5"/>
                </g>
                <g id="arrowRight" xlink:href="#dirArrow" transform="rotate(90) translate(36 -43)" onmousedown="handlePan(1,0)">
                  <use xlink:href="#rim" fill="#404040">
                        <set attributeName="fill" to="#808080" begin="arrowRight.mouseover" end="arrowRight.mouseout"/>
                  </use>
                  <path fill="none" stroke="white" stroke-width="1.5" d="M0,-3.0v7 M-2.5,-0.5L0,-3.0L2.5,-0.5"/>
                </g>
                <g id="arrowDown" xlink:href="#dirArrow" transform="rotate(180) translate(-30 -48)" onmousedown="handlePan(0,1)">
                  <use xlink:href="#rim" fill="#404040">
                        <set attributeName="fill" to="#808080" begin="arrowDown.mouseover" end="arrowDown.mouseout"/>
                  </use>
                  <path fill="none" stroke="white" stroke-width="1.5" d="M0,-3.0v7 M-2.5,-0.5L0,-3.0L2.5,-0.5"/>
                </g>
                <g id="arrowLeft" xlink:href="#dirArrow" transform="rotate(270) translate(-36 17)" onmousedown="handlePan(-1,0)">
                  <use xlink:href="#rim" fill="#404040">
                        <set attributeName="fill" to="#808080" begin="arrowLeft.mouseover" end="arrowLeft.mouseout"/>
                  </use>
                  <path fill="none" stroke="white" stroke-width="1.5" d="M0,-3.0v7 M-2.5,-0.5L0,-3.0L2.5,-0.5"/>
                </g>
        </g>
        <svg viewBox="0 0 15 15" width="100%" height="30px" preserveAspectRatio="xMaxYMin meet">
         <g id="arrow_out" transform="scale(0.3 0.3)">
          <a xlink:href="namespaceobe_1_1_script_1_1_core_lib_adc976091c779b7a03984d210b9285983_cgraph_org.svg" target="_base">
           <rect id="button" ry="5" rx="5" y="6" x="6" height="38" width="38"
                fill="#f2f5e9" fill-opacity="0.5" stroke="#606060" stroke-width="1.0"/>
           <path id="arrow"
             d="M 11.500037,31.436501 C 11.940474,20.09759 22.043105,11.32322 32.158766,21.979434 L 37.068811,17.246167 C 37.068811,17.246167 37.088388,32 37.088388,32 L 22.160133,31.978069 C 22.160133,31.978069 26.997745,27.140456 26.997745,27.140456 C 18.528582,18.264221 13.291696,25.230495 11.500037,31.436501 z"
             style="fill:#404040;"/>
          </a>
         </g>
        </svg>
</svg>
