<?xml version="1.0" encoding="UTF-8" standalone="no"?>
<!DOCTYPE svg PUBLIC "-//W3C//DTD SVG 1.1//EN"
 "http://www.w3.org/Graphics/SVG/1.1/DTD/svg11.dtd">
<!-- Generated by graphviz version 2.38.0 (20140413.2041)
 -->
<!-- Title: elz::extractZip Pages: 1 -->
<svg width="1275pt" height="190pt"
 viewBox="0.00 0.00 1275.00 189.50" xmlns="http://www.w3.org/2000/svg" xmlns:xlink="http://www.w3.org/1999/xlink">
<g id="graph0" class="graph" transform="scale(1 1) rotate(0) translate(4 185.5)">
<title>elz::extractZip</title>
<!-- Node35 -->
<g id="node1" class="node"><title>Node35</title>
<polygon fill="#bfbfbf" stroke="black" points="0,-72 0,-91 78,-91 78,-72 0,-72"/>
<text text-anchor="middle" x="39" y="-79" font-family="Helvetica,sans-Serif" font-size="10.00">elz::extractZip</text>
</g>
<!-- Node36 -->
<g id="node2" class="node"><title>Node36</title>
<g id="a_node2"><a xlink:href="elzip__fallback_8cpp.html#abcec8c64c7ae6dfbd2c0a1012a4d9dff" target="_top" xlink:title="join">
<polygon fill="white" stroke="black" points="156,-94 156,-113 188,-113 188,-94 156,-94"/>
<text text-anchor="middle" x="172" y="-101" font-family="Helvetica,sans-Serif" font-size="10.00">join</text>
</a>
</g>
</g>
<!-- Node35&#45;&gt;Node36 -->
<g id="edge1" class="edge"><title>Node35&#45;&gt;Node36</title>
<path fill="none" stroke="midnightblue" d="M88.2701,-89.6064C112.237,-93.6313 139.516,-98.2126 155.985,-100.978"/>
<polygon fill="midnightblue" stroke="midnightblue" points="88.6844,-86.1271 78.2428,-87.9225 87.525,-93.0304 88.6844,-86.1271"/>
</g>
<!-- Node37 -->
<g id="node3" class="node"><title>Node37</title>
<g id="a_node3"><a xlink:href="namespaceobe_1_1_system_1_1_package.html#ad8db0c0875d239ceec4b89383b410c51" target="_top" xlink:title="Installs a Package. ">
<polygon fill="white" stroke="black" points="114,-44.5 114,-74.5 230,-74.5 230,-44.5 114,-44.5"/>
<text text-anchor="start" x="122" y="-62.5" font-family="Helvetica,sans-Serif" font-size="10.00">obe::System::Package</text>
<text text-anchor="middle" x="172" y="-51.5" font-family="Helvetica,sans-Serif" font-size="10.00">::Install</text>
</a>
</g>
</g>
<!-- Node35&#45;&gt;Node37 -->
<g id="edge2" class="edge"><title>Node35&#45;&gt;Node37</title>
<path fill="none" stroke="midnightblue" d="M88.2179,-73.4023C96.594,-71.9957 105.376,-70.5208 113.961,-69.079"/>
<polygon fill="midnightblue" stroke="midnightblue" points="87.525,-69.9696 78.2428,-75.0775 88.6844,-76.8729 87.525,-69.9696"/>
</g>
<!-- Node38 -->
<g id="node4" class="node"><title>Node38</title>
<g id="a_node4"><a xlink:href="namespaceobe_1_1_script_1_1_core_lib.html#a1f5462552ef202ab28d4e0613eeda3f7" target="_top" xlink:title="obe::Script::CoreLib\l::loadPackage">
<polygon fill="white" stroke="black" points="266,-44.5 266,-74.5 369,-74.5 369,-44.5 266,-44.5"/>
<text text-anchor="start" x="274" y="-62.5" font-family="Helvetica,sans-Serif" font-size="10.00">obe::Script::CoreLib</text>
<text text-anchor="middle" x="317.5" y="-51.5" font-family="Helvetica,sans-Serif" font-size="10.00">::loadPackage</text>
</a>
</g>
</g>
<!-- Node37&#45;&gt;Node38 -->
<g id="edge3" class="edge"><title>Node37&#45;&gt;Node38</title>
<path fill="none" stroke="midnightblue" d="M240.398,-59.5C248.878,-59.5 257.439,-59.5 265.606,-59.5"/>
<polygon fill="midnightblue" stroke="midnightblue" points="240.127,-56.0001 230.127,-59.5 240.127,-63.0001 240.127,-56.0001"/>
</g>
<!-- Node39 -->
<g id="node5" class="node"><title>Node39</title>
<g id="a_node5"><a xlink:href="namespaceobe_1_1_script.html#abdb81ec0976f1097cef6711415b8fac3" target="_top" xlink:title="obe::Script::loadCoreLib">
<polygon fill="white" stroke="black" points="405,-50 405,-69 526,-69 526,-50 405,-50"/>
<text text-anchor="middle" x="465.5" y="-57" font-family="Helvetica,sans-Serif" font-size="10.00">obe::Script::loadCoreLib</text>
</a>
</g>
</g>
<!-- Node38&#45;&gt;Node39 -->
<g id="edge4" class="edge"><title>Node38&#45;&gt;Node39</title>
<path fill="none" stroke="midnightblue" d="M379.328,-59.5C387.785,-59.5 396.467,-59.5 404.902,-59.5"/>
<polygon fill="midnightblue" stroke="midnightblue" points="379.154,-56.0001 369.154,-59.5 379.154,-63.0001 379.154,-56.0001"/>
</g>
<!-- Node40 -->
<g id="node6" class="node"><title>Node40</title>
<g id="a_node6"><a xlink:href="namespaceobe_1_1_script.html#a4e6ee77032cf7f66544f9b08464a60b7" target="_top" xlink:title="obe::Script::loadLib">
<polygon fill="white" stroke="black" points="563,-94 563,-113 664,-113 664,-94 563,-94"/>
<text text-anchor="middle" x="613.5" y="-101" font-family="Helvetica,sans-Serif" font-size="10.00">obe::Script::loadLib</text>
</a>
</g>
</g>
<!-- Node39&#45;&gt;Node40 -->
<g id="edge5" class="edge"><title>Node39&#45;&gt;Node40</title>
<path fill="none" stroke="midnightblue" d="M507.761,-71.9347C530.959,-78.926 559.468,-87.5177 580.882,-93.9713"/>
<polygon fill="midnightblue" stroke="midnightblue" points="508.764,-68.5818 498.18,-69.0473 506.745,-75.2841 508.764,-68.5818"/>
</g>
<!-- Node50 -->
<g id="node16" class="node"><title>Node50</title>
<g id="a_node16"><a xlink:href="namespaceobe_1_1_script_1_1_core_lib.html#a07d6c11bbb082bc45bdba50d97965c00" target="_top" xlink:title="obe::Script::CoreLib\l::loadCollision">
<polygon fill="white" stroke="black" points="562,-44.5 562,-74.5 665,-74.5 665,-44.5 562,-44.5"/>
<text text-anchor="start" x="570" y="-62.5" font-family="Helvetica,sans-Serif" font-size="10.00">obe::Script::CoreLib</text>
<text text-anchor="middle" x="613.5" y="-51.5" font-family="Helvetica,sans-Serif" font-size="10.00">::loadCollision</text>
</a>
</g>
</g>
<!-- Node39&#45;&gt;Node50 -->
<g id="edge18" class="edge"><title>Node39&#45;&gt;Node50</title>
<path fill="none" stroke="midnightblue" d="M536.356,-52.7556C544.966,-52.7251 553.634,-52.8199 561.88,-53.0402"/>
<polygon fill="midnightblue" stroke="midnightblue" points="536.272,-49.2561 526.305,-52.849 536.337,-56.2558 536.272,-49.2561"/>
</g>
<!-- Node41 -->
<g id="node7" class="node"><title>Node41</title>
<g id="a_node7"><a xlink:href="namespaceobe_1_1_modes.html#a1e38c0d9a2ca0230f0de79c298f53ab9" target="_top" xlink:title="A mode that will start the Toolkit. ">
<polygon fill="white" stroke="black" points="878,-143 878,-162 1024,-162 1024,-143 878,-143"/>
<text text-anchor="middle" x="951" y="-150" font-family="Helvetica,sans-Serif" font-size="10.00">obe::Modes::startToolkitMode</text>
</a>
</g>
</g>
<!-- Node40&#45;&gt;Node41 -->
<g id="edge6" class="edge"><title>Node40&#45;&gt;Node41</title>
<path fill="none" stroke="midnightblue" d="M632.349,-119.842C648.799,-133.711 674.594,-152.582 701,-160.5 770.808,-181.432 856.595,-171.343 907.083,-162.001"/>
<polygon fill="midnightblue" stroke="midnightblue" points="634.485,-117.06 624.646,-113.13 629.886,-122.338 634.485,-117.06"/>
</g>
<!-- Node44 -->
<g id="node10" class="node"><title>Node44</title>
<g id="a_node10"><a xlink:href="classobe_1_1_scene_1_1_world.html#a32964e659e18cb32094d9f8ceea30aa3" target="_top" xlink:title="obe::Scene::World::\lWorld">
<polygon fill="white" stroke="black" points="899,-77.5 899,-107.5 1003,-107.5 1003,-77.5 899,-77.5"/>
<text text-anchor="start" x="907" y="-95.5" font-family="Helvetica,sans-Serif" font-size="10.00">obe::Scene::World::</text>
<text text-anchor="middle" x="951" y="-84.5" font-family="Helvetica,sans-Serif" font-size="10.00">World</text>
</a>
</g>
</g>
<!-- Node40&#45;&gt;Node44 -->
<g id="edge10" class="edge"><title>Node40&#45;&gt;Node44</title>
<path fill="none" stroke="midnightblue" d="M674.331,-101.538C738.27,-99.442 838.555,-96.1539 898.916,-94.1749"/>
<polygon fill="midnightblue" stroke="midnightblue" points="673.884,-98.051 664.004,-101.877 674.114,-105.047 673.884,-98.051"/>
</g>
<!-- Node45 -->
<g id="node11" class="node"><title>Node45</title>
<g id="a_node11"><a xlink:href="namespaceobe_1_1_scene.html#ae5cbcc3278d9115d603e5024dec9136e" target="_top" xlink:title="obe::Scene::loadWorldScript\lEngineBaseLib">
<polygon fill="white" stroke="black" points="701,-44.5 701,-74.5 842,-74.5 842,-44.5 701,-44.5"/>
<text text-anchor="start" x="709" y="-62.5" font-family="Helvetica,sans-Serif" font-size="10.00">obe::Scene::loadWorldScript</text>
<text text-anchor="middle" x="771.5" y="-51.5" font-family="Helvetica,sans-Serif" font-size="10.00">EngineBaseLib</text>
</a>
</g>
</g>
<!-- Node40&#45;&gt;Node45 -->
<g id="edge11" class="edge"><title>Node40&#45;&gt;Node45</title>
<path fill="none" stroke="midnightblue" d="M658.151,-91.1882C676.437,-86.0306 697.871,-79.9852 717.086,-74.5654"/>
<polygon fill="midnightblue" stroke="midnightblue" points="657.024,-87.8694 648.35,-93.9527 658.924,-94.6066 657.024,-87.8694"/>
</g>
<!-- Node46 -->
<g id="node12" class="node"><title>Node46</title>
<g id="a_node12"><a xlink:href="namespaceobe_1_1_script.html#a5e992c0efb0543e7c934bc1065f08b01" target="_top" xlink:title="obe::Script::loadLibBridge">
<polygon fill="white" stroke="black" points="707.5,-6 707.5,-25 835.5,-25 835.5,-6 707.5,-6"/>
<text text-anchor="middle" x="771.5" y="-13" font-family="Helvetica,sans-Serif" font-size="10.00">obe::Script::loadLibBridge</text>
</a>
</g>
</g>
<!-- Node40&#45;&gt;Node46 -->
<g id="edge13" class="edge"><title>Node40&#45;&gt;Node46</title>
<path fill="none" stroke="midnightblue" d="M655.912,-89.4024C659.114,-87.6311 662.19,-85.6682 665,-83.5 686.396,-66.9928 678.727,-49.8035 701,-34.5 706.67,-30.604 713.112,-27.505 719.732,-25.0404"/>
<polygon fill="midnightblue" stroke="midnightblue" points="654.13,-86.3769 646.668,-93.8975 657.191,-92.6721 654.13,-86.3769"/>
</g>
<!-- Node49 -->
<g id="node15" class="node"><title>Node49</title>
<g id="a_node15"><a xlink:href="namespaceobe_1_1_script.html#aad6ef67388e6d16eb01853f208da410f" target="_top" xlink:title="obe::Script::loadBaseLib">
<polygon fill="white" stroke="black" points="710,-132 710,-151 833,-151 833,-132 710,-132"/>
<text text-anchor="middle" x="771.5" y="-139" font-family="Helvetica,sans-Serif" font-size="10.00">obe::Script::loadBaseLib</text>
</a>
</g>
</g>
<!-- Node40&#45;&gt;Node49 -->
<g id="edge16" class="edge"><title>Node40&#45;&gt;Node49</title>
<path fill="none" stroke="midnightblue" d="M663.632,-115.468C685.493,-120.793 710.876,-126.976 731.418,-131.98"/>
<polygon fill="midnightblue" stroke="midnightblue" points="664.41,-112.055 653.865,-113.089 662.753,-118.856 664.41,-112.055"/>
</g>
<!-- Node42 -->
<g id="node8" class="node"><title>Node42</title>
<g id="a_node8"><a xlink:href="namespaceobe_1_1_modes.html#a6a8b08eee511d4895c4da96d4ba223a6" target="_top" xlink:title="Starts the development Menu where you can starts other menus from. ">
<polygon fill="white" stroke="black" points="1060,-162 1060,-181 1193,-181 1193,-162 1060,-162"/>
<text text-anchor="middle" x="1126.5" y="-169" font-family="Helvetica,sans-Serif" font-size="10.00">obe::Modes::startDevMenu</text>
</a>
</g>
</g>
<!-- Node41&#45;&gt;Node42 -->
<g id="edge7" class="edge"><title>Node41&#45;&gt;Node42</title>
<path fill="none" stroke="midnightblue" d="M1034.12,-161.493C1042.72,-162.434 1051.37,-163.383 1059.76,-164.3"/>
<polygon fill="midnightblue" stroke="midnightblue" points="1034.39,-158.002 1024.07,-160.393 1033.63,-164.961 1034.39,-158.002"/>
</g>
<!-- Node43 -->
<g id="node9" class="node"><title>Node43</title>
<g id="a_node9"><a xlink:href="_ob_engine_8cpp.html#a3c04138a5bfe5d72780bb7e82a18e627" target="_top" xlink:title="main">
<polygon fill="white" stroke="black" points="1229,-143 1229,-162 1267,-162 1267,-143 1229,-143"/>
<text text-anchor="middle" x="1248" y="-150" font-family="Helvetica,sans-Serif" font-size="10.00">main</text>
</a>
</g>
</g>
<!-- Node41&#45;&gt;Node43 -->
<g id="edge9" class="edge"><title>Node41&#45;&gt;Node43</title>
<path fill="none" stroke="midnightblue" d="M1034.31,-152.5C1101.39,-152.5 1190.99,-152.5 1228.87,-152.5"/>
<polygon fill="midnightblue" stroke="midnightblue" points="1034.17,-149 1024.17,-152.5 1034.17,-156 1034.17,-149"/>
</g>
<!-- Node42&#45;&gt;Node43 -->
<g id="edge8" class="edge"><title>Node42&#45;&gt;Node43</title>
<path fill="none" stroke="midnightblue" d="M1197.82,-160.319C1209.35,-158.487 1220.33,-156.741 1228.98,-155.365"/>
<polygon fill="midnightblue" stroke="midnightblue" points="1196.93,-156.917 1187.6,-161.944 1198.03,-163.831 1196.93,-156.917"/>
</g>
<!-- Node45&#45;&gt;Node44 -->
<g id="edge12" class="edge"><title>Node45&#45;&gt;Node44</title>
<path fill="none" stroke="midnightblue" d="M851.998,-74.2799C867.939,-77.2436 884.283,-80.2821 898.941,-83.0074"/>
<polygon fill="midnightblue" stroke="midnightblue" points="852.615,-70.8346 842.143,-72.4478 851.335,-77.7167 852.615,-70.8346"/>
</g>
<!-- Node47 -->
<g id="node13" class="node"><title>Node47</title>
<g id="a_node13"><a xlink:href="namespaceobe_1_1_script.html#a5dc8321da50fd4b5dc2935e4d8c93a4e" target="_top" xlink:title="obe::Script::loadScrGame\lObject">
<polygon fill="white" stroke="black" points="886.5,-0.5 886.5,-30.5 1015.5,-30.5 1015.5,-0.5 886.5,-0.5"/>
<text text-anchor="start" x="894.5" y="-18.5" font-family="Helvetica,sans-Serif" font-size="10.00">obe::Script::loadScrGame</text>
<text text-anchor="middle" x="951" y="-7.5" font-family="Helvetica,sans-Serif" font-size="10.00">Object</text>
</a>
</g>
</g>
<!-- Node46&#45;&gt;Node47 -->
<g id="edge14" class="edge"><title>Node46&#45;&gt;Node47</title>
<path fill="none" stroke="midnightblue" d="M845.737,-15.5C859.171,-15.5 873.096,-15.5 886.226,-15.5"/>
<polygon fill="midnightblue" stroke="midnightblue" points="845.58,-12.0001 835.58,-15.5 845.58,-19.0001 845.58,-12.0001"/>
</g>
<!-- Node48 -->
<g id="node14" class="node"><title>Node48</title>
<g id="a_node14"><a xlink:href="classobe_1_1_script_1_1_game_object.html#aadeac0036d2fe21d523acfd4e9011a23" target="_top" xlink:title="obe::Script::GameObject\l::loadGameObject">
<polygon fill="white" stroke="black" points="1064,-0.5 1064,-30.5 1189,-30.5 1189,-0.5 1064,-0.5"/>
<text text-anchor="start" x="1072" y="-18.5" font-family="Helvetica,sans-Serif" font-size="10.00">obe::Script::GameObject</text>
<text text-anchor="middle" x="1126.5" y="-7.5" font-family="Helvetica,sans-Serif" font-size="10.00">::loadGameObject</text>
</a>
</g>
</g>
<!-- Node47&#45;&gt;Node48 -->
<g id="edge15" class="edge"><title>Node47&#45;&gt;Node48</title>
<path fill="none" stroke="midnightblue" d="M1025.72,-15.5C1038.44,-15.5 1051.55,-15.5 1063.91,-15.5"/>
<polygon fill="midnightblue" stroke="midnightblue" points="1025.62,-12.0001 1015.62,-15.5 1025.62,-19.0001 1025.62,-12.0001"/>
</g>
<!-- Node49&#45;&gt;Node41 -->
<g id="edge17" class="edge"><title>Node49&#45;&gt;Node41</title>
<path fill="none" stroke="midnightblue" d="M843.346,-145.89C854.662,-146.592 866.384,-147.318 877.733,-148.021"/>
<polygon fill="midnightblue" stroke="midnightblue" points="843.286,-142.38 833.089,-145.255 842.853,-149.367 843.286,-142.38"/>
</g>
<!-- Node50&#45;&gt;Node39 -->
<g id="edge19" class="edge"><title>Node50&#45;&gt;Node39</title>
<path fill="none" stroke="midnightblue" d="M551.757,-66.1647C543.342,-66.2828 534.703,-66.2783 526.305,-66.151"/>
<polygon fill="midnightblue" stroke="midnightblue" points="551.953,-69.6616 561.88,-65.9598 551.811,-62.663 551.953,-69.6616"/>
</g>
</g>
</svg>
