<?xml version="1.0" encoding="UTF-8" standalone="no"?>
<!DOCTYPE svg PUBLIC "-//W3C//DTD SVG 1.1//EN"
 "http://www.w3.org/Graphics/SVG/1.1/DTD/svg11.dtd">
<!-- Generated by graphviz version 2.38.0 (20140413.2041)
 -->
<!-- Title: obe::Utils::Math::isDoubleInt Pages: 1 -->
<svg width="1185pt" height="190pt"
 viewBox="0.00 0.00 1185.00 189.50" xmlns="http://www.w3.org/2000/svg" xmlns:xlink="http://www.w3.org/1999/xlink">
<g id="graph0" class="graph" transform="scale(1 1) rotate(0) translate(4 185.5)">
<title>obe::Utils::Math::isDoubleInt</title>
<!-- Node30 -->
<g id="node1" class="node"><title>Node30</title>
<polygon fill="#bfbfbf" stroke="black" points="0,-50 0,-69 140,-69 140,-50 0,-50"/>
<text text-anchor="middle" x="70" y="-57" font-family="Helvetica,sans-Serif" font-size="10.00">obe::Utils::Math::isDoubleInt</text>
</g>
<!-- Node31 -->
<g id="node2" class="node"><title>Node31</title>
<g id="a_node2"><a xlink:href="namespaceobe_1_1_script_1_1_core_lib.html#a370267169d9423accfb45268eedd9fe0" target="_top" xlink:title="obe::Script::CoreLib\l::loadUtils">
<polygon fill="none" stroke="black" points="176,-44.5 176,-74.5 279,-74.5 279,-44.5 176,-44.5"/>
<text text-anchor="start" x="184" y="-62.5" font-family="Helvetica,sans-Serif" font-size="10.00">obe::Script::CoreLib</text>
<text text-anchor="middle" x="227.5" y="-51.5" font-family="Helvetica,sans-Serif" font-size="10.00">::loadUtils</text>
</a>
</g>
</g>
<!-- Node30&#45;&gt;Node31 -->
<g id="edge1" class="edge"><title>Node30&#45;&gt;Node31</title>
<path fill="none" stroke="midnightblue" d="M150.279,-59.5C158.954,-59.5 167.603,-59.5 175.795,-59.5"/>
<polygon fill="midnightblue" stroke="midnightblue" points="150.11,-56.0001 140.11,-59.5 150.11,-63.0001 150.11,-56.0001"/>
</g>
<!-- Node32 -->
<g id="node3" class="node"><title>Node32</title>
<g id="a_node3"><a xlink:href="namespaceobe_1_1_script.html#abdb81ec0976f1097cef6711415b8fac3" target="_top" xlink:title="obe::Script::loadCoreLib">
<polygon fill="none" stroke="black" points="315,-50 315,-69 436,-69 436,-50 315,-50"/>
<text text-anchor="middle" x="375.5" y="-57" font-family="Helvetica,sans-Serif" font-size="10.00">obe::Script::loadCoreLib</text>
</a>
</g>
</g>
<!-- Node31&#45;&gt;Node32 -->
<g id="edge2" class="edge"><title>Node31&#45;&gt;Node32</title>
<path fill="none" stroke="midnightblue" d="M289.328,-59.5C297.785,-59.5 306.467,-59.5 314.902,-59.5"/>
<polygon fill="midnightblue" stroke="midnightblue" points="289.154,-56.0001 279.154,-59.5 289.154,-63.0001 289.154,-56.0001"/>
</g>
<!-- Node33 -->
<g id="node4" class="node"><title>Node33</title>
<g id="a_node4"><a xlink:href="namespaceobe_1_1_script.html#a4e6ee77032cf7f66544f9b08464a60b7" target="_top" xlink:title="obe::Script::loadLib">
<polygon fill="none" stroke="black" points="473,-94 473,-113 574,-113 574,-94 473,-94"/>
<text text-anchor="middle" x="523.5" y="-101" font-family="Helvetica,sans-Serif" font-size="10.00">obe::Script::loadLib</text>
</a>
</g>
</g>
<!-- Node32&#45;&gt;Node33 -->
<g id="edge3" class="edge"><title>Node32&#45;&gt;Node33</title>
<path fill="none" stroke="midnightblue" d="M417.761,-71.9347C440.959,-78.926 469.468,-87.5177 490.882,-93.9713"/>
<polygon fill="midnightblue" stroke="midnightblue" points="418.764,-68.5818 408.18,-69.0473 416.745,-75.2841 418.764,-68.5818"/>
</g>
<!-- Node43 -->
<g id="node14" class="node"><title>Node43</title>
<g id="a_node14"><a xlink:href="namespaceobe_1_1_script_1_1_core_lib.html#a07d6c11bbb082bc45bdba50d97965c00" target="_top" xlink:title="obe::Script::CoreLib\l::loadCollision">
<polygon fill="none" stroke="black" points="472,-44.5 472,-74.5 575,-74.5 575,-44.5 472,-44.5"/>
<text text-anchor="start" x="480" y="-62.5" font-family="Helvetica,sans-Serif" font-size="10.00">obe::Script::CoreLib</text>
<text text-anchor="middle" x="523.5" y="-51.5" font-family="Helvetica,sans-Serif" font-size="10.00">::loadCollision</text>
</a>
</g>
</g>
<!-- Node32&#45;&gt;Node43 -->
<g id="edge16" class="edge"><title>Node32&#45;&gt;Node43</title>
<path fill="none" stroke="midnightblue" d="M446.356,-52.7556C454.966,-52.7251 463.634,-52.8199 471.88,-53.0402"/>
<polygon fill="midnightblue" stroke="midnightblue" points="446.272,-49.2561 436.305,-52.849 446.337,-56.2558 446.272,-49.2561"/>
</g>
<!-- Node34 -->
<g id="node5" class="node"><title>Node34</title>
<g id="a_node5"><a xlink:href="namespaceobe_1_1_modes.html#a1e38c0d9a2ca0230f0de79c298f53ab9" target="_top" xlink:title="A mode that will start the Toolkit. ">
<polygon fill="none" stroke="black" points="788,-143 788,-162 934,-162 934,-143 788,-143"/>
<text text-anchor="middle" x="861" y="-150" font-family="Helvetica,sans-Serif" font-size="10.00">obe::Modes::startToolkitMode</text>
</a>
</g>
</g>
<!-- Node33&#45;&gt;Node34 -->
<g id="edge4" class="edge"><title>Node33&#45;&gt;Node34</title>
<path fill="none" stroke="midnightblue" d="M542.349,-119.842C558.799,-133.711 584.594,-152.582 611,-160.5 680.808,-181.432 766.595,-171.343 817.083,-162.001"/>
<polygon fill="midnightblue" stroke="midnightblue" points="544.485,-117.06 534.646,-113.13 539.886,-122.338 544.485,-117.06"/>
</g>
<!-- Node37 -->
<g id="node8" class="node"><title>Node37</title>
<g id="a_node8"><a xlink:href="classobe_1_1_scene_1_1_world.html#a32964e659e18cb32094d9f8ceea30aa3" target="_top" xlink:title="obe::Scene::World::\lWorld">
<polygon fill="none" stroke="black" points="809,-77.5 809,-107.5 913,-107.5 913,-77.5 809,-77.5"/>
<text text-anchor="start" x="817" y="-95.5" font-family="Helvetica,sans-Serif" font-size="10.00">obe::Scene::World::</text>
<text text-anchor="middle" x="861" y="-84.5" font-family="Helvetica,sans-Serif" font-size="10.00">World</text>
</a>
</g>
</g>
<!-- Node33&#45;&gt;Node37 -->
<g id="edge8" class="edge"><title>Node33&#45;&gt;Node37</title>
<path fill="none" stroke="midnightblue" d="M584.331,-101.538C648.27,-99.442 748.555,-96.1539 808.916,-94.1749"/>
<polygon fill="midnightblue" stroke="midnightblue" points="583.884,-98.051 574.004,-101.877 584.114,-105.047 583.884,-98.051"/>
</g>
<!-- Node38 -->
<g id="node9" class="node"><title>Node38</title>
<g id="a_node9"><a xlink:href="namespaceobe_1_1_scene.html#ae5cbcc3278d9115d603e5024dec9136e" target="_top" xlink:title="obe::Scene::loadWorldScript\lEngineBaseLib">
<polygon fill="none" stroke="black" points="611,-44.5 611,-74.5 752,-74.5 752,-44.5 611,-44.5"/>
<text text-anchor="start" x="619" y="-62.5" font-family="Helvetica,sans-Serif" font-size="10.00">obe::Scene::loadWorldScript</text>
<text text-anchor="middle" x="681.5" y="-51.5" font-family="Helvetica,sans-Serif" font-size="10.00">EngineBaseLib</text>
</a>
</g>
</g>
<!-- Node33&#45;&gt;Node38 -->
<g id="edge9" class="edge"><title>Node33&#45;&gt;Node38</title>
<path fill="none" stroke="midnightblue" d="M568.151,-91.1882C586.437,-86.0306 607.871,-79.9852 627.086,-74.5654"/>
<polygon fill="midnightblue" stroke="midnightblue" points="567.024,-87.8694 558.35,-93.9527 568.924,-94.6066 567.024,-87.8694"/>
</g>
<!-- Node39 -->
<g id="node10" class="node"><title>Node39</title>
<g id="a_node10"><a xlink:href="namespaceobe_1_1_script.html#a5e992c0efb0543e7c934bc1065f08b01" target="_top" xlink:title="obe::Script::loadLibBridge">
<polygon fill="none" stroke="black" points="617.5,-6 617.5,-25 745.5,-25 745.5,-6 617.5,-6"/>
<text text-anchor="middle" x="681.5" y="-13" font-family="Helvetica,sans-Serif" font-size="10.00">obe::Script::loadLibBridge</text>
</a>
</g>
</g>
<!-- Node33&#45;&gt;Node39 -->
<g id="edge11" class="edge"><title>Node33&#45;&gt;Node39</title>
<path fill="none" stroke="midnightblue" d="M565.912,-89.4024C569.114,-87.6311 572.19,-85.6682 575,-83.5 596.396,-66.9928 588.727,-49.8035 611,-34.5 616.67,-30.604 623.112,-27.505 629.732,-25.0404"/>
<polygon fill="midnightblue" stroke="midnightblue" points="564.13,-86.3769 556.668,-93.8975 567.191,-92.6721 564.13,-86.3769"/>
</g>
<!-- Node42 -->
<g id="node13" class="node"><title>Node42</title>
<g id="a_node13"><a xlink:href="namespaceobe_1_1_script.html#aad6ef67388e6d16eb01853f208da410f" target="_top" xlink:title="obe::Script::loadBaseLib">
<polygon fill="none" stroke="black" points="620,-132 620,-151 743,-151 743,-132 620,-132"/>
<text text-anchor="middle" x="681.5" y="-139" font-family="Helvetica,sans-Serif" font-size="10.00">obe::Script::loadBaseLib</text>
</a>
</g>
</g>
<!-- Node33&#45;&gt;Node42 -->
<g id="edge14" class="edge"><title>Node33&#45;&gt;Node42</title>
<path fill="none" stroke="midnightblue" d="M573.632,-115.468C595.493,-120.793 620.876,-126.976 641.418,-131.98"/>
<polygon fill="midnightblue" stroke="midnightblue" points="574.41,-112.055 563.865,-113.089 572.753,-118.856 574.41,-112.055"/>
</g>
<!-- Node35 -->
<g id="node6" class="node"><title>Node35</title>
<g id="a_node6"><a xlink:href="namespaceobe_1_1_modes.html#a6a8b08eee511d4895c4da96d4ba223a6" target="_top" xlink:title="obe::Modes::startDevMenu">
<polygon fill="none" stroke="black" points="970,-162 970,-181 1103,-181 1103,-162 970,-162"/>
<text text-anchor="middle" x="1036.5" y="-169" font-family="Helvetica,sans-Serif" font-size="10.00">obe::Modes::startDevMenu</text>
</a>
</g>
</g>
<!-- Node34&#45;&gt;Node35 -->
<g id="edge5" class="edge"><title>Node34&#45;&gt;Node35</title>
<path fill="none" stroke="midnightblue" d="M944.118,-161.493C952.716,-162.434 961.375,-163.383 969.755,-164.3"/>
<polygon fill="midnightblue" stroke="midnightblue" points="944.394,-158.002 934.072,-160.393 943.632,-164.961 944.394,-158.002"/>
</g>
<!-- Node36 -->
<g id="node7" class="node"><title>Node36</title>
<g id="a_node7"><a xlink:href="_ob_engine_8cpp.html#a3c04138a5bfe5d72780bb7e82a18e627" target="_top" xlink:title="main">
<polygon fill="none" stroke="black" points="1139,-143 1139,-162 1177,-162 1177,-143 1139,-143"/>
<text text-anchor="middle" x="1158" y="-150" font-family="Helvetica,sans-Serif" font-size="10.00">main</text>
</a>
</g>
</g>
<!-- Node34&#45;&gt;Node36 -->
<g id="edge7" class="edge"><title>Node34&#45;&gt;Node36</title>
<path fill="none" stroke="midnightblue" d="M944.308,-152.5C1011.39,-152.5 1100.99,-152.5 1138.87,-152.5"/>
<polygon fill="midnightblue" stroke="midnightblue" points="944.165,-149 934.165,-152.5 944.165,-156 944.165,-149"/>
</g>
<!-- Node35&#45;&gt;Node36 -->
<g id="edge6" class="edge"><title>Node35&#45;&gt;Node36</title>
<path fill="none" stroke="midnightblue" d="M1107.82,-160.319C1119.35,-158.487 1130.33,-156.741 1138.98,-155.365"/>
<polygon fill="midnightblue" stroke="midnightblue" points="1106.93,-156.917 1097.6,-161.944 1108.03,-163.831 1106.93,-156.917"/>
</g>
<!-- Node38&#45;&gt;Node37 -->
<g id="edge10" class="edge"><title>Node38&#45;&gt;Node37</title>
<path fill="none" stroke="midnightblue" d="M761.998,-74.2799C777.939,-77.2436 794.283,-80.2821 808.941,-83.0074"/>
<polygon fill="midnightblue" stroke="midnightblue" points="762.615,-70.8346 752.143,-72.4478 761.335,-77.7167 762.615,-70.8346"/>
</g>
<!-- Node40 -->
<g id="node11" class="node"><title>Node40</title>
<g id="a_node11"><a xlink:href="namespaceobe_1_1_script.html#a5dc8321da50fd4b5dc2935e4d8c93a4e" target="_top" xlink:title="obe::Script::loadScrGame\lObject">
<polygon fill="none" stroke="black" points="796.5,-0.5 796.5,-30.5 925.5,-30.5 925.5,-0.5 796.5,-0.5"/>
<text text-anchor="start" x="804.5" y="-18.5" font-family="Helvetica,sans-Serif" font-size="10.00">obe::Script::loadScrGame</text>
<text text-anchor="middle" x="861" y="-7.5" font-family="Helvetica,sans-Serif" font-size="10.00">Object</text>
</a>
</g>
</g>
<!-- Node39&#45;&gt;Node40 -->
<g id="edge12" class="edge"><title>Node39&#45;&gt;Node40</title>
<path fill="none" stroke="midnightblue" d="M755.737,-15.5C769.171,-15.5 783.096,-15.5 796.226,-15.5"/>
<polygon fill="midnightblue" stroke="midnightblue" points="755.58,-12.0001 745.58,-15.5 755.58,-19.0001 755.58,-12.0001"/>
</g>
<!-- Node41 -->
<g id="node12" class="node"><title>Node41</title>
<g id="a_node12"><a xlink:href="classobe_1_1_script_1_1_game_object.html#aadeac0036d2fe21d523acfd4e9011a23" target="_top" xlink:title="obe::Script::GameObject\l::loadGameObject">
<polygon fill="none" stroke="black" points="974,-0.5 974,-30.5 1099,-30.5 1099,-0.5 974,-0.5"/>
<text text-anchor="start" x="982" y="-18.5" font-family="Helvetica,sans-Serif" font-size="10.00">obe::Script::GameObject</text>
<text text-anchor="middle" x="1036.5" y="-7.5" font-family="Helvetica,sans-Serif" font-size="10.00">::loadGameObject</text>
</a>
</g>
</g>
<!-- Node40&#45;&gt;Node41 -->
<g id="edge13" class="edge"><title>Node40&#45;&gt;Node41</title>
<path fill="none" stroke="midnightblue" d="M935.721,-15.5C948.445,-15.5 961.552,-15.5 973.913,-15.5"/>
<polygon fill="midnightblue" stroke="midnightblue" points="935.62,-12.0001 925.62,-15.5 935.62,-19.0001 935.62,-12.0001"/>
</g>
<!-- Node42&#45;&gt;Node34 -->
<g id="edge15" class="edge"><title>Node42&#45;&gt;Node34</title>
<path fill="none" stroke="midnightblue" d="M753.346,-145.89C764.662,-146.592 776.384,-147.318 787.733,-148.021"/>
<polygon fill="midnightblue" stroke="midnightblue" points="753.286,-142.38 743.089,-145.255 752.853,-149.367 753.286,-142.38"/>
</g>
<!-- Node43&#45;&gt;Node32 -->
<g id="edge17" class="edge"><title>Node43&#45;&gt;Node32</title>
<path fill="none" stroke="midnightblue" d="M461.757,-66.1647C453.342,-66.2828 444.703,-66.2783 436.305,-66.151"/>
<polygon fill="midnightblue" stroke="midnightblue" points="461.953,-69.6616 471.88,-65.9598 461.811,-62.663 461.953,-69.6616"/>
</g>
</g>
</svg>
