<?xml version="1.0" encoding="UTF-8" standalone="no"?>
<!DOCTYPE svg PUBLIC "-//W3C//DTD SVG 1.1//EN"
 "http://www.w3.org/Graphics/SVG/1.1/DTD/svg11.dtd">
<!-- Generated by graphviz version 2.38.0 (20140413.2041)
 -->
<!-- Title: obe::Functions::File::fileExists Pages: 1 -->
<!--zoomable 285 -->
<svg id="main" version="1.1" xmlns="http://www.w3.org/2000/svg" xmlns:xlink="http://www.w3.org/1999/xlink" xml:space="preserve" onload="init(evt)">
<style type="text/css"><![CDATA[
.edge:hover path { stroke: red; }
.edge:hover polygon { stroke: red; fill: red; }
.edge path { stroke: white; }
.edge polygon { stroke: white; fill: white; }
.node polygon { fill: white; }
]]></style>
<script type="text/javascript"><![CDATA[
var edges = document.getElementsByTagName('g');
if (edges && edges.length) {
  for (var i=0;i<edges.length;i++) {
    if (edges[i].id.substr(0,4)=='edge') {
      edges[i].setAttribute('class','edge');
    }
  }
}
]]></script>
        <defs>
                <circle id="rim" cx="0" cy="0" r="7"/>
                <circle id="rim2" cx="0" cy="0" r="3.5"/>
                <g id="zoomPlus">
                        <use xlink:href="#rim" fill="#404040">
                                <set attributeName="fill" to="#808080" begin="zoomplus.mouseover" end="zoomplus.mouseout"/>
                        </use>
                        <path d="M-4,0h8M0,-4v8" fill="none" stroke="white" stroke-width="1.5" pointer-events="none"/>
                </g>
                <g id="zoomMin">
                        <use xlink:href="#rim" fill="#404040">
                                <set attributeName="fill" to="#808080" begin="zoomminus.mouseover" end="zoomminus.mouseout"/>
                        </use>
                        <path d="M-4,0h8" fill="none" stroke="white" stroke-width="1.5" pointer-events="none"/>
                </g>
                <g id="dirArrow">
                        <path fill="none" stroke="white" stroke-width="1.5" d="M0,-3.0v7 M-2.5,-0.5L0,-3.0L2.5,-0.5"/>
                </g>
               <g id="resetDef">
                       <use xlink:href="#rim2" fill="#404040">
                               <set attributeName="fill" to="#808080" begin="reset.mouseover" end="reset.mouseout"/>
                       </use>
               </g>
        </defs>

<script type="text/javascript">
var viewWidth = 1205;
var viewHeight = 285;
var sectionId = 'dynsection-7';
</script>
<script xlink:href="svgpan.js"/>
<svg id="graph" class="graph">
<g id="viewport">
<title>obe::Functions::File::fileExists</title>
<!-- Node87 -->
<g id="node1" class="node"><title>Node87</title>
<polygon fill="#bfbfbf" stroke="black" points="0,-202.5 0,-232.5 103,-232.5 103,-202.5 0,-202.5"/>
<text text-anchor="start" x="8" y="-220.5" font-family="Helvetica,sans-Serif" font-size="10.00">obe::Functions::File</text>
<text text-anchor="middle" x="51.5" y="-209.5" font-family="Helvetica,sans-Serif" font-size="10.00">::fileExists</text>
</g>
<!-- Node88 -->
<g id="node2" class="node"><title>Node88</title>
<g id="a_node2"><a xlink:href="classobe_1_1_system_1_1_path.html#a096ad4fa7397aa42fd73661b08f50e2a" target="_top" xlink:title="obe::System::Path::\lloadResource">
<polygon fill="white" stroke="black" points="148,-246.5 148,-276.5 252,-276.5 252,-246.5 148,-246.5"/>
<text text-anchor="start" x="156" y="-264.5" font-family="Helvetica,sans-Serif" font-size="10.00">obe::System::Path::</text>
<text text-anchor="middle" x="200" y="-253.5" font-family="Helvetica,sans-Serif" font-size="10.00">loadResource</text>
</a>
</g>
</g>
<!-- Node87&#45;&gt;Node88 -->
<g id="edge1" class="edge"><title>Node87&#45;&gt;Node88</title>
<path fill="none" stroke="midnightblue" d="M112.114,-235.404C124.264,-239.054 136.934,-242.859 148.721,-246.399"/>
<polygon fill="midnightblue" stroke="midnightblue" points="113.091,-232.044 102.507,-232.519 111.078,-238.748 113.091,-232.044"/>
</g>
<!-- Node94 -->
<g id="node8" class="node"><title>Node94</title>
<g id="a_node8"><a xlink:href="namespaceobe_1_1_modes.html#aba069f9abc42724d76690602326d6b7d" target="_top" xlink:title="obe::Modes::createLevel">
<polygon fill="white" stroke="black" points="139,-208 139,-227 261,-227 261,-208 139,-208"/>
<text text-anchor="middle" x="200" y="-215" font-family="Helvetica,sans-Serif" font-size="10.00">obe::Modes::createLevel</text>
</a>
</g>
</g>
<!-- Node87&#45;&gt;Node94 -->
<g id="edge8" class="edge"><title>Node87&#45;&gt;Node94</title>
<path fill="none" stroke="midnightblue" d="M113.462,-217.5C121.887,-217.5 130.535,-217.5 138.943,-217.5"/>
<polygon fill="midnightblue" stroke="midnightblue" points="113.327,-214 103.327,-217.5 113.327,-221 113.327,-214"/>
</g>
<!-- Node96 -->
<g id="node10" class="node"><title>Node96</title>
<g id="a_node10"><a xlink:href="namespaceobe_1_1_script_1_1_core_lib.html#a76d426d953a15194b3903710bbbc79e5" target="_top" xlink:title="obe::Script::CoreLib\l::loadFilesystem">
<polygon fill="white" stroke="black" points="148.5,-138.5 148.5,-168.5 251.5,-168.5 251.5,-138.5 148.5,-138.5"/>
<text text-anchor="start" x="156.5" y="-156.5" font-family="Helvetica,sans-Serif" font-size="10.00">obe::Script::CoreLib</text>
<text text-anchor="middle" x="200" y="-145.5" font-family="Helvetica,sans-Serif" font-size="10.00">::loadFilesystem</text>
</a>
</g>
</g>
<!-- Node87&#45;&gt;Node96 -->
<g id="edge12" class="edge"><title>Node87&#45;&gt;Node96</title>
<path fill="none" stroke="midnightblue" d="M96.248,-198.388C118.118,-188.834 144.2,-177.44 164.614,-168.522"/>
<polygon fill="midnightblue" stroke="midnightblue" points="94.6103,-195.284 86.8477,-202.495 97.4126,-201.699 94.6103,-195.284"/>
</g>
<!-- Node89 -->
<g id="node3" class="node"><title>Node89</title>
<g id="a_node3"><a xlink:href="classobe_1_1_editor_1_1_thumbnailer.html#a4f284a5b87ef6ca6a0a42d7f4d882dd1" target="_top" xlink:title="obe::Editor::Thumbnailer\l::GetSpriteThumbnail">
<polygon fill="white" stroke="black" points="297,-246.5 297,-276.5 419,-276.5 419,-246.5 297,-246.5"/>
<text text-anchor="start" x="305" y="-264.5" font-family="Helvetica,sans-Serif" font-size="10.00">obe::Editor::Thumbnailer</text>
<text text-anchor="middle" x="358" y="-253.5" font-family="Helvetica,sans-Serif" font-size="10.00">::GetSpriteThumbnail</text>
</a>
</g>
</g>
<!-- Node88&#45;&gt;Node89 -->
<g id="edge2" class="edge"><title>Node88&#45;&gt;Node89</title>
<path fill="none" stroke="midnightblue" d="M262.337,-261.5C273.689,-261.5 285.534,-261.5 296.85,-261.5"/>
<polygon fill="midnightblue" stroke="midnightblue" points="262.08,-258 252.08,-261.5 262.08,-265 262.08,-258"/>
</g>
<!-- Node90 -->
<g id="node4" class="node"><title>Node90</title>
<g id="a_node4"><a xlink:href="namespaceobe_1_1_editor.html#a75bc94b8c9152749d28e9e3927522e4a" target="_top" xlink:title="obe::Editor::loadSpriteFolder">
<polygon fill="white" stroke="black" points="455,-250 455,-269 595,-269 595,-250 455,-250"/>
<text text-anchor="middle" x="525" y="-257" font-family="Helvetica,sans-Serif" font-size="10.00">obe::Editor::loadSpriteFolder</text>
</a>
</g>
</g>
<!-- Node89&#45;&gt;Node90 -->
<g id="edge3" class="edge"><title>Node89&#45;&gt;Node90</title>
<path fill="none" stroke="midnightblue" d="M429.24,-260.649C437.698,-260.546 446.331,-260.441 454.774,-260.339"/>
<polygon fill="midnightblue" stroke="midnightblue" points="428.992,-257.151 419.036,-260.772 429.077,-264.151 428.992,-257.151"/>
</g>
<!-- Node91 -->
<g id="node5" class="node"><title>Node91</title>
<g id="a_node5"><a xlink:href="namespaceobe_1_1_editor.html#a508e767d732debdb65e63c7bffa50623" target="_top" xlink:title="obe::Editor::editMap">
<polygon fill="white" stroke="black" points="828,-241 828,-260 932,-260 932,-241 828,-241"/>
<text text-anchor="middle" x="880" y="-248" font-family="Helvetica,sans-Serif" font-size="10.00">obe::Editor::editMap</text>
</a>
</g>
</g>
<!-- Node90&#45;&gt;Node91 -->
<g id="edge4" class="edge"><title>Node90&#45;&gt;Node91</title>
<path fill="none" stroke="midnightblue" d="M605.573,-257.471C673.638,-255.736 769.578,-253.29 827.849,-251.804"/>
<polygon fill="midnightblue" stroke="midnightblue" points="605.228,-253.979 595.32,-257.733 605.406,-260.977 605.228,-253.979"/>
</g>
<!-- Node92 -->
<g id="node6" class="node"><title>Node92</title>
<g id="a_node6"><a xlink:href="namespaceobe_1_1_modes.html#a6a8b08eee511d4895c4da96d4ba223a6" target="_top" xlink:title="obe::Modes::startDevMenu">
<polygon fill="white" stroke="black" points="990,-165 990,-184 1123,-184 1123,-165 990,-165"/>
<text text-anchor="middle" x="1056.5" y="-172" font-family="Helvetica,sans-Serif" font-size="10.00">obe::Modes::startDevMenu</text>
</a>
</g>
</g>
<!-- Node91&#45;&gt;Node92 -->
<g id="edge5" class="edge"><title>Node91&#45;&gt;Node92</title>
<path fill="none" stroke="midnightblue" d="M935.241,-238.053C941.644,-236.095 948.022,-233.91 954,-231.5 986.803,-218.278 1022.19,-196.497 1041.3,-184.037"/>
<polygon fill="midnightblue" stroke="midnightblue" points="933.852,-234.811 925.213,-240.943 935.791,-241.537 933.852,-234.811"/>
</g>
<!-- Node93 -->
<g id="node7" class="node"><title>Node93</title>
<g id="a_node7"><a xlink:href="_ob_engine_8cpp.html#a3c04138a5bfe5d72780bb7e82a18e627" target="_top" xlink:title="main">
<polygon fill="white" stroke="black" points="1159,-184 1159,-203 1197,-203 1197,-184 1159,-184"/>
<text text-anchor="middle" x="1178" y="-191" font-family="Helvetica,sans-Serif" font-size="10.00">main</text>
</a>
</g>
</g>
<!-- Node91&#45;&gt;Node93 -->
<g id="edge7" class="edge"><title>Node91&#45;&gt;Node93</title>
<path fill="none" stroke="midnightblue" d="M942.463,-245.769C991.885,-240.976 1062.76,-231.864 1123,-215.5 1135.31,-212.156 1148.58,-206.774 1158.89,-202.171"/>
<polygon fill="midnightblue" stroke="midnightblue" points="941.883,-242.308 932.254,-246.727 942.537,-249.277 941.883,-242.308"/>
</g>
<!-- Node92&#45;&gt;Node93 -->
<g id="edge6" class="edge"><title>Node92&#45;&gt;Node93</title>
<path fill="none" stroke="midnightblue" d="M1127.82,-185.681C1139.35,-187.513 1150.33,-189.259 1158.98,-190.635"/>
<polygon fill="midnightblue" stroke="midnightblue" points="1128.03,-182.169 1117.6,-184.056 1126.93,-189.083 1128.03,-182.169"/>
</g>
<!-- Node95 -->
<g id="node9" class="node"><title>Node95</title>
<g id="a_node9"><a xlink:href="namespaceobe_1_1_modes.html#a3f3265818dfb12925bf614e517346f73" target="_top" xlink:title="obe::Modes::chooseMapMenu">
<polygon fill="white" stroke="black" points="806,-203 806,-222 954,-222 954,-203 806,-203"/>
<text text-anchor="middle" x="880" y="-210" font-family="Helvetica,sans-Serif" font-size="10.00">obe::Modes::chooseMapMenu</text>
</a>
</g>
</g>
<!-- Node94&#45;&gt;Node95 -->
<g id="edge9" class="edge"><title>Node94&#45;&gt;Node95</title>
<path fill="none" stroke="midnightblue" d="M271.342,-216.981C400.558,-216.028 674.479,-214.008 805.798,-213.04"/>
<polygon fill="midnightblue" stroke="midnightblue" points="271.142,-213.483 261.168,-217.056 271.194,-220.482 271.142,-213.483"/>
</g>
<!-- Node95&#45;&gt;Node92 -->
<g id="edge10" class="edge"><title>Node95&#45;&gt;Node92</title>
<path fill="none" stroke="midnightblue" d="M934.969,-200.747C959.643,-195.374 988.495,-189.091 1011.78,-184.02"/>
<polygon fill="midnightblue" stroke="midnightblue" points="934.06,-197.363 925.034,-202.911 935.549,-204.203 934.06,-197.363"/>
</g>
<!-- Node95&#45;&gt;Node93 -->
<g id="edge11" class="edge"><title>Node95&#45;&gt;Node93</title>
<path fill="none" stroke="midnightblue" d="M964.345,-207.15C1031.63,-202.831 1121.1,-197.088 1158.91,-194.661"/>
<polygon fill="midnightblue" stroke="midnightblue" points="963.924,-203.67 954.169,-207.803 964.372,-210.656 963.924,-203.67"/>
</g>
<!-- Node97 -->
<g id="node11" class="node"><title>Node97</title>
<g id="a_node11"><a xlink:href="namespaceobe_1_1_script.html#a633c629c5a54da2b5d4930730983121c" target="_top" xlink:title="obe::Script::loadCoreLib">
<polygon fill="white" stroke="black" points="297.5,-103 297.5,-122 418.5,-122 418.5,-103 297.5,-103"/>
<text text-anchor="middle" x="358" y="-110" font-family="Helvetica,sans-Serif" font-size="10.00">obe::Script::loadCoreLib</text>
</a>
</g>
</g>
<!-- Node96&#45;&gt;Node97 -->
<g id="edge13" class="edge"><title>Node96&#45;&gt;Node97</title>
<path fill="none" stroke="midnightblue" d="M261.559,-137.584C281.435,-132.36 302.902,-126.718 320.434,-122.11"/>
<polygon fill="midnightblue" stroke="midnightblue" points="260.431,-134.261 251.649,-140.188 262.21,-141.032 260.431,-134.261"/>
</g>
<!-- Node98 -->
<g id="node12" class="node"><title>Node98</title>
<g id="a_node12"><a xlink:href="namespaceobe_1_1_script.html#a4e6ee77032cf7f66544f9b08464a60b7" target="_top" xlink:title="obe::Script::loadLib">
<polygon fill="white" stroke="black" points="474.5,-92 474.5,-111 575.5,-111 575.5,-92 474.5,-92"/>
<text text-anchor="middle" x="525" y="-99" font-family="Helvetica,sans-Serif" font-size="10.00">obe::Script::loadLib</text>
</a>
</g>
</g>
<!-- Node97&#45;&gt;Node98 -->
<g id="edge14" class="edge"><title>Node97&#45;&gt;Node98</title>
<path fill="none" stroke="midnightblue" d="M428.556,-107.863C443.924,-106.838 459.907,-105.773 474.299,-104.813"/>
<polygon fill="midnightblue" stroke="midnightblue" points="428.314,-104.371 418.569,-108.529 428.779,-111.356 428.314,-104.371"/>
</g>
<!-- Node99 -->
<g id="node13" class="node"><title>Node99</title>
<g id="a_node13"><a xlink:href="namespaceobe_1_1_script.html#a5e992c0efb0543e7c934bc1065f08b01" target="_top" xlink:title="obe::Script::loadLibBridge">
<polygon fill="white" stroke="black" points="636.5,-6 636.5,-25 764.5,-25 764.5,-6 636.5,-6"/>
<text text-anchor="middle" x="700.5" y="-13" font-family="Helvetica,sans-Serif" font-size="10.00">obe::Script::loadLibBridge</text>
</a>
</g>
</g>
<!-- Node98&#45;&gt;Node99 -->
<g id="edge15" class="edge"><title>Node98&#45;&gt;Node99</title>
<path fill="none" stroke="midnightblue" d="M546.452,-85.8298C566.887,-70.8225 599.687,-48.4562 631,-34.5 639.342,-30.7822 648.584,-27.6262 657.51,-25.0178"/>
<polygon fill="midnightblue" stroke="midnightblue" points="544.16,-83.173 538.237,-91.9577 548.346,-88.7839 544.16,-83.173"/>
</g>
<!-- Node102 -->
<g id="node16" class="node"><title>Node102</title>
<g id="a_node16"><a xlink:href="namespaceobe_1_1_script.html#aad6ef67388e6d16eb01853f208da410f" target="_top" xlink:title="obe::Script::loadBaseLib">
<polygon fill="white" stroke="black" points="639,-44 639,-63 762,-63 762,-44 639,-44"/>
<text text-anchor="middle" x="700.5" y="-51" font-family="Helvetica,sans-Serif" font-size="10.00">obe::Script::loadBaseLib</text>
</a>
</g>
</g>
<!-- Node98&#45;&gt;Node102 -->
<g id="edge18" class="edge"><title>Node98&#45;&gt;Node102</title>
<path fill="none" stroke="midnightblue" d="M570.684,-89.1379C600.016,-81.0229 637.814,-70.5659 664.867,-63.0815"/>
<polygon fill="midnightblue" stroke="midnightblue" points="569.398,-85.8621 560.693,-91.9018 571.265,-92.6087 569.398,-85.8621"/>
</g>
<!-- Node103 -->
<g id="node17" class="node"><title>Node103</title>
<g id="a_node17"><a xlink:href="namespaceobe_1_1_modes.html#a1e38c0d9a2ca0230f0de79c298f53ab9" target="_top" xlink:title="A mode that will start the Toolkit. ">
<polygon fill="white" stroke="black" points="807,-87 807,-106 953,-106 953,-87 807,-87"/>
<text text-anchor="middle" x="880" y="-94" font-family="Helvetica,sans-Serif" font-size="10.00">obe::Modes::startToolkitMode</text>
</a>
</g>
</g>
<!-- Node98&#45;&gt;Node103 -->
<g id="edge22" class="edge"><title>Node98&#45;&gt;Node103</title>
<path fill="none" stroke="midnightblue" d="M586.073,-100.649C647.115,-99.7845 741.699,-98.4448 806.785,-97.5229"/>
<polygon fill="midnightblue" stroke="midnightblue" points="585.777,-97.1529 575.828,-100.794 585.876,-104.152 585.777,-97.1529"/>
</g>
<!-- Node104 -->
<g id="node18" class="node"><title>Node104</title>
<g id="a_node18"><a xlink:href="classobe_1_1_world_1_1_world.html#a5bd621e3fd9293d949ad0c669cee6838" target="_top" xlink:title="obe::World::World::\lWorld">
<polygon fill="white" stroke="black" points="829.5,-144.5 829.5,-174.5 930.5,-174.5 930.5,-144.5 829.5,-144.5"/>
<text text-anchor="start" x="837.5" y="-162.5" font-family="Helvetica,sans-Serif" font-size="10.00">obe::World::World::</text>
<text text-anchor="middle" x="880" y="-151.5" font-family="Helvetica,sans-Serif" font-size="10.00">World</text>
</a>
</g>
</g>
<!-- Node98&#45;&gt;Node104 -->
<g id="edge23" class="edge"><title>Node98&#45;&gt;Node104</title>
<path fill="none" stroke="midnightblue" d="M586.042,-111.365C654.619,-122.633 765.558,-140.861 829.426,-151.355"/>
<polygon fill="midnightblue" stroke="midnightblue" points="586.263,-107.855 575.828,-109.687 585.128,-114.762 586.263,-107.855"/>
</g>
<!-- Node105 -->
<g id="node19" class="node"><title>Node105</title>
<g id="a_node19"><a xlink:href="namespaceobe_1_1_world.html#afc958184e59524fdf9dc6ba98a1e9a37" target="_top" xlink:title="obe::World::loadWorldScript\lEngineBaseLib">
<polygon fill="white" stroke="black" points="631,-158.5 631,-188.5 770,-188.5 770,-158.5 631,-158.5"/>
<text text-anchor="start" x="639" y="-176.5" font-family="Helvetica,sans-Serif" font-size="10.00">obe::World::loadWorldScript</text>
<text text-anchor="middle" x="700.5" y="-165.5" font-family="Helvetica,sans-Serif" font-size="10.00">EngineBaseLib</text>
</a>
</g>
</g>
<!-- Node98&#45;&gt;Node105 -->
<g id="edge24" class="edge"><title>Node98&#45;&gt;Node105</title>
<path fill="none" stroke="midnightblue" d="M558.536,-115.002C588.257,-127.336 632.147,-145.549 663.039,-158.369"/>
<polygon fill="midnightblue" stroke="midnightblue" points="559.617,-111.661 549.039,-111.061 556.934,-118.127 559.617,-111.661"/>
</g>
<!-- Node100 -->
<g id="node14" class="node"><title>Node100</title>
<g id="a_node14"><a xlink:href="namespaceobe_1_1_script.html#a5dc8321da50fd4b5dc2935e4d8c93a4e" target="_top" xlink:title="obe::Script::loadScrGame\lObject">
<polygon fill="white" stroke="black" points="815.5,-0.5 815.5,-30.5 944.5,-30.5 944.5,-0.5 815.5,-0.5"/>
<text text-anchor="start" x="823.5" y="-18.5" font-family="Helvetica,sans-Serif" font-size="10.00">obe::Script::loadScrGame</text>
<text text-anchor="middle" x="880" y="-7.5" font-family="Helvetica,sans-Serif" font-size="10.00">Object</text>
</a>
</g>
</g>
<!-- Node99&#45;&gt;Node100 -->
<g id="edge16" class="edge"><title>Node99&#45;&gt;Node100</title>
<path fill="none" stroke="midnightblue" d="M774.737,-15.5C788.171,-15.5 802.096,-15.5 815.226,-15.5"/>
<polygon fill="midnightblue" stroke="midnightblue" points="774.58,-12.0001 764.58,-15.5 774.58,-19.0001 774.58,-12.0001"/>
</g>
<!-- Node101 -->
<g id="node15" class="node"><title>Node101</title>
<g id="a_node15"><a xlink:href="classobe_1_1_script_1_1_game_object.html#aa0d58bd1ef0fa2fe9f7567729b2d291e" target="_top" xlink:title="obe::Script::GameObject\l::loadGameObject">
<polygon fill="white" stroke="black" points="994,-0.5 994,-30.5 1119,-30.5 1119,-0.5 994,-0.5"/>
<text text-anchor="start" x="1002" y="-18.5" font-family="Helvetica,sans-Serif" font-size="10.00">obe::Script::GameObject</text>
<text text-anchor="middle" x="1056.5" y="-7.5" font-family="Helvetica,sans-Serif" font-size="10.00">::loadGameObject</text>
</a>
</g>
</g>
<!-- Node100&#45;&gt;Node101 -->
<g id="edge17" class="edge"><title>Node100&#45;&gt;Node101</title>
<path fill="none" stroke="midnightblue" d="M955.209,-15.5C968.086,-15.5 981.351,-15.5 993.847,-15.5"/>
<polygon fill="midnightblue" stroke="midnightblue" points="954.987,-12.0001 944.986,-15.5 954.986,-19.0001 954.987,-12.0001"/>
</g>
<!-- Node102&#45;&gt;Node103 -->
<g id="edge19" class="edge"><title>Node102&#45;&gt;Node103</title>
<path fill="none" stroke="midnightblue" d="M750.898,-65.4667C778.935,-72.2589 813.543,-80.6429 839.717,-86.9836"/>
<polygon fill="midnightblue" stroke="midnightblue" points="751.436,-61.996 740.893,-63.0431 749.788,-68.7992 751.436,-61.996"/>
</g>
<!-- Node103&#45;&gt;Node92 -->
<g id="edge20" class="edge"><title>Node103&#45;&gt;Node92</title>
<path fill="none" stroke="midnightblue" d="M911.705,-110.225C946.869,-125.943 1003.56,-151.283 1034.2,-164.98"/>
<polygon fill="midnightblue" stroke="midnightblue" points="912.955,-106.95 902.397,-106.064 910.098,-113.34 912.955,-106.95"/>
</g>
<!-- Node103&#45;&gt;Node93 -->
<g id="edge21" class="edge"><title>Node103&#45;&gt;Node93</title>
<path fill="none" stroke="midnightblue" d="M958.555,-107.79C1007.28,-116.709 1070.6,-131.709 1123,-155.5 1139.07,-162.798 1155.35,-175.067 1165.77,-183.685"/>
<polygon fill="midnightblue" stroke="midnightblue" points="959.16,-104.343 948.701,-106.032 957.931,-111.234 959.16,-104.343"/>
</g>
<!-- Node105&#45;&gt;Node104 -->
<g id="edge25" class="edge"><title>Node105&#45;&gt;Node104</title>
<path fill="none" stroke="midnightblue" d="M780.39,-167.278C797.005,-165.967 814.087,-164.62 829.267,-163.423"/>
<polygon fill="midnightblue" stroke="midnightblue" points="779.82,-163.812 770.126,-168.087 780.37,-170.79 779.82,-163.812"/>
</g>
</g>
</svg>
        <g id="navigator" transform="translate(0 0)" fill="#404254">
                <rect fill="#f2f5e9" fill-opacity="0.5" stroke="#606060" stroke-width=".5" x="0" y="0" width="60" height="60"/>
                <use id="zoomplus" xlink:href="#zoomPlus" x="17" y="9" onmousedown="handleZoom(evt,'in')"/>
                <use id="zoomminus" xlink:href="#zoomMin" x="42" y="9" onmousedown="handleZoom(evt,'out')"/>
                <use id="reset" xlink:href="#resetDef" x="30" y="36" onmousedown="handleReset()"/>
                <g id="arrowUp" xlink:href="#dirArrow" transform="translate(30 24)" onmousedown="handlePan(0,-1)">
                  <use xlink:href="#rim" fill="#404040">
                        <set attributeName="fill" to="#808080" begin="arrowUp.mouseover" end="arrowUp.mouseout"/>
                  </use>
                  <path fill="none" stroke="white" stroke-width="1.5" d="M0,-3.0v7 M-2.5,-0.5L0,-3.0L2.5,-0.5"/>
                </g>
                <g id="arrowRight" xlink:href="#dirArrow" transform="rotate(90) translate(36 -43)" onmousedown="handlePan(1,0)">
                  <use xlink:href="#rim" fill="#404040">
                        <set attributeName="fill" to="#808080" begin="arrowRight.mouseover" end="arrowRight.mouseout"/>
                  </use>
                  <path fill="none" stroke="white" stroke-width="1.5" d="M0,-3.0v7 M-2.5,-0.5L0,-3.0L2.5,-0.5"/>
                </g>
                <g id="arrowDown" xlink:href="#dirArrow" transform="rotate(180) translate(-30 -48)" onmousedown="handlePan(0,1)">
                  <use xlink:href="#rim" fill="#404040">
                        <set attributeName="fill" to="#808080" begin="arrowDown.mouseover" end="arrowDown.mouseout"/>
                  </use>
                  <path fill="none" stroke="white" stroke-width="1.5" d="M0,-3.0v7 M-2.5,-0.5L0,-3.0L2.5,-0.5"/>
                </g>
                <g id="arrowLeft" xlink:href="#dirArrow" transform="rotate(270) translate(-36 17)" onmousedown="handlePan(-1,0)">
                  <use xlink:href="#rim" fill="#404040">
                        <set attributeName="fill" to="#808080" begin="arrowLeft.mouseover" end="arrowLeft.mouseout"/>
                  </use>
                  <path fill="none" stroke="white" stroke-width="1.5" d="M0,-3.0v7 M-2.5,-0.5L0,-3.0L2.5,-0.5"/>
                </g>
        </g>
        <svg viewBox="0 0 15 15" width="100%" height="30px" preserveAspectRatio="xMaxYMin meet">
         <g id="arrow_out" transform="scale(0.3 0.3)">
          <a xlink:href="namespaceobe_1_1_functions_1_1_file_a5e850093b89dad14d6040f188c2f600c_icgraph_org.svg" target="_base">
           <rect id="button" ry="5" rx="5" y="6" x="6" height="38" width="38"
                fill="#f2f5e9" fill-opacity="0.5" stroke="#606060" stroke-width="1.0"/>
           <path id="arrow"
             d="M 11.500037,31.436501 C 11.940474,20.09759 22.043105,11.32322 32.158766,21.979434 L 37.068811,17.246167 C 37.068811,17.246167 37.088388,32 37.088388,32 L 22.160133,31.978069 C 22.160133,31.978069 26.997745,27.140456 26.997745,27.140456 C 18.528582,18.264221 13.291696,25.230495 11.500037,31.436501 z"
             style="fill:#404040;"/>
          </a>
         </g>
        </svg>
</svg>
