<?xml version="1.0" encoding="UTF-8" standalone="no"?>
<!DOCTYPE svg PUBLIC "-//W3C//DTD SVG 1.1//EN"
 "http://www.w3.org/Graphics/SVG/1.1/DTD/svg11.dtd">
<!-- Generated by graphviz version 2.38.0 (20140413.2041)
 -->
<!-- Title: obe::Script::CoreLib::loadConstants Pages: 1 -->
<!--zoomable 652 -->
<svg id="main" version="1.1" xmlns="http://www.w3.org/2000/svg" xmlns:xlink="http://www.w3.org/1999/xlink" xml:space="preserve" onload="init(evt)">
<style type="text/css"><![CDATA[
.edge:hover path { stroke: red; }
.edge:hover polygon { stroke: red; fill: red; }
.edge path { stroke: white; }
.edge polygon { stroke: white; fill: white; }
]]></style>
<script type="text/javascript"><![CDATA[
var edges = document.getElementsByTagName('g');
if (edges && edges.length) {
  for (var i=0;i<edges.length;i++) {
    if (edges[i].id.substr(0,4)=='edge') {
      edges[i].setAttribute('class','edge');
    }
  }
}
]]></script>
        <defs>
                <circle id="rim" cx="0" cy="0" r="7"/>
                <circle id="rim2" cx="0" cy="0" r="3.5"/>
                <g id="zoomPlus">
                        <use xlink:href="#rim" fill="#404040">
                                <set attributeName="fill" to="#808080" begin="zoomplus.mouseover" end="zoomplus.mouseout"/>
                        </use>
                        <path d="M-4,0h8M0,-4v8" fill="none" stroke="white" stroke-width="1.5" pointer-events="none"/>
                </g>
                <g id="zoomMin">
                        <use xlink:href="#rim" fill="#404040">
                                <set attributeName="fill" to="#808080" begin="zoomminus.mouseover" end="zoomminus.mouseout"/>
                        </use>
                        <path d="M-4,0h8" fill="none" stroke="white" stroke-width="1.5" pointer-events="none"/>
                </g>
                <g id="dirArrow">
                        <path fill="none" stroke="white" stroke-width="1.5" d="M0,-3.0v7 M-2.5,-0.5L0,-3.0L2.5,-0.5"/>
                </g>
               <g id="resetDef">
                       <use xlink:href="#rim2" fill="#404040">
                               <set attributeName="fill" to="#808080" begin="reset.mouseover" end="reset.mouseout"/>
                       </use>
               </g>
        </defs>

<script type="text/javascript">
var viewWidth = 793;
var viewHeight = 652;
var sectionId = 'dynsection-10';
</script>
<script xlink:href="svgpan.js"/>
<svg id="graph" class="graph">
<g id="viewport">
<title>obe::Script::CoreLib::loadConstants</title>
<!-- Node351 -->
<g id="node1" class="node"><title>Node351</title>
<polygon fill="#bfbfbf" stroke="black" points="0,-354.5 0,-384.5 103,-384.5 103,-354.5 0,-354.5"/>
<text text-anchor="start" x="8" y="-372.5" font-family="Helvetica,sans-Serif" font-size="10.00">obe::Script::CoreLib</text>
<text text-anchor="middle" x="51.5" y="-361.5" font-family="Helvetica,sans-Serif" font-size="10.00">::loadConstants</text>
</g>
<!-- Node352 -->
<g id="node2" class="node"><title>Node352</title>
<g id="a_node2"><a xlink:href="namespaceobe_1_1_script.html#a9582bae7b61bf604c2a68a8a016356ec" target="_top" xlink:title="obe::Script::registerLib">
<polygon fill="none" stroke="black" points="139.5,-404 139.5,-423 254.5,-423 254.5,-404 139.5,-404"/>
<text text-anchor="middle" x="197" y="-411" font-family="Helvetica,sans-Serif" font-size="10.00">obe::Script::registerLib</text>
</a>
</g>
</g>
<!-- Node351&#45;&gt;Node352 -->
<g id="edge1" class="edge"><title>Node351&#45;&gt;Node352</title>
<path fill="none" stroke="midnightblue" d="M101.483,-384.519C118.831,-389.838 138.159,-395.765 154.794,-400.865"/>
<polygon fill="midnightblue" stroke="midnightblue" points="154.175,-404.336 164.762,-403.922 156.227,-397.644 154.175,-404.336"/>
</g>
<!-- Node353 -->
<g id="node3" class="node"><title>Node353</title>
<g id="a_node3"><a xlink:href="namespaceobe_1_1_functions_1_1_vector.html#a8e4dd3fc91a0035dfdbe5092a4e5e7b4" target="_top" xlink:title="obe::Functions::Vector\l::join">
<polygon fill="none" stroke="black" points="139,-354.5 139,-384.5 255,-384.5 255,-354.5 139,-354.5"/>
<text text-anchor="start" x="147" y="-372.5" font-family="Helvetica,sans-Serif" font-size="10.00">obe::Functions::Vector</text>
<text text-anchor="middle" x="197" y="-361.5" font-family="Helvetica,sans-Serif" font-size="10.00">::join</text>
</a>
</g>
</g>
<!-- Node351&#45;&gt;Node353 -->
<g id="edge2" class="edge"><title>Node351&#45;&gt;Node353</title>
<path fill="none" stroke="midnightblue" d="M103.093,-369.5C111.239,-369.5 119.785,-369.5 128.256,-369.5"/>
<polygon fill="midnightblue" stroke="midnightblue" points="128.52,-373 138.52,-369.5 128.52,-366 128.52,-373"/>
</g>
<!-- Node374 -->
<g id="node24" class="node"><title>Node374</title>
<g id="a_node24"><a xlink:href="classaube_1_1_error_handler.html#a7c8d44a3e7f019646d289950abc5301b" target="_top" xlink:title="aube::ErrorHandler\l::Raise">
<polygon fill="none" stroke="black" points="148,-98.5 148,-128.5 246,-128.5 246,-98.5 148,-98.5"/>
<text text-anchor="start" x="156" y="-116.5" font-family="Helvetica,sans-Serif" font-size="10.00">aube::ErrorHandler</text>
<text text-anchor="middle" x="197" y="-105.5" font-family="Helvetica,sans-Serif" font-size="10.00">::Raise</text>
</a>
</g>
</g>
<!-- Node351&#45;&gt;Node374 -->
<g id="edge35" class="edge"><title>Node351&#45;&gt;Node374</title>
<path fill="none" stroke="midnightblue" d="M61.0468,-354.253C85.0742,-311.389 153.362,-189.566 182.527,-137.536"/>
<polygon fill="midnightblue" stroke="midnightblue" points="185.661,-139.102 187.498,-128.667 179.555,-135.679 185.661,-139.102"/>
</g>
<!-- Node354 -->
<g id="node4" class="node"><title>Node354</title>
<g id="a_node4"><a xlink:href="namespaceelz.html#ab6aa3d8a6c1250ba161b00d1695e4888" target="_top" xlink:title="elz::extractZip">
<polygon fill="none" stroke="black" points="310,-398 310,-417 388,-417 388,-398 310,-398"/>
<text text-anchor="middle" x="349" y="-405" font-family="Helvetica,sans-Serif" font-size="10.00">elz::extractZip</text>
</a>
</g>
</g>
<!-- Node353&#45;&gt;Node354 -->
<g id="edge3" class="edge"><title>Node353&#45;&gt;Node354</title>
<path fill="none" stroke="midnightblue" d="M255.136,-383.975C269.927,-387.721 285.701,-391.718 299.972,-395.333"/>
<polygon fill="midnightblue" stroke="midnightblue" points="299.509,-398.826 310.062,-397.889 301.228,-392.04 299.509,-398.826"/>
</g>
<!-- Node355 -->
<g id="node5" class="node"><title>Node355</title>
<g id="a_node5"><a xlink:href="classziputils_1_1unzipper.html#a28986b626865a75ec75a77a0ba311e34" target="_top" xlink:title="ziputils::unzipper\l::open">
<polygon fill="none" stroke="black" points="443,-288.5 443,-318.5 533,-318.5 533,-288.5 443,-288.5"/>
<text text-anchor="start" x="451" y="-306.5" font-family="Helvetica,sans-Serif" font-size="10.00">ziputils::unzipper</text>
<text text-anchor="middle" x="488" y="-295.5" font-family="Helvetica,sans-Serif" font-size="10.00">::open</text>
</a>
</g>
</g>
<!-- Node353&#45;&gt;Node355 -->
<g id="edge16" class="edge"><title>Node353&#45;&gt;Node355</title>
<path fill="none" stroke="midnightblue" d="M216.216,-354.435C234.039,-340.687 262.578,-321.226 291,-312.5 337.282,-298.291 392.587,-297.085 432.631,-298.824"/>
<polygon fill="midnightblue" stroke="midnightblue" points="432.56,-302.325 442.725,-299.338 432.916,-295.334 432.56,-302.325"/>
</g>
<!-- Node359 -->
<g id="node9" class="node"><title>Node359</title>
<g id="a_node9"><a xlink:href="classziputils_1_1unzipper.html#a32af229bfd511fe4b7a267b2dc94605c" target="_top" xlink:title="ziputils::unzipper\l::getFilenames">
<polygon fill="none" stroke="black" points="443,-459.5 443,-489.5 533,-489.5 533,-459.5 443,-459.5"/>
<text text-anchor="start" x="451" y="-477.5" font-family="Helvetica,sans-Serif" font-size="10.00">ziputils::unzipper</text>
<text text-anchor="middle" x="488" y="-466.5" font-family="Helvetica,sans-Serif" font-size="10.00">::getFilenames</text>
</a>
</g>
</g>
<!-- Node353&#45;&gt;Node359 -->
<g id="edge17" class="edge"><title>Node353&#45;&gt;Node359</title>
<path fill="none" stroke="midnightblue" d="M239.787,-384.506C245.193,-387.379 250.43,-390.7 255,-394.5 276.894,-412.708 266.806,-432.482 291,-447.5 333.374,-473.802 390.731,-478.954 432.444,-478.487"/>
<polygon fill="midnightblue" stroke="midnightblue" points="432.775,-481.98 442.694,-478.256 432.617,-474.982 432.775,-481.98"/>
</g>
<!-- Node360 -->
<g id="node10" class="node"><title>Node360</title>
<g id="a_node10"><a xlink:href="classziputils_1_1unzipper.html#a1087113e5ba7ec8c88597d4d3acae023" target="_top" xlink:title="ziputils::unzipper\l::openEntry">
<polygon fill="none" stroke="black" points="443,-354.5 443,-384.5 533,-384.5 533,-354.5 443,-354.5"/>
<text text-anchor="start" x="451" y="-372.5" font-family="Helvetica,sans-Serif" font-size="10.00">ziputils::unzipper</text>
<text text-anchor="middle" x="488" y="-361.5" font-family="Helvetica,sans-Serif" font-size="10.00">::openEntry</text>
</a>
</g>
</g>
<!-- Node353&#45;&gt;Node360 -->
<g id="edge29" class="edge"><title>Node353&#45;&gt;Node360</title>
<path fill="none" stroke="midnightblue" d="M255.097,-369.5C306.652,-369.5 381.985,-369.5 432.667,-369.5"/>
<polygon fill="midnightblue" stroke="midnightblue" points="432.775,-373 442.775,-369.5 432.775,-366 432.775,-373"/>
</g>
<!-- Node361 -->
<g id="node11" class="node"><title>Node361</title>
<g id="a_node11"><a xlink:href="classziputils_1_1unzipper.html#a9c5e92214152f38152f29dc7e73a9a8d" target="_top" xlink:title="ziputils::unzipper\l::dump">
<polygon fill="none" stroke="black" points="443,-408.5 443,-438.5 533,-438.5 533,-408.5 443,-408.5"/>
<text text-anchor="start" x="451" y="-426.5" font-family="Helvetica,sans-Serif" font-size="10.00">ziputils::unzipper</text>
<text text-anchor="middle" x="488" y="-415.5" font-family="Helvetica,sans-Serif" font-size="10.00">::dump</text>
</a>
</g>
</g>
<!-- Node353&#45;&gt;Node361 -->
<g id="edge30" class="edge"><title>Node353&#45;&gt;Node361</title>
<path fill="none" stroke="midnightblue" d="M236.872,-384.583C243.108,-387.554 249.36,-390.885 255,-394.5 273.023,-406.052 270.99,-418.892 291,-426.5 336.6,-443.837 392.59,-440.817 433.034,-434.802"/>
<polygon fill="midnightblue" stroke="midnightblue" points="433.642,-438.25 442.966,-433.219 432.54,-431.337 433.642,-438.25"/>
</g>
<!-- Node364 -->
<g id="node14" class="node"><title>Node364</title>
<g id="a_node14"><a xlink:href="elzip__fallback_8cpp.html#a9f2ce856ffec652145a26842617b63e1" target="_top" xlink:title="split">
<polygon fill="none" stroke="black" points="331.5,-246 331.5,-265 366.5,-265 366.5,-246 331.5,-246"/>
<text text-anchor="middle" x="349" y="-253" font-family="Helvetica,sans-Serif" font-size="10.00">split</text>
</a>
</g>
</g>
<!-- Node353&#45;&gt;Node364 -->
<g id="edge18" class="edge"><title>Node353&#45;&gt;Node364</title>
<path fill="none" stroke="midnightblue" d="M210.472,-354.346C227.139,-334.882 258.379,-301.048 291,-279.5 300.474,-273.242 311.848,-268.058 321.934,-264.13"/>
<polygon fill="midnightblue" stroke="midnightblue" points="323.294,-267.359 331.474,-260.627 320.881,-260.788 323.294,-267.359"/>
</g>
<!-- Node365 -->
<g id="node15" class="node"><title>Node365</title>
<g id="a_node15"><a xlink:href="namespaceobe_1_1_functions_1_1_vector.html#a8adc81831e6ac5c91887cf1c1089561a" target="_top" xlink:title="obe::Functions::Vector\l::isInList">
<polygon fill="none" stroke="black" points="291,-196.5 291,-226.5 407,-226.5 407,-196.5 291,-196.5"/>
<text text-anchor="start" x="299" y="-214.5" font-family="Helvetica,sans-Serif" font-size="10.00">obe::Functions::Vector</text>
<text text-anchor="middle" x="349" y="-203.5" font-family="Helvetica,sans-Serif" font-size="10.00">::isInList</text>
</a>
</g>
</g>
<!-- Node353&#45;&gt;Node365 -->
<g id="edge19" class="edge"><title>Node353&#45;&gt;Node365</title>
<path fill="none" stroke="midnightblue" d="M205.104,-354.307C218.43,-327.267 249.609,-270.45 291,-236.5 293.01,-234.851 295.146,-233.291 297.367,-231.818"/>
<polygon fill="midnightblue" stroke="midnightblue" points="299.432,-234.664 306.261,-226.563 295.871,-228.637 299.432,-234.664"/>
</g>
<!-- Node366 -->
<g id="node16" class="node"><title>Node366</title>
<g id="a_node16"><a xlink:href="elzip__fallback_8cpp.html#abc86401689ab2e181f6e12a0855f163f" target="_top" xlink:title="listDirInDir">
<polygon fill="none" stroke="black" points="318.5,-550 318.5,-569 379.5,-569 379.5,-550 318.5,-550"/>
<text text-anchor="middle" x="349" y="-557" font-family="Helvetica,sans-Serif" font-size="10.00">listDirInDir</text>
</a>
</g>
</g>
<!-- Node353&#45;&gt;Node366 -->
<g id="edge20" class="edge"><title>Node353&#45;&gt;Node366</title>
<path fill="none" stroke="midnightblue" d="M243.402,-384.512C247.739,-387.313 251.73,-390.614 255,-394.5 298.035,-445.633 245.67,-491.39 291,-540.5 295.801,-545.701 302.062,-549.48 308.671,-552.225"/>
<polygon fill="midnightblue" stroke="midnightblue" points="307.881,-555.653 318.475,-555.553 310.13,-549.024 307.881,-555.653"/>
</g>
<!-- Node372 -->
<g id="node22" class="node"><title>Node372</title>
<g id="a_node22"><a xlink:href="elzip__fallback_8cpp.html#a08c99acf1e5bfb4797cc9563ab23eb48" target="_top" xlink:title="createDir">
<polygon fill="none" stroke="black" points="321,-512 321,-531 377,-531 377,-512 321,-512"/>
<text text-anchor="middle" x="349" y="-519" font-family="Helvetica,sans-Serif" font-size="10.00">createDir</text>
</a>
</g>
</g>
<!-- Node353&#45;&gt;Node372 -->
<g id="edge28" class="edge"><title>Node353&#45;&gt;Node372</title>
<path fill="none" stroke="midnightblue" d="M242.761,-384.655C247.27,-387.436 251.476,-390.694 255,-394.5 287.943,-430.086 257.794,-462.159 291,-497.5 296.583,-503.442 303.869,-507.971 311.357,-511.402"/>
<polygon fill="midnightblue" stroke="midnightblue" points="310.251,-514.729 320.836,-515.184 312.846,-508.227 310.251,-514.729"/>
</g>
<!-- Node373 -->
<g id="node23" class="node"><title>Node373</title>
<g id="a_node23"><a xlink:href="namespaceelz.html#a2f9a470fe7cfc780818ac0264d1176ec" target="_top" xlink:title="elz::extractFile">
<polygon fill="none" stroke="black" points="308.5,-322 308.5,-341 389.5,-341 389.5,-322 308.5,-322"/>
<text text-anchor="middle" x="349" y="-329" font-family="Helvetica,sans-Serif" font-size="10.00">elz::extractFile</text>
</a>
</g>
</g>
<!-- Node353&#45;&gt;Node373 -->
<g id="edge31" class="edge"><title>Node353&#45;&gt;Node373</title>
<path fill="none" stroke="midnightblue" d="M255.136,-355.025C269.927,-351.279 285.701,-347.282 299.972,-343.667"/>
<polygon fill="midnightblue" stroke="midnightblue" points="301.228,-346.96 310.062,-341.111 299.509,-340.174 301.228,-346.96"/>
</g>
<!-- Node354&#45;&gt;Node355 -->
<g id="edge4" class="edge"><title>Node354&#45;&gt;Node355</title>
<path fill="none" stroke="midnightblue" d="M362.643,-397.902C384.347,-381.426 429.201,-347.376 458.687,-324.993"/>
<polygon fill="midnightblue" stroke="midnightblue" points="461.084,-327.568 466.932,-318.734 456.851,-321.993 461.084,-327.568"/>
</g>
<!-- Node354&#45;&gt;Node359 -->
<g id="edge8" class="edge"><title>Node354&#45;&gt;Node359</title>
<path fill="none" stroke="midnightblue" d="M369.629,-417.099C389.793,-426.961 421.745,-442.587 447.224,-455.047"/>
<polygon fill="midnightblue" stroke="midnightblue" points="445.763,-458.229 456.284,-459.478 448.838,-451.941 445.763,-458.229"/>
</g>
<!-- Node354&#45;&gt;Node360 -->
<g id="edge9" class="edge"><title>Node354&#45;&gt;Node360</title>
<path fill="none" stroke="midnightblue" d="M384.571,-397.911C399.209,-393.851 416.614,-389.023 432.884,-384.51"/>
<polygon fill="midnightblue" stroke="midnightblue" points="434.133,-387.796 442.833,-381.751 432.262,-381.051 434.133,-387.796"/>
</g>
<!-- Node354&#45;&gt;Node361 -->
<g id="edge12" class="edge"><title>Node354&#45;&gt;Node361</title>
<path fill="none" stroke="midnightblue" d="M388.162,-411.957C401.929,-413.565 417.744,-415.412 432.628,-417.15"/>
<polygon fill="midnightblue" stroke="midnightblue" points="432.409,-420.648 442.748,-418.332 433.221,-413.695 432.409,-420.648"/>
</g>
<!-- Node356 -->
<g id="node6" class="node"><title>Node356</title>
<g id="a_node6"><a xlink:href="classziputils_1_1unzipper.html#a56435155ae2a240e55610ecfe8d080a0" target="_top" xlink:title="ziputils::unzipper\l::close">
<polygon fill="none" stroke="black" points="569,-244.5 569,-274.5 659,-274.5 659,-244.5 569,-244.5"/>
<text text-anchor="start" x="577" y="-262.5" font-family="Helvetica,sans-Serif" font-size="10.00">ziputils::unzipper</text>
<text text-anchor="middle" x="614" y="-251.5" font-family="Helvetica,sans-Serif" font-size="10.00">::close</text>
</a>
</g>
</g>
<!-- Node355&#45;&gt;Node356 -->
<g id="edge5" class="edge"><title>Node355&#45;&gt;Node356</title>
<path fill="none" stroke="midnightblue" d="M531.327,-288.481C540.799,-285.12 550.953,-281.517 560.773,-278.032"/>
<polygon fill="midnightblue" stroke="midnightblue" points="562.189,-281.244 570.443,-274.601 559.848,-274.647 562.189,-281.244"/>
</g>
<!-- Node358 -->
<g id="node8" class="node"><title>Node358</title>
<g id="a_node8"><a xlink:href="classziputils_1_1unzipper.html#a87ee4f96daafa5d9fa055d6791954a44" target="_top" xlink:title="ziputils::unzipper\l::isOpen">
<polygon fill="none" stroke="black" points="695,-364.5 695,-394.5 785,-394.5 785,-364.5 695,-364.5"/>
<text text-anchor="start" x="703" y="-382.5" font-family="Helvetica,sans-Serif" font-size="10.00">ziputils::unzipper</text>
<text text-anchor="middle" x="740" y="-371.5" font-family="Helvetica,sans-Serif" font-size="10.00">::isOpen</text>
</a>
</g>
</g>
<!-- Node355&#45;&gt;Node358 -->
<g id="edge7" class="edge"><title>Node355&#45;&gt;Node358</title>
<path fill="none" stroke="midnightblue" d="M533.12,-316.912C575.562,-329.815 639.807,-349.345 685.224,-363.152"/>
<polygon fill="midnightblue" stroke="midnightblue" points="684.316,-366.534 694.902,-366.094 686.352,-359.837 684.316,-366.534"/>
</g>
<!-- Node357 -->
<g id="node7" class="node"><title>Node357</title>
<g id="a_node7"><a xlink:href="classziputils_1_1unzipper.html#a2be7f7ee69a951bc2c05d346b11e7082" target="_top" xlink:title="ziputils::unzipper\l::closeEntry">
<polygon fill="none" stroke="black" points="695,-280.5 695,-310.5 785,-310.5 785,-280.5 695,-280.5"/>
<text text-anchor="start" x="703" y="-298.5" font-family="Helvetica,sans-Serif" font-size="10.00">ziputils::unzipper</text>
<text text-anchor="middle" x="740" y="-287.5" font-family="Helvetica,sans-Serif" font-size="10.00">::closeEntry</text>
</a>
</g>
</g>
<!-- Node356&#45;&gt;Node357 -->
<g id="edge6" class="edge"><title>Node356&#45;&gt;Node357</title>
<path fill="none" stroke="midnightblue" d="M659.067,-272.294C667.463,-274.731 676.339,-277.308 685.002,-279.823"/>
<polygon fill="midnightblue" stroke="midnightblue" points="684.078,-283.199 694.657,-282.626 686.03,-276.477 684.078,-283.199"/>
</g>
<!-- Node360&#45;&gt;Node357 -->
<g id="edge11" class="edge"><title>Node360&#45;&gt;Node357</title>
<path fill="none" stroke="midnightblue" d="M533.12,-356.441C575.562,-343.878 639.807,-324.861 685.224,-311.418"/>
<polygon fill="midnightblue" stroke="midnightblue" points="686.306,-314.747 694.902,-308.553 684.32,-308.035 686.306,-314.747"/>
</g>
<!-- Node360&#45;&gt;Node358 -->
<g id="edge10" class="edge"><title>Node360&#45;&gt;Node358</title>
<path fill="none" stroke="midnightblue" d="M533.12,-371.265C575.384,-372.955 639.269,-375.511 684.652,-377.326"/>
<polygon fill="midnightblue" stroke="midnightblue" points="684.77,-380.834 694.902,-377.736 685.05,-373.839 684.77,-380.834"/>
</g>
<!-- Node362 -->
<g id="node12" class="node"><title>Node362</title>
<g id="a_node12"><a xlink:href="classziputils_1_1unzipper.html#a604cf8fe5b0722a9dd788e1456911271" target="_top" xlink:title="ziputils::unzipper\l::isOpenEntry">
<polygon fill="none" stroke="black" points="569,-408.5 569,-438.5 659,-438.5 659,-408.5 569,-408.5"/>
<text text-anchor="start" x="577" y="-426.5" font-family="Helvetica,sans-Serif" font-size="10.00">ziputils::unzipper</text>
<text text-anchor="middle" x="614" y="-415.5" font-family="Helvetica,sans-Serif" font-size="10.00">::isOpenEntry</text>
</a>
</g>
</g>
<!-- Node361&#45;&gt;Node362 -->
<g id="edge13" class="edge"><title>Node361&#45;&gt;Node362</title>
<path fill="none" stroke="midnightblue" d="M533.067,-423.5C541.282,-423.5 549.957,-423.5 558.443,-423.5"/>
<polygon fill="midnightblue" stroke="midnightblue" points="558.657,-427 568.657,-423.5 558.657,-420 558.657,-427"/>
</g>
<!-- Node363 -->
<g id="node13" class="node"><title>Node363</title>
<g id="a_node13"><a xlink:href="classziputils_1_1unzipper.html#ae713ea29f2dab127c6df27a7554aeb91" target="_top" xlink:title="ziputils::unzipper\l::getEntrySize">
<polygon fill="none" stroke="black" points="569,-457.5 569,-487.5 659,-487.5 659,-457.5 569,-457.5"/>
<text text-anchor="start" x="577" y="-475.5" font-family="Helvetica,sans-Serif" font-size="10.00">ziputils::unzipper</text>
<text text-anchor="middle" x="614" y="-464.5" font-family="Helvetica,sans-Serif" font-size="10.00">::getEntrySize</text>
</a>
</g>
</g>
<!-- Node361&#45;&gt;Node363 -->
<g id="edge14" class="edge"><title>Node361&#45;&gt;Node363</title>
<path fill="none" stroke="midnightblue" d="M527.216,-438.601C539.238,-443.352 552.665,-448.658 565.263,-453.636"/>
<polygon fill="midnightblue" stroke="midnightblue" points="564.11,-456.944 574.697,-457.364 566.683,-450.434 564.11,-456.944"/>
</g>
<!-- Node363&#45;&gt;Node358 -->
<g id="edge15" class="edge"><title>Node363&#45;&gt;Node358</title>
<path fill="none" stroke="midnightblue" d="M643.416,-457.397C648.706,-454.295 654.105,-450.925 659,-447.5 679.094,-433.438 700.165,-415.374 715.634,-401.399"/>
<polygon fill="midnightblue" stroke="midnightblue" points="718.157,-403.835 723.179,-394.506 713.435,-398.667 718.157,-403.835"/>
</g>
<!-- Node367 -->
<g id="node17" class="node"><title>Node367</title>
<g id="a_node17"><a xlink:href="include_2elzip_2tinydir_8h.html#a344f085761e41431e24c8c998805ba3f" target="_top" xlink:title="tinydir_open">
<polygon fill="none" stroke="black" points="453.5,-586 453.5,-605 522.5,-605 522.5,-586 453.5,-586"/>
<text text-anchor="middle" x="488" y="-593" font-family="Helvetica,sans-Serif" font-size="10.00">tinydir_open</text>
</a>
</g>
</g>
<!-- Node366&#45;&gt;Node367 -->
<g id="edge21" class="edge"><title>Node366&#45;&gt;Node367</title>
<path fill="none" stroke="midnightblue" d="M379.727,-567.311C398.393,-572.216 422.786,-578.626 443.594,-584.094"/>
<polygon fill="midnightblue" stroke="midnightblue" points="442.919,-587.536 453.481,-586.692 444.698,-580.765 442.919,-587.536"/>
</g>
<!-- Node368 -->
<g id="node18" class="node"><title>Node368</title>
<g id="a_node18"><a xlink:href="include_2elzip_2tinydir_8h.html#a05c4a9ee5c32f36ed3e5c5c7d00ae714" target="_top" xlink:title="tinydir_close">
<polygon fill="none" stroke="black" points="578.5,-548 578.5,-567 649.5,-567 649.5,-548 578.5,-548"/>
<text text-anchor="middle" x="614" y="-555" font-family="Helvetica,sans-Serif" font-size="10.00">tinydir_close</text>
</a>
</g>
</g>
<!-- Node366&#45;&gt;Node368 -->
<g id="edge27" class="edge"><title>Node366&#45;&gt;Node368</title>
<path fill="none" stroke="midnightblue" d="M379.868,-550.979C397.966,-546.263 421.614,-540.884 443,-538.5 482.754,-534.067 493.272,-533.847 533,-538.5 545.406,-539.953 558.677,-542.632 570.773,-545.53"/>
<polygon fill="midnightblue" stroke="midnightblue" points="570.062,-548.96 580.612,-547.993 571.762,-542.17 570.062,-548.96"/>
</g>
<!-- Node369 -->
<g id="node19" class="node"><title>Node369</title>
<g id="a_node19"><a xlink:href="include_2elzip_2tinydir_8h.html#a61b7dcb5bf8b9d410f8d54e1d2f3e0d4" target="_top" xlink:title="tinydir_readfile">
<polygon fill="none" stroke="black" points="448.5,-624 448.5,-643 527.5,-643 527.5,-624 448.5,-624"/>
<text text-anchor="middle" x="488" y="-631" font-family="Helvetica,sans-Serif" font-size="10.00">tinydir_readfile</text>
</a>
</g>
</g>
<!-- Node366&#45;&gt;Node369 -->
<g id="edge23" class="edge"><title>Node366&#45;&gt;Node369</title>
<path fill="none" stroke="midnightblue" d="M364.813,-569.053C382.895,-580.527 414.581,-600.034 443,-614.5 446.569,-616.317 450.35,-618.122 454.139,-619.855"/>
<polygon fill="midnightblue" stroke="midnightblue" points="452.893,-623.131 463.454,-623.983 455.73,-616.732 452.893,-623.131"/>
</g>
<!-- Node371 -->
<g id="node21" class="node"><title>Node371</title>
<g id="a_node21"><a xlink:href="include_2elzip_2tinydir_8h.html#a699d0deef9ffde1d9fa75379d32714f9" target="_top" xlink:title="tinydir_next">
<polygon fill="none" stroke="black" points="454.5,-548 454.5,-567 521.5,-567 521.5,-548 454.5,-548"/>
<text text-anchor="middle" x="488" y="-555" font-family="Helvetica,sans-Serif" font-size="10.00">tinydir_next</text>
</a>
</g>
</g>
<!-- Node366&#45;&gt;Node371 -->
<g id="edge25" class="edge"><title>Node366&#45;&gt;Node371</title>
<path fill="none" stroke="midnightblue" d="M379.727,-559.066C398.577,-558.791 423.269,-558.43 444.21,-558.125"/>
<polygon fill="midnightblue" stroke="midnightblue" points="444.509,-561.621 454.457,-557.975 444.407,-554.622 444.509,-561.621"/>
</g>
<!-- Node367&#45;&gt;Node368 -->
<g id="edge22" class="edge"><title>Node367&#45;&gt;Node368</title>
<path fill="none" stroke="midnightblue" d="M520.29,-585.911C536.004,-581.096 555.238,-575.201 572.106,-570.032"/>
<polygon fill="midnightblue" stroke="midnightblue" points="573.184,-573.362 581.72,-567.086 571.133,-566.67 573.184,-573.362"/>
</g>
<!-- Node370 -->
<g id="node20" class="node"><title>Node370</title>
<g id="a_node20"><a xlink:href="include_2elzip_2tinydir_8h.html#af0bcd377e6e5712d292d22406b38a656" target="_top" xlink:title="_tinydir_get_ext">
<polygon fill="none" stroke="black" points="571,-624 571,-643 657,-643 657,-624 571,-624"/>
<text text-anchor="middle" x="614" y="-631" font-family="Helvetica,sans-Serif" font-size="10.00">_tinydir_get_ext</text>
</a>
</g>
</g>
<!-- Node369&#45;&gt;Node370 -->
<g id="edge24" class="edge"><title>Node369&#45;&gt;Node370</title>
<path fill="none" stroke="midnightblue" d="M527.555,-633.5C538.006,-633.5 549.499,-633.5 560.574,-633.5"/>
<polygon fill="midnightblue" stroke="midnightblue" points="560.586,-637 570.586,-633.5 560.586,-630 560.586,-637"/>
</g>
<!-- Node371&#45;&gt;Node368 -->
<g id="edge26" class="edge"><title>Node371&#45;&gt;Node368</title>
<path fill="none" stroke="midnightblue" d="M521.58,-557.5C535.805,-557.5 552.721,-557.5 568.111,-557.5"/>
<polygon fill="midnightblue" stroke="midnightblue" points="568.469,-561 578.469,-557.5 568.469,-554 568.469,-561"/>
</g>
<!-- Node373&#45;&gt;Node355 -->
<g id="edge32" class="edge"><title>Node373&#45;&gt;Node355</title>
<path fill="none" stroke="midnightblue" d="M389.626,-323.401C403.11,-320.645 418.421,-317.516 432.843,-314.569"/>
<polygon fill="midnightblue" stroke="midnightblue" points="433.556,-317.995 442.653,-312.564 432.155,-311.137 433.556,-317.995"/>
</g>
<!-- Node373&#45;&gt;Node360 -->
<g id="edge33" class="edge"><title>Node373&#45;&gt;Node360</title>
<path fill="none" stroke="midnightblue" d="M384.571,-341.089C399.209,-345.149 416.614,-349.977 432.884,-354.49"/>
<polygon fill="midnightblue" stroke="midnightblue" points="432.262,-357.949 442.833,-357.249 434.133,-351.204 432.262,-357.949"/>
</g>
<!-- Node373&#45;&gt;Node361 -->
<g id="edge34" class="edge"><title>Node373&#45;&gt;Node361</title>
<path fill="none" stroke="midnightblue" d="M364.402,-341.172C385.944,-355.638 427.083,-383.264 455.735,-402.505"/>
<polygon fill="midnightblue" stroke="midnightblue" points="453.938,-405.514 464.191,-408.183 457.84,-399.702 453.938,-405.514"/>
</g>
<!-- Node375 -->
<g id="node25" class="node"><title>Node375</title>
<g id="a_node25"><a xlink:href="classaube_1_1_error_message.html#a3a39b6fcd8fdb12eaf6383123535b8ca" target="_top" xlink:title="aube::ErrorMessage\l::getFile">
<polygon fill="none" stroke="black" points="297,-49.5 297,-79.5 401,-79.5 401,-49.5 297,-49.5"/>
<text text-anchor="start" x="305" y="-67.5" font-family="Helvetica,sans-Serif" font-size="10.00">aube::ErrorMessage</text>
<text text-anchor="middle" x="349" y="-56.5" font-family="Helvetica,sans-Serif" font-size="10.00">::getFile</text>
</a>
</g>
</g>
<!-- Node374&#45;&gt;Node375 -->
<g id="edge36" class="edge"><title>Node374&#45;&gt;Node375</title>
<path fill="none" stroke="midnightblue" d="M244.229,-98.3986C259.413,-93.4385 276.451,-87.8726 292.264,-82.7071"/>
<polygon fill="midnightblue" stroke="midnightblue" points="293.505,-85.9838 301.924,-79.5516 291.331,-79.3298 293.505,-85.9838"/>
</g>
<!-- Node376 -->
<g id="node26" class="node"><title>Node376</title>
<g id="a_node26"><a xlink:href="classaube_1_1_error_message.html#a9184cc96589578f434351c105b0cd5f7" target="_top" xlink:title="aube::ErrorMessage\l::getLocation">
<polygon fill="none" stroke="black" points="297,-0.5 297,-30.5 401,-30.5 401,-0.5 297,-0.5"/>
<text text-anchor="start" x="305" y="-18.5" font-family="Helvetica,sans-Serif" font-size="10.00">aube::ErrorMessage</text>
<text text-anchor="middle" x="349" y="-7.5" font-family="Helvetica,sans-Serif" font-size="10.00">::getLocation</text>
</a>
</g>
</g>
<!-- Node374&#45;&gt;Node376 -->
<g id="edge37" class="edge"><title>Node374&#45;&gt;Node376</title>
<path fill="none" stroke="midnightblue" d="M214.123,-98.3859C231.914,-82.2765 261.895,-56.7617 291,-39.5 293.639,-37.9347 296.4,-36.4198 299.221,-34.9636"/>
<polygon fill="midnightblue" stroke="midnightblue" points="300.901,-38.0389 308.367,-30.5223 297.843,-31.742 300.901,-38.0389"/>
</g>
<!-- Node377 -->
<g id="node27" class="node"><title>Node377</title>
<g id="a_node27"><a xlink:href="classaube_1_1_error_message.html#a07927cb3e2d0712c459cc9e2b5f52696" target="_top" xlink:title="aube::ErrorMessage\l::getMessage">
<polygon fill="none" stroke="black" points="297,-147.5 297,-177.5 401,-177.5 401,-147.5 297,-147.5"/>
<text text-anchor="start" x="305" y="-165.5" font-family="Helvetica,sans-Serif" font-size="10.00">aube::ErrorMessage</text>
<text text-anchor="middle" x="349" y="-154.5" font-family="Helvetica,sans-Serif" font-size="10.00">::getMessage</text>
</a>
</g>
</g>
<!-- Node374&#45;&gt;Node377 -->
<g id="edge38" class="edge"><title>Node374&#45;&gt;Node377</title>
<path fill="none" stroke="midnightblue" d="M244.229,-128.601C259.413,-133.562 276.451,-139.127 292.264,-144.293"/>
<polygon fill="midnightblue" stroke="midnightblue" points="291.331,-147.67 301.924,-147.448 293.505,-141.016 291.331,-147.67"/>
</g>
<!-- Node378 -->
<g id="node28" class="node"><title>Node378</title>
<g id="a_node28"><a xlink:href="classaube_1_1_error_message.html#a77c2f9b7e93542c958173b52da267989" target="_top" xlink:title="aube::ErrorMessage\l::getHints">
<polygon fill="none" stroke="black" points="297,-98.5 297,-128.5 401,-128.5 401,-98.5 297,-98.5"/>
<text text-anchor="start" x="305" y="-116.5" font-family="Helvetica,sans-Serif" font-size="10.00">aube::ErrorMessage</text>
<text text-anchor="middle" x="349" y="-105.5" font-family="Helvetica,sans-Serif" font-size="10.00">::getHints</text>
</a>
</g>
</g>
<!-- Node374&#45;&gt;Node378 -->
<g id="edge39" class="edge"><title>Node374&#45;&gt;Node378</title>
<path fill="none" stroke="midnightblue" d="M246.287,-113.5C259.185,-113.5 273.297,-113.5 286.791,-113.5"/>
<polygon fill="midnightblue" stroke="midnightblue" points="286.96,-117 296.96,-113.5 286.96,-110 286.96,-117"/>
</g>
</g>
</svg>
        <g id="navigator" transform="translate(0 0)" fill="#404254">
                <rect fill="#f2f5e9" fill-opacity="0.5" stroke="#606060" stroke-width=".5" x="0" y="0" width="60" height="60"/>
                <use id="zoomplus" xlink:href="#zoomPlus" x="17" y="9" onmousedown="handleZoom(evt,'in')"/>
                <use id="zoomminus" xlink:href="#zoomMin" x="42" y="9" onmousedown="handleZoom(evt,'out')"/>
                <use id="reset" xlink:href="#resetDef" x="30" y="36" onmousedown="handleReset()"/>
                <g id="arrowUp" xlink:href="#dirArrow" transform="translate(30 24)" onmousedown="handlePan(0,-1)">
                  <use xlink:href="#rim" fill="#404040">
                        <set attributeName="fill" to="#808080" begin="arrowUp.mouseover" end="arrowUp.mouseout"/>
                  </use>
                  <path fill="none" stroke="white" stroke-width="1.5" d="M0,-3.0v7 M-2.5,-0.5L0,-3.0L2.5,-0.5"/>
                </g>
                <g id="arrowRight" xlink:href="#dirArrow" transform="rotate(90) translate(36 -43)" onmousedown="handlePan(1,0)">
                  <use xlink:href="#rim" fill="#404040">
                        <set attributeName="fill" to="#808080" begin="arrowRight.mouseover" end="arrowRight.mouseout"/>
                  </use>
                  <path fill="none" stroke="white" stroke-width="1.5" d="M0,-3.0v7 M-2.5,-0.5L0,-3.0L2.5,-0.5"/>
                </g>
                <g id="arrowDown" xlink:href="#dirArrow" transform="rotate(180) translate(-30 -48)" onmousedown="handlePan(0,1)">
                  <use xlink:href="#rim" fill="#404040">
                        <set attributeName="fill" to="#808080" begin="arrowDown.mouseover" end="arrowDown.mouseout"/>
                  </use>
                  <path fill="none" stroke="white" stroke-width="1.5" d="M0,-3.0v7 M-2.5,-0.5L0,-3.0L2.5,-0.5"/>
                </g>
                <g id="arrowLeft" xlink:href="#dirArrow" transform="rotate(270) translate(-36 17)" onmousedown="handlePan(-1,0)">
                  <use xlink:href="#rim" fill="#404040">
                        <set attributeName="fill" to="#808080" begin="arrowLeft.mouseover" end="arrowLeft.mouseout"/>
                  </use>
                  <path fill="none" stroke="white" stroke-width="1.5" d="M0,-3.0v7 M-2.5,-0.5L0,-3.0L2.5,-0.5"/>
                </g>
        </g>
        <svg viewBox="0 0 15 15" width="100%" height="30px" preserveAspectRatio="xMaxYMin meet">
         <g id="arrow_out" transform="scale(0.3 0.3)">
          <a xlink:href="namespaceobe_1_1_script_1_1_core_lib_ac402ed4d67a537e338d92ee57d2441aa_cgraph_org.svg" target="_base">
           <rect id="button" ry="5" rx="5" y="6" x="6" height="38" width="38"
                fill="#f2f5e9" fill-opacity="0.5" stroke="#606060" stroke-width="1.0"/>
           <path id="arrow"
             d="M 11.500037,31.436501 C 11.940474,20.09759 22.043105,11.32322 32.158766,21.979434 L 37.068811,17.246167 C 37.068811,17.246167 37.088388,32 37.088388,32 L 22.160133,31.978069 C 22.160133,31.978069 26.997745,27.140456 26.997745,27.140456 C 18.528582,18.264221 13.291696,25.230495 11.500037,31.436501 z"
             style="fill:#404040;"/>
          </a>
         </g>
        </svg>
</svg>
