<?xml version="1.0" encoding="UTF-8" standalone="no"?>
<!DOCTYPE svg PUBLIC "-//W3C//DTD SVG 1.1//EN"
 "http://www.w3.org/Graphics/SVG/1.1/DTD/svg11.dtd">
<!-- Generated by graphviz version 2.38.0 (20140413.2041)
 -->
<!-- Title: elz::extractFile Pages: 1 -->
<svg width="1278pt" height="190pt"
 viewBox="0.00 0.00 1278.00 189.50" xmlns="http://www.w3.org/2000/svg" xmlns:xlink="http://www.w3.org/1999/xlink">
<g id="graph0" class="graph" transform="scale(1 1) rotate(0) translate(4 185.5)">
<title>elz::extractFile</title>
<!-- Node9 -->
<g id="node1" class="node"><title>Node9</title>
<polygon fill="#bfbfbf" stroke="black" points="0,-72 0,-91 81,-91 81,-72 0,-72"/>
<text text-anchor="middle" x="40.5" y="-79" font-family="Helvetica,sans-Serif" font-size="10.00">elz::extractFile</text>
</g>
<!-- Node10 -->
<g id="node2" class="node"><title>Node10</title>
<g id="a_node2"><a xlink:href="elzip__fallback_8cpp.html#abcec8c64c7ae6dfbd2c0a1012a4d9dff" target="_top" xlink:title="join">
<polygon fill="none" stroke="black" points="159,-94 159,-113 191,-113 191,-94 159,-94"/>
<text text-anchor="middle" x="175" y="-101" font-family="Helvetica,sans-Serif" font-size="10.00">join</text>
</a>
</g>
</g>
<!-- Node9&#45;&gt;Node10 -->
<g id="edge1" class="edge"><title>Node9&#45;&gt;Node10</title>
<path fill="none" stroke="midnightblue" d="M91.298,-89.7683C115.264,-93.7476 142.297,-98.236 158.738,-100.966"/>
<polygon fill="midnightblue" stroke="midnightblue" points="91.6926,-86.286 81.2544,-88.1007 90.546,-93.1915 91.6926,-86.286"/>
</g>
<!-- Node11 -->
<g id="node3" class="node"><title>Node11</title>
<g id="a_node3"><a xlink:href="namespaceobe_1_1_system_1_1_package.html#ad8db0c0875d239ceec4b89383b410c51" target="_top" xlink:title="Installs a Package. ">
<polygon fill="none" stroke="black" points="117,-44.5 117,-74.5 233,-74.5 233,-44.5 117,-44.5"/>
<text text-anchor="start" x="125" y="-62.5" font-family="Helvetica,sans-Serif" font-size="10.00">obe::System::Package</text>
<text text-anchor="middle" x="175" y="-51.5" font-family="Helvetica,sans-Serif" font-size="10.00">::Install</text>
</a>
</g>
</g>
<!-- Node9&#45;&gt;Node11 -->
<g id="edge2" class="edge"><title>Node9&#45;&gt;Node11</title>
<path fill="none" stroke="midnightblue" d="M91.1666,-73.2535C99.4755,-71.8739 108.156,-70.4325 116.639,-69.0241"/>
<polygon fill="midnightblue" stroke="midnightblue" points="90.546,-69.8085 81.2544,-74.8993 91.6926,-76.714 90.546,-69.8085"/>
</g>
<!-- Node12 -->
<g id="node4" class="node"><title>Node12</title>
<g id="a_node4"><a xlink:href="namespaceobe_1_1_script_1_1_core_lib.html#a1f5462552ef202ab28d4e0613eeda3f7" target="_top" xlink:title="obe::Script::CoreLib\l::loadPackage">
<polygon fill="none" stroke="black" points="269,-44.5 269,-74.5 372,-74.5 372,-44.5 269,-44.5"/>
<text text-anchor="start" x="277" y="-62.5" font-family="Helvetica,sans-Serif" font-size="10.00">obe::Script::CoreLib</text>
<text text-anchor="middle" x="320.5" y="-51.5" font-family="Helvetica,sans-Serif" font-size="10.00">::loadPackage</text>
</a>
</g>
</g>
<!-- Node11&#45;&gt;Node12 -->
<g id="edge3" class="edge"><title>Node11&#45;&gt;Node12</title>
<path fill="none" stroke="midnightblue" d="M243.398,-59.5C251.878,-59.5 260.439,-59.5 268.606,-59.5"/>
<polygon fill="midnightblue" stroke="midnightblue" points="243.127,-56.0001 233.127,-59.5 243.127,-63.0001 243.127,-56.0001"/>
</g>
<!-- Node13 -->
<g id="node5" class="node"><title>Node13</title>
<g id="a_node5"><a xlink:href="namespaceobe_1_1_script.html#abdb81ec0976f1097cef6711415b8fac3" target="_top" xlink:title="obe::Script::loadCoreLib">
<polygon fill="none" stroke="black" points="408,-50 408,-69 529,-69 529,-50 408,-50"/>
<text text-anchor="middle" x="468.5" y="-57" font-family="Helvetica,sans-Serif" font-size="10.00">obe::Script::loadCoreLib</text>
</a>
</g>
</g>
<!-- Node12&#45;&gt;Node13 -->
<g id="edge4" class="edge"><title>Node12&#45;&gt;Node13</title>
<path fill="none" stroke="midnightblue" d="M382.328,-59.5C390.785,-59.5 399.467,-59.5 407.902,-59.5"/>
<polygon fill="midnightblue" stroke="midnightblue" points="382.154,-56.0001 372.154,-59.5 382.154,-63.0001 382.154,-56.0001"/>
</g>
<!-- Node14 -->
<g id="node6" class="node"><title>Node14</title>
<g id="a_node6"><a xlink:href="namespaceobe_1_1_script.html#a4e6ee77032cf7f66544f9b08464a60b7" target="_top" xlink:title="obe::Script::loadLib">
<polygon fill="none" stroke="black" points="566,-94 566,-113 667,-113 667,-94 566,-94"/>
<text text-anchor="middle" x="616.5" y="-101" font-family="Helvetica,sans-Serif" font-size="10.00">obe::Script::loadLib</text>
</a>
</g>
</g>
<!-- Node13&#45;&gt;Node14 -->
<g id="edge5" class="edge"><title>Node13&#45;&gt;Node14</title>
<path fill="none" stroke="midnightblue" d="M510.761,-71.9347C533.959,-78.926 562.468,-87.5177 583.882,-93.9713"/>
<polygon fill="midnightblue" stroke="midnightblue" points="511.764,-68.5818 501.18,-69.0473 509.745,-75.2841 511.764,-68.5818"/>
</g>
<!-- Node24 -->
<g id="node16" class="node"><title>Node24</title>
<g id="a_node16"><a xlink:href="namespaceobe_1_1_script_1_1_core_lib.html#a07d6c11bbb082bc45bdba50d97965c00" target="_top" xlink:title="obe::Script::CoreLib\l::loadCollision">
<polygon fill="none" stroke="black" points="565,-44.5 565,-74.5 668,-74.5 668,-44.5 565,-44.5"/>
<text text-anchor="start" x="573" y="-62.5" font-family="Helvetica,sans-Serif" font-size="10.00">obe::Script::CoreLib</text>
<text text-anchor="middle" x="616.5" y="-51.5" font-family="Helvetica,sans-Serif" font-size="10.00">::loadCollision</text>
</a>
</g>
</g>
<!-- Node13&#45;&gt;Node24 -->
<g id="edge18" class="edge"><title>Node13&#45;&gt;Node24</title>
<path fill="none" stroke="midnightblue" d="M539.356,-52.7556C547.966,-52.7251 556.634,-52.8199 564.88,-53.0402"/>
<polygon fill="midnightblue" stroke="midnightblue" points="539.272,-49.2561 529.305,-52.849 539.337,-56.2558 539.272,-49.2561"/>
</g>
<!-- Node15 -->
<g id="node7" class="node"><title>Node15</title>
<g id="a_node7"><a xlink:href="namespaceobe_1_1_modes.html#a1e38c0d9a2ca0230f0de79c298f53ab9" target="_top" xlink:title="A mode that will start the Toolkit. ">
<polygon fill="none" stroke="black" points="881,-143 881,-162 1027,-162 1027,-143 881,-143"/>
<text text-anchor="middle" x="954" y="-150" font-family="Helvetica,sans-Serif" font-size="10.00">obe::Modes::startToolkitMode</text>
</a>
</g>
</g>
<!-- Node14&#45;&gt;Node15 -->
<g id="edge6" class="edge"><title>Node14&#45;&gt;Node15</title>
<path fill="none" stroke="midnightblue" d="M635.349,-119.842C651.799,-133.711 677.594,-152.582 704,-160.5 773.808,-181.432 859.595,-171.343 910.083,-162.001"/>
<polygon fill="midnightblue" stroke="midnightblue" points="637.485,-117.06 627.646,-113.13 632.886,-122.338 637.485,-117.06"/>
</g>
<!-- Node18 -->
<g id="node10" class="node"><title>Node18</title>
<g id="a_node10"><a xlink:href="classobe_1_1_scene_1_1_world.html#a32964e659e18cb32094d9f8ceea30aa3" target="_top" xlink:title="obe::Scene::World::\lWorld">
<polygon fill="none" stroke="black" points="902,-77.5 902,-107.5 1006,-107.5 1006,-77.5 902,-77.5"/>
<text text-anchor="start" x="910" y="-95.5" font-family="Helvetica,sans-Serif" font-size="10.00">obe::Scene::World::</text>
<text text-anchor="middle" x="954" y="-84.5" font-family="Helvetica,sans-Serif" font-size="10.00">World</text>
</a>
</g>
</g>
<!-- Node14&#45;&gt;Node18 -->
<g id="edge10" class="edge"><title>Node14&#45;&gt;Node18</title>
<path fill="none" stroke="midnightblue" d="M677.331,-101.538C741.27,-99.442 841.555,-96.1539 901.916,-94.1749"/>
<polygon fill="midnightblue" stroke="midnightblue" points="676.884,-98.051 667.004,-101.877 677.114,-105.047 676.884,-98.051"/>
</g>
<!-- Node19 -->
<g id="node11" class="node"><title>Node19</title>
<g id="a_node11"><a xlink:href="namespaceobe_1_1_scene.html#ae5cbcc3278d9115d603e5024dec9136e" target="_top" xlink:title="obe::Scene::loadWorldScript\lEngineBaseLib">
<polygon fill="none" stroke="black" points="704,-44.5 704,-74.5 845,-74.5 845,-44.5 704,-44.5"/>
<text text-anchor="start" x="712" y="-62.5" font-family="Helvetica,sans-Serif" font-size="10.00">obe::Scene::loadWorldScript</text>
<text text-anchor="middle" x="774.5" y="-51.5" font-family="Helvetica,sans-Serif" font-size="10.00">EngineBaseLib</text>
</a>
</g>
</g>
<!-- Node14&#45;&gt;Node19 -->
<g id="edge11" class="edge"><title>Node14&#45;&gt;Node19</title>
<path fill="none" stroke="midnightblue" d="M661.151,-91.1882C679.437,-86.0306 700.871,-79.9852 720.086,-74.5654"/>
<polygon fill="midnightblue" stroke="midnightblue" points="660.024,-87.8694 651.35,-93.9527 661.924,-94.6066 660.024,-87.8694"/>
</g>
<!-- Node20 -->
<g id="node12" class="node"><title>Node20</title>
<g id="a_node12"><a xlink:href="namespaceobe_1_1_script.html#a5e992c0efb0543e7c934bc1065f08b01" target="_top" xlink:title="obe::Script::loadLibBridge">
<polygon fill="none" stroke="black" points="710.5,-6 710.5,-25 838.5,-25 838.5,-6 710.5,-6"/>
<text text-anchor="middle" x="774.5" y="-13" font-family="Helvetica,sans-Serif" font-size="10.00">obe::Script::loadLibBridge</text>
</a>
</g>
</g>
<!-- Node14&#45;&gt;Node20 -->
<g id="edge13" class="edge"><title>Node14&#45;&gt;Node20</title>
<path fill="none" stroke="midnightblue" d="M658.912,-89.4024C662.114,-87.6311 665.19,-85.6682 668,-83.5 689.396,-66.9928 681.727,-49.8035 704,-34.5 709.67,-30.604 716.112,-27.505 722.732,-25.0404"/>
<polygon fill="midnightblue" stroke="midnightblue" points="657.13,-86.3769 649.668,-93.8975 660.191,-92.6721 657.13,-86.3769"/>
</g>
<!-- Node23 -->
<g id="node15" class="node"><title>Node23</title>
<g id="a_node15"><a xlink:href="namespaceobe_1_1_script.html#aad6ef67388e6d16eb01853f208da410f" target="_top" xlink:title="obe::Script::loadBaseLib">
<polygon fill="none" stroke="black" points="713,-132 713,-151 836,-151 836,-132 713,-132"/>
<text text-anchor="middle" x="774.5" y="-139" font-family="Helvetica,sans-Serif" font-size="10.00">obe::Script::loadBaseLib</text>
</a>
</g>
</g>
<!-- Node14&#45;&gt;Node23 -->
<g id="edge16" class="edge"><title>Node14&#45;&gt;Node23</title>
<path fill="none" stroke="midnightblue" d="M666.632,-115.468C688.493,-120.793 713.876,-126.976 734.418,-131.98"/>
<polygon fill="midnightblue" stroke="midnightblue" points="667.41,-112.055 656.865,-113.089 665.753,-118.856 667.41,-112.055"/>
</g>
<!-- Node16 -->
<g id="node8" class="node"><title>Node16</title>
<g id="a_node8"><a xlink:href="namespaceobe_1_1_modes.html#a6a8b08eee511d4895c4da96d4ba223a6" target="_top" xlink:title="obe::Modes::startDevMenu">
<polygon fill="none" stroke="black" points="1063,-162 1063,-181 1196,-181 1196,-162 1063,-162"/>
<text text-anchor="middle" x="1129.5" y="-169" font-family="Helvetica,sans-Serif" font-size="10.00">obe::Modes::startDevMenu</text>
</a>
</g>
</g>
<!-- Node15&#45;&gt;Node16 -->
<g id="edge7" class="edge"><title>Node15&#45;&gt;Node16</title>
<path fill="none" stroke="midnightblue" d="M1037.12,-161.493C1045.72,-162.434 1054.37,-163.383 1062.76,-164.3"/>
<polygon fill="midnightblue" stroke="midnightblue" points="1037.39,-158.002 1027.07,-160.393 1036.63,-164.961 1037.39,-158.002"/>
</g>
<!-- Node17 -->
<g id="node9" class="node"><title>Node17</title>
<g id="a_node9"><a xlink:href="_ob_engine_8cpp.html#a3c04138a5bfe5d72780bb7e82a18e627" target="_top" xlink:title="main">
<polygon fill="none" stroke="black" points="1232,-143 1232,-162 1270,-162 1270,-143 1232,-143"/>
<text text-anchor="middle" x="1251" y="-150" font-family="Helvetica,sans-Serif" font-size="10.00">main</text>
</a>
</g>
</g>
<!-- Node15&#45;&gt;Node17 -->
<g id="edge9" class="edge"><title>Node15&#45;&gt;Node17</title>
<path fill="none" stroke="midnightblue" d="M1037.31,-152.5C1104.39,-152.5 1193.99,-152.5 1231.87,-152.5"/>
<polygon fill="midnightblue" stroke="midnightblue" points="1037.17,-149 1027.17,-152.5 1037.17,-156 1037.17,-149"/>
</g>
<!-- Node16&#45;&gt;Node17 -->
<g id="edge8" class="edge"><title>Node16&#45;&gt;Node17</title>
<path fill="none" stroke="midnightblue" d="M1200.82,-160.319C1212.35,-158.487 1223.33,-156.741 1231.98,-155.365"/>
<polygon fill="midnightblue" stroke="midnightblue" points="1199.93,-156.917 1190.6,-161.944 1201.03,-163.831 1199.93,-156.917"/>
</g>
<!-- Node19&#45;&gt;Node18 -->
<g id="edge12" class="edge"><title>Node19&#45;&gt;Node18</title>
<path fill="none" stroke="midnightblue" d="M854.998,-74.2799C870.939,-77.2436 887.283,-80.2821 901.941,-83.0074"/>
<polygon fill="midnightblue" stroke="midnightblue" points="855.615,-70.8346 845.143,-72.4478 854.335,-77.7167 855.615,-70.8346"/>
</g>
<!-- Node21 -->
<g id="node13" class="node"><title>Node21</title>
<g id="a_node13"><a xlink:href="namespaceobe_1_1_script.html#a5dc8321da50fd4b5dc2935e4d8c93a4e" target="_top" xlink:title="obe::Script::loadScrGame\lObject">
<polygon fill="none" stroke="black" points="889.5,-0.5 889.5,-30.5 1018.5,-30.5 1018.5,-0.5 889.5,-0.5"/>
<text text-anchor="start" x="897.5" y="-18.5" font-family="Helvetica,sans-Serif" font-size="10.00">obe::Script::loadScrGame</text>
<text text-anchor="middle" x="954" y="-7.5" font-family="Helvetica,sans-Serif" font-size="10.00">Object</text>
</a>
</g>
</g>
<!-- Node20&#45;&gt;Node21 -->
<g id="edge14" class="edge"><title>Node20&#45;&gt;Node21</title>
<path fill="none" stroke="midnightblue" d="M848.737,-15.5C862.171,-15.5 876.096,-15.5 889.226,-15.5"/>
<polygon fill="midnightblue" stroke="midnightblue" points="848.58,-12.0001 838.58,-15.5 848.58,-19.0001 848.58,-12.0001"/>
</g>
<!-- Node22 -->
<g id="node14" class="node"><title>Node22</title>
<g id="a_node14"><a xlink:href="classobe_1_1_script_1_1_game_object.html#aadeac0036d2fe21d523acfd4e9011a23" target="_top" xlink:title="obe::Script::GameObject\l::loadGameObject">
<polygon fill="none" stroke="black" points="1067,-0.5 1067,-30.5 1192,-30.5 1192,-0.5 1067,-0.5"/>
<text text-anchor="start" x="1075" y="-18.5" font-family="Helvetica,sans-Serif" font-size="10.00">obe::Script::GameObject</text>
<text text-anchor="middle" x="1129.5" y="-7.5" font-family="Helvetica,sans-Serif" font-size="10.00">::loadGameObject</text>
</a>
</g>
</g>
<!-- Node21&#45;&gt;Node22 -->
<g id="edge15" class="edge"><title>Node21&#45;&gt;Node22</title>
<path fill="none" stroke="midnightblue" d="M1028.72,-15.5C1041.44,-15.5 1054.55,-15.5 1066.91,-15.5"/>
<polygon fill="midnightblue" stroke="midnightblue" points="1028.62,-12.0001 1018.62,-15.5 1028.62,-19.0001 1028.62,-12.0001"/>
</g>
<!-- Node23&#45;&gt;Node15 -->
<g id="edge17" class="edge"><title>Node23&#45;&gt;Node15</title>
<path fill="none" stroke="midnightblue" d="M846.346,-145.89C857.662,-146.592 869.384,-147.318 880.733,-148.021"/>
<polygon fill="midnightblue" stroke="midnightblue" points="846.286,-142.38 836.089,-145.255 845.853,-149.367 846.286,-142.38"/>
</g>
<!-- Node24&#45;&gt;Node13 -->
<g id="edge19" class="edge"><title>Node24&#45;&gt;Node13</title>
<path fill="none" stroke="midnightblue" d="M554.757,-66.1647C546.342,-66.2828 537.703,-66.2783 529.305,-66.151"/>
<polygon fill="midnightblue" stroke="midnightblue" points="554.953,-69.6616 564.88,-65.9598 554.811,-62.663 554.953,-69.6616"/>
</g>
</g>
</svg>
