<?xml version="1.0" encoding="UTF-8" standalone="no"?>
<!DOCTYPE svg PUBLIC "-//W3C//DTD SVG 1.1//EN"
 "http://www.w3.org/Graphics/SVG/1.1/DTD/svg11.dtd">
<!-- Generated by graphviz version 2.38.0 (20140413.2041)
 -->
<!-- Title: obe::Utils::Vector::getSubVector Pages: 1 -->
<!--zoomable 841 -->
<svg id="main" version="1.1" xmlns="http://www.w3.org/2000/svg" xmlns:xlink="http://www.w3.org/1999/xlink" xml:space="preserve" onload="init(evt)">
<style type="text/css"><![CDATA[
.edge:hover path { stroke: red; }
.edge:hover polygon { stroke: red; fill: red; }
.edge path { stroke: white; }
.edge polygon { stroke: white; fill: white; }
.node polygon { fill: white; }
]]></style>
<script type="text/javascript"><![CDATA[
var edges = document.getElementsByTagName('g');
if (edges && edges.length) {
  for (var i=0;i<edges.length;i++) {
    if (edges[i].id.substr(0,4)=='edge') {
      edges[i].setAttribute('class','edge');
    }
  }
}
]]></script>
        <defs>
                <circle id="rim" cx="0" cy="0" r="7"/>
                <circle id="rim2" cx="0" cy="0" r="3.5"/>
                <g id="zoomPlus">
                        <use xlink:href="#rim" fill="#404040">
                                <set attributeName="fill" to="#808080" begin="zoomplus.mouseover" end="zoomplus.mouseout"/>
                        </use>
                        <path d="M-4,0h8M0,-4v8" fill="none" stroke="white" stroke-width="1.5" pointer-events="none"/>
                </g>
                <g id="zoomMin">
                        <use xlink:href="#rim" fill="#404040">
                                <set attributeName="fill" to="#808080" begin="zoomminus.mouseover" end="zoomminus.mouseout"/>
                        </use>
                        <path d="M-4,0h8" fill="none" stroke="white" stroke-width="1.5" pointer-events="none"/>
                </g>
                <g id="dirArrow">
                        <path fill="none" stroke="white" stroke-width="1.5" d="M0,-3.0v7 M-2.5,-0.5L0,-3.0L2.5,-0.5"/>
                </g>
               <g id="resetDef">
                       <use xlink:href="#rim2" fill="#404040">
                               <set attributeName="fill" to="#808080" begin="reset.mouseover" end="reset.mouseout"/>
                       </use>
               </g>
        </defs>

<script type="text/javascript">
var viewWidth = 902;
var viewHeight = 841;
var sectionId = 'dynsection-1';
</script>
<script xlink:href="svgpan.js"/>
<svg id="graph" class="graph">
<g id="viewport">
<title>obe::Utils::Vector::getSubVector</title>
<!-- Node28 -->
<g id="node1" class="node"><title>Node28</title>
<polygon fill="#bfbfbf" stroke="black" points="0,-541.5 0,-571.5 92,-571.5 92,-541.5 0,-541.5"/>
<text text-anchor="start" x="8" y="-559.5" font-family="Helvetica,sans-Serif" font-size="10.00">obe::Utils::Vector</text>
<text text-anchor="middle" x="46" y="-548.5" font-family="Helvetica,sans-Serif" font-size="10.00">::getSubVector</text>
</g>
<!-- Node29 -->
<g id="node2" class="node"><title>Node29</title>
<g id="a_node2"><a xlink:href="classobe_1_1_bindings_1_1_binding_tree.html#abd1469a96862ddff5207480ac94d2172" target="_top" xlink:title="Walks to BindingTree node at path. ">
<polygon fill="none" stroke="black" points="128,-487.5 128,-517.5 261,-517.5 261,-487.5 128,-487.5"/>
<text text-anchor="start" x="136" y="-505.5" font-family="Helvetica,sans-Serif" font-size="10.00">obe::Bindings::BindingTree</text>
<text text-anchor="middle" x="194.5" y="-494.5" font-family="Helvetica,sans-Serif" font-size="10.00">::walkTo</text>
</a>
</g>
</g>
<!-- Node28&#45;&gt;Node29 -->
<g id="edge1" class="edge"><title>Node28&#45;&gt;Node29</title>
<path fill="none" stroke="midnightblue" d="M97.5651,-537.862C115.559,-531.229 135.579,-523.85 152.657,-517.555"/>
<polygon fill="midnightblue" stroke="midnightblue" points="95.9808,-534.715 87.8084,-541.458 98.4018,-541.283 95.9808,-534.715"/>
</g>
<!-- Node52 -->
<g id="node25" class="node"><title>Node52</title>
<g id="a_node25"><a xlink:href="namespaceobe_1_1_bindings_1_1_utils_bindings.html#ac659136cd88ddfad718e22e6efe815df" target="_top" xlink:title="obe::Bindings::UtilsBindings\l::loadVectorUtils">
<polygon fill="none" stroke="black" points="297,-783.5 297,-813.5 436,-813.5 436,-783.5 297,-783.5"/>
<text text-anchor="start" x="305" y="-801.5" font-family="Helvetica,sans-Serif" font-size="10.00">obe::Bindings::UtilsBindings</text>
<text text-anchor="middle" x="366.5" y="-790.5" font-family="Helvetica,sans-Serif" font-size="10.00">::loadVectorUtils</text>
</a>
</g>
</g>
<!-- Node28&#45;&gt;Node52 -->
<g id="edge39" class="edge"><title>Node28&#45;&gt;Node52</title>
<path fill="none" stroke="midnightblue" d="M75.2608,-577.973C138.665,-626.148 290.964,-741.867 345.584,-783.368"/>
<polygon fill="midnightblue" stroke="midnightblue" points="77.0034,-574.901 66.9236,-571.638 72.7685,-580.475 77.0034,-574.901"/>
</g>
<!-- Node29&#45;&gt;Node29 -->
<g id="edge38" class="edge"><title>Node29&#45;&gt;Node29</title>
<path fill="none" stroke="midnightblue" d="M168.202,-527.958C171.466,-532.679 180.232,-536 194.5,-536 217.914,-536 226.511,-527.057 220.292,-517.659"/>
<polygon fill="midnightblue" stroke="midnightblue" points="171.713,-527.819 168.708,-517.659 164.722,-527.475 171.713,-527.819"/>
</g>
<!-- Node30 -->
<g id="node3" class="node"><title>Node30</title>
<g id="a_node3"><a xlink:href="namespaceobe_1_1_bindings.html#ad571e5338f682c5657773d5b96de5a40" target="_top" xlink:title="Loads a Library in the Lua VM. ">
<polygon fill="none" stroke="black" points="315,-400 315,-419 418,-419 418,-400 315,-400"/>
<text text-anchor="middle" x="366.5" y="-407" font-family="Helvetica,sans-Serif" font-size="10.00">obe::Bindings::Load</text>
</a>
</g>
</g>
<!-- Node29&#45;&gt;Node30 -->
<g id="edge2" class="edge"><title>Node29&#45;&gt;Node30</title>
<path fill="none" stroke="midnightblue" d="M232.316,-482.359C267.974,-462.852 320.525,-434.104 347.727,-419.223"/>
<polygon fill="midnightblue" stroke="midnightblue" points="230.285,-479.481 223.192,-487.351 233.645,-485.622 230.285,-479.481"/>
</g>
<!-- Node31 -->
<g id="node4" class="node"><title>Node31</title>
<g id="a_node4"><a xlink:href="namespaceobe_1_1_bindings_1_1_collision_bindings.html#a48f290ff49a763532bdf5bc65070d2d2" target="_top" xlink:title="obe::Bindings::Collision\lBindings::LoadPolygonalCollider">
<polygon fill="none" stroke="black" points="478.5,-371.5 478.5,-401.5 634.5,-401.5 634.5,-371.5 478.5,-371.5"/>
<text text-anchor="start" x="486.5" y="-389.5" font-family="Helvetica,sans-Serif" font-size="10.00">obe::Bindings::Collision</text>
<text text-anchor="middle" x="556.5" y="-378.5" font-family="Helvetica,sans-Serif" font-size="10.00">Bindings::LoadPolygonalCollider</text>
</a>
</g>
</g>
<!-- Node30&#45;&gt;Node31 -->
<g id="edge3" class="edge"><title>Node30&#45;&gt;Node31</title>
<path fill="none" stroke="midnightblue" d="M428.593,-402.026C444.492,-400.081 461.827,-397.96 478.434,-395.928"/>
<polygon fill="midnightblue" stroke="midnightblue" points="427.876,-398.587 418.376,-403.276 428.727,-405.536 427.876,-398.587"/>
</g>
<!-- Node34 -->
<g id="node7" class="node"><title>Node34</title>
<g id="a_node7"><a xlink:href="namespaceobe_1_1_bindings_1_1_debug_bindings.html#a19f27507c4824eb9d0532cbd007e86be" target="_top" xlink:title="obe::Bindings::DebugBindings\l::LoadConsoleStream">
<polygon fill="none" stroke="black" points="483,-322.5 483,-352.5 630,-352.5 630,-322.5 483,-322.5"/>
<text text-anchor="start" x="491" y="-340.5" font-family="Helvetica,sans-Serif" font-size="10.00">obe::Bindings::DebugBindings</text>
<text text-anchor="middle" x="556.5" y="-329.5" font-family="Helvetica,sans-Serif" font-size="10.00">::LoadConsoleStream</text>
</a>
</g>
</g>
<!-- Node30&#45;&gt;Node34 -->
<g id="edge6" class="edge"><title>Node30&#45;&gt;Node34</title>
<path fill="none" stroke="midnightblue" d="M396.032,-395.438C416.803,-385.506 445.771,-372.277 472,-362.5 481.358,-359.012 491.441,-355.661 501.253,-352.607"/>
<polygon fill="midnightblue" stroke="midnightblue" points="394.309,-392.384 386.824,-399.882 397.351,-398.688 394.309,-392.384"/>
</g>
<!-- Node35 -->
<g id="node8" class="node"><title>Node35</title>
<g id="a_node8"><a xlink:href="namespaceobe_1_1_bindings_1_1_editor_bindings.html#acd9ed61c6eb605b4227e6d8071610311" target="_top" xlink:title="obe::Bindings::EditorBindings\l::LoadEditorGrid">
<polygon fill="none" stroke="black" points="484,-273.5 484,-303.5 629,-303.5 629,-273.5 484,-273.5"/>
<text text-anchor="start" x="492" y="-291.5" font-family="Helvetica,sans-Serif" font-size="10.00">obe::Bindings::EditorBindings</text>
<text text-anchor="middle" x="556.5" y="-280.5" font-family="Helvetica,sans-Serif" font-size="10.00">::LoadEditorGrid</text>
</a>
</g>
</g>
<!-- Node30&#45;&gt;Node35 -->
<g id="edge8" class="edge"><title>Node30&#45;&gt;Node35</title>
<path fill="none" stroke="midnightblue" d="M381.923,-392.095C400.594,-370.642 435.132,-334.461 472,-313.5 478.709,-309.686 486.059,-306.399 493.528,-303.581"/>
<polygon fill="midnightblue" stroke="midnightblue" points="379.186,-389.911 375.359,-399.79 384.512,-394.454 379.186,-389.911"/>
</g>
<!-- Node36 -->
<g id="node9" class="node"><title>Node36</title>
<g id="a_node9"><a xlink:href="namespaceobe_1_1_bindings_1_1_graphics_bindings.html#a93b97087ade5cb2fd2956ea6a4bc10d3" target="_top" xlink:title="obe::Bindings::GraphicsBindings\l::LoadLevelSprite">
<polygon fill="none" stroke="black" points="477.5,-224.5 477.5,-254.5 635.5,-254.5 635.5,-224.5 477.5,-224.5"/>
<text text-anchor="start" x="485.5" y="-242.5" font-family="Helvetica,sans-Serif" font-size="10.00">obe::Bindings::GraphicsBindings</text>
<text text-anchor="middle" x="556.5" y="-231.5" font-family="Helvetica,sans-Serif" font-size="10.00">::LoadLevelSprite</text>
</a>
</g>
</g>
<!-- Node30&#45;&gt;Node36 -->
<g id="edge10" class="edge"><title>Node30&#45;&gt;Node36</title>
<path fill="none" stroke="midnightblue" d="M376.126,-390.4C391.13,-359.333 424.986,-297.965 472,-264.5 477.424,-260.639 483.451,-257.366 489.712,-254.594"/>
<polygon fill="midnightblue" stroke="midnightblue" points="372.846,-389.151 371.769,-399.691 379.184,-392.123 372.846,-389.151"/>
</g>
<!-- Node37 -->
<g id="node10" class="node"><title>Node37</title>
<g id="a_node10"><a xlink:href="namespaceobe_1_1_bindings_1_1_input_bindings.html#a3898ecb1ad8534de564c8153802dc789" target="_top" xlink:title="obe::Bindings::InputBindings\l::LoadInputAction">
<polygon fill="none" stroke="black" points="486.5,-763.5 486.5,-793.5 626.5,-793.5 626.5,-763.5 486.5,-763.5"/>
<text text-anchor="start" x="494.5" y="-781.5" font-family="Helvetica,sans-Serif" font-size="10.00">obe::Bindings::InputBindings</text>
<text text-anchor="middle" x="556.5" y="-770.5" font-family="Helvetica,sans-Serif" font-size="10.00">::LoadInputAction</text>
</a>
</g>
</g>
<!-- Node30&#45;&gt;Node37 -->
<g id="edge12" class="edge"><title>Node30&#45;&gt;Node37</title>
<path fill="none" stroke="midnightblue" d="M367.335,-429.191C367.956,-487.64 377.992,-661.82 472,-754.5 476.189,-758.63 481.04,-762.058 486.253,-764.904"/>
<polygon fill="midnightblue" stroke="midnightblue" points="370.835,-429.096 367.315,-419.103 363.835,-429.11 370.835,-429.096"/>
</g>
<!-- Node38 -->
<g id="node11" class="node"><title>Node38</title>
<g id="a_node11"><a xlink:href="namespaceobe_1_1_bindings_1_1_script_bindings.html#a04868f6a764f6509ebe9359f40603aad" target="_top" xlink:title="obe::Bindings::ScriptBindings\l::LoadGameObject">
<polygon fill="none" stroke="black" points="484,-714.5 484,-744.5 629,-744.5 629,-714.5 484,-714.5"/>
<text text-anchor="start" x="492" y="-732.5" font-family="Helvetica,sans-Serif" font-size="10.00">obe::Bindings::ScriptBindings</text>
<text text-anchor="middle" x="556.5" y="-721.5" font-family="Helvetica,sans-Serif" font-size="10.00">::LoadGameObject</text>
</a>
</g>
</g>
<!-- Node30&#45;&gt;Node38 -->
<g id="edge14" class="edge"><title>Node30&#45;&gt;Node38</title>
<path fill="none" stroke="midnightblue" d="M368.48,-429.157C372.195,-481.945 389.779,-628.031 472,-705.5 475.623,-708.913 479.699,-711.846 484.052,-714.364"/>
<polygon fill="midnightblue" stroke="midnightblue" points="371.969,-428.876 367.866,-419.108 364.983,-429.303 371.969,-428.876"/>
</g>
<!-- Node39 -->
<g id="node12" class="node"><title>Node39</title>
<g id="a_node12"><a xlink:href="namespaceobe_1_1_bindings_1_1_s_f_m_l_bindings.html#a9a30d0a65a60512bf4e2a666e6892e0a" target="_top" xlink:title="obe::Bindings::SFMLBindings\l::LoadSfShape">
<polygon fill="none" stroke="black" points="483.5,-49.5 483.5,-79.5 629.5,-79.5 629.5,-49.5 483.5,-49.5"/>
<text text-anchor="start" x="491.5" y="-67.5" font-family="Helvetica,sans-Serif" font-size="10.00">obe::Bindings::SFMLBindings</text>
<text text-anchor="middle" x="556.5" y="-56.5" font-family="Helvetica,sans-Serif" font-size="10.00">::LoadSfShape</text>
</a>
</g>
</g>
<!-- Node30&#45;&gt;Node39 -->
<g id="edge16" class="edge"><title>Node30&#45;&gt;Node39</title>
<path fill="none" stroke="midnightblue" d="M368.307,-389.628C371.597,-334.901 388.228,-180.359 472,-94.5 478.024,-88.3259 485.408,-83.4174 493.269,-79.5162"/>
<polygon fill="midnightblue" stroke="midnightblue" points="364.806,-389.565 367.789,-399.731 371.797,-389.924 364.806,-389.565"/>
</g>
<!-- Node40 -->
<g id="node13" class="node"><title>Node40</title>
<g id="a_node13"><a xlink:href="namespaceobe_1_1_bindings_1_1_s_f_m_l_bindings.html#a2e473bbf5a61c747247a85a6371582a8" target="_top" xlink:title="obe::Bindings::SFMLBindings\l::LoadSfSprite">
<polygon fill="none" stroke="black" points="483.5,-0.5 483.5,-30.5 629.5,-30.5 629.5,-0.5 483.5,-0.5"/>
<text text-anchor="start" x="491.5" y="-18.5" font-family="Helvetica,sans-Serif" font-size="10.00">obe::Bindings::SFMLBindings</text>
<text text-anchor="middle" x="556.5" y="-7.5" font-family="Helvetica,sans-Serif" font-size="10.00">::LoadSfSprite</text>
</a>
</g>
</g>
<!-- Node30&#45;&gt;Node40 -->
<g id="edge17" class="edge"><title>Node30&#45;&gt;Node40</title>
<path fill="none" stroke="midnightblue" d="M366.856,-389.63C366,-328.279 372.021,-139.942 472,-39.5 475.405,-36.0791 479.264,-33.1385 483.409,-30.6114"/>
<polygon fill="midnightblue" stroke="midnightblue" points="363.362,-389.933 367.084,-399.852 370.361,-389.777 363.362,-389.933"/>
</g>
<!-- Node41 -->
<g id="node14" class="node"><title>Node41</title>
<g id="a_node14"><a xlink:href="namespaceobe_1_1_bindings_1_1_transform_bindings.html#a383561644e3b30fae710789a82b9507b" target="_top" xlink:title="obe::Bindings::Transform\lBindings::LoadProtectedUnitVector">
<polygon fill="none" stroke="black" points="472,-665.5 472,-695.5 641,-695.5 641,-665.5 472,-665.5"/>
<text text-anchor="start" x="480" y="-683.5" font-family="Helvetica,sans-Serif" font-size="10.00">obe::Bindings::Transform</text>
<text text-anchor="middle" x="556.5" y="-672.5" font-family="Helvetica,sans-Serif" font-size="10.00">Bindings::LoadProtectedUnitVector</text>
</a>
</g>
</g>
<!-- Node30&#45;&gt;Node41 -->
<g id="edge18" class="edge"><title>Node30&#45;&gt;Node41</title>
<path fill="none" stroke="midnightblue" d="M370.058,-429.285C377.165,-476.022 401.503,-594.015 472,-656.5 475.838,-659.902 480.129,-662.823 484.686,-665.332"/>
<polygon fill="midnightblue" stroke="midnightblue" points="373.505,-428.659 368.636,-419.249 366.574,-429.641 373.505,-428.659"/>
</g>
<!-- Node42 -->
<g id="node15" class="node"><title>Node42</title>
<g id="a_node15"><a xlink:href="namespaceobe_1_1_bindings_1_1_vili_bindings.html#a3ca38993e9db633bf1d82a0ce00fc828" target="_top" xlink:title="obe::Bindings::ViliBindings\l::LoadViliContainerNode">
<polygon fill="none" stroke="black" points="490,-616.5 490,-646.5 623,-646.5 623,-616.5 490,-616.5"/>
<text text-anchor="start" x="498" y="-634.5" font-family="Helvetica,sans-Serif" font-size="10.00">obe::Bindings::ViliBindings</text>
<text text-anchor="middle" x="556.5" y="-623.5" font-family="Helvetica,sans-Serif" font-size="10.00">::LoadViliContainerNode</text>
</a>
</g>
</g>
<!-- Node30&#45;&gt;Node42 -->
<g id="edge20" class="edge"><title>Node30&#45;&gt;Node42</title>
<path fill="none" stroke="midnightblue" d="M372.203,-428.794C382.874,-468.427 412.726,-559.319 472,-607.5 477.384,-611.876 483.529,-615.455 489.988,-618.381"/>
<polygon fill="midnightblue" stroke="midnightblue" points="375.577,-427.864 369.693,-419.053 368.798,-429.61 375.577,-427.864"/>
</g>
<!-- Node43 -->
<g id="node16" class="node"><title>Node43</title>
<g id="a_node16"><a xlink:href="namespaceobe_1_1_bindings_1_1_vili_bindings.html#ae4c87ab5a464ebb9aa3b3dc0fdc45678" target="_top" xlink:title="obe::Bindings::ViliBindings\l::LoadViliDataNode">
<polygon fill="none" stroke="black" points="490,-567.5 490,-597.5 623,-597.5 623,-567.5 490,-567.5"/>
<text text-anchor="start" x="498" y="-585.5" font-family="Helvetica,sans-Serif" font-size="10.00">obe::Bindings::ViliBindings</text>
<text text-anchor="middle" x="556.5" y="-574.5" font-family="Helvetica,sans-Serif" font-size="10.00">::LoadViliDataNode</text>
</a>
</g>
</g>
<!-- Node30&#45;&gt;Node43 -->
<g id="edge22" class="edge"><title>Node30&#45;&gt;Node43</title>
<path fill="none" stroke="midnightblue" d="M375.728,-428.725C390.354,-460.587 423.928,-524.216 472,-558.5 477.403,-562.354 483.416,-565.592 489.669,-568.312"/>
<polygon fill="midnightblue" stroke="midnightblue" points="378.764,-426.939 371.501,-419.226 372.369,-429.785 378.764,-426.939"/>
</g>
<!-- Node44 -->
<g id="node17" class="node"><title>Node44</title>
<g id="a_node17"><a xlink:href="namespaceobe_1_1_bindings_1_1_vili_bindings.html#af5e34049e0220ae5eb0801dc909a93ec" target="_top" xlink:title="obe::Bindings::ViliBindings\l::LoadViliLinkNode">
<polygon fill="none" stroke="black" points="490,-518.5 490,-548.5 623,-548.5 623,-518.5 490,-518.5"/>
<text text-anchor="start" x="498" y="-536.5" font-family="Helvetica,sans-Serif" font-size="10.00">obe::Bindings::ViliBindings</text>
<text text-anchor="middle" x="556.5" y="-525.5" font-family="Helvetica,sans-Serif" font-size="10.00">::LoadViliLinkNode</text>
</a>
</g>
</g>
<!-- Node30&#45;&gt;Node44 -->
<g id="edge24" class="edge"><title>Node30&#45;&gt;Node44</title>
<path fill="none" stroke="midnightblue" d="M381.164,-427.039C399.49,-449.393 434.137,-487.739 472,-509.5 477.885,-512.882 484.281,-515.817 490.827,-518.357"/>
<polygon fill="midnightblue" stroke="midnightblue" points="383.748,-424.667 374.759,-419.059 378.288,-429.048 383.748,-424.667"/>
</g>
<!-- Node45 -->
<g id="node18" class="node"><title>Node45</title>
<g id="a_node18"><a xlink:href="namespaceobe_1_1_bindings_1_1_vili_bindings.html#a6d86abb590ae4b39f859a3f86f43c7be" target="_top" xlink:title="obe::Bindings::ViliBindings\l::LoadViliArrayNode">
<polygon fill="none" stroke="black" points="490,-469.5 490,-499.5 623,-499.5 623,-469.5 490,-469.5"/>
<text text-anchor="start" x="498" y="-487.5" font-family="Helvetica,sans-Serif" font-size="10.00">obe::Bindings::ViliBindings</text>
<text text-anchor="middle" x="556.5" y="-476.5" font-family="Helvetica,sans-Serif" font-size="10.00">::LoadViliArrayNode</text>
</a>
</g>
</g>
<!-- Node30&#45;&gt;Node45 -->
<g id="edge26" class="edge"><title>Node30&#45;&gt;Node45</title>
<path fill="none" stroke="midnightblue" d="M393.696,-423.87C414.497,-434.889 444.547,-449.948 472,-460.5 480.307,-463.693 489.22,-466.689 498.018,-469.409"/>
<polygon fill="midnightblue" stroke="midnightblue" points="395.301,-420.759 384.833,-419.123 391.995,-426.93 395.301,-420.759"/>
</g>
<!-- Node46 -->
<g id="node19" class="node"><title>Node46</title>
<g id="a_node19"><a xlink:href="namespaceobe_1_1_bindings_1_1_vili_bindings.html#a1e41fb34d5eef62ebd8c29b99f499276" target="_top" xlink:title="obe::Bindings::ViliBindings\l::LoadViliComplexNode">
<polygon fill="none" stroke="black" points="490,-420.5 490,-450.5 623,-450.5 623,-420.5 490,-420.5"/>
<text text-anchor="start" x="498" y="-438.5" font-family="Helvetica,sans-Serif" font-size="10.00">obe::Bindings::ViliBindings</text>
<text text-anchor="middle" x="556.5" y="-427.5" font-family="Helvetica,sans-Serif" font-size="10.00">::LoadViliComplexNode</text>
</a>
</g>
</g>
<!-- Node30&#45;&gt;Node46 -->
<g id="edge28" class="edge"><title>Node30&#45;&gt;Node46</title>
<path fill="none" stroke="midnightblue" d="M428.401,-417.922C447.997,-420.633 469.794,-423.647 489.724,-426.403"/>
<polygon fill="midnightblue" stroke="midnightblue" points="428.761,-414.439 418.376,-416.536 427.802,-421.373 428.761,-414.439"/>
</g>
<!-- Node47 -->
<g id="node20" class="node"><title>Node47</title>
<g id="a_node20"><a xlink:href="namespaceobe_1_1_modes.html#a1e38c0d9a2ca0230f0de79c298f53ab9" target="_top" xlink:title="A mode that will start the Toolkit. ">
<polygon fill="none" stroke="black" points="483.5,-137 483.5,-156 629.5,-156 629.5,-137 483.5,-137"/>
<text text-anchor="middle" x="556.5" y="-144" font-family="Helvetica,sans-Serif" font-size="10.00">obe::Modes::startToolkitMode</text>
</a>
</g>
</g>
<!-- Node30&#45;&gt;Node47 -->
<g id="edge30" class="edge"><title>Node30&#45;&gt;Node47</title>
<path fill="none" stroke="midnightblue" d="M369.983,-389.821C376.925,-343.373 400.931,-226.346 472,-166.5 477.131,-162.179 483.038,-158.76 489.29,-156.058"/>
<polygon fill="midnightblue" stroke="midnightblue" points="366.506,-389.412 368.597,-399.799 373.44,-390.375 366.506,-389.412"/>
</g>
<!-- Node49 -->
<g id="node22" class="node"><title>Node49</title>
<g id="a_node22"><a xlink:href="namespaceobe_1_1_scene.html#ae5cbcc3278d9115d603e5024dec9136e" target="_top" xlink:title="obe::Scene::loadWorldScript\lEngineBaseLib">
<polygon fill="none" stroke="black" points="486,-175.5 486,-205.5 627,-205.5 627,-175.5 486,-175.5"/>
<text text-anchor="start" x="494" y="-193.5" font-family="Helvetica,sans-Serif" font-size="10.00">obe::Scene::loadWorldScript</text>
<text text-anchor="middle" x="556.5" y="-182.5" font-family="Helvetica,sans-Serif" font-size="10.00">EngineBaseLib</text>
</a>
</g>
</g>
<!-- Node30&#45;&gt;Node49 -->
<g id="edge34" class="edge"><title>Node30&#45;&gt;Node49</title>
<path fill="none" stroke="midnightblue" d="M372.589,-389.847C383.749,-350.694 414.116,-262.674 472,-215.5 476.692,-211.676 481.956,-208.437 487.5,-205.693"/>
<polygon fill="midnightblue" stroke="midnightblue" points="369.15,-389.155 369.891,-399.724 375.903,-391 369.15,-389.155"/>
</g>
<!-- Node51 -->
<g id="node24" class="node"><title>Node51</title>
<g id="a_node24"><a xlink:href="namespaceobe_1_1_script.html#aee6606178e25a578119fd378d21ca29f" target="_top" xlink:title="Initialize the Lua VM. ">
<polygon fill="none" stroke="black" points="679.5,-99 679.5,-118 817.5,-118 817.5,-99 679.5,-99"/>
<text text-anchor="middle" x="748.5" y="-106" font-family="Helvetica,sans-Serif" font-size="10.00">obe::Script::InitScriptEngine</text>
</a>
</g>
</g>
<!-- Node30&#45;&gt;Node51 -->
<g id="edge36" class="edge"><title>Node30&#45;&gt;Node51</title>
<path fill="none" stroke="midnightblue" d="M367.998,-389.799C370.507,-337.071 385.344,-192.341 472,-127.5 503.621,-103.839 608.644,-102.763 679.497,-105.003"/>
<polygon fill="midnightblue" stroke="midnightblue" points="364.499,-389.728 367.622,-399.852 371.494,-389.99 364.499,-389.728"/>
</g>
<!-- Node32 -->
<g id="node5" class="node"><title>Node32</title>
<g id="a_node5"><a xlink:href="namespaceobe_1_1_bindings.html#a41d33207a0199f125c75a0f70a4a3ba8" target="_top" xlink:title="To call when the engine starts, indexes all Lua bindings. ">
<polygon fill="none" stroke="black" points="677,-499 677,-518 820,-518 820,-499 677,-499"/>
<text text-anchor="middle" x="748.5" y="-506" font-family="Helvetica,sans-Serif" font-size="10.00">obe::Bindings::IndexBindings</text>
</a>
</g>
</g>
<!-- Node31&#45;&gt;Node32 -->
<g id="edge4" class="edge"><title>Node31&#45;&gt;Node32</title>
<path fill="none" stroke="midnightblue" d="M628.811,-405.422C633.02,-407.281 637.117,-409.303 641,-411.5 683.664,-435.636 723.427,-479.673 739.722,-498.99"/>
<polygon fill="midnightblue" stroke="midnightblue" points="630.038,-402.142 619.456,-401.609 627.396,-408.624 630.038,-402.142"/>
</g>
<!-- Node33 -->
<g id="node6" class="node"><title>Node33</title>
<g id="a_node6"><a xlink:href="_ob_engine_8cpp.html#a3c04138a5bfe5d72780bb7e82a18e627" target="_top" xlink:title="main">
<polygon fill="none" stroke="black" points="856,-156 856,-175 894,-175 894,-156 856,-156"/>
<text text-anchor="middle" x="875" y="-163" font-family="Helvetica,sans-Serif" font-size="10.00">main</text>
</a>
</g>
</g>
<!-- Node32&#45;&gt;Node33 -->
<g id="edge5" class="edge"><title>Node32&#45;&gt;Node33</title>
<path fill="none" stroke="midnightblue" d="M756.443,-489.371C779.574,-425.645 853.511,-221.947 870.498,-175.148"/>
<polygon fill="midnightblue" stroke="midnightblue" points="753.082,-488.374 752.96,-498.968 759.662,-490.762 753.082,-488.374"/>
</g>
<!-- Node34&#45;&gt;Node32 -->
<g id="edge7" class="edge"><title>Node34&#45;&gt;Node32</title>
<path fill="none" stroke="midnightblue" d="M632.444,-357.158C635.415,-358.8 638.282,-360.577 641,-362.5 694.017,-400.01 730.928,-472.317 743.115,-498.624"/>
<polygon fill="midnightblue" stroke="midnightblue" points="633.781,-353.915 623.265,-352.627 630.682,-360.192 633.781,-353.915"/>
</g>
<!-- Node35&#45;&gt;Node32 -->
<g id="edge9" class="edge"><title>Node35&#45;&gt;Node32</title>
<path fill="none" stroke="midnightblue" d="M633.859,-308.4C636.349,-309.973 638.74,-311.669 641,-313.5 705.14,-365.464 736.467,-466.815 745.02,-498.672"/>
<polygon fill="midnightblue" stroke="midnightblue" points="635.502,-305.309 625.06,-303.517 632.106,-311.43 635.502,-305.309"/>
</g>
<!-- Node36&#45;&gt;Node32 -->
<g id="edge11" class="edge"><title>Node36&#45;&gt;Node32</title>
<path fill="none" stroke="midnightblue" d="M635.494,-260.134C637.41,-261.497 639.252,-262.951 641,-264.5 716.76,-331.63 740.839,-462.471 746.217,-498.889"/>
<polygon fill="midnightblue" stroke="midnightblue" points="637.018,-256.963 626.664,-254.715 633.356,-262.929 637.018,-256.963"/>
</g>
<!-- Node37&#45;&gt;Node32 -->
<g id="edge13" class="edge"><title>Node37&#45;&gt;Node32</title>
<path fill="none" stroke="midnightblue" d="M635.493,-758.824C637.409,-757.476 639.251,-756.037 641,-754.5 717.553,-687.215 741.068,-555.021 746.266,-518.214"/>
<polygon fill="midnightblue" stroke="midnightblue" points="633.409,-755.993 626.661,-764.161 637.03,-761.984 633.409,-755.993"/>
</g>
<!-- Node38&#45;&gt;Node32 -->
<g id="edge15" class="edge"><title>Node38&#45;&gt;Node32</title>
<path fill="none" stroke="midnightblue" d="M636.057,-709.129C637.762,-707.985 639.414,-706.776 641,-705.5 706.127,-653.099 736.979,-549.764 745.191,-518.008"/>
<polygon fill="midnightblue" stroke="midnightblue" points="634.012,-706.27 627.137,-714.332 637.539,-712.317 634.012,-706.27"/>
</g>
<!-- Node41&#45;&gt;Node32 -->
<g id="edge19" class="edge"><title>Node41&#45;&gt;Node32</title>
<path fill="none" stroke="midnightblue" d="M634.263,-660.778C636.588,-659.444 638.842,-658.02 641,-656.5 694.838,-618.594 731.496,-544.582 743.35,-518.16"/>
<polygon fill="midnightblue" stroke="midnightblue" points="632.314,-657.842 624.985,-665.493 635.486,-664.083 632.314,-657.842"/>
</g>
<!-- Node42&#45;&gt;Node32 -->
<g id="edge21" class="edge"><title>Node42&#45;&gt;Node32</title>
<path fill="none" stroke="midnightblue" d="M630.986,-612.566C634.434,-611 637.791,-609.314 641,-607.5 684.076,-583.156 723.62,-538.057 739.79,-518.254"/>
<polygon fill="midnightblue" stroke="midnightblue" points="629.573,-609.363 621.687,-616.438 632.264,-615.825 629.573,-609.363"/>
</g>
<!-- Node43&#45;&gt;Node32 -->
<g id="edge23" class="edge"><title>Node43&#45;&gt;Node32</title>
<path fill="none" stroke="midnightblue" d="M624.158,-564.379C629.893,-562.507 635.573,-560.539 641,-558.5 672.932,-546.502 708.524,-528.88 729.412,-518.078"/>
<polygon fill="midnightblue" stroke="midnightblue" points="622.972,-561.083 614.492,-567.435 625.082,-567.758 622.972,-561.083"/>
</g>
<!-- Node44&#45;&gt;Node32 -->
<g id="edge25" class="edge"><title>Node44&#45;&gt;Node32</title>
<path fill="none" stroke="midnightblue" d="M633.481,-523.502C647.839,-521.613 662.801,-519.645 676.982,-517.779"/>
<polygon fill="midnightblue" stroke="midnightblue" points="632.611,-520.087 623.153,-524.861 633.524,-527.027 632.611,-520.087"/>
</g>
<!-- Node45&#45;&gt;Node32 -->
<g id="edge27" class="edge"><title>Node45&#45;&gt;Node32</title>
<path fill="none" stroke="midnightblue" d="M633.481,-494.098C647.839,-495.911 662.801,-497.801 676.982,-499.592"/>
<polygon fill="midnightblue" stroke="midnightblue" points="633.513,-490.574 623.153,-492.793 632.636,-497.519 633.513,-490.574"/>
</g>
<!-- Node46&#45;&gt;Node32 -->
<g id="edge29" class="edge"><title>Node46&#45;&gt;Node32</title>
<path fill="none" stroke="midnightblue" d="M621.46,-453.698C628.099,-455.87 634.713,-458.154 641,-460.5 672.161,-472.129 707.105,-488.557 728.196,-498.864"/>
<polygon fill="midnightblue" stroke="midnightblue" points="622.34,-450.305 611.749,-450.601 620.213,-456.974 622.34,-450.305"/>
</g>
<!-- Node47&#45;&gt;Node33 -->
<g id="edge33" class="edge"><title>Node47&#45;&gt;Node33</title>
<path fill="none" stroke="midnightblue" d="M639.855,-151.444C713.125,-155.842 814.835,-161.948 855.816,-164.408"/>
<polygon fill="midnightblue" stroke="midnightblue" points="639.907,-147.941 629.715,-150.835 639.487,-154.928 639.907,-147.941"/>
</g>
<!-- Node48 -->
<g id="node21" class="node"><title>Node48</title>
<g id="a_node21"><a xlink:href="namespaceobe_1_1_modes.html#a6a8b08eee511d4895c4da96d4ba223a6" target="_top" xlink:title="Starts the development Menu where you can starts other menus from. ">
<polygon fill="none" stroke="black" points="682,-175 682,-194 815,-194 815,-175 682,-175"/>
<text text-anchor="middle" x="748.5" y="-182" font-family="Helvetica,sans-Serif" font-size="10.00">obe::Modes::startDevMenu</text>
</a>
</g>
</g>
<!-- Node47&#45;&gt;Node48 -->
<g id="edge31" class="edge"><title>Node47&#45;&gt;Node48</title>
<path fill="none" stroke="midnightblue" d="M615.548,-158.11C642.57,-163.514 674.318,-169.864 699.9,-174.98"/>
<polygon fill="midnightblue" stroke="midnightblue" points="615.937,-154.618 605.445,-156.089 614.564,-161.482 615.937,-154.618"/>
</g>
<!-- Node48&#45;&gt;Node33 -->
<g id="edge32" class="edge"><title>Node48&#45;&gt;Node33</title>
<path fill="none" stroke="midnightblue" d="M822.187,-173.407C834.642,-171.506 846.523,-169.693 855.759,-168.284"/>
<polygon fill="midnightblue" stroke="midnightblue" points="821.472,-169.976 812.115,-174.944 822.528,-176.896 821.472,-169.976"/>
</g>
<!-- Node50 -->
<g id="node23" class="node"><title>Node50</title>
<g id="a_node23"><a xlink:href="classobe_1_1_scene_1_1_scene.html#a6671ed54f3898e54a2814d58ec8ffec5" target="_top" xlink:title="Creates a new Scene. ">
<polygon fill="none" stroke="black" points="695.5,-213.5 695.5,-243.5 801.5,-243.5 801.5,-213.5 695.5,-213.5"/>
<text text-anchor="start" x="703.5" y="-231.5" font-family="Helvetica,sans-Serif" font-size="10.00">obe::Scene::Scene::</text>
<text text-anchor="middle" x="748.5" y="-220.5" font-family="Helvetica,sans-Serif" font-size="10.00">Scene</text>
</a>
</g>
</g>
<!-- Node49&#45;&gt;Node50 -->
<g id="edge35" class="edge"><title>Node49&#45;&gt;Node50</title>
<path fill="none" stroke="midnightblue" d="M637.063,-206.413C656.77,-210.354 677.387,-214.477 695.399,-218.08"/>
<polygon fill="midnightblue" stroke="midnightblue" points="637.662,-202.963 627.17,-204.434 636.289,-209.827 637.662,-202.963"/>
</g>
<!-- Node51&#45;&gt;Node33 -->
<g id="edge37" class="edge"><title>Node51&#45;&gt;Node33</title>
<path fill="none" stroke="midnightblue" d="M791.963,-121.263C801.351,-124.55 811.137,-128.346 820,-132.5 834.326,-139.215 849.621,-148.817 860.262,-155.934"/>
<polygon fill="midnightblue" stroke="midnightblue" points="792.973,-117.91 782.379,-118.029 790.735,-124.543 792.973,-117.91"/>
</g>
<!-- Node52&#45;&gt;Node32 -->
<g id="edge40" class="edge"><title>Node52&#45;&gt;Node32</title>
<path fill="none" stroke="midnightblue" d="M420.313,-816.463C479.657,-833.09 576.152,-849.033 641,-803.5 740.597,-733.567 747.464,-560.891 747.602,-518.175"/>
<polygon fill="midnightblue" stroke="midnightblue" points="420.979,-813.012 410.399,-813.583 419.025,-819.734 420.979,-813.012"/>
</g>
</g>
</svg>
        <g id="navigator" transform="translate(0 0)" fill="#404254">
                <rect fill="#f2f5e9" fill-opacity="0.5" stroke="#606060" stroke-width=".5" x="0" y="0" width="60" height="60"/>
                <use id="zoomplus" xlink:href="#zoomPlus" x="17" y="9" onmousedown="handleZoom(evt,'in')"/>
                <use id="zoomminus" xlink:href="#zoomMin" x="42" y="9" onmousedown="handleZoom(evt,'out')"/>
                <use id="reset" xlink:href="#resetDef" x="30" y="36" onmousedown="handleReset()"/>
                <g id="arrowUp" xlink:href="#dirArrow" transform="translate(30 24)" onmousedown="handlePan(0,-1)">
                  <use xlink:href="#rim" fill="#404040">
                        <set attributeName="fill" to="#808080" begin="arrowUp.mouseover" end="arrowUp.mouseout"/>
                  </use>
                  <path fill="none" stroke="white" stroke-width="1.5" d="M0,-3.0v7 M-2.5,-0.5L0,-3.0L2.5,-0.5"/>
                </g>
                <g id="arrowRight" xlink:href="#dirArrow" transform="rotate(90) translate(36 -43)" onmousedown="handlePan(1,0)">
                  <use xlink:href="#rim" fill="#404040">
                        <set attributeName="fill" to="#808080" begin="arrowRight.mouseover" end="arrowRight.mouseout"/>
                  </use>
                  <path fill="none" stroke="white" stroke-width="1.5" d="M0,-3.0v7 M-2.5,-0.5L0,-3.0L2.5,-0.5"/>
                </g>
                <g id="arrowDown" xlink:href="#dirArrow" transform="rotate(180) translate(-30 -48)" onmousedown="handlePan(0,1)">
                  <use xlink:href="#rim" fill="#404040">
                        <set attributeName="fill" to="#808080" begin="arrowDown.mouseover" end="arrowDown.mouseout"/>
                  </use>
                  <path fill="none" stroke="white" stroke-width="1.5" d="M0,-3.0v7 M-2.5,-0.5L0,-3.0L2.5,-0.5"/>
                </g>
                <g id="arrowLeft" xlink:href="#dirArrow" transform="rotate(270) translate(-36 17)" onmousedown="handlePan(-1,0)">
                  <use xlink:href="#rim" fill="#404040">
                        <set attributeName="fill" to="#808080" begin="arrowLeft.mouseover" end="arrowLeft.mouseout"/>
                  </use>
                  <path fill="none" stroke="white" stroke-width="1.5" d="M0,-3.0v7 M-2.5,-0.5L0,-3.0L2.5,-0.5"/>
                </g>
        </g>
        <svg viewBox="0 0 15 15" width="100%" height="30px" preserveAspectRatio="xMaxYMin meet">
         <g id="arrow_out" transform="scale(0.3 0.3)">
          <a xlink:href="namespaceobe_1_1_utils_1_1_vector_aa91429dca9edd1a2e438eaa4928ab65c_icgraph_org.svg" target="_base">
           <rect id="button" ry="5" rx="5" y="6" x="6" height="38" width="38"
                fill="#f2f5e9" fill-opacity="0.5" stroke="#606060" stroke-width="1.0"/>
           <path id="arrow"
             d="M 11.500037,31.436501 C 11.940474,20.09759 22.043105,11.32322 32.158766,21.979434 L 37.068811,17.246167 C 37.068811,17.246167 37.088388,32 37.088388,32 L 22.160133,31.978069 C 22.160133,31.978069 26.997745,27.140456 26.997745,27.140456 C 18.528582,18.264221 13.291696,25.230495 11.500037,31.436501 z"
             style="fill:#404040;"/>
          </a>
         </g>
        </svg>
</svg>
