<?xml version="1.0" encoding="UTF-8" standalone="no"?>
<!DOCTYPE svg PUBLIC "-//W3C//DTD SVG 1.1//EN"
 "http://www.w3.org/Graphics/SVG/1.1/DTD/svg11.dtd">
<!-- Generated by graphviz version 2.38.0 (20140413.2041)
 -->
<!-- Title: obe::Input::Monitors::UpdateMonitors Pages: 1 -->
<!--zoomable 121 -->
<svg id="main" version="1.1" xmlns="http://www.w3.org/2000/svg" xmlns:xlink="http://www.w3.org/1999/xlink" xml:space="preserve" onload="init(evt)">
<style type="text/css"><![CDATA[
.edge:hover path { stroke: red; }
.edge:hover polygon { stroke: red; fill: red; }
.edge path { stroke: white; }
.edge polygon { stroke: white; fill: white; }
.node polygon { fill: white; }
]]></style>
<script type="text/javascript"><![CDATA[
var edges = document.getElementsByTagName('g');
if (edges && edges.length) {
  for (var i=0;i<edges.length;i++) {
    if (edges[i].id.substr(0,4)=='edge') {
      edges[i].setAttribute('class','edge');
    }
  }
}
]]></script>
        <defs>
                <circle id="rim" cx="0" cy="0" r="7"/>
                <circle id="rim2" cx="0" cy="0" r="3.5"/>
                <g id="zoomPlus">
                        <use xlink:href="#rim" fill="#404040">
                                <set attributeName="fill" to="#808080" begin="zoomplus.mouseover" end="zoomplus.mouseout"/>
                        </use>
                        <path d="M-4,0h8M0,-4v8" fill="none" stroke="white" stroke-width="1.5" pointer-events="none"/>
                </g>
                <g id="zoomMin">
                        <use xlink:href="#rim" fill="#404040">
                                <set attributeName="fill" to="#808080" begin="zoomminus.mouseover" end="zoomminus.mouseout"/>
                        </use>
                        <path d="M-4,0h8" fill="none" stroke="white" stroke-width="1.5" pointer-events="none"/>
                </g>
                <g id="dirArrow">
                        <path fill="none" stroke="white" stroke-width="1.5" d="M0,-3.0v7 M-2.5,-0.5L0,-3.0L2.5,-0.5"/>
                </g>
               <g id="resetDef">
                       <use xlink:href="#rim2" fill="#404040">
                               <set attributeName="fill" to="#808080" begin="reset.mouseover" end="reset.mouseout"/>
                       </use>
               </g>
        </defs>

<script type="text/javascript">
var viewWidth = 706;
var viewHeight = 121;
var sectionId = 'dynsection-3';
</script>
<script xlink:href="svgpan.js"/>
<svg id="graph" class="graph">
<g id="viewport">
<title>obe::Input::Monitors::UpdateMonitors</title>
<!-- Node21 -->
<g id="node1" class="node"><title>Node21</title>
<polygon fill="#bfbfbf" stroke="black" points="0,-57 0,-87 103,-87 103,-57 0,-57"/>
<text text-anchor="start" x="8" y="-75" font-family="Helvetica,sans-Serif" font-size="10.00">obe::Input::Monitors</text>
<text text-anchor="middle" x="51.5" y="-64" font-family="Helvetica,sans-Serif" font-size="10.00">::UpdateMonitors</text>
</g>
<!-- Node22 -->
<g id="node2" class="node"><title>Node22</title>
<g id="a_node2"><a xlink:href="namespaceobe_1_1_bindings_1_1_input_bindings.html#a21fb660e1561995f08b0d3374242edbe" target="_top" xlink:title="obe::Bindings::InputBindings\l::LoadInputFunctions">
<polygon fill="none" stroke="black" points="139,-82 139,-112 279,-112 279,-82 139,-82"/>
<text text-anchor="start" x="147" y="-100" font-family="Helvetica,sans-Serif" font-size="10.00">obe::Bindings::InputBindings</text>
<text text-anchor="middle" x="209" y="-89" font-family="Helvetica,sans-Serif" font-size="10.00">::LoadInputFunctions</text>
</a>
</g>
</g>
<!-- Node21&#45;&gt;Node22 -->
<g id="edge1" class="edge"><title>Node21&#45;&gt;Node22</title>
<path fill="none" stroke="midnightblue" d="M113.438,-81.7971C121.787,-83.1394 130.408,-84.5254 138.89,-85.889"/>
<polygon fill="midnightblue" stroke="midnightblue" points="113.845,-78.3177 103.417,-80.1859 112.734,-85.229 113.845,-78.3177"/>
</g>
<!-- Node23 -->
<g id="node3" class="node"><title>Node23</title>
<g id="a_node3"><a xlink:href="classobe_1_1_input_1_1_input_manager.html#ac19fc83f52179654aa43fc42e471eaf2" target="_top" xlink:title="Updates the KeyboardManager. ">
<polygon fill="none" stroke="black" points="147,-33 147,-63 271,-63 271,-33 147,-33"/>
<text text-anchor="start" x="155" y="-51" font-family="Helvetica,sans-Serif" font-size="10.00">obe::Input::InputManager</text>
<text text-anchor="middle" x="209" y="-40" font-family="Helvetica,sans-Serif" font-size="10.00">::update</text>
</a>
</g>
</g>
<!-- Node21&#45;&gt;Node23 -->
<g id="edge2" class="edge"><title>Node21&#45;&gt;Node23</title>
<path fill="none" stroke="midnightblue" d="M113.382,-62.6034C124.409,-60.9015 135.911,-59.1262 146.943,-57.4235"/>
<polygon fill="midnightblue" stroke="midnightblue" points="112.766,-59.157 103.417,-64.1415 113.833,-66.0751 112.766,-59.157"/>
</g>
<!-- Node24 -->
<g id="node4" class="node"><title>Node24</title>
<g id="a_node4"><a xlink:href="namespaceobe_1_1_bindings_1_1_input_bindings.html#a0e18c5fd5d863156b05c62dafface3b3" target="_top" xlink:title="obe::Bindings::InputBindings\l::LoadInputManager">
<polygon fill="none" stroke="black" points="315,-77 315,-107 455,-107 455,-77 315,-77"/>
<text text-anchor="start" x="323" y="-95" font-family="Helvetica,sans-Serif" font-size="10.00">obe::Bindings::InputBindings</text>
<text text-anchor="middle" x="385" y="-84" font-family="Helvetica,sans-Serif" font-size="10.00">::LoadInputManager</text>
</a>
</g>
</g>
<!-- Node23&#45;&gt;Node24 -->
<g id="edge3" class="edge"><title>Node23&#45;&gt;Node24</title>
<path fill="none" stroke="midnightblue" d="M279.147,-65.4855C294.181,-69.2873 309.959,-73.277 324.578,-76.9738"/>
<polygon fill="midnightblue" stroke="midnightblue" points="279.947,-62.0777 269.394,-63.0192 278.231,-68.8641 279.947,-62.0777"/>
</g>
<!-- Node25 -->
<g id="node5" class="node"><title>Node25</title>
<g id="a_node5"><a xlink:href="namespaceobe_1_1_editor.html#a9009207671e71dccb68a31ea2362e9ef" target="_top" xlink:title="Starts the map edition. ">
<polygon fill="none" stroke="black" points="333,-38.5 333,-57.5 437,-57.5 437,-38.5 333,-38.5"/>
<text text-anchor="middle" x="385" y="-45.5" font-family="Helvetica,sans-Serif" font-size="10.00">obe::Editor::editMap</text>
</a>
</g>
</g>
<!-- Node23&#45;&gt;Node25 -->
<g id="edge4" class="edge"><title>Node23&#45;&gt;Node25</title>
<path fill="none" stroke="midnightblue" d="M281.408,-48C298.7,-48 316.842,-48 332.979,-48"/>
<polygon fill="midnightblue" stroke="midnightblue" points="281.346,-44.5001 271.346,-48 281.346,-51.5001 281.346,-44.5001"/>
</g>
<!-- Node28 -->
<g id="node8" class="node"><title>Node28</title>
<g id="a_node8"><a xlink:href="namespaceobe_1_1_modes.html#a5f4a1008892030350b06282b8dee1a89" target="_top" xlink:title="Start the game by loading the boot.lua file in one of the MountedPaths. ">
<polygon fill="none" stroke="black" points="325.5,-0.5 325.5,-19.5 444.5,-19.5 444.5,-0.5 325.5,-0.5"/>
<text text-anchor="middle" x="385" y="-7.5" font-family="Helvetica,sans-Serif" font-size="10.00">obe::Modes::startGame</text>
</a>
</g>
</g>
<!-- Node23&#45;&gt;Node28 -->
<g id="edge8" class="edge"><title>Node23&#45;&gt;Node28</title>
<path fill="none" stroke="midnightblue" d="M281.371,-32.4132C301.385,-28.0422 322.541,-23.4221 340.411,-19.5195"/>
<polygon fill="midnightblue" stroke="midnightblue" points="280.369,-29.0495 271.346,-34.6026 281.862,-35.8883 280.369,-29.0495"/>
</g>
<!-- Node26 -->
<g id="node6" class="node"><title>Node26</title>
<g id="a_node6"><a xlink:href="namespaceobe_1_1_modes.html#a6a8b08eee511d4895c4da96d4ba223a6" target="_top" xlink:title="Starts the development Menu where you can starts other menus from. ">
<polygon fill="none" stroke="black" points="491,-19.5 491,-38.5 624,-38.5 624,-19.5 491,-19.5"/>
<text text-anchor="middle" x="557.5" y="-26.5" font-family="Helvetica,sans-Serif" font-size="10.00">obe::Modes::startDevMenu</text>
</a>
</g>
</g>
<!-- Node25&#45;&gt;Node26 -->
<g id="edge5" class="edge"><title>Node25&#45;&gt;Node26</title>
<path fill="none" stroke="midnightblue" d="M447.26,-41.1733C461.405,-39.5971 476.508,-37.9141 490.832,-36.3179"/>
<polygon fill="midnightblue" stroke="midnightblue" points="446.706,-37.7133 437.156,-42.2994 447.482,-44.6702 446.706,-37.7133"/>
</g>
<!-- Node27 -->
<g id="node7" class="node"><title>Node27</title>
<g id="a_node7"><a xlink:href="_ob_engine_8cpp.html#a3c04138a5bfe5d72780bb7e82a18e627" target="_top" xlink:title="main">
<polygon fill="none" stroke="black" points="660,-19.5 660,-38.5 698,-38.5 698,-19.5 660,-19.5"/>
<text text-anchor="middle" x="679" y="-26.5" font-family="Helvetica,sans-Serif" font-size="10.00">main</text>
</a>
</g>
</g>
<!-- Node25&#45;&gt;Node27 -->
<g id="edge7" class="edge"><title>Node25&#45;&gt;Node27</title>
<path fill="none" stroke="midnightblue" d="M447.02,-53.6187C495.384,-56.726 564.491,-58.1638 624,-48 636.344,-45.8918 649.618,-41.2561 659.917,-37.0917"/>
<polygon fill="midnightblue" stroke="midnightblue" points="447.241,-50.1257 437.025,-52.9338 446.762,-57.1093 447.241,-50.1257"/>
</g>
<!-- Node26&#45;&gt;Node27 -->
<g id="edge6" class="edge"><title>Node26&#45;&gt;Node27</title>
<path fill="none" stroke="midnightblue" d="M634.438,-29C643.719,-29 652.436,-29 659.598,-29"/>
<polygon fill="midnightblue" stroke="midnightblue" points="634.193,-25.5001 624.193,-29 634.193,-32.5001 634.193,-25.5001"/>
</g>
<!-- Node28&#45;&gt;Node26 -->
<g id="edge9" class="edge"><title>Node28&#45;&gt;Node26</title>
<path fill="none" stroke="midnightblue" d="M454.626,-17.6475C466.625,-18.9846 479.082,-20.3727 490.994,-21.7002"/>
<polygon fill="midnightblue" stroke="midnightblue" points="455.003,-14.1679 444.676,-16.5387 454.227,-21.1248 455.003,-14.1679"/>
</g>
<!-- Node28&#45;&gt;Node27 -->
<g id="edge10" class="edge"><title>Node28&#45;&gt;Node27</title>
<path fill="none" stroke="midnightblue" d="M454.896,-3.90191C502.697,-1.15403 567.651,-0.375938 624,-10 636.344,-12.1082 649.618,-16.7439 659.917,-20.9083"/>
<polygon fill="midnightblue" stroke="midnightblue" points="454.425,-0.42423 444.661,-4.53528 454.858,-7.41087 454.425,-0.42423"/>
</g>
</g>
</svg>
        <g id="navigator" transform="translate(0 0)" fill="#404254">
                <rect fill="#f2f5e9" fill-opacity="0.5" stroke="#606060" stroke-width=".5" x="0" y="0" width="60" height="60"/>
                <use id="zoomplus" xlink:href="#zoomPlus" x="17" y="9" onmousedown="handleZoom(evt,'in')"/>
                <use id="zoomminus" xlink:href="#zoomMin" x="42" y="9" onmousedown="handleZoom(evt,'out')"/>
                <use id="reset" xlink:href="#resetDef" x="30" y="36" onmousedown="handleReset()"/>
                <g id="arrowUp" xlink:href="#dirArrow" transform="translate(30 24)" onmousedown="handlePan(0,-1)">
                  <use xlink:href="#rim" fill="#404040">
                        <set attributeName="fill" to="#808080" begin="arrowUp.mouseover" end="arrowUp.mouseout"/>
                  </use>
                  <path fill="none" stroke="white" stroke-width="1.5" d="M0,-3.0v7 M-2.5,-0.5L0,-3.0L2.5,-0.5"/>
                </g>
                <g id="arrowRight" xlink:href="#dirArrow" transform="rotate(90) translate(36 -43)" onmousedown="handlePan(1,0)">
                  <use xlink:href="#rim" fill="#404040">
                        <set attributeName="fill" to="#808080" begin="arrowRight.mouseover" end="arrowRight.mouseout"/>
                  </use>
                  <path fill="none" stroke="white" stroke-width="1.5" d="M0,-3.0v7 M-2.5,-0.5L0,-3.0L2.5,-0.5"/>
                </g>
                <g id="arrowDown" xlink:href="#dirArrow" transform="rotate(180) translate(-30 -48)" onmousedown="handlePan(0,1)">
                  <use xlink:href="#rim" fill="#404040">
                        <set attributeName="fill" to="#808080" begin="arrowDown.mouseover" end="arrowDown.mouseout"/>
                  </use>
                  <path fill="none" stroke="white" stroke-width="1.5" d="M0,-3.0v7 M-2.5,-0.5L0,-3.0L2.5,-0.5"/>
                </g>
                <g id="arrowLeft" xlink:href="#dirArrow" transform="rotate(270) translate(-36 17)" onmousedown="handlePan(-1,0)">
                  <use xlink:href="#rim" fill="#404040">
                        <set attributeName="fill" to="#808080" begin="arrowLeft.mouseover" end="arrowLeft.mouseout"/>
                  </use>
                  <path fill="none" stroke="white" stroke-width="1.5" d="M0,-3.0v7 M-2.5,-0.5L0,-3.0L2.5,-0.5"/>
                </g>
        </g>
        <svg viewBox="0 0 15 15" width="100%" height="30px" preserveAspectRatio="xMaxYMin meet">
         <g id="arrow_out" transform="scale(0.3 0.3)">
          <a xlink:href="namespaceobe_1_1_input_1_1_monitors_a22df5919d920ce83f6f31322e3d6133e_icgraph_org.svg" target="_base">
           <rect id="button" ry="5" rx="5" y="6" x="6" height="38" width="38"
                fill="#f2f5e9" fill-opacity="0.5" stroke="#606060" stroke-width="1.0"/>
           <path id="arrow"
             d="M 11.500037,31.436501 C 11.940474,20.09759 22.043105,11.32322 32.158766,21.979434 L 37.068811,17.246167 C 37.068811,17.246167 37.088388,32 37.088388,32 L 22.160133,31.978069 C 22.160133,31.978069 26.997745,27.140456 26.997745,27.140456 C 18.528582,18.264221 13.291696,25.230495 11.500037,31.436501 z"
             style="fill:#404040;"/>
          </a>
         </g>
        </svg>
</svg>
