<?xml version="1.0" encoding="UTF-8" standalone="no"?>
<!DOCTYPE svg PUBLIC "-//W3C//DTD SVG 1.1//EN"
 "http://www.w3.org/Graphics/SVG/1.1/DTD/svg11.dtd">
<!-- Generated by graphviz version 2.38.0 (20140413.2041)
 -->
<!-- Title: obe::Bindings::InputBindings::LoadInputButtonMonitorPtr Pages: 1 -->
<svg width="331pt" height="88pt"
 viewBox="0.00 0.00 331.00 88.00" xmlns="http://www.w3.org/2000/svg" xmlns:xlink="http://www.w3.org/1999/xlink">
<g id="graph0" class="graph" transform="scale(1 1) rotate(0) translate(4 84)">
<title>obe::Bindings::InputBindings::LoadInputButtonMonitorPtr</title>
<!-- Node43 -->
<g id="node1" class="node"><title>Node43</title>
<polygon fill="#bfbfbf" stroke="black" points="0,-24.5 0,-54.5 140,-54.5 140,-24.5 0,-24.5"/>
<text text-anchor="start" x="8" y="-42.5" font-family="Helvetica,sans-Serif" font-size="10.00">obe::Bindings::InputBindings</text>
<text text-anchor="middle" x="70" y="-31.5" font-family="Helvetica,sans-Serif" font-size="10.00">::LoadInputButtonMonitorPtr</text>
</g>
<!-- Node44 -->
<g id="node2" class="node"><title>Node44</title>
<g id="a_node2"><a xlink:href="classobe_1_1_input_1_1_input_button_monitor_ptr.html#ab973f51eb368f64f97c0340c425b1de8" target="_top" xlink:title="obe::Input::InputButtonMonitor\lPtr::getButton">
<polygon fill="white" stroke="black" points="176,-49.5 176,-79.5 323,-79.5 323,-49.5 176,-49.5"/>
<text text-anchor="start" x="184" y="-67.5" font-family="Helvetica,sans-Serif" font-size="10.00">obe::Input::InputButtonMonitor</text>
<text text-anchor="middle" x="249.5" y="-56.5" font-family="Helvetica,sans-Serif" font-size="10.00">Ptr::getButton</text>
</a>
</g>
</g>
<!-- Node43&#45;&gt;Node44 -->
<g id="edge1" class="edge"><title>Node43&#45;&gt;Node44</title>
<path fill="none" stroke="midnightblue" d="M140.134,-49.2372C148.53,-50.4197 157.172,-51.637 165.74,-52.8436"/>
<polygon fill="midnightblue" stroke="midnightblue" points="165.353,-56.3237 175.744,-54.2526 166.33,-49.3921 165.353,-56.3237"/>
</g>
<!-- Node45 -->
<g id="node3" class="node"><title>Node45</title>
<g id="a_node3"><a xlink:href="classobe_1_1_input_1_1_input_button_monitor_ptr.html#af42a8a955737d6e3391daf2cdca89f1a" target="_top" xlink:title="obe::Input::InputButtonMonitor\lPtr::getState">
<polygon fill="white" stroke="black" points="176,-0.5 176,-30.5 323,-30.5 323,-0.5 176,-0.5"/>
<text text-anchor="start" x="184" y="-18.5" font-family="Helvetica,sans-Serif" font-size="10.00">obe::Input::InputButtonMonitor</text>
<text text-anchor="middle" x="249.5" y="-7.5" font-family="Helvetica,sans-Serif" font-size="10.00">Ptr::getState</text>
</a>
</g>
</g>
<!-- Node43&#45;&gt;Node45 -->
<g id="edge2" class="edge"><title>Node43&#45;&gt;Node45</title>
<path fill="none" stroke="midnightblue" d="M140.134,-30.1523C148.53,-29.0171 157.172,-27.8485 165.74,-26.6901"/>
<polygon fill="midnightblue" stroke="midnightblue" points="166.303,-30.1459 175.744,-25.3375 165.365,-23.209 166.303,-30.1459"/>
</g>
</g>
</svg>
