<?xml version="1.0" encoding="UTF-8" standalone="no"?>
<!DOCTYPE svg PUBLIC "-//W3C//DTD SVG 1.1//EN"
 "http://www.w3.org/Graphics/SVG/1.1/DTD/svg11.dtd">
<!-- Generated by graphviz version 2.38.0 (20140413.2041)
 -->
<!-- Title: obe::Modes::chooseMapAddMaps Pages: 1 -->
<svg width="987pt" height="306pt"
 viewBox="0.00 0.00 987.00 306.00" xmlns="http://www.w3.org/2000/svg" xmlns:xlink="http://www.w3.org/1999/xlink">
<g id="graph0" class="graph" transform="scale(1 1) rotate(0) translate(4 302)">
<title>obe::Modes::chooseMapAddMaps</title>
<!-- Node0 -->
<g id="node1" class="node"><title>Node0</title>
<polygon fill="#bfbfbf" stroke="black" points="0,-113 0,-132 165,-132 165,-113 0,-113"/>
<text text-anchor="middle" x="82.5" y="-120" font-family="Helvetica,sans-Serif" font-size="10.00">obe::Modes::chooseMapAddMaps</text>
</g>
<!-- Node1 -->
<g id="node2" class="node"><title>Node1</title>
<g id="a_node2"><a xlink:href="classobe_1_1_system_1_1_path.html#a096ad4fa7397aa42fd73661b08f50e2a" target="_top" xlink:title="obe::System::Path::\lloadResource">
<polygon fill="white" stroke="black" points="209,-208.5 209,-238.5 313,-238.5 313,-208.5 209,-208.5"/>
<text text-anchor="start" x="217" y="-226.5" font-family="Helvetica,sans-Serif" font-size="10.00">obe::System::Path::</text>
<text text-anchor="middle" x="261" y="-215.5" font-family="Helvetica,sans-Serif" font-size="10.00">loadResource</text>
</a>
</g>
</g>
<!-- Node0&#45;&gt;Node1 -->
<g id="edge1" class="edge"><title>Node0&#45;&gt;Node1</title>
<path fill="none" stroke="midnightblue" d="M98.5021,-132.05C120.641,-146.031 163.495,-172.67 201,-193.5 207.075,-196.874 213.571,-200.328 219.952,-203.635"/>
<polygon fill="midnightblue" stroke="midnightblue" points="218.658,-206.905 229.154,-208.351 221.85,-200.675 218.658,-206.905"/>
</g>
<!-- Node7 -->
<g id="node8" class="node"><title>Node7</title>
<g id="a_node8"><a xlink:href="classobe_1_1_system_1_1_path.html#ab3b53b3bb2e98d5e23c35692a52eb66c" target="_top" xlink:title="Returns a new Path which is the current one concatened with the given string. ">
<polygon fill="white" stroke="black" points="201,-94 201,-113 321,-113 321,-94 201,-94"/>
<text text-anchor="middle" x="261" y="-101" font-family="Helvetica,sans-Serif" font-size="10.00">obe::System::Path::add</text>
</a>
</g>
</g>
<!-- Node0&#45;&gt;Node7 -->
<g id="edge7" class="edge"><title>Node0&#45;&gt;Node7</title>
<path fill="none" stroke="midnightblue" d="M165.034,-113.723C173.638,-112.797 182.329,-111.861 190.775,-110.952"/>
<polygon fill="midnightblue" stroke="midnightblue" points="191.367,-114.409 200.935,-109.858 190.618,-107.449 191.367,-114.409"/>
</g>
<!-- Node9 -->
<g id="node10" class="node"><title>Node9</title>
<g id="a_node10"><a xlink:href="classvili_1_1_complex_node.html#a69e5169f4f0b1aa72d9a3d7c0ee91e6f" target="_top" xlink:title="Checks if the ComplexNode contains a Node with the given Id. ">
<polygon fill="white" stroke="black" points="211,-44.5 211,-74.5 311,-74.5 311,-44.5 211,-44.5"/>
<text text-anchor="start" x="219" y="-62.5" font-family="Helvetica,sans-Serif" font-size="10.00">vili::ComplexNode::</text>
<text text-anchor="middle" x="261" y="-51.5" font-family="Helvetica,sans-Serif" font-size="10.00">contains</text>
</a>
</g>
</g>
<!-- Node0&#45;&gt;Node9 -->
<g id="edge9" class="edge"><title>Node0&#45;&gt;Node9</title>
<path fill="none" stroke="midnightblue" d="M110.307,-112.932C136.176,-103.698 176.028,-89.4729 208.111,-78.0213"/>
<polygon fill="midnightblue" stroke="midnightblue" points="209.553,-81.2231 217.794,-74.565 207.199,-74.6305 209.553,-81.2231"/>
</g>
<!-- Node10 -->
<g id="node11" class="node"><title>Node10</title>
<g id="a_node11"><a xlink:href="classvili_1_1_vili_parser.html#a19dd443cd86f2c4943beb5de092aa4c1" target="_top" xlink:title="Access a ComplexNode in the tree using a path with slash&#45;separation (.at(&quot;NodeA/NodeB/NodeC&quot;) for exa...">
<polygon fill="white" stroke="black" points="216.5,-6 216.5,-25 305.5,-25 305.5,-6 216.5,-6"/>
<text text-anchor="middle" x="261" y="-13" font-family="Helvetica,sans-Serif" font-size="10.00">vili::ViliParser::at</text>
</a>
</g>
</g>
<!-- Node0&#45;&gt;Node10 -->
<g id="edge10" class="edge"><title>Node0&#45;&gt;Node10</title>
<path fill="none" stroke="midnightblue" d="M93.7093,-112.964C113.173,-95.237 157.533,-56.9741 201,-34.5 205.257,-32.2991 209.818,-30.289 214.449,-28.4699"/>
<polygon fill="midnightblue" stroke="midnightblue" points="215.775,-31.7118 223.976,-25.0042 213.382,-25.1334 215.775,-31.7118"/>
</g>
<!-- Node12 -->
<g id="node13" class="node"><title>Node12</title>
<g id="a_node13"><a xlink:href="classvili_1_1_complex_node.html#a2a280e0b84d7b5b22a49b0938977ab0b" target="_top" xlink:title="Get a DataNode contained in the ComplexNode. ">
<polygon fill="white" stroke="black" points="531,-170.5 531,-200.5 631,-200.5 631,-170.5 531,-170.5"/>
<text text-anchor="start" x="539" y="-188.5" font-family="Helvetica,sans-Serif" font-size="10.00">vili::ComplexNode::</text>
<text text-anchor="middle" x="581" y="-177.5" font-family="Helvetica,sans-Serif" font-size="10.00">getDataNode</text>
</a>
</g>
</g>
<!-- Node0&#45;&gt;Node12 -->
<g id="edge12" class="edge"><title>Node0&#45;&gt;Node12</title>
<path fill="none" stroke="midnightblue" d="M107.348,-132.14C130.77,-141.144 167.731,-154.125 201,-160.5 312.492,-181.864 445.424,-185.8 520.542,-186.087"/>
<polygon fill="midnightblue" stroke="midnightblue" points="520.744,-189.587 530.75,-186.104 520.756,-182.587 520.744,-189.587"/>
</g>
<!-- Node18 -->
<g id="node19" class="node"><title>Node18</title>
<g id="a_node19"><a xlink:href="classvili_1_1_data_node.html#a623be71b43a8906703721f18c89ef178" target="_top" xlink:title="Template method (overloaded by Template specialisation) to get the contained Data. ">
<polygon fill="white" stroke="black" points="213.5,-132 213.5,-151 308.5,-151 308.5,-132 213.5,-132"/>
<text text-anchor="middle" x="261" y="-139" font-family="Helvetica,sans-Serif" font-size="10.00">vili::DataNode::get</text>
</a>
</g>
</g>
<!-- Node0&#45;&gt;Node18 -->
<g id="edge19" class="edge"><title>Node0&#45;&gt;Node18</title>
<path fill="none" stroke="midnightblue" d="M165.034,-131.277C178.018,-132.675 191.197,-134.093 203.438,-135.411"/>
<polygon fill="midnightblue" stroke="midnightblue" points="203.158,-138.901 213.475,-136.492 203.907,-131.941 203.158,-138.901"/>
</g>
<!-- Node2 -->
<g id="node3" class="node"><title>Node2</title>
<g id="a_node3"><a xlink:href="namespaceobe_1_1_utils_1_1_file.html#a1095626f5495edc7b8692073dd25cceb" target="_top" xlink:title="Check if the file at the given path exists. ">
<polygon fill="white" stroke="black" points="357,-208 357,-227 482,-227 482,-208 357,-208"/>
<text text-anchor="middle" x="419.5" y="-215" font-family="Helvetica,sans-Serif" font-size="10.00">obe::Utils::File::fileExists</text>
</a>
</g>
</g>
<!-- Node1&#45;&gt;Node2 -->
<g id="edge2" class="edge"><title>Node1&#45;&gt;Node2</title>
<path fill="none" stroke="midnightblue" d="M313.244,-221.535C323.891,-221.127 335.299,-220.69 346.532,-220.259"/>
<polygon fill="midnightblue" stroke="midnightblue" points="346.915,-223.747 356.773,-219.867 346.647,-216.752 346.915,-223.747"/>
</g>
<!-- Node3 -->
<g id="node4" class="node"><title>Node3</title>
<g id="a_node4"><a xlink:href="classaube_1_1_error_handler.html#a7c8d44a3e7f019646d289950abc5301b" target="_top" xlink:title="Raises an Error loaded in the Aube Error Database (AED) ">
<polygon fill="white" stroke="black" points="701.5,-182.5 701.5,-212.5 799.5,-212.5 799.5,-182.5 701.5,-182.5"/>
<text text-anchor="start" x="709.5" y="-200.5" font-family="Helvetica,sans-Serif" font-size="10.00">aube::ErrorHandler</text>
<text text-anchor="middle" x="750.5" y="-189.5" font-family="Helvetica,sans-Serif" font-size="10.00">::Raise</text>
</a>
</g>
</g>
<!-- Node1&#45;&gt;Node3 -->
<g id="edge3" class="edge"><title>Node1&#45;&gt;Node3</title>
<path fill="none" stroke="midnightblue" d="M313.144,-231.798C327.309,-233.741 342.717,-235.527 357,-236.5 412.427,-240.275 426.59,-240.518 482,-236.5 554.559,-231.238 637.324,-218.05 691.332,-208.463"/>
<polygon fill="midnightblue" stroke="midnightblue" points="692.18,-211.867 701.406,-206.657 690.945,-204.977 692.18,-211.867"/>
</g>
<!-- Node4 -->
<g id="node5" class="node"><title>Node4</title>
<g id="a_node5"><a xlink:href="classaube_1_1_error_message.html#a9184cc96589578f434351c105b0cd5f7" target="_top" xlink:title="Gets the location of the error in the code. ">
<polygon fill="white" stroke="black" points="866,-267.5 866,-297.5 970,-297.5 970,-267.5 866,-267.5"/>
<text text-anchor="start" x="874" y="-285.5" font-family="Helvetica,sans-Serif" font-size="10.00">aube::ErrorMessage</text>
<text text-anchor="middle" x="918" y="-274.5" font-family="Helvetica,sans-Serif" font-size="10.00">::getLocation</text>
</a>
</g>
</g>
<!-- Node3&#45;&gt;Node4 -->
<g id="edge4" class="edge"><title>Node3&#45;&gt;Node4</title>
<path fill="none" stroke="midnightblue" d="M775.267,-212.563C796.306,-225.574 828.076,-244.443 857,-258.5 860.377,-260.141 863.897,-261.764 867.464,-263.344"/>
<polygon fill="midnightblue" stroke="midnightblue" points="866.382,-266.688 876.952,-267.413 869.141,-260.255 866.382,-266.688"/>
</g>
<!-- Node5 -->
<g id="node6" class="node"><title>Node5</title>
<g id="a_node6"><a xlink:href="classaube_1_1_error_message.html#a07927cb3e2d0712c459cc9e2b5f52696" target="_top" xlink:title="Gets the message displayed by the ErrorMessage when raised. ">
<polygon fill="white" stroke="black" points="866,-218.5 866,-248.5 970,-248.5 970,-218.5 866,-218.5"/>
<text text-anchor="start" x="874" y="-236.5" font-family="Helvetica,sans-Serif" font-size="10.00">aube::ErrorMessage</text>
<text text-anchor="middle" x="918" y="-225.5" font-family="Helvetica,sans-Serif" font-size="10.00">::getMessage</text>
</a>
</g>
</g>
<!-- Node3&#45;&gt;Node5 -->
<g id="edge5" class="edge"><title>Node3&#45;&gt;Node5</title>
<path fill="none" stroke="midnightblue" d="M799.814,-208.009C817.364,-211.827 837.429,-216.191 855.937,-220.217"/>
<polygon fill="midnightblue" stroke="midnightblue" points="855.225,-223.644 865.741,-222.35 856.713,-216.804 855.225,-223.644"/>
</g>
<!-- Node6 -->
<g id="node7" class="node"><title>Node6</title>
<g id="a_node7"><a xlink:href="classaube_1_1_error_message.html#a77c2f9b7e93542c958173b52da267989" target="_top" xlink:title="Gets hints that can help the error resolution. ">
<polygon fill="white" stroke="black" points="866,-169.5 866,-199.5 970,-199.5 970,-169.5 866,-169.5"/>
<text text-anchor="start" x="874" y="-187.5" font-family="Helvetica,sans-Serif" font-size="10.00">aube::ErrorMessage</text>
<text text-anchor="middle" x="918" y="-176.5" font-family="Helvetica,sans-Serif" font-size="10.00">::getHints</text>
</a>
</g>
</g>
<!-- Node3&#45;&gt;Node6 -->
<g id="edge6" class="edge"><title>Node3&#45;&gt;Node6</title>
<path fill="none" stroke="midnightblue" d="M799.814,-193.705C817.283,-192.333 837.244,-190.765 855.681,-189.317"/>
<polygon fill="midnightblue" stroke="midnightblue" points="856.046,-192.799 865.741,-188.526 855.497,-185.82 856.046,-192.799"/>
</g>
<!-- Node8 -->
<g id="node9" class="node"><title>Node8</title>
<g id="a_node9"><a xlink:href="classobe_1_1_system_1_1_path.html#afce5029aa92ba41d0f201f1ac67a21e0" target="_top" xlink:title="Default constructor of Path. ">
<polygon fill="white" stroke="black" points="357,-56 357,-75 482,-75 482,-56 357,-56"/>
<text text-anchor="middle" x="419.5" y="-63" font-family="Helvetica,sans-Serif" font-size="10.00">obe::System::Path::Path</text>
</a>
</g>
</g>
<!-- Node7&#45;&gt;Node8 -->
<g id="edge8" class="edge"><title>Node7&#45;&gt;Node8</title>
<path fill="none" stroke="midnightblue" d="M301.492,-93.911C322.143,-88.8965 347.614,-82.7119 369.512,-77.3947"/>
<polygon fill="midnightblue" stroke="midnightblue" points="370.401,-80.7809 379.292,-75.0201 368.749,-73.9785 370.401,-80.7809"/>
</g>
<!-- Node11 -->
<g id="node12" class="node"><title>Node11</title>
<g id="a_node12"><a xlink:href="namespacevili_1_1_functions_1_1_string.html#ad7421099a2ab911f64f06d89abc7d7cf" target="_top" xlink:title="vili::Functions::String\l::extract">
<polygon fill="white" stroke="black" points="366,-0.5 366,-30.5 473,-30.5 473,-0.5 366,-0.5"/>
<text text-anchor="start" x="374" y="-18.5" font-family="Helvetica,sans-Serif" font-size="10.00">vili::Functions::String</text>
<text text-anchor="middle" x="419.5" y="-7.5" font-family="Helvetica,sans-Serif" font-size="10.00">::extract</text>
</a>
</g>
</g>
<!-- Node10&#45;&gt;Node11 -->
<g id="edge11" class="edge"><title>Node10&#45;&gt;Node11</title>
<path fill="none" stroke="midnightblue" d="M305.594,-15.5C321.098,-15.5 338.877,-15.5 355.669,-15.5"/>
<polygon fill="midnightblue" stroke="midnightblue" points="355.968,-19.0001 365.968,-15.5 355.968,-12.0001 355.968,-19.0001"/>
</g>
<!-- Node12&#45;&gt;Node3 -->
<g id="edge13" class="edge"><title>Node12&#45;&gt;Node3</title>
<path fill="none" stroke="midnightblue" d="M631.35,-189.035C650.168,-190.384 671.791,-191.933 691.352,-193.334"/>
<polygon fill="midnightblue" stroke="midnightblue" points="691.143,-196.828 701.368,-194.052 691.644,-189.846 691.143,-196.828"/>
</g>
<!-- Node13 -->
<g id="node14" class="node"><title>Node13</title>
<g id="a_node14"><a xlink:href="classvili_1_1_node.html#a5a6ad518f51d824e06ae7be0328f4864" target="_top" xlink:title="Get the Node Path (Example : GrandParent/Parent/Node) ">
<polygon fill="white" stroke="black" points="691.5,-82 691.5,-101 809.5,-101 809.5,-82 691.5,-82"/>
<text text-anchor="middle" x="750.5" y="-89" font-family="Helvetica,sans-Serif" font-size="10.00">vili::Node::getNodePath</text>
</a>
</g>
</g>
<!-- Node12&#45;&gt;Node13 -->
<g id="edge14" class="edge"><title>Node12&#45;&gt;Node13</title>
<path fill="none" stroke="midnightblue" d="M622.541,-170.488C629.8,-167.425 637.21,-164.046 644,-160.5 674.724,-144.456 707.811,-121.855 728.579,-106.95"/>
<polygon fill="midnightblue" stroke="midnightblue" points="730.64,-109.779 736.682,-101.075 726.531,-104.112 730.64,-109.779"/>
</g>
<!-- Node14 -->
<g id="node15" class="node"><title>Node14</title>
<g id="a_node15"><a xlink:href="classvili_1_1_node.html#a58273048e22a9ebd74e576fd8905f709" target="_top" xlink:title="vili::Node::getParent">
<polygon fill="white" stroke="black" points="866,-82 866,-101 970,-101 970,-82 866,-82"/>
<text text-anchor="middle" x="918" y="-89" font-family="Helvetica,sans-Serif" font-size="10.00">vili::Node::getParent</text>
</a>
</g>
</g>
<!-- Node13&#45;&gt;Node14 -->
<g id="edge15" class="edge"><title>Node13&#45;&gt;Node14</title>
<path fill="none" stroke="midnightblue" d="M809.849,-91.5C824.669,-91.5 840.637,-91.5 855.603,-91.5"/>
<polygon fill="midnightblue" stroke="midnightblue" points="855.779,-95.0001 865.779,-91.5 855.779,-88.0001 855.779,-95.0001"/>
</g>
<!-- Node15 -->
<g id="node16" class="node"><title>Node15</title>
<g id="a_node16"><a xlink:href="classvili_1_1_node.html#ab03908ab3d62e3bfddaf9e7306fdf3b3" target="_top" xlink:title="Gets the id of the Node. ">
<polygon fill="white" stroke="black" points="876.5,-44 876.5,-63 959.5,-63 959.5,-44 876.5,-44"/>
<text text-anchor="middle" x="918" y="-51" font-family="Helvetica,sans-Serif" font-size="10.00">vili::Node::getId</text>
</a>
</g>
</g>
<!-- Node13&#45;&gt;Node15 -->
<g id="edge16" class="edge"><title>Node13&#45;&gt;Node15</title>
<path fill="none" stroke="midnightblue" d="M793.263,-81.911C815.55,-76.7936 843.145,-70.4576 866.616,-65.0685"/>
<polygon fill="midnightblue" stroke="midnightblue" points="867.432,-68.4724 876.395,-62.8232 865.865,-61.6499 867.432,-68.4724"/>
</g>
<!-- Node16 -->
<g id="node17" class="node"><title>Node16</title>
<g id="a_node17"><a xlink:href="classvili_1_1_node.html#ad3c91cfe2721eaf9841721d1ec8ee0d8" target="_top" xlink:title="Gets the Node annotation. ">
<polygon fill="white" stroke="black" points="857,-6 857,-25 979,-25 979,-6 857,-6"/>
<text text-anchor="middle" x="918" y="-13" font-family="Helvetica,sans-Serif" font-size="10.00">vili::Node::getAnnotation</text>
</a>
</g>
</g>
<!-- Node13&#45;&gt;Node16 -->
<g id="edge17" class="edge"><title>Node13&#45;&gt;Node16</title>
<path fill="none" stroke="midnightblue" d="M800.014,-81.9235C807.323,-79.4488 814.561,-76.3564 821,-72.5 840.958,-60.5461 837.283,-46.8488 857,-34.5 860.342,-32.4066 863.935,-30.5259 867.641,-28.8394"/>
<polygon fill="midnightblue" stroke="midnightblue" points="869.058,-32.0413 877.008,-25.0369 866.425,-25.5554 869.058,-32.0413"/>
</g>
<!-- Node17 -->
<g id="node18" class="node"><title>Node17</title>
<g id="a_node18"><a xlink:href="namespacevili_1_1_functions_1_1_vector.html#a10836e1fe04648534cfc59d9de9acd72" target="_top" xlink:title="vili::Functions::Vector\l::join">
<polygon fill="white" stroke="black" points="863,-120.5 863,-150.5 973,-150.5 973,-120.5 863,-120.5"/>
<text text-anchor="start" x="871" y="-138.5" font-family="Helvetica,sans-Serif" font-size="10.00">vili::Functions::Vector</text>
<text text-anchor="middle" x="918" y="-127.5" font-family="Helvetica,sans-Serif" font-size="10.00">::join</text>
</a>
</g>
</g>
<!-- Node13&#45;&gt;Node17 -->
<g id="edge18" class="edge"><title>Node13&#45;&gt;Node17</title>
<path fill="none" stroke="midnightblue" d="M787.411,-101.047C806.624,-106.155 830.859,-112.599 853.159,-118.527"/>
<polygon fill="midnightblue" stroke="midnightblue" points="852.346,-121.932 862.909,-121.119 854.144,-115.167 852.346,-121.932"/>
</g>
<!-- Node19 -->
<g id="node20" class="node"><title>Node19</title>
<g id="a_node20"><a xlink:href="classvili_1_1_data_node.html#a7f30e8836aedbe34f8936b5d30da5413" target="_top" xlink:title="Copies the DataNode into a new ContainerNode. ">
<polygon fill="white" stroke="black" points="368,-94 368,-113 471,-113 471,-94 368,-94"/>
<text text-anchor="middle" x="419.5" y="-101" font-family="Helvetica,sans-Serif" font-size="10.00">vili::DataNode::copy</text>
</a>
</g>
</g>
<!-- Node18&#45;&gt;Node19 -->
<g id="edge20" class="edge"><title>Node18&#45;&gt;Node19</title>
<path fill="none" stroke="midnightblue" d="M301.492,-131.911C322.143,-126.896 347.614,-120.712 369.512,-115.395"/>
<polygon fill="midnightblue" stroke="midnightblue" points="370.401,-118.781 379.292,-113.02 368.749,-111.979 370.401,-118.781"/>
</g>
<!-- Node23 -->
<g id="node24" class="node"><title>Node23</title>
<g id="a_node24"><a xlink:href="classvili_1_1_data_node.html#ac00a0ebfb6c627d51262dd140a5dff14" target="_top" xlink:title="Writes the DataNode to a file. ">
<polygon fill="white" stroke="black" points="368.5,-132 368.5,-151 470.5,-151 470.5,-132 368.5,-132"/>
<text text-anchor="middle" x="419.5" y="-139" font-family="Helvetica,sans-Serif" font-size="10.00">vili::DataNode::write</text>
</a>
</g>
</g>
<!-- Node18&#45;&gt;Node23 -->
<g id="edge26" class="edge"><title>Node18&#45;&gt;Node23</title>
<path fill="none" stroke="midnightblue" d="M308.531,-141.5C324.126,-141.5 341.744,-141.5 358.235,-141.5"/>
<polygon fill="midnightblue" stroke="midnightblue" points="358.329,-145 368.329,-141.5 358.329,-138 358.329,-145"/>
</g>
<!-- Node20 -->
<g id="node21" class="node"><title>Node20</title>
<g id="a_node21"><a xlink:href="classvili_1_1_node.html#a9d438d0731569aeeb9cae121796c1d41" target="_top" xlink:title="Returns the ClassType of the Node (All Types in vili::NodeType) ">
<polygon fill="white" stroke="black" points="533,-94 533,-113 629,-113 629,-94 533,-94"/>
<text text-anchor="middle" x="581" y="-101" font-family="Helvetica,sans-Serif" font-size="10.00">vili::Node::getType</text>
</a>
</g>
</g>
<!-- Node19&#45;&gt;Node20 -->
<g id="edge21" class="edge"><title>Node19&#45;&gt;Node20</title>
<path fill="none" stroke="midnightblue" d="M471.405,-103.5C487.713,-103.5 505.881,-103.5 522.619,-103.5"/>
<polygon fill="midnightblue" stroke="midnightblue" points="522.826,-107 532.826,-103.5 522.826,-100 522.826,-107"/>
</g>
<!-- Node21 -->
<g id="node22" class="node"><title>Node21</title>
<g id="a_node22"><a xlink:href="classvili_1_1_data_node.html#a27dadd644c19ee34b95fa998764b225f" target="_top" xlink:title="Sets an Int value. ">
<polygon fill="white" stroke="black" points="533.5,-56 533.5,-75 628.5,-75 628.5,-56 533.5,-56"/>
<text text-anchor="middle" x="581" y="-63" font-family="Helvetica,sans-Serif" font-size="10.00">vili::DataNode::set</text>
</a>
</g>
</g>
<!-- Node19&#45;&gt;Node21 -->
<g id="edge22" class="edge"><title>Node19&#45;&gt;Node21</title>
<path fill="none" stroke="midnightblue" d="M460.749,-93.911C481.796,-88.8965 507.755,-82.7119 530.073,-77.3947"/>
<polygon fill="midnightblue" stroke="midnightblue" points="531.124,-80.7424 540.041,-75.0201 529.502,-73.933 531.124,-80.7424"/>
</g>
<!-- Node21&#45;&gt;Node3 -->
<g id="edge23" class="edge"><title>Node21&#45;&gt;Node3</title>
<path fill="none" stroke="midnightblue" d="M624.002,-75.0878C630.96,-77.585 637.89,-80.6817 644,-84.5 681.666,-108.038 714.721,-148.365 733.387,-173.939"/>
<polygon fill="midnightblue" stroke="midnightblue" points="730.712,-176.215 739.373,-182.318 736.407,-172.146 730.712,-176.215"/>
</g>
<!-- Node21&#45;&gt;Node13 -->
<g id="edge24" class="edge"><title>Node21&#45;&gt;Node13</title>
<path fill="none" stroke="midnightblue" d="M628.658,-72.7424C644.923,-75.2671 663.527,-78.1549 681.182,-80.8955"/>
<polygon fill="midnightblue" stroke="midnightblue" points="681.025,-84.4129 691.444,-82.4883 682.099,-77.4957 681.025,-84.4129"/>
</g>
<!-- Node22 -->
<g id="node23" class="node"><title>Node22</title>
<g id="a_node23"><a xlink:href="namespacevili_1_1_types.html#ac195a27b2ff3164cfb8aeba0222fad03" target="_top" xlink:title="Converts a DataType to its name (in a std::string) ">
<polygon fill="white" stroke="black" points="680,-44 680,-63 821,-63 821,-44 680,-44"/>
<text text-anchor="middle" x="750.5" y="-51" font-family="Helvetica,sans-Serif" font-size="10.00">vili::Types::dataTypeToString</text>
</a>
</g>
</g>
<!-- Node21&#45;&gt;Node22 -->
<g id="edge25" class="edge"><title>Node21&#45;&gt;Node22</title>
<path fill="none" stroke="midnightblue" d="M628.658,-62.1573C641.433,-61.2421 655.65,-60.2236 669.718,-59.2157"/>
<polygon fill="midnightblue" stroke="midnightblue" points="670.188,-62.6911 679.913,-58.4854 669.688,-55.709 670.188,-62.6911"/>
</g>
<!-- Node24 -->
<g id="node25" class="node"><title>Node24</title>
<g id="a_node25"><a xlink:href="classvili_1_1_data_node.html#acb68076f90b2344cba37afd31b8b2156" target="_top" xlink:title="Gets a dumpable representation of the contained data. ">
<polygon fill="white" stroke="black" points="518,-132 518,-151 644,-151 644,-132 518,-132"/>
<text text-anchor="middle" x="581" y="-139" font-family="Helvetica,sans-Serif" font-size="10.00">vili::DataNode::dumpData</text>
</a>
</g>
</g>
<!-- Node23&#45;&gt;Node24 -->
<g id="edge27" class="edge"><title>Node23&#45;&gt;Node24</title>
<path fill="none" stroke="midnightblue" d="M470.529,-141.5C482.352,-141.5 495.191,-141.5 507.778,-141.5"/>
<polygon fill="midnightblue" stroke="midnightblue" points="507.794,-145 517.794,-141.5 507.794,-138 507.794,-145"/>
</g>
</g>
</svg>
