<?xml version="1.0" encoding="UTF-8" standalone="no"?>
<!DOCTYPE svg PUBLIC "-//W3C//DTD SVG 1.1//EN"
 "http://www.w3.org/Graphics/SVG/1.1/DTD/svg11.dtd">
<!-- Generated by graphviz version 2.38.0 (20140413.2041)
 -->
<!-- Title: obe::Utils::String::getRandomKey Pages: 1 -->
<!--zoomable 137 -->
<svg id="main" version="1.1" xmlns="http://www.w3.org/2000/svg" xmlns:xlink="http://www.w3.org/1999/xlink" xml:space="preserve" onload="init(evt)">
<style type="text/css"><![CDATA[
.edge:hover path { stroke: red; }
.edge:hover polygon { stroke: red; fill: red; }
.edge path { stroke: white; }
.edge polygon { stroke: white; fill: white; }
.node polygon { fill: white; }
]]></style>
<script type="text/javascript"><![CDATA[
var edges = document.getElementsByTagName('g');
if (edges && edges.length) {
  for (var i=0;i<edges.length;i++) {
    if (edges[i].id.substr(0,4)=='edge') {
      edges[i].setAttribute('class','edge');
    }
  }
}
]]></script>
        <defs>
                <circle id="rim" cx="0" cy="0" r="7"/>
                <circle id="rim2" cx="0" cy="0" r="3.5"/>
                <g id="zoomPlus">
                        <use xlink:href="#rim" fill="#404040">
                                <set attributeName="fill" to="#808080" begin="zoomplus.mouseover" end="zoomplus.mouseout"/>
                        </use>
                        <path d="M-4,0h8M0,-4v8" fill="none" stroke="white" stroke-width="1.5" pointer-events="none"/>
                </g>
                <g id="zoomMin">
                        <use xlink:href="#rim" fill="#404040">
                                <set attributeName="fill" to="#808080" begin="zoomminus.mouseover" end="zoomminus.mouseout"/>
                        </use>
                        <path d="M-4,0h8" fill="none" stroke="white" stroke-width="1.5" pointer-events="none"/>
                </g>
                <g id="dirArrow">
                        <path fill="none" stroke="white" stroke-width="1.5" d="M0,-3.0v7 M-2.5,-0.5L0,-3.0L2.5,-0.5"/>
                </g>
               <g id="resetDef">
                       <use xlink:href="#rim2" fill="#404040">
                               <set attributeName="fill" to="#808080" begin="reset.mouseover" end="reset.mouseout"/>
                       </use>
               </g>
        </defs>

<script type="text/javascript">
var viewWidth = 994;
var viewHeight = 137;
var sectionId = 'dynsection-2';
</script>
<script xlink:href="svgpan.js"/>
<svg id="graph" class="graph">
<g id="viewport">
<title>obe::Utils::String::getRandomKey</title>
<!-- Node28 -->
<g id="node1" class="node"><title>Node28</title>
<polygon fill="#bfbfbf" stroke="black" points="0,-49.5 0,-79.5 89,-79.5 89,-49.5 0,-49.5"/>
<text text-anchor="start" x="8" y="-67.5" font-family="Helvetica,sans-Serif" font-size="10.00">obe::Utils::String</text>
<text text-anchor="middle" x="44.5" y="-56.5" font-family="Helvetica,sans-Serif" font-size="10.00">::getRandomKey</text>
</g>
<!-- Node29 -->
<g id="node2" class="node"><title>Node29</title>
<g id="a_node2"><a xlink:href="namespaceobe_1_1_editor.html#ab548dfe02b4323438bcf9caedd01d696" target="_top" xlink:title="obe::Editor::buildRequires\lObjectTab">
<polygon fill="none" stroke="black" points="125,-98.5 125,-128.5 253,-128.5 253,-98.5 125,-98.5"/>
<text text-anchor="start" x="133" y="-116.5" font-family="Helvetica,sans-Serif" font-size="10.00">obe::Editor::buildRequires</text>
<text text-anchor="middle" x="189" y="-105.5" font-family="Helvetica,sans-Serif" font-size="10.00">ObjectTab</text>
</a>
</g>
</g>
<!-- Node28&#45;&gt;Node29 -->
<g id="edge1" class="edge"><title>Node28&#45;&gt;Node29</title>
<path fill="none" stroke="midnightblue" d="M98.6969,-82.7923C113.706,-87.9534 129.86,-93.5079 144.247,-98.4549"/>
<polygon fill="midnightblue" stroke="midnightblue" points="99.6237,-79.4099 89.029,-79.4679 97.3474,-86.0295 99.6237,-79.4099"/>
</g>
<!-- Node35 -->
<g id="node8" class="node"><title>Node35</title>
<g id="a_node8"><a xlink:href="namespaceobe_1_1_editor.html#a98df387085b87692b2458ada49d8c8a3" target="_top" xlink:title="obe::Editor::addSpriteTo\lWorld">
<polygon fill="none" stroke="black" points="128,-49.5 128,-79.5 250,-79.5 250,-49.5 128,-49.5"/>
<text text-anchor="start" x="136" y="-67.5" font-family="Helvetica,sans-Serif" font-size="10.00">obe::Editor::addSpriteTo</text>
<text text-anchor="middle" x="189" y="-56.5" font-family="Helvetica,sans-Serif" font-size="10.00">World</text>
</a>
</g>
</g>
<!-- Node28&#45;&gt;Node35 -->
<g id="edge8" class="edge"><title>Node28&#45;&gt;Node35</title>
<path fill="none" stroke="midnightblue" d="M99.0538,-64.5C108.483,-64.5 118.355,-64.5 127.948,-64.5"/>
<polygon fill="midnightblue" stroke="midnightblue" points="99.029,-61.0001 89.029,-64.5 99.029,-68.0001 99.029,-61.0001"/>
</g>
<!-- Node38 -->
<g id="node11" class="node"><title>Node38</title>
<g id="a_node11"><a xlink:href="classobe_1_1_script_1_1_game_object.html#aadeac0036d2fe21d523acfd4e9011a23" target="_top" xlink:title="obe::Script::GameObject\l::loadGameObject">
<polygon fill="none" stroke="black" points="126.5,-0.5 126.5,-30.5 251.5,-30.5 251.5,-0.5 126.5,-0.5"/>
<text text-anchor="start" x="134.5" y="-18.5" font-family="Helvetica,sans-Serif" font-size="10.00">obe::Script::GameObject</text>
<text text-anchor="middle" x="189" y="-7.5" font-family="Helvetica,sans-Serif" font-size="10.00">::loadGameObject</text>
</a>
</g>
</g>
<!-- Node28&#45;&gt;Node38 -->
<g id="edge12" class="edge"><title>Node28&#45;&gt;Node38</title>
<path fill="none" stroke="midnightblue" d="M98.6969,-46.2077C113.706,-41.0466 129.86,-35.4921 144.247,-30.5451"/>
<polygon fill="midnightblue" stroke="midnightblue" points="97.3474,-42.9705 89.029,-49.5321 99.6237,-49.5901 97.3474,-42.9705"/>
</g>
<!-- Node30 -->
<g id="node3" class="node"><title>Node30</title>
<g id="a_node3"><a xlink:href="namespaceobe_1_1_editor.html#a24423ada9fd467ae78ebf9d21e64db0b" target="_top" xlink:title="obe::Editor::buildObjectTab">
<polygon fill="none" stroke="black" points="292,-104 292,-123 426,-123 426,-104 292,-104"/>
<text text-anchor="middle" x="359" y="-111" font-family="Helvetica,sans-Serif" font-size="10.00">obe::Editor::buildObjectTab</text>
</a>
</g>
</g>
<!-- Node29&#45;&gt;Node30 -->
<g id="edge2" class="edge"><title>Node29&#45;&gt;Node30</title>
<path fill="none" stroke="midnightblue" d="M263.246,-113.5C272.745,-113.5 282.43,-113.5 291.805,-113.5"/>
<polygon fill="midnightblue" stroke="midnightblue" points="263.035,-110 253.035,-113.5 263.035,-117 263.035,-110"/>
</g>
<!-- Node31 -->
<g id="node4" class="node"><title>Node31</title>
<g id="a_node4"><a xlink:href="namespaceobe_1_1_editor_1_1_g_u_i.html#ac209e33d93d1c6b719ed4c5206994ffc" target="_top" xlink:title="obe::Editor::GUI::buildEditor\lObjectsMenu">
<polygon fill="none" stroke="black" points="465,-98.5 465,-128.5 603,-128.5 603,-98.5 465,-98.5"/>
<text text-anchor="start" x="473" y="-116.5" font-family="Helvetica,sans-Serif" font-size="10.00">obe::Editor::GUI::buildEditor</text>
<text text-anchor="middle" x="534" y="-105.5" font-family="Helvetica,sans-Serif" font-size="10.00">ObjectsMenu</text>
</a>
</g>
</g>
<!-- Node30&#45;&gt;Node31 -->
<g id="edge3" class="edge"><title>Node30&#45;&gt;Node31</title>
<path fill="none" stroke="midnightblue" d="M436.52,-113.5C445.932,-113.5 455.504,-113.5 464.781,-113.5"/>
<polygon fill="midnightblue" stroke="midnightblue" points="436.392,-110 426.392,-113.5 436.392,-117 436.392,-110"/>
</g>
<!-- Node32 -->
<g id="node5" class="node"><title>Node32</title>
<g id="a_node5"><a xlink:href="namespaceobe_1_1_editor.html#a9009207671e71dccb68a31ea2362e9ef" target="_top" xlink:title="Starts the map edition. ">
<polygon fill="none" stroke="black" points="639,-79 639,-98 743,-98 743,-79 639,-79"/>
<text text-anchor="middle" x="691" y="-86" font-family="Helvetica,sans-Serif" font-size="10.00">obe::Editor::editMap</text>
</a>
</g>
</g>
<!-- Node31&#45;&gt;Node32 -->
<g id="edge4" class="edge"><title>Node31&#45;&gt;Node32</title>
<path fill="none" stroke="midnightblue" d="M613.47,-100.844C622.032,-99.4627 630.578,-98.0842 638.69,-96.7758"/>
<polygon fill="midnightblue" stroke="midnightblue" points="612.752,-97.4141 603.436,-102.462 613.866,-104.325 612.752,-97.4141"/>
</g>
<!-- Node33 -->
<g id="node6" class="node"><title>Node33</title>
<g id="a_node6"><a xlink:href="namespaceobe_1_1_modes.html#a6a8b08eee511d4895c4da96d4ba223a6" target="_top" xlink:title="Starts the development Menu where you can starts other menus from. ">
<polygon fill="none" stroke="black" points="779,-98 779,-117 912,-117 912,-98 779,-98"/>
<text text-anchor="middle" x="845.5" y="-105" font-family="Helvetica,sans-Serif" font-size="10.00">obe::Modes::startDevMenu</text>
</a>
</g>
</g>
<!-- Node32&#45;&gt;Node33 -->
<g id="edge5" class="edge"><title>Node32&#45;&gt;Node33</title>
<path fill="none" stroke="midnightblue" d="M753.292,-96.1364C761.688,-97.1824 770.336,-98.2599 778.806,-99.3152"/>
<polygon fill="midnightblue" stroke="midnightblue" points="753.561,-92.6429 743.205,-94.8796 752.695,-99.5892 753.561,-92.6429"/>
</g>
<!-- Node34 -->
<g id="node7" class="node"><title>Node34</title>
<g id="a_node7"><a xlink:href="_ob_engine_8cpp.html#a3c04138a5bfe5d72780bb7e82a18e627" target="_top" xlink:title="main">
<polygon fill="none" stroke="black" points="948,-79 948,-98 986,-98 986,-79 948,-79"/>
<text text-anchor="middle" x="967" y="-86" font-family="Helvetica,sans-Serif" font-size="10.00">main</text>
</a>
</g>
</g>
<!-- Node32&#45;&gt;Node34 -->
<g id="edge7" class="edge"><title>Node32&#45;&gt;Node34</title>
<path fill="none" stroke="midnightblue" d="M753.356,-88.5C815.863,-88.5 908.971,-88.5 947.885,-88.5"/>
<polygon fill="midnightblue" stroke="midnightblue" points="753.216,-85.0001 743.216,-88.5 753.216,-92.0001 753.216,-85.0001"/>
</g>
<!-- Node33&#45;&gt;Node34 -->
<g id="edge6" class="edge"><title>Node33&#45;&gt;Node34</title>
<path fill="none" stroke="midnightblue" d="M916.822,-96.3192C928.345,-94.4869 939.327,-92.7409 947.978,-91.3654"/>
<polygon fill="midnightblue" stroke="midnightblue" points="915.926,-92.9174 906.6,-97.9443 917.026,-99.8306 915.926,-92.9174"/>
</g>
<!-- Node36 -->
<g id="node9" class="node"><title>Node36</title>
<g id="a_node9"><a xlink:href="namespaceobe_1_1_editor.html#a75bc94b8c9152749d28e9e3927522e4a" target="_top" xlink:title="obe::Editor::loadSpriteFolder">
<polygon fill="none" stroke="black" points="289,-55 289,-74 429,-74 429,-55 289,-55"/>
<text text-anchor="middle" x="359" y="-62" font-family="Helvetica,sans-Serif" font-size="10.00">obe::Editor::loadSpriteFolder</text>
</a>
</g>
</g>
<!-- Node35&#45;&gt;Node36 -->
<g id="edge9" class="edge"><title>Node35&#45;&gt;Node36</title>
<path fill="none" stroke="midnightblue" d="M260.296,-64.5C269.728,-64.5 279.396,-64.5 288.809,-64.5"/>
<polygon fill="midnightblue" stroke="midnightblue" points="260.177,-61.0001 250.177,-64.5 260.177,-68.0001 260.177,-61.0001"/>
</g>
<!-- Node37 -->
<g id="node10" class="node"><title>Node37</title>
<g id="a_node10"><a xlink:href="namespaceobe_1_1_editor_1_1_g_u_i.html#a5d2864942020d4f1bdfe7cf9e7d667bc" target="_top" xlink:title="obe::Editor::GUI::buildEditor\lSpritesMenu">
<polygon fill="none" stroke="black" points="465,-49.5 465,-79.5 603,-79.5 603,-49.5 465,-49.5"/>
<text text-anchor="start" x="473" y="-67.5" font-family="Helvetica,sans-Serif" font-size="10.00">obe::Editor::GUI::buildEditor</text>
<text text-anchor="middle" x="534" y="-56.5" font-family="Helvetica,sans-Serif" font-size="10.00">SpritesMenu</text>
</a>
</g>
</g>
<!-- Node36&#45;&gt;Node37 -->
<g id="edge10" class="edge"><title>Node36&#45;&gt;Node37</title>
<path fill="none" stroke="midnightblue" d="M439.564,-64.5C447.976,-64.5 456.475,-64.5 464.742,-64.5"/>
<polygon fill="midnightblue" stroke="midnightblue" points="439.369,-61.0001 429.369,-64.5 439.369,-68.0001 439.369,-61.0001"/>
</g>
<!-- Node37&#45;&gt;Node32 -->
<g id="edge11" class="edge"><title>Node37&#45;&gt;Node32</title>
<path fill="none" stroke="midnightblue" d="M613.47,-76.6501C622.032,-77.9758 630.578,-79.2991 638.69,-80.5552"/>
<polygon fill="midnightblue" stroke="midnightblue" points="613.854,-73.1681 603.436,-75.0966 612.783,-80.0856 613.854,-73.1681"/>
</g>
</g>
</svg>
        <g id="navigator" transform="translate(0 0)" fill="#404254">
                <rect fill="#f2f5e9" fill-opacity="0.5" stroke="#606060" stroke-width=".5" x="0" y="0" width="60" height="60"/>
                <use id="zoomplus" xlink:href="#zoomPlus" x="17" y="9" onmousedown="handleZoom(evt,'in')"/>
                <use id="zoomminus" xlink:href="#zoomMin" x="42" y="9" onmousedown="handleZoom(evt,'out')"/>
                <use id="reset" xlink:href="#resetDef" x="30" y="36" onmousedown="handleReset()"/>
                <g id="arrowUp" xlink:href="#dirArrow" transform="translate(30 24)" onmousedown="handlePan(0,-1)">
                  <use xlink:href="#rim" fill="#404040">
                        <set attributeName="fill" to="#808080" begin="arrowUp.mouseover" end="arrowUp.mouseout"/>
                  </use>
                  <path fill="none" stroke="white" stroke-width="1.5" d="M0,-3.0v7 M-2.5,-0.5L0,-3.0L2.5,-0.5"/>
                </g>
                <g id="arrowRight" xlink:href="#dirArrow" transform="rotate(90) translate(36 -43)" onmousedown="handlePan(1,0)">
                  <use xlink:href="#rim" fill="#404040">
                        <set attributeName="fill" to="#808080" begin="arrowRight.mouseover" end="arrowRight.mouseout"/>
                  </use>
                  <path fill="none" stroke="white" stroke-width="1.5" d="M0,-3.0v7 M-2.5,-0.5L0,-3.0L2.5,-0.5"/>
                </g>
                <g id="arrowDown" xlink:href="#dirArrow" transform="rotate(180) translate(-30 -48)" onmousedown="handlePan(0,1)">
                  <use xlink:href="#rim" fill="#404040">
                        <set attributeName="fill" to="#808080" begin="arrowDown.mouseover" end="arrowDown.mouseout"/>
                  </use>
                  <path fill="none" stroke="white" stroke-width="1.5" d="M0,-3.0v7 M-2.5,-0.5L0,-3.0L2.5,-0.5"/>
                </g>
                <g id="arrowLeft" xlink:href="#dirArrow" transform="rotate(270) translate(-36 17)" onmousedown="handlePan(-1,0)">
                  <use xlink:href="#rim" fill="#404040">
                        <set attributeName="fill" to="#808080" begin="arrowLeft.mouseover" end="arrowLeft.mouseout"/>
                  </use>
                  <path fill="none" stroke="white" stroke-width="1.5" d="M0,-3.0v7 M-2.5,-0.5L0,-3.0L2.5,-0.5"/>
                </g>
        </g>
        <svg viewBox="0 0 15 15" width="100%" height="30px" preserveAspectRatio="xMaxYMin meet">
         <g id="arrow_out" transform="scale(0.3 0.3)">
          <a xlink:href="namespaceobe_1_1_utils_1_1_string_a29c76645ca98b28a4f885016514fa7fd_icgraph_org.svg" target="_base">
           <rect id="button" ry="5" rx="5" y="6" x="6" height="38" width="38"
                fill="#f2f5e9" fill-opacity="0.5" stroke="#606060" stroke-width="1.0"/>
           <path id="arrow"
             d="M 11.500037,31.436501 C 11.940474,20.09759 22.043105,11.32322 32.158766,21.979434 L 37.068811,17.246167 C 37.068811,17.246167 37.088388,32 37.088388,32 L 22.160133,31.978069 C 22.160133,31.978069 26.997745,27.140456 26.997745,27.140456 C 18.528582,18.264221 13.291696,25.230495 11.500037,31.436501 z"
             style="fill:#404040;"/>
          </a>
         </g>
        </svg>
</svg>
