<?xml version="1.0" encoding="UTF-8" standalone="no"?>
<!DOCTYPE svg PUBLIC "-//W3C//DTD SVG 1.1//EN"
 "http://www.w3.org/Graphics/SVG/1.1/DTD/svg11.dtd">
<!-- Generated by graphviz version 2.38.0 (20140413.2041)
 -->
<!-- Title: obe::Collision::convexHull Pages: 1 -->
<!--zoomable 197 -->
<svg id="main" version="1.1" xmlns="http://www.w3.org/2000/svg" xmlns:xlink="http://www.w3.org/1999/xlink" xml:space="preserve" onload="init(evt)">
<style type="text/css"><![CDATA[
.edge:hover path { stroke: red; }
.edge:hover polygon { stroke: red; fill: red; }
.edge path { stroke: white; }
.edge polygon { stroke: white; fill: white; }
.node polygon { fill: white; }
]]></style>
<script type="text/javascript"><![CDATA[
var edges = document.getElementsByTagName('g');
if (edges && edges.length) {
  for (var i=0;i<edges.length;i++) {
    if (edges[i].id.substr(0,4)=='edge') {
      edges[i].setAttribute('class','edge');
    }
  }
}
]]></script>
        <defs>
                <circle id="rim" cx="0" cy="0" r="7"/>
                <circle id="rim2" cx="0" cy="0" r="3.5"/>
                <g id="zoomPlus">
                        <use xlink:href="#rim" fill="#404040">
                                <set attributeName="fill" to="#808080" begin="zoomplus.mouseover" end="zoomplus.mouseout"/>
                        </use>
                        <path d="M-4,0h8M0,-4v8" fill="none" stroke="white" stroke-width="1.5" pointer-events="none"/>
                </g>
                <g id="zoomMin">
                        <use xlink:href="#rim" fill="#404040">
                                <set attributeName="fill" to="#808080" begin="zoomminus.mouseover" end="zoomminus.mouseout"/>
                        </use>
                        <path d="M-4,0h8" fill="none" stroke="white" stroke-width="1.5" pointer-events="none"/>
                </g>
                <g id="dirArrow">
                        <path fill="none" stroke="white" stroke-width="1.5" d="M0,-3.0v7 M-2.5,-0.5L0,-3.0L2.5,-0.5"/>
                </g>
               <g id="resetDef">
                       <use xlink:href="#rim2" fill="#404040">
                               <set attributeName="fill" to="#808080" begin="reset.mouseover" end="reset.mouseout"/>
                       </use>
               </g>
        </defs>

<script type="text/javascript">
var viewWidth = 1516;
var viewHeight = 197;
var sectionId = 'dynsection-1';
</script>
<script xlink:href="svgpan.js"/>
<svg id="graph" class="graph">
<g id="viewport">
<title>obe::Collision::convexHull</title>
<!-- Node3 -->
<g id="node1" class="node"><title>Node3</title>
<polygon fill="#bfbfbf" stroke="black" points="0,-88 0,-107 128,-107 128,-88 0,-88"/>
<text text-anchor="middle" x="64" y="-95" font-family="Helvetica,sans-Serif" font-size="10.00">obe::Collision::convexHull</text>
</g>
<!-- Node4 -->
<g id="node2" class="node"><title>Node4</title>
<g id="a_node2"><a xlink:href="classobe_1_1_collision_1_1_polygonal_collider.html#a84c44dd43f8946bbf003b231a07b90a6" target="_top" xlink:title="obe::Collision::Polygonal\lCollider::joinPolygonalColliders">
<polygon fill="none" stroke="black" points="164,-82.5 164,-112.5 314,-112.5 314,-82.5 164,-82.5"/>
<text text-anchor="start" x="172" y="-100.5" font-family="Helvetica,sans-Serif" font-size="10.00">obe::Collision::Polygonal</text>
<text text-anchor="middle" x="239" y="-89.5" font-family="Helvetica,sans-Serif" font-size="10.00">Collider::joinPolygonalColliders</text>
</a>
</g>
</g>
<!-- Node3&#45;&gt;Node4 -->
<g id="edge1" class="edge"><title>Node3&#45;&gt;Node4</title>
<path fill="none" stroke="midnightblue" d="M138.513,-97.5C146.859,-97.5 155.369,-97.5 163.725,-97.5"/>
<polygon fill="midnightblue" stroke="midnightblue" points="138.437,-94.0001 128.436,-97.5 138.436,-101 138.437,-94.0001"/>
</g>
<!-- Node5 -->
<g id="node3" class="node"><title>Node5</title>
<g id="a_node3"><a xlink:href="classobe_1_1_collision_1_1_polygonal_collider.html#af18d0ee04d848f354a42fb32d0a12606" target="_top" xlink:title="obe::Collision::Polygonal\lCollider::doesPathCollide">
<polygon fill="none" stroke="black" points="350,-82.5 350,-112.5 475,-112.5 475,-82.5 350,-82.5"/>
<text text-anchor="start" x="358" y="-100.5" font-family="Helvetica,sans-Serif" font-size="10.00">obe::Collision::Polygonal</text>
<text text-anchor="middle" x="412.5" y="-89.5" font-family="Helvetica,sans-Serif" font-size="10.00">Collider::doesPathCollide</text>
</a>
</g>
</g>
<!-- Node4&#45;&gt;Node5 -->
<g id="edge2" class="edge"><title>Node4&#45;&gt;Node5</title>
<path fill="none" stroke="midnightblue" d="M324.281,-97.5C332.873,-97.5 341.485,-97.5 349.771,-97.5"/>
<polygon fill="midnightblue" stroke="midnightblue" points="324.225,-94.0001 314.225,-97.5 324.225,-101 324.225,-94.0001"/>
</g>
<!-- Node6 -->
<g id="node4" class="node"><title>Node6</title>
<g id="a_node4"><a xlink:href="namespaceobe_1_1_script_1_1_core_lib.html#a07d6c11bbb082bc45bdba50d97965c00" target="_top" xlink:title="obe::Script::CoreLib\l::loadCollision">
<polygon fill="none" stroke="black" points="511,-82.5 511,-112.5 614,-112.5 614,-82.5 511,-82.5"/>
<text text-anchor="start" x="519" y="-100.5" font-family="Helvetica,sans-Serif" font-size="10.00">obe::Script::CoreLib</text>
<text text-anchor="middle" x="562.5" y="-89.5" font-family="Helvetica,sans-Serif" font-size="10.00">::loadCollision</text>
</a>
</g>
</g>
<!-- Node5&#45;&gt;Node6 -->
<g id="edge3" class="edge"><title>Node5&#45;&gt;Node6</title>
<path fill="none" stroke="midnightblue" d="M485.649,-97.5C494.082,-97.5 502.547,-97.5 510.606,-97.5"/>
<polygon fill="midnightblue" stroke="midnightblue" points="485.408,-94.0001 475.408,-97.5 485.408,-101 485.408,-94.0001"/>
</g>
<!-- Node7 -->
<g id="node5" class="node"><title>Node7</title>
<g id="a_node5"><a xlink:href="namespaceobe_1_1_script.html#a633c629c5a54da2b5d4930730983121c" target="_top" xlink:title="obe::Script::loadCoreLib">
<polygon fill="none" stroke="black" points="650,-88 650,-107 771,-107 771,-88 650,-88"/>
<text text-anchor="middle" x="710.5" y="-95" font-family="Helvetica,sans-Serif" font-size="10.00">obe::Script::loadCoreLib</text>
</a>
</g>
</g>
<!-- Node6&#45;&gt;Node7 -->
<g id="edge4" class="edge"><title>Node6&#45;&gt;Node7</title>
<path fill="none" stroke="midnightblue" d="M624.328,-97.5C632.785,-97.5 641.467,-97.5 649.902,-97.5"/>
<polygon fill="midnightblue" stroke="midnightblue" points="624.154,-94.0001 614.154,-97.5 624.154,-101 624.154,-94.0001"/>
</g>
<!-- Node8 -->
<g id="node6" class="node"><title>Node8</title>
<g id="a_node6"><a xlink:href="namespaceobe_1_1_script.html#a4e6ee77032cf7f66544f9b08464a60b7" target="_top" xlink:title="obe::Script::loadLib">
<polygon fill="none" stroke="black" points="807,-88 807,-107 908,-107 908,-88 807,-88"/>
<text text-anchor="middle" x="857.5" y="-95" font-family="Helvetica,sans-Serif" font-size="10.00">obe::Script::loadLib</text>
</a>
</g>
</g>
<!-- Node7&#45;&gt;Node8 -->
<g id="edge5" class="edge"><title>Node7&#45;&gt;Node8</title>
<path fill="none" stroke="midnightblue" d="M781.401,-97.5C790.037,-97.5 798.723,-97.5 806.967,-97.5"/>
<polygon fill="midnightblue" stroke="midnightblue" points="781.314,-94.0001 771.314,-97.5 781.314,-101 781.314,-94.0001"/>
</g>
<!-- Node9 -->
<g id="node7" class="node"><title>Node9</title>
<g id="a_node7"><a xlink:href="namespaceobe_1_1_script.html#a5e992c0efb0543e7c934bc1065f08b01" target="_top" xlink:title="obe::Script::loadLibBridge">
<polygon fill="none" stroke="black" points="949.5,-164 949.5,-183 1077.5,-183 1077.5,-164 949.5,-164"/>
<text text-anchor="middle" x="1013.5" y="-171" font-family="Helvetica,sans-Serif" font-size="10.00">obe::Script::loadLibBridge</text>
</a>
</g>
</g>
<!-- Node8&#45;&gt;Node9 -->
<g id="edge6" class="edge"><title>Node8&#45;&gt;Node9</title>
<path fill="none" stroke="midnightblue" d="M878.149,-113.245C894.824,-125.936 919.827,-143.434 944,-154.5 952.08,-158.198 961.033,-161.319 969.729,-163.895"/>
<polygon fill="midnightblue" stroke="midnightblue" points="880.283,-110.471 870.237,-107.105 875.992,-116.001 880.283,-110.471"/>
</g>
<!-- Node12 -->
<g id="node10" class="node"><title>Node12</title>
<g id="a_node10"><a xlink:href="namespaceobe_1_1_script.html#aad6ef67388e6d16eb01853f208da410f" target="_top" xlink:title="obe::Script::loadBaseLib">
<polygon fill="none" stroke="black" points="952,-126 952,-145 1075,-145 1075,-126 952,-126"/>
<text text-anchor="middle" x="1013.5" y="-133" font-family="Helvetica,sans-Serif" font-size="10.00">obe::Script::loadBaseLib</text>
</a>
</g>
</g>
<!-- Node8&#45;&gt;Node12 -->
<g id="edge9" class="edge"><title>Node8&#45;&gt;Node12</title>
<path fill="none" stroke="midnightblue" d="M907.294,-109.54C928.808,-114.849 953.732,-120.999 973.919,-125.98"/>
<polygon fill="midnightblue" stroke="midnightblue" points="907.908,-106.087 897.361,-107.089 906.231,-112.883 907.908,-106.087"/>
</g>
<!-- Node13 -->
<g id="node11" class="node"><title>Node13</title>
<g id="a_node11"><a xlink:href="namespaceobe_1_1_modes.html#a1e38c0d9a2ca0230f0de79c298f53ab9" target="_top" xlink:title="A mode that will start the Toolkit. ">
<polygon fill="none" stroke="black" points="1119,-96 1119,-115 1265,-115 1265,-96 1119,-96"/>
<text text-anchor="middle" x="1192" y="-103" font-family="Helvetica,sans-Serif" font-size="10.00">obe::Modes::startToolkitMode</text>
</a>
</g>
</g>
<!-- Node8&#45;&gt;Node13 -->
<g id="edge14" class="edge"><title>Node8&#45;&gt;Node13</title>
<path fill="none" stroke="midnightblue" d="M918.437,-98.9421C974.645,-100.294 1058.78,-102.319 1118.69,-103.76"/>
<polygon fill="midnightblue" stroke="midnightblue" points="918.36,-95.4393 908.279,-98.6977 918.191,-102.437 918.36,-95.4393"/>
</g>
<!-- Node16 -->
<g id="node14" class="node"><title>Node16</title>
<g id="a_node14"><a xlink:href="classobe_1_1_world_1_1_world.html#a5bd621e3fd9293d949ad0c669cee6838" target="_top" xlink:title="obe::World::World::\lWorld">
<polygon fill="none" stroke="black" points="1141.5,-27.5 1141.5,-57.5 1242.5,-57.5 1242.5,-27.5 1141.5,-27.5"/>
<text text-anchor="start" x="1149.5" y="-45.5" font-family="Helvetica,sans-Serif" font-size="10.00">obe::World::World::</text>
<text text-anchor="middle" x="1192" y="-34.5" font-family="Helvetica,sans-Serif" font-size="10.00">World</text>
</a>
</g>
</g>
<!-- Node8&#45;&gt;Node16 -->
<g id="edge15" class="edge"><title>Node8&#45;&gt;Node16</title>
<path fill="none" stroke="midnightblue" d="M918.189,-87.6266C981.947,-77.0802 1081.84,-60.5558 1141.42,-50.7004"/>
<polygon fill="midnightblue" stroke="midnightblue" points="917.573,-84.1808 908.279,-89.2659 918.716,-91.087 917.573,-84.1808"/>
</g>
<!-- Node17 -->
<g id="node15" class="node"><title>Node17</title>
<g id="a_node15"><a xlink:href="namespaceobe_1_1_world.html#afc958184e59524fdf9dc6ba98a1e9a37" target="_top" xlink:title="obe::World::loadWorldScript\lEngineBaseLib">
<polygon fill="none" stroke="black" points="944,-0.5 944,-30.5 1083,-30.5 1083,-0.5 944,-0.5"/>
<text text-anchor="start" x="952" y="-18.5" font-family="Helvetica,sans-Serif" font-size="10.00">obe::World::loadWorldScript</text>
<text text-anchor="middle" x="1013.5" y="-7.5" font-family="Helvetica,sans-Serif" font-size="10.00">EngineBaseLib</text>
</a>
</g>
</g>
<!-- Node8&#45;&gt;Node17 -->
<g id="edge16" class="edge"><title>Node8&#45;&gt;Node17</title>
<path fill="none" stroke="midnightblue" d="M881.637,-82.2687C898.569,-71.4107 922.282,-56.7959 944,-45.5 954.021,-40.2881 965.142,-35.1539 975.458,-30.6464"/>
<polygon fill="midnightblue" stroke="midnightblue" points="879.477,-79.4976 872.983,-87.8694 883.28,-85.3741 879.477,-79.4976"/>
</g>
<!-- Node10 -->
<g id="node8" class="node"><title>Node10</title>
<g id="a_node8"><a xlink:href="namespaceobe_1_1_script.html#a5dc8321da50fd4b5dc2935e4d8c93a4e" target="_top" xlink:title="obe::Script::loadScrGame\lObject">
<polygon fill="none" stroke="black" points="1127.5,-158.5 1127.5,-188.5 1256.5,-188.5 1256.5,-158.5 1127.5,-158.5"/>
<text text-anchor="start" x="1135.5" y="-176.5" font-family="Helvetica,sans-Serif" font-size="10.00">obe::Script::loadScrGame</text>
<text text-anchor="middle" x="1192" y="-165.5" font-family="Helvetica,sans-Serif" font-size="10.00">Object</text>
</a>
</g>
</g>
<!-- Node9&#45;&gt;Node10 -->
<g id="edge7" class="edge"><title>Node9&#45;&gt;Node10</title>
<path fill="none" stroke="midnightblue" d="M1088.06,-173.5C1101.11,-173.5 1114.59,-173.5 1127.33,-173.5"/>
<polygon fill="midnightblue" stroke="midnightblue" points="1087.72,-170 1077.72,-173.5 1087.72,-177 1087.72,-170"/>
</g>
<!-- Node11 -->
<g id="node9" class="node"><title>Node11</title>
<g id="a_node9"><a xlink:href="classobe_1_1_script_1_1_game_object.html#aa0d58bd1ef0fa2fe9f7567729b2d291e" target="_top" xlink:title="obe::Script::GameObject\l::loadGameObject">
<polygon fill="none" stroke="black" points="1305,-158.5 1305,-188.5 1430,-188.5 1430,-158.5 1305,-158.5"/>
<text text-anchor="start" x="1313" y="-176.5" font-family="Helvetica,sans-Serif" font-size="10.00">obe::Script::GameObject</text>
<text text-anchor="middle" x="1367.5" y="-165.5" font-family="Helvetica,sans-Serif" font-size="10.00">::loadGameObject</text>
</a>
</g>
</g>
<!-- Node10&#45;&gt;Node11 -->
<g id="edge8" class="edge"><title>Node10&#45;&gt;Node11</title>
<path fill="none" stroke="midnightblue" d="M1266.72,-173.5C1279.44,-173.5 1292.55,-173.5 1304.91,-173.5"/>
<polygon fill="midnightblue" stroke="midnightblue" points="1266.62,-170 1256.62,-173.5 1266.62,-177 1266.62,-170"/>
</g>
<!-- Node12&#45;&gt;Node13 -->
<g id="edge10" class="edge"><title>Node12&#45;&gt;Node13</title>
<path fill="none" stroke="midnightblue" d="M1081.1,-124.18C1098.83,-121.166 1117.8,-117.942 1134.9,-115.035"/>
<polygon fill="midnightblue" stroke="midnightblue" points="1080.1,-120.799 1070.83,-125.925 1081.28,-127.7 1080.1,-120.799"/>
</g>
<!-- Node14 -->
<g id="node12" class="node"><title>Node14</title>
<g id="a_node12"><a xlink:href="namespaceobe_1_1_modes.html#a6a8b08eee511d4895c4da96d4ba223a6" target="_top" xlink:title="obe::Modes::startDevMenu">
<polygon fill="none" stroke="black" points="1301,-104 1301,-123 1434,-123 1434,-104 1301,-104"/>
<text text-anchor="middle" x="1367.5" y="-111" font-family="Helvetica,sans-Serif" font-size="10.00">obe::Modes::startDevMenu</text>
</a>
</g>
</g>
<!-- Node13&#45;&gt;Node14 -->
<g id="edge11" class="edge"><title>Node13&#45;&gt;Node14</title>
<path fill="none" stroke="midnightblue" d="M1275.12,-109.286C1283.72,-109.683 1292.37,-110.082 1300.76,-110.469"/>
<polygon fill="midnightblue" stroke="midnightblue" points="1275.22,-105.788 1265.07,-108.823 1274.9,-112.78 1275.22,-105.788"/>
</g>
<!-- Node15 -->
<g id="node13" class="node"><title>Node15</title>
<g id="a_node13"><a xlink:href="_ob_engine_8cpp.html#a3c04138a5bfe5d72780bb7e82a18e627" target="_top" xlink:title="main">
<polygon fill="none" stroke="black" points="1470,-85 1470,-104 1508,-104 1508,-85 1470,-85"/>
<text text-anchor="middle" x="1489" y="-92" font-family="Helvetica,sans-Serif" font-size="10.00">main</text>
</a>
</g>
</g>
<!-- Node13&#45;&gt;Node15 -->
<g id="edge13" class="edge"><title>Node13&#45;&gt;Node15</title>
<path fill="none" stroke="midnightblue" d="M1275.37,-96.2384C1284.01,-95.5273 1292.68,-94.9226 1301,-94.5 1362.93,-91.3544 1436.54,-92.9026 1469.93,-93.8916"/>
<polygon fill="midnightblue" stroke="midnightblue" points="1274.91,-92.765 1265.25,-97.1177 1275.51,-99.7387 1274.91,-92.765"/>
</g>
<!-- Node14&#45;&gt;Node15 -->
<g id="edge12" class="edge"><title>Node14&#45;&gt;Node15</title>
<path fill="none" stroke="midnightblue" d="M1438.82,-102.319C1450.35,-100.487 1461.33,-98.7409 1469.98,-97.3654"/>
<polygon fill="midnightblue" stroke="midnightblue" points="1437.93,-98.9174 1428.6,-103.944 1439.03,-105.831 1437.93,-98.9174"/>
</g>
<!-- Node17&#45;&gt;Node16 -->
<g id="edge17" class="edge"><title>Node17&#45;&gt;Node16</title>
<path fill="none" stroke="midnightblue" d="M1093.32,-27.558C1109.63,-30.0528 1126.38,-32.6142 1141.29,-34.8959"/>
<polygon fill="midnightblue" stroke="midnightblue" points="1093.66,-24.0687 1083.24,-26.0162 1092.6,-30.9882 1093.66,-24.0687"/>
</g>
</g>
</svg>
        <g id="navigator" transform="translate(0 0)" fill="#404254">
                <rect fill="#f2f5e9" fill-opacity="0.5" stroke="#606060" stroke-width=".5" x="0" y="0" width="60" height="60"/>
                <use id="zoomplus" xlink:href="#zoomPlus" x="17" y="9" onmousedown="handleZoom(evt,'in')"/>
                <use id="zoomminus" xlink:href="#zoomMin" x="42" y="9" onmousedown="handleZoom(evt,'out')"/>
                <use id="reset" xlink:href="#resetDef" x="30" y="36" onmousedown="handleReset()"/>
                <g id="arrowUp" xlink:href="#dirArrow" transform="translate(30 24)" onmousedown="handlePan(0,-1)">
                  <use xlink:href="#rim" fill="#404040">
                        <set attributeName="fill" to="#808080" begin="arrowUp.mouseover" end="arrowUp.mouseout"/>
                  </use>
                  <path fill="none" stroke="white" stroke-width="1.5" d="M0,-3.0v7 M-2.5,-0.5L0,-3.0L2.5,-0.5"/>
                </g>
                <g id="arrowRight" xlink:href="#dirArrow" transform="rotate(90) translate(36 -43)" onmousedown="handlePan(1,0)">
                  <use xlink:href="#rim" fill="#404040">
                        <set attributeName="fill" to="#808080" begin="arrowRight.mouseover" end="arrowRight.mouseout"/>
                  </use>
                  <path fill="none" stroke="white" stroke-width="1.5" d="M0,-3.0v7 M-2.5,-0.5L0,-3.0L2.5,-0.5"/>
                </g>
                <g id="arrowDown" xlink:href="#dirArrow" transform="rotate(180) translate(-30 -48)" onmousedown="handlePan(0,1)">
                  <use xlink:href="#rim" fill="#404040">
                        <set attributeName="fill" to="#808080" begin="arrowDown.mouseover" end="arrowDown.mouseout"/>
                  </use>
                  <path fill="none" stroke="white" stroke-width="1.5" d="M0,-3.0v7 M-2.5,-0.5L0,-3.0L2.5,-0.5"/>
                </g>
                <g id="arrowLeft" xlink:href="#dirArrow" transform="rotate(270) translate(-36 17)" onmousedown="handlePan(-1,0)">
                  <use xlink:href="#rim" fill="#404040">
                        <set attributeName="fill" to="#808080" begin="arrowLeft.mouseover" end="arrowLeft.mouseout"/>
                  </use>
                  <path fill="none" stroke="white" stroke-width="1.5" d="M0,-3.0v7 M-2.5,-0.5L0,-3.0L2.5,-0.5"/>
                </g>
        </g>
        <svg viewBox="0 0 15 15" width="100%" height="30px" preserveAspectRatio="xMaxYMin meet">
         <g id="arrow_out" transform="scale(0.3 0.3)">
          <a xlink:href="namespaceobe_1_1_collision_ad84b108b17b313c09418c88f3d1ab689_icgraph_org.svg" target="_base">
           <rect id="button" ry="5" rx="5" y="6" x="6" height="38" width="38"
                fill="#f2f5e9" fill-opacity="0.5" stroke="#606060" stroke-width="1.0"/>
           <path id="arrow"
             d="M 11.500037,31.436501 C 11.940474,20.09759 22.043105,11.32322 32.158766,21.979434 L 37.068811,17.246167 C 37.068811,17.246167 37.088388,32 37.088388,32 L 22.160133,31.978069 C 22.160133,31.978069 26.997745,27.140456 26.997745,27.140456 C 18.528582,18.264221 13.291696,25.230495 11.500037,31.436501 z"
             style="fill:#404040;"/>
          </a>
         </g>
        </svg>
</svg>
