<?xml version="1.0" encoding="UTF-8" standalone="no"?>
<!DOCTYPE svg PUBLIC "-//W3C//DTD SVG 1.1//EN"
 "http://www.w3.org/Graphics/SVG/1.1/DTD/svg11.dtd">
<!-- Generated by graphviz version 2.38.0 (20140413.2041)
 -->
<!-- Title: obe::Bindings::GraphicsBindings::LoadResourceManager Pages: 1 -->
<svg width="805pt" height="186pt"
 viewBox="0.00 0.00 805.00 186.00" xmlns="http://www.w3.org/2000/svg" xmlns:xlink="http://www.w3.org/1999/xlink">
<g id="graph0" class="graph" transform="scale(1 1) rotate(0) translate(4 182)">
<title>obe::Bindings::GraphicsBindings::LoadResourceManager</title>
<!-- Node69 -->
<g id="node1" class="node"><title>Node69</title>
<polygon fill="#bfbfbf" stroke="black" points="0,-119.5 0,-149.5 158,-149.5 158,-119.5 0,-119.5"/>
<text text-anchor="start" x="8" y="-137.5" font-family="Helvetica,sans-Serif" font-size="10.00">obe::Bindings::GraphicsBindings</text>
<text text-anchor="middle" x="79" y="-126.5" font-family="Helvetica,sans-Serif" font-size="10.00">::LoadResourceManager</text>
</g>
<!-- Node70 -->
<g id="node2" class="node"><title>Node70</title>
<g id="a_node2"><a xlink:href="classobe_1_1_graphics_1_1_resource_manager.html#a472f230262b5d4f8e42ccef134376dac" target="_top" xlink:title="Access the Instance of the ResourceManager. ">
<polygon fill="white" stroke="black" points="194,-144.5 194,-174.5 356,-174.5 356,-144.5 194,-144.5"/>
<text text-anchor="start" x="202" y="-162.5" font-family="Helvetica,sans-Serif" font-size="10.00">obe::Graphics::ResourceManager</text>
<text text-anchor="middle" x="275" y="-151.5" font-family="Helvetica,sans-Serif" font-size="10.00">::GetInstance</text>
</a>
</g>
</g>
<!-- Node69&#45;&gt;Node70 -->
<g id="edge1" class="edge"><title>Node69&#45;&gt;Node70</title>
<path fill="none" stroke="midnightblue" d="M158.069,-144.56C166.544,-145.653 175.221,-146.771 183.825,-147.88"/>
<polygon fill="midnightblue" stroke="midnightblue" points="183.511,-151.368 193.876,-149.175 184.406,-144.425 183.511,-151.368"/>
</g>
<!-- Node71 -->
<g id="node3" class="node"><title>Node71</title>
<g id="a_node3"><a xlink:href="classobe_1_1_graphics_1_1_resource_manager.html#a0afc65ec988650f9dc3ddf05226a659c" target="_top" xlink:title="Get the texture at the given path. &#160;If it&#39;s already in cache it returns the cached version...">
<polygon fill="white" stroke="black" points="194,-95.5 194,-125.5 356,-125.5 356,-95.5 194,-95.5"/>
<text text-anchor="start" x="202" y="-113.5" font-family="Helvetica,sans-Serif" font-size="10.00">obe::Graphics::ResourceManager</text>
<text text-anchor="middle" x="275" y="-102.5" font-family="Helvetica,sans-Serif" font-size="10.00">::getTexture</text>
</a>
</g>
</g>
<!-- Node69&#45;&gt;Node71 -->
<g id="edge2" class="edge"><title>Node69&#45;&gt;Node71</title>
<path fill="none" stroke="midnightblue" d="M158.069,-124.842C166.544,-123.793 175.221,-122.72 183.825,-121.656"/>
<polygon fill="midnightblue" stroke="midnightblue" points="184.382,-125.114 193.876,-120.412 183.522,-118.167 184.382,-125.114"/>
</g>
<!-- Node72 -->
<g id="node4" class="node"><title>Node72</title>
<g id="a_node4"><a xlink:href="classobe_1_1_system_1_1_path.html#a096ad4fa7397aa42fd73661b08f50e2a" target="_top" xlink:title="obe::System::Path::\lloadResource">
<polygon fill="white" stroke="black" points="392,-117.5 392,-147.5 496,-147.5 496,-117.5 392,-117.5"/>
<text text-anchor="start" x="400" y="-135.5" font-family="Helvetica,sans-Serif" font-size="10.00">obe::System::Path::</text>
<text text-anchor="middle" x="444" y="-124.5" font-family="Helvetica,sans-Serif" font-size="10.00">loadResource</text>
</a>
</g>
</g>
<!-- Node71&#45;&gt;Node72 -->
<g id="edge3" class="edge"><title>Node71&#45;&gt;Node72</title>
<path fill="none" stroke="midnightblue" d="M356.076,-121.049C364.765,-122.194 373.503,-123.345 381.914,-124.453"/>
<polygon fill="midnightblue" stroke="midnightblue" points="381.614,-127.943 391.985,-125.779 382.528,-121.003 381.614,-127.943"/>
</g>
<!-- Node74 -->
<g id="node6" class="node"><title>Node74</title>
<g id="a_node6"><a xlink:href="classaube_1_1_error_handler.html#a7c8d44a3e7f019646d289950abc5301b" target="_top" xlink:title="Raises an Error loaded in the Aube Error Database (AED) ">
<polygon fill="white" stroke="black" points="545.5,-73.5 545.5,-103.5 643.5,-103.5 643.5,-73.5 545.5,-73.5"/>
<text text-anchor="start" x="553.5" y="-91.5" font-family="Helvetica,sans-Serif" font-size="10.00">aube::ErrorHandler</text>
<text text-anchor="middle" x="594.5" y="-80.5" font-family="Helvetica,sans-Serif" font-size="10.00">::Raise</text>
</a>
</g>
</g>
<!-- Node71&#45;&gt;Node74 -->
<g id="edge10" class="edge"><title>Node71&#45;&gt;Node74</title>
<path fill="none" stroke="midnightblue" d="M356.119,-104.948C411.803,-101.09 484.755,-96.0351 535.012,-92.5527"/>
<polygon fill="midnightblue" stroke="midnightblue" points="535.329,-96.0393 545.063,-91.8563 534.845,-89.056 535.329,-96.0393"/>
</g>
<!-- Node73 -->
<g id="node5" class="node"><title>Node73</title>
<g id="a_node5"><a xlink:href="namespaceobe_1_1_utils_1_1_file.html#a1095626f5495edc7b8692073dd25cceb" target="_top" xlink:title="Check if the file at the given path exists. ">
<polygon fill="white" stroke="black" points="532,-123 532,-142 657,-142 657,-123 532,-123"/>
<text text-anchor="middle" x="594.5" y="-130" font-family="Helvetica,sans-Serif" font-size="10.00">obe::Utils::File::fileExists</text>
</a>
</g>
</g>
<!-- Node72&#45;&gt;Node73 -->
<g id="edge4" class="edge"><title>Node72&#45;&gt;Node73</title>
<path fill="none" stroke="midnightblue" d="M496.105,-132.5C504.367,-132.5 513.053,-132.5 521.695,-132.5"/>
<polygon fill="midnightblue" stroke="midnightblue" points="521.791,-136 531.791,-132.5 521.791,-129 521.791,-136"/>
</g>
<!-- Node72&#45;&gt;Node74 -->
<g id="edge5" class="edge"><title>Node72&#45;&gt;Node74</title>
<path fill="none" stroke="midnightblue" d="M495.69,-117.481C508.411,-113.711 522.162,-109.637 535.221,-105.768"/>
<polygon fill="midnightblue" stroke="midnightblue" points="536.45,-109.054 545.044,-102.857 534.462,-102.342 536.45,-109.054"/>
</g>
<!-- Node75 -->
<g id="node7" class="node"><title>Node75</title>
<g id="a_node7"><a xlink:href="classaube_1_1_error_message.html#a3a39b6fcd8fdb12eaf6383123535b8ca" target="_top" xlink:title="Gets the File where is located the ErrorMessage when raised. ">
<polygon fill="white" stroke="black" points="693,-147.5 693,-177.5 797,-177.5 797,-147.5 693,-147.5"/>
<text text-anchor="start" x="701" y="-165.5" font-family="Helvetica,sans-Serif" font-size="10.00">aube::ErrorMessage</text>
<text text-anchor="middle" x="745" y="-154.5" font-family="Helvetica,sans-Serif" font-size="10.00">::getFile</text>
</a>
</g>
</g>
<!-- Node74&#45;&gt;Node75 -->
<g id="edge6" class="edge"><title>Node74&#45;&gt;Node75</title>
<path fill="none" stroke="midnightblue" d="M636.119,-103.523C643.206,-106.563 650.413,-109.931 657,-113.5 674.127,-122.78 676.128,-128.763 693,-138.5 695.503,-139.944 698.107,-141.375 700.756,-142.776"/>
<polygon fill="midnightblue" stroke="midnightblue" points="699.35,-145.987 709.85,-147.399 702.522,-139.747 699.35,-145.987"/>
</g>
<!-- Node76 -->
<g id="node8" class="node"><title>Node76</title>
<g id="a_node8"><a xlink:href="classaube_1_1_error_message.html#a9184cc96589578f434351c105b0cd5f7" target="_top" xlink:title="Gets the location of the error in the code. ">
<polygon fill="white" stroke="black" points="693,-98.5 693,-128.5 797,-128.5 797,-98.5 693,-98.5"/>
<text text-anchor="start" x="701" y="-116.5" font-family="Helvetica,sans-Serif" font-size="10.00">aube::ErrorMessage</text>
<text text-anchor="middle" x="745" y="-105.5" font-family="Helvetica,sans-Serif" font-size="10.00">::getLocation</text>
</a>
</g>
</g>
<!-- Node74&#45;&gt;Node76 -->
<g id="edge7" class="edge"><title>Node74&#45;&gt;Node76</title>
<path fill="none" stroke="midnightblue" d="M643.714,-96.6168C656.266,-98.73 669.956,-101.035 683.072,-103.243"/>
<polygon fill="midnightblue" stroke="midnightblue" points="682.519,-106.699 692.961,-104.908 683.681,-99.796 682.519,-106.699"/>
</g>
<!-- Node77 -->
<g id="node9" class="node"><title>Node77</title>
<g id="a_node9"><a xlink:href="classaube_1_1_error_message.html#a07927cb3e2d0712c459cc9e2b5f52696" target="_top" xlink:title="Gets the message displayed by the ErrorMessage when raised. ">
<polygon fill="white" stroke="black" points="693,-49.5 693,-79.5 797,-79.5 797,-49.5 693,-49.5"/>
<text text-anchor="start" x="701" y="-67.5" font-family="Helvetica,sans-Serif" font-size="10.00">aube::ErrorMessage</text>
<text text-anchor="middle" x="745" y="-56.5" font-family="Helvetica,sans-Serif" font-size="10.00">::getMessage</text>
</a>
</g>
</g>
<!-- Node74&#45;&gt;Node77 -->
<g id="edge8" class="edge"><title>Node74&#45;&gt;Node77</title>
<path fill="none" stroke="midnightblue" d="M643.714,-80.7079C656.266,-78.6792 669.956,-76.4668 683.072,-74.347"/>
<polygon fill="midnightblue" stroke="midnightblue" points="683.648,-77.7994 692.961,-72.7487 682.531,-70.8891 683.648,-77.7994"/>
</g>
<!-- Node78 -->
<g id="node10" class="node"><title>Node78</title>
<g id="a_node10"><a xlink:href="classaube_1_1_error_message.html#a77c2f9b7e93542c958173b52da267989" target="_top" xlink:title="Gets hints that can help the error resolution. ">
<polygon fill="white" stroke="black" points="693,-0.5 693,-30.5 797,-30.5 797,-0.5 693,-0.5"/>
<text text-anchor="start" x="701" y="-18.5" font-family="Helvetica,sans-Serif" font-size="10.00">aube::ErrorMessage</text>
<text text-anchor="middle" x="745" y="-7.5" font-family="Helvetica,sans-Serif" font-size="10.00">::getHints</text>
</a>
</g>
</g>
<!-- Node74&#45;&gt;Node78 -->
<g id="edge9" class="edge"><title>Node74&#45;&gt;Node78</title>
<path fill="none" stroke="midnightblue" d="M625.271,-73.2877C644.529,-63.5099 670.172,-50.6051 693,-39.5 696.085,-37.9991 699.282,-36.459 702.502,-34.9188"/>
<polygon fill="midnightblue" stroke="midnightblue" points="704.036,-38.0649 711.565,-30.6099 701.031,-31.7431 704.036,-38.0649"/>
</g>
</g>
</svg>
