<?xml version="1.0" encoding="UTF-8" standalone="no"?>
<!DOCTYPE svg PUBLIC "-//W3C//DTD SVG 1.1//EN"
 "http://www.w3.org/Graphics/SVG/1.1/DTD/svg11.dtd">
<!-- Generated by graphviz version 2.38.0 (20140413.2041)
 -->
<!-- Title: obe::Utils::File::getDirectoryList Pages: 1 -->
<svg width="399pt" height="142pt"
 viewBox="0.00 0.00 399.00 142.00" xmlns="http://www.w3.org/2000/svg" xmlns:xlink="http://www.w3.org/1999/xlink">
<g id="graph0" class="graph" transform="scale(1 1) rotate(0) translate(4 138)">
<title>obe::Utils::File::getDirectoryList</title>
<!-- Node145 -->
<g id="node1" class="node"><title>Node145</title>
<polygon fill="#bfbfbf" stroke="black" points="0,-57.5 0,-76.5 154,-76.5 154,-57.5 0,-57.5"/>
<text text-anchor="middle" x="77" y="-64.5" font-family="Helvetica,sans-Serif" font-size="10.00">obe::Utils::File::getDirectoryList</text>
</g>
<!-- Node146 -->
<g id="node2" class="node"><title>Node146</title>
<g id="a_node2"><a xlink:href="include_2elzip_2tinydir_8h.html#a344f085761e41431e24c8c998805ba3f" target="_top" xlink:title="tinydir_open">
<polygon fill="white" stroke="black" points="195,-114.5 195,-133.5 264,-133.5 264,-114.5 195,-114.5"/>
<text text-anchor="middle" x="229.5" y="-121.5" font-family="Helvetica,sans-Serif" font-size="10.00">tinydir_open</text>
</a>
</g>
</g>
<!-- Node145&#45;&gt;Node146 -->
<g id="edge1" class="edge"><title>Node145&#45;&gt;Node146</title>
<path fill="none" stroke="midnightblue" d="M103.19,-76.5405C127.933,-85.9116 165.891,-100.288 193.548,-110.762"/>
<polygon fill="midnightblue" stroke="midnightblue" points="192.636,-114.16 203.228,-114.428 195.115,-107.613 192.636,-114.16"/>
</g>
<!-- Node147 -->
<g id="node3" class="node"><title>Node147</title>
<g id="a_node3"><a xlink:href="include_2elzip_2tinydir_8h.html#a05c4a9ee5c32f36ed3e5c5c7d00ae714" target="_top" xlink:title="tinydir_close">
<polygon fill="white" stroke="black" points="312.5,-76.5 312.5,-95.5 383.5,-95.5 383.5,-76.5 312.5,-76.5"/>
<text text-anchor="middle" x="348" y="-83.5" font-family="Helvetica,sans-Serif" font-size="10.00">tinydir_close</text>
</a>
</g>
</g>
<!-- Node145&#45;&gt;Node147 -->
<g id="edge7" class="edge"><title>Node145&#45;&gt;Node147</title>
<path fill="none" stroke="midnightblue" d="M154.006,-72.3685C201.885,-75.7502 262.046,-79.9995 302.358,-82.8469"/>
<polygon fill="midnightblue" stroke="midnightblue" points="302.191,-86.3437 312.413,-83.5571 302.685,-79.3611 302.191,-86.3437"/>
</g>
<!-- Node148 -->
<g id="node4" class="node"><title>Node148</title>
<g id="a_node4"><a xlink:href="include_2elzip_2tinydir_8h.html#a61b7dcb5bf8b9d410f8d54e1d2f3e0d4" target="_top" xlink:title="tinydir_readfile">
<polygon fill="white" stroke="black" points="190,-0.5 190,-19.5 269,-19.5 269,-0.5 190,-0.5"/>
<text text-anchor="middle" x="229.5" y="-7.5" font-family="Helvetica,sans-Serif" font-size="10.00">tinydir_readfile</text>
</a>
</g>
</g>
<!-- Node145&#45;&gt;Node148 -->
<g id="edge3" class="edge"><title>Node145&#45;&gt;Node148</title>
<path fill="none" stroke="midnightblue" d="M103.19,-57.4595C127.933,-48.0884 165.891,-33.7124 193.548,-23.2377"/>
<polygon fill="midnightblue" stroke="midnightblue" points="195.115,-26.3867 203.228,-19.5716 192.636,-19.8405 195.115,-26.3867"/>
</g>
<!-- Node150 -->
<g id="node6" class="node"><title>Node150</title>
<g id="a_node6"><a xlink:href="include_2elzip_2tinydir_8h.html#a699d0deef9ffde1d9fa75379d32714f9" target="_top" xlink:title="tinydir_next">
<polygon fill="white" stroke="black" points="196,-38.5 196,-57.5 263,-57.5 263,-38.5 196,-38.5"/>
<text text-anchor="middle" x="229.5" y="-45.5" font-family="Helvetica,sans-Serif" font-size="10.00">tinydir_next</text>
</a>
</g>
</g>
<!-- Node145&#45;&gt;Node150 -->
<g id="edge5" class="edge"><title>Node145&#45;&gt;Node150</title>
<path fill="none" stroke="midnightblue" d="M153.691,-57.4443C164.665,-56.0589 175.626,-54.6751 185.642,-53.4107"/>
<polygon fill="midnightblue" stroke="midnightblue" points="186.214,-56.8662 195.697,-52.1412 185.338,-49.9214 186.214,-56.8662"/>
</g>
<!-- Node146&#45;&gt;Node147 -->
<g id="edge2" class="edge"><title>Node146&#45;&gt;Node147</title>
<path fill="none" stroke="midnightblue" d="M259.898,-114.411C274.385,-109.686 292.058,-103.921 307.689,-98.8226"/>
<polygon fill="midnightblue" stroke="midnightblue" points="309.19,-102.014 317.612,-95.5859 307.019,-95.3595 309.19,-102.014"/>
</g>
<!-- Node149 -->
<g id="node5" class="node"><title>Node149</title>
<g id="a_node5"><a xlink:href="include_2elzip_2tinydir_8h.html#af0bcd377e6e5712d292d22406b38a656" target="_top" xlink:title="_tinydir_get_ext">
<polygon fill="white" stroke="black" points="305,-0.5 305,-19.5 391,-19.5 391,-0.5 305,-0.5"/>
<text text-anchor="middle" x="348" y="-7.5" font-family="Helvetica,sans-Serif" font-size="10.00">_tinydir_get_ext</text>
</a>
</g>
</g>
<!-- Node148&#45;&gt;Node149 -->
<g id="edge4" class="edge"><title>Node148&#45;&gt;Node149</title>
<path fill="none" stroke="midnightblue" d="M269.293,-10C277.387,-10 286.047,-10 294.541,-10"/>
<polygon fill="midnightblue" stroke="midnightblue" points="294.771,-13.5001 304.771,-10 294.771,-6.5001 294.771,-13.5001"/>
</g>
<!-- Node150&#45;&gt;Node147 -->
<g id="edge6" class="edge"><title>Node150&#45;&gt;Node147</title>
<path fill="none" stroke="midnightblue" d="M259.898,-57.589C274.385,-62.3144 292.058,-68.0789 307.689,-73.1774"/>
<polygon fill="midnightblue" stroke="midnightblue" points="307.019,-76.6405 317.612,-76.4141 309.19,-69.9855 307.019,-76.6405"/>
</g>
</g>
</svg>
