<?xml version="1.0" encoding="UTF-8" standalone="no"?>
<!DOCTYPE svg PUBLIC "-//W3C//DTD SVG 1.1//EN"
 "http://www.w3.org/Graphics/SVG/1.1/DTD/svg11.dtd">
<!-- Generated by graphviz version 2.38.0 (20140413.2041)
 -->
<!-- Title: obe::Utils::Math::isBetween Pages: 1 -->
<!--zoomable 287 -->
<svg id="main" version="1.1" xmlns="http://www.w3.org/2000/svg" xmlns:xlink="http://www.w3.org/1999/xlink" xml:space="preserve" onload="init(evt)">
<style type="text/css"><![CDATA[
.edge:hover path { stroke: red; }
.edge:hover polygon { stroke: red; fill: red; }
.edge path { stroke: white; }
.edge polygon { stroke: white; fill: white; }
.node polygon { fill: white; }
]]></style>
<script type="text/javascript"><![CDATA[
var edges = document.getElementsByTagName('g');
if (edges && edges.length) {
  for (var i=0;i<edges.length;i++) {
    if (edges[i].id.substr(0,4)=='edge') {
      edges[i].setAttribute('class','edge');
    }
  }
}
]]></script>
        <defs>
                <circle id="rim" cx="0" cy="0" r="7"/>
                <circle id="rim2" cx="0" cy="0" r="3.5"/>
                <g id="zoomPlus">
                        <use xlink:href="#rim" fill="#404040">
                                <set attributeName="fill" to="#808080" begin="zoomplus.mouseover" end="zoomplus.mouseout"/>
                        </use>
                        <path d="M-4,0h8M0,-4v8" fill="none" stroke="white" stroke-width="1.5" pointer-events="none"/>
                </g>
                <g id="zoomMin">
                        <use xlink:href="#rim" fill="#404040">
                                <set attributeName="fill" to="#808080" begin="zoomminus.mouseover" end="zoomminus.mouseout"/>
                        </use>
                        <path d="M-4,0h8" fill="none" stroke="white" stroke-width="1.5" pointer-events="none"/>
                </g>
                <g id="dirArrow">
                        <path fill="none" stroke="white" stroke-width="1.5" d="M0,-3.0v7 M-2.5,-0.5L0,-3.0L2.5,-0.5"/>
                </g>
               <g id="resetDef">
                       <use xlink:href="#rim2" fill="#404040">
                               <set attributeName="fill" to="#808080" begin="reset.mouseover" end="reset.mouseout"/>
                       </use>
               </g>
        </defs>

<script type="text/javascript">
var viewWidth = 1373;
var viewHeight = 287;
var sectionId = 'dynsection-0';
</script>
<script xlink:href="svgpan.js"/>
<svg id="graph" class="graph">
<g id="viewport">
<title>obe::Utils::Math::isBetween</title>
<!-- Node5 -->
<g id="node1" class="node"><title>Node5</title>
<polygon fill="#bfbfbf" stroke="black" points="0,-104 0,-123 137,-123 137,-104 0,-104"/>
<text text-anchor="middle" x="68.5" y="-111" font-family="Helvetica,sans-Serif" font-size="10.00">obe::Utils::Math::isBetween</text>
</g>
<!-- Node6 -->
<g id="node2" class="node"><title>Node6</title>
<g id="a_node2"><a xlink:href="classobe_1_1_collision_1_1_polygonal_collider.html#abab327ea19bcbd89e69c4d847d2c8e18" target="_top" xlink:title="Get if the Position (x, y) is on one of the side of the Polygon. ">
<polygon fill="none" stroke="black" points="173,-147.5 173,-177.5 329,-177.5 329,-147.5 173,-147.5"/>
<text text-anchor="start" x="181" y="-165.5" font-family="Helvetica,sans-Serif" font-size="10.00">obe::Collision::Polygonal</text>
<text text-anchor="middle" x="251" y="-154.5" font-family="Helvetica,sans-Serif" font-size="10.00">Collider::getSideContainingPoint</text>
</a>
</g>
</g>
<!-- Node5&#45;&gt;Node6 -->
<g id="edge1" class="edge"><title>Node5&#45;&gt;Node6</title>
<path fill="none" stroke="midnightblue" d="M114.402,-125.69C138.682,-132.281 168.879,-140.478 194.609,-147.463"/>
<polygon fill="midnightblue" stroke="midnightblue" points="115.298,-122.306 104.731,-123.064 113.464,-129.062 115.298,-122.306"/>
</g>
<!-- Node19 -->
<g id="node15" class="node"><title>Node19</title>
<g id="a_node15"><a xlink:href="classobe_1_1_collision_1_1_polygonal_collider.html#a5887cd5cf578810d59095ba09a7ace72" target="_top" xlink:title="Check if a point of the Polygon is on Position (x &#45; tolerance &lt;= x &lt;= x + tolerance, y &#45; tolerance &lt;= tolerance &lt;= y + tolerance) ">
<polygon fill="none" stroke="black" points="189,-98.5 189,-128.5 313,-128.5 313,-98.5 189,-98.5"/>
<text text-anchor="start" x="197" y="-116.5" font-family="Helvetica,sans-Serif" font-size="10.00">obe::Collision::Polygonal</text>
<text text-anchor="middle" x="251" y="-105.5" font-family="Helvetica,sans-Serif" font-size="10.00">Collider::hasPoint</text>
</a>
</g>
</g>
<!-- Node5&#45;&gt;Node19 -->
<g id="edge18" class="edge"><title>Node5&#45;&gt;Node19</title>
<path fill="none" stroke="midnightblue" d="M147.24,-113.5C161.119,-113.5 175.4,-113.5 188.736,-113.5"/>
<polygon fill="midnightblue" stroke="midnightblue" points="147.225,-110 137.225,-113.5 147.225,-117 147.225,-110"/>
</g>
<!-- Node21 -->
<g id="node17" class="node"><title>Node21</title>
<g id="a_node17"><a xlink:href="classobe_1_1_collision_1_1_polygonal_collider.html#a7039fec00f5c7ecb09115035901a8fb9" target="_top" xlink:title="Check if the MasterPoint of the Polygon is on Position (x &#45; tolerance &lt;= x &lt;= x + tolerance...">
<polygon fill="none" stroke="black" points="189,-196.5 189,-226.5 313,-226.5 313,-196.5 189,-196.5"/>
<text text-anchor="start" x="197" y="-214.5" font-family="Helvetica,sans-Serif" font-size="10.00">obe::Collision::Polygonal</text>
<text text-anchor="middle" x="251" y="-203.5" font-family="Helvetica,sans-Serif" font-size="10.00">Collider::hasMasterPoint</text>
</a>
</g>
</g>
<!-- Node5&#45;&gt;Node21 -->
<g id="edge23" class="edge"><title>Node5&#45;&gt;Node21</title>
<path fill="none" stroke="midnightblue" d="M88.5456,-129.605C108.506,-145.819 141.313,-170.638 173,-186.5 180.415,-190.212 188.502,-193.541 196.558,-196.466"/>
<polygon fill="midnightblue" stroke="midnightblue" points="90.5149,-126.692 80.5735,-123.029 86.0607,-132.092 90.5149,-126.692"/>
</g>
<!-- Node22 -->
<g id="node18" class="node"><title>Node22</title>
<g id="a_node18"><a xlink:href="classobe_1_1_editor_1_1_editor_grid.html#aada563ba2b5a6602301be476d2628a4d" target="_top" xlink:title="Draws the Grid on the Screen. ">
<polygon fill="none" stroke="black" points="194.5,-0.5 194.5,-30.5 307.5,-30.5 307.5,-0.5 194.5,-0.5"/>
<text text-anchor="start" x="202.5" y="-18.5" font-family="Helvetica,sans-Serif" font-size="10.00">obe::Editor::EditorGrid</text>
<text text-anchor="middle" x="251" y="-7.5" font-family="Helvetica,sans-Serif" font-size="10.00">::draw</text>
</a>
</g>
</g>
<!-- Node5&#45;&gt;Node22 -->
<g id="edge25" class="edge"><title>Node5&#45;&gt;Node22</title>
<path fill="none" stroke="midnightblue" d="M88.2015,-97.3014C108.073,-80.7943 140.983,-55.4198 173,-39.5 179.771,-36.1335 187.111,-33.1194 194.479,-30.4588"/>
<polygon fill="midnightblue" stroke="midnightblue" points="85.9096,-94.6558 80.5238,-103.78 90.4238,-100.006 85.9096,-94.6558"/>
</g>
<!-- Node23 -->
<g id="node19" class="node"><title>Node23</title>
<g id="a_node19"><a xlink:href="classobe_1_1_graphics_1_1_level_sprite.html#a1050ff693ba585ae9fa25e6dd636d16f" target="_top" xlink:title="Get the HandlePoint of the LevelSprite at the given Position(x, y) ">
<polygon fill="none" stroke="black" points="185.5,-49.5 185.5,-79.5 316.5,-79.5 316.5,-49.5 185.5,-49.5"/>
<text text-anchor="start" x="193.5" y="-67.5" font-family="Helvetica,sans-Serif" font-size="10.00">obe::Graphics::LevelSprite</text>
<text text-anchor="middle" x="251" y="-56.5" font-family="Helvetica,sans-Serif" font-size="10.00">::getHandlePoint</text>
</a>
</g>
</g>
<!-- Node5&#45;&gt;Node23 -->
<g id="edge27" class="edge"><title>Node5&#45;&gt;Node23</title>
<path fill="none" stroke="midnightblue" d="M114.402,-101.31C138.682,-94.7192 168.879,-86.5218 194.609,-79.537"/>
<polygon fill="midnightblue" stroke="midnightblue" points="113.464,-97.9383 104.731,-103.936 115.298,-104.694 113.464,-97.9383"/>
</g>
<!-- Node7 -->
<g id="node3" class="node"><title>Node7</title>
<g id="a_node3"><a xlink:href="namespaceobe_1_1_script_1_1_core_lib.html#a07d6c11bbb082bc45bdba50d97965c00" target="_top" xlink:title="obe::Script::CoreLib\l::loadCollision">
<polygon fill="none" stroke="black" points="365.5,-150.5 365.5,-180.5 468.5,-180.5 468.5,-150.5 365.5,-150.5"/>
<text text-anchor="start" x="373.5" y="-168.5" font-family="Helvetica,sans-Serif" font-size="10.00">obe::Script::CoreLib</text>
<text text-anchor="middle" x="417" y="-157.5" font-family="Helvetica,sans-Serif" font-size="10.00">::loadCollision</text>
</a>
</g>
</g>
<!-- Node6&#45;&gt;Node7 -->
<g id="edge2" class="edge"><title>Node6&#45;&gt;Node7</title>
<path fill="none" stroke="midnightblue" d="M339.294,-164.097C348.224,-164.26 357.071,-164.422 365.407,-164.575"/>
<polygon fill="midnightblue" stroke="midnightblue" points="339.26,-160.596 329.198,-163.912 339.132,-167.595 339.26,-160.596"/>
</g>
<!-- Node8 -->
<g id="node4" class="node"><title>Node8</title>
<g id="a_node4"><a xlink:href="namespaceobe_1_1_script.html#abdb81ec0976f1097cef6711415b8fac3" target="_top" xlink:title="obe::Script::loadCoreLib">
<polygon fill="none" stroke="black" points="505,-156 505,-175 626,-175 626,-156 505,-156"/>
<text text-anchor="middle" x="565.5" y="-163" font-family="Helvetica,sans-Serif" font-size="10.00">obe::Script::loadCoreLib</text>
</a>
</g>
</g>
<!-- Node7&#45;&gt;Node8 -->
<g id="edge3" class="edge"><title>Node7&#45;&gt;Node8</title>
<path fill="none" stroke="midnightblue" d="M478.828,-158.837C487.466,-158.715 496.341,-158.721 504.953,-158.856"/>
<polygon fill="midnightblue" stroke="midnightblue" points="478.755,-155.338 468.827,-159.039 478.896,-162.336 478.755,-155.338"/>
</g>
<!-- Node8&#45;&gt;Node7 -->
<g id="edge17" class="edge"><title>Node8&#45;&gt;Node7</title>
<path fill="none" stroke="midnightblue" d="M494.752,-172.243C486.011,-172.277 477.203,-172.183 468.827,-171.961"/>
<polygon fill="midnightblue" stroke="midnightblue" points="494.988,-175.741 504.953,-172.144 494.92,-168.741 494.988,-175.741"/>
</g>
<!-- Node9 -->
<g id="node5" class="node"><title>Node9</title>
<g id="a_node5"><a xlink:href="namespaceobe_1_1_script.html#a4e6ee77032cf7f66544f9b08464a60b7" target="_top" xlink:title="obe::Script::loadLib">
<polygon fill="none" stroke="black" points="662,-161 662,-180 763,-180 763,-161 662,-161"/>
<text text-anchor="middle" x="712.5" y="-168" font-family="Helvetica,sans-Serif" font-size="10.00">obe::Script::loadLib</text>
</a>
</g>
</g>
<!-- Node8&#45;&gt;Node9 -->
<g id="edge4" class="edge"><title>Node8&#45;&gt;Node9</title>
<path fill="none" stroke="midnightblue" d="M636.401,-167.91C645.037,-168.208 653.723,-168.508 661.967,-168.792"/>
<polygon fill="midnightblue" stroke="midnightblue" points="636.429,-164.409 626.314,-167.563 636.188,-171.405 636.429,-164.409"/>
</g>
<!-- Node10 -->
<g id="node6" class="node"><title>Node10</title>
<g id="a_node6"><a xlink:href="namespaceobe_1_1_modes.html#a1e38c0d9a2ca0230f0de79c298f53ab9" target="_top" xlink:title="A mode that will start the Toolkit. ">
<polygon fill="none" stroke="black" points="976,-90 976,-109 1122,-109 1122,-90 976,-90"/>
<text text-anchor="middle" x="1049" y="-97" font-family="Helvetica,sans-Serif" font-size="10.00">obe::Modes::startToolkitMode</text>
</a>
</g>
</g>
<!-- Node9&#45;&gt;Node10 -->
<g id="edge5" class="edge"><title>Node9&#45;&gt;Node10</title>
<path fill="none" stroke="midnightblue" d="M768.411,-158.845C834.008,-144.921 942.483,-121.897 1003.23,-109.002"/>
<polygon fill="midnightblue" stroke="midnightblue" points="767.32,-155.498 758.265,-160.998 768.774,-162.346 767.32,-155.498"/>
</g>
<!-- Node13 -->
<g id="node9" class="node"><title>Node13</title>
<g id="a_node9"><a xlink:href="classobe_1_1_scene_1_1_world.html#a32964e659e18cb32094d9f8ceea30aa3" target="_top" xlink:title="obe::Scene::World::\lWorld">
<polygon fill="none" stroke="black" points="997,-182.5 997,-212.5 1101,-212.5 1101,-182.5 997,-182.5"/>
<text text-anchor="start" x="1005" y="-200.5" font-family="Helvetica,sans-Serif" font-size="10.00">obe::Scene::World::</text>
<text text-anchor="middle" x="1049" y="-189.5" font-family="Helvetica,sans-Serif" font-size="10.00">World</text>
</a>
</g>
</g>
<!-- Node9&#45;&gt;Node13 -->
<g id="edge9" class="edge"><title>Node9&#45;&gt;Node13</title>
<path fill="none" stroke="midnightblue" d="M740.226,-184.591C756.677,-192.456 778.477,-201.462 799,-205.5 866.476,-218.776 946.188,-212.475 996.907,-205.793"/>
<polygon fill="midnightblue" stroke="midnightblue" points="741.724,-181.427 731.208,-180.138 738.625,-187.704 741.724,-181.427"/>
</g>
<!-- Node14 -->
<g id="node10" class="node"><title>Node14</title>
<g id="a_node10"><a xlink:href="namespaceobe_1_1_scene.html#ae5cbcc3278d9115d603e5024dec9136e" target="_top" xlink:title="obe::Scene::loadWorldScript\lEngineBaseLib">
<polygon fill="none" stroke="black" points="799,-166.5 799,-196.5 940,-196.5 940,-166.5 799,-166.5"/>
<text text-anchor="start" x="807" y="-184.5" font-family="Helvetica,sans-Serif" font-size="10.00">obe::Scene::loadWorldScript</text>
<text text-anchor="middle" x="869.5" y="-173.5" font-family="Helvetica,sans-Serif" font-size="10.00">EngineBaseLib</text>
</a>
</g>
</g>
<!-- Node9&#45;&gt;Node14 -->
<g id="edge10" class="edge"><title>Node9&#45;&gt;Node14</title>
<path fill="none" stroke="midnightblue" d="M773.418,-174.752C781.775,-175.345 790.419,-175.959 798.934,-176.563"/>
<polygon fill="midnightblue" stroke="midnightblue" points="773.619,-171.258 763.396,-174.041 773.123,-178.24 773.619,-171.258"/>
</g>
<!-- Node15 -->
<g id="node11" class="node"><title>Node15</title>
<g id="a_node11"><a xlink:href="namespaceobe_1_1_script.html#a5e992c0efb0543e7c934bc1065f08b01" target="_top" xlink:title="obe::Script::loadLibBridge">
<polygon fill="none" stroke="black" points="805.5,-254 805.5,-273 933.5,-273 933.5,-254 805.5,-254"/>
<text text-anchor="middle" x="869.5" y="-261" font-family="Helvetica,sans-Serif" font-size="10.00">obe::Script::loadLibBridge</text>
</a>
</g>
</g>
<!-- Node9&#45;&gt;Node15 -->
<g id="edge12" class="edge"><title>Node9&#45;&gt;Node15</title>
<path fill="none" stroke="midnightblue" d="M730.582,-187.31C746.969,-202.662 772.996,-225.099 799,-239.5 809.609,-245.375 821.915,-250.195 833.197,-253.933"/>
<polygon fill="midnightblue" stroke="midnightblue" points="732.59,-184.387 722.943,-180.007 727.753,-189.447 732.59,-184.387"/>
</g>
<!-- Node18 -->
<g id="node14" class="node"><title>Node18</title>
<g id="a_node14"><a xlink:href="namespaceobe_1_1_script.html#aad6ef67388e6d16eb01853f208da410f" target="_top" xlink:title="obe::Script::loadBaseLib">
<polygon fill="none" stroke="black" points="808,-90 808,-109 931,-109 931,-90 808,-90"/>
<text text-anchor="middle" x="869.5" y="-97" font-family="Helvetica,sans-Serif" font-size="10.00">obe::Script::loadBaseLib</text>
</a>
</g>
</g>
<!-- Node9&#45;&gt;Node18 -->
<g id="edge15" class="edge"><title>Node9&#45;&gt;Node18</title>
<path fill="none" stroke="midnightblue" d="M737.803,-155.689C754.614,-145.809 777.706,-132.947 799,-123.5 811.252,-118.064 825.145,-113.05 837.272,-109.026"/>
<polygon fill="midnightblue" stroke="midnightblue" points="735.965,-152.71 729.161,-160.831 739.544,-158.726 735.965,-152.71"/>
</g>
<!-- Node11 -->
<g id="node7" class="node"><title>Node11</title>
<g id="a_node7"><a xlink:href="namespaceobe_1_1_modes.html#a6a8b08eee511d4895c4da96d4ba223a6" target="_top" xlink:title="Starts the development Menu where you can starts other menus from. ">
<polygon fill="none" stroke="black" points="1158,-52 1158,-71 1291,-71 1291,-52 1158,-52"/>
<text text-anchor="middle" x="1224.5" y="-59" font-family="Helvetica,sans-Serif" font-size="10.00">obe::Modes::startDevMenu</text>
</a>
</g>
</g>
<!-- Node10&#45;&gt;Node11 -->
<g id="edge6" class="edge"><title>Node10&#45;&gt;Node11</title>
<path fill="none" stroke="midnightblue" d="M1103.66,-87.7474C1128.19,-82.3742 1156.88,-76.0914 1180.03,-71.0201"/>
<polygon fill="midnightblue" stroke="midnightblue" points="1102.8,-84.3525 1093.78,-89.911 1104.3,-91.1904 1102.8,-84.3525"/>
</g>
<!-- Node12 -->
<g id="node8" class="node"><title>Node12</title>
<g id="a_node8"><a xlink:href="_ob_engine_8cpp.html#a3c04138a5bfe5d72780bb7e82a18e627" target="_top" xlink:title="main">
<polygon fill="none" stroke="black" points="1327,-52 1327,-71 1365,-71 1365,-52 1327,-52"/>
<text text-anchor="middle" x="1346" y="-59" font-family="Helvetica,sans-Serif" font-size="10.00">main</text>
</a>
</g>
</g>
<!-- Node10&#45;&gt;Node12 -->
<g id="edge8" class="edge"><title>Node10&#45;&gt;Node12</title>
<path fill="none" stroke="midnightblue" d="M1132.26,-98.2903C1179.19,-96.2906 1238.88,-91.5275 1291,-80.5 1303.25,-77.908 1316.52,-73.2647 1326.84,-69.2174"/>
<polygon fill="midnightblue" stroke="midnightblue" points="1132,-94.7978 1122.14,-98.6872 1132.27,-101.792 1132,-94.7978"/>
</g>
<!-- Node11&#45;&gt;Node12 -->
<g id="edge7" class="edge"><title>Node11&#45;&gt;Node12</title>
<path fill="none" stroke="midnightblue" d="M1301.44,-61.5C1310.72,-61.5 1319.44,-61.5 1326.6,-61.5"/>
<polygon fill="midnightblue" stroke="midnightblue" points="1301.19,-58.0001 1291.19,-61.5 1301.19,-65.0001 1301.19,-58.0001"/>
</g>
<!-- Node14&#45;&gt;Node13 -->
<g id="edge11" class="edge"><title>Node14&#45;&gt;Node13</title>
<path fill="none" stroke="midnightblue" d="M950.449,-188.707C966.247,-190.131 982.421,-191.589 996.941,-192.898"/>
<polygon fill="midnightblue" stroke="midnightblue" points="950.417,-185.19 940.143,-187.778 949.789,-192.161 950.417,-185.19"/>
</g>
<!-- Node16 -->
<g id="node12" class="node"><title>Node16</title>
<g id="a_node12"><a xlink:href="namespaceobe_1_1_script.html#a5dc8321da50fd4b5dc2935e4d8c93a4e" target="_top" xlink:title="obe::Script::loadScrGame\lObject">
<polygon fill="none" stroke="black" points="984.5,-248.5 984.5,-278.5 1113.5,-278.5 1113.5,-248.5 984.5,-248.5"/>
<text text-anchor="start" x="992.5" y="-266.5" font-family="Helvetica,sans-Serif" font-size="10.00">obe::Script::loadScrGame</text>
<text text-anchor="middle" x="1049" y="-255.5" font-family="Helvetica,sans-Serif" font-size="10.00">Object</text>
</a>
</g>
</g>
<!-- Node15&#45;&gt;Node16 -->
<g id="edge13" class="edge"><title>Node15&#45;&gt;Node16</title>
<path fill="none" stroke="midnightblue" d="M943.737,-263.5C957.171,-263.5 971.096,-263.5 984.226,-263.5"/>
<polygon fill="midnightblue" stroke="midnightblue" points="943.58,-260 933.58,-263.5 943.58,-267 943.58,-260"/>
</g>
<!-- Node17 -->
<g id="node13" class="node"><title>Node17</title>
<g id="a_node13"><a xlink:href="classobe_1_1_script_1_1_game_object.html#aadeac0036d2fe21d523acfd4e9011a23" target="_top" xlink:title="obe::Script::GameObject\l::loadGameObject">
<polygon fill="none" stroke="black" points="1162,-248.5 1162,-278.5 1287,-278.5 1287,-248.5 1162,-248.5"/>
<text text-anchor="start" x="1170" y="-266.5" font-family="Helvetica,sans-Serif" font-size="10.00">obe::Script::GameObject</text>
<text text-anchor="middle" x="1224.5" y="-255.5" font-family="Helvetica,sans-Serif" font-size="10.00">::loadGameObject</text>
</a>
</g>
</g>
<!-- Node16&#45;&gt;Node17 -->
<g id="edge14" class="edge"><title>Node16&#45;&gt;Node17</title>
<path fill="none" stroke="midnightblue" d="M1123.72,-263.5C1136.44,-263.5 1149.55,-263.5 1161.91,-263.5"/>
<polygon fill="midnightblue" stroke="midnightblue" points="1123.62,-260 1113.62,-263.5 1123.62,-267 1123.62,-260"/>
</g>
<!-- Node18&#45;&gt;Node10 -->
<g id="edge16" class="edge"><title>Node18&#45;&gt;Node10</title>
<path fill="none" stroke="midnightblue" d="M941.346,-99.5C952.662,-99.5 964.384,-99.5 975.733,-99.5"/>
<polygon fill="midnightblue" stroke="midnightblue" points="941.089,-96.0001 931.089,-99.5 941.089,-103 941.089,-96.0001"/>
</g>
<!-- Node19&#45;&gt;Node7 -->
<g id="edge22" class="edge"><title>Node19&#45;&gt;Node7</title>
<path fill="none" stroke="midnightblue" d="M310.339,-131.621C316.64,-133.597 322.956,-135.585 329,-137.5 342.16,-141.669 356.423,-146.238 369.52,-150.453"/>
<polygon fill="midnightblue" stroke="midnightblue" points="311.079,-128.186 300.49,-128.539 308.988,-134.866 311.079,-128.186"/>
</g>
<!-- Node20 -->
<g id="node16" class="node"><title>Node20</title>
<g id="a_node16"><a xlink:href="namespaceobe_1_1_editor.html#a9009207671e71dccb68a31ea2362e9ef" target="_top" xlink:title="Starts the map edition. ">
<polygon fill="none" stroke="black" points="365,-52 365,-71 469,-71 469,-52 365,-52"/>
<text text-anchor="middle" x="417" y="-59" font-family="Helvetica,sans-Serif" font-size="10.00">obe::Editor::editMap</text>
</a>
</g>
</g>
<!-- Node19&#45;&gt;Node20 -->
<g id="edge19" class="edge"><title>Node19&#45;&gt;Node20</title>
<path fill="none" stroke="midnightblue" d="M309.113,-95.3909C334.891,-87.2176 364.292,-77.8951 385.726,-71.0991"/>
<polygon fill="midnightblue" stroke="midnightblue" points="307.91,-92.1006 299.436,-98.4594 310.026,-98.7732 307.91,-92.1006"/>
</g>
<!-- Node20&#45;&gt;Node11 -->
<g id="edge20" class="edge"><title>Node20&#45;&gt;Node11</title>
<path fill="none" stroke="midnightblue" d="M479.493,-61.5C538.878,-61.5 631.345,-61.5 711.5,-61.5 711.5,-61.5 711.5,-61.5 870.5,-61.5 970.701,-61.5 1086.9,-61.5 1157.79,-61.5"/>
<polygon fill="midnightblue" stroke="midnightblue" points="479.164,-58.0001 469.164,-61.5 479.164,-65.0001 479.164,-58.0001"/>
</g>
<!-- Node20&#45;&gt;Node12 -->
<g id="edge21" class="edge"><title>Node20&#45;&gt;Node12</title>
<path fill="none" stroke="midnightblue" d="M473.342,-50.015C532.141,-38.8289 627.959,-23.5 711.5,-23.5 711.5,-23.5 711.5,-23.5 1050,-23.5 1157.44,-23.5 1185.88,-20.26 1291,-42.5 1303.25,-45.092 1316.52,-49.7353 1326.84,-53.7826"/>
<polygon fill="midnightblue" stroke="midnightblue" points="472.673,-46.5793 463.518,-51.911 474,-53.4524 472.673,-46.5793"/>
</g>
<!-- Node21&#45;&gt;Node7 -->
<g id="edge24" class="edge"><title>Node21&#45;&gt;Node7</title>
<path fill="none" stroke="midnightblue" d="M315.757,-193.617C332.163,-189.015 349.595,-184.126 365.243,-179.737"/>
<polygon fill="midnightblue" stroke="midnightblue" points="314.383,-190.367 305.7,-196.438 316.273,-197.107 314.383,-190.367"/>
</g>
<!-- Node22&#45;&gt;Node20 -->
<g id="edge26" class="edge"><title>Node22&#45;&gt;Node20</title>
<path fill="none" stroke="midnightblue" d="M315.558,-33.3272C338.107,-39.652 362.619,-46.5272 381.782,-51.9024"/>
<polygon fill="midnightblue" stroke="midnightblue" points="316.273,-29.8929 305.7,-30.5621 314.383,-36.6328 316.273,-29.8929"/>
</g>
<!-- Node23&#45;&gt;Node20 -->
<g id="edge28" class="edge"><title>Node23&#45;&gt;Node20</title>
<path fill="none" stroke="midnightblue" d="M326.999,-63.1281C339.786,-62.8942 352.802,-62.6561 364.791,-62.4368"/>
<polygon fill="midnightblue" stroke="midnightblue" points="326.751,-59.6319 316.817,-63.3143 326.88,-66.6307 326.751,-59.6319"/>
</g>
</g>
</svg>
        <g id="navigator" transform="translate(0 0)" fill="#404254">
                <rect fill="#f2f5e9" fill-opacity="0.5" stroke="#606060" stroke-width=".5" x="0" y="0" width="60" height="60"/>
                <use id="zoomplus" xlink:href="#zoomPlus" x="17" y="9" onmousedown="handleZoom(evt,'in')"/>
                <use id="zoomminus" xlink:href="#zoomMin" x="42" y="9" onmousedown="handleZoom(evt,'out')"/>
                <use id="reset" xlink:href="#resetDef" x="30" y="36" onmousedown="handleReset()"/>
                <g id="arrowUp" xlink:href="#dirArrow" transform="translate(30 24)" onmousedown="handlePan(0,-1)">
                  <use xlink:href="#rim" fill="#404040">
                        <set attributeName="fill" to="#808080" begin="arrowUp.mouseover" end="arrowUp.mouseout"/>
                  </use>
                  <path fill="none" stroke="white" stroke-width="1.5" d="M0,-3.0v7 M-2.5,-0.5L0,-3.0L2.5,-0.5"/>
                </g>
                <g id="arrowRight" xlink:href="#dirArrow" transform="rotate(90) translate(36 -43)" onmousedown="handlePan(1,0)">
                  <use xlink:href="#rim" fill="#404040">
                        <set attributeName="fill" to="#808080" begin="arrowRight.mouseover" end="arrowRight.mouseout"/>
                  </use>
                  <path fill="none" stroke="white" stroke-width="1.5" d="M0,-3.0v7 M-2.5,-0.5L0,-3.0L2.5,-0.5"/>
                </g>
                <g id="arrowDown" xlink:href="#dirArrow" transform="rotate(180) translate(-30 -48)" onmousedown="handlePan(0,1)">
                  <use xlink:href="#rim" fill="#404040">
                        <set attributeName="fill" to="#808080" begin="arrowDown.mouseover" end="arrowDown.mouseout"/>
                  </use>
                  <path fill="none" stroke="white" stroke-width="1.5" d="M0,-3.0v7 M-2.5,-0.5L0,-3.0L2.5,-0.5"/>
                </g>
                <g id="arrowLeft" xlink:href="#dirArrow" transform="rotate(270) translate(-36 17)" onmousedown="handlePan(-1,0)">
                  <use xlink:href="#rim" fill="#404040">
                        <set attributeName="fill" to="#808080" begin="arrowLeft.mouseover" end="arrowLeft.mouseout"/>
                  </use>
                  <path fill="none" stroke="white" stroke-width="1.5" d="M0,-3.0v7 M-2.5,-0.5L0,-3.0L2.5,-0.5"/>
                </g>
        </g>
        <svg viewBox="0 0 15 15" width="100%" height="30px" preserveAspectRatio="xMaxYMin meet">
         <g id="arrow_out" transform="scale(0.3 0.3)">
          <a xlink:href="namespaceobe_1_1_utils_1_1_math_a24f8d3bc663fb3e51ddb114f09adf202_icgraph_org.svg" target="_base">
           <rect id="button" ry="5" rx="5" y="6" x="6" height="38" width="38"
                fill="#f2f5e9" fill-opacity="0.5" stroke="#606060" stroke-width="1.0"/>
           <path id="arrow"
             d="M 11.500037,31.436501 C 11.940474,20.09759 22.043105,11.32322 32.158766,21.979434 L 37.068811,17.246167 C 37.068811,17.246167 37.088388,32 37.088388,32 L 22.160133,31.978069 C 22.160133,31.978069 26.997745,27.140456 26.997745,27.140456 C 18.528582,18.264221 13.291696,25.230495 11.500037,31.436501 z"
             style="fill:#404040;"/>
          </a>
         </g>
        </svg>
</svg>
