<?xml version="1.0" encoding="UTF-8" standalone="no"?>
<!DOCTYPE svg PUBLIC "-//W3C//DTD SVG 1.1//EN"
 "http://www.w3.org/Graphics/SVG/1.1/DTD/svg11.dtd">
<!-- Generated by graphviz version 2.38.0 (20140413.2041)
 -->
<!-- Title: obe::Utils::String::getRandomKey Pages: 1 -->
<svg width="999pt" height="137pt"
 viewBox="0.00 0.00 999.00 137.00" xmlns="http://www.w3.org/2000/svg" xmlns:xlink="http://www.w3.org/1999/xlink">
<g id="graph0" class="graph" transform="scale(1 1) rotate(0) translate(4 133)">
<title>obe::Utils::String::getRandomKey</title>
<!-- Node26 -->
<g id="node1" class="node"><title>Node26</title>
<polygon fill="#bfbfbf" stroke="black" points="0,-49.5 0,-79.5 89,-79.5 89,-49.5 0,-49.5"/>
<text text-anchor="start" x="8" y="-67.5" font-family="Helvetica,sans-Serif" font-size="10.00">obe::Utils::String</text>
<text text-anchor="middle" x="44.5" y="-56.5" font-family="Helvetica,sans-Serif" font-size="10.00">::getRandomKey</text>
</g>
<!-- Node27 -->
<g id="node2" class="node"><title>Node27</title>
<g id="a_node2"><a xlink:href="namespaceobe_1_1_bindings_1_1_utils_bindings.html#ac6a7876ca7b713af93592696f54740e9" target="_top" xlink:title="obe::Bindings::UtilsBindings\l::loadStringUtils">
<polygon fill="white" stroke="black" points="125,-98.5 125,-128.5 264,-128.5 264,-98.5 125,-98.5"/>
<text text-anchor="start" x="133" y="-116.5" font-family="Helvetica,sans-Serif" font-size="10.00">obe::Bindings::UtilsBindings</text>
<text text-anchor="middle" x="194.5" y="-105.5" font-family="Helvetica,sans-Serif" font-size="10.00">::loadStringUtils</text>
</a>
</g>
</g>
<!-- Node26&#45;&gt;Node27 -->
<g id="edge1" class="edge"><title>Node26&#45;&gt;Node27</title>
<path fill="none" stroke="midnightblue" d="M98.9328,-82.1906C115.061,-87.5302 132.604,-93.3386 148.152,-98.4863"/>
<polygon fill="midnightblue" stroke="midnightblue" points="99.6977,-78.7571 89.1044,-78.9366 97.4976,-85.4023 99.6977,-78.7571"/>
</g>
<!-- Node28 -->
<g id="node3" class="node"><title>Node28</title>
<g id="a_node3"><a xlink:href="namespaceobe_1_1_editor.html#ab548dfe02b4323438bcf9caedd01d696" target="_top" xlink:title="obe::Editor::buildRequires\lObjectTab">
<polygon fill="white" stroke="black" points="130.5,-49.5 130.5,-79.5 258.5,-79.5 258.5,-49.5 130.5,-49.5"/>
<text text-anchor="start" x="138.5" y="-67.5" font-family="Helvetica,sans-Serif" font-size="10.00">obe::Editor::buildRequires</text>
<text text-anchor="middle" x="194.5" y="-56.5" font-family="Helvetica,sans-Serif" font-size="10.00">ObjectTab</text>
</a>
</g>
</g>
<!-- Node26&#45;&gt;Node28 -->
<g id="edge2" class="edge"><title>Node26&#45;&gt;Node28</title>
<path fill="none" stroke="midnightblue" d="M99.3938,-64.5C109.489,-64.5 120.124,-64.5 130.466,-64.5"/>
<polygon fill="midnightblue" stroke="midnightblue" points="99.1044,-61.0001 89.1044,-64.5 99.1044,-68.0001 99.1044,-61.0001"/>
</g>
<!-- Node34 -->
<g id="node9" class="node"><title>Node34</title>
<g id="a_node9"><a xlink:href="classobe_1_1_script_1_1_game_object.html#a3ff3f3070f0132be656f3425750cc507" target="_top" xlink:title="obe::Script::GameObject\l::loadGameObject">
<polygon fill="white" stroke="black" points="132,-0.5 132,-30.5 257,-30.5 257,-0.5 132,-0.5"/>
<text text-anchor="start" x="140" y="-18.5" font-family="Helvetica,sans-Serif" font-size="10.00">obe::Script::GameObject</text>
<text text-anchor="middle" x="194.5" y="-7.5" font-family="Helvetica,sans-Serif" font-size="10.00">::loadGameObject</text>
</a>
</g>
</g>
<!-- Node26&#45;&gt;Node34 -->
<g id="edge9" class="edge"><title>Node26&#45;&gt;Node34</title>
<path fill="none" stroke="midnightblue" d="M98.9328,-46.8094C115.061,-41.4698 132.604,-35.6614 148.152,-30.5137"/>
<polygon fill="midnightblue" stroke="midnightblue" points="97.4976,-43.5977 89.1044,-50.0634 99.6977,-50.2429 97.4976,-43.5977"/>
</g>
<!-- Node29 -->
<g id="node4" class="node"><title>Node29</title>
<g id="a_node4"><a xlink:href="namespaceobe_1_1_editor.html#a24423ada9fd467ae78ebf9d21e64db0b" target="_top" xlink:title="obe::Editor::buildObjectTab">
<polygon fill="white" stroke="black" points="300,-55 300,-74 434,-74 434,-55 300,-55"/>
<text text-anchor="middle" x="367" y="-62" font-family="Helvetica,sans-Serif" font-size="10.00">obe::Editor::buildObjectTab</text>
</a>
</g>
</g>
<!-- Node28&#45;&gt;Node29 -->
<g id="edge3" class="edge"><title>Node28&#45;&gt;Node29</title>
<path fill="none" stroke="midnightblue" d="M268.733,-64.5C279.065,-64.5 289.637,-64.5 299.827,-64.5"/>
<polygon fill="midnightblue" stroke="midnightblue" points="268.504,-61.0001 258.503,-64.5 268.503,-68.0001 268.504,-61.0001"/>
</g>
<!-- Node30 -->
<g id="node5" class="node"><title>Node30</title>
<g id="a_node5"><a xlink:href="namespaceobe_1_1_editor_1_1_g_u_i.html#ac209e33d93d1c6b719ed4c5206994ffc" target="_top" xlink:title="obe::Editor::GUI::buildEditor\lObjectsMenu">
<polygon fill="white" stroke="black" points="470,-49.5 470,-79.5 608,-79.5 608,-49.5 470,-49.5"/>
<text text-anchor="start" x="478" y="-67.5" font-family="Helvetica,sans-Serif" font-size="10.00">obe::Editor::GUI::buildEditor</text>
<text text-anchor="middle" x="539" y="-56.5" font-family="Helvetica,sans-Serif" font-size="10.00">ObjectsMenu</text>
</a>
</g>
</g>
<!-- Node29&#45;&gt;Node30 -->
<g id="edge4" class="edge"><title>Node29&#45;&gt;Node30</title>
<path fill="none" stroke="midnightblue" d="M444.421,-64.5C452.854,-64.5 461.401,-64.5 469.725,-64.5"/>
<polygon fill="midnightblue" stroke="midnightblue" points="444.213,-61.0001 434.213,-64.5 444.213,-68.0001 444.213,-61.0001"/>
</g>
<!-- Node31 -->
<g id="node6" class="node"><title>Node31</title>
<g id="a_node6"><a xlink:href="namespaceobe_1_1_editor.html#a9009207671e71dccb68a31ea2362e9ef" target="_top" xlink:title="Starts the map edition. ">
<polygon fill="white" stroke="black" points="644,-55 644,-74 748,-74 748,-55 644,-55"/>
<text text-anchor="middle" x="696" y="-62" font-family="Helvetica,sans-Serif" font-size="10.00">obe::Editor::editMap</text>
</a>
</g>
</g>
<!-- Node30&#45;&gt;Node31 -->
<g id="edge5" class="edge"><title>Node30&#45;&gt;Node31</title>
<path fill="none" stroke="midnightblue" d="M618.47,-64.5C627.032,-64.5 635.578,-64.5 643.69,-64.5"/>
<polygon fill="midnightblue" stroke="midnightblue" points="618.436,-61.0001 608.436,-64.5 618.436,-68.0001 618.436,-61.0001"/>
</g>
<!-- Node32 -->
<g id="node7" class="node"><title>Node32</title>
<g id="a_node7"><a xlink:href="namespaceobe_1_1_modes.html#a6a8b08eee511d4895c4da96d4ba223a6" target="_top" xlink:title="Starts the development Menu where you can starts other menus from. ">
<polygon fill="white" stroke="black" points="784,-74 784,-93 917,-93 917,-74 784,-74"/>
<text text-anchor="middle" x="850.5" y="-81" font-family="Helvetica,sans-Serif" font-size="10.00">obe::Modes::startDevMenu</text>
</a>
</g>
</g>
<!-- Node31&#45;&gt;Node32 -->
<g id="edge6" class="edge"><title>Node31&#45;&gt;Node32</title>
<path fill="none" stroke="midnightblue" d="M758.292,-72.1364C766.688,-73.1824 775.336,-74.2599 783.806,-75.3152"/>
<polygon fill="midnightblue" stroke="midnightblue" points="758.561,-68.6429 748.205,-70.8796 757.695,-75.5892 758.561,-68.6429"/>
</g>
<!-- Node33 -->
<g id="node8" class="node"><title>Node33</title>
<g id="a_node8"><a xlink:href="_ob_engine_8cpp.html#a3c04138a5bfe5d72780bb7e82a18e627" target="_top" xlink:title="main">
<polygon fill="white" stroke="black" points="953,-55 953,-74 991,-74 991,-55 953,-55"/>
<text text-anchor="middle" x="972" y="-62" font-family="Helvetica,sans-Serif" font-size="10.00">main</text>
</a>
</g>
</g>
<!-- Node31&#45;&gt;Node33 -->
<g id="edge8" class="edge"><title>Node31&#45;&gt;Node33</title>
<path fill="none" stroke="midnightblue" d="M758.356,-64.5C820.863,-64.5 913.971,-64.5 952.885,-64.5"/>
<polygon fill="midnightblue" stroke="midnightblue" points="758.216,-61.0001 748.216,-64.5 758.216,-68.0001 758.216,-61.0001"/>
</g>
<!-- Node32&#45;&gt;Node33 -->
<g id="edge7" class="edge"><title>Node32&#45;&gt;Node33</title>
<path fill="none" stroke="midnightblue" d="M921.822,-72.3192C933.345,-70.4869 944.327,-68.7409 952.978,-67.3654"/>
<polygon fill="midnightblue" stroke="midnightblue" points="920.926,-68.9174 911.6,-73.9443 922.026,-75.8306 920.926,-68.9174"/>
</g>
</g>
</svg>
