<?xml version="1.0" encoding="UTF-8" standalone="no"?>
<!DOCTYPE svg PUBLIC "-//W3C//DTD SVG 1.1//EN"
 "http://www.w3.org/Graphics/SVG/1.1/DTD/svg11.dtd">
<!-- Generated by graphviz version 2.38.0 (20140413.2041)
 -->
<!-- Title: obe::World::loadWorldLib Pages: 1 -->
<svg width="829pt" height="127pt"
 viewBox="0.00 0.00 829.00 127.00" xmlns="http://www.w3.org/2000/svg" xmlns:xlink="http://www.w3.org/1999/xlink">
<g id="graph0" class="graph" transform="scale(1 1) rotate(0) translate(4 123)">
<title>obe::World::loadWorldLib</title>
<!-- Node100 -->
<g id="node1" class="node"><title>Node100</title>
<polygon fill="#bfbfbf" stroke="black" points="0,-72 0,-91 126,-91 126,-72 0,-72"/>
<text text-anchor="middle" x="63" y="-79" font-family="Helvetica,sans-Serif" font-size="10.00">obe::World::loadWorldLib</text>
</g>
<!-- Node101 -->
<g id="node2" class="node"><title>Node101</title>
<g id="a_node2"><a xlink:href="classobe_1_1_world_1_1_world.html#a4985b41c5ed027948d823d7155abf779" target="_top" xlink:title="obe::World::World::\lcreateGameObject">
<polygon fill="none" stroke="black" points="181,-88.5 181,-118.5 282,-118.5 282,-88.5 181,-88.5"/>
<text text-anchor="start" x="189" y="-106.5" font-family="Helvetica,sans-Serif" font-size="10.00">obe::World::World::</text>
<text text-anchor="middle" x="231.5" y="-95.5" font-family="Helvetica,sans-Serif" font-size="10.00">createGameObject</text>
</a>
</g>
</g>
<!-- Node100&#45;&gt;Node101 -->
<g id="edge1" class="edge"><title>Node100&#45;&gt;Node101</title>
<path fill="none" stroke="midnightblue" d="M136.715,-84.4063C151.652,-86.2424 167.049,-88.4332 180.94,-90.7189"/>
<polygon fill="midnightblue" stroke="midnightblue" points="136.814,-80.8937 126.472,-83.195 135.992,-87.8452 136.814,-80.8937"/>
</g>
<!-- Node106 -->
<g id="node7" class="node"><title>Node106</title>
<g id="a_node7"><a xlink:href="namespaceobe_1_1_world.html#afc958184e59524fdf9dc6ba98a1e9a37" target="_top" xlink:title="obe::World::loadWorldScript\lEngineBaseLib">
<polygon fill="none" stroke="black" points="162,-0.5 162,-30.5 301,-30.5 301,-0.5 162,-0.5"/>
<text text-anchor="start" x="170" y="-18.5" font-family="Helvetica,sans-Serif" font-size="10.00">obe::World::loadWorldScript</text>
<text text-anchor="middle" x="231.5" y="-7.5" font-family="Helvetica,sans-Serif" font-size="10.00">EngineBaseLib</text>
</a>
</g>
</g>
<!-- Node100&#45;&gt;Node106 -->
<g id="edge9" class="edge"><title>Node100&#45;&gt;Node106</title>
<path fill="none" stroke="midnightblue" d="M97.7656,-68.1154C125.189,-57.2448 163.858,-41.9165 192.389,-30.6071"/>
<polygon fill="midnightblue" stroke="midnightblue" points="96.217,-64.9643 88.2105,-71.903 98.7966,-71.4717 96.217,-64.9643"/>
</g>
<!-- Node101&#45;&gt;Node100 -->
<g id="edge8" class="edge"><title>Node101&#45;&gt;Node100</title>
<path fill="none" stroke="midnightblue" d="M171.01,-102.139C145.441,-99.3135 116.607,-95.1409 95.3174,-91.0495"/>
<polygon fill="midnightblue" stroke="midnightblue" points="170.684,-105.624 180.995,-103.19 171.417,-98.6623 170.684,-105.624"/>
</g>
<!-- Node102 -->
<g id="node3" class="node"><title>Node102</title>
<g id="a_node3"><a xlink:href="classobe_1_1_world_1_1_world.html#afb1d1ba4e0ae0ab5f741f413b793ba7e" target="_top" xlink:title="obe::World::World::\lloadFromFile">
<polygon fill="none" stroke="black" points="337,-68.5 337,-98.5 438,-98.5 438,-68.5 337,-68.5"/>
<text text-anchor="start" x="345" y="-86.5" font-family="Helvetica,sans-Serif" font-size="10.00">obe::World::World::</text>
<text text-anchor="middle" x="387.5" y="-75.5" font-family="Helvetica,sans-Serif" font-size="10.00">loadFromFile</text>
</a>
</g>
</g>
<!-- Node101&#45;&gt;Node102 -->
<g id="edge2" class="edge"><title>Node101&#45;&gt;Node102</title>
<path fill="none" stroke="midnightblue" d="M292.117,-95.7575C306.873,-93.8412 322.526,-91.8082 336.755,-89.9604"/>
<polygon fill="midnightblue" stroke="midnightblue" points="291.54,-92.303 282.074,-97.0618 292.442,-99.2447 291.54,-92.303"/>
</g>
<!-- Node102&#45;&gt;Node100 -->
<g id="edge7" class="edge"><title>Node102&#45;&gt;Node100</title>
<path fill="none" stroke="midnightblue" d="M326.746,-80.3478C318.11,-79.996 309.329,-79.6947 301,-79.5 241.764,-78.1151 174.18,-78.921 126.383,-79.8913"/>
<polygon fill="midnightblue" stroke="midnightblue" points="326.64,-83.8464 336.782,-80.7806 326.942,-76.8529 326.64,-83.8464"/>
</g>
<!-- Node103 -->
<g id="node4" class="node"><title>Node103</title>
<g id="a_node4"><a xlink:href="namespaceobe_1_1_editor.html#a508e767d732debdb65e63c7bffa50623" target="_top" xlink:title="obe::Editor::editMap">
<polygon fill="none" stroke="black" points="474,-74 474,-93 578,-93 578,-74 474,-74"/>
<text text-anchor="middle" x="526" y="-81" font-family="Helvetica,sans-Serif" font-size="10.00">obe::Editor::editMap</text>
</a>
</g>
</g>
<!-- Node102&#45;&gt;Node103 -->
<g id="edge3" class="edge"><title>Node102&#45;&gt;Node103</title>
<path fill="none" stroke="midnightblue" d="M448.372,-83.5C456.839,-83.5 465.481,-83.5 473.766,-83.5"/>
<polygon fill="midnightblue" stroke="midnightblue" points="448.166,-80.0001 438.166,-83.5 448.166,-87.0001 448.166,-80.0001"/>
</g>
<!-- Node104 -->
<g id="node5" class="node"><title>Node104</title>
<g id="a_node5"><a xlink:href="namespaceobe_1_1_modes.html#a6a8b08eee511d4895c4da96d4ba223a6" target="_top" xlink:title="obe::Modes::startDevMenu">
<polygon fill="none" stroke="black" points="614,-93 614,-112 747,-112 747,-93 614,-93"/>
<text text-anchor="middle" x="680.5" y="-100" font-family="Helvetica,sans-Serif" font-size="10.00">obe::Modes::startDevMenu</text>
</a>
</g>
</g>
<!-- Node103&#45;&gt;Node104 -->
<g id="edge4" class="edge"><title>Node103&#45;&gt;Node104</title>
<path fill="none" stroke="midnightblue" d="M588.292,-91.1364C596.688,-92.1824 605.336,-93.2599 613.806,-94.3152"/>
<polygon fill="midnightblue" stroke="midnightblue" points="588.561,-87.6429 578.205,-89.8796 587.695,-94.5892 588.561,-87.6429"/>
</g>
<!-- Node105 -->
<g id="node6" class="node"><title>Node105</title>
<g id="a_node6"><a xlink:href="_ob_engine_8cpp.html#a3c04138a5bfe5d72780bb7e82a18e627" target="_top" xlink:title="main">
<polygon fill="none" stroke="black" points="783,-74 783,-93 821,-93 821,-74 783,-74"/>
<text text-anchor="middle" x="802" y="-81" font-family="Helvetica,sans-Serif" font-size="10.00">main</text>
</a>
</g>
</g>
<!-- Node103&#45;&gt;Node105 -->
<g id="edge6" class="edge"><title>Node103&#45;&gt;Node105</title>
<path fill="none" stroke="midnightblue" d="M588.356,-83.5C650.863,-83.5 743.971,-83.5 782.885,-83.5"/>
<polygon fill="midnightblue" stroke="midnightblue" points="588.216,-80.0001 578.216,-83.5 588.216,-87.0001 588.216,-80.0001"/>
</g>
<!-- Node104&#45;&gt;Node105 -->
<g id="edge5" class="edge"><title>Node104&#45;&gt;Node105</title>
<path fill="none" stroke="midnightblue" d="M751.822,-91.3192C763.345,-89.4869 774.327,-87.7409 782.978,-86.3654"/>
<polygon fill="midnightblue" stroke="midnightblue" points="750.926,-87.9174 741.6,-92.9443 752.026,-94.8306 750.926,-87.9174"/>
</g>
<!-- Node107 -->
<g id="node8" class="node"><title>Node107</title>
<g id="a_node8"><a xlink:href="classobe_1_1_world_1_1_world.html#a5bd621e3fd9293d949ad0c669cee6838" target="_top" xlink:title="obe::World::World::\lWorld">
<polygon fill="none" stroke="black" points="337,-0.5 337,-30.5 438,-30.5 438,-0.5 337,-0.5"/>
<text text-anchor="start" x="345" y="-18.5" font-family="Helvetica,sans-Serif" font-size="10.00">obe::World::World::</text>
<text text-anchor="middle" x="387.5" y="-7.5" font-family="Helvetica,sans-Serif" font-size="10.00">World</text>
</a>
</g>
</g>
<!-- Node106&#45;&gt;Node107 -->
<g id="edge10" class="edge"><title>Node106&#45;&gt;Node107</title>
<path fill="none" stroke="midnightblue" d="M311.429,-15.5C319.988,-15.5 328.515,-15.5 336.587,-15.5"/>
<polygon fill="midnightblue" stroke="midnightblue" points="311.392,-12.0001 301.392,-15.5 311.392,-19.0001 311.392,-12.0001"/>
</g>
</g>
</svg>
