<?xml version="1.0" encoding="UTF-8" standalone="no"?>
<!DOCTYPE svg PUBLIC "-//W3C//DTD SVG 1.1//EN"
 "http://www.w3.org/Graphics/SVG/1.1/DTD/svg11.dtd">
<!-- Generated by graphviz version 2.38.0 (20140413.2041)
 -->
<!-- Title: obe::Transform::isOnBottomSide Pages: 1 -->
<svg width="452pt" height="39pt"
 viewBox="0.00 0.00 452.00 39.00" xmlns="http://www.w3.org/2000/svg" xmlns:xlink="http://www.w3.org/1999/xlink">
<g id="graph0" class="graph" transform="scale(1 1) rotate(0) translate(4 35)">
<title>obe::Transform::isOnBottomSide</title>
<!-- Node7 -->
<g id="node1" class="node"><title>Node7</title>
<polygon fill="#bfbfbf" stroke="black" points="0,-6 0,-25 158,-25 158,-6 0,-6"/>
<text text-anchor="middle" x="79" y="-13" font-family="Helvetica,sans-Serif" font-size="10.00">obe::Transform::isOnBottomSide</text>
</g>
<!-- Node8 -->
<g id="node2" class="node"><title>Node8</title>
<g id="a_node2"><a xlink:href="classobe_1_1_transform_1_1_rect.html#acdc5c857f16cdeac3f24a86c52b9b330" target="_top" xlink:title="Set the Position of a specific Referencial of the Rect (The opposite Point won&#39;t move) ...">
<polygon fill="none" stroke="black" points="194,-0.5 194,-30.5 301,-30.5 301,-0.5 194,-0.5"/>
<text text-anchor="start" x="202" y="-18.5" font-family="Helvetica,sans-Serif" font-size="10.00">obe::Transform::Rect</text>
<text text-anchor="middle" x="247.5" y="-7.5" font-family="Helvetica,sans-Serif" font-size="10.00">::setPointPosition</text>
</a>
</g>
</g>
<!-- Node7&#45;&gt;Node8 -->
<g id="edge1" class="edge"><title>Node7&#45;&gt;Node8</title>
<path fill="none" stroke="midnightblue" d="M168.49,-15.5C177.097,-15.5 185.628,-15.5 193.715,-15.5"/>
<polygon fill="midnightblue" stroke="midnightblue" points="168.375,-12.0001 158.375,-15.5 168.375,-19.0001 168.375,-12.0001"/>
</g>
<!-- Node9 -->
<g id="node3" class="node"><title>Node9</title>
<g id="a_node3"><a xlink:href="classobe_1_1_transform_1_1_rect.html#a8f10de323814de2ddad0d39c0d4c8150" target="_top" xlink:title="Set the Position of a specific Referencial of the Rect (The opposite Point won&#39;t move) ...">
<polygon fill="none" stroke="black" points="337,-0.5 337,-30.5 444,-30.5 444,-0.5 337,-0.5"/>
<text text-anchor="start" x="345" y="-18.5" font-family="Helvetica,sans-Serif" font-size="10.00">obe::Transform::Rect</text>
<text text-anchor="middle" x="390.5" y="-7.5" font-family="Helvetica,sans-Serif" font-size="10.00">::setPointPosition</text>
</a>
</g>
</g>
<!-- Node8&#45;&gt;Node9 -->
<g id="edge2" class="edge"><title>Node8&#45;&gt;Node9</title>
<path fill="none" stroke="midnightblue" d="M311.05,-15.5C319.7,-15.5 328.51,-15.5 336.953,-15.5"/>
<polygon fill="midnightblue" stroke="midnightblue" points="311.003,-12.0001 301.003,-15.5 311.003,-19.0001 311.003,-12.0001"/>
</g>
</g>
</svg>
