<?xml version="1.0" encoding="UTF-8" standalone="no"?>
<!DOCTYPE svg PUBLIC "-//W3C//DTD SVG 1.1//EN"
 "http://www.w3.org/Graphics/SVG/1.1/DTD/svg11.dtd">
<!-- Generated by graphviz version 2.38.0 (20140413.2041)
 -->
<!-- Title: obe::Bindings::SystemBindings::BindPath Pages: 1 -->
<svg width="618pt" height="264pt"
 viewBox="0.00 0.00 618.00 264.00" xmlns="http://www.w3.org/2000/svg" xmlns:xlink="http://www.w3.org/1999/xlink">
<g id="graph0" class="graph" transform="scale(1 1) rotate(0) translate(4 260)">
<title>obe::Bindings::SystemBindings::BindPath</title>
<!-- Node57 -->
<g id="node1" class="node"><title>Node57</title>
<polygon fill="#bfbfbf" stroke="black" points="0,-110.5 0,-140.5 153,-140.5 153,-110.5 0,-110.5"/>
<text text-anchor="start" x="8" y="-128.5" font-family="Helvetica,sans-Serif" font-size="10.00">obe::Bindings::SystemBindings</text>
<text text-anchor="middle" x="76.5" y="-117.5" font-family="Helvetica,sans-Serif" font-size="10.00">::BindPath</text>
</g>
<!-- Node58 -->
<g id="node2" class="node"><title>Node58</title>
<g id="a_node2"><a xlink:href="classobe_1_1_system_1_1_path.html#af42d4608e33577210aae245892b43319" target="_top" xlink:title="Add a Path to Mounted Paths. ">
<polygon fill="white" stroke="black" points="197,-225.5 197,-255.5 301,-255.5 301,-225.5 197,-225.5"/>
<text text-anchor="start" x="205" y="-243.5" font-family="Helvetica,sans-Serif" font-size="10.00">obe::System::Path::</text>
<text text-anchor="middle" x="249" y="-232.5" font-family="Helvetica,sans-Serif" font-size="10.00">Mount</text>
</a>
</g>
</g>
<!-- Node57&#45;&gt;Node58 -->
<g id="edge1" class="edge"><title>Node57&#45;&gt;Node58</title>
<path fill="none" stroke="midnightblue" d="M92.9818,-140.701C113.536,-160.25 151.608,-194.318 189,-216.5 191.626,-218.058 194.371,-219.559 197.181,-220.997"/>
<polygon fill="midnightblue" stroke="midnightblue" points="195.769,-224.201 206.3,-225.369 198.796,-217.89 195.769,-224.201"/>
</g>
<!-- Node59 -->
<g id="node3" class="node"><title>Node59</title>
<g id="a_node3"><a xlink:href="classobe_1_1_system_1_1_path.html#abc3cb425f1278fc5b477d8f5289492db" target="_top" xlink:title="Access Mounted Paths. ">
<polygon fill="white" stroke="black" points="197,-176.5 197,-206.5 301,-206.5 301,-176.5 197,-176.5"/>
<text text-anchor="start" x="205" y="-194.5" font-family="Helvetica,sans-Serif" font-size="10.00">obe::System::Path::</text>
<text text-anchor="middle" x="249" y="-183.5" font-family="Helvetica,sans-Serif" font-size="10.00">Paths</text>
</a>
</g>
</g>
<!-- Node57&#45;&gt;Node59 -->
<g id="edge2" class="edge"><title>Node57&#45;&gt;Node59</title>
<path fill="none" stroke="midnightblue" d="M116.616,-140.642C141.309,-150.2 173.391,-162.619 199.671,-172.792"/>
<polygon fill="midnightblue" stroke="midnightblue" points="198.477,-176.083 209.066,-176.429 201.004,-169.555 198.477,-176.083"/>
</g>
<!-- Node60 -->
<g id="node4" class="node"><title>Node60</title>
<g id="a_node4"><a xlink:href="classobe_1_1_system_1_1_path.html#ab3b53b3bb2e98d5e23c35692a52eb66c" target="_top" xlink:title="Returns a new Path which is the current one concatened with the given string. ">
<polygon fill="white" stroke="black" points="189,-138 189,-157 309,-157 309,-138 189,-138"/>
<text text-anchor="middle" x="249" y="-145" font-family="Helvetica,sans-Serif" font-size="10.00">obe::System::Path::add</text>
</a>
</g>
</g>
<!-- Node57&#45;&gt;Node60 -->
<g id="edge3" class="edge"><title>Node57&#45;&gt;Node60</title>
<path fill="none" stroke="midnightblue" d="M153.277,-135.278C161.749,-136.371 170.349,-137.48 178.734,-138.562"/>
<polygon fill="midnightblue" stroke="midnightblue" points="178.467,-142.057 188.833,-139.866 179.363,-135.115 178.467,-142.057"/>
</g>
<!-- Node62 -->
<g id="node6" class="node"><title>Node62</title>
<g id="a_node6"><a xlink:href="classobe_1_1_system_1_1_path.html#ae799f481ae3b9cf209261d44569df50f" target="_top" xlink:title="Build a path using the current path and the BasePath at given index. ">
<polygon fill="white" stroke="black" points="197,-88.5 197,-118.5 301,-118.5 301,-88.5 197,-88.5"/>
<text text-anchor="start" x="205" y="-106.5" font-family="Helvetica,sans-Serif" font-size="10.00">obe::System::Path::</text>
<text text-anchor="middle" x="249" y="-95.5" font-family="Helvetica,sans-Serif" font-size="10.00">getPath</text>
</a>
</g>
</g>
<!-- Node57&#45;&gt;Node62 -->
<g id="edge5" class="edge"><title>Node57&#45;&gt;Node62</title>
<path fill="none" stroke="midnightblue" d="M153.277,-115.722C164.465,-114.279 175.873,-112.807 186.719,-111.407"/>
<polygon fill="midnightblue" stroke="midnightblue" points="187.449,-114.842 196.918,-110.091 186.553,-107.9 187.449,-114.842"/>
</g>
<!-- Node68 -->
<g id="node12" class="node"><title>Node68</title>
<g id="a_node12"><a xlink:href="classobe_1_1_system_1_1_path.html#af591e5023e1f7a18c4db9cd3f8772c2e" target="_top" xlink:title="Get the last part of a Path. ">
<polygon fill="white" stroke="black" points="189,-50 189,-69 309,-69 309,-50 189,-50"/>
<text text-anchor="middle" x="249" y="-57" font-family="Helvetica,sans-Serif" font-size="10.00">obe::System::Path::last</text>
</a>
</g>
</g>
<!-- Node57&#45;&gt;Node68 -->
<g id="edge12" class="edge"><title>Node57&#45;&gt;Node68</title>
<path fill="none" stroke="midnightblue" d="M111.351,-110.322C133.296,-100.709 162.608,-88.2907 189,-78.5 194.688,-76.39 200.732,-74.2879 206.699,-72.2925"/>
<polygon fill="midnightblue" stroke="midnightblue" points="208.179,-75.491 216.593,-69.0528 206,-68.8385 208.179,-75.491"/>
</g>
<!-- Node70 -->
<g id="node14" class="node"><title>Node70</title>
<g id="a_node14"><a xlink:href="classobe_1_1_system_1_1_path.html#aab439649ec875cd45a99a18e9c9beda8" target="_top" xlink:title="Get the current path in string form. ">
<polygon fill="white" stroke="black" points="197,-0.5 197,-30.5 301,-30.5 301,-0.5 197,-0.5"/>
<text text-anchor="start" x="205" y="-18.5" font-family="Helvetica,sans-Serif" font-size="10.00">obe::System::Path::</text>
<text text-anchor="middle" x="249" y="-7.5" font-family="Helvetica,sans-Serif" font-size="10.00">toString</text>
</a>
</g>
</g>
<!-- Node57&#45;&gt;Node70 -->
<g id="edge14" class="edge"><title>Node57&#45;&gt;Node70</title>
<path fill="none" stroke="midnightblue" d="M94.68,-110.202C115.788,-91.9437 153.215,-61.2784 189,-40.5 192.367,-38.5449 195.916,-36.657 199.535,-34.8546"/>
<polygon fill="midnightblue" stroke="midnightblue" points="201.067,-38.0019 208.609,-30.5607 198.073,-31.6746 201.067,-38.0019"/>
</g>
<!-- Node61 -->
<g id="node5" class="node"><title>Node61</title>
<g id="a_node5"><a xlink:href="classobe_1_1_system_1_1_path.html#afce5029aa92ba41d0f201f1ac67a21e0" target="_top" xlink:title="Default constructor of Path. ">
<polygon fill="white" stroke="black" points="345,-138 345,-157 470,-157 470,-138 345,-138"/>
<text text-anchor="middle" x="407.5" y="-145" font-family="Helvetica,sans-Serif" font-size="10.00">obe::System::Path::Path</text>
</a>
</g>
</g>
<!-- Node60&#45;&gt;Node61 -->
<g id="edge4" class="edge"><title>Node60&#45;&gt;Node61</title>
<path fill="none" stroke="midnightblue" d="M309.166,-147.5C317.565,-147.5 326.276,-147.5 334.88,-147.5"/>
<polygon fill="midnightblue" stroke="midnightblue" points="334.905,-151 344.905,-147.5 334.905,-144 334.905,-151"/>
</g>
<!-- Node62&#45;&gt;Node61 -->
<g id="edge6" class="edge"><title>Node62&#45;&gt;Node61</title>
<path fill="none" stroke="midnightblue" d="M301.244,-117.907C321.133,-123.499 343.675,-129.837 362.781,-135.208"/>
<polygon fill="midnightblue" stroke="midnightblue" points="361.853,-138.583 372.427,-137.92 363.748,-131.844 361.853,-138.583"/>
</g>
<!-- Node63 -->
<g id="node7" class="node"><title>Node63</title>
<g id="a_node7"><a xlink:href="classaube_1_1_error_handler.html#a7c8d44a3e7f019646d289950abc5301b" target="_top" xlink:title="aube::ErrorHandler\l::Raise">
<polygon fill="white" stroke="black" points="358.5,-88.5 358.5,-118.5 456.5,-118.5 456.5,-88.5 358.5,-88.5"/>
<text text-anchor="start" x="366.5" y="-106.5" font-family="Helvetica,sans-Serif" font-size="10.00">aube::ErrorHandler</text>
<text text-anchor="middle" x="407.5" y="-95.5" font-family="Helvetica,sans-Serif" font-size="10.00">::Raise</text>
</a>
</g>
</g>
<!-- Node62&#45;&gt;Node63 -->
<g id="edge7" class="edge"><title>Node62&#45;&gt;Node63</title>
<path fill="none" stroke="midnightblue" d="M301.244,-103.5C316.165,-103.5 332.578,-103.5 347.914,-103.5"/>
<polygon fill="midnightblue" stroke="midnightblue" points="348.328,-107 358.328,-103.5 348.328,-100 348.328,-107"/>
</g>
<!-- Node64 -->
<g id="node8" class="node"><title>Node64</title>
<g id="a_node8"><a xlink:href="classaube_1_1_error_message.html#a3a39b6fcd8fdb12eaf6383123535b8ca" target="_top" xlink:title="aube::ErrorMessage\l::getFile">
<polygon fill="white" stroke="black" points="506,-162.5 506,-192.5 610,-192.5 610,-162.5 506,-162.5"/>
<text text-anchor="start" x="514" y="-180.5" font-family="Helvetica,sans-Serif" font-size="10.00">aube::ErrorMessage</text>
<text text-anchor="middle" x="558" y="-169.5" font-family="Helvetica,sans-Serif" font-size="10.00">::getFile</text>
</a>
</g>
</g>
<!-- Node63&#45;&gt;Node64 -->
<g id="edge8" class="edge"><title>Node63&#45;&gt;Node64</title>
<path fill="none" stroke="midnightblue" d="M449.119,-118.523C456.206,-121.563 463.413,-124.931 470,-128.5 487.127,-137.78 489.128,-143.763 506,-153.5 508.503,-154.944 511.107,-156.375 513.756,-157.776"/>
<polygon fill="midnightblue" stroke="midnightblue" points="512.35,-160.987 522.85,-162.399 515.522,-154.747 512.35,-160.987"/>
</g>
<!-- Node65 -->
<g id="node9" class="node"><title>Node65</title>
<g id="a_node9"><a xlink:href="classaube_1_1_error_message.html#a9184cc96589578f434351c105b0cd5f7" target="_top" xlink:title="aube::ErrorMessage\l::getLocation">
<polygon fill="white" stroke="black" points="506,-113.5 506,-143.5 610,-143.5 610,-113.5 506,-113.5"/>
<text text-anchor="start" x="514" y="-131.5" font-family="Helvetica,sans-Serif" font-size="10.00">aube::ErrorMessage</text>
<text text-anchor="middle" x="558" y="-120.5" font-family="Helvetica,sans-Serif" font-size="10.00">::getLocation</text>
</a>
</g>
</g>
<!-- Node63&#45;&gt;Node65 -->
<g id="edge9" class="edge"><title>Node63&#45;&gt;Node65</title>
<path fill="none" stroke="midnightblue" d="M456.714,-111.617C469.266,-113.73 482.956,-116.035 496.072,-118.243"/>
<polygon fill="midnightblue" stroke="midnightblue" points="495.519,-121.699 505.961,-119.908 496.681,-114.796 495.519,-121.699"/>
</g>
<!-- Node66 -->
<g id="node10" class="node"><title>Node66</title>
<g id="a_node10"><a xlink:href="classaube_1_1_error_message.html#a07927cb3e2d0712c459cc9e2b5f52696" target="_top" xlink:title="aube::ErrorMessage\l::getMessage">
<polygon fill="white" stroke="black" points="506,-64.5 506,-94.5 610,-94.5 610,-64.5 506,-64.5"/>
<text text-anchor="start" x="514" y="-82.5" font-family="Helvetica,sans-Serif" font-size="10.00">aube::ErrorMessage</text>
<text text-anchor="middle" x="558" y="-71.5" font-family="Helvetica,sans-Serif" font-size="10.00">::getMessage</text>
</a>
</g>
</g>
<!-- Node63&#45;&gt;Node66 -->
<g id="edge10" class="edge"><title>Node63&#45;&gt;Node66</title>
<path fill="none" stroke="midnightblue" d="M456.714,-95.7079C469.266,-93.6792 482.956,-91.4668 496.072,-89.347"/>
<polygon fill="midnightblue" stroke="midnightblue" points="496.648,-92.7994 505.961,-87.7487 495.531,-85.8891 496.648,-92.7994"/>
</g>
<!-- Node67 -->
<g id="node11" class="node"><title>Node67</title>
<g id="a_node11"><a xlink:href="classaube_1_1_error_message.html#a77c2f9b7e93542c958173b52da267989" target="_top" xlink:title="aube::ErrorMessage\l::getHints">
<polygon fill="white" stroke="black" points="506,-15.5 506,-45.5 610,-45.5 610,-15.5 506,-15.5"/>
<text text-anchor="start" x="514" y="-33.5" font-family="Helvetica,sans-Serif" font-size="10.00">aube::ErrorMessage</text>
<text text-anchor="middle" x="558" y="-22.5" font-family="Helvetica,sans-Serif" font-size="10.00">::getHints</text>
</a>
</g>
</g>
<!-- Node63&#45;&gt;Node67 -->
<g id="edge11" class="edge"><title>Node63&#45;&gt;Node67</title>
<path fill="none" stroke="midnightblue" d="M449.063,-88.372C456.156,-85.3437 463.38,-82.0062 470,-78.5 486.994,-69.5001 489.254,-63.9532 506,-54.5 508.642,-53.0087 511.391,-51.5267 514.184,-50.0735"/>
<polygon fill="midnightblue" stroke="midnightblue" points="515.81,-53.1737 523.172,-45.5546 512.665,-46.9197 515.81,-53.1737"/>
</g>
<!-- Node69 -->
<g id="node13" class="node"><title>Node69</title>
<g id="a_node13"><a xlink:href="namespaceobe_1_1_utils_1_1_string.html#a074d624ca5936545dc32c0b5e423050d" target="_top" xlink:title="Splits a std::string using a delimited. ">
<polygon fill="white" stroke="black" points="363,-39.5 363,-69.5 452,-69.5 452,-39.5 363,-39.5"/>
<text text-anchor="start" x="371" y="-57.5" font-family="Helvetica,sans-Serif" font-size="10.00">obe::Utils::String</text>
<text text-anchor="middle" x="407.5" y="-46.5" font-family="Helvetica,sans-Serif" font-size="10.00">::split</text>
</a>
</g>
</g>
<!-- Node68&#45;&gt;Node69 -->
<g id="edge13" class="edge"><title>Node68&#45;&gt;Node69</title>
<path fill="none" stroke="midnightblue" d="M309.166,-57.6097C323.514,-57.1513 338.775,-56.6638 352.852,-56.214"/>
<polygon fill="midnightblue" stroke="midnightblue" points="352.981,-59.7118 362.864,-55.8941 352.757,-52.7153 352.981,-59.7118"/>
</g>
</g>
</svg>
