<?xml version="1.0" encoding="UTF-8" standalone="no"?>
<!DOCTYPE svg PUBLIC "-//W3C//DTD SVG 1.1//EN"
 "http://www.w3.org/Graphics/SVG/1.1/DTD/svg11.dtd">
<!-- Generated by graphviz version 2.38.0 (20140413.2041)
 -->
<!-- Title: obe::Script::CoreLib::loadVili Pages: 1 -->
<!--zoomable 942 -->
<svg id="main" version="1.1" xmlns="http://www.w3.org/2000/svg" xmlns:xlink="http://www.w3.org/1999/xlink" xml:space="preserve" onload="init(evt)">
<style type="text/css"><![CDATA[
.edge:hover path { stroke: red; }
.edge:hover polygon { stroke: red; fill: red; }
.edge path { stroke: white; }
.edge polygon { stroke: white; fill: white; }
.node polygon { fill: white; }
]]></style>
<script type="text/javascript"><![CDATA[
var edges = document.getElementsByTagName('g');
if (edges && edges.length) {
  for (var i=0;i<edges.length;i++) {
    if (edges[i].id.substr(0,4)=='edge') {
      edges[i].setAttribute('class','edge');
    }
  }
}
]]></script>
        <defs>
                <circle id="rim" cx="0" cy="0" r="7"/>
                <circle id="rim2" cx="0" cy="0" r="3.5"/>
                <g id="zoomPlus">
                        <use xlink:href="#rim" fill="#404040">
                                <set attributeName="fill" to="#808080" begin="zoomplus.mouseover" end="zoomplus.mouseout"/>
                        </use>
                        <path d="M-4,0h8M0,-4v8" fill="none" stroke="white" stroke-width="1.5" pointer-events="none"/>
                </g>
                <g id="zoomMin">
                        <use xlink:href="#rim" fill="#404040">
                                <set attributeName="fill" to="#808080" begin="zoomminus.mouseover" end="zoomminus.mouseout"/>
                        </use>
                        <path d="M-4,0h8" fill="none" stroke="white" stroke-width="1.5" pointer-events="none"/>
                </g>
                <g id="dirArrow">
                        <path fill="none" stroke="white" stroke-width="1.5" d="M0,-3.0v7 M-2.5,-0.5L0,-3.0L2.5,-0.5"/>
                </g>
               <g id="resetDef">
                       <use xlink:href="#rim2" fill="#404040">
                               <set attributeName="fill" to="#808080" begin="reset.mouseover" end="reset.mouseout"/>
                       </use>
               </g>
        </defs>

<script type="text/javascript">
var viewWidth = 1206;
var viewHeight = 942;
var sectionId = 'dynsection-37';
</script>
<script xlink:href="svgpan.js"/>
<svg id="graph" class="graph">
<g id="viewport">
<title>obe::Script::CoreLib::loadVili</title>
<!-- Node845 -->
<g id="node1" class="node"><title>Node845</title>
<polygon fill="#bfbfbf" stroke="black" points="0,-444 0,-474 103,-474 103,-444 0,-444"/>
<text text-anchor="start" x="8" y="-462" font-family="Helvetica,sans-Serif" font-size="10.00">obe::Script::CoreLib</text>
<text text-anchor="middle" x="51.5" y="-451" font-family="Helvetica,sans-Serif" font-size="10.00">::loadVili</text>
</g>
<!-- Node846 -->
<g id="node2" class="node"><title>Node846</title>
<g id="a_node2"><a xlink:href="namespaceobe_1_1_script.html#a9582bae7b61bf604c2a68a8a016356ec" target="_top" xlink:title="obe::Script::registerLib">
<polygon fill="none" stroke="black" points="150,-914.5 150,-933.5 265,-933.5 265,-914.5 150,-914.5"/>
<text text-anchor="middle" x="207.5" y="-921.5" font-family="Helvetica,sans-Serif" font-size="10.00">obe::Script::registerLib</text>
</a>
</g>
</g>
<!-- Node845&#45;&gt;Node846 -->
<g id="edge1" class="edge"><title>Node845&#45;&gt;Node846</title>
<path fill="none" stroke="midnightblue" d="M53.3545,-474.164C57.6272,-544.664 78.9077,-839.713 139,-905 140.219,-906.324 141.522,-907.558 142.895,-908.709"/>
<polygon fill="midnightblue" stroke="midnightblue" points="141.179,-911.773 151.436,-914.427 145.074,-905.956 141.179,-911.773"/>
</g>
<!-- Node847 -->
<g id="node3" class="node"><title>Node847</title>
<g id="a_node3"><a xlink:href="namespaceobe_1_1_utils_1_1_vector.html#a964ff22524706c50e054f29d98b8ba6d" target="_top" xlink:title="Join all elements of a std::string into a std::string using a separator. ">
<polygon fill="none" stroke="black" points="161.5,-865 161.5,-895 253.5,-895 253.5,-865 161.5,-865"/>
<text text-anchor="start" x="169.5" y="-883" font-family="Helvetica,sans-Serif" font-size="10.00">obe::Utils::Vector</text>
<text text-anchor="middle" x="207.5" y="-872" font-family="Helvetica,sans-Serif" font-size="10.00">::join</text>
</a>
</g>
</g>
<!-- Node845&#45;&gt;Node847 -->
<g id="edge2" class="edge"><title>Node845&#45;&gt;Node847</title>
<path fill="none" stroke="midnightblue" d="M53.8754,-474.092C60.0922,-539.246 87.5239,-795.782 139,-855 142.689,-859.244 147.167,-862.769 152.043,-865.695"/>
<polygon fill="midnightblue" stroke="midnightblue" points="150.664,-868.921 161.163,-870.344 153.843,-862.685 150.664,-868.921"/>
</g>
<!-- Node848 -->
<g id="node4" class="node"><title>Node848</title>
<g id="a_node4"><a xlink:href="classvili_1_1_vili_parser.html#aba30d70a2ed01f55192e1630e7ae6030" target="_top" xlink:title="Adds a new Flag to the vili file. ">
<polygon fill="none" stroke="black" points="149.5,-826.5 149.5,-845.5 265.5,-845.5 265.5,-826.5 149.5,-826.5"/>
<text text-anchor="middle" x="207.5" y="-833.5" font-family="Helvetica,sans-Serif" font-size="10.00">vili::ViliParser::addFlag</text>
</a>
</g>
</g>
<!-- Node845&#45;&gt;Node848 -->
<g id="edge3" class="edge"><title>Node845&#45;&gt;Node848</title>
<path fill="none" stroke="midnightblue" d="M54.2874,-474.09C61.7544,-534.779 92.2578,-760.265 139,-812 142.506,-815.88 146.681,-819.133 151.211,-821.861"/>
<polygon fill="midnightblue" stroke="midnightblue" points="149.779,-825.059 160.277,-826.484 152.959,-818.823 149.779,-825.059"/>
</g>
<!-- Node849 -->
<g id="node5" class="node"><title>Node849</title>
<g id="a_node5"><a xlink:href="classvili_1_1_vili_parser.html#a8c3ef7adf22ff258fa78805917029d01" target="_top" xlink:title="Gets how many Flags the ViliParser object contains. ">
<polygon fill="none" stroke="black" points="312,-729 312,-759 440,-759 440,-729 312,-729"/>
<text text-anchor="start" x="320" y="-747" font-family="Helvetica,sans-Serif" font-size="10.00">vili::ViliParser::getAmount</text>
<text text-anchor="middle" x="376" y="-736" font-family="Helvetica,sans-Serif" font-size="10.00">OfFlags</text>
</a>
</g>
</g>
<!-- Node845&#45;&gt;Node849 -->
<g id="edge4" class="edge"><title>Node845&#45;&gt;Node849</title>
<path fill="none" stroke="midnightblue" d="M52.1269,-474.219C51.9047,-520.649 58.2018,-661.202 139,-725 184.291,-760.761 250.882,-763.014 301.79,-757.755"/>
<polygon fill="midnightblue" stroke="midnightblue" points="302.217,-761.229 311.752,-756.611 301.418,-754.275 302.217,-761.229"/>
</g>
<!-- Node850 -->
<g id="node6" class="node"><title>Node850</title>
<g id="a_node6"><a xlink:href="classvili_1_1_vili_parser.html#ae4b47a97dc0486b0bf8e6e59b69bbd5d" target="_top" xlink:title="Gets the flag at the given index (Ordered by date of creation) ">
<polygon fill="none" stroke="black" points="319.5,-680 319.5,-710 432.5,-710 432.5,-680 319.5,-680"/>
<text text-anchor="start" x="327.5" y="-698" font-family="Helvetica,sans-Serif" font-size="10.00">vili::ViliParser::getFlag</text>
<text text-anchor="middle" x="376" y="-687" font-family="Helvetica,sans-Serif" font-size="10.00">AtIndex</text>
</a>
</g>
</g>
<!-- Node845&#45;&gt;Node850 -->
<g id="edge5" class="edge"><title>Node845&#45;&gt;Node850</title>
<path fill="none" stroke="midnightblue" d="M54.9478,-474.262C61.5193,-509.978 83.0021,-599.349 139,-644 164.909,-664.659 248.831,-679.253 309.226,-687.393"/>
<polygon fill="midnightblue" stroke="midnightblue" points="309.085,-690.905 319.456,-688.741 309.999,-683.965 309.085,-690.905"/>
</g>
<!-- Node855 -->
<g id="node11" class="node"><title>Node855</title>
<g id="a_node11"><a xlink:href="classvili_1_1_complex_node.html#ab3a269cf4b6899b75bbd789f83b255d5" target="_top" xlink:title="Access a ComplexNode in the tree using a path with slash&#45;separation (.at(&quot;NodeA/NodeB/NodeC&quot;) for exa...">
<polygon fill="none" stroke="black" points="476,-620.5 476,-639.5 584,-639.5 584,-620.5 476,-620.5"/>
<text text-anchor="middle" x="530" y="-627.5" font-family="Helvetica,sans-Serif" font-size="10.00">vili::ComplexNode::at</text>
</a>
</g>
</g>
<!-- Node845&#45;&gt;Node855 -->
<g id="edge34" class="edge"><title>Node845&#45;&gt;Node855</title>
<path fill="none" stroke="midnightblue" d="M56.3745,-474.439C65.1047,-505.607 89.5267,-575.655 139,-606 192.073,-638.553 369.551,-636.762 465.741,-633.142"/>
<polygon fill="midnightblue" stroke="midnightblue" points="466.067,-636.632 475.922,-632.741 465.791,-629.637 466.067,-636.632"/>
</g>
<!-- Node857 -->
<g id="node13" class="node"><title>Node857</title>
<g id="a_node13"><a xlink:href="classvili_1_1_complex_node.html#aa9274f5ba9c9dbe1a0c90d54380a003a" target="_top" xlink:title="Get a ComplexNode contained in the ComplexNode. ">
<polygon fill="none" stroke="black" points="759.5,-600 759.5,-630 859.5,-630 859.5,-600 759.5,-600"/>
<text text-anchor="start" x="767.5" y="-618" font-family="Helvetica,sans-Serif" font-size="10.00">vili::ComplexNode::</text>
<text text-anchor="middle" x="809.5" y="-607" font-family="Helvetica,sans-Serif" font-size="10.00">getComplexNode</text>
</a>
</g>
</g>
<!-- Node845&#45;&gt;Node857 -->
<g id="edge38" class="edge"><title>Node845&#45;&gt;Node857</title>
<path fill="none" stroke="midnightblue" d="M63.4828,-474.283C78.3167,-493.715 106.653,-526.802 139,-544 233.51,-594.247 267.964,-592 375,-592 375,-592 375,-592 531,-592 606.546,-592 693.267,-600.571 749.368,-607.248"/>
<polygon fill="midnightblue" stroke="midnightblue" points="749.129,-610.745 759.477,-608.471 749.969,-603.796 749.129,-610.745"/>
</g>
<!-- Node858 -->
<g id="node14" class="node"><title>Node858</title>
<g id="a_node14"><a xlink:href="classaube_1_1_error_handler.html#a7c8d44a3e7f019646d289950abc5301b" target="_top" xlink:title="Raises an Error loaded in the Aube Error Database (AED) ">
<polygon fill="none" stroke="black" points="920.5,-600 920.5,-630 1018.5,-630 1018.5,-600 920.5,-600"/>
<text text-anchor="start" x="928.5" y="-618" font-family="Helvetica,sans-Serif" font-size="10.00">aube::ErrorHandler</text>
<text text-anchor="middle" x="969.5" y="-607" font-family="Helvetica,sans-Serif" font-size="10.00">::Raise</text>
</a>
</g>
</g>
<!-- Node845&#45;&gt;Node858 -->
<g id="edge56" class="edge"><title>Node845&#45;&gt;Node858</title>
<path fill="none" stroke="midnightblue" d="M51.7897,-474.188C50.3899,-523.382 53.1648,-679.574 139,-756 195.726,-806.507 400.314,-806.644 476,-813 648.656,-827.499 716.564,-858.611 863,-766 911.216,-735.507 943.463,-674.188 958.585,-639.812"/>
<polygon fill="midnightblue" stroke="midnightblue" points="961.863,-641.047 962.561,-630.475 955.422,-638.304 961.863,-641.047"/>
</g>
<!-- Node865 -->
<g id="node21" class="node"><title>Node865</title>
<g id="a_node21"><a xlink:href="classvili_1_1_node.html#ab03908ab3d62e3bfddaf9e7306fdf3b3" target="_top" xlink:title="Gets the id of the Node. ">
<polygon fill="none" stroke="black" points="1095.5,-411.5 1095.5,-430.5 1178.5,-430.5 1178.5,-411.5 1095.5,-411.5"/>
<text text-anchor="middle" x="1137" y="-418.5" font-family="Helvetica,sans-Serif" font-size="10.00">vili::Node::getId</text>
</a>
</g>
</g>
<!-- Node845&#45;&gt;Node865 -->
<g id="edge32" class="edge"><title>Node845&#45;&gt;Node865</title>
<path fill="none" stroke="midnightblue" d="M103.401,-444.845C115.017,-442.118 127.366,-439.612 139,-438 410.815,-400.329 481.635,-420.112 756,-415 882.2,-412.649 913.839,-411.061 1040,-415 1054.64,-415.457 1070.52,-416.305 1085.07,-417.223"/>
<polygon fill="midnightblue" stroke="midnightblue" points="1085.18,-420.738 1095.39,-417.899 1085.64,-413.753 1085.18,-420.738"/>
</g>
<!-- Node867 -->
<g id="node23" class="node"><title>Node867</title>
<g id="a_node23"><a xlink:href="classvili_1_1_vili_parser.html#ad257e72341d45f15da01748b9bf4adf2" target="_top" xlink:title="Check if the ViliParser contains the given Flag. ">
<polygon fill="none" stroke="black" points="149.5,-354.5 149.5,-373.5 265.5,-373.5 265.5,-354.5 149.5,-354.5"/>
<text text-anchor="middle" x="207.5" y="-361.5" font-family="Helvetica,sans-Serif" font-size="10.00">vili::ViliParser::hasFlag</text>
</a>
</g>
</g>
<!-- Node845&#45;&gt;Node867 -->
<g id="edge27" class="edge"><title>Node845&#45;&gt;Node867</title>
<path fill="none" stroke="midnightblue" d="M67.5377,-443.867C83.9013,-428.106 111.431,-403.583 139,-388 146.471,-383.777 154.818,-380.087 163.027,-376.95"/>
<polygon fill="midnightblue" stroke="midnightblue" points="164.318,-380.205 172.538,-373.521 161.944,-373.62 164.318,-380.205"/>
</g>
<!-- Node868 -->
<g id="node24" class="node"><title>Node868</title>
<g id="a_node24"><a xlink:href="classvili_1_1_vili_parser.html#a29682ce11c36597808a5f1261eec9841" target="_top" xlink:title="Writes the Tree to the given file at filename. ">
<polygon fill="none" stroke="black" points="149,-696.5 149,-715.5 266,-715.5 266,-696.5 149,-696.5"/>
<text text-anchor="middle" x="207.5" y="-703.5" font-family="Helvetica,sans-Serif" font-size="10.00">vili::ViliParser::writeFile</text>
</a>
</g>
</g>
<!-- Node845&#45;&gt;Node868 -->
<g id="edge28" class="edge"><title>Node845&#45;&gt;Node868</title>
<path fill="none" stroke="midnightblue" d="M54.0545,-474.084C58.9377,-513.788 77.5098,-622.232 139,-682 143.069,-685.955 147.832,-689.263 152.912,-692.028"/>
<polygon fill="midnightblue" stroke="midnightblue" points="151.777,-695.362 162.317,-696.443 154.752,-689.025 151.777,-695.362"/>
</g>
<!-- Node869 -->
<g id="node25" class="node"><title>Node869</title>
<g id="a_node25"><a xlink:href="namespaceobe_1_1_utils_1_1_string.html#a3dd6c64630cb7a8525f6ce804bda8ee6" target="_top" xlink:title="Check if a string contains another one. ">
<polygon fill="none" stroke="black" points="163,-305 163,-335 252,-335 252,-305 163,-305"/>
<text text-anchor="start" x="171" y="-323" font-family="Helvetica,sans-Serif" font-size="10.00">obe::Utils::String</text>
<text text-anchor="middle" x="207.5" y="-312" font-family="Helvetica,sans-Serif" font-size="10.00">::contains</text>
</a>
</g>
</g>
<!-- Node845&#45;&gt;Node869 -->
<g id="edge31" class="edge"><title>Node845&#45;&gt;Node869</title>
<path fill="none" stroke="midnightblue" d="M60.2516,-443.876C73.3507,-419.723 102.085,-372.382 139,-345 143.454,-341.696 148.392,-338.787 153.512,-336.234"/>
<polygon fill="midnightblue" stroke="midnightblue" points="155.185,-339.319 162.861,-332.016 152.306,-332.938 155.185,-339.319"/>
</g>
<!-- Node870 -->
<g id="node26" class="node"><title>Node870</title>
<g id="a_node26"><a xlink:href="classvili_1_1_node.html#a9d438d0731569aeeb9cae121796c1d41" target="_top" xlink:title="Returns the ClassType of the Node (All Types in vili::NodeType) ">
<polygon fill="none" stroke="black" points="159.5,-266.5 159.5,-285.5 255.5,-285.5 255.5,-266.5 159.5,-266.5"/>
<text text-anchor="middle" x="207.5" y="-273.5" font-family="Helvetica,sans-Serif" font-size="10.00">vili::Node::getType</text>
</a>
</g>
</g>
<!-- Node845&#45;&gt;Node870 -->
<g id="edge33" class="edge"><title>Node845&#45;&gt;Node870</title>
<path fill="none" stroke="midnightblue" d="M56.2468,-443.874C65.0051,-411.703 89.8964,-336.156 139,-296 142.353,-293.258 146.071,-290.892 149.989,-288.85"/>
<polygon fill="midnightblue" stroke="midnightblue" points="151.705,-291.917 159.416,-284.651 148.857,-285.523 151.705,-291.917"/>
</g>
<!-- Node871 -->
<g id="node27" class="node"><title>Node871</title>
<g id="a_node27"><a xlink:href="classvili_1_1_complex_node.html#a2a280e0b84d7b5b22a49b0938977ab0b" target="_top" xlink:title="Get a DataNode contained in the ComplexNode. ">
<polygon fill="none" stroke="black" points="759.5,-463 759.5,-493 859.5,-493 859.5,-463 759.5,-463"/>
<text text-anchor="start" x="767.5" y="-481" font-family="Helvetica,sans-Serif" font-size="10.00">vili::ComplexNode::</text>
<text text-anchor="middle" x="809.5" y="-470" font-family="Helvetica,sans-Serif" font-size="10.00">getDataNode</text>
</a>
</g>
</g>
<!-- Node845&#45;&gt;Node871 -->
<g id="edge35" class="edge"><title>Node845&#45;&gt;Node871</title>
<path fill="none" stroke="midnightblue" d="M103.275,-463.844C166.764,-469.473 278.811,-478 375,-478 375,-478 375,-478 531,-478 606.288,-478 693.066,-478 749.25,-478"/>
<polygon fill="midnightblue" stroke="midnightblue" points="749.375,-481.5 759.375,-478 749.375,-474.5 749.375,-481.5"/>
</g>
<!-- Node872 -->
<g id="node28" class="node"><title>Node872</title>
<g id="a_node28"><a xlink:href="classvili_1_1_complex_node.html#abfafad10954568b678b208b7fefb074a" target="_top" xlink:title="Get a ArrayNode contained in the ComplexNode. ">
<polygon fill="none" stroke="black" points="759.5,-551 759.5,-581 859.5,-581 859.5,-551 759.5,-551"/>
<text text-anchor="start" x="767.5" y="-569" font-family="Helvetica,sans-Serif" font-size="10.00">vili::ComplexNode::</text>
<text text-anchor="middle" x="809.5" y="-558" font-family="Helvetica,sans-Serif" font-size="10.00">getArrayNode</text>
</a>
</g>
</g>
<!-- Node845&#45;&gt;Node872 -->
<g id="edge39" class="edge"><title>Node845&#45;&gt;Node872</title>
<path fill="none" stroke="midnightblue" d="M72.7407,-474.068C89.617,-485.897 114.737,-501.846 139,-511 238.753,-548.633 268.384,-554 375,-554 375,-554 375,-554 531,-554 606.358,-554 693.121,-558.472 749.282,-561.956"/>
<polygon fill="midnightblue" stroke="midnightblue" points="749.203,-565.457 759.403,-562.593 749.643,-558.471 749.203,-565.457"/>
</g>
<!-- Node873 -->
<g id="node29" class="node"><title>Node873</title>
<g id="a_node29"><a xlink:href="classvili_1_1_array_node.html#a1b7bb99117b83862f497c42ecc03b4bd" target="_top" xlink:title="Pushes a new String&#45;typed DataNode in the ArrayNode. ">
<polygon fill="none" stroke="black" points="154.5,-228.5 154.5,-247.5 260.5,-247.5 260.5,-228.5 154.5,-228.5"/>
<text text-anchor="middle" x="207.5" y="-235.5" font-family="Helvetica,sans-Serif" font-size="10.00">vili::ArrayNode::push</text>
</a>
</g>
</g>
<!-- Node845&#45;&gt;Node873 -->
<g id="edge42" class="edge"><title>Node845&#45;&gt;Node873</title>
<path fill="none" stroke="midnightblue" d="M54.5166,-443.737C60.3083,-406.126 80.5057,-308.334 139,-257 140.962,-255.279 143.068,-253.712 145.281,-252.287"/>
<polygon fill="midnightblue" stroke="midnightblue" points="147.113,-255.276 154.267,-247.46 143.801,-249.109 147.113,-255.276"/>
</g>
<!-- Node874 -->
<g id="node30" class="node"><title>Node874</title>
<g id="a_node30"><a xlink:href="classvili_1_1_array_node.html#a6dc3937bda1f57062ba6e0f1031fabf0" target="_top" xlink:title="Clears all DataNodes contained in the ArrayNode. ">
<polygon fill="none" stroke="black" points="154.5,-190.5 154.5,-209.5 260.5,-209.5 260.5,-190.5 154.5,-190.5"/>
<text text-anchor="middle" x="207.5" y="-197.5" font-family="Helvetica,sans-Serif" font-size="10.00">vili::ArrayNode::clear</text>
</a>
</g>
</g>
<!-- Node845&#45;&gt;Node874 -->
<g id="edge43" class="edge"><title>Node845&#45;&gt;Node874</title>
<path fill="none" stroke="midnightblue" d="M53.3478,-443.777C56.5388,-401.55 71.4085,-281.921 139,-219 140.949,-217.185 143.058,-215.542 145.285,-214.054"/>
<polygon fill="midnightblue" stroke="midnightblue" points="147.301,-216.94 154.374,-209.052 143.926,-210.808 147.301,-216.94"/>
</g>
<!-- Node875 -->
<g id="node31" class="node"><title>Node875</title>
<g id="a_node31"><a xlink:href="classvili_1_1_array_node.html#a15064e0962392ca5dc55fe355c625178" target="_top" xlink:title="Inserts a new String&#45;Typed DataNode at the given index in the ArrayNode. ">
<polygon fill="none" stroke="black" points="153,-152.5 153,-171.5 262,-171.5 262,-152.5 153,-152.5"/>
<text text-anchor="middle" x="207.5" y="-159.5" font-family="Helvetica,sans-Serif" font-size="10.00">vili::ArrayNode::insert</text>
</a>
</g>
</g>
<!-- Node845&#45;&gt;Node875 -->
<g id="edge44" class="edge"><title>Node845&#45;&gt;Node875</title>
<path fill="none" stroke="midnightblue" d="M52.4814,-443.809C53.2796,-397.339 62.2016,-255.732 139,-181 140.63,-179.413 142.383,-177.957 144.23,-176.621"/>
<polygon fill="midnightblue" stroke="midnightblue" points="146.047,-179.612 152.857,-171.496 142.472,-173.594 146.047,-179.612"/>
</g>
<!-- Node876 -->
<g id="node32" class="node"><title>Node876</title>
<g id="a_node32"><a xlink:href="classvili_1_1_array_node.html#a55d8e92d562a18a564a73a5530678646" target="_top" xlink:title="Erases a DataNode from the ArrayNode. ">
<polygon fill="none" stroke="black" points="153,-114.5 153,-133.5 262,-133.5 262,-114.5 153,-114.5"/>
<text text-anchor="middle" x="207.5" y="-121.5" font-family="Helvetica,sans-Serif" font-size="10.00">vili::ArrayNode::erase</text>
</a>
</g>
</g>
<!-- Node845&#45;&gt;Node876 -->
<g id="edge45" class="edge"><title>Node845&#45;&gt;Node876</title>
<path fill="none" stroke="midnightblue" d="M51.8154,-443.958C50.3899,-393.684 52.839,-229.783 139,-143 140.603,-141.386 142.331,-139.906 144.159,-138.549"/>
<polygon fill="midnightblue" stroke="midnightblue" points="145.984,-141.535 152.72,-133.357 142.355,-135.55 145.984,-141.535"/>
</g>
<!-- Node877 -->
<g id="node33" class="node"><title>Node877</title>
<g id="a_node33"><a xlink:href="classvili_1_1_array_node.html#a550ab855eda9d07c47477cf7fddf2c4b" target="_top" xlink:title="Gets the size of the ArrayNode (Amount of contained Nodes) ">
<polygon fill="none" stroke="black" points="156,-76.5 156,-95.5 259,-95.5 259,-76.5 156,-76.5"/>
<text text-anchor="middle" x="207.5" y="-83.5" font-family="Helvetica,sans-Serif" font-size="10.00">vili::ArrayNode::size</text>
</a>
</g>
</g>
<!-- Node845&#45;&gt;Node877 -->
<g id="edge46" class="edge"><title>Node845&#45;&gt;Node877</title>
<path fill="none" stroke="midnightblue" d="M54.185,-443.778C61.2553,-382.57 90.4323,-155.284 139,-105 141.368,-102.548 144.026,-100.405 146.881,-98.5333"/>
<polygon fill="midnightblue" stroke="midnightblue" points="148.777,-101.489 155.949,-93.6913 145.479,-95.3141 148.777,-101.489"/>
</g>
<!-- Node878 -->
<g id="node34" class="node"><title>Node878</title>
<g id="a_node34"><a xlink:href="classvili_1_1_array_node.html#aba67c18c26c9a7c78973cae023e6f374" target="_top" xlink:title="Access a contained DataNode. ">
<polygon fill="none" stroke="black" points="760.5,-512.5 760.5,-531.5 858.5,-531.5 858.5,-512.5 760.5,-512.5"/>
<text text-anchor="middle" x="809.5" y="-519.5" font-family="Helvetica,sans-Serif" font-size="10.00">vili::ArrayNode::get</text>
</a>
</g>
</g>
<!-- Node845&#45;&gt;Node878 -->
<g id="edge47" class="edge"><title>Node845&#45;&gt;Node878</title>
<path fill="none" stroke="midnightblue" d="M97.484,-474.021C110.742,-478.039 125.354,-482.073 139,-485 242.437,-507.187 269.21,-516 375,-516 375,-516 375,-516 531,-516 606.759,-516 694.125,-518.263 750.27,-520.009"/>
<polygon fill="midnightblue" stroke="midnightblue" points="750.275,-523.511 760.38,-520.329 750.496,-516.515 750.275,-523.511"/>
</g>
<!-- Node879 -->
<g id="node35" class="node"><title>Node879</title>
<g id="a_node35"><a xlink:href="classvili_1_1_data_node.html#a777d51d2bb2567be96e63abac9b9f57f" target="_top" xlink:title="Gets the vili::DataType of the contained Data. ">
<polygon fill="none" stroke="black" points="139,-38.5 139,-57.5 276,-57.5 276,-38.5 139,-38.5"/>
<text text-anchor="middle" x="207.5" y="-45.5" font-family="Helvetica,sans-Serif" font-size="10.00">vili::DataNode::getDataType</text>
</a>
</g>
</g>
<!-- Node845&#45;&gt;Node879 -->
<g id="edge50" class="edge"><title>Node845&#45;&gt;Node879</title>
<path fill="none" stroke="midnightblue" d="M53.7818,-443.954C59.6082,-379.017 85.6463,-123.496 139,-67 140.236,-65.6917 141.553,-64.4711 142.94,-63.3325"/>
<polygon fill="midnightblue" stroke="midnightblue" points="145.113,-66.0921 151.538,-57.6676 141.262,-60.2468 145.113,-66.0921"/>
</g>
<!-- Node880 -->
<g id="node36" class="node"><title>Node880</title>
<g id="a_node36"><a xlink:href="classvili_1_1_data_node.html#acb68076f90b2344cba37afd31b8b2156" target="_top" xlink:title="Gets a dumpable representation of the contained data. ">
<polygon fill="none" stroke="black" points="144.5,-0.5 144.5,-19.5 270.5,-19.5 270.5,-0.5 144.5,-0.5"/>
<text text-anchor="middle" x="207.5" y="-7.5" font-family="Helvetica,sans-Serif" font-size="10.00">vili::DataNode::dumpData</text>
</a>
</g>
</g>
<!-- Node845&#45;&gt;Node880 -->
<g id="edge51" class="edge"><title>Node845&#45;&gt;Node880</title>
<path fill="none" stroke="midnightblue" d="M53.4674,-443.918C58.1781,-375.118 80.8948,-91.6897 139,-29 140.223,-27.6802 141.53,-26.4495 142.907,-25.302"/>
<polygon fill="midnightblue" stroke="midnightblue" points="145.084,-28.0571 151.464,-19.5983 141.202,-22.2325 145.084,-28.0571"/>
</g>
<!-- Node881 -->
<g id="node37" class="node"><title>Node881</title>
<g id="a_node37"><a xlink:href="classvili_1_1_data_node.html#a27dadd644c19ee34b95fa998764b225f" target="_top" xlink:title="Sets an Int value. ">
<polygon fill="none" stroke="black" points="762,-424.5 762,-443.5 857,-443.5 857,-424.5 762,-424.5"/>
<text text-anchor="middle" x="809.5" y="-431.5" font-family="Helvetica,sans-Serif" font-size="10.00">vili::DataNode::set</text>
</a>
</g>
</g>
<!-- Node845&#45;&gt;Node881 -->
<g id="edge52" class="edge"><title>Node845&#45;&gt;Node881</title>
<path fill="none" stroke="midnightblue" d="M103.275,-454.156C166.764,-448.527 278.811,-440 375,-440 375,-440 375,-440 531,-440 607.44,-440 695.696,-437.696 751.775,-435.944"/>
<polygon fill="midnightblue" stroke="midnightblue" points="751.978,-439.439 761.862,-435.624 751.756,-432.443 751.978,-439.439"/>
</g>
<!-- Node851 -->
<g id="node7" class="node"><title>Node851</title>
<g id="a_node7"><a xlink:href="namespacevili_1_1_functions_1_1_string.html#ad7421099a2ab911f64f06d89abc7d7cf" target="_top" xlink:title="vili::Functions::String\l::extract">
<polygon fill="none" stroke="black" points="756,-726 756,-756 863,-756 863,-726 756,-726"/>
<text text-anchor="start" x="764" y="-744" font-family="Helvetica,sans-Serif" font-size="10.00">vili::Functions::String</text>
<text text-anchor="middle" x="809.5" y="-733" font-family="Helvetica,sans-Serif" font-size="10.00">::extract</text>
</a>
</g>
</g>
<!-- Node850&#45;&gt;Node851 -->
<g id="edge6" class="edge"><title>Node850&#45;&gt;Node851</title>
<path fill="none" stroke="midnightblue" d="M432.725,-690.367C446.834,-689.385 461.966,-688.496 476,-688 523.97,-686.306 536.44,-681.517 584,-688 600.454,-690.243 603.901,-693.93 620,-698 661.793,-708.565 709.093,-719.352 745.857,-727.479"/>
<polygon fill="midnightblue" stroke="midnightblue" points="745.415,-730.965 755.933,-729.698 746.92,-724.129 745.415,-730.965"/>
</g>
<!-- Node852 -->
<g id="node8" class="node"><title>Node852</title>
<g id="a_node8"><a xlink:href="namespacevili_1_1_functions_1_1_string.html#a1fbc6d2a04846beafb94140e7f0e7ed2" target="_top" xlink:title="Count of the occurences of occur in string str. ">
<polygon fill="none" stroke="black" points="476.5,-746 476.5,-776 583.5,-776 583.5,-746 476.5,-746"/>
<text text-anchor="start" x="484.5" y="-764" font-family="Helvetica,sans-Serif" font-size="10.00">vili::Functions::String</text>
<text text-anchor="middle" x="530" y="-753" font-family="Helvetica,sans-Serif" font-size="10.00">::occurencesInString</text>
</a>
</g>
</g>
<!-- Node850&#45;&gt;Node852 -->
<g id="edge7" class="edge"><title>Node850&#45;&gt;Node852</title>
<path fill="none" stroke="midnightblue" d="M416.143,-710.087C424.077,-713.27 432.336,-716.674 440,-720 456.231,-727.045 459.94,-729.572 476,-737 479.361,-738.554 482.845,-740.155 486.35,-741.758"/>
<polygon fill="midnightblue" stroke="midnightblue" points="485.05,-745.012 495.601,-745.974 487.953,-738.642 485.05,-745.012"/>
</g>
<!-- Node853 -->
<g id="node9" class="node"><title>Node853</title>
<g id="a_node9"><a xlink:href="namespacevili_1_1_functions_1_1_string.html#a9133ec632cc286cede9c5403c5b593b2" target="_top" xlink:title="Splits a std::string using a delimited. ">
<polygon fill="none" stroke="black" points="476.5,-697 476.5,-727 583.5,-727 583.5,-697 476.5,-697"/>
<text text-anchor="start" x="484.5" y="-715" font-family="Helvetica,sans-Serif" font-size="10.00">vili::Functions::String</text>
<text text-anchor="middle" x="530" y="-704" font-family="Helvetica,sans-Serif" font-size="10.00">::split</text>
</a>
</g>
</g>
<!-- Node850&#45;&gt;Node853 -->
<g id="edge8" class="edge"><title>Node850&#45;&gt;Node853</title>
<path fill="none" stroke="midnightblue" d="M432.736,-701.234C443.634,-702.453 455.132,-703.738 466.241,-704.981"/>
<polygon fill="midnightblue" stroke="midnightblue" points="465.977,-708.473 476.304,-706.106 466.755,-701.517 465.977,-708.473"/>
</g>
<!-- Node854 -->
<g id="node10" class="node"><title>Node854</title>
<g id="a_node10"><a xlink:href="namespacevili_1_1_functions_1_1_vector.html#a10836e1fe04648534cfc59d9de9acd72" target="_top" xlink:title="vili::Functions::Vector\l::join">
<polygon fill="none" stroke="black" points="1082,-698 1082,-728 1192,-728 1192,-698 1082,-698"/>
<text text-anchor="start" x="1090" y="-716" font-family="Helvetica,sans-Serif" font-size="10.00">vili::Functions::Vector</text>
<text text-anchor="middle" x="1137" y="-705" font-family="Helvetica,sans-Serif" font-size="10.00">::join</text>
</a>
</g>
</g>
<!-- Node850&#45;&gt;Node854 -->
<g id="edge9" class="edge"><title>Node850&#45;&gt;Node854</title>
<path fill="none" stroke="midnightblue" d="M425.491,-710.106C430.71,-712.903 435.683,-716.178 440,-720 465.018,-742.148 448.139,-767.555 476,-786 547.87,-833.58 582.808,-805 669,-805 669,-805 669,-805 810.5,-805 864.07,-805 1006.61,-758.272 1084.1,-731.42"/>
<polygon fill="midnightblue" stroke="midnightblue" points="1085.38,-734.681 1093.67,-728.089 1083.07,-728.07 1085.38,-734.681"/>
</g>
<!-- Node850&#45;&gt;Node855 -->
<g id="edge10" class="edge"><title>Node850&#45;&gt;Node855</title>
<path fill="none" stroke="midnightblue" d="M412.254,-679.924C437.958,-668.932 472.491,-654.165 497.322,-643.547"/>
<polygon fill="midnightblue" stroke="midnightblue" points="498.835,-646.706 506.654,-639.556 496.083,-640.27 498.835,-646.706"/>
</g>
<!-- Node855&#45;&gt;Node851 -->
<g id="edge11" class="edge"><title>Node855&#45;&gt;Node851</title>
<path fill="none" stroke="midnightblue" d="M555.838,-639.517C592.038,-653.436 661.368,-680.269 720,-704 734.173,-709.736 749.563,-716.117 763.474,-721.943"/>
<polygon fill="midnightblue" stroke="midnightblue" points="762.261,-725.229 772.836,-725.872 764.97,-718.774 762.261,-725.229"/>
</g>
<!-- Node856 -->
<g id="node12" class="node"><title>Node856</title>
<g id="a_node12"><a xlink:href="classvili_1_1_complex_node.html#af863182abb35759cf98a0a39bde589fa" target="_top" xlink:title="vili::ComplexNode::\lgetPath">
<polygon fill="none" stroke="black" points="620,-621 620,-651 720,-651 720,-621 620,-621"/>
<text text-anchor="start" x="628" y="-639" font-family="Helvetica,sans-Serif" font-size="10.00">vili::ComplexNode::</text>
<text text-anchor="middle" x="670" y="-628" font-family="Helvetica,sans-Serif" font-size="10.00">getPath</text>
</a>
</g>
</g>
<!-- Node855&#45;&gt;Node856 -->
<g id="edge12" class="edge"><title>Node855&#45;&gt;Node856</title>
<path fill="none" stroke="midnightblue" d="M584.354,-632.32C592.658,-632.681 601.281,-633.056 609.707,-633.422"/>
<polygon fill="midnightblue" stroke="midnightblue" points="609.71,-636.925 619.853,-633.863 610.014,-629.932 609.71,-636.925"/>
</g>
<!-- Node856&#45;&gt;Node851 -->
<g id="edge13" class="edge"><title>Node856&#45;&gt;Node851</title>
<path fill="none" stroke="midnightblue" d="M699.381,-651.082C706.457,-655.445 713.791,-660.524 720,-666 739.21,-682.941 736.536,-694.352 756,-711 759.938,-714.368 764.309,-717.553 768.799,-720.499"/>
<polygon fill="midnightblue" stroke="midnightblue" points="767.15,-723.594 777.501,-725.858 770.821,-717.634 767.15,-723.594"/>
</g>
<!-- Node856&#45;&gt;Node857 -->
<g id="edge14" class="edge"><title>Node856&#45;&gt;Node857</title>
<path fill="none" stroke="midnightblue" d="M720.252,-628.478C729.632,-627.045 739.539,-625.532 749.193,-624.058"/>
<polygon fill="midnightblue" stroke="midnightblue" points="749.773,-627.51 759.129,-622.54 748.716,-620.59 749.773,-627.51"/>
</g>
<!-- Node856&#45;&gt;Node858 -->
<g id="edge25" class="edge"><title>Node856&#45;&gt;Node858</title>
<path fill="none" stroke="midnightblue" d="M697.995,-651.159C714.25,-659.406 735.674,-668.768 756,-673 802.557,-682.694 816.939,-684.827 863,-673 891.04,-665.801 919.62,-649.414 939.948,-635.889"/>
<polygon fill="midnightblue" stroke="midnightblue" points="942.121,-638.643 948.403,-630.111 938.172,-632.864 942.121,-638.643"/>
</g>
<!-- Node863 -->
<g id="node19" class="node"><title>Node863</title>
<g id="a_node19"><a xlink:href="classvili_1_1_node.html#a5a6ad518f51d824e06ae7be0328f4864" target="_top" xlink:title="Get the Node Path (Example : GrandParent/Parent/Node) ">
<polygon fill="none" stroke="black" points="910.5,-512.5 910.5,-531.5 1028.5,-531.5 1028.5,-512.5 910.5,-512.5"/>
<text text-anchor="middle" x="969.5" y="-519.5" font-family="Helvetica,sans-Serif" font-size="10.00">vili::Node::getNodePath</text>
</a>
</g>
</g>
<!-- Node856&#45;&gt;Node863 -->
<g id="edge26" class="edge"><title>Node856&#45;&gt;Node863</title>
<path fill="none" stroke="midnightblue" d="M720.358,-649.27C760.907,-657.4 818.677,-662.435 863,-640 887.111,-627.796 881.358,-611.47 899,-591 915.296,-572.091 935.759,-552.177 950.249,-538.63"/>
<polygon fill="midnightblue" stroke="midnightblue" points="952.66,-541.167 957.621,-531.805 947.905,-536.03 952.66,-541.167"/>
</g>
<!-- Node857&#45;&gt;Node858 -->
<g id="edge15" class="edge"><title>Node857&#45;&gt;Node858</title>
<path fill="none" stroke="midnightblue" d="M859.626,-615C875.68,-615 893.664,-615 910.319,-615"/>
<polygon fill="midnightblue" stroke="midnightblue" points="910.488,-618.5 920.488,-615 910.488,-611.5 910.488,-618.5"/>
</g>
<!-- Node857&#45;&gt;Node863 -->
<g id="edge20" class="edge"><title>Node857&#45;&gt;Node863</title>
<path fill="none" stroke="midnightblue" d="M845.319,-599.977C851.294,-597.146 857.384,-594.097 863,-591 893.184,-574.354 926.161,-552.073 947.069,-537.391"/>
<polygon fill="midnightblue" stroke="midnightblue" points="949.106,-540.237 955.247,-531.603 945.063,-534.523 949.106,-540.237"/>
</g>
<!-- Node859 -->
<g id="node15" class="node"><title>Node859</title>
<g id="a_node15"><a xlink:href="classaube_1_1_error_message.html#a3a39b6fcd8fdb12eaf6383123535b8ca" target="_top" xlink:title="Gets the File where is located the ErrorMessage when raised. ">
<polygon fill="none" stroke="black" points="1085,-600 1085,-630 1189,-630 1189,-600 1085,-600"/>
<text text-anchor="start" x="1093" y="-618" font-family="Helvetica,sans-Serif" font-size="10.00">aube::ErrorMessage</text>
<text text-anchor="middle" x="1137" y="-607" font-family="Helvetica,sans-Serif" font-size="10.00">::getFile</text>
</a>
</g>
</g>
<!-- Node858&#45;&gt;Node859 -->
<g id="edge16" class="edge"><title>Node858&#45;&gt;Node859</title>
<path fill="none" stroke="midnightblue" d="M1018.81,-615C1036.28,-615 1056.24,-615 1074.68,-615"/>
<polygon fill="midnightblue" stroke="midnightblue" points="1074.74,-618.5 1084.74,-615 1074.74,-611.5 1074.74,-618.5"/>
</g>
<!-- Node860 -->
<g id="node16" class="node"><title>Node860</title>
<g id="a_node16"><a xlink:href="classaube_1_1_error_message.html#a9184cc96589578f434351c105b0cd5f7" target="_top" xlink:title="Gets the location of the error in the code. ">
<polygon fill="none" stroke="black" points="1085,-551 1085,-581 1189,-581 1189,-551 1085,-551"/>
<text text-anchor="start" x="1093" y="-569" font-family="Helvetica,sans-Serif" font-size="10.00">aube::ErrorMessage</text>
<text text-anchor="middle" x="1137" y="-558" font-family="Helvetica,sans-Serif" font-size="10.00">::getLocation</text>
</a>
</g>
</g>
<!-- Node858&#45;&gt;Node860 -->
<g id="edge17" class="edge"><title>Node858&#45;&gt;Node860</title>
<path fill="none" stroke="midnightblue" d="M1018.81,-600.695C1036.61,-595.427 1056.99,-589.394 1075.71,-583.852"/>
<polygon fill="midnightblue" stroke="midnightblue" points="1076.73,-587.2 1085.32,-581.005 1074.74,-580.488 1076.73,-587.2"/>
</g>
<!-- Node861 -->
<g id="node17" class="node"><title>Node861</title>
<g id="a_node17"><a xlink:href="classaube_1_1_error_message.html#a07927cb3e2d0712c459cc9e2b5f52696" target="_top" xlink:title="Gets the message displayed by the ErrorMessage when raised. ">
<polygon fill="none" stroke="black" points="1085,-747 1085,-777 1189,-777 1189,-747 1085,-747"/>
<text text-anchor="start" x="1093" y="-765" font-family="Helvetica,sans-Serif" font-size="10.00">aube::ErrorMessage</text>
<text text-anchor="middle" x="1137" y="-754" font-family="Helvetica,sans-Serif" font-size="10.00">::getMessage</text>
</a>
</g>
</g>
<!-- Node858&#45;&gt;Node861 -->
<g id="edge18" class="edge"><title>Node858&#45;&gt;Node861</title>
<path fill="none" stroke="midnightblue" d="M980.037,-630.317C996.645,-655.864 1033.22,-707.382 1076,-738 1077.89,-739.353 1079.87,-740.644 1081.91,-741.874"/>
<polygon fill="midnightblue" stroke="midnightblue" points="1080.69,-745.195 1091.15,-746.884 1084.02,-739.041 1080.69,-745.195"/>
</g>
<!-- Node862 -->
<g id="node18" class="node"><title>Node862</title>
<g id="a_node18"><a xlink:href="classaube_1_1_error_message.html#a77c2f9b7e93542c958173b52da267989" target="_top" xlink:title="Gets hints that can help the error resolution. ">
<polygon fill="none" stroke="black" points="1085,-649 1085,-679 1189,-679 1189,-649 1085,-649"/>
<text text-anchor="start" x="1093" y="-667" font-family="Helvetica,sans-Serif" font-size="10.00">aube::ErrorMessage</text>
<text text-anchor="middle" x="1137" y="-656" font-family="Helvetica,sans-Serif" font-size="10.00">::getHints</text>
</a>
</g>
</g>
<!-- Node858&#45;&gt;Node862 -->
<g id="edge19" class="edge"><title>Node858&#45;&gt;Node862</title>
<path fill="none" stroke="midnightblue" d="M1018.81,-629.305C1036.61,-634.573 1056.99,-640.606 1075.71,-646.148"/>
<polygon fill="midnightblue" stroke="midnightblue" points="1074.74,-649.512 1085.32,-648.995 1076.73,-642.8 1074.74,-649.512"/>
</g>
<!-- Node863&#45;&gt;Node854 -->
<g id="edge24" class="edge"><title>Node863&#45;&gt;Node854</title>
<path fill="none" stroke="midnightblue" d="M983.205,-531.676C998.563,-543.964 1024.3,-566.53 1040,-591 1065.06,-630.052 1043.66,-655.726 1076,-689 1077.05,-690.081 1078.16,-691.115 1079.31,-692.103"/>
<polygon fill="midnightblue" stroke="midnightblue" points="1077.33,-694.992 1087.49,-697.989 1081.42,-689.309 1077.33,-694.992"/>
</g>
<!-- Node864 -->
<g id="node20" class="node"><title>Node864</title>
<g id="a_node20"><a xlink:href="classvili_1_1_node.html#a58273048e22a9ebd74e576fd8905f709" target="_top" xlink:title="vili::Node::getParent">
<polygon fill="none" stroke="black" points="1085,-474.5 1085,-493.5 1189,-493.5 1189,-474.5 1085,-474.5"/>
<text text-anchor="middle" x="1137" y="-481.5" font-family="Helvetica,sans-Serif" font-size="10.00">vili::Node::getParent</text>
</a>
</g>
</g>
<!-- Node863&#45;&gt;Node864 -->
<g id="edge21" class="edge"><title>Node863&#45;&gt;Node864</title>
<path fill="none" stroke="midnightblue" d="M1012.26,-512.411C1034.2,-507.374 1061.28,-501.156 1084.51,-495.823"/>
<polygon fill="midnightblue" stroke="midnightblue" points="1085.57,-499.169 1094.54,-493.52 1084.01,-492.347 1085.57,-499.169"/>
</g>
<!-- Node863&#45;&gt;Node865 -->
<g id="edge22" class="edge"><title>Node863&#45;&gt;Node865</title>
<path fill="none" stroke="midnightblue" d="M986.07,-512.498C1014.9,-494.903 1076.81,-457.123 1111.38,-436.027"/>
<polygon fill="midnightblue" stroke="midnightblue" points="1113.64,-438.747 1120.35,-430.55 1109.99,-432.772 1113.64,-438.747"/>
</g>
<!-- Node866 -->
<g id="node22" class="node"><title>Node866</title>
<g id="a_node22"><a xlink:href="classvili_1_1_node.html#ad3c91cfe2721eaf9841721d1ec8ee0d8" target="_top" xlink:title="Gets the Node annotation. ">
<polygon fill="none" stroke="black" points="1076,-512.5 1076,-531.5 1198,-531.5 1198,-512.5 1076,-512.5"/>
<text text-anchor="middle" x="1137" y="-519.5" font-family="Helvetica,sans-Serif" font-size="10.00">vili::Node::getAnnotation</text>
</a>
</g>
</g>
<!-- Node863&#45;&gt;Node866 -->
<g id="edge23" class="edge"><title>Node863&#45;&gt;Node866</title>
<path fill="none" stroke="midnightblue" d="M1028.85,-522C1040.77,-522 1053.44,-522 1065.73,-522"/>
<polygon fill="midnightblue" stroke="midnightblue" points="1065.94,-525.5 1075.94,-522 1065.94,-518.5 1065.94,-525.5"/>
</g>
<!-- Node868&#45;&gt;Node849 -->
<g id="edge29" class="edge"><title>Node868&#45;&gt;Node849</title>
<path fill="none" stroke="midnightblue" d="M250.515,-715.589C266.058,-719.136 284.165,-723.269 301.679,-727.266"/>
<polygon fill="midnightblue" stroke="midnightblue" points="301.37,-730.785 311.898,-729.598 302.927,-723.961 301.37,-730.785"/>
</g>
<!-- Node868&#45;&gt;Node850 -->
<g id="edge30" class="edge"><title>Node868&#45;&gt;Node850</title>
<path fill="none" stroke="midnightblue" d="M266.266,-702.184C280.097,-701.27 294.967,-700.287 309.134,-699.352"/>
<polygon fill="midnightblue" stroke="midnightblue" points="309.553,-702.832 319.3,-698.68 309.091,-695.847 309.553,-702.832"/>
</g>
<!-- Node871&#45;&gt;Node858 -->
<g id="edge36" class="edge"><title>Node871&#45;&gt;Node858</title>
<path fill="none" stroke="midnightblue" d="M846.816,-493.104C852.438,-496.055 858.024,-499.373 863,-503 863.615,-503.448 916.899,-560.102 947.495,-592.65"/>
<polygon fill="midnightblue" stroke="midnightblue" points="944.978,-595.083 954.378,-599.972 950.079,-590.289 944.978,-595.083"/>
</g>
<!-- Node871&#45;&gt;Node863 -->
<g id="edge37" class="edge"><title>Node871&#45;&gt;Node863</title>
<path fill="none" stroke="midnightblue" d="M859.626,-491.681C880.24,-497.421 904.036,-504.048 924.114,-509.639"/>
<polygon fill="midnightblue" stroke="midnightblue" points="923.367,-513.064 933.939,-512.375 925.245,-506.321 923.367,-513.064"/>
</g>
<!-- Node872&#45;&gt;Node858 -->
<g id="edge40" class="edge"><title>Node872&#45;&gt;Node858</title>
<path fill="none" stroke="midnightblue" d="M859.194,-581.101C875.415,-586.132 893.644,-591.785 910.499,-597.012"/>
<polygon fill="midnightblue" stroke="midnightblue" points="909.65,-600.413 920.238,-600.033 911.723,-593.728 909.65,-600.413"/>
</g>
<!-- Node872&#45;&gt;Node863 -->
<g id="edge41" class="edge"><title>Node872&#45;&gt;Node863</title>
<path fill="none" stroke="midnightblue" d="M859.626,-552.319C880.24,-546.579 904.036,-539.952 924.114,-534.361"/>
<polygon fill="midnightblue" stroke="midnightblue" points="925.245,-537.679 933.939,-531.625 923.367,-530.936 925.245,-537.679"/>
</g>
<!-- Node878&#45;&gt;Node858 -->
<g id="edge48" class="edge"><title>Node878&#45;&gt;Node858</title>
<path fill="none" stroke="midnightblue" d="M839.387,-531.575C847.218,-534.553 855.578,-538.092 863,-542 891.234,-556.866 920.907,-577.955 941.567,-593.646"/>
<polygon fill="midnightblue" stroke="midnightblue" points="939.504,-596.475 949.565,-599.794 943.77,-590.925 939.504,-596.475"/>
</g>
<!-- Node878&#45;&gt;Node863 -->
<g id="edge49" class="edge"><title>Node878&#45;&gt;Node863</title>
<path fill="none" stroke="midnightblue" d="M858.764,-522C871.836,-522 886.237,-522 900.187,-522"/>
<polygon fill="midnightblue" stroke="midnightblue" points="900.238,-525.5 910.238,-522 900.238,-518.5 900.238,-525.5"/>
</g>
<!-- Node881&#45;&gt;Node858 -->
<g id="edge53" class="edge"><title>Node881&#45;&gt;Node858</title>
<path fill="none" stroke="midnightblue" d="M847.243,-443.533C853.005,-446.224 858.524,-449.649 863,-454 893.006,-483.167 876.306,-505.842 899,-541 911.42,-560.241 929.137,-579.014 943.574,-592.837"/>
<polygon fill="midnightblue" stroke="midnightblue" points="941.51,-595.7 951.203,-599.979 946.294,-590.59 941.51,-595.7"/>
</g>
<!-- Node881&#45;&gt;Node863 -->
<g id="edge54" class="edge"><title>Node881&#45;&gt;Node863</title>
<path fill="none" stroke="midnightblue" d="M838.758,-443.53C846.744,-446.552 855.341,-450.126 863,-454 893.659,-469.507 926.571,-491.706 947.332,-506.473"/>
<polygon fill="midnightblue" stroke="midnightblue" points="945.541,-509.496 955.703,-512.494 949.629,-503.813 945.541,-509.496"/>
</g>
<!-- Node882 -->
<g id="node38" class="node"><title>Node882</title>
<g id="a_node38"><a xlink:href="namespacevili_1_1_types.html#ac195a27b2ff3164cfb8aeba0222fad03" target="_top" xlink:title="Converts a DataType to its name (in a std::string) ">
<polygon fill="none" stroke="black" points="899,-424.5 899,-443.5 1040,-443.5 1040,-424.5 899,-424.5"/>
<text text-anchor="middle" x="969.5" y="-431.5" font-family="Helvetica,sans-Serif" font-size="10.00">vili::Types::dataTypeToString</text>
</a>
</g>
</g>
<!-- Node881&#45;&gt;Node882 -->
<g id="edge55" class="edge"><title>Node881&#45;&gt;Node882</title>
<path fill="none" stroke="midnightblue" d="M857.051,-434C866.984,-434 877.746,-434 888.532,-434"/>
<polygon fill="midnightblue" stroke="midnightblue" points="888.854,-437.5 898.854,-434 888.854,-430.5 888.854,-437.5"/>
</g>
</g>
</svg>
        <g id="navigator" transform="translate(0 0)" fill="#404254">
                <rect fill="#f2f5e9" fill-opacity="0.5" stroke="#606060" stroke-width=".5" x="0" y="0" width="60" height="60"/>
                <use id="zoomplus" xlink:href="#zoomPlus" x="17" y="9" onmousedown="handleZoom(evt,'in')"/>
                <use id="zoomminus" xlink:href="#zoomMin" x="42" y="9" onmousedown="handleZoom(evt,'out')"/>
                <use id="reset" xlink:href="#resetDef" x="30" y="36" onmousedown="handleReset()"/>
                <g id="arrowUp" xlink:href="#dirArrow" transform="translate(30 24)" onmousedown="handlePan(0,-1)">
                  <use xlink:href="#rim" fill="#404040">
                        <set attributeName="fill" to="#808080" begin="arrowUp.mouseover" end="arrowUp.mouseout"/>
                  </use>
                  <path fill="none" stroke="white" stroke-width="1.5" d="M0,-3.0v7 M-2.5,-0.5L0,-3.0L2.5,-0.5"/>
                </g>
                <g id="arrowRight" xlink:href="#dirArrow" transform="rotate(90) translate(36 -43)" onmousedown="handlePan(1,0)">
                  <use xlink:href="#rim" fill="#404040">
                        <set attributeName="fill" to="#808080" begin="arrowRight.mouseover" end="arrowRight.mouseout"/>
                  </use>
                  <path fill="none" stroke="white" stroke-width="1.5" d="M0,-3.0v7 M-2.5,-0.5L0,-3.0L2.5,-0.5"/>
                </g>
                <g id="arrowDown" xlink:href="#dirArrow" transform="rotate(180) translate(-30 -48)" onmousedown="handlePan(0,1)">
                  <use xlink:href="#rim" fill="#404040">
                        <set attributeName="fill" to="#808080" begin="arrowDown.mouseover" end="arrowDown.mouseout"/>
                  </use>
                  <path fill="none" stroke="white" stroke-width="1.5" d="M0,-3.0v7 M-2.5,-0.5L0,-3.0L2.5,-0.5"/>
                </g>
                <g id="arrowLeft" xlink:href="#dirArrow" transform="rotate(270) translate(-36 17)" onmousedown="handlePan(-1,0)">
                  <use xlink:href="#rim" fill="#404040">
                        <set attributeName="fill" to="#808080" begin="arrowLeft.mouseover" end="arrowLeft.mouseout"/>
                  </use>
                  <path fill="none" stroke="white" stroke-width="1.5" d="M0,-3.0v7 M-2.5,-0.5L0,-3.0L2.5,-0.5"/>
                </g>
        </g>
        <svg viewBox="0 0 15 15" width="100%" height="30px" preserveAspectRatio="xMaxYMin meet">
         <g id="arrow_out" transform="scale(0.3 0.3)">
          <a xlink:href="namespaceobe_1_1_script_1_1_core_lib_a144f31cc8b37c8d19a05138691229059_cgraph_org.svg" target="_base">
           <rect id="button" ry="5" rx="5" y="6" x="6" height="38" width="38"
                fill="#f2f5e9" fill-opacity="0.5" stroke="#606060" stroke-width="1.0"/>
           <path id="arrow"
             d="M 11.500037,31.436501 C 11.940474,20.09759 22.043105,11.32322 32.158766,21.979434 L 37.068811,17.246167 C 37.068811,17.246167 37.088388,32 37.088388,32 L 22.160133,31.978069 C 22.160133,31.978069 26.997745,27.140456 26.997745,27.140456 C 18.528582,18.264221 13.291696,25.230495 11.500037,31.436501 z"
             style="fill:#404040;"/>
          </a>
         </g>
        </svg>
</svg>
