<?xml version="1.0" encoding="UTF-8" standalone="no"?>
<!DOCTYPE svg PUBLIC "-//W3C//DTD SVG 1.1//EN"
 "http://www.w3.org/Graphics/SVG/1.1/DTD/svg11.dtd">
<!-- Generated by graphviz version 2.38.0 (20140413.2041)
 -->
<!-- Title: vili::Functions::String::extractAllStrings Pages: 1 -->
<!--zoomable 150 -->
<svg id="main" version="1.1" xmlns="http://www.w3.org/2000/svg" xmlns:xlink="http://www.w3.org/1999/xlink" xml:space="preserve" onload="init(evt)">
<style type="text/css"><![CDATA[
.edge:hover path { stroke: red; }
.edge:hover polygon { stroke: red; fill: red; }
.edge path { stroke: white; }
.edge polygon { stroke: white; fill: white; }
.node polygon { fill: white; }
]]></style>
<script type="text/javascript"><![CDATA[
var edges = document.getElementsByTagName('g');
if (edges && edges.length) {
  for (var i=0;i<edges.length;i++) {
    if (edges[i].id.substr(0,4)=='edge') {
      edges[i].setAttribute('class','edge');
    }
  }
}
]]></script>
        <defs>
                <circle id="rim" cx="0" cy="0" r="7"/>
                <circle id="rim2" cx="0" cy="0" r="3.5"/>
                <g id="zoomPlus">
                        <use xlink:href="#rim" fill="#404040">
                                <set attributeName="fill" to="#808080" begin="zoomplus.mouseover" end="zoomplus.mouseout"/>
                        </use>
                        <path d="M-4,0h8M0,-4v8" fill="none" stroke="white" stroke-width="1.5" pointer-events="none"/>
                </g>
                <g id="zoomMin">
                        <use xlink:href="#rim" fill="#404040">
                                <set attributeName="fill" to="#808080" begin="zoomminus.mouseover" end="zoomminus.mouseout"/>
                        </use>
                        <path d="M-4,0h8" fill="none" stroke="white" stroke-width="1.5" pointer-events="none"/>
                </g>
                <g id="dirArrow">
                        <path fill="none" stroke="white" stroke-width="1.5" d="M0,-3.0v7 M-2.5,-0.5L0,-3.0L2.5,-0.5"/>
                </g>
               <g id="resetDef">
                       <use xlink:href="#rim2" fill="#404040">
                               <set attributeName="fill" to="#808080" begin="reset.mouseover" end="reset.mouseout"/>
                       </use>
               </g>
        </defs>

<script type="text/javascript">
var viewWidth = 1479;
var viewHeight = 150;
var sectionId = 'dynsection-2';
</script>
<script xlink:href="svgpan.js"/>
<svg id="graph" class="graph">
<g id="viewport">
<title>vili::Functions::String::extractAllStrings</title>
<!-- Node88 -->
<g id="node1" class="node"><title>Node88</title>
<polygon fill="#bfbfbf" stroke="black" points="0,-79 0,-109 107,-109 107,-79 0,-79"/>
<text text-anchor="start" x="8" y="-97" font-family="Helvetica,sans-Serif" font-size="10.00">vili::Functions::String</text>
<text text-anchor="middle" x="53.5" y="-86" font-family="Helvetica,sans-Serif" font-size="10.00">::extractAllStrings</text>
</g>
<!-- Node89 -->
<g id="node2" class="node"><title>Node89</title>
<g id="a_node2"><a xlink:href="classvili_1_1_vili_parser.html#abf78e297a322d2e500a04172928d7c67" target="_top" xlink:title="Parses a .vili file. ">
<polygon fill="none" stroke="black" points="143,-84.5 143,-103.5 264,-103.5 264,-84.5 143,-84.5"/>
<text text-anchor="middle" x="203.5" y="-91.5" font-family="Helvetica,sans-Serif" font-size="10.00">vili::ViliParser::parseFile</text>
</a>
</g>
</g>
<!-- Node88&#45;&gt;Node89 -->
<g id="edge1" class="edge"><title>Node88&#45;&gt;Node89</title>
<path fill="none" stroke="midnightblue" d="M117.271,-94C125.719,-94 134.367,-94 142.761,-94"/>
<polygon fill="midnightblue" stroke="midnightblue" points="117.096,-90.5001 107.096,-94 117.096,-97.5001 117.096,-90.5001"/>
</g>
<!-- Node90 -->
<g id="node3" class="node"><title>Node90</title>
<g id="a_node3"><a xlink:href="classvili_1_1_vili_parser.html#a99cb54088fabdcf4182fd1593648a47f" target="_top" xlink:title="Creates a ViliParser and parses the file at the given path. ">
<polygon fill="none" stroke="black" points="304,-122.5 304,-141.5 427,-141.5 427,-122.5 304,-122.5"/>
<text text-anchor="middle" x="365.5" y="-129.5" font-family="Helvetica,sans-Serif" font-size="10.00">vili::ViliParser::ViliParser</text>
</a>
</g>
</g>
<!-- Node89&#45;&gt;Node90 -->
<g id="edge2" class="edge"><title>Node89&#45;&gt;Node90</title>
<path fill="none" stroke="midnightblue" d="M254.892,-105.968C277.313,-111.293 303.347,-117.476 324.416,-122.48"/>
<polygon fill="midnightblue" stroke="midnightblue" points="255.413,-102.495 244.875,-103.589 253.795,-109.305 255.413,-102.495"/>
</g>
<!-- Node91 -->
<g id="node4" class="node"><title>Node91</title>
<g id="a_node4"><a xlink:href="classvili_1_1_vili_parser.html#ab0484fbda61b08d2a97c6fc229638d06" target="_top" xlink:title="Includes a .vili file (all parsed content will be non&#45;visible) ">
<polygon fill="none" stroke="black" points="301.5,-84.5 301.5,-103.5 429.5,-103.5 429.5,-84.5 301.5,-84.5"/>
<text text-anchor="middle" x="365.5" y="-91.5" font-family="Helvetica,sans-Serif" font-size="10.00">vili::ViliParser::includeFile</text>
</a>
</g>
</g>
<!-- Node89&#45;&gt;Node91 -->
<g id="edge3" class="edge"><title>Node89&#45;&gt;Node91</title>
<path fill="none" stroke="midnightblue" d="M274.19,-87.3001C283.235,-87.2118 292.459,-87.2403 301.389,-87.3855"/>
<polygon fill="midnightblue" stroke="midnightblue" points="274.025,-83.802 264.078,-87.4494 274.129,-90.8013 274.025,-83.802"/>
</g>
<!-- Node96 -->
<g id="node9" class="node"><title>Node96</title>
<g id="a_node9"><a xlink:href="namespaceobe_1_1_system.html#ab44a678f8f4dc351d966f90283ba67e1" target="_top" xlink:title="Function called to Mount all Paths using &#39;Mount.vili&#39; file. ">
<polygon fill="none" stroke="black" points="300,-34.5 300,-53.5 431,-53.5 431,-34.5 300,-34.5"/>
<text text-anchor="middle" x="365.5" y="-41.5" font-family="Helvetica,sans-Serif" font-size="10.00">obe::System::MountPaths</text>
</a>
</g>
</g>
<!-- Node89&#45;&gt;Node96 -->
<g id="edge10" class="edge"><title>Node89&#45;&gt;Node96</title>
<path fill="none" stroke="midnightblue" d="M244.74,-81.4251C272.394,-72.783 308.549,-61.4846 333.87,-53.5719"/>
<polygon fill="midnightblue" stroke="midnightblue" points="243.472,-78.1542 234.971,-84.4777 245.56,-84.8356 243.472,-78.1542"/>
</g>
<!-- Node91&#45;&gt;Node89 -->
<g id="edge4" class="edge"><title>Node91&#45;&gt;Node89</title>
<path fill="none" stroke="midnightblue" d="M291.207,-100.729C282.123,-100.786 272.922,-100.727 264.078,-100.551"/>
<polygon fill="midnightblue" stroke="midnightblue" points="291.429,-104.227 301.389,-100.614 291.351,-97.2271 291.429,-104.227"/>
</g>
<!-- Node92 -->
<g id="node5" class="node"><title>Node92</title>
<g id="a_node5"><a xlink:href="namespaceobe_1_1_modes.html#aba069f9abc42724d76690602326d6b7d" target="_top" xlink:title="obe::Modes::createLevel">
<polygon fill="none" stroke="black" points="467,-97.5 467,-116.5 589,-116.5 589,-97.5 467,-97.5"/>
<text text-anchor="middle" x="528" y="-104.5" font-family="Helvetica,sans-Serif" font-size="10.00">obe::Modes::createLevel</text>
</a>
</g>
</g>
<!-- Node91&#45;&gt;Node92 -->
<g id="edge5" class="edge"><title>Node91&#45;&gt;Node92</title>
<path fill="none" stroke="midnightblue" d="M440.022,-99.955C449.021,-100.684 458.134,-101.422 466.904,-102.132"/>
<polygon fill="midnightblue" stroke="midnightblue" points="440.184,-96.4568 429.934,-99.1379 439.619,-103.434 440.184,-96.4568"/>
</g>
<!-- Node93 -->
<g id="node6" class="node"><title>Node93</title>
<g id="a_node6"><a xlink:href="namespaceobe_1_1_modes.html#a3f3265818dfb12925bf614e517346f73" target="_top" xlink:title="Starts the menu used to chose a map to edit. ">
<polygon fill="none" stroke="black" points="1080,-110.5 1080,-129.5 1228,-129.5 1228,-110.5 1080,-110.5"/>
<text text-anchor="middle" x="1154" y="-117.5" font-family="Helvetica,sans-Serif" font-size="10.00">obe::Modes::chooseMapMenu</text>
</a>
</g>
</g>
<!-- Node92&#45;&gt;Node93 -->
<g id="edge6" class="edge"><title>Node92&#45;&gt;Node93</title>
<path fill="none" stroke="midnightblue" d="M599.206,-108.463C718.221,-110.942 958.433,-115.947 1079.59,-118.471"/>
<polygon fill="midnightblue" stroke="midnightblue" points="599.186,-104.962 589.115,-108.252 599.04,-111.96 599.186,-104.962"/>
</g>
<!-- Node94 -->
<g id="node7" class="node"><title>Node94</title>
<g id="a_node7"><a xlink:href="namespaceobe_1_1_modes.html#a6a8b08eee511d4895c4da96d4ba223a6" target="_top" xlink:title="Starts the development Menu where you can starts other menus from. ">
<polygon fill="none" stroke="black" points="1264,-72.5 1264,-91.5 1397,-91.5 1397,-72.5 1264,-72.5"/>
<text text-anchor="middle" x="1330.5" y="-79.5" font-family="Helvetica,sans-Serif" font-size="10.00">obe::Modes::startDevMenu</text>
</a>
</g>
</g>
<!-- Node93&#45;&gt;Node94 -->
<g id="edge7" class="edge"><title>Node93&#45;&gt;Node94</title>
<path fill="none" stroke="midnightblue" d="M1208.97,-108.247C1233.64,-102.874 1262.49,-96.5914 1285.78,-91.5201"/>
<polygon fill="midnightblue" stroke="midnightblue" points="1208.06,-104.863 1199.03,-110.411 1209.55,-111.703 1208.06,-104.863"/>
</g>
<!-- Node95 -->
<g id="node8" class="node"><title>Node95</title>
<g id="a_node8"><a xlink:href="_ob_engine_8cpp.html#a3c04138a5bfe5d72780bb7e82a18e627" target="_top" xlink:title="main">
<polygon fill="none" stroke="black" points="1433,-53.5 1433,-72.5 1471,-72.5 1471,-53.5 1433,-53.5"/>
<text text-anchor="middle" x="1452" y="-60.5" font-family="Helvetica,sans-Serif" font-size="10.00">main</text>
</a>
</g>
</g>
<!-- Node93&#45;&gt;Node95 -->
<g id="edge9" class="edge"><title>Node93&#45;&gt;Node95</title>
<path fill="none" stroke="midnightblue" d="M1238.35,-124.211C1286.09,-124.006 1346.39,-119.231 1397,-101 1414.04,-94.8611 1430.62,-81.825 1440.81,-72.7438"/>
<polygon fill="midnightblue" stroke="midnightblue" points="1238.06,-120.71 1228.05,-124.185 1238.04,-127.71 1238.06,-120.71"/>
</g>
<!-- Node94&#45;&gt;Node95 -->
<g id="edge8" class="edge"><title>Node94&#45;&gt;Node95</title>
<path fill="none" stroke="midnightblue" d="M1401.82,-70.8192C1413.35,-68.9869 1424.33,-67.2409 1432.98,-65.8654"/>
<polygon fill="midnightblue" stroke="midnightblue" points="1400.93,-67.4174 1391.6,-72.4443 1402.03,-74.3306 1400.93,-67.4174"/>
</g>
<!-- Node96&#45;&gt;Node95 -->
<g id="edge11" class="edge"><title>Node96&#45;&gt;Node95</title>
<path fill="none" stroke="midnightblue" d="M409.308,-31.78C427.031,-27.1327 447.876,-22.1936 467,-19 562.709,-3.01669 587.465,-0 684.5,-0 684.5,-0 684.5,-0 1155,-0 1262.44,-1.42109e-014 1387.11,-40.202 1432.93,-56.377"/>
<polygon fill="midnightblue" stroke="midnightblue" points="408.025,-28.5002 399.27,-34.4672 409.835,-35.262 408.025,-28.5002"/>
</g>
<!-- Node97 -->
<g id="node10" class="node"><title>Node97</title>
<g id="a_node10"><a xlink:href="namespaceobe_1_1_script_1_1_core_lib.html#a474d9f2d7938ff05a78649907b8a77d3" target="_top" xlink:title="obe::Script::CoreLib\l::loadPath">
<polygon fill="none" stroke="black" points="476.5,-29 476.5,-59 579.5,-59 579.5,-29 476.5,-29"/>
<text text-anchor="start" x="484.5" y="-47" font-family="Helvetica,sans-Serif" font-size="10.00">obe::Script::CoreLib</text>
<text text-anchor="middle" x="528" y="-36" font-family="Helvetica,sans-Serif" font-size="10.00">::loadPath</text>
</a>
</g>
</g>
<!-- Node96&#45;&gt;Node97 -->
<g id="edge12" class="edge"><title>Node96&#45;&gt;Node97</title>
<path fill="none" stroke="midnightblue" d="M441.579,-44C453.327,-44 465.223,-44 476.255,-44"/>
<polygon fill="midnightblue" stroke="midnightblue" points="441.319,-40.5001 431.319,-44 441.319,-47.5001 441.319,-40.5001"/>
</g>
<!-- Node98 -->
<g id="node11" class="node"><title>Node98</title>
<g id="a_node11"><a xlink:href="namespaceobe_1_1_script.html#abdb81ec0976f1097cef6711415b8fac3" target="_top" xlink:title="obe::Script::loadCoreLib">
<polygon fill="none" stroke="black" points="625,-34.5 625,-53.5 746,-53.5 746,-34.5 625,-34.5"/>
<text text-anchor="middle" x="685.5" y="-41.5" font-family="Helvetica,sans-Serif" font-size="10.00">obe::Script::loadCoreLib</text>
</a>
</g>
</g>
<!-- Node97&#45;&gt;Node98 -->
<g id="edge13" class="edge"><title>Node97&#45;&gt;Node98</title>
<path fill="none" stroke="midnightblue" d="M590.205,-44C601.592,-44 613.476,-44 624.817,-44"/>
<polygon fill="midnightblue" stroke="midnightblue" points="589.917,-40.5001 579.917,-44 589.916,-47.5001 589.917,-40.5001"/>
</g>
<!-- Node99 -->
<g id="node12" class="node"><title>Node99</title>
<g id="a_node12"><a xlink:href="namespaceobe_1_1_script.html#a4e6ee77032cf7f66544f9b08464a60b7" target="_top" xlink:title="obe::Script::loadLib">
<polygon fill="none" stroke="black" points="783,-78.5 783,-97.5 884,-97.5 884,-78.5 783,-78.5"/>
<text text-anchor="middle" x="833.5" y="-85.5" font-family="Helvetica,sans-Serif" font-size="10.00">obe::Script::loadLib</text>
</a>
</g>
</g>
<!-- Node98&#45;&gt;Node99 -->
<g id="edge14" class="edge"><title>Node98&#45;&gt;Node99</title>
<path fill="none" stroke="midnightblue" d="M727.761,-56.4347C750.959,-63.426 779.468,-72.0177 800.882,-78.4713"/>
<polygon fill="midnightblue" stroke="midnightblue" points="728.764,-53.0818 718.18,-53.5473 726.745,-59.7841 728.764,-53.0818"/>
</g>
<!-- Node102 -->
<g id="node15" class="node"><title>Node102</title>
<g id="a_node15"><a xlink:href="namespaceobe_1_1_script_1_1_core_lib.html#a07d6c11bbb082bc45bdba50d97965c00" target="_top" xlink:title="obe::Script::CoreLib\l::loadCollision">
<polygon fill="none" stroke="black" points="782,-29 782,-59 885,-59 885,-29 782,-29"/>
<text text-anchor="start" x="790" y="-47" font-family="Helvetica,sans-Serif" font-size="10.00">obe::Script::CoreLib</text>
<text text-anchor="middle" x="833.5" y="-36" font-family="Helvetica,sans-Serif" font-size="10.00">::loadCollision</text>
</a>
</g>
</g>
<!-- Node98&#45;&gt;Node102 -->
<g id="edge20" class="edge"><title>Node98&#45;&gt;Node102</title>
<path fill="none" stroke="midnightblue" d="M756.356,-37.2556C764.966,-37.2251 773.634,-37.3199 781.88,-37.5402"/>
<polygon fill="midnightblue" stroke="midnightblue" points="756.272,-33.7561 746.305,-37.349 756.337,-40.7558 756.272,-33.7561"/>
</g>
<!-- Node100 -->
<g id="node13" class="node"><title>Node100</title>
<g id="a_node13"><a xlink:href="namespaceobe_1_1_modes.html#a1e38c0d9a2ca0230f0de79c298f53ab9" target="_top" xlink:title="A mode that will start the Toolkit. ">
<polygon fill="none" stroke="black" points="1081,-59.5 1081,-78.5 1227,-78.5 1227,-59.5 1081,-59.5"/>
<text text-anchor="middle" x="1154" y="-66.5" font-family="Helvetica,sans-Serif" font-size="10.00">obe::Modes::startToolkitMode</text>
</a>
</g>
</g>
<!-- Node99&#45;&gt;Node100 -->
<g id="edge15" class="edge"><title>Node99&#45;&gt;Node100</title>
<path fill="none" stroke="midnightblue" d="M894.507,-84.4203C947.399,-81.2651 1024.58,-76.661 1080.83,-73.3055"/>
<polygon fill="midnightblue" stroke="midnightblue" points="894.039,-80.9419 884.266,-85.0313 894.456,-87.9295 894.039,-80.9419"/>
</g>
<!-- Node101 -->
<g id="node14" class="node"><title>Node101</title>
<g id="a_node14"><a xlink:href="namespaceobe_1_1_script.html#aad6ef67388e6d16eb01853f208da410f" target="_top" xlink:title="obe::Script::loadBaseLib">
<polygon fill="none" stroke="black" points="921,-40.5 921,-59.5 1044,-59.5 1044,-40.5 921,-40.5"/>
<text text-anchor="middle" x="982.5" y="-47.5" font-family="Helvetica,sans-Serif" font-size="10.00">obe::Script::loadBaseLib</text>
</a>
</g>
</g>
<!-- Node99&#45;&gt;Node101 -->
<g id="edge18" class="edge"><title>Node99&#45;&gt;Node101</title>
<path fill="none" stroke="midnightblue" d="M881.355,-75.8879C901.828,-70.5956 925.49,-64.4787 944.672,-59.5201"/>
<polygon fill="midnightblue" stroke="midnightblue" points="880.4,-72.5195 871.594,-78.411 882.152,-79.2968 880.4,-72.5195"/>
</g>
<!-- Node100&#45;&gt;Node94 -->
<g id="edge16" class="edge"><title>Node100&#45;&gt;Node94</title>
<path fill="none" stroke="midnightblue" d="M1237.23,-75.1258C1246.12,-75.7883 1255.08,-76.456 1263.74,-77.1013"/>
<polygon fill="midnightblue" stroke="midnightblue" points="1237.47,-71.6341 1227.24,-74.3814 1236.95,-78.6148 1237.47,-71.6341"/>
</g>
<!-- Node100&#45;&gt;Node95 -->
<g id="edge17" class="edge"><title>Node100&#45;&gt;Node95</title>
<path fill="none" stroke="midnightblue" d="M1237.25,-63.9894C1246.27,-63.5835 1255.33,-63.2385 1264,-63 1325.99,-61.2953 1399.57,-62.1343 1432.94,-62.6703"/>
<polygon fill="midnightblue" stroke="midnightblue" points="1236.92,-60.501 1227.09,-64.471 1237.25,-67.4932 1236.92,-60.501"/>
</g>
<!-- Node101&#45;&gt;Node100 -->
<g id="edge19" class="edge"><title>Node101&#45;&gt;Node100</title>
<path fill="none" stroke="midnightblue" d="M1054.37,-57.9445C1063.13,-58.9256 1072.08,-59.9295 1080.85,-60.9127"/>
<polygon fill="midnightblue" stroke="midnightblue" points="1054.54,-54.4416 1044.21,-56.8058 1053.76,-61.398 1054.54,-54.4416"/>
</g>
<!-- Node102&#45;&gt;Node98 -->
<g id="edge21" class="edge"><title>Node102&#45;&gt;Node98</title>
<path fill="none" stroke="midnightblue" d="M771.757,-50.6647C763.342,-50.7828 754.703,-50.7783 746.305,-50.651"/>
<polygon fill="midnightblue" stroke="midnightblue" points="771.953,-54.1616 781.88,-50.4598 771.811,-47.163 771.953,-54.1616"/>
</g>
</g>
</svg>
        <g id="navigator" transform="translate(0 0)" fill="#404254">
                <rect fill="#f2f5e9" fill-opacity="0.5" stroke="#606060" stroke-width=".5" x="0" y="0" width="60" height="60"/>
                <use id="zoomplus" xlink:href="#zoomPlus" x="17" y="9" onmousedown="handleZoom(evt,'in')"/>
                <use id="zoomminus" xlink:href="#zoomMin" x="42" y="9" onmousedown="handleZoom(evt,'out')"/>
                <use id="reset" xlink:href="#resetDef" x="30" y="36" onmousedown="handleReset()"/>
                <g id="arrowUp" xlink:href="#dirArrow" transform="translate(30 24)" onmousedown="handlePan(0,-1)">
                  <use xlink:href="#rim" fill="#404040">
                        <set attributeName="fill" to="#808080" begin="arrowUp.mouseover" end="arrowUp.mouseout"/>
                  </use>
                  <path fill="none" stroke="white" stroke-width="1.5" d="M0,-3.0v7 M-2.5,-0.5L0,-3.0L2.5,-0.5"/>
                </g>
                <g id="arrowRight" xlink:href="#dirArrow" transform="rotate(90) translate(36 -43)" onmousedown="handlePan(1,0)">
                  <use xlink:href="#rim" fill="#404040">
                        <set attributeName="fill" to="#808080" begin="arrowRight.mouseover" end="arrowRight.mouseout"/>
                  </use>
                  <path fill="none" stroke="white" stroke-width="1.5" d="M0,-3.0v7 M-2.5,-0.5L0,-3.0L2.5,-0.5"/>
                </g>
                <g id="arrowDown" xlink:href="#dirArrow" transform="rotate(180) translate(-30 -48)" onmousedown="handlePan(0,1)">
                  <use xlink:href="#rim" fill="#404040">
                        <set attributeName="fill" to="#808080" begin="arrowDown.mouseover" end="arrowDown.mouseout"/>
                  </use>
                  <path fill="none" stroke="white" stroke-width="1.5" d="M0,-3.0v7 M-2.5,-0.5L0,-3.0L2.5,-0.5"/>
                </g>
                <g id="arrowLeft" xlink:href="#dirArrow" transform="rotate(270) translate(-36 17)" onmousedown="handlePan(-1,0)">
                  <use xlink:href="#rim" fill="#404040">
                        <set attributeName="fill" to="#808080" begin="arrowLeft.mouseover" end="arrowLeft.mouseout"/>
                  </use>
                  <path fill="none" stroke="white" stroke-width="1.5" d="M0,-3.0v7 M-2.5,-0.5L0,-3.0L2.5,-0.5"/>
                </g>
        </g>
        <svg viewBox="0 0 15 15" width="100%" height="30px" preserveAspectRatio="xMaxYMin meet">
         <g id="arrow_out" transform="scale(0.3 0.3)">
          <a xlink:href="namespacevili_1_1_functions_1_1_string_aa838aa8c28639dff8dc8289214c4362d_icgraph_org.svg" target="_base">
           <rect id="button" ry="5" rx="5" y="6" x="6" height="38" width="38"
                fill="#f2f5e9" fill-opacity="0.5" stroke="#606060" stroke-width="1.0"/>
           <path id="arrow"
             d="M 11.500037,31.436501 C 11.940474,20.09759 22.043105,11.32322 32.158766,21.979434 L 37.068811,17.246167 C 37.068811,17.246167 37.088388,32 37.088388,32 L 22.160133,31.978069 C 22.160133,31.978069 26.997745,27.140456 26.997745,27.140456 C 18.528582,18.264221 13.291696,25.230495 11.500037,31.436501 z"
             style="fill:#404040;"/>
          </a>
         </g>
        </svg>
</svg>
