<?xml version="1.0" encoding="UTF-8" standalone="no"?>
<!DOCTYPE svg PUBLIC "-//W3C//DTD SVG 1.1//EN"
 "http://www.w3.org/Graphics/SVG/1.1/DTD/svg11.dtd">
<!-- Generated by graphviz version 2.38.0 (20140413.2041)
 -->
<!-- Title: obe::Utils::String::isStringNumeric Pages: 1 -->
<svg width="508pt" height="137pt"
 viewBox="0.00 0.00 508.00 137.00" xmlns="http://www.w3.org/2000/svg" xmlns:xlink="http://www.w3.org/1999/xlink">
<g id="graph0" class="graph" transform="scale(1 1) rotate(0) translate(4 133)">
<title>obe::Utils::String::isStringNumeric</title>
<!-- Node134 -->
<g id="node1" class="node"><title>Node134</title>
<polygon fill="#bfbfbf" stroke="black" points="0,-24.5 0,-54.5 92,-54.5 92,-24.5 0,-24.5"/>
<text text-anchor="start" x="8" y="-42.5" font-family="Helvetica,sans-Serif" font-size="10.00">obe::Utils::String</text>
<text text-anchor="middle" x="46" y="-31.5" font-family="Helvetica,sans-Serif" font-size="10.00">::isStringNumeric</text>
</g>
<!-- Node135 -->
<g id="node2" class="node"><title>Node135</title>
<g id="a_node2"><a xlink:href="namespaceobe_1_1_utils_1_1_string.html#ae60709dade757255ae0b412a860e4df3" target="_top" xlink:title="Get if the string is a float. ">
<polygon fill="white" stroke="black" points="128,-49.5 128,-79.5 217,-79.5 217,-49.5 128,-49.5"/>
<text text-anchor="start" x="136" y="-67.5" font-family="Helvetica,sans-Serif" font-size="10.00">obe::Utils::String</text>
<text text-anchor="middle" x="172.5" y="-56.5" font-family="Helvetica,sans-Serif" font-size="10.00">::isStringFloat</text>
</a>
</g>
</g>
<!-- Node134&#45;&gt;Node135 -->
<g id="edge1" class="edge"><title>Node134&#45;&gt;Node135</title>
<path fill="none" stroke="midnightblue" d="M92.2995,-48.5963C100.595,-50.262 109.325,-52.0151 117.837,-53.7243"/>
<polygon fill="midnightblue" stroke="midnightblue" points="117.196,-57.1654 127.689,-55.7027 118.574,-50.3024 117.196,-57.1654"/>
</g>
<!-- Node140 -->
<g id="node7" class="node"><title>Node140</title>
<g id="a_node7"><a xlink:href="namespaceobe_1_1_utils_1_1_string.html#ae02e26ec5eb43272fc37bb577193af79" target="_top" xlink:title="Get if the string is an integer. ">
<polygon fill="white" stroke="black" points="128,-0.5 128,-30.5 217,-30.5 217,-0.5 128,-0.5"/>
<text text-anchor="start" x="136" y="-18.5" font-family="Helvetica,sans-Serif" font-size="10.00">obe::Utils::String</text>
<text text-anchor="middle" x="172.5" y="-7.5" font-family="Helvetica,sans-Serif" font-size="10.00">::isStringInt</text>
</a>
</g>
</g>
<!-- Node134&#45;&gt;Node140 -->
<g id="edge6" class="edge"><title>Node134&#45;&gt;Node140</title>
<path fill="none" stroke="midnightblue" d="M92.2995,-30.7676C100.595,-29.1684 109.325,-27.4855 117.837,-25.8447"/>
<polygon fill="midnightblue" stroke="midnightblue" points="118.533,-29.2751 127.689,-23.9454 117.208,-22.4016 118.533,-29.2751"/>
</g>
<!-- Node136 -->
<g id="node3" class="node"><title>Node136</title>
<g id="a_node3"><a xlink:href="namespaceobe_1_1_utils_1_1_string.html#a6304ccfbd6a3bf086bd3189609381f70" target="_top" xlink:title="Count of the occurences of occur in string str. ">
<polygon fill="white" stroke="black" points="261,-98.5 261,-128.5 367,-128.5 367,-98.5 261,-98.5"/>
<text text-anchor="start" x="269" y="-116.5" font-family="Helvetica,sans-Serif" font-size="10.00">obe::Utils::String</text>
<text text-anchor="middle" x="314" y="-105.5" font-family="Helvetica,sans-Serif" font-size="10.00">::occurencesInString</text>
</a>
</g>
</g>
<!-- Node135&#45;&gt;Node136 -->
<g id="edge2" class="edge"><title>Node135&#45;&gt;Node136</title>
<path fill="none" stroke="midnightblue" d="M216.493,-79.6014C230.282,-84.4451 245.717,-89.8664 260.128,-94.9285"/>
<polygon fill="midnightblue" stroke="midnightblue" points="259.314,-98.3522 269.909,-98.3641 261.634,-91.7478 259.314,-98.3522"/>
</g>
<!-- Node137 -->
<g id="node4" class="node"><title>Node137</title>
<g id="a_node4"><a xlink:href="namespacevili_1_1_functions_1_1_string.html#a8d1e845c06f563c1a18e8c9d2adc34af" target="_top" xlink:title="vili::Functions::String\l::removeCharFromString">
<polygon fill="white" stroke="black" points="253,-49.5 253,-79.5 375,-79.5 375,-49.5 253,-49.5"/>
<text text-anchor="start" x="261" y="-67.5" font-family="Helvetica,sans-Serif" font-size="10.00">vili::Functions::String</text>
<text text-anchor="middle" x="314" y="-56.5" font-family="Helvetica,sans-Serif" font-size="10.00">::removeCharFromString</text>
</a>
</g>
</g>
<!-- Node135&#45;&gt;Node137 -->
<g id="edge3" class="edge"><title>Node135&#45;&gt;Node137</title>
<path fill="none" stroke="midnightblue" d="M217.256,-64.5C225.354,-64.5 233.997,-64.5 242.652,-64.5"/>
<polygon fill="midnightblue" stroke="midnightblue" points="242.787,-68.0001 252.787,-64.5 242.787,-61.0001 242.787,-68.0001"/>
</g>
<!-- Node138 -->
<g id="node5" class="node"><title>Node138</title>
<g id="a_node5"><a xlink:href="namespaceobe_1_1_utils_1_1_string.html#ad9d5afbd60c8e3c6894ad5c782de001a" target="_top" xlink:title="Replace all the occurences of search to replace in the string subject in place. ">
<polygon fill="white" stroke="black" points="269.5,-0.5 269.5,-30.5 358.5,-30.5 358.5,-0.5 269.5,-0.5"/>
<text text-anchor="start" x="277.5" y="-18.5" font-family="Helvetica,sans-Serif" font-size="10.00">obe::Utils::String</text>
<text text-anchor="middle" x="314" y="-7.5" font-family="Helvetica,sans-Serif" font-size="10.00">::replaceInPlace</text>
</a>
</g>
</g>
<!-- Node135&#45;&gt;Node138 -->
<g id="edge4" class="edge"><title>Node135&#45;&gt;Node138</title>
<path fill="none" stroke="midnightblue" d="M216.493,-49.3986C230.282,-44.5549 245.717,-39.1336 260.128,-34.0715"/>
<polygon fill="midnightblue" stroke="midnightblue" points="261.634,-37.2522 269.909,-30.6359 259.314,-30.6478 261.634,-37.2522"/>
</g>
<!-- Node139 -->
<g id="node6" class="node"><title>Node139</title>
<g id="a_node6"><a xlink:href="namespaceobe_1_1_utils_1_1_string.html#ad648e63a60e1fce71a321037fbee4e30" target="_top" xlink:title="Replace all the occurences of search to replace in the string subject. ">
<polygon fill="white" stroke="black" points="411,-0.5 411,-30.5 500,-30.5 500,-0.5 411,-0.5"/>
<text text-anchor="start" x="419" y="-18.5" font-family="Helvetica,sans-Serif" font-size="10.00">obe::Utils::String</text>
<text text-anchor="middle" x="455.5" y="-7.5" font-family="Helvetica,sans-Serif" font-size="10.00">::replace</text>
</a>
</g>
</g>
<!-- Node138&#45;&gt;Node139 -->
<g id="edge5" class="edge"><title>Node138&#45;&gt;Node139</title>
<path fill="none" stroke="midnightblue" d="M358.756,-15.5C372,-15.5 386.703,-15.5 400.533,-15.5"/>
<polygon fill="midnightblue" stroke="midnightblue" points="400.899,-19.0001 410.899,-15.5 400.899,-12.0001 400.899,-19.0001"/>
</g>
</g>
</svg>
