<?xml version="1.0" encoding="UTF-8" standalone="no"?>
<!DOCTYPE svg PUBLIC "-//W3C//DTD SVG 1.1//EN"
 "http://www.w3.org/Graphics/SVG/1.1/DTD/svg11.dtd">
<!-- Generated by graphviz version 2.38.0 (20140413.2041)
 -->
<!-- Title: obe::tguif::bindTop Pages: 1 -->
<svg width="661pt" height="88pt"
 viewBox="0.00 0.00 661.00 88.00" xmlns="http://www.w3.org/2000/svg" xmlns:xlink="http://www.w3.org/1999/xlink">
<g id="graph0" class="graph" transform="scale(1 1) rotate(0) translate(4 84)">
<title>obe::tguif::bindTop</title>
<!-- Node25 -->
<g id="node1" class="node"><title>Node25</title>
<polygon fill="#bfbfbf" stroke="black" points="0,-30 0,-49 96,-49 96,-30 0,-30"/>
<text text-anchor="middle" x="48" y="-37" font-family="Helvetica,sans-Serif" font-size="10.00">obe::tguif::bindTop</text>
</g>
<!-- Node26 -->
<g id="node2" class="node"><title>Node26</title>
<g id="a_node2"><a xlink:href="namespaceobe_1_1_editor_1_1_g_u_i.html#ab6488bee9ef282bd00427197711429cc" target="_top" xlink:title="obe::Editor::GUI::buildEditor\lMapMenu">
<polygon fill="white" stroke="black" points="132,-49.5 132,-79.5 270,-79.5 270,-49.5 132,-49.5"/>
<text text-anchor="start" x="140" y="-67.5" font-family="Helvetica,sans-Serif" font-size="10.00">obe::Editor::GUI::buildEditor</text>
<text text-anchor="middle" x="201" y="-56.5" font-family="Helvetica,sans-Serif" font-size="10.00">MapMenu</text>
</a>
</g>
</g>
<!-- Node25&#45;&gt;Node26 -->
<g id="edge1" class="edge"><title>Node25&#45;&gt;Node26</title>
<path fill="none" stroke="midnightblue" d="M106.328,-48.9913C114.648,-50.3689 123.282,-51.7983 131.791,-53.2071"/>
<polygon fill="midnightblue" stroke="midnightblue" points="106.8,-45.522 96.363,-47.3416 105.657,-52.428 106.8,-45.522"/>
</g>
<!-- Node30 -->
<g id="node6" class="node"><title>Node30</title>
<g id="a_node6"><a xlink:href="namespaceobe_1_1_editor_1_1_g_u_i.html#a0e86f334cbb96c0202f6cf5626aa81a1" target="_top" xlink:title="obe::Editor::GUI::buildEditor\lSettingsMenu">
<polygon fill="white" stroke="black" points="132,-0.5 132,-30.5 270,-30.5 270,-0.5 132,-0.5"/>
<text text-anchor="start" x="140" y="-18.5" font-family="Helvetica,sans-Serif" font-size="10.00">obe::Editor::GUI::buildEditor</text>
<text text-anchor="middle" x="201" y="-7.5" font-family="Helvetica,sans-Serif" font-size="10.00">SettingsMenu</text>
</a>
</g>
</g>
<!-- Node25&#45;&gt;Node30 -->
<g id="edge6" class="edge"><title>Node25&#45;&gt;Node30</title>
<path fill="none" stroke="midnightblue" d="M106.328,-30.3883C114.648,-29.0658 123.282,-27.6936 131.791,-26.3412"/>
<polygon fill="midnightblue" stroke="midnightblue" points="105.69,-26.9457 96.363,-31.9721 106.789,-33.8589 105.69,-26.9457"/>
</g>
<!-- Node27 -->
<g id="node3" class="node"><title>Node27</title>
<g id="a_node3"><a xlink:href="namespaceobe_1_1_editor.html#a9009207671e71dccb68a31ea2362e9ef" target="_top" xlink:title="Starts the map edition. ">
<polygon fill="white" stroke="black" points="306,-30 306,-49 410,-49 410,-30 306,-30"/>
<text text-anchor="middle" x="358" y="-37" font-family="Helvetica,sans-Serif" font-size="10.00">obe::Editor::editMap</text>
</a>
</g>
</g>
<!-- Node26&#45;&gt;Node27 -->
<g id="edge2" class="edge"><title>Node26&#45;&gt;Node27</title>
<path fill="none" stroke="midnightblue" d="M280.47,-51.8436C289.032,-50.4627 297.578,-49.0842 305.69,-47.7758"/>
<polygon fill="midnightblue" stroke="midnightblue" points="279.752,-48.4141 270.436,-53.4619 280.866,-55.3248 279.752,-48.4141"/>
</g>
<!-- Node28 -->
<g id="node4" class="node"><title>Node28</title>
<g id="a_node4"><a xlink:href="namespaceobe_1_1_modes.html#a6a8b08eee511d4895c4da96d4ba223a6" target="_top" xlink:title="Starts the development Menu where you can starts other menus from. ">
<polygon fill="white" stroke="black" points="446,-49 446,-68 579,-68 579,-49 446,-49"/>
<text text-anchor="middle" x="512.5" y="-56" font-family="Helvetica,sans-Serif" font-size="10.00">obe::Modes::startDevMenu</text>
</a>
</g>
</g>
<!-- Node27&#45;&gt;Node28 -->
<g id="edge3" class="edge"><title>Node27&#45;&gt;Node28</title>
<path fill="none" stroke="midnightblue" d="M420.292,-47.1364C428.688,-48.1824 437.336,-49.2599 445.806,-50.3152"/>
<polygon fill="midnightblue" stroke="midnightblue" points="420.561,-43.6429 410.205,-45.8796 419.695,-50.5892 420.561,-43.6429"/>
</g>
<!-- Node29 -->
<g id="node5" class="node"><title>Node29</title>
<g id="a_node5"><a xlink:href="_ob_engine_8cpp.html#a3c04138a5bfe5d72780bb7e82a18e627" target="_top" xlink:title="main">
<polygon fill="white" stroke="black" points="615,-30 615,-49 653,-49 653,-30 615,-30"/>
<text text-anchor="middle" x="634" y="-37" font-family="Helvetica,sans-Serif" font-size="10.00">main</text>
</a>
</g>
</g>
<!-- Node27&#45;&gt;Node29 -->
<g id="edge5" class="edge"><title>Node27&#45;&gt;Node29</title>
<path fill="none" stroke="midnightblue" d="M420.356,-39.5C482.863,-39.5 575.971,-39.5 614.885,-39.5"/>
<polygon fill="midnightblue" stroke="midnightblue" points="420.216,-36.0001 410.216,-39.5 420.216,-43.0001 420.216,-36.0001"/>
</g>
<!-- Node28&#45;&gt;Node29 -->
<g id="edge4" class="edge"><title>Node28&#45;&gt;Node29</title>
<path fill="none" stroke="midnightblue" d="M583.822,-47.3192C595.345,-45.4869 606.327,-43.7409 614.978,-42.3654"/>
<polygon fill="midnightblue" stroke="midnightblue" points="582.926,-43.9174 573.6,-48.9443 584.026,-50.8306 582.926,-43.9174"/>
</g>
<!-- Node30&#45;&gt;Node27 -->
<g id="edge7" class="edge"><title>Node30&#45;&gt;Node27</title>
<path fill="none" stroke="midnightblue" d="M280.47,-27.6501C289.032,-28.9758 297.578,-30.2991 305.69,-31.5552"/>
<polygon fill="midnightblue" stroke="midnightblue" points="280.854,-24.1681 270.436,-26.0966 279.783,-31.0856 280.854,-24.1681"/>
</g>
</g>
</svg>
