<?xml version="1.0" encoding="UTF-8" standalone="no"?>
<!DOCTYPE svg PUBLIC "-//W3C//DTD SVG 1.1//EN"
 "http://www.w3.org/Graphics/SVG/1.1/DTD/svg11.dtd">
<!-- Generated by graphviz version 2.38.0 (20140413.2041)
 -->
<!-- Title: obe::Bindings::DebugBindings::LoadConsoleStream Pages: 1 -->
<svg width="1293pt" height="284pt"
 viewBox="0.00 0.00 1293.00 284.00" xmlns="http://www.w3.org/2000/svg" xmlns:xlink="http://www.w3.org/1999/xlink">
<g id="graph0" class="graph" transform="scale(1 1) rotate(0) translate(4 280)">
<title>obe::Bindings::DebugBindings::LoadConsoleStream</title>
<!-- Node47 -->
<g id="node1" class="node"><title>Node47</title>
<polygon fill="#bfbfbf" stroke="black" points="0,-146.5 0,-176.5 147,-176.5 147,-146.5 0,-146.5"/>
<text text-anchor="start" x="8" y="-164.5" font-family="Helvetica,sans-Serif" font-size="10.00">obe::Bindings::DebugBindings</text>
<text text-anchor="middle" x="73.5" y="-153.5" font-family="Helvetica,sans-Serif" font-size="10.00">::LoadConsoleStream</text>
</g>
<!-- Node48 -->
<g id="node2" class="node"><title>Node48</title>
<g id="a_node2"><a xlink:href="classobe_1_1_debug_1_1_console_stream.html#a775dd2b1bbbac0ccb9912bb2acc6c1e0" target="_top" xlink:title="Get the color of the Stream. ">
<polygon fill="white" stroke="black" points="183,-195.5 183,-225.5 322,-225.5 322,-195.5 183,-195.5"/>
<text text-anchor="start" x="191" y="-213.5" font-family="Helvetica,sans-Serif" font-size="10.00">obe::Debug::ConsoleStream</text>
<text text-anchor="middle" x="252.5" y="-202.5" font-family="Helvetica,sans-Serif" font-size="10.00">::getColor</text>
</a>
</g>
</g>
<!-- Node47&#45;&gt;Node48 -->
<g id="edge1" class="edge"><title>Node47&#45;&gt;Node48</title>
<path fill="none" stroke="midnightblue" d="M129.05,-176.601C147.474,-181.702 168.212,-187.443 187.312,-192.73"/>
<polygon fill="midnightblue" stroke="midnightblue" points="186.559,-196.153 197.13,-195.448 188.426,-189.407 186.559,-196.153"/>
</g>
<!-- Node49 -->
<g id="node3" class="node"><title>Node49</title>
<g id="a_node3"><a xlink:href="classobe_1_1_debug_1_1_console_stream.html#a5e6b6ff008579aaa9f2f954cc15d2328" target="_top" xlink:title="Push a new Message to the Console. ">
<polygon fill="white" stroke="black" points="183,-146.5 183,-176.5 322,-176.5 322,-146.5 183,-146.5"/>
<text text-anchor="start" x="191" y="-164.5" font-family="Helvetica,sans-Serif" font-size="10.00">obe::Debug::ConsoleStream</text>
<text text-anchor="middle" x="252.5" y="-153.5" font-family="Helvetica,sans-Serif" font-size="10.00">::push</text>
</a>
</g>
</g>
<!-- Node47&#45;&gt;Node49 -->
<g id="edge2" class="edge"><title>Node47&#45;&gt;Node49</title>
<path fill="none" stroke="midnightblue" d="M147.003,-161.5C155.512,-161.5 164.225,-161.5 172.813,-161.5"/>
<polygon fill="midnightblue" stroke="midnightblue" points="172.818,-165 182.818,-161.5 172.818,-158 172.818,-165"/>
</g>
<!-- Node68 -->
<g id="node22" class="node"><title>Node68</title>
<g id="a_node22"><a xlink:href="classobe_1_1_debug_1_1_console_stream.html#aac29b2cbe555b2c3d29d030c9c7025f3" target="_top" xlink:title="Sets a new Color for the Stream. ">
<polygon fill="white" stroke="black" points="183,-97.5 183,-127.5 322,-127.5 322,-97.5 183,-97.5"/>
<text text-anchor="start" x="191" y="-115.5" font-family="Helvetica,sans-Serif" font-size="10.00">obe::Debug::ConsoleStream</text>
<text text-anchor="middle" x="252.5" y="-104.5" font-family="Helvetica,sans-Serif" font-size="10.00">::setColor</text>
</a>
</g>
</g>
<!-- Node47&#45;&gt;Node68 -->
<g id="edge23" class="edge"><title>Node47&#45;&gt;Node68</title>
<path fill="none" stroke="midnightblue" d="M129.05,-146.399C147.474,-141.298 168.212,-135.557 187.312,-130.27"/>
<polygon fill="midnightblue" stroke="midnightblue" points="188.426,-133.593 197.13,-127.552 186.559,-126.847 188.426,-133.593"/>
</g>
<!-- Node50 -->
<g id="node4" class="node"><title>Node50</title>
<g id="a_node4"><a xlink:href="classobe_1_1_debug_1_1_console.html#a371e6e971dfd23464717aeacc5b1a2b2" target="_top" xlink:title="Push a new Message to the Console. ">
<polygon fill="white" stroke="black" points="358,-146.5 358,-176.5 465,-176.5 465,-146.5 358,-146.5"/>
<text text-anchor="start" x="366" y="-164.5" font-family="Helvetica,sans-Serif" font-size="10.00">obe::Debug::Console</text>
<text text-anchor="middle" x="411.5" y="-153.5" font-family="Helvetica,sans-Serif" font-size="10.00">::pushMessage</text>
</a>
</g>
</g>
<!-- Node49&#45;&gt;Node50 -->
<g id="edge3" class="edge"><title>Node49&#45;&gt;Node50</title>
<path fill="none" stroke="midnightblue" d="M322.362,-161.5C330.797,-161.5 339.383,-161.5 347.721,-161.5"/>
<polygon fill="midnightblue" stroke="midnightblue" points="347.744,-165 357.744,-161.5 347.743,-158 347.744,-165"/>
</g>
<!-- Node51 -->
<g id="node5" class="node"><title>Node51</title>
<g id="a_node5"><a xlink:href="namespaceobe_1_1_utils_1_1_string.html#a6304ccfbd6a3bf086bd3189609381f70" target="_top" xlink:title="Count of the occurences of occur in string str. ">
<polygon fill="white" stroke="black" points="515,-220.5 515,-250.5 621,-250.5 621,-220.5 515,-220.5"/>
<text text-anchor="start" x="523" y="-238.5" font-family="Helvetica,sans-Serif" font-size="10.00">obe::Utils::String</text>
<text text-anchor="middle" x="568" y="-227.5" font-family="Helvetica,sans-Serif" font-size="10.00">::occurencesInString</text>
</a>
</g>
</g>
<!-- Node50&#45;&gt;Node51 -->
<g id="edge4" class="edge"><title>Node50&#45;&gt;Node51</title>
<path fill="none" stroke="midnightblue" d="M436.722,-176.63C454.195,-187.182 478.559,-201.167 501,-211.5 504.862,-213.278 508.897,-215.018 512.986,-216.696"/>
<polygon fill="midnightblue" stroke="midnightblue" points="511.982,-220.062 522.568,-220.488 514.558,-213.554 511.982,-220.062"/>
</g>
<!-- Node52 -->
<g id="node6" class="node"><title>Node52</title>
<g id="a_node6"><a xlink:href="namespaceobe_1_1_utils_1_1_string.html#a074d624ca5936545dc32c0b5e423050d" target="_top" xlink:title="Splits a std::string using a delimited. ">
<polygon fill="white" stroke="black" points="523.5,-171.5 523.5,-201.5 612.5,-201.5 612.5,-171.5 523.5,-171.5"/>
<text text-anchor="start" x="531.5" y="-189.5" font-family="Helvetica,sans-Serif" font-size="10.00">obe::Utils::String</text>
<text text-anchor="middle" x="568" y="-178.5" font-family="Helvetica,sans-Serif" font-size="10.00">::split</text>
</a>
</g>
</g>
<!-- Node50&#45;&gt;Node52 -->
<g id="edge5" class="edge"><title>Node50&#45;&gt;Node52</title>
<path fill="none" stroke="midnightblue" d="M465.238,-170.034C480.727,-172.54 497.683,-175.284 513.236,-177.8"/>
<polygon fill="midnightblue" stroke="midnightblue" points="512.793,-181.274 523.224,-179.416 513.911,-174.364 512.793,-181.274"/>
</g>
<!-- Node53 -->
<g id="node7" class="node"><title>Node53</title>
<g id="a_node7"><a xlink:href="classobe_1_1_triggers_1_1_trigger_group.html#a49dc453c0968342bd7ffae88abcb19b7" target="_top" xlink:title="Pushes a Parameter to a Trigger. ">
<polygon fill="white" stroke="black" points="501,-122.5 501,-152.5 635,-152.5 635,-122.5 501,-122.5"/>
<text text-anchor="start" x="509" y="-140.5" font-family="Helvetica,sans-Serif" font-size="10.00">obe::Triggers::TriggerGroup</text>
<text text-anchor="middle" x="568" y="-129.5" font-family="Helvetica,sans-Serif" font-size="10.00">::pushParameter</text>
</a>
</g>
</g>
<!-- Node50&#45;&gt;Node53 -->
<g id="edge6" class="edge"><title>Node50&#45;&gt;Node53</title>
<path fill="none" stroke="midnightblue" d="M465.238,-153.308C473.469,-152.029 482.114,-150.686 490.742,-149.346"/>
<polygon fill="midnightblue" stroke="midnightblue" points="491.494,-152.771 500.838,-147.778 490.419,-145.854 491.494,-152.771"/>
</g>
<!-- Node66 -->
<g id="node20" class="node"><title>Node66</title>
<g id="a_node20"><a xlink:href="classobe_1_1_triggers_1_1_trigger_group.html#a321c75e1c0d14e8cf23dfa4829c457c6" target="_top" xlink:title="Enables a Trigger. ">
<polygon fill="white" stroke="black" points="501,-73.5 501,-103.5 635,-103.5 635,-73.5 501,-73.5"/>
<text text-anchor="start" x="509" y="-91.5" font-family="Helvetica,sans-Serif" font-size="10.00">obe::Triggers::TriggerGroup</text>
<text text-anchor="middle" x="568" y="-80.5" font-family="Helvetica,sans-Serif" font-size="10.00">::trigger</text>
</a>
</g>
</g>
<!-- Node50&#45;&gt;Node66 -->
<g id="edge19" class="edge"><title>Node50&#45;&gt;Node66</title>
<path fill="none" stroke="midnightblue" d="M437.978,-146.491C455.414,-136.518 479.229,-123.472 501,-113.5 505.616,-111.386 510.467,-109.301 515.356,-107.291"/>
<polygon fill="midnightblue" stroke="midnightblue" points="516.768,-110.496 524.752,-103.532 514.168,-103.997 516.768,-110.496"/>
</g>
<!-- Node54 -->
<g id="node8" class="node"><title>Node54</title>
<g id="a_node8"><a xlink:href="classobe_1_1_triggers_1_1_trigger_group.html#aa634130b4aeb886549f0a20d993b5c92" target="_top" xlink:title="Get a Trigger contained in the TriggerGroup. ">
<polygon fill="white" stroke="black" points="671,-98.5 671,-128.5 805,-128.5 805,-98.5 671,-98.5"/>
<text text-anchor="start" x="679" y="-116.5" font-family="Helvetica,sans-Serif" font-size="10.00">obe::Triggers::TriggerGroup</text>
<text text-anchor="middle" x="738" y="-105.5" font-family="Helvetica,sans-Serif" font-size="10.00">::getTrigger</text>
</a>
</g>
</g>
<!-- Node53&#45;&gt;Node54 -->
<g id="edge7" class="edge"><title>Node53&#45;&gt;Node54</title>
<path fill="none" stroke="midnightblue" d="M635.398,-128.015C643.77,-126.819 652.386,-125.588 660.894,-124.372"/>
<polygon fill="midnightblue" stroke="midnightblue" points="661.405,-127.835 670.809,-122.956 660.415,-120.905 661.405,-127.835"/>
</g>
<!-- Node60 -->
<g id="node14" class="node"><title>Node60</title>
<g id="a_node14"><a xlink:href="classobe_1_1_triggers_1_1_trigger.html#a09b4d1a86c910fd6659ec37547bea49f" target="_top" xlink:title="Pushes a parameter to the Trigger. ">
<polygon fill="white" stroke="black" points="684,-147.5 684,-177.5 792,-177.5 792,-147.5 684,-147.5"/>
<text text-anchor="start" x="692" y="-165.5" font-family="Helvetica,sans-Serif" font-size="10.00">obe::Triggers::Trigger</text>
<text text-anchor="middle" x="738" y="-154.5" font-family="Helvetica,sans-Serif" font-size="10.00">::pushParameter</text>
</a>
</g>
</g>
<!-- Node53&#45;&gt;Node60 -->
<g id="edge13" class="edge"><title>Node53&#45;&gt;Node60</title>
<path fill="none" stroke="midnightblue" d="M635.398,-147.381C648.063,-149.265 661.287,-151.233 673.846,-153.102"/>
<polygon fill="midnightblue" stroke="midnightblue" points="673.347,-156.566 683.754,-154.576 674.378,-149.643 673.347,-156.566"/>
</g>
<!-- Node55 -->
<g id="node9" class="node"><title>Node55</title>
<g id="a_node9"><a xlink:href="classaube_1_1_error_handler.html#a7c8d44a3e7f019646d289950abc5301b" target="_top" xlink:title="Raises an Error loaded in the Aube Error Database (AED) ">
<polygon fill="white" stroke="black" points="857,-147.5 857,-177.5 955,-177.5 955,-147.5 857,-147.5"/>
<text text-anchor="start" x="865" y="-165.5" font-family="Helvetica,sans-Serif" font-size="10.00">aube::ErrorHandler</text>
<text text-anchor="middle" x="906" y="-154.5" font-family="Helvetica,sans-Serif" font-size="10.00">::Raise</text>
</a>
</g>
</g>
<!-- Node54&#45;&gt;Node55 -->
<g id="edge8" class="edge"><title>Node54&#45;&gt;Node55</title>
<path fill="none" stroke="midnightblue" d="M790.16,-128.601C808.167,-133.917 828.531,-139.928 847.058,-145.397"/>
<polygon fill="midnightblue" stroke="midnightblue" points="846.262,-148.811 856.844,-148.285 848.244,-142.097 846.262,-148.811"/>
</g>
<!-- Node56 -->
<g id="node10" class="node"><title>Node56</title>
<g id="a_node10"><a xlink:href="classaube_1_1_error_message.html#a3a39b6fcd8fdb12eaf6383123535b8ca" target="_top" xlink:title="Gets the File where is located the ErrorMessage when raised. ">
<polygon fill="white" stroke="black" points="1009,-147.5 1009,-177.5 1113,-177.5 1113,-147.5 1009,-147.5"/>
<text text-anchor="start" x="1017" y="-165.5" font-family="Helvetica,sans-Serif" font-size="10.00">aube::ErrorMessage</text>
<text text-anchor="middle" x="1061" y="-154.5" font-family="Helvetica,sans-Serif" font-size="10.00">::getFile</text>
</a>
</g>
</g>
<!-- Node55&#45;&gt;Node56 -->
<g id="edge9" class="edge"><title>Node55&#45;&gt;Node56</title>
<path fill="none" stroke="midnightblue" d="M955.41,-162.5C969.077,-162.5 984.133,-162.5 998.461,-162.5"/>
<polygon fill="midnightblue" stroke="midnightblue" points="998.734,-166 1008.73,-162.5 998.734,-159 998.734,-166"/>
</g>
<!-- Node57 -->
<g id="node11" class="node"><title>Node57</title>
<g id="a_node11"><a xlink:href="classaube_1_1_error_message.html#a9184cc96589578f434351c105b0cd5f7" target="_top" xlink:title="Gets the location of the error in the code. ">
<polygon fill="white" stroke="black" points="1009,-98.5 1009,-128.5 1113,-128.5 1113,-98.5 1009,-98.5"/>
<text text-anchor="start" x="1017" y="-116.5" font-family="Helvetica,sans-Serif" font-size="10.00">aube::ErrorMessage</text>
<text text-anchor="middle" x="1061" y="-105.5" font-family="Helvetica,sans-Serif" font-size="10.00">::getLocation</text>
</a>
</g>
</g>
<!-- Node55&#45;&gt;Node57 -->
<g id="edge10" class="edge"><title>Node55&#45;&gt;Node57</title>
<path fill="none" stroke="midnightblue" d="M954.153,-147.399C969.641,-142.438 987.02,-136.873 1003.15,-131.707"/>
<polygon fill="midnightblue" stroke="midnightblue" points="1004.55,-134.935 1013,-128.552 1002.41,-128.268 1004.55,-134.935"/>
</g>
<!-- Node58 -->
<g id="node12" class="node"><title>Node58</title>
<g id="a_node12"><a xlink:href="classaube_1_1_error_message.html#a07927cb3e2d0712c459cc9e2b5f52696" target="_top" xlink:title="Gets the message displayed by the ErrorMessage when raised. ">
<polygon fill="white" stroke="black" points="1009,-245.5 1009,-275.5 1113,-275.5 1113,-245.5 1009,-245.5"/>
<text text-anchor="start" x="1017" y="-263.5" font-family="Helvetica,sans-Serif" font-size="10.00">aube::ErrorMessage</text>
<text text-anchor="middle" x="1061" y="-252.5" font-family="Helvetica,sans-Serif" font-size="10.00">::getMessage</text>
</a>
</g>
</g>
<!-- Node55&#45;&gt;Node58 -->
<g id="edge11" class="edge"><title>Node55&#45;&gt;Node58</title>
<path fill="none" stroke="midnightblue" d="M924.985,-177.643C944.405,-193.544 976.646,-218.669 1007,-236.5 1009.49,-237.963 1012.09,-239.398 1014.73,-240.794"/>
<polygon fill="midnightblue" stroke="midnightblue" points="1013.33,-244.009 1023.84,-245.371 1016.48,-237.754 1013.33,-244.009"/>
</g>
<!-- Node59 -->
<g id="node13" class="node"><title>Node59</title>
<g id="a_node13"><a xlink:href="classaube_1_1_error_message.html#a77c2f9b7e93542c958173b52da267989" target="_top" xlink:title="Gets hints that can help the error resolution. ">
<polygon fill="white" stroke="black" points="1009,-196.5 1009,-226.5 1113,-226.5 1113,-196.5 1009,-196.5"/>
<text text-anchor="start" x="1017" y="-214.5" font-family="Helvetica,sans-Serif" font-size="10.00">aube::ErrorMessage</text>
<text text-anchor="middle" x="1061" y="-203.5" font-family="Helvetica,sans-Serif" font-size="10.00">::getHints</text>
</a>
</g>
</g>
<!-- Node55&#45;&gt;Node59 -->
<g id="edge12" class="edge"><title>Node55&#45;&gt;Node59</title>
<path fill="none" stroke="midnightblue" d="M954.153,-177.601C969.641,-182.562 987.02,-188.127 1003.15,-193.293"/>
<polygon fill="midnightblue" stroke="midnightblue" points="1002.41,-196.732 1013,-196.448 1004.55,-190.065 1002.41,-196.732"/>
</g>
<!-- Node61 -->
<g id="node15" class="node"><title>Node61</title>
<g id="a_node15"><a xlink:href="classobe_1_1_triggers_1_1_trigger.html#ad83456f23a1e90dc2b7f816628c93e36" target="_top" xlink:title="obe::Triggers::Trigger\l::getTriggerLuaTableName">
<polygon fill="white" stroke="black" points="841,-49.5 841,-79.5 971,-79.5 971,-49.5 841,-49.5"/>
<text text-anchor="start" x="849" y="-67.5" font-family="Helvetica,sans-Serif" font-size="10.00">obe::Triggers::Trigger</text>
<text text-anchor="middle" x="906" y="-56.5" font-family="Helvetica,sans-Serif" font-size="10.00">::getTriggerLuaTableName</text>
</a>
</g>
</g>
<!-- Node60&#45;&gt;Node61 -->
<g id="edge14" class="edge"><title>Node60&#45;&gt;Node61</title>
<path fill="none" stroke="midnightblue" d="M785.893,-147.359C792.443,-144.697 798.985,-141.731 805,-138.5 832.47,-123.745 860.761,-102.096 880.21,-86.0226"/>
<polygon fill="midnightblue" stroke="midnightblue" points="882.562,-88.6184 887.976,-79.5115 878.065,-83.2543 882.562,-88.6184"/>
</g>
<!-- Node62 -->
<g id="node16" class="node"><title>Node62</title>
<g id="a_node16"><a xlink:href="classobe_1_1_triggers_1_1_trigger.html#a5649d751353ffb6fd27051f7f21eee6e" target="_top" xlink:title="Get the name of the namespace of the parent (TriggerGroup) of the Trigger. ">
<polygon fill="white" stroke="black" points="1007,-49.5 1007,-79.5 1115,-79.5 1115,-49.5 1007,-49.5"/>
<text text-anchor="start" x="1015" y="-67.5" font-family="Helvetica,sans-Serif" font-size="10.00">obe::Triggers::Trigger</text>
<text text-anchor="middle" x="1061" y="-56.5" font-family="Helvetica,sans-Serif" font-size="10.00">::getNamespace</text>
</a>
</g>
</g>
<!-- Node61&#45;&gt;Node62 -->
<g id="edge15" class="edge"><title>Node61&#45;&gt;Node62</title>
<path fill="none" stroke="midnightblue" d="M971.442,-64.5C979.803,-64.5 988.361,-64.5 996.703,-64.5"/>
<polygon fill="midnightblue" stroke="midnightblue" points="996.743,-68.0001 1006.74,-64.5 996.743,-61.0001 996.743,-68.0001"/>
</g>
<!-- Node64 -->
<g id="node18" class="node"><title>Node64</title>
<g id="a_node18"><a xlink:href="classobe_1_1_triggers_1_1_trigger.html#ab0eb4ecf6b771aadfc966a10cd620160" target="_top" xlink:title="Get the name of the TriggerGroup which is the parent of the Trigger. ">
<polygon fill="white" stroke="black" points="1007,-0.5 1007,-30.5 1115,-30.5 1115,-0.5 1007,-0.5"/>
<text text-anchor="start" x="1015" y="-18.5" font-family="Helvetica,sans-Serif" font-size="10.00">obe::Triggers::Trigger</text>
<text text-anchor="middle" x="1061" y="-7.5" font-family="Helvetica,sans-Serif" font-size="10.00">::getGroup</text>
</a>
</g>
</g>
<!-- Node61&#45;&gt;Node64 -->
<g id="edge17" class="edge"><title>Node61&#45;&gt;Node64</title>
<path fill="none" stroke="midnightblue" d="M954.153,-49.3986C969.641,-44.4385 987.02,-38.8726 1003.15,-33.7071"/>
<polygon fill="midnightblue" stroke="midnightblue" points="1004.55,-36.9349 1013,-30.5516 1002.41,-30.2684 1004.55,-36.9349"/>
</g>
<!-- Node63 -->
<g id="node17" class="node"><title>Node63</title>
<g id="a_node17"><a xlink:href="classobe_1_1_triggers_1_1_trigger_group.html#a4444bdd3126c3cee2c09f5f20f799256" target="_top" xlink:title="Get the name of the namespace the Trigger is in. ">
<polygon fill="white" stroke="black" points="1151,-49.5 1151,-79.5 1285,-79.5 1285,-49.5 1151,-49.5"/>
<text text-anchor="start" x="1159" y="-67.5" font-family="Helvetica,sans-Serif" font-size="10.00">obe::Triggers::TriggerGroup</text>
<text text-anchor="middle" x="1218" y="-56.5" font-family="Helvetica,sans-Serif" font-size="10.00">::getNamespace</text>
</a>
</g>
</g>
<!-- Node62&#45;&gt;Node63 -->
<g id="edge16" class="edge"><title>Node62&#45;&gt;Node63</title>
<path fill="none" stroke="midnightblue" d="M1115.34,-64.5C1123.59,-64.5 1132.24,-64.5 1140.87,-64.5"/>
<polygon fill="midnightblue" stroke="midnightblue" points="1140.96,-68.0001 1150.96,-64.5 1140.96,-61.0001 1140.96,-68.0001"/>
</g>
<!-- Node65 -->
<g id="node19" class="node"><title>Node65</title>
<g id="a_node19"><a xlink:href="classobe_1_1_triggers_1_1_trigger_group.html#afd615ae94ece6e7d978aab0ae9de80f8" target="_top" xlink:title="Get the name of the TriggerGroup. ">
<polygon fill="white" stroke="black" points="1151,-0.5 1151,-30.5 1285,-30.5 1285,-0.5 1151,-0.5"/>
<text text-anchor="start" x="1159" y="-18.5" font-family="Helvetica,sans-Serif" font-size="10.00">obe::Triggers::TriggerGroup</text>
<text text-anchor="middle" x="1218" y="-7.5" font-family="Helvetica,sans-Serif" font-size="10.00">::getName</text>
</a>
</g>
</g>
<!-- Node64&#45;&gt;Node65 -->
<g id="edge18" class="edge"><title>Node64&#45;&gt;Node65</title>
<path fill="none" stroke="midnightblue" d="M1115.34,-15.5C1123.59,-15.5 1132.24,-15.5 1140.87,-15.5"/>
<polygon fill="midnightblue" stroke="midnightblue" points="1140.96,-19.0001 1150.96,-15.5 1140.96,-12.0001 1140.96,-19.0001"/>
</g>
<!-- Node66&#45;&gt;Node54 -->
<g id="edge20" class="edge"><title>Node66&#45;&gt;Node54</title>
<path fill="none" stroke="midnightblue" d="M635.398,-98.3807C643.77,-99.6265 652.386,-100.909 660.894,-102.175"/>
<polygon fill="midnightblue" stroke="midnightblue" points="660.403,-105.64 670.809,-103.65 661.433,-98.7163 660.403,-105.64"/>
</g>
<!-- Node67 -->
<g id="node21" class="node"><title>Node67</title>
<g id="a_node21"><a xlink:href="classobe_1_1_triggers_1_1_trigger.html#ad138768c1cf54e56d69df141b185b0e6" target="_top" xlink:title="obe::Triggers::Trigger\l::prepareNewCall">
<polygon fill="white" stroke="black" points="684,-49.5 684,-79.5 792,-79.5 792,-49.5 684,-49.5"/>
<text text-anchor="start" x="692" y="-67.5" font-family="Helvetica,sans-Serif" font-size="10.00">obe::Triggers::Trigger</text>
<text text-anchor="middle" x="738" y="-56.5" font-family="Helvetica,sans-Serif" font-size="10.00">::prepareNewCall</text>
</a>
</g>
</g>
<!-- Node66&#45;&gt;Node67 -->
<g id="edge21" class="edge"><title>Node66&#45;&gt;Node67</title>
<path fill="none" stroke="midnightblue" d="M635.398,-79.0146C648.063,-77.2053 661.287,-75.3162 673.846,-73.5219"/>
<polygon fill="midnightblue" stroke="midnightblue" points="674.349,-76.9858 683.754,-72.1066 673.359,-70.0561 674.349,-76.9858"/>
</g>
<!-- Node67&#45;&gt;Node61 -->
<g id="edge22" class="edge"><title>Node67&#45;&gt;Node61</title>
<path fill="none" stroke="midnightblue" d="M792.437,-64.5C804.627,-64.5 817.796,-64.5 830.683,-64.5"/>
<polygon fill="midnightblue" stroke="midnightblue" points="830.933,-68.0001 840.933,-64.5 830.933,-61.0001 830.933,-68.0001"/>
</g>
</g>
</svg>
