<?xml version="1.0" encoding="UTF-8" standalone="no"?>
<!DOCTYPE svg PUBLIC "-//W3C//DTD SVG 1.1//EN"
 "http://www.w3.org/Graphics/SVG/1.1/DTD/svg11.dtd">
<!-- Generated by graphviz version 2.38.0 (20140413.2041)
 -->
<!-- Title: obe::Editor::GUI::buildEditorSpritesMenu Pages: 1 -->
<!--zoomable 544 -->
<svg id="main" version="1.1" xmlns="http://www.w3.org/2000/svg" xmlns:xlink="http://www.w3.org/1999/xlink" xml:space="preserve" onload="init(evt)">
<style type="text/css"><![CDATA[
.edge:hover path { stroke: red; }
.edge:hover polygon { stroke: red; fill: red; }
.edge path { stroke: white; }
.edge polygon { stroke: white; fill: white; }
.node polygon { fill: white; }
]]></style>
<script type="text/javascript"><![CDATA[
var edges = document.getElementsByTagName('g');
if (edges && edges.length) {
  for (var i=0;i<edges.length;i++) {
    if (edges[i].id.substr(0,4)=='edge') {
      edges[i].setAttribute('class','edge');
    }
  }
}
]]></script>
        <defs>
                <circle id="rim" cx="0" cy="0" r="7"/>
                <circle id="rim2" cx="0" cy="0" r="3.5"/>
                <g id="zoomPlus">
                        <use xlink:href="#rim" fill="#404040">
                                <set attributeName="fill" to="#808080" begin="zoomplus.mouseover" end="zoomplus.mouseout"/>
                        </use>
                        <path d="M-4,0h8M0,-4v8" fill="none" stroke="white" stroke-width="1.5" pointer-events="none"/>
                </g>
                <g id="zoomMin">
                        <use xlink:href="#rim" fill="#404040">
                                <set attributeName="fill" to="#808080" begin="zoomminus.mouseover" end="zoomminus.mouseout"/>
                        </use>
                        <path d="M-4,0h8" fill="none" stroke="white" stroke-width="1.5" pointer-events="none"/>
                </g>
                <g id="dirArrow">
                        <path fill="none" stroke="white" stroke-width="1.5" d="M0,-3.0v7 M-2.5,-0.5L0,-3.0L2.5,-0.5"/>
                </g>
               <g id="resetDef">
                       <use xlink:href="#rim2" fill="#404040">
                               <set attributeName="fill" to="#808080" begin="reset.mouseover" end="reset.mouseout"/>
                       </use>
               </g>
        </defs>

<script type="text/javascript">
var viewWidth = 964;
var viewHeight = 544;
var sectionId = 'dynsection-7';
</script>
<script xlink:href="svgpan.js"/>
<svg id="graph" class="graph">
<g id="viewport">
<title>obe::Editor::GUI::buildEditorSpritesMenu</title>
<!-- Node85 -->
<g id="node1" class="node"><title>Node85</title>
<polygon fill="#bfbfbf" stroke="black" points="0,-389.5 0,-419.5 138,-419.5 138,-389.5 0,-389.5"/>
<text text-anchor="start" x="8" y="-407.5" font-family="Helvetica,sans-Serif" font-size="10.00">obe::Editor::GUI::buildEditor</text>
<text text-anchor="middle" x="69" y="-396.5" font-family="Helvetica,sans-Serif" font-size="10.00">SpritesMenu</text>
</g>
<!-- Node86 -->
<g id="node2" class="node"><title>Node86</title>
<g id="a_node2"><a xlink:href="namespaceobe_1_1_editor.html#a7700319c196fd0ad0c381df012809869" target="_top" xlink:title="obe::Editor::loadSpriteFolder">
<polygon fill="white" stroke="black" points="174,-395 174,-414 314,-414 314,-395 174,-395"/>
<text text-anchor="middle" x="244" y="-402" font-family="Helvetica,sans-Serif" font-size="10.00">obe::Editor::loadSpriteFolder</text>
</a>
</g>
</g>
<!-- Node85&#45;&gt;Node86 -->
<g id="edge1" class="edge"><title>Node85&#45;&gt;Node86</title>
<path fill="none" stroke="midnightblue" d="M138.374,-404.5C146.7,-404.5 155.261,-404.5 163.728,-404.5"/>
<polygon fill="midnightblue" stroke="midnightblue" points="163.989,-408 173.989,-404.5 163.989,-401 163.989,-408"/>
</g>
<!-- Node87 -->
<g id="node3" class="node"><title>Node87</title>
<g id="a_node3"><a xlink:href="classobe_1_1_system_1_1_path.html#a096ad4fa7397aa42fd73661b08f50e2a" target="_top" xlink:title="obe::System::Path::\lloadResource">
<polygon fill="white" stroke="black" points="529.5,-482.5 529.5,-512.5 633.5,-512.5 633.5,-482.5 529.5,-482.5"/>
<text text-anchor="start" x="537.5" y="-500.5" font-family="Helvetica,sans-Serif" font-size="10.00">obe::System::Path::</text>
<text text-anchor="middle" x="581.5" y="-489.5" font-family="Helvetica,sans-Serif" font-size="10.00">loadResource</text>
</a>
</g>
</g>
<!-- Node86&#45;&gt;Node87 -->
<g id="edge2" class="edge"><title>Node86&#45;&gt;Node87</title>
<path fill="none" stroke="midnightblue" d="M249.943,-414.213C262.668,-437.987 299.155,-498.812 350,-521.5 409.295,-547.958 485.432,-531.52 533.613,-515.755"/>
<polygon fill="midnightblue" stroke="midnightblue" points="534.811,-519.045 543.158,-512.521 532.564,-512.415 534.811,-519.045"/>
</g>
<!-- Node94 -->
<g id="node10" class="node"><title>Node94</title>
<g id="a_node10"><a xlink:href="namespaceobe_1_1_utils_1_1_string.html#a074d624ca5936545dc32c0b5e423050d" target="_top" xlink:title="Splits a std::string using a delimited. ">
<polygon fill="white" stroke="black" points="537,-411.5 537,-441.5 626,-441.5 626,-411.5 537,-411.5"/>
<text text-anchor="start" x="545" y="-429.5" font-family="Helvetica,sans-Serif" font-size="10.00">obe::Utils::String</text>
<text text-anchor="middle" x="581.5" y="-418.5" font-family="Helvetica,sans-Serif" font-size="10.00">::split</text>
</a>
</g>
</g>
<!-- Node86&#45;&gt;Node94 -->
<g id="edge9" class="edge"><title>Node86&#45;&gt;Node94</title>
<path fill="none" stroke="midnightblue" d="M314.109,-409.032C377.082,-413.161 468.82,-419.177 526.545,-422.962"/>
<polygon fill="midnightblue" stroke="midnightblue" points="526.354,-426.457 536.561,-423.619 526.812,-419.472 526.354,-426.457"/>
</g>
<!-- Node95 -->
<g id="node11" class="node"><title>Node95</title>
<g id="a_node11"><a xlink:href="namespaceobe_1_1_utils_1_1_vector.html#a964ff22524706c50e054f29d98b8ba6d" target="_top" xlink:title="Join all elements of a std::string into a std::string using a separator. ">
<polygon fill="white" stroke="black" points="365,-433.5 365,-463.5 457,-463.5 457,-433.5 365,-433.5"/>
<text text-anchor="start" x="373" y="-451.5" font-family="Helvetica,sans-Serif" font-size="10.00">obe::Utils::Vector</text>
<text text-anchor="middle" x="411" y="-440.5" font-family="Helvetica,sans-Serif" font-size="10.00">::join</text>
</a>
</g>
</g>
<!-- Node86&#45;&gt;Node95 -->
<g id="edge10" class="edge"><title>Node86&#45;&gt;Node95</title>
<path fill="none" stroke="midnightblue" d="M280.803,-414.047C302.461,-419.823 330.523,-427.306 354.958,-433.822"/>
<polygon fill="midnightblue" stroke="midnightblue" points="354.26,-437.258 364.824,-436.453 356.064,-430.495 354.26,-437.258"/>
</g>
<!-- Node96 -->
<g id="node12" class="node"><title>Node96</title>
<g id="a_node12"><a xlink:href="classobe_1_1_editor_1_1_thumbnailer.html#a3866ddcb62dc01e19249ce41dd7a9043" target="_top" xlink:title="Creates a thumbnail of the Folder at the given path. ">
<polygon fill="white" stroke="black" points="350,-345.5 350,-375.5 472,-375.5 472,-345.5 350,-345.5"/>
<text text-anchor="start" x="358" y="-363.5" font-family="Helvetica,sans-Serif" font-size="10.00">obe::Editor::Thumbnailer</text>
<text text-anchor="middle" x="411" y="-352.5" font-family="Helvetica,sans-Serif" font-size="10.00">::GetFolderThumbnail</text>
</a>
</g>
</g>
<!-- Node86&#45;&gt;Node96 -->
<g id="edge11" class="edge"><title>Node86&#45;&gt;Node96</title>
<path fill="none" stroke="midnightblue" d="M280.803,-394.953C299.214,-390.043 322.251,-383.9 343.755,-378.165"/>
<polygon fill="midnightblue" stroke="midnightblue" points="344.744,-381.524 353.505,-375.565 342.941,-374.76 344.744,-381.524"/>
</g>
<!-- Node97 -->
<g id="node13" class="node"><title>Node97</title>
<g id="a_node13"><a xlink:href="classobe_1_1_system_1_1_path.html#ab3b53b3bb2e98d5e23c35692a52eb66c" target="_top" xlink:title="Returns a new Path which is the current one concatened with the given string. ">
<polygon fill="white" stroke="black" points="351,-307 351,-326 471,-326 471,-307 351,-307"/>
<text text-anchor="middle" x="411" y="-314" font-family="Helvetica,sans-Serif" font-size="10.00">obe::System::Path::add</text>
</a>
</g>
</g>
<!-- Node86&#45;&gt;Node97 -->
<g id="edge13" class="edge"><title>Node86&#45;&gt;Node97</title>
<path fill="none" stroke="midnightblue" d="M257.262,-394.812C276.204,-380.234 314.15,-352.554 350,-335.5 354.63,-333.298 359.578,-331.264 364.573,-329.412"/>
<polygon fill="midnightblue" stroke="midnightblue" points="365.867,-332.667 374.163,-326.076 363.568,-326.056 365.867,-332.667"/>
</g>
<!-- Node99 -->
<g id="node15" class="node"><title>Node99</title>
<g id="a_node15"><a xlink:href="classobe_1_1_editor_1_1_thumbnailer.html#a0aed6987f064d778e710fa141d092e1b" target="_top" xlink:title="Creates a thumbnail of the Sprite at the given path. ">
<polygon fill="white" stroke="black" points="350,-482.5 350,-512.5 472,-512.5 472,-482.5 350,-482.5"/>
<text text-anchor="start" x="358" y="-500.5" font-family="Helvetica,sans-Serif" font-size="10.00">obe::Editor::Thumbnailer</text>
<text text-anchor="middle" x="411" y="-489.5" font-family="Helvetica,sans-Serif" font-size="10.00">::GetSpriteThumbnail</text>
</a>
</g>
</g>
<!-- Node86&#45;&gt;Node99 -->
<g id="edge15" class="edge"><title>Node86&#45;&gt;Node99</title>
<path fill="none" stroke="midnightblue" d="M258.122,-414.105C277.553,-428.066 315.411,-454.284 350,-472.5 353.707,-474.452 357.6,-476.364 361.548,-478.206"/>
<polygon fill="midnightblue" stroke="midnightblue" points="360.242,-481.456 370.798,-482.364 363.112,-475.071 360.242,-481.456"/>
</g>
<!-- Node100 -->
<g id="node16" class="node"><title>Node100</title>
<g id="a_node16"><a xlink:href="namespaceobe_1_1_editor.html#a98df387085b87692b2458ada49d8c8a3" target="_top" xlink:title="obe::Editor::addSpriteTo\lWorld">
<polygon fill="white" stroke="black" points="350,-186.5 350,-216.5 472,-216.5 472,-186.5 350,-186.5"/>
<text text-anchor="start" x="358" y="-204.5" font-family="Helvetica,sans-Serif" font-size="10.00">obe::Editor::addSpriteTo</text>
<text text-anchor="middle" x="411" y="-193.5" font-family="Helvetica,sans-Serif" font-size="10.00">World</text>
</a>
</g>
</g>
<!-- Node86&#45;&gt;Node100 -->
<g id="edge18" class="edge"><title>Node86&#45;&gt;Node100</title>
<path fill="none" stroke="midnightblue" d="M252.737,-394.981C277.457,-364.568 355.022,-269.14 391.144,-224.699"/>
<polygon fill="midnightblue" stroke="midnightblue" points="393.995,-226.741 397.586,-216.773 388.563,-222.325 393.995,-226.741"/>
</g>
<!-- Node88 -->
<g id="node4" class="node"><title>Node88</title>
<g id="a_node4"><a xlink:href="namespaceobe_1_1_utils_1_1_file.html#a1095626f5495edc7b8692073dd25cceb" target="_top" xlink:title="Check if the file at the given path exists. ">
<polygon fill="white" stroke="black" points="691,-488 691,-507 816,-507 816,-488 691,-488"/>
<text text-anchor="middle" x="753.5" y="-495" font-family="Helvetica,sans-Serif" font-size="10.00">obe::Utils::File::fileExists</text>
</a>
</g>
</g>
<!-- Node87&#45;&gt;Node88 -->
<g id="edge3" class="edge"><title>Node87&#45;&gt;Node88</title>
<path fill="none" stroke="midnightblue" d="M633.506,-497.5C648.268,-497.5 664.667,-497.5 680.456,-497.5"/>
<polygon fill="midnightblue" stroke="midnightblue" points="680.72,-501 690.72,-497.5 680.72,-494 680.72,-501"/>
</g>
<!-- Node89 -->
<g id="node5" class="node"><title>Node89</title>
<g id="a_node5"><a xlink:href="classaube_1_1_error_handler.html#a7c8d44a3e7f019646d289950abc5301b" target="_top" xlink:title="Raises an Error loaded in the Aube Error Database (AED) ">
<polygon fill="white" stroke="black" points="704.5,-312.5 704.5,-342.5 802.5,-342.5 802.5,-312.5 704.5,-312.5"/>
<text text-anchor="start" x="712.5" y="-330.5" font-family="Helvetica,sans-Serif" font-size="10.00">aube::ErrorHandler</text>
<text text-anchor="middle" x="753.5" y="-319.5" font-family="Helvetica,sans-Serif" font-size="10.00">::Raise</text>
</a>
</g>
</g>
<!-- Node87&#45;&gt;Node89 -->
<g id="edge4" class="edge"><title>Node87&#45;&gt;Node89</title>
<path fill="none" stroke="midnightblue" d="M610.167,-482.468C624.359,-474.062 641.459,-462.811 655,-450.5 688.366,-420.165 719.338,-377.65 737.067,-351.378"/>
<polygon fill="midnightblue" stroke="midnightblue" points="740.143,-353.074 742.768,-342.81 734.315,-349.197 740.143,-353.074"/>
</g>
<!-- Node90 -->
<g id="node6" class="node"><title>Node90</title>
<g id="a_node6"><a xlink:href="classaube_1_1_error_message.html#a3a39b6fcd8fdb12eaf6383123535b8ca" target="_top" xlink:title="Gets the File where is located the ErrorMessage when raised. ">
<polygon fill="white" stroke="black" points="852,-386.5 852,-416.5 956,-416.5 956,-386.5 852,-386.5"/>
<text text-anchor="start" x="860" y="-404.5" font-family="Helvetica,sans-Serif" font-size="10.00">aube::ErrorMessage</text>
<text text-anchor="middle" x="904" y="-393.5" font-family="Helvetica,sans-Serif" font-size="10.00">::getFile</text>
</a>
</g>
</g>
<!-- Node89&#45;&gt;Node90 -->
<g id="edge5" class="edge"><title>Node89&#45;&gt;Node90</title>
<path fill="none" stroke="midnightblue" d="M784.332,-342.589C803.614,-352.317 829.261,-365.213 852,-376.5 855.574,-378.274 859.293,-380.112 863.021,-381.95"/>
<polygon fill="midnightblue" stroke="midnightblue" points="861.713,-385.206 872.231,-386.478 864.802,-378.925 861.713,-385.206"/>
</g>
<!-- Node91 -->
<g id="node7" class="node"><title>Node91</title>
<g id="a_node7"><a xlink:href="classaube_1_1_error_message.html#a9184cc96589578f434351c105b0cd5f7" target="_top" xlink:title="Gets the location of the error in the code. ">
<polygon fill="white" stroke="black" points="852,-337.5 852,-367.5 956,-367.5 956,-337.5 852,-337.5"/>
<text text-anchor="start" x="860" y="-355.5" font-family="Helvetica,sans-Serif" font-size="10.00">aube::ErrorMessage</text>
<text text-anchor="middle" x="904" y="-344.5" font-family="Helvetica,sans-Serif" font-size="10.00">::getLocation</text>
</a>
</g>
</g>
<!-- Node89&#45;&gt;Node91 -->
<g id="edge6" class="edge"><title>Node89&#45;&gt;Node91</title>
<path fill="none" stroke="midnightblue" d="M802.714,-335.617C815.266,-337.73 828.956,-340.035 842.072,-342.243"/>
<polygon fill="midnightblue" stroke="midnightblue" points="841.519,-345.699 851.961,-343.908 842.681,-338.796 841.519,-345.699"/>
</g>
<!-- Node92 -->
<g id="node8" class="node"><title>Node92</title>
<g id="a_node8"><a xlink:href="classaube_1_1_error_message.html#a07927cb3e2d0712c459cc9e2b5f52696" target="_top" xlink:title="Gets the message displayed by the ErrorMessage when raised. ">
<polygon fill="white" stroke="black" points="852,-288.5 852,-318.5 956,-318.5 956,-288.5 852,-288.5"/>
<text text-anchor="start" x="860" y="-306.5" font-family="Helvetica,sans-Serif" font-size="10.00">aube::ErrorMessage</text>
<text text-anchor="middle" x="904" y="-295.5" font-family="Helvetica,sans-Serif" font-size="10.00">::getMessage</text>
</a>
</g>
</g>
<!-- Node89&#45;&gt;Node92 -->
<g id="edge7" class="edge"><title>Node89&#45;&gt;Node92</title>
<path fill="none" stroke="midnightblue" d="M802.714,-319.708C815.266,-317.679 828.956,-315.467 842.072,-313.347"/>
<polygon fill="midnightblue" stroke="midnightblue" points="842.648,-316.799 851.961,-311.749 841.531,-309.889 842.648,-316.799"/>
</g>
<!-- Node93 -->
<g id="node9" class="node"><title>Node93</title>
<g id="a_node9"><a xlink:href="classaube_1_1_error_message.html#a77c2f9b7e93542c958173b52da267989" target="_top" xlink:title="Gets hints that can help the error resolution. ">
<polygon fill="white" stroke="black" points="852,-239.5 852,-269.5 956,-269.5 956,-239.5 852,-239.5"/>
<text text-anchor="start" x="860" y="-257.5" font-family="Helvetica,sans-Serif" font-size="10.00">aube::ErrorMessage</text>
<text text-anchor="middle" x="904" y="-246.5" font-family="Helvetica,sans-Serif" font-size="10.00">::getHints</text>
</a>
</g>
</g>
<!-- Node89&#45;&gt;Node93 -->
<g id="edge8" class="edge"><title>Node89&#45;&gt;Node93</title>
<path fill="none" stroke="midnightblue" d="M784.271,-312.288C803.529,-302.51 829.172,-289.605 852,-278.5 855.085,-276.999 858.282,-275.459 861.502,-273.919"/>
<polygon fill="midnightblue" stroke="midnightblue" points="863.036,-277.065 870.565,-269.61 860.031,-270.743 863.036,-277.065"/>
</g>
<!-- Node96&#45;&gt;Node94 -->
<g id="edge12" class="edge"><title>Node96&#45;&gt;Node94</title>
<path fill="none" stroke="midnightblue" d="M445.524,-375.515C463.852,-383.547 487.031,-393.419 508,-401.5 514.26,-403.913 520.865,-406.344 527.436,-408.694"/>
<polygon fill="midnightblue" stroke="midnightblue" points="526.401,-412.04 536.995,-412.065 528.729,-405.438 526.401,-412.04"/>
</g>
<!-- Node98 -->
<g id="node14" class="node"><title>Node98</title>
<g id="a_node14"><a xlink:href="classobe_1_1_system_1_1_path.html#afce5029aa92ba41d0f201f1ac67a21e0" target="_top" xlink:title="Default constructor of Path. ">
<polygon fill="white" stroke="black" points="519,-373 519,-392 644,-392 644,-373 519,-373"/>
<text text-anchor="middle" x="581.5" y="-380" font-family="Helvetica,sans-Serif" font-size="10.00">obe::System::Path::Path</text>
</a>
</g>
</g>
<!-- Node97&#45;&gt;Node98 -->
<g id="edge14" class="edge"><title>Node97&#45;&gt;Node98</title>
<path fill="none" stroke="midnightblue" d="M448.956,-326.047C456.763,-328.654 464.81,-331.802 472,-335.5 489.785,-344.648 490.047,-353.687 508,-362.5 513.615,-365.256 519.667,-367.682 525.797,-369.803"/>
<polygon fill="midnightblue" stroke="midnightblue" points="524.849,-373.174 535.44,-372.89 526.984,-366.508 524.849,-373.174"/>
</g>
<!-- Node99&#45;&gt;Node87 -->
<g id="edge16" class="edge"><title>Node99&#45;&gt;Node87</title>
<path fill="none" stroke="midnightblue" d="M472.356,-497.5C487.548,-497.5 503.87,-497.5 519.112,-497.5"/>
<polygon fill="midnightblue" stroke="midnightblue" points="519.464,-501 529.464,-497.5 519.464,-494 519.464,-501"/>
</g>
<!-- Node99&#45;&gt;Node94 -->
<g id="edge17" class="edge"><title>Node99&#45;&gt;Node94</title>
<path fill="none" stroke="midnightblue" d="M448.185,-482.465C456.04,-479.19 464.302,-475.736 472,-472.5 492.91,-463.711 516.056,-453.908 535.582,-445.617"/>
<polygon fill="midnightblue" stroke="midnightblue" points="537.015,-448.811 544.85,-441.68 534.278,-442.369 537.015,-448.811"/>
</g>
<!-- Node101 -->
<g id="node17" class="node"><title>Node101</title>
<g id="a_node17"><a xlink:href="classobe_1_1_script_1_1_core_hook.html#abfb4f2a09d40cf0d54e22aea701e597c" target="_top" xlink:title="obe::Script::CoreHook\l::getPointer">
<polygon fill="white" stroke="black" points="525,-186.5 525,-216.5 638,-216.5 638,-186.5 525,-186.5"/>
<text text-anchor="start" x="533" y="-204.5" font-family="Helvetica,sans-Serif" font-size="10.00">obe::Script::CoreHook</text>
<text text-anchor="middle" x="581.5" y="-193.5" font-family="Helvetica,sans-Serif" font-size="10.00">::getPointer</text>
</a>
</g>
</g>
<!-- Node100&#45;&gt;Node101 -->
<g id="edge19" class="edge"><title>Node100&#45;&gt;Node101</title>
<path fill="none" stroke="midnightblue" d="M472.356,-201.5C486.11,-201.5 500.79,-201.5 514.757,-201.5"/>
<polygon fill="midnightblue" stroke="midnightblue" points="514.777,-205 524.777,-201.5 514.777,-198 514.777,-205"/>
</g>
<!-- Node102 -->
<g id="node18" class="node"><title>Node102</title>
<g id="a_node18"><a xlink:href="classobe_1_1_types_1_1_any.html#a46759ea1523dd908b7acc6b143727fed" target="_top" xlink:title="obe::Types::Any::as">
<polygon fill="white" stroke="black" points="529.5,-148 529.5,-167 633.5,-167 633.5,-148 529.5,-148"/>
<text text-anchor="middle" x="581.5" y="-155" font-family="Helvetica,sans-Serif" font-size="10.00">obe::Types::Any::as</text>
</a>
</g>
</g>
<!-- Node100&#45;&gt;Node102 -->
<g id="edge21" class="edge"><title>Node100&#45;&gt;Node102</title>
<path fill="none" stroke="midnightblue" d="M469.517,-186.481C490.641,-180.965 514.266,-174.796 534.271,-169.572"/>
<polygon fill="midnightblue" stroke="midnightblue" points="535.281,-172.925 544.072,-167.012 533.512,-166.153 535.281,-172.925"/>
</g>
<!-- Node103 -->
<g id="node19" class="node"><title>Node103</title>
<g id="a_node19"><a xlink:href="classobe_1_1_scene_1_1_scene.html#a30fa749216d62e9a346ffee79ba5aa13" target="_top" xlink:title="Get how many LevelSprites are present in the Scene. ">
<polygon fill="white" stroke="black" points="526,-98.5 526,-128.5 637,-128.5 637,-98.5 526,-98.5"/>
<text text-anchor="start" x="534" y="-116.5" font-family="Helvetica,sans-Serif" font-size="10.00">obe::Scene::Scene::</text>
<text text-anchor="middle" x="581.5" y="-105.5" font-family="Helvetica,sans-Serif" font-size="10.00">getLevelSpriteAmount</text>
</a>
</g>
</g>
<!-- Node100&#45;&gt;Node103 -->
<g id="edge22" class="edge"><title>Node100&#45;&gt;Node103</title>
<path fill="none" stroke="midnightblue" d="M431.723,-186.445C450.543,-172.602 480.085,-152.206 508,-138.5 512.515,-136.283 517.277,-134.176 522.114,-132.195"/>
<polygon fill="midnightblue" stroke="midnightblue" points="523.422,-135.441 531.464,-128.543 520.875,-128.921 523.422,-135.441"/>
</g>
<!-- Node104 -->
<g id="node20" class="node"><title>Node104</title>
<g id="a_node20"><a xlink:href="classobe_1_1_scene_1_1_scene.html#adbadedd41641b7dbcdc00682395f6925" target="_top" xlink:title="Check if a LevelSprite exists in the Scene. ">
<polygon fill="white" stroke="black" points="525,-49.5 525,-79.5 638,-79.5 638,-49.5 525,-49.5"/>
<text text-anchor="start" x="533" y="-67.5" font-family="Helvetica,sans-Serif" font-size="10.00">obe::Scene::Scene::</text>
<text text-anchor="middle" x="581.5" y="-56.5" font-family="Helvetica,sans-Serif" font-size="10.00">doesLevelSpriteExists</text>
</a>
</g>
</g>
<!-- Node100&#45;&gt;Node104 -->
<g id="edge23" class="edge"><title>Node100&#45;&gt;Node104</title>
<path fill="none" stroke="midnightblue" d="M420.945,-186.388C435.962,-162.277 468.511,-115.119 508,-88.5 510.422,-86.8673 512.964,-85.3379 515.588,-83.906"/>
<polygon fill="midnightblue" stroke="midnightblue" points="517.328,-86.9508 524.766,-79.4055 514.246,-80.6658 517.328,-86.9508"/>
</g>
<!-- Node105 -->
<g id="node21" class="node"><title>Node105</title>
<g id="a_node21"><a xlink:href="classobe_1_1_scene_1_1_scene.html#ac868d2b68177aa7aa584bf6af81823d9" target="_top" xlink:title="Creates a new LevelSprite. ">
<polygon fill="white" stroke="black" points="528.5,-0.5 528.5,-30.5 634.5,-30.5 634.5,-0.5 528.5,-0.5"/>
<text text-anchor="start" x="536.5" y="-18.5" font-family="Helvetica,sans-Serif" font-size="10.00">obe::Scene::Scene::</text>
<text text-anchor="middle" x="581.5" y="-7.5" font-family="Helvetica,sans-Serif" font-size="10.00">createLevelSprite</text>
</a>
</g>
</g>
<!-- Node100&#45;&gt;Node105 -->
<g id="edge24" class="edge"><title>Node100&#45;&gt;Node105</title>
<path fill="none" stroke="midnightblue" d="M416.953,-186.087C428.026,-154.048 457.831,-79.8846 508,-39.5 511.37,-36.7876 515.058,-34.3768 518.929,-32.2347"/>
<polygon fill="midnightblue" stroke="midnightblue" points="520.768,-35.232 528.228,-27.7088 517.705,-28.9378 520.768,-35.232"/>
</g>
<!-- Node107 -->
<g id="node23" class="node"><title>Node107</title>
<g id="a_node23"><a xlink:href="classobe_1_1_scene_1_1_scene.html#a8e846af715af6b26fa13b8429d16f208" target="_top" xlink:title="obe::Scene::Scene::\lgetCamera">
<polygon fill="white" stroke="black" points="528.5,-323.5 528.5,-353.5 634.5,-353.5 634.5,-323.5 528.5,-323.5"/>
<text text-anchor="start" x="536.5" y="-341.5" font-family="Helvetica,sans-Serif" font-size="10.00">obe::Scene::Scene::</text>
<text text-anchor="middle" x="581.5" y="-330.5" font-family="Helvetica,sans-Serif" font-size="10.00">getCamera</text>
</a>
</g>
</g>
<!-- Node100&#45;&gt;Node107 -->
<g id="edge26" class="edge"><title>Node100&#45;&gt;Node107</title>
<path fill="none" stroke="midnightblue" d="M421.262,-216.807C436.487,-240.737 469.032,-287.005 508,-313.5 511.468,-315.858 515.181,-318.014 519.025,-319.983"/>
<polygon fill="midnightblue" stroke="midnightblue" points="517.636,-323.197 528.18,-324.242 520.589,-316.85 517.636,-323.197"/>
</g>
<!-- Node108 -->
<g id="node24" class="node"><title>Node108</title>
<g id="a_node24"><a xlink:href="classobe_1_1_scene_1_1_camera.html#a0784974770837ae195a7738debcf6dec" target="_top" xlink:title="obe::Scene::Camera\l::getPosition">
<polygon fill="white" stroke="black" points="528.5,-274.5 528.5,-304.5 634.5,-304.5 634.5,-274.5 528.5,-274.5"/>
<text text-anchor="start" x="536.5" y="-292.5" font-family="Helvetica,sans-Serif" font-size="10.00">obe::Scene::Camera</text>
<text text-anchor="middle" x="581.5" y="-281.5" font-family="Helvetica,sans-Serif" font-size="10.00">::getPosition</text>
</a>
</g>
</g>
<!-- Node100&#45;&gt;Node108 -->
<g id="edge27" class="edge"><title>Node100&#45;&gt;Node108</title>
<path fill="none" stroke="midnightblue" d="M431.723,-216.555C450.543,-230.398 480.085,-250.794 508,-264.5 512.515,-266.717 517.277,-268.824 522.114,-270.805"/>
<polygon fill="midnightblue" stroke="midnightblue" points="520.875,-274.079 531.464,-274.457 523.422,-267.559 520.875,-274.079"/>
</g>
<!-- Node109 -->
<g id="node25" class="node"><title>Node109</title>
<g id="a_node25"><a xlink:href="classobe_1_1_transform_1_1_unit_vector.html#ac3baab00050c329e70453fd646224a0d" target="_top" xlink:title="Return an UnitVector with the converted values (x, y) to the Unit you want. ">
<polygon fill="white" stroke="black" points="508,-236 508,-255 655,-255 655,-236 508,-236"/>
<text text-anchor="middle" x="581.5" y="-243" font-family="Helvetica,sans-Serif" font-size="10.00">obe::Transform::UnitVector::to</text>
</a>
</g>
</g>
<!-- Node100&#45;&gt;Node109 -->
<g id="edge28" class="edge"><title>Node100&#45;&gt;Node109</title>
<path fill="none" stroke="midnightblue" d="M469.517,-216.519C490.641,-222.035 514.266,-228.204 534.271,-233.428"/>
<polygon fill="midnightblue" stroke="midnightblue" points="533.512,-236.847 544.072,-235.988 535.281,-230.075 533.512,-236.847"/>
</g>
<!-- Node101&#45;&gt;Node89 -->
<g id="edge20" class="edge"><title>Node101&#45;&gt;Node89</title>
<path fill="none" stroke="midnightblue" d="M635.74,-216.573C642.456,-219.413 649.05,-222.707 655,-226.5 687.801,-247.411 717.601,-281.508 735.392,-304.22"/>
<polygon fill="midnightblue" stroke="midnightblue" points="732.739,-306.513 741.604,-312.316 738.293,-302.251 732.739,-306.513"/>
</g>
<!-- Node106 -->
<g id="node22" class="node"><title>Node106</title>
<g id="a_node22"><a xlink:href="classobe_1_1_scene_1_1_scene.html#aa138ef5c7a9f869e4e8b5464a49918d5" target="_top" xlink:title="Reorganize all the LevelSprite (by Layer and z&#45;depth) ">
<polygon fill="white" stroke="black" points="700.5,-0.5 700.5,-30.5 806.5,-30.5 806.5,-0.5 700.5,-0.5"/>
<text text-anchor="start" x="708.5" y="-18.5" font-family="Helvetica,sans-Serif" font-size="10.00">obe::Scene::Scene::</text>
<text text-anchor="middle" x="753.5" y="-7.5" font-family="Helvetica,sans-Serif" font-size="10.00">reorganizeLayers</text>
</a>
</g>
</g>
<!-- Node105&#45;&gt;Node106 -->
<g id="edge25" class="edge"><title>Node105&#45;&gt;Node106</title>
<path fill="none" stroke="midnightblue" d="M634.893,-15.5C652.345,-15.5 671.958,-15.5 690.092,-15.5"/>
<polygon fill="midnightblue" stroke="midnightblue" points="690.28,-19.0001 700.28,-15.5 690.28,-12.0001 690.28,-19.0001"/>
</g>
</g>
</svg>
        <g id="navigator" transform="translate(0 0)" fill="#404254">
                <rect fill="#f2f5e9" fill-opacity="0.5" stroke="#606060" stroke-width=".5" x="0" y="0" width="60" height="60"/>
                <use id="zoomplus" xlink:href="#zoomPlus" x="17" y="9" onmousedown="handleZoom(evt,'in')"/>
                <use id="zoomminus" xlink:href="#zoomMin" x="42" y="9" onmousedown="handleZoom(evt,'out')"/>
                <use id="reset" xlink:href="#resetDef" x="30" y="36" onmousedown="handleReset()"/>
                <g id="arrowUp" xlink:href="#dirArrow" transform="translate(30 24)" onmousedown="handlePan(0,-1)">
                  <use xlink:href="#rim" fill="#404040">
                        <set attributeName="fill" to="#808080" begin="arrowUp.mouseover" end="arrowUp.mouseout"/>
                  </use>
                  <path fill="none" stroke="white" stroke-width="1.5" d="M0,-3.0v7 M-2.5,-0.5L0,-3.0L2.5,-0.5"/>
                </g>
                <g id="arrowRight" xlink:href="#dirArrow" transform="rotate(90) translate(36 -43)" onmousedown="handlePan(1,0)">
                  <use xlink:href="#rim" fill="#404040">
                        <set attributeName="fill" to="#808080" begin="arrowRight.mouseover" end="arrowRight.mouseout"/>
                  </use>
                  <path fill="none" stroke="white" stroke-width="1.5" d="M0,-3.0v7 M-2.5,-0.5L0,-3.0L2.5,-0.5"/>
                </g>
                <g id="arrowDown" xlink:href="#dirArrow" transform="rotate(180) translate(-30 -48)" onmousedown="handlePan(0,1)">
                  <use xlink:href="#rim" fill="#404040">
                        <set attributeName="fill" to="#808080" begin="arrowDown.mouseover" end="arrowDown.mouseout"/>
                  </use>
                  <path fill="none" stroke="white" stroke-width="1.5" d="M0,-3.0v7 M-2.5,-0.5L0,-3.0L2.5,-0.5"/>
                </g>
                <g id="arrowLeft" xlink:href="#dirArrow" transform="rotate(270) translate(-36 17)" onmousedown="handlePan(-1,0)">
                  <use xlink:href="#rim" fill="#404040">
                        <set attributeName="fill" to="#808080" begin="arrowLeft.mouseover" end="arrowLeft.mouseout"/>
                  </use>
                  <path fill="none" stroke="white" stroke-width="1.5" d="M0,-3.0v7 M-2.5,-0.5L0,-3.0L2.5,-0.5"/>
                </g>
        </g>
        <svg viewBox="0 0 15 15" width="100%" height="30px" preserveAspectRatio="xMaxYMin meet">
         <g id="arrow_out" transform="scale(0.3 0.3)">
          <a xlink:href="namespaceobe_1_1_editor_1_1_g_u_i_a5d2864942020d4f1bdfe7cf9e7d667bc_cgraph_org.svg" target="_base">
           <rect id="button" ry="5" rx="5" y="6" x="6" height="38" width="38"
                fill="#f2f5e9" fill-opacity="0.5" stroke="#606060" stroke-width="1.0"/>
           <path id="arrow"
             d="M 11.500037,31.436501 C 11.940474,20.09759 22.043105,11.32322 32.158766,21.979434 L 37.068811,17.246167 C 37.068811,17.246167 37.088388,32 37.088388,32 L 22.160133,31.978069 C 22.160133,31.978069 26.997745,27.140456 26.997745,27.140456 C 18.528582,18.264221 13.291696,25.230495 11.500037,31.436501 z"
             style="fill:#404040;"/>
          </a>
         </g>
        </svg>
</svg>
