<?xml version="1.0" encoding="UTF-8" standalone="no"?>
<!DOCTYPE svg PUBLIC "-//W3C//DTD SVG 1.1//EN"
 "http://www.w3.org/Graphics/SVG/1.1/DTD/svg11.dtd">
<!-- Generated by graphviz version 2.38.0 (20140413.2041)
 -->
<!-- Title: obe::Editor::loadSpriteFolder Pages: 1 -->
<svg width="705pt" height="53pt"
 viewBox="0.00 0.00 705.00 52.50" xmlns="http://www.w3.org/2000/svg" xmlns:xlink="http://www.w3.org/1999/xlink">
<g id="graph0" class="graph" transform="scale(1 1) rotate(0) translate(4 48.5)">
<title>obe::Editor::loadSpriteFolder</title>
<!-- Node850 -->
<g id="node1" class="node"><title>Node850</title>
<polygon fill="#bfbfbf" stroke="black" points="0,-6 0,-25 140,-25 140,-6 0,-6"/>
<text text-anchor="middle" x="70" y="-13" font-family="Helvetica,sans-Serif" font-size="10.00">obe::Editor::loadSpriteFolder</text>
</g>
<!-- Node851 -->
<g id="node2" class="node"><title>Node851</title>
<g id="a_node2"><a xlink:href="namespaceobe_1_1_editor_1_1_g_u_i.html#a7d562fc98b8e220d276d3703daf9040b" target="_top" xlink:title="obe::Editor::GUI::buildEditor\lSpritesMenu">
<polygon fill="white" stroke="black" points="176,-0.5 176,-30.5 314,-30.5 314,-0.5 176,-0.5"/>
<text text-anchor="start" x="184" y="-18.5" font-family="Helvetica,sans-Serif" font-size="10.00">obe::Editor::GUI::buildEditor</text>
<text text-anchor="middle" x="245" y="-7.5" font-family="Helvetica,sans-Serif" font-size="10.00">SpritesMenu</text>
</a>
</g>
</g>
<!-- Node850&#45;&gt;Node851 -->
<g id="edge1" class="edge"><title>Node850&#45;&gt;Node851</title>
<path fill="none" stroke="midnightblue" d="M150.564,-15.5C158.976,-15.5 167.475,-15.5 175.742,-15.5"/>
<polygon fill="midnightblue" stroke="midnightblue" points="150.369,-12.0001 140.369,-15.5 150.369,-19.0001 150.369,-12.0001"/>
</g>
<!-- Node852 -->
<g id="node3" class="node"><title>Node852</title>
<g id="a_node3"><a xlink:href="namespaceobe_1_1_editor.html#a9009207671e71dccb68a31ea2362e9ef" target="_top" xlink:title="Starts the map edition. ">
<polygon fill="white" stroke="black" points="350,-6 350,-25 454,-25 454,-6 350,-6"/>
<text text-anchor="middle" x="402" y="-13" font-family="Helvetica,sans-Serif" font-size="10.00">obe::Editor::editMap</text>
</a>
</g>
</g>
<!-- Node851&#45;&gt;Node852 -->
<g id="edge2" class="edge"><title>Node851&#45;&gt;Node852</title>
<path fill="none" stroke="midnightblue" d="M324.47,-15.5C333.032,-15.5 341.578,-15.5 349.69,-15.5"/>
<polygon fill="midnightblue" stroke="midnightblue" points="324.436,-12.0001 314.436,-15.5 324.436,-19.0001 324.436,-12.0001"/>
</g>
<!-- Node853 -->
<g id="node4" class="node"><title>Node853</title>
<g id="a_node4"><a xlink:href="namespaceobe_1_1_modes.html#a6a8b08eee511d4895c4da96d4ba223a6" target="_top" xlink:title="Starts the development Menu where you can starts other menus from. ">
<polygon fill="white" stroke="black" points="490,-25 490,-44 623,-44 623,-25 490,-25"/>
<text text-anchor="middle" x="556.5" y="-32" font-family="Helvetica,sans-Serif" font-size="10.00">obe::Modes::startDevMenu</text>
</a>
</g>
</g>
<!-- Node852&#45;&gt;Node853 -->
<g id="edge3" class="edge"><title>Node852&#45;&gt;Node853</title>
<path fill="none" stroke="midnightblue" d="M464.292,-23.1364C472.688,-24.1824 481.336,-25.2599 489.806,-26.3152"/>
<polygon fill="midnightblue" stroke="midnightblue" points="464.561,-19.6429 454.205,-21.8796 463.695,-26.5892 464.561,-19.6429"/>
</g>
<!-- Node854 -->
<g id="node5" class="node"><title>Node854</title>
<g id="a_node5"><a xlink:href="_ob_engine_8cpp.html#a3c04138a5bfe5d72780bb7e82a18e627" target="_top" xlink:title="main">
<polygon fill="white" stroke="black" points="659,-6 659,-25 697,-25 697,-6 659,-6"/>
<text text-anchor="middle" x="678" y="-13" font-family="Helvetica,sans-Serif" font-size="10.00">main</text>
</a>
</g>
</g>
<!-- Node852&#45;&gt;Node854 -->
<g id="edge5" class="edge"><title>Node852&#45;&gt;Node854</title>
<path fill="none" stroke="midnightblue" d="M464.356,-15.5C526.863,-15.5 619.971,-15.5 658.885,-15.5"/>
<polygon fill="midnightblue" stroke="midnightblue" points="464.216,-12.0001 454.216,-15.5 464.216,-19.0001 464.216,-12.0001"/>
</g>
<!-- Node853&#45;&gt;Node854 -->
<g id="edge4" class="edge"><title>Node853&#45;&gt;Node854</title>
<path fill="none" stroke="midnightblue" d="M627.822,-23.3192C639.345,-21.4869 650.327,-19.7409 658.978,-18.3654"/>
<polygon fill="midnightblue" stroke="midnightblue" points="626.926,-19.9174 617.6,-24.9443 628.026,-26.8306 626.926,-19.9174"/>
</g>
</g>
</svg>
